<?xml version="1.0" encoding="UTF-8" standalone="no"?>
<!-- Created with Inkscape (http://www.inkscape.org/) -->

<svg
   xmlns:dc="http://purl.org/dc/elements/1.1/"
   xmlns:cc="http://creativecommons.org/ns#"
   xmlns:rdf="http://www.w3.org/1999/02/22-rdf-syntax-ns#"
   xmlns:svg="http://www.w3.org/2000/svg"
   xmlns="http://www.w3.org/2000/svg"
   xmlns:sodipodi="http://sodipodi.sourceforge.net/DTD/sodipodi-0.dtd"
   xmlns:inkscape="http://www.inkscape.org/namespaces/inkscape"
   id="svg3336"
   version="1.1"
   inkscape:version="0.91 r13725"
   width="1250"
   height="375"
   viewBox="0 0 1250 375"
   sodipodi:docname="eagle.svg">
  <metadata
     id="metadata3342">
    <rdf:RDF>
      <cc:Work
         rdf:about="">
        <dc:format>image/svg+xml</dc:format>
        <dc:type
           rdf:resource="http://purl.org/dc/dcmitype/StillImage" />
        <dc:title></dc:title>
      </cc:Work>
    </rdf:RDF>
  </metadata>
  <defs
     id="defs3340" />
  <sodipodi:namedview
     pagecolor="#ffffff"
     bordercolor="#666666"
     borderopacity="1"
     objecttolerance="10"
     gridtolerance="10"
     guidetolerance="10"
     inkscape:pageopacity="0"
     inkscape:pageshadow="2"
     inkscape:window-width="1920"
     inkscape:window-height="1017"
     id="namedview3338"
     showgrid="false"
     inkscape:zoom="1.3104"
     inkscape:cx="625"
     inkscape:cy="187.5"
     inkscape:window-x="-8"
     inkscape:window-y="-8"
     inkscape:window-maximized="1"
     inkscape:current-layer="svg3336" />
  <path
     style="fill:#ffffff"
     d="m 485.3892,293.89874 c -7.46879,-0.95428 -7.40625,-0.9143 -8.5481,-5.4638 L 475.97897,285 l 31.29689,0 31.29689,0 1.31506,-6.5625 c 3.4045,-16.98936 15.27008,-84.86686 15.95128,-91.25 L 556.60614,180 542.8718,180 c -14.88328,0 -17.15881,-0.93212 -18.07033,-7.40209 -0.70048,-4.97207 -3.55147,-4.7054 -3.55147,0.3322 0,3.25206 0.85286,5.0593 3.29358,6.97916 2.85087,2.2425 5.03507,2.59073 16.25,2.59073 7.12603,0 12.93705,0.42187 12.91337,0.9375 -0.0236,0.51562 -3.82601,22.3125 -8.44964,48.4375 l -8.40659,47.5 -31.72792,0.33434 -31.72791,0.33433 0.66871,-10.71878 c 0.62934,-10.08735 1.18619,-11.80067 9.45286,-29.08434 4.83128,-10.10105 9.16179,-20.61555 9.62336,-23.36555 0.46158,-2.75 2.7066,-8.375 4.98894,-12.5 2.72316,-4.92171 4.61676,-10.58549 5.5083,-16.47539 1.49926,-9.9048 3.0206,-14.73147 5.03584,-15.97696 0.7299,-0.4511 1.30932,-1.49013 1.2876,-2.30893 -0.10813,-4.075 -6.13395,6.1999 -8.02866,13.69002 -1.1925,4.71419 -2.63944,9.69626 -3.21542,11.07126 -0.8837,2.10961 -1.06043,1.89449 -1.13182,-1.37765 -0.113,-5.18065 -4.75769,-11.86905 -10.10951,-14.55791 -3.28758,-1.65173 -7.4546,-2.18603 -17.06035,-2.1875 -17.56115,-0.002 -20.48777,-1.45774 -12.60224,-6.26564 3.98749,-2.43121 6.71181,-2.47704 147.5321,-2.48163 l 143.4696,-0.005 -1.96901,3.80765 -1.969,3.80764 -55.2506,-0.11813 c -30.38783,-0.065 -56.23334,-0.0909 -57.43449,-0.0576 -3.06424,0.0849 -12.25555,8.67666 -14.16759,13.24341 -1.43651,3.43101 -1.00725,13.7716 0.90568,21.8171 0.38244,1.60846 -3.41163,1.96385 -26.69023,2.5 -25.2731,0.58209 -27.26601,0.79662 -29.02912,3.125 -1.04119,1.375 -2.16759,3.34375 -2.50311,4.375 C 559.50378,223.69737 550,273.31979 550,275.90342 c 0,1.45163 1.14717,5.31557 2.54927,8.58653 4.19827,9.79415 4.01693,9.85295 -31.02907,10.06126 -16.30486,0.0969 -32.56381,-0.1967 -36.131,-0.65247 z m 125.43936,-87.81768 c 1.08992,-0.90455 1.66766,-4.2695 1.6606,-9.67161 -0.01,-7.77295 -0.28516,-8.57386 -4.45372,-12.97195 -4.35584,-4.59566 -4.62447,-4.6875 -13.71035,-4.6875 -8.24963,0 -9.46308,0.30889 -11.04858,2.8125 -3.41942,5.3995 -3.70045,10.63751 -0.83159,15.49986 1.46117,2.4765 2.38214,4.77724 2.04662,5.11276 -0.33553,0.33553 -2.5422,-0.58408 -4.90372,-2.0436 -4.62143,-2.8562 -6.7866,-6.94067 -7.35851,-13.88152 l -0.3605,-4.375 -2.18441,4.00042 c -4.33933,7.94686 -2.03374,19.00022 4.51185,21.63054 3.71284,1.49202 34.56359,0.29199 36.63231,-1.4249 z M 751.25,169 c 0,-0.55 0.62599,-1.62599 1.39109,-2.39109 2.49952,-2.49952 -0.16446,-4.10891 -6.80136,-4.10891 l -6.51274,0 -4e-5,-7.8125 c -2e-5,-4.62219 -0.85746,-9.72669 -2.09971,-12.5 l -2.09968,-4.6875 -49.53494,0 -49.53493,0 -3.65384,-3.65385 c -2.14791,-2.14791 -3.65385,-4.98144 -3.65385,-6.875 0,-1.77162 -0.5625,-3.22115 -1.25,-3.22115 -1.83564,0 -1.50818,6.3506 0.5288,10.25511 l 1.7634,3.38011 -20.42177,0.36989 -20.42177,0.36989 -0.41183,-5 c -0.2265,-2.75 -0.23384,-6.54687 -0.0163,-8.4375 l 0.39552,-3.4375 16.00553,0 16.00551,0 1.07725,7.8125 1.07726,7.8125 0.38853,-7.60749 0.38852,-7.60749 12.99505,-0.20801 c 7.23694,-0.11585 13.3251,0.32602 13.73993,0.99722 0.4775,0.77262 1.87992,0.7737 3.90699,0.003 4.89459,-1.86092 68.38789,-1.56372 70.28058,0.32896 1.10808,1.10807 2.12706,1.16586 3.6875,0.20911 1.18596,-0.72715 5.5313,-1.27056 9.6563,-1.20759 5.83201,0.089 8.44229,-0.51347 11.73694,-2.70911 5.2277,-3.48388 7.67515,-3.57677 8.52587,-0.32361 0.46308,1.77082 1.70503,2.5 4.25798,2.5 1.98231,0 3.60421,0.5625 3.60421,1.25 0,0.6875 -10e-6,1.5578 -2e-5,1.93399 -2e-5,0.37619 -29.53127,0.67093 -65.625,0.65495 C 664.53124,125.07298 635,125.53861 635,126.1237 c 0,2.2875 10.20692,2.66768 69.87314,2.60256 58.4203,-0.0637 61.86481,0.056 62.25647,2.16561 1.53679,8.2775 0.81934,17.80544 -1.77509,23.57358 -1.52375,3.38775 -3.60442,8.26892 -4.62371,10.84705 -1.57649,3.98747 -2.42279,4.6875 -5.66702,4.6875 -2.09759,0 -3.81379,-0.45 -3.81379,-1 z m -273.89796,-5.70951 c -2.1631,-1.37273 -7.01033,-2.60195 -11.76536,-2.98364 -7.86919,-0.63166 -10.05253,-1.78501 -6.18711,-3.26831 1.04477,-0.40092 3.06908,-2.7111 4.49847,-5.13374 3.19715,-5.41875 5.78086,-5.55858 12.51893,-0.67754 5.30932,3.84604 7.33303,3.91938 7.33303,0.26573 0,-1.1602 1.45645,-6.48279 3.23656,-11.82798 2.76753,-8.31014 4.12375,-10.48271 9.35876,-14.99204 3.36722,-2.90044 7.11389,-5.27903 8.32594,-5.28575 1.62533,-0.009 2.14198,-0.91445 1.96841,-3.44972 -0.20384,-2.97763 0.22687,-3.4375 3.2196,-3.4375 2.06907,0 4.63258,1.25353 6.39073,3.125 l 2.93579,3.125 32.1311,0 32.1311,0 1.32753,8.94439 c 0.73015,4.91941 2.06373,9.65473 2.96352,10.52295 1.26877,1.22425 17.83022,1.6716 73.78748,1.99311 l 72.15153,0.41455 0.77992,3.52689 c 0.42897,1.93977 0.4681,3.8387 0.087,4.21982 -1.03628,1.03629 -8.99577,1.29314 -50.16995,1.619 -23.37661,0.18501 -35.61688,0.68053 -32.5,1.31568 2.75001,0.56038 22.57813,1.08795 44.0625,1.17235 l 39.0625,0.15347 0,4.9339 0,4.93389 -80.625,0 c -63.68126,0 -80.61925,-0.32836 -80.59763,-1.5625 0.015,-0.85938 1.64253,-7.89451 3.61663,-15.63365 2.15307,-8.4407 3.10919,-14.36786 2.38948,-14.81268 -0.65989,-0.40782 -1.39594,-0.54456 -1.63565,-0.30384 -0.4069,0.4086 -8.14785,30.59627 -8.14785,31.77442 0,0.29604 -0.76945,0.53825 -1.70989,0.53825 -1.33223,0 -0.86061,-3.43941 2.1354,-15.57294 2.1149,-8.56511 3.41626,-16.00195 2.89192,-16.5263 -1.56298,-1.56297 -2.65383,1.33214 -6.44185,17.09683 -2.43952,10.15259 -4.16075,15.00241 -5.32446,15.00241 -1.04508,0 -1.47174,-0.85805 -1.08772,-2.1875 2.50598,-8.67565 6.95439,-29.56138 6.41179,-30.10398 -1.47319,-1.47318 -2.95013,2.31747 -6.25019,16.04148 -1.90112,7.90625 -3.93511,14.9 -4.51996,15.54166 -2.56523,2.81442 -2.22314,-1.2195 1.27836,-15.07492 2.06191,-8.15893 3.27639,-15.30695 2.69885,-15.88449 -1.55304,-1.55304 -2.06162,-0.23644 -6.13516,15.88249 -2.0469,8.09956 -4.05361,15.05845 -4.45936,15.4642 -2.26452,2.26451 -1.88561,-2.36021 1.24503,-15.19618 1.93214,-7.92202 3.08962,-14.82705 2.57215,-15.34451 -1.52496,-1.52496 -2.56888,1.20571 -6.28362,16.43653 -2.50113,10.25492 -4.04896,14.42522 -5.354,14.42522 -1.2494,0 -1.58936,-0.7763 -1.06436,-2.43044 2.2757,-7.17011 6.85251,-28.0308 6.27632,-28.60697 -1.46655,-1.46655 -2.94496,2.26566 -6.23585,15.74223 -3.13377,12.83322 -4.75095,16.6043 -6.40932,14.94593 -0.32978,-0.32978 1.08742,-7.27509 3.14932,-15.43401 2.14154,-8.47403 3.28009,-15.30325 2.65544,-15.9279 -0.60142,-0.60141 -0.82612,-1.7902 -0.49934,-2.64176 0.79321,-2.0671 -6.00551,-3.11605 -20.30842,-3.13332 -9.48429,-0.0113 -11.92239,0.40193 -14.54703,2.46647 -3.78419,2.97665 -5.24759,7.88116 -3.3882,11.35545 1.03342,1.93096 0.71187,5.32338 -1.35053,14.24847 l -2.70688,11.71411 -8.10387,0.41337 c -6.27738,0.32021 -8.93296,-0.11275 -11.78253,-1.92114 z m 24.34973,-3.60299 c 0.40884,-1.54688 1.40771,-5.76563 2.2197,-9.375 0.95379,-4.23966 2.12122,-6.5625 3.29823,-6.5625 1.27628,0 1.59926,0.84227 1.07852,2.8125 -0.40883,1.54687 -1.4077,5.76562 -2.21969,9.375 -0.95379,4.23966 -2.12122,6.5625 -3.29823,6.5625 -1.27628,0 -1.59926,-0.84228 -1.07853,-2.8125 z m 6.22623,1.25 c 0.34998,-0.85938 1.35314,-4.79688 2.22926,-8.75 0.99041,-4.46888 2.2394,-7.1875 3.30207,-7.1875 1.02395,0 1.46759,0.87698 1.10664,2.1875 -0.33137,1.20312 -1.31937,5.14062 -2.19554,8.75 -0.97517,4.01715 -2.26904,6.5625 -3.3359,6.5625 -0.95858,0 -1.45652,-0.70313 -1.10653,-1.5625 z m 8.20554,-6.79025 c 1.15938,-4.59401 2.84422,-8.59817 3.74407,-8.89812 1.23874,-0.41292 1.42631,0.47726 0.77233,3.66526 -1.80234,8.78591 -3.59884,13.58561 -5.08503,13.58561 -1.16241,0 -1.02317,-2.04534 0.56863,-8.35275 z m 5.6343,5.07823 c 2.46917,-10.21077 3.43446,-12.97548 4.53034,-12.97548 1.57568,0 1.48772,1.83625 -0.44502,9.29091 -0.87925,3.39125 -2.35404,6.41771 -3.27731,6.72548 -1.2693,0.4231 -1.46635,-0.31849 -0.80801,-3.04092 z m 6.17375,1.08702 c 0.75796,-2.7179 1.59757,-6.16088 2.59105,-10.625 0.42075,-1.89063 1.37775,-3.4375 2.12668,-3.4375 0.85332,0 1.05191,1.28339 0.53193,3.4375 -2.43688,10.09534 -3.40681,12.8125 -4.57366,12.8125 -0.70734,0 -1.01154,-0.98438 -0.676,-2.1875 z m 3.91435,-17.84334 c -0.50943,-0.82427 -0.15104,-1.98025 0.79641,-2.56886 2.0788,-1.29144 3.19941,0.99794 1.37936,2.81799 -0.83272,0.83272 -1.55851,0.74962 -2.17577,-0.24913 z m -20.28941,-0.97166 c -7.87823,-0.45419 -10.20924,-3.14411 -7.54687,-8.70889 1.60145,-3.34727 1.87978,-3.42051 14.32223,-3.76864 l 12.68904,-0.35501 -1.71895,5.71161 c -2.3653,7.8593 -2.71207,8.23583 -7.2237,7.84375 -2.18549,-0.18992 -6.92028,-0.5152 -10.52175,-0.72282 z m 1.48876,-5.1347 c 1.208,-1.95459 -0.7163,-5.1128 -3.11525,-5.1128 -2.75584,0 -4.16888,1.94917 -3.21504,4.43486 0.76766,2.00049 5.21833,2.47714 6.33029,0.67794 z"
     id="path3346"
     inkscape:connector-curvature="0" />
</svg>
