<?xml version="1.0" encoding="UTF-8" standalone="no"?>
<!-- Created with Inkscape (http://www.inkscape.org/) -->
<svg id="svg3356" xmlns:rdf="http://www.w3.org/1999/02/22-rdf-syntax-ns#" xmlns="http://www.w3.org/2000/svg" height="1062.5" viewBox="0 0 1062.5 1062.5" width="1062.5" version="1.1" xmlns:cc="http://creativecommons.org/ns#" xmlns:dc="http://purl.org/dc/elements/1.1/">
 <metadata id="metadata3362">
  <rdf:RDF>
   <cc:Work rdf:about="">
    <dc:format>image/svg+xml</dc:format>
    <dc:type rdf:resource="http://purl.org/dc/dcmitype/StillImage"/>
    <dc:title/>
   </cc:Work>
  </rdf:RDF>
 </metadata>
 <path id="path3366" fill="#fff" d="m702.03 1046.6c-5.1431-10.149-15.583-38.28-18.983-51.151-2.627-9.9443-3.3774-16.251-3.9519-33.213l-0.70908-20.938-10.129-0.0616c-5.5712-0.0339-23.348-0.0141-39.504 0.0439-39.757 0.1429-53.222-1.9694-63.353-9.9382-1.7788-1.3992-4.8635-2.544-6.8549-2.544-2.0716 0-3.9297-0.80538-4.343-1.8825-0.3973-1.0354-5.8888-4.9231-12.203-8.6394-21.815-12.839-69.094-50.39-112.62-89.447-9.625-8.6368-22.073-19.484-27.661-24.104-10.468-8.6542-21.035-20.723-27.867-31.827-2.8329-4.6041-4.9558-11.08-7.7548-23.657-2.1197-9.5247-4.6546-19.011-5.6332-21.08-1.46-3.0876-3.7036-37.569-4.1779-64.209-0.0172-0.96975-2.4551 0.51309-5.5818 3.3951-5.8611 5.4026-10.032 7.1094-15.036 6.1528l-3.0414-0.58141 1.9808 4.5026c5.1639 11.738 7.3034 34.768 7.1533 77.003-0.18732 52.74-6.2475 117.7-11.992 128.54-2.1671 4.0912-2.1092 1.6592 0.23332-9.8 7.4575-36.481 12.41-125.17 8.7954-157.49-0.84577-7.5625-1.7535-16.562-2.0172-20-0.26366-3.4375-2.017-10.582-3.8963-15.876-3.5277-9.9388-3.2824-12.633 0.91176-10.014 5.5066 3.4389 11.436 0.68694 20.974-9.7348l4.0041-4.375 0.0784 10.625c0.20129 27.269 2.215 57.891 4.0582 61.71 1.0394 2.1535 3.4004 10.947 5.2467 19.54 2.3287 10.839 4.6477 17.967 7.5716 23.272 4.662 8.4588 19.166 26.53 22.921 28.557 1.3191 0.71235 13.273 10.919 26.565 22.682 57.878 51.221 98.739 83.62 120.73 95.725 4.9844 2.7439 9.0625 5.7818 9.0625 6.7509 0 1.1256 1.3584 1.762 3.7608 1.762 2.182 0 5.9009 1.5503 8.8587 3.6929 2.8039 2.0311 8.2538 4.6103 12.111 5.7316 9.9499 2.8925 36.319 4.1418 71.232 3.3746l30.062-0.66056 0.15352 18.41c0.15865 19.023 1.717 30.229 6.3896 45.946 3.0999 10.427 11.039 30.865 15.929 41.006 1.8232 3.7812 3.5166 7.2969 3.763 7.8125 0.24642 0.5156-0.15185 0.9375-0.88506 0.9375-0.73322 0-2.6896-2.6769-4.3475-5.9486zm6.2106 3.315c-0.31379-0.9578-1.5927-7.3664-2.8419-14.241-1.8669-10.274-2.2714-19.178-2.2714-50 0-41.107 0.71385-49.375 4.2632-49.375 2.4824 0 18.253-7.9827 21.665-10.966 2.3536-2.0581 18.46-28.555 21.077-34.674 0.87831-2.0538 2.5911-4.8705 3.8062-6.2592 3.1868-3.6423 7.8178-16.649 12.978-36.449 2.4761-9.5016 6.1874-23.182 8.2474-30.401 4.168-14.606 24.063-67.711 29.737-79.375 12.451-25.596 22.621-51.502 26.99-68.75 3.906-15.42 6.1416-44.37 5.2084-67.448-1.0403-25.727-6.5499-51.282-12.149-56.349-1.8265-1.653-2.4484-3.8484-2.4484-8.644 0-5.1855 1.2305-8.9542 6.3651-19.494 3.5008-7.186 8.5809-15.719 11.289-18.961l4.924-5.8956-2.1597-6.6028c-2.6768-8.1837-2.7902-18.755-0.56722-52.856 2.3721-36.389 1.3167-68.788-2.8977-88.951-7.7166-36.92-25.576-71.113-47.685-91.299-9.0686-8.2795-11.539-11.443-16.384-20.981-11.39-22.424-26.745-41.418-44.045-54.482-18.238-13.773-56.058-29.381-88.746-36.624-12.915-2.8618-12.981-2.8947-7.3107-3.6718 8.0574-1.1044 31.342 2.8676 46.971 8.0128 6.1846 2.0359 10.246 0.59586 10.246-3.6328 0-5.6128-0.45431-5.7937-47.5-18.916-35.377-9.8678-40.31-10.629-68.75-10.61-33.594 0.023-52.986 2.6631-82.593 11.244-16.094 4.6644-32.463 11.32-41.469 16.86-6.4781 3.9853-7.4381 3.0272-3.4767-3.4698 6.2626-10.271 35.15-22.751 52.852-22.833 7.9366-0.0367 5.1816 2.0734-3.7966 2.9078-14.556 1.3528-37.456 10.653-44.22 17.958-2.7419 2.9614-2.384 2.8871 5.8288-1.2092 25.898-12.917 59.908-21.045 98.956-23.649 35.562-2.3717 51.97 0.0622 106.65 15.82 25.72 7.4118 30.018 9.6563 30.018 15.675 0 3.6998-3.3987 7.4758-6.7286 7.4758-1.1862 0-7.1584-1.4062-13.271-3.125-16.321-4.5888-15.237-3.7324 3.75 2.9642 33.044 11.654 50.896 22.129 69.391 40.715 12.147 12.207 19.736 22.758 28.934 40.226 4.7117 8.9482 8.1801 13.393 17.925 22.97 13.124 12.898 20.084 22.725 29.709 41.946 18.451 36.847 23.213 66.542 20.473 127.66-0.85729 19.122-1.9743 37.299-2.4822 40.393-0.96825 5.8973 1.5239 23.395 3.6407 25.562 2.1302 2.1809 1.2023 4.6633-4.6318 12.391-3.1854 4.2194-8.2479 12.945-11.25 19.39-6.3002 13.526-7.0494 20.177-2.7845 24.716 3.5336 3.7614 9.2505 26.125 11.166 43.681 1.5678 14.367 0.95083 43.684-1.3307 63.233-1.8029 15.448-8.521 37.589-18.173 59.894-4.5834 10.591-8.8962 21.226-9.584 23.632-0.68774 2.4062-2.1256 5.3595-3.1951 6.5627-1.9572 2.2018-15.367 35.838-23.547 59.062-2.4214 6.875-7.7331 25.003-11.804 40.285-7.2179 27.097-12.403 42.186-15.366 44.715-0.80556 0.6875-3.3019 4.9062-5.5474 9.375-5.0024 9.9551-8.4396 15.965-14.473 25.307-4.8824 7.5592-12.029 12.681-23.479 16.827l-5.785 2.0945-0.78751 10.073c-1.0529 13.468-1.1653 58.032-0.17207 68.198 0.4366 4.4687 1.6629 13.646 2.7251 20.395 1.0622 6.7485 1.6066 12.595 1.2098 12.991-0.3968 0.3968-0.97819-0.062-1.292-1.02zm-47.33-908.16c-0.41536-0.41536-1.4935-0.45976-2.3958-0.0986-0.99717 0.39903-0.70098 0.69523 0.75521 0.7552 1.3177 0.0542 2.056-0.24115 1.6406-0.65652zm-49.03 784.35c-13.062-0.47048-25.438-1.3684-27.5-1.9953-3.3795-1.0272-3.7875-1.7145-4.1294-6.9556-0.28741-4.4054-1.121-6.399-3.4375-8.2212-1.6819-1.323-3.0581-3.0276-3.0581-3.7881 0-0.76043-0.4505-1.3826-1.0011-1.3826-2.1179 0-42.87-23.33-57.749-33.06-8.5938-5.6201-26.875-18.367-40.625-28.325-13.75-9.9588-35.844-25.323-49.097-34.142l-24.097-16.035-4.4163-9.5311c-2.429-5.2421-6.7103-16.562-9.5141-25.156-2.8038-8.5938-7.5577-21.432-10.564-28.529-3.0066-7.097-6.6074-17.503-8.0018-23.125-1.3944-5.6218-2.8731-11.346-3.286-12.721-0.69641-2.3192-2.6338-114.4-1.9964-115.49 0.15797-0.26985 1.2521 0.29266 2.4314 1.25 1.6242 1.3185 1.5177 0.83128-0.43931-2.0094-2.0327-2.9506-2.8884-7.2141-4.0138-20-1.2982-14.748-3.4461-27.09-5.8734-33.75-0.50116-1.375 2.7907 2.6128 7.3153 8.8618l8.2266 11.362 1.4324 22.388c1.6488 25.769 3.9997 43.597 6.9168 52.449 8.2378 25 34.158 59.231 60.306 79.643 5.1554 4.0244 7.9201 5.4811 8.5299 4.4944 0.54842-0.88735 0.36042-1.125-0.47933-0.60605-1.64 1.03-27.07-24.32-38.1-37.95-15.37-19-25.3-37.12-29.47-53.75-2.0212-8.0744-2.262-12.687-1.7355-33.249l0.6113-23.874 9.6917 10.809c5.3304 5.9451 11.121 13.63 12.868 17.078 3.7067 7.3148 12.196 15.485 16.089 15.485 1.4908 0 3.7149 0.909 4.9426 2.02 2.1225 1.9209 2.158 1.8141 0.72343-2.1762-0.82976-2.3079-3.0513-5.5134-4.9367-7.1232-7.9133-6.7566-17.482-32.938-20.898-57.182-2.3668-16.795-3.6908-58.588-2.4693-77.94 1.093-17.317 5.445-56.148 6.9767-62.25 0.6578-2.6209 1.3886-1.9562 6.7832 6.1699 9.0951 13.7 17.498 23.513 22.661 26.463 6.7018 3.8291 7.9327 1.8865 4.7096-7.4323-7.6754-22.192-13.322-49.78-14.44-70.549l-0.7064-13.125 6.3999 11.837c3.52 6.5102 8.7225 14.948 11.561 18.75 12.907 17.289 38.746 39.266 67.361 57.294 22.462 14.151 53.724 31.575 55.113 30.716 0.76334-0.47176 1.0561-0.32094 0.6506 0.33519-0.4055 0.65612 0.49196 1.9584 1.9944 2.894 2.5034 1.5589 2.5863 1.5252 0.99235-0.40343-1.4857-1.7976-1.4857-2.0111 0-1.464 0.95661 0.35227 2.4213 0.2044 3.2548-0.3286 3.0716-1.9641-0.006-6.0335-9.027-11.933-18.48-12.087-33.905-29.28-49.22-54.862-6.3595-10.623-15.076-28.403-17.015-34.71-0.93636-3.045-0.89722-3.0681 1.5294-0.9028 1.3697 1.2222 4.6788 2.4988 7.3536 2.8369 7.3889 0.93391 26.758 15.376 44.551 33.217 6.0156 6.0321 10.927 10.575 10.915 10.096-0.0125-0.47936-1.7457-3.9653-3.8517-7.7466-2.106-3.7812-7.514-13.625-12.018-21.875-4.5038-8.25-9.6502-17.531-11.437-20.625l-3.2479-5.625 5.6008 4.3172c28.368 21.866 59.746 51.867 73.444 70.219 9.7369 13.045 12.185 17.377 14.804 26.196 1.7229 5.8017 3.6282 8.4095 5.082 6.9557 2.4596-2.4596-23.367-84.76-35.528-113.22-1.023-2.3938 17.802 12.279 24.468 19.07 4.3421 4.4243 6.0416 7.6569 9.3208 17.729 3.7922 11.648 7.1354 16.631 7.1354 10.637 0-1.4729-0.55402-2.3355-1.2312-1.917-0.76144 0.4706-0.94552-0.66745-0.48245-2.9827 0.89211-4.4605-3.4204-19.726-7.6292-27.006-1.5899-2.75-5.3867-10.674-8.4374-17.609-5.4105-12.299-16.126-29.858-22.819-37.391-3.7562-4.2279-3.1841-2.8062 2.5154 6.25 4.8434 7.6959 15.584 27.432 15.584 28.636 0 0.48509-3.1361-2.5054-6.9691-6.6455-8.34-9.0082-14.582-13.155-18.328-12.175-1.4837 0.38798-3.3095 0.19763-4.0573-0.423-0.88315-0.73297-1.4253-0.38605-1.547 0.98981-0.103 1.165-0.56946 3.6603-1.0365 5.545-0.68933 2.7816-0.15973 4.076 2.8128 6.875 2.9382 2.7667 5.698 9.3843 13.963 33.482 5.6658 16.518 10.466 30.862 10.668 31.875 0.20158 1.0128 0.72853 2.6851 1.171 3.7164 1.9766 4.6069 7.0255 20.464 6.6388 20.851-0.23592 0.23592-2.9691-3.3747-6.0738-8.0235-15.356-22.994-40.252-51.562-57.679-66.186-15.879-13.325-25.624-19.475-29.609-18.688-2.6799 0.52989-3.7158-0.23241-6.6773-4.9134-4.5834-7.2448-5.5836-7.166-1.3229 0.10437 2.2359 3.8153 3.0637 6.6192 2.5538 8.6507-0.83649 3.3328 0.14668 6.9543 1.888 6.9543 2.6701 0 9.2399 7.589 15.126 17.473 3.4892 5.8586 7.4604 12.525 8.825 14.814 1.5533 2.6058-1.6698-0.0224-8.62-7.0289-13.015-13.12-27.596-21.508-37.388-21.508-5.2954 0-5.5353-0.16753-6.7134-4.6875-3.3283-12.77-3.8979-13.839-3.1648-5.9375 1.4976 16.141 2.1544 20.069 3.658 21.875 0.85856 1.0312 2.5633 4.9688 3.7884 8.75 1.225 3.7812 3.2582 9.294 4.5182 12.251 1.26 2.9565 1.7907 5.0664 1.1795 4.6886-0.61126-0.37778-6.324-8.4218-12.695-17.876-18.832-27.944-25.962-45.82-24.236-60.762 1.2256-10.612 2.5584-13.796 5.2822-12.618 10.556 4.5642 25.364 8.9708 42.074 12.52 10.947 2.3252 20.467 4.7915 21.156 5.4806 0.68916 0.68916 2.7036 3.9389 4.4766 7.2216 2.7433 5.0794 3.7815 5.9686 6.9686 5.9686 2.9058 0 3.8327-0.6158 4.136-2.748 0.61805-4.3438-1.8888-7.6438-8.2592-10.872-4.7492-2.4066-7.1136-4.9019-12.093-12.763-6.7352-10.632-21.787-31.013-28.058-37.992-2.1621-2.4062 0.48384 1.8125 5.8799 9.375 11.134 15.605 21.712 31.239 23.768 35.13l1.3893 2.6297-8.3836-2.3217c-20.921-5.7937-33.493-10.758-50.612-19.983-14.322-7.7182-25.725-20.694-35.684-40.603-5.3222-10.64-8.1977-12.893-13.105-10.267-1.9676 1.053-2.332 0.97433-1.7436-0.37668 7.3286-16.826 10.84-31.112 9.2271-37.539-1.9405-7.7317-9.1071-5.1518-10.129 3.6464-2.6492 22.81-16.576 55.245-31.689 73.799-4.6949 5.764-5.0456 6.5146-2.0355 4.356 9.9938-7.1667 20.087-18.813 27.92-32.218 4.2772-7.3194 5.092-8.1634 5.092-5.2747 0 1.8914 2.5572 7.6516 5.6828 12.8l5.6828 9.3614-3.0256 4.0548c-3.3709 4.5176-6.2484 12.78-8.3775 24.055-2.0072 10.63-2.9148 52.011-1.3708 62.5l1.288 8.75-0.41987-10.831c-1.1087-28.601 2.4335-66.443 7.2642-77.604 4.1655-9.624 4.3089-9.6182 14.589 0.59585 5.1218 5.089 12.687 11.136 16.812 13.438 4.125 2.3018 7.6153 4.2554 7.7562 4.3413s-0.53754 2.3847-1.5076 5.1083c-0.9701 2.7237-1.7885 8.9318-1.8187 13.796-0.11087 17.87 9.3843 37.379 35.545 73.031 4.2879 5.8438 9.9468 14.562 12.575 19.375 6.2908 11.518 12.877 21.255 20.884 30.877l6.5322 7.8492-8.1083-6.1784c-37.481-28.56-64.114-52.408-75.206-67.341-9.9483-13.394-18.351-30.67-19.75-40.604-1.3043-9.2639-3.0469-11.909-7.3083-11.095l-3.0575 0.58447 0.73118-13.921c0.87365-16.634-0.93508-12.921-2.874 5.8985-1.6441 15.958-1.6093 34.234 0.098 51.43 0.75084 7.5625 1.4921 16.592 1.6473 20.065 0.15518 3.4733 0.70244 6.9952 1.2162 7.8264 0.5137 0.8312 2.262 6.9894 3.8851 13.685 1.6231 6.6955 3.5561 13.861 4.2956 15.924l1.3445 3.75-3.2001-3.75c-9.9771-11.691-17.619-25.685-24.803-45.42-4.0549-11.138-7.5296-20.094-7.7216-19.902s1.6957 7.5502 4.1948 16.351c3.4899 12.29 4.1813 16.226 2.9806 16.969-0.96339 0.59541-1.4778 3.3237-1.3404 7.1093 0.1378 3.7968-1.7519 13.782-4.9476 26.143-7.8042 30.187-10.348 51.145-9.9072 81.616 0.20016 13.827 0.04 24.744-0.35596 24.262-0.39595-0.48268-6.1165-12.128-12.712-25.878-20.54-42.819-26.175-65.759-26.066-106.11 0.037-13.676 0.41107-25.948 0.83129-27.272 1.7615-5.55 11.952-21.034 17.591-26.728 3.3416-3.3744 12.138-14.095 19.548-23.823 17.102-22.454 17.153-22.497 17.153-14.573 0 8.5645 3.0839 31.092 6.2995 46.017 3.0489 14.151 9.8064 36.18 10.795 35.191 0.36003-0.36003-0.065-2.8016-0.94453-5.4258s-1.5018-6.0678-1.3829-7.6524c0.11888-1.5846-0.2775-2.576-0.88096-2.203-1.2373 0.76466-2.6983-4.5365-7.2114-26.166-2.161-10.357-3.4235-21.578-4.0786-36.25-0.52184-11.688-1.0382-19.179-1.1475-16.647-0.14719 3.4101-0.85005 4.81-2.7116 5.4008-1.3821 0.43865-9.2276 9.6172-17.435 20.397-8.2069 10.78-16.371 21.287-18.142 23.349-3.0655 3.5698-3.0236 3.3296 0.87206-5 2.2508-4.8125 4.4006-9.0312 4.7774-9.375 1.4777-1.348 5.2042-16.061 4.3982-17.365-1.9696-3.1869-4.2674-0.85846-7.5764 7.6777-7.5374 19.444-40.801 79.253-43.239 77.746-0.61282-0.37875-0.74382 0.27661-0.29112 1.4564 0.61849 1.6117 0.38186 1.8888-0.95181 1.1145-0.97622-0.56675-1.3579-0.57016-0.84828-0.008 0.50966 0.56259 0.2529 1.9184-0.57057 3.0129-0.82349 1.0945 0.62843 0.0213 3.2265-2.385 2.598-2.4062 7.8927-8.5938 11.766-13.75 3.8732-5.1562 7.348-9.7684 7.7218-10.249 0.37387-0.48081 0.69694 11.613 0.71792 26.875 0.0331 24.142 0.40882 29.449 2.8893 40.822 4.8854 22.401 10.911 38.559 24.753 66.384 12.688 25.503 13.438 27.453 15.577 40.5 1.2358 7.5384 2.0824 13.871 1.8814 14.072-0.77873 0.77873-20.027-29.118-19.717-30.624 0.18075-0.87788-1.4087-3.3335-3.5322-5.4569-4.1431-4.1431-7.51-10.115-9.942-17.634-0.87733-2.7126-2.3216-4.6875-3.4279-4.6875-1.2656 0-1.6434-0.69942-1.1177-2.0693 0.47226-1.2307-0.20236-3.1304-1.6646-4.6875-5.5114-5.8688-11.802-39.231-14.282-75.743l-1.5707-23.125-0.77841 17.271c-1.2846 28.502 2.0835 59.217 8.4824 77.354 0.98274 2.7854 1.7868 5.2392 1.7868 5.453 0 0.21375-1.8281 0.5649-4.0625 0.78034-3.3839 0.32628-4.3117 1.1225-5.5544 4.7667-1.7409 5.1049-2.0124 26.849-0.43709 35 0.5979 3.0938 0.90009 5.8139 0.67154 6.0449-0.64511 0.6518-10.368-29.869-13.18-41.376-3.187-13.037-4.5641-41.769-2.6011-54.269 0.77519-4.936 4.2109-18.682 7.635-30.548 3.424-11.865 6.0133-21.785 5.754-22.045-0.93584-0.93583-10.616 25.611-14.017 38.442-3.1514 11.888-3.4686 15.011-3.3638 33.125 0.0791 13.669 0.78837 23.166 2.2407 30 2.2847 10.752 9.4335 33.793 13.24 42.673 1.2854 2.9988 2.142 5.4524 1.9034 5.4524-0.5707 0-9.4178-13.947-13.876-21.875-1.9331-3.4375-4.3736-7.6562-5.4232-9.375-1.9003-3.1116-1.8927-3.1104 1.7693 0.2655 3.3089 3.0504 2.8745 1.7363-4.3306-13.1-4.4046-9.0698-8.193-18.471-8.4186-20.89-0.22565-2.42-1.5883-7.7464-3.0282-11.836-2.8094-7.9803-4.5701-21.137-6.0307-45.064l-0.9157-15-0.32456 13.125c-0.49167 19.883-2.1522 20.816-3.339 1.875-1.2526-19.992-2.5121-15.787-3.8238 12.766-0.4805 10.459-1.2917 18.758-1.8026 18.442-0.93814-0.5798-5.0711 5.5612-12.226 18.166-2.1463 3.7812-3.9148 6.4682-3.93 5.9711-0.0151-0.49715 1.6569-10.76 3.7158-22.807 4.7514-27.801 5.9071-45.315 3.2128-48.688-1.8378-2.3007-2.017-2.3082-4.3657-0.18273-2.5386 2.2974-5.4809 13.222-7.0235 26.077-0.47814 3.9846-1.0881 7.0259-1.3556 6.7585-0.2674-0.2674 0.3971-10.278 1.4767-22.245 7.1524-79.286 19.396-116.96 52.953-162.93 7.5773-10.381 8.224-10.958 9.1092-8.125 0.82347 2.6356 0.885 2.5405 0.45328-0.70049-0.44113-3.3118 0.70249-4.9186 9.7862-13.75 5.6572-5.5 12.221-11.525 14.585-13.388 5.5315-4.3585 18.054-7.2372 31.484-7.2372 10.318 0 13.441-1.0746 13.441-4.625 0-0.89375-0.84375-1.625-1.875-1.625s-1.875-0.63844-1.875-1.4188c0-1.0166-4.3408-1.2342-15.312-0.76762-13.166 0.55987-17.065 1.2535-27.812 4.9478-6.875 2.3632-14.66 5.2687-17.301 6.4568-7.2165 3.247-4.4581 0.43981 7.0304-7.1547 17.972-11.881 37.736-20.535 60.471-26.479 10.325-2.6997 14.646-3.1719 26.92-2.9417 10.781 0.20216 15.156-0.16975 16.658-1.4162 1.7181-1.4259 2.2175-1.4096 3.1916 0.10425 0.94187 1.4638 1.2842 1.3247 1.8567-0.75459 0.38605-1.4021 1.6999-3.0896 2.9197-3.75 1.2198-0.66043 5.2633-3.2363 8.9856-5.7242s11.268-6.3504 16.768-8.5834 12.25-5.0673 15-6.2984 6.3127-2.6246 7.9171-3.0966c2.8656-0.84298 2.9024-0.7401 2.0852 5.8218-1.8738 15.045 10.679 33.193 38.151 55.155l4.347 3.4753-6.3415-0.79453c-4.8469-0.60726-6.7966-0.33941-8.2725 1.1365-1.7413 1.7413-3.8814 0.97152-21.788-7.8369-14.117-6.9447-23.107-12.337-31.103-18.655-6.1852-4.888-12.23-8.8959-13.433-8.9064-2.7285-0.0238-7.1875 4.3062-7.1875 6.9795 0 2.8356 6.1185 8.196 18.799 16.469 24.988 16.304 39.051 23.279 57.543 28.54 6.4881 1.846 15.995 5.7643 21.158 8.7197 5.1562 2.952 17.25 9.1158 26.875 13.697 56.479 26.885 63.361 30.757 68.299 38.425 1.4254 2.2136 2.2682 3.0403 1.8729 1.8372-0.39533-1.2031-0.29533-2.1875 0.2222-2.1875 1.5006 0 13.335 12.646 16.941 18.103 1.8092 2.7377 3.2894 4.3487 3.2894 3.58 0-2.9468-10.489-16.916-17.433-23.217-4.77-4.31-9.15-10-12.78-16.58-11.9-21.52-28.81-40.15-53.53-58.96-18.406-14.01-20.646-14.972-25.222-10.831-1.2615 1.1416-2.4778 1.8447-2.7031 1.5625-0.2252-0.28224-3.6717-4.406-7.6589-9.1638s-9.4191-12.07-12.071-16.25c-2.6519-4.1796-4.8269-7.102-4.8335-6.494-0.006 0.60795 2.4497 6.3019 5.4584 12.653 5.6414 11.909 13.088 23.714 19.734 31.284 4.6994 5.3523 3.7573 5.4416-4.4414 0.42078-18.98-11.63-39.83-31.57-46.93-44.88-3.23-6.07-3.83-8.56-3.83-16.02v-8.8346l9.0625-2.7079c30.874-9.2253 77.757-12.643 109.26-7.9643 19.082 2.8333 20.432 3.7905 6.5964 4.6761-19.509 1.2487-39.193 8.0788-41.376 14.357-1.6401 4.7163 2.629 7.9167 9.3343 6.9977 19.947-2.734 73.293 10.183 103.99 25.181 20.273 9.9039 25.827 14.508 54.643 45.295 7.3942 7.9 18.29 23.5 17.186 24.605-2.9529 2.9529-1.0567 6.9349 6.4015 13.443 8.183 7.1402 13.495 16.031 20.022 33.511 4.5918 12.297 4.5945 9.2732 0.005-4.9999-1.98-6.19-3.41-11.25-3.17-11.25 1.2154 0 9.8526 17.349 14.924 29.977 10.266 25.563 18.709 58.138 22.435 86.563 1.9364 14.772 4.1127 58.356 2.8567 57.21-0.62441-0.56996-9.0621-41.139-12.818-61.628-1.7268-9.4209-2.6139-11.062-4.5053-8.3355-0.93457 1.3472-1.1025 0.66924-0.6281-2.5362 0.35612-2.4062 0.93369-9.4375 1.2835-15.625 0.51396-9.0906 0.41957-10.05-0.49175-5-2.7322 15.141-6.7557 30.657-7.5576 29.145-0.47985-0.90488-1.1925-9.5202-1.5837-19.145-0.39119-9.625-1.7112-22.562-2.9333-28.75l-2.2221-11.25-1.4941 29.375c-0.82175 16.156-1.543 30.734-1.6027 32.396-0.0598 1.6614-0.496 2.6334-0.96949 2.16-0.47347-0.47349-0.96241-13.364-1.0865-28.646-0.2457-30.254-1.8734-42.041-7.5312-54.538-3.5348-7.8075-5.1722-7.9896-2.4494-0.27246 3.5576 10.083 5.815 25.942 6.5602 46.088 0.41327 11.172 0.43754 20.312 0.0539 20.312-0.38362 0-2.5198-3.2344-4.7471-7.1875s-6.8326-11.317-10.234-16.364c-3.4014-5.0468-7.2668-12.078-8.5897-15.625-1.8199-4.8794-2.2521-5.4411-1.7758-2.308l0.62944 4.141-3.278-2.5785c-1.8029-1.4182-3.9674-2.5785-4.81-2.5785-1.076 0-1.746-4.1858-2.2509-14.062-0.39535-7.7344-1.2648-15.75-1.9322-17.812-0.94606-2.9238-1.0713-1.9598-0.5685 4.375 0.85043 10.714-2.6761 45.43-6.3934 62.938-2.8079 13.225-8.1828 32.63-8.8124 31.815-0.16108-0.2084 0.22666-5.7227 0.86164-12.254 1.746-17.959 0.44857-43.74-2.7679-55-2.4715-8.6521-12.873-32.5-14.175-32.5-0.31163 0 1.3404 4.4109 3.6712 9.802 8.0609 18.645 9.559 26.81 10.013 54.573 0.40664 24.876 0.39919 24.957-1.4981 16.433-3.937-17.689-15.204-41.646-24.019-51.069-7.2926-7.7964-11.811-10.195-17.715-9.4029-4.5122 0.60523-4.5841 0.54284-8.8428-7.6752-5.7602-11.116-16.552-25.137-27.543-35.785l-9.0317-8.75 10.034 12.02c11.986 14.359 18.715 25.54 25.41 42.228 6.3118 15.732 9.6714 28.845 11.242 43.878 1.6288 15.592 1.4105 50.977-0.37785 61.25l-1.4144 8.125-1.6914-8.125c-2.9208-14.031-9.1134-32.739-14.275-43.125l-4.9696-10 4.0028 3.75c4.9713 4.6574 15.564 20.564 16.695 25.071 0.46233 1.842 1.1151 3.0747 1.4506 2.7392 0.33549-0.33549-0.59225-3.6362-2.0616-7.335s-4.3055-13.381-6.3024-21.515c-4.4487-18.122-9.5428-30.616-17.307-42.448-8.0527-12.272-12.347-17.261-33.606-39.042-10.08-10.32-20.58-21.22-23.32-24.2-4.806-5.2152-4.8545-5.3498-1.25-3.4707 6.5657 3.4228 14.411 9.1202 13.757 9.9901-0.34758 0.46217-0.27671 0.5788 0.1575 0.25917 0.43422-0.31962 3.7184 1.9211 7.2983 4.9795 3.5798 3.0584 8.7089 6.4316 11.398 7.496l4.8892 1.9354-3.75-2.847c-2.0625-1.5658-6.8959-5.7257-10.741-9.2441-8.0386-7.3558-24.327-18.419-28.009-19.024-1.375-0.22594-3.3438-1.2715-4.375-2.3234-1.5757-1.6073-1.1766-1.5824 2.5 0.15571l4.375 2.0683-3.75-3.1762c-4.0361-3.4185-6.3918-4.0132-7.1296-1.7998-0.28318 0.84952-8.8969-2.0648-22.182-7.5052-11.946-4.8917-21.92-8.6934-22.165-8.4483-0.24514 0.24512 6.4557 3.3702 14.891 6.9446 29.583 12.536 30.171 12.958 58.196 41.803 33.281 34.254 45.039 49.351 52.241 67.074 3.0477 7.5004 9.5353 29.993 8.651 29.993-0.2437 0-2.1426-2.9531-4.2197-6.5625-9.5573-16.607-37.387-45.743-57.373-60.065-10.905-7.8147-17.414-9.956-20.169-6.6356-2.168 2.6123-0.73576 8.7692 1.8124 7.7914 1.0025-0.38469 1.8227-0.15458 1.8227 0.51134s0.72871 1.2108 1.6194 1.2108c2.1142 0 27.862 20.447 29.433 23.374 0.6648 1.2382 4.9677 6.7512 9.562 12.251 14.656 17.545 25.157 37.848 30.574 59.11 3.2236 12.654 6.5315 38.329 5.4787 42.523-0.55188 2.1988-0.30936 2.9139 0.85639 2.5254 2.6095-0.86984 6.2266-8.737 6.2266-13.543 0-2.4327 1.4062-9.9664 3.1248-16.741 6.2008-24.444 6.5576-67.002 0.7478-89.187-1.3053-4.9844-2.1088-9.0625-1.7856-9.0625 1.7722 0 11.886 8.101 17.391 13.93 9.7292 10.302 15.423 19.734 18.112 30.004 3.2912 12.571 5.1748 36.149 3.6377 45.536-0.66699 4.073-1.216 7.5462-1.22 7.718-0.004 0.17188 0.50865 0.3125 1.1392 0.3125 1.4222 0 3.8536-10.97 3.8536-17.387 0-2.8806 1.9047-8.9092 4.8185-15.251 6.3368-13.792 9.7936-24.49 12.502-38.692l2.2197-11.637 5.6465 8.0458c10.295 14.669 11.566 17.457 13.071 28.663l1.4279 10.633 0.25661-7.5 0.25663-7.5 4.5854 9.375c4.4473 9.0926 4.584 9.7883 4.5383 23.097-0.0259 7.5469 0.29029 12.328 0.70271 10.625 0.70695-2.9194 0.79923-2.8552 1.6122 1.122 1.362 6.6633 0.82153 29.029-0.83422 34.524-1.5032 4.9886-1.5164 4.9968-16.466 10.29-25.013 8.8555-50.282 19.094-51.881 21.021-0.8317 1.0021-2.5382 1.8221-3.7922 1.8221s-5.6391 1.9688-9.7448 4.375c-4.1056 2.4062-8.3545 4.375-9.442 4.375-2.0992 0-2.7767 4.3583-0.86157 5.5419 0.61359 0.37921 5.5355-0.39533 10.938-1.7212 5.402-1.3259 21.353-4.7213 35.447-7.5454s26.602-5.6726 27.796-6.33c1.1938-0.65744 7.9743-1.1954 15.068-1.1954 12.283 0 13.189 0.18514 19.024 3.8852 8.5353 5.413 10.771 6.0687 13.839 4.0585l2.6142-1.7129-2.8354 11.492c-1.5594 6.3205-3.2649 15.747-3.7899 20.947-1.1522 11.414-0.59863 9.2486-4.6143 18.048-4.0084 8.7838-4.079 10.586-0.87422 22.331 5.3592 19.64 12.523 73.504 12.523 94.158 0 6.234-0.61216 14.646-1.3604 18.693-2.9913 16.182-16.788 36.89-42.684 64.07-10.3 10.81-21.607 24.007-25.128 29.326l-6.4005 9.671-2.0966-9.671c-2.3632-10.901-6.2467-21.81-9.5118-26.72-3.4091-5.1261-23.958-23.832-31.215-28.415-5.7921-3.6582-12.992-8.8691-17.541-12.695-2.02-1.7-2-3.72 0.03-3.72 2.4768 0 10.754-7.3233 12.843-11.362 1.0346-2.0006 2.6884-3.6375 3.6752-3.6375 0.98682 0 2.898-1.1848 4.2472-2.6329 1.3491-1.4481 3.024-2.28 3.7219-1.8487 1.6686 1.0312 3.7512-2.7788 3.0288-5.541-0.79922-3.0562-5.8398-5.4407-9.5386-4.5124-1.7187 0.43137-4.9134 2.2892-7.0994 4.1285-3.3653 2.8317-3.8732 3.9674-3.3145 7.4106 0.59379 3.6591 0.27494 4.2005-3.1835 5.4062-2.1138 0.73689-7.1344 1.3398-11.157 1.3398h-7.3135v6.25 6.25h4.9432 4.9432l-2.7557 3.0592c-1.5156 1.6826-5.5682 6.4008-9.0057 10.485l-6.25 7.4259-3.6936-1.8996c-4.99-2.58-13.18-11.26-13.18-13.99 0-1.2124-1.1097-3.2086-2.4661-4.436-3.546-3.2091-7.8981-1.9531-23.651 6.8258-8.1392 4.5358-19.397 9.4422-28.375 12.366-21.983 7.1598-40.613 16.667-50.158 25.596-6.2328 5.8305-9.1791 9.9692-14.113 19.826-3.4299 6.8513-6.2361 13.643-6.2361 15.094 0 3.831-1.8158 1.1848-3.6801-5.3632-4.3303-15.209-12.462-26.49-28.645-39.734-13.153-10.765-15.977-11.245-6.0106-1.0222 14.874 15.257 24.762 36.644 28.921 62.551 1.0965 6.8307 2.5875 13.135 3.3132 14.009 1.3061 1.5738 8.5123 1.0038 9.8515-0.7792 0.34375-0.45766 1.6094-1.1953 2.8125-1.6392 1.6558-0.61093 2.1875-2.2258 2.1875-6.6444 0-11.546 13.637-51.876 19.713-58.3 4.1646-4.403 13.304-7.7972 25.919-9.6261 5.4962-0.79681 16.181-3.0664 23.743-5.0436 7.5625-1.9772 17.615-4.5018 22.34-5.6103 4.7242-1.1085 10.749-3.1169 13.388-4.4632 6.138-3.1314 8.9303-3.0887 11.89 0.18171 3.9272 4.3396 12.212 8.5592 18.497 9.4206 5.6066 0.76847 6.1588 0.56877 10.705-3.8708 3.3225-3.2443 5.5054-4.4546 7.1123-3.9432 1.2752 0.40578 9.9122 4.7059 19.193 9.5558 24.981 13.054 30.325 19.254 32.575 37.796 2.4235 19.968 5.0441 36.347 6.1245 38.278 0.85099 1.5206 1.5815 0.7134 3.2974-3.6435 7.512-19.074 16.088-31.976 34.878-52.472 12.851-14.017 19.885-22.995 25.67-32.76 2.3246-3.9243 4.4232-6.9384 4.6636-6.698 0.78585 0.78585-5.8603 15.489-24.283 53.721-9.9681 20.686-18.919 38.496-19.892 39.577-1.9801 2.2004-8.4532 15.174-15.547 31.16-12.233 27.566-30.304 63.854-34.688 69.655-5.1652 6.835-26.458 15.436-44.239 17.871-5.5245 0.75641-11.456 1.9118-13.181 2.5676-3.234 1.2296-8.0938 1.2044-48.503-0.25104zm101.46-49.046c7.1111-8.0786 11.214-16.389 14.866-30.11 3.1436-11.811 3.2236-13.047 2.78-42.986-0.31895-21.527-0.93285-31.768-2.035-33.951-5.7275-11.34-8.3998-13.432-22.074-17.281-4.8122-1.3544-10.437-3.1408-12.499-3.9699-2.0625-0.82901-9.6562-1.8019-16.875-2.162-16.624-0.82931-69.436 2.8584-84.756 5.9182-19.491 3.8929-36.484 13.424-43.902 24.623-4.4529 6.7227-4.6148 7.5212-1.6545 8.1619 1.349 0.29195 5.1644-2.2752 9.954-6.6975 17.643-16.29 33.926-20.008 87.233-19.921 47.313 0.0775 66.018 1.339 72.907 4.9174 7.2916 3.7874 8.6883 7.7118 9.6724 27.177 1.7089 33.802-7.4618 65.737-23.326 81.228-4.4661 4.361-4.6738 4.4256-8.2611 2.5706-5.4059-2.7955-12.007-10.642-16.026-19.049-3.2819-6.8657-3.5455-8.5581-3.7099-23.817l-0.17699-16.427 6.3354-0.5383c7.694-0.65372 15.378-4.123 16.29-7.3542 2.1893-7.7638 2.6766-7.2268-4.9495-5.4541-17.502 4.0684-28.807 4.7506-52.27 3.1539-12.504-0.8509-27.208-2.0591-32.676-2.6848-6.4789-0.74152-10.375-0.70359-11.188 0.109-0.82891 0.82891-0.22044 1.2573 1.8158 1.2784 3.6094 0.0374 32.195 5.5591 33.013 6.3769 0.30868 0.30869 0.009 4.4774-0.66562 9.2638-0.90097 6.391-3.1556 12.687-8.4879 23.703-10.927 22.574-16.429 27.814-27.789 26.469-14.21-1.69-33.72-16.58-40.92-31.23-3.69-7.51-8.97-29.24-8.97-36.93 0-2.0858-0.5625-4.14-1.25-4.5649-2.3322-1.4414-2.1734 26.628 0.21211 37.5 3.7392 17.041 15.417 32.865 29.985 40.629 7.2206 3.8486 18.037 7.4488 22.476 7.481 1.1265 0.009 8.021-3.9876 15.321-8.8795 15.43-10.34 21.432-17.117 28.653-32.356 4.3924-9.2696 5.0469-11.792 5.1314-19.774l0.0969-9.1486 7.5 0.80105c12.776 1.3646 11.807-0.18984 11.539 18.502-0.27012 18.879 0.9541 23.304 10.223 36.953 5.3399 7.8633 10.562 12.138 16.363 13.395 1.7188 0.37235 4.8125 1.4164 6.875 2.32 4.8419 2.1214 8.4945 0.38022 15.212-7.2517zm-28.34-70.16c5.7071-2.1978 7.9526-2.1654 3.125 0.0451-2.0625 0.94441-4.5938 1.6997-5.625 1.6784s0.0937-0.79688 2.5-1.7235zm-33.918-28.468c1.6261-0.41167 3.9388-0.13507 5.1393 0.61465 1.5774 0.98508 7.1711 0.97519 20.168-0.0356 9.8922-0.76933 22.368-1.0543 27.724-0.63328 7.1629 0.56308 10.607 0.3036 13.025-0.98124 3.239-1.7212 3.1879-1.7582-3.4879-2.5329-3.7263-0.43241-10.713-2.3228-15.525-4.2009-7.0935-2.7682-11.471-3.5386-23.125-4.0692-11.564-0.52648-15.059-1.1354-17.872-3.1138-2.8583-2.0104-4.1133-2.2176-6.875-1.135-1.8581 0.72835-10.089 2.496-18.292 3.9282-8.2024 1.4321-20.768 3.9872-27.923 5.6779-7.26 1.71-16.83 3.07-21.65 3.07-4.9261 0-8.6392 0.53724-8.6392 1.25 0 0.6875 0.42187 1.2673 0.9375 1.2885 0.51562 0.0211 14.287 0.34764 30.603 0.72551 16.316 0.37788 32.347 1.0882 35.625 1.5786 3.2776 0.49034 6.2405 0.53639 6.5842 0.10237 0.34375-0.43405 1.9554-1.126 3.5815-1.5377zm-173.58-52.59c0-0.2372-1.2656-1.5028-2.8125-2.8125l-2.8125-2.3812 2.3812 2.8125c2.2378 2.643 3.2438 3.3816 3.2438 2.3812zm-6.25-5c0-0.2372-1.2656-1.5028-2.8125-2.8125l-2.8125-2.3812 2.3812 2.8125c2.2378 2.643 3.2438 3.3816 3.2438 2.3812zm-13.75-11.29c0-0.25956-0.98438-1.2439-2.1875-2.1875-1.9826-1.5548-2.0268-1.5106-0.47195 0.47195 1.633 2.0822 2.6594 2.7444 2.6594 1.7156zm260.95-14.521c11.486-7.0028 13.012-22.779 3.7086-38.333-4.9162-8.2193-6.6585-8.6891-3.1961-0.86175 4.4403 10.038 1.4388 22.553-6.2469 26.047-2.3292 1.0588-2.7144 2.2564-2.7144 8.4375 0 8.2441 1.3858 9.0168 8.4489 4.7103zm-82.773-1.7645c1.9588-1.4323 2.0846-2.0469 0.74845-3.6569-0.88335-1.0644-2.7868-2.1096-4.2299-2.3228-1.4431-0.21314-2.8288-1.0108-3.0793-1.7726-0.66191-2.013 11.778-3.1824 23.476-2.2068 7.0846 0.59083 9.9088 0.41886 9.9088-0.60336 0-0.78635-0.99338-1.4297-2.2075-1.4297s-8.1048-3.4176-15.312-7.5946c-14.749-8.5474-20.543-9.9135-25.503-6.0124-4.6193 3.6336-5.5204 10.332-2.0257 15.059 3.4067 4.6078 2.7342 5.4659-2.8416 3.6257-5.5738-1.8395-8.2917-4.9385-9.1909-10.48-1.1339-6.9875 0.3257-10.24 8.0324-17.896 5.4867-5.451 6.1448-6.4418 2.7986-4.2132-13.964 9.2999-18.895 19.552-14.906 30.993 2.3386 6.7087 9.6343 9.7185 24.38 10.058 4.7349 0.109 8.4856-0.47387 9.9528-1.5468zm52.97-36.962c6.8516-1.965 10.104-5.8536 10.104-12.08 0-2.9506-0.82898-7.2119-1.8422-9.4696-1.9344-4.3106-6.3706-27.615-10.631-55.85-2.9294-19.413-2.9195-19.27-1.2679-18.25 2.2771 1.4073 2.8044-3.0458 1.6433-13.877-0.91119-8.5002-0.79144-11.176 0.58841-13.146 2.4694-3.5256 1.1215-5.7488-4.508-7.4355-3.9224-1.1752-5.6-1.1268-8.4113 0.24252-3.992 1.9444-5.5168 4.8355-2.5504 4.8355 1.6667 0 1.9792 1.8751 1.9792 11.876 0 7.0304 1.5596 21.948 3.8225 36.562 4.396 28.391 5.3397 33.146 8.6205 43.436 1.3151 4.125 3.0867 10.759 3.9369 14.743 1.3431 6.2927 1.288 7.5003-0.41964 9.208-2.509 2.5089-10.398 3.9364-15.669 2.835-5.3389-1.1157-6.202 0.53129-1.8686 3.5657 6.0654 4.2472 9.4382 4.8213 16.473 2.8037zm-43.44-56.034c-1.1511-15.411-10.824-55.365-15.764-65.113-3.9277-7.7509-7.6928-10.426-13.937-9.9011-7.0146 0.58921-7.072 3.5186-0.069 3.5186 5.9804 0 8.1925 1.9402 11.805 10.354 1.8663 4.3469 8.1173 29.274 10.883 43.396 2.7194 13.887 5.6596 24.134 6.6428 23.151 0.4316-0.4316 0.62944-2.8639 0.43962-5.4052zm-104.59-50.77c4.125-0.99269 12-2.9937 17.5-4.4467s15.159-2.9801 21.464-3.3934c6.3051-0.41337 12.211-1.2533 13.125-1.8665 2.5788-1.7308-11.189-13.709-22.516-19.59-16.639-8.639-23.589-10.389-43.948-11.064-16.816-0.55754-18.914-0.36772-29.053 2.6286-12.763 3.7716-34.75 14.267-35.592 16.989-0.3199 1.0347-1.1779 3.1278-1.9067 4.6512-0.95808 2.0027-0.92206 3.2555 0.13005 4.5232 2.5585 3.0828 22.977 10.861 33.307 12.687 11.966 2.1158 36.444 1.5389 47.49-1.1192zm-5.1981-6.3833c4.4137-3.0778 10.777-13.526 10.811-17.751 0.0132-1.659 1.5695-1.3108 9.3872 2.1006 2.75 1.2 7.6902 3.1913 10.978 4.4252 6.2764 2.3552 8.703 4.3725 5.2596 4.3725-1.1191 0-7.7636 1.8969-14.766 4.2153-7.002 2.3184-15.823 4.6137-19.602 5.1007l-6.8707 0.88536 4.8019-3.3485zm-34.369-3.2196c-7.2124-4.3228-10.097-14.552-4.8896-17.339 3.5645-1.9077 3.8322-1.6988 3.8322 2.9903 0 6.1442 4.5882 9.4657 13.076 9.4657 7.6882 0 11.985-3.4348 11.829-9.4556l-0.0951-3.6694-1.4948 4.125c-0.82211 2.2687-2.3262 4.6508-3.3424 5.2934-3.0334 1.9182-9.5009 1.3644-12.509-1.0711-2.7868-2.2566-2.7913-2.3117-0.47986-5.9375 1.2832-2.0128 2.9086-4.073 3.6119-4.5781 3.581-2.5715 27.647 0.71271 27.404 3.7397-0.0687 0.85452-0.20937 2.6242-0.3125 3.9327-0.10312 1.3085-2.5781 5.0186-5.5 8.2448l-5.3125 5.8657-10.625 0.56563c-9.312 0.49574-11.189 0.22734-15.193-2.172zm-18.5-1.0302c-3.062-1.2415-5.7615-2.8396-5.9988-3.5514-0.46643-1.3993 6.0778-6.5516 8.3216-6.5516 0.75325 0 1.3716 0.98437 1.3742 2.1875 0.002 1.2031 1.1193 4.0156 2.4816 6.25 2.8721 4.7105 1.9467 4.96-6.1787 1.6656zm299 8.64c6.8544-2.75 13.18-5 14.057-5 0.87715 0 3.1221-2.0024 4.9888-4.4498 3.0084-3.9443 3.228-4.8506 1.9326-7.9782-0.80383-1.9406-3.1472-5.1413-5.2075-7.1127s-4.6553-5.4978-5.7666-7.8364c-2.2688-4.7746-10.08-10.762-18.836-14.44-11.454-4.8102-39.218-2.4934-53.662 4.4779-6.6602 3.2144-17.803 13.482-15.62 14.394 3.0912 1.2916 1.4424 4.9592-5.4103 12.034-3.835 3.9593-6.742 7.8933-6.4598 8.7422 0.29988 0.90226 3.3263 1.7034 7.2853 1.9287 3.7248 0.2119 17.179 2.5464 29.897 5.1877 31.056 6.4494 36.842 6.4551 52.801 0.0521zm-31.264-2.0053c-1.0923-0.49527-0.55258-1.5343 1.7295-3.3294 3.5407-2.7851 9.2334-14.259 9.2334-18.611 0-2.3366 0.5137-2.5393 4.6875-1.8503 13.115 2.165 22.812 8.0671 22.812 13.885 0 2.4341-1.4318 3.3031-10.236 6.213-9.7997 3.2388-24.877 5.2114-28.227 3.6928zm-24.465-6.1035c-9.89-3.43-13.32-6.07-13.32-10.28 0-2.3776 1.2343-3.5494 5.9375-5.6371 6.5607-2.9122 18.706-4.6815 17.378-2.5315-0.4404 0.7126 0.0793 1.6333 1.1548 2.046 1.1705 0.44916 1.7948 1.8817 1.5553 3.5685-0.52127 3.6709-8.622 6.0146-12.474 3.609-2.1921-1.369-2.4592-1.2801-2.0848 0.69449 0.85513 4.5099 15.064 3.1214 16.895-1.651 0.43859-1.143 0.19126-3.684-0.54964-5.6469-1.2251-3.2457-1.0739-3.6374 1.6705-4.3262 1.6597-0.41655 4.4238-0.40443 6.1426 0.027 7.0208 1.7621 2.2321 14.704-7.5 20.269-2.75 1.5726-5.2812 2.8506-5.625 2.8401-0.34375-0.01-4.4737-1.3521-9.1776-2.9813zm-20.82-5.64c0-0.6875 0.5625-1.25 1.25-1.25s1.25 0.5625 1.25 1.25-0.5625 1.25-1.25 1.25-1.25-0.5625-1.25-1.25zm81.875-16.796c-2.0625-0.80458-6.5625-2.804-10-4.4433-5.7333-2.734-7.6967-2.9665-23.75-2.8122-16.069 0.15446-18.412 0.48349-28.649 4.0233-7.3994 2.5586-11.567 3.4366-12.393 2.6107-1.7867-1.7867 12.618-8.3178 23.863-10.82 14.098-3.1365 32.387-2.0654 42.392 2.4826 10.473 4.7607 17.985 12.644 8.537 8.9585zm-206.88 3.1c0-4.0236-19.207-15.178-35.625-20.688-9.0682-3.0437-11.281-3.3034-23.75-2.7868-20.994 0.86978-40.022 6.5348-48.438 14.421-5.6206 5.2671-4.0314 6.3462 3.8062 2.5845 9.5692-4.5928 29.102-9.444 44.979-11.171 11.863-1.2906 13.477-1.1926 21.856 1.3261 8.3782 2.5186 25.714 11.046 31.547 15.518 2.8443 2.1807 5.625 2.5746 5.625 0.79683zm48.527-6.3695c9.18-1.97 11.47-4.7 11.47-13.73 0-4.0982-0.54954-7.4513-1.2212-7.4513-1.6259 0-4.6569 4.8007-5.6934 9.0177-0.87668 3.5666-1.8671 4.1036-9.9604 5.3998-2.75 0.44044-5.9324 1.0543-7.072 1.3642-2.3054 0.62689-3.9434 3.8253-2.8583 5.5811 0.93911 1.5195 7.7774 1.4385 15.332-0.18169zm67.47-0.18c3.7831-3.7831 0.22312-8.9508-6.0433-8.7726-4.1665 0.1185-4.1147 0.29264-3.7332-12.54 0.16496-5.5486-0.22898-8.4375-1.1506-8.4375-1.6972 0-1.8026 0.34107-4.3179 13.965-2.173 11.77-1.8034 14.43 2.2313 16.06 3.9328 1.5891 11.305 1.4331 13.014-0.27536zm-80.634-12.004c6.9521-3.3331 8.093-5.2458 3.1289-5.2458-7.0073 0-82.144-27.221-83.287-30.174-0.23-0.6-1.24-1.08-2.24-1.08-1.0019 0-8.1269-2.5997-15.833-5.7771-15.13-6.24-31.44-11.72-34.86-11.72-1.1709 0-2.4765-0.5625-2.9014-1.25-2.7408-4.4347-18.681 3.9449-33.814 17.776-3.8241 3.495-10.434 8.952-14.689 12.127-6.7471 5.034-12.118 11.767-10.598 13.287 0.27521 0.27521 2.6242-0.63795 5.2201-2.0292 16.817-9.0131 46.098-14.1 64.941-11.282 18.047 2.6991 34.765 6.4217 48.263 10.746 16.368 5.2441 63.407 17.666 68.177 18.004 0.6875 0.0486 4.5086-1.4737 8.4912-3.3832zm-306.74-107.91c7.1352-7.6587 15.932-29.919 19.696-49.841 3.3014-17.472 3.0814-78.084-0.34226-94.297l-2.3591-11.172-0.12488 42.422c-0.13468 45.773-1.3605 59.046-7.3676 79.775-3.2856 11.338-10.786 28.697-12.987 30.057-1.7058 1.0542-1.8644 5.7151-0.1945 5.7151 0.66072 0 2.3162-1.1968 3.679-2.6594zm-20.302-5.1531c-0.34676-0.85938-0.63049-0.15625-0.63049 1.5625s0.28373 2.4219 0.63049 1.5625c0.34676-0.85938 0.34676-2.2656 0-3.125zm5-5c-0.34676-0.85938-0.63049-0.15625-0.63049 1.5625s0.28373 2.4219 0.63049 1.5625c0.34676-0.85938 0.34676-2.2656 0-3.125zm42.526-4.9219c-0.39903-0.99716-0.69523-0.70097-0.7552 0.75522-0.0542 1.3177 0.24116 2.056 0.65652 1.6406 0.41536-0.41536 0.45977-1.4935 0.0986-2.3958zm258.7-5.08c-29.91-52.24-33.51-58.89-39.08-72.19-1.583-3.7812-2.9019-6.141-2.931-5.244-0.0911 2.8149 7.2624 18.985 15.158 33.331 10.121 18.39 28.501 49.413 29.276 49.413 0.34046 0-0.74989-2.3906-2.423-5.3125zm-252.25-37.19c11.609-32.71 15.932-53.902 14.536-71.25-1.2419-15.433-4.8287-22.457-10.541-20.644-1.81 0.57448-2.5101 1.7949-2.3898 4.1658 0.14955 2.9459 0.23604 3.0116 0.71194 0.54076 0.89206-4.6314 5.1698-3.5653 7.523 1.875 2.9296 6.7729 2.8588 30.241-0.13279 44.021-3.125 14.395-10.409 36.783-19.535 60.041-9.894 25.217-9.9771 25.602-2.0182 9.375 3.7091-7.5625 9.0395-20.219 11.845-28.125zm353.41 27.477c-1.2585-11.124-8.542-36.53-14.304-49.895-6.964-16.153-8.628-17.01-2.5386-1.3072 6.6091 17.043 14.701 43.962 15.681 52.163 0.43114 3.6094 1.0604 6.5625 1.3982 6.5625 0.33789 0 0.23135-3.3853-0.23676-7.5228zm-213.62-48.96c-0.39903-0.99716-0.69523-0.70097-0.7552 0.75522-0.0542 1.3177 0.24116 2.056 0.65652 1.6406 0.41536-0.41537 0.45977-1.4935 0.0986-2.3958zm297.9-22.38c0-2.0725-0.84374-5.3997-1.875-7.3939-1.668-3.2255-1.6671-3.7422 0.008-4.6796 1.6266-0.9103 1.3835-2.5317-1.7854-11.907-4.8909-14.469-9.8948-23.568-19.702-35.826-8.8486-11.059-27.622-28.279-39.698-36.413l-7.5719-5.1 5.625 4.6942c18.695 15.602 33.953 34.648 44.882 56.026 5.2161 10.203 9.5528 21.687 8.5634 22.676-0.30755 0.30755-3.0367-0.5198-6.0648-1.8386s-11.273-3.3926-18.322-4.6084l-12.816-2.2107-3.622-6.4178c-4.7329-8.3862-15.138-17.782-26.033-23.507-4.8049-2.5249-17.112-7.46-27.349-10.967-22.733-7.7875-44.58-18.261-51.902-24.882-3.1464-2.845-4.666-4.9494-3.5856-4.9657 1.0312-0.0155 13.125 1.5968 26.875 3.583 29.813 4.3065 39.723 7.2783 47.832 14.344 3.9651 3.4547 5.0375 4.034 3.2915 1.778-9.2259-11.92-20.095-16.652-56.931-24.781-31.696-6.9952-52.519-13.395-61.692-18.962l-3.75-2.2759 4.1363-0.005c5.263-0.006 4.4976-1.1366-5.096-7.5279-4.2846-2.8544-6.6652-4.8765-5.2902-4.4935 9.294 2.5888 20.711 4.5494 33.125 5.6888 14.571 1.3372 37.146 1.8072 36.09 0.75135-0.31707-0.31707-10.958-1.4623-23.646-2.545-35.286-3.011-45.457-5.2023-56.554-12.185-6.6995-4.2151-9.7418-3.5496-4.1612 0.91013 3.5766 2.8583 3.5837 2.8908 0.9375 4.3069-3.965 2.122-3.512 8.4464 1.0493 14.649 6.4393 8.7561 18.168 15.294 37.297 20.791 8.5441 2.4552 10.783 3.6358 12.618 6.6522 3.3503 5.5091 11.747 13.057 20.358 18.3 10.347 6.2999 22.98 11.02 45.671 17.066 28.451 7.5798 37.756 11.527 46.709 19.816 7.9152 7.328 12.539 14.088 9.6015 14.038-6.0243-0.10225-32.814-7.4808-42.532-11.714-2.5781-1.1232-4.6875-1.7213-4.6875-1.3292 0 1.0895 17.354 8.7574 29.611 13.083 6.0136 2.1225 18.436 5.782 27.604 8.1322 20.725 5.3121 28.09 9.1214 32.469 16.792 4.9237 8.6259 5.2518 8.9353 7.9474 7.4927 1.52-0.8 2.37-2.61 2.37-5.03zm-357.9-17.62c-0.39903-0.99716-0.69523-0.70097-0.7552 0.75522-0.0542 1.3177 0.24116 2.056 0.65652 1.6406 0.41536-0.41537 0.45977-1.4935 0.0986-2.3958zm227.9-10.2c0-0.2372-1.2656-1.5028-2.8125-2.8125l-2.8125-2.3812 2.3812 2.8125c2.23 2.64 3.24 3.38 3.24 2.38zm-110-3.65c-21.508-9.7002-41.013-19.696-49.664-25.453-19.436-12.932-31.55-27.911-31.574-39.041-0.0113-5.3054 0.0782-5.4271 3.4258-4.6495 2.5504 0.59241 2.9536 0.47104 1.5625-0.47035-3.7482-2.5364-6.1037-1.4829-6.9664 3.1157-1.2689 6.764 5.2038 18.794 15.854 29.465 4.7274 4.7368 8.9112 8.6123 9.2974 8.6123 0.38625 0 4.0366 2.2643 8.112 5.0319 8.7887 5.9683 26.065 14.819 40.323 20.659 9.4781 3.8819 16.763 5.9473 9.6298 2.7301zm-50-18.893c0-0.25956-0.98438-1.2439-2.1875-2.1875-1.9826-1.5548-2.0268-1.5106-0.47195 0.47195 1.633 2.0822 2.6594 2.7444 2.6594 1.7156zm-20-46.25c0-0.25956-0.98438-1.2439-2.1875-2.1875-1.9826-1.5548-2.0268-1.5106-0.47195 0.47195 1.633 2.0822 2.6594 2.7444 2.6594 1.7156zm-145.33 688.37c-0.32159-0.56136-0.12212-6.9269 0.44318-14.146 2.4619-31.436 2.686-43.164 1.2326-64.506-3.2017-47.014-6.6748-75.152-12.25-99.244-1.8296-7.9062-3.2589-15.781-3.1761-17.5 0.42653-8.8563 0.37623-11.025-0.36241-15.625-0.76696-4.7768-1.3374-5.307-12.776-11.875-27.483-15.78-45.824-42.033-52.841-75.632-4.8591-23.269-5.0534-47.415-0.68361-84.97 1.5231-13.09 2.4626-16.894 5.5018-22.279 3.2821-5.8156 6.648-19.347 6.5904-26.494-0.68451-84.873 2.1768-124.24 11.137-153.2 4.7171-15.251 20.299-46.267 29.947-59.608 4.1016-5.6719 7.1195-10.312 6.7064-10.312-2.1526 0-12.54 10.042-15.782 15.257-5.0426 8.1118-7.0196 7.6455-2.4135-0.56931 3.7662-6.7168 13.287-15.393 24.482-22.311 6.8872-4.256 6.8219-4.0874-3.7072 9.5628-19.094 24.754-34.177 55.191-40.232 81.186-6.0152 25.826-7.6193 46.739-7.814 101.88-0.16403 46.442-1.0036 55.11-6.257 64.602-4.2007 7.5897-5.3305 14.04-8.0612 46.023-2.0824 24.39-1.8605 32.532 1.431 52.5 3.704 22.471 10.242 38.794 21.779 54.375 10.104 13.646 22.242 23.558 39.629 32.361 4.4889 2.2729 5.3125 3.2769 5.3125 6.4766 0 2.0827 0.85754 5.445 1.9056 7.4718 1.7268 3.3392 1.71 3.9837-0.17848 6.8659-1.9739 3.0126-1.911 3.8887 1.1899 16.565 6.3496 25.957 10.321 57.997 13.358 107.76 1.2676 20.773 1.1878 28.149-0.53961 49.917-1.1148 14.048-2.2425 25.757-2.5059 26.021-0.26341 0.26341-0.74206 0.0196-1.0637-0.54174zm-7.4993-231.91c-9.1586-3.058-12.192-4.8005-18.464-10.608-12.971-12.008-30.781-41.654-38.07-63.365-4.9696-14.804-6.6781-23.902-8.2419-43.89-1.7313-22.128-1.6341-27.277 0.6523-34.556l1.7102-5.4442 0.21493 4.375c0.21029 4.2809 0.2669 4.2271 2.632-2.5 3.8206-10.867 3.9471-11.044 4.9002-6.875 0.75525 3.3037 0.96575 3.4525 1.7688 1.25 1.9711-5.4057 2.9864-6.2594 7.8808-6.6263l5.02-0.3763 0.65346 6.6263c0.51084 5.18-0.27359 9.8608-3.5939 21.445-5.5939 19.517-7.0934 29.88-6.5291 45.122 0.40265 10.877 0.91622 13.357 3.7701 18.201 3.8922 6.6063 11.748 15.881 12.684 14.974 0.35972-0.34835-1.0761-4.8484-3.1907-10-3.3699-8.2099-3.8575-10.91-3.9481-21.867-0.11838-14.31 2.1357-23.103 11.032-43.035 2.9371-6.5806 5.7362-13.601 6.2202-15.601 0.85281-3.5247 1.074-3.313 7.1848 6.875 3.4677 5.7814 9.2441 14.168 12.836 18.637 3.5924 4.4688 8.6004 10.844 11.129 14.168l4.5974 6.0432-2.5076 3.1879c-1.38 1.75-2.51 4.19-2.51 5.42 0 1.2268-0.90995 5.7824-2.0221 10.124-3.1557 12.318-1.9071 20.086 5.3376 33.208 6.5916 11.939 8.1959 15.351 7.2194 15.351-1.8241 0-10.778-5.5418-17.175-10.63-11.978-9.5268-19.255-23.742-20.506-40.057-0.7333-9.5571 0.21107-12.437 7.2786-22.193 7.2386-9.9927 2.9871-11.581-5.5582-2.0765-7.2581 8.0727-8.8594 12.985-7.8977 24.228 1.7061 19.945 9.1928 32.978 26.492 46.116 6.1642 4.6815 13.569 10.771 16.456 13.533 3.6384 3.4807 6.131 4.896 8.125 4.6132 2.6579-0.37683 2.8482-0.93021 2.505-7.2828-0.28318-5.2409-1.84-9.8461-6.5501-19.375-8.0596-16.305-8.3437-18.124-4.6028-29.454 1.6882-5.113 3.4481-10.893 3.911-12.844 0.71358-3.0085 1.1312-3.3074 2.7474-1.966 1.0482 0.86997 2.7365 3.188 3.7517 5.1512s2.293 3.2931 2.8394 2.9553c0.5465-0.33775 3.0628 1.5049 5.5918 4.0949l4.5982 4.709 0.8055 37.702c0.77722 36.379 0.7217 37.73-1.5826 38.509-1.3134 0.44395-5.9668 2.4297-10.341 4.4127-9.8739 4.4765-14.838 4.4075-29.256-0.40656zm32.467-95.203c-4.9432-6.7324-6.0409-9.2961-7.0913-16.562-0.68353-4.7284-1.2539-11.9-1.2675-15.938-0.0215-6.3847 0.2194-7.1379 1.8502-5.7844 1.0312 0.85586 1.8905 3.0341 1.9094 4.8406 0.0238 2.2666 1.3519 4.2529 4.286 6.4094 3.48 2.5579 4.4056 4.2256 5.1004 9.1899 1.5185 10.849 2.5639 25.81 1.8036 25.81-0.40818 0-3.374-3.5844-6.5907-7.9653zm-87.14-76.86c0-2.65 4.12-5.18 8.44-5.18 5.36 0 19.06 3.65 19.06 5.08 0 0.99501-3.2062 0.23531-10.969-2.5991-4.7404-1.7309-11.838-0.7426-14.616 2.035-1.0534 1.0534-1.9152 1.3527-1.9152 0.66518zm8.75-15.657c0-0.31147 1.3102-3.2844 2.9116-6.6065s3.532-7.4464 4.2904-9.1652c1.3647-3.0931 1.3797-3.0831 1.4634 0.97765 0.1125 5.4542-2.8308 12.238-6.0596 13.966-1.4332 0.76703-2.6058 1.1398-2.6058 0.82833zm521.25-5.092c0-1.5134 5.3832-13.759 6.8932-15.68 1.9472-2.4775 5.1872-15.049 6.2302-24.173 0.45882-4.014 1.5137-9.2608 2.3441-11.659 1.4451-4.1741 1.5744-3.7805 3.0152 9.1766 0.82794 7.4458 2.633 17.607 4.0114 22.581 2.8975 10.456 3.1334 14.521 0.94353 16.259-0.85938 0.6821-5.2188 1.6292-9.6875 2.1046-4.4688 0.47543-9.3906 1.1722-10.938 1.5484-1.5469 0.37619-2.8125 0.30539-2.8125-0.15731zm-502.26-28.81c0.0255-2.0625 0.30562-2.7549 0.62255-1.5387 0.31692 1.2162 0.29608 2.9037-0.0464 3.75-0.34241 0.84628-0.60171-0.14879-0.57624-2.2113zm337.36-55.104c0.06-1.4562 0.35617-1.7524 0.7552-0.75522 0.36108 0.90234 0.31668 1.9805-0.0986 2.3958-0.41536 0.41536-0.7108-0.32292-0.65652-1.6406zm-90.995-64.53c-2.2216-2.7804-5.5666-9.9449-4.9371-10.574 0.83458-0.83456 7.552 2.7607 9.4651 5.0659 0.86608 1.0436 1.3811 2.9023 1.1446 4.1306-0.52881 2.7459-3.9211 3.57-5.6726 1.378zm-274.8-45.11c-0.96854-2.524 2.6519-11.5 7.8068-19.356 7.4137-11.298 55.26-58.316 67.986-66.809 20.183-13.471 51.65-26.666 71.343-29.919l8.7952-1.4525-0.74339-3.717c-2.7279-13.639 13.032-28.627 35.731-33.978 8.7218-2.0561 46.003-2.5402 50.406-0.6544 1.511 0.64715-6.1534 1.057-19.375 1.036-30.9-0.049-44.016 3.4984-56.924 15.396-6.3807 5.8815-8.6497 11.639-7.5298 19.107l0.80199 5.3481-7.7187 0.80676c-9.259 0.96776-32.566 8.5897-47.757 15.618-22.07 10.211-34.272 19.534-62.22 47.54-14.147 14.177-27.545 28.465-29.772 31.75-4.7841 7.0569-10.563 19.652-9.0162 19.652 0.59543 0 1.7606-1.637 2.5894-3.6377 1.6992-4.1022 18.646-22.743 18.737-20.61 0.0325 0.75739-3.3708 5.2574-7.5631 10s-8.4255 10.17-9.4071 12.06c-1.8748 3.6109-5.1158 4.5665-6.17 1.8194zm366.95-7.45c-4.4688-2.7934-17.406-9.249-28.75-14.346-19.504-8.7633-45.375-21.663-44.69-22.284 1.0877-0.9847 27.588 3.0695 28.374 4.3408 1.5671 2.5356 9.1858 1.1308 10.726-1.9779 1.3006-2.6252 1.6134-2.4854 10.082 4.5033 9.9189 8.1855 35.939 35.95 32.766 34.962-0.21085-0.0656-4.0396-2.4049-8.5084-5.1983zm-62.5-40.752c-9.69-2.59-36.25-13.73-36.25-15.2 0-1.1616 4.9804-2.3901 10.625-2.621 5.1426-0.2103 25.199 10.06 30.558 15.647 2.3692 2.4705 4.0567 4.4593 3.75 4.4197-0.30673-0.0396-4.214-1.0509-8.6827-2.2473zm-133.5-66.09c-2.996-0.36955-4.4503-1.3636-5.3125-3.6313-3.2739-8.611 0.7983-15.811 12.565-22.215l6.4238-3.4963-4.4631 5.8469c-5.3057 6.9508-6.2134 10.001-5.4234 18.222 0.32671 3.4002 0.53597 6.0922 0.46502 5.9822-0.071-0.11-1.9854-0.42903-4.2544-0.70888z"/>
</svg>
