<?xml version="1.0" encoding="UTF-8" standalone="no"?>
<!-- Created with Inkscape (http://www.inkscape.org/) -->
<svg id="svg3356" xmlns:rdf="http://www.w3.org/1999/02/22-rdf-syntax-ns#" xmlns="http://www.w3.org/2000/svg" height="800" viewBox="0 0 600 800" width="600" version="1.1" xmlns:cc="http://creativecommons.org/ns#" xmlns:dc="http://purl.org/dc/elements/1.1/">
 <metadata id="metadata3362">
  <rdf:RDF>
   <cc:Work rdf:about="">
    <dc:format>image/svg+xml</dc:format>
    <dc:type rdf:resource="http://purl.org/dc/dcmitype/StillImage"/>
    <dc:title/>
   </cc:Work>
  </rdf:RDF>
 </metadata>
 <path id="path3366" fill="#fff" d="m417.42 746.75c-3.8276-7.5531-11.597-28.489-14.127-38.067-1.9551-7.4007-2.5135-12.094-2.9411-24.718l-0.52771-15.582-7.5382-0.0458c-4.1462-0.0252-17.376-0.0107-29.4 0.0327-29.588 0.10641-39.609-1.4657-47.148-7.3962-1.3238-1.0413-3.6195-1.8933-5.1015-1.8933-1.5417 0-2.9245-0.59937-3.2321-1.401-0.29568-0.77057-4.3825-3.6638-9.0817-6.4296-16.235-9.555-51.421-37.501-83.814-66.568-7.1631-6.4276-16.427-14.5-20.586-17.939-7.7905-6.4406-15.655-15.422-20.739-23.686-2.1083-3.4264-3.6882-8.2459-5.7712-17.606-1.5775-7.0884-3.464-14.148-4.1923-15.688-1.0866-2.2978-2.7563-27.959-3.1093-47.785-0.0128-0.7217-1.8271 0.38185-4.1541 2.5267-4.3619 4.0207-7.466 5.2909-11.19 4.579l-2.2635-0.43269 1.4742 3.3509c3.8431 8.7356 5.4353 25.875 5.3236 57.307-0.13939 39.25-4.6495 87.594-8.9246 95.662-1.6128 3.0448-1.5697 1.2348 0.17364-7.2933 5.55-27.15 9.2357-93.154 6.5457-117.21-0.62944-5.6281-1.305-12.326-1.5012-14.884-0.19621-2.5582-1.5011-7.8753-2.8997-11.815-2.6254-7.3966-2.4428-9.4017 0.67854-7.4526 4.0981 2.5593 8.5109 0.51124 15.609-7.2448l2.9799-3.256 0.0584 7.9073c0.1498 20.294 1.6484 43.083 3.0202 45.926 0.77353 1.6027 2.5306 8.1469 3.9047 14.542 1.7331 8.0666 3.4589 13.371 5.6349 17.319 3.4695 6.2952 14.264 19.744 17.058 21.253 0.9817 0.53015 9.878 8.1261 19.77 16.88 43.074 38.12 73.483 62.231 89.849 71.24 3.7095 2.042 6.7445 4.3029 6.7445 5.0241 0 0.83769 1.011 1.3113 2.7988 1.3113 1.6239 0 4.3916 1.1538 6.5928 2.7483 2.0867 1.5116 6.1426 3.4311 9.0132 4.2656 7.4049 2.1526 27.029 3.0824 53.012 2.5114l22.373-0.4916 0.11425 13.701c0.11807 14.157 1.2778 22.497 4.7552 34.194 2.307 7.76 8.2154 22.97 11.855 30.517 1.3569 2.814 2.6171 5.4305 2.8005 5.8142 0.18338 0.38372-0.11301 0.69771-0.65868 0.69771s-2.0016-1.9922-3.2355-4.427zm4.622 2.4671c-0.23353-0.71282-1.1853-5.4822-2.115-10.598-1.3894-7.6461-1.6904-14.273-1.6904-37.211 0-30.593 0.53126-36.746 3.1728-36.746 1.8474 0 13.584-5.9409 16.123-8.1611 1.7516-1.5317 13.738-21.251 15.686-25.805 0.65365-1.5285 1.9283-3.6247 2.8326-4.6582 2.3717-2.7107 5.8181-12.39 9.6584-27.126 1.8428-7.0713 4.6048-17.252 6.1378-22.625 3.1019-10.87 17.908-50.392 22.131-59.072 9.2662-19.049 16.835-38.329 20.086-51.165 2.9069-11.476 4.5707-33.021 3.8762-50.196-0.77421-19.146-4.8746-38.165-9.0415-41.936-1.3593-1.2302-1.8221-2.864-1.8221-6.433 0-3.8591 0.91575-6.6639 4.737-14.508 2.6054-5.348 6.386-11.698 8.4015-14.111l3.6645-4.3876-1.6073-4.9139c-1.9921-6.0904-2.0765-13.958-0.42214-39.336 1.7654-27.081 0.97991-51.193-2.1565-66.199-5.7428-27.476-19.034-52.923-35.488-67.946-6.749-6.1618-8.5875-8.5161-12.193-15.614-8.4766-16.688-19.904-30.824-32.779-40.546-13.573-10.25-41.719-21.866-66.046-27.256-9.6116-2.1298-9.6607-2.1543-5.4408-2.7326 5.9964-0.82191 23.325 2.1341 34.957 5.9633 4.6027 1.5152 7.6252 0.44345 7.6252-2.7036 0-4.1771-0.33811-4.3118-35.35-14.078-26.328-7.3438-29.999-7.9103-51.165-7.8961-25.001 0.01712-39.433 1.9819-61.467 8.368-11.977 3.4713-24.16 8.4245-30.862 12.547-4.8211 2.9659-5.5356 2.2529-2.5874-2.5823 4.6607-7.6439 26.159-16.932 39.333-16.993 5.9066-0.02731 3.8562 1.5431-2.8255 2.164-10.833 1.0068-27.875 7.9281-32.909 13.365-2.0406 2.2039-1.7742 2.1486 4.3379-0.89991 19.274-9.613 44.585-15.662 73.645-17.6 26.466-1.7651 38.677 0.04629 79.371 11.774 19.141 5.516 22.34 7.1864 22.34 11.666 0 2.7535-2.5294 5.5636-5.0075 5.5636-0.88279 0-5.3274-1.0465-9.8765-2.3257-12.146-3.4151-11.34-2.7777 2.7908 2.206 24.592 8.6731 37.878 16.469 51.642 30.301 9.04 9.0846 14.688 16.937 21.533 29.937 3.5065 6.6594 6.0878 9.9673 13.34 17.095 9.7671 9.5989 14.947 16.912 22.11 31.217 13.732 27.422 17.276 49.522 15.236 95.007-0.63801 14.231-1.4693 27.759-1.8473 30.061-0.72058 4.3889 1.1341 17.411 2.7095 19.024 1.5853 1.6231 0.89478 3.4705-3.4471 9.2216-2.3706 3.1402-6.1382 9.6339-8.3724 14.43-4.6887 10.066-5.2463 15.016-2.0723 18.394 2.6298 2.7993 6.8844 19.443 8.3099 32.508 1.1668 10.692 0.70762 32.51-0.99034 47.059-1.3418 11.497-6.3415 27.974-13.525 44.574-3.411 7.882-6.6207 15.797-7.1326 17.587-0.51182 1.7907-1.5819 3.9886-2.3778 4.8841-1.4566 1.6386-11.436 26.671-17.524 43.955-1.802 5.1165-5.7551 18.608-8.7847 29.981-5.3717 20.166-9.2305 31.396-11.436 33.278-0.5995 0.51165-2.4573 3.6513-4.1285 6.977-3.7229 7.4088-6.2809 11.881-10.771 18.834-3.6336 5.6257-8.9522 9.4374-17.473 12.523l-4.3053 1.5588-0.58608 7.4965c-0.78358 10.023-0.86724 43.188-0.12806 50.754 0.32493 3.3257 1.2376 10.156 2.0281 15.178 0.7905 5.0224 1.1956 9.3734 0.90035 9.6681-0.2953 0.29531-0.72798-0.0461-0.96152-0.7591zm-35.22-675.87c-0.30911-0.30912-1.1115-0.34216-1.783-0.07338-0.74211 0.29696-0.52168 0.5174 0.56204 0.56203 0.98066 0.04033 1.5301-0.17947 1.221-0.48859zm-36.49 583.72c-9.721-0.35014-18.931-1.0184-20.466-1.4849-2.5151-0.76446-2.8187-1.276-3.0732-5.1765-0.21389-3.2786-0.83426-4.7622-2.5582-6.1184-1.2517-0.9846-2.2759-2.2532-2.2759-2.8192 0-0.56592-0.33527-1.029-0.74504-1.029-1.5762 0-31.905-17.363-42.978-24.604-6.3956-4.1826-20.001-13.669-30.234-21.08-10.233-7.4115-26.676-18.846-36.539-25.409l-17.933-11.934-3.2867-7.0932c-1.8077-3.9013-4.9939-12.326-7.0806-18.722-2.0866-6.3956-5.6246-15.95-7.8619-21.232-2.2376-5.2817-4.9173-13.026-5.9551-17.21-1.0377-4.1838-2.1382-8.4439-2.4455-9.4672-0.51827-1.726-1.9601-85.138-1.4858-85.95 0.11756-0.20082 0.93184 0.21781 1.8095 0.93028 1.2088 0.98125 1.1295 0.61865-0.32694-1.4954-1.5128-2.1959-2.1496-5.3688-2.9871-14.884-0.96614-10.976-2.5646-20.161-4.3711-25.117-0.37297-1.0233 2.0769 1.9445 5.4442 6.5951l6.1224 8.4558 1.066 16.662c1.2271 19.178 2.9766 32.446 5.1476 39.033 6.1307 18.605 25.421 44.081 44.881 59.272 3.8367 2.995 5.8943 4.0791 6.3481 3.3448 0.40814-0.66038 0.26823-0.83724-0.35673-0.45104-1.2205 0.76654-20.146-18.099-28.355-28.243-11.439-14.14-18.829-27.625-21.932-40.002-1.5042-6.0091-1.6834-9.4419-1.2916-24.744l0.45493-17.767 7.2127 8.0442c3.967 4.4244 8.2764 10.144 9.5766 12.71 2.7586 5.4438 9.0765 11.524 11.974 11.524 1.1095 0 2.7647 0.67649 3.6784 1.5033 1.5796 1.4296 1.606 1.3501 0.5384-1.6196-0.61753-1.7176-2.2708-4.1032-3.674-5.3012-5.8892-5.0284-13.01-24.513-15.553-42.556-1.7614-12.499-2.7468-43.602-1.8377-58.004 0.81343-12.888 4.0523-41.786 5.1922-46.328 0.48955-1.9505 1.0334-1.4558 5.0482 4.5918 6.7687 10.196 13.022 17.499 16.865 19.694 4.9876 2.8497 5.9036 1.404 3.505-5.5312-5.7122-16.516-9.9145-37.047-10.746-52.504l-0.52571-9.7678 4.7629 8.8093c2.6196 4.845 6.4914 11.125 8.6039 13.954 9.6056 12.867 28.835 29.222 50.131 42.639 16.717 10.531 39.982 23.499 41.016 22.859 0.56809-0.3511 0.78597-0.23885 0.48419 0.24945-0.30178 0.48829 0.36613 1.4575 1.4843 2.1538 1.8631 1.1602 1.9248 1.1351 0.73853-0.30024-1.1057-1.3378-1.1057-1.4967 0-1.0895 0.71192 0.26216 1.802 0.15211 2.4223-0.24455 2.2859-1.4617-0.004-4.4902-6.718-8.8807-13.753-8.9953-25.233-21.791-36.63-40.829-4.7328-7.9058-11.22-21.138-12.663-25.832-0.69686-2.2661-0.66773-2.2833 1.1382-0.67188 1.0194 0.90959 3.482 1.8596 5.4727 2.1113 5.499 0.69502 19.914 11.443 33.156 24.721 4.4769 4.4892 8.1321 7.8701 8.1231 7.5136-0.01-0.35674-1.2992-2.951-2.8665-5.7651-1.5673-2.814-5.592-10.14-8.944-16.28-3.3518-6.1398-7.1818-13.047-8.5116-15.349l-2.4171-4.1862 4.1682 3.2129c21.112 16.273 44.464 38.6 54.658 52.258 7.2464 9.7083 9.0683 12.932 11.017 19.496 1.2822 4.3177 2.7002 6.2585 3.7821 5.1766 1.8305-1.8305-17.39-63.08-26.441-84.26-0.76133-1.7815 13.249 9.1382 18.209 14.192 3.2315 3.2926 4.4963 5.6984 6.9367 13.194 2.8222 8.6686 5.3103 12.377 5.3103 7.9162 0-1.0962-0.41231-1.7381-0.91628-1.4267-0.56668 0.35023-0.70367-0.49673-0.35905-2.2198 0.66392-3.3196-2.5455-14.68-5.6778-20.098-1.1832-2.0466-4.0089-7.9438-6.2793-13.105-4.0266-9.1531-12.001-22.221-16.982-27.827-2.7954-3.1465-2.3697-2.0884 1.872 4.6514 3.6045 5.7274 11.598 20.415 11.598 21.311 0 0.36101-2.334-1.8646-5.1865-4.9457-6.2068-6.704-10.852-9.7902-13.64-9.0608-1.1042 0.28874-2.463 0.14708-3.0195-0.3148-0.65726-0.54549-1.0607-0.28731-1.1513 0.73663-0.0767 0.86701-0.4238 2.7241-0.77138 4.1267-0.51301 2.0701-0.11887 3.0334 2.0933 5.1165 2.1867 2.059 4.2406 6.9839 10.392 24.918 4.2166 12.293 7.789 22.968 7.9393 23.722 0.15001 0.75375 0.54218 1.9983 0.87147 2.7658 1.471 3.4285 5.2285 15.23 4.9407 15.518-0.17557 0.17558-2.2096-2.5115-4.5202-5.9712-11.428-17.113-29.956-38.373-42.926-49.257-11.817-9.9167-19.07-14.494-22.036-13.908-1.9944 0.39435-2.7654-0.17296-4.9694-3.6566-3.411-5.3917-4.1554-5.333-0.98453 0.0777 1.664 2.8394 2.2801 4.9261 1.9006 6.438-0.62254 2.4803 0.10916 5.1755 1.4051 5.1755 1.9871 0 6.8765 5.6479 11.257 13.004 2.5967 4.3601 5.5522 9.3213 6.5677 11.025 1.156 1.9393-1.2427-0.0166-6.4152-5.231-9.686-9.7641-20.537-16.007-27.825-16.007-3.9409 0-4.1194-0.12468-4.9962-3.4885-2.477-9.5036-2.9009-10.299-2.3553-4.4188 1.1146 12.012 1.6034 14.936 2.7224 16.28 0.63896 0.76743 1.9076 3.6979 2.8194 6.5119 0.91167 2.814 2.4248 6.9167 3.3625 9.1174 0.93771 2.2003 1.3327 3.7705 0.8778 3.4893-0.4549-0.28115-4.7064-6.2676-9.4478-13.304-14.015-20.796-19.321-34.1-18.037-45.22 0.91211-7.8976 1.904-10.267 3.9311-9.3905 7.856 3.3968 18.876 6.6762 31.312 9.3176 8.147 1.7305 15.232 3.5659 15.745 4.0788 0.51289 0.51288 2.0121 2.9314 3.3316 5.3744 2.0416 3.7802 2.8143 4.4419 5.1862 4.4419 2.1625 0 2.8524-0.45828 3.0781-2.0451 0.45996-3.2327-1.4057-5.6886-6.1466-8.0911-3.5344-1.791-5.2941-3.6481-8.9998-9.4984-5.0124-7.9125-16.214-23.08-20.881-28.274-1.6091-1.7907 0.36008 1.3489 4.3759 6.977 8.2861 11.614 16.158 23.249 17.689 26.144l1.034 1.9571-6.2392-1.7278c-15.57-4.3118-24.926-8.0063-37.666-14.872-10.659-5.744-19.145-15.401-26.557-30.217-3.9609-7.9185-6.1009-9.5952-9.753-7.6409-1.4643 0.78366-1.7355 0.72511-1.2976-0.28033 5.4541-12.522 8.0673-23.154 6.867-27.937-1.4442-5.7541-6.7776-3.8341-7.5382 2.7137-1.9716 16.976-12.336 41.114-23.583 54.922-3.494 4.2897-3.755 4.8483-1.5148 3.2418 7.4376-5.3336 14.949-14.001 20.779-23.977 3.1832-5.4472 3.7896-6.0754 3.7896-3.9255 0 1.4076 1.9031 5.6944 4.2292 9.526l4.2292 6.9669-2.2517 3.0177c-2.5087 3.3621-4.6502 9.5111-6.2347 17.902-1.4938 7.911-2.1692 38.707-1.0202 46.514l0.95855 6.5119-0.31247-8.0606c-0.82512-21.285 1.811-49.448 5.4061-57.754 3.1-7.1623 3.2068-7.158 10.857 0.44344 3.8117 3.7873 9.4419 8.2876 12.512 10.001 3.0699 1.713 5.6674 3.1669 5.7723 3.2309 0.1049 0.0639-0.40005 1.7747-1.122 3.8017-0.72197 2.027-1.331 6.6472-1.3535 10.267-0.0825 13.299 6.984 27.818 26.453 54.351 3.1911 4.349 7.4026 10.837 9.3585 14.419 4.6817 8.5719 9.5833 15.818 15.542 22.979l4.8614 5.8415-6.0343-4.5981c-27.894-21.255-47.715-39.003-55.97-50.116-7.4037-9.968-13.657-22.825-14.698-30.218-0.97068-6.8944-2.2676-8.8629-5.439-8.2571l-2.2754 0.43498 0.54414-10.36c0.65019-12.379-0.6959-9.616-2.1389 4.3898-1.2236 11.876-1.1977 25.478 0.0729 38.275 0.55879 5.6281 1.1104 12.348 1.226 14.933 0.11549 2.5849 0.52277 5.206 0.90511 5.8245 0.38231 0.6186 1.6834 5.2016 2.8914 10.185 1.2079 4.9829 2.6465 10.316 3.1969 11.851l1.0006 2.7908-2.3816-2.7908c-7.4251-8.7006-13.112-19.115-18.459-33.802-3.0177-8.2891-5.6037-14.954-5.7466-14.811-0.14289 0.1429 1.262 5.619 3.1218 12.169 2.5972 9.1464 3.1118 12.076 2.2182 12.629-0.71697 0.44312-1.0998 2.4736-0.99754 5.2909 0.10254 2.8256-1.3038 10.257-3.6821 19.456-5.808 22.466-7.7012 38.063-7.3731 60.74 0.14896 10.29 0.0297 18.415-0.26491 18.056-0.29467-0.35922-4.552-9.0259-9.4605-19.259-15.286-31.867-19.48-48.939-19.399-78.969 0.0276-10.178 0.30592-19.311 0.61866-20.296 1.3109-4.1304 8.8949-15.654 13.092-19.891 2.4869-2.5113 9.0333-10.49 14.548-17.729 12.728-16.711 12.766-16.743 12.766-10.845 0 6.3738 2.2951 23.139 4.6882 34.247 2.269 10.531 7.2981 26.926 8.0338 26.19 0.26794-0.26794-0.0484-2.085-0.70293-4.038-0.65457-1.953-1.1177-4.5158-1.0292-5.695 0.0885-1.1793-0.20652-1.9171-0.65562-1.6395-0.92083 0.56907-2.0081-3.3761-5.3668-19.473-1.6083-7.7078-2.5478-16.059-3.0354-26.978-0.38837-8.6984-0.77264-14.273-0.85399-12.389-0.10955 2.5379-0.63263 3.5797-2.018 4.0194-1.0286 0.32646-6.8674 7.1573-12.975 15.18-6.1077 8.0227-12.184 15.842-13.502 17.377-2.2814 2.6567-2.2502 2.478 0.649-3.7211 1.6751-3.5816 3.275-6.7212 3.5554-6.977 1.0997-1.0032 3.8731-11.953 3.2732-12.923-1.4658-2.3717-3.1759-0.63888-5.6385 5.7139-5.6095 14.471-30.365 58.981-32.179 57.86-0.45607-0.28187-0.55356 0.20586-0.21666 1.0839 0.46029 1.1995 0.28419 1.4057-0.70835 0.82944-0.72651-0.42179-1.0106-0.42433-0.63131-0.006 0.3793 0.41868 0.18822 1.4277-0.42462 2.2422-0.61285 0.81455 0.46769 0.0159 2.4012-1.775 1.9335-1.7907 5.8739-6.3956 8.7565-10.233 2.8825-3.8373 5.4685-7.2698 5.7467-7.6275 0.27823-0.35784 0.51867 8.6426 0.53428 20.001 0.0247 17.967 0.30425 21.916 2.1503 30.38 3.6358 16.671 8.1202 28.696 18.422 49.404 9.4426 18.98 10.001 20.431 11.593 30.141 0.9197 5.6102 1.5498 10.323 1.4002 10.473-0.57954 0.57955-14.904-21.67-14.674-22.791 0.13451-0.65333-1.0484-2.4808-2.6287-4.0611-3.0834-3.0834-5.5891-7.5278-7.399-13.124-0.65294-2.0188-1.7278-3.4885-2.5511-3.4885-0.94188 0-1.223-0.52052-0.83181-1.54 0.35147-0.91592-0.1506-2.3297-1.2388-3.4885-4.1017-4.3677-8.7832-29.196-10.629-56.369l-1.1689-17.21-0.5793 12.853c-0.95602 21.212 1.5506 44.07 6.3127 57.568 0.73137 2.0729 1.3298 3.8991 1.3298 4.0582 0 0.15907-1.3605 0.42041-3.0234 0.58074-2.5184 0.24283-3.2088 0.83538-4.1337 3.5475-1.2956 3.7992-1.4977 19.981-0.32529 26.048 0.44496 2.3025 0.66986 4.3268 0.49977 4.4987-0.4801 0.48508-7.716-22.229-9.8088-30.793-2.3718-9.7024-3.3967-31.085-1.9358-40.388 0.57691-3.6735 3.1338-13.903 5.6821-22.734 2.5482-8.8301 4.4752-16.213 4.2822-16.406-0.69645-0.69646-7.9006 19.06-10.432 28.609-2.3453 8.8472-2.5814 11.171-2.5034 24.652 0.0589 10.173 0.58672 17.241 1.6676 22.326 1.7003 8.0018 7.0206 25.149 9.8534 31.758 0.95661 2.2318 1.5941 4.0578 1.4165 4.0578-0.42472 0-7.0089-10.38-10.327-16.28-1.4386-2.5582-3.2549-5.6979-4.036-6.977-1.4142-2.3157-1.4086-2.3148 1.3167 0.19759 2.4625 2.2702 2.1392 1.2922-3.2229-9.7492-3.278-6.7499-6.0974-13.746-6.2653-15.547-0.16794-1.801-1.182-5.765-2.2536-8.8086-2.0908-5.9391-3.4011-15.73-4.4882-33.537l-0.68147-11.163-0.24155 9.7678c-0.36591 14.797-1.6017 15.492-2.4849 1.3954-0.93221-14.878-1.8696-11.749-2.8457 9.5007-0.3576 7.7838-0.96131 13.96-1.3415 13.725-0.69818-0.43149-3.774 4.1387-9.0988 13.519-1.5973 2.814-2.9135 4.8138-2.9248 4.4438-0.01126-0.36999 1.2331-8.0078 2.7654-16.973 3.5361-20.69 4.3962-33.724 2.391-36.234-1.3677-1.7122-1.5011-1.7178-3.249-0.13598-1.8893 1.7098-4.079 9.84-5.227 19.407-0.35584 2.9654-0.80978 5.2288-1.0089 5.0298-0.19901-0.199 0.29553-7.649 1.099-16.555 5.3229-59.006 14.435-87.044 39.409-121.26 5.6392-7.7257 6.1204-8.1551 6.7792-6.0468 0.61284 1.9615 0.65863 1.8907 0.33734-0.52132-0.3283-2.4647 0.5228-3.6605 7.283-10.233 4.2102-4.0932 9.0951-8.5771 10.854-9.9636 4.1166-3.2437 13.436-5.3861 23.431-5.3861 7.6788 0 10.003-0.79973 10.003-3.442 0-0.66515-0.62794-1.2094-1.3954-1.2094-0.76748 0-1.3954-0.47514-1.3954-1.0559 0-0.75657-3.2305-0.91851-11.395-0.57128-9.7984 0.41667-12.7 0.93288-20.698 3.6822-5.1165 1.7587-10.91 3.9211-12.876 4.8053-5.3706 2.4165-3.3178 0.32731 5.2321-5.3246 13.375-8.842 28.084-15.282 45.004-19.706 7.684-2.0092 10.9-2.3606 20.034-2.1893 8.0234 0.15044 11.279-0.12633 12.397-1.054 1.2786-1.0612 1.6503-1.049 2.3752 0.07755 0.70095 1.0894 0.95572 0.98586 1.3818-0.56158 0.2873-1.0435 1.2651-2.2993 2.1729-2.7908s3.917-2.4085 6.6872-4.26 8.3858-4.7261 12.479-6.3879 9.1167-3.7712 11.163-4.6874c2.0466-0.9162 4.698-1.9533 5.892-2.3045 2.1326-0.62736 2.16-0.5508 1.5518 4.3327-1.3945 11.197 7.9475 24.703 28.393 41.047l3.2351 2.5864-4.7194-0.59131c-3.6072-0.45192-5.0581-0.25259-6.1565 0.84581-1.2959 1.2959-2.8886 0.72302-16.215-5.8324-10.506-5.1684-17.197-9.1814-23.147-13.883-4.6031-3.6377-9.1018-6.6205-9.9971-6.6283-2.0306-0.0177-5.349 3.2047-5.349 5.1943 0 2.1103 4.5535 6.0996 13.991 12.257 18.596 12.134 29.062 17.325 42.824 21.24 4.8286 1.3738 11.904 4.2899 15.746 6.4893 3.8373 2.1969 12.838 6.7841 20.001 10.194 42.033 20.008 47.154 22.89 50.829 28.597 1.0608 1.6474 1.688 2.2626 1.3938 1.3673-0.29422-0.89536-0.21979-1.628 0.16536-1.628 1.1168 0 9.9241 9.4114 12.608 13.473 1.3464 2.0374 2.448 3.2364 2.448 2.6643 0-2.193-7.8061-12.589-12.974-17.278-3.5499-3.2076-6.8096-7.4422-9.5111-12.339-8.8562-16.016-21.441-29.88-39.838-43.879-13.698-10.426-15.365-11.142-18.771-8.0606-0.93883 0.8496-1.844 1.3729-2.0117 1.1628-0.1676-0.21005-2.7325-3.279-5.6999-6.8199-2.9673-3.5408-7.0098-8.9827-8.9834-12.094-1.9736-3.1105-3.5923-5.2854-3.5972-4.8329-0.004 0.45245 1.8231 4.69 4.0622 9.4166 4.1984 8.8629 9.7403 17.648 14.686 23.282 3.4974 3.9833 2.7962 4.0497-3.3054 0.31315-14.125-8.6552-29.642-23.495-34.926-33.4-2.4038-4.5174-2.8504-6.3705-2.8504-11.922v-6.5749l6.7445-2.0153c22.977-6.8656 57.868-9.4091 81.313-5.9272 14.201 2.1086 15.206 2.821 4.9092 3.48-14.519 0.9293-29.168 6.0124-30.793 10.685-1.2206 3.5099 1.9565 5.8917 6.9467 5.2078 14.845-2.0347 54.546 7.5784 77.391 18.74 15.088 7.3707 19.221 10.797 40.666 33.709 5.5029 5.8793 13.612 17.489 12.79 18.311-2.1976 2.1976-0.78641 5.1611 4.7641 10.005 6.0899 5.3139 10.043 11.931 14.901 24.939 3.4173 9.1516 3.4193 6.9013 0.003-3.721-1.4736-4.6067-2.5378-8.3724-2.3592-8.3724 0.90452 0 7.3325 12.911 11.107 22.309 7.6401 19.024 13.924 43.267 16.697 64.422 1.4411 10.994 3.0607 43.43 2.126 42.577-0.4647-0.42417-6.7442-30.616-9.5394-45.865-1.2851-7.0112-1.9453-8.2325-3.3529-6.2034-0.69552 1.0026-0.82049 0.49806-0.46744-1.8875 0.26503-1.7907 0.69487-7.0236 0.9552-11.628 0.3825-6.7654 0.31225-7.4794-0.36596-3.7211-2.0334 11.268-5.0277 22.815-5.6245 21.69-0.35711-0.67342-0.88748-7.0851-1.1786-14.248-0.29112-7.1631-1.2735-16.791-2.183-21.396l-1.6537-8.3724-1.1119 21.861c-0.61156 12.024-1.1483 22.873-1.1928 24.11-0.0445 1.2364-0.36913 1.9598-0.72152 1.6075-0.35236-0.35237-0.71624-9.9457-0.80859-21.319-0.18285-22.516-1.3942-31.288-5.6048-40.588-2.6307-5.8105-3.8492-5.946-1.8229-0.20277 2.6476 7.5039 4.3276 19.306 4.8822 34.299 0.30756 8.3144 0.32562 15.117 0.0401 15.117-0.28549 0-1.8753-2.4071-3.5329-5.349-1.6576-2.942-5.0849-8.4223-7.6163-12.178-2.5314-3.7559-5.4081-8.9886-6.3926-11.628-1.3544-3.6313-1.676-4.0494-1.3216-1.7176l0.46844 3.0818-2.4395-1.919c-1.3418-1.0554-2.9526-1.919-3.5797-1.919-0.80078 0-1.2994-3.1151-1.6752-10.465-0.29421-5.7561-0.94128-11.721-1.438-13.256-0.70408-2.1759-0.79729-1.4585-0.42309 3.256 0.6329 7.9735-1.9916 33.81-4.7581 46.84-2.0897 9.8423-6.0898 24.284-6.5583 23.677-0.11987-0.1551 0.16868-4.2589 0.64126-9.1196 1.2994-13.365 0.33382-32.552-2.0599-40.932-1.8393-6.439-9.5803-24.187-10.549-24.187-0.23192 0 0.99755 3.2827 2.7322 7.2948 5.9991 13.876 7.114 19.952 7.4518 40.614 0.30263 18.513 0.29709 18.573-1.1149 12.23-2.93-13.164-11.315-30.994-17.875-38.006-5.4273-5.8022-8.79-7.5873-13.184-6.9978-3.3581 0.45042-3.4116 0.40399-6.581-5.712-4.2868-8.2727-12.318-18.707-20.498-26.632l-6.7216-6.5119 7.4675 8.9455c8.9202 10.686 13.928 19.007 18.911 31.427 4.6974 11.708 7.1976 21.467 8.3665 32.655 1.2122 11.604 1.0497 37.938-0.28121 45.583l-1.0526 6.0468-1.2588-6.0468c-2.1737-10.442-6.7824-24.365-10.624-32.094l-3.6985-7.4422 2.979 2.7908c3.6997 3.4661 11.583 15.304 12.425 18.658 0.34407 1.3708 0.82988 2.2882 1.0796 2.0386 0.24968-0.24968-0.44077-2.7061-1.5343-5.4588s-3.2042-9.9584-4.6904-16.012c-3.3108-13.487-7.1019-22.785-12.88-31.591-5.993-9.133-9.1888-12.846-25.01-29.056-7.5017-7.6803-15.316-15.792-17.355-18.01-3.5767-3.8812-3.6128-3.9814-0.93027-2.583 4.8863 2.5473 10.725 6.7874 10.238 7.4348-0.25867 0.34396-0.20593 0.43075 0.11722 0.19288 0.32315-0.23786 2.7673 1.4297 5.4315 3.7058 2.6641 2.2761 6.4813 4.7865 8.4826 5.5786l3.6386 1.4404-2.7908-2.1188c-1.535-1.1653-5.132-4.2612-7.9936-6.8796-5.9825-5.4743-18.105-13.708-20.845-14.158-1.0233-0.16814-2.4885-0.94627-3.256-1.7291-1.1727-1.1962-0.87564-1.1776 1.8605 0.11589l3.256 1.5393-2.7908-2.3638c-3.0037-2.5441-4.7569-2.9867-5.306-1.3394-0.21075 0.63222-6.6212-1.5366-16.508-5.5855-8.8904-3.6405-16.313-6.4698-16.496-6.2874-0.18244 0.18242 4.8044 2.5082 11.082 5.1683 22.016 9.3295 22.454 9.6436 43.31 31.11 24.768 25.492 33.519 36.728 38.879 49.918 2.2681 5.5819 7.0963 22.321 6.4382 22.321-0.18137 0-1.5946-2.1978-3.1404-4.8839-7.1127-12.359-27.824-34.043-42.698-44.701-8.1157-5.8158-12.96-7.4094-15.01-4.9383-1.6135 1.9441-0.54756 6.5262 1.3488 5.7985 0.74608-0.28629 1.3565-0.11504 1.3565 0.38055s0.54232 0.90109 1.2052 0.90109c1.5734 0 20.735 15.217 21.905 17.395 0.49476 0.92149 3.697 5.0244 7.1162 9.1174 10.907 13.057 18.722 28.167 22.754 43.991 2.399 9.4173 4.8608 28.525 4.0773 31.646-0.41071 1.6364-0.23022 2.1686 0.63735 1.8794 1.942-0.64735 4.6339-6.5022 4.6339-10.079 0-1.8105 1.0465-7.4172 2.3255-12.459 4.6147-18.192 4.8803-49.864 0.55652-66.374-0.97143-3.7095-1.5694-6.7445-1.3289-6.7445 1.3189 0 8.8458 6.0289 12.943 10.367 7.2406 7.6669 11.478 14.686 13.479 22.329 2.4494 9.3556 3.8512 26.903 2.7072 33.889-0.49638 3.0312-0.90496 5.616-0.90794 5.7439-0.003 0.12791 0.37855 0.23256 0.84781 0.23256 1.0584 0 2.8679-8.164 2.8679-12.94 0-2.1438 1.4175-6.6304 3.586-11.35 4.716-10.264 7.2886-18.226 9.3042-28.795l1.6519-8.6604 4.2022 5.9878c7.6617 10.917 8.6076 12.992 9.7277 21.331l1.0627 7.9132 0.19097-5.5816 0.19099-5.5816 3.4125 6.977c3.3098 6.7669 3.4115 7.2846 3.3775 17.189-0.0193 5.6165 0.21604 9.1747 0.52297 7.9073 0.52613-2.1727 0.59479-2.1249 1.1998 0.83501 1.0136 4.9589 0.6114 21.604-0.62084 25.693-1.1187 3.7126-1.1285 3.7187-12.254 7.658-18.615 6.5904-37.421 14.21-38.611 15.644-0.61896 0.74577-1.889 1.356-2.8222 1.356-0.93325 0-4.1967 1.4652-7.2522 3.256-3.0554 1.7907-6.2176 3.256-7.0269 3.256-1.5623 0-2.0665 3.2435-0.6412 4.1244 0.45665 0.28221 4.1196-0.29421 8.1402-1.281 4.0203-0.98675 15.891-3.5137 26.38-5.6154s19.798-4.2216 20.686-4.7109c0.88844-0.48928 5.9346-0.88963 11.214-0.88963 9.1412 0 9.8155 0.13779 14.158 2.8914 6.3521 4.0284 8.016 4.5164 10.299 3.0204l1.9455-1.2748-2.1102 8.5525c-1.1605 4.7038-2.4298 11.719-2.8205 15.589-0.85748 8.4945-0.44551 6.883-3.434 13.432-2.9831 6.537-3.0356 7.8783-0.6506 16.619 3.9884 14.616 9.3198 54.703 9.3198 70.074 0 4.6394-0.45557 10.9-1.0124 13.912-2.2262 12.043-12.494 27.454-31.766 47.682-7.6654 8.045-16.08 17.866-18.701 21.825l-4.7634 7.1973-1.5603-7.1973c-1.7587-8.1127-4.6489-16.231-7.0788-19.885-2.5371-3.8149-17.83-17.736-23.231-21.147-4.3106-2.7225-9.6689-6.6005-13.054-9.4478-1.5033-1.2652-1.4884-2.7685 0.0223-2.7685 1.8433 0 8.0033-5.4501 9.558-8.4558 0.76996-1.4889 2.0008-2.7071 2.7351-2.7071 0.73441 0 2.1567-0.88175 3.1608-1.9594 1.004-1.0777 2.2505-1.6968 2.7699-1.3758 1.2418 0.76743 2.7917-2.068 2.2541-4.1237-0.59479-2.2745-4.3461-4.0491-7.0988-3.3582-1.2791 0.32104-3.6566 1.7037-5.2835 3.0725-2.5045 2.1074-2.8825 2.9526-2.4667 5.5151 0.44191 2.7232 0.20461 3.1261-2.3692 4.0234-1.5731 0.5484-5.3095 0.9971-8.3032 0.9971h-5.4428v4.6514 4.6514h3.6788 3.6788l-2.0508 2.2767c-1.1279 1.2522-4.144 4.7636-6.7022 7.8031l-4.6514 5.5265-2.7488-1.4137c-3.7136-1.9201-9.8088-8.3799-9.8088-10.412 0-0.90229-0.82584-2.3879-1.8353-3.3013-2.639-2.3883-5.8779-1.4535-17.601 5.0799-6.0573 3.3756-14.436 7.027-21.117 9.203-16.36 5.3284-30.225 12.404-37.328 19.049-4.6386 4.3392-6.8312 7.4193-10.503 14.755-2.5526 5.0989-4.641 10.153-4.641 11.233 0 2.8511-1.3514 0.88175-2.7388-3.9914-3.2227-11.319-9.2744-19.714-21.318-29.571-9.7887-8.0115-11.89-8.3687-4.4732-0.76074 11.069 11.355 18.428 27.271 21.524 46.552 0.81603 5.0835 1.9256 9.7753 2.4657 10.426 0.97202 1.1712 6.335 0.74704 7.3316-0.5799 0.25583-0.34059 1.1978-0.88956 2.0931-1.2199 1.2323-0.45466 1.628-1.6565 1.628-4.9449 0-8.5927 10.149-38.607 14.671-43.388 3.0994-3.2768 9.9011-5.8028 19.289-7.1639 4.0904-0.593 12.042-2.2821 17.67-3.7535 5.6281-1.4715 13.109-3.3503 16.626-4.1753 3.5158-0.82497 7.9996-2.3196 9.9636-3.3216 4.568-2.3304 6.6461-2.2987 8.8487 0.13523 2.9227 3.2296 9.0884 6.3699 13.766 7.011 4.1725 0.57191 4.5835 0.42329 7.9668-2.8807 2.4727-2.4145 4.0972-3.3152 5.2931-2.9346 0.94902 0.30199 7.3768 3.5022 14.284 7.1116 18.591 9.715 22.568 14.329 24.243 28.128 1.8036 14.861 3.7539 27.05 4.558 28.487 0.63332 1.1317 1.177 0.53092 2.454-2.7116 5.5906-14.195 11.973-23.797 25.957-39.051 9.5639-10.432 14.799-17.113 19.104-24.381 1.73-2.9205 3.2918-5.1637 3.4707-4.9848 0.58485 0.58484-4.3613 11.527-18.072 39.98-7.4184 15.395-14.08 28.649-14.804 29.454-1.4736 1.6376-6.291 11.293-11.57 23.19-9.104 20.515-22.553 47.521-25.815 51.838-3.844 5.0867-19.69 11.488-32.923 13.3-4.1114 0.56293-8.5257 1.4228-9.8095 1.9108-2.4068 0.91509-6.0235 0.89633-36.097-0.18683zm75.508-36.501c5.2922-6.0122 8.3456-12.197 11.064-22.408 2.3395-8.7899 2.3991-9.7098 2.0689-31.991-0.23737-16.021-0.69425-23.642-1.5145-25.267-4.2625-8.4394-6.2513-9.9963-16.428-12.861-3.5813-1.008-7.7674-2.3374-9.302-2.9545-1.5349-0.61697-7.1863-1.341-12.559-1.609-12.372-0.61719-51.675 2.1273-63.077 4.4044-14.506 2.8972-27.152 9.9904-32.673 18.325-3.3139 5.0032-3.4344 5.5974-1.2313 6.0742 1.004 0.21727 3.8434-1.6932 7.4079-4.9844 13.13-12.123 25.248-14.89 64.92-14.826 35.211 0.0577 49.132 0.99651 54.259 3.6596 5.4265 2.8186 6.466 5.7392 7.1984 20.226 1.2718 25.156-5.5532 48.923-17.36 60.451-3.3238 3.2455-3.4783 3.2936-6.148 1.9131-4.0232-2.0805-8.9358-7.92-11.927-14.177-2.4424-5.1096-2.6386-6.3691-2.761-17.725l-0.13173-12.225 4.7149-0.40061c5.726-0.48652 11.445-3.0684 12.123-5.4731 1.6293-5.7779 1.992-5.3783-3.6835-4.059-13.025 3.0278-21.439 3.5355-38.9 2.3472-9.3057-0.63325-20.249-1.5324-24.318-1.9981-4.8217-0.55185-7.7212-0.52362-8.3263 0.0811-0.61688 0.61689-0.16406 0.9357 1.3514 0.95141 2.6862 0.0278 23.96 4.1372 24.569 4.7458 0.22973 0.22974 0.006 3.3322-0.49537 6.8943-0.67051 4.7563-2.3484 9.4419-6.3168 17.64-8.1321 16.8-12.227 20.7-20.681 19.699-10.575-1.2577-25.095-12.339-30.453-23.242-2.7462-5.5891-6.6756-21.761-6.6756-27.484 0-1.5523-0.41863-3.0811-0.93027-3.3973-1.7357-1.0727-1.6175 19.817 0.15785 27.908 2.7828 12.682 11.474 24.459 22.315 30.237 5.3737 2.8642 13.423 5.5435 16.727 5.5675 0.83835 0.006 5.9694-2.9676 11.402-6.6083 11.483-7.6952 15.95-12.739 21.324-24.08 3.2689-6.8986 3.756-8.7758 3.8189-14.716l0.0721-6.8085 5.5816 0.59615c9.5081 1.0156 8.787-0.14128 8.5875 13.77-0.20103 14.05 0.71006 17.343 7.6081 27.501 3.974 5.852 7.8604 9.0333 12.178 9.9688 1.2792 0.27711 3.5816 1.0541 5.1165 1.7266 3.6034 1.5788 6.3218 0.28297 11.321-5.3968zm-21.091-52.214c4.2473-1.6356 5.9185-1.6115 2.3257 0.0336-1.535 0.70284-3.4188 1.2649-4.1862 1.2491-0.76744-0.0159 0.0697-0.59305 1.8605-1.2827zm-25.242-21.186c1.2102-0.30637 2.9313-0.1005 3.8248 0.45744 1.1739 0.73311 5.3368 0.72575 15.009-0.0265 7.362-0.57255 16.647-0.78463 20.633-0.4713 5.3308 0.41905 7.8939 0.22595 9.6934-0.73026 2.4105-1.2809 2.3725-1.3085-2.5958-1.885-2.7732-0.3218-7.9728-1.7287-11.554-3.1264-5.2791-2.0601-8.5369-2.6335-17.21-3.0284-8.6061-0.39181-11.207-0.84498-13.301-2.3174-2.1272-1.4962-3.0612-1.6504-5.1165-0.84468-1.3828 0.54205-7.5084 1.8576-13.613 2.9234-6.1044 1.0658-15.456 2.9673-20.781 4.2256-5.403 1.2726-12.525 2.2847-16.112 2.2847-3.6661 0-6.4294 0.39983-6.4294 0.93028 0 0.51165 0.31396 0.94315 0.6977 0.95893 0.38374 0.0157 10.633 0.25871 22.775 0.53993 12.143 0.28123 24.073 0.80985 26.513 1.1748 2.4392 0.36491 4.6443 0.39918 4.9001 0.0762 0.25582-0.32303 1.4552-0.83799 2.6654-1.1444zm-129.19-39.14c0-0.17653-0.94188-1.1184-2.0931-2.0931l-2.0931-1.7721 1.7721 2.0931c1.6654 1.967 2.4141 2.5166 2.4141 1.7721zm-4.6514-3.7211c0-0.17653-0.94188-1.1184-2.0931-2.0931l-2.0931-1.7721 1.7721 2.0931c1.6654 1.967 2.4141 2.5166 2.4141 1.7721zm-10.233-8.4022c0-0.19316-0.73259-0.92573-1.628-1.628-1.4755-1.1571-1.5084-1.1242-0.35124 0.35124 1.2153 1.5496 1.9792 2.0424 1.9792 1.2768zm194.2-10.807c8.5481-5.2116 9.6838-16.953 2.76-28.528-3.6587-6.1169-4.9554-6.4666-2.3786-0.64133 3.3046 7.4704 1.0708 16.784-4.649 19.385-1.7334 0.78798-2.0201 1.6792-2.0201 6.2793 0 6.1354 1.0313 6.7104 6.2878 3.5055zm-61.601-1.3132c1.4578-1.0659 1.5514-1.5233 0.55702-2.7215-0.65741-0.79214-2.074-1.57-3.148-1.7287-1.074-0.15863-2.1052-0.75226-2.2917-1.3192-0.49261-1.4981 8.7654-2.3684 17.471-1.6423 5.2725 0.43971 7.3743 0.31172 7.3743-0.44903 0-0.58522-0.73928-1.064-1.6428-1.064-0.90357 0-6.0317-2.5434-11.395-5.652-10.976-6.3611-15.288-7.3778-18.98-4.4745-3.4378 2.7042-4.1084 7.6892-1.5076 11.207 2.5353 3.4292 2.0348 4.0678-2.1148 2.6983-4.1481-1.369-6.1708-3.6753-6.84-7.7994-0.84387-5.2002 0.2424-7.6208 5.9779-13.318 4.0833-4.0567 4.573-4.7941 2.0828-3.1355-10.392 6.9211-14.062 14.551-11.093 23.066 1.7404 4.9927 7.17 7.2327 18.144 7.4853 3.5238 0.0811 6.3151-0.35265 7.407-1.1512zm39.421-27.508c5.0991-1.4624 7.5196-4.3563 7.5196-8.9901 0-2.1959-0.61693-5.3672-1.371-7.0474-1.4396-3.208-4.7411-20.552-7.9118-41.565-2.1801-14.447-2.1728-14.341-0.9436-13.582 1.6947 1.0473 2.0871-2.2667 1.223-10.328-0.67812-6.326-0.58901-8.3174 0.4379-9.7835 1.8378-2.6238 0.83464-4.2784-3.3549-5.5336-2.9191-0.8746-4.1676-0.83858-6.2598 0.18049-2.9709 1.447-4.1057 3.5987-1.8981 3.5987 1.2404 0 1.473 1.3955 1.473 8.8383 0 5.2321 1.1607 16.334 2.8448 27.21 3.2716 21.129 3.9739 24.668 6.4155 32.326 0.97871 3.0699 2.2972 8.007 2.9299 10.972 0.99956 4.6831 0.95855 5.5818-0.3123 6.8528-1.8672 1.8672-7.7384 2.9295-11.661 2.1099-3.9733-0.83032-4.6156 0.3954-1.3906 2.6536 4.514 3.1608 7.0241 3.5881 12.259 2.0866zm-32.329-41.701c-0.85667-11.469-8.0554-41.204-11.732-48.458-2.9231-5.7684-5.7251-7.7592-10.372-7.3686-5.2204 0.43849-5.2631 2.6186-0.0514 2.6186 4.4507 0 6.097 1.4439 8.7855 7.7056 1.3889 3.235 6.041 21.786 8.0993 32.296 2.0238 10.335 4.212 17.961 4.9437 17.229 0.32121-0.3212 0.46845-2.1314 0.32718-4.0226zm-77.838-37.784c3.0699-0.73877 8.9306-2.228 13.024-3.3093 4.0932-1.0813 11.282-2.2178 15.974-2.5254 4.6924-0.30764 9.0876-0.93273 9.7678-1.3891 1.9192-1.2881-8.327-10.202-16.757-14.579-12.383-6.4293-17.555-7.7317-32.707-8.234-12.515-0.41493-14.076-0.27367-21.622 1.9562-9.4984 2.8069-25.862 10.618-26.488 12.643-0.23808 0.77004-0.87661 2.3278-1.419 3.4615-0.71302 1.4904-0.68622 2.4228 0.0967 3.3662 1.9041 2.2943 17.1 8.0829 24.788 9.4419 8.9053 1.5746 27.122 1.1453 35.343-0.83293zm-3.8685-4.7506c3.2848-2.2906 8.0204-10.066 8.0457-13.211 0.01-1.2346 1.168-0.97552 6.9861 1.5633 2.0466 0.89306 5.7232 2.375 8.17 3.2933 4.671 1.7528 6.4769 3.2541 3.9143 3.2541-0.83285 0-5.7778 1.4117-10.989 3.1371-5.211 1.7254-11.776 3.4336-14.588 3.796l-5.1133 0.6589 3.5737-2.492zm-25.578-2.3961c-5.3676-3.2171-7.5144-10.83-3.6389-12.904 2.6528-1.4197 2.852-1.2643 2.852 2.2254 0 4.5726 3.4146 7.0445 9.7314 7.0445 5.7217 0 8.9194-2.5562 8.8034-7.037l-0.0708-2.7308-1.1124 3.0699c-0.61182 1.6884-1.7312 3.4612-2.4875 3.9394-2.2575 1.4276-7.0707 1.0154-9.3094-0.79714-2.074-1.6794-2.0773-1.7204-0.35713-4.4188 0.95498-1.498 2.1646-3.0312 2.688-3.4071 2.665-1.9138 20.575 0.53041 20.395 2.7831-0.0512 0.63596-0.15582 1.953-0.23257 2.9268-0.0768 0.9738-1.9187 3.7349-4.0932 6.1359l-3.9537 4.3654-7.9073 0.42096c-6.9301 0.36893-8.327 0.16918-11.307-1.6164zm-13.768-0.7667c-2.2788-0.92395-4.2878-2.1133-4.4644-2.643-0.34713-1.0414 4.5232-4.8758 6.1931-4.8758 0.56058 0 1.0208 0.73258 1.0227 1.628 0.001 0.89536 0.833 2.9885 1.8468 4.6514 2.1375 3.5056 1.4488 3.6913-4.5983 1.2396zm222.52 6.43c5.1012-2.0466 9.8088-3.7211 10.461-3.7211 0.65278 0 2.3235-1.4902 3.7127-3.3116 2.2389-2.9354 2.4023-3.6099 1.4383-5.9375-0.59823-1.4442-2.3422-3.8262-3.8755-5.2934s-3.4646-4.0916-4.2916-5.832c-1.6885-3.5533-7.5017-8.0092-14.018-10.746-8.5243-3.5798-29.187-1.8556-39.936 3.3325-4.9566 2.3922-13.249 10.034-11.625 10.712 2.3005 0.96123 1.0735 3.6907-4.0264 8.9559-2.8541 2.9466-5.0175 5.8743-4.8075 6.5061 0.22316 0.67148 2.4755 1.2677 5.4218 1.4354 2.7721 0.1577 12.785 1.8951 22.25 3.8608 23.112 4.7998 27.418 4.804 39.295 0.0387zm-23.267-1.4924c-0.81291-0.36859-0.41124-1.1418 1.2871-2.4778 2.6351-2.0727 6.8717-10.612 6.8717-13.851 0-1.7389 0.38231-1.8898 3.4885-1.377 9.7604 1.6112 16.977 6.0037 16.977 10.333 0 1.8115-1.0656 2.4582-7.6178 4.6238-7.2931 2.4104-18.514 3.8784-21.007 2.7482zm-18.207-4.5423c-7.3603-2.5526-9.913-4.5174-9.913-7.6505 0-1.7694 0.91859-2.6415 4.4188-4.1952 4.8826-2.1673 13.921-3.484 12.933-1.884-0.32776 0.53033 0.059 1.2155 0.85942 1.5227 0.8711 0.33427 1.3357 1.4004 1.1575 2.6557-0.38794 2.732-6.4166 4.4762-9.2834 2.6859-1.6314-1.0188-1.8302-0.95266-1.5515 0.51686 0.6364 3.3563 11.211 2.323 12.574-1.2287 0.32641-0.85064 0.14234-2.7417-0.40905-4.2025-0.91174-2.4155-0.79921-2.707 1.2432-3.2196 1.2352-0.31 3.2923-0.30098 4.5714 0.0201 5.225 1.3114 1.6612 10.943-5.5816 15.085-2.0466 1.1704-3.9304 2.1215-4.1862 2.1136-0.25582-0.008-3.3294-1.0063-6.8301-2.2187zm-15.495-4.1974c0-0.51164 0.41863-0.93026 0.93028-0.93026 0.51164 0 0.93026 0.41862 0.93026 0.93026 0 0.51165-0.41862 0.93028-0.93026 0.93028-0.51165 0-0.93028-0.41863-0.93028-0.93028zm60.933-12.5c-1.535-0.59879-4.8839-2.0868-7.4422-3.3068-4.2668-2.0347-5.728-2.2077-17.675-2.0929-11.959 0.11495-13.703 0.35983-21.321 2.9942-5.5068 1.9042-8.6084 2.5576-9.2231 1.9429-1.3297-1.3297 9.3905-6.1902 17.759-8.0524 10.492-2.3342 24.103-1.5371 31.549 1.8476 7.7942 3.543 13.385 9.4099 6.3534 6.6671zm-153.96 2.3071c0-2.9944-14.294-11.296-26.513-15.396-6.7487-2.2652-8.3955-2.4584-17.675-2.074-15.624 0.6473-29.785 4.8633-36.048 10.732-4.1829 3.9199-3.0002 4.723 2.8326 1.9234 7.1216-3.418 21.658-7.0284 33.474-8.3136 8.8286-0.96048 10.03-0.88755 16.266 0.98691 6.2352 1.8744 19.137 8.2206 23.478 11.549 2.1168 1.6229 4.1862 1.9161 4.1862 0.59302zm36.115-4.7403c6.8319-1.4661 8.5362-3.4978 8.5362-10.218 0-3.0499-0.40898-5.5454-0.90884-5.5454-1.21 0-3.4657 3.5728-4.2371 6.7111-0.65245 2.6543-1.3895 3.054-7.4127 4.0186-2.0466 0.32778-4.415 0.78463-5.2631 1.0153-1.7157 0.46655-2.9347 2.8469-2.1272 4.1536 0.69889 1.1308 5.7881 1.0706 11.41-0.13522zm50.212-0.13396c2.8154-2.8154 0.16604-6.6613-4.4975-6.5287-3.1008 0.0882-3.0622 0.21778-2.7783-9.3325 0.12277-4.1294-0.17041-6.2793-0.85629-6.2793-1.2631 0-1.3415 0.25383-3.2134 10.393-1.6172 8.7594-1.3421 10.739 1.6606 11.952 2.9269 1.1826 8.4134 1.0665 9.6852-0.20493zm-60.009-8.9336c5.1739-2.4805 6.023-3.904 2.3286-3.904-5.215 0-61.133-20.258-61.984-22.456-0.17117-0.44653-0.92283-0.80375-1.667-0.80375-0.74563 0-6.0482-1.9347-11.783-4.2994-11.26-4.6439-23.398-8.7222-25.943-8.7222-0.87141 0-1.8431-0.41863-2.1593-0.93028-2.0398-3.3004-13.903 2.9359-25.165 13.229-2.846 2.601-7.7652 6.6622-10.932 9.0251-5.0213 3.7464-9.0184 8.7572-7.8872 9.8884 0.20482 0.20481 1.953-0.47477 3.8849-1.5102 12.515-6.7077 34.307-10.493 48.33-8.3962 13.431 2.0087 25.873 4.7791 35.918 7.9974 12.181 3.9028 47.189 13.147 50.738 13.399 0.51165 0.0361 3.3554-1.0968 6.3193-2.5178zm-228.26-80.32c5.3101-5.6997 11.857-22.266 14.658-37.092 2.457-13.003 2.2932-58.111-0.25472-70.177l-1.7557-8.3144-0.0929 31.571c-0.10029 34.065-1.0125 43.943-5.4831 59.37-2.4452 8.4379-8.0271 21.357-9.6651 22.369-1.2695 0.78455-1.3875 4.2533-0.14476 4.2533 0.49173 0 1.7238-0.89067 2.738-1.9792zm-15.109-3.835c-0.25808-0.63956-0.46923-0.11628-0.46923 1.1628s0.21115 1.8024 0.46923 1.1628c0.25806-0.63956 0.25806-1.6861 0-2.3257zm3.7211-3.7211c-0.25806-0.63955-0.46921-0.11628-0.46921 1.1628s0.21115 1.8024 0.46921 1.1628c0.25807-0.63957 0.25807-1.6861 0-2.3257zm31.649-3.663c-0.29697-0.74211-0.5174-0.52167-0.56203 0.56205-0.0403 0.98065 0.17947 1.5301 0.48859 1.221 0.30912-0.30912 0.34217-1.1115 0.0734-1.783zm192.53-3.7806c-22.26-38.878-24.939-43.827-29.084-53.725-1.1781-2.814-2.1596-4.5702-2.1813-3.9027-0.0678 2.0949 5.4048 14.129 11.281 24.806 7.5322 13.686 21.211 36.774 21.788 36.774 0.25338 0-0.55808-1.7791-1.8032-3.9536zm-187.73-27.68c8.6396-24.343 11.857-40.115 10.818-53.025-0.92423-11.486-3.5936-16.713-7.8448-15.364-1.347 0.42755-1.868 1.3358-1.7785 3.1003 0.11131 2.1924 0.17567 2.2413 0.52984 0.40245 0.66389-3.4468 3.8474-2.6534 5.5988 1.3954 2.1803 5.0405 2.1276 22.506-0.0988 32.761-2.3257 10.713-7.7466 27.375-14.538 44.684-7.3633 18.767-7.4251 19.053-1.502 6.977 2.7604-5.6281 6.7274-15.047 8.8152-20.931zm263.01 20.449c-0.93659-8.2787-6.3571-27.186-10.645-37.133-5.1827-12.021-6.4211-12.659-1.8893-0.97284 4.9186 12.684 10.941 32.717 11.67 38.821 0.32086 2.6862 0.78917 4.8839 1.0406 4.8839 0.25147 0 0.17218-2.5194-0.1762-5.5986zm-158.97-36.44c-0.29696-0.74211-0.51741-0.52168-0.56204 0.56204-0.0403 0.98066 0.17948 1.5301 0.4886 1.221 0.30912-0.30912 0.34216-1.1115 0.0734-1.783zm221.7-16.656c0-1.5424-0.62792-4.0186-1.3954-5.5027-1.2414-2.4005-1.2407-2.785 0.006-3.4826 1.2105-0.67746 1.0296-1.8841-1.3287-8.8614-3.6399-10.768-7.3639-17.54-14.663-26.662-6.5853-8.2303-20.557-21.046-29.544-27.099l-5.6351-3.7955 4.1862 3.4935c13.913 11.611 25.268 25.786 33.402 41.695 3.8819 7.5932 7.1094 16.14 6.373 16.876-0.22889 0.22888-2.26-0.38684-4.5135-1.3683-2.2536-0.98148-8.3896-2.5248-13.636-3.4296l-9.5379-1.6452-2.6956-4.7762c-3.5223-6.2412-11.266-13.234-19.374-17.494-3.5759-1.8791-12.735-5.5518-20.354-8.1618-16.918-5.7956-33.177-13.59-38.626-18.518-2.3416-2.1173-3.4725-3.6834-2.6685-3.6956 0.76743-0.0116 9.7678 1.1884 20.001 2.6665 22.187 3.205 29.563 5.4166 35.597 10.675 2.9509 2.5711 3.749 3.0022 2.4496 1.3232-6.8661-8.8711-14.955-12.393-42.369-18.442-23.589-5.206-39.086-9.9688-45.912-14.112l-2.7908-1.6938 3.0783-0.0032c3.9168-0.0043 3.3472-0.84588-3.7925-5.6024-3.1887-2.1243-4.9604-3.6292-3.9371-3.3441 6.9168 1.9266 15.413 3.3857 24.652 4.2337 10.844 0.99517 27.645 1.3449 26.859 0.55917-0.23597-0.23598-8.1551-1.0883-17.598-1.894-26.26-2.2408-33.83-3.8716-42.088-9.0683-4.9859-3.137-7.25-2.6417-3.0968 0.67733 2.6618 2.1272 2.667 2.1514 0.69771 3.2053-2.9508 1.5792-2.6137 6.286 0.7809 10.902 4.7922 6.5164 13.521 11.382 27.757 15.473 6.3587 1.8272 8.0249 2.7058 9.3905 4.9507 2.4934 4.1 8.7423 9.7172 15.151 13.619 7.7004 4.6885 17.102 8.2013 33.989 12.701 21.174 5.641 28.099 8.5786 34.762 14.747 5.8906 5.4536 9.3317 10.485 7.1456 10.447-4.4834-0.076-24.421-5.5673-31.653-8.7178-1.9187-0.83591-3.4885-1.281-3.4885-0.98922 0 0.81084 12.915 6.5174 22.037 9.7366 4.4754 1.5796 13.72 4.303 20.543 6.0521 15.424 3.9534 20.905 6.7883 24.164 12.497 3.6643 6.4195 3.9085 6.6498 5.9146 5.5762 1.1312-0.59538 1.7638-1.9424 1.7638-3.7434zm-266.36-13.113c-0.29696-0.7421-0.51741-0.52167-0.56204 0.56205-0.0403 0.98065 0.17948 1.5301 0.4886 1.221 0.30911-0.30912 0.34217-1.1115 0.0734-1.783zm169.61-7.591c0-0.17654-0.94187-1.1184-2.0931-2.0931l-2.0931-1.7721 1.7721 2.0931c1.6596 1.9647 2.4113 2.5154 2.4113 1.7712zm-81.864-2.7164c-16.007-7.219-30.523-14.658-36.961-18.943-14.465-9.6242-23.48-20.772-23.498-29.055-0.009-3.9484 0.0582-4.039 2.5495-3.4602 1.8981 0.44087 2.1981 0.35055 1.1628-0.35005-2.7895-1.8876-4.5425-1.1036-5.1845 2.3188-0.94433 5.0339 3.8728 13.987 11.799 21.928 3.5182 3.5252 6.6319 6.4094 6.9193 6.4094 0.28746 0 3.0041 1.6851 6.0371 3.7448 6.5407 4.4417 19.398 11.029 30.009 15.375 7.0538 2.889 12.475 4.4261 7.1667 2.0318zm-37.211-14.06c0-0.19316-0.7326-0.92572-1.628-1.628-1.4755-1.1571-1.5084-1.1242-0.35123 0.35124 1.2153 1.5496 1.9792 2.0424 1.9792 1.2768zm-14.884-34.42c0-0.19318-0.7326-0.92574-1.628-1.628-1.4755-1.1571-1.5084-1.1242-0.35123 0.35124 1.2153 1.5496 1.9792 2.0424 1.9792 1.2768zm-108.17 512.3c-0.23934-0.41777-0.0909-5.1551 0.32982-10.528 1.8322-23.395 1.999-32.123 0.91732-48.006-2.3828-34.989-4.9675-55.929-9.1167-73.859-1.3616-5.8839-2.4253-11.744-2.3637-13.024 0.31743-6.591 0.27999-8.205-0.26971-11.628-0.57079-3.555-0.99532-3.9496-9.5081-8.8376-20.453-11.744-34.103-31.282-39.325-56.287-3.6162-17.317-3.7608-35.287-0.50875-63.236 1.1335-9.7418 1.8327-12.573 4.0945-16.58 2.4426-4.3281 4.9476-14.398 4.9047-19.717-0.50943-63.164 1.62-92.462 8.2883-114.01 3.5105-11.35 15.107-34.433 22.287-44.361 3.0525-4.2211 5.2984-7.6744 4.991-7.6744-1.602 0-9.3325 7.4734-11.745 11.355-3.7528 6.0369-5.2241 5.6899-1.7962-0.42369 2.8029-4.9988 9.8884-11.456 18.22-16.604 5.1256-3.1674 5.077-3.0419-2.759 7.1168-14.21 18.422-25.435 41.074-29.941 60.42-4.4766 19.22-5.6704 34.784-5.8153 75.821-0.12207 34.563-0.74689 41.014-4.6566 48.078-3.1262 5.6484-3.967 10.449-5.9993 34.251-1.5498 18.151-1.3846 24.211 1.065 39.071 2.7566 16.723 7.6223 28.871 16.208 40.467 7.5196 10.156 16.553 17.532 29.493 24.084 3.3407 1.6915 3.9536 2.4387 3.9536 4.82 0 1.55 0.63819 4.0523 1.4182 5.5606 1.2851 2.4851 1.2726 2.9647-0.13284 5.1097-1.469 2.242-1.4222 2.894 0.88555 12.328 4.7255 19.318 7.6811 43.162 9.9412 80.197 0.94336 15.46 0.88398 20.949-0.40159 37.149-0.82965 10.455-1.6689 19.169-1.8649 19.365-0.19604 0.19603-0.55225 0.0146-0.79163-0.40317zm-5.58-172.59c-6.816-2.2758-9.0735-3.5726-13.741-7.8946-9.6532-8.9366-22.908-31-28.332-47.157-3.6985-11.017-4.97-17.788-6.1338-32.664-1.2885-16.468-1.2161-20.3 0.48545-25.717l1.2728-4.0517 0.15995 3.256c0.1565 3.1859 0.19864 3.1459 1.9588-1.8605 2.8433-8.0874 2.9375-8.2191 3.6468-5.1165 0.56207 2.4587 0.71873 2.5694 1.3164 0.93028 1.4669-4.023 2.2225-4.6584 5.865-4.9314l3.736-0.28005 0.48632 4.9314c0.38018 3.855-0.20361 7.3386-2.6746 15.96-4.1631 14.525-5.279 22.237-4.8591 33.581 0.29967 8.0948 0.68187 9.9405 2.8058 13.545 2.8966 4.9165 8.7431 11.819 9.4396 11.144 0.26771-0.25925-0.80085-3.6083-2.3746-7.4422-2.5079-6.11-2.8708-8.1194-2.9382-16.274-0.0881-10.65 1.5894-17.194 8.2102-32.027 2.1858-4.8974 4.269-10.122 4.6292-11.611 0.63468-2.6231 0.79929-2.4656 5.347 5.1165 2.5807 4.3026 6.8796 10.544 9.5528 13.87 2.6735 3.3258 6.4006 8.0703 8.2824 10.544l3.4215 4.4974-1.8662 2.3725c-1.027 1.3024-1.868 3.1183-1.868 4.0337 0 0.91301-0.67719 4.3034-1.5049 7.5344-2.3485 9.1673-1.4193 14.948 3.9723 24.714 4.9056 8.8852 6.0995 11.424 5.3728 11.424-1.3575 0-8.0212-4.1243-12.782-7.911-8.9142-7.09-14.33-17.669-15.261-29.811-0.54573-7.1126 0.15709-9.2558 5.4169-16.516 5.3871-7.4367 2.223-8.6188-4.1365-1.5454-5.4016 6.0078-6.5933 9.6636-5.8776 18.031 1.2697 14.843 6.8414 24.543 19.716 34.32 4.5875 3.484 10.098 8.016 12.247 10.071 2.7078 2.5904 4.5628 3.6437 6.0468 3.4332 1.9781-0.28044 2.1197-0.69228 1.8643-5.42-0.21075-3.9004-1.3694-7.3276-4.8747-14.419-5.9981-12.134-6.2095-13.488-3.4255-21.92 1.2564-3.8052 2.5661-8.1068 2.9106-9.5587 0.53106-2.239 0.84187-2.4614 2.0447-1.4631 0.78009 0.64744 2.0366 2.3726 2.7921 3.8336 0.75553 1.461 1.7065 2.4508 2.1131 2.1994 0.40672-0.25136 2.2794 1.12 4.1615 3.0475l3.4221 3.5045 0.59946 28.058c0.57842 27.074 0.5371 28.079-1.1778 28.659-0.97746 0.3304-4.4406 1.8082-7.696 3.284-7.3483 3.3315-11.043 3.2801-21.773-0.30258zm24.162-70.852c-3.6788-5.0104-4.4957-6.9183-5.2775-12.326-0.50869-3.519-0.93318-8.8562-0.94329-11.861-0.016-4.7516 0.16327-5.3121 1.377-4.3048 0.76743 0.63695 1.4069 2.258 1.421 3.6025 0.0177 1.6868 1.0061 3.1651 3.1897 4.77 2.5899 1.9036 3.2787 3.1448 3.7958 6.8393 1.1301 8.074 1.9081 19.208 1.3423 19.208-0.30377 0-2.511-2.6676-4.9049-5.9279zm-64.847-57.21c0-1.9722 3.0662-3.855 6.2812-3.855 3.989 0 14.185 2.7164 14.185 3.7806 0 0.7405-2.3861 0.17511-8.1633-1.9343-3.5279-1.2882-8.81-0.55265-10.877 1.5145-0.78395 0.78396-1.4253 1.0067-1.4253 0.49504zm6.5119-11.652c0-0.2318 0.97507-2.4443 2.1669-4.9167s2.6286-5.5418 3.193-6.8209c1.0156-2.3019 1.0268-2.2945 1.0891 0.72758 0.0838 4.0591-2.1067 9.1077-4.5097 10.394-1.0666 0.57084-1.9393 0.84826-1.9393 0.61645zm387.92-3.79c0-1.1263 4.0063-10.24 5.13-11.669 1.4491-1.8438 3.8604-11.2 4.6366-17.99 0.34145-2.9873 1.1265-6.892 1.7445-8.6768 1.0755-3.1064 1.1717-2.8135 2.244 6.8294 0.61616 5.5413 1.9595 13.103 2.9854 16.805 2.1564 7.7815 2.3319 10.807 0.70218 12.1-0.63956 0.50763-3.8839 1.2125-7.2096 1.5663-3.3258 0.35382-6.9886 0.87237-8.1402 1.1524-1.1512 0.27996-2.0931 0.22727-2.0931-0.11708zm-373.79-21.44c0.019-1.535 0.22744-2.0502 0.46331-1.1451 0.23586 0.90512 0.22035 2.161-0.0345 2.7908-0.25482 0.62982-0.44779-0.11072-0.42884-1.6457zm251.07-41.01c0.0446-1.0837 0.26506-1.3042 0.56203-0.56204 0.26872 0.67153 0.23568 1.4739-0.0734 1.783-0.30912 0.30911-0.52899-0.24033-0.4886-1.221zm-67.72-48.024c-1.6534-2.0692-4.1428-7.4012-3.6743-7.8693 0.62111-0.6211 5.6203 2.0546 7.0441 3.7701 0.64455 0.77666 1.0278 2.1599 0.85182 3.074-0.39354 2.0436-2.9181 2.6569-4.2216 1.0255zm-204.51-33.57c-0.7208-1.8784 1.9736-8.5585 5.81-14.405 5.5174-8.4082 41.125-43.4 50.596-49.72 15.021-10.025 38.439-19.845 53.095-22.266l6.5455-1.081-0.55324-2.7663c-2.0302-10.15 9.6986-21.305 26.592-25.287 6.4909-1.5302 34.236-1.8905 37.513-0.48702 1.1245 0.48162-4.5795 0.78664-14.419 0.77101-22.996-0.03647-32.757 2.6036-42.364 11.458-4.7486 4.3771-6.4373 8.6619-5.6038 14.22l0.59684 3.9802-5.7444 0.6004c-6.8907 0.72023-24.236 6.3926-35.542 11.623-16.425 7.5992-25.506 14.538-46.305 35.38-10.528 10.551-20.499 21.184-22.157 23.629-3.5604 5.2519-7.8612 14.625-6.71 14.625 0.44313 0 1.3103-1.2183 1.9271-2.7072 1.2646-3.0529 13.877-16.926 13.944-15.338 0.0242 0.56367-2.5086 3.9126-5.6286 7.4422-3.12 3.5295-6.2704 7.5687-7.0009 8.9753-1.3953 2.6873-3.8073 3.3985-4.5918 1.354zm273.09-5.5444c-3.3258-2.0789-12.954-6.8833-21.396-10.677-14.515-6.5218-33.769-16.122-33.259-16.584 0.80949-0.73283 20.531 2.2844 21.116 3.2305 1.1663 1.887 6.8362 0.84156 7.9825-1.472 0.96792-1.9537 1.2007-1.8497 7.5032 3.3514 7.3818 6.0918 26.746 26.755 24.385 26.019-0.15692-0.0488-3.0063-1.7898-6.3321-3.8687zm-46.514-30.328c-7.2114-1.9275-26.978-10.218-26.978-11.312 0-0.86448 3.7065-1.7787 7.9073-1.9506 3.8272-0.1565 18.754 7.4868 22.742 11.645 1.7632 1.8386 3.0191 3.3187 2.7908 3.2892-0.22828-0.0295-3.1361-0.7821-6.4618-1.6725zm-99.36-49.191c-2.2297-0.27503-3.312-1.0148-3.9536-2.7025-2.4365-6.4085 0.59411-11.767 9.3511-16.533l4.7807-2.602-3.3215 4.3514c-3.9486 5.1729-4.6241 7.4429-4.0362 13.561 0.24316 2.5305 0.39889 4.5339 0.34608 4.4521-0.0529-0.08184-1.4776-0.31928-3.1662-0.52755z"/>
</svg>
