<?xml version="1.0" encoding="UTF-8" standalone="no"?>
<!-- Created with Inkscape (http://www.inkscape.org/) -->
<svg id="svg3336" xmlns:rdf="http://www.w3.org/1999/02/22-rdf-syntax-ns#" xmlns="http://www.w3.org/2000/svg" height="1062.5" viewBox="0 0 1062.5 1062.5" width="1062.5" version="1.1" xmlns:cc="http://creativecommons.org/ns#" xmlns:dc="http://purl.org/dc/elements/1.1/">
 <metadata id="metadata3342">
  <rdf:RDF>
   <cc:Work rdf:about="">
    <dc:format>image/svg+xml</dc:format>
    <dc:type rdf:resource="http://purl.org/dc/dcmitype/StillImage"/>
    <dc:title/>
   </cc:Work>
  </rdf:RDF>
 </metadata>
 <path id="path3346" fill="#fff" d="m636.78 968.1c-4.3129-10.322-10.592-36.824-12.589-53.136l-2.1272-17.375-5.7214-0.78727c-11.15-1.53-22.06-4.41-28.84-7.6-36.82-17.33-99.46-49.51-110.62-56.84-7.5625-4.9623-18.367-12.044-24.011-15.737-5.6436-3.6928-13.378-9.5629-17.188-13.045-3.8096-3.4817-6.9248-6.1333-6.9227-5.8924 0.002 0.24087 1.1271 6.2235 2.5 13.295 2.7584 14.207 2.968 16.518 1.498 16.518-0.549 0-2.2696-6.9566-3.8236-15.459-1.554-8.5025-3.173-16.799-3.5979-18.438-0.61555-2.3736 1.0906-1.3285 8.4022 5.1466 5.046 4.4688 19.63 15.05 32.409 23.514 19.067 12.629 31.417 19.467 68.859 38.125 62.001 30.896 61.812 30.818 83.125 34.242 6.0134 0.966 6.2642 1.1694 6.6241 5.3738 1.7435 20.364 10.672 61.821 14.945 69.389 0.51202 0.90695 1.0655-15.32 1.23-36.06 0.26084-32.889 0.55464-37.897 2.2982-39.178 1.0995-0.80783 5.9921-2.1824 10.872-3.0545 6.1389-1.0971 10.766-2.8594 15.015-5.7187 3.3779-2.2731 6.8444-4.133 7.7034-4.133 6.0687 0 20.668-17.095 30.079-35.22 4.9633-9.5597 7.8368-16.423 19.272-46.03 1.4604-3.7812 3.5054-8.8438 4.5444-11.25l1.8891-4.375 8.389 0.27367c4.6139 0.15052 10.265-0.3309 12.559-1.0698 5.6116-1.8081 12.269-7.8484 15.524-14.086 3.5358-6.7752 4.439-26.294 1.7984-38.868l-1.8376-8.75 3.7369-8.125c9.212-20.029 15.499-44.567 16.752-65.384 0.69154-11.485-1.7548-47.455-5.0594-74.391-1.6574-13.51-1.619-14.496 0.84913-21.805 1.4218-4.2101 5.8047-13.948 9.7399-21.639 3.9352-7.6914 8.3558-17.455 9.8236-21.696 3.7478-10.83 5.3759-29.13 5.1786-58.211-0.0933-13.75 0.19749-32.211 0.64617-41.025 1.2981-25.499-3.0162-48.454-15.114-80.417-12.41-32.77-20.69-47.94-38.97-71.41-10.05-12.89-34.45-37.51-47.45-47.87-38.74-30.89-90.37-54-139.17-62.32-29.166-4.9703-72.098-4.7643-108.28 0.5197-10.838 1.5825-12.048 2.0857-24.14 10.034-10.722 7.0472-14.554 8.819-24.285 11.229-24.27 6.0098-49.608 18.786-64.133 32.338-18.931 17.664-38.774 44.358-50.766 68.297-5.7632 11.504-14.627 35.81-17.298 47.435-5.4691 23.8-6.3436 58.783-2.3925 95.712 3.8995 36.447 5.9136 46.075 11.586 55.382 2.1349 3.5031 2.2998 4.6638 1.0516 7.4033-0.81416 1.7869-2.7912 8.6362-4.3934 15.221-1.6022 6.5844-3.8741 15.255-5.0488 19.268-2.5487 8.7072-2.126 21.885 1.3696 42.704 2.7943 16.642 2.865 22.99 0.60527 54.375-1.3012 18.073-1.5405 35.848-0.92542 68.75 1.0672 57.086 2.979 113.17 4.0483 118.75 0.67724 3.5369 0.52942 4.0864-0.77165 2.8684-2.2976-2.1508-3.2747-19.41-5.0616-89.405-1.5496-60.698-1.191-90.051 1.4624-119.71 1.288-14.398 1.1684-16.999-1.5236-33.125-1.6709-10.009-2.9325-22.851-2.9474-30-0.0263-12.622 0.44094-14.901 9.3061-45.38l2.2919-7.8796-3.0917-5.5316c-4.2825-7.6622-7.3633-23.981-10.486-55.541-3.1213-31.549-2.8607-66.767 0.63379-85.668 5.0047-27.07 20.983-64.383 37.289-87.08 10.774-14.996 28.713-35.181 38.339-43.138 12.119-10.018 39.59-23.211 57.895-27.804 8.3104-2.0852 16.191-4.8479 18.125-6.354 1.8818-1.4656 7.3997-5.1463 12.262-8.1795 7.9105-4.9347 10.212-5.7091 21.875-7.3614 47.765-6.767 94.352-5.2202 130.71 4.3399 40.101 10.545 79.591 29.211 110.15 52.064 12.719 9.512 43.181 39.326 54.676 53.513 17.729 21.88 27.962 40.405 39.359 71.25 8.6634 23.449 10.734 30.786 13.78 48.822 2.2822 13.514 2.5909 18.828 1.9186 33.017-0.44069 9.3012-0.72517 27.317-0.6322 40.036 0.31801 43.501-3.3098 64.174-14.073 80.198-1.2276 1.8274-4.7142 9.4991-7.7481 17.048l-5.5162 13.726 1.7191 14.202c4.0545 33.495 5.7846 64.884 4.4078 79.971-1.6737 18.341-7.0521 39.786-14.106 56.246l-5.4732 12.771 1.5948 7.607c2.1553 10.281 2.0568 27.648-0.19998 35.247-4.09 13.64-15.36 21.73-30.31 21.73h-8.8264l-2.6539 6.1692c-1.4597 3.3931-2.6539 6.5177-2.6539 6.9436 0 0.42589-1.1395 3.2758-2.5323 6.3331s-4.1539 9.9568-6.1359 15.332c-7.574 20.542-16.705 37.412-26.606 49.153-4.9034 5.8151-13.37 12.319-16.037 12.319-0.75024 0-3.9179 1.7571-7.0392 3.9046-3.912 2.6916-8.8363 4.5362-15.85 5.9375l-10.175 2.0329-0.92366 18.75c-0.84327 17.118-1.1516 46.762-0.56525 54.336 0.40492 5.2304-3.8391 4.8051-6.1023-0.61146zm-278.93-73.98c-0.44926-1.1708 0.4294-13.686 1.9526-27.812s2.7404-30.465 2.705-36.309c-0.092-15.187-6.1573-88.022-7.2399-86.939-0.29283 0.29282-1.0379 5.0505-1.6557 10.573-1.677 14.99-5.1855 23.206-13.477 31.559-5.9309 5.9755-7.9313 7.2046-12.944 7.9532-3.261 0.48698-7.9773 0.5012-10.481 0.0316-6.0704-1.1388-16.597-11.168-20.525-19.555-2.7457-5.8622-3.0984-6.18-3.8565-3.4748-0.45894 1.6376-0.89052 8.4287-0.95904 15.091-0.0685 6.6626-0.6871 12.461-1.3746 12.886-1.482 0.91592-1.5688-4.8323-0.43121-28.552 0.45033-9.39 1.2941-17.073 1.875-17.073 0.58091 0 1.0562 1.0369 1.0562 2.3043 0 4.33 5.0664 17.062 9.3746 23.559 13.907 20.972 37.346 15.389 46.461-11.068 4.9126-14.259 4.6565-41.319-0.58646-61.964-1.9953-7.8571-2.0374-8.8095-0.3303-7.4799 3.195 2.4884 3.6442 3.5424 6.243 14.649 3.6949 15.79 11.333 96.624 11.337 119.98 0.00083 5.1432-1.1715 19.768-2.6052 32.5s-2.3128 24.977-1.9536 27.211c0.68191 4.2416-1.1683 5.6257-2.585 1.9339zm-3.2206-161.92c-0.29898-1.5549-0.55497-0.57708-0.56885 2.1729-0.0139 2.75 0.23077 4.0222 0.54363 2.8271s0.32421-3.4451 0.0252-5zm7.4692 161.92c-0.35592-0.57586 0.44938-6.3789 1.7896-12.896 8.4536-41.107 11.875-75.698 10.506-106.22-1.7398-38.803-7.1206-85.179-11.82-101.88-5.8681-20.847-7.9303-27.538-8.6679-28.125-1.7033-1.3545-0.59742-5.037 2.514-8.3712 1.7983-1.9271 3.9663-4.8547 4.8178-6.5058 1.3539-2.6254 1.291-2.9034-0.5012-2.2156-1.6908 0.64881-1.8256 0.36828-0.77042-1.6033 1.5464-2.8894 1.661-13.766 0.16984-16.119-0.83901-1.324-1.5114-1.0608-3.1059 1.2156-1.1193 1.598-2.035 2.499-2.035 2.0023 0-0.49673-2.25 1.3469-5 4.0969s-5.4495 5-5.9989 5c-0.54939 0-1.7224-2.0007-2.6066-4.4461-3.124-8.6394-14.365-10.125-17.901-2.3659-1.0968 2.4073-1.1208 4.1778-0.0933 6.9001 1.744 4.6203 0.9654 4.752-1.3265 0.22439-3.3674-6.6523-3.5633-12.262-0.75154-21.519 1.6575-5.4568 3.1787-8.4765 4.0112-7.962 0.85927 0.53106 1.0392 0.0422 0.50087-1.3606-0.95509-2.489 3.8358-19.471 5.4931-19.471 3.1629 0 5.4226 10.329 3.82 17.462-0.62023 2.7605-0.66926 4.7357-0.109 4.3894 0.56034-0.34629 1.388-2.3107 1.8393-4.3653 0.45126-2.0546 1.3715-3.7357 2.0449-3.7357 0.67345 0 0.9162-0.49876 0.53945-1.1084-0.37677-0.6096 0.15255-1.8035 1.1762-2.6531 1.0237-0.84957 1.9008-3.3039 1.9491-5.4541 0.0484-2.1502 0.50889-4.9832 1.0235-6.2955 0.85821-2.1886 1.1462-2.0851 3.4799 1.25 1.3993 1.9998 3.0343 5.3236 3.6333 7.386 1.0268 3.5356 1.113 3.4024 1.5066-2.33 0.24898-3.6258-0.45391-8.5033-1.7413-12.084-2.0675-5.7494-2.0595-6.2592 0.1893-12.045l2.3481-6.0415 0.92621 5.625c0.50943 3.0938 1.7672 10.969 2.795 17.501 2.3039 14.642 9.6006 36.874 12.102 36.874 1.4573 0 1.7912-3.6876 1.8674-20.625 0.073-16.203 0.67311-23.305 2.7993-33.125 3.1168-14.396 5.2384-22.296 5.8219-21.68 0.22377 0.23633-0.0881 11.68-0.6931 25.43-2.1402 48.642 2.8252 97.466 14.566 143.22 3.9952 15.57 9.3219 42.911 9.2356 47.404-0.0511 2.6618-3.5984-3.8309-3.6531-6.6864-0.0244-1.2713-6.1692-20.678-13.655-43.125-7.486-22.447-14.589-45.032-15.785-50.189-1.1956-5.1562-2.6644-9.9094-3.264-10.562-2.8577-3.1125 0.0891 40.882 4.5022 67.214 3.9382 23.499 7.3088 34.886 11.653 39.365 1.8589 1.917 5.4067 6.5505 7.884 10.297 4.4437 6.7198 16.294 20.389 23.502 27.11 2.9292 2.7312 4.5207 6.4013 7.6307 17.597 2.1612 7.7801 5.0114 17.29 6.3336 21.133 2.8642 8.3248 3.0204 10.267 0.62757 7.8015-0.97707-1.0067-3.5379-8.0179-5.6906-15.58-6.3164-22.189-8.8893-29.375-10.517-29.375-1.7918 0-18.724-19.354-24.006-27.44-1.9993-3.0605-5.4631-7.4011-7.6975-9.6458s-4.0625-5.0375-4.0625-6.2063-0.31243-1.8126-0.69429-1.4307c-0.38186 0.38186-0.0864 12.012 0.65675 25.844 2.1416 39.866-1.6642 83.332-10.713 122.35-2.091 9.0163-2.4008 9.7594-3.3963 8.1486zm265.4-9.89c-11.432-0.68456-23.523-3.0719-25.084-4.9527-0.80969-0.9756-2.7232-1.7738-4.2523-1.7738s-4.7027-1.8671-7.0524-4.1491c-6.9251-6.7256-19.153-12.768-45.602-22.535-27.656-10.212-51.633-20.77-64.884-28.569-20.298-11.947-38.186-25.18-48.374-35.787l-10.408-10.835-9.6032-40c-10.06-41.85-11.62-52.11-13.06-85.62-1.4935-34.815 9.6382-160.83 14.761-167.1 0.66131-0.80888 4.9647-2.9877 9.563-4.8418 11.539-4.6527 34.656-5.67 53.941-2.3737l13.17 2.2511 16.25 10.91c31.099 20.88 65.226 36.881 75.958 35.614 9.9583-1.1758 14.334-11.161 7.7684-17.727-1.7319-1.7319-2.853-3.6276-2.4914-4.2127 0.74979-1.2132-13.67-6.154-29.36-10.06-17.353-4.3199-40.753-11.028-58.75-16.842-24.243-7.8318-25.994-8.1868-40.895-8.2911-12.086-0.0846-14.561 0.30334-23.935 3.7514-5.7501 2.1152-12.922 5.2916-15.938 7.0588-3.0155 1.7672-5.4827 2.8828-5.4827 2.4792 0-3.3334 13.383-52.96 20.104-74.552 4.5103-14.488 5.2055-15.875 8.3455-16.648 10.024-2.467 21.148-12.47 48.011-43.172 21.478-24.548 34.903-37.512 43.186-41.701 3.5865-1.8142 6.9742-3.2985 7.5282-3.2985 0.55401 0 2.0844 2.0001 3.4009 4.4447 3.6821 6.8372 18.066 19.639 28.32 25.206 9.1755 4.9812 23.946 11.236 58.605 24.816 45.209 17.714 72.408 33.602 99.375 58.047 5.5 4.9856 13.83 12.135 18.511 15.887 8.9765 7.1958 9.2753 7.6924 14.124 23.474l3.0724 10-0.69324-9.2598-0.69323-9.2598 4.8557 6.1348c2.6706 3.3741 5.7186 7.8223 6.7733 9.8848l1.9175 3.75-7.0587 0.0294c-11.717 0.0488-17.131 1.3804-27.324 6.7209-16.943 8.8775-56.991 26.479-63.355 27.846-6.8679 1.4748-16.514 9.2635-17.795 14.369-0.81576 3.2502 4.4066 12.111 7.9361 13.466 3.5909 1.378 42.964-21.969 50.26-29.802 1.6667-1.7895 3.463-3.2537 3.9917-3.2537 0.52874 0 3.8328-3.0362 7.3424-6.747 3.91-4.1343 8.885-7.8242 12.847-9.5287 7.5942-3.2669 22.921-5.5794 29.187-4.4038 5.7222 1.0735 11.216 6.4197 13.631 13.265 1.8499 5.2432 1.7724 6.0583-1.9507 20.5-2.1325 8.2717-4.5415 16.446-5.3534 18.165-1.5737 3.3316-13.296 10-17.579 10-2.1534 0-1.7947-0.77422 2.4116-5.2062l4.9412-5.2062-5.8476 3.3312c-5.34 3.03-9.79 4.27-9.79 2.72 0-0.3378 1.9688-3.1934 4.375-6.3457 5.4257-7.108 5.7151-9.9571 0.47973-4.7217l-3.8953 3.8953-7.0422-3.7414c-6.6283-3.5215-7.6444-3.7006-17.287-3.0474-16.941 1.1475-40.936 10.236-48.505 18.373-4.3665 4.6937-3.9464 4.6011 6.875-1.5155 4.4688-2.5259 11.703-5.7872 16.076-7.2475 9.7237-3.2468 23.193-4.7289 24.453-2.6906 1.0363 1.6768 1.0922 1.6566-14.604 5.2526-6.7099 1.5372-11.936 3.0588-11.614 3.3813 0.32247 0.32247-3.1876 2.3958-7.8002 4.6075-9.2518 4.436-21.8 15.124-24.841 21.159-1.0756 2.1342-3.3707 5.3936-5.1002 7.2432-5.1638 5.5221-3.3335 6.9631 7.0255 5.5313 6.4978-0.89809 11.559-0.78855 18.939 0.40986 15.322 2.4882 43.85 0.004 50.859-4.4284 1.5227-0.96289 3.8956-1.7507 5.2733-1.7507 1.7129 0 2.2773-0.59276 1.7852-1.875-0.46214-1.2043 0.0255-1.875 1.363-1.875 1.1454 0 1.7349-0.5625 1.31-1.25-0.46871-0.7584 1.3458-1.2583 4.6137-1.2711l5.3863-0.021-4.0625-2.6017c-4.5728-2.9285-4.9372-4.0506-2.0685-6.3694 1.0967-0.88649 3.3723-2.8774 5.0568-4.4243s3.3837-2.8125 3.776-2.8125c0.39226 0 3.5698-2.097 7.0612-4.6599 4.8989-3.5962 6.1303-4.0955 5.3942-2.1875-4.5284 11.738-6.9119 37.269-6.9988 74.972-0.067 29.023-1.6309 47.693-5.5913 66.747-4.4892 21.598-5.3696 25.008-12.78 49.503-7.0282 23.231-11.951 35.625-14.148 35.625-0.69498 0-1.2636 0.86245-1.2636 1.9166 0 6.1172-18.782 34.193-60.928 91.077-4.4215 5.9676-6.3166 9.5908-5.8256 11.138 1.0549 3.3237-7.8572 11.326-16.012 14.377-7.3277 2.7416-16.7 3.8492-27.234 3.2184zm15.31-71.11c7.3911 0 13.438-0.32102 13.438-0.71339-0.00049-0.39236-4.079-1.3315-9.0634-2.0869-8.7425-1.325-23.56-0.52039-30.871 1.6764-2.853 0.85733-2.8949 0.98607-0.625 1.9198 1.3382 0.55047 4.9643 0.59659 8.0581 0.10249 3.0938-0.49411 11.672-0.89837 19.063-0.89837zm-22.19-0.62c2.0625-0.52481 4.875-0.9647 6.25-0.97751 1.959-0.0182 1.8237 0.19328-0.625 0.97751-1.7188 0.55044-4.5312 0.99031-6.25 0.97751-2.807-0.0209-2.7434-0.12037 0.625-0.97751zm35.97-19.292c11.631-4.1048 20.083-9.8227 24.6-16.642 3.6784-5.5534 4.5751-7.8155 3.0979-7.8155-0.38878 0-5.5919 2.8898-11.562 6.4217-11.717 6.9314-18.218 8.4221-37.106 8.5086-12.381 0.0566-28.094-4.8189-48.136-14.936-4.07-2.07-7.99-3.75-8.69-3.75-2.6141 0-1.1651 3.6295 2.7768 6.9556 4.209 3.5515 20.315 11.794 23.046 11.794 0.85459 0 2.1243 1.066 2.8215 2.3688 0.69725 1.3028 5.3577 4.0974 10.356 6.2101 12.046 5.0912 25.98 5.4068 38.809 0.87909zm-12.52-34.77c0.41625-1.2368 0.9358-1.2242 2.4922 0.0601 1.6648 1.3738 2.6433 1.0282 6.3818-2.2543 5.96-5.24 10.26-6.25 26.49-6.25 9.0828 0 14.335-0.51423 15.321-1.5 1.8171-1.8171 1.9879-8.0509 0.25-9.125-0.6875-0.4249-1.25 0.36586-1.25 1.7572 0 2.7157-3.3713 5.1178-7.1828 5.1178-1.2909 0-3.5947-1.6875-5.1196-3.75s-3.74-3.7624-4.9226-3.7774c-3.3958-0.0434-13.088-4.8213-16.613-8.1901l-3.2131-3.0702-4.0333 5.0189c-5.3173 6.6166-10.356 6.9758-13.417 0.95639-2.651-5.2127-2.5448-5.1204-4.4775-3.8911-0.90511 0.5757-5.5832 2.2601-10.396 3.743-4.8125 1.483-15.219 5.0456-23.125 7.9168-15.305 5.5584-20.809 5.9879-36.625 2.8584-5.6916-1.1262-5.9805-1.0524-5.625 1.4366 0.26328 1.8436 1.304 2.6428 3.4997 2.6876 1.7188 0.0351 6.5 1.7147 10.625 3.7325l7.5 3.6686 27.64-0.32241c26.014-0.30343 27.816-0.17612 30.625 2.1634 3.5177 2.9296 4.468 3.1144 5.1774 1.0065zm12.881-62.739c1.3345-0.99082 3.576-1.5215 4.9811-1.1792 1.5826 0.38551 3.4236-0.33782 4.8382-1.9009l2.2835-2.5232 2.0368 2.5025c2.0216 2.4838 2.079 2.4757 7.6618-1.0782 9.9228-6.3167 15-11.93 15-16.585 0-4.7949-3.9381-13.586-7.5505-16.855-2.4719-2.237-2.4752-2.2166-0.53749 3.2723 2.9214 8.2752 1.8543 10.616-5.0018 10.971-5.3034 0.27454-5.6603 0.093-5.6603-2.8785 0-3.114-5.8389-21.725-7.3554-23.445-0.42519-0.48221-0.77228 5.9241-0.77132 14.236 0.001 13.389-0.26277 15.271-2.3176 16.502-1.2756 0.76384-4.3061 2.9357-6.7344 4.8263s-5.9563 3.4375-7.8401 3.4375c-4.327 0-6.526 2.6027-6.009 7.1119 0.34077 2.972 0.93231 3.4768 3.8403 3.2778 1.8906-0.12944 3.4375 0.29243 3.4375 0.9375 0 1.7439 2.9398 1.4196 5.6986-0.62868zm-28.63-7.58c2.4681-1.0312 6.1208-1.875 8.117-1.875h3.6294l-1.99-3.8482c-2.1858-4.2269-10.224-8.5793-15.927-8.6243-4.2413-0.0335-12.147 3.1234-12.147 4.8504 0 0.69049 1.447 2.2661 3.2155 3.5013 1.7686 1.2352 4.7217 3.4937 6.5625 5.0188 4.0357 3.3436 3.1251 3.2394 8.5398 0.977zm-22.666-4.8647c2.0215-1.4782 2.1284-2.042 0.71086-3.75-0.91761-1.1056-2.8651-2.0189-4.3278-2.0294-3.9914-0.0288-5.6616-1.554-6.5464-5.9783-0.77491-3.8746-0.57978-4.0988 6.3112-7.2536 3.911-1.7905 6.8207-3.5457 6.466-3.9004-1.3677-1.3677-10.762-0.41443-14.386 1.4598-5.0774 2.6256-6.7445 6.0785-5.757 11.924 0.86321 5.1093 3.1476 7.8753 8.1537 9.8727 4.3648 1.7415 6.6369 1.658 9.3757-0.34469zm23.774-30.967c-0.0517-6.6767-2.2924-9.5437-3.7845-4.8426-0.85476 2.6931 1.3875 11.299 2.9439 11.299 0.48985 0 0.8681-2.9055 0.84056-6.4566zm23.767-63.457c-2.17-15.59-2.65-46.33-0.71-46.33 2.0695 0 3.1537 6.3581 3.0446 17.854-0.12992 13.692 1.9228 12.667 2.89-1.4432 0.86255-12.584-1.9042-21.803-6.3534-21.168-2.1331 0.30408-2.8554 1.5343-3.5273 6.0074-2.1868 14.56-0.0571 43.578 4.2525 57.944 2.3855 7.9519 2.5576 2.5456 0.40919-12.858zm-28.736-6.6486c-1.8447-19.282-7.351-38.612-11.446-40.184-0.96774-0.37136-2.6648-0.3278-3.7713 0.0968-1.6309 0.62584-1.9085 2.1998-1.4662 8.3141 0.50667 7.0045 0.92003 7.8744 5.799 12.204 4.8608 4.3136 5.4567 5.5576 7.9737 16.647 1.4962 6.5916 2.9584 11.985 3.2493 11.985 0.29099 0 0.13892-4.0781-0.33795-9.0625zm-10.065-23.406c-1.1237-2.1729-1.8566-5.1783-1.6286-6.6787 0.30714-2.0218 0.97295-1.1361 2.5722 3.4216 2.5155 7.169 1.9998 8.949-0.94358 3.2571zm-40.861 9.4546c0.31607-2.685-0.71909-4.516-4.6875-8.291-2.8012-2.6648-5.0932-5.9081-5.0932-7.2075 0-6.3654-13.07-18.337-24.882-22.791-9.9129-3.7382-31.788-6.4766-48.213-6.0355-9.5248 0.25582-15.914-0.10775-17.444-0.99272-4.0057-2.3166 22.184-3.5497 39.915-1.8793 13.928 1.3121 32.86 5.4591 34.354 7.5253 0.35539 0.4915 3.5905 3.0259 7.1892 5.632 3.5986 2.6061 7.7151 6.3844 9.1476 8.3962s3.4992 3.6579 4.5926 3.6579c1.2264 0-1.0658-3.2324-5.9834-8.4375-5.7594-6.0962-10.584-9.7513-17.386-13.172-5.1778-2.6041-10.399-4.4847-11.603-4.1791-1.2106 0.30729-1.8541 0.0134-1.4394-0.65743 0.46575-0.75361-1.0725-0.91078-4.0608-0.4149-3.1232 0.51825-4.2276 0.38916-3.1486-0.36801 1.0408-0.73035-9.0044-0.98473-26.875-0.68054-43.337 0.73764-41.592 0.4801-36.662 5.4098 4.1248 4.1248 3.1286 5.1664-4.0625 4.2481-7.1967-0.91902-12.896-3.3118-13.778-5.7843-0.31174-0.87384-1.0273-1.1584-1.5902-0.63236-0.56287 0.52605 0.72949 3.4433 2.8719 6.4828l3.8953 5.5264-6.861 0.85721c-3.7735 0.47147-9.7564 0.57901-13.295 0.23896l-6.4343-0.61825 2.8907 2.3407c1.5899 1.2874 4.9378 2.4148 7.4397 2.5053l4.549 0.16455-4.375 0.77359-4.375 0.77357 6.25 2.6785c3.4375 1.4732 8.6781 3.0755 11.646 3.5608 3.989 0.6523 5.7502 1.6602 6.7552 3.8659 0.74766 1.6409 2.6882 3.8542 4.3123 4.9183l2.9529 1.9348-3.458 3.1468-3.458 3.1468 4.375-0.98094c2.4062-0.53951 6.6214-0.89748 9.367-0.79545 2.7456 0.102 5.3607-0.41114 5.8113-1.1403 0.88881-1.4381 4.8217-0.43505 4.8217 1.2298 0 0.56085-1.8053 2.0861-4.0117 3.3895-5.0502 2.9832-3.1917 3.7005 4.0657 1.5691 7.0316-2.0651 10.306-1.5042 9.322 1.5968-0.69699 2.196 0.88386 2.2763 37.256 1.8919 20.891-0.2208 39.898 0.047 42.238 0.59515 5.8067 1.3601 6.691 0.98993 7.1604-2.9976zm-62.27-4.91c0-0.92683-2.3714-2.7545-5.2699-4.0615-2.8984-1.307-7.1172-4.2237-9.375-6.4815-3.5845-3.5845-4.1051-4.9271-4.1051-10.586 0-5.4649 0.52042-6.9282 3.3194-9.3333 3.7499-3.2222 5.2909-3.3631 16.642-1.5214 11.057 1.7939 16.227 4.4666 18.317 9.4694 4.6821 11.206-0.52347 20.45-11.516 20.45-7.0337 0-6.7009 0.91039 0.87704 2.3988l5.4851 1.0773-7.1875 0.13695c-5.2634 0.10025-7.1875-0.31415-7.1875-1.5482zm8.1296-14.57c1.8898-2.0882 2.0258-3.0346 0.81713-5.6873-1.3423-2.946-1.9825-3.1544-8.6237-2.8074-8.0744 0.4219-9.6156 2.4528-6.0227 7.9363 2.6173 3.9945 10.434 4.3102 13.829 0.55846zm-12.65-1.7975c-1.5498-4.0388 0.47814-5.8617 6.0712-5.4574 4.7429 0.34292 5.3239 0.72599 5.3239 3.5099s-0.58105 3.167-5.3239 3.5099c-3.9202 0.28344-5.521-0.12853-6.0712-1.5625zm23.89 16.88c5.3464-2.1882 7.5-6.1924 7.5-13.945 0-4.0517 0.3347-7.3682 0.74376-7.3702 2.04-0.01 13.081 18.463 11.801 19.743-1.0647 1.0647-11.268 2.6443-16.92 2.6194-4.1376-0.0182-4.964-0.29535-3.125-1.048zm-37.5-2.2116c-1.375-0.33183-4.1875-1.3231-6.25-2.2027-2.0625-0.87968-6.4441-2.5667-9.7369-3.7489-8.3718-3.0058-13.698-7.6851-12.646-11.111 1.109-3.6144 1.576-3.9762 3.1283-2.4239 0.93771 0.93771 3.391 0.0862 8.3431-2.8958 3.8582-2.3233 7.4698-4.2241 8.0259-4.2241 0.55608 0 1.011 2.8404 1.011 6.3121 0 7.4556 2.4953 13.032 7.9278 17.717 2.171 1.8721 3.666 3.3538 3.3222 3.2925-0.34375-0.0612-1.75-0.38288-3.125-0.7147zm59.375 0.40207c0-0.2702 0.87296-0.82625 1.9399-1.2357 1.1124-0.42686 1.6141-0.21731 1.1762 0.49126-0.73408 1.1878-3.1162 1.7568-3.1162 0.74443zm-243.28 217.48c-8.1181-8.3815-11.597-18.261-12.585-35.74-0.53642-9.4918-0.13959-14.094 1.9773-22.933 3.893-16.254 5.0873-17.172 4.2615-3.276-0.54591 9.1859-0.21687 13.626 1.4359 19.375 2.3853 8.2974 8.4979 18.741 12.096 20.667 2.966 1.5873 3.0355 3.6668 0.12262 3.6668-3.6937 0-7.7881-3.6811-12.912-11.608-5.5663-8.6122-5.8215-8.538-2.3695 0.68815 2.587 6.9143 8.6212 13.791 13.349 15.212 4.8897 1.4701 11.256-2.3714 15.862-9.5711 6.2972-9.8442 9.6724-21.841 10.648-37.846l0.8379-13.75 1.6078 6.25c2.4294 9.4436 3.3472 39.497 1.4647 47.964-3.8305 17.228-13.388 27.661-25.339 27.661-3.0913 0-5.2818-1.4159-10.458-6.7599zm427.04-1.5027c0.0277-3.0225 7.4961-13.242 12.378-16.938 6.5544-4.9621 13.825-17.25 13.846-23.402 0.009-2.3251 1.2805-6.2626 2.8274-8.75l2.8125-4.5225 0.40159 3.5003c0.73135 6.3745-3.5944 31.333-6.5618 37.86-3.5634 7.8383-9.2551 11.665-18.817 12.652-3.7937 0.39154-6.893 0.21133-6.8874-0.40048zm-420.39-26.95c-5.9839-12.631-7.1028-17.417-7.1108-30.417l-0.007-11.255 12.353 0.005 12.353 0.005 0.76246 8.75c1.2467 14.308-4.2091 33.218-11.479 39.787-2.4991 2.2582-2.5856 2.1716-6.8714-6.875zm433.19 3.6505c1.0122-1.5469 3.6564-5.7656 5.876-9.375 4.2144-6.8533 5.0712-7.678 5.0712-4.8813 0 2.4853-9.7115 17.069-11.366 17.069-0.93711 0-0.7943-0.95776 0.41936-2.8125zm-460.94-47.68c0.34407-3.3616 0.67393-10.393 0.73302-15.625 0.0896-7.935 0.30617-8.891 1.3054-5.763 1.3032 4.0793 0.44233 18.056-1.4702 23.871-0.98787 3.0033-1.0859 2.5751-0.56822-2.4826zm24.828-16.839c1.2836-8.0275 5.8466-21.541 7.0272-20.812 1.3113 0.81042 8.7706 19.778 8.7706 22.303 0 1.1289-2.0486 2.0262-5.7995 2.5403-10.71 1.468-10.868 1.4047-9.9983-4.0312zm-12.004-4.2038c-1-3.01 8.59-45.97 10.27-45.97 0.51523 0 0.65196-1.4898 0.30387-3.3108-0.45586-2.3847-0.20872-3.0486 0.88357-2.3736 0.83403 0.51547 1.2145 1.7241 0.84546 2.6858-0.36905 0.96171-0.26676 1.7503 0.22727 1.7525 0.49405 0.002 0.88244 5.7678 0.86308 12.812-0.0346 12.583-0.13386 13.012-5.625 24.359-5.5255 11.418-6.7716 13.029-7.7664 10.045zm39.693-2.5325c-0.29185-0.85938-1.6044-6.0625-2.9168-11.562-1.3124-5.5-2.768-10.892-3.2348-11.981-0.49484-1.1554 0.11012-3.1656 1.4511-4.8216 2.2955-2.8348 2.3062-2.8144 5.7682 10.961 2.7207 10.826 3.1704 14.358 2.0859 16.384-1.5889 2.9689-2.4026 3.2323-3.1537 1.0208zm-45.72-14.69c-0.49385-5.2513 0.23266-10.417 2.0926-14.879 2.8822-6.9147 3.1226-3.8113 0.57855 7.4663-1.3075 5.796-2.5095 9.1319-2.6712 7.4132zm-4.8668-12.59c-0.0498-1.9524 12.09-44.47 17.819-62.41 11.448-35.845 34.751-97.009 50.481-132.5 9.5112-21.458 33.651-77.739 36.26-84.539 0.52531-1.3689 0.32798-1.8208-0.55644-1.2742-2.577 1.5927-12.874 21.948-23.94 47.325-6.0831 13.95-14.996 34.363-19.807 45.363-15.394 35.199-36.066 94.595-52.206 150-4.4059 15.125-8.0306 26.938-8.0547 26.25-0.0241-0.6875 0.83437-8.8438 1.9079-18.125 6.338-54.797 19.163-123.75 28.713-154.38 3.2158-10.312 8.2932-27.913 11.283-39.112 6.7393-25.243 13.451-42.255 29.94-75.888 13.373-27.278 21.049-40.505 30.609-52.746 7.3149-9.3662 31.048-32.723 40.625-39.982 8.3287-6.3122 25.397-15.229 35-18.284 9.0619-2.883 38.703-6.1695 47.022-5.2136 6.8918 0.79193 7.0727 0.91531 9.7353 6.6408 4.3122 9.2729 6.3366 18.792 6.3525 29.871l0.0149 10.287-5.3125 2.684c-12.663 6.3976-25.691 20.481-48.443 52.367-17.648 24.732-24.23 32.935-30.261 37.712l-5.137 4.0686 0.92436-3.7026c1.6102-6.4499 15.186-35.117 21.418-45.226 13.133-21.304 32.544-42.68 37.152-40.912 1.7541 0.6731 5.909-3.5227 5.909-5.9671 0-2.3012-7.5229-0.68162-12 2.5835-8.2769 6.0363-22.942 22.466-30.723 34.421-6.9657 10.701-22.653 40.846-30 57.649-13.871 31.723-23.308 63.5-34.052 114.66-6.1279 29.18-9.1388 62.984-9.6607 108.46-0.17695 15.419-0.34208 16.819-1.1061 9.375-2.4553-23.923-1.0619-100.97 2.577-142.5l1.3144-15 10.49-21.875c5.7694-12.031 15.303-33.267 21.185-47.19 5.8825-13.923 12.655-29.206 15.05-33.962 4.2459-8.4312 22.124-35.719 31.581-48.202l4.7186-6.2286-4.1229 2.9192c-5.66 4.0076-23.799 24.579-31.927 36.208-11.447 16.378-21.724 35.237-32.212 59.111-5.5498 12.633-17.562 38.438-26.694 57.344s-18.18 37.75-20.107 41.875c-2.7987 5.9922-3.6018 6.9346-3.9946 4.6875-0.58867-3.3676-2.2205-3.6246-3.9676-0.625-2.6058 4.4739-1.1851-1.0834 4.6703-18.268 3.3112-9.7181 5.8099-17.669 5.5525-17.669-0.98676 0-11.549 24.013-18.165 41.299-15.521 40.551-35.854 101.96-41.691 125.91-1.4544 5.968-3.2343 9.6915-6.1155 12.793-2.2352 2.4062-4.9499 6.0625-6.0326 8.125-1.0865 2.0698-1.9909 2.8695-2.0186 1.7848zm37.45-6.16c-1.5162-0.97984-1.3368-1.2154 0.9375-1.2309 1.5469-0.01 2.8125 0.54336 2.8125 1.2309 0 1.5662-1.3266 1.5662-3.75 0zm-9.3662-2.4857c-0.43793-0.70857 0.0639-0.91812 1.1762-0.49126 2.1655 0.83099 2.5617 1.727 0.7637 1.727-0.64692 0-1.5199-0.55606-1.9399-1.2357zm18.43-81.54c-2.84-3.03-3.7-5.97-1.75-5.97 1.9477 0 5.4175 4.7912 4.9908 6.8914-0.35697 1.7571-0.85575 1.6144-3.2346-0.92506zm337.19-2.22c1.5717-2.9368 2.9048-3.1495 4.8733-0.77768 1.1301 1.3617 0.83497 1.8816-1.4094 2.4829-4.4442 1.1907-4.895 0.9688-3.4638-1.7052zm-309.06-2.5c-0.46222-2.4062-1.2169-7.8906-1.6771-12.188-0.76587-7.1512-1.0875-7.8125-3.8002-7.8125-3.6322 0-3.7976-2.3525-0.46354-6.5911 1.375-1.748 2.5-4.0418 2.5-5.0974 0-2.0609 16.539-40.4 21.74-50.395 1.7289-3.3226 3.1696-5.0507 3.2016-3.8402 0.16081 6.0812-4.1725 26.742-7.9707 38.004-4.5399 13.461-9.7838 33.997-11.598 45.42-1.0738 6.7608-1.1059 6.8023-1.9323 2.5zm323.01 1.7489c-1.5714-1.1006-3.4256-3.4913-4.1206-5.3125-1.123-2.943-0.80139-3.6996 2.8914-6.8013l4.155-3.4899 0.625 4.7399c0.57868 4.3886 0.95425 4.7676 5.0666 5.1132 8.8657 0.74512 15.173-9.3121 8.6884-13.854-2.4424-1.7107-2.4262-1.7788 0.76863-3.2345 6.3497-2.8931 10.476 1.4814 10.476 11.106 0 3.6958-0.95206 5.982-3.8795 9.3162-3.7639 4.2869-4.1466 4.4185-12.847 4.4185-6.1991 0-9.8493-0.61775-11.824-2.0011zm29.401-1.4364c5.9902-6.3729 8.1392-14.982 5.4835-21.967-1.0505-2.763-0.79848-3.1404 2.5433-3.8088 2.4721-0.49442 6.3006 0.29589 11.479 2.3695 7.6999 3.0836 7.7721 3.1587 8.0935 8.4149 0.48444 7.9226-2.9796 11.28-15.701 15.217-5.71 1.76-11.45 3.21-12.75 3.21-2.127 0-2.0375-0.3599 0.85526-3.4375zm-23.132-6.8436c-1.6096-1.6096-1.89-4.667-0.71014-7.7416 0.8964-2.336 6.8182-2.6503 8.9913-0.47724 1.6575 1.6575 2.0368 6.8013 0.5625 7.6284-2.7903 1.5654-7.5509 1.8832-8.8436 0.59047zm4.4426-7.9741c-0.41536-0.41536-1.4935-0.45977-2.3958-0.0986-0.99717 0.39903-0.70098 0.69523 0.75521 0.7552 1.3177 0.0543 2.056-0.24116 1.6406-0.65652zm-357.01 2.2873c-2.3499-4.3909-1.6368-8.9328 1.92-12.229 1.8265-1.6928 3.5774-2.8212 3.8909-2.5078 0.66086 0.66088-2.0827 12.983-3.4717 15.592-0.74377 1.3972-1.2284 1.22-2.3391-0.85533zm-49.95-19.04c0-1.7188 0.28373-2.4219 0.63049-1.5625 0.34676 0.85937 0.34676 2.2656 0 3.125-0.34676 0.85937-0.63049 0.15625-0.63049-1.5625zm56.675-3.7537c-0.90688-1.4674 0.48693-12.28 1.9296-14.969 0.78072-1.4552 1.3164-1.1343 2.5215 1.5106 1.2133 2.663 1.201 4.5338-0.0592 9.0353-1.5639 5.5857-2.8641 6.8952-4.3918 4.4232zm385.27-1.387c0.98684-0.98683 2.4205-1.0155 4.9375-0.0986 3.5075 1.2776 3.4921 1.293-1.3906 1.3906-3.6245 0.0725-4.5677-0.27111-3.5469-1.2919zm-438.91-7.7287c0.38136-3.2969 1.4854-8.0781 2.4535-10.625l1.7601-4.6306-0.761 4.8297c-0.41855 2.6564-1.5226 7.4376-2.4535 10.625l-1.6925 5.7953 0.69339-5.9944zm500.1-17.974c-0.3563-1.2549-1.0339-4.813-1.5058-7.9067-1.3266-8.6981-6.6767-24.743-11.347-34.031-2.325-4.6235-4.2272-9.2172-4.2272-10.208 0-0.99112-0.5146-1.9895-1.1436-2.2187-3.1882-1.1617-24.035-25.727-31.116-36.667-10.976-16.956-17.359-25.074-30.649-38.975-26.01-27.21-50.31-43.27-113.34-74.94-45.76-22.99-56.25-31.61-56.25-46.2 0-4.0622 0.22346-4.3827 2.0174-2.8939 1.1096 0.92086 3.709 4.6716 5.7764 8.335 2.0675 3.6634 4.0051 6.4146 4.3058 6.1139 0.92861-0.9286-3.0076-9.2529-7.7628-16.417-2.4917-3.754-4.1724-7.4047-3.7349-8.1127 0.43758-0.70799 0.0481-1.2873-0.86537-1.2873-0.91354 0-6.9825-5.3438-13.487-11.875-6.5-6.53-11.31-11.87-10.69-11.87 0.62682 0 5.397 1.6784 10.6 3.7297 5.2034 2.0513 16.211 6.0045 24.461 8.7849 49.361 16.635 83.633 33.712 128.12 63.842 50.075 33.91 76.849 74.695 88.762 135.21 0.77825 3.9531 1.6818 7.1875 2.008 7.1875 1.8638 0-7.3732-37.672-12.255-49.981-11.26-28.42-23.72-46.77-47.03-69.27-12.77-12.33-23.23-20.36-48.98-37.61-40.01-26.81-62.23-37.57-113.13-54.79-46.95-15.884-47.425-16.454-12.923-15.512 25.916 0.70699 36.835 2.6387 62.129 10.992 14.815 4.8926 39.445 15.463 49.686 21.324 10.317 5.9046 40.302 25.635 49.327 32.458 18.492 13.98 36.614 32.133 46.339 46.416 6.9638 10.229 7.2752 12.377 0.93598 6.4568-4.9284-4.6023-18.753-14.762-23.619-17.358-1.0312-0.5501 0.57812 1.1477 3.5764 3.7728 15.736 13.778 38.319 43.187 50.532 65.806 6.4752 11.993 15.636 35.668 18.889 48.817 2.628 10.624 2.7868 13.107 1.8998 29.718-1.1181 20.939-3.5452 50.316-4.2121 50.982-0.25078 0.25077-0.74748-0.5708-1.1038-1.8257zm-18.727-64.391c-0.39903-0.99716-0.69523-0.70097-0.7552 0.75522-0.0543 1.3177 0.24116 2.056 0.65652 1.6406 0.41536-0.41536 0.45977-1.4935 0.0986-2.3958zm-467.22 18.215c-1.0886-1.3118-2.0938-8.43-2.8682-20.312-3.2906-50.488 11.086-91.311 44.845-127.34 18.528-19.772 38.4-34.057 59.707-42.918 5.7004-2.3706 7.4386-3.4632 4.6863-2.9455-7.6508 1.4389-15.274 4.2903-28.382 10.616-28.396 13.704-51.989 33.283-70.758 58.721-4.6449 6.2952 6.0303-12.338 13.075-22.822 21.164-31.496 57.955-66.605 86.691-82.728 6.176-3.4652 27.201-12.005 29.556-12.005 0.6691 0 0.8689 0.5625 0.444 1.25s-0.59872 1.2425-0.38627 1.2333c1.478-0.064 18.657-5.9626 19.333-6.6379 3.3221-3.3221-23.503 2.2556-38.321 7.968-35.255 13.591-74.399 47.875-102.57 89.836-10.971 16.341-17.859 29.86-23.113 45.364-4.0929 12.077-4.3129 12.442-3.6048 5.9868 3.0358-27.677 14.301-56.31 33.689-85.625 20.923-31.637 46.644-56.6 69.713-67.659 5.7479-2.7554 5.9986-3.0227 2.1368-2.2781-6.5941 1.2715-29.853 13.537-39.456 20.806-9.3731 7.0957-26.073 23.288-33.73 32.705-14.938 18.371-31.155 46.402-36.622 63.301-3.0115 9.3085-6.4329 33.668-6.4611 46.002-0.01 4.6054-0.61469 9.2172-1.3426 10.248-1.9332 2.7389-0.50695-33.083 1.8221-45.766 4.1938-22.836 10.886-37.515 29.567-64.859 23.565-34.493 41.63-53.274 70.7-73.507 12.574-8.752 29.826-17.127 36.979-17.952 2.9806-0.34395 7.4746-1.3957 9.9868-2.3373 4.2782-1.6035 4.768-1.5263 7.7292 1.2181 1.7389 1.6115 6.1514 3.6948 9.8057 4.6294 4.379 1.12 9.8408 4.0844 16.021 8.6952 12.759 9.5193 45.809 43.278 49.929 50.999 0.95696 1.7934-0.79594 2.0173-16.616 2.1223-11.246 0.0746-21.009 0.85141-26.811 2.1332-12.41 2.7417-35.383 13.752-44.786 21.466-4.2136 3.4562-12.629 10.221-18.701 15.034-14.836 11.76-26.87 24.067-38.05 38.918-5.1064 6.7826-13.324 17.037-18.262 22.787-10.041 11.693-11.121 14.131-23.619 53.295-3.9492 12.375-7.4702 23.009-7.8245 23.631-0.3613 0.63426 0.0751 0.68612 0.9942 0.11812 2.0957-1.2952 1.45 2.0893-4.5909 24.064-3.5928 13.069-5.0068 16.562-6.7041 16.562-1.183 0-2.9051-0.90874-3.8269-2.0194zm408.87-65.61c-9.9688-8.3132-22.344-17.918-27.5-21.344-13.061-8.6784-37.616-20.416-65.846-31.476-13.184-5.1651-28.786-11.689-34.672-14.499-13.283-6.3397-25.023-16.878-29.902-26.841-1.8746-3.8284-3.9535-6.9606-4.6198-6.9606-0.66631 0-1.2115-1.1371-1.2115-2.5268 0-1.4822-1.2919-3.1154-3.125-3.9506-3.1372-1.4294-3.9962-4.7979-2.3303-9.139 0.66021-1.7205 1.665-1.2401 5.9375 2.8385 6.7388 6.4331 14.566 10.934 47.643 27.394 58.608 29.166 86.565 47.408 110.03 71.789 11.622 12.077 26.002 29.874 24.108 29.837-0.21245-0.004-8.5425-6.8092-18.511-15.122zm-432.3 1.38c0-1.7188 0.28373-2.4219 0.63049-1.5625 0.34676 0.85937 0.34676 2.2656 0 3.125-0.34676 0.85937-0.63049 0.15625-0.63049-1.5625zm501.42-18.716c-4.807-9.699-11.117-19.94-16.578-26.909-4.8496-6.1875-10.357-13.675-12.239-16.64-1.882-2.9643-6.0706-9.5556-9.3079-14.647-3.2373-5.0918-10.269-13.859-15.625-19.482-15.17-15.927-55.729-47.503-79.017-61.518-6.4778-3.8984-11.343-7.088-10.812-7.088 1.2815 0 23.745 12.641 30.09 16.933 4.2991 2.9078 4.6506 2.9922 2.5074 0.60165-3.4864-3.8888-30.381-20.417-43.132-26.507-22.749-10.865-50.042-19.817-79.87-26.195-15.425-3.2985-21.791-3.9992-41.067-4.5203-14.694-0.39725-22.812-0.17462-22.812 0.6256 0 0.71597 7.0169 1.6176 16.562 2.1283 17.876 0.95624 45.873 5.2646 60.938 9.3776 5.1562 1.4078 7.5142 2.2853 5.2398 1.9501-24.209-3.568-44.432-3.7898-55.569-0.60942-5.4435 1.5544-8.0461 0.6525-5.8283-2.0198 0.96771-1.166 1.0123-1.7637 0.13158-1.7637-0.7327 0-2.1029 1.1003-3.0448 2.4452-1.6442 2.3474-2.1626 2.1351-12.967-5.3125-6.1896-4.2667-16.972-10.851-23.96-14.633-6.9886-3.7812-12.717-7.25-12.729-7.7084-0.0475-1.7309 22.9-6.1172 38.93-7.4412 21.729-1.7947 56.98-0.4995 75.211 2.7635 64.726 11.584 129.64 48.756 176.17 100.89 12.231 13.703 22.505 28.766 30.01 44 5.0275 10.205 6.2119 14.151 8.4229 28.063 1.415 8.9036 3.9859 23.168 5.7131 31.698 1.7272 8.5304 2.9732 15.886 2.769 16.345-0.2043 0.45951-3.8638-6.2109-8.1322-14.823zm-502.87 8.09c0-1.0312 0.5625-1.875 1.25-1.875s1.25 0.84375 1.25 1.875-0.5625 1.875-1.25 1.875-1.25-0.84375-1.25-1.875zm249.84-142.18c-3.182-4.2969-9.6507-11.986-14.375-17.086-11.98-12.934-5.164-8.6202 9.7262 6.1558 9.3177 9.2463 12.309 13.008 12.309 15.479 0 1.7952-0.42188 3.264-0.9375 3.264-0.51563-0.00002-3.5409-3.5156-6.7229-7.8125z"/>
</svg>
