<?xml version="1.0" encoding="UTF-8" standalone="no"?>
<!-- Created with Inkscape (http://www.inkscape.org/) -->
<svg id="svg3336" xmlns:rdf="http://www.w3.org/1999/02/22-rdf-syntax-ns#" xmlns="http://www.w3.org/2000/svg" height="800" viewBox="0 0 600 800" width="600" version="1.1" xmlns:cc="http://creativecommons.org/ns#" xmlns:dc="http://purl.org/dc/elements/1.1/">
 <metadata id="metadata3342">
  <rdf:RDF>
   <cc:Work rdf:about="">
    <dc:format>image/svg+xml</dc:format>
    <dc:type rdf:resource="http://purl.org/dc/dcmitype/StillImage"/>
    <dc:title/>
   </cc:Work>
  </rdf:RDF>
 </metadata>
 <path id="path3346" fill="#fff" d="m372.76 721.54c-3.3732-8.073-8.2842-28.8-9.8465-41.559l-1.6637-13.59-4.4748-0.61575c-8.7206-1.1966-17.253-3.4491-22.556-5.9441-28.797-13.554-77.789-38.722-86.518-44.455-5.9148-3.8811-14.365-9.4199-18.779-12.308-4.414-2.8882-10.463-7.4793-13.443-10.202-2.9796-2.7231-5.416-4.7969-5.4144-4.6086 0.002 0.18839 0.88153 4.8675 1.9553 10.398 2.1574 11.111 2.3213 12.919 1.1717 12.919-0.4294 0-1.7751-5.4409-2.9905-12.091-1.2154-6.6499-2.4816-13.139-2.814-14.421-0.48143-1.8564 0.85297-1.0391 6.5716 4.0252 3.9465 3.4951 15.353 11.771 25.348 18.391 14.913 9.8775 24.572 15.225 53.855 29.818 48.492 24.165 48.344 24.104 65.013 26.782 4.7032 0.75554 4.8994 0.91462 5.1809 4.2029 1.3636 15.927 8.3468 48.352 11.688 54.271 0.40047 0.70934 0.83336-11.982 0.96202-28.203 0.204-25.723 0.43379-29.64 1.7974-30.641 0.85993-0.63182 4.6866-1.7069 8.5032-2.389 4.8013-0.85805 8.4203-2.2364 11.744-4.4727 2.6419-1.7778 5.3531-3.2325 6.025-3.2325 4.7464 0 16.165-13.37 23.525-27.546 3.8818-7.4768 6.1293-12.845 15.073-36.001 1.1422-2.9573 2.7416-6.9169 3.5543-8.7988l1.4775-3.4218 6.5612 0.21404c3.6086 0.11773 8.0284-0.2588 9.8222-0.8367 4.389-1.4142 9.5958-6.1384 12.141-11.017 2.7654-5.299 3.4718-20.565 1.4066-30.4l-1.4372-6.8435 2.9227-6.3547c7.2049-15.666 12.122-34.857 13.102-51.138 0.54088-8.9826-1.3724-37.115-3.957-58.183-1.2963-10.566-1.2662-11.337 0.66412-17.055 1.112-3.2928 4.54-10.909 7.6177-16.925 3.0778-6.0156 6.5352-13.652 7.6832-16.969 2.9312-8.4703 4.2046-22.783 4.0502-45.528-0.073-10.754 0.15445-25.193 0.50537-32.087 1.0153-19.943-2.359-37.897-11.821-62.896-9.7058-25.63-16.182-37.494-30.479-55.851-7.8603-10.081-26.944-29.338-37.111-37.44-30.299-24.16-70.68-42.235-108.84-48.742-22.811-3.8874-56.389-3.7263-84.688 0.40647-8.4766 1.2377-9.423 1.6312-18.88 7.8478-8.3858 5.5117-11.383 6.8975-18.994 8.7824-18.982 4.7003-38.799 14.693-50.16 25.292-14.806 13.816-30.326 34.693-39.705 53.416-4.5075 8.9975-11.44 28.008-13.529 37.1-4.2775 18.614-4.9615 45.975-1.8712 74.858 3.0499 28.505 4.6252 36.036 9.0616 43.315 1.6698 2.7399 1.7987 3.6476 0.82247 5.7902-0.63677 1.3976-2.1831 6.7545-3.4361 11.905-1.2531 5.1497-3.03 11.931-3.9488 15.07-1.9934 6.8101-1.6628 17.117 1.0712 33.4 2.1855 13.016 2.2408 17.981 0.47339 42.528-1.0177 14.135-1.2048 28.037-0.72379 53.771 0.83468 44.648 2.3299 88.512 3.1663 92.877 0.52968 2.7662 0.41407 3.196-0.60352 2.2434-1.797-1.6822-2.5612-15.18-3.9588-69.925-1.212-47.473-0.93151-70.431 1.1437-93.627 1.0073-11.261 0.91383-13.295-1.1916-25.908-1.3069-7.8282-2.2936-17.872-2.3052-23.463-0.02055-9.8717 0.34486-11.655 7.2785-35.492l1.7926-6.1628-2.4181-4.3264c-3.3494-5.9928-5.759-18.756-8.2013-43.44-2.4412-24.675-2.2374-52.22 0.4957-67.003 3.9142-21.172 16.411-50.355 29.164-68.107 8.4266-11.728 22.456-27.516 29.986-33.739 9.4784-7.8353 30.964-18.154 45.281-21.746 6.4997-1.6309 12.663-3.7916 14.176-4.9696 1.4718-1.1462 5.7874-4.025 9.5903-6.3973 6.187-3.8595 7.987-4.4652 17.109-5.7574 37.358-5.2926 73.795-4.0828 102.23 3.3943 31.364 8.2474 62.25 22.846 86.151 40.721 9.9474 7.4395 33.772 30.758 42.763 41.854 13.866 17.113 21.87 31.602 30.783 55.726 6.7758 18.34 8.3953 24.078 10.778 38.185 1.785 10.569 2.0263 14.726 1.5006 25.823-0.34467 7.2746-0.56717 21.365-0.49446 31.313 0.24873 34.023-2.5886 50.192-11.007 62.724-0.96012 1.4292-3.6871 7.4294-6.06 13.334l-4.3143 10.735 1.3445 11.107c3.1711 26.197 4.5243 50.747 3.4474 62.547-1.309 14.344-5.5156 31.118-11.033 43.991l-4.2807 9.9881 1.2473 5.9496c1.6857 8.0409 1.6086 21.624-0.1564 27.567-3.1989 10.668-12.013 16.995-23.706 16.995h-6.9033l-2.0757 4.8251c-1.1417 2.6538-2.0756 5.0976-2.0756 5.4307s-0.89122 2.5621-1.9805 4.9532c-1.0893 2.3912-3.2488 7.7874-4.799 11.991-5.9238 16.066-13.065 29.261-20.809 38.443-3.835 4.5481-10.457 9.6349-12.543 9.6349-0.58677 0-3.0642 1.3743-5.5055 3.0538-3.0597 2.1052-6.911 3.5479-12.397 4.6438l-7.9581 1.5899-0.72241 14.664c-0.65953 13.388-0.90067 36.574-0.44209 42.497 0.3167 4.0908-3.0026 3.7582-4.7727-0.47824zm-218.15-57.86c-0.35137-0.91571 0.33584-10.704 1.5272-21.752 1.1913-11.048 2.1433-23.827 2.1157-28.398-0.072-11.878-4.8158-68.844-5.6625-67.997-0.22903 0.22902-0.81177 3.95-1.295 8.2694-1.3116 11.724-4.0557 18.15-10.541 24.683-4.6386 4.6736-6.2032 5.6348-10.124 6.2203-2.5505 0.38087-6.2391 0.392-8.1974 0.0247-4.7478-0.89067-12.981-8.7346-16.053-15.294-2.1475-4.5849-2.4234-4.8335-3.0162-2.7177-0.35894 1.2808-0.69649 6.5922-0.75008 11.803-0.0536 5.2109-0.5374 9.7456-1.0752 10.078-1.159 0.71635-1.227-3.7794-0.33725-22.331 0.35221-7.3441 1.0121-13.353 1.4664-13.353 0.45434 0 0.82607 0.81098 0.82607 1.8023 0 3.3866 3.9625 13.344 7.332 18.426 10.877 16.403 29.209 12.036 36.338-8.6565 3.8423-11.152 3.642-32.317-0.45867-48.463-1.5605-6.1451-1.5935-6.8901-0.25834-5.8502 2.4988 1.9462 2.8502 2.7706 4.8828 11.458 2.8898 12.35 8.8638 75.572 8.8669 93.839 0.00065 4.0226-0.91625 15.461-2.0376 25.419-1.1213 9.958-1.8089 19.535-1.5279 21.282 0.53333 3.3174-0.91375 4.3999-2.0218 1.5125zm-2.5189-126.64c-0.23383-1.2161-0.43405-0.45134-0.4449 1.6994-0.0109 2.1508 0.18049 3.1458 0.42518 2.2111 0.2447-0.93471 0.25357-2.6945 0.0197-3.9106zm5.8418 126.64c-0.27837-0.45039 0.35147-4.9891 1.3997-10.086 6.6117-32.151 9.2877-59.205 8.2169-83.077-1.3607-30.348-5.5692-66.62-9.2446-79.683-4.5896-16.305-6.2024-21.538-6.7793-21.997-1.3322-1.0593-0.46725-3.9396 1.9663-6.5473 1.4065-1.5072 3.1022-3.797 3.7681-5.0883 1.0588-2.0534 1.0097-2.2708-0.39201-1.7328-1.3224 0.50743-1.4278 0.28803-0.60256-1.254 1.2095-2.2598 1.2991-10.767 0.13285-12.607-0.65621-1.0356-1.1821-0.82968-2.4292 0.95074-0.87543 1.2498-1.5916 1.9546-1.5916 1.5661 0-0.38849-1.7598 1.0534-3.9106 3.2043-2.1509 2.1508-4.2622 3.9106-4.6919 3.9106-0.42969 0-1.3471-1.5648-2.0386-3.4774-2.4433-6.757-11.236-7.9189-14.001-1.8504-0.85783 1.8828-0.8766 3.2675-0.073 5.3967 1.364 3.6136 0.75506 3.7166-1.0375 0.17549-2.6337-5.2029-2.7869-9.5903-0.58779-16.83 1.2963-4.2679 2.4861-6.6296 3.1372-6.2272 0.67205 0.41534 0.81278 0.033 0.39174-1.0642-0.74699-1.9467 3-15.229 4.2962-15.229 2.4738 0 4.2411 8.0786 2.9877 13.658-0.48508 2.159-0.52344 3.7038-0.0853 3.433 0.43826-0.27084 1.0856-1.8072 1.4385-3.4142 0.35292-1.6069 1.0726-2.9217 1.5993-2.9217 0.52671 0 0.71657-0.39008 0.42192-0.8669-0.29469-0.47677 0.1193-1.4106 0.91992-2.075 0.80065-0.66446 1.4866-2.5841 1.5244-4.2658 0.0379-1.6817 0.39801-3.8975 0.8005-4.9238 0.67122-1.7118 0.89646-1.6308 2.7217 0.97767 1.0944 1.564 2.3732 4.1636 2.8417 5.7767 0.80309 2.7653 0.8705 2.6611 1.1784-1.8223 0.19473-2.8358-0.35501-6.6506-1.3619-9.4511-1.617-4.4967-1.6108-4.8954 0.14805-9.4206l1.8365-4.7252 0.72441 4.3994c0.39843 2.4198 1.3822 8.5791 2.186 13.688 1.8019 11.452 7.5088 28.84 9.4652 28.84 1.1398 0 1.401-2.8841 1.4605-16.131 0.0571-12.673 0.52645-18.227 2.1894-25.908 2.4377-11.26 4.0971-17.438 4.5534-16.957 0.17502 0.18485-0.069 9.1352-0.54208 19.889-1.6739 38.043 2.2097 76.229 11.393 112.02 3.1248 12.177 7.2908 33.561 7.2233 37.075-0.04 2.0818-2.8144-2.9962-2.8571-5.2296-0.0191-0.99435-4.8251-16.173-10.68-33.729s-11.41-35.221-12.346-39.254c-0.9351-4.0328-2.0838-7.7503-2.5528-8.2607-2.2351-2.4343 0.0696 31.974 3.5213 52.569 3.0801 18.379 5.7163 27.285 9.114 30.788 1.4538 1.4993 4.2286 5.1232 6.1662 8.0534 3.4755 5.2557 12.744 15.947 18.382 21.203 2.2909 2.1361 3.5357 5.0066 5.9681 13.763 1.6903 6.085 3.9195 13.523 4.9536 16.529 2.2401 6.5109 2.3623 8.03 0.49083 6.1017-0.76417-0.78736-2.767-6.271-4.4508-12.185-4.9402-17.354-6.9525-22.974-8.2255-22.974-1.4014 0-14.644-15.137-18.775-21.461-1.5636-2.3937-4.2728-5.7886-6.0203-7.5442-1.7476-1.7556-3.1773-3.9399-3.1773-4.8541 0-0.91414-0.24435-1.4176-0.54301-1.119-0.29865 0.29866-0.0676 9.3948 0.51365 20.213 1.675 31.18-1.3015 65.175-8.3789 95.692-1.6354 7.0518-1.8777 7.633-2.6563 6.3732zm207.57-7.7352c-8.9412-0.5354-18.398-2.4026-19.618-3.8736-0.63326-0.76303-2.1298-1.3873-3.3257-1.3873s-3.678-1.4603-5.5158-3.245c-5.4163-5.2602-14.98-9.9862-35.666-17.625-21.63-7.987-40.383-16.245-50.747-22.344-15.875-9.3439-29.866-19.694-37.834-27.989l-8.1402-8.4742-7.5108-31.284c-7.8681-32.732-9.0882-40.756-10.214-66.965-1.1681-27.23 7.5382-125.79 11.545-130.69 0.51723-0.63263 3.883-2.3367 7.4794-3.7869 9.0249-3.639 27.105-4.4346 42.188-1.8565l10.3 1.7606 12.709 8.5329c24.323 16.331 51.014 28.845 59.408 27.855 7.7885-0.91961 11.211-8.7292 6.0758-13.864-1.3545-1.3545-2.2314-2.8372-1.9485-3.2948 0.58642-0.94886-10.691-4.8131-22.963-7.8681-13.572-3.3787-31.873-8.6252-45.95-13.173-18.961-6.1254-20.33-6.4031-31.985-6.4846-9.4526-0.0661-11.389 0.23724-18.72 2.9341-4.4972 1.6543-10.106 4.1386-12.465 5.5208-2.3585 1.3822-4.2881 2.2547-4.2881 1.939 0-2.6071 10.467-41.421 15.724-58.309 3.5276-11.332 4.0713-12.416 6.5271-13.02 7.8399-1.9295 16.54-9.7534 37.551-33.766 16.798-19.199 27.299-29.339 33.776-32.615 2.805-1.4189 5.4546-2.5798 5.8879-2.5798s1.6303 1.5643 2.6599 3.4763c2.8798 5.3475 14.13 15.36 22.15 19.714 7.1764 3.8959 18.729 8.7879 45.836 19.409 35.358 13.855 56.632 26.281 77.723 45.4 4.3017 3.8993 10.816 9.491 14.478 12.426 7.0207 5.6279 7.2543 6.0163 11.046 18.359l2.403 7.8212-0.54219-7.2422-0.54219-7.2422 3.7978 4.7981c2.0887 2.639 4.4727 6.118 5.2976 7.7311l1.4997 2.9329-5.5208 0.0231c-9.1641 0.0382-13.399 1.0796-21.371 5.2565-13.251 6.9433-44.573 20.71-49.551 21.778-5.3715 1.1534-12.916 7.2451-13.918 11.238-0.63803 2.542 3.4465 9.4722 6.2069 10.532 2.8085 1.0778 33.603-17.183 39.309-23.309 1.3036-1.3996 2.7084-2.5448 3.1219-2.5448 0.41355 0 2.9977-2.3747 5.7426-5.277 3.0581-3.2335 6.9491-6.1194 10.048-7.4526 5.9396-2.5551 17.927-4.3637 22.828-3.4443 4.4754 0.83961 8.7722 5.021 10.661 10.375 1.4468 4.1008 1.3862 4.7383-1.5257 16.033-1.6678 6.4694-3.552 12.863-4.187 14.208-1.2308 2.6057-10.399 7.8212-13.749 7.8212-1.6842 0-1.4037-0.60554 1.8862-4.0719l3.8646-4.0719-4.5736 2.6054c-4.1765 2.3698-7.6569 3.3396-7.6569 2.1274 0-0.2642 1.5398-2.4976 3.4218-4.9631 4.2436-5.5593 4.4698-7.7876 0.3752-3.6929l-3.0466 3.0466-5.5078-2.9262c-5.1841-2.7542-5.9788-2.8943-13.521-2.3834-13.25 0.89749-32.017 8.0058-37.937 14.37-3.4151 3.6711-3.0865 3.5986 5.3771-1.1853 3.4951-1.9755 9.1531-4.5263 12.573-5.6684 7.6051-2.5394 18.14-3.6986 19.125-2.1043 0.8105 1.3114 0.85423 1.2956-11.422 4.1081-5.2479 1.2022-9.3354 2.3923-9.0835 2.6446 0.25222 0.2522-2.4931 1.8738-6.1007 3.6036-7.236 3.4695-17.05 11.829-19.428 16.549-0.84125 1.6692-2.6363 4.2184-3.9889 5.665-4.0387 4.3189-2.6072 5.446 5.4948 4.3261 5.082-0.70242 9.0405-0.61674 14.813 0.32056 11.983 1.946 34.296 0.003 39.778-3.4636 1.191-0.75309 3.0468-1.3692 4.1243-1.3692 1.3397 0 1.7811-0.4636 1.3962-1.4664-0.36145-0.9419 0.02-1.4664 1.066-1.4664 0.89585 0 1.3569-0.43996 1.0246-0.97767-0.36658-0.59315 1.0526-0.98416 3.6085-0.99415l4.2127-0.0164-3.1773-2.0349c-3.5765-2.2905-3.8615-3.168-1.6178-4.9816 0.85775-0.69334 2.6375-2.2505 3.955-3.4604s2.6464-2.1997 2.9533-2.1997c0.3068 0 2.792-1.6401 5.5227-3.6446 3.8315-2.8126 4.7946-3.2031 4.2189-1.7109-3.5418 9.1805-5.4059 29.148-5.4739 58.636-0.0524 22.699-1.2756 37.301-4.373 52.204-3.5111 16.893-4.1997 19.559-9.9958 38.718-5.4969 18.169-9.3471 27.863-11.066 27.863-0.54355 0-0.98823 0.67454-0.98823 1.499 0 4.7843-14.69 26.743-47.653 71.233-3.4582 4.6674-4.9403 7.5011-4.5563 8.7112 0.82507 2.5995-6.1452 8.8582-12.524 11.244-5.7312 2.1443-13.061 3.0105-21.3 2.5172zm11.975-55.616c5.7807 0 10.51-0.25107 10.51-0.55796-0.00037-0.30686-3.1902-1.0414-7.0887-1.6322-6.8376-1.0364-18.427-0.407-24.145 1.3112-2.2314 0.67053-2.2642 0.77122-0.48881 1.5015 1.0466 0.43054 3.8827 0.46661 6.3024 0.0801 2.4198-0.38645 9.1289-0.70263 14.91-0.70263zm-17.355-0.48492c1.6131-0.41046 3.8128-0.7545 4.8882-0.76452 1.5322-0.0143 1.4264 0.15117-0.48882 0.76452-1.3443 0.43052-3.5439 0.77454-4.8882 0.76453-2.1954-0.0164-2.1456-0.0942 0.48883-0.76453zm28.133-15.088c9.0969-3.2104 15.707-7.6825 19.24-13.016 2.8769-4.3435 3.5782-6.1126 2.4229-6.1126-0.30406 0-4.3735 2.2602-9.0428 5.0226-9.1641 5.4211-14.248 6.5871-29.021 6.6547-9.6834 0.0442-21.972-3.7689-37.648-11.682-3.1832-1.619-6.2491-2.933-6.7966-2.933-2.0446 0-0.91125 2.8387 2.1718 5.4402 3.2919 2.7777 15.889 9.2243 18.025 9.2243 0.66839 0 1.6614 0.83374 2.2068 1.8527 0.54532 1.019 4.1903 3.2047 8.0996 4.857 9.4214 3.982 20.32 4.2287 30.353 0.68755zm-9.7776-27.208c0.32555-0.96733 0.73191-0.95747 1.9492 0.047 1.302 1.0745 2.0674 0.80418 4.9913-1.7631 4.6614-4.0982 8.0245-4.8882 20.718-4.8882 7.1038 0 11.211-0.40219 11.982-1.1732 1.4211-1.4212 1.5548-6.2968 0.19553-7.1369-0.53771-0.33232-0.97766 0.28614-0.97766 1.3743 0 2.124-2.6368 4.0027-5.6178 4.0027-1.0097 0-2.8114-1.3198-4.0042-2.9329-1.1926-1.6131-2.9251-2.9426-3.85-2.9544-2.6559-0.034-10.236-3.7708-12.993-6.4056l-2.513-2.4012-3.1545 3.9254c-4.1588 5.175-8.0996 5.4559-10.493 0.74802-2.0734-4.0769-1.9903-4.0047-3.5019-3.0433-0.7079 0.45026-4.3668 1.7676-8.1309 2.9275-3.764 1.1599-11.903 3.9462-18.087 6.1919-11.971 4.3473-16.275 4.6833-28.645 2.2356-4.4515-0.88082-4.6774-0.82311-4.3994 1.1236 0.20592 1.4419 1.0198 2.067 2.7371 2.102 1.3443 0.0274 5.0838 1.3411 8.31 2.9192l5.8659 2.8693 21.617-0.25216c20.346-0.23732 21.755-0.13774 23.952 1.6921 2.7513 2.2913 3.4945 2.4359 4.0494 0.78719zm10.074-49.069c1.0437-0.77494 2.7969-1.19 3.8958-0.92228 1.2378 0.30152 2.6777-0.26421 3.7841-1.4867l1.786-1.9735 1.593 1.9573c1.5811 1.9426 1.626 1.9363 5.9925-0.84328 7.7608-4.9404 11.732-9.3306 11.732-12.972 0-3.7502-3.08-10.625-5.9054-13.182-1.9333-1.7496-1.9359-1.7337-0.42038 2.5593 2.2848 6.4722 1.4502 8.303-3.912 8.5806-4.1479 0.21472-4.427 0.0727-4.427-2.2514 0-2.4355-4.5668-16.991-5.7528-18.337-0.33254-0.37714-0.60402 4.6333-0.60326 11.135 0.00078 10.472-0.20552 11.944-1.8126 12.907-0.99764 0.59742-3.3678 2.2961-5.2671 3.7748s-4.6585 2.6886-6.1318 2.6886c-3.3842 0-5.1041 2.0356-4.6998 5.5624 0.26652 2.3245 0.72917 2.7193 3.0036 2.5636 1.4787-0.10121 2.6886 0.2287 2.6886 0.73323 0 1.3639 2.2993 1.1103 4.457-0.4917zm-22.392-5.9284c1.9303-0.80651 4.7872-1.4664 6.3485-1.4664h2.8386l-1.5565-3.0097c-1.7095-3.306-7.9964-6.7101-12.457-6.7452-3.3172-0.0262-9.5004 2.4428-9.5004 3.7936 0 0.54005 1.1317 1.7724 2.5149 2.7384 1.3832 0.96607 3.6929 2.7325 5.1327 3.9253 3.1564 2.6151 2.4442 2.5336 6.6791 0.76413zm-17.728-3.8047c1.581-1.1562 1.6646-1.5971 0.55598-2.9329-0.71768-0.86471-2.2409-1.5791-3.3848-1.5872-3.1218-0.0225-4.428-1.2154-5.12-4.6757-0.60607-3.0304-0.45345-3.2058 4.9361-5.6731 3.0589-1.4004 5.3346-2.7731 5.0572-3.0506-1.0697-1.0697-8.4172-0.32413-11.252 1.1418-3.9711 2.0535-5.275 4.7541-4.5026 9.326 0.67513 3.9961 2.4618 6.1594 6.3772 7.7216 3.4138 1.3621 5.1909 1.2967 7.3329-0.26959zm18.594-24.22c-0.0403-5.222-1.7929-7.4644-2.96-3.7875-0.66852 2.1064 1.0852 8.8372 2.3025 8.8372 0.38312 0 0.67895-2.2724 0.65741-5.0498zm18.588-49.631c-1.6972-12.193-2.0726-36.235-0.55529-36.235 1.6185 0 2.4665 4.9728 2.3812 13.964-0.10163 10.709 1.5039 9.9066 2.2603-1.1288 0.67462-9.8426-1.4893-17.053-4.9691-16.556-1.6683 0.23782-2.2332 1.2-2.7588 4.6985-1.7103 11.388-0.0446 34.083 3.3259 45.319 1.8657 6.2194 2.0003 1.9909 0.32003-10.056zm-22.475-5.2c-1.4428-15.081-5.7494-30.199-8.9521-31.429-0.75689-0.29045-2.0841-0.25638-2.9496 0.0757-1.2756 0.48948-1.4926 1.7205-1.1467 6.5026 0.39628 5.4784 0.71958 6.1587 4.5355 9.545 3.8017 3.3738 4.2678 4.3467 6.2363 13.02 1.1702 5.1555 2.3138 9.3737 2.5413 9.3737 0.22758 0 0.10865-3.1896-0.26432-7.088zm-7.872-18.306c-0.87887-1.6994-1.4521-4.05-1.2738-5.2236 0.24022-1.5813 0.76097-0.88857 2.0118 2.6761 1.9675 5.607 1.564 6.9991-0.73799 2.5474zm-31.958 7.3946c0.2472-2.1-0.56242-3.5321-3.6662-6.4846-2.1908-2.0841-3.9835-4.6208-3.9835-5.637 0-4.9785-10.222-14.341-19.461-17.826-7.753-2.9237-24.862-5.0654-37.708-4.7205-7.4495 0.20007-12.447-0.0843-13.643-0.77643-3.1329-1.8119 17.35-2.7763 31.218-1.4698 10.893 1.0263 25.7 4.2696 26.869 5.8857 0.27795 0.38441 2.8082 2.3666 5.6228 4.4049s6.0342 4.9934 7.1545 6.5668c1.1204 1.5734 2.7368 2.8609 3.5919 2.8609 0.95918 0-0.8336-2.5281-4.6798-6.5991-4.5045-4.7679-8.278-7.6266-13.597-10.302-4.0497-2.0367-8.1333-3.5075-9.0749-3.2685-0.94684 0.24034-1.4502 0.0105-1.1258-0.51419 0.36427-0.58941-0.83882-0.71233-3.1761-0.32449-2.4426 0.40533-3.3064 0.30436-2.4625-0.28783 0.81403-0.57122-7.0425-0.77018-21.02-0.53226-33.895 0.57691-32.53 0.37549-28.674 4.2311 3.226 3.226 2.4469 4.0407-3.1773 3.3225-5.6286-0.71879-10.086-2.5902-10.776-4.524-0.24381-0.68344-0.80346-0.906-1.2437-0.49457-0.44023 0.41143 0.57055 2.6931 2.2461 5.0703l3.0466 4.3223-5.3661 0.67043c-2.9513 0.36876-7.6306 0.45287-10.398 0.1869l-5.0324-0.48353 2.2609 1.8307c1.2435 1.0069 3.862 1.8887 5.8187 1.9594l3.5579 0.12869-3.4218 0.60504-3.4218 0.60502 4.8882 2.0949c2.6886 1.1522 6.7873 2.4054 9.1085 2.785 3.1199 0.51018 4.4973 1.2984 5.2834 3.0236 0.58476 1.2834 2.1025 3.0145 3.3727 3.8466l2.3096 1.5132-2.7046 2.4612-2.7046 2.4612 3.4218-0.76721c1.8819-0.42196 5.1787-0.70194 7.3261-0.62214s4.1927-0.32156 4.5451-0.89184c0.69516-1.1248 3.7712-0.34026 3.7712 0.96184 0 0.43866-1.4119 1.6315-3.1377 2.651-3.9498 2.3332-2.4963 2.8942 3.1798 1.2272 5.4995-1.6152 8.0605-1.1764 7.2909 1.2489-0.54513 1.7175 0.69128 1.7803 29.139 1.4796 16.34-0.17269 31.205 0.0368 33.035 0.46548 4.5415 1.0638 5.2332 0.77425 5.6003-2.3445zm-48.703-3.8402c0-0.7249-1.8547-2.1544-4.1217-3.1766-2.2669-1.0222-5.5664-3.3034-7.3323-5.0693-2.8035-2.8035-3.2107-3.8536-3.2107-8.2795 0-4.2742 0.40703-5.4187 2.5961-7.2997 2.9329-2.5202 4.1381-2.6304 13.016-1.1899 8.6478 1.403 12.691 3.4934 14.326 7.4062 3.6619 8.7644-0.40942 15.994-9.0068 15.994-5.5012 0-5.2409 0.71202 0.68595 1.8762l4.29 0.84257-5.6214 0.10712c-4.1166 0.0784-5.6214-0.24571-5.6214-1.2108zm6.3584-11.396c1.4781-1.6332 1.5844-2.3734 0.63909-4.4481-1.0498-2.3041-1.5505-2.4671-6.7448-2.1957-6.3151 0.32998-7.5205 1.9184-4.7104 6.2071 2.047 3.1242 8.1606 3.371 10.816 0.43677zm-9.894-1.4058c-1.2121-3.1588 0.37395-4.5845 4.7483-4.2683 3.7095 0.26819 4.1639 0.56781 4.1639 2.7451 0 2.1774-0.45445 2.477-4.1639 2.7452-3.0661 0.22167-4.318-0.10058-4.7483-1.2221zm18.685 13.202c4.1815-1.7115 5.8659-4.8432 5.8659-10.907 0-3.1689 0.26177-5.7628 0.58171-5.7643 1.5956-0.009 10.231 14.44 9.2297 15.441-0.83271 0.83271-8.8129 2.0681-13.234 2.0486-3.2361-0.0143-3.8824-0.231-2.4441-0.81966zm-29.329-1.7297c-1.0754-0.25954-3.2751-1.0348-4.8882-1.7227-1.6131-0.68802-5.04-2.0075-7.6154-2.9321-6.5477-2.3509-10.714-6.0107-9.8911-8.6901 0.86736-2.8269 1.2326-3.1098 2.4467-1.8958 0.73339 0.7334 2.6522 0.0674 6.5253-2.2648 3.0176-1.8171 5.8422-3.3037 6.2772-3.3037 0.43493 0 0.79073 2.2215 0.79073 4.9368 0 5.8312 1.9516 10.193 6.2004 13.856 1.698 1.4642 2.8672 2.6231 2.5983 2.5752-0.26884-0.0478-1.3687-0.29945-2.4441-0.55897zm46.438 0.31446c0-0.21132 0.68276-0.64622 1.5173-0.96646 0.87002-0.33385 1.2625-0.16996 0.91993 0.38422-0.57413 0.92901-2.4372 1.374-2.4372 0.58224zm-190.27 170.11c-6.3493-6.5554-9.0702-14.282-9.8426-27.952-0.41955-7.4237-0.10918-11.023 1.5465-17.936 3.0448-12.713 3.9788-13.431 3.333-2.5622-0.42697 7.1845-0.16963 10.657 1.1231 15.153 1.8656 6.4895 6.6464 14.658 9.4605 16.164 2.3198 1.2414 2.3741 2.8679 0.0959 2.8679-2.8888 0-6.0912-2.8791-10.099-9.0788-4.3534-6.7358-4.5531-6.6777-1.8532 0.53821 2.0233 5.4078 6.7428 10.786 10.44 11.898 3.8243 1.1497 8.8035-1.8547 12.406-7.4857 4.9252-7.6993 7.5649-17.083 8.328-29.6l0.65533-10.754 1.2575 4.8882c1.9 7.386 2.6179 30.892 1.1456 37.514-2.9959 13.474-10.471 21.634-19.818 21.634-2.4177 0-4.131-1.1074-8.1794-5.287zm334-1.1752c0.0217-2.364 5.8629-10.357 9.6811-13.247 5.1263-3.881 10.813-13.492 10.829-18.303 0.007-1.8186 1.0015-4.8981 2.2114-6.8436l2.1997-3.5371 0.31409 2.7376c0.572 4.9856-2.8112 24.506-5.1321 29.611-2.787 6.1305-7.2385 9.1234-14.717 9.895-2.9671 0.30623-5.3912 0.16528-5.3868-0.31323zm-328.8-21.078c-4.6801-9.8785-5.5552-13.622-5.5615-23.789l-0.005-8.8028 9.6615 0.004 9.6615 0.004 0.59633 6.8435c0.97505 11.191-3.292 25.98-8.9779 31.119-1.9546 1.7662-2.0223 1.6985-5.3743-5.3771zm338.8 2.8551c0.79165-1.2099 2.8598-4.5093 4.5958-7.3323 3.2962-5.3601 3.9663-6.0051 3.9663-3.8177 0 1.9438-7.5956 13.35-8.8896 13.35-0.73294 0-0.62124-0.74908 0.32798-2.1997zm-360.5-37.287c0.26911-2.6292 0.52709-8.1286 0.5733-12.221 0.0701-6.2061 0.23946-6.9538 1.021-4.5074 1.0193 3.1905 0.34596 14.122-1.1498 18.67-0.77262 2.349-0.84929 2.014-0.44441-1.9416zm19.418-13.17c1.004-6.2784 4.5728-16.848 5.4961-16.278 1.0256 0.63384 6.8596 15.469 6.8596 17.444 0 0.88292-1.6022 1.5847-4.5359 1.9868-8.3764 1.1482-8.5 1.0986-7.8198-3.1529zm-9.3885-3.2878c-0.78213-2.3542 6.7184-35.954 8.0324-35.954 0.40298 0 0.50991-1.1652 0.23766-2.5894-0.35653-1.8651-0.16323-2.3844 0.69107-1.8564 0.6523 0.40316 0.94988 1.3485 0.66125 2.1006-0.28865 0.75217-0.20864 1.369 0.17775 1.3706 0.38641 0.002 0.69016 4.5111 0.67502 10.02-0.0271 9.8416-0.10469 10.177-4.3994 19.052-4.3216 8.9302-5.2962 10.19-6.0742 7.8564zm31.045-1.9807c-0.22826-0.67214-1.2548-4.7416-2.2812-9.0428-1.0264-4.3017-2.1648-8.5188-2.53-9.3706-0.38702-0.90366 0.0861-2.4758 1.1349-3.7711 1.7954-2.2171 1.8037-2.2012 4.5114 8.5728 2.1279 8.4672 2.4796 11.23 1.6314 12.815-1.2428 2.322-1.8791 2.528-2.4666 0.79838zm-35.766-11.494c-0.38626-4.1072 0.18196-8.1473 1.6367-11.637 2.2542-5.4081 2.4423-2.9809 0.45249 5.8395-1.0226 4.5332-1.9627 7.1422-2.0892 5.798zm-3.8064-9.8465c-0.0389-1.527 9.4558-34.78 13.937-48.812 8.9537-28.035 27.179-75.872 39.482-103.63 7.4389-16.783 26.319-60.801 28.36-66.119 0.41085-1.0707 0.25652-1.4241-0.43519-0.99658-2.0156 1.2457-10.069 17.166-18.724 37.013-4.7577 10.911-11.728 26.876-15.492 35.479-12.04 27.53-28.208 73.985-40.831 117.32-3.4459 11.829-6.2808 21.068-6.2998 20.531-0.0189-0.5377 0.65257-6.9169 1.4922-14.176 4.9571-42.858 14.987-96.787 22.456-120.75 2.5151-8.0652 6.4863-21.831 8.8247-30.59 5.2709-19.743 10.521-33.048 23.417-59.353 10.46-21.334 16.463-31.679 23.94-41.253 5.7211-7.3254 24.283-25.593 31.773-31.271 6.514-4.9369 19.864-11.911 27.374-14.301 7.0875-2.2549 30.27-4.8253 36.777-4.0777 5.3902 0.61938 5.5317 0.71588 7.6141 5.1939 3.3727 7.2525 4.9559 14.697 4.9684 23.362l0.0116 8.0457-4.155 2.0992c-9.9037 5.0036-20.094 16.019-37.888 40.957-13.803 19.344-18.951 25.759-23.668 29.495l-4.0177 3.1821 0.72296-2.8958c1.2594-5.0446 11.878-27.466 16.751-35.372 10.271-16.663 25.453-33.381 29.057-31.998 1.3719 0.52645 4.6216-2.7552 4.6216-4.667 0-1.7998-5.8838-0.53311-9.3854 2.0206-6.4735 4.7211-17.943 17.571-24.029 26.921-5.448 8.3694-17.717 31.946-23.463 45.089-10.848 24.811-18.229 49.664-26.632 89.677-4.7928 22.822-7.1476 49.26-7.5558 84.828-0.1384 12.059-0.26754 13.154-0.8651 7.3323-1.9203-18.71-0.83053-78.971 2.0155-111.45l1.028-11.732 8.2045-17.109c4.5123-9.4097 11.969-26.018 16.57-36.908 4.6008-10.889 9.8979-22.843 11.771-26.562 3.3208-6.5942 17.304-27.936 24.7-37.7l3.6905-4.8715-3.2246 2.2832c-4.4268 3.1344-18.613 19.223-24.971 28.319-8.9529 12.81-16.991 27.56-25.194 46.232-4.3406 9.8804-13.735 30.063-20.878 44.85-7.1423 14.787-14.219 29.525-15.726 32.751-2.1889 4.6866-2.8171 5.4236-3.1243 3.6662-0.46042-2.6338-1.7367-2.8348-3.1031-0.48882-2.0381 3.4991-0.92689-0.84736 3.6527-14.288 2.5897-7.6007 4.5441-13.82 4.3427-13.82-0.77176 0-9.0326 18.781-14.208 32.301-12.14 31.716-28.042 79.745-32.608 98.474-1.1375 4.6676-2.5296 7.5799-4.7831 10.006-1.7481 1.8819-3.8714 4.7416-4.7182 6.3547-0.84978 1.6188-1.5571 2.2443-1.5788 1.3959zm29.29-4.8178c-1.1858-0.76635-1.0456-0.95059 0.73323-0.96271 1.2099-0.009 2.1997 0.42497 2.1997 0.96271 0 1.2249-1.0375 1.2249-2.9329 0zm-7.3254-1.9441c-0.34251-0.55419 0.0499-0.71808 0.91994-0.38424 1.6936 0.64994 2.0035 1.3507 0.59729 1.3507-0.50596 0-1.1887-0.43491-1.5173-0.96646zm14.414-63.774c-2.2212-2.3698-2.8938-4.6692-1.3687-4.6692 1.5233 0 4.2372 3.7473 3.9034 5.3899-0.27919 1.3743-0.66929 1.2626-2.5299-0.7235zm263.72-1.7363c1.2293-2.297 2.2719-2.4633 3.8115-0.60825 0.88386 1.0651 0.65303 1.4717-1.1023 1.9419-3.4759 0.93126-3.8285 0.75771-2.7091-1.3336zm-241.72-1.9553c-0.36152-1.8819-0.95177-6.1713-1.3117-9.5325-0.599-5.5931-0.85055-6.1103-2.9722-6.1103-2.8408 0-2.9701-1.8399-0.36254-5.155 1.0754-1.3671 1.9553-3.1611 1.9553-3.9868 0-1.6118 12.936-31.598 17.003-39.415 1.3522-2.5986 2.479-3.9502 2.504-3.0035 0.12576 4.7562-3.2634 20.915-6.234 29.724-3.5508 10.528-7.652 26.59-9.071 35.523-0.83983 5.2878-0.86495 5.3202-1.5113 1.9553zm252.64 1.3679c-1.229-0.8608-2.6792-2.7306-3.2228-4.155-0.87831-2.3018-0.62678-2.8935 2.2615-5.3194l3.2497-2.7295 0.48882 3.7071c0.4526 3.4324 0.74633 3.7289 3.9626 3.9991 6.934 0.58277 11.867-7.2832 6.7953-10.836-1.9102-1.338-1.8976-1.3913 0.60116-2.5298 4.9662-2.2627 8.1935 1.1587 8.1935 8.6862 0 2.8906-0.74462 4.6786-3.0343 7.2864-2.9438 3.3529-3.2431 3.4558-10.048 3.4558-4.8484 0-7.7034-0.48314-9.2478-1.5651zm22.995-1.1234c4.685-4.9844 6.3658-11.718 4.2888-17.181-0.82162-2.161-0.62451-2.4561 1.9892-2.979 1.9335-0.3867 4.9278 0.23142 8.9779 1.8532 6.0222 2.4117 6.0787 2.4705 6.33 6.5814 0.37889 6.1964-2.3304 8.8222-12.28 11.902-4.4659 1.3765-8.9552 2.5106-9.9716 2.5106-1.6636 0-1.5935-0.28149 0.66893-2.6886zm-18.091-5.3525c-1.2589-1.2589-1.4782-3.6501-0.55541-6.0548 0.70108-1.827 5.3327-2.0729 7.0322-0.37327 1.2964 1.2964 1.593 5.3194 0.43995 5.9663-2.1823 1.2243-5.9056 1.4728-6.9168 0.46183zm3.4746-6.2367c-0.32487-0.32486-1.1681-0.3596-1.8738-0.0771-0.7799 0.31209-0.54824 0.54375 0.59067 0.59065 1.0306 0.0425 1.6081-0.18862 1.2831-0.51348zm-279.22 1.789c-1.8379-3.4342-1.2802-6.9865 1.5016-9.5645 1.4285-1.324 2.798-2.2066 3.0432-1.9613 0.51687 0.51689-1.6289 10.154-2.7152 12.195-0.58172 1.0928-0.96076 0.95418-1.8294-0.66897zm-39.075-14.87c0-1.3443 0.2219-1.8942 0.49311-1.2221 0.27121 0.67213 0.27121 1.772 0 2.4441-0.27122 0.67213-0.49311 0.1222-0.49311-1.222zm44.326-2.9358c-0.7093-1.1477 0.38083-9.6044 1.5091-11.708 0.61062-1.1381 1.0296-0.88714 1.9721 1.1815 0.94893 2.0828 0.93932 3.5459-0.0463 7.0666-1.2232 4.3687-2.24 5.3928-3.4349 3.4594zm301.33-1.0848c0.77182-0.77181 1.8931-0.79423 3.8618-0.0771 2.7433 0.9992 2.7312 1.0113-1.0877 1.0876-2.8348 0.0566-3.5725-0.21203-2.7741-1.0104zm-343.28-6.0447c0.29825-2.5786 1.1618-6.318 1.919-8.31l1.3766-3.6217-0.59519 3.7774c-0.32736 2.0776-1.1909 5.8171-1.919 8.31l-1.3238 4.5326 0.54232-4.6883zm391.14-14.055c-0.27868-0.98145-0.80865-3.7644-1.1777-6.184-1.0375-6.8029-5.222-19.352-8.8747-26.616-1.8184-3.6162-3.3061-7.2089-3.3061-7.9839 0-0.77517-0.40248-1.5561-0.89443-1.7353-2.4936-0.90859-18.799-20.122-24.336-28.678-8.5845-13.262-13.577-19.61-23.971-30.483-20.343-21.282-39.348-33.842-88.645-58.612-35.79-17.981-43.994-24.722-43.994-36.133 0-3.1771 0.17476-3.4278 1.5778-2.2634 0.86783 0.72022 2.9009 3.6538 4.5179 6.519s3.1324 5.0169 3.3676 4.7818c0.72629-0.72627-2.3522-7.2369-6.0714-12.84-1.9488-2.9361-3.2633-5.7914-2.9212-6.3451 0.34225-0.55374 0.0375-1.0069-0.67682-1.0069-0.7145 0-5.4611-4.1794-10.549-9.2877-5.0838-5.1072-8.8457-9.2837-8.3608-9.2837 0.49025 0 4.2211 1.3127 8.2904 2.9171 4.0696 1.6044 12.679 4.6962 19.131 6.8708 38.606 13.011 65.411 26.367 100.2 49.932 39.165 26.522 60.105 58.42 69.422 105.75 0.60869 3.0918 1.3153 5.6214 1.5705 5.6214 1.4577 0-5.7666-29.464-9.5849-39.091-8.8066-22.228-18.552-36.58-36.783-54.177-9.9881-9.6435-18.169-15.924-38.308-29.415-31.292-20.968-48.671-29.384-88.48-42.853-36.72-12.423-37.092-12.869-10.107-12.132 20.269 0.55296 28.809 2.0638 48.592 8.597 11.587 3.8266 30.851 12.094 38.86 16.678 8.0691 4.6181 31.521 20.05 38.58 25.386 14.463 10.934 28.636 25.132 36.242 36.303 5.4466 8.0003 5.69 9.6803 0.73204 5.05-3.8546-3.5996-14.667-11.546-18.473-13.576-0.80653-0.43025 0.45215 0.89764 2.7972 2.9507 12.307 10.776 29.97 33.777 39.522 51.468 5.0644 9.3799 12.229 27.896 14.773 38.18 2.0554 8.3092 2.1796 10.251 1.4858 23.243-0.87447 16.377-2.7727 39.353-3.2943 39.874-0.19615 0.19612-0.58463-0.44644-0.86331-1.4279zm-14.647-50.361c-0.3121-0.7799-0.54377-0.54825-0.59067 0.59068-0.0425 1.0306 0.18862 1.6081 0.51347 1.2831 0.32488-0.32486 0.3596-1.1681 0.0771-1.8738zm-365.42 14.24c-0.85142-1.026-1.6376-6.5933-2.2432-15.887-2.5736-39.488 8.6705-71.416 35.074-99.6 14.491-15.464 30.033-26.636 46.698-33.567 4.4584-1.8541 5.8179-2.7086 3.6652-2.3038-5.9838 1.1254-11.947 3.3555-22.198 8.303-22.209 10.718-40.661 26.031-55.341 45.927-3.6328 4.9236 4.7164-9.6498 10.226-17.85 16.553-24.633 45.328-52.093 67.803-64.703 4.8304-2.7102 21.274-9.3893 23.116-9.3893 0.5233 0 0.67958 0.43994 0.34725 0.97767-0.33232 0.5377-0.46827 0.97174-0.3021 0.96458 1.156-0.05 14.592-4.6635 15.12-5.1916 2.5982-2.5982-18.382 1.7641-29.971 6.2319-27.573 10.63-58.188 37.444-80.222 70.262-8.5806 12.781-13.968 23.354-18.077 35.48-3.2011 9.4457-3.3732 9.731-2.8194 4.6824 2.3744-21.647 11.185-44.041 26.349-66.969 16.364-24.744 36.481-44.268 54.524-52.917 4.4956-2.155 4.6916-2.3641 1.6712-1.7817-5.1574 0.99444-23.349 10.588-30.86 16.273-7.3309 5.5497-20.392 18.214-26.381 25.579-11.684 14.369-24.366 36.292-28.643 49.509-2.3554 7.2803-5.0313 26.333-5.0533 35.979-0.0083 3.602-0.48076 7.2089-1.0501 8.0151-1.512 2.1422-0.3965-25.875 1.4251-35.794 3.2801-17.861 8.5142-29.342 23.125-50.727 18.431-26.978 32.56-41.666 55.296-57.491 9.8339-6.8451 23.328-13.396 28.922-14.041 2.3312-0.26901 5.846-1.0916 7.8108-1.8281 3.346-1.2541 3.7292-1.1938 6.0451 0.95269 1.36 1.2604 4.8111 2.8898 7.6692 3.6207 3.4249 0.87597 7.6967 3.1945 12.53 6.8007 9.9794 7.4452 35.828 33.848 39.05 39.887 0.74846 1.4026-0.62251 1.5778-12.996 1.6599-8.7957 0.0583-16.432 0.66592-20.969 1.6684-9.7058 2.1443-27.674 10.755-35.028 16.789-3.2955 2.7032-9.8775 7.9941-14.627 11.758-11.603 9.1977-21.015 18.823-29.76 30.439-3.9938 5.3047-10.421 13.325-14.283 17.822-7.8532 9.1454-8.698 11.052-18.473 41.683-3.0888 9.6787-5.8426 17.995-6.1196 18.482-0.28258 0.49607 0.0588 0.53664 0.77758 0.0923 1.6391-1.013 1.1341 1.6341-3.5906 18.821-2.81 10.222-3.9159 12.953-5.2434 12.953-0.92524 0-2.2721-0.71075-2.993-1.5794zm319.78-51.315c-7.7968-6.5019-17.476-14.014-21.508-16.694-10.215-6.7876-29.42-15.968-51.499-24.618-10.311-4.0398-22.514-9.1422-27.117-11.34-10.389-4.9584-19.571-13.201-23.387-20.993-1.4662-2.9943-3.0921-5.444-3.6132-5.444-0.52114 0-0.94754-0.88935-0.94754-1.9763 0-1.1592-1.0104-2.4366-2.4441-3.0898-2.4537-1.1179-3.1255-3.7525-1.8225-7.1477 0.51635-1.3456 1.3022-0.96991 4.6438 2.22 5.2705 5.0314 11.393 8.5517 37.263 21.425 45.838 22.811 67.704 37.078 86.056 56.147 9.0898 9.4457 20.337 23.365 18.855 23.336-0.16615-0.003-6.6813-5.3256-14.478-11.827zm-338.11 1.0793c0-1.3443 0.22191-1.8942 0.49312-1.222 0.27121 0.67212 0.27121 1.772 0 2.4441-0.27121 0.67212-0.49312 0.1222-0.49312-1.2221zm392.2-14.61c-3.7596-7.5858-8.6948-15.596-12.966-21.046-3.793-4.8393-8.1004-10.695-9.5724-13.014-1.472-2.3184-4.748-7.4736-7.2798-11.456-2.5319-3.9824-8.0316-10.84-12.221-15.237-11.865-12.457-43.587-37.153-61.801-48.114-5.0664-3.049-8.8715-5.5436-8.4563-5.5436 1.0023 0 18.572 9.8872 23.534 13.243 3.3624 2.2743 3.6373 2.3402 1.961 0.47055-2.7268-3.0415-23.761-15.968-33.735-20.732-17.793-8.4977-39.139-15.5-62.468-20.487-12.064-2.5798-17.043-3.1279-32.12-3.5354-11.493-0.31069-17.841-0.13656-17.841 0.4893 0 0.55997 5.4881 1.2652 12.953 1.6646 13.982 0.7479 35.878 4.1176 47.661 7.3344 4.0328 1.101 5.877 1.7873 4.0982 1.5252-18.934-2.7906-34.751-2.964-43.462-0.47665-4.2574 1.2157-6.293 0.51034-4.5584-1.5797 0.75686-0.91195 0.79174-1.3794 0.10286-1.3794-0.57305 0-1.6447 0.86056-2.3814 1.9125-1.2859 1.8359-1.6914 1.67-10.141-4.155-4.841-3.3371-13.274-8.4867-18.739-11.445-5.466-2.9573-9.9464-5.6703-9.9551-6.0288-0.0371-1.3537 17.91-4.7843 30.448-5.8199 16.994-1.4037 44.565-0.39067 58.824 2.1614 50.623 9.06 101.39 38.133 137.79 78.908 9.566 10.718 17.602 22.498 23.471 34.413 3.9321 7.9816 4.8584 11.068 6.5877 21.948 1.1067 6.9636 3.1175 18.121 4.4683 24.791 1.3508 6.6718 2.3254 12.425 2.1657 12.784-0.15979 0.35939-3.0219-4.8577-6.3603-11.593zm-393.3 6.3341c0-0.80651 0.43995-1.4664 0.97766-1.4664s0.97766 0.65991 0.97766 1.4664c0 0.80657-0.43995 1.4664-0.97766 1.4664-0.5377 0-0.97766-0.65991-0.97766-1.4664zm195.4-111.2c-2.4887-3.3607-7.548-9.3745-11.243-13.364-9.3698-10.116-4.0389-6.742 7.607 4.8146 7.2875 7.2317 9.627 10.173 9.627 12.107 0 1.4041-0.32996 2.5528-0.73324 2.5528-0.40329-0.00003-2.7694-2.7497-5.2581-6.1103z"/>
</svg>
