<?xml version="1.0" encoding="UTF-8" standalone="no"?>
<!-- Created with Inkscape (http://www.inkscape.org/) -->
<svg id="svg4136" xmlns:rdf="http://www.w3.org/1999/02/22-rdf-syntax-ns#" xmlns="http://www.w3.org/2000/svg" height="800" viewBox="0 0 600 800" width="600" version="1.1" xmlns:cc="http://creativecommons.org/ns#" xmlns:dc="http://purl.org/dc/elements/1.1/">
 <metadata id="metadata4142">
  <rdf:RDF>
   <cc:Work rdf:about="">
    <dc:format>image/svg+xml</dc:format>
    <dc:type rdf:resource="http://purl.org/dc/dcmitype/StillImage"/>
    <dc:title/>
   </cc:Work>
  </rdf:RDF>
 </metadata>
 <path id="path4146" fill="#fff" d="m439.47 714.63c-0.59162-1.5525-3.3533-10.473-6.137-19.823-5.0377-16.92-5.0584-17.048-4.4368-27.25 0.41404-6.795 0.27598-10.25-0.40958-10.25-2.4619 0-21.829-7.8794-38.385-15.617-9.8661-4.6108-18.551-8.3833-19.299-8.3833-2.1843 0-30.411-14.94-47.262-25.016-18.347-10.97-23.701-14.967-37.855-28.261-23.439-22.015-31.76-37.78-35.669-67.573-2.6772-20.407-4.8442-18.851-4.5543 3.2696 0.1141 8.7051-0.43525 20.255-1.2899 27.122-0.81877 6.5776-1.7681 15.109-2.1096 18.959-2.4042 27.104-4.6994 43.45-6.8099 48.5-0.57466 1.375-1.0826 2.9071-1.1286 3.4047-0.0461 0.49757-0.87343 1.0206-1.8386 1.1622-0.96512 0.14165-1.5011-0.15296-1.191-0.65467 0.31008-0.50172 0.0872-0.91222-0.49523-0.91222-0.58246 0-1.059-0.47656-1.059-1.059 0-0.58246 0.3657-0.833 0.81267-0.55676 0.9899 0.61179 0.70648-54.725-0.33715-65.827l-0.74662-7.9428-2.722 6.8682c-3.035 7.6579-6.7413 11.743-8.234 9.0758-0.57059-1.0196 0.22834-4.8994 2.328-11.305 2.3115-7.0524 3.3191-12.245 3.6385-18.753 0.53785-10.957-0.48655-14.079-5.2765-16.08-1.9524-0.81578-3.7953-2.1228-4.0952-2.9044-0.29995-0.78165-2.7057-2.8075-5.3462-4.5019-7.303-4.6863-20.868-19.554-26.978-29.57-3.001-4.9191-9.1795-14.674-13.73-21.677-11.094-17.074-13.52-22.932-14.102-34.059-0.25297-4.8358-0.6028-8.6495-0.77739-8.4749-0.30422 0.30422-4.5386 20.887-7.9755 38.767-1.8887 9.8261-2.1472 48.982-0.42542 64.446 1.8369 16.498 6.1485 26.118 13.898 31.01 7.5014 4.7354 7.0619 5.862-8.1229 20.821-15.404 15.174-18.607 19.135-18.579 22.97 0.0284 3.8004-1.8987 5.7531-5.6776 5.7531-4.6058 0-7.551-3.5208-8.0441-9.6162-0.21728-2.6861-1.2954-8.3457-2.3959-12.577-3.3792-12.992-4.346-23.197-3.6295-38.307 0.68534-14.453 2.9135-35.608 4.5817-43.5 0.52316-2.475 1.1846-5.625 1.4698-7 0.30775-1.4835-0.66258-0.39048-2.3863 2.688-3.5164 6.28-14.8 21.41-17.037 22.845-4.6414 2.9777-17.317 5.4667-27.84 5.4667-6.4829 0-7.6548-0.29304-9.8163-2.4546-1.35-1.35-2.4545-3.2749-2.4545-4.2775 0-2.3598 2.7437-6.268 4.4004-6.268 2.2614 0 22.715-25.788 35.296-44.5 4.2696-6.3505 12.714-22.5 11.765-22.5-0.30845 0-1.9621 0.72462-3.6747 1.6103-2.136 1.1045-4.7672 1.4732-8.3782 1.1737-6.5922-0.54668-11.345-3.9564-14.447-10.364-1.9777-4.0855-2.1678-5.5983-1.6051-12.777 0.35102-4.4787 0.91576-9.9962 1.255-12.261l0.61675-4.1182-13.864-0.51416c-10.881-0.40352-15.693-1.0615-22.364-3.0581-17.464-5.2266-27.79-11.514-31.397-19.116-2.1833-4.6009-2.0277-11.822 0.3554-16.493 3.2925-6.4539 17.917-17.955 31.629-24.875 5.2758-2.6622 35.737-14.695 42.172-16.658 2.0484-0.62508 1.7006-1.0621-3.7346-4.6915-13.077-8.7322-21.903-22.46-24.694-38.403-1.8905-10.803-1.3441-30.843 1.1691-42.883 3.4151-16.361 13.212-41.187 25.678-65.071 8.8092-16.877 27.757-41.866 38.249-50.443 3.8903-3.1802 8.6483-7.2672 10.573-9.0822 6.0171-5.6731 17.568-12.624 26.713-16.075 8.3908-3.1666 9.4186-3.318 22.787-3.358 13.26-0.03965 14.313 0.10488 19.93 2.7353 11.207 5.2484 20.425 15.16 26.704 28.712 4.3048 9.2912 5.9213 10.021 13.608 6.1404 8.4474-4.2643 28.622-10.776 39.02-12.595 15.051-2.6328 35.596-1.6951 56.432 2.5756 9.6795 1.984 9.7003 1.984 13.602-0.007 6.2604-3.1938 15.88-4.3614 31.985-3.8823 12.166 0.36187 17.053 1.0012 28.18 3.6866 7.4042 1.7868 14.234 3.6619 15.178 4.1668 2.3496 1.2575 4.0652 0.41073 5.9853-2.9539 2.4819-4.3491 9.0713-6.1905 24.48-6.8406 20.899-0.88174 34.183 1.8895 52.051 10.859 25.728 12.915 43.476 34.284 55.733 67.102 6.3036 16.879 7.598 24.164 7.5974 42.759-0.00067 20.049-1.0295 26.954-5.6619 38-1.9606 4.675-3.9196 11.157-4.3534 14.405-0.93106 6.971-6.6893 16.038-11.777 18.544-1.7313 0.8528-3.158 2.0512-3.1705 2.663-0.0125 0.61187 1.0615 6.4619 2.3866 13s3.417 18.574 4.6485 26.746c2.5642 17.014 2.437 17.875-5.1541 34.893-2.3897 5.3576-3.9037 10.275-3.9037 12.678v3.9267l5.5043 0.68771c3.0274 0.37825 6.7399 0.37825 8.25 0.00001 5.2844-1.3236 7.6758-1.1186 8.0383 0.68904 0.76502 3.815-9.6322 10.487-17.861 11.462-4.7577 0.56348-4.9316 0.6967-4.9316 3.7786 0 2.7633 0.77155 3.7231 5.7156 7.1107 3.1436 2.1539 9.1094 7.2912 13.257 11.416 8.9037 8.8544 12.827 16.146 14.288 26.552 3.0094 21.446-5.4507 35.448-21.418 35.448-3.2135 0-5.8427 0.17546-5.8427 0.38992 0 2.3174-4.5381 21.021-6.7087 27.65l-2.7964 8.5398 3.0025 5.6478c3.7392 7.0334 6.5702 10.118 13.253 14.439 5.6842 3.6756 5.7743 3.9445 4.3034 12.833-0.51225 3.0956-0.4104 7.0021 0.26741 10.256 0.93655 4.4966 0.85915 5.4922-0.53545 6.8867-0.89664 0.89664-2.3123 1.3685-3.146 1.0486-1.3883-0.53274-18.255-20.203-23.272-27.141l-2.1325-2.9487-2.6242 5.1787c-1.4433 2.8483-3.4725 7.3252-4.5093 9.9487s-5.813 13.095-10.614 23.27c-4.8008 10.175-11.557 26.044-15.013 35.264-7.0147 18.713-10.616 25.079-17.264 30.525-2.492 2.0411-5.7374 4.836-7.212 6.211-4.5278 4.2218-12.297 6.3799-23.198 6.4434-13.079 0.0763-12.365-1.7846-13.637 35.545-0.59442 17.444-0.84728 19.523-2.4112 19.823-1.1604 0.22217-2.1083-0.6134-2.8227-2.4883zm5.5881-50.66c1.0122-2.0291 1.1606-3.3449 0.47066-4.1762-0.76052-0.91637-0.33139-1.0957 1.7519-0.73213 5.876 1.0255 19.671 0.26937 24.53-1.3445 3.3587-1.1156 7.592-3.9439 12.888-8.6107 8.193-7.2196 12.582-13.543 15.478-22.299 3.0742-9.2962 15.086-37.899 23.306-55.5 4.4956-9.625 9.5845-20.538 11.309-24.25 1.7242-3.7125 3.4864-6.75 3.916-6.75 0.42962 0 1.4247 1.2375 2.2112 2.75 1.3404 2.5775 11.617 15.642 19.717 25.066 4.2452 4.939 6.5428 5.563 5.2796 1.4337-1.0458-3.4187-1.1272-13.854-0.13549-17.384 0.67569-2.4053 0.13349-3.077-6.2359-7.7242-5.074-3.7021-7.7295-6.4996-9.74-10.261-1.5203-2.8441-3.5316-5.9857-4.4697-6.9813-1.6106-1.7095-1.567-2.2162 0.7842-9.1047 2.6377-7.7278 5.5189-18.623 7.3826-27.917l1.1274-5.6222 4.2161 0.47522c15.786 1.7794 24.947-10.745 22.665-30.988-1.3267-11.77-5.1053-18.76-15.416-28.52-4.647-4.3988-10.463-9.286-12.924-10.86-4.9015-3.1352-5.753-4.8281-4.942-9.8253 0.4858-2.9936 0.94251-3.3815 4.6754-3.971 7.5504-1.1923 11.648-2.8622 15.412-6.2809 2.2037-2.0015 2.8328-2.9547 1.5405-2.3342-2.41 1.1572-11.722 1.373-17.566 0.40698-3.6354-0.60089-3.75-0.7474-3.75-4.7939 0-2.8084 1.8385-8.5729 5.6193-17.619 4.4836-10.728 5.6022-14.484 5.5348-18.588-0.0465-2.8285-2.1252-16.355-4.6193-30.058s-4.5348-25.227-4.5348-25.607c0-0.38064 0.86547-0.69207 1.9233-0.69207 5.1331 0 13.243-11.181 13.705-18.894 0.15194-2.54 1.6538-7.6563 3.3375-11.37 4.5588-10.054 6.0084-17.572 6.698-34.736 0.68458-17.038-0.38447-25.166-5.3267-40.5-3.364-10.438-12.926-30.532-18.281-38.418-12.572-18.513-32.749-33.419-55.056-40.673-7.6605-2.4912-10.245-2.8056-26.165-3.1822-21.409-0.50655-26.954 0.61902-31.333 6.3598-3.2407 4.2488-2.4081 4.2873-23.002-1.0656-13.21-3.4338-14.959-3.6484-31-3.8055-15.566-0.15235-17.506 0.0277-23 2.1347-8.9564 3.4349-10.359 3.5183-21.375 1.2716-14.543-2.966-31.198-4.4464-41.831-3.7181-14.322 0.98102-36.803 7.4218-52.046 14.911l-6.2523 3.0721-2.7477-2.0329c-1.5112-1.1181-4.6959-5.9519-7.0772-10.742-4.8039-9.6632-13.753-20.111-20.728-24.199-9.7976-5.7418-26.859-6.6869-41.152-2.2796-14.319 4.4152-23.903 10.798-44.095 29.366-10.474 9.6319-27.97 33.985-35.184 48.975-16.026 33.298-19.904 43.21-24.074 61.525-2.8727 12.619-3.1973 36.315-0.62831 45.876 4.0362 15.021 14.208 28.437 26.507 34.962 3.4601 1.8356 6.1226 3.8433 5.9165 4.4614-0.20604 0.61814-2.8179 1.8539-5.8042 2.7462-7.7505 2.3158-32.297 11.699-39.713 15.181-8.4902 3.9863-22.748 13.651-28.49 19.311-11.702 11.537-6.5609 25.35 12.369 33.23 13.994 5.8258 22.938 7.6273 38.142 7.6826 13.277 0.0483 13.716 0.11716 13.089 2.05-1.3952 4.3034-2.8827 20.227-2.271 24.312 1.17 7.8136 6.9849 13.324 14.175 13.433 3.4341 0.0519 6.1066-0.82039 11.143-3.6371 3.6442-2.038 6.6259-3.4509 6.6259-3.1398 0 1.2275-11.202 22.812-14.663 28.253-9.8442 15.476-33.767 45.817-37.637 47.736-1.2572 0.62316-2.3308 2.2168-2.5064 3.7205-0.25866 2.2153 0.23007 2.8077 3.0971 3.7539 3.8002 1.2542 17.543 0.0862 26.885-2.2848 5.0159-1.2731 5.7217-1.8684 12.152-10.249 7.0437-9.1804 14.707-23.196 18.687-34.178 1.2521-3.4544 2.7094-6.5482 3.2384-6.8752 0.55159-0.34091 0.71517 0.20543 0.38344 1.2807-2.3753 7.6995-8.9522 42.552-10.261 54.375-2.3435 21.169-1.4998 45.314 2.0091 57.5 1.4253 4.95 2.5971 10.828 2.6039 13.061 0.0126 4.1341 2.7424 8.4386 5.3514 8.4386 2.1098 0 3.661-2.2424 3.661-5.2923 0-1.5908 0.92923-4.0882 2.065-5.55 3.5128-4.5212 25.808-26.895 27.416-27.512 2.8651-1.0994 1.637-4.4684-2.7306-7.4909-5.1448-3.5603-10.112-11.541-12.235-19.655-1.9765-7.5564-3.9562-46.75-3.157-62.5 0.54462-10.732 1.847-18.049 10.559-59.324 2.4114-11.424 5.0567-30.707 5.1414-37.477 0.0506-4.0406 0.22566-4.4333 1.25-2.8037 0.65515 1.0423 2.7127 3.936 4.5723 6.4304 2.7098 3.635 3.1553 4.847 2.2438 6.105-6.4347 8.8809-10.578 31.89-8.2615 45.879 1.3904 8.3974 4.1709 14.176 14.285 29.69 4.6614 7.15 10.922 17.05 13.913 22 5.9681 9.8772 19.645 24.334 26.786 28.314l4.152 2.314v-2.5992c0-2.3282 0.21832-2.4823 2.094-1.4785l2.094 1.1207-2.1273 2.2644c-2.2943 2.4421-1.5335 3.9769 2.3333 4.707 1.0417 0.19669 2.8417 1.6314 4 3.1883 1.8295 2.459 2.0889 4.1075 1.9755 12.556-0.12026 8.967-1.8213 16.865-6.055 28.113-0.4273 1.1352-0.27185 1.2255 0.63924 0.37117 0.66211-0.62086 3.1693-6.6959 5.5716-13.5 2.9497-8.3546 4.3911-11.397 4.4396-9.3712 0.0395 1.65 0.40107 10.2 0.8034 19 0.40234 8.8 0.73152 26.51 0.73152 39.357 0 19.935 0.17755 22.742 1.212 19.162 1.1367-3.934 4.3733-30.244 5.7843-47.019 0.34696-4.125 1.3267-12.675 2.1773-19 1.0526-7.8275 1.3978-16.061 1.081-25.781-0.35446-10.876-0.16342-14.453 0.80115-15 0.69663-0.39533 1.6727-2.2938 2.169-4.2188 0.49632-1.925 1.3238-3.3 1.8388-3.0556 0.51504 0.2444 1.7353 5.6444 2.7116 12 2.815 18.324 4.6361 27.723 6.3589 32.819 2.6405 7.8111 8.1157 18.154 13.342 25.204 5.6114 7.5694 20.107 21.872 30.722 30.311 9.4115 7.4832 38.694 24.974 55.501 33.151 21.605 10.511 53.491 24.527 66.301 29.143 8.5782 3.0908 8.9918 3.376 8.8256 6.085-1.1409 18.588-1.0934 18.971 4.6744 37.731l5.5 17.889 0.77019-23.826c0.57417-17.762 1.1463-24.58 2.2481-26.789zm2.3224-16.156c-0.55805-0.55805-38.289-9.9123-44.179-10.953-5.9976-1.0596-43.065-15.934-51.662-20.731-22.415-12.507-50.614-37.296-64.696-56.872-14.092-19.59-26.782-49.354-32.273-75.696-0.71594-3.4342-1.8711-7.0227-2.5671-7.9745-1.1266-1.5407-1.562-1.1299-3.9695 3.744-1.6753 3.3917-4.171 6.5064-6.5598 8.1869-5.2602 3.7005-15.038 6.1358-21.862 5.445-5.2658-0.53312-5.7063-0.8258-14.829-9.8534-7.6638-7.5836-12.267-13.59-24.895-32.485-16.694-24.978-18.315-28.529-18.336-40.174-0.0202-10.799 4.338-24.116 9.5471-29.171 1.4019-1.3605 3.585-3.4821 4.8513-4.7146 4.1292-4.0191 8.9977-5.3852 17.407-4.884 9.7057 0.57844 17.575 3.5013 25.507 9.4746 5.1074 3.8459 6.817 5.9453 9.8826 12.136 2.0388 4.1171 5.3264 12.442 7.3058 18.5 4.6003 14.079 9.636 25.512 11.237 25.513 1.8265 0.002 1.6366-24.867-0.30281-39.657-0.85405-6.513-1.6416-12.722-1.75-13.798-0.17212-1.7079 0.34963-1.9202 4.1038-1.6699 4.0125 0.26758 7.199-1.0342 7.199-2.9409 0-0.45237-2.0453-2.7395-4.5451-5.0825-4.3052-4.0352-9.1079-10.557-8.319-11.297 0.20024-0.18773 3.2891 0.27656 6.8641 1.0318 3.575 0.75519 8.8625 1.3824 11.75 1.3939l5.25 0.0208v13.849c0 18.957 0.92551 29.151 2.6467 29.151 1.0788 0 1.3533-3.107 1.3533-15.318 0-16.212 0.8068-20.751 5.6308-31.682 8.0348-18.205 17.297-32.058 26.46-39.574 2.9213-2.3963 5.439-4.2293 5.595-4.0733 0.156 0.15599-0.37362 3.628-1.1769 7.7156-0.8033 4.0876-2.0042 14.861-2.6688 23.94-1.0606 14.492-0.99986 18.071 0.49738 29.298 1.5528 11.644 2.8126 16.19 4.9219 17.759 0.41759 0.31061 0.30509 2.9595-0.25 5.8865-1.6664 8.7868-1.0923 20.049 1.0221 20.049 0.43893 0 1.0852-3.4875 1.4361-7.75 0.76527-9.2956 2.3713-17.032 3.7071-17.858 0.53545-0.33093 1.9817 0.34546 3.214 1.5031 1.2322 1.1576 2.5358 2.1048 2.8967 2.1048 1.5208 0 9.5846 6.4017 9.084 7.2116-0.301 0.48702-1.1931 0.34952-1.9824-0.30556-0.78933-0.65508-1.6868-0.93944-1.9943-0.63189-0.30754 0.30754 2.0951 3.1842 5.3392 6.3925 15.45 15.28 31.312 19.534 64.268 17.238 9.075-0.6324 16.761-1.5598 17.08-2.0609 0.69583-1.0931 3.7471-0.11756 6.1856 1.9777 1.6477 1.4158 1.7356 1.2834 1.3173-1.9838-0.24652-1.9254-1.3818-6.2721-2.5229-9.6593s-2.2231-7.5147-2.4046-9.1722c-0.18146-1.6575-0.62815-3.3119-0.99265-3.6764-0.36449-0.3645-0.66272-2.0583-0.66272-3.7639 0-10.476-17.359-19.89-36.5-19.794-16.772 0.0843-33.814 3.5026-37.572 7.5363-1.7419 1.8697-3.3377 2.1939-12.463 2.5316-8.7708 0.32467-10.465 0.14653-10.465-1.1003 0-2.5866 2.9164-9.9042 8.1331-20.407l5.0504-10.168 7.1582-2.6958c19.912-7.4986 41.504-1.6923 73.876 19.866 6.3269 4.2133 12.579 8.6906 13.893 9.9496 1.3141 1.259 3.5142 2.8284 4.8892 3.4876 1.375 0.65925 3.5476 1.9587 4.8279 2.8876l2.3279 1.689-0.53586-3.4237c-0.29472-1.883-0.81394-6.0255-1.1538-9.2055-0.43634-4.0825-1.2569-6.3863-2.792-7.8387-4.3074-4.0753-22.924-12.455-35.327-15.901-4.3159-1.1991-9.3066-3.0697-11.09-4.1568-1.7837-1.0871-7.381-2.6426-12.438-3.4567-5.0574-0.81409-9.5521-1.7006-9.9881-1.9701-1.3344-0.82472-12.72 1.6-21.73 4.628-4.6972 1.5784-8.6814 2.7287-8.854 2.5561-0.9987-0.9987 24.263-29.906 36.414-41.669 10.484-10.149 28.512-26.072 28.984-25.599 0.20827 0.20827-0.94952 5.961-2.5729 12.784-5.4417 22.871-6.4634 39.529-2.3748 38.715 0.85581-0.17039 4.2012-5.4848 7.4343-11.81 3.2331-6.325 8.5479-15.032 11.811-19.35 4.7756-6.319 27.174-32.229 42.384-49.029l2.8261-3.1215-0.60455 8.3106c-1.4498 19.93-9.9315 44.268-19.201 55.098-1.9262 2.2503-4.277 4.0914-5.2242 4.0914-1.7699 0-4.1221 1.8059-4.1221 3.1648 0 0.42065 0.82839 1.2082 1.8409 1.75 2.4641 1.3188 10.054-0.99724 16.206-4.9452 17.254-11.072 37.767-46.709 39.812-69.167l0.64047-7.0328 7.0876-2.8092c7.4379-2.948 15.517-4.8667 14.079-3.3435-0.45826 0.48539-4.2833 2.6826-8.5 4.8827-5.6668 2.9566-7.6668 4.5219-7.6668 6.0001 0 1.9149 0.54256 1.9842 12.75 1.6277l12.75-0.37232v2.7582c0 2.6937 0.10524 2.7438 4.5 2.1414 5.1464-0.70539 5.9251 0.512 1.5 2.345-1.8278 0.7571-3 1.9767-3 3.1213 0 1.5276 0.75346 1.8787 4.0321 1.8787 4.6998 0 9.8364 1.9289 11.962 4.4919 1.0511 1.2674 1.5441 4.5016 1.6622 10.905 0.11284 6.1161 1.1824 13.48 3.2596 22.442 1.7004 7.3365 2.8413 13.744 2.5352 14.24-0.30606 0.49522 0.59216 6.0218 1.996 12.281 1.4039 6.2595 2.519 12.452 2.478 13.76-0.0623 1.9902-1.6578 3.16-9.75 7.1486-5.3215 2.6229-13.626 7.5729-18.455 11-4.8289 3.427-13.467 8.8424-19.197 12.034-11.529 6.4226-10.39 4.7413-11.813 17.447-0.35926 3.2083 1.365 4.5552 2.8193 2.2022 0.35619-0.57632 1.3952-0.94049 2.309-0.80927 0.91378 0.13122 4.8114-1.3599 8.6614-3.3137 9.4726-4.807 15.843-6.186 24.755-5.3584 9.3495 0.86813 10.769 1.3018 10.087 3.0804-0.68327 1.7806-6.0908 1.904-11.565 0.26385-3.0482-0.91327-4.3901-0.91327-5.8524 0-1.0436 0.65173-2.7331 1.185-3.7544 1.185-3.7201 0-13.216 3.9565-19.122 7.9675-6.0446 4.1048-12.017 12.2-12.038 16.318-0.005 0.98185-0.67235 2.797-1.4826 4.0337-0.81029 1.2367-1.6427 3.1333-1.8498 4.2148-0.20708 1.0815-0.70899 2.7323-1.1154 3.6684-1.1195 2.5791 0.17783 3.9776 2.4016 2.5888 1.4291-0.89246 5.9796-0.87404 19.282 0.0781 13.628 0.9754 18.481 0.98465 22.333 0.0426 8.6931-2.126 9.9148-3.1697 12.79-10.926 1.4474-3.9048 2.6452-8.0863 2.662-9.2924 0.0284-2.046 0.10237-2.069 1.1052-0.34365 0.59112 1.017 0.81128 3.1665 0.48925 4.7767s0.0986 5.503 0.93466 8.6509c4.2522 16.009 6.8628 36.387 6.1167 47.745-1.1236 17.105-7.8434 43.48-14.554 57.125-1.5832 3.2191-4.343 9.2279-6.1329 13.353-1.7899 4.125-6.6319 14.25-10.76 22.5s-8.963 18.375-10.744 22.5c-1.7812 4.125-5.49 12.225-8.2416 18-2.7517 5.775-7.3495 15.762-10.217 22.192-7.002 15.701-9.4467 18.38-19.026 20.844-6.8143 1.753-22.898 2.7323-24.159 1.471zm11.022-50.026c5.5342-2.4836 6.7822-2.6762 13.226-2.0412 3.9136 0.38564 7.8572 0.96062 8.7634 1.2777 1.2174 0.42598 1.3673 0.27078 0.57405-0.59431-0.59053-0.64397-4.7838-1.594-9.3183-2.1112-13.982-1.5947-27.108 1.1373-27.108 5.6424 0 2.2776 6.0619 1.3272 13.862-2.1734zm-11.185 0.44098c1.411-1.411 8.2-2.9291 8.7948-1.9666 0.45953 0.74354-5.9936 3.0444-8.5386 3.0444-0.95347 0-1.0266-0.30742-0.25624-1.0777zm36-12.534c5.9808-5.0221 8.7537-8.1296 8.8231-9.8874 0.0217-0.55072 0.98314-3.0263 2.1365-5.5013 2.5824-5.5418 3.6985-10 2.5034-10-0.49331 0-3.4906 3.0375-6.6606 6.75-7.2975 8.5462-10.97 11.876-15.938 14.451-3.6381 1.8857-4.5939 1.9615-11.829 0.93825-9.0704-1.2827-16.079-4.3681-29.479-12.977-8.7891-5.647-13.823-7.9063-14.998-6.7312-1.0701 1.0702 4.9358 8.6758 9.5293 12.067 6.6024 4.8749 23.658 13.161 30.782 14.955 3.3829 0.8518 8.8363 1.3533 12.631 1.1616 6.3322-0.31989 6.9798-0.59062 12.5-5.226zm-1.0404-25.488c4.7398-1.5242 9.7978-3.874 11.24-5.2218 3.2121-3.0018 8.8736-5.9505 10.04-5.2294 0.71934 0.44457 6.0819-5.4767 6.0819-6.7156 0-0.94421-3.7051 0.008-6.0523 1.5547-4.0736 2.6852-8.7031 3.2428-10.843 1.306-3.2655-2.9552-13.288-8.5946-15.275-8.5946-1.0607 0-3.322 0.7206-5.0251 1.6013-2.582 1.3352-4.028 1.4222-8.7003 0.52374-6.9536-1.3372-11.515-0.36567-17.786 3.7878-6.991 4.6306-16.299 7.2326-26.418 7.3844-6.6785 0.10025-9.1993-0.26353-11.282-1.6281-1.475-0.96644-2.4351-2.1563-2.1336-2.6441 0.98072-1.5868-1.2221-2.0462-2.4894-0.51917-3.1139 3.752 6.3652 10.62 18.849 13.657 4.2108 1.0243 14.406 2.2964 22.656 2.8269 8.25 0.53051 17.25 1.5654 20 2.2998 4.3028 1.149 5.2454 1.1293 6.76-0.14104 0.96799-0.81193 5.638-2.7233 10.378-4.2476zm-62.138-4.868-3-0.79601 3-0.083c5.0295-0.13916 29.5-8.4397 29.5-10.007 0-1.0836 1.26-1.2902 5.6491-0.92622 4.6711 0.38736 5.984 0.92817 7.5834 3.1238 2.4708 3.3918 3.8412 3.3389 8.9262-0.34464 4.7998-3.477 8.7778-3.8326 11.33-1.0129 0.98906 1.0929 3.3154 2.5357 5.1696 3.2062s3.2197 1.6739 3.0344 2.2297c-0.18528 0.55583-4.8044 1.5696-10.265 2.2529-5.4603 0.68325-10.931 1.4919-12.157 1.7971-3.7371 0.93003-45.566 1.4101-48.771 0.5597zm68.845-37.922c2.2855-2.139 6.6304-5.8758 9.6554-8.3042 4.9486-3.9725 12.782-14.536 12.939-17.447 0.0337-0.62731-2.7043-5.3523-6.0845-10.5-6.9784-10.627-13.259-22.745-17.826-34.391-1.7184-4.3825-3.7334-9.3182-4.4778-10.968-2.7051-5.9957-6.627-19.939-7.2293-25.702-0.98032-9.3792-2.8522-5.5124-2.664 5.5031 0.19241 11.261 2.2412 21.486 7.4481 37.17 6.1758 18.603 18.677 40.528 23.108 40.528 3.2284 0 1.8758 1.5396-3.7967 4.3217-7.1642 3.5136-15.641 9.7798-18.32 13.543-2.3352 3.2795-2.7196 7.1119-0.89628 8.9352 1.9862 1.9862 3.7828 1.3931 8.1446-2.689zm-25.786-3.1332c1.4788-0.56222 3.5657-2.1372 4.6377-3.5 1.9147-2.4341 6.8039-3.496 6.8039-1.4778 0 2.1065 4.0763 0.92658 5.182-1.5 2.3431-5.1425-2.4779-9.6465-8.6636-8.094-1.3649 0.34257-3.9524 1.9004-5.75 3.4618-5.379 4.6722-7.2737 5.3425-11.719 4.1455-4.4463-1.1973-8.0494-5.0906-8.0494-8.6978 0-2.6244 2.33-7.7764 4.7811-10.572 2.7446-3.13 0.53027-2.9562-3.115 0.24446-9.0651 7.9593-6.2657 19.711 5.6134 23.564 2.8713 0.93141 5.648 2.0882 6.1705 2.5706 1.1645 1.0751 0.87177 1.0854 4.1085-0.14515zm-238.09-48.51c0.22333-15.865-0.89354-27.217-3.1152-31.661-0.74314-1.4866-3.3756-4.0957-5.8499-5.798-2.4743-1.7024-4.4987-3.5325-4.4987-4.067 0-0.53451 1.125-3.7405 2.5-7.1244 2.5756-6.3385 3.1518-9.8077 1.6291-9.8077-0.49209 0-0.49937-1.9887-0.0167-4.5722 0.9117-4.8802-0.89831-11.428-3.1591-11.428-1.9263 0-16.426 10.674-20.25 14.907-7.8319 8.669-6.8504 17.098 3.3344 28.635 5.4573 6.1819 11.437 11.458 12.986 11.458 0.34887 0-1.2011-1.9206-3.4443-4.2679-5.1557-5.395-10.409-15.219-11.192-20.927-0.52179-3.8068-0.23803-4.8279 2.1206-7.631 3.2258-3.8336 10.972-9.3614 11.866-8.4676 1.183 1.183 0.62379 4.5615-2.074 12.529l-2.7012 7.9771 1.9512 3.6441c1.3611 2.5421 3.7213 4.5841 7.8047 6.7526 3.2194 1.7097 6.2218 3.7044 6.672 4.4328 1.2021 1.945 0.21978 26.958-1.1222 28.575-1.36 1.6386-0.65072 4.7394 2.1059 9.2069 3.519 5.703 4.2279 3.7352 4.4546-12.366zm-18.07 0.65979c1.1814-1.3054 1.4976-2.703 1.0316-4.5596-0.67868-2.7041-2.1256-4.3271-13.269-14.883-9.399-8.9041-16.389-22.292-17.769-34.032-0.70123-5.9664 1.191-13.905 5.2004-21.817 3.5751-7.0552 2.876-7.9165-2.0671-2.5463-5.3327 5.7935-8.5211 13.786-8.5211 21.36 0 6.6377 4.1707 19.776 9.8612 31.063 4.46 8.8467 14.674 23.297 16.467 23.297 0.65492 0 1.7528 0.9 2.4398 2 1.5704 2.5146 4.4108 2.565 6.6256 0.11759zm255.61-33.347c-4.4199-14.552-13.028-28.195-17.397-27.571-2.4534 0.35032-2.4432 2.7912 0.0399 9.611 2.1471 5.897 2.6135 4.8088 0.71489-1.6679-2.5072-8.5528 0.25285-8.4506 6.0097 0.22252 3.7568 5.6599 11.569 23.836 11.712 27.249 0.0458 1.0932 0.29396 1.3509 0.59069 0.61333 0.28146-0.69965-0.4703-4.5053-1.6706-8.4569zm-338.35 132.98c-1.126-9.3744-0.64334-38.9 0.87049-53.25 0.81231-7.7 2.1611-20.872 2.9972-29.27 1.5951-16.022 2.4088-20.551 7.4966-41.73 5.5525-23.113 11.731-54.718 12.902-66 0.62801-6.05 1.5793-14.623 2.1139-19.052 0.53463-4.4285 1.0123-9.6035 1.0615-11.5 0.0855-3.2988 0.15284-3.2316 1.5544 1.5519 1.92 6.5533 1.1706 27.501-1.5741 44-1.7848 10.728-7.4482 36.545-14.917 68-2.4049 10.128-2.6115 12.744-2.606 33 0.004 13.664 0.49773 24.71 1.3038 29.153 1.5856 8.739 5.7297 17.77 10.657 23.224l3.6912 4.0857-3.3492 2.6931c-1.8421 1.4812-7.3305 6.6647-12.196 11.519-4.866 4.8542-8.9658 8.8258-9.1107 8.8258-0.14491 0-0.54724-2.3625-0.89407-5.25zm434.14-5.5104c-5.0988-5.4417-16.829-21.558-17.428-23.945-0.33708-1.3431-0.0742-3.6243 0.58424-5.0693l1.1971-2.6274 1.7982 4.0165c2.4165 5.3974 7.2084 10.69 13.185 14.563l4.9338 3.197-0.66104 6.0631c-0.36358 3.3347-0.74672 6.1709-0.85142 6.3027-0.1047 0.13176-1.3455-0.99324-2.7573-2.5zm-478.99-69.66c13.683-14.425 27.968-34.903 38.955-55.846 5.5489-10.577 12.394-24.855 15.212-31.73 4.9119-11.983 8.0155-17.787 6.1141-11.434-1.9474 6.5065-12.267 35.979-18.367 52.454-8.2035 22.158-13.369 33.258-20.466 43.979-3.0947 4.675-5.6555 8.5699-5.6906 8.6552-0.03511 0.0854-5.2388 0.48581-11.564 0.88985l-11.5 0.73461 7.3066-7.7025zm476.19-9.1842c0-1.0432 0.54581-1.3975 1.5559-1.0099 2.1806 0.83678 7.4762-1.6173 10.444-4.84 2.1388-2.3224 2.4872-3.6187 2.4116-8.9715-0.0795-5.6283-0.58179-7.0872-5-14.522-2.7014-4.5456-6.4259-10.036-8.2768-12.201-1.8508-2.1649-3.6938-5.3791-4.0956-7.1427-0.40178-1.7636-1.0553-4.2191-1.4523-5.4566-1.1647-3.6307 0.72575-2.6609 8.0728 4.1413 7.9939 7.4011 11.595 13.767 13.816 24.424 2.9701 14.252 1.2907 22.053-5.4755 25.433-4.5935 2.2947-12 2.3839-12 0.14456zm0.27812-15.143c0.12203-5.3625-0.15401-13.238-0.61344-17.5-0.52399-4.8616-0.47777-7.75 0.12403-7.75 0.52765 0 2.8759 3.7798 5.2183 8.3995 3.7646 7.4246 4.2454 9.1366 4.1423 14.75-0.10757 5.8565-0.36776 6.5644-3.3452 9.1005-5.314 4.5263-5.775 3.9423-5.526-7zm6.4589-3.2476c-0.38774-4.5629-3.3861-14.094-4.0456-12.861-0.10528 0.19695-0.0491 5.2384 0.1248 11.203 0.316 10.838 0.31758 10.844 2.3523 9.0024 1.7119-1.5493 1.9616-2.7186 1.5685-7.3451zm-49.51-38.68c-0.79209-0.31857 0.2228-1.5966 2.6831-3.3789 5.4726-3.9643 9.3069-10.832 9.6483-17.281l0.27371-5.17 4.4496-0.29928c4.2833-0.2881 4.4733-0.18067 5.0844 2.875 1.8703 9.3516-0.53927 17.776-6.2469 21.84-2.2086 1.5727-4.3618 2.0648-8.7726 2.0053-3.2151-0.0434-6.4189-0.30951-7.1196-0.59132zm-155.88-1.379c-6.3507-2.4025-19.347-14.977-19.347-18.719 0-0.55372 2.4083-0.96526 5.3915-0.92133l5.3915 0.0794 0.4627 4.8154c0.49907 5.194 2.041 7.468 8.0413 11.86 3.8772 2.8378 3.9086 4.3421 0.0602 2.8863zm26.905-1.0039c5.6373-3.0004 8.8686-8.5858 9.4972-16.416 0.46797-5.83 0.75086-6.5267 2.6373-6.4951 2.314 0.0388 4.5156 1.1867 9.4112 4.9072 3.4424 2.6161 5.187 7.0923 5.1963 13.332 0.007 4.9061-1.0549 5.2736-17.494 6.053l-13 0.61632 3.7524-1.9972zm-288.17-1.59c-2.4823-3.1557-2.6095-7.0332-0.60665-18.484 2.9377-16.795 15.459-45.883 27.821-64.631 5.9926-9.0882 8.7352-11.45 8.1294-7-1.9858 14.586-3.6535 21.466-9.9096 40.886-6.9207 21.482-9.3865 30.864-8.1115 30.864 1.2712 0 14.605-30.837 14.605-33.777 0-0.60785 0.50014-1.4143 1.1114-1.7921 0.79543-0.4916 0.90438 0.84211 0.3832 4.691-1.2974 9.5808-4.2039 19.174-8.7494 28.878-2.4475 5.225-4.7546 10.756-5.1269 12.291-0.47825 1.9718-2.4744 3.9525-6.8026 6.75-7.1874 4.6454-9.9083 4.9282-12.743 1.3244zm146.68-1.3986c-0.9625-2.4934-1.75-6.3758-1.75-8.6276s-0.6022-4.5939-1.3382-5.2048c-0.73602-0.61085-1.911-3.6703-2.6112-6.7987-4.482-20.028-11.083-28.898-25.479-34.241-3.2606-1.21-6.5087-2.9638-7.2182-3.8973-0.80697-1.0618-1.3018-1.2293-1.3217-0.44734-0.0382 1.5014-3.4337 1.6404-6.0368 0.2473-1.2524-0.67028-2.079-0.67028-2.4933 0-0.34084 0.55148-2.9193 1.0027-5.7298 1.0027-3.83 0-6.4418 0.75153-10.426 3-2.9236 1.65-5.5425 3-5.8197 3-0.27719 0-2.2511-3.4875-4.3865-7.75-5.9699-11.917-9.6218-23.836-11.512-37.576-0.47257-3.4345-0.22655-3.9967 2.4068-5.5 1.7254-0.98496 2.7625-2.2921 2.5187-3.1744-0.2568-0.92929 1.7469-3.1126 5.2662-5.7385 3.1244-2.3312 8.2-6.483 11.279-9.2262l5.5983-4.9877 0.63302 11.226c0.6677 11.841 3.7096 26.611 6.2924 30.553 2.4294 3.7077 2.5578 2.0054 0.33279-4.4126-2.5951-7.4855-4.9413-22.747-4.949-32.191l-0.006-7.2772 5.75-6.3782c3.1625-3.508 6.0518-6.4208 6.4205-6.4728 0.3688-0.052 0.97343 1.368 1.3436 3.1555 1.1731 5.6645 12.224 27.528 18.724 37.043 7.4936 10.97 16.497 20.746 24.137 26.207 3.0777 2.2 5.8511 4.7666 6.163 5.7034 0.31189 0.9369 2.8146 3.3532 5.5615 5.3697 2.7469 2.0164 4.7944 3.8662 4.5501 4.1105-0.52888 0.52888-8.259-0.90666-14.894-2.7659-6.4355-1.8034-7.6456-0.60111-5.3013 5.267 0.94819 2.3734 3.2588 6.4538 5.1347 9.0676s3.4107 5.0264 3.4107 5.3613c0 0.33493-1.575 0.3135-3.5-0.0476-4.1502-0.77859-4.2072-0.50332-2.0549 9.934 1.6795 8.1447 3.9224 30.852 3.4076 34.5-0.30753 2.1794-0.57716 1.9187-2.1028-2.0334zm-43.3-69.06c-3.4293-6.8097-5.5776-8.9978-3.5196-3.5848 1.1587 3.0477 5.874 10.687 6.5963 10.687 0.27501 0-1.1095-3.1961-3.0767-7.1025zm291.55 70.102c0-0.55 0.45-1 1-1s1 0.45 1 1-0.45 1-1 1-1-0.45-1-1zm-123.99-1.96c-6.9829-2.4102-12.011-7.5885-12.011-12.37 0-4.3935 2.3571-6.4099 8.956-7.6613 6.9007-1.3087 6.7761-1.339 4.2326 1.0306-4.6148 4.2993-1.5553 10.961 5.034 10.961 3.6676 0 3.5406-1.5384-0.2357-2.8548-5.6906-1.9838-4.5904-7.4249 1.4368-7.1056 4.5934 0.24334 4.9343 0.0966 3.5764-1.5397-1.0848-1.3072-0.40928-1.5 5.2551-1.5 8.1557 0 9.3248 1.0851 7.7294 7.1737-1.7204 6.5656-5.5489 11.725-10.301 13.883-5.1954 2.3588-6.797 2.3569-13.673-0.0166zm130.24-0.26047c-2.7931-1.3471-2.8052-2.1594-0.0913-6.1251 6.037-8.8217 11.841-12.364 11.841-7.227 0 2.7948-4.216 6.5726-7.3349 6.5726-1.3946 0-1.7362 0.32896-1.052 1.0131 0.68416 0.68416 2.0265 0.65987 4.134-0.0748 5.0409-1.7573 7.9396-7.8515 5.09-10.701-0.88379-0.88379-0.53789-1.4004 1.4414-2.153 1.4323-0.54457 3.8681-1.1238 5.4128-1.2872 2.593-0.27423 2.8327-0.005 3.1222 3.506 0.38788 4.7049-2.8147 11.679-6.9682 15.174-2.3957 2.0158-4.0393 2.5097-8.1721 2.4557-2.8453-0.0372-6.1858-0.55599-7.4233-1.1528zm-370.21-14.971c-0.0243-0.38055 1.4803-5.7806 3.3436-12 3.7602-12.551 6.392-25.948 7.6236-38.808 1.211-12.644 3.1121-22.533 4.0173-20.897 1.0797 1.9523 1.59 13.14 0.66614 14.605-0.41903 0.66477-0.95859 4.5572-1.199 8.6499-0.61138 10.407-3.0642 21.525-7.2016 32.641-3.3594 9.0263-7.1547 17.302-7.2501 15.808zm285.11-3.8873c-3.1552-3.9928-6.6529-5.6552-17.904-8.5091-11.139-2.8256-16.863-2.9775-31.47-0.83532-12.686 1.8605-16.608 1.4632-8.7802-0.88938 7.5639-2.2733 17.934-3.6436 27.752-3.6672 11.734-0.0282 24.188 4.2349 29.498 10.098 2.0625 2.2769 3.75 4.757 3.75 5.5112 0 1.8168-0.11529 1.7476-2.8458-1.7078zm98.846-16.074c1.925-1.7551 7.55-6.9808 12.5-11.613 9.7264-9.1011 18.371-14.234 23.971-14.234 4.5122 0 4.5276 0.86943 0.27852 15.724-2.9513 10.318-3.4338 11.298-5.25 10.673-1.1-0.37895-6.9543-0.88431-13.01-1.123-9.4498-0.37252-11.788-0.1366-16.5 1.6652l-5.4904 2.0992 3.5-3.1911zm-457.59-0.69c-8.2876-2.8851-18.698-8.6054-21.702-11.925-2.6871-2.9692-3.0458-7.3198-0.88848-10.778 4.0862-6.5506 26.946-19.978 44.517-26.149 18.317-6.4327 20.894-7.302 21.507-7.2528 0.35982 0.0289-3.4421 2.0347-8.4488 4.4573-6.6722 3.2286-11.158 6.324-16.799 11.592-4.2329 3.953-8.3489 8.4498-9.1468 9.9927-4.2739 8.2648-3.8297 21.177 0.99121 28.814l2.5828 4.0915-2.2625-0.0134c-1.2444-0.007-5.9018-1.2803-10.35-2.8287zm259.23-10.16c1.2933-25.118 13.354-58.711 30.158-84 6.5285-9.825 19.18-25.733 28.596-35.958l4.1054-4.4578-5 4.455c-10.26 9.1414-23.586 25.515-32.752 40.24-8.9866 14.438-15.905 31.278-23.098 56.22l-1.4419 5-0.10411-5.0262c-0.28376-13.699 4.6456-37.951 8.4378-41.513 1.8534-1.7412 2.1697-2.6032 1.3276-3.6179-0.60805-0.73265-0.86098-2.347-0.56207-3.5874 0.46381-1.9248 0.22462-1.8176-1.632 0.73138-2.8651 3.9336-9.8936 10.513-11.23 10.513-2.1833 0-14.115 10.893-18.396 16.796-2.448 3.3748-4.6678 5.9191-4.933 5.654-0.26514-0.26514 2.3122-6.0935 5.7274-12.952 15.507-31.142 47.856-70.585 69.939-85.277 10.09-6.7132 33.19-18.644 43.077-22.249 3.4034-1.2409 5.9663-2.478 5.6953-2.749-1.1186-1.1186-15.959 4.614-29.055 11.224-27.518 13.888-39.386 24.031-62.079 53.054-19.895 25.445-29.584 42.059-38.337 65.736-5.7819 15.64-6.3122 16.074-5.6837 4.6428 0.29099-5.2919 1.2521-13.167 2.1357-17.5 3.3102-16.232 12.381-39.378 15.431-39.378 2.5152 0 3.2119-1.1485 1.4696-2.4226-1.3201-0.96525-0.75274-2.3618 4.0986-10.089 14.52-23.128 34.833-41.71 59.408-54.346 18.336-9.428 41.708-15.842 54.387-14.925 4.2811 0.30966 6.0088 0.0635 6.3821-0.90917 0.72139-1.8799-1.5593-4.3026-4.0844-4.3387-1.9699-0.0282-1.9936-0.10836-0.31909-1.0824 1.0864-0.63195 6.5855-0.91928 13.772-0.71959 9.5266 0.26469 11.627 0.0867 10.31-0.87399-2.3298-1.6996-12.037-3.5725-15.716-3.0325-2.0732 0.30427-3.592-0.10163-4.6298-1.2373-0.84947-0.92956-4.2445-2.4876-7.5445-3.4623-10.73-3.1694-19.422-8.4012-27.894-16.79-4.3417-4.2992-7.6241-8.0866-7.2943-8.4164s5.6158 1.2804 11.747 3.5783c11.173 4.1878 34.787 11.067 37.99 11.067 0.93891 0 2.2673 0.675 2.952 1.5 0.68469 0.825 2.4031 1.5 3.8187 1.5 4.3744 0 10.26 4.9296 12.834 10.75 1.6919 3.8251 2.8683 5.25 4.3347 5.25 3.0951 0 2.3862 1.9904-0.73739 2.0705-2.5632 0.0657-2.4962 0.16369 0.9874 1.4433 4.9437 1.8159 12.403 7.008 14.361 9.9957 0.86213 1.3158 3.4904 3.3231 5.8405 4.4608 2.3502 1.1377 6.0254 3.5833 8.1672 5.4347 4.38 3.7861 4.2454 3.0221 4.437 25.199 0.0909 10.519-0.23211 13.107-2.4662 19.762-3.3635 10.02-11.563 26.302-17.796 35.339-4.9437 7.1682-8.8617 11.484-7.5286 8.2941 0.34471-0.825 1.9481-4.6718 3.563-8.5485 6.2502-15.003 10.05-36.646 8.1234-46.264-0.62667-3.1279-1.3512-7.7121-1.61-10.187-0.93861-8.9761-5.3771-9.213-8.3198-0.44403-4.0531 12.078-6.5278 15.467-30.993 42.444-10.377 11.442-14.662 16.733-19.419 23.977-7.7686 11.83-2.9159 2.7521 10.581-19.794 21.999-36.749 33.67-62.606 35.289-78.183 0.5358-5.153 0.34937-6.9145-0.89961-8.5-1.5525-1.9708-1.6118-1.9563-4.0662 1-1.3699 1.65-2.4907 3.45-2.4907 4s1.1066-0.35 2.4591-2l2.4591-3 0.036 5.5201c0.0937 14.391-11.226 40.366-34.749 79.742-5.3434 8.9442-9.8493 15.641-10.013 14.882-0.65783-3.0478 5.9828-26.293 8.8446-30.96 4.4843-7.3132 3.5633-8.0112-2.7966-2.1196-3.1625 2.9296-14.833 13.225-25.934 22.88-20.053 17.439-32.871 30.586-48.701 49.949-10.531 12.882-13.812 17.749-19.173 28.444l-4.3426 8.6634 0.54066-10.5zm21.401-37.5c8.3731-10.67 25.037-26.964 40.688-39.785 20.095-16.461 32.408-30.133 48.616-53.982 5.3913-7.9329 13.364-21.729 11.404-19.734-0.27016 0.275-3.9912 5.675-8.269 12-18.9 27.945-31.416 42.082-53.98 60.974-19.766 16.549-37.785 35.564-44.086 46.526-2.2841 3.9734-1.7599 3.4145 5.628-6zm-3.7142-9.3186c6.1503-14.293 13.523-24.148 31.558-42.181 16.764-16.763 13.748-15.342-4.2283 1.9914-14.568 14.047-23.54 26.675-29.183 41.076-2.229 5.6878-3.1078 8.9729-2.0998 7.8497 0.20565-0.22917 1.9847-4.16 3.9534-8.7352zm-256.27 51.871c-4.1643-4.1644-4.9535-14.476-1.6036-20.954 2.4949-4.8245 21.723-22.393 29.561-27.01 4.1194-2.4263 8.7618-5.4638 10.316-6.75 1.5547-1.2862 3.6372-2.3385 4.6279-2.3385 0.99063 0 3.473-0.69854 5.5164-1.5523 2.0434-0.85377 4.0841-1.4163 4.535-1.25 0.45092 0.16627-2.4613 4.7441-6.4717 10.173-8.3179 11.26-14.442 21.944-20.422 35.629-5.6392 12.904-5.177 12.29-10.697 14.206-6.796 2.3591-12.911 2.298-15.363-0.15348zm15.169-2.2882c3.017-0.86276 3.9408-1.7462 4.8775-4.6645 3.1444-9.7958 15.935-33.284 23.878-43.85 2.8344-3.7702 2.9765-4.25 1.2587-4.25-1.0651 0-3.6915 1.2596-5.8365 2.7991s-6.825 4.5624-10.4 6.7176c-8.5246 5.139-25.521 20.625-28.026 25.535-3.4688 6.7994-2.0533 18.386 2.3533 19.262 2.5096 0.49907 6.5935-0.0326 11.895-1.5486zm177.11-14.79c-0.33336-1.6668-1.6721-3.8691-2.975-4.8939-3.1974-2.515-2.9912-3.0755 1.1311-3.0755h3.5v5.5c0 6.0709-0.72084 7.1458-1.6561 2.4694zm-22-19.45c-15.83-12.04-32.4-36.71-39.77-59.19l-2.6792-8.1703 3.451-4.8297c7.0304-9.839 18.04-32.951 24.688-51.83 0.9685-2.75 2.2511-6.2476 2.8502-7.7726l1.0893-2.7726 6.1066 3.0826c10.923 5.5141 41.859 15.062 48.324 14.915 1.1557-0.0263-3.7309-1.578-10.859-3.4481-21.747-5.7056-42.54-13.814-42.54-16.59 0-0.8047 6.9421-24.499 7.514-25.646 0.12785-0.25646 17.105 2.9746 27.388 5.2123 24.957 5.4312 30.439 6.698 32.691 7.5543 3.3816 1.2857 5.6025 1.1207 2.4072-0.1788-4.5051-1.8322-29.825-7.7758-53.331-12.519-8.5905-1.7334-8.8158-1.8506-8.2867-4.3098 0.29913-1.3904 1.2146-5.678 2.0344-9.528 0.81978-3.85 1.5672-11.636 1.6609-17.303 0.16441-9.9414 1.1294-13.197 3.9117-13.197 0.46573 0 1.6711-0.27246 2.6786-0.60548 1.0075-0.33301 0.48179 0.33903-1.1682 1.4934-4.1762 2.9218-2.48 2.6288 4.2785-0.73894 8.3648-4.1682 18.422-7.7997 29.739-10.739 18.381-4.7731 50.043-4.453 68.615 0.69364 8.2218 2.2784 18.833 6.9256 24.058 10.536 2.0302 1.4029 4.1584 2.262 4.7293 1.9091 0.57093-0.35285 1.9352-0.16141 3.0317 0.42543 4.5457 2.4328 14.438 11.571 17.143 15.837 2.5793 4.0671 2.9044 4.2948 2.9044 2.034 0-5.4461-10.489-16.233-23.039-23.694-7.5955-4.5152-15.961-10.995-15.961-12.364 0-1.9867 4.3092-0.3467 12.344 4.6979 18.731 11.76 33.738 24.916 45.644 40.014 5.2833 6.6995 6.0003 8.049 4.4105 8.3016-1.0441 0.16585-2.8307 0.76146-3.9701 1.3236-2.4718 1.2194-9.1254-0.30821-27.032-6.2064-7.4281-2.4467-14.554-5.5792-18.448-8.1092-13.998-9.0958-32.224-15.21-53.144-17.829-12.785-1.6005-41.425-0.77286-48.304 1.3959l-5 1.5763 4.5-0.45077c13.561-1.3584 37.265-1.6614 45.5-0.58161 12.132 1.5906 25.468 4.7703 33.42 7.9682l6.5559 2.6364 0.77081 5.4876c1.775 12.637 13.122 27.341 26.393 34.203 3.4939 1.8065 6.3541 3.5859 6.3562 3.9542 0.002 0.3683-2.3588 1.4403-5.2463 2.3823-2.8875 0.94198-5.7345 2.0935-6.3266 2.5589-0.59214 0.46542-6.4421 2.6868-13 4.9365-21.171 7.2627-39.758 18.75-57.047 35.257-11.098 10.596-20.021 21.659-25.482 31.591-1.8458 3.3575-3.7868 6.1046-4.3133 6.1046-0.52651 0-5.0351-4.172-10.019-9.271-7.955-8.1386-13.96-15.546-26.535-32.729-4.136-5.6519-3.256-2.9531 1.9354 5.9359 6.4264 11.004 15.774 22.976 24.844 31.82l8.4667 8.2556-3.5363 7.7444c-4.2142 9.229-8.009 20.586-10.261 30.707-1.6103 7.2382-1.7111 7.3945-5.3088 8.2415-4.8684 1.1461-5.2712 3.9694-1.2239 8.579 5.0875 5.7943 4.3696 6.7202-5.1934 6.6986l-8.25-0.0186-7.154-5.4421zm49.39-116.13c-0.33229-0.33229-1.1948-0.36781-1.9167-0.0789-0.79773 0.31922-0.56078 0.55618 0.60417 0.60416 1.0542 0.0434 1.6448-0.19293 1.3125-0.52522zm-147.06 92.938c-0.36667-0.36666-0.66667-1.1317-0.66667-1.7 0-0.6266 0.46577-0.56756 1.1833 0.15 0.65084 0.65084 0.95084 1.4158 0.66667 1.7-0.28417 0.28417-0.81667 0.21667-1.1833-0.15zm-5.5066-2.5732c-1.3369-1.3369-1.5674-4.7601-0.3206-4.7601 1.2064 0 3.2402 4.8327 2.2829 5.4244-0.44121 0.27269-1.3242-0.0262-1.9623-0.66429zm9.0399-9.9601c-2.5446-2.5446-1.1925-5.7029 5.3504-12.498 6.396-6.6422 9.7552-10.864 24.111-30.302 9.7546-13.208 13.392-19.139 20.782-33.888 16.114-32.157 27.496-66.611 27.539-83.362 0.01-3.7125 0.44164-6.75 0.9602-6.75 1.2547 0 8.3437 4.1324 9.3584 5.4554 1.1564 1.5076-0.0915 14.54-2.4288 25.367-3.7192 17.227-18.415 57.314-28.069 76.563-6.8718 13.702-14.504 25.69-22.356 35.115-10.417 12.503-13.42 15.407-21.326 20.628-7.3785 4.8722-11.606 5.9874-13.922 3.6721zm-45.747-3.1261c-12.39-4.7739-19.23-15.186-25.071-38.164-5.1748-20.359-4.2496-34.854 3.6751-57.576 6.6436-19.049 14.169-35.707 17.363-38.434 2.255-1.9252 4.5796-5.9629 4.59-7.9725 0.006-1.1151 2.0591-4.7275 4.5629-8.0275s5.7377-8.025 7.1864-10.5c8.3872-14.329 20.594-27.354 33.577-35.83 8.4628-5.5246 21.184-10.869 28.143-11.822 6.285-0.86146 23.241 1.4248 28.268 3.8114 5.4255 2.576 10.913 8.9823 12.674 14.797 0.75702 2.499 2.3697 6.7937 3.5838 9.5437 1.9417 4.3981 2.1408 6.1436 1.6543 14.5-0.89552 15.381-6.679 36.855-17.359 64.454-5.5512 14.345-16.7 38.546-17.758 38.546-0.32687 0 0.0314-1.2375 0.79626-2.75 3.5253-6.9716 4.8766-10.368 4.3393-10.905-0.81149-0.8115-3.6785 2.2129-3.6785 3.8804 0 2.144-6.9866 8.3114-12.571 11.097-8.4204 4.2004-16.859 5.9391-29.429 6.0634-8.7404 0.0865-12.742-0.31973-16.678-1.6926-7.0221-2.4498-12.684-6.7439-15.692-11.901-3.0228-5.1828-5.0934-16.235-4.2988-22.945 0.73945-6.2435 5.0411-15.872 8.6246-19.306l2.7717-2.6554-1.9893 5.8068c-2.8747 8.3914-3.4186 18.238-1.3121 23.754 2.3429 6.1349 8.5377 12.016 15.397 14.617 7.1013 2.693 21.327 3.0025 28.177 0.61298l4.5-1.5699-4 0.69651c-7.1174 1.2393-21.711 0.61934-27.033-1.1485-6.3391-2.1055-11.921-6.6656-14.609-11.934-3.8992-7.643-1.1262-26.668 5.0517-34.661l1.8862-2.4401-0.41904 2.9401c-0.35762 2.5091-0.2816 2.6306 0.51866 0.82915 0.51573-1.161 1.6154-2.371 2.4438-2.6888 0.82836-0.31787 1.6535-1.618 1.8337-2.8891 0.22123-1.5609 1.1106-2.4218 2.7397-2.6519 1.8786-0.26542 2.0998-0.54752 1-1.2753-1.1213-0.74207-0.58835-1.6563 2.5879-4.4392 6.912-6.0561 17.431-12.627 25.359-15.841 6.9559-2.82 8.627-3.0959 18.641-3.0774 9.9516 0.0184 11.486 0.27433 16.094 2.685 8.7243 4.5634 10.532 10.589 5.3579 17.856-3.2107 4.509-1.3249 5.0073 2.6277 0.69422 2.9711-3.242 3.4201-4.4106 3.4201-8.9014 0-4.7108-0.34711-5.4997-3.9116-8.8906-2.1514-2.0466-6.0566-4.4519-8.6781-5.3452-5.5006-1.8742-16.418-2.1193-23.217-0.52113-8.135 1.912-24.259 10.415-33.098 17.454l-8.4052 6.6936 0.66189-7.1216c0.80682-8.6811 2.6468-13.624 8.2666-22.207 10.028-15.316 27.804-26.649 45.234-28.837 15.028-1.887 24.457 3.4068 27.104 15.218 1.1799 5.2647 0.71069 8.3008-2.1714 14.052-1.0625 2.12-1.4422 3.552-0.84381 3.1822 2.6106-1.6134 5.3775-9.1335 5.2519-14.274-0.20155-8.2496-4.1661-14.56-11.693-18.61-3.2832-1.7669-5.5232-2.1269-12.5-2.009-22.104 0.37348-45.018 15.142-55.482 35.757-3.2709 6.4442-3.9012 8.7716-4.4165 16.308l-0.60109 8.7911-1.7736-6.1496c-6.7192-23.298-0.009-43.267 19.219-57.196 6.5432-4.7399 3.7822-3.7918-3.9744 1.3648-11.079 7.3652-17.421 15.853-21.506 28.783-3.239 10.251-3.4065 24.448-0.386 32.698 1.1076 3.025 2.1054 5.9526 2.2174 6.5058 0.112 0.55321-5.1368 5.9532-11.664 12-21.149 19.592-26.244 29.59-25.99 50.994 0.17469 14.704 2.4296 24.124 8.941 37.351 6.9828 14.184 13.06 20.017 21.117 20.268 3.758 0.11702 3.7667 0.1267 0.79966 0.88169-4.5419 1.1557-12.627 0.99142-16.047-0.32608zm24.209-112.92c-0.27741-0.6875-0.50439-0.125-0.50439 1.25s0.22698 1.9375 0.50439 1.25 0.27741-1.8125 0-2.5zm7.0208-9.9375c-0.31922-0.79773-0.55618-0.56078-0.60416 0.60417-0.0434 1.0542 0.19292 1.6448 0.52522 1.3125 0.33229-0.3323 0.36781-1.1948 0.0789-1.9167zm-6.9056 119.63c1.2224-0.85619 2.2225-2.1807 2.2225-2.9433 0-2.034-4.0121-4.5-7.3214-4.5-7.6123 0-15.497-7.9722-23.242-23.5-7.7752-15.588-9.4747-33.379-4.3572-45.611 1.24-2.964 4.2054-8.3141 6.5897-11.889 5.0242-7.5334 10.986-14.508 9.8301-11.5-0.42266 1.1-1.4678 3.8-2.3226 6-2.2052 5.676-2.0349 20.418 0.31757 27.49 2.3501 7.0654 10.771 15.668 18.006 18.394 7.4617 2.8119 26.909 3.3928 37.17 1.1104 9.8258-2.1856 17.2-5.413 20.841-9.1209 5.3144-5.4126-3.4951 6.1828-17.298 22.769-8.0332 9.6527-25.534 26.596-28.779 27.862-1.1362 0.44336-4.2618 2.1988-6.9458 3.9009-4.9523 3.1406-8.7858 4.3923-4.7109 1.5381zm420.09-12.193c-0.31197-6.2977-0.82567-10.545-1.3372-11.057-0.29966-0.29966 0.42437-1.5765 1.609-2.8374 2.0692-2.2026 2.1308-2.8926 1.5694-17.574-0.91967-24.051-6.7828-43.044-19.734-63.926-2.7847-4.4899-4.7048-8.4779-4.2669-8.8623 0.43793-0.38435 2.9453-1.2769 5.572-1.9834 2.6267-0.70653 5.0563-1.7385 5.3992-2.2933 0.84278-1.3636-4.1176-0.12485-8.9999 2.2476l-3.825 1.8587-5.9036-8.0595c-3.247-4.4327-7.1507-8.8366-8.675-9.7865-1.5243-0.94985-4.5714-3.3321-6.7714-5.2938l-4-3.5668 3.4532-0.72398c2.9068-0.60943 3.1442-0.84487 1.5-1.488-1.0769-0.42129 3.58-0.79561 10.38-0.83436 9.097-0.0519 12.229-0.38399 11.935-1.2658-0.21917-0.65751-1.7192-1.5696-3.3333-2.027-4.1029-1.1624-23.25-1.0782-27.235 0.11969-3.0451 0.91533-3.9349 0.58051-11.5-4.3272-4.5097-2.9256-10.174-6.3165-12.587-7.5352-2.4132-1.2188-6.8717-4.6029-9.9077-7.5202l-5.52-5.3043 9.9077-0.76025c8.7406-0.6707 19.601-0.008 33.908 2.0703 1.65 0.23965-2.6163-1.4323-9.4806-3.7154-13.113-4.3615-14.829-5.9641-3.5972-3.3592 30.567 7.089 54.683 27.161 68.783 57.252 13.528 28.868 18.183 53.37 14.33 75.421-2.1543 12.328-4.6521 18.602-10.512 26.403-9.1542 12.187-10.92 13.568-11.16 8.7276zm-11.039-19.753c-0.37158-0.37508-2.3227-1.2482-4.3358-1.9403l-3.6602-1.2583 3.6575-2.158c2.1752-1.2834 3.5271-2.7853 3.3358-3.7059-0.59571-2.8666-11.561-6.5094-21.822-7.2496l-9.5-0.68531 5.6328-3.2564c6.6304-3.833 8.3211-5.6184 7.4558-7.8734-0.87156-2.2713-10.426-1.3505-21.074 2.0309-4.3609 1.3848-7.983 2.4236-8.0491 2.3083-0.0661-0.11526-0.67798-3.3497-1.3597-7.1876-0.68176-3.838-1.7281-7.5667-2.3252-8.2862-0.81715-0.98461-0.41736-2.0056 1.6168-4.1287l2.7024-2.8207-3.2999-4.3254c-4.355-5.7085-11.173-10.498-18.965-13.322-5.3832-1.9512-6.2982-2.6295-6.0887-4.5142 0.67113-6.0396-13.75-29.362-24.145-39.049-1.4308-1.3334-2.6015-2.9684-2.6015-3.6334 0-0.66498-1.0125-1.4865-2.25-1.8257-1.8769-0.51437-2.0013-0.77988-0.75-1.6013 1.2624-0.82875 1.2008-0.98714-0.38868-1-1.0388-0.008-4.8638-2.4192-8.5-5.3572-10.611-8.5735-17.06-13.106-25.861-18.176-4.5375-2.6137-8.25-5.1241-8.25-5.5787 0-1.684 8.7444-3.349 16.5-3.1417 4.4 0.11756 11.593 0.98217 15.985 1.9214 6.4187 1.3727 8.5292 2.3036 10.76 4.7463 2.4499 2.6823 3.0147 2.8893 4.8154 1.7648 1.7762-1.1093 3.2651-0.69358 11.518 3.2159 21.507 10.188 41.54 25.198 56.788 42.551 6.416 7.3014 14.927 20.232 13.798 20.961-0.49162 0.31737-1.2208 3.277-1.6205 6.577-0.59026 4.8742-3.4214 13.611-7.2098 22.25-0.3015 0.6875 0.0625 1.2444 0.80881 1.2377 1.8693-0.017 6.8182-12.645 8.1453-20.784 0.60118-3.6871 1.2182-6.8773 1.3712-7.0893 0.15296-0.212 1.3581 0.32219 2.6781 1.1871 2.7106 1.7761 7.9012 15.442 12.229 32.198 3.2254 12.487 4.8827 39.647 2.2576 36.997zm-14.025-45.15c2.1181-1.9974 1.8304-4.0956-0.34715-2.5315-2.06 1.4797-8.4503 10.097-8.4187 11.352 0.0184 0.73243 1.4809-0.46473 3.25-2.6604 1.7691-2.1956 4.2512-4.9678 5.5159-6.1604zm-62.549-67.053c-1.2375-0.23836-3.2625-0.23836-4.5 0-1.2375 0.23835-0.225 0.43337 2.25 0.43337s3.4875-0.19502 2.25-0.43337zm-17.521-4.8984c-0.33229-0.33229-1.1948-0.36781-1.9167-0.0789-0.79773 0.31922-0.56078 0.55618 0.60417 0.60416 1.0542 0.0434 1.6448-0.19293 1.3125-0.52522zm5-1c-0.33229-0.33229-1.1948-0.36781-1.9167-0.0789-0.79773 0.31922-0.56078 0.55618 0.60417 0.60416 1.0542 0.0434 1.6448-0.19293 1.3125-0.52522zm6-1c-0.33229-0.33229-1.1948-0.36781-1.9167-0.0789-0.79773 0.31922-0.56078 0.55618 0.60417 0.60416 1.0542 0.0434 1.6448-0.19293 1.3125-0.52522zm11.54-1.0518c-0.67703-0.27392-2.027-0.29059-3-0.0371-0.97297 0.25354-0.41903 0.47766 1.231 0.49804 1.65 0.0204 2.4461-0.18706 1.769-0.46099zm-303.91 223.08c-0.89781-1.3702-1.7401-2.3648-1.8717-2.2101-0.13164 0.15467-0.56191 2.9812-0.95615 6.2812l-0.71681 6 2.5885-3.7899c2.4629-3.606 2.5093-3.9108 0.95616-6.2812z"/>
</svg>
