<?xml version="1.0" encoding="UTF-8" standalone="no"?>
<!-- Created with Inkscape (http://www.inkscape.org/) -->
<svg id="svg3436" xmlns:rdf="http://www.w3.org/1999/02/22-rdf-syntax-ns#" xmlns="http://www.w3.org/2000/svg" height="1845" viewBox="0 0 1845 1845" width="1845" version="1.1" xmlns:cc="http://creativecommons.org/ns#" xmlns:dc="http://purl.org/dc/elements/1.1/">
 <metadata id="metadata3442">
  <rdf:RDF>
   <cc:Work rdf:about="">
    <dc:format>image/svg+xml</dc:format>
    <dc:type rdf:resource="http://purl.org/dc/dcmitype/StillImage"/>
    <dc:title/>
   </cc:Work>
  </rdf:RDF>
 </metadata>
 <path id="path3446" fill="#fff" d="m578.36 1803.8c-11.51-1.3259-22.046-6.6698-29.92-15.174-9.9461-10.743-13.037-22.688-10.802-41.744 2.6439-22.544 5.404-35.636 12.071-57.256 9.2606-30.031 10.215-33.797 10.988-43.37 2.01-24.891 5.5465-40.064 11.137-47.781l3.7314-5.1511-0.85984-18.846c-1.8093-39.658-7.1191-94.448-11.457-118.22-1.2832-7.0322-2.1654-22.037-2.6091-44.375-0.98114-49.394 2.8231-81.804 15.298-130.34 3.3644-13.088 5.5564-24.407 5.568-28.75 0.0208-7.7575 1.5227-12.089 2.9249-8.4344 0.43556 1.135 0.81915 7.2291 0.8524 13.542 0.047 8.9274-1.2025 17.59-5.6222 38.974-8.7441 42.309-11.166 65.585-11.187 107.5-0.0155 31.648 0.3016 37.095 3.3118 56.875 5.1809 34.044 7.2993 59.733 10.05 121.87 0.24622 5.5625 0.68346 6.4432 4.0262 8.1095 2.294 1.1437 8.3607 2.0275 15.625 2.2764 10.978 0.3763 12.394 0.1414 18.75-3.1095l6.875-3.5165 0.313-7.5c2.4618-58.988 10.814-115.09 18.493-124.21 3.2836-3.9023 10.426-23.665 14.471-40.04 3.9022-15.798 4.6471-53.468 1.609-81.372-1.2351-11.344-2.19-22.875-2.122-25.625s2.7375-14.844 5.9322-26.875 6.6199-27.219 7.6116-33.75c1.6869-11.11 2.4892-30 1.2742-30-0.299 0-2.0624 0.5775-3.9187 1.2832-2.5985 0.988-4.0554 0.8375-6.3314-0.6538-4.3682-2.8622-3.7083-6.3733 1.8585-9.8875 8.4403-5.3281 15.99-16.629 20.12-30.117 5.3048-17.325 13.567-65.24 11.556-67.013-0.47597-0.4195-5.9279-1.7397-12.115-2.9337-34.509-6.6594-86.804-23-108.03-33.754-3.6278-1.8384-6.882-3.0566-7.2314-2.7072-0.94153 0.9416 7.2908 37.588 8.5532 38.074 0.59435 0.2291 1.0806 1.4019 1.0806 2.606 0 7.0334 12.055 34.636 19.232 44.035 4.3826 5.7397 13.206 11.068 18.329 11.068 1.585 0 2.2536 0.5401 1.7257 1.3942-0.52502 0.8495-3.0196 1.151-6.3848 0.7717-5.3435-0.6023-5.4538-0.546-3.3934 1.7308 2.0154 2.2269 2.0006 2.3533-0.27441 2.3533-2.9875 0-13.455-8.5331-18.467-15.054-2.0625-2.6836-3.9363-4.6931-4.1638-4.4655-0.22759 0.2276 0.57569 5.6969 1.7851 12.154 2.3514 12.555 2.8796 49.732 0.98635 69.424-1.239 12.886-2.9137 9.0058-3.0464-7.0588-0.13587-16.446-1.9194-30.726-7.0254-56.25-5.0146-25.067-7.9015-36.253-13.226-51.25-4.2876-12.075-10.19-36.103-12.283-50-1.1666-7.7466-1.9986-9.8518-4.7898-12.12-2.5688-2.0876-4.43-2.5847-7.7699-2.075-3.3224 0.507-4.9194 0.087-6.5577-1.7229-1.9779-2.1856-2.0583-4.12-0.92738-22.3 0.68111-10.949 1.5123-22.157 1.847-24.907 0.33478-2.75 0.90856-14.562 1.2751-26.25 1.9287-61.501 7.1653-90.959 26.942-151.57 7.3401-22.493 10.261-29.345 18.996-44.566 4.971-8.6618 7.0395-13.899 8.6869-21.994 3.5699-17.541 8.3753-31.53 12.055-35.094 6.8519-6.6354 7.0663-7.2818 7.2238-21.781 0.0822-7.5625 1.113-19.354 2.2908-26.203 1.5931-9.265 1.9982-16.989 1.5825-30.173l-0.55883-17.72-6.282-11.702c-3.46-6.45-10-18.47-14.54-26.71-13.01-23.66-23.29-58.75-23.25-79.38 0.0181-8.6869 0.97572-10.238 5.7342-9.2859 3.6294 0.72588 3.7527 1.0001 5.2037 11.577 2.8228 20.576 10.767 47.627 22.871 77.873 4.2281 10.566 9.0108 24.399 10.628 30.741 1.6174 6.3415 3.9001 13.373 5.0726 15.625 2.8028 5.3841 3.7908 26.458 1.7814 37.995-0.82387 4.73-1.9965 14.732-2.6059 22.228-0.99174 12.199-0.84089 14.427 1.4386 21.25 3.6328 10.874 9.3829 19.497 13.001 19.497 1.8523 0 4.6474 1.9983 7.7918 5.5705l4.9034 5.5706 19.576 4.015c10.767 2.2083 19.863 3.7281 20.213 3.3773 0.35075-0.35075-2.7975-8.1799-6.9962-17.398-9.7085-21.315-14.533-33.425-16.28-40.867-1.5287-6.5107-2.2877-64.653-0.81374-62.337 0.5051 0.79387 0.95458 7.3496 0.99885 14.568 0.18093 29.502 1.9045 46.272 5.9132 57.535 5.5119 15.487 19.955 47.804 21.817 48.817 4.3364 2.3585 40.709 5.4253 64.904 5.4724 22.978 0.0448 26.069-0.19193 28.253-2.1639 3.7325-3.3708 11.229-20.333 14.229-32.194 3.3028-13.061 2.8384-22.959-2.6239-55.933-2.09-12.57-3.79-24.33-3.79-26.15 0-7.6309 2.0092-0.0978 5.9924 22.467 3.1627 17.917 4.2798 27.99 4.3969 39.645 0.14678 14.614-0.10787 16.393-3.9362 27.5-2.2512 6.5312-5.781 14.876-7.8441 18.544-3.135 5.5742-3.3801 6.5592-1.4925 5.9989 1.2421-0.36868 6.7809-1.8048 12.308-3.1913 10.042-2.5191 26.394-7.7403 33.189-10.597 7.7392-3.2541 14.537-16.935 18.698-37.63 1.7936-8.9206 1.8374-45.941 0.0751-63.621-1.6132-16.185-0.0736-29.241 5.6482-47.896 2.4853-8.103 5.7757-19.233 7.3121-24.733 3.0205-10.813 4.8533-24.491 2.9035-21.668-0.74272 1.0751-0.86256 0.11262-0.33707-2.7067 1.0377-5.5671 5.535-22.342 6.8703-25.625 0.55915-1.375 1.3148-4.6554 1.6793-7.2898 0.36447-2.6344 1.811-7.1618 3.2144-10.061 3.1795-6.568 22.692-62.141 27.597-78.6 2-6.7104 3.3483-12.951 2.9962-13.869-0.80964-2.1099 4.7899-18.911 7.259-21.78 1.018-1.1828 2.8989-3.9788 4.1799-6.2131 2.4674-4.3039 6.151-5.3051 8.5272-2.3178 1.496 1.8807 43.797 5.796 62.332 5.7693 15.949-0.023 63.601-11.255 85.306-20.108 4.8125-1.9628 18.031-5.8951 29.375-8.7384s21.159-5.6754 21.812-6.2937c0.6531-0.61824 2.6936-1.1241 4.5344-1.1241s4.0472-0.84375 4.903-1.875c1.7531-2.1123 12.5-2.6497 12.5-0.625 0 0.6875-0.675 1.25-1.5 1.25-1.0318 0-1.097 0.40298-0.209 1.2911 0.7101 0.7101 9.682 1.625 19.938 2.0332 20.511 0.81637 28.809-0.25526 55.521-7.1702 23.48-6.0782 45.94-15.308 85.257-35.034 17.792-8.927 46.514-20.99 53.589-22.507 4.4703-0.9587 6.1539-1.907 6.1539-3.4662 0-2.1752 2.252-5.1464 3.9007-5.1464 0.4954 0 1.2539 1.6084 1.6857 3.5743s2.4452 5.1649 4.4743 7.1089 3.6893 4.5144 3.6893 5.712c0 2.4312 4.8195 3.607 24.517 5.9815 17.471 2.1062 18.962 1.9005 31.824-4.3912 17.401-8.5118 20.568-9.4315 32.409-9.4118 10.527 0.0175 10.58 0.002 5.75-1.6952-6.7613-2.3756-9.0539-6.7892-5.4375-10.468 0.8643-0.87915-1.3907-0.43227-5.0463 1-5.63 2.2059-9.3555 2.5894-25.156 2.5894-23.676 0-26.36-0.50069-26.36-4.9173 0-5.4461 2.6435-7.8741 8.7473-8.0342 3.3618-0.0881 5.6295 0.45681 5.9542 1.4309 0.2884 0.86529 2.0204 2.3345 3.8489 3.265 2.8582 1.4544 4.903 1.366 14.575-0.63029 6.1875-1.2771 14.107-2.3315 17.599-2.343 5.7458-0.019 6.3398-0.2842 6.25-2.7908-0.1533-4.2765 4.7102-5.8011 21.219-6.6514 12.435-0.64049 17.231-0.31667 28.682 1.9364 17.42 3.4275 27.254 4.3462 30.011 2.8034 1.916-1.0723 1.672-1.5876-2.1217-4.4812-5.9593-4.5454-20.303-9.7829-28.515-10.412-3.7812-0.28972-15.944-1.3477-27.03-2.3511-23.967-2.1694-36.97-2.3253-38.829-0.4654-0.8799 0.87991-1.6291 0.92178-2.1254 0.11875-0.4929-0.7975-3.2489-0.59187-7.7215 0.57608-7.1361 1.8635-56.957 12.025-66.482 13.56-2.9219 0.47081-5.3125 1.3691-5.3125 1.9962 0 0.62706-3.2344 1.145-7.1875 1.151s-14.219 0.84149-22.812 1.8567c-34.994 4.1339-51.92 3.832-111.25-1.9845-25.301-2.4804-55.171 0.39864-73.953 7.1278-15.036 5.3872-15.054 5.4073-7.8679 8.6422 11.894 5.3541 22.561 17.656 21.582 24.89-0.3298 2.436-15.9 17.484-16.977 16.408-0.1926-0.19266 1.7739-4.3764 4.3702-9.2972 3.2417-6.144 5.6279-9.185 7.6169-9.7068l2.8964-0.75994-3.5214-3.7116c-3.996-4.2118-13.741-9.4093-24.771-13.212-4.125-1.4221-9.5913-3.4693-12.147-4.5494-9.556-4.0381-39.235-1.7029-102.85 8.0926-13.062 2.0113-27.96 4.4686-33.105 5.4607-10.442 2.0134-12.904 1.2072-12.27-4.0175 0.45615-3.7582-2.0085-4.6171-29.624-10.324-16.357-3.38-21.208-3.8676-38.016-3.8213-10.597 0.0291-21.847 0.40034-25.001 0.82484-12.601 1.696-33.839 5.8826-44.484 8.7686-12.896 3.4963-19.116 3.8316-22.574 1.2166-1.3345-1.0094-3.8485-1.8531-5.5867-1.875-4.6709-0.0587-18.788-7.2655-34.15-17.434-7.4584-4.9367-18.286-11.531-24.062-14.654-10.128-5.4761-13.471-8.4939-7.7533-6.9986 2.2588 0.59068 1.658-0.66936-3.3714-7.071l-6.1199-7.7897-3.8161 4.3371c-5.3165 6.0424-23.772 16.499-31.045 17.59-3.2426 0.48627-5.8957 1.4777-5.8957 2.2032 0 0.75221-1.4204 1.0476-3.3051 0.68732-1.8178-0.34749-5.0522-0.12162-7.1875 0.50199-2.1353 0.62359-9.1648 1.6901-15.621 2.37-16.321 1.7188-23.555 5.2857-33.74 16.637l-7.9791 8.8922 3.6041 1.4359c1.9823 0.78975 8.1041 1.7844 13.604 2.2103l10 0.7744 14.097-13.715c18.798-18.289 22.307-20.093 16.344-8.4042-1.4766 2.8945-6.3184 9.0267-10.76 13.627l-8.075 8.3645 4.1971 1.7755c5.0858 2.1514 7.9566 5.3199 9.0733 10.014 0.69713 2.9304 0.109 4.2463-3.519 7.8744-4.2992 4.2992-4.4832 4.3522-14.107 4.0684-10.875-0.3208-22.504 1.0511-23.573 2.781-0.38509 0.6231-1.8312 1.1329-3.2137 1.1329-1.3824 0-5.0111 1.7184-8.0637 3.8186s-8.6468 4.4681-12.432 5.262l-6.8814 1.4434-3.7346-4.5306c-3.5536-4.3112-4.2037-4.5691-13.419-5.3244-12.2-1.03-27.78-4.26-27.78-5.79 0-2.772-6.4475-0.30074-36.379 13.943-17.461 8.3094-31.944 15.304-32.185 15.543-0.24145 0.23934 3.1336 2.2323 7.5 4.4287 9.8135 4.9366 28.086 17.328 32.499 22.039 4.4247 4.7237 5.3954 8.3721 2.8931 10.874-1.1037 1.1037-2.8745 2.0067-3.9352 2.0067-2.3284 0-12.822-8.8128-30.114-25.29l-12.846-12.24-4.0294 2.0752c-2.2162 1.1414-14.998 7.9594-28.404 15.151-32.961 17.682-31.283 16.828-47.5 24.164-7.9062 3.5763-15.326 7.3216-16.489 8.323-2.1074 1.8153-10.622 6.6883-20.699 11.846-2.9219 1.4955-5.3125 3.0469-5.3125 3.4475 0 0.40059 5.874 1.7719 13.053 3.0474 17.65 3.1357 38.518 2.278 57.572-2.3662 31.921-7.7807 47.703-13.822 65-24.881 9.6776-6.1878 11.861-7.0994 15.625-6.5227 5.9534 0.91225 8.9689 4.8672 8.498 11.145-0.22616 3.0152 0.21055 5.176 1.1094 5.4893 0.93007 0.32416 1.6287-1.2116 1.875-4.1217 0.49273-5.8218 4.05-8.5541 6.6254-5.0888 0.94128 1.2665 2.0711 4.6415 2.5108 7.5 1.785 11.606 13.653 53.304 17.627 61.936 4.8427 10.517 4.9814 11.046 2.3152 8.8335-1.0664-0.88501 0.0764 1.4368 2.5394 5.1594 8.3877 12.677 13.067 25.396 11.166 30.351-0.99671 2.5974-7.4868 2.726-8.4685 0.1678-0.39572-1.0312-1.4403-1.879-2.3212-1.8838-0.9472-0.005-2.4687-3.6038-3.7233-8.8062-2.9603-12.275-7.2236-20.984-15.926-32.533-15.257-20.248-24.577-39.791-25.941-54.395-0.41536-4.448-1.2136-8.3706-1.7738-8.7169-0.56024-0.34625-3.8188 0.78942-7.2412 2.5237-22.281 11.291-56.421 20.035-90.586 23.203-17.657 1.6371-25.998 1.1433-45.886-2.7164l-13.226-2.5668-5.4711 2.7912c-3.5902 1.8316-5.6325 2.3071-5.9404 1.3832-0.25813-0.77437-1.8287-1.408-3.4902-1.408-2.1875 0-3.0208 0.68965-3.0208 2.5 0 2.3062-0.83333 2.5-10.749 2.5-7.1798 0-12.122-0.65188-14.886-1.9633-2.274-1.08-10.258-8.36-17.741-16.16-15.008-15.67-17.987-17.31-24.763-13.66-4.1062 2.2113-4.3123 2.2102-6.7973-0.0387-3.7711-3.4128-3.2885-9.8185 1.3602-18.056 4.7243-8.3711 12.856-19.591 17.305-23.876 1.7843-1.7188 4.7977-6.3331 6.6965-10.254 8.3433-17.229 37.555-35.674 65.96-41.649 21.719-4.5687 61.294-9.2674 84.24-10.002 27.72-0.88719 47.924-3.247 63.99-7.4739 13.016-3.4245 32.721-12.838 35.083-16.759 0.99357-1.6496 2.8586-2.6118 5.0625-2.6118 4.6653 0 6.4908-2.0945 6.4824-7.4375-0.0181-11.566-3.8796-16.336-17.196-21.244-6.3803-2.3514-7.9591-3.4916-8.5347-6.1642-0.38848-1.8035-1.184-4.4041-1.7678-5.7791s-1.3544-5.0313-1.7124-8.125c-0.35799-3.0938-2.0779-14.062-3.8221-24.375-7.326-43.316-1.8629-74.692 17.4-99.933 13.227-17.332 37.376-33.321 59.442-39.357 13.013-3.5596 39.915-4.0037 50.573-0.83478 18.413 5.4746 39.083 19.482 48.111 32.605 6.0941 8.8575 13.488 24.671 16.987 36.334 3.4347 11.446 4.2 21.91 4.2575 58.213l0.019 12.027 8.2633 12.66c4.5448 6.9632 8.8923 12.66 9.661 12.66 3.5564 0 18.5 6.7393 19.631 8.8535 1.614 3.0157-1.7718 8.6465-5.1991 8.6465-1.2959 0-2.3562 0.32397-2.3562 0.71995 0 1.3652 10.964 14.913 14.853 18.352 2.1435 1.8959 3.9079 4.1459 3.9207 5 0.0277 1.8386 44.451 23.479 48.136 23.449 1.3939-0.0113 3.742 0.82502 5.2179 1.8588 2.4344 1.7052 4.1136 1.5302 18.091-1.885 32.179-7.8629 52.348-9.9089 75.651-7.6746 17.302 1.6589 29.035 4.608 53.127 13.354l18.761 6.8106 13.482-2.4276c37.911-6.8265 73.268-10.244 102.87-9.9421 11.54 0.1175 21.337-0.14138 21.771-0.57539 0.4341-0.43401 2.6309-0.78911 4.882-0.78911s4.4855-0.6352 4.9653-1.4116c1.4666-2.3729 18.211-9.538 29.359-12.563 12.567-3.41 29.156-3.746 68.041-1.378 51.991 3.1661 53.429 3.1413 123.75-2.1359 35.585-2.6704 94.228-10.741 97.13-13.367 1.9541-1.7684 5.3668-1.9045 28.793-1.1482 36.447 1.1766 51.983 3.413 68.391 9.8449 15.29 5.9935 21.864 11.132 22.972 17.957 1.0814 6.6643-0.8974 9.5646-6.1105 8.956-2.6956-0.3147-4.4542 0.0936-4.8505 1.1261-0.3419 0.8909-2.1861 1.626-4.0983 1.6336-1.9122 0.007-5.5861 0.36241-8.1642 0.78855-4.3458 0.71831-4.6875 1.0846-4.6875 5.0255 0 2.3379-0.7136 4.5245-1.5859 4.8592-0.8722 0.33472-6.0754-0.56682-11.562-2.0034-5.4871-1.4366-11.383-2.7805-13.102-2.9864-1.7188-0.20592-6.661-1.3285-10.983-2.4947l-7.8578-2.1202-3.3922 3.6182c-8.0073 8.5404-12.675 10.426-30.395 12.28-15.381 1.609-17.347 2.128-29.121 7.6851l-12.626 5.9595h-21.875c-20.292 0-22.256-0.20346-27.138-2.8125-2.8945-1.5469-6.9101-2.8125-8.9235-2.8125-5.0569 0-27.27 7.8426-57.689 20.367-45.28 18.644-60.016 23.541-85 28.246-18.038 3.3972-57.504 8.0879-68.125 8.0969-8.8435 0.007-18.013-2.1817-19.631-4.687-0.6326-0.97937-1.8667-0.95327-4.375 0.0925-21.186 8.8332-27.473 11.091-38.94 13.984-7.3172 1.8462-13.867 3.6996-14.554 4.1186-5.2062 3.1727-52.164 13.67-85.625 19.141-6.6935 1.0944-23.874 2.2332-39.375 2.6099l-27.5 0.66831-3.3552 12.195c-3.7017 13.454-11.141 33.884-17.73 48.689-18.276 41.067-17.468 38.759-17.799 50.853-0.35764 13.079-4.2498 28.906-19.501 79.301-10.605 35.041-11.318 40.173-11.562 83.199-0.23364 41.209-0.0631 43.958 2.5902 41.756 1.3605-1.1291 1.7311-0.97694 1.7311 0.71094 0 2.3204 3.649 8.1186 8.3207 13.221 2.8272 3.088 5.5167 12.84 9.6358 34.937 0.833 4.4688 2.779 10.094 4.3245 12.5 12.154 18.924 25.11 53.528 36.034 96.25 8.1567 31.898 11.468 55.118 12.922 90.625 1.0911 26.641 1.7682 38.523 4.4207 77.577 0.6103 8.9859 0.41416 10.322-1.8113 12.336-1.7295 1.5652-3.4901 2.009-5.7348 1.4456-2.2259-0.5586-4.3131-0.048-6.6729 1.6322-3.0602 2.1791-3.6093 3.7137-5.0456 14.102-2.344 16.954-7.1716 39.215-10.816 49.876-7.6247 22.304-15.409 67.782-17.315 101.16-0.82114 14.379-1.8156 23.979-2.2659 21.875-0.44138-2.0625-1.4919-15.005-2.3346-28.761-1.483-24.21-0.9552-37.919 2.1649-56.235l0.85113-4.9965-5.5901 6.8575c-3.0745 3.7717-8.2411 8.4965-11.481 10.5-6.2464 3.8618-9.4396 3.676-4.5715-0.266l2.8887-2.3391-7.0866 0.5877c-4.7603 0.3948-7.0866 0.1265-7.0866-0.8171 0-0.7726 1.4287-1.4048 3.1748-1.4048 4.7057 0 12.51-4.4178 15.99-9.051 8.9934-11.975 18.52-38.685 24.564-68.873 2.1803-10.89 3.7802-19.972 3.5553-20.183-0.22489-0.2111-5.7526 2.0186-12.284 4.9549-26.057 11.714-66.972 24.586-99.97 31.45-8.6104 1.7912-15.795 3.3744-15.965 3.5183-0.6709 0.5668 3.4934 28.425 6.488 43.403 6.7072 33.548 12.577 45.066 28.744 56.401 5.4355 3.8112 3.488 9.6292-3.2232 9.6292-1.8844 0-3.7739-0.5625-4.1988-1.25-3.4194-5.5327-4.7931 7.1281-2.5779 23.759 1.7027 12.784 8.6559 43.933 12.768 57.2 1.9327 6.2353 1.8906 7.8476-0.79312 30.378-3.6631 30.754-3.1949 67.742 1.0765 85.034 4.0449 16.375 11.187 36.138 14.471 40.04 7.6788 9.1257 16.031 65.225 18.493 124.21l0.313 7.5 6.875 3.5165c6.3559 3.2509 7.7717 3.4858 18.75 3.1095 7.2643-0.2489 13.331-1.1328 15.625-2.2764 3.3428-1.6664 3.78-2.547 4.0262-8.1095 2.6782-60.504 4.764-86.377 9.7736-121.24 5.1684-35.968 6.2741-58.04 4.5665-91.157-1.6547-32.092-3.735-50.325-7.784-68.224-5.2567-23.238-6.9647-35.404-6.4485-45.931 0.27817-5.6719 0.96822-10.312 1.5334-10.312 0.56524 0 1.3576 3.2344 1.7607 7.1875 0.94826 9.2979 3.3588 20.669 8.8109 41.562 7.209 27.626 9.4748 46.135 10.274 83.925 0.7173 33.91-0.31793 53.297-4.129 77.325-4.6565 29.358-9.5556 80.82-11.253 118.21l-0.85519 18.832 3.7417 5.1653c5.6444 7.7918 9.1636 22.987 11.204 48.374 0.43954 5.4699 3.9236 19.397 9.3765 37.482 14.154 46.943 17.537 76.93 10.563 93.622-3.1158 7.457-13.625 17.567-22.316 21.467-19.013 8.5325-57.455 5.8446-71.69-5.0124-10.01-7.5-18.09-24.8-18.09-38.5 0-10.276 2.7981-25.038 6.28-33.132 2.635-6.1251 2.6785-7.2315 2.0826-52.919-0.33473-25.665-0.994-47.613-1.465-48.775-2.0367-5.0203 3.9495-23.163 9.721-29.461 2.2432-2.4481 2.6021-4.5214 2.7048-15.625 0.0651-7.0414-0.30326-15.052-0.81866-17.802s-2.0958-14.844-3.5119-26.875c-5.2729-44.796-9.1292-63.351-16.012-77.042-4.2404-8.4347-9.727-24.21-14.072-40.458-1.8068-6.7571-3.6596-28.826-3.6579-43.57 0.001-14.11 2.5083-39.669 5.7184-58.305l1.9378-11.25-6.7527-16.25c-13.806-33.223-17.394-47.886-17.102-69.894 0.14459-10.901-0.24748-13.536-2.8989-19.481-5.7537-12.901-10.904-41.772-10.904-61.12 0-4.4498-0.91787-11.362-2.0397-15.36l-2.0397-7.2695h-5.4578c-4.61 0-6.2122-0.7281-10.314-4.6875-4.8218-4.6538-4.862-4.773-5.5936-16.562-0.67676-10.906-4.0223-45.131-5.1319-52.5-0.25881-1.7187-1.7817-14.375-3.3842-28.125l-2.9136-25-0.75751 15.625c-0.41664 8.5937-1.6399 19.562-2.7184 24.375-1.0784 4.8125-2.8731 18.031-3.9881 29.375s-2.5525 24.281-3.1944 28.75c-0.64191 4.4688-1.1782 10.591-1.1919 13.604-0.0209 4.6223-0.75789 6.235-4.7123 10.311-3.7393 3.8546-5.6024 4.8323-9.2103 4.8332-4.4445 0-4.5581 0.1269-6.5625 7.2706-1.1218 3.9982-2.0397 11.194-2.0397 15.989 0 19.08-5.6104 50.364-11.052 61.627-1.7771 3.6781-2.2854 8.1459-2.4458 21.496-0.25315 21.075-2.9162 32.269-14.65 61.582l-8.442 21.088 2.0427 15.162c3.19 24 4.54 40.2 4.54 54.8 0 14.903-1.8454 36.966-3.6594 43.75-4.3446 16.248-9.8313 32.024-14.072 40.458-6.8825 13.69-10.739 32.245-16.012 77.042-1.4162 12.031-2.9965 24.125-3.5119 26.875-0.51541 2.75-0.8838 10.761-0.81867 17.802 0.10275 11.104 0.46159 13.177 2.7048 15.625 5.7715 6.2987 11.758 24.441 9.721 29.461-0.47105 1.1613-1.1301 23.09-1.4645 48.731l-0.60806 46.62 3.0989 7.7554c9.9166 24.817 6.5113 51.398-8.5351 66.624-7.4215 7.5103-16.624 11.122-33.191 13.026-11.499 1.322-15.475 1.3254-26.778 0.024zm36.25-8.8285c5.5-1.3729 12.25-4.0399 15-5.9266 5.4137-3.7143 10.242-11.963 11.485-19.619l0.75755-4.6683-6.2802 6.2802c-7.5606 7.5606-13.05 9.4841-35.337 12.382-14.795 1.9235-16.135 1.9111-25.234-0.2341-8.6862-2.048-9.795-2.0793-11.55-0.3245-2.2394 2.2393-8.8035 3.9526-10.686 2.7891-0.70427-0.4353-1.2805-0.2725-1.2805 0.3616 0 1.6489 13.32 7.4015 22.002 9.5022 11.017 2.6657 29.234 2.4254 41.123-0.5423zm282.68 1.3682c8.5256-1.6168 19.779-5.9817 23.202-8.9995 1.5751-1.3885 2.1469-2.1587 1.2708-1.7117-2.2146 1.13-8.6835-0.4524-10.897-2.6655-1.6185-1.6185-3.0437-1.58-11.892 0.3214-9.4046 2.021-11.039 2.0298-25.336 0.137-21.214-2.8087-27.676-5.1184-35.154-12.567l-6.1212-6.0969 0.75755 4.6683c1.2412 7.6485 6.0719 15.904 11.485 19.628 10.175 6.9996 35.63 10.52 52.684 7.2856zm-339.15-17.162c0.45534-0.4553-1.9637-2.7078-5.3757-5.0056-3.412-2.2977-6.8043-5.3002-7.5385-6.6721-0.73422-1.3719-1.8777-2.4944-2.541-2.4944-1.7461 0-1.4818 6.6726 0.35647 9.0021 3.3137 4.1989 12.816 7.4527 15.099 5.17zm367.52-1.0451c4.946-2.0665 7.0727-5.0494 7.0727-9.9199 0-3.8265-1.8883-4.1857-3.747-0.7127-0.73423 1.3719-4.1266 4.3743-7.5385 6.6721-8.3257 5.6069-5.6801 8.0941 4.2128 3.9605zm-310.86-1.2404c8.7617-2.602 14.102-6.5496 18.515-13.686l3.7889-6.1275 0.23176-23.224c0.12748-12.773-0.34464-26.599-1.0491-30.724-1.6464-9.6403-1.52-44.266 0.18473-50.597 1.359-5.0468 0.10812-14.178-2.2676-16.554-3.3329-3.3329-15.225 5.862-15.225 11.772 0 2.6863 0.70317 3.9214 2.5 4.3914 3.2214 0.8424 3.2259 3.7132 0.007 4.7347-6.6939 2.1247-8.3625 9.2367-3.1324 13.351 4.1939 3.2989 3.9541 5.9234-0.625 6.8391-2.4937 0.4988-3.75 1.501-3.75 2.9915 0 1.2329-0.3136 3.0588-0.69689 4.0576-0.38328 0.9988 0.15144 2.6644 1.1883 3.7013 1.0368 1.0367 2.2286 3.2534 2.6483 4.9256 0.61078 2.4336 0.124 3.3318-2.4383 4.4993-2.7502 1.2531-3.2014 2.2576-3.2014 7.1281 0 4.773 0.61824 6.2217 3.91 9.163 3.0901 2.761 3.7196 4.0935 3.002 6.3545-0.68927 2.1717-1.6162 2.7256-3.8474 2.2991-2.2548-0.431-3.0267 0.048-3.3145 2.0551-0.25998 1.8135-2.9567 3.9297-8.7838 6.8925l-8.4086 4.2757-5.1793-2.3355c-4.9849-2.2479-16.129-11.91-16.129-13.984 0-0.5535 1.4062-3.0759 3.125-5.6053 3.6238-5.3329 3.9473-9.2513 1.0996-13.317-1.7555-2.5063-1.7971-3.3195-0.3125-6.1014 2.0143-3.7744 1.9987-16.884-0.0209-17.558-1.7303-0.5768-1.8393-6.0809-0.14118-7.1304 2.303-1.4234 1.3532-6.7318-1.4753-8.2456-2.4998-1.3378-2.5515-1.5855-0.625-2.9943 2.6203-1.916 2.6392-4.6166 0.0922-13.193-1.9829-6.6773-2.0348-6.7285-4.1628-4.1005-1.2234 1.5108-2.7566 6.902-3.547 12.472-0.76568 5.3961-4.7267 21.061-8.8022 34.811-4.0756 13.75-7.7652 26.406-8.1993 28.125-1.8202 7.207-3.0448 26.224-2.1932 34.06 0.79219 7.2892 1.5021 9.0444 5.2271 12.924 6.2207 6.479 14.75 10.363 28.495 12.976 15.082 2.8669 25.432 3.0759 33.511 0.6769zm276.99-0.5791c14.871-2.7321 23.241-6.4262 29.623-13.074 3.7162-3.8706 4.4398-5.6521 5.2494-12.924 1.8615-16.722 0.26486-26.267-10.401-62.185-4.0831-13.75-8.0504-29.415-8.816-34.811-0.76997-5.4264-2.3295-10.969-3.4896-12.401-2.0579-2.5413-2.1364-2.476-4.1628 3.4713-2.6275 7.7111-2.617 11.812 0.0349 13.751 1.9265 1.4088 1.8748 1.6565-0.625 2.9943-2.8285 1.5139-3.7783 6.8222-1.4753 8.2456 1.726 1.0668 1.5761 6.558-0.19513 7.1484-2.1004 0.7001-2.0649 15.128 0.0434 17.669 1.4341 1.7278 1.3838 2.6956-0.327 6.301-2.7202 5.7323-2.562 7.5936 1.1037 12.988 1.7188 2.5294 3.125 5.0518 3.125 5.6053 0 2.074-11.144 11.736-16.128 13.984l-5.1793 2.3355-8.4086-4.2757c-5.8271-2.9628-8.5238-5.079-8.7838-6.8925-0.2878-2.0076-1.0596-2.4861-3.3145-2.0551-2.2312 0.4265-3.1581-0.1274-3.8474-2.2991-0.71764-2.261-0.0881-3.5935 3.002-6.3545 3.2918-2.9413 3.91-4.39 3.91-9.163 0-4.8705-0.45116-5.875-3.2014-7.1281-2.5623-1.1675-3.0491-2.0657-2.4383-4.4993 0.41973-1.6722 1.6114-3.8889 2.6483-4.9256 1.0368-1.0369 1.5716-2.7025 1.1883-3.7013-0.38329-0.9988-0.69689-2.8247-0.69689-4.0576 0-1.4905-1.2563-2.4927-3.75-2.9915-4.5791-0.9157-4.8189-3.5402-0.625-6.8391 5.2301-4.1141 3.5615-11.226-3.1324-13.351-3.2185-1.0215-3.214-3.8923 0.007-4.7347 1.7968-0.47 2.5-1.7051 2.5-4.3914 0-5.9097-11.892-15.105-15.225-11.772-2.3816 2.3816-3.6263 11.508-2.2609 16.578 1.6168 6.0043 1.7838 42.01 0.23448 50.572-1.607 8.8805-1.8139 47.313-0.28528 52.99 2.6964 10.014 9.0674 16.392 20.222 20.244 8.6417 2.9843 17.43 2.9712 33.877-0.05zm-293.22-52.014c5.569-4.2476 4.211-5.9612-4.1731-5.2659-8.6389 0.7164-10.916 2.7334-6.8439 6.0612 3.9078 3.1931 5.9845 3.0431 11.017-0.7953zm288.08 0.7953c4.1933-3.4264 1.6902-5.4194-7.6554-6.0954-8.6687-0.627-9.4445 0.5576-3.4561 5.2771 4.8758 3.8428 7.2005 4.014 11.112 0.8183zm-292.14-12.549 7.5913-0.7895-5.927-2.994-5.927-2.994-3.7161 3.5603c-3.438 3.2937-4.1608 6.8176-0.99742 4.8625 0.76167-0.4708 4.8009-1.2111 8.9761-1.6453zm292.76-3.5601-3.2506-3.2505-5.9611 3.0105-5.9611 3.0106 7.8325 0.8117c4.3078 0.4462 8.2336 1.2126 8.724 1.703 0.49032 0.4903 1.111 0.2331 1.3792-0.5717 0.26824-0.8046-0.97506-2.9257-2.7629-4.7136zm-283.29-5.9c0-2.3767-1.7926-3.3918-4.2941-2.4319-1.5638 0.6001-1.6958 1.1653-0.58475 2.5041 1.8786 2.2636 4.8788 2.2193 4.8788-0.072zm271.13 0.073c1.1111-1.3388 0.97908-1.9041-0.58475-2.5042-2.5016-0.9599-4.2941 0.055-4.2941 2.4319 0 2.2915 3.0002 2.3359 4.8788 0.072zm-276.91-7.0795c6.4495-2.8529 7.4093-5.6354 2.5775-7.4726-4.4039-1.6742-4.2954-1.7002-11.185 2.6693-5.7643 3.6555-5.989 3.992-3.7558 5.625 3.2103 2.3474 5.5509 2.1917 12.364-0.8218zm290.18 0.8217c2.2332-1.633 2.0085-1.9695-3.7558-5.625-6.6444-4.2139-8.2839-4.569-11.974-2.5942-3.8603 2.066-2.8269 4.6733 2.8947 7.3033 6.459 2.969 9.7098 3.2009 12.835 0.9159zm-300.65-12c1.6667-1.0941 1.6667-1.3677 0-2.4618-2.8104-1.8448-3.75-1.5365-3.75 1.2309s0.9396 3.0758 3.75 1.2309zm302.5-1.2309c0-2.7674-0.9396-3.0758-3.75-1.2309-1.6667 1.0941-1.6667 1.3677 0 2.4618 2.8104 1.8449 3.75 1.5365 3.75-1.2309zm-285.35-7.7254c2.9485-2.447 1.6512-4.5233-4.0373-6.4616-5.9623-2.0315-11.7-1.1329-15.519 2.4306-1.5172 1.4157-0.78938 2.1267 4.8545 4.7414 6.7424 3.1239 10.288 2.9525 14.702-0.7104zm282.6-0.6703c2.9606-1.2194 0.94483-4.4568-3.7962-6.0967-3.9524-1.3672-5.5513-1.3167-10.377 0.3276-6.8091 2.3202-7.0358 4.9942-0.69205 8.1638 3.8808 1.939 4.6425 1.9562 8.7463 0.199 2.4724-1.0588 5.226-2.226 6.1192-2.5938zm-283.51-18.981c3.7202-1.3709 5.74-2.9007 5.9862-4.5337 0.95286-6.322 1.8126-8.3314 5.2306-12.224 2.0187-2.2991 5.9481-5.2074 8.7319-6.4627 3.7599-1.6955 5.0616-3.0127 5.0616-5.1217 0-10.017-19.696-17.563-32.228-12.346-7.8666 3.2747-20.227 11.101-20.251 12.822-0.0125 0.897 1.1532 4.2105 2.5894 7.3632 1.4362 3.1526 3.294 9.4315 4.1286 13.953 1.2982 7.034 1.959 8.3461 4.5762 9.0871 3.6571 1.0354 8.5752 0.2643 16.174-2.536zm285.18 1.621c0.43526-0.2537 1.1653-3.4537 1.6222-7.111 0.45695-3.6572 2.2102-9.6267 3.8961-13.266 1.6859-3.6389 3.0555-7.5446 3.0434-8.6795-0.0221-2.0944-11.519-9.6193-20.251-13.254-9.2354-3.8445-21.47-1.6922-28.106 4.9443-5.8115 5.8115-5.5264 9.6077 0.94042 12.524 2.7839 1.2553 6.7132 4.1636 8.7319 6.4627 3.4288 3.9053 4.3136 5.983 5.2203 12.26 0.68571 4.7465 19.379 9.3403 24.903 6.1195zm-297.36-49.275c8.0259-3.643 21.254-3.3648 29.11 0.6122 3.3484 1.6953 6.244 2.9263 6.4346 2.7355 0.19063-0.1906-0.15185-3.4092-0.76108-7.1525-0.60924-3.7432-0.78872-8.4898-0.39887-10.548l0.70881-3.7421-5.1104 4.6044c-8.0801 7.2797-20.666 9.3104-33.526 5.4091-3.3749-1.0237-6.4942-1.8675-6.9317-1.875-0.43756-0.013-1.162 2.6584-1.6098 5.924-0.44785 3.2656-1.1455 7.6055-1.5504 9.6443l-0.73611 3.7066 4.5255-3.4518c2.489-1.8985 6.9197-4.5385 9.846-5.8667zm303.2-0.5833c-0.65646-4.806-1.3777-8.9223-1.6028-9.1475-0.22506-0.225-3.3793 0.4729-7.0094 1.5509-13.406 3.9811-25.768 2.0466-33.934-5.3106l-5.1104-4.6044 0.70881 3.7421c0.38985 2.0582 0.21036 6.8048-0.39887 10.548-0.60923 3.7433-0.95172 6.9619-0.76108 7.1525 0.19065 0.1908 3.0862-1.0402 6.4346-2.7355 11.576-5.8605 28.142-3.5478 39.396 5.4995 1.7085 1.3737 3.1883 2.3953 3.2886 2.2704 0.10025-0.125-0.35487-4.1592-1.0113-8.9654zm-321.03 2.1022c-0.0165-1.8217-0.18661-1.8547-1.2309-0.2388-1.582 2.448-1.582 4.1028 0 3.125 0.6875-0.4249 1.2414-1.7237 1.2309-2.8862zm327.67 0.1675c-1.0894-1.8735-1.3334-1.9275-1.3646-0.3022-0.0404 2.1052 1.274 4.0005 2.1599 3.1147 0.29219-0.2922-0.0657-1.5578-0.79532-2.8125zm-188.9-519.8c0-4.4634 1.3933-15.292 3.0962-24.062 5.1737-26.648 11.904-92.114 11.904-115.79 0-18.179-0.26549-20.831-2.3417-23.395l-2.3417-2.8918-12.561 5.8302c-13.51 6.2705-21.401 8.7959-17.493 5.598 1.1756-0.96185 8.054-4.5158 15.285-7.8977 7.2314-3.3818 13.16-6.4892 13.175-6.9052 0.0149-0.41601-3.9184-2.2131-8.7408-3.9935s-11.432-5.3706-14.688-7.9782c-27.164-21.756-46.668-38.481-45.377-38.911 3.728-1.2427 24.066 8.9083 40.707 20.318 6.1875 4.2422 16.193 10.164 22.235 13.159 9.9748 4.9448 11.871 5.4555 20.625 5.5543 12.377 0.13979 19.771-2.0686 30.085-8.9846 10.635-7.1322 43.931-23.884 43.931-22.103 0 0.77772-8.7016 6.1582-17.131 10.592-3.9845 2.0961-12.307 7.9696-18.494 13.052-6.1875 5.0827-14.183 10.797-17.768 12.698-4.633 2.4569-6.1678 3.878-5.3077 4.9143 0.83379 1.0046 0.22894 2.1935-1.9456 3.8241-1.7355 1.3014-3.7033 4.3349-4.3728 6.7412-1.799 6.4655-1.4662 36.946 0.61404 56.25 4.1 38.046 8.4106 71.324 10.712 82.696 1.3435 6.6393 2.4428 16.144 2.4428 21.121v9.0495l9.0625-0.7915c9.9613-0.87 36.281-6.7948 65.312-14.702 19.364-5.2744 37.101-11.496 70.777-24.825l19.527-7.7291-0.48728-46.472c-0.67099-63.992-2.6141-84.07-11.876-122.72-3.9175-16.348-17.719-62.696-19.073-64.05-0.39951-0.39952-1.7142 0.14146-2.9216 1.2022-1.2073 1.0607-11.244 7.0112-22.303 13.223-11.059 6.2121-26.809 15.75-35 21.195-15.151 10.073-19.676 12.804-21.213 12.804-1.9957 0 3.0185-4.3569 10.639-9.2442 4.5002-2.8862 20.276-13.005 35.057-22.487 14.781-9.4817 28.524-18.558 30.54-20.17l3.6647-2.9303-5.4737-13.968c-3.0106-7.6825-6.2097-14.251-7.1092-14.596-0.89953-0.34517-1.9855-2.8162-2.4132-5.4912-0.42775-2.675-0.9191-4.8636-1.0919-4.8636s-3.5643 1.488-7.5367 3.3066c-6.9342 3.1746-7.2896 3.2149-8.901 1.0111-0.92-1.25-1.68-2.67-1.68-3.13 0-0.4622 3.4461-2.3869 7.6581-4.2771 4.2119-1.8902 7.1059-3.7952 6.4311-4.2332-0.67481-0.43805-1.9137-3.0465-2.753-5.7965-0.83935-2.75-1.7526-5.7178-2.0294-6.5951-0.35779-1.1338-2.0471-0.61554-5.8426 1.7926-9.0587 5.7476-37.725 13.158-62.852 16.248-24.594 3.0244-90.746 2.9362-119.67-0.1595-29.962-3.2064-54.972-9.3643-65.804-16.202-2.8745-1.8146-5.7152-2.9971-6.3128-2.6277-0.99467 0.61474-5.0705 11.235-5.0705 13.211 0 1.5048 20.359 10.864 29.375 13.504 22.681 6.6416 44.555 8.8963 95 9.7922 43.778 0.7775 59.518-0.33034 93.485-6.5798 19.029-3.501 25.902-3.5897 18.39-0.23733-11.556 5.1568-39.389 9.9656-71.25 12.31-31.114 2.2894-88.25-0.24028-117.47-5.2008-14.039-2.3833-36.075-9.083-45.286-13.768l-4.6298-2.355-1.126 4.0585c-0.61927 2.2322-2.5309 6.1239-4.248 8.6483-6.2706 9.2187-27.467 75.114-33.907 105.41-6.715 31.59-8.485 47.951-9.0597 83.75-0.29799 18.562-0.73025 43.394-0.96057 55.181l-0.41876 21.431 13.24 5.2986c41.731 16.7 64.411 24.355 96.365 32.524 19.686 5.0325 43.084 9.7207 49.062 9.8306l5.9375 0.1092v-8.1152zm114.66-111.27c-34.928-7.4611-61.562-21.766-73.912-39.698-4.3083-6.2555-5.0629-10.881-1.775-10.881 1.5638 0 10.69 6.4004 15.091 10.584 5.6904 5.4086 3.8729 6.1986-2.8712 1.248-3.4698-2.5471-6.548-4.3918-6.8404-4.0994-1.9323 1.9323 14.643 16.544 25.725 22.678 15.56 8.6125 46.368 17.827 68.169 20.389 4.4789 0.5264 6.7546 1.3676 6.7546 2.4968 0 2.7033-8.5508 1.9375-30.342-2.7174zm-197.16-4.93c0-2.3416 55.181-21.202 73.199-25.019 21.205-4.4921 27.979 0.31572 15.497 11-5.9298 5.0757-17.3 11.432-18.43 10.302-0.44804-0.44805 3.1056-4.4153 7.8969-8.8161 4.7914-4.4008 8.149-8.0192 7.4615-8.0408-2.7196-0.0856-18.425 4.0834-41.759 11.085-29.866 8.9618-43.866 11.99-43.866 9.4887zm188.96-25.689c-8.9983-2.357-29.659-11.529-34.583-15.352-1.9393-1.5058-2.1659-2.2801-1.0104-3.4524 1.1619-1.1788 2.8117-0.66545 7.5 2.3338 11.718 7.4963 27.095 13.998 37.899 16.023 5.8364 1.0943 10.846 2.2137 11.132 2.4876 1.5171 1.4507-13.017 0.034-20.938-2.041zm11.252-10.943c-5.041-4.6177-8.7441-8.8171-8.2292-9.3321 1.4016-1.4016 16.503-1.1292 17.395 0.31371 0.47614 0.77041-1.6537 1.25-5.5512 1.25-3.4781 0-6.3238 0.45021-6.3238 1.0005 0 0.55026 2.8575 4.2065 6.35 8.125s6.1644 7.1052 5.9375 7.0816c-0.22688-0.0236-4.5369-3.821-9.5779-8.4387zm-111.49-53.45c-27.237-4.9348-66.067-15.851-73.097-20.549-4.9737-3.3244-3.3478-3.1713 7.3488 0.69175 21.731 7.848 70.252 18.035 85.9 18.035 8.9536 0 10.378-0.80445 6.1258-3.4599-3.8662-2.4144-3.0378-4.0975 1.2764-2.5936 4.687 1.6339 7.0276 5.4536 4.9073 8.0084-1.9271 2.322-19.305 2.2509-32.462-0.13288zm27.53-19.55c0-1.0134 13.553-9.4918 31.562-19.745 36.33-20.68 33.44-19.1 33.44-18.28 0 0.74238-21.572 14.945-30.312 19.958-3.2656 1.8727-5.9375 3.6306-5.9375 3.9064 0 0.27578 4.0484-1.168 8.9963-3.2084 14.587-6.0153 26.004-9.9148 26.004-8.882 0 1.4422-11.803 7.004-36.875 17.377-27.09 11.21-26.88 11.14-26.88 8.88zm-70-12.783c-21.189-6.4368-51.197-19.816-55.294-24.653-1.6418-1.9382-1.8591-3.1408-0.89352-4.9449 2.0043-3.7451 13.76-3.0702 35.563 2.042 15.7 3.6812 32.321 6.8764 79.902 15.361 2.696 0.48072 5.1468 1.6092 5.4463 2.5076 0.4307 1.2921-1.3778 1.469-8.6518 0.84656-31.38-2.69-53.54-6.1-76.69-11.8-18.23-4.49-24.38-5.64-24.38-4.56 0 0.97148 13.883 7.592 38.12 18.179 23.48 10.256 25.992 12.815 6.8804 7.0096zm91.993-15.541c-0.35978-0.58217 3.906-2.6026 9.4795-4.4899s18.632-7.5292 29.018-12.538c10.386-5.0085 20.29-9.5265 22.009-10.04l3.125-0.93382-3.125 2.4925c-5.2049 4.1514-28.172 15.166-43.864 21.036-16.365 6.1216-15.73 5.9509-16.643 4.4734zm-142.02-93.89c-4.454-4.0926-8.7358-7.4676-9.5149-7.5-2.0709-0.0863-2.9276 4.5064-1.2636 6.7735 1.3296 1.8115 14.909 8.0713 17.654 8.1379 0.67277 0.0164-2.421-3.3188-6.875-7.4113zm225.03-2.75c0-2.2834-2.1804-0.87686-3.654 2.3571-1.5513 3.4048-1.5487 3.4075 1.0494 1.0563 1.4325-1.2964 2.6046-2.8324 2.6046-3.4134zm-309.28-319.26c-1.6345-5.4584-3.5803-12.174-4.3241-14.924l-1.3523-5 0.50977 6.25c0.46408 5.6896 6.6742 25.063 7.7039 24.033 0.23896-0.23898-0.90282-4.9004-2.5373-10.359zm-186.34-11.14c19.124-3.1128 26.623-6.4652 53.75-24.028 33.788-21.875 55.146-34.457 85.611-50.435 14.101-7.3955 33.373-17.505 42.826-22.466 12.456-6.5365 17.188-9.6442 17.188-11.288 0-2.7352 4.1478-3.6448 9.1856-2.0143 7.2567 2.3486 17.941-0.0752 36.341-8.2442 9.6736-4.2948 19.278-9.2607 21.343-11.035 2.0653-1.7746 4.6486-3.5503 5.7408-3.9459 1.893-0.68562 24.144-14.745 26.764-16.91 1.4865-1.2288 19.654-4.9162 29.375-5.9622 15.288-1.645 32.003-5.6219 29.964-7.129-0.97629-0.72139-60.854 2.4294-62.221 3.2741-1.76 1.09-5.24-0.43-5.24-2.29 0-2.3079 8.1142-4.3002 20.679-5.0774 6.1575-0.38086 18.931-1.9223 28.385-3.4254 13.56-2.1558 17.968-2.439 20.877-1.341 2.5133 0.94866 3.8252 0.97859 4.1201 0.094 0.28636-0.85905 1.3985-0.78095 3.2894 0.231 2.386 1.277 3.2515 1.1716 5.2528-0.63949 1.3178-1.1926 2.396-2.7241 2.396-3.4033 0-1.6782-21.225-0.14017-39.748 2.8803-18.082 2.9484-44.413 6.2421-49.902 6.2421-3.5 0-4.0998-0.44115-4.0998-3.0151 0-2.5355-0.78286-3.1474-4.9217-3.8466-4.1484-0.70088-6.5542-0.0531-15.312 4.1226-5.7149 2.7248-15.172 7.7078-21.016 11.073-5.8438 3.3656-17.312 9.4305-25.484 13.478-9.3169 4.6136-15.083 8.2124-15.458 9.6482-0.68577 2.6224-0.9502 2.7028-3.8271 1.1631-1.4395-0.77042-5.6637 0.0304-13.355 2.532-6.1874 2.0124-15.75 4.4587-21.25 5.4362-5.5 0.97758-15.906 3.1745-23.125 4.882-12.692 3.0021-31.23 5.483-61.29 8.202-18.624 1.6846-41.866 5.6542-59.96 10.241-22.18 5.6223-44.998 18.138-56.604 31.047-3.1536 3.5076-5.911 7.6228-6.1274 9.1449-0.25066 1.7627-1.4146 2.9124-3.206 3.1669-2.0733 0.29445-2.8125 1.2336-2.8125 3.573 0 2.7683-0.40254 3.0725-3.1524 2.3824-2.3456-0.58871-3.3647-0.22349-3.9818 1.427-0.45613 1.22-3.2288 6.2963-6.1615 11.281-2.9327 4.9844-4.9277 9.0625-4.4334 9.0625 0.49432 0 3.0553-1.4654 5.691-3.2564 6.2022-4.2145 29.603-15.471 32.038-15.412 1.0312 0.0252-3.4991 2.7798-10.067 6.1212-6.5683 3.3414-12.684 6.9689-13.591 8.0611-0.914 1.1-2.177 1.99-2.814 1.99-1.533 0-16.036 10.25-16.036 11.34 0 0.46359 2.8208 1.2171 6.2685 1.6744 4.7323 0.62777 8.7914 2.5382 16.562 7.7954 5.6617 3.8301 11.423 7.9981 12.803 9.2622 6.8992 6.3202 18.558 7.6269 38.741 4.3418zm0.62-73.11c0-3.0643 133.83-47.066 140.09-46.058 1.3209 0.21304-5.0488 2.625-14.155 5.3599-9.1061 2.7349-41.166 13.226-71.244 23.314-30.09 10.08-54.7 17.9-54.7 17.38zm270.31-14.517c2.5781-0.44378 4.6875-1.3068 4.6875-1.9178 0-1.2517-13.706-1.529-16.805-0.33991-3.3164 1.2726 0.30152 4.4685 4.1913 3.7024 1.7811-0.35082 5.3477-1.0009 7.9258-1.4447zm42.19-11.91c9.8887-2.0039 10-2.056 10-4.6784 0-5.0885-4.6582-6.3041-28.75-7.5023-18.045-0.89748-24.268-2.8784-26.796-8.5301-1.1184-2.5001-1.5679-2.3194-10 4.0204-4.8559 3.651-12.113 8.613-16.127 11.027l-7.298 4.3885 4.173 0.75087c14.654 2.6367 62.712 2.9737 74.798 0.52453zm873.75-22.232c0-0.61133-0.9844-2.2912-2.1875-3.7331-1.7364-2.0809-4.5075-2.8807-13.438-3.8782-6.1875-0.69117-13.219-1.2075-15.625-1.1474l-4.375 0.10926 5.625 1.723c12.368 3.7884 26.961 7.8686 28.438 7.9509 0.8594 0.0479 1.5625-0.4131 1.5625-1.0244zm-48.706-2.0665c2.3531-2.8354-0.3319-4.9299-6.1253-4.778-4.6722 0.1225-11.419 3.431-11.419 5.5998 0 2.0339 15.788 1.2944 17.544-0.82173zm66.768-5.4296c-0.6531-0.60914-4.5625-1.4401-8.6875-1.8466-7.3887-0.72809-7.4351-0.71306-3.125 1.0124 4.9059 1.964 13.689 2.5842 11.812 0.83414zm10.7-7.7c0-3.0438-1.11-4.3858-6.5625-7.934-3.6094-2.3488-7.955-4.6828-9.657-5.1865-2.9949-0.88643-2.9646-0.76798 0.9375 3.6763 4.5546 5.1875 5.0175 7.7968 1.8445 10.398-2.0122 1.6494-1.9422 1.7398 0.8725 1.1276 1.6829-0.366 3.6516-0.18703 4.375 0.39771 1.621 1.3106 5.9841 2.3114 7.2525 1.6635 0.5156-0.26337 0.9375-2.1274 0.9375-4.1423zm-71.25 1.311c1.4268-0.92201 0.9214-1.2163-2.1137-1.2309-2.1938-0.01-4.3364 0.54336-4.7613 1.2309-0.9901 1.6021 4.3959 1.6021 6.875 0zm18.438-0.86166c-1.2031-0.3144-3.1719-0.3144-4.375 0-1.2031 0.31441-0.2187 0.57166 2.1875 0.57166 2.4063 0 3.3906-0.25725 2.1875-0.57166zm-933.45-25.54c9.2812-3.3904 19.39-7.0871 22.465-8.2149 3.0744-1.1278 8.3451-4.6278 11.713-7.7778l6.123-5.7273 12.037-0.87658c6.6205-0.48211 22.162-1.4839 34.537-2.2262 12.375-0.74226 24.328-1.9387 26.562-2.6588 3.6448-1.1746 4.0625-1.7996 4.0625-6.0785 0-3.1858-0.65321-5.02-1.9674-5.5243-1.0821-0.41522-1.7775-1.741-1.5454-2.9462 0.42432-2.2034 0.8528-2.3734 6.7016-2.66 5.1558-0.25264 7.259-6.9098 7.3553-23.281 0.0641-10.909-0.37649-14.587-2.1326-17.801-3.1978-5.8519-7.4589-8.2812-12.776-7.2837-6.5687 1.2323-10.473 5.3446-11.753 12.381-0.60521 3.3256-1.6742 6.6203-2.3756 7.3217-1.9487 1.9487-4.2364-3.3519-4.4488-10.308-0.22636-7.414 2.7202-11.887 10.515-15.964 4.535-2.3715 6.877-2.793 12.787-2.3017 6.5306 0.54294 7.1662 0.38311 6.5238-1.6406-0.3914-1.2332-0.0416-3.7127 0.77732-5.5101 1.1578-2.5411 1.1415-5.2836-0.0735-12.331-2.3455-13.605-6.1625-28.092-8.9821-34.09-5.8981-12.548-24.982-28.447-41.335-34.437-3.6555-1.339-11.808-3.2674-18.117-4.2853-10.144-1.6366-12.707-1.6352-22.152 0.012-26.759 4.6664-54.095 19.739-69.665 38.412-7.3754 8.8457-16.257 26.532-19.312 38.455-2.5256 9.8582-1.9346 17 4.0331 48.745 2.391 12.719 4.734 27.906 5.2068 33.75 0.81856 10.118 1.0085 10.645 3.9845 11.035 5.1881 0.68079 17.216 9.1887 18.681 13.214 0.72544 1.9932 1.319 6.9753 1.319 11.071 0 6.5938 0.25069 7.3466 2.1875 6.5691 1.2031-0.48298 9.7812-3.6521 19.062-7.0425zm-6.25-17.194v-7.3467l10.938-3.8643c15.011-5.3036 24.333-6.7479 34.374-5.3259 6.7888 0.96142 13.439 3.0642 13.439 4.2494 0 0.15277-4.4029 0.0779-9.7842-0.16654-9.4734-0.43021-10.013-0.29803-16.985 4.1621-9.7567 6.2413-27.866 15.639-30.136 15.639-1.4167 0-1.8444-1.7038-1.8444-7.3467zm120.96-32.11c-0.433-0.433-0.51296-1.5021-0.1777-2.3758 0.33548-0.87423-0.54635-1.8908-1.9611-2.2608-3.4191-0.89411-3.2414-3.9172 0.61725-10.501 4.6441-7.9246 2.4661-10.397-4.21-4.7798-5.5568 4.6758-6.478 4.0599-6.478-4.3315 0-6.5619 0.46662-7.988 3.8893-11.886 4.4823-5.105 7.934-6.328 12.722-4.5076 3.2652 1.2414 4.9858 6.3503 2.1387 6.3503-0.6875 0-1.25-0.5625-1.25-1.25 0-1.8864-5.3383-1.499-8.3428 0.60546-1.457 1.0205-3.2601 3.6083-4.0069 5.7506-1.2145 3.484-1.1292 3.7989 0.80841 2.9838 4.4891-1.8885 7.867-2.083 9.7036-0.5588 2.2529 1.8698 3.6979 0.86222 2.6563-1.8521-0.4071-1.0609-2.1973-1.9289-3.9782-1.9289-1.8404 0-2.9046-0.53955-2.4655-1.25 1.0741-1.7379 7.3079-1.5671 9.125 0.25 3.1657 3.1657 0.81445 14.902-4.173 20.829-3.7804 4.4927-4.1981 7.8229-0.5693 4.5389 4.1155-3.7245 4.553-0.85176 0.48914 3.2121-2.0625 2.0625-4.1043 3.3957-4.5373 2.9627zm-18.123 31.137c-0.84629-0.3424-2.5338-0.36324-3.75-0.0464-1.2162 0.31692-0.52379 0.59707 1.5387 0.62255 2.0625 0.0255 3.0576-0.23383 2.2113-0.57624zm64.252-0.14924c0.80486-0.51199 1.8386-2.4259 2.2972-4.2532 1.2043-4.7985-1.77-5.8745-16.354-5.9162-12.959-0.0371-32.571 3.5989-37.373 6.9288-1.3561 0.94033-4.4498 1.775-6.875 1.8547s-3.5054 0.38675-2.4007 0.68222c1.1048 0.29547 6.4485-0.0606 11.875-0.79123 5.4265-0.73064 17.46-1.3085 26.741-1.284 13.477 0.0355 17.125 0.41726 18.119 1.8962 1.4041 2.0908 1.8979 2.2006 3.9698 0.88267zm-26.253-14.159c4.3532-0.75809 7.9149-1.6242 7.9149-1.9248 0-0.30057-1.078-2.6596-2.3956-5.2423s-2.796-6.9197-3.2853-9.6377c-1.2056-6.6967-2.9803-9.8208-3.0311-5.3357-0.0816 7.2058-5.6883 16.019-10.191 16.019-1.9206 0-2.0423 0.50149-0.90984 3.75 1.4873 4.2664 1.2684 4.2227 11.898 2.3717zm-100.36 1261.9c0.7974-31.57 2.3888-58.056 6.3269-105.3 4.3589-52.296 6.4235-70.043 8.3947-72.158 3.1404-3.3689 3.7132 3.2685 2.8578 33.114-1.3363 46.626-2.9266 55.462-2.4748 13.75 0.23385-21.59-0.0213-33.163-0.64741-29.375-2.5582 15.474-10.396 116.15-12.505 160.62-0.79861 16.844-1.7495 30.906-2.1131 31.25-0.3636 0.3438-0.29136-14.012 0.16051-31.903zm234.52 27.8c0-8.7164-2.6405-57.663-4.4306-82.13-1.0312-14.094-3.0131-42.219-4.4042-62.5-3.669-53.489-4.5579-55.828-4.9882-13.125-0.33316 33.058-0.44226 34.654-1.2391 18.125-1.1357-23.56-1.3611-58.601-0.40002-62.188 1.2445-4.6437 3.8661-3.2462 4.6897 2.5 1.7317 12.082 3.3617 30.742 5.1594 59.062 1.0474 16.5 2.7138 40.969 3.7032 54.375 2.0705 28.054 3.9504 90 2.7312 90-0.45178 0-0.82142-1.854-0.82142-4.1201zm-11.07-210c-5.2262-6.2971-14.383-33.407-17.068-50.532-0.45817-2.9219-1.2911-5.3125-1.8509-5.3125-1.8904 0-3.7114-7.4714-2.5594-10.501 2.3611-6.2102 8.879-4.9504 11.229 2.1704 0.76025 2.3036 1.9131 12.574 2.562 22.822 1.215 19.191 2.7054 26.822 7.2418 37.078 2.709 6.1243 2.8138 7.1281 0.44589 4.275zm-208.97-6.2166c4.4974-10.782 6.3647-20.675 7.5077-39.776 0.80974-13.531 1.6807-19.65 3.107-21.826 2.4788-3.7831 7.5509-4.025 9.4635-0.4514 1.5903 2.9715 0.56346 9.1204-1.8587 11.131-0.91232 0.7572-2.0412 4.0304-2.5087 7.2739-2.3363 16.211-10.277 39.718-15.715 46.522-2.4938 3.1205-2.4938 3.1164 0.004-2.8726zm240.66-2.8599c0.57538-1.3159 1.1206-8.8175 1.2116-16.67 0.13521-11.669 0.53472-14.511 2.1865-15.552 2.8612-1.8048 5.9806 1.1126 5.9806 5.5932 0 4.6383-7.1561 27.002-9.0061 28.145-0.99035 0.6122-1.1028 0.1545-0.37259-1.5157zm-276.9-12.695c-4.3246-13.5-4.8694-18.052-2.5024-20.904 2.0293-2.4451 3.1112-2.4144 5.687 0.1614 1.5078 1.5079 1.8437 3.1404 1.2214 5.9375-1.0855 4.8796-0.79886 16.186 0.5652 22.295 2.0742 9.2902-1.154 4.4261-4.9712-7.4904zm267.53-8.3c0-0.2724 1.9578-4.6318 4.3506-9.6875 5.5887-11.808 8.6357-26.466 7.8332-37.682-0.33704-4.7105-1.2475-9.1993-2.0233-9.9751-3.3672-3.3672-0.0297-10.022 3.8298-7.637 5.4282 3.3549 6.7722 27.142 2.287 40.476-2.6152 7.7751-16.277 28.343-16.277 24.505zm-260.46-10.7c-8.9995-12.225-11.312-19.489-11.367-35.715-0.0519-15.036 0.81212-19.968 3.6918-21.073 4.6398-1.7805 7.8118 4.0218 4.1827 7.651-2.2283 2.2283-1.814 22.123 0.657 31.547 1.1718 4.4688 3.8087 11.725 5.86 16.124 2.0512 4.3997 3.4776 8.2512 3.1697 8.559-0.30791 0.3079-3.095-2.884-6.1937-7.0931zm221.71-47.9c0-2.4753 9.7831-21.36 11.368-21.944 2.7803-1.0237 2.2437 3.8852-1.1585 10.599-4.1 8-10.21 14.8-10.21 11.3zm-181.42-3.4c-4.02-5.3-8.58-14.2-8.58-16.8 0-4.7508 2.7183-2.4413 7.4486 6.3283 5.9713 11.07 6.7045 17.823 1.1317 10.423zm199.02-39.479c0.06-1.4561 0.35617-1.7523 0.7552-0.7552 0.36108 0.9024 0.31668 1.9805-0.0986 2.3959-0.41536 0.4153-0.7108-0.323-0.65652-1.6407zm-213.75-1.25c0.06-1.4561 0.35617-1.7523 0.7552-0.7552 0.36108 0.9024 0.31668 1.9805-0.0986 2.3959-0.41536 0.4153-0.7108-0.323-0.65652-1.6407zm91.493-453.32c-4.7668-1.5304-6.2486-5.0455-3.9429-9.3537 1.5715-2.9364 2.0645-3.0602 9.0402-2.271 5.4816 0.62017 8.7706 1.8584 12.796 4.8172 2.9796 2.1904 5.4395 4.4044 5.4663 4.92 0.0267 0.51562-3.5743 0.9375-8.0025 0.9375s-8.3989 0.5625-8.8238 1.25c-0.89219 1.4436-1.1371 1.4323-6.533-0.29996zm6.7095-58.048c-0.37749-1.9398-1.025-8.8706-1.4389-15.402-0.41391-6.5312-0.96695-14.125-1.229-16.875-0.26202-2.75-0.81472-9.2188-1.2282-14.375-0.4135-5.1562-1.0343-10.312-1.3795-11.457-0.34522-1.1453-0.0422-2.4441 0.67318-2.8863 0.71637-0.44273 1.3008 0.20297 1.3008 1.4371 0 1.2326 1.1642 15.664 2.5871 32.07s2.3202 30.096 1.994 30.422c-0.32625 0.32625-0.90202-0.99393-1.2795-2.9337zm8.2872 0.61232c0.84496-0.53676 5.4738-0.91929 10.286-0.85007 10.152 0.14603 8.6463 0.75846-3.4113 1.3873-4.6262 0.24129-7.72-0.00048-6.875-0.53724zm-43.46-0.39c-0.6875-0.22166-4.3438-1.3527-8.125-2.5134s-8.7037-3.4953-10.939-5.1879c-4.91-3.7183-8.4626-9.8982-6.4168-11.162 1.4348-0.88673 3.553 1.4997 3.5865 4.0406 0.0334 2.526 7.2195 7.6319 14.659 10.415 5.5112 2.062 9.2977 2.5927 16.301 2.2846 7.5433-0.33186 8.7507-0.13091 6.9768 1.1612-1.9001 1.3841-12.721 2.033-16.042 0.96209zm96.4-9.4c0.41399-2.4062 2.938-11.293 5.6089-19.748 4.8914-15.485 6.1112-21.561 2.9361-14.627l-1.7171 3.75-0.0564-5.1188c-0.0377-3.4259 0.69961-5.8029 2.2296-7.1875 4.403-3.9846 5.898-2.4309 5.2225 5.4276-0.286 3.3274-9.562 30.193-12.949 37.504l-2.027 4.375 0.75271-4.375zm-126.04-14.69c-7.8688-8.3675-15.05-24.292-17.757-39.375-1.3548-7.5488 1.2208-5.3792 2.9677 2.5 2.5156 11.346 6.9883 22.125 13.104 31.579 3.1072 4.8033 5.4848 8.7332 5.2836 8.7332-0.20126 0-1.8206-1.5469-3.5985-3.4375zm58.494-45.145c-0.53847-0.87125-0.64145-1.9217-0.22887-2.3343 1.1187-1.1187 2.3385 0.52662 1.7342 2.3393-0.4234 1.2702-0.71784 1.2692-1.5054-0.005zm69.465-2.0523c-3.68-1.72-11.1-6.23-16.5-10.03-12.75-8.98-21.48-12.9-30.99-13.89-6.6-0.69-7.71-1.17-7.71-3.3 0-2.2952 0.62004-2.4407 7.8125-1.8333 12.077 1.0199 20.195 4.8341 35.024 16.455 14.983 11.742 19.557 13.796 28.753 12.912 5.7632-0.55376 6.0427-0.4637 3.2918 1.0607-4.6546 2.5793-12.339 2.0406-19.687-1.3802zm-141.74-6.955c4.9908-1.3408 14.272-4.729 20.625-7.5292 21.499-9.4764 26.306-11.309 29.928-11.412 4.4679-0.12704 6.3465 1.5234 4.6001 4.0415-0.9741 1.4046-1.4495 1.4791-1.9271 0.30205-1.0528-2.5945-3.7153-1.8954-24.843 6.5236-20.416 8.1351-28.565 10.641-34.333 10.558-1.7188-0.0249 0.95843-1.1423 5.9493-2.4832zm194.61-22.736c1.8354-2.5854 4.9914-7.8457 7.0134-11.689 2.0219-3.8437 3.6709-6.2284 3.6645-5.2992-0.016 2.308-6.5868 13.351-10.674 17.939l-3.3406 3.75 3.3371-4.7008zm-249.28-2.7571c-0.83667-1.0081-1.3274-2.396-1.0906-3.0841 0.23688-0.68814 1.0809 0.1367 1.8756 1.833 1.6473 3.5161 1.4094 3.8952-0.78502 1.2512zm7.7358-5.5887c-3.8-3.79-9.03-13.61-9.03-16.94 0-3.9736 2.3854-1.6289 4.345 4.2711 1.1253 3.3879 3.7052 8.4504 5.7333 11.25 4.3562 6.0136 4.0064 6.4827-1.0577 1.4186zm240.84-20.675c8.457-9.1194 15.653-22.337 17.029-31.279 0.7208-4.6842 0.64607-4.8467-1.1831-2.5736-1.114 1.3844-1.9525 1.7517-1.9525 0.85533 0-2.8469 2.5521-6.4067 4.5931-6.4067 1.6835 0 1.8814 1.0528 1.2341 6.5625-1.45 12.341-13.007 31.177-23.724 38.667-2.6001 1.8172-1.213-0.20151 4.0032-5.8263zm-210.36-5.7c-21.61-2.46-37.56-11.27-45.19-24.96-0.5747-1.0312 1.2775 0.20255 4.1159 2.7418 11.426 10.221 21.702 12.799 47.185 11.835 20.839-0.78846 32.338-2.8791 48.125-8.7502l10.625-3.9513 0.47781-11.25c0.2628-6.1875 0.54405-28.406 0.625-49.375 0.0867-22.48 0.45583-33.252 0.89929-26.25 0.41365 6.5312 1.9582 18.91 3.4322 27.509 2.4403 14.235 5.1259 43.924 5.1721 57.178 0.0136 3.8971-0.481 5.3125-1.8565 5.3125-2.2585 0-2.4168 1.4582-0.37969 3.4953 1.1604 1.1604 0.95047 1.922-0.9375 3.4004-3.7726 2.9542-9.6748 5.9698-12.433 6.3524-1.375 0.19074-8.125 1.8089-15 3.5959-14.183 3.6864-30.138 4.7951-44.863 3.1172zm104.37-8.8138c-10.39-2.0402-16.358-4.989-17.229-8.5126-0.44344-1.7929-1.8435-3.997-3.1113-4.8981-5.0639-3.5993-6.1006-8.427-8.5832-39.969-1.3372-16.991-2.9808-36.799-3.6524-44.017-0.67159-7.2188-1.24-20.867-1.2632-30.329-0.0278-11.358-0.56345-18.039-1.5762-19.661-1.1733-1.8787-1.1988-3.3447-0.10862-6.233 1.1332-3.0021 1.0907-3.7766-0.20714-3.7766-2.911 0-3.0987-3.4168-1.3214-24.061 0.96189-11.173 2.451-30.11 3.3092-42.082 0.85816-11.972 1.9479-20.691 2.4216-19.375 1.9873 5.5215 2.0574 50.09 0.11413 72.588l-0.8806 10.195 3.6454-3.0674c8.455-7.1144 30.586-15.337 53.312-19.806 27.074-5.3248 39.549-8.1874 49.641-11.39 5.2013-1.6508 9.8005-2.969 10.221-2.9294 2.6716 0.2519-17.958 8.009-48.611 18.279-19.594 6.5645-40.834 14.369-47.201 17.344-10.914 5.0996-11.731 5.7526-14.294 11.419-2.5024 5.5322-2.722 8.0498-2.7602 31.636-0.0341 21.042 0.46808 28.643 2.8078 42.5 3.0868 18.281 8.7877 41.331 12.639 51.102 1.3279 3.3689 2.0859 6.4538 1.6844 6.8552-0.40146 0.40146 2.0216 1.9132 5.3845 3.3594 8.2857 3.5632 33.683 5.5448 46.739 3.6467 9.7424-1.4163 36.08-7.9668 39.764-9.8897 1.1611-0.60611 4.6977-2.0096 7.8592-3.1189 3.796-1.3319 6.7677-3.4769 8.75-6.3158 1.651-2.3644 6.9121-9.1006 11.691-14.969 13.214-16.226 22.88-30.22 38.266-55.397 16.264-26.613 21.746-37.214 23.736-45.898 2.2877-9.9832 3.7044-11.895 15.573-21.016 18.102-13.912 55.61-37.892 55.61-35.555 0 0.29341-4.9219 4.2259-10.938 8.7389-6.0156 4.513-18.92 16.137-28.676 25.831-9.74 9.69-18.49 17.62-19.42 17.62-0.93631 0-2.7328 2.9531-3.9923 6.5625-8.1168 23.261-21.279 49.523-29.011 57.884-1.4751 1.5952-5.4126 7.5009-8.75 13.124-8.3423 14.056-32.03 45.246-37.882 49.881-5.3822 4.2627-14.516 8.729-17.937 8.7707-1.2382 0.0151-7.6837 2.3396-14.323 5.1656-19.266 8.2001-32.852 11.137-50.773 10.975-8.3337-0.0754-17.624-0.62239-20.646-1.2157zm-141.67-22.44c-3.1441-2.0826-6.4749-4.7286-7.4018-5.8802-0.92691-1.1515 1.0862 0.004 4.4735 2.5682 3.3873 2.564 7.6061 4.9781 9.375 5.3645 5.315 1.1611 5.8797 1.5316 2.493 1.6352-1.7728 0.0542-5.7956-1.6052-8.9397-3.6878zm-0.66392-8.2962c-0.86726-0.34939-2.1719-1.7472-2.8992-3.1062-1.5732-2.9396 0.41762-6.0612 3.8656-6.0612 2.4531 0 8.9866 4.8924 6.6217 4.9584-0.8188 0.0229-1.8364-0.52091-2.2613-1.2084-0.4249-0.6875-2.2058-1.25-3.9575-1.25-2.3907 0-2.9958 0.49307-2.4262 1.9772 0.41732 1.0875 0.75874 2.2125 0.75874 2.5 0 0.28751 0.81055 0.52276 1.8012 0.52276 0.99067 0 2.1489 0.5625 2.5738 1.25 0.80286 1.2991-1.343 1.5188-4.0768 0.41738zm-10.769-2.3407c-1.2062-3.1434-0.85038-3.9544 0.62317-1.4204 0.72961 1.2547 1.0632 2.5446 0.74141 2.8664-0.32184 0.32184-0.9359-0.32886-1.3646-1.446zm215.16-3.1768c-1.4513-0.8453-2.1875-2.8101-2.1875-5.8382 0-3.9314 1.0332-5.5688 7.454-11.813 5.1085-4.9678 8.4518-7.2488 10.625-7.2488 1.744 0 3.171 0.4845 3.171 1.0767 0 0.59216-1.3409 0.82033-2.9798 0.50703-4.2941-0.82088-17.02 11.935-17.02 17.06 0 4.1757 1.7276 5.1066 9.4772 5.1066 3.0375 0 5.5228 0.5625 5.5228 1.25 0 1.6301-11.229 1.5501-14.062-0.10013zm17.402-6.7221c3.7437-1.6285 7.5928-6.4126 6.2443-7.7611-1.1134-1.1134-5.8333 2.125-5.8333 4.0023 0 1.0071-0.5625 1.831-1.25 1.831-2.5098 0-1.1616-4.8881 2.0436-7.4093 4.1428-3.2587 7.5585-3.3137 8.5664-0.13794 1.5351 4.8366-4.5804 11.341-10.576 11.248-3.0094-0.0466-2.9712-0.13075 0.80472-1.7733zm-231.54-2.4838c1.3345-1.0692 2.9752-1.944 3.6458-1.944 1.5882 0 0.87904 0.57738-2.9472 2.3996-2.9466 1.4033-2.9865 1.3773-0.69859-0.45568zm7.8861-2.8261c1.5469-0.29795 4.0781-0.29795 5.625 0 1.5469 0.29793 0.28125 0.54171-2.8125 0.54171s-4.3594-0.24378-2.8125-0.54171zm-179.41-58.55c0.4263-0.42629 6.0225-1.5393 12.436-2.4733 6.4135-0.93402 16.161-2.572 21.661-3.6399 17.756-3.4477 17.638-3.4313 15.625-2.1577-1.0312 0.65254-6.9375 2.1265-13.125 3.2755s-13.781 2.581-16.875 3.1823c-8.0804 1.5705-20.633 2.7244-19.722 1.813zm54.72-10.57c1.7188-0.57366 7.3416-2.2532 12.495-3.7322 5.1536-1.479 14.954-5.4843 21.778-8.9007 11.324-5.6691 17.223-7.041 15.032-3.4959-1.0212 1.6524-11.836 8.6366-13.373 8.6366-0.59347 0-0.67232-0.65809-0.17521-1.4624 0.63626-1.0295 0.19553-1.1746-1.4887-0.49012-8.1671 3.319-32.938 10.73-35.416 10.595-1.0873-0.0591-0.57074-0.5768 1.148-1.1504zm229.2-9.99c0-6.5312 0.21068-9.2031 0.46818-5.9375s0.2575 8.6094 0 11.875-0.46818 0.59375-0.46818-5.9375zm239.55-17.2c0-0.52058 2.6719-0.77803 5.9375-0.5721 10.271 0.64769 11.244 1.172 2.5 1.3484-4.6406 0.0936-8.4375-0.25571-8.4375-0.77629zm25.938-1.1313c0.85937-0.34676 2.2656-0.34676 3.125 0 0.85937 0.34676 0.15625 0.63049-1.5625 0.63049s-2.4219-0.28373-1.5625-0.63049zm-278.39-3.5111c-6.7819-5.0035-16.111-7.4536-43.174-11.339-23.126-3.32-47.82-10.27-60.938-17.15-8.9957-4.7185-9.4622-6.8148-0.625-2.8081 9.4396 4.2798 29.146 7.6778 57.812 9.9688 28.468 2.2752 29.758 2.461 40.042 5.7669 12.807 4.117 20.151 12.332 15.333 17.151-2.1738 2.1738-3.7536 1.8768-8.4512-1.589zm251.83 2.151c-7.4553-0.74068-9.375-1.5724-9.375-4.062 0-1.526 1.0625-2.6868 2.8125-3.0731 2.369-0.52285 50.755-1.9659 64.688-1.9292 8.5472 0.0225 31.301-2.7378 83.01-10.07 28.812-4.0854 54.003-7.4279 55.981-7.4279 3.1419 0 3.4365 0.29925 2.3298 2.367-0.9724 1.817-3.7298 2.7166-11.866 3.8716-5.8298 0.82755-11.326 1.213-12.215 0.85666-0.8882-0.35639 0.5882-0.69239 3.2809-0.74666 2.6927-0.0542 4.5466-0.44796 4.1197-0.87486-0.4269-0.42689-4.0363-0.34079-8.0208 0.19133-6.158 0.82239-6.7759 1.1237-4.1197 2.0086 2.1833 0.72738 1.2983 0.86015-2.9366 0.44057-3.373-0.33419-15.174 0.78247-26.605 2.5175-11.299 1.715-22.212 3.1181-24.251 3.1181-2.0389 0-3.7071 0.61194-3.7071 1.3599 0 0.90093-1.7408 1.0658-5.1582 0.4884-3.8329-0.64756-4.9227-0.49038-4.2415 0.61174 0.6835 1.1058-0.6279 1.2769-5.1543 0.67248-4.6598-0.62228-5.6351-0.48182-4.196 0.60423 1.4706 1.1098 1.0057 1.2439-2.1559 0.62174-3.8467-0.75697-14.439 0.27588-57.844 5.6403-22.476 2.7778-29.196 3.3278-34.375 2.8133zm189.71-22.382c-0.8463-0.34239-2.5338-0.36323-3.75-0.0464-1.2162 0.31692-0.5238 0.59707 1.5387 0.62255 2.0625 0.0255 3.0576-0.23382 2.2113-0.57624zm-150 22.454c1.2162-0.31692 2.9037-0.29609 3.75 0.0464 0.84628 0.34241-0.14879 0.60171-2.2113 0.57623-2.0625-0.0255-2.7549-0.30562-1.5387-0.62255zm10.616-1.2678c1.5549-0.29898 3.8049-0.28763 5 0.0252 1.1951 0.31287-0.0771 0.5575-2.8271 0.54363-2.75-0.0139-3.7278-0.26986-2.1729-0.56885zm25.92-1.61c1.375-0.59086 4.75-1.0473 7.5-1.0142 4.7784 0.0574 4.8338 0.10238 1.25 1.0142-2.0625 0.52481-5.4375 0.98122-7.5 1.0142-3.1756 0.0509-3.3671-0.1045-1.25-1.0142zm16.577-2.1341c1.5549-0.29898 3.8049-0.28763 5 0.0252 1.1951 0.31287-0.077 0.5575-2.8271 0.54363-2.75-0.0139-3.7278-0.26986-2.1729-0.56885zm10.064-1.2198c0.9023-0.36108 1.9805-0.31668 2.3958 0.0986 0.4154 0.41536-0.3229 0.7108-1.6406 0.65652-1.4562-0.06-1.7524-0.35617-0.7552-0.7552zm12.536-2.1205c5.0473-0.77036 8.8907-1.6822 8.5409-2.0264-0.3498-0.34417 1.9894-0.4542 5.1981-0.2445 3.8666 0.25271 5.2639-0.01 4.1432-0.77734-1.1554-0.79166 1.0221-1.4482 6.875-2.073 4.7112-0.5029 8.8472-1.3423 9.1909-1.8653 0.3438-0.52301 4-1.2718 8.125-1.664 4.125-0.39223 6.5156-0.42708 5.3125-0.0775-1.2031 0.34962-2.1875 1.1993-2.1875 1.8882s-1.5472 1.0903-3.4382 0.8919c-1.891-0.19835-4.2817 0.16378-5.3125 0.80473-1.0308 0.64096-3.2162 0.99185-4.8564 0.77975s-3.3277 0.14074-3.75 0.78409c-0.4223 0.64333-7.799 2.1013-16.393 3.2399-17.298 2.2919-25.914 2.5473-11.448 0.33944zm-476.72-3.8961c6.3569-5.1949 19.322-11.224 20.849-9.6967 1.8068 1.8068 0.25742 4.0671-2.7878 4.0671-1.3516 0-6.3668 1.9688-11.145 4.375-10.152 5.1125-12.061 5.4588-6.9165 1.2545zm257.38-43.2c-8.3304-2.6409-12.941-6.182-8.049-6.182 4.9314 0 14.032 2.8176 14.697 4.5502 0.35875 0.93489 1.8577 1.7084 3.331 1.7189 1.4733 0.01 3.5225 0.56441 4.5538 1.2309 3.3557 2.1686-6.2953 1.2934-14.533-1.318zm-105.86-25.85c-1.1298-1.9187 2.1162-25.383 3.4455-24.906 0.72644 0.26065 1.2358 1.5369 1.132 2.8361-1.2425 15.546-2.0723 21.828-2.9557 22.374-0.58176 0.35955-1.3116 0.22268-1.6218-0.30416z"/>
</svg>
