<?xml version="1.0" encoding="UTF-8" standalone="no"?>
<!-- Created with Inkscape (http://www.inkscape.org/) -->
<svg id="svg3416" xmlns:rdf="http://www.w3.org/1999/02/22-rdf-syntax-ns#" xmlns="http://www.w3.org/2000/svg" height="1845" viewBox="0 0 1845 1845" width="1845" version="1.1" xmlns:cc="http://creativecommons.org/ns#" xmlns:dc="http://purl.org/dc/elements/1.1/">
 <metadata id="metadata3422">
  <rdf:RDF>
   <cc:Work rdf:about="">
    <dc:format>image/svg+xml</dc:format>
    <dc:type rdf:resource="http://purl.org/dc/dcmitype/StillImage"/>
    <dc:title/>
   </cc:Work>
  </rdf:RDF>
 </metadata>
 <path id="path3426" fill="#fff" d="m688.76 1788.4c-15.564-2.1009-34.155-15.758-40.759-29.942-2.7456-5.8963-3.1798-8.8873-3.1912-21.977-0.008-9.9788 0.88698-19.389 2.6234-27.566 2.7448-12.924 3.4055-25.845 1.9889-38.89-1.0664-9.8199 2.0543-20.932 7.6771-27.336 3.6486-4.1556 4.2077-5.8585 4.5264-13.789 0.19994-4.9764 1.0111-16.914 1.8025-26.529 0.79148-9.6147 1.4615-23.029 1.4891-29.809 0.0624-15.403 0.50093-16.583 6.1656-16.583 2.4657 0 4.7804-0.4807 5.1437-1.0685 1.795-2.9047-7.931-64.53-17.87-113.23-10.985-53.821-13.817-77.619-13.925-116.99-0.0587-21.579 0.50066-32.151 2.2054-41.686 3.067-17.154 9.9773-40.633 12.545-42.626 2.5181-1.9539 1.6127-14.084-2.2386-29.988-2.2852-9.4367-3.8492-18.123-10.894-60.511-2.973-17.888-10.663-55.862-14.024-69.252-1.1138-4.4375-5.6444-23.195-10.068-41.686-4.4235-18.49-10.002-40.576-12.396-49.081l-4.3538-15.464 0.0189-40.341c0.0325-69.07 4.4472-87.3 38.269-158.03 6.5503-13.699 12.582-27.909 13.405-31.579 2.1678-9.6729 5.8486-17.287 12.877-26.637 7.9183-10.534 18.827-28.989 22.336-37.789 1.4992-3.7596 2.9536-9.8539 3.2319-13.543l0.50598-6.7069-11.072-10.996c-6.0888-6.035-13.888-14.813-17.32-19.503-6.0995-8.3048-19.977-34.446-19.977-37.619 0-2.1631-3.1422-5.4514-16.125-16.874-5.5474-4.8809-10.966-14.164-14.924-25.564-2.2007-6.3401-3.8334-20.687-3.9089-34.347-0.002-0.5547-0.75058-1.0085-1.6612-1.0085-0.91058 0-7.113-5.3702-13.783-11.933-18.357-18.063-30.653-27.716-39.542-31.04-6.9254-2.59-8.5806-2.7525-13.761-1.3522-3.2391 0.87548-7.7046 1.745-9.9233 1.9322-2.2188 0.18722-11.295 1.6542-20.17 3.26-30.024 5.4322-90.878 6.9041-116.31 2.8133-15.895-2.5561-37.991-13.099-48.745-23.259-4.0938-3.8674-4.8907-6.6846-1.5256-5.3933 1.6906 0.64879 1.9833 0.2382 1.3197-1.8522-0.60864-1.9176 0.69305-4.6268 4.5513-9.4726 4.8493-6.0904 5.4037-7.5553 5.4037-14.275 0-15.833 9.9912-31.524 25.129-39.464 4.2989-2.255 14.472-6.2695 22.608-8.921 12.445-4.0561 78.87-19.613 132.45-31.022l14.119-3.0061 0.42145-10.661c0.40104-10.145-1.0835-22.028-3.8516-30.832-1.7399-5.5332-19.936-15.521-26.428-14.506-3.9477 0.61723-4.648 0.13885-8.3565-5.7087-8.5967-13.556-14.397-38.383-13.155-56.315 0.87956-12.711 8.6877-41.018 14.092-51.089 4.6144-8.5987 21.328-26.268 31.898-33.722 11.374-8.0207 29.28-17.327 40.341-20.968 11.432-3.7626 28.544-4.0583 40.118-0.69334 27.827 8.0895 46.821 24.504 57.839 49.983 6.7792 15.677 15.519 46.453 18.975 66.818 0.92203 5.4331 14.182 26.127 26.802 41.83 4.088 5.0861 7.6087 9.7548 7.824 10.375 0.56998 1.6422 24.265-2.4573 32.136-5.5598 7.7745-3.0644 11.125-2.0986 12.561 3.6207 1.2369 4.9283-2.0462 9.0792-13.135 16.606-4.9026 3.3282-8.9294 6.3945-8.9484 6.8141-0.0496 1.0936 12.493 4.8782 23.498 7.0906 7.1741 1.4423 13.571 1.6302 26.894 0.79047 21.991-1.3861 26.083-2.1836 30.256-5.8969 14.276-12.704 43.887-20.426 85.05-22.182 13.866-0.59129 25.969-1.7019 26.894-2.4679 2.4538-2.0308 31.875-11.98 46.726-15.801 14.708-3.784 70.35-12.71 79.341-12.728 5.2571-0.0107 6.3406-0.52092 8.2571-3.8898 1.2132-2.1328 5.3465-6.3603 9.1848-9.3945 16.24-12.837 48.753-23.89 97.455-33.133 10.313-1.9572 41.829-10.164 70.034-18.236 28.205-8.0728 52.478-14.678 53.937-14.678 1.4601 0 4.7389-1.5612 7.2863-3.4694 7.0267-5.2638 18.166-10.607 32.959-15.808 7.347-2.5835 17.484-6.272 22.526-8.1966 5.0425-1.9246 9.716-3.1607 10.386-2.7468 1.2924 0.79877 27.892-4.4907 43.647-8.6794 19.411-5.1608 39.361-9.5085 43.631-9.5085 2.4294 0 7.3954-1.0578 11.035-2.3506 7.3293-2.6031 9.1434-1.6537 9.186 4.8073 0.024 3.5126-6.7257 10.99-9.919 10.99-1.2874 0-1.7861 0.7614-1.3107 2.0007 0.4972 1.2951-0.7005 2.8363-3.3953 4.3703-2.2898 1.3033-4.1669 3.4626-4.1717 4.7984-0.014 3.8354-9.7446 7.2607-29.234 10.29-9.7126 1.5097-17.956 2.745-18.318 2.745-0.3626 0 0.2107 1.7436 1.2737 3.8747 2.5775 5.1668 1.6347 7.0295-6.7216 13.279-5.0423 3.771-10.329 6.1588-18.392 8.3064-11.442 3.0478-15.536 4.9825-20.008 9.4548-1.3542 1.3542-7.5161 4.7685-13.693 7.5875-12.443 5.6785-26.437 7.5319-35.153 4.6556-3.9325-1.2979-5.7488-1.0996-11.808 1.2886-3.9385 1.5523-10.114 3.3825-13.723 4.067-13.79 2.6152-38.195 15.739-76.277 41.019-38.99 25.882-55.182 34.737-84.565 46.246-17.972 7.0391-28.316 9.4059-41.334 9.4569-5.7642 0.0226-8.8477 1.1314-18.826 6.7697-21.664 12.242-67.31 34.768-84.479 41.692-9.2872 3.7448-30.953 11.953-48.144 18.241-17.193 6.2871-33.706 12.609-36.696 14.049-10.911 5.2543-17.393 15.374-21.342 33.323-0.86433 3.9288-2.4482 7.685-3.5197 8.3472-1.621 1.0018-1.0928 2.9327 3.1447 11.497 7.1047 14.358 9.06 32.176 5.9033 53.794-1.1959 8.1902-3.3908 17.728-4.8774 21.197-2.2577 5.267-2.4409 6.9118-1.1124 9.9856 1.0464 2.421 1.5117 11.271 1.36 25.868-0.19818 19.074-0.86234 25.423-4.734 45.25-4.0303 20.638-4.3867 24.279-3.3923 34.639 1.4029 14.615 3.8629 20.78 17.093 42.834 10.902 18.172 16.676 32.368 18.36 45.132 0.6331 4.8 1.771 7.681 3.4473 8.7278 1.3762 0.85945 2.51 2.476 2.5195 3.5924 0.01 1.1164 3.8097 5.7622 8.4447 10.324 7.7596 7.6373 9.51 10.567 22.095 36.979 26.772 56.188 29.695 65.936 31.18 103.99 2.0544 52.653-1.3454 85.362-14.715 141.57-12.061 50.712-14.218 60.055-17.295 74.922-2.5677 12.406-7.9539 42.552-11.051 61.856-2.0897 13.022-6.5263 35.717-8.5434 43.703-3.2579 12.898-4.0446 25.44-1.7125 27.298 2.5529 2.0343 9.603 25.84 12.624 42.626 1.7304 9.6145 2.2743 19.926 2.199 41.686-0.13986 40.394-2.0639 56.224-14.545 119.68-10.654 54.164-19.018 107.7-17.268 110.54 0.36378 0.5885 2.6788 1.0702 5.1447 1.0702 5.6989 0 6.1058 1.1404 6.1568 17.255 0.0226 7.1503 0.69668 20.564 1.4979 29.809 0.80116 9.2449 1.6162 20.88 1.8114 25.857 0.31113 7.9375 0.86564 9.6299 4.5174 13.789 5.6228 6.404 8.7435 17.517 7.6771 27.336-1.4167 13.045-0.75589 25.966 1.9888 38.89 3.6195 17.043 3.6096 40.444-0.0203 48.441-5.7138 12.588-17.594 23.199-32.018 28.595-8.4318 3.1549-25.316 3.8311-31.921 1.2788-2.2003-0.8503-5.1228-1.7723-6.4941-2.0489-4.1912-0.8449-14.915-8.3485-18.113-12.673-4.6355-6.27-6.063-17.072-4.9797-37.684 1.2269-23.345 1.0745-27.275-1.1216-28.914-2.2978-1.715-7.5821-26.175-7.5821-35.098 0-7.3696 3.1069-19.568 6.2269-24.449 1.5235-2.3829 2.0962-9.9192 2.555-33.617 0.61959-32.005 1.9525-46.226 4.4095-47.045 0.80584-0.2686 3.0931-1.7691 5.0828-3.3339l3.6177-2.8459-0.75926-29.674c-0.77055-30.115-2.7432-47.161-9.7362-84.134-2.9433-15.561-5.4836-26.463-12.691-54.46-3.2178-12.501-5.8121-29.363-8.2138-53.386-1.482-14.824-1.4202-19.098 0.46736-32.367 3.2335-22.732 6.0798-33.912 9.5997-37.71l3.0816-3.3251-4.5851-9.8918c-2.5218-5.4405-5.7881-13.522-7.2585-17.96-3.1199-9.4158-5.5269-26.216-4.0411-28.206 4.9882-6.681-3.2058-55.497-15.353-91.472-13.086-38.75-16.662-55.398-22.335-103.94-1.5981-13.676-3.8559-19.764-3.8559-10.395 0 2.6574-2.1212 17.669-4.7136 33.36-5.0272 30.428-12.113 58.678-20.891 83.29-7.3809 20.696-16.324 64.327-15.924 77.691 0.16591 5.5469 0.76423 10.705 1.3296 11.462 1.4858 1.9901-0.92116 18.791-4.0411 28.206-1.4704 4.4376-4.7356 12.518-7.2561 17.954l-4.5827 9.8868 3.0053 3.0054c3.4481 3.4481 6.405 15.078 9.6713 38.04 1.8876 13.27 1.9494 17.544 0.46736 32.367-2.4017 24.023-4.996 40.884-8.2138 53.386-15.915 61.828-21.277 94.841-22.404 137.91l-0.79341 30.342 3.6236 2.8502c1.9929 1.5676 4.2829 3.0701 5.0888 3.3387 2.4664 0.8222 3.791 15.097 4.3583 46.969 0.42826 24.061 0.96578 31.131 2.5561 33.617 3.1647 4.9473 6.2771 17.109 6.2771 24.525 0 8.8554-5.2756 33.37-7.5531 35.098-2.1408 1.6238-2.2834 5.3555-1.1048 28.914 1.0127 20.243-0.41339 31.446-4.7481 37.305-2.8784 3.8903-14.514 12.411-17.688 12.952-1.0184 0.1736-3.9695 0.9854-6.558 1.804-6.9756 2.2063-14.51 2.6965-23.271 1.5138zm27.81-8.9248c6.123-2.8653 9.3478-5.2956 10.83-8.162 3.3795-6.5352 2.5223-7.1315-4.2766-2.9752-10.546 6.4472-19.084 8.5845-31.653 7.9248-12.633-0.6631-22.329-4.9136-29.286-12.838-4.6024-5.2419-4.8967-4.8064-1.383 2.0451 3.148 6.1387 7.1478 9.8718 14.566 13.594 13.418 6.7345 27.392 6.8736 41.204 0.4102zm211.75 0.3578c9.0133-4.1266 13.016-7.6154 16.475-14.362 3.5138-6.8518 3.2194-7.2872-1.383-2.0452-6.9574 7.924-16.654 12.174-29.286 12.838-12.57 0.6598-21.107-1.4777-31.653-7.9248-6.7671-4.1368-7.6529-3.5541-4.3394 2.8537 2.1728 4.2018 11.725 9.8059 20.471 12.01 8.0203 2.021 21.211 0.526 29.717-3.3682zm-208.9-14.508c15.126-6.021 14.784-4.9983 14.867-44.48 0.0616-29.572-0.12169-32.182-2.2993-32.752-1.4739-0.3854-3.1425-3.2271-4.425-7.5356-2.1772-7.3148-4.2155-11.29-5.2499-10.24-0.9181 0.9324-2.7342 35.452-2.4271 46.132 0.28212 9.8074 2.3604 15.355 8.016 21.401 2.4329 2.6003 2.8696 3.6979 1.4712 3.6979-2.2842 0-12.208-9.901-14.601-14.567-1.5958-3.1116-1.741-3.1292-17.91-2.1641-21.566 1.2872-22.304 1.5405-26.423 9.0751-1.8999 3.4756-4.816 7.2594-6.48 8.4086-3.6809 2.5421-3.848 1.5081-0.52284-3.2341 1.3765-1.9633 3.272-5.9393 4.2122-8.8359 1.4912-4.5939 1.4292-5.4717-0.4857-6.8719-2.9436-2.1522-2.7706-5.0088 0.4242-7.0039 3.6443-2.2761 3.4605-12.39-0.20786-11.43-3.4034 0.8898-3.1378-3.3054 0.27782-4.3895 1.7544-0.5569 2.6894-2.0345 2.6894-4.2506 0-2.266-0.89532-3.6312-2.6894-4.1003-3.3355-0.8722-3.5452-3.079-0.29243-3.079 1.9496 0 2.4532-1.2899 2.6977-6.9119 0.16541-3.8015-0.40349-7.7603-1.2642-8.7975-1.1854-1.4282-1.1874-2.2633-0.008-3.4423 0.85615-0.8562 1.5566-2.7395 1.5566-4.1855 0-2.4849-0.13792-2.5039-2.5206-0.3478-1.886 1.7071-2.7551 5.0598-3.4522 13.319-0.51237 6.0707-2.4093 17.649-4.2155 25.73-4.5848 20.512-5.496 31.742-2.9092 35.854 1.122 1.7832 2.7151 5.3764 3.54 7.9847 2.0705 6.5471 8.7725 14.3 15.192 17.576 12.409 6.3307 26.589 6.1484 43.438-0.5582zm208.15 1.4775c7.8702-3.3857 14.925-11.321 17.824-20.049 1.1908-3.5853 2.7239-6.8639 3.4069-7.2862 2.2073-1.3642 1.3188-11.612-2.6965-31.1-2.16-10.483-4.3514-23.923-4.8697-29.864-0.69911-8.0145-1.593-11.392-3.463-13.085-2.3827-2.1561-2.5206-2.1371-2.5206 0.3479 0 1.4459 0.70049 3.3292 1.5566 4.1854 1.179 1.1791 1.1771 2.0142-0.008 3.4424-0.86073 1.0371-1.4297 4.9959-1.2642 8.7974 0.2446 5.622 0.7481 6.9119 2.6977 6.9119 3.2527 0 3.0431 2.2068-0.29243 3.079-1.794 0.4692-2.6894 1.8343-2.6894 4.1003 0 2.216 0.93497 3.6938 2.6894 4.2506 3.4156 1.0841 3.6811 5.2793 0.27783 4.3895-3.6683-0.9593-3.8523 9.1543-0.20786 11.43 3.1948 1.9952 3.3678 4.8517 0.4242 7.004-1.9148 1.4002-1.9769 2.2779-0.48569 6.8719 0.94023 2.8965 2.877 6.9305 4.3039 8.9643s2.0636 3.698 1.415 3.698c-2.4153 0-5.7436-3.5378-8.7816-9.3339-3.7562-7.1667-4.7904-7.5135-26.251-8.8027-16.07-0.9657-16.179-0.9521-17.794 2.1952-0.89353 1.7417-4.1004 5.7384-7.1263 8.8816-6.7945 7.0578-11.081 7.7958-4.991 0.8591 5.5942-6.3711 6.6918-9.5724 6.9975-20.405 0.29843-10.579-1.5286-45.046-2.4368-45.968-1.0344-1.0506-3.0727 2.925-5.2499 10.24-1.2955 4.3526-2.9466 7.1491-4.4536 7.5432-2.2157 0.5793-2.3876 3.0285-2.2993 32.751 0.11524 38.781-0.00037 38.4 13.336 43.946 5.0638 2.1056 11.72 4.3559 14.792 5.0008 7.8132 1.6404 20.525 0.2877 28.159-2.9966zm-215.54-46.58c0-1.6389-11.957-6.6212-18.292-7.6219-3.7547-0.5934-7.0499-0.049-11.627 1.9219-3.513 1.5123-6.3873 2.9222-6.3873 3.1335 0 0.2112 6.505 0.3964 14.456 0.4114 8.7973 0.016 15.508 0.6587 17.145 1.6399 3.2354 1.94 4.7064 2.101 4.7064 0.5152zm192.97-1.9c3.6979-0.7258 10.808-0.9871 15.801-0.5808 4.9922 0.4065 9.0767 0.4375 9.0767 0.068 0-0.3683-2.8044-1.9102-6.2321-3.4263-4.5788-2.0256-7.6632-2.528-11.627-1.8941-6.7337 1.0767-18.448 6.0302-18.448 7.8006 0 0.7392 1.0384 0.888 2.3532 0.3371 1.2942-0.5425 5.3788-1.5799 9.0767-2.3057zm-193.49-9.3365c-1.1003-5.501-0.95004-5.4151-6.3233-3.6184-5.8033 1.9406-8.004 3.841-4.5211 3.9043 1.4422 0.027 4.135 0.9124 5.9839 1.9694 4.9813 2.8475 5.8047 2.4656 4.8605-2.2553zm189.45 1.6965c6.4445-2.4669 6.584-2.6267 3.3617-3.8535-8.3554-3.1808-9.0469-3.1805-9.9002 0-0.84697 3.1615-1.1119 6.4258-0.52123 6.4239 0.18489-0.0006 3.3617-1.1592 7.0597-2.5747zm-201.04-8.0702 7.3958-2.4133-4.0341-1.7049c-10.209-4.3147-24.821-1.8721-25.98 4.3428-0.37831 2.0293 0.63941 2.3419 7.3918 2.271 4.3068-0.046 11.159-1.168 15.226-2.4956zm228.36 0.2246c-1.1587-6.2149-15.771-8.6575-25.98-4.3428l-4.0341 1.7049 7.3958 2.4133c4.0676 1.3276 10.92 2.4504 15.226 2.4956 6.7525 0.07 7.7702-0.2417 7.3918-2.271zm-217.22-11.3c-0.91578-0.9158-3.0171-1.1341-5.3115-0.5521l-3.7963 0.9631 4.0341 1.7226c4.365 1.8638 7.6781 0.4707 5.0738-2.1336zm190.2-0.088c-2.3146-1.4705-6.0372-1.3328-7.0215 0.2598-1.6405 2.6545 0.68716 3.7949 4.674 2.2901 2.6814-1.0121 3.4514-1.8484 2.3474-2.5499zm-197.41-3.2704c3.244-0.6656 3.243-0.6694-0.89763-3.1873-7.826-4.7592-14.008-5.8872-19.559-3.5678-3.3838 1.4138-4.978 2.9395-4.978 4.7643 0 2.2453 1.0447 2.7549 6.3873 3.1161 6.5722 0.4443 13.352 0.045 19.047-1.1253zm223.33-1.9364c0-1.9015-1.521-3.3936-4.8974-4.8042-5.4539-2.2789-8.9929-1.7673-17.721 2.5621-7.5073 3.7238-5.178 4.7769 10.852 4.9055 10.997 0.088 11.767-0.085 11.767-2.6634zm-215.15-7.4768v-4.8561l-5.0426 0.9265c-5.2215 0.9596-9.2028 3.3822-5.6477 3.4367 1.0724 0.016 3.4626 1.2133 5.3115 2.6595 4.681 3.6614 5.3788 3.3804 5.3788-2.1666zm186.91 2.1666c1.849-1.4462 4.2391-2.6429 5.3116-2.6594 3.555-0.054-0.42624-2.4772-5.6477-3.4368l-5.0426-0.9265v4.8561c0 5.547 0.69785 5.828 5.3788 2.1666zm-155.02-11.767c-0.30808-2.0338-0.56017-0.3698-0.56017 3.6979 0 4.0678 0.25209 5.7317 0.56017 3.698 0.30812-2.0338 0.30812-5.3621 0-7.3959zm118.34-0.6483c-0.29927-2.4168-0.55031-0.7636-0.55785 3.6739-0.009 4.4374 0.23731 6.415 0.54414 4.3943 0.30682-2.0206 0.31299-5.6512 0.0137-8.0682zm-164.56 3.7162c4.3263-1.0336 8.145-2.158 8.4861-2.499 1.4453-1.4453-11.896-5.249-16.003-4.5628-7.8255 1.3074-11.778 3.4266-11.778 6.3138 0 2.3143 0.85742 2.7156 5.715 2.6749 3.1432-0.028 9.2546-0.8935 13.581-1.9269zm229.47-0.7531c0-5.5487-14.936-8.2601-23.532-4.272l-5.3788 2.4955 8.0682 2.1162c4.4375 1.1638 10.943 2.1764 14.456 2.2496 5.5608 0.1169 6.3873-0.2189 6.3873-2.5893zm-212.3-6.8487c2.3068-2.3069 2.4984-3.077 1.0085-4.0515-1.0118-0.6622-3.0498-0.9015-4.5289-0.5322-1.4792 0.3694-3.7484 0.6797-5.0426 0.6898-3.4166 0.027-2.8844 1.7119 1.3471 4.2657 2.0325 1.2266 3.8468 2.2856 4.0317 2.3533 0.18489 0.067 1.6178-1.1589 3.1842-2.7251zm183.05 0.2359c4.1939-2.1023 4.8452-4.1024 1.3447-4.1298-1.2942-0.014-3.5634-0.3204-5.0426-0.6898-1.4792-0.3693-3.5172-0.1304-4.5289 0.5322-1.5086 0.9867-1.3877 1.694 0.67234 3.9314 1.3816 1.5003 2.8145 2.6113 3.1842 2.4687 0.3698-0.1425 2.3364-1.0934 4.3703-2.1127zm-234.24-3.523c5.1044-5.4333 10.637-8.2845 20.511-10.57 18.645-4.3158 31.583-2.2216 40.793 6.6028l5.672 5.4347 0.8414-4.485c0.46275-2.4667 1.1362-5.2533 1.4966-6.1924 0.99928-2.604-10.888-15.012-17.404-18.166-10.372-5.0207-31.086-3.3266-44.75 3.66-5.1972 2.6572-5.7536 3.5266-9.0767 14.185-1.947 6.2448-3.5401 11.719-3.5401 12.166 0 1.7844 2.3906 0.6308 5.4576-2.6341zm283.66 2.6341c0-0.4464-1.6079-5.9688-3.5731-12.272l-3.5731-11.46-8.7147-4.0782c-7.3037-3.4177-10.844-4.1804-21.864-4.7112-11.596-0.5583-13.874-0.2824-19.283 2.3361-7.5063 3.6338-18.792 15.692-17.57 18.772 0.46665 1.1765 1.1655 4.024 1.5529 6.3276l0.70438 4.1885 5.7685-5.7684c8.8832-8.8832 21.603-10.933 40.583-6.5394 9.8739 2.2859 15.407 5.1371 20.511 10.57 3.0671 3.2649 5.4576 4.4187 5.4576 2.6341zm-263.56-2.6939c0-0.2908-0.90767-0.5286-2.017-0.5286-1.1094 0-2.017 0.5861-2.017 1.3025s0.90767 0.9542 2.017 0.5284c1.1094-0.4258 2.017-1.0117 2.017-1.3023zm242.05 0.8161c0-0.7395-1.059-1.3355-2.3532-1.3242-2.011 0.017-2.06 0.2103-0.33617 1.3242 2.5377 1.64 2.6894 1.64 2.6894 0zm-227.58-4.9581c-1.2856-0.3364-3.7061-0.3488-5.3788-0.027-1.6727 0.3216-0.6208 0.597 2.3375 0.612s4.3269-0.2483 3.0413-0.5848zm215.15 0c-1.2856-0.3364-3.7061-0.3488-5.3788-0.027-1.6727 0.3216-0.62079 0.597 2.3375 0.612s4.3269-0.2483 3.0413-0.5848zm-179.34-57.123c-1.3103-11.648-2.8566-21.18-3.4364-21.18-1.6605 0-4.9552 13.18-5.9377 23.754-0.87441 9.4101-0.82106 9.6445 2.2928 10.085 4.2901 0.6069 4.421 5.6548 0.16244 6.2595-1.6641 0.2364-3.0256 1.0285-3.0256 1.7603 0 0.7317-0.5505 0.9902-1.2234 0.5745-0.67282-0.416-2.2566-0.3597-3.5196 0.125-2.001 0.7678-1.887 1.108 0.88718 2.6461 2.1213 1.1761 2.479 1.7809 1.0723 1.8127-1.4232 0.032-0.30449 1.9875 3.4342 6.0021 3.0499 3.2753 6.7228 8.147 8.1622 10.826l2.6169 4.8716 0.44842-13.18c0.24663-7.2488-0.6236-22.71-1.9338-34.359zm149.06 29.583c3.6297-3.1391 3.8771-3.7051 1.6373-3.7455-2.3585-0.044-2.3007-0.2351 0.54474-1.8126 2.7742-1.5382 2.8882-1.8783 0.88719-2.6462-1.2629-0.4846-2.8467-0.5409-3.5196-0.125-0.67284 0.4158-1.2234 0.1573-1.2234-0.5744 0-0.7319-1.3615-1.5241-3.0256-1.7603-4.2586-0.6048-4.1277-5.6527 0.16244-6.2595 3.1139-0.4406 3.1671-0.6751 2.2928-10.085-0.98298-10.579-4.2774-23.754-5.9397-23.754-1.6315 0-5.6586 39.337-5.6235 54.931l0.0312 13.918 4.75-7.1949c2.6126-3.9572 6.6742-8.8588 9.0259-10.893zm-208.56-8.5299c-0.26065-2.8893-0.59563-14.028-0.74442-24.751-0.36809-26.528-0.58943-29.583-2.1434-29.583-0.81473 0-1.3823 6.2271-1.4403 15.801-0.0526 8.69-0.56974 20.642-1.1491 26.558-0.8238 8.4124-0.65636 11.082 0.76802 12.251 1.0018 0.8212 1.8215 2.5357 1.8215 3.8101 0 1.2743 0.75638 2.0587 1.6809 1.7432 1.0766-0.3676 1.5106-2.462 1.207-5.827zm259.33 3.9717c0-1.2127 0.81968-2.8768 1.8215-3.6979 1.4244-1.1675 1.5918-3.8383 0.76803-12.251-0.5794-5.9166-1.0965-17.867-1.1491-26.558-0.0526-8.6901-0.61652-15.801-1.253-15.801-1.933 0-2.8655 13.211-1.9679 27.882 0.57846 9.4545 0.29506 16.18-0.88986 21.12-1.7505 7.297-1.2808 11.508 1.2835 11.508 0.7628 0 1.3869-0.9922 1.3869-2.2049zm-243.62-2.7276c4.189-0.4925 7.0118-1.0822 6.2729-1.3108-0.73892-0.2286-5.1254-1.2842-9.7478-2.3456l-8.4044-1.9301v4.0587c0 3.1523 0.47611 3.8759 2.1315 3.2408 1.1724-0.4499 5.5589-1.2207 9.7478-1.713zm236.89-1.7211v-3.9129l-7.732 1.8479c-4.2526 1.0162-8.6396 1.9348-9.749 2.0408-1.6845 0.1613 1.3148 0.8428 16.472 3.7438 0.55469 0.1065 1.0085-1.5676 1.0085-3.7196zm-211.21-3.6023 5.339-2.1363-0.26917-17.698-0.26917-17.698-13.717 0.4566c-9.2254 0.3072-15.88-0.1774-20.323-1.4797l-6.6057-1.9363-0.84807 10.893c-0.46645 5.9908-0.85172 13.947-0.85616 17.68l-0.008 6.7876 13.783 3.4934c16.839 4.2679 17.148 4.2892 23.774 1.6381zm196.09-1.478 15.127-3.6634-0.009-6.7826c-0.005-3.7304-0.3947-11.749-0.86727-17.819-0.83607-10.74-0.93537-10.993-3.6898-9.4218-1.8006 1.0272-9.1922 1.6181-20.311 1.6239l-17.481 0.014-0.26921 17.701-0.26923 17.7 4.9757 2.0649c6.5484 2.7175 5.4709 2.7842 22.793-1.4107zm-193.63-40.226c4.8313-0.9663 7.9469-6.1805 5.1032-8.5405-1.3078-1.0854-3.5544-1.0838-8.3289 0-3.5959 0.8207-12.882 1.2923-20.636 1.048-12.113-0.3818-14.157-0.1394-14.517 1.7201-0.40288 2.0787 3.3558 4.2566 9.7902 5.6724 4.2118 0.9268 24.099 0.9921 28.589 0.094zm203.76-1.9196c2.1894-1.0417 3.5799-2.6639 3.3406-3.8978-0.34803-1.7956-2.5303-2.0466-14.508-1.6691-7.7541 0.2442-17.04-0.2273-20.636-1.0481-8.0807-1.8444-10.934-0.3066-8.6663 4.6705 0.79948 1.7547 2.7322 3.4771 4.295 3.8276 5.7106 1.2807 32.45-0.1117 36.174-1.8831zm-201.82-13.232c0.51516-0.4604 1.5532-13.847 2.3067-29.749 2.5875-54.601 6.458-80.64 18.888-127.07 8.3075-31.032 9.4687-37.327 9.463-51.291-0.008-18.964-7.569-63.224-11.586-67.82-2.2026-2.5201-2.4034-7.0855-0.45454-10.334 1.4247-2.3746 10.747-50.348 9.9536-51.222-1.1105-1.226-12.767 4.4137-12.196 5.9008 0.34739 0.9053 0.13056 2.1734-0.4818 2.8182s-2.3969 7.6967-3.9657 15.672c-3.8099 19.367-8.3281 30.31-16.512 39.994-2.9093 3.4424-9.3837 8.0365-11.326 8.0365-3.3971 0-1.8744-3.436 4.1372-9.3361 3.2852-3.2242 7.3532-8.9475 9.0401-12.719 2.8178-6.2991 3.0379-8.4925 2.708-26.986-0.27373-15.344-0.82462-20.645-2.3166-22.293-2.4014-2.6535-2.5302-6.1451-0.27803-7.537 0.92373-0.5709 5.2172-1.4551 9.541-1.9649 11.979-1.4124 16.625-5.815 21.953-20.801 2.3442-6.5939 5.2208-16.225 6.3924-21.402 1.1717-5.1771 4.2892-19.095 6.9277-30.928 7.9051-35.453 17.988-73.231 22.789-85.388 6.3586-16.1 10.055-43.497 10.055-74.523v-23.445l-3.5431-2.7871c-1.9487-1.5328-5.324-2.7869-7.5008-2.7869s-12.836-2.4346-23.687-5.4101c-43.583-11.952-80.656-17.668-127.06-19.594l-22.608-0.93824 0.87331 15.324c1.3005 22.82 3.7548 36.495 13.293 74.067 7.6192 30.012 10.462 44.487 15.531 79.089 1.2281 8.3835 1.2523 8.2462 0.59094-3.3618-0.3792-6.6562-2.1432-27.23-3.9201-45.72-1.7768-18.49-3.5506-40.274-3.9419-48.409l-0.71122-14.792 1.9771 9.402c2.0354 9.6794 4.8302 36.232 10.829 102.88 1.897 21.078 3.7484 39.836 4.1141 41.686 2.8194 14.254 10.788 42.836 12.52 44.906 3.4383 4.1111 12.438 7.4135 22.836 8.3799 5.3291 0.4954 9.2042 1.3488 8.6113 1.8969-1.8347 1.6958-16.038 5.3281-20.835 5.3281h-4.5515l0.86435 9.0767c0.4754 4.9921 1.8603 11.42 3.0776 14.284 3.3272 7.8276 2.8369 10.39-1.1265 5.887-1.79-2.0337-3.5017-3.6979-3.8034-3.6979-0.30181 0-0.93113 3.1768-1.3985 7.0597-2.6935 22.376-3.6487 28.432-6.311 40.005-2.362 10.268-3.0722 18.513-3.6184 42.016-0.9299 40.005-0.41104 45.188 14.975 149.61 3.5102 23.823 5.4456 43.776 6.9369 71.516 0.66563 12.382 1.3517 16.564 2.8088 17.124 1.1749 0.4509 1.7755 2.1735 1.5376 4.4101-0.37303 3.5069 0.0287 3.77 9.0225 5.908 8.9909 2.1375 26.804 2.1634 29.176 0.044zm-10.138-104.04c-1.5746-27.326-0.91333-60.266 1.721-85.725 3.814-36.86 9.0438-64.62 12.586-66.809 0.88283-0.5457 1.0076 0.3032 0.35133 2.3897-2.158 6.8612-6.2884 31.046-8.8201 51.645-3.81 31-5.1424 56.789-4.4985 87.07 0.31065 14.606 0.33241 26.558 0.0484 26.558-0.28405 0-0.90871-6.8075-1.3882-15.127zm-34.801-186.32c-6.1731-7.0396-7.7119-16.44-5.1965-31.747 1.0748-6.5405 2.9148-8.8798 7.0149-8.9182 3.6207-0.033 3.8797 5.1611 0.8531 17.114-2.4248 9.5756-2.6434 12.384-1.4227 18.27 0.79332 3.8248 1.3028 7.1094 1.1322 7.2987-0.17062 0.1896-1.2421-0.7183-2.381-2.017zm238.98 290.28c8.9828-2.1877 9.395-2.4602 9.0225-5.9628-0.23792-2.2366 0.36266-3.9592 1.5376-4.41 1.4571-0.5591 2.1431-4.7417 2.8088-17.124 1.4913-27.74 3.4266-47.693 6.9369-71.516 15.385-104.42 15.904-109.6 14.975-149.61-0.54631-23.503-1.2564-31.749-3.6184-42.016-2.6623-11.573-3.6176-17.628-6.311-40.005-0.46738-3.8829-1.0967-7.0598-1.3985-7.0598-0.30179 0-2.0134 1.6641-3.8034 3.6979-3.9634 4.503-4.4537 1.9406-1.1265-5.8869 1.2173-2.8638 2.6023-9.2914 3.0776-14.284l0.86437-9.0768h-4.5515c-4.7965 0-19-3.6324-20.835-5.3282-0.59286-0.5479 3.2822-1.4015 8.6113-1.8967 10.384-0.9652 19.371-4.2584 22.867-8.38 1.1889-1.4018 5.2864-14.859 9.1053-29.906 7.1909-28.332 9.1242-41.774 12.312-85.597 2.6123-35.916 3.6066-40.843 3.935-19.498l0.27932 18.153 2.4609-12.102c1.3535-6.6561 5.803-25.112 9.8878-41.013 8.3073-32.337 10.952-47.343 12.304-69.792l0.92296-15.332-21.978 0.90822c-32.037 1.3239-59.914 4.4336-84.783 9.4575-23.559 4.7871-61.157 14.329-71 18.094l-6.0511 2.3031-0.41223 15.422c-0.63755 23.851 5.0432 57.99 18.35 110.29 6.9562 27.335 11.488 46.468 21.167 89.362 1.1682 5.1771 4.0419 14.808 6.3861 21.402 5.3277 14.986 9.974 19.39 21.953 20.801 4.3238 0.5099 8.6172 1.3941 9.541 1.9649 2.2522 1.3919 2.1233 4.8836-0.27802 7.5371-1.4921 1.6486-2.0429 6.9499-2.3166 22.293-0.32994 18.494-0.10987 20.688 2.708 26.986 1.6869 3.7711 5.755 9.4944 9.0401 12.719 6.0118 5.9001 7.5344 9.3362 4.1372 9.3362-1.9418 0-8.4163-4.5941-11.326-8.0365-8.2229-9.7295-13.069-21.474-16.662-40.372-1.476-7.7655-3.2882-14.85-4.0271-15.742-0.73885-0.8922-1.0009-2.1761-0.58237-2.8534 0.711-1.1505-10.938-6.4598-11.884-5.4162-0.79311 0.8755 8.5289 48.848 9.9536 51.222 1.9488 3.2483 1.7481 7.8136-0.45455 10.334-4.0295 4.6106-11.578 48.868-11.586 67.928-0.006 13.69 0.78349 18.068 8.74 48.495 8.4659 32.375 9.9559 38.938 12.67 55.805 2.9566 18.371 6.4128 57.38 7.6494 86.336l0.78698 18.429 8.2699 0.474c4.5484 0.2606 9.1775 0.541 10.287 0.6231 1.1093 0.082 6.2528-0.8821 11.43-2.1431zm-20.149-115.11c0.39028-31.795-1.0366-57.676-4.8561-88.078-2.6373-20.993-6.4857-43.679-8.6684-51.098-0.75623-2.5709-0.61121-3.0112 0.6165-1.872 3.692 3.4258 9.4632 35.681 12.831 71.712 2.1509 23.012 2.5165 63.276 0.76402 84.127-0.75204 8.9476-0.93114 5.0921-0.68705-14.792zm33.401-174.75c2.4859-6.6163 2.4013-14.117-0.27538-24.443-3.703-14.286-1.906-19.793 5.0262-15.403 4.3625 2.7624 5.4596 25.952 1.587 33.542-2.9749 5.8314-8.0606 10.891-6.3377 6.3045zm-284.6-164.6c-0.34094-1.3084-0.6423-0.5635-0.6697 1.6551-0.0274 2.2189 0.25152 3.2893 0.61987 2.3789s0.39077-2.7258 0.0498-4.034zm176.61-160.28c10.335-3.6059 49.65-12.864 71.223-16.772 23.307-4.2225 45.481-6.1061 76.973-6.539l25.202-0.3464 0.009-6.0511c0.01-6.3103-3.0971-38.118-5.3293-54.576-1.6174-11.927-11.843-42.965-19.565-59.386-3.217-6.8412-6.083-12.438-6.3688-12.438-0.28583 0 0.24883 4.6897 1.1882 10.421 0.93933 5.7318 1.7399 11.61 1.7791 13.063 0.12129 4.4961-3.3136-0.23356-7.2137-9.9329-3.9518-9.8279-4.3755-15.146-1.4409-18.08 1.8125-1.8125 1.6964-2.526-1.0766-6.6122-2.5739-3.7928-3.6169-4.3923-6.0659-3.4864-1.9012 0.70329-2.9575 0.57324-2.9575-0.36417 0-0.86162-1.2379-1.1187-3.0256-0.62838-1.6641 0.4564-10.892 2.591-20.506 4.7434-77.278 17.3-148.73 22.08-195.66 13.086-21.003-4.0266-58.165-13.294-65.358-16.3-4.5486-1.9005-5.077-1.8772-6.8115 0.30045-4.7345 5.9442-6.0617 8.5397-5.335 10.434 0.86883 2.2642-7.9163 30.138-10.17 32.268-0.98852 0.93402-1.1943 0.318-0.67369-2.017 1.6212-7.2719 2.5458-16.136 1.6831-16.136-3.0347 0-20.475 47.683-22.265 60.873-2.2521 16.598-5.365 48.422-5.3575 54.771l0.007 6.0511 27.22 0.41937c43.872 0.67592 76.158 4.9926 117.31 15.685 9.6146 2.4978 20.251 4.8637 23.637 5.2577 3.3857 0.39378 7.7728 1.3308 9.749 2.0822 3.257 1.2383 3.5931 1.0731 3.5931-1.766 0-1.7227-1.3615-4.6678-3.0256-6.5447s-7.5639-8.7174-13.111-15.202c-9.0364-10.499-28.594-28.766-30.874-28.766-0.48764 0-2.2725-1.8745-3.9663-4.1655-2.2025-2.979-2.6667-4.5786-1.6296-5.6158 1.0371-1.0371 1.0293-1.9572-0.0272-3.2303-0.81258-0.97905-1.1108-1.7801-0.66288-1.7801 0.44797 0 8.8424 8.0727 18.655 17.939 14.795 14.878 19.446 18.708 27.252 22.449 12.353 5.9182 19.721 5.9614 31.683 0.18603 12.805-6.182 20.622-12.761 33.839-28.477 11.866-14.11 16.021-17.048 17.749-12.545 0.69607 1.8139-2.0158 5.2064-11.356 14.206-6.7486 6.5026-13.939 12.685-15.978 13.741-4.0022 2.0696-18.415 18.247-20.674 23.205-0.76001 1.6681-2.5164 3.3929-3.903 3.833-3.1699 1.0061-5.9194 5.3593-6.9584 11.018-0.94146 5.1265-0.93247 5.1284 8.5897 1.8062zm-15.85-8.5297c-0.2797-0.48409-1.0758-0.9359-1.7642-0.9359-1.498 0-1.7168 8.5074-0.25681 9.9861 1.0412 1.0546 2.8887-7.1824 2.0137-8.9776zm48.065-154.73c30.705-3.7275 37.671-5.1663 69.762-14.41 17.053-4.912 24.367-8.0398 24.367-10.42 0-1.4651-5.2257-6.946-6.6225-6.946-0.62642 0-3.1746 2.0675-5.6626 4.5944-2.488 2.527-8.3664 6.14-13.063 8.0288l-8.5394 3.4344 5.6163-6.093c6.4653-7.0247 9.4452-13.296 9.4452-19.902 0-2.5506 0.58696-4.8393 1.3044-5.0857 1.473-0.50616-3.5916-15.28-8.5672-24.992-1.799-3.5113-7.4577-12.252-12.575-19.423-5.1172-7.1713-11.673-17.704-14.568-23.406-4.6394-9.138-5.3198-11.7-5.7386-21.611-0.35953-8.5083 0.0312-12.017 1.6066-14.422 1.9727-3.0108 4.9196-34.291 4.9196-52.22v-6.4102l-11.093 0.0107c-6.1016 0.006-15.027 0.60865-19.835 1.3402-17.179 2.614-38.996 7.1711-38.996 8.1454 0 0.5453 5.3843 5.0004 11.965 9.9002 11.652 8.6754 16.301 12.877 14.249 12.877-0.55478 0-5.0159-2.9453-9.9137-6.5452-12.806-9.4127-19.897-13.623-23.357-13.872-1.6659-0.11954-6.864 1.1977-11.551 2.9274-8.6664 3.198-12.619 7.7186-9.849 11.266 0.6514 0.83451 1.2697 4.2047 1.374 7.4893 0.10435 3.2846 0.64328 6.3102 1.1978 6.7235 0.55449 0.4127 0.70559 6.1969 0.3358 12.853l-0.67235 12.102-3.3618-21.308c-1.849-11.719-3.6755-21.815-4.059-22.436-1.328-2.1492-48.073 16.076-64.471 25.136-4.8346 2.6712-15.295 8.1376-23.246 12.147-7.9505 4.0098-14.456 7.78-14.456 8.378 0 0.86979 8.3666 14.265 13.123 21.011 7.1431 10.13 6.2835 12.913-11.816 38.255-12.178 17.051-20.127 32.111-20.127 38.125 0 4.7752 9.3332 22.034 15.387 28.452 2.4362 2.5831 3.829 4.6965 3.0952 4.6965-0.73384 0-6.137-2.1685-12.007-4.8188-9.796-4.423-14.543-5.1352-14.543-2.1821 0 1.6716 38.008 13.337 49.081 15.065 5.1771 0.80751 11.531 2.0247 14.119 2.7048 2.5885 0.68009 7.732 1.6163 11.43 2.0804 3.6979 0.4641 10.052 1.3348 14.119 1.9348 4.0677 0.60001 21.919 0.95683 39.669 0.79295 25.464-0.23511 38.656-1.0729 62.528-3.9709zm-118.31-22.63c-4.2444-7.5518-4.0289-18.636 0.68058-35.006 3.5026-12.174 4.5598-25.972 2.5912-33.816-2.0993-8.3642 7.9263-12.567 10.745-4.5044 2.0466 5.8535-1.0666 25.421-6.5746 41.324-5.4851 15.837-7.3504 28.783-4.8266 33.498 2.9848 5.577 0.58957 4.2076-2.6158-1.4956zm63.086-22.787c-2.0687-3.8654-0.79115-14.064 2.1717-17.339 2.8836-3.1863 5.1119-3.3326 7.9242-0.52035 2.515 2.515 2.1165 15.482-0.57536 18.726-2.4717 2.9782-7.7186 2.5007-9.5206-0.86643zm70.273-9.216c-0.46756-9.9885-3.9432-22.305-11.928-42.264l-7.5626-18.912-0.58091-20.515c-0.55289-19.25-0.43675-20.508 1.894-20.528 1.9449-0.016 2.0793-0.27623 0.62047-1.2001-1.511-0.95695-1.3842-1.4264 0.67236-2.4871 7.0766-3.6503 9.2955 2.9353 5.1193 15.194-5.2361 15.37-4.5898 26.445 2.6791 45.907 8.2622 22.122 10.405 31.229 9.8509 41.865-0.33659 6.4595-0.54815 7.2864-0.75168 2.9382zm-63.182-28.911c0.0273-2.2188 0.32877-2.9636 0.66972-1.6553 0.34093 1.3083 0.31851 3.1237-0.0499 4.0341-0.36834 0.91041-0.6473-0.16006-0.61989-2.3788zm0.15454-32.273c0.009-4.4375 0.25857-6.0907 0.55785-3.6738s0.29311 6.0476-0.0137 8.0682c-0.30683 2.0206-0.55169 0.0431-0.54414-4.3944zm-1.4223-14.792c0.015-2.9583 0.29032-4.0102 0.61195-2.3375s0.30942 4.0931-0.0272 5.3788c-0.33658 1.2856-0.59975-0.0829-0.58482-3.0413zm-69.58-0.59166c-1.4792-0.42306-6.1688-2.791-10.421-5.2623-12.027-6.9892-12.373-9.2608-0.94604-6.2198 4.0333 1.0734 9.8693 1.9587 12.969 1.9676 6.2766 0.0178 7.7665 1.3668 6.6079 5.9828-0.85273 3.3976-3.9779 4.742-8.2095 3.5318zm21.713-27.988c1.9393-4.2526 4.1746-10.001 4.9673-12.775 0.79274-2.7734 2.1914-5.0426 3.1082-5.0426 2.2156 0-2.4208 13.6-6.9906 20.505-4.7669 7.2033-5.1559 6.2396-1.0849-2.6877zm116.76-1.8978c2.0321-1.5985 4.8344-4.7753 6.2274-7.0596 1.393-2.2844 2.5349-3.3987 2.5377-2.4764 0.007 2.0874-9.2234 12.442-11.09 12.442-0.75326 0 0.29307-1.3078 2.3251-2.9063zm8.9817-12.557c-0.005-0.73958 0.8087-3.4626 1.8056-6.0511 0.99684-2.5885 1.8312-3.7987 1.8541-2.6894s-0.78957 3.8324-1.8056 6.0511-1.8503 3.429-1.8541 2.6894zm-186.98 11.513c17.399-9.1477 56.141-24.684 77.177-30.953 9.6146-2.8644 24.44-7.4158 32.945-10.114 29.35-9.3116 63.004-17.124 74.631-17.324 5.9167-0.10209 12.119 0.30912 13.783 0.91367 2.8101 1.0208 3.0256 0.72361 3.0256-4.173 0-2.8997-0.38563-8.9617-0.85695-13.471l-0.85695-8.1989-9.6591 5.3012c-11.618 6.3765-19.773 8.1395-38.155 8.2477-16.752 0.0987-21.061-2.1277-6.6475-3.4338 13.741-1.2451 31.547-5.7098 38.108-9.555 18.64-10.923 29.249-38.906 25.032-66.026-1.861-11.973-4.2492-16.954-17.04-35.532-12.01-17.438-28.798-44.261-33.459-53.459-9.4129-18.575-15.04-40.486-13.65-53.153l0.85299-7.7769-9.1486 0.89769c-5.0318 0.49372-9.8093 1.4163-10.617 2.0502-0.80762 0.63388-1.9636 0.70392-2.5688 0.15564-1.5777-1.4292 0.64952 2.3555 4.1614 7.0714 8.5623 11.498 13.21 28.509 13.042 47.737-0.19569 22.449-4.3664 38.374-16.793 64.123-11.077 22.952-35.452 42.692-58.621 47.476-16.643 3.436-49.536-0.19484-71.921-7.9385-25.536-8.8341-42.531-24.989-49.535-47.086-2.1527-6.7915-2.7858-12.228-2.7349-23.482 0.0365-8.0545 0.44634-16.375 0.91083-18.49l0.84451-3.8451h-9.3551c-6.846 0-9.8233 0.56416-11.101 2.1035-1.1517 1.3876-2.8741 1.8203-5.0615 1.2713-3.1314-0.78595-3.0833-0.63664 0.86535 2.686 5.4037 4.5469 11.799 17.652 14.432 29.574 1.2676 5.7384 2.3859 19.911 2.8648 36.307 0.64705 22.149 0.39731 28.602-1.4155 36.572-1.2107 5.3228-2.2012 12.984-2.2012 17.026 0 21.121 9.1046 44.846 21.827 56.88 6.7477 6.3816 7.7482 6.8547 17.595 8.3194 25.154 3.7414 39.838 0.9617 69.497-13.156 22.049-10.496 23.331-11.005 28.911-11.503 2.2188-0.19766 7.6648-0.74426 12.102-1.2146 6.9746-0.73934 6.0283-0.31395-6.9819 3.1383-18.727 4.9694-25.154 8.2288-38.738 19.644-5.9167 4.9725-13.92 10.458-17.785 12.19-9.6274 4.3143-23.137 6.3023-35.666 5.2481-8.8099-0.74134-10.421-0.5611-10.421 1.1657 0 1.1234 0.76824 2.5265 1.7072 3.118 0.93894 0.59145 3.1498 5.3111 4.913 10.488 3.8173 11.208 6.487 16.809 8.0127 16.809 0.61425 0 6.8012-2.9885 13.748-6.6411zm-74.52-137.24c3.9682-13.756 3.9704-13.491-0.28965-34.782-5.5723-27.85-11.13-42.015-17.269-44.017-2.1145-0.68955-2.4127-1.8396-1.8894-7.2854l0.62135-6.4666-11.558-2.7139c-20.774-4.8781-19.898-4.8941-31.728 0.57897-5.9167 2.7373-12.573 6.3264-14.792 7.9758-8.0371 5.9745-49.577 29.248-70.784 39.657-19.888 9.7618-31.624 14.438-42.101 16.772-3.1239 0.6962-3.5513 1.1619-2.017 2.1976 1.3017 0.87862-1.1727 1.0209-7.466 0.42941-5.1771-0.4866-9.8776-1.312-10.446-1.8343-0.56809-0.52225 1.3362-2.8534 4.2318-5.1803 3.988-3.2049 7.4992-4.5812 14.48-5.6759 21.508-3.3727 43.437-11.805 69.595-26.762 35.378-20.227 68.638-39.47 73.192-42.344 18.644-11.769 30.743-14.794 38.596-9.6477 2.9661 1.9435 5.5372 2.312 12.602 1.8064 11.164-0.79879 20.687-5.317 32.405-15.376 21.716-18.64 38.832-28.726 50.203-29.585 3.5801-0.27064 7.5134-0.9892 8.7405-1.5967 1.2271-0.60759 5.6533-1.8926 9.836-2.8556 4.1826-0.96301 9.3262-3.1822 11.43-4.9315l3.8251-3.1806-3.7855 1.3478c-5.0336 1.7922-7.0977 1.6996-9.2292-0.41439-1.4654-1.4532-5.0294-1.4245-20.326 0.16393-10.202 1.0594-18.937 1.5397-19.409 1.0675-2.0586-2.0586 2.7421-3.6793 14.536-4.9073 6.9655-0.72524 20.458-2.3076 29.981-3.5163 16.089-2.0419 17.406-2.0402 18.561 0.0243 1.5449 2.7605 6.1547 1.8797 14.212-2.7156 4.1642-2.375 5.6727-4.0648 5.559-6.2282-0.13285-2.5296-0.25194-2.5949-0.80462-0.44089-0.57218 2.2301-1.6021 2.4415-8.7421 1.7941-4.8986-0.44419-14.533 0.25417-24.409 1.7691-8.9732 1.3766-23.258 3.1354-31.743 3.9083-12.955 1.1801-15.737 1.0961-17.357-0.52372-1.6756-1.6756-2.4753-1.6322-6.0866 0.33027l-4.1576 2.2593 3.6337 0.43772c4.6262 0.5573 6.3196 5.0596 3.0668 8.1535-1.7912 1.7037-2.4628 1.807-2.9619 0.45573-0.51431-1.3926-1.2734-1.3361-3.7374 0.27837-1.7006 1.1143-9.1392 3.5588-16.53 5.4324-7.3911 1.8735-14.563 3.7336-15.935 4.1335-1.3735 0.39984-0.98444 0.002 0.86451-0.88256 19.058-9.125 27.736-14.216 26.439-15.512-0.66869-0.66873-19.299 8.4804-35.581 17.472-16.531 9.1303-25.135 12.141-35.115 12.288-7.7098 0.11389-9.6112 0.68156-14.656 4.3755-4.2964 3.1456-7.7778 4.4461-13.447 5.0228-9.8066 0.9977-22.692 3.6934-41.267 8.6331-8.1354 2.1634-33.551 7.9733-56.477 12.91-71.473 15.392-78.871 17.565-88.136 25.896-7.6292 6.8592-14.377 16.968-15.569 23.319l-0.86488 4.6116 5.3052-5.0699c2.9179-2.7885 5.6756-4.6996 6.1284-4.2469 3.2268 3.2267-18.864 36.208-24.256 36.213-1.2373 0.00094-2.4338 0.95893-2.659 2.1281-0.43274 2.247 8.8953 6.7524 24.578 11.871 4.4375 1.4484 11.093 3.6251 14.792 4.8371 3.6979 1.2121 7.9337 2.894 9.4129 3.7376 1.7484 0.99717 14.768 1.7187 37.209 2.0622 36.834 0.5638 77.695-1.9798 98.605-6.1383 14.166-2.8172 21.788-2.7824 27.76 0.12667 8.2072 3.998 26.778 19.777 36.069 30.646l8.7847 10.277 2.5137-5.571c1.3826-3.0641 3.9975-10.715 5.811-17.001zm-99.088-32.832c0-0.32605 3.1768-1.5191 7.0596-2.6512 13.77-4.0233 23.871-12.898 23.871-20.977 0-3.0957 0.37458-2.92-12.675-5.9442-10.283-2.3832-14.543-5.2764-13.943-9.4702 0.91642-6.4057 16.146-3.1149 31.748 6.8603 7.4884 4.7878 36.554 28.362 36.554 29.648 0 0.7793-10.615-5.2927-18.153-10.384-2.9583-1.998-7.3454-4.641-9.749-5.8734-3.7673-1.9315-4.3703-1.9641-4.3703-0.2359 0 2.6864-7.6039 11.213-11.966 13.417-5.153 2.6042-28.375 7.1886-28.375 5.6019zm224.56 31.358c0-7.0984-15.236-22.74-28.707-29.471-6.1604-3.0784-7.2368-4.0128-4.6228-4.0128 1.8741 0 5.98 0.90766 9.1244 2.017 7.1396 2.519 7.4626 2.5108 5.2684-0.13299-1.608-1.9376-1.2591-1.9308 3.5332 0.0689 9.8647 4.1165 21.849 14.06 25.921 21.51l2.244 4.1038 0.70007-11.544c0.59306-9.7789 1.4581-13.078 5.6584-21.576 4.451-9.0061 17.71-25.299 19.297-23.712 0.3434 0.3434-1.5253 4.1943-4.1527 8.5574-5.973 9.9192-8.7158 18.994-8.7158 28.837 0 7.3683 2.0522 21.266 3.3288 22.542 1.3274 1.3274 15.765-7.1837 22.757-13.416 6.1685-5.4979 8.6639-9.2613 15.412-23.244 16.931-35.081 19.352-60.818 8.0488-85.603l-4.0552-8.8924-13.669 6.9076c-7.5179 3.7991-19.246 9.1161-26.062 11.815-18.21 7.211-24.936 13.17-26.293 23.294-1.337 9.9842-11.741 7.911-11.741-2.3397 0-7.5196 5.4485-16.438 12.949-21.193 3.2944-2.0892 18.37-7.8509 33.499-12.804 15.131-4.9528 27.51-9.4732 27.51-10.045 0-0.57215-3.3282-5.1006-7.3958-10.063-4.0677-4.9626-7.3958-9.5043-7.3958-10.093 0-0.58845-4.0845-2.0893-9.0767-3.3353-4.9922-1.2459-13.51-4.3904-18.93-6.9876-11.326-5.4278-17.326-5.3594-26.076 0.29736l-5.0012 3.2331-0.37761 16.481-0.37765 16.481-2.6406-15.162c-2.1708-12.464-3.0082-15.019-4.7064-14.361-1.1361 0.44004-3.7424 1.1384-5.7917 1.5519-2.0492 0.41353-3.9949 1.1872-4.3239 1.7194-0.99405 1.6085 6.1018 23.453 8.1341 25.04 3.2363 2.5284 5.8059 10.2 4.5354 13.542-0.68502 1.8018-0.59264 4.6416 0.22754 6.9944 1.96 5.6227 1.0416 14.174-1.5754 14.669-3.0948 0.58539-9.8606-5.0828-8.1312-6.8122 0.94835-0.94835 2.0361-0.84213 3.4577 0.3377 1.817 1.508 2.0741 0.96653 2.0741-4.3687 0-5.1183-0.37542-5.9999-2.3532-5.5257-6.0576 1.4523-31.47 4.1516-34.222 3.635-1.7012-0.31937-10.858 0.96896-20.347 2.863-9.4774 1.8933-20.601 3.4424-24.689 3.4424-6.2439 0-8.7798 0.81493-15.692 5.0426l-8.2441 5.0426 16.136 0.88996c21.711 1.1974 42.674 0.32075 56.861-2.3779 26.851-5.1074 33.906-2.8449 33.906 10.874 0 3.3568-0.69959 4.7746-2.6634 5.3979-2.9848 0.94736-9.0504-2.8215-9.7255-6.0428-0.36267-1.7308-5.4158-2.017-35.601-2.017h-35.179l-0.77323 3.8661c-1.2213 6.1064-0.83981 23.799 0.65285 30.274 5.6307 24.425 24.896 40.641 58.413 49.17 19.605 4.9882 39.669 7.3329 39.669 4.636zm151.05-62.737c7.9235-20.586 13.56-27.853 26.026-33.56 4.062-1.8596 14.745-4.8364 23.741-6.6152 8.9957-1.7786 21.197-4.822 27.113-6.7628 10.632-3.4876 34.162-14.569 40.898-19.261 2.9271-2.0388 23.042-12.579 79.326-41.567 4.8763-2.5115 9.2172-5.1039 9.6462-5.7611 0.4292-0.65716 9.2778-1.4398 19.664-1.7392 18.649-0.53763 19.089-0.62229 35.527-6.8425 9.1538-3.4639 22.898-9.2321 30.544-12.819 17.268-8.0998 55.706-31.052 78.883-47.102 9.6147-6.6582 21.548-14.304 26.52-16.99 4.9712-2.6865 8.8588-5.0641 8.6394-5.2837-0.2196-0.21951-6.0809 1.3822-13.025 3.5594-6.9444 2.1771-12.83 3.7546-13.079 3.5054-0.6388-0.63884 17.245-7.9752 29.315-12.026 10.574-3.5485 25.388-6.4126 27.269-5.2722 0.6012 0.36452 2.2712-0.40328 3.7109-1.7063 2.2894-2.0719 3.0448-2.1404 6.023-0.54657 2.1575 1.1547 8.1883 1.8513 16.459 1.9011 12.862 0.0775 13.156 0.007 19.962-4.7558 3.9377-2.7559 12.032-6.4211 18.826-8.5248 6.5549-2.0297 15.443-5.282 19.751-7.227l7.8329-3.5367-4.39-1.4781c-4.9841-1.6782-6.2245-3.8465-3.8423-6.7168 2.2214-2.6768 0.8519-2.4803-5.5787 0.8004-10.94 5.5812-32.977 9.6323-39.267 7.2185-1.7311-0.66436-1.7483-1.2482-0.1275-4.3703 1.868-3.5979 1.8952-3.6034 17.689-3.6034 13.286 0 16.51-0.41834 20.137-2.613 3.2727-1.9799 3.9703-3.0334 2.8793-4.348-1.0955-1.32-0.5204-2.0921 2.4041-3.2282 10.199-3.9618 26.828-10.064 40.823-14.981 19.919-6.9982 25.549-9.8646 25.549-13.007 0-2.2214-0.6514-2.3668-6.0703-1.3544-3.3388 0.62375-7.1207 1.6722-8.4044 2.3298-10.642 5.4517-64.469 18.058-74.82 17.521-4.5957-0.23789-8.0313 0.96798-17.707 6.2151-24.768 13.432-39.394 22.029-42.128 24.763-1.9395 1.9396-4.5294 2.8217-8.2835 2.8217-3.004 0-15.56 2.7309-27.903 6.0688-12.342 3.3378-29.511 7.5632-38.153 9.3896-8.6414 1.8264-21.421 5.1499-28.4 7.3852-6.9784 2.2353-21.389 5.8338-32.025 7.9966-44.71 9.0922-86.851 25.531-97.31 37.961-2.5646 3.0478-4.7478 4.1114-9.3196 4.54-3.2838 0.3078-8.5858 1.1731-11.782 1.9228-3.1964 0.74975-14.586 2.6074-25.309 4.128-34.322 4.8668-64.571 12.642-84.433 21.702-11.624 5.302-24.053 7.7661-43.313 8.5866-18.448 0.78589-28.849 2.2378-44.974 6.2781-14.382 3.6035-33.487 12.706-34.147 16.269-0.40311 2.1777-0.0898 2.2738 2.6894 0.82601l3.1456-1.6388-3.0256 3.2947c-9.4951 10.34 3.5506 52.232 25.394 81.547l8.3384 11.19 2.2395-7.156c4.6707-14.925 17.075-38.823 37.393-72.038 5.5419-9.0599 10.215-16.472 10.385-16.472 0.1701 0-3.2565 7.1101-7.6148 15.801-10.865 21.665-32.097 71.934-32.097 75.994 0 1.8245-1.2325 4.884-2.739 6.7991-2.3341 2.9673-2.485 3.8886-1.0212 6.2325 0.94474 1.5127 2.026 2.7482 2.4028 2.7454 0.37678-0.003 1.7905-2.877 3.1416-6.3873zm29.698-51.24c0.39263-0.63532 4.0303-1.5449 8.0837-2.0213 10.564-1.2416 26.375-6.79 77.806-27.304 24.988-9.9664 46.122-17.891 46.964-17.61 1.7006 0.56681-17.427 8.9599-56.09 24.611-14.052 5.6886-27.97 11.408-30.928 12.711-8.4922 3.7396-16.71 6.3556-27.16 8.646-10.562 2.315-19.807 2.7933-18.677 0.96623zm175.65-79.19c0-0.55468 1.0879-4.0341 2.411-7.732 1.7798-4.974 3.178-6.8353 5.3734-7.1531 2.49-0.36052 2.9678 0.21229 2.9678 3.5586 0 2.882-1.3186 5.146-4.7533 8.1617-4.9108 4.3117-6.0082 4.8907-5.9989 3.1649zm-476.71 90.127c3.4265-0.6837 2.6164-1.0726-5.3788-2.5824-5.1771-0.97759-10.018-1.6896-10.758-1.5823-0.73958 0.10725-3.0396-0.50382-5.1112-1.358-3.1796-1.3111-5.4846-0.97806-14.792 2.1375l-11.025 3.6907 15.464 0.75314c15.425 0.75123 23.962 0.46518 31.6-1.0588zm41.686-9.8765c2.9583-0.75758 15.969-2.1579 28.911-3.1117 22.67-1.6708 32.273-3.8899 32.273-7.4583 0-0.65174-3.3594-2.2417-7.4652-3.5331-6.6617-2.0954-8.663-2.1617-18.594-0.61683-8.7944 1.368-12.165 1.3893-16.068 0.10132-5.5202-1.8218-7.4967-6.0514-5.0043-10.708 0.82849-1.548 1.1493-2.8146 0.71291-2.8146-0.94495 0-14.473 9.0998-24.883 16.738-4.0857 2.9976-10.113 6.6586-13.394 8.1355l-5.9658 2.6853 3.9815 0.8535c6.3708 1.3657 19.659 1.2251 25.497-0.26985zm49.418-21.906c4.2526-0.01 7.732-0.35475 7.732-0.76831 0-0.77458-6.8986-22.029-7.3317-22.59-0.51399-0.66449-9.3282 2.3414-10.055 3.429-0.42178 0.63132-4.2463 2.7268-8.4989 4.6566s-7.732 4.2113-7.732 5.0699c0 0.85863-1.5127 3.359-3.3618 5.5564-5.4696 6.5002-4.6916 6.9947 9.0767 5.7693 6.8412-0.60885 15.918-1.1144 20.17-1.1234zm-142.92-11.04c4.0677-1.8867 9.3178-5.2842 11.667-7.5503 3.8708-3.734 4.8256-4.0369 10.19-3.2324 5.0522 0.75763 9.444-0.30623 29.997-7.2666 13.244-4.4848 30.512-10.645 38.374-13.689l14.296-5.5344 0.85325-10.094c1.1388-13.472 1.0768-20.743-0.17008-19.972-1.8098 1.1186-6.0673-2.9564-5.2671-5.0414 0.42367-1.1042 2.9896-2.4238 5.702-2.9326 4.2243-0.79249 5.3374-1.8158 7.7594-7.1339 3.7909-8.3234 4.0668-28.771 0.51258-37.981-2.1608-5.5987-8.8666-14.216-7.1328-9.166 1.4087 4.1032 1.8562 10.666 0.6777 9.938-0.67573-0.41761-1.2286-1.7992-1.2286-3.0701 0-2.7575-3.6533-8.2881-5.4747-8.2881-1.2364 0-6.612 7.807-6.6225 9.6175-0.008 1.4086 8.4648 4.3429 11.66 4.0382 4.1094-0.39802 7.1645 4.6042 7.1645 11.726 0 6.6482-8.1004 23.021-11.382 23.021-6.3903 0-7.8522-4.71-3.7421-12.056l2.3532-4.2062-4.1525-3.7574c-6.0258-5.4526-7.5627-12.785-4.4309-21.141 2.4249-6.4696 2.4236-6.5223-0.0814-3.2576-2.7308 3.559-4.5727 10.309-3.3522 12.284 0.41012 0.66363-0.50024 1.2066-2.0231 1.2066-6.4504 0-1.0175-16.654 7.0346-21.562 5.2635-3.2093 11.397-3.385 15.592-0.44646 4.0832 2.86 8.1134 11.859 8.3514 18.647 0.1806 5.1501 0.22977 5.2072 1.1561 1.3447l0.96745-4.0341 1.2003 4.0341c0.6602 2.2188 1.1833 10.993 1.1625 19.498-0.044 17.884-2.3487 24.927-8.9768 27.429-2.9764 1.1234-3.6744 2.0689-3.0694 4.1575 0.43074 1.4868 1.7608 6.8834 2.9559 11.993 2.0859 8.9178 2.0709 9.3686-0.37441 11.275-2.4752 1.9295-2.4711 1.9587 0.1423 1.0371 1.4792-0.52165 11.733-2.436 22.787-4.2542 11.053-1.8181 20.224-3.4394 20.379-3.6027 0.15509-0.16336-3.0322-4.8144-7.083-10.336-4.0508-5.5213-9.565-13.993-12.254-18.826-2.6888-4.8328-5.6315-9.5469-6.5392-10.476-1.9362-1.9813-2.463-3.6584-4.5373-14.447-7.3745-38.355-17.186-65.194-29.509-80.716-2.9208-3.6791-7.3043-9.2432-9.7412-12.365-5.9441-7.6142-11.071-10.721-22.461-13.614-5.2572-1.3351-9.1955-2.7905-8.7517-3.2343 1.2685-1.2685-11.271-2.9499-21.627-2.9-10.2 0.0492-20.871 2.2219-29.965 6.1013-8.2736 3.5291-31.683 20.46-40.552 29.327-9.4617 9.4617-18.033 25.81-21.812 41.601-5.0629 21.158-2.003 48.268 7.6067 67.393 9.0178 17.946 8.3954 17.123 13.681 18.114 7.0897 1.3301 15.235 5.7598 15.235 8.2853 0 1.1735 1.7666 5.8508 3.9259 10.394 3.7388 7.8667 5.9063 16.667 7.5827 30.784 0.4304 3.6246 1.4499 6.3816 2.357 6.3742 0.87917-0.007 4.9266-1.5567 8.9943-3.4434zm-19.212-55.2c-2.349-2.349-0.41952-7.0788 6.6572-16.318 4.1885-5.4684 9.775-11.411 12.414-13.204 5.4968-3.7351 14.255-4.3725 18.373-1.3371 2.377 1.7521 2.1131 1.8583-2.9534 1.188-4.9463-0.65441-6.11-0.23379-10.488 3.791-2.7083 2.4898-7.4946 9.3679-10.636 15.284-4.5487 8.5669-6.3938 10.838-9.0605 11.156-1.8417 0.21883-3.7798-0.0332-4.3068-0.56031zm186.32 25.502c-0.9104-0.36833-2.7258-0.39073-4.0341-0.0498-1.3083 0.34092-0.56347 0.64231 1.6553 0.66971 2.2187 0.0274 3.2892-0.25155 2.3788-0.61989zm37.275-17.254c0.91288-1.1 1.3351-2.8461 0.9382-3.8802-0.91753-2.3911-10.311-1.4773-20.959 2.0388-5.0528 1.6686-6.0058 2.261-2.8959 1.8002 16.08-2.383 18.897-2.407 18.897-0.16087 0 2.7438 1.834 2.8361 4.0199 0.20226zm-98.292-43.353c4.0159-8.266 5.1276-18.924 2.3531-22.561-1.8967-2.4861-1.9971-2.1302-1.3282 4.7064 0.62936 6.4331 0.26877 8.06-2.7701 12.498-3.3167 4.8438-4.7335 11.706-2.4169 11.706 0.59221 0 2.4652-2.8579 4.1622-6.3507zm-4.533-24.217c-4.6988-4.0417-8.2894-3.945-9.0903 0.2449-0.61284 3.2059 2.3316 6.1234 3.2871 3.2571 0.64999-1.9499 7.7438 3.9515 8.0019 6.6569 0.11833 1.2406 0.46974 0.14849 0.78084-2.4269 0.45779-3.7897-0.11026-5.264-2.9796-7.732zm758.4-48.753c0-2.6977-4.0579-3.3027-8.8468-1.3191-5.8909 2.44-4.7366 4.1893 2.4595 3.7275 4.5711-0.29333 6.3873-0.97813 6.3873-2.4085zm-5.3788-9.4313c1.7733-0.76202 2.0023-1.1808 0.6724-1.2296-1.1093-0.0406-2.9246 0.51265-4.0341 1.2296-2.4581 1.5885-0.335 1.5885 3.3617 0zm24.877-2.7217c16.312-2.8665 22.86-4.8526 22.86-6.9337 0-0.69352-0.454-0.9816-1.0086-0.64018-0.5547 0.34142-8.6661 2.1974-18.025 4.1246-9.3594 1.9271-19.041 4.4396-21.515 5.5835-3.2529 1.5039-3.5676 1.8726-1.1365 1.3314 1.8489-0.4115 10.321-1.9711 18.826-3.4656zm12.756-8.1158c11.786-3.087 20.279-6.3293 19.257-7.3512-0.3698-0.3698-2.9757 0.29004-5.7909 1.4663-2.8152 1.1762-8.2318 2.6454-12.037 3.2647-7.2668 1.1827-17.707 5.0916-14.102 5.2798 1.155 0.0603 6.8577-1.1365 12.672-2.6596zm29.798-17.781c2.5379-4.908 1.799-5.6436-3.8103-3.7924-3.3237 1.0968-4.8266 2.6261-5.8757 5.9778l-1.4097 4.5039 4.5385-1.3929c2.8156-0.86413 5.3049-2.8747 6.5572-5.2964z"/>
</svg>
