<?xml version="1.0" encoding="UTF-8" standalone="no"?>
<!-- Created with Inkscape (http://www.inkscape.org/) -->
<svg id="svg3336" xmlns:rdf="http://www.w3.org/1999/02/22-rdf-syntax-ns#" xmlns="http://www.w3.org/2000/svg" height="1845" viewBox="0 0 1845 1845" width="1845" version="1.1" xmlns:cc="http://creativecommons.org/ns#" xmlns:dc="http://purl.org/dc/elements/1.1/">
 <metadata id="metadata3342">
  <rdf:RDF>
   <cc:Work rdf:about="">
    <dc:format>image/svg+xml</dc:format>
    <dc:type rdf:resource="http://purl.org/dc/dcmitype/StillImage"/>
    <dc:title/>
   </cc:Work>
  </rdf:RDF>
 </metadata>
 <path id="path3346" fill="#fff" d="m684.82 1786.5c-9.7841-2.6291-18.06-7.6359-26.277-15.897-14.581-14.659-17.04-30.914-9.9339-65.645 2.3411-11.442 2.66-16.358 1.9346-29.822-1.0044-18.644 0.7026-26.637 7.1436-33.447 4.4915-4.7489 4.5702-5.3579 7.3925-57.233l1.5715-28.883 5.0378-0.417c4.7087-0.3897 5.0378-0.7037 5.0378-4.8074 0-9.7706-7.3577-56.228-14.917-94.188-12.784-64.196-15.734-85.931-16.773-123.59-0.66037-23.93-0.37549-30.964 1.8767-46.348 2.6965-18.418 9.7841-44.332 12.812-46.845 2.0555-1.7061 0.79653-19.129-2.2757-31.495-2.3372-9.407-6.9658-34.486-8.2281-44.582-1.2355-9.8818-5.4589-29.187-12.196-55.751-6.4052-25.254-19.848-92.375-22.134-110.51-2.2342-17.731-3.2285-90.87-1.4551-107.04 1.8856-17.196 11.404-53.657 18.962-72.643 3.0844-7.7468 6.0857-14.689 6.6698-15.429 0.58397-0.73888 2.0885-4.923 3.3435-9.298s4.6528-13.22 7.5509-19.657c2.8981-6.4362 5.2693-12.991 5.2693-14.566 0-1.5749 0.5455-3.9132 1.2123-5.1962 0.66673-1.283 3.0502-6.266 5.2967-11.073 5.3592-11.468 12.909-22.873 22.028-33.278 8.4649-9.6579 12.88-19.763 13.881-31.772 0.37406-4.4868 0.91696-10.103 1.2065-12.481 0.47088-3.8675-0.63198-5.5284-10.465-15.761-19.665-20.463-23.17-25.812-38.337-58.506-1.7275-3.724-6.5634-9.4474-12.594-14.905-14.799-13.294-21.183-28.437-21.183-50.125 0-10.106-0.3372-11.402-5.0378-19.349-3.8297-6.4753-7.4539-10.294-15.113-15.925-20.213-14.861-20.378-14.888-100.76-16.599-36.574-0.77835-73.148-2.1709-81.276-3.0946-8.1276-0.92369-16.667-1.2613-18.975-0.75027-4.7606 1.0538-18.456-2.8507-29.387-8.3781-3.6944-1.8681-9.8966-4.4373-13.782-5.7096-3.8861-1.2722-7.6644-3.4319-8.3963-4.7994-5.1063-9.5412 3.6698-31.856 20.488-52.093 3.5031-4.2154 6.3746-8.0636 6.3812-8.5516 0.0263-1.9575 25.265-17.763 32.212-20.174 21.982-7.6258 62.638-16.281 119.27-25.39l35.264-5.6727-0.0329-10.21c-0.0181-5.6154-0.62346-12.93-1.3453-16.255-2.4927-11.482-4.3484-17.464-5.4172-17.464-0.58989 0-4.8156-2.2297-9.3906-4.955-6.2533-3.725-9.5876-4.8801-13.432-4.6532-4.6509 0.27442-5.4704-0.21993-9.0446-5.4564-8.0819-11.822-13.746-33.241-13.746-51.92 0-10.726 5.4051-34.998 10.896-48.928 6.8916-17.484 27.078-37.318 51.441-50.543 25.79-14 40.304-17.192 59.546-13.1 11.055 2.3517 30.472 11.126 37.988 17.167 7.988 6.4193 18.322 20.033 23.433 30.869 5.7499 12.191 12.876 34.775 16.913 53.6 1.6637 7.7582 3.5565 16.34 4.2064 19.07 1.1387 4.7842 17.244 28.638 28.103 41.624 2.8912 3.4575 5.2567 6.9743 5.2567 7.8151 0 0.84082 1.0579 1.2226 2.351 0.84832 1.293-0.37425 7.1872-1.3787 13.099-2.232 5.911-0.85331 13.688-2.808 17.283-4.3437 7.3712-3.1494 10.097-2.3701 12.183 3.4834 1.6076 4.5106-1.0977 9.8649-6.6277 13.118-5.4178 3.1868-15.627 10.896-15.112 11.41 1.1999 1.1999 27.11 7.1715 31.488 7.2571 18.47 0.36106 37.184-0.79589 37.696-2.3303 0.32367-0.97191 1.7825-1.3802 3.47-0.97102 2.1015 0.50953 4.5909-0.79561 8.9484-4.6916 10.011-8.951 30.409-18.479 52.032-24.303 8.7994-2.3702 15.102-2.8783 40-3.2248 30.007-0.41751 56.853-3.3097 75.231-8.1052 21.404-5.585 47.82-14.794 55.752-19.435 12.049-7.0508 28.58-15.235 41.952-20.771 9.3586-3.874 53.693-15.8 82.985-22.322 4.0637-0.90489 14.945-3.7089 24.181-6.2312s25.558-6.4114 36.272-8.6425c39.885-8.3062 71.608-17.733 76.654-22.779 2.6994-2.6994 21.093-12.011 23.725-12.011 0.6283 0 9.4739-3.0334 19.657-6.7409s19.044-6.4135 19.692-6.0134c1.1134 0.68812 20.416-3.4578 59.769-12.838 9.6053-2.2894 21.394-4.6742 26.196-5.2996 4.8028-0.62538 10.608-1.8885 12.9-2.807 2.2923-0.91848 5.1638-1.2877 6.3811-0.82064 4.9436 1.897 0.8167 14.999-5.1999 16.509-1.8338 0.46024-3.3341 1.687-3.3341 2.726 0 1.0391-1.9647 3.0872-4.3661 4.5512-2.4014 1.4641-3.8914 2.6644-3.3112 2.667 0.5801 0.003 0.4072 1.2151-0.3844 2.694-2.1653 4.046-8.6972 6.1936-28.361 9.3252-9.8113 1.5624-18.012 3.0144-18.224 3.2264-0.2122 0.21212 0.3595 2.3601 1.2702 4.7732 1.5853 4.2004 1.4554 4.5593-3.046 8.4138-2.586 2.2145-5.911 5.0768-7.3888 6.3607-1.4777 1.2839-7.8254 3.7517-14.106 5.4839-12.961 3.5751-16.842 5.2979-21.202 9.4132-2.9918 2.8234-12.986 7.7391-23.801 11.707-6.2345 2.2872-22.168 2.5602-26.116 0.44743-2.2175-1.1868-5.4411-0.20221-17.85 5.4519-26.187 11.933-42.914 20.595-56.641 29.336-64.732 41.214-121.11 68.688-193.6 94.347-18.178 6.4342-25.699 8.6879-73.045 21.887-40.192 11.205-52.952 16.386-73.588 29.883-7.9162 5.1774-16.593 16.814-16.593 22.254 0 2.0255-0.50884 3.6828-1.1307 3.6828-1.2559 0-4.2429 9.0201-4.2429 12.813 0 1.3338-0.90529 3.4255-2.0117 4.6481-1.8046 1.994-1.5183 3.1847 2.7801 11.563 5.1392 10.017 7.1704 20.521 7.2463 37.476 0.0509 11.377-3.099 30.373-6.1842 37.295-1.9672 4.4135-2.0346 5.9604-0.53228 12.223 2.993 12.476 1.1207 46.191-3.846 69.258-4.6844 21.756-5.0034 27.762-2.2412 42.198 2.1262 11.113 3.9499 15.161 15.076 33.471 11.962 19.685 25.506 46.535 28.588 56.669 1.5549 5.115 3.3401 9.9512 3.967 10.747 0.62688 0.7961 1.4472 4.3216 1.8228 7.8344 0.45936 4.2952 4.6476 14.635 12.789 31.57 6.6582 13.851 13.925 30.019 16.15 35.93 5.8983 15.677 14.758 50.653 16.349 64.544 2.863 24.992 1.2546 94.059-2.7671 118.83-3.84 23.654-16.597 85.842-21.314 103.9-5.7825 22.138-10.104 42.037-11.426 52.609-1.2253 9.7983-5.9113 34.971-8.299 44.582-3.0619 12.324-4.3077 29.585-2.2846 31.656 3.3393 3.4179 9.9846 27.786 12.731 46.684 2.453 16.879 2.7207 23.157 2.0052 47.019-1.1059 36.887-4.1628 59.218-16.826 122.93-7.5534 37.997-14.903 84.448-14.903 94.188 0 4.1038 0.32906 4.4177 5.0378 4.8074l5.0378 0.417 1.6651 30.227c2.5123 45.607 3.1945 51.233 6.6643 54.957 6.8902 7.3952 7.7703 11.358 7.9343 35.723 0.10597 15.731 0.82792 25.764 2.32 32.242 5.4425 23.627 4.1321 41.891-3.8784 54.053-8.7987 13.36-25.247 23.461-41.269 25.345-11.87 1.3952-30.161-4.21-39.569-12.126-2.2128-1.8619-4.2582-3.251-4.5454-3.0868-0.28726 0.164-0.39527 0.071-0.24002-0.2078 0.15525-0.2784-0.75155-2.3942-2.0151-4.702-1.9874-3.6294-2.2714-8.1389-2.1053-33.415 0.14604-22.22-0.20102-29.22-1.4487-29.22-2.0584 0-7.4755-26.238-7.4755-36.208 0-7.4414 4.4833-24.88 6.7579-26.286 0.76861-0.475 1.3385-12.2 1.39-28.602 0.10543-33.527 1.931-48.563 6.1506-50.655 7.146-3.5436 7.1962-3.7174 7.1962-24.869 0-38.043-10.454-106.37-21.666-141.62-5.4804-17.228-11.428-65.707-10.174-82.93 1.3219-18.161 6.1819-40.836 9.9392-46.373l3.2982-4.8602-4.1073-8.9109c-9.374-20.337-13.377-38.007-10.992-48.516 2.1525-9.4858-3.4562-37.184-16.578-81.866-4.231-14.408-9.4618-32.242-11.624-39.63-5.4724-18.7-10.168-40.581-12.093-56.348-2.1489-17.603-0.82406-71.911 2.0337-83.367 1.106-4.4332 2.0324-8.5139 2.0587-9.068 0.0263-0.55415-2.7372-1.0076-6.1412-1.0076-5.0917 0-6.0445 0.37679-5.3736 2.125 0.44849 1.1688 0.81544 2.7157 0.81544 3.4378 0 0.72205 0.75566 0.88619 1.6793 0.36475 1.2459-0.70345 1.296-0.53134 0.19403 0.66707-0.99993 1.0874-1.1022 3.4563-0.31325 7.25 0.6446 3.0991 1.5529 19.669 2.0184 36.821 0.91626 33.757 0.0141 45-5.6902 70.913-3.2647 14.831-5.221 21.859-18.885 67.842-8.3584 28.129-9.8016 33.952-14.485 58.442-2.6976 14.105-3.0828 18.614-2.0014 23.428 2.3889 10.632-1.2246 26.962-10.452 47.233l-4.6481 10.211 3.2916 4.8503c3.8348 5.651 8.6932 28.603 9.9348 46.933 1.1532 17.026-4.8988 65.743-10.265 82.63-11.133 35.037-21.578 103.46-21.578 141.35 0 21.152 0.0502 21.326 7.1962 24.869 4.2196 2.0925 6.0451 17.128 6.1506 50.655 0.0516 16.401 0.62137 28.127 1.39 28.602 2.428 1.5008 6.7579 19.078 6.7579 27.434 0 4.5712-0.87588 12.063-1.9464 16.648-1.0705 4.5851-2.307 10.604-2.7476 13.374-0.4665 2.9329-1.5577 5.0378-2.6118 5.0378-1.4687 0-1.7742 5.5152-1.6184 29.22 0.16615 25.275-0.11795 29.785-2.1053 33.415-1.2636 2.3078-1.8681 4.6716-1.3434 5.2532 0.52469 0.5816 0.26681 0.6649-0.57306 0.185-0.83987-0.4796-2.303 0.063-3.2515 1.2056-5.1025 6.1481-26.556 14.126-37.448 13.925-2.6361-0.048-8.103-0.978-12.149-2.0653zm33.996-9.2034c4.9115-2.4886 8.5801-5.4154 9.8388-7.8494 1.1038-2.1346 1.7213-4.1669 1.3721-4.5161-0.34923-0.3493-3.8744 1.1932-7.8336 3.4275-20.03 11.304-41.278 9.9318-56.433-3.6451l-7.0171-6.2865 3.2826 5.8889c6.7912 12.183 18.748 17.789 36.867 17.285 10.336-0.2871 13.228-0.9119 19.922-4.3042zm210.54 2.052c9.1719-3.485 14.733-7.969 18.645-15.033l3.2613-5.889-6.365 5.812c-14.855 13.564-34.234 15.435-54.565 5.2709-4.8027-2.4012-9.1698-4.5621-9.7048-4.8021-0.53497-0.2397-0.30295 1.4851 0.51558 3.833 1.2033 3.4515 3.3119 5.1431 11.011 8.8326 8.3047 3.9798 10.856 4.5633 19.957 4.5633 7.0493 0 12.644-0.8396 17.246-2.588zm-206.81-16.4c9.5409-4.5013 10.306-5.1771 11.361-10.035 0.62243-2.865 1.1576-18.509 1.1892-34.764 0.0538-27.669-0.10576-29.651-2.4999-31.056-1.4466-0.8492-3.6615-5.0977-5.0992-9.7811-1.398-4.5538-3.1186-7.9232-3.8238-7.4874-0.70509 0.4356-1.282 7.3766-1.282 15.424 0 8.0477-0.65955 17.707-1.4656 21.467-1.0516 4.9036-1.055 7.3288-0.0122 8.5859 0.79971 0.9636 1.0844 2.1216 0.63269 2.5734-1.8041 1.8041 1.2144 10.629 5.6017 16.377 2.5557 3.3481 4.6468 6.4003 4.6468 6.7822 0 2.2305-8.7384-4.3898-12.094-9.1624-6.8249-9.7077-5.714-9.2429-19.933-8.3393-7.1378 0.4538-15.746 1.4286-19.13 2.1664-5.4588 1.1903-6.4792 2.0152-9.0568 7.3206-1.5977 3.2887-4.6645 7.0495-6.8152 8.3572-3.785 2.3019-3.8506 2.5195-2.0527 6.7955 3.1269 7.4367 7.2501 12.223 13.106 15.215 8.8693 4.5311 11.566 5.0517 24.404 4.71 10.719-0.2851 13.251-0.8692 22.32-5.1478zm210.75 0.8263c5.6852-3.0658 8.3856-5.6638 11.755-11.309 2.4058-4.031 4.3703-7.6582 4.3656-8.0605-0.004-0.402-1.8103-1.7562-4.0124-3.0093-2.2118-1.2584-5.3171-4.9812-6.9379-8.3173-2.607-5.366-3.6197-6.1899-9.0858-7.3926-3.3836-0.7446-11.975-1.7379-19.091-2.2076-14.201-0.9372-13.082-1.4079-19.972 8.3927-3.3551 4.7726-12.094 11.393-12.094 9.1624 0-0.3819 2.0911-3.4341 4.6468-6.7823 4.3872-5.7476 7.4058-14.572 5.6017-16.377-0.45172-0.4517-0.16701-1.6097 0.63269-2.5733 1.017-1.2255 1.0489-3.685 0.10629-8.184-0.74126-3.5377-1.4216-13.073-1.5119-21.188-0.0903-8.1162-0.71437-15.306-1.3868-15.979-0.73474-0.7347-2.1907 2.1371-3.6482 7.1957-1.594 5.5327-3.3464 8.8475-5.1122 9.6703-2.5048 1.1673-2.7137 2.7714-3.0835 23.682-0.39449 22.307 1.2993 45.364 3.4939 47.559 0.63218 0.6322 5.937 3.2743 11.789 5.8714 10.13 4.4958 11.25 4.7005 23.401 4.2748 11.104-0.389 13.722-0.9643 20.144-4.427zm-266.52-30.443c2.4755-4.7872 2.3752-9.0481-0.28234-11.984-2.002-2.2122-1.9039-2.6241 1.3434-5.6334 3.7568-3.4818 4.5477-6.993 1.824-8.0981-1.2637-0.5128-1.1806-1.0341 0.33585-2.1067 1.6754-1.1846 1.5189-1.4285-0.92827-1.4456-4.4234-0.031-4.9577-2.3097-1.1296-4.818 4.4672-2.927 4.4111-6.7484-0.11567-7.8847-1.9344-0.4855-3.6551-0.702-3.824-0.4815-0.56031 0.7326-5.906 29.836-6.8256 37.16-0.61062 4.8636-0.34634 8.2456 0.81378 10.413 1.6471 3.0777 1.8253 3.1133 4.3145 0.8606 1.428-1.2923 3.4413-3.9835 4.4739-5.9805zm286.08-4.867c-0.8477-7.3188-6.2036-36.756-6.8386-37.585-0.1688-0.2205-1.8896 0-3.824 0.4815-4.5321 1.1376-4.6171 5.1823-0.17006 8.0962 3.789 2.4828 3.3005 4.5759-1.0753 4.6065-2.4472 0.017-2.6036 0.261-0.92826 1.4457 1.5164 1.0726 1.5996 1.5939 0.33585 2.1066-2.8213 1.1447-1.8787 4.8994 2.0079 7.9986 3.5356 2.8191 3.5909 3.0464 1.3434 5.5297-3.1229 3.4509-2.9495 8.0797 0.51713 13.797 3.8 6.2674 5.3765 7.0622 7.629 3.8461 1.3745-1.9622 1.6466-4.7639 1.0028-10.322zm-239.86-9.4c0-1.2079-7.7249-4.683-15.74-7.0812-4.8988-1.4656-6.5346-1.3714-12.091 0.6963-9.7434 3.6258-9.3155 4.0877 3.3799 3.6483 9.9502-0.3444 16.595 0.656 24.116 3.6303 0.18472 0.072 0.33586-0.3291 0.33586-0.8937zm208.95-2.8011c12.245 0.511 12.641 0.028 2.9349-3.5838-6.8812-2.5609-10.789-2.016-22.794 3.1785-7.2525 3.1383-6.1988 4.279 1.7894 1.9373 4.4398-1.3015 10.758-1.8373 18.069-1.532zm-210.29-9.5651c0-4.6999 0.0705-4.6794-6.4243-1.8694l-4.9947 2.1611 4.7019 1.767c6.5928 2.4777 6.717 2.4397 6.717-2.0587zm193.45 2.0587 4.7019-1.767-4.9947-2.1611c-6.4914-2.9017-6.4161-2.9017-6.4161 1.827 0 4.4984 0.12426 4.5365 6.717 2.0588zm-206.86-6.9857c4.4221-1.2294 8.0401-2.6974 8.0401-3.262 0-0.5648-3.2427-1.7525-7.2059-2.6395-9.1564-2.0492-18.729 0.5237-19.42 5.2195-0.38084 2.5882 0.18994 2.9174 5.0581 2.9174 3.018 0 9.1054-1.0059 13.528-2.2354zm232.15-0.682c-0.69097-4.6958-10.263-7.2687-19.42-5.2195-3.9633 0.887-7.2059 2.0863-7.2059 2.6652 0 1.6666 13.462 5.1434 20.58 5.3154 5.9198 0.1429 6.4378-0.093 6.0453-2.7611zm-218.74-9.995c0-1.4167-0.73055-1.8785-2.125-1.3434-1.1688 0.4485-2.8313 0.8247-3.6944 0.836-2.0936 0.027 1.9618 2.619 4.1401 2.6457 0.92359 0.014 1.6793-0.9509 1.6793-2.1383zm191.44 1.3001c1.785-0.6849 1.8752-1.0883 0.44574-1.9945-2.7845-1.765-5.1504-1.3801-5.1504 0.8381 0 2.1882 1.229 2.4903 4.7047 1.1564zm-232.1-11.905c0.18096-4.1847-0.25592-7.3881-1.0076-7.3881-0.72986 0-1.3271-1.2091-1.3271-2.6868 0-1.4778 0.60453-2.6868 1.3434-2.6868s1.3434-1.3434 1.3434-2.9853c0-2.9661-0.0163-2.9683-2.5309-0.3358-1.8191 1.9042-2.7794 5.5776-3.4145 13.061-0.86697 10.215-0.8255 10.411 2.195 10.411 2.7973-0.0006 3.1079-0.6759 3.3982-7.3888zm32.594 6.1524c3.2397-0.9348 3.1486-1.0778-2.5703-4.0355-6.5542-3.3898-12.309-3.9227-17.917-1.6589-4.1539 1.6768-4.9135 5.0724-1.3434 6.0054 3.6942 0.9653 18.12 0.7598 21.83-0.311zm224.02 0.3902c7.0211-1.8815 0.53124-7.6252-8.5129-7.5339-2.2807 0.022-6.8147 1.4217-10.076 3.1082-5.7188 2.9578-5.8099 3.1007-2.5703 4.0355 4.2344 1.2219 17.166 1.4604 21.159 0.3902zm17.029-9.5646c-0.63515-7.4832-1.5955-11.157-3.4145-13.061-2.5145-2.6324-2.5309-2.6303-2.5309 0.3359 0 1.6418 0.60453 2.9852 1.3434 2.9852s1.3434 1.2091 1.3434 2.6869c0 1.4777-0.59718 2.6868-1.3271 2.6868-0.75164 0-1.1885 3.2035-1.0076 7.3881 0.29026 6.7128 0.60088 7.3882 3.3982 7.3887 3.0205 0.0007 3.062-0.196 2.195-10.411zm-231.95-3.7821c-0.78625-0.7863-10.437 1.0126-10.422 1.9427 0.006 0.4576 2.2742 2.1354 5.0378 3.7284l5.0247 2.8966 0.4306-4.0333c0.23682-2.2183 0.20509-4.2587-0.0705-4.5344zm194.04 1.9141c-0.52027-0.4793-2.9107-1.2857-5.312-1.7916-4.2893-0.9038-4.3661-0.8346-4.3661 3.9288v4.8487l5.312-3.0571c2.9216-1.6814 4.8864-3.4495 4.3661-3.9288zm-208.94-4.7217 8.8521-2.2235-4.5458-2.422c-5.5299-2.9465-10.557-3.1464-16.515-0.6567-4.9415 2.0647-6.7687 4.1206-5.4944 6.1824 1.2146 1.9655 7.649 1.6455 17.704-0.8802zm232.16-0.4299c0-2.5115-8.1653-6.7122-13.053-6.7149-2.0068 0-5.8232 1.0349-8.4809 2.3021l-4.8321 2.3042 7.8092 2.2701c9.6163 2.7955 18.556 2.7177 18.556-0.1615zm-214.54-6.9857c2.7772-2.7772 1.793-3.7616-3.7615-3.7616-5.9808 0-6.9388 1.5214-2.351 3.7341 3.9709 1.9151 4.2238 1.9162 6.1125 0.027zm185.99-0.258c3.5636-2.7051 2.8747-3.5036-3.0227-3.5036-5.5545 0-6.5387 0.9844-3.7615 3.7616 2.0509 2.051 3.8318 1.9833 6.7842-0.258zm-235.52-4.086c6.9449-7.1653 16.152-10.545 30.603-11.234 16.982-0.8098 20.495 0.087 28.495 7.2818 5.9848 5.3809 6.815 5.7741 6.815 3.2277 0-1.5948 0.63947-4.0944 1.421-5.5549 2.0936-3.9119-7.373-14.746-17-19.457-6.716-3.2859-8.359-3.5436-18.4-2.8857-13.523 0.8862-30.204 6.6256-31.774 10.932-0.97155 2.6656-4.113 12.628-6.0792 19.28-1.2682 4.2896 0.7429 3.7493 5.918-1.59zm283.53 0.2466c-0.58683-2.4014-1.6823-6.1797-2.4342-8.3963-0.75203-2.2166-1.7275-5.6785-2.1678-7.6933-1.405-6.429-20.206-13.13-36.839-13.13-10.234 0-19.802 4.7579-27.101 13.477-4.59 5.4823-5.2596 6.9979-4.0722 9.2163 0.78157 1.4605 1.421 4.0268 1.421 5.7031 0 2.8518 0.32382 2.7376 5.0378-1.7788 8.7611-8.3936 12.326-9.508 28.419-8.8826 16.416 0.638 25.096 3.6435 32.457 11.238 5.5669 5.7435 6.6361 5.7934 5.2806 0.2465zm-252.22-3.2407c-0.9236-0.3726-2.4349-0.3726-3.3585 0-0.92359 0.3727-0.16792 0.6776 1.6793 0.6776s2.6029-0.3049 1.6793-0.6776zm218.98 0c-0.92359-0.3726-2.4349-0.3726-3.3585 0-0.92359 0.3727-0.16792 0.6776 1.6793 0.6776s2.6029-0.3049 1.6793-0.6776zm-181.11-53.629c-1.271-11.083-2.7714-21.028-3.3343-22.1-1.6997-3.2352-5.3176 11.509-5.3176 21.672 0 8.3669 0.24069 9.16 2.7802 9.16 4.0238 0 3.0224 5.8889-1.101 6.4747-2.1877 0.3106-3.0227 1.331-3.0227 3.6943 0 2.1202-0.76653 3.2651-2.1862 3.2651-1.5184 0-0.48779 1.8426 3.3739 6.032 3.058 3.3175 6.6111 8.2437 7.8957 10.947l2.3356 4.915 0.4436-11.954c0.244-6.5751-0.59624-21.023-1.8672-32.105zm141.22 38.134c1.1899-2.3011 4.6815-6.9432 7.7591-10.316 3.0776-3.3725 4.5376-5.7405 3.2446-5.2621-1.8984 0.7024-2.351 0.1195-2.351-3.0248 0-3.0161-0.68186-3.9915-3.0227-4.3239-4.1234-0.5858-5.1248-6.4747-1.101-6.4747 2.5396 0 2.7802-0.7931 2.7802-9.16 0-10.943-3.737-25.339-5.4685-21.067-3.0332 7.4845-7.1304 63.812-4.6415 63.812 0.35047 0 1.6108-1.8829 2.8007-4.184zm-200.29-20.525c-0.52548-2.296-1.2234-15.207-1.5508-28.692-0.63327-26.074-3.1161-34.534-3.1161-10.618 0 7.6446-0.40003 19.535-0.88899 26.423-0.82889 11.678-0.72642 12.462 1.5161 11.602 2.0709-0.7947 2.2941-0.3679 1.6062 3.0718-0.64961 3.248-0.40754 3.8444 1.295 3.1912 1.5856-0.6085 1.8621-1.817 1.1386-4.9782zm260.45 1.8465c-0.67052-3.3526-0.43668-3.9107 1.351-3.2247 1.9584 0.7516 2.0836-1.618 1.3296-25.165-0.45768-14.297-1.0505-26.246-1.3174-26.554-1.5734-1.8148-2.0029 3.2336-1.894 22.26 0.0733 12.818-0.53376 23.862-1.5258 27.756-1.3917 5.4626-1.3439 6.6593 0.30763 7.704 2.6929 1.7035 2.6565 1.7614 1.7489-2.7764zm-244.31-1.4601c3.9008-0.136 3.8552-0.2014-1.3346-1.9118-8.6029-2.8353-11.419-2.5179-11.419 1.2873 0 3.0432 0.2957 3.1799 4.3572 2.0151 2.3964-0.6873 6.1748-1.3131 8.3963-1.3906zm238.47-0.6448c0-3.4266-0.15346-3.4882-6.3812-2.5592-8.6942 1.2969-11.896 3.2465-5.7095 3.4764 3.7543 0.1395 8.3446 1.1002 11.755 2.4599 0.18472 0.074 0.33585-1.4461 0.33585-3.3771zm-208.23 0.8597c0-0.7388-0.26659-1.3434-0.59242-1.3434s-0.96604 0.6046-1.4227 1.3434c-0.45665 0.7389-0.19006 1.3435 0.59243 1.3435 0.78247 0 1.4227-0.6046 1.4227-1.3435zm167.93 0.7511c0-0.3259-0.60453-0.9661-1.3434-1.4228-0.73888-0.4566-1.3434-0.1901-1.3434 0.5925 0 0.7824 0.60453 1.4227 1.3434 1.4227s1.3434-0.2666 1.3434-0.5924zm-173.98-5.9268 5.3736-2.4184v-16.707-16.707l-14.777-0.054c-8.4264-0.031-16.982-0.8028-19.905-1.7961-2.8203-0.9584-5.3185-1.531-5.5516-1.2727-0.23308 0.2584-0.84334 8.0265-1.3561 17.262l-0.93233 16.793 14.544 3.5391c17.91 4.3582 16.177 4.2539 22.605 1.3607zm201.29-1.8509 13.204-3.0489-0.93506-16.793c-0.5143-9.236-1.1258-17.004-1.3589-17.262-0.23307-0.2583-2.7313 0.3007-5.5516 1.2424-2.824 0.9429-11.767 1.7525-19.905 1.8018l-14.777 0.09v16.701 16.701l5.3736 2.4535c2.9555 1.3494 6.5827 2.1632 8.0604 1.8082 1.4778-0.355 8.6284-2.0174 15.891-3.6943zm-194.25-42.209c2.193-2.9993 1.6102-6.5715-1.0368-6.3542-1.08 0.088-6.6404 0.9608-12.356 1.9381-7.8285 1.3385-12.469 1.429-18.808 0.3671-8.811-1.4763-12.124-0.2275-8.64 3.2571 4.6328 4.6346 37.564 5.2731 40.841 0.7919zm193.13 2.149c9.6459-1.3939 13.427-3.4139 11.679-6.2402-0.71612-1.1581-2.4814-1.2607-6.3326-0.3678-7.4933 1.7373-15.988 1.5185-26.162-0.6738-9.807-2.1132-12.027-1.2307-9.7088 3.8583 2.1469 4.7119 13.104 5.9408 30.524 3.4235zm-202.37-14.229 8.2576-0.863v-15.261c0-16.322 4.0844-63.262 7.5227-86.455 2.384-16.081 5.2848-28.942 12.575-55.751 9.2839-34.141 9.9352-38.198 8.9164-55.552-1.2692-21.618-8.1904-59.844-11.195-61.833-2.3089-1.5285-3.0071-7.3755-1.1364-9.5178 0.99161-1.1355 2.8713-8.4123 4.1772-16.17 1.3059-7.7582 3.2528-16.222 4.3265-18.808 1.2945-3.1179 2.287-12.848 2.946-28.883 0.68186-16.59 1.6495-25.869 3.0822-29.555 3.8721-9.9631 16.814-54.334 30.564-104.79 12.882-47.268 15.118-70.157 11.262-115.25l-0.78066-9.1282-4.2686 0.67837c-4.462 0.70921-7.4276 0.087-37.092-7.7756-38.874-10.304-66.316-14.684-106.13-16.938-12.93-0.73189-24.663-1.3395-26.072-1.3502-2.454-0.0187-2.5257 0.93222-1.6936 22.482 1.0274 26.606 5.7905 60.432 12.332 87.583 5.0474 20.946 26.618 130.22 28.787 145.83 0.71864 5.1722 1.6782 16.054 2.1325 24.181 0.47652 8.5267 1.7119 16.882 2.9206 19.751 1.7169 4.077 1.8208 6.0626 0.57594 11.006-0.83538 3.3175-1.5188 8.0907-1.5188 10.607 0 2.5165-1.5658 11.467-3.4795 19.892-2.8458 12.527-3.6143 20.051-4.2197 41.308-1.0304 36.186 0.52032 52.546 12.436 131.19 5.7721 38.097 10.041 79.61 10.041 97.643 0 6.9883 0.49992 9.3035 2.2162 10.264 1.3808 0.7726 1.9493 2.261 1.5081 3.9483-1.0506 4.0177 0.27527 5.17 7.6947 6.6875 8.5204 1.7427 13.031 1.9032 23.313 0.8284zm-1.6924-84.107c-6.2998-41.192 0.35023-142.2 11.247-170.83 1.139-2.9929 1.8597-3.5427 3.0646-2.3378 1.2049 1.2047 1.0671 2.4411-0.58569 5.2564-2.2298 3.7986-4.1556 14.576-9.4199 52.715-2.7356 19.82-3.0517 27.32-2.9864 70.865 0.0402 26.784-0.0902 48.698-0.28957 48.698-0.19942 0-0.66307-1.9647-1.0303-4.366zm-8.8665-182.81c0-0.9674 2.9337-4.8025 6.5194-8.5226 9.2104-9.565 10.941-15.584 10.941-37.938v-18.114l4.3661-6.813 4.3661-6.8129 0.91155 10.971c0.50135 6.0337 1.6084 12.272 2.46 13.864 3.968 7.4143-7.5624 38.494-18.243 49.175-5.6851 5.685-11.324 7.7372-11.324 4.1211zm-27.932-23.666c-6.2811-9.406-7.627-15.422-5.6986-25.472 0.76372-3.9801 1.3885-11.321 1.3885-16.313 0-9.3739 1.3916-11.636 6.0569-9.8456 4.3367 1.6641 5.0052 17.643 1.3465 32.184-2.3552 9.3596-2.3482 9.6939 0.37954 18.117 1.5285 4.7195 2.5887 8.7713 2.3562 9.0038-0.23254 0.2326-2.8557-3.2205-5.8292-7.6734zm242.38 289.84c8.5527-1.5759 9.0419-1.9911 8.6263-7.3204-0.12225-1.5679 0.71763-3.2114 1.8664-3.6522 1.6181-0.6209 2.0887-2.9517 2.0887-10.345 0-18.033 4.1832-58.439 10.078-97.342 10.636-70.198 12.781-90.74 12.688-121.57-0.0732-24.605-0.82494-32.767-5.0098-54.408-5.2595-27.197-6.0542-35.084-3.8841-38.555 1.2154-1.9432 2.2556-8.7914 2.801-18.439 0.47711-8.4411 1.4645-19.624 2.1944-24.853 2.2036-15.786 23.76-124.99 28.807-145.94 6.5524-27.193 11.306-60.988 12.338-87.714l0.87381-22.633-16.673 0.87961c-52.242 2.7561-82.854 7.6243-128.55 20.442-9.4021 2.6377-20.207 4.8269-24.012 4.865l-6.917 0.0688-0.77205 9.5047c-3.7235 45.839-1.6041 67.308 11.282 114.29 14.734 53.721 26.919 95.531 30.536 104.79 1.4487 3.7072 2.4084 12.873 3.0939 29.555 0.65904 16.035 1.6515 25.766 2.946 28.883 1.0737 2.5861 3.0206 11.049 4.3265 18.808 1.3058 7.7583 3.1856 15.036 4.1772 16.17 1.9319 2.2123 1.1699 7.5861-1.4477 10.209-1.3101 1.3127-3.6786 11.64-8.7387 38.104-0.63575 3.325-1.583 13.4-2.1048 22.389-1.064 18.325-0.56773 21.384 9.5515 58.888 6.628 24.564 10.52 42.309 12.67 57.766 3.0305 21.79 6.701 66.283 6.7263 81.535l0.026 15.708 5.7095 0.5142c11.713 1.055 16.365 0.9434 24.698-0.592zm-21.763-128.37c0.0466-42.785-0.28289-50.488-3.0039-70.223-5.2516-38.088-7.1854-48.915-9.4165-52.715-1.6528-2.8154-1.7906-4.0517-0.58569-5.2564 2.0209-2.021 3.6932 2.1664 7.1557 17.918 7.7089 35.068 11.29 93.063 8.5731 138.83-1.7836 30.042-2.7752 19.643-2.7227-28.552zm2.5733-138.64c-8.4133-5.1301-17.294-21.556-21.237-39.276-1.7876-8.0363-1.9503-10.931-0.74165-13.189 0.8517-1.5915 1.9588-7.8303 2.46-13.864l0.91155-10.971 4.3661 6.8129 4.3661 6.813v18.114c0 22.469 1.7668 28.549 10.972 37.754 9.1341 9.1341 8.4981 13.656-1.0978 7.8044zm29.458-16.218c0.34317-1.1083 1.7104-5.4644 3.0385-9.6801 2.3682-7.5178 2.3589-7.8918-0.47909-19.479-3.1379-12.812-2.8379-24.48 0.7207-28.038 6.0535-6.0536 8.3903 2.9195 8.8128 33.841 0.0705 5.1616-0.78965 8.335-3.4594 12.762-4.1691 6.9135-9.531 13.493-8.6333 10.594zm-141.66-333.04c1.2236-0.0118 1.4724-0.95135 0.80628-3.041-0.52993-1.6625-0.89237-4.96-0.80544-7.3277 0.19736-5.3751-9.5432-17.103-24.885-29.962-16.303-13.664-18.167-15.711-17.17-18.853 0.48197-1.5186 0.13568-3.6534-0.76951-4.7441-0.90521-1.0907-1.2647-2.3642-0.79897-2.83 0.46577-0.46578 3.4168 2.1181 6.5577 5.7419 24.826 28.644 41.766 40.819 56.791 40.819 14.215 0 32.674-12.216 49.658-32.866 11.572-14.069 15.849-16.932 17.779-11.902 0.61834 1.6113-2.7119 5.6941-12.07 14.798-7.1082 6.9147-14.113 13.017-15.567 13.56-4.7118 1.7605-20.274 20.707-21.776 26.512-0.76501 2.9555-1.6757 6.3614-2.0237 7.5686-1.2479 4.3287 5.6389 4.0968 23.342-0.78564 39.272-10.831 73.606-15.904 119.2-17.613l25.544-0.95719-1.0922-14.93c-1.0961-14.982-8.3814-51.315-13.136-65.511-4.6366-13.844-23.443-53.239-30.495-63.881-0.81445-1.229-4.4342-0.8565-15.136 1.5576-36.643 8.2654-76.151 14.52-106.2 16.812-26.637 2.032-64.189 1.7191-81.27-0.67704-16.192-2.2714-49.862-9.7977-65.716-14.689l-10.189-3.1436-7.1938 10.231c-7.4162 10.547-19.965 36.204-25.56 52.259-5.2206 14.981-12.647 51.066-13.796 67.038l-1.0741 14.925 24.872 0.91996c45.396 1.6792 82.909 7.2909 120.93 18.091 7.7582 2.2039 15.315 3.7574 16.793 3.4522 1.4777-0.30511 3.4832-0.56305 4.4566-0.57315zm66.085-160.46c16.625-1.9281 36.876-4.6989 45.004-6.1575 8.1276-1.4586 18.405-3.0061 22.838-3.439 13.72-1.3395 20.823-6.1423 20.823-14.079 0-4.2296-17.455-47.099-22.196-54.515-2.4091-3.7681-7.1867-10.664-10.617-15.323-15.587-21.173-22.592-42.926-17.52-54.404 2.2043-4.9882 5.6462-36.77 5.9094-54.564l0.0918-6.205-14.442 0.35317c-15.764 0.38552-44.193 5.3524-60.789 10.621-5.5415 1.7591-18.237 5.7645-28.212 8.9009-9.9748 3.1365-20.989 7.1239-24.477 8.861-3.4877 1.7371-9.2307 4.1364-12.762 5.3317-9.6238 3.2573-43.646 19.286-46.724 22.013-1.4778 1.3093-6.0118 4.0314-10.076 6.049-4.0638 2.0176-7.6032 3.8604-7.8653 4.0951-0.2621 0.23478 3.0629 5.7447 7.3887 12.244 11.485 17.256 12.863 20.178 11.84 25.095-1.6172 7.7763-12.234 28.289-20.612 39.828-11.627 16.012-18.01 29.269-18.651 38.732-0.49817 7.3672-0.37649 7.6928 3.7254 9.9669 2.3322 1.293 5.1183 2.351 6.1913 2.351s4.8023 1.4302 8.2874 3.1784c7.4294 3.7265 47.589 12.423 68.133 14.754 14.671 1.6648 65.687-0.32148 94.71-3.6874zm-52.124-44.064c-2.2668-2.2668-2.0065-12.536 0.43752-17.262 2.2015-4.2571 7.1793-5.3966 9.7968-2.2428 2.2022 2.6535 2.298 14.65 0.14443 18.094-2.0746 3.3182-7.7057 4.0835-10.379 1.4106zm-57.36-100.63c5.911-6.2059 14.937-16.899 20.057-23.762 9.1034-12.202 12.905-14.748 13.947-9.3401 0.46853 2.433-21.898 27.85-24.533 27.879-0.77572 0.008-4.433 3.083-8.1275 6.8321-3.6944 3.7491-7.9261 7.4595-9.4038 8.2452-1.4778 0.78573 2.1494-3.6489 8.0604-9.8548zm96.725-25.47c-2.2166-1.5125-8.6696-5.1195-14.34-8.0155-11.566-5.9071-13.049-7.407-10.173-10.284 1.7731-1.7731 2.6114-1.6904 7.3453 0.72465 9.9876 5.0953 23.213 16.005 23.213 19.147 0 1.8515-1.6592 1.4197-6.0453-1.5731zm-146.22 9.5678c12.267-7.0652 50.976-23.204 70.982-29.597 70.977-22.675 99.82-30.013 118.55-30.16l13.767-0.10828 0.002-11.755c0.004-12.782-0.52038-13.478-6.7832-9.0186-7.1066 5.0604-15.304 7.7718-28.137 9.307-12.741 1.5243-40.307 0.6405-40.307-1.2922 0-1.1436 11.477-2.6622 20.246-2.679 8.4467-0.0161 29.514-4.6728 35.916-7.9389 18.236-9.303 27.186-27.32 27.43-55.213 0.1686-19.257-1.2804-23.05-18.475-48.363-18.42-27.116-32.471-50.867-37.56-63.486-5.7563-14.276-9.324-31.557-8.2999-40.203 0.47695-4.0271 0.28068-6.2501-0.50872-5.7622-0.7069 0.43688-1.2853-0.18889-1.2853-1.3906 0-1.4326-0.80945-1.9614-2.351-1.5356-1.293 0.35713-5.2084 1.0373-8.7009 1.5116-7.6253 1.0354-8.4992 2.0807-5.2322 6.2586 3.8604 4.9366 9.0856 15.925 11.761 24.733 3.5931 11.828 3.3225 37.753-0.55662 53.329-4.3064 17.292-16.421 43.209-25.137 53.776-7.0674 8.568-23.607 20.893-34.268 25.536-17.888 7.7895-47.811 6.8834-79.914-2.4196-15.359-4.4508-26.137-10.218-35.786-19.148-15.788-14.616-21.752-28.996-21.817-52.683-0.026-8.497 0.39151-17.112 0.92797-19.143l0.9754-3.6944h-8.4588c-5.5557 0-9.505 0.73272-11.507 2.1349-1.6785 1.1756-4.0764 1.7422-5.3367 1.261-1.3128-0.50126-0.48868 1.023 1.9326 3.5745 7.6811 8.0945 12.909 21.665 15.168 39.377 2.3223 18.208 2.1071 53.78-0.38608 63.812-2.7206 10.947-2.7444 16.733-0.13071 31.723 3.3397 19.152 15.185 39.863 25.995 45.452 5.6439 2.9185 24.995 5.2226 36.446 4.3396 13.561-1.0457 22.749-4.3287 50.112-17.905 21.734-10.783 27.709-13.036 25.624-9.662-0.67615 1.0941-0.002 1.2883 2.2716 0.65511 6.869-1.9122 24.056-2.6584 24.056-1.0445 0 0.86012-1.6625 1.528-3.6944 1.4843-9.0771-0.19552-32.596 6.0191-43.293 11.439-3.3449 1.695-9.8853 6.4758-14.535 10.624-15.585 13.906-30.949 19.127-52.332 17.785-12.132-0.76197-14.372-0.10976-10.543 3.0683 1.0358 0.85967 2.2924 3.2006 2.7925 5.2023 1.5472 6.1931 8.9482 23.118 10.109 23.118 0.60503 0 5.2337-2.3807 10.286-5.2906zm-71.27-146.17c-1.4385-10.883-7.7568-20.148-21.554-31.604-4.4744-3.7156-8.9535-7.9119-9.9535-9.3251-2.7901-3.9431 12.324 4.0697 23.19 12.295 7.5104 5.6846 8.7797 6.2635 8.2096 3.7441-0.37087-1.6391-1.8518-8.5248-3.291-15.302-3.2566-15.335-7.3657-25.063-12.365-29.268-3.2027-2.6976-3.8475-4.2774-3.8475-9.3716 0-3.3726-0.34594-6.1321-0.76875-6.1321s-7.4558-1.5401-15.629-3.4222l-14.86-3.4222-10.232 4.8698-10.232 4.8698 4.4334 1.8744c2.4383 1.031 4.3181 2.6466 4.1774 3.5903-0.14082 0.94368 5.2697 7.4204 12.023 14.393 13.09 13.515 17.035 20.033 5.2265 8.6365-9.8724-9.5276-26.986-24.101-30.527-25.997-4.0288-2.1561-8.6814-0.17677-22.202 9.4454-33.521 23.856-57.414 37.241-86.457 48.435l-15.257 5.8799 7.8681 1.8831c5.9159 1.4158 24.7 2.1003 75.71 2.7586 66.178 0.85395 68.056 0.95104 76.574 3.959 11.536 4.0738 24.921 11.21 31.553 16.824l5.3568 4.534 1.8048-4.2155c1.0914-2.5494 1.5062-6.4738 1.0495-9.9293zm125.47 6.1689c0-0.85868-1.5229-4.1597-3.3841-7.3358-4.0928-6.9838-15.716-16.698-26.768-22.374-10.84-5.5656-4.8822-6.7468 7.8706-1.5606 1.8103 0.7362 2.2839 0.58051 1.5999-0.52601-1.5071-2.4386 1.1437-1.8827 9.1902 1.9271 7.4871 3.545 16.536 11.319 21.728 18.667l2.8475 4.0302-0.65374-6.9097c-0.84341-8.9144 3.3492-21.831 10.621-32.72 5.023-7.522 15.68-18.14 16.941-16.88 0.31296 0.31298-1.3458 3.3521-3.6861 6.7536-6.038 8.776-9.2307 16.602-10.202 25.009-0.88886 7.6932 1.1445 26.336 3.0839 28.276 1.7962 1.7962 17.39-8.1438 25.336-16.15 3.9561-3.986 7.9006-9.4269 8.7657-12.091 0.86509-2.6638 3.9101-9.4559 6.7667-15.093 5.8769-11.598 11.892-33.931 11.892-44.154 0-9.4281-3.5765-26.134-7.4065-34.597-1.7557-3.8791-3.4363-7.0529-3.7348-7.0529-0.29843 0-8.6442 3.8441-18.547 8.5425-9.902 4.6984-21.026 9.6448-24.721 10.992-8.4499 3.0817-17.241 9.1966-19.624 13.65-1.8432 3.444-1.9637 3.9341-2.3368 9.4968-0.12252 1.8267-1.5504 3.6646-3.5577 4.5792-8.8664 4.0398-12.215-11.159-4.7341-21.486 2.202-3.0398 5.3758-6.4254 7.0529-7.5237 4.763-3.1193 24.118-10.5 44.359-16.916 10.16-3.2203 18.472-6.2179 18.472-6.6614 0-0.44343-3.325-4.812-7.3888-9.7079s-7.3934-9.4102-7.399-10.032c-0.005-0.62157-4.9917-2.518-11.08-4.2142-6.0884-1.6962-14.631-4.8638-18.984-7.0389-9.2035-4.5991-15.561-4.3477-23.998 0.94867l-5.0378 3.1627-0.14856 16.44-0.14855 16.44-1.8176-7.3887c-0.99968-4.0638-2.22-10.864-2.7118-15.113-0.49178-4.2485-1.0106-7.7246-1.1531-7.7246-0.57111 0-12.827 4.2974-12.812 4.4924 0.18698 2.4204 8.0799 24.274 8.9863 24.88 0.70146 0.46969 2.3993 2.7869 3.773 5.1493 2.0839 3.5839 2.2331 4.876 0.90021 7.8013-1.105 2.4252-1.1814 4.2834-0.24788 6.0277 0.74227 1.3869 1.3496 5.5842 1.3496 9.3271 0 5.8447-0.36872 6.8054-2.6119 6.8054-3.2291 0-10.547-6.0911-9.0819-7.5594 0.58776-0.58904 2.2503-0.33308 3.6944 0.5688 2.4459 1.5275 2.6258 1.2605 2.6258-3.8977 0-5.5086-0.0227-5.5336-4.3661-4.773-2.4014 0.42045-12.225 1.4295-21.83 2.2422-9.6054 0.81273-24.115 2.6129-32.242 4.0004-8.1276 1.3875-18.937 2.8902-24.02 3.3392-7.2431 0.63988-10.512 1.6902-15.113 4.856-3.2291 2.2217-5.8712 4.2844-5.8712 4.5838 0 0.29935 12.963 0.57507 28.807 0.61271 23.509 0.0559 31.354-0.42601 42.654-2.6199 15.455-3.0005 22.076-3.3318 27.253-1.3632 7.1419 2.7153 9.0303 16.681 2.478 18.325-3.2887 0.8168-8.4903-2.9555-8.4903-6.1797 0-1.7751 2.4138-1.653-37.132-1.8786l-33.773-0.19266-0.80739 6.717c-4.1394 34.437 10.027 58.251 42.158 70.865 10.769 4.2276 28.485 8.6493 40.974 10.227 13.561 1.713 15.449 1.7089 15.449-0.0334zm-347.26-26.76c8.1461-1.7078 27.511-8.0151 34.929-11.376 2.2166-1.0045 7.3552-3.1032 11.419-4.6639 12.38-4.7544 37.365-18.376 55.08-30.029 10.737-7.0626 23.818-14.12 36.272-19.569 10.714-4.6872 28.85-12.971 40.302-18.408 11.578-5.4965 22.621-9.8851 24.873-9.8848 2.2276 0.00028 6.1871 1.1459 8.799 2.5458 3.4465 1.8472 7.0119 2.461 13 2.2379 11.13-0.41458 21.845-5.8985 37.291-19.086 18.851-16.094 35.818-25.96 44.692-25.986 5.2759-0.0157 23.319-4.7112 28.603-7.4431 5.4101-2.7976 6.2461-4.8528 1.2682-3.1176-3.0198 1.0527-5.1542 1.006-8.0053-0.17492-3.031-1.2555-7.7605-1.2404-21.463 0.068-17.177 1.6404-20.851 1.3217-17.97-1.559 1.5667-1.5667 9.6029-2.7611 40.629-6.0382 18.002-1.9015 20.923-1.9356 22.166-0.25892 1.6374 2.2088 6.6845 1.27 13.825-2.5714 5.4121-2.9116 7.3428-6.4576 2.2535-4.1387-2.522 1.1491-4.4331 1.1433-7.6601-0.0232-3.45-1.2472-7.6183-1.036-21.093 1.0688-24.843 3.8806-49.919 5.8532-51.055 4.0159-0.56263-0.91035-2.3874-1.1231-4.6855-0.54634l-3.7639 0.94469 3.5555 1.8629c2.3999 1.2574 3.5555 2.9543 3.5555 5.2207 0 3.831-3.7069 5.9472-5.4886 3.1334-0.653-1.0313-1.1965-1.2408-1.2078-0.46564-0.0107 0.77516-2.1287 2.1717-4.7054 3.1034-7.3918 2.673-31.906 8.3777-32.68 7.6049-0.38427-0.38427 0.23888-0.69867 1.3848-0.69867 2.8777 0 23.175-10.284 25.264-12.8 2.4966-3.0083-8.0086 1.7241-28.213 12.709-19.606 10.66-25.465 12.912-38.492 14.799-5.8348 0.84497-12.583 2.9675-17.264 5.4302-4.7876 2.5184-9.6897 4.0429-13 4.0429-2.9228 0-9.3602 0.58856-14.306 1.3079-4.945 0.71934-15.944 2.2755-24.44 3.4582-53.939 7.5073-99.55 17.866-124.94 28.375-31.183 12.909-37.014 17.748-45.708 37.946-3.0481 7.0813-6.3476 13.782-7.332 14.89-2.0869 2.3494-5.2522 13.357-4.1562 14.453 0.41091 0.41091 7.7426 3.0612 16.293 5.8897 8.5501 2.8285 16.526 5.6915 17.725 6.3625 1.1989 0.67094 3.1261 0.73334 4.2827 0.13866 1.1565-0.59467 5.73-1.8416 10.163-2.7711zm498.16-35.537c1.2452-2.6112 2.2696-5.7849 2.2765-7.0529 0.0214-3.913 7.6716-15.901 13.031-20.42l5.092-4.2933-4.7019 0.83609-4.7019 0.8361 3.5235-2.0123c14.308-8.1714 79.572-32.296 107.31-39.666 6.2805-1.6688 18.673-5.1723 27.54-7.7856 8.8665-2.6133 22.468-6.484 30.227-8.6016 7.7583-2.1175 18.612-5.0923 24.119-6.6104 5.5075-1.5182 15.483-5.3857 22.166-8.5945 6.6839-3.2088 16.082-7.4713 20.885-9.4723 20.602-8.5836 62.833-31.059 95.382-50.76 27.046-16.371 47.41-26.494 70.865-35.224 15.392-5.7292 17.8-7.0231 17.8-9.5636 0-5.209 1.4881-7.1879 5.4054-7.1879 2.076 0 4.02-0.73664 4.3202-1.637 0.4259-1.2776 1.7035-1.2575 5.8215 0.0917 2.9016 0.95071 10.716 1.8385 17.366 1.9729 11.276 0.2278 12.412-0.001 16.861-3.406 6.0603-4.6368 17.528-9.72 28.119-12.465 4.5396-1.1764 10.936-3.4419 14.214-5.0347l5.9604-2.8958-4.3664-1.4352c-3.2555-1.0701-4.3393-2.1982-4.2597-4.4341 0.1053-2.9727-2.6001-4.1422-4.0723-1.7601-2.4686 3.9943-35.192 10.575-39.943 8.0325-2.2298-1.1934-2.2834-1.671-0.5575-4.9601 1.9048-3.6301 1.9492-3.6396 17.143-3.6468 12.409-0.005 16.168-0.48839 20.278-2.6032 3.4216-1.7607 4.5059-2.9291 3.3697-3.6313-1.1061-0.68365-1.2226-1.4841-0.3429-2.3567 1.4642-1.4524 21.487-9.3699 36.261-14.339 20.625-6.9365 25.067-8.6079 28.91-10.878 4.7657-2.8151 5.234-5.8155 0.9078-5.8155-1.7021 0-10.619 2.46-19.816 5.4665-27.573 9.0148-65.989 17.265-68.972 14.814-1.6519-1.3581-54.46 26.992-56.295 30.222-1.504 2.6463-3.2996 2.3532-4.2676-0.69645-0.7976-2.5129-1.0972-2.4927-10.502 0.71023-13.86 4.7202-41.048 12.089-56.7 15.365-7.3887 1.5472-19.542 5.1735-27.007 8.0587-7.4653 2.8852-24.392 7.9312-37.616 11.214-66.614 16.534-71.664 18.217-107.46 35.806-18.785 9.2311-30.649 14.33-32.324 13.892-1.4546-0.38041-10.165 1.8045-19.356 4.8552-34.238 11.364-55.006 14.717-91.43 14.764-27.807 0.0349-56.022 6.159-79.588 17.274-7.6656 3.6158-15.226 7.8629-16.801 9.438-3.542 3.542-3.8546 7.171-0.51276 5.9523 2.239-0.81651 2.239-0.7295 0 1.8272-4.9128 5.6099-1.7917 26.695 7.1203 48.103 4.3913 10.549 13.466 25.379 22.6 36.935l5.2192 6.6027 0.74419-4.5859c1.0808-6.6604 9.1404-24.035 21.475-46.295 9.4791-17.106 24.458-41.116 28.076-45.004 0.68768-0.73887-3.564 8.3291-9.4482 20.151-12.158 24.427-29.215 64.067-31.016 72.074-0.66286 2.9502-2.1239 6.3791-3.2465 7.6197-1.4662 1.6202-1.6708 2.9178-0.72615 4.6057 1.9173 3.4259 3.0972 2.9239 5.6348-2.3974zm178.48-131.2c-2.2927-2.2927-1.9951-4.8088 0.7389-6.2481 3.3798-1.7794 29.89-3.4715 29.89-1.9078 0 1.3328-23.342 9.8116-26.935 9.784-1.1453-0.01-2.8078-0.74146-3.6944-1.6281zm-453.66 90.625 6.717-0.80457-8.0604-1.6688c-4.4332-0.91788-9.3547-1.3707-10.936-1.0063-1.5819 0.36443-3.28 0.01-3.7737-0.78966-1.4151-2.2897-7.3957-1.7357-16.803 1.5568l-8.6758 3.0363 15.393 0.72813c8.466 0.40046 16.299 0.50868 17.408 0.24046 1.1082-0.26823 5.0378-0.84973 8.7322-1.2922zm47.691-10.505c4.0638-1.1356 14.945-2.3511 24.181-2.7011 16.765-0.63546 28.558-2.2909 32.102-4.5062 3.1416-1.9641 0.80326-4.7061-5.6256-6.5967-4.9594-1.4584-8.0074-1.4876-16.263-0.15579-10.612 1.7119-18.534 1.163-21.751-1.5074-2.3158-1.9219-2.4864-8.1759-0.28314-10.379 3.4916-3.4916-0.86311-1.3013-9.4138 4.7348-19.119 13.496-30.075 20.528-32.25 20.698-1.2457 0.0973-0.14912 0.62223 2.4369 1.1665 8.0946 1.7039 19.188 1.3928 26.868-0.75311zm46.027-21.341c6.1408-0.0488 8.8962-0.56068 8.5042-1.5801-0.31887-0.82935-1.863-5.8167-3.4314-11.083-2.7012-9.0703-3.0611-9.5752-6.8249-9.5752-2.1854 0-3.9734 0.64021-3.9734 1.4227s-0.60453 1.0491-1.3434 0.59242c-0.73887-0.45665-1.3434 0.11217-1.3434 1.2641 0 1.2124-1.154 2.0944-2.7403 2.0944-3.2929 0-13.5 5.0121-13.042 6.4045 0.17787 0.54133-1.337 3.1571-3.3663 5.813s-3.6898 5.3146-3.6898 5.9086c0 0.59392 4.9874 0.56932 11.083-0.0547 6.0957-0.624 15.171-1.167 20.167-1.2067zm-141.21-11.72c2.8621-0.8575 7.6502-3.6531 10.64-6.2124 4.8066-4.1143 6.0738-4.5678 10.939-3.9153 4.4963 0.6031 10.807-1.0673 34.52-9.1359 48.934-16.651 48.295-16.369 48.23-21.3-0.0305-2.3236 0.39639-8.7776 0.94873-14.342 0.99565-10.031 0.97399-10.131-2.5259-11.726-6.1221-2.7894-4.394-6.6529 3.7179-8.3119 6.0095-1.2291 9.2479-10.301 9.3769-26.267 0.10145-12.566-1.4404-19.145-5.8215-24.843l-2.5748-3.3487 0.76449 5.6997c0.93827 6.9954-1.5815 7.8088-2.8724 0.9272-0.49244-2.6249-1.7765-5.1106-2.8534-5.5239-2.3529-0.90289-5.8736 1.7843-7.2646 5.5447-0.81612 2.2062-0.24196 3.0532 2.9913 4.4127 2.2007 0.92534 5.2446 1.6824 6.764 1.6824 7.7127 0 10.571 13.219 4.9432 22.859-1.5031 2.5745-3.4431 6.3272-4.3112 8.3394-1.8962 4.3956-4.343 5.5448-7.8307 3.6782-3.2522-1.7405-3.3535-6.9567-0.23854-12.294 2.3505-4.0271 2.3502-4.0285-1.8922-7.596-2.3338-1.9624-4.8485-5.684-5.5884-8.2701-0.73984-2.586-1.3997-4.0028-1.4664-3.1484-0.0684 0.87609-1.2928 1.2471-2.8079 0.85088-2.0663-0.54034-2.6856-1.83-2.6818-5.5837 0.01-9.4093 9.2206-18.971 18.285-18.982 7.9601-0.01 15.172 8.9387 15.389 19.096 0.0776 3.6277 0.29022 3.9331 1.1992 1.7224 1.1048-2.6868 1.1048-2.6868 2.2565 0 0.63348 1.4778 1.1518 10.546 1.1518 20.151 0 15.199-0.35803 18.074-2.7603 22.163-1.5182 2.5844-4.2386 5.4359-6.0453 6.3367-3.7686 1.8788-3.7506 1.7526-1.3961 9.7872 0.97438 3.325 2.1571 8.4652 2.6281 11.422l0.85654 5.3774 20.297-3.2048 20.297-3.2049-7.8387-10.904c-4.3114-5.9975-9.7751-14.531-12.141-18.965-2.3666-4.4332-5.1089-8.665-6.0941-9.4038-0.98522-0.73888-3.3258-8.5978-5.2014-17.464-9.7652-46.165-19.885-69.549-39.442-91.143-4.6233-5.1045-17.45-11.473-27.523-13.665-4.7349-1.0302-6.7656-1.8917-4.8216-2.0456 7.2874-0.57664-4.6036-2.3156-16.793-2.4559-13.65-0.15703-25.927 2.3013-35.29 7.0669-9.4572 4.8133-28.475 18.729-37.087 27.137-7.7284 7.5456-15.58 19.483-15.604 23.72-0.006 1.293-0.55091 2.351-1.2089 2.351-0.65793 0-2.5933 4.9874-4.3009 11.083-2.4706 8.8195-3.1132 14.513-3.1457 27.876-0.0488 19.993 2.879 32.2 11.746 48.97 5.6382 10.664 5.6638 10.689 14.322 13.788 9.9598 3.5654 10.648 4.1034 12.898 10.078 0.91302 2.425 3.2394 8.1523 5.1699 12.727 1.9304 4.5749 4.1987 13.189 5.0408 19.143 1.704 12.049 2.0007 12.278 12.05 9.2665zm-21-56.165c-0.66133-2.0837 0.87023-5.1698 5.9992-12.089 12.808-17.276 22.047-22.625 31.41-18.182 2.6924 1.2776 4.8952 2.9233 4.8952 3.657 0 0.78578-0.9662 0.89083-2.351 0.25557-1.293-0.59317-4.3509-1.0644-6.7953-1.0472-5.9263 0.0416-10.744 5.0222-18.02 18.63-5.1486 9.6286-6.1894 10.79-9.9981 11.16-3.3316 0.32319-4.4434-0.19284-5.1393-2.3856zm187.74 27.28c-0.9236-0.37267-2.4349-0.37267-3.3585 0s-0.16793 0.6776 1.6793 0.6776 2.6029-0.30493 1.6793-0.6776zm38.615-20.86c0-1.7103-9.4147-1.2223-16.793 0.87046l-6.717 1.9053 9.0401-0.77045c7.848-0.66885 9.1608-0.45576 9.9557 1.6157 0.87152 2.2711 1.0025 2.2676 2.7148-0.0742 0.98947-1.3532 1.7991-2.9494 1.7991-3.547zm-24.546 3.4753c-0.4464-0.44639-1.6051-0.49412-2.5748-0.10596-1.0717 0.42884-0.75335 0.74718 0.81166 0.81163 1.4162 0.0583 2.2096-0.25918 1.7632-0.70558zm-74.446-44.629c2.8532-7.1308 4.0605-14.376 3.06-18.363-1.4063-5.6031-2.8376-3.7825-2.3688 3.013 0.35215 5.1045-0.2529 7.4024-3.0227 11.479-3.8411 5.6541-4.4345 9.0084-1.5937 9.0084 1.0281 0 2.7944-2.3123 3.9252-5.1384zm-3.2912-21.28c-2.4278-2.9253-8.0265-4.8685-9.5725-3.3225-0.69195 0.69194-0.82969 2.6079-0.30607 4.2576 0.74837 2.3579 1.2126 2.6023 2.1704 1.1428 0.96689-1.4734 1.9764-1.0214 4.8909 2.1903 3.6442 4.0158 3.6759 4.0229 4.1054 0.92633 0.23811-1.7164-0.34158-4.054-1.2882-5.1946zm-13.396-6.16c0.62194-1.6625 1.5427-4.5341 2.0461-6.3812 0.78913-2.8957 0.70446-3.021-0.61451-0.90851-1.7747 2.8423-4.0734 10.312-3.1734 10.312 0.33614 0 1.1201-1.3602 1.7419-3.0227zm768.39-42.53c2.3806-1.5078 0.7618-4.1598-2.5392-4.1598-3.2558 0-9.3878 2.7734-9.3878 4.2458 0 1.4864 9.5533 1.4174 11.927-0.086zm18.971-13.583c13.055-1.9256 24.181-5.0609 24.181-6.8143 0-0.76184-0.5219-1.0626-1.1597-0.66847-0.6378 0.3942-8.5149 2.2697-17.505 4.1678-8.9899 1.8981-17.687 4.0433-19.328 4.7671-2.8567 1.2606-2.8408 1.289 0.3764 0.67498 1.8472-0.35258 7.8926-1.3098 13.434-2.1271zm20.613-10.337c5.7954-1.8005 10.262-3.5486 9.9261-3.8847-0.3362-0.33612-2.3576 0.0537-4.4919 0.86641-2.1344 0.81266-6.6885 2.0109-10.12 2.6627-3.4317 0.65188-8.268 2.0774-10.747 3.1679l-4.5076 1.9825 4.7019-0.76061c2.5861-0.41832 9.4436-2.2337 15.24-4.0342zm18.064-10.655c2.8786-0.77115 7.9503-8.0396 6.5716-9.4183-0.3441-0.34406-2.7238 0.25112-5.2883 1.3227-3.2212 1.3459-4.8698 3.0315-5.3325 5.4523-0.7231 3.7829-0.5724 3.8813 4.0492 2.6433z"/>
</svg>
