<?xml version="1.0" encoding="UTF-8" standalone="no"?>
<!-- Created with Inkscape (http://www.inkscape.org/) -->

<svg
   xmlns:dc="http://purl.org/dc/elements/1.1/"
   xmlns:cc="http://creativecommons.org/ns#"
   xmlns:rdf="http://www.w3.org/1999/02/22-rdf-syntax-ns#"
   xmlns:svg="http://www.w3.org/2000/svg"
   xmlns="http://www.w3.org/2000/svg"
   xmlns:sodipodi="http://sodipodi.sourceforge.net/DTD/sodipodi-0.dtd"
   xmlns:inkscape="http://www.inkscape.org/namespaces/inkscape"
   id="svg4136"
   height="800"
   viewBox="0 0 600 800"
   width="600"
   version="1.1"
   inkscape:version="0.91 r13725"
   sodipodi:docname="black-female.svg">
  <defs
     id="defs7" />
  <sodipodi:namedview
     pagecolor="#ffffff"
     bordercolor="#666666"
     borderopacity="1"
     objecttolerance="10"
     gridtolerance="10"
     guidetolerance="10"
     inkscape:pageopacity="0"
     inkscape:pageshadow="2"
     inkscape:window-width="640"
     inkscape:window-height="480"
     id="namedview5"
     showgrid="false"
     inkscape:zoom="0.72625"
     inkscape:cx="29.432014"
     inkscape:cy="400"
     inkscape:current-layer="svg4136" />
  <metadata
     id="metadata4142">
    <rdf:RDF>
      <cc:Work
         rdf:about="">
        <dc:format>image/svg+xml</dc:format>
        <dc:type
           rdf:resource="http://purl.org/dc/dcmitype/StillImage" />
        <dc:title></dc:title>
      </cc:Work>
    </rdf:RDF>
  </metadata>
  <path
     id="path4146"
     d="m69.652 784.64c-10.378-11.55-19.644-30.28-21.572-43.61-2.195-15.19-0.78-25.6 4.968-36.57l3.0434-5.8059-3.4067-7.205c-3.766-7.9649-5.1538-13.268-6.5957-25.205-0.53149-4.4-1.6556-10.461-2.4979-13.468-3.2073-11.45-1.2261-27.826 4.9364-40.802 3.9344-8.2846 12.039-20.425 16.467-24.667 2.3611-2.2621 2.8454-3.4133 2.3912-5.6843-0.42103-2.1051-0.12908-3.0167 1.1196-3.4959 0.92903-0.3565 2.1927-0.14458 2.8083 0.47094 1.2716 1.2716 4.7464-1.2283 4.7464-3.4147 0-0.68817 2.2244-2.8493 4.9431-4.8025 11.894-8.545 21.056-25.702 27.459-51.424 4.6231-18.57 5.099-23.42 5.0736-51.712-0.0249-27.843-1.1374-45.056-4.5885-71-2.9604-22.254-3.6477-29.188-4.857-49-0.60429-9.9-1.59-21.884-2.1904-26.632-1.3167-10.411 0.30791-57.462 2.7161-78.662 4.2211-37.158 12.991-63.684 29.447-89.069 6.0626-9.3522 6.0651-9.3593 2.2832-6.3614-15.432 12.233-54.643 58.31-60.755 71.392-1.1994 2.5676-3.4971 6.2136-5.106 8.1023s-3.6919 4.8504-4.6288 6.5817c-1.8183 3.3598-4.4779 4.1416-5.4522 1.6027-0.32608-0.84976 0.10324-4.5623 0.95405-8.25s1.8325-8.4213 2.1816-10.519c1.8059-10.853 22.907-56.816 33.238-72.399 17.214-25.967 46.077-54.463 85.282-84.199 6.325-4.7974 15.927-12.188 21.338-16.424 16.104-12.607 36.428-23.744 49.5-27.125 4.6047-1.1908 6.6943-1.3426 7.6431-0.55516 1.7895 1.4852 3.3341 10.888 4.5045 27.421 0.7016 9.9107 1.4196 14.385 2.4997 15.579 0.83345 0.92096 1.5154 2.2503 1.5154 2.9541 0 0.84517 0.80082 1.0787 2.3585 0.68771 8.2744-2.0767 18.671-2.7083 34.391-2.0892l17.25 0.67935v-3.5421c0-6.168 2.9215-17.952 6.0323-24.332 3.8878-7.9731 12.79-16.343 20.683-19.446 4.8595-1.9104 7.7037-2.2782 17.785-2.2992 10.954-0.02292 12.61 0.22516 19 2.8467 19.12 7.8441 37.756 25.206 43.964 40.958 2.2657 5.7487 4.3051 17.622 4.5085 26.249 0.0339 1.4372 7.8333 5.5888 9.067 4.8263 2.833-1.7509 5.4037-21.358 6.2244-47.475 0.23489-7.4748 0.24546-7.5011 3.1436-7.8317 5.2403-0.59768 9.3118 0.81624 17.224 5.9815 24.519 16.006 50.577 43.554 61.344 64.85 7.8516 15.53 9.8985 25.683 11.089 55 0.48009 11.825 1.1672 27.587 1.5269 35.026 0.56752 11.737 0.44111 13.702-0.95612 14.862-3.098 2.5711-4.3381 0.44956-7.6323-13.057-8.918-36.566-24.445-64.84-42.602-77.577l-3.0991-2.1741-0.62739 11.707c-0.50465 9.4166-0.96283 11.952-2.342 12.961-1.5137 1.1068-1.3611 1.2538 1.3022 1.2538 3.6054 0 5.7228 2.1349 10.744 10.833 11.575 20.051 22.424 48.111 26.04 67.351 4.8316 25.708 5.7066 34.434 5.8975 58.816 0.17772 22.696 0.0865 23.911-2.668 35.5-4.0857 17.191-10.274 35.497-14.208 42.03l-3.3911 5.6315 2.4881 4.9101c4.6017 9.0811 5.7503 16.733 5.0931 33.928-0.65356 17.1-1.9526 24.86-7.0306 42-8.0035 27.015-9.7699 36.796-9.9327 55-0.16617 18.579 1.2354 26.617 8.4886 48.682 5.6467 17.178 13.102 32.558 26.799 55.288 10.282 17.062 14.205 25.49 16.072 34.53 0.68169 3.3 2.1409 9.0947 3.2427 12.877 1.5886 5.4538 1.8733 8.4548 1.3754 14.5-1.5349 18.635-16.3 34.877-29.654 32.621-8.6712-1.465-9.6142-6.4984-1.2175-6.4984 9.2633 0 18.329-8.6614 21.891-20.916 1.1701-4.0249 1.3035-5.9069 0.50911-7.1789-0.59217-0.94821-0.81374-3.3442-0.49239-5.3245 0.4526-2.789-0.10843-5.007-2.4892-9.8407-6.9647-14.141-24.262-31.737-50.691-51.568-17.132-12.855-32.149-25.679-36.492-31.162-1.7871-2.2564-3.4501-3.9016-3.6956-3.6561-0.2455 0.24551-1.0884 3.5288-1.873 7.2961-3.3816 16.236-11.621 26.613-26.054 32.813-4.8749 2.0942-9.4524 4.5342-10.172 5.4222-2.2453 2.7694-0.84276 17.143 2.7736 28.423 2.9234 9.1189 3.5795 10.235 9.3288 15.866 8.9401 8.757 27.617 20.743 47.495 30.48 13.238 6.4842 17.235 8.8753 16.992 10.162-0.19954 1.054-1.4625 1.7951-3.3792 1.9829-4.7439 0.46475-26.377-7.1205-39.02-13.681-6.2717-3.2547-11.396-5.6254-11.386-5.2681 0.009 0.35727 3.3136 4.7426 7.343 9.7452 8.4029 10.432 9.7403 13.404 6.0323 13.404-4.2183 0-25.336-22.576-34.609-37-1.9449-3.025-6.3642-10.112-9.8207-15.75-3.4565-5.6375-6.6141-10.25-7.0168-10.25-1.2113 0-2.2456 32.21-1.4792 46.067 0.63729 11.523 0.53493 12.996-0.94276 13.563-2.5686 0.98567-3.4902-0.65565-6.0384-10.754-6.8723-27.236-8.9566-60.195-4.843-76.585 0.31622-1.2599 0.16218-2.2907-0.3423-2.2907s-3.4841-1.5457-6.6214-3.4349c-4.2348-2.5501-7.182-3.5451-11.441-3.8627-6.5987-0.49211-12.176-2.5788-20.711-7.7491-3.3142-2.0076-17.818-9.591-32.23-16.852-37.75-19.019-53.476-28.976-73.921-46.808-4.2767-3.7299-7.4724-5.991-7.1015-5.0246 0.37083 0.96636 2.551 7.7136 4.8448 14.994 2.2938 7.2803 4.7367 14.137 5.4287 15.237 0.69197 1.1 1.2861 4.1578 1.3202 6.795 0.10899 8.4217-2.8195 7.4037-18.367-6.3841l-8-7.0947-0.6565 12.342c-0.51025 9.5926-1.3208 14.461-3.6385 21.853-3.1431 10.024-3.166 12.269-0.24495 23.989 1.9041 7.64 3.0166 40.117 2.0552 60-1.0334 21.373-3.3007 32.073-10.064 47.495-7.4144 16.906-15.994 29.448-29.037 42.447-17.191 17.134-41.914 31.717-41.914 24.724 0-0.76795 3.8881-3.7806 8.6402-6.6948 26.754-16.407 43.684-36.844 52.165-62.972 4.5984-14.167 5.702-22.488 5.5703-42-0.1161-17.199-2.5812-45.759-4.1991-48.65-0.46066-0.82314-2.7861 1.5915-6.6876 6.944-3.2898 4.5133-13.183 15.445-21.985 24.293-15.019 15.097-21.252 20.355-67.503 56.941-12.174 9.6301-25.154 21.619-27.248 25.168-2.0374 3.4532-4.4327 4.3006-5.3559 1.8948-0.64846-1.6899 1.5676-6.2054 5.1135-10.419l2.5823-3.0689-3.8179-1.0281c-2.0999-0.56543-5.743-2.4438-8.0958-4.174-4.0326-2.9656-4.3533-3.0428-5.5943-1.3456-0.72405 0.99019-2.1642 4.0831-3.2003 6.8731-2.396 6.4519-2.4036 20.424-0.01617 29.573 2.2749 8.7179 8.4892 20.981 14.889 29.383 7.939 10.421 8.419 11.319 7.1422 13.359-2.2812 3.6442-5.8032 2.7153-10.807-2.8502zm9.1214 1.4699c0.20854-0.62639-1.7792-3.6168-4.4171-6.6452-17.89-20.539-25.139-50.002-16.841-68.451 3.9056-8.6832 4.875-9.2903 8.8355-5.5329 3.3986 3.2244 8.7422 6.2836 10.909 6.2456 0.71481-0.0125-0.0894-0.70816-1.7871-1.5459-1.6977-0.8377-4.9987-3.4712-7.3355-5.8522l-4.2487-4.3291 5.9583-6.875c6.8837-7.9429 15.534-16.327 37.213-36.068 22.163-20.182 30.196-29.671 37.944-44.822 5.3775-10.515 5.1806-11.911-0.31892-2.2609-8.0804 14.179-19.539 26.6-43.125 46.747-12.678 10.829-24.783 22.3-34.548 32.739l-5.8968 6.3037-1.5578-2.3776c-4.3772-6.6804-6.8939-18.55-6.8141-32.136 0.07447-12.67 11.007-26.865 30.817-40.016 6.05-4.0161 21.8-13.464 35-20.995 25.857-14.753 35.94-21.094 39.035-24.551 1.3523-1.5101-0.0614-0.96298-4.5354 1.7552-3.575 2.172-15.725 8.8339-27 14.804-53.036 28.083-66.062 37.635-74.314 54.494l-3.186 6.5089-0.29911-4.0784c-0.42689-5.8206 2.273-17.711 5.6376-24.828 5.2772-11.162 18.409-26.86 29.598-35.382 3.335-2.5401 6.2886-4.9294 6.5636-5.3095s4.0023-1.8654 8.2828-3.3006c26.406-8.8536 61.725-34.596 75.369-54.932 4.9187-7.3312 9.2727-16.734 9.3398-20.17 0.089-4.5558 1.594-4.557 5.0056-0.004 1.856 2.4771 3.752 4.5038 4.2134 4.5038 0.46139 0 1.2325 1.0125 1.7136 2.25s2.5113 4.95 4.5116 8.25c5.777 9.5308 7.5642 16.772 7.5642 30.647 0 18.831-3.9674 33.815-14.634 55.268-6.7598 13.596-12.47 21.729-22.8 32.477-7.0603 7.3457-34.938 31.776-64.566 56.582-11.705 9.8-23.502 21.03-26.291 25.026-1.1926 1.7094 0.67831 0.36784 4.3488-3.1183 9.3595-8.8894 11.502-10.671 43.942-36.553 16.225-12.945 33.961-27.765 39.413-32.932 11.146-10.564 23.676-25.055 30.389-35.146 2.47-3.7125 4.8132-6.75 5.207-6.75 0.76007 0 2.2156 8.4142 4.1516 24 0.64903 5.225 1.2094 19.85 1.2452 32.5 0.0647 22.846 0.0436 23.08-3.1469 34.928-3.7228 13.825-10.874 29.057-18.114 38.585-6.9281 9.1167-21.257 22.626-30.145 28.421-9.3844 6.1186-11.022 7.6568-4.3879 4.1219 20.397-10.869 43.059-35.304 53.871-58.087 10.226-21.549 12.506-34.675 12.504-71.969-0.002-24.78-0.20353-27.968-2.4528-38.779-1.3479-6.4783-2.6782-12.147-2.9561-12.596-0.27791-0.44967 1.0957-5.9492 3.0524-12.221 3.1181-9.9945 3.6252-13.103 4.1039-25.154 0.30041-7.5625 0.8066-13.75 1.1249-13.75 0.31828 0 2.8428 2.1912 5.6101 4.8693 5.5695 5.39 19.721 17.288 20.084 16.886 0.73167-0.80973-2.2789-11.615-8.0122-28.756-3.5873-10.725-6.5265-20.107-6.5315-20.848-0.005-0.74131 4.3635 2.7904 9.7078 7.8483 20.496 19.397 35.043 28.836 79.477 51.569 17.432 8.9181 32.957 17.096 34.5 18.174 3.8354 2.678 10.76 5.0034 17.039 5.7222 3.3449 0.38287 7.945 2.0619 12.75 4.6537 4.1344 2.2301 7.5172 4.1283 7.5172 4.2182s-0.66719 3.3133-1.4826 7.1631c-3.0197 14.256-1.3351 41.142 4.1391 66.057l2.8436 12.942 0.6723-29.5c0.36976-16.225 1.0834-30.85 1.5858-32.5l0.91352-3 2.2974 4.4713c4.6363 9.0233 21.327 34.621 28.009 42.955 3.7806 4.7156 9.9191 11.499 13.641 15.074 7.2573 6.9708 7.275 6.6876 0.14003-2.2358-5.5944-6.9968-14.131-19.726-13.591-20.266 0.21642-0.21642 3.724 1.8281 7.7947 4.5434 9.9311 6.6244 23.905 13.314 36.323 17.39 17.041 5.5923 16.936 4.9524-0.63685-3.8768-20.622-10.361-37.744-21.613-47.161-30.992-6.6553-6.6281-7.2656-7.6166-9.918-16.063-2.9249-9.314-4.403-23.245-3.166-29.839 0.61555-3.2812 1.0426-3.5766 9.6672-6.6865 6.5203-2.3511 10.358-4.4533 13.834-7.5786 5.7807-5.1974 11.421-15.518 13.059-23.896 0.64534-3.3 1.6468-7.8 2.2254-10l1.052-4 1.5454 2.5c3.6694 5.936 23.106 23.565 40.213 36.474 28.753 21.696 48.356 42.206 53.983 56.484 6.8126 17.284-3.4792 39.451-20.213 43.535l-5.2706 1.2864 5.2997 0.11058c2.9148 0.0608 6.5617-0.54206 8.1042-1.3397 4.815-2.49 12.795-12.135 15.142-18.303 2.7512-7.2278 3.0424-19.872 0.58644-25.465-0.89796-2.0448-1.6682-4.9698-1.7116-6.5s-0.30483-2.2229-0.58092-1.5394c-0.2799 0.69296-2.3422-1.5191-4.6615-5-5.1205-7.6851-22.386-25.23-33.299-33.838-4.4663-3.5228-15.475-11.805-24.464-18.405-17.888-13.134-32.916-27.023-32.916-30.421 0-1.1557 3.7984-9.6883 8.441-18.961 4.6426-9.273 10.452-21.53 12.909-27.239 2.4576-5.7084 5.9717-13.645 7.809-17.638l3.3406-7.2586 0.0508 13.259c0.028 7.2922 0.64524 15.959 1.3718 19.259 2.0924 9.5043 8.7263 29.479 12.654 38.103 1.9783 4.3433 4.6262 10.147 5.8841 12.897 3.707 8.1039 12.503 22.843 24.374 40.844 6.1098 9.2644 12.166 19.164 13.459 22 5.1203 11.231 4.7288 10.541 4.0573 7.1557-1.2515-6.3093-6.5868-17.259-16.75-34.374-13.41-22.585-20.433-37.222-25.985-54.157-7.1771-21.894-8.1335-27.743-8.0073-48.969 0.0748-12.586 0.59185-20.578 1.6174-25 2.9674-12.795 5.0174-20.672 8.3274-32 4.5436-15.549 6.238-25.37 7.0112-40.635 0.73828-14.576-0.37534-21.303-5.3684-32.428-2.6624-5.9318-2.8025-6.7484-1.4589-8.5 5.1446-6.7068 12.899-28.773 17.456-49.674 1.9618-8.998 2.2134-12.791 2.0406-30.763-0.21008-21.861-1.4524-33.463-6.2204-58.092-3.9791-20.554-14.466-47.11-27.31-69.158-3.5432-6.0822-4.2452-6.75-7.0957-6.75-3.5931 0-7.6085-2.4048-7.6085-4.5567 0-0.85842 0.97648-1.4433 2.4096-1.4433 2.2112 0 2.5099-0.59449 3.6269-7.2166 0.66948-3.9691 0.961-10.273 0.64782-14.008l-0.56941-6.7919 4.6925 3.2012c22.092 15.071 37.062 41.322 47.206 82.78 2.007 8.2023 2.4524 9.158 3.3402 7.1683 0.70843-1.5876 0.65242-6.5121-0.18157-15.964-0.66331-7.5176-1.1985-19.158-1.1893-25.867 0.0566-41.22-9.8036-64.166-40.961-95.324-18.7-18.7-38.628-32.736-45.164-31.811-2.3549 0.33325-2.3598 0.36423-3.0609 19.321-0.74408 20.116-2.634 31.855-5.748 35.7l-1.8301 2.2601-5.8598-3.0217c-4.8985-2.5259-5.8288-3.4239-5.6711-5.4735 0.10378-1.3485-0.0559-3.1269-0.35475-3.9519-0.29889-0.825-0.66197-4.2-0.80683-7.5-0.63618-14.492-10.599-30.377-26.626-42.453-15.395-11.601-29.63-16.205-43.73-14.146-14.774 2.1579-24.256 8.9256-30.265 21.599-3.0295 6.3907-5.9074 18.237-5.9068 24.315l0.00031 3.6846-24.75 0.0031c-20.831 0.0026-25.412 0.26867-28.929 1.6805l-4.1787 1.6774-2.1061-6.6805c-1.2334-3.9123-2.3088-10.617-2.5952-16.181-0.83211-16.162-2.5049-26-4.4209-26-6.6355 0-29.508 10.86-43.75 20.772-8.8746 6.1768-23.897 17.741-47.641 36.673-17.445 13.909-44.478 39.909-55.065 52.958-4.0587 5.003-10.372 13.821-14.03 19.596-12.65 19.973-28.873 56.865-32.529 73.973-2.4396 11.416-2.4487 12.532-0.06548 8.0263 1.0186-1.9256 2.815-4.3726 3.9921-5.4378s2.9996-3.8797 4.05-6.2543c4.6337-10.475 37.223-50.013 53.683-65.129 9.8732-9.0669 23.392-20.11 24.668-20.151 0.45872-0.0147-0.49393 1.6608-2.117 3.7233-6.3298 8.0436-19.073 28.322-23.444 37.307-10.69 21.972-16.318 44.488-19.735 78.943-1.2716 12.823-3.1244 60.05-2.4017 61.22 0.54858 0.88762 1.6594 14.994 3.4082 43.28 0.57806 9.35 1.8974 22.4 2.9317 29 1.0344 6.6 2.4419 17.738 3.1278 24.75l1.247 12.75 3.0747 0.16004 3.0747 0.16003-3.3482 0.41065c-2.912 0.35714-3.2606 0.69454-2.6761 2.59 0.36961 1.1986 0.91943 15.904 1.2218 32.679 0.45722 25.364 0.26926 32.403-1.1163 41.804-2.8694 19.468-7.3458 34.879-14.145 48.696-4.9219 10.003-11.627 18.545-18.436 23.487-2.475 1.7964-3.6 2.974-2.5 2.617 1.2076-0.3919 0.41511 0.74831-2 2.8777-2.6716 2.3555-4.7501 3.4048-6.2587 3.1594-1.7539-0.28527-2.0188-0.0782-1.185 0.92639 0.8121 0.97852-0.42663 3.0772-5.0837 8.613-7.2632 8.6336-13.062 18.226-16.667 27.573-3.4128 8.8464-4.4136 26.922-1.9582 35.368 0.87007 2.993 2.0257 9.3466 2.568 14.119 1.2969 11.414 2.5648 15.911 6.7319 23.877l3.4615 6.6172-3.512 6.3893c-5.3916 9.8088-6.9334 18.012-5.6922 30.284 1.4497 14.334 5.9804 26.148 15.293 39.876 7.6197 11.233 12.212 14.996 13.516 11.077zm321.29-198.07c-17.403-1.9349-23.266-3.3172-26.641-6.2803-1.8858-1.6558-3.9144-3.0105-4.508-3.0105-0.59361 0-6.7654-3.1164-13.715-6.9254-6.9498-3.809-22.536-11.276-34.636-16.592-36.336-15.967-47.95-22.419-68.894-38.281-11.951-9.0503-25.266-21.528-26.197-24.55-0.36483-1.1836-2.1268-5.302-3.9155-9.152-5.992-12.897-10.826-29.779-14.605-51-2.6895-15.105-3.7919-56.476-1.9357-72.641 4.7915-41.726 22.918-89.441 44.963-118.36 3.3542-4.4 8.899-12.05 12.322-17 11.381-16.46 31.122-33.805 41.465-36.433 2.6383-0.67036 5.5235-1.6005 6.4115-2.067 1.1343-0.5959 2.6214-0.039 5 1.8724 11.453 9.204 32.444 22.11 48.385 29.75 9.597 4.5992 21.342 8.4562 29.5 9.6874 1.375 0.20751 3.7753 0.90088 5.3339 1.5408 3.6948 1.517 4.9322 0.63752 4.1452-2.946-0.4941-2.2496-0.28175-2.9048 0.94145-2.9048 0.86871 0 1.5795-0.40724 1.5795-0.90498s1.9125-2.0368 4.25-3.4202c12.989-7.6872 22.75-25.33 22.75-41.122 0-2.5039 0.23783-4.5526 0.52852-4.5526 1.619 0 12.648 6.2962 13.102 7.4798 0.29649 0.77264-1.1818 4.6933-3.2851 8.7125-4.6797 8.9425-15.624 20.333-26.596 27.679-4.2625 2.8541-7.75 5.394-7.75 5.6442 0 0.25022 2.2722-0.4407 5.0494-1.5354 16.646-6.5611 32.547-17.911 39.926-28.497 2.6744-3.837 3.0043-3.9999 7.3965-3.6506 4.1404 0.3293 5.1418 0.9539 10.078 6.2861 9.4715 10.23 10.869 13 14.828 29.381 4.2373 17.535 6.2771 29.583 7.7026 45.5 0.56649 6.325 1.258 13.188 1.5366 15.25 0.27863 2.0625 0.16379 3.7414-0.25521 3.7308s-2.5595-1.5878-4.7566-3.5049c-6.0707-5.2971-15.505-9.2744-15.505-6.5364 0 1.9118-32.737 20.831-40.901 23.637-2.6551 0.91266-3.6437 1.8519-3.7684 3.5804-0.093 1.2887-0.4884 4.8819-0.87873 7.9849-0.64804 5.1517-0.52972 5.6989 1.3622 6.2993 2.1186 0.67243 9.4253-2.4018 10.731-4.5152 1.1443-1.8516 16.541-12.93 21.906-15.761 4.7848-2.5256 5.7923-2.6646 19.309-2.6646 12.27 0 14.179 0.20935 13.674 1.5-0.3228 0.825-1.1517 6.1116-1.842 11.748-0.69028 5.6364-1.4936 10.486-1.785 10.778-0.29149 0.29149-1.7467 0.0674-3.2338-0.49799-6.5743-2.4996-18.533-0.45867-30.313 5.1733-4.6981 2.2461-8.9567 5.432-13.958 10.442-4.7072 4.7152-6.8772 6.3678-6.2722 4.7764 3.4948-9.192 9.9619-16.373 17.502-19.433 3.0072-1.2205 5.4676-2.6168 5.4676-3.103 0-0.48612 1.0125-0.93606 2.25-0.99986 1.6925-0.0873 1.8165-0.2293 0.50043-0.57324-2.5992-0.67929-16.181 2.3551-20.495 4.5788-2.0658 1.065-4.7816 2.9052-6.0352 4.0896-5.7854 5.4657-10.169 16.106-8.8312 21.437 0.60227 2.3996 1.1116 2.7376 3.5797 2.3754l2.8775-0.42233-2.3921 4.7206c-2.7676 5.4617-3.0818 5.1801 7.7238 6.9232 10.366 1.6722 27.785 0.89254 35.069-1.5698 5.4693-1.8488 5.9128-2.2577 9.1574-8.4429 1.8754-3.575 3.9789-8.525 4.6745-11 0.86758-3.0868 1.3867-3.8719 1.653-2.5 0.21355 1.1 1.2456 5.6 2.2934 10 3.1336 13.158 4.3759 28.595 4.4262 55 0.0765 40.108-2.6702 54.025-15.715 79.619-18.076 35.466-35.122 66.881-36.291 66.881-1.2178 0-8.0955 14.798-10.457 22.5-1.3299 4.3366-5.9613 9.8696-10.06 12.018-2.9551 1.5491-18.104 5.5608-20.096 5.3217-0.73337-0.088-2.9084-0.33515-4.8334-0.54918zm27.823-54.036c3.2215-2.6074 10.98-15.785 9.9189-16.846-0.20842-0.20842-3.4982 1.252-7.3106 3.2455-6.7983 3.5547-7.228 3.6391-22.331 4.3879-16.148 0.80061-22.783 0.28314-32.425-2.5288-3.2033-0.93425-6.0329-1.4899-6.288-1.2348-0.80874 0.80873 9.1245 6.6775 15.742 9.301 14.653 5.8089 21.889 7.4671 30.706 7.0372 7.4302-0.36227 8.7327-0.72755 11.987-3.3618zm-15.823-28.136c0-1.1868 6.6012-2.7549 17.5-4.157 7.8039-1.0039 17.5-3.9374 17.5-5.2944 0-0.24481-3.2625-0.44626-7.25-0.44765-3.9875-0.001-9.207-0.53071-11.599-1.1763-2.3918-0.64554-8.0168-1.1393-12.5-1.0972s-10.851-0.18399-14.151-0.50237c-4.6781-0.45134-8.2032 0.008-16 2.086-5.5 1.4657-11.012 2.8985-12.25 3.1841-4.2991 0.99212-2.2085-1.3404 5-5.5785 3.9875-2.3444 9.3634-5.6338 11.947-7.3098 6.4606-4.1919 15.556-5.0129 21.566-1.9466 5.3803 2.7448 7.6195 2.6732 12.885-0.41234 4.0206-2.3562 4.5163-2.4292 7.0879-1.044 1.5207 0.81919 4.5465 3.3242 6.7239 5.5668 4.1289 4.2524 6.729 5.4236 10.689 4.8148 2.276-0.34986 2.2526-0.4149-0.72945-2.0212-1.6946-0.91287-6.0911-4.3875-9.7699-7.7214-4.4749-4.0554-7.5261-6.0616-9.2185-6.0616-2.6705 0-7.83 2.2787-10.554 4.6613-1.414 1.2367-2.062 1.1616-5.0151-0.58077-1.8652-1.1005-5.6524-2.4858-8.4159-3.0785-6.7702-1.4519-14.316 0.94215-24.945 7.9148-4.4 2.8862-12.619 7.5446-18.263 10.352-5.6449 2.8074-9.9199 5.4464-9.5 5.8646 0.4199 0.41817 10.888 0.96971 23.263 1.2256 15.36 0.31766 24.245 0.93413 28 1.9426 6.759 1.8154 8 1.9421 8 0.8171zm-15.53-59.39c2.6365-6.3101 5.7883-7.7338 14.532-6.5642 2.1854 0.29238 2.5-0.043 2.5-2.6655 0-2.3649-0.41217-2.9636-1.947-2.8283-1.0708 0.0944-2.4715-0.54559-3.1126-1.4223-1.0565-1.4449-1.4825-1.41-4.553 0.37245-1.8631 1.0816-4.5124 3.694-5.8874 5.8053-1.7589 2.7008-2.5958 3.3547-2.8233 2.2058-0.20661-1.0435-1.3312-1.633-3.1152-1.633-4.102 0-7.6901-3.3657-9.5465-8.9546-1.5112-4.5497-1.5122-5.12-0.0142-7.4063 1.6808-2.5652 9.1519-6.6275 12.238-6.6544 1.5026-0.0131 1.5409-0.1575 0.2609-0.98469-2.6991-1.7443-10.982-1.1382-14.954 1.0943-6.7624 3.8007-8.6368 10.146-5.5671 18.846 3.201 9.0725 8.9804 14.05 16.322 14.056 3.9141 0.003 4.4239-0.29044 5.6674-3.2666zm37.504-2.9797c0.0177 1.4682 0.63512 2.2479 1.7771 2.2441 2.5511-0.009 14.251-11.818 14.244-14.378-0.0103-3.9215-1.9908-9.3034-4.1276-11.217-3.7943-3.3973-14.049-19.523-18.97-29.833-5.4973-11.515-7.3778-20.693-6.6866-32.633 0.35231-6.086 0.86842-8.0124 2.6145-9.7584 2.7275-2.7275 2.7874-6.3119 0.14525-8.7029-4.4137-3.9943-10.965 2.3767-10.968 10.667-0.003 7.4012 3.1643 19.95 7.5752 30.011 2.4957 5.6924 6.4926 15.338 8.882 21.434 2.3895 6.096 5.7629 13.894 7.4966 17.328 2.3473 4.65 3.0745 7.3063 2.8484 10.404-0.28829 3.9492-0.49124 4.1904-4.0013 4.7562-2.0337 0.32781-4.3929 1.1731-5.2428 1.8784-1.939 1.6092-3.8604 8.5262-3.0648 11.033 0.52969 1.6689 0.99163 1.4624 4.0247-1.7992 3.1387-3.3752 3.4286-3.4956 3.4534-1.4345zm-181.57-15.59c-6.1035-3.1903-13.812-7.8897-17.131-10.443-9.9649-7.6678-16.117-18.843-17.174-31.199-0.47174-5.5128-0.96031-7.0587-2.3124-7.3164-4.4618-0.85063-3.0899 13.371 2.3601 24.466 6.0935 12.405 16.517 20.638 34.676 27.389 11.867 4.4118 11.729 3.4538-0.41951-2.8961zm95.597-66.709c4.125-0.16011 8.0625-0.32544 8.75-0.3674 1.7511-0.10688 1.558-3.0785-0.33616-5.1715-1.4562-1.6091-1.4053-1.9973 0.62142-4.7386 2.2013-2.9775 2.2024-3.0022 0.39514-8.7482-1.8837-5.9887-7.5417-15.301-11.626-19.134-6.0001-5.6316-24.402-7.7655-42.822-4.9656-5.7652 0.87634-13.47 1.8166-17.121 2.0896-3.6515 0.27293-9.3877 1.4222-12.747 2.5539-8.7268 2.9399-20.206 4.3829-24.793 3.1166-2.0398-0.56322-3.8661-0.86668-4.0584-0.67436-0.19232 0.19232 1.7579 2.2048 4.3338 4.4723 3.283 2.8898 6.7254 4.7307 11.512 6.1562 6.3263 1.884 7.0858 2.4215 10.33 7.3094 5.5926 8.4256 13.475 13.881 24.591 17.019 9.4158 2.658 11.369 2.698 52.97 1.0833zm-32.428-5.6095c-9.6687-1.1027-21.422-4.9149-27.878-9.0422-4.6996-3.0044-9.6939-8.433-9.6939-10.537 0-1.9894 18.538-5.2139 30-5.2182 6.8329-0.003 17.163 1.8599 25.293 4.5601 4.4552 1.4798 5.2979 2.3246 10.728 10.754l5.8926 9.1484-8.2065 0.65075c-10.743 0.85186-16.501 0.78212-26.134-0.31652zm27.88-17.887c-4.3696-4.8283-17.11-11.549-31.952-16.856-2.3655-0.84573-0.46186-1.0075 9-0.76501 15.822 0.40556 20.832 2.375 22.488 8.8403 0.61041 2.3832 1.5399 5.6437 2.0654 7.2454 1.2145 3.7011 0.75655 4.1403-1.6009 1.5353zm42.963 15.802c-1.6806-5.2588-3.3928-12.389-3.4038-14.174-0.0212-3.4297 4.7445 2.1218 8.507 9.9097 3.8576 7.9849 4.5229 7.3821 1.322-1.1979-3.425-9.1805-6.5506-13.288-10.113-13.288h-3.006l0.53168 5.8634c0.57273 6.3162 3.9276 15.137 5.7573 15.137 0.71162 0 0.85996-0.82501 0.40456-2.25zm-17.56-33.14c2.1745-1.6265 0.98213-19.521-1.4177-21.276-0.99688-0.72893-2.4092-1.3253-3.1385-1.3253-3.2869 0-26.535-8.5969-39.507-14.609-7.8568-3.6415-15.792-6.7644-17.633-6.9399-1.8416-0.17547-4.2194-1.1074-5.2841-2.0709-1.8481-1.6725-2.2402-1.653-8.6517 0.42912-3.6938 1.1996-14.554 5.4472-24.134 9.4392-18.065 7.5277-23.234 10.908-11.875 7.7658 23.725-6.5631 44.265-4.0787 71.774 8.6814 13.338 6.1868 22.799 12.315 28.194 18.262 4.427 4.8801 4.7387 5.0416 7.472 3.8719 1.5688-0.67135 3.4589-1.6743 4.2002-2.2289zm-276.35 255.39c-0.34849-0.56387 0.46235-1 1.8592-1 1.3625 0 3.3015-0.25608 4.309-0.56907s0.70679 0.12107-0.66821 0.96456c-2.9372 1.8018-4.6441 1.9894-5.5 0.60451zm-3.3932-3.3714c-1.1212-1.351-0.93484-1.7498 1.2915-2.7642 1.431-0.65199 2.6018-1.5898 2.6018-2.0839 0-0.49418 0.5625-0.5748 1.25-0.17916s0.94331 0.37801 0.56847-0.0392c-0.37484-0.41718 1.3209-3.217 3.7684-6.2218 5.8569-7.1906 10.695-16.975 15.437-31.219 7.2459-21.767 9.968-40.138 9.9457-67.121-0.013-15.766-0.38368-23.039-2.5831-50.691-0.64706-8.1352-0.63617-8.1871 1.5964-7.6032 2.1904 0.5728 2.2322 0.4368 1.6339-5.3089-2.252-21.627-1.2127-78.381 1.8801-102.66 6.0124-47.208 23.594-98.147 44.734-129.61 8.4252-12.538 20.471-26.925 32.724-39.083 13.759-13.653 7.6642-10.034-8.0216 4.7629-16.183 15.266-31.737 35.793-40.724 53.744-25.975 51.883-37.094 105.98-36.06 175.44 0.20485 13.756 0.0302 25.01-0.38804 25.01-0.41827 0-0.77267-2.3625-0.78756-5.25-0.0149-2.8875-0.6777-17.175-1.4729-31.75-2.6261-48.13-1.7795-93.711 2.0932-112.7 6.5124-31.94 31.547-82.399 54.721-110.3 7.2502-8.7275 17.614-18.426 22.15-20.73 12.482-6.3383 21.365-8.5016 25.601-6.2346 2.1399 1.1452 2.6001 0.03067 0.75093-1.8185-1.4512-1.4512-1.0284-1.9202 2.1361-2.3689 2.2818-0.32353 2.5655 0.14038 4.0684 6.6522 2.2424 9.7161 5.7371 19.957 9.1187 26.721 1.5731 3.1468 2.8601 6.0873 2.8601 6.5344s-1.2543 1.5538-2.7874 2.4594c-11.857 7.0039-47.395 46.359-63.469 70.285-18.945 28.2-30.152 60.259-32.687 93.5-1.8398 24.132-2.4024 61.834-1.0968 73.5 1.587 14.18 10.893 51.192 15.397 61.238 5.2282 11.661 18.643 46.896 18.643 48.968 0 0.99717-0.84499 2.3408-1.8778 2.9857-1.5634 0.97638-1.9466 2.7324-2.2889 10.491-0.37404 8.477-0.78622 10.085-4.5673 17.818-5.8012 11.864-13.244 21.127-24.697 30.735-9.2952 7.7978-19.608 15.265-21.081 15.265-0.37026 0 1.281-2.1807 3.6695-4.846 13.917-15.53 23.843-45.691 23.843-72.453 0-10.027 0.13763-10.832 1.638-9.5868 1.5046 1.2487 1.582 0.62717 0.95067-7.6276-0.92695-12.12-3.9483-29.952-8.046-47.487-3.6315-15.54-4.4682-16.769-2.0427-3 1.9229 10.917 1.8365 11.647-0.62199 5.25-1.1098-2.8875-2.4845-5.25-3.0549-5.25-0.58921 0-0.73309 0.75576-0.33315 1.75 1.9621 4.8777 5.599 22.153 6.9668 33.092 1.9862 15.884 2.0118 42.209 0.0519 53.448-5.076 29.108-20.632 55.23-37.975 63.768-7.7789 3.8296-13.58 4.7962-15.427 2.5707zm35.203-33.49c1.7993-3.0998 4.2437-8.0052 5.4319-10.901 5.3787-13.108 10.407-41.755 10.099-57.536-0.088-4.5093-0.32092-6.6238-0.51757-4.6988-4.9971 48.918-11.731 70.316-27.713 88.064-2.2603 2.51-1.0636 1.4463 2.6593-2.364 3.7229-3.8102 8.2411-9.4639 10.04-12.564zm13.35-137.39c-0.27741-0.6875-0.50439-0.125-0.50439 1.25s0.22698 1.9375 0.50439 1.25 0.27741-1.8125 0-2.5zm-0.97917-8.9375c-0.31922-0.79773-0.55618-0.56078-0.60416 0.60417-0.0434 1.0542 0.19292 1.6448 0.52522 1.3125 0.33229-0.33229 0.36781-1.1948 0.0789-1.9167zm86.176 133.35c-30.302-30.388-51.815-61.909-62.902-92.166-9.8685-26.931-16.26-70.747-14.515-99.5 1.3451-22.161 6.9815-57.889 11.051-70.051 5.7505-17.185 16.955-37.449 31.304-56.613 14.169-18.925 46.277-53.885 57.778-62.911 3.1009-2.4336 6.4991-5.0996 7.5514-5.9246 1.8452-1.4466 1.6326-2.0598-5.9701-17.218-4.3359-8.645-9.7894-20.602-12.119-26.571-2.3521-6.0273-5.0789-11.38-6.1324-12.038-5.3325-3.3302-45.53 12.72-69.347 27.689-19.215 12.077-39.149 29.678-57.916 51.138l-4.8098 5.5 2.7357-5c9.7502-17.82 21.031-32.23 39.926-51 16.826-16.714 36.263-33.038 59.505-49.975 15.968-11.635 43.953-29.772 49.543-32.108l3.162-1.3212 0.6693 11.702c1.5662 27.382 10.428 46.628 32.338 70.232 3.8136 4.1085 7.2455 8.3126 7.6264 9.3425 1.2837 3.4705 9.4406 1.6817 29.633-6.4987l18.472-7.4833 1.5597-4.4453c1.7806-5.0748 1.8528-10.208 0.17198-12.233-2.0142-2.4269-4.2626-10.032-4.6449-15.712-0.20365-3.025-0.69424-6.3257-1.0902-7.3349-1.1239-2.8645 0.28793-15.576 2.5397-22.867 2.7667-8.9574 8.9502-15.881 16.811-18.822 12.51-4.6807 26.824-3.3636 41.209 3.7921 6.8349 3.4 7.9452 4.396 12.52 11.231 6.6251 9.8977 11.347 22.065 12.506 32.227 1.0458 9.169 0.28067 14.08-3.6728 23.578-2.1638 5.1981-2.4288 6.7337-1.5102 8.75 0.61283 1.345 1.7831 2.4455 2.6005 2.4455 0.81744 0 1.9679 0.9 2.5566 2s1.6395 2 2.3352 2c0.69565 0 1.7984 0.53358 2.4506 1.1857 0.65215 0.65215 4.2296 1.9788 7.95 2.948 6.0967 1.5884 6.994 1.612 9.0927 0.23982 1.3365-0.87386 2.0954-2.1298 1.7814-2.948-0.35507-0.9253 0.11857-1.4256 1.3497-1.4256 1.3727 0 2.4381-1.4506 3.856-5.25 8.1057-21.72 9.5216-34.782 6.0222-55.555-0.58414-3.4675-0.84113-6.5255-0.57109-6.7955 0.80885-0.80885 10.697 5.4139 19.233 12.104 10.021 7.8538 26.032 23.679 33.629 33.238 12.576 15.825 20.482 34.012 26.305 60.508 0.96811 4.4051-0.34883 3.1909-2.9718-2.7401-6.4644-14.617-17.212-28.709-29.81-39.087-4.6223-3.8076-9.3558-8.3729-10.519-10.145-1.2052-1.8362-2.6882-3.0021-3.448-2.7105-0.73328 0.28138-2.5374-0.69253-4.0091-2.1643-1.4717-1.4717-2.6759-2.4221-2.6759-2.1119 0 3.2181-2.697 18.72-4.9946 28.709-3.391 14.742-3.7955 18.74-2.1936 21.684 0.65356 1.2013 1.1883 2.8928 1.1883 3.7587 0 0.86593 2.5009 4.2948 5.5576 7.6197 10.45 11.367 20.756 29.241 27.927 48.437 13.101 35.067 15.144 88.882 4.4137 116.29l-3.122 7.976-5.6384 0.48882c-3.1011 0.26885-6.4632 0.0596-7.4714-0.46501-1.7056-0.88758-1.7188-1.08-0.18887-2.7705 1.102-1.2177 1.2661-1.9427 0.49759-2.1989-1.5668-0.52225 2.5402-9.4551 8.4036-18.278 5.0186-7.5519 5.3894-9.0044 3.1242-12.238-0.82302-1.175-2.6396-8.3626-4.0368-15.972-4.8785-26.57-12.184-50.882-19.886-66.176-7.8266-15.541-24.304-33.806-37.084-41.104-21.688-12.386-53.852-17.912-78.867-13.55-19.352 3.3748-50.564 16.719-70.253 30.037-11.514 7.7877-31.332 23.448-39.745 31.407-14.29 13.518-28.322 33.854-39.708 57.551-14.278 29.716-22.413 57.407-25.98 88.443-1.5545 13.526-0.68414 48.926 1.5504 63.057 2.1957 13.885 7.4822 34.344 13.178 51 4.1938 12.263 18.723 48.907 21.808 55 1.89 3.7332 2.7603 7.011 1.8364 6.916-0.44957-0.0462-4.706-3.9837-9.4588-8.75zm177.64-429c6.5303-3.0943 12.762-9.2225 15.27-15.016 0.9869-2.28 1.5512-6.3701 1.5106-10.949-0.0821-9.2745-3.7523-17.247-11.675-25.362-11.06-11.328-27.595-15.484-40.378-10.148-5.5459 2.3148-10.974 8.0268-13.147 13.834-1.8791 5.0225-1.9183 5.8801-0.62451 13.672 2.4398 14.694 6.4766 23.059 14.169 29.363 9.6965 7.9455 23.875 9.8181 34.874 4.606zm-23.976-7.1633c-6.8192-3.496-14.524-12.557-14.524-17.081 0-2.9151 29.953 2.452 38.684 6.9318l3.5214 1.8066-2.353 2.6179c-6.0037 6.6797-18.124 9.4192-25.329 5.7251zm23.476-19.747c-5.2725-2.0495-8.7662-2.611-18.5-2.9735-6.6-0.24577-13.912-0.0054-16.25 0.53426-3.8492 0.8886-4.25 0.80254-4.25-0.91258 0-1.0415 0.45-1.8937 1-1.8937s1-0.49814 1-1.107c0-0.60884-0.62864-0.86576-1.397-0.57092-3.7337 1.4328-1.8919-10.741 2.849-18.831 2.6209-4.4723 5.5689-6.6161 10.835-7.8797 9.1075-2.1852 27.372 10.632 30.626 21.492 1.668 5.5674 2.603 14.926 1.4768 14.782-0.48944-0.06266-3.8149-1.2509-7.3899-2.6406zm4.5576-7.3271c-2.6166-10.214-5.7352-14.18-15.999-20.348-12.242-7.3569-22.285-2.6811-25.551 11.896-0.93114 4.1549-0.86298 5.0344 0.44696 5.7675 0.8501 0.47574 1.5456 1.7069 1.5456 2.736 0 1.7351 0.96222 1.8692 13.25 1.8458 11.379-0.02164 14.238 0.31138 20.25 2.3588 3.85 1.3112 7.1485 2.2972 7.33 2.1912 0.18151-0.10603-0.39107-3.0075-1.2724-6.4477zm96.515 383c0.0397-0.77917 1.1176-6.3667 2.3952-12.417 2.076-9.8306 2.3341-10.468 2.4278-5.9968 0.0576 2.7518-0.78075 8.0998-1.8631 11.885-1.9306 6.751-3.103 9.3372-2.9599 6.5289zm6.0067-20.5c0.048-1.165 0.28494-1.4019 0.60416-0.60417 0.28887 0.72187 0.25335 1.5844-0.0789 1.9167-0.33229 0.33229-0.56864-0.25834-0.52522-1.3125zm1.1401-28.917c-0.0355-24.685 0.085-26.657 1.4048-23.001 2.2217 6.1537 2.724 16.765 1.4438 30.501-2.0965 22.496-2.8082 20.622-2.8487-7.5zm-63.708-39.189c-5.494-0.21386-10.406-0.80622-10.917-1.3164-0.57002-0.57002 1.7804-3.5875 6.0981-7.8288 7.4637-7.3316 15.755-12.136 25.353-14.69 6.7802-1.8043 16.339-1.9226 17.752-0.21953 1.8629 2.2447-0.0841 13.353-2.8625 16.332-6.3408 6.7974-14.349 8.5432-35.424 7.7229zm57.489-22.311c-0.81192-1.5171-0.76005-2.0042 0.21482-2.0173 0.70685-0.009 2.3585-1.1486 3.6704-2.5314 3.2983-3.4766 3.7585-2.3689 1.0316 2.483-2.5778 4.5866-3.386 4.9261-4.9168 2.0657zm-94.88-130.87c-0.0574-5.487-1.2159-16.315-2.616-24.45-1.3822-8.0305-2.513-14.903-2.513-15.273 0-1.2572 9.4725 0.60736 18.75 3.6907 10.808 3.5921 10.775 3.5145 6.7379 15.54-4.4803 13.347-10.823 23.624-17.527 28.397l-2.7288 1.9431-0.10297-9.8487zm-12.828 5.1276c-1.6684-2.0625-7.8615-8.925-13.763-15.25-5.901-6.325-13.004-14.545-15.784-18.267-2.7801-3.7217-5.2411-6.5803-5.469-6.3525-0.52067 0.52067 5.8298 13.284 10.324 20.75 4.0508 6.7289 4.1682 7.4254 0.88974 5.2772-2.8551-1.8707-3.2949-0.94385-0.83946 1.7694 0.91329 1.0092 1.4223 2.0732 1.131 2.3644-0.99346 0.99347-19.048-10.027-26.049-15.9-6.2752-5.2642-6.7933-5.5272-5.1126-2.5958 3.2062 5.5921 14.523 16.289 22.698 21.455 4.3054 2.7206 7.379 5.0962 6.8302 5.2791-2.3304 0.7768-54.158-23.068-54.158-24.917 0-1.9442 32.94-16.714 41.086-18.422 1.3279-0.27845 4.6644-0.96611 7.4144-1.5281 5.734-1.1719 25.333-1.4559 31.268-0.45322l3.999 0.67562 0.53904 12.182c0.29648 6.7 0.41751 14.432 0.26897 17.182s-0.33875 8.4875-0.4227 12.75c-0.0839 4.2625-0.52731 7.75-0.98526 7.75-0.45794 0-2.1977-1.6875-3.866-3.75zm-267.76-10.25c3.8678-14.716 21.146-46.974 32.943-61.506 3.5091-4.3223 5.3229-9.8788 3.5769-10.958-0.5822-0.35982-1.0586-1.0629-1.0586-1.5625 0-1.0519 18.221-11.974 19.976-11.974 0.64587 0-0.68698 1.9125-2.9619 4.25-6.3084 6.482-24.141 30.414-30.087 40.378-2.912 4.8799-9.2887 16.747-14.17 26.372-4.8817 9.625-8.5801 16.375-8.2188 15zm166.99-90.672-3.6228-4.7446 2.2994-1.8209c4.3383-3.4355 15.634-9.8917 20.624-11.788 2.7457-1.0433 7.3469-2.0268 10.225-2.1857 4.8835-0.26951 5.3518-0.08861 7.0182 2.7112 0.98209 1.65 1.8185 3.3267 1.8587 3.726 0.0402 0.39928-6.3394 3.921-14.177 7.8261-7.8375 3.9051-15.679 7.9822-17.427 9.0602l-3.1766 1.9601-3.6228-4.7446zm137.48-5.059c-4.534-0.53276-5.4697-1.5438-3.8416-4.1508 1.6798-2.6897 2.6889-2.6291 6.0916 0.36574 2.5691 2.2612 3.6972 4.7185 2 4.3563-0.4125-0.088-2.325-0.3451-4.25-0.57129zm-148.25-9.7484c-3.1625-4.6198-5.75-8.8637-5.75-9.4308 0-0.56713 5.2875-2.7318 11.75-4.8103 12.015-3.8645 18.724-4.5316 32.437-3.2255 4.5567 0.43398 4.7167 0.56305 5.75 4.6392 0.58459 2.3061 1.0629 4.3819 1.0629 4.6131 0 0.23115-2.8125 0.6537-6.25 0.93899-7.5541 0.62696-15.268 3.9193-25.089 10.709-4.015 2.7756-7.4938 5.0285-7.7306 5.0064-0.23687-0.022-3.0182-3.8199-6.1807-8.4397zm150.12 4.7298c-3.2107-2.5958-3.3487-2.9603-2.4611-6.5 0.51716-2.0625 1.2226-3.75 1.5678-3.75 0.34511 0 2.1112 1.5308 3.9246 3.4018 2.7969 2.8857 3.1939 3.8719 2.6167 6.5-0.83298 3.7925-1.3484 3.8243-5.648 0.34817zm-158.85-18.191c-0.56935-1.0638-1.0352-2.3958-1.0352-2.9598 0-1.7967 13.018-5.1266 25.962-6.6407 16.745-1.9588 22.285-1.8956 24.978 0.28475 2.0804 1.6846 1.5893 1.75-13.139 1.75-13.737 0-15.895 0.23995-21.119 2.3477-3.2004 1.2912-5.5536 2.613-5.2293 2.9373 0.43636 0.43636-7.7695 4.2089-9.1665 4.2142-0.11815 0.000448-0.68065-0.8696-1.25-1.9334zm230.33 597.44c-0.34557-0.90055-0.16636-2.0993 0.39825-2.6639 1.6301-1.6301 4.739-0.53146 4.739 1.6747 0 2.5437-4.2283 3.3579-5.1372 0.98922z"
     style="fill:#ffffff" />
</svg>
