<?xml version="1.0" encoding="UTF-8" standalone="no"?>
<!-- Created with Inkscape (http://www.inkscape.org/) -->
<svg id="svg3436" xmlns:rdf="http://www.w3.org/1999/02/22-rdf-syntax-ns#" xmlns="http://www.w3.org/2000/svg" height="1062.5" viewBox="0 0 1062.5 1062.5" width="1062.5" version="1.1" xmlns:cc="http://creativecommons.org/ns#" xmlns:dc="http://purl.org/dc/elements/1.1/">
 <metadata id="metadata3442">
  <rdf:RDF>
   <cc:Work rdf:about="">
    <dc:format>image/svg+xml</dc:format>
    <dc:type rdf:resource="http://purl.org/dc/dcmitype/StillImage"/>
    <dc:title/>
   </cc:Work>
  </rdf:RDF>
 </metadata>
 <path id="path3446" fill="#fff" d="m711.49 1002.9c-3.4949-6.5979-9.4319-49.473-9.5363-68.869-0.0602-11.183-0.41771-13.943-1.7405-13.438-0.9156 0.35019-3.847 0.63671-6.5143 0.63671-4.6485 0-4.9087 0.22031-6.275 5.3125-4.5389 16.917-27.294 71.804-31.255 75.388-3.1467 2.8478-6.1741 1.4415-6.1332-2.849 0.0356-3.7298 6.8031-24.499 17.832-54.727 9.6878-26.551 9.3469-23.917 3.201-24.741-4.1946-0.56261-6.6638 0.0127-12.329 2.8726-3.8963 1.9668-11.815 5.1606-17.598 7.0973-9.7489 3.265-11.878 3.514-29.264 3.4214-22.406-0.11925-33.576-2.2444-46.762-8.8973-11.72-5.9132-34.472-21.008-56.99-37.809-9.624-7.181-20.575-15.337-24.336-18.125-3.7609-2.7878-11.355-8.9566-16.875-13.708-11.62-10.002-17.829-13.982-20.983-13.447-1.5448 0.2617-2.7959-0.95794-4.0421-3.9405-2.5238-6.0402-17.496-19.423-33.805-30.218-14.637-9.6875-29.612-24.094-31.066-29.887-0.46041-1.8344-2.7248-5.9862-5.0319-9.2263-11.613-16.309-20.05-42.911-24.458-77.123-0.79604-6.1773-1.6536-11.438-1.9058-11.69-0.25216-0.25216-1.745 0.44264-3.3174 1.544-1.9731 1.382-5.62 2.0025-11.769 2.0025-15.406 0-20.774-3.1028-27.033-15.625-3.7046-7.4122-14.33-19.782-16.069-18.708-0.49399 0.3053-1.5933-0.28248-2.4428-1.3062-2.2932-2.7632-3.4473-2.283-4.3459 1.8082-0.52765 2.4024-0.13042 4.7004 1.1504 6.6552 4.4799 6.8372 5.7098 57.09 2.0724 84.675-0.67991 5.1562-1.9195 17.672-2.7547 27.812-0.8421 10.225-2.0662 18.438-2.748 18.438-0.77487 0-0.90896-3.5823-0.36261-9.6875 0.47683-5.3281 1.3848-15.875 2.0178-23.438 0.63298-7.5625 1.7127-19.656 2.3994-26.875 2.6888-28.266 1.0117-62.917-3.4054-70.361-2.2676-3.8214-2.2836-4.3272-0.33375-10.55l2.0481-6.5359 4.1818 4.0359c3.0766 2.9693 3.9542 3.385 3.3204 1.5729-1.805-5.1608 13.12 12.874 17.555 21.213 5.2138 9.8028 6.4809 11.034 13.524 13.145 10.268 3.0763 24.544 0.67488 26.515-4.46 1.5322-3.9929 2.4485-1.2026 3.8186 11.628 3.5958 33.673 12.314 62.472 24.125 79.695 1.8888 2.7542 4.6903 7.6801 6.2257 10.947 3.4908 7.4263 18.044 21.227 29.666 28.131 8.6491 5.1383 27.861 21.116 32.534 27.057 1.3985 1.7779 2.8691 3.2325 3.2681 3.2325 0.82983 0 13.612 9.8219 31.722 24.375 42.533 34.18 84.638 62.244 100.94 67.282 9.967 3.0794 28.331 4.9941 40.899 4.2643 21.782-1.2648 52.17-14.556 65.754-28.76 3.3281-3.4799 4.0734-5.182 3.75-8.5645-0.31917-3.3388-1.2152-4.5792-4.2852-5.9319l-3.8817-1.7104 11.649-14.54c6.4067-7.9968 12.326-15.804 13.154-17.35 3.8862-7.2536-2.808-3.6993-18.192 9.6593-4.7588 4.1323-8.9055 7.2602-9.2148 6.9509-0.30929-0.3093 2.233-4.1032 5.6495-8.4309 5.9616-7.5516 12.159-16.718 9.5444-14.119-0.69129 0.6875-3.1851 3.7764-5.5418 6.8643-2.3567 3.0878-7.8006 9.4603-12.097 14.161-4.2969 4.7007-7.8125 9.3659-7.8125 10.367 0 2.6331 2.9043 0.80584 12.5-7.8644 12.582-11.368 21.282-18.288 22.041-17.529 0.90588 0.90587-16.285 23.567-25.105 33.094-18.143 19.597-49.899 39.032-63.775 39.032-6.1457 0-22.743-5.5174-37.798-12.565-15.985-7.4831-31.41-17.516-62.266-40.501-13.086-9.7483-29.965-21.995-37.508-27.215-7.5429-5.2202-15.119-10.992-16.836-12.827-1.7171-1.8348-6.3907-5.3215-10.386-7.7484-7.6504-4.6474-8.613-6.5942-2.1458-4.3397 8.1034 2.8249 10.961-3.4962 3.0707-6.7929-5.5623-2.3241-23.874-19.732-31.975-30.396-3.3471-4.4063-5.8748-8.2223-5.617-8.4801 0.25777-0.25777 5.4652 1.0273 11.572 2.8557 15.907 4.7625 48.717 5.9901 46.081 1.7241-0.41244-0.66734-1.9823-1.2587-3.4886-1.3142-3.1584-0.11625-19.408-17.537-33.719-36.149-11.85-15.412-12.252-16.133-7.0785-12.689 7.856 5.229 15.472 8.1398 22.746 8.693 9.0375 0.68738 9.2172-0.67206 1.0583-8.0076-10.13-9.09-43.83-48.07-43.83-50.68 0-0.53995 1.8281 0.13289 4.0625 1.4952 4.7215 2.8788 9.1384 3.2201 10.075 0.77856 0.7259-1.8917-0.25525-3.5465-10.751-18.133-7.38-10.25-20.89-32.34-20.89-34.16 0-0.54977 2.6719 0.89876 5.9375 3.219 8.0344 5.7085 13.326 8.2773 17.052 8.2773 4.0662 0 4.8548-1.4958 3.0749-5.8326-0.79963-1.9483-1.5127-4.1049-1.5846-4.7924s-2.1993-4.4028-4.7276-8.2563c-7.0682-10.773-18.934-32.353-18.196-33.091 0.36244-0.36245 1.9392 1.48 3.5038 4.0942 6.2502 10.443 10.591 12.816 14.15 7.7348 2.1444-3.0615 1.6843-4.7904-3.189-11.984-2.9268-4.3203-3.9824-8.0916-5.9482-21.25-3.0437-20.374-6.7474-54.114-6.02-54.842 0.30591-0.30591 1.5734 1.6995 2.8166 4.4565 2.304 5.1094 5.1383 6.5004 6.4231 3.1523 0.39266-1.0233 0.0164-4.8201-0.8363-8.4375-2.0671-8.7697-9.5261-35.996-10.635-38.82-0.66975-1.7052 0.87994-1.1814 6.4616 2.1843 8.408 5.0699 12.06 5.5275 14.646 1.8352 1.6398-2.3411 1.4051-3.8196-2.3674-14.913-4.4932-13.213-8.3968-31.238-6.7651-31.238 0.54761 0 1.1832 0.52305 1.4123 1.1623 0.22916 0.63927 3.4149 4.2955 7.0794 8.125 6.577 6.873 11.462 8.963 11.462 4.9037 0-3.1454-9.7994-31.144-14.552-41.577-2.3201-5.0934-3.9367-9.5424-3.5924-9.8867 0.34435-0.34435 8.6458-1.1239 18.448-1.7322 9.8019-0.60838 18.525-1.175 19.384-1.2591 3.5432-0.34687 0.88404-4.2663-11.875-17.503l-13.438-13.941 8.75-1.5267c4.8125-0.83969 12.103-2.4243 16.2-3.5214 4.0976-1.0971 8.6913-1.9947 10.208-1.9947 1.517 0 2.9828-0.67365 3.2572-1.497 0.37963-1.1389 1.4788-1.0912 4.5946 0.19947 3.4837 1.443 4.2623 1.4332 5.211-0.0655 2.1939-3.4657 1.0122-5.5665-5.2093-9.2609-12.187-7.2366-11.814-7.6288 6.7336-7.0886 17.058 0.49683 27.129-0.99176 27.129-4.01 0-0.8944-1.2656-2.2052-2.8125-2.913-3.269-1.4957-19.799-14.42-19.204-15.015 0.22071-0.22071 3.1552 0.13272 6.5212 0.78542 9.5083 1.8438 22.416 2.7755 21.065 1.5204-0.6574-0.61064-7.0314-2.9024-14.165-5.0929-15.558-4.7776-24.902-8.7885-30.601-13.135-4.4804-3.4174-8.7214-3.1975-8.0509 0.41743 0.20714 1.1166 4.0316 4.3889 8.4989 7.2718 8.038 5.1873 10.708 7.1178 25.959 18.77 7.34 5.6081 7.6279 6.0139 4.5379 6.3978-4.3274 0.53771-22.886-1.924-32.375-4.2944-4.125-1.0304-10.436-3.3331-14.024-5.117-5.3865-2.678-6.8577-2.9666-8.4375-1.6555-3.3787 2.804-2.0852 6.0068 5.853 14.493l7.7664 8.3024-9.954-0.83739c-31.334-2.636-51.01-10.406-64.686-25.544-5.4951-6.0824-6.1135-5.0294-1.0973 1.8685 10.972 15.088 32.405 27.349 54.195 31.004l10.385 1.7418-13.75 0.14636c-7.5625 0.0805-14.502 0.62325-15.422 1.2061-0.91953 0.58285-1.482 2.4024-1.25 4.0434 0.33005 2.3343 1.2948 3.068 4.4332 3.3715 3.1421 0.30382 4.9757 1.7016 8.4613 6.4499 2.4475 3.3341 7.9548 9.3081 12.239 13.276 4.2838 3.9675 6.6637 6.8568 5.2887 6.4207-1.375-0.43608-5.8723-1.9973-9.9939-3.4694-9.675-3.4556-25.138-3.1542-29.254 0.57003-4.3916 3.9743-2.3494 11.994 2.5732 10.105 1.349-0.51763 2.2419 1.771 3.7713 9.6659 1.1021 5.6893 2.4111 11.339 2.9089 12.556 0.86567 2.1152 0.73674 2.1152-2.9639 0-3.0152-1.7234-4.357-1.9-6.0804-0.80025-1.923 1.2271-2.1759 3.1838-1.9387 15 0.16734 8.3371 1.2161 17.452 2.7138 23.583 1.3426 5.497 2.228 10.208 1.9676 10.468-0.2604 0.26042-2.2279-1.0028-4.3722-2.8071-3.9964-3.3628-5.7731-3.8482-9.2296-2.5218-2.4221 0.92944-2.6 5.9183-0.2797 7.844 0.93364 0.77487 2.0402 4.6871 2.459 8.6939 0.41879 4.0068 1.1213 8.223 1.5612 9.3692 0.52752 1.3747 0.1615 2.0842-1.0752 2.0842-1.0312 0-2.1575 0.73615-2.5028 1.6359-1.3536 3.5274 5.4641 77.915 7.4398 81.177 0.31239 0.51563 0.0662 0.9375-0.54698 0.9375-0.61323 0-5.0058-5.388-9.7613-11.973-12.512-17.326-12.087-16.855-11.164-12.402 0.42745 2.0625 4.3614 11.344 8.7422 20.625 6.2075 13.151 8.2921 19.082 9.4473 26.875 1.7624 11.89 5.3341 23.968 9.555 32.312 1.6867 3.334 2.8738 6.2547 2.6379 6.4906-0.23583 0.23582-4.3518-2.9151-9.1465-7.0021-9.5304-8.1235-12.622-8.8838-12.205-3.0013 0.33455 4.7199 10.765 25.805 19.01 38.427 3.4941 5.3494 6.3528 10.004 6.3528 10.345 0 0.34014-1.7617-0.29258-3.915-1.4061l-3.915-2.0245 0.85749 3.5549c2.0874 8.6537 23.826 36.993 42.495 55.399 5.2126 5.139 9.4775 9.7343 9.4775 10.212 0 1.2336-8.466-1.2535-14.375-4.2232-6.776-3.4053-21.46-14.324-22.337-16.609-1.0365-2.701-4.9742-2.3859-4.2395 0.3393 1.1942 4.4295 30.476 44.871 39.013 53.881l8.8138 9.3023-8.125-0.87799c-4.4688-0.4829-10.375-1.4328-13.125-2.1108-10.621-2.6187-26.875-7.8142-26.875-8.5901 0-0.44774-0.81195-1.906-1.8043-3.2405-1.6766-2.2546-1.7849-2.1012-1.5303 2.1655 0.15074 2.5256 1.1723 5.6193 2.2702 6.875s3.4439 4.615 5.2135 7.465c1.7695 2.85 5.829 8.3883 9.021 12.307 4.9322 6.0554 5.3646 6.9931 2.8793 6.2445-11.954-3.601-34.957-20.53-40.281-29.644-3.6264-6.2083-9.5063-25.98-13.277-44.645-5.6203-27.82-7.5161-46.336-8.7104-85.07-1.4184-46.001-2.1578-56.08-4.3622-59.467-0.9704-1.491-2.0265-8.127-2.4868-15.625-1.7381-28.317-1.8556-29.259-3.8328-30.706-1.3996-1.0242-2.0596-4.1593-2.3566-11.195-0.24475-5.7979-0.98602-9.9636-1.8226-10.242-0.77554-0.25851-2.6053-4.4052-4.0662-9.2148-2.7141-8.9355-4.7843-11.201-7.8843-8.6283-1.4211 1.1794-3.2343-0.62973-9.6716-9.6497-9.9745-13.976-25.088-32.898-25.749-32.237-0.27541 0.27542 0.1529 1.7221 0.9518 3.2149 1.9893 3.717 1.1468 4.1016-4.1429 1.8914-5.1254-2.1415-17.816-2.5103-22.685-0.65923-5.4735 2.081-15.738 12.721-19.542 20.256-7.2891 14.44-9.8062 24.616-11.759 47.541-2.3436 27.515-2.3359 37.38 0.0363 46.646 2.6336 10.287 10.015 25.14 19.817 39.879 5.8277 8.7622 7.8177 12.706 6.7454 13.369-1.095 0.67678-1.4121 5.1604-1.132 16.009 0.21 8.4-0.12 15.06-0.75 15.06-0.62 0-1.8592-2.9531-2.7537-6.5625-0.89454-3.6094-6.0589-20.062-11.476-36.562-11.619-35.389-14.566-48.021-15.934-68.298-1.0081-14.951-1.8201-17.255-6.0997-17.308-1.9247-0.024-2.3851 2.1398-4.2511 19.981-1.2152 11.618-1.7076 13.656-2.5677 10.625-1.5642-5.5117-1.7643-21.429-0.67201-53.458 1.1031-32.348 0.80553-33.971-6.0808-33.167-2.3456 0.27384-4.2647 0.38625-4.2647 0.24982 0-0.13644 3.6563-7.7579 8.1251-16.936 4.4688-9.1786 8.4701-18.523 8.8917-20.765 0.9104-4.841-1.2538-8.0865-5.0324-7.5466-3.1641 0.45208-10.141 16.714-14.64 34.123-3.5006 13.545-4.1702 10.974-2.5042-9.615 1.1253-13.907 2.0839-17.953 9.9769-42.107 4.8026-14.697 8.461-27.428 8.1298-28.292-0.3312-0.8631 0.19381-3.4744 1.1667-5.8028 0.97288-2.3284 1.6535-6.1726 1.5125-8.5425-0.14995-2.5206 1.726-9.5138 4.5201-16.85l4.7764-12.541 0.0388 6.5625c0.0214 3.6094 0.46353 6.5625 0.98266 6.5625 0.51912 0 2.2895-3.5156 3.9342-7.8125 4.0135-10.486 11.369-25.107 12.208-24.268 0.37177 0.37177 0.0684 7.32-0.6742 15.441-2.5332 27.702-2.9814 41.3-1.9748 59.911 0.98892 18.283 2.6007 20.284 2.9025 3.6039 0.0746-4.125 1.8821-27.114 4.0166-51.087 3.4485-38.731 3.6721-43.795 2.0071-45.46-2.165-2.165-4.6088-1.1433-4.6244 1.9333-0.006 1.1626-2.3267 6.895-5.1574 12.739-2.8306 5.8438-6.4402 14.281-8.0212 18.75-3.8194 10.795-3.8026 7.1679 0.033-7.1489 3.7215-13.891 14.32-38.334 20.815-48.007 5.4988-8.1886 4.8854-10.366-3.2839-11.657-4.2729-0.67536-6.0492-0.15744-12.215 3.5618-8.215 4.9551-8.1994 4.9009 2.3449-8.1596 9.3316-11.558 20.912-28.502 20.912-30.598 0-0.82694 0.77862-1.2048 1.7303-0.83958 2.3965 0.91964 7.8531-4.5011 7.8531-7.8015 0-2.8353-2.7994-5.911-6.6135-7.2662-2.0351-0.72308-16.951 0.7306-24.637 2.401-3.0293 0.6584-3.0484 0.6215-0.625-1.2047 1.375-1.0362 3.6942-1.5927 5.1537-1.2368 3.2505 0.7927 16.316-5.6515 29.102-14.354 7.4452-5.0673 9.9519-6.1607 12.812-5.5886 2.2835 0.4567 3.5564 0.18906 3.5564-0.74774 0-0.80245 0.59351-2.1384 1.3189-2.9688 0.72541-0.83035 3.4776-5.0692 6.116-9.4196 2.6614-4.3883 5.1679-7.31 5.6298-6.5625 1.4184 2.2951 4.7686 1.4956 8.4293-2.0115 1.9282-1.8474 3.5059-2.6911 3.5059-1.875 0 8.1419 25.706-14.523 39.773-35.067 8.3243-12.158 31.387-36.897 29.433-31.574-2.1555 5.8735-8.9652 15.454-15.221 21.413-6.3081 6.0096-6.6289 6.5998-5.0959 9.375 0.89983 1.6289 1.4616 3.803 1.2484 4.8313-0.33059 1.5947-0.0474 1.5766 1.9252-0.1225 1.2721-1.0957 3.1566-2.2878 4.1878-2.6491 1.0312-0.36131 8.9062-5.62 17.5-11.686 28.207-19.91 33.002-23.122 44.096-29.54 6.0341-3.4906 10.777-6.541 10.539-6.7788-0.58719-0.58718-34.025 12.282-40.515 15.593-2.86 1.4591-5.5584 3.2326-5.9962 3.9411-1.3658 2.2099-3.1234 0.0217-3.1234-3.8884 0-2.0561 0.89217-5.4636 1.9826-7.5722 1.0904-2.1087 1.6751-5.0098 1.2993-6.447-0.43828-1.6759 0.46499-4.1186 2.5186-6.8111 1.7611-2.3089 2.9864-4.4136 2.7229-4.6771-1.9392-1.9392-37.276 29.083-68.654 60.271-13.973 13.889-25.546 25.112-25.717 24.942-0.17091-0.17091 2.2522-5.2478 5.3848-11.282 3.1325-6.0341 5.4888-11.178 5.2361-11.431-0.89904-0.89904-28.978 34.261-32.931 41.236l-4.023 7.098-14.847 5.9766c-37.56 15.14-57.98 28.86-42.93 28.86 4.8938 0 33.418 4.6836 35.189 5.7778 0.48045 0.29692-3.9577 5.1653-9.8626 10.819-16.856 16.138-44.135 48.775-44.135 52.804 0 3.3156 3.7176 4.9094 7.8303 3.3571 2.1339-0.80546 4.0202-1.3242 4.1917-1.1527 0.60506 0.60506-10.633 23.175-17.314 34.774-3.7215 6.4604-8.3024 15.121-10.18 19.246-1.8775 4.125-5.0032 9.1875-6.946 11.25-3.2798 3.4819-6.3323 8.2628-6.3323 9.9178 0 2.293 4.0683-0.40936 13.481-8.9545 11.557-10.493 20.447-17.807 21.664-17.826 0.88107-0.0139-2.4573 12.491-7.0049 26.238-7.3346 22.172-12.102 58.069-12.354 93.01-0.12162 16.903 0.22144 22.515 1.4008 22.916 0.85901 0.29244 1.8961-0.49945 2.3047-1.7597 1.9015-5.8658 3.3781-9.1657 4.0976-9.1576 0.43221 0.005 0.8722 7.7393 0.97774 17.188 0.13451 12.042 1.1393 22.598 3.3604 35.304 3.6531 20.897 5.7335 38.858 6.1534 53.125 0.22268 7.5663 0.71746 10 2.0331 10 2.27 0 3.1653-1.8204 6.5791-13.377 1.5641-5.2951 3.0587-9.4126 3.3212-9.1501 0.45294 0.45294 1.7817 6.239 9.4796 41.278 3.3758 15.366 15.745 59.721 19.166 68.727 1.0493 2.7624 3.1019 6.0688 4.5614 7.3475 2.3412 2.051 2.8959 4.9215 4.7106 24.375 1.1313 12.128 2.9874 31.231 4.1247 42.452s1.8881 23.315 1.6685 26.875c-0.60447 9.7984-1.7004 3.6196-3.9512-22.277-4.79-55.111-6.2147-67.502-7.8764-68.505-0.91578-0.55249-2.7334-3.0986-4.0391-5.658-3.0942-6.065-16.703-53.469-20.772-72.356-5.0992-23.668-7.6184-33.38-8.3367-32.141-0.36926 0.63735-1.0741 3.4088-1.5663 6.1588-1.0109 5.6477-3.7836 9.375-6.9741 9.375-3.7085 0-4.6697-2.7914-4.7346-13.75-0.0715-12.065-1.554-25.148-5.8073-51.25-1.6244-9.9688-3.3565-23.343-3.8492-29.72-0.82389-10.665-1.088-11.534-3.292-10.834-1.3179 0.41829-3.213 0.0826-4.2112-0.7458-2.4413-2.0261-2.4208-24.816 0.0474-52.795 2.9278-33.188 5.5904-47.928 12.667-70.12 2.3834-7.4741 4.1012-13.822 3.8174-14.105-0.28382-0.28382-6.5663 4.8748-13.961 11.464-7.6533 6.8192-14.321 11.814-15.478 11.595-3.9147-0.74065-3.163-7.4444 1.4448-12.885 2.3197-2.7388 7.7787-11.73 12.131-19.98 23.379-44.314 21.709-40.625 18.393-40.625-3.5733 0-7.1267-3.5684-7.1267-7.1568 0-4.5208 25.458-35.715 42.923-52.595 5.194-5.02 8.7705-9.3312 7.9476-9.5804-4.2248-1.2798-24.992-4.4174-29.238-4.4174-9.0025 0-10.471-5.1598-3.1958-11.227 5.403-4.5056 35.081-19.22 49.482-24.534 8.1104-2.9925 10.07-4.2587 11.396-7.3639 0.88107-2.0625 4.2475-7.321 7.4809-11.685 6.938-9.3649 25.914-31.907 27.295-32.424 0.52847-0.19789 1.9194 0.17665 3.0911 0.83232 1.9976 1.1179 1.988 1.4903-0.15413 5.9824-1.8104 3.7966 2.2152 0.37702 19.406-16.484 32.2-31.582 60.51-55.306 64.274-53.862 2.5766 0.98873 2.204 5.0045-0.70901 7.6407-1.5931 1.4417-2.5161 3.8926-2.5443 6.7562-0.0243 2.4716-0.84818 5.9-1.8307 7.6188-3.2834 5.7437-2.1649 6.2246 5.9375 2.5524 12.304-5.5766 37.57-15.052 40.134-15.052 1.2803 0 5.4766-2.8777 9.325-6.395 9.5697-8.7462 12.101-9.7881 15.506-6.3828 2.213 2.213 2.4412 3.178 1.3287 5.6196-1.3356 2.9312-1.2542 2.9207 14.463-1.8615 8.6932-2.6451 19.181-5.0143 23.306-5.2648 4.125-0.25058 11.438-1.3167 16.25-2.3692 4.8125-1.0525 17.628-3.1607 28.478-4.685l19.728-2.7714 3.0847 2.8979c1.6966 1.5939 3.0847 3.5456 3.0847 4.3371 0 2.372-5.329 6.5874-10 7.9104-6.4367 1.8231-1.0803 1.703 12.06-0.2703 6.2892-0.94447 12.801-1.456 14.471-1.1367 1.6701 0.31927 8.337-0.87235 14.815-2.648 6.4782-1.7757 13.888-3.2289 16.466-3.2294 4.492-0.000855 4.9368 0.45062 4.6166 4.6866-0.039 0.51562-8.0546 3.5833-17.812 6.8172l-17.742 5.8797 12.5-0.61038c6.875-0.33571 19.111-1.4943 27.191-2.5747 8.0798-1.0804 15.674-1.5405 16.875-1.0224 1.418 0.61141-1.763 1.52-9.0656 2.5894-12.785 1.8723-61.91 5.8652-62.681 5.0947-0.73235-0.73235 20.767-8.7875 33.931-12.713 6.1875-1.845 12.375-3.8326 13.75-4.4168 5.6508-2.401-5.2869-1.1483-16.722 1.9152-6.447 1.7272-13.759 3.0258-16.25 2.8857-6.5418-0.36779-30.223 2.5674-43.06 5.3373-6.0676 1.3092-11.411 2.3578-11.875 2.3302-2.1125-0.1254 7.6705-4.4343 20.281-8.9328 7.6071-2.7136 14.211-5.5484 14.675-6.2996 1.205-1.9497-0.0394-4.5062-2.587-5.3147-3.9294-1.2471-57.507 7.4774-66.188 10.778-2.0563 0.78179-3.3444 0.71688-3.9092-0.19697-0.81183-1.3136-17.344 3.1601-36.846 9.9707l-7.4807 2.6125 5.5572-5.6624c5.2182-5.317 5.4283-5.7913 3.4439-7.7756s-2.2864-1.9583-4.9515 0.42757c-12.71 11.384-25.81 22.223-28.14 23.295-1.54 0.711-2.81 2.001-2.81 2.871 0 0.86814-1.4062 3.2497-3.125 5.2923s-3.125 3.9969-3.125 4.3428c0 0.34594 4.536-2.4071 10.08-6.1179 8.325-5.5722 11.023-6.7469 15.493-6.7469 2.9773 0 8.9882-1.0961 13.358-2.4358 34.784-10.666 90.256-26.268 93.496-26.298 1.7375-0.01585-1.9649 2.3994-22.72 14.822-9.9245 5.9399-11.091 7.4567-7.8208 10.171 2.0253 1.6808 2.732 1.603 22.298-2.4556 6.76-1.404 12.69-2.553 13.17-2.553 0.47627 0 0.84375 1.5033 0.81665 3.3407-0.041 2.7759 0.69038 3.5402 4.3257 4.5208 5.6471 1.5232 28.024 0.28268 39.877-2.2106 8.8715-1.8662 9.2996-1.8482 10.916 0.45936 1.9399 2.7696 5.8172 3.4365 32.57 5.6025l18.513 1.4989-15 2.9318c-15.486 3.0268-18.758 4.5037-17.461 7.8826 2.2221 5.7907 45.666 8.8702 71.836 5.0921 4.9067-0.70838 5.2259-0.92745 2.5-1.7156-1.9496-0.56364 0.83224-0.95034 7.3958-1.0281 5.7864-0.0685 10.266 0.12996 9.9551 0.44109-0.31112 0.31113-3.6392 1.1162-7.3958 1.7891-3.7566 0.67286-12.645 2.6683-19.753 4.4343-7.1074 1.766-15.297 3.2109-18.199 3.2109-2.9018 0-6.3086 0.75496-7.5705 1.6777-2.1907 1.6019-2.1607 1.7713 0.66423 3.75 1.6272 1.1398 4.521 2.0723 6.4305 2.0723 2.2528 0 3.4719 0.65837 3.4719 1.875 0 1.0312 0.5625 1.875 1.25 1.875s2.3247 1.0747 3.6382 2.3882c2.3383 2.3383 5.4644 3.1521 25.737 6.7003 10.396 1.8196 10.41 2.4188 0.0931 4.2147-12.008 2.0904-8.2978 5.1968 13.339 11.168 13.131 3.6238 14.889 4.3581 20.871 8.7178l4.3028 3.1356-4.2543-0.34985c-7.0901-0.58303-6.1509 2.8475 4.0955 14.96 12.294 14.533 22.181 26.979 21.764 27.396-0.18566 0.18566-2.4664-0.31579-5.0683-1.1143-3.291-1.01-5.8395-3.0635-8.3739-6.7471-4.256-6.1858-4.3698-6.7128-1.4557-6.7408 1.4955-0.0144 0.89898-0.84621-1.8858-2.6296-5.2617-3.3696-8.4133-2.3408-7.2103 2.3537 0.4823 1.8821 0.96841 5.3846 1.0802 7.7833 0.16896 3.6237 0.90576 4.6933 4.3565 6.3243 3.3548 1.5856 12.722 11.356 12.722 13.269 0 0.26285-1.4351-0.46242-3.1892-1.6117-3.847-2.5206-6.2566-0.87576-5.1317 3.503 0.41033 1.5972 4.4496 9.5467 8.9761 17.666 4.5265 8.1188 8.5754 15.662 8.9976 16.762 0.42215 1.1001-2.3459-0.35052-6.1513-3.2236-7.459-5.6316-11.002-5.8374-11.002-0.63892 0 3.1246 4.8955 16.236 13.675 36.626 2.7913 6.4827 5.0751 12.328 5.0751 12.988 0 0.66096-2.3433-1.5493-5.2074-4.9117s-9.7086-10.56-15.21-15.995c-9.877-9.7573-10.095-10.111-17.377-28.125-6.7633-16.733-7.3068-17.674-6.5634-11.369 0.44577 3.7812 1.5689 13.65 2.4958 21.931 0.92695 8.2808 2.0773 16.718 2.5563 18.75 0.74266 3.15-0.003 2.5895-5.0585-3.8061-3.2612-4.125-8.0543-10.616-10.651-14.425-8.6106-12.629-12.781-13.194-8.8584-1.1996 1.2366 3.7812 3.5984 11.794 5.2485 17.806 1.6501 6.0122 3.422 10.934 3.9377 10.938 1.2969 0.009 1.2246-0.58727-1.4004-11.556-1.2751-5.3281-1.9738-9.6441-1.5528-9.5911 2.0026 0.25222 20.939 25.998 22.203 30.188 0.79077 2.6204 3.101 6.4655 5.1339 8.5448 3.3572 3.4338 4.0018 3.6412 7.0297 2.2616 3.9799-1.8133 5.1581-5.5088 3.308-10.375-0.74487-1.9591-1.1654-3.751-0.93442-3.982 0.91748-0.91746 16.014 25.75 19.894 35.142l4.1311 10-0.40208 33.125c-0.23538 19.39 0.15413 36.901 0.93941 42.233 1.4366 9.7535 5.9923 20.258 10.004 23.068 2.7521 1.9276 2.8939 0.86482-4.2124 31.574-1.75 7.5625-3.1869 16.141-3.1931 19.062-0.006 2.9219-0.60703 5.3125-1.3351 5.3125s-1.0058-0.51446-0.61721-1.1432c1.1702-1.8935-1.6199-2.1375-12.28-1.0739-10.409 1.0386-19.484 2.6285-23.907 4.1886-1.4378 0.50708 0.50245-2.2434 4.5731-6.4829 3.8887-4.05 10.313-12.426 14.276-18.614 3.9631-6.1875 10.906-15.441 15.43-20.563 10.351-11.722 8.0764-10.5-16.151 8.6753-6.5312 5.1693-13.281 10.352-15 11.516-1.7188 1.1647-5.9375 4.7333-9.375 7.9304-8.2125 7.6379-24.823 19.316-27.474 19.316-1.1513 0-3.7374-1.6441-5.7469-3.6536l-3.6536-3.6536 6.8756-14.159c7.0642-14.547 10.648-25.939 6.3257-20.109-1.1416 1.5398-5.9853 9.69-10.764 18.111-9.8337 17.331-10.785 22.031-5.6843 28.092 1.6521 1.9634 4.4646 4.3516 6.25 5.3071 3.6988 1.9796 4.3989 6.7956 1.2444 8.5609-2.2391 1.2531-2.2598 0.63731 1.2046 35.879 3.2888 33.455 4.2863 38.602 12.114 62.5l7.3693 22.5-1.9537 7.4627c-2.5094 9.5854-4.3521 12.145-20.951 29.1-7.5721 7.7344-13.165 14.062-12.43 14.062 3.0031 0 16.649-6.883 26.153-13.192 11.109-7.3738 24.7-20.969 25.953-25.961 1.1228-4.4734-1.0655-9.345-5.2856-11.767-3.0871-1.7717-3.8961-3.4411-5.6715-11.703-1.1389-5.3001-4.2271-14.936-6.8625-21.413-5.8997-14.5-8.4559-22.415-9.5819-29.669l-0.86603-5.5795 9.8425 9.9862c9.3359 9.4722 23.236 20.323 28.517 22.262 1.3337 0.48949-1.4788-2.5987-6.25-6.8626s-13.276-12.444-18.899-18.177c-5.6233-5.7334-10.764-10.424-11.423-10.424-1.1949 0-1.8287-2.6115-3.4612-14.262-0.80029-5.7113-0.69624-6.0613 1.4994-5.0441 3.8938 1.804 24.369 2.1391 31.734 0.51929 20.095-4.4192 29.549-15.636 30.919-36.685 0.62823-9.6503 1.7849-13.278 4.2338-13.278 0.60332 0 1.097 1.4062 1.097 3.125s0.42187 3.1256 0.9375 3.1264c0.51562 0.00079 0.9549 5.4852 0.97616 12.188 0.0596 18.788 3.2178 71.943 4.4073 74.18 0.71969 1.3538-1.355 8.38-6.4593 21.875-4.1357 10.934-10.578 28.875-14.316 39.868l-6.7961 19.987v27.119c0 31.077-0.44602 33.943-10.595 68.084-3.7201 12.514-7.67 27.141-8.7775 32.502-1.1075 5.3618-2.1237 9.765-2.2582 9.785-0.1345 0.0199-1.3696 0.65861-2.7446 1.4193-2.2203 1.2284-2.5442 2.9066-2.8953 15-0.33881 11.671 1.0381 27.468 2.9936 34.346 0.34926 1.2283-0.61626 2.5158-2.5458 3.395-1.766 0.80463-3.4705 2.9193-3.9468 4.8963-2.8846 11.975-12.123 22.196-24.131 26.701-10.03 3.7624-34.86 9.875-40.724 10.025-2.75 0.0704-6.4062 0.57832-8.125 1.1288-2.8736 0.9203-2.907 1.0108-0.41474 1.1254 4.1571 0.19111 6.6647 1.4626 6.6647 3.3793 0 0.95547-4.2799 13.411-9.511 27.679-11.901 32.461-15.255 42.664-16.234 49.381-0.76593 5.2585-0.75251 5.2819 1.3772 2.3969 5.1948-7.0374 29.131-66.047 31.358-77.305l0.78485-3.9686 9.3473-0.40645c5.141-0.22355 9.5332-0.218 9.7605 0.0125 0.22728 0.23032-0.18324 2.1298-0.91224 4.221-2.2656 6.4993 2.1369 51.071 7.2457 73.356 1.8756 8.1815 1.6852 10.884-0.479 6.7983zm-84.86-167.73c11.794-7.9582 27.93-16.031 39.621-19.821 7.6983-2.496 12.84-3.1561 28.75-3.6912 20.975-0.70548 26.813 0.26915 25.424 4.2441-0.74197 2.1227-0.66945 2.1246 1.5417 0.04 2.2109-2.0843 2.217-2.2907 0.13021-4.375-1.9263-1.924-4.8569-2.1795-24.33-2.1214-20.836 0.0622-22.766 0.27349-32.765 3.586-17.504 5.7986-41.439 19.044-47.406 26.235-2.775 3.3436-0.38264 2.2591 9.0351-4.096zm73.757-42.801c13.512-2.0821 16.228-4.3856 10.88-9.2254-2.3817-2.1554-3.1166-2.159-17.812-0.0889-15.231 2.1455-34.703 7.5406-34.703 9.6152 0 1.5608 31.008 1.3368 41.636-0.30085zm-92.05-24.095c7.4467-2.3265 20.289-5.7301 28.539-7.5637s18.635-4.4486 23.077-5.8112c8.7247-2.676 11.804-2.4394 20.959 1.6104 4.2946 1.8997 6.2884 2.1933 8.3071 1.2234 3.9387-1.8925 10.587-2.8044 11.357-1.5579 0.37019 0.59901 3.3451 0.0886 6.611-1.1343 5.6976-2.1334 6.544-2.132 20.92 0.0339 8.2401 1.2415 15.108 2.131 15.263 1.9766 0.15433-0.15434-5.708-4.0531-13.027-8.6639-15.322-9.6519-18.78-10.251-30.752-5.3284l-7.2852 2.9955-4.5898-2.7127c-3.6693-2.1687-6.4698-2.6931-13.965-2.615-8.7283 0.0909-10.798 0.70549-30 8.9095-11.344 4.8465-25.688 11.162-31.875 14.036-6.1875 2.873-10.406 4.3934-9.375 3.3786 6.7693-6.6614 63.538-35.796 69.748-35.796 1.9502 0 7.7259 1.0975 12.835 2.4388 5.8739 1.5422 9.7262 2.0017 10.478 1.25 0.65383-0.65383 1.9381-1.1888 2.8539-1.1888 2.5716 0 10.808-3.6937 10.012-4.4899-0.3889-0.3889-3.8505 0.28378-7.6924 1.4948-6.6125 2.0844-7.469 2.0888-16.047 0.0825-4.9841-1.1657-10.668-2.1122-12.63-2.1034-4.429 0.0199-47.601 21.594-62.057 31.012-9.1994 5.993-17.563 12.754-15.778 12.754 0.3155 0 6.6664-1.9035 14.113-4.2299zm133.77-28.746c-0.8114-2.1145-13.282-11.593-19.331-14.693-3.6688-1.88-4.4897-1.9077-7.7876-0.26245-4.7067 2.348-5.7342 3.9771-2.0662 3.2759 1.7113-0.32715 5.3062 0.9275 9.0247 3.1497 10.431 6.2336 19.906 11.248 20.397 10.794 0.2568-0.23729 0.15032-1.2565-0.23664-2.2649zm-74.523-50.818c3.0099-1.6109 3.1176-5.2136 0.23032-7.7098-1.2031-1.0402-5.8438-3.7992-10.312-6.1312-9.8694-5.1503-18.75-13.585-18.75-17.81 0-2.6574 1.0997-3.3479 9.375-5.887 5.1562-1.5821 9.375-3.3994 9.375-4.0385 0-0.65187-3.8236-0.94591-8.71-0.6698-19.293 1.0901-21.475 11.483-5.9066 28.126 6.5944 7.0494 18.074 15.366 21.261 15.402 0.56082 0.006 2.1077-0.57057 3.4375-1.2822zm27.935-2.7307c0.94989-2.7171 0.70356-3.9358-1.227-6.0705-5.626-6.2208-17.15-9.6345-27.358-8.1038-5.8365 0.87524-7.3644 2.6594-3.495 4.0812 1.2031 0.44207 6.125 3.4314 10.938 6.6428 4.8125 3.2115 9.4016 5.6149 10.198 5.341 0.79638-0.27393 1.8339 0.12638 2.3056 0.88957 1.6505 2.6706 7.3778 0.82743 8.639-2.7803zm-87.239-87.795c10.994-10.888 16.743-19.957 14.194-22.391-1.1113-1.061-1.8383-0.83349-2.9138 0.9118-7.016 11.386-10.524 15.697-22.696 27.89-13.447 13.471-13.671 13.783-6.3391 8.8052 4.181-2.8385 12.171-9.6857 17.755-15.216zm-13.9-35.29c4.8125-1.1081 12.969-2.3515 18.125-2.7632l9.375-0.74851-0.35276-5.4688c-0.3198-4.9578-0.1155-5.4068 2.1862-4.8048 3.9808 1.041 4.5204-1.7261 0.8571-4.3946-1.8236-1.3284-3.3156-3.5213-3.3156-4.8731 0-2.7633-3.1037-9.3764-5.8982-12.567-1.0157-1.1598-1.4889-2.6876-1.0516-3.3952 0.83373-1.349-8.61-8.8711-11.137-8.8711-0.80412 0-2.6497-1.366-4.1014-3.0355-3.4308-3.9458-10.154-5.0048-31.562-4.9714-15.975 0.0249-32.092 2.1282-43.75 5.709-3.9731 1.2204-21.342 8.39-22.257 9.187-0.20997 0.18301 0.98745 1.8101 2.6609 3.6158 1.9275 2.0798 3.7854 2.998 5.0692 2.5054 1.3662-0.52427 2.0266-0.10287 2.0266 1.2931 0 4.4203 4.1938 9.7448 13.381 16.989 10.445 8.236 21.284 13.934 31.758 16.697 9.1121 2.4031 27.317 2.3541 37.985-0.10237zm-37.506-8.4314c-11.262-2.2457-24.964-9.9498-30.779-17.306-2.6622-3.3679-4.8404-6.5102-4.8404-6.9827 0-0.47254 1.8281-2.8127 4.0625-5.2002l4.0625-4.3411 0.32484 4.375c0.93548 12.599 4.7533 19.007 14.195 23.824 6.2871 3.2074 17.139 3.2298 23.343 0.048 9.4569-4.8498 13.298-11.736 12.001-21.516l-0.80995-6.1057h5.5717c9.8801 0 22.88 11.736 27.344 24.686 0.76996 2.2336 1.9076 3.7472 2.5282 3.3637 0.62054-0.38351 1.1282-0.10163 1.1282 0.62647 0 0.72808-2.2144 1.3238-4.9208 1.3238s-9.5971 1.1211-15.312 2.4912c-11.648 2.7923-26.108 3.0648-37.897 0.71412zm-0.46063-15.078c-14.06-4.39-17.56-18.13-4.61-18.13 2.8595 0 3.051 0.26707 1.7199 2.3985-1.8086 2.896 0.41426 6.3515 4.0858 6.3515 3.486 0 5.3606-4.3518 2.9242-6.7882-1.7824-1.7824-1.2548-1.9618 5.7694-1.9618h7.7312l-0.8903 5.9375c-1.1466 7.6468-2.3963 9.8619-6.8685 12.175-2.008 1.0384-3.8194 1.8503-4.0254 1.8043-0.20602-0.046-2.8345-0.85084-5.841-1.7886zm143.59 25.06c0-0.30826-1.4652-5.1986-3.256-10.867-4.5366-14.361-9.0208-23.332-13.211-26.43l-3.5708-2.64 6.2849-2.3445c8.3307-3.1076 10.003-6.4582 10.003-20.046 0-11.114-1.5467-14.945-9.4325-23.362-1.6103-1.7188-6.1936-7.7077-10.185-13.309-3.9916-5.601-13.164-18.043-20.382-27.648-7.2188-9.6056-13.832-18.523-14.695-19.816-0.86374-1.2934 0.4115 1.7315 2.8339 6.7221 8.2128 16.92 28.146 50.496 35.96 60.57 4.2772 5.5146 8.327 10.789 8.9995 11.721 0.8225 1.1398 0.6179 3.4445-0.625 7.0401-1.7151 4.9615-2.3866 5.527-9.3478 7.8734l-7.5 2.5279-0.39508 5.5037c-0.2173 3.027-1.2017 6.6553-2.1875 8.0628-4.2358 6.0474-0.16623 13.253 7.4852 13.253 4.8092 0 9.1056 4.2263 16.972 16.695 3.7549 5.9517 6.25 8.5442 6.25 6.4942zm-36.518-42.167c4.6707-6.0771 4.953-8.3912 1.5183-12.447-2.4525-2.8959-2.5342-2.9057-4.375-0.52456-1.7703 2.2898-1.8758 2.1744-1.8758-2.0506v-4.477l-10.312-2.7435c-32.682-8.6947-36.692-10.484-59.062-26.36-5.5-3.9032-12.96-8.5889-16.579-10.413-9.2528-4.664-27.105-10.353-35.604-11.347-6.2218-0.72721-7.0817-0.57674-6.4288 1.1248 0.53335 1.3899 2.427 1.9643 6.4755 1.9643 8.7235 0 19.221 3.4694 26.014 8.5977 3.3671 2.542 10.7 10.507 16.294 17.7 21.322 27.411 30.572 34.051 58.057 41.677 20.516 5.6919 20.974 5.6795 25.878-0.7011zm-319.04-29.61c-0.84223-9.6819-5.0373-37.282-6.4232-42.26-0.63496-2.2805-0.3408-2.6183 1.7939-2.0601 1.4044 0.36725 2.7256 1.876 2.9362 3.3528 0.43824 3.0744 0.41869-57.543-0.0244-75.44-0.24639-9.9533-0.54066-11.47-1.8184-9.375-1.7522 2.8734-2.1634 62.841-0.50868 74.172 0.57064 3.9076 0.50813 6.3837-0.15089 5.9764-1.3448-0.83118-23.015-44.208-27.863-55.773-2.192-5.2291-4.4892-8.6727-6.4452-9.6617l-3.0392-1.5367 3.0091-18.463c1.655-10.155 3.3406-19.307 3.7457-20.338 0.88308-2.248 2.6764 6.0144 2.7808 12.812 0.0396 2.5781 0.62919 4.6875 1.3101 4.6875 0.78284 0 0.9882-4.9412 0.55848-13.438-0.83064-16.423-1.5598-21.562-3.0592-21.562-2.1246 0-3.6323 4.5865-6.2118 18.896-5.48 30.37-7.62 55.83-5.03 59.84 0.87474 1.3536 1.234 0.13686 1.2918-4.375l0.08-6.25 5.3375 11.259c2.9356 6.1924 7.9707 15.256 11.189 20.141 3.5643 5.4103 5.852 10.293 5.8527 12.491 0.00065 1.9849 3.2968 14.015 7.3247 26.734 4.028 12.719 8.361 27.165 9.6291 32.104 1.268 4.9382 2.8127 8.6651 3.4326 8.282 0.62942-0.389 0.76093-4.9052 0.29786-10.229zm-13.592-38.328c-3.2801-10.106-5.7184-18.62-5.4184-18.92 0.29995-0.29995 2.577 1.934 5.0602 4.9644 3.7329 4.5555 4.5148 6.5051 4.5148 11.257 0 3.161 0.60921 8.5879 1.3538 12.06 2.7156 12.663 0.31284 8.5807-5.5104-9.361zm397.64 2.234c10.7-19.55 13-24.06 12.23-24.06-0.32776 0-2.6569 3.6853-5.1758 8.1896-2.519 4.5043-4.8038 7.9657-5.0774 7.6921-0.27366-0.27366 0.98239-4.3809 2.7912-9.1271 5.0398-13.224 15.499-44.309 15.455-45.934-0.058-2.1591-8.7333 21.081-15.559 41.68-3.3032 9.9688-7.895 21.908-10.204 26.531-3.8774 7.7638-4.9582 10.969-3.6992 10.969 0.27453 0 4.4283-7.1719 9.2306-15.938zm-16.148-2.2929c6.7511-7.6696 8.0577-12.227 7.4459-25.972-0.42419-9.5301-1.0812-12.472-3.9651-17.753-5.2384-9.5927-16.813-16.07-20.519-11.483-0.69435 0.85937-1.645 4.0938-2.1126 7.1875-3.4754 22.996-1.1738 40.43 6.4514 48.87 2.4246 2.6838 5.1389 4.8796 6.0317 4.8796 0.89281 0 3.8931-2.5787 6.6674-5.7304zm-6.9729-2.7071c-3.0788-5.5472-6.1712-19.622-7.278-33.125-0.66567-8.1212-0.49162-9.6875 1.0765-9.6875 5.1287 0 13.054 16.142 14.265 29.054 0.65264 6.9591-2.178 18.446-4.5457 18.446-0.50404 0-2.0872-2.1094-3.5181-4.6875zm-464.07-27.81c0.12288-7.2188 0.6268-16.5 1.1197-20.625l0.89615-7.5 0.9993 5.2898c1.1932 6.3161 3.3248 5.8283 3.0181-0.69069-0.119-2.5295 0.23357-13.957 0.78348-25.395 0.96249-20.019 0.90685-20.846-1.4891-22.128-3.9174-2.0966-7.3649 1.2102-9.189 8.8141-1.1722 4.8862-1.3593 14.516-0.73506 37.832 0.90331 33.741 1.7901 44.135 3.4118 39.986 0.52864-1.3523 1.0618-8.365 1.1847-15.584zm419.13 10.258c-0.39668-1.5168-1.2005-2.7579-1.7862-2.7579-0.58574 0-0.89358-0.70313-0.68408-1.5625 0.2095-0.85938 0.13714-1.1172-0.16079-0.57282-0.74177 1.3552-4.0486-1.535-4.0486-3.5386 0-0.88977 0.64053-1.8313 1.4234-2.0922 0.98023-0.32673 0.77294-1.624-0.66578-4.1667l-2.0892-3.6922 0.76512 4.0625c1.2383 6.5751-0.94942 4.7152-6.6179-5.6262-2.9202-5.3274-7.1761-13.061-9.4576-17.186s-8.0106-14.786-12.731-23.69c-4.7208-8.9046-8.7816-15.595-9.0242-14.867-0.60316 1.8095 30.746 58.336 39.981 72.091 5.023 7.4814 6.3578 8.4241 5.096 3.5991zm-364.37-21.82c-0.64832-2.9259-2.823-10.673-4.8327-17.216-4.987-16.237-13.455-51.503-14.485-60.326-0.77395-6.6282-2.1896-9.6203-3.7931-8.0168-0.94838 0.94839-4.019 16.398-3.3906 17.06 0.29808 0.31373 0.86651-0.67065 1.2632-2.1875 1.014-3.8777 2.9267-3.4362 2.9445 0.67959 0.0374 8.6595 12.787 56.79 18.37 69.35 3.6361 8.1794 5.6659 8.5193 3.9238 0.65717zm457.65-5.31c0-0.6875-0.54526-0.40625-1.2117 0.625-0.66645 1.0312-1.2117 2.4375-1.2117 3.125s0.54526 0.40625 1.2117-0.625c0.66645-1.0312 1.2117-2.4375 1.2117-3.125zm-404.77-91.88c-0.23802-12.031-0.8849-22.353-1.4375-22.938-0.55258-0.58438-2.186 0.11875-3.6297 1.5625-2.2026 2.2026-2.6341 4.1838-2.6815 12.312l-0.0565 9.6875-2.9899-5.625c-1.6445-3.0938-4.8358-10.318-7.0918-16.055-3.7583-9.5561-4.1929-10.157-5.188-7.1717-1.3547 4.0642 1.0954 11.588 11.137 34.199 6.1862 13.93 7.7728 16.542 9.8709 16.25 2.4105-0.33533 2.4845-1.1306 2.0672-22.223zm353.56 4.56c0-1.536-1.4379-7.7525-3.1952-13.814-1.7574-6.0618-2.9359-11.281-2.619-11.598 0.31697-0.31697 0.95578 1.1514 1.4196 3.2631 2.6935 12.263 4.3682-6.7255 1.9146-21.709-0.66856-4.0827-1.0596-7.579-0.86887-7.7697 0.19069-0.19068 2.8174 3.0461 5.8371 7.1928 4.7234 6.4862 27.419 27.884 28.465 26.838 0.20096-0.20097-2.7692-7.0365-6.6004-15.19-6.8089-14.491-15.611-27.678-24.753-37.085-5.0688-5.2155-5.6376-5.4073-8.9188-3.008-2.0632 1.5086-2.3009 3.749-2.3367 22.021-0.0415 21.194-0.0691 21.263-4.9458 12.474-1.2246-2.2071-2.4808-3.7587-2.7915-3.448-0.5977 0.59772 4.8962 15.312 9.2498 24.774 1.4235 3.0938 2.6006 6.4423 2.6157 7.4412 0.043 2.8453-9.6414-7.2907-13.672-14.309-1.98-3.44-7.36-10.47-11.97-15.63-10.18-11.39-18.08-21.63-18.08-23.45 0-0.7396-0.64316-1.5591-1.4292-1.8212-1.0559-0.35196-1.0299-1.2227 0.0996-3.3332 3.5602-6.6523-7.4011-10.621-12.263-4.4398-2.3296 2.9616-5.6787 15.056-7.0724 25.541-1.6422 12.354-2.1744 15-3.0173 15-0.50588 0-1.6218-3.2344-2.4798-7.1875-1.8012-8.299-10.343-30.401-13.885-35.926-2.0804-3.2456-2.4139-3.4042-2.432-1.1571-0.0294 3.6289-1.2493 4.4712-3.3842 2.3363-2.4513-2.4513-5.8229-2.2868-8.257 0.40293-2.1976 2.4283-11.59 26.301-15.233 38.719-2.247 7.6585-3.5397 9.3702-4.72 6.25-12.077-31.928-17.894-48.089-21.595-60-2.51-8.0781-4.8206-14.688-5.1347-14.688-0.31411 0-0.21467 3.5156 0.22098 7.8125 2.11 20.812 7.0763 39.169 16.232 60 2.9461 6.7031 4.9516 12.188 4.4566 12.188-1.7622 0-23.416-18.012-34.581-28.765-6.2422-6.012-12.511-11.3-13.932-11.75-1.4243-0.45206-4.1823-3.8819-6.1506-7.6489-1.9626-3.7561-4.0504-6.8307-4.6396-6.8323-0.58918-0.001-0.81229 0.70015-0.49581 1.5595 7.9844 21.681 13.363 35.122 17.216 43.021 2.6253 5.3823 4.6376 9.9217 4.4718 10.088-0.74432 0.74433-35.96-15.294-43.321-19.73-9.3068-5.6082-11.755-6.0288-13.72-2.3575-1.7519 3.2735-0.93013 4.5099 13.238 19.916 6.0065 6.5312 13.168 14.843 15.914 18.471 2.7462 3.6276 5.206 6.3826 5.4664 6.1223 0.59333-0.59332-7.264-16.252-11.049-22.019-2.6535-4.0432-2.6752-4.2409-0.36144-3.2943 11.321 4.6317 17.468 6.1554 26.836 6.6521 5.8438 0.30982 11.199 1.2114 11.9 2.0034 1.599 1.8062 6.4301 4.5651 7.9938 4.5651 2.0605 0 5.1062-3.8378 5.1062-6.4342 0-1.3781-2.432-5.6973-5.4043-9.5982-8.1143-10.649-8.0649-10.992 0.57612-3.9882 4.3743 3.5453 12.734 8.7558 18.578 11.579 5.8438 2.8232 11.864 6.4399 13.378 8.0373s3.3422 2.9043 4.0625 2.9043c1.6599 0 1.7232-4.5969 0.0774-5.6141-0.71926-0.44452 0.77323-4.7689 3.5846-10.386 2.6493-5.2936 6.9544-15.412 9.5669-22.484 4.5612-12.349 6.7619-14.487 6.8117-6.6177 0.0421 6.653 2.9128 19.062 5.0086 21.65 1.9822 2.4479 2.4625 2.5486 4.4175 0.92607 1.9448-1.614 2.1069-3.4359 1.4299-16.069-0.41998-7.8365-0.52047-14.005-0.22333-13.708 0.29715 0.29714 3.4368 9.7963 6.977 21.109 5.7139 18.259 8.6595 25.634 8.6595 21.682 0-0.69422 2.5312-4.2276 5.625-7.8521 3.0938-3.6244 5.625-7.6357 5.625-8.914s0.57138-2.6773 1.2697-3.1089c0.69836-0.4316 2.548-3.3 4.1104-6.3741l2.8406-5.5894 6.768 8.4879c8.1932 10.275 45.258 47.644 46.574 46.956 0.51563-0.26967 0.9375-1.7471 0.9375-3.2831zm-418.96-7.37c2.8003-3.6094 10.462-11.895 17.027-18.413 6.5646-6.5177 11.936-12.316 11.936-12.886 0-1.5258-13.562 9.2718-19.539 15.556-5.4256 5.7046-13.376 15.909-15.529 19.932-2.5387 4.7435 1.1256 2.2288 6.1056-4.1901zm-3.5061-11.762c1.287-4.7026 4.0564-14.106 6.1543-20.897 4.2316-13.698 4.7628-20.158 1.916-23.304-1.7323-1.9142-1.0214-2.9356 8.125-11.674 5.5129-5.267 10.023-9.8517 10.023-10.188 0-4.0726-16.298 11.324-30.076 28.412-11.689 14.498-15.337 20.597-6.5635 10.976 3.4478-3.7812 7.8078-8.5625 9.6888-10.625 2.2763-2.496 3.1709-2.9754 2.675-1.4338-3.5416 11.011-7.7917 50.538-5.1728 48.109 0.48919-0.45367 1.9424-4.6724 3.2294-9.375zm132.57-18.425c-3.4074-4.1057-21.726-14.61-34.032-19.515-7.3167-2.9162-14.799-6.4966-16.626-7.9563l-3.3233-2.6541 3.3231-8.75c4.5208-11.904 6.5803-18.992 7.3799-25.399 0.6252-5.0101 0.47625-5.3706-2.0659-5-2.2823 0.33269-3.1309 1.9644-5.083 9.7744-1.2888 5.1562-2.7472 9.7883-3.2408 10.294-0.49361 0.50518-0.8779-2.3998-0.85397-6.4555 0.0414-7.022-0.92195-10.164-2.6014-8.4847-0.42345 0.42345-1.5564 6.8063-2.5175 14.184-0.96119 7.3779-2.0232 13.69-2.36 14.027-0.33682 0.33681-1.9748-0.66751-3.6399-2.2318-3.6952-3.4715-6.4131-2.4777-4.2557 1.5561 0.805 1.5052 3.3594 5.2767 5.6765 8.3812 5.2216 6.996 20.973 15.089 46.391 23.835 19.44 6.6888 19.807 6.7794 17.829 4.3963zm-108.67-20.12c16.32-14.69 29.82-31.14 29.82-36.31 0-2.6108-3.2208-2.9638-6.6312-0.72664-5.2029 3.4131-19.282 19.871-27.254 31.859-10.856 16.325-9.7992 17.671 4.068 5.1811zm84.225-13.068c-2.63-5.0858-2.5243-5.1975 2.7804-2.9373 5.2322 2.2293 27.334 3.7122 34.709 2.3287 2.5351-0.4756 4.3533-1.1208 4.0403-1.4337-0.31295-0.31295-8.1115-1.6606-17.33-2.9948-9.2186-1.3342-19.216-3.2919-22.216-4.3504-6.3071-2.2253-6.4583-2.2393-8.7165-0.80852-1.335 0.84585-0.67247 2.4555 3.0793 7.4809 5.4503 7.3004 6.3836 7.994 3.6538 2.7152zm369.34-3.13c0-4.9054-4.5497-11.587-24.444-35.896-15.944-19.482-23.72-28.063-27.119-29.924-4.0418-2.2132-2.2424 0.7721 7.2639 12.051 5.1983 6.1677 11.475 14.308 13.948 18.089 2.4734 3.7812 8.6264 13.127 13.674 20.769 5.0471 7.6416 9.1766 14.271 9.1766 14.731 0 0.46068 0.91489 2.2339 2.0331 3.9405 2.6129 3.9878 5.4669 2.024 5.4669-3.7617zm-312.5-2.09c0-2.03-8.4534-22.968-12.665-31.369-1.9718-3.9335-3.5852-7.7295-3.5852-8.4354 0-0.70596 2.6719 0.59505 5.9375 2.8912 3.2656 2.2961 9.4473 6.2698 13.737 8.8305s8.6439 5.8614 9.6759 7.3348c3.7084 5.2945 4.0647 0.33002 1.0542-14.688-4.48-22.34-13.31-38.22-27.91-50.19-3.0771-2.5242-2.2961-1.2674 2.6328 4.2368 9.2693 10.351 14.112 20.289 18.634 38.243 4.0796 16.196 4.2159 17.054 2.7084 17.054-1.225 0-24.066-20.095-34.496-30.349-6.016-5.9144-7.6888-6.9681-8.9677-5.6484-2.198 2.2681 27.734 63.466 31.051 63.485 1.2031 0.008 2.1875-0.62081 2.1875-1.395zm227.5-14.856c0-0.61374-7.5686-7.7307-16.819-15.815-9.2505-8.0847-16.618-14.901-16.371-15.148 0.24643-0.24643 2.7718 0.73742 5.6118 2.1863 6.6058 3.37 25.267 10.268 25.945 9.5901 0.70514-0.70513-37.195-20.459-41.165-21.455-4.4804-1.1245-5.5374 1.4787-2.0903 5.1481 1.5802 1.682 10.625 9.656 20.099 17.72s16.464 14.831 15.533 15.037c-2.8812 0.63879-42.404-12.971-53.715-18.497-5.8952-2.8801-12.834-7.1744-15.42-9.5428-2.9808-2.7303-4.8902-3.7394-5.2175-2.7575-1.3818 4.1454 18.792 15.869 40.484 23.526 14.241 5.0267 40.952 12.425 42.188 11.685 0.51562-0.30875 0.9375-1.0635 0.9375-1.6773zm79.19-23.56c-0.31736-6.7606-11.09-22.231-25.366-36.427-7.2594-7.2188-15.168-14.216-17.574-15.55-3.0754-1.7045-0.80607 1.0804 7.6394 9.375 12.098 11.881 22.387 25.269 28.264 36.774l3.1796 6.2245-6.104-4.9745-6.104-4.9745 4.8716 5.9784c7.6526 9.3912 11.525 10.627 11.194 3.5736zm-354.77-34.23c1.1687-3.6094 4.347-10.641 7.063-15.625 2.716-4.9844 4.6444-9.0625 4.2855-9.0625-1.9949 0-14.522 25.484-14.522 29.542 0 3.2861 1.0662 1.6554 3.174-4.8542zm-20.036-4.7079c0.43182-0.69871 1.2451-0.98615 1.8072-0.63872 0.56212 0.34741 7.0494-5.8309 14.416-13.73 7.3668-7.8987 12.696-14.361 11.843-14.361-0.85302 0-7.8601 3.0563-15.571 6.7917-17.886 8.6643-22.928 14.084-19.339 20.79 1.3757 2.5705 5.5333 3.2676 6.8436 1.1474zm158.68-4.5387c16.809-3.8045 19.995-5.3505 11.136-5.4029-3.5334-0.0209-10.846-0.84341-16.25-1.8278-5.4041-0.98439-16.19-2.1732-23.969-2.6419-13.602-0.81947-14.26-0.74256-17.188 2.0077-3.7381 3.5118-3.8653 6.6028-0.41381 10.054 2.4899 2.4899 3.4408 2.5844 17.812 1.7697 8.463-0.47973 21.241-2.2319 28.871-3.9591zm37.413-14.997c-8.1687-5.256-18.081-11.506-22.028-13.889-6.2366-3.7657-7.0782-4.724-6.427-7.3187 0.59389-2.3662 0.25447-2.9856-1.6362-2.9856-1.312 0-2.9797 0.59419-3.7059 1.3204-0.92721 0.92722-2.4512 0.36888-5.118-1.875-2.0886-1.7575-4.7007-3.1954-5.8046-3.1954-3.0046 0-2.4202 3.4073 1.111 6.4777l3.1181 2.7112-6.436 5.7644c-9.0136 8.0731-7.2639 9.8354 2.9306 2.9517l8.3558-5.6421 20.115 11.421c21.517 12.217 24.366 13.614 28.026 13.737 1.2937 0.0436-4.3313-4.2211-12.5-9.4771zm-147.97 5.81c0-0.6875-0.24805-1.25-0.55123-1.25-0.30317 0-0.89887 0.5625-1.3238 1.25-0.4249 0.6875-0.17685 1.25 0.55123 1.25 0.72807 0 1.3238-0.5625 1.3238-1.25zm30.301-11.118c12.718-4.8277 35.229-12.066 48.449-15.578 3.7812-1.0047 5.75-1.8646 4.375-1.911-4.7539-0.1604-32.541 5.9244-43.438 9.512-6.0156 1.9806-10.92 3.2903-10.898 2.9106 0.0217-0.37973 5.2248-4.5132 11.562-9.1854 6.3377-4.6722 13.492-10.217 15.898-12.321 4.0725-3.5612 4.1132-3.6653 0.58824-1.5051-9.1556 5.611-41.704 27.968-42.432 29.146-0.93421 1.5116 0.21367 3.8 1.9061 3.8 0.64044 0 6.9354-2.1906 13.989-4.8679zm260.05 843.31c0.66523-20.387 3.3315-42.029 6.5359-53.052 1.7565-6.042 1.7678-7.1859 0.104-10.521-1.3863-2.7789-1.4811-3.8498-0.36826-4.1605 0.82418-0.23015 4.0298-1.1037 7.1235-1.9413 24.009-6.5 33.828-19.671 36.524-48.995 1.157-12.584 1.0512-16.372-0.70678-25.32-1.1371-5.787-2.0674-11.739-2.0674-13.227 0-1.6538-0.97157-2.9591-2.5-3.3588-1.375-0.35958-2.5-1.0451-2.5-1.5235 0-2.3222 7.8344-23.539 13.434-36.38 10.1-23.164 13.128-33.793 13.52-47.458 0.18732-6.5312 0.94925-16.641 1.6932-22.467 0.7439-5.8257 1.3526-16.247 1.3526-23.158 0-21.185 1.7886-30.543 10.155-53.125 15.244-41.147 14.225-36.838 14.181-60-0.0217-11.344-0.80776-31.179-1.7466-44.079-1.5703-21.575-1.9402-23.705-4.6181-26.595l-2.9111-3.1411 4.265-11.53c9.1485-24.732 14.341-39.289 16.153-45.28 1.8338-6.0655 1.7996-6.3976-1.158-11.25-1.6762-2.75-4.7357-7.25-6.799-10-5.026-6.6989-8.2489-21.579-10.694-49.375-2.1722-24.69-4.1909-34.257-8.9584-42.455-1.8135-3.1184-4.8377-8.7908-6.7204-12.605-1.8828-3.8144-5.4423-9.352-7.9101-12.306-2.4678-2.9537-4.4869-5.985-4.4869-6.736 0-2.423 7.4067 5.6108 19.341 20.979 12.238 15.759 16.43 20.269 17.678 19.021 0.93637-0.93637-13.394-36.837-24.029-60.197-4.363-9.5835-7.6883-17.669-7.3896-17.968 0.29867-0.29869 3.2388 1.3905 6.5337 3.7536 4.0542 2.9078 8.0126 7.5742 12.246 14.436 3.4403 5.5765 7.4729 11.54 8.9614 13.252 3.5769 4.1138 5.78 8.3262 4.3546 8.3262-1.4275 0-9.6612-10.714-15.85-20.625-8.7374-13.992-14.351-18.016-8.237-5.9044 2.0047 3.9714 7.3658 16.206 11.913 27.188 4.5476 10.982 9.4669 22.779 10.932 26.217 6.3941 15.006 2.0591 18.678-8.6282 7.3084-5.5046-5.8558-6.4669-6.5108-4.8414-3.2954 3.1954 6.3209 5.5339 18.38 6.9783 35.987 2.7674 33.733 5.658 46.424 12.712 55.812 9.246 12.304 9.165 11.873 4.9551 26.398-2.0389 7.0346-5.4754 17.009-7.6367 22.165-2.1614 5.1562-5.3621 13.504-7.1127 18.551-3.1784 9.1629-3.1795 9.1808-0.74328 12.5 2.6451 3.6038 4.566 24.004 6.1982 65.824 0.91464 23.435 0.1589 27.511-10.198 55-13.612 36.129-13.126 33.958-14.422 64.522-0.64141 15.131-1.5114 28.07-1.9333 28.752-0.42188 0.68262-0.7164 5.9268-0.65448 11.654 0.1496 13.836-3.7819 28.896-13.503 51.722-7.5033 17.619-12.625 31.677-12.625 34.653 0 0.83352 0.77161 2.1559 1.7147 2.9386 0.94309 0.78269 2.0481 3.8047 2.4555 6.7156 0.40746 2.9109 1.3596 8.105 2.1159 11.542 2.5468 11.576-0.28513 38.877-5.2396 50.512-4.6412 10.899-17.16 20.732-32.081 25.197-5.164 1.5454-5.3756 1.7973-4.6698 5.5595 0.42215 2.2503-0.0746 6.2476-1.1579 9.318-1.7367 4.9223-3.7979 18.07-6.9628 44.413-0.66077 5.5-0.84166 13.797-0.40195 18.438 0.59666 6.2971 0.40751 8.4375-0.74561 8.4375-1.1864 0-1.4007-4.425-0.92306-19.062zm-204.9-19.375c-3.9184-6.7031-16.35-27.656-27.625-46.562-30.703-51.481-41.427-74.651-35.153-75.955 1.5362-0.31931 4.7102 4.7068 12.6 19.952 5.8003 11.208 20.007 36.128 31.57 55.378 22.397 37.285 31.391 54.397 30.21 57.474-1.6098 4.1952-4.7758 1.3877-11.6-10.287zm3.8314-3.0193c-2.5295-5.0425-14.178-25.18-25.885-44.749-11.707-19.57-25.733-44.038-31.17-54.375-5.4363-10.337-9.545-17.388-9.1305-15.669 1.728 7.1656 19.304 40.251 37.518 70.625 10.719 17.875 22.417 37.703 25.996 44.061 7.5691 13.447 9.4 13.521 2.6712 0.10688zm-182.4-296.83c-15.04-2.9774-15.309-3.1059-17.701-8.4333-1.3524-3.0128-9.7647-12.869-20.424-23.931-32.223-33.438-37.968-41.047-44.492-58.935l-3.4429-9.4399 1.5028-23.926c2.6617-42.377 8.6663-59.138 24.029-67.072 3.7066-1.9143 5.4183-2.0981 10-1.0742 3.0403 0.67951 6.8094 2.0711 8.3757 3.0925s3.3359 1.5554 3.9324 1.1867c1.0171-0.62863 4.5441 0.84598 8.8448 3.698 1.0312 0.68387 2.9055 1.2434 4.165 1.2434 1.6351 0 4.2703 3.7539 9.2137 13.125 8.1466 15.443 14.493 24.239 19.912 27.596 5.915 3.665 7.0775 7.879 6.4327 23.32-0.62534 14.976 0.78073 51.16 2.6602 68.459 0.67225 6.1875 1.5751 19.773 2.0064 30.19l0.78417 18.94-6.3985 1.3722c-3.5192 0.75473-6.5115 1.307-6.6495 1.2272-0.13803-0.0797-1.376-0.36772-2.751-0.63994zm6.8559-42.258c0.01-2.0174-0.9319-7.0799-2.0943-11.25-1.7481-6.2715-3.3891-8.8622-9.4937-14.988l-7.3803-7.4062 10.744-10.11c5.909-5.5607 10.744-11.047 10.744-12.192 0-2.8065-3.3771-6.0101-6.3355-6.0101-2.8182 0-20.545 16.426-23.138 21.44-3.906 7.5534-1.646 12.025 9.377 18.551 6.6591 3.9428 12.254 12.309 13.257 19.823 1.1481 8.5983 1.6946 9.931 3.1372 7.6499 0.63999-1.012 1.1722-3.4906 1.1828-5.508zm-8.9707-6.0088c0.27662-1.4369-1.2046-3.1357-4.358-4.9979-2.6274-1.5516-5.2129-2.6768-5.7456-2.5004-1.6588 0.54934-23.113-5.8491-29.989-8.9439-16.309-7.3401-23.437-16.466-24.384-31.217-0.7089-11.046 1.434-16.206 12.234-29.456 4.1156-5.0495 7.483-9.3982 7.483-9.6637 0-0.26549-1.7579 0.42635-3.9065 1.5374-5.9473 3.0755-14.313 12.335-18.056 19.985-2.999 6.1296-3.2956 7.907-2.7869 16.695 1.3255 22.897 14.109 35.216 47.906 46.167 16.03 5.1939 20.959 5.7403 21.603 2.3946zm-19.939-18.136c-18.045-18.593-21.158-31.043-12.042-48.147 3.9631-7.4355 10.912-14.665 14.095-14.665 3.1346 0 4.695-4.616 2.8604-8.4614-1.3139-2.7541-2.596-3.4851-6.6358-3.7835-4.2183-0.31163-5.6572 0.26563-9.1333 3.6642-12.67 12.387-17.746 36.035-10.893 50.752 3.6196 7.7746 12.637 17.781 21.286 23.62 3.4283 2.3145 6.5045 4.2083 6.8359 4.2083s-2.5364-3.2344-6.3728-7.1875zm22.227-53.438c0.39574-1.0312 1.5031-1.875 2.4608-1.875 2.451 0 2.2652-8.5996-0.3304-15.287-4.9959-12.872-21.921-31.533-34.598-38.147-5.4483-2.8425-8.0507-3.3735-16.682-3.4043-9.6166-0.0343-10.454 0.1811-14.034 3.6072-3.7023 3.544-7.1298 10.955-5.9635 12.894 0.31819 0.52907-0.1926 4.6182-1.1351 9.0869-1.9131 9.0709-2.3136 26.059-0.51569 21.875 0.59086-1.375 1.1138-4.3518 1.1621-6.6152 0.1442-6.754 3.8692-22.921 6.4442-27.968 3.0618-6.0016 6.3845-7.7724 12.691-6.7639 14.391 2.3012 27.206 14.969 36.138 35.722 1.9233 4.4688 3.5121 9.3906 3.5307 10.938 0.024 1.9951 0.78183 2.8125 2.6076 2.8125 1.4156 0 2.2261 0.5625 1.8012 1.25s-0.4249 1.8125 0 2.5c1.1839 1.9156 5.6134 1.4846 6.423-0.625zm419.83 1.1867c-10.594-2.0075-20.2-2.2614-21.25-0.56166-0.4249 0.6875-1.5831 1.25-2.5738 1.25-2.9506 0-2.0364-5.1748 2.0699-11.715 2.8265-4.502 4.1893-5.7244 5.2262-4.6875 2.0179 2.0179 7.8276 1.7267 9.6626-0.48428 0.96177-1.1589 1.3122-3.7793 0.90823-6.7912-0.48557-3.6203-0.17421-5.0898 1.1892-5.613 3.4317-1.3168 3.7244-0.72488 3.2039 6.4787-0.70286 9.7268-3.9556 12.812-13.506 12.812-5.1432 0-6.8053 0.44721-6.8053 1.831 0 2.9944 4.3109 4.4193 13.355 4.4143 6.2297-0.004 9.5902-0.65738 12.502-2.4331 5.8556-3.5704 6.9523-6.5637 6.4508-17.606l-0.44232-9.7398 10.004-2.6248c8.607-2.2582 19.379-3.4728 19.379-2.185 0 1.5752-6.4343 18.821-8.7185 23.368-4.0409 8.044-7.0631 10.871-14.659 13.713-3.6938 1.382-6.8355 2.4497-6.9816 2.3726-0.14608-0.0771-4.2031-0.88626-9.0156-1.7982zm-315.33-196.46c1.8906-0.28642 4.9844-0.28642 6.875 0 1.8906 0.2864 0.34375 0.52073-3.4375 0.52073s-5.3281-0.23433-3.4375-0.52073zm-231.42-4.1c1.0925-1.7188 5.113-8.1875 8.9345-14.375 3.8214-6.1875 10.432-15.75 14.689-21.25 9.2237-11.915 12.884-18.666 11.864-21.881-0.5571-1.7553 0.2073-2.8591 2.969-4.2872l3.7193-1.9233-3.1502 7.7527c-3.1275 7.6968-5.7483 19.855-7.3117 33.919-0.59871 5.3859-1.184 6.9605-2.2071 5.9375-0.76575-0.76574-3.1079-1.3872-5.2048-1.3809-3.0248 0.009-6.1342 2.1396-15.05 10.312-6.1808 5.6656-10.344 8.8949-9.2515 7.1761zm32.463-3.2292c0.06-1.4562 0.35617-1.7524 0.7552-0.75522 0.36109 0.90234 0.31669 1.9805-0.0986 2.3958-0.41537 0.41536-0.7108-0.32292-0.65652-1.6406zm575.7-45.083c-1.9673-4.0213-4.9911-11.249-6.7195-16.062-3.693-10.283-9.0694-21.213-17.135-34.832-3.2021-5.4075-5.5504-10.103-5.2185-10.435 0.33195-0.33195 6.1698 5.0767 12.973 12.019 11.274 11.505 16.551 15.063 16.551 11.157 0-0.80604-2.7042-4.6029-6.0093-8.4375-17.456-20.252-25.547-30.207-24.998-30.757 0.33681-0.33681 4.7793 0.82745 9.8722 2.5872 12.265 4.238 14.885 4.8428 14.885 3.436 0-0.6478-1.485-2.5415-3.3-4.2082-4.9804-4.5734-35.579-41.443-34.932-42.09 0.9725-0.97251 9.9117 2.4253 14.459 5.496 5.1191 3.4566 7.866 3.7718 7.301 0.83763-0.22259-1.1558-5.6666-5.3398-12.098-9.2979-6.4312-3.958-12.012-7.5148-12.401-7.9039-0.38909-0.38908 4.17-0.42075 10.131-0.0704 6.0483 0.3555 10.839 0.14072 10.839-0.48595 0-1.8361-3.4892-2.6381-11.665-2.6811-5.0752-0.0267-12.837-1.5548-22.71-4.4711-8.25-2.4368-18.001-5.014-21.67-5.7272-4.9783-0.96778-6.3097-1.6566-5.2499-2.7164 0.95339-0.95331 8.3882-1.3994 22.629-1.3578 20.179 0.059 23.462-0.55055 13.665-2.5373-2.4062-0.48799-10-2.7568-16.875-5.0418s-15.453-4.5343-19.062-4.9985c-3.6094-0.4642-6.5625-1.3258-6.5625-1.9146 0-0.58885 3.3061-1.4447 7.347-1.9018 9.2209-1.0432 11.271-2.176 9.4011-5.1948-0.84913-1.3709-3.4846-2.4711-6.875-2.8702l-5.498-0.64706 6.25-1.617c3.4375-0.88932 10.044-3.4106 14.68-5.6029 6.657-3.1477 8.1846-4.37 7.2634-5.8119-1.6049-2.512-35.582-3.3369-57.526-1.3967-16.071 1.4209-25.693 0.91103-24.333-1.2895 0.3783-0.61211 3.889-1.1216 7.8016-1.1321 14.857-0.04 13.216-4.3748-3.5479-9.3698-5.8236-1.7352-16.635-3.8298-24.026-4.6546-7.3906-0.8248-13.438-1.8773-13.438-2.3389s2.1094-1.2338 4.6875-1.716c2.5781-0.48223 7.959-2.0077 11.958-3.3899 9.3285-3.2247 10.565-2.0893 1.9885 1.8253l-6.6053 3.0147 7.1226 0.73511c9.1754 0.94699 29.559 6.8762 32.489 9.4505 1.3026 1.1444 2.0011 2.9963 1.6446 4.3597-0.59751 2.2849 0.24266 2.3432 23.361 1.6216 13.189-0.41171 27.637-0.33116 32.105 0.17902 7.9353 0.90592 8.1338 1.0179 8.5021 4.7938 0.35983 3.6896-0.0339 4.05-8.6136 7.8864-6.7342 3.0111-8.6328 4.378-7.5646 5.4462 2.6876 2.6876 1.6516 7.1452-2.0114 8.6538-3.0323 1.2489-3.1428 1.4756-0.9375 1.923 1.375 0.27893 8.6875 2.4843 16.25 4.9008s15.156 4.7852 16.875 5.2637c1.9854 0.55278 3.125 1.7707 3.125 3.34 0 2.3637-0.75216 2.4505-17.5 2.0186-9.625-0.24823-17.219-0.15675-16.875 0.20326 1.9373 2.0289 32.668 9.623 38.942 9.623 9.6325 0 13.849 1.6806 13.333 5.3145-0.34031 2.396-1.174 2.8172-5.6531 2.8561-2.8897 0.0251-5.5949 0.38659-6.0117 0.80334-0.41675 0.41675 2.3035 2.5092 6.045 4.6498 8.1982 4.6905 9.9151 6.5888 9.3791 10.37-0.51307 3.6194-5.0008 4.4593-9.2307 1.7277-1.679-1.0843-4.5996-2.9558-6.4902-4.1589-4.0792-2.5958 21.807 29.814 28.028 35.091 4.5076 3.8238 5.4173 7.9423 2.0404 9.2382-1.1656 0.44726-5.481-0.41118-9.5899-1.9076-4.1089-1.4965-7.7312-2.4604-8.0496-2.142-0.31838 0.31839 3.5752 5.4019 8.6524 11.297 14.763 17.14 17.492 20.918 17.099 23.665-0.24593 1.7192-1.4491 2.6964-3.632 2.9497-2.4653 0.28609-4.9523-1.164-10.162-5.9251l-6.8975-6.3039 4.1392 7.8001c2.2766 4.2901 5.886 12.3 8.0209 17.8s5.326 13.142 7.0913 16.981c4.4902 9.7669 3.3464 13.487-1.2549 4.0812z"/>
</svg>
