<?xml version="1.0" encoding="UTF-8" standalone="no"?>
<!-- Created with Inkscape (http://www.inkscape.org/) -->

<svg
   xmlns:dc="http://purl.org/dc/elements/1.1/"
   xmlns:cc="http://creativecommons.org/ns#"
   xmlns:rdf="http://www.w3.org/1999/02/22-rdf-syntax-ns#"
   xmlns:svg="http://www.w3.org/2000/svg"
   xmlns="http://www.w3.org/2000/svg"
   xmlns:sodipodi="http://sodipodi.sourceforge.net/DTD/sodipodi-0.dtd"
   xmlns:inkscape="http://www.inkscape.org/namespaces/inkscape"
   id="svg4156"
   height="800"
   viewBox="0 0 600 800"
   width="600"
   version="1.1"
   inkscape:version="0.91 r13725"
   sodipodi:docname="black-male.svg">
  <defs
     id="defs7" />
  <sodipodi:namedview
     pagecolor="#ffffff"
     bordercolor="#666666"
     borderopacity="1"
     objecttolerance="10"
     gridtolerance="10"
     guidetolerance="10"
     inkscape:pageopacity="0"
     inkscape:pageshadow="2"
     inkscape:window-width="640"
     inkscape:window-height="480"
     id="namedview5"
     showgrid="false"
     inkscape:zoom="0.72625"
     inkscape:cx="29.432014"
     inkscape:cy="400"
     inkscape:current-layer="svg4156" />
  <metadata
     id="metadata4162">
    <rdf:RDF>
      <cc:Work
         rdf:about="">
        <dc:format>image/svg+xml</dc:format>
        <dc:type
           rdf:resource="http://purl.org/dc/dcmitype/StillImage" />
        <dc:title></dc:title>
      </cc:Work>
    </rdf:RDF>
  </metadata>
  <path
     id="path4166"
     d="m402.25 739.2c-1.9225-2.5703-9.1871-19.499-11.23-26.17-1.2141-3.9641-2.3899-11.34-2.7526-17.269-0.54083-8.8391-0.8662-10.279-2.2301-9.8685-3.944 1.1868-19.431 2.554-28.571 2.5222-19.335-0.0673-37.964-5.304-62.386-17.537-18.987-9.5107-30.664-17.201-64.14-42.246-37.427-27.999-48.57-39.305-78.823-79.969-5.0273-6.7574-11.918-16.551-15.312-21.763-3.3945-5.2124-6.244-9.3586-6.3322-9.2139-0.0882 0.14471 0.43544 8.8131 1.1636 19.263 4.2135 60.466-6.6661 97.314-39.395 133.43-3.5393 3.9055-5.3952 5.2478-6.6108 4.7814-2.9669-1.1385-1.7975-3.9562 6.3131-15.211 13.045-18.102 19.375-32.933 23.582-55.252 1.3596-7.2123 1.5535-12.962 1.1044-32.748-0.29966-13.2-0.99784-26.925-1.5515-30.5-2.7616-17.831-4.0423-46.442-2.2304-49.828 0.86199-1.6106 0.37303-4.5596-2.3252-14.024-10.641-37.324-18.509-82.596-20.445-117.65-1.2004-21.731-0.63999-115.24 0.78506-131 3.8703-42.808 10.221-77.447 18.684-101.92 11.547-33.387 15.393-45.329 15.393-47.8 0-2.8332 3.0274-6.7812 5.2-6.7812 0.93333 0 0.93333-0.26667 0-1.2-1.6394-1.6394-1.511-4.4667 0.23319-5.136 1.7666-0.67791 11.086 5.2568 19.652 12.514 3.528 2.9891 10.015 7.8367 14.415 10.772 4.4 2.9357 11.877 8.1977 16.615 11.693 4.7382 3.4957 9.1386 6.3558 9.7785 6.3558 0.63996 0 3.7679-1.3146 6.9509-2.9214 10.366-5.2327 32.402-12.264 47.476-15.148 36.835-7.0485 94.88-4.8699 124.41 4.6694l5.2259 1.6884 7.5966-6.8941c13.879-12.596 29.899-25.469 32.442-26.07 1.3804-0.3262 3.3403-1.3162 4.3552-2.2001 1.7117-1.4906 1.9778-1.4434 3.6732 0.65022 4.2547 5.2543 9.9769 27.008 14.477 55.035l3.4213 21.309 9.0927 9.6077c17.854 18.865 28.632 33.538 42.605 58 12.566 21.999 18.24 37.414 21.981 59.722 2.2721 13.549 1.4802 49.289-1.5026 67.819-2.0771 12.904-7.7905 37.871-10.351 45.232-1.1688 3.3604-1.1889 6.0788-0.12589 17 0.71436 7.3393 1.2912 27.431 1.3248 46.141l0.0595 33.141-8.5818 23.359c-16.365 44.543-22.383 63.02-29.919 91.859-5.768 22.073-6.4104 24.109-8.2871 26.257-1.7355 1.9867-2.5868 3.3776-6.4243 10.496-7.8005 14.47-25.126 41.623-28.169 44.149-0.89019 0.73879-1.6185 1.8934-1.6185 2.5658 0 1.7042-2.9509 4.0953-6.4338 5.2133-6.846 2.1976-9.3505 15.87-7.8435 42.819 0.52287 9.35 0.751 17.562 0.50695 18.25-0.24404 0.6875-1.2405 1.25-2.2143 1.25-0.97382 0-2.1913-0.5625-2.7056-1.25zm2.2019-25.5c-0.0104-21.008 0.21916-24.476 1.9882-30.039 1.9147-6.0206 2.1837-6.3425 6.3074-7.5486 2.3691-0.6929 4.8441-2.2032 5.5-3.3562 0.65594-1.153 3.2849-4.9561 5.8422-8.4514 3.9551-5.4058 11.14-16.96 24.979-40.171 1.5794-2.649 2.8717-5.436 2.8717-6.1933 0-0.75727 0.81504-1.9649 1.8112-2.6836 2.6904-1.941 2.682-1.9177 8.1626-22.707 8.2058-31.127 17.527-59.628 33.555-102.6l6.341-17-0.27026-35.5c-0.15416-20.25-0.80064-39.816-1.5049-45.546-1.225-9.9676-1.2109-10.126 1.8023-20.269 6.9909-23.532 10.915-48.576 11.78-75.185 0.48848-15.02 0.26689-19.296-1.5638-30.172-2.309-13.718-5.675-26.328-9.6182-36.032-1.3724-3.3774-2.4952-6.5902-2.4952-7.1396 0-0.54937-0.62031-1.7093-1.3785-2.5776-0.75816-0.86831-4.5842-7.335-8.5023-14.37-13.028-23.393-28.16-43.58-45.406-60.576-8.0683-7.9509-8.4674-8.5485-8.0151-12 1.3975-10.663-13.238-74.922-16.034-70.398-0.34241 0.55403-1.9433 1.2715-3.5575 1.5943-3.4331 0.68662-18.666 12.712-31.906 25.189l-9.2989 8.7626-8.7011-2.5622c-21.393-6.2994-38.085-8.1827-72.701-8.2024-21.408-0.01221-29.278 0.35989-38 1.7965-22.473 3.7016-45.278 10.562-60.5 18.199l-6.5 3.2614-4.4161-3.9195c-2.4288-2.1557-10.444-7.9921-17.811-12.97-7.367-4.9776-15.601-11.01-18.297-13.405-5.9048-5.2443-16.976-12.885-16.976-11.716 0 0.46049 0.50079 1.3381 1.1129 1.9501 1.3175 1.3175 0.3497 3.2871-1.6152 3.2871-1.98 0-4.4977 3.9823-4.4977 7.1141 0 1.468-2.9541 11.155-6.5646 21.527s-8.0832 23.456-9.9394 29.075c-6.8031 20.594-12.938 53.898-15.986 86.784-0.86666 9.35-1.9833 20.15-2.4815 24-0.54585 4.2184-0.5309 18.062 0.0376 34.838 0.51887 15.311 0.68777 28.252 0.37534 28.757-1.2555 2.0315-0.49959 50.076 1.0448 66.405 3.2406 34.264 12.173 80.385 21.07 108.8 2.3078 7.37 2.3538 7.9721 0.83323 10.913-1.8156 3.511-1.4698 15.307 1.1518 39.287 3.6562 33.444 4.23 54.547 1.9083 70.183-3.2568 21.933-9.8668 38.418-23.145 57.721-8.0676 11.728-6.8837 11.771 2.6796 0.0961 14.834-18.108 25.153-40.767 29.603-65 2.0542-11.187 2.5396-41.103 1.1358-70-0.90018-18.529-1.9575-18.571 10.389 0.41335 18.359 28.23 45.727 62.008 62.372 76.985 9.0156 8.1114 60.883 46.704 72.32 53.811 22.497 13.979 41.045 22.321 60.031 26.998 15.404 3.795 38.993 3.6826 54.548-0.25983l2.8829-0.73071-0.65687 5.3918c-0.81507 6.6902 0.69144 18.878 3.2851 26.578 1.5796 4.6888 9.9617 23.314 10.492 23.314 0.0754 0 0.13181-10.688 0.12533-23.75zm-53.262-37.909c-1.7875-0.25698-3.25-0.67268-3.25-0.92376s1.1482-2.2753 2.5515-4.4984c3.6827-5.8338 11.063-20.935 11.854-24.253 0.8161-3.426-0.0688-6.665-1.8209-6.665-0.91589 0-1.4632-2.9194-1.9214-10.25-0.35242-5.6375-1.3051-13.993-2.117-18.567-2.4123-13.59-3.4272-26.902-4.6268-60.683-0.62501-17.6-1.5534-32.788-2.063-33.75-0.50967-0.9625-1.5782-1.75-2.3746-1.75-0.79638 0-2.5754-2.2249-3.9534-4.9443-3.7945-7.488-19.584-30.654-26.279-38.556-6.8904-8.1323-10.376-10.47-12.715-8.5283-0.84375 0.70025-1.5341 1.6622-1.5341 2.1376 0 0.47545 3.7309 4.8078 8.2908 9.6276 4.5599 4.8197 9.8207 11.013 11.691 13.763 1.8699 2.75 7.3148 10.027 12.1 16.171 10.183 13.075 9.2386 8.6868 10.937 50.829 0.57624 14.3 1.5065 29.764 2.0673 34.364 0.56079 4.6003 0.81881 8.565 0.57338 8.8105-0.24544 0.24543-3.8285-3.7435-7.9623-8.8642-4.1338-5.1208-9.1316-10.861-11.106-12.757-3.3176-3.1845-3.5901-3.2794-3.5901-1.25 0 1.2079-0.43963 2.1962-0.97695 2.1962-1.5235 0-3.576-3.6779-8.0318-14.392-4.5104-10.846-11.135-24.372-15.866-32.396-1.6709-2.8339-4.2786-8.6533-5.7948-12.932-3.8919-10.983-5.0785-11.931-15.932-12.732-4.8936-0.3612-9.8097-1.0268-10.925-1.4791-3.7704-1.5295-8.7758-6.4867-28.331-28.058-32.092-35.4-60.304-70.438-62.213-77.263-0.55268-1.9766-2.0644-3.9022-3.8619-4.9189-1.6793-0.9499-4.0642-3.8623-5.5275-6.75-1.7903-3.5329-3.1776-5.0792-4.557-5.0792-2.7739 0-2.5869 3.5773 0.58906 11.27 1.4147 3.4266 3.7119 9.3801 5.1048 13.23 3.5159 9.7178 9.1342 19.662 18.528 32.794 11.221 15.686 19.264 24.977 42.795 49.434 11.275 11.718 21.107 22.761 21.848 24.539 0.74139 1.7782 3.9333 7.508 7.0931 12.733 8.3004 13.725 16.812 28.765 24.053 42.5 9.4817 17.986 10.119 18.831 16.557 21.981l5.7287 2.8028-0.68316 20.108c-0.37574 11.059-1.0374 25.733-1.4703 32.608-0.43293 6.875-0.41924 13.247 0.0304 14.16 1.146 2.3266 4.61 1.2002 6.2639-2.0369 3.3053-6.4694 16.481-54.881 18.132-66.623 0.38667-2.75 0.88987-5.3256 1.1182-5.7235 0.46036-0.80216 13.312 9.3924 17.488 13.872 2.9211 3.1336 5.8963 15.634 7.8193 32.852 0.90678 8.119 0.82507 9.2452-0.83471 11.505-1.0119 1.3776-4.932 8.2922-8.7112 15.366-3.7792 7.0736-7.404 13.065-8.055 13.315-1.4061 0.53959-11.324-2.4291-20.299-6.076-3.5323-1.4353-7.6935-2.6097-9.2471-2.6097-1.78 0-4.2127-1.229-6.5776-3.323-2.0641-1.8276-6.6845-4.9404-10.268-6.9173-11.337-6.2548-24.748-15.493-50.485-34.776-33.688-25.24-39.002-30.043-55.862-50.483-28.161-34.141-53.045-71.524-57.912-87-3.1181-9.9137-9.6004-36.204-14.794-60-7.1567-32.789-13.97-88.333-15.302-124.75-0.40565-11.087 0.49774-15.122 2.0146-9 1.002 4.0443 7.9181 20.423 12.311 29.154 4.517 8.9782 16.458 27.28 30.14 46.194 12.033 16.636 15.38 19.821 6.6866 6.3635-26.548-41.095-38.066-65.455-45.372-95.962-2.4894-10.394-2.5969-11.882-1.9502-27 1.7061-39.884 5.7055-57.867 23.952-107.7 5.6999-15.566 10.675-29.765 11.056-31.553 0.38111-1.7875 0.99616-3.25 1.3668-3.25 0.37063 0 1.7095 3.0375 2.9753 6.75 2.9139 8.5464 15.78 34.672 17.939 36.427 1.4246 1.158 1.5323 1.0737 0.86541-0.67744-2.5292-6.6408-12.119-51.492-11.44-53.507 0.51577-1.5317 32.828 27.281 32.828 29.273 0 0.55765 0.67346 1.5135 1.4966 2.1242 1.2374 0.91796 1.3032 1.803 0.38 5.1102-1.9302 6.9144-0.53326 27.52 2.5761 38 3.8724 13.052 12.124 29.335 21.535 42.5 10.321 14.436 13.757 18.472 33.467 39.31 26.516 28.033 28.128 30.749 27.329 46.032-0.4812 9.1996 0.33224 12.657 2.9776 12.657 0.57254 0 1.9334 1.5126 3.0242 3.3613s3.0477 3.5983 4.3488 3.888c49.192 10.953 55.38 13.668 81.996 35.983 11.538 9.6732 12.025 10.236 11.412 13.186-0.35218 1.695-1.0611 6.6819-1.5753 11.082-1.0206 8.7329-1.7315 9.7499-8.1623 11.677-2.0534 0.61523-4.6933 2.1402-5.8662 3.3887l-2.1327 2.2701-6.1098-4.9233c-12.366-9.9648-30.875-17.666-60.141-25.024-13.892-3.4927-16.873-4.6105-22.798-8.5495-6.8355-4.5442-11.757-10.238-11.757-13.602 0-0.98959-0.72123-2.076-1.6027-2.4143-0.88151-0.33826-9.2627 1.7197-18.625 4.5732-9.3622 2.8535-17.089 5.0569-17.171 4.8964s-1.7086-3.6668-3.6148-7.7918c-5.3715-11.624-10.975-20.628-16.986-27.291-5.4458-6.0371-31.103-27.939-31.852-27.19-0.48914 0.48913 3.4957 5.5832 17.1 21.86 12.614 15.092 16.168 20.352 24.232 35.858l5.9791 11.498 10.271 0.66407c23.501 1.5194 56.426 9.4478 84.27 20.292 20.136 7.8425 30.707 13.855 40.948 23.29 5.84 5.3803 10.364 6.5644 13.417 3.5115 0.96948-0.96948 1.7364-1.1375 2.1485-0.47073 0.7765 1.2564 11.022-4.214 14.09-7.5235 2.0816-2.2451 3.3278-10.089 4.7659-29.998 0.52737-7.3007-1.2171-13.996-3.6507-14.01-0.94154-0.006-3.9367-2.7599-6.6559-6.1205-5.75-7.1063-20.06-19.4-28.67-24.63-11.045-6.7092-21.134-10.021-54.517-17.893l-3.6242-0.85469 0.50178-8.8005c1.0024-17.58-3.1684-24.682-32.253-54.922-11-11.437-23.069-24.614-26.819-29.281-13.622-16.954-23.153-33.203-28.23-48.131-3.0105-8.8512-6.451-26.316-6.451-32.746 0-5.5047-0.2055-5.3532 13.985-10.31 15.776-5.5105 50.686-13.8 58.118-13.8 1.4974 0 1.7245 2.2392 2.1553 21.25 0.61976 27.347 4.0859 46.198 14.309 77.822 7.6046 23.523 28.626 76.164 30.683 76.836 0.68748 0.22442 1.838 1.2369 2.5567 2.25 0.71869 1.0131 2.3796 1.842 3.691 1.842s2.6478 0.42632 2.9698 0.94738c1.0563 1.7091 60.91 46.599 66.033 49.524 2.75 1.5703 5.35 3.344 5.7778 3.9416 0.92431 1.2912 0.27142 12.652-2.3484 40.863-1.0612 11.427-1.9294 23.811-1.9294 27.52v6.7429l-4.943 3.9154c-9.0219 7.1463-18.348 20.205-20.678 28.954-0.74561 2.8-1.361 5.2582-1.3675 5.4627-0.007 0.20446 2.8737-2.7449 6.4005-6.5542 5.9092-6.3824 24.519-20.516 30.732-23.34 2.4145-1.0975 3.1529-0.82896 8.5 3.091 3.2207 2.3611 10.243 8.5907 15.606 13.844 5.3625 5.2528 9.75 9.1611 9.75 8.6851 0-2.1442-9.0565-19.587-12.484-24.045-3.5796-4.6552-3.7296-5.1286-2.5352-8 3.7247-8.9545 5.1045-14.701 7.5753-31.552 1.4919-10.175 3.0694-20.75 3.5054-23.5 1.3443-8.4781 1.0975-20.901-0.45747-23.027-1.2631-1.7274-0.96667-2.3895 3.1079-6.9411 2.4773-2.7674 7.9432-7.838 12.146-11.268 4.2032-3.43 10.923-9.955 14.933-14.5 7.2766-8.2476 19.209-24.747 19.209-26.561 0-0.52677 0.7379-1.5702 1.6398-2.3187 1.4261-1.1835 1.5612-3.0568 1.0372-14.372-1.2075-26.075-11.823-63.85-25.795-91.792-5.6914-11.382-11.038-20.897-11.489-20.446-0.20764 0.20763 1.2103 5.0684 3.151 10.802 10.052 29.696 18.883 75.02 19.581 100.5 0.23981 8.7492 0.13953 9.2178-2.7819 13-1.6668 2.158-6.4316 8.6486-10.588 14.424-4.1567 5.775-12.439 16.313-18.406 23.418-16.61 19.778-17.348 20.741-17.348 22.6 0 0.95525 0.74079 2.3516 1.6462 3.103 1.4611 1.2126 1.5758 3.3908 1.02 19.372-0.67503 19.409-1.5814 27.257-4.6784 40.506-1.0927 4.675-2.208 9.625-2.4784 11-1.0198 5.1856-2.0152 5.6144-6.2382 2.6879-2.1332-1.4783-4.9226-2.6879-6.1987-2.6879-2.6977 0-2.7188 0.63543 0.88034-26.5 1.1672-8.8 2.394-22.751 2.7263-31.003l0.60417-15.003-4.9509-5.8018c-2.723-3.191-6.0718-6.5646-7.4418-7.4969-1.37-0.93231-6.7433-5.1024-11.941-9.2668-5.1974-4.1644-18.675-14.601-29.95-23.191-11.275-8.5908-21.888-17.109-23.584-18.928-3.0964-3.3222-8.4398-15.01-20.713-45.309-12.559-31.003-20.199-53.563-29.124-86-6.4946-23.605-8.917-34.58-7.8525-35.579 1.5787-1.4808 32.303-4.2319 47.773-4.2776 14.648-0.04333 16.445 0.1498 21.27 2.2863 8.8409 3.9147 18.654 16.248 32.281 40.57 18.599 33.196 29.693 63.345 34.834 94.667 1.1136 6.7832 2.2085 13.458 2.4333 14.833 0.22477 1.375 0.46171 0.25 0.52654-2.5 0.2857-12.12-5.44-41.072-12.043-60.894-9.4255-28.295-30.029-66.687-43.784-81.587-2.21-2.3939-3.7929-4.5779-3.5175-4.8533 0.80352-0.80352 22.306 3.6731 32.854 6.84 17.824 5.3512 42.111 15.953 38.396 16.76-2.8593 0.62141-2.0081 1.8398 2.1573 3.0878 3.4608 1.0369 5.497 2.8414 11.167 9.8959 0.55255 0.6875 2.0514 1.25 3.3308 1.25 4.2042 0 29.983 28.278 43.759 48 5.1518 7.3758 13.497 24.997 16.899 35.681l2.2863 7.1811-2.1386 8.8189c-3.2827 13.537-4.3357 25.034-4.1404 45.206l0.17879 18.466-4.0885 1.2072c-10.047 2.9666-22.99 13.428-34.821 28.144-4.3311 5.3875-8.916 11.483-10.189 13.545-1.2727 2.0625-3.1146 3.75-4.0931 3.75-1.3851 0-1.908 1.0879-2.361 4.9125-0.68377 5.7734-7.4834 30.157-8.7945 31.538-1.3998 1.4738-1.0652 5.2442 0.6144 6.9238 0.83416 0.83417 3.0808 3.5657 4.9924 6.0702 3.4388 4.5051 3.4598 4.5934 1.9698 8.3172-0.82827 2.07-1.6124 6.9081-1.7424 10.751-0.22712 6.711-0.14743 6.9782 2.0135 6.7494 1.2375-0.13102 2.25 0.20648 2.25 0.75 0 1.2536 11.166 1.2291 21-0.046 12.07-1.565 16.774-3.5792 23.065-9.8759 5.6379-5.6431 8.1485-10.57 9.4579-18.561 1.0167-6.2043 2.3361-2.2689 2.554 7.6177 0.18428 8.3608 0.0978 8.6974-4.5458 17.688-3.7284 7.2189-6.2177 10.539-11.722 15.635-3.8436 3.5586-9.4172 7.6584-12.386 9.1108-8.2511 4.0369-8.3305 4.2286-16.451 39.744-0.98404 4.3038-2.0531 8.089-2.3758 8.4117-0.32263 0.32264-2.7264-0.5661-5.3416-1.975-5.9643-3.2131-19.372-7.4519-26.406-8.3482-2.9419-0.37486-6.0629-1.0478-6.9356-1.4953-2.2882-1.1736-10.593 1.2404-26.003 7.5586-7.3758 3.0241-13.957 5.5039-14.625 5.5108-0.66815 0.007-1.6912-0.87771-2.2734-1.9656-3.8728-7.2365-36.321-44.825-41.357-47.908-3.1152-1.9073-8.0219-2.2949-10.355-0.81801-0.81852 0.51819-1.4132-0.38011-1.8725-2.8284-0.51966-2.77-1.0435-3.4456-2.2983-2.9641-4.2684 1.638-11.923 2.6782-16.757 2.2773-15.165-1.2576-43.238-22.223-57.354-42.834-5.3138-7.7584-8.0183-11.018-8.0183-9.663 0 1.1677 4.1244 12.069 6.7542 17.853 4.3563 9.5802 9.9435 17.293 18.89 26.075 9.3988 9.227 16.975 14.766 26.096 19.08 8.441 3.9923 19.774 4.8145 30.76 2.2317l7-1.6456 1.7072 2.3105c0.93896 1.2708 9.8194 13.336 19.734 26.811 9.915 13.475 19.622 26.188 21.571 28.25 4.2395 4.486 8.0203 4.9404 11.377 1.3676 1.2582-1.3393 3.9498-2.6561 6.1475-3.0075 2.1501-0.34382 9.3678-2.6561 16.039-5.1385 6.6715-2.4823 15.246-5.0477 19.055-5.7008l6.925-1.1875 13.722 4.6606c7.547 2.5633 15.709 4.9766 18.138 5.3628 3.831 0.6091 4.3334 0.48641 3.7915-0.92579-0.35554-0.92653-0.0135-1.97 0.79389-2.4218 1.4569-0.8153 11.247-37.505 11.886-44.543 0.31062-3.423 0.90469-4.1206 6.2281-7.3126 12.018-7.2062 17.442-14.807 19.512-27.344 0.64438-3.9019 1.3202-6.9458 1.5017-6.7642 0.18157 0.18157 0.79949 5.7018 1.3732 12.267 0.96122 11.001 3.4807 30.193 4.5866 34.937 0.85521 3.6691-7.7346 13.582-18.081 20.865-10.058 7.0803-23.606 18.074-24.624 19.981-0.33871 0.63444-0.88926 4.5285-1.2234 8.6535-0.74975 9.2545-8.7383 53.237-12.623 69.5-3.8338 16.049-6.7879 23.584-15.216 38.811l-7.0909 12.811 0.54054 12.189c0.52997 11.95 0.48858 12.266-2.1152 16.155-5.8203 8.6925-11.648 11.741-23.156 12.113-31.763 1.0256-39.904 1.1707-42.75 0.76159zm-14.25-253.87c0-0.83861 1.1305-1.9546 2.5123-2.4799 5.5385-2.1058 5.7233-10.505 0.43484-19.764-3.4362-6.0166-8.4491-10.047-18.447-14.832-11.101-5.3129-19.317-6.6919-40.5-6.7984-14.404-0.0724-20.376 0.31041-26.974 1.7291-8.6546 1.8608-13.275 3.5788-9.7881 3.6398 1.14 0.0199 2.9833 2.5043 5.3605 7.225 7.873 15.634 23.121 25.151 49.372 30.816 11.467 2.4745 38.03 2.7993 38.03 0.46497zm-38.5-10.934c-20.711-3.2648-33.842-9.0861-43.823-19.428-4.1194-4.2682-6.5359-7.533-6.099-8.2399 0.82238-1.3306 25.795-0.56226 37.922 1.1668 15.621 2.2273 31.076 8.27 39.12 15.295 4.2745 3.7332 7.9366 9.9544 6.8728 11.676-0.85871 1.3894-24.249 1.066-33.993-0.47005zm128.5 230.18c0-4.4363 0.7274-6.5414 4.5784-13.25 6.9915-12.18 9.4961-17.348 12.06-24.885 4.5262-13.305 9.2235-43.463 11.501-73.84 0.69064-9.2125 1.6168-16.75 2.0581-16.75 0.44129 0 0.80235-0.675 0.80235-1.5s0.675-1.5 1.5-1.5 1.535-0.5625 1.5777-1.25 5.0174-5.525 11.055-10.75c13.164-11.393 23.679-22.4 24.492-25.639 0.76068-3.0308 2.1708-3.0261 2.9328 0.01 0.84997 3.3866-6.8786 18.629-9.4457 18.629-2.3893 0-3.6848 1.6109-8.333 10.361-7.2194 13.591-8.8511 17.495-10.156 24.302-0.72109 3.7604-2.7549 10.117-4.5196 14.126-5.7294 13.015-11.797 29.489-14.626 39.711-1.5221 5.5-4.1199 14.725-5.7728 20.5-3.6835 12.869-4.194 16.215-2.8551 18.717 0.84578 1.5804 0.38237 2.8666-2.4729 6.8638-1.9326 2.7055-5.7629 8.6315-8.5118 13.169-2.749 4.5375-5.1929 8.25-5.431 8.25-0.23808-0.00023-0.43288-2.3736-0.43288-5.2744zm-114-40.048v-11.722l-4.6792-2.9675c-2.5736-1.6321-5.3861-3.2-6.25-3.4841-0.86393-0.28416-5.1334-7.1514-9.4877-15.261-10.704-19.935-22.774-41.093-28.8-50.487-3.557-5.5451-5.75-7.9625-7.713-8.5024-1.7526-0.48202-5.1703-3.769-9.4666-9.1043-3.6981-4.5924-13.879-16.292-22.624-26-23.115-25.658-38.884-46.045-44.978-58.15l-2.2656-4.5 2.3019 2c2.3019 2 2.3019 2 1.5045 0-3.6028-9.0357-4.5823-11.793-4.2927-12.082 0.18418-0.18418 1.8542 2.459 3.7111 5.8737 5.4103 9.9489 21.247 33.606 32.45 48.474 13.392 17.774 26.593 32.97 40.784 46.949l11.385 11.215 9.9609 0.67897c5.4785 0.37343 10.942 1.0412 12.142 1.4839 2.4143 0.89117 4.7106 5.4743 9.9743 19.907 5.7268 15.703 14.48 38.301 16.074 41.5 0.82231 1.65 2.8814 4.4608 4.5758 6.2463l3.0806 3.2463-2.8746 12.254c-1.581 6.7395-3.2427 12.681-3.6926 13.204-0.44991 0.5225-0.81802-4.3249-0.81802-10.772zm123-185.07c0-0.37231 1.1716-3.0245 2.6035-5.8937 5.2437-10.507 13.009-16.165 27.152-19.782 9.7757-2.5002 16.388-2.5378 18.589-0.10582 2.3531 2.6001 2.0577 4.9364-1.3828 10.936-3.528 6.1519-9.2411 10.625-16.376 12.821-5.1602 1.5885-30.586 3.2718-30.586 2.0249zm0.51557-29.184-2.6543-2.4599 3.9764-10.233c4.4544-11.464 6.1485-17.123 6.1568-20.568 0.0111-4.6234 12.586-19.306 24.506-28.612 9.4688-7.3928 15.412-10.915 21.354-12.657 2.3948-0.70183 4.5651-1.9783 4.823-2.8366 0.2579-0.85829 0.87876-2.3302 1.3797-3.271 0.50094-0.94075 0.64494-2.4032 0.32002-3.25-0.43878-1.1434 0.08-1.5395 2.0162-1.5395 1.4338 0 2.607 0.3546 2.607 0.78801 0 8.8122-8.3664 57.029-10.187 58.708-1.0857 1.0013-21.088 12.137-29.376 16.355-5.4654 2.7811-12.711 6.627-16.102 8.5464l-6.1651 3.4899-2.6543-2.4599zm36.786-8.083c-0.79708-2.0772 0.39162-2.9804 7.6823-5.8376 6.7927-2.662 7.9685-2.3503 8.0007 2.1213 0.0224 3.1105-1.7412 4.0425-8.8002 4.6506-5.0083 0.43145-6.4329 0.23807-6.8828-0.93427zm-220.8-23.411c-2.2-0.46046-9.9818-1.1544-17.293-1.5421-7.3111-0.38768-12.936-1.0258-12.5-1.418 0.4361-0.39222 5.9374-2.3164 12.225-4.2759l11.432-3.5628 3.7657 3.8803c2.0711 2.1342 5.1392 4.5905 6.8179 5.4586 5.0849 2.6295 3.5491 3.1336-4.4477 1.4598zm248.18-77.933c-1.0813-6.5586-1.5257-18.977-0.69746-19.489 0.45423-0.28073 1.1452 4.1739 1.5354 9.8992 0.7156 10.499 0.2294 16.063-0.83793 9.5895zm-84.2-157.35c-10.68-7.1916-19.363-12.171-28.296-16.224l-9.3097-4.2248 3.3097-2.4273c16.046-11.768 33.269-23.765 34.117-23.765 0.22954 0 0.73364 3.9375 1.1202 8.75 0.38658 4.8125 1.553 13.25 2.5921 18.75 2.4849 13.153 3.4594 22.5 2.3459 22.5-0.49089 0-3.1365-1.5111-5.8792-3.358z"
     style="fill:#ffffff" />
</svg>
