<?xml version="1.0" encoding="UTF-8" standalone="no"?>
<!-- Created with Inkscape (http://www.inkscape.org/) -->
<svg id="svg3396" xmlns:rdf="http://www.w3.org/1999/02/22-rdf-syntax-ns#" xmlns="http://www.w3.org/2000/svg" height="1845" viewBox="0 0 1845 1845" width="1845" version="1.1" xmlns:cc="http://creativecommons.org/ns#" xmlns:dc="http://purl.org/dc/elements/1.1/">
 <metadata id="metadata3402">
  <rdf:RDF>
   <cc:Work rdf:about="">
    <dc:format>image/svg+xml</dc:format>
    <dc:type rdf:resource="http://purl.org/dc/dcmitype/StillImage"/>
    <dc:title/>
   </cc:Work>
  </rdf:RDF>
 </metadata>
 <path id="path3406" fill="#fff" d="m578.38 1803.8c-11.51-1.3259-22.046-6.6698-29.92-15.174-9.9461-10.743-13.037-22.688-10.802-41.744 3.186-27.166 6.921-42.846 18.908-79.375 1.4664-4.4687 3.1434-13.75 3.7266-20.625 2.5982-30.629 4.987-42.34 10.111-49.568 3.3404-4.712 3.0726-10.271-2.6517-55.044-4.9816-38.964-8.0558-58.285-12.493-78.513-3.3699-15.364-7.0424-39.682-10.099-66.875-2.3551-20.949-2.5921-28.32-2.0102-62.5 0.36285-21.312 1.1986-41 1.8573-43.75 0.65866-2.75 2.1361-9.5 3.2832-15s3.4036-14.219 5.0144-19.375c1.6108-5.1562 3.9694-12.75 5.2413-16.875 4.4114-14.307 2.3357-42.765-5.7897-79.375-6.5553-29.536-9.954-48.315-12.055-66.607l-2.2663-19.732-4.1424-2.4441c-2.5087-1.4802-6.1174-2.3667-9.1503-2.2478-8.2312 0.3225-8.8064-1.0424-9.38-22.258-0.83074-30.73-1.6207-46.614-3.038-61.085-2.0331-20.758 1.3905-80.253 6.1892-107.55 0.59892-3.4075 2.8938-16.602 5.0997-29.32 2.2059-12.719 5.2862-27.062 6.8451-31.875 1.5589-4.8125 3.8029-12.969 4.9867-18.125 1.1838-5.1562 3.3239-13.312 4.7557-18.125 1.4318-4.8125 2.7174-10.719 2.8569-13.125 0.4804-8.2907 9.8123-38.014 12.906-41.108 1.1278-1.1278 3.3722-3.9067 4.9877-6.1755 1.6155-2.2687 3.6429-3.8542 4.5054-3.5232 1.0251 0.39335 0.36179-3.1507-1.9152-10.233-6.7665-21.047-7.6456-42.454-2.5497-62.085 4.0482-15.595 5.0241-23.173 7.7263-60 2.3262-31.702 2.4867-38.944 1.2791-57.72-0.75945-11.808-2.4965-27.277-3.8602-34.375-1.3637-7.0979-2.3978-15.437-2.298-18.53 0.22612-7.011-0.21155-8.513-5.6965-19.55-4.5852-9.226-10.53-23.351-16.253-38.617-2.6648-7.1081-4.851-10.333-11.415-16.839-4.4655-4.4258-8.1191-7.3682-8.1191-6.5385 0 1.7376-10.715 7.368-24.266 12.751-17.908 7.1137-49.194 13.922-74.949 16.31-16.91 1.5678-26.298 1.1142-42.435-2.0502-5.3762-1.0543-10.643-1.5837-11.704-1.1764-1.0612 0.40722-8.1859 2.1527-15.833 3.8788-14.986 3.3829-25.104 3.2966-32.886-0.28059-2.1717-0.99826-10.071-8.2041-17.554-16.013-15.007-15.661-17.987-17.304-24.763-13.655-4.1062 2.2114-4.3123 2.2102-6.7973-0.0387-3.7711-3.4128-3.2885-9.8185 1.3602-18.056 4.7243-8.3711 12.856-19.591 17.305-23.876 1.7843-1.7188 4.7977-6.3331 6.6965-10.254 8.3433-17.229 37.555-35.674 65.96-41.649 21.719-4.5687 61.294-9.2674 84.24-10.002 27.72-0.88719 47.924-3.247 63.99-7.4739 13.016-3.4245 32.721-12.838 35.083-16.759 0.99357-1.6496 2.8586-2.6118 5.0625-2.6118 4.6653 0 6.4908-2.0945 6.4824-7.4375-0.0181-11.566-3.8796-16.336-17.196-21.244-6.3803-2.3514-7.9591-3.4916-8.5347-6.1642-0.38848-1.8035-1.184-4.4041-1.7678-5.7791s-1.3544-5.0312-1.7124-8.125c-0.35799-3.0938-2.0779-14.062-3.8221-24.375-7.326-43.316-1.8629-74.692 17.4-99.933 13.227-17.332 37.376-33.321 59.442-39.357 13.013-3.5596 39.915-4.0037 50.573-0.83478 18.413 5.4746 39.083 19.482 48.111 32.605 6.0941 8.8575 13.488 24.671 16.987 36.334 3.4347 11.446 4.2 21.91 4.2575 58.213l0.019 12.027 8.2633 12.66c4.5448 6.9632 8.8923 12.66 9.661 12.66 3.5564 0 18.5 6.7393 19.631 8.8535 1.614 3.0157-1.7718 8.6465-5.1991 8.6465-1.2959 0-2.3562 0.32397-2.3562 0.71995 0 1.3652 10.964 14.913 14.853 18.352 2.1435 1.8959 3.9079 4.1459 3.9207 5 0.0279 1.8504 44.463 23.479 48.175 23.449 1.4155-0.0113 3.6655 0.78987 5 1.7807 1.3345 0.99082 3.692 1.4923 5.2389 1.1145 1.8337-0.44792 2.8125-0.11775 2.8125 0.9485 0 1.2721 0.33334 1.3022 1.5 0.13551 0.825-0.825 2.853-1.5 4.5067-1.5s7.5881-1.3898 13.188-3.0884c16.83-5.1056 33.012-7.1236 57.681-7.1934 25.276-0.0715 35.59 1.4131 58.894 8.4767 16.763 5.0811 23.281 5.3391 44.856 1.7758 25.122-4.1493 44.288-5.0565 77.807-3.6831l30.595 1.2536 23.924-7.9867c36.186-12.08 34.315-11.906 90.799-8.4585 47.993 2.9293 54.669 2.8027 123.12-2.3345 35.585-2.6704 94.228-10.741 97.13-13.367 1.9541-1.7684 5.3668-1.9045 28.793-1.1482 36.447 1.1766 51.983 3.413 68.391 9.8449 15.29 5.9935 21.864 11.132 22.972 17.957 1.0814 6.6643-0.8974 9.5646-6.1105 8.956-2.6956-0.3147-4.4542 0.0936-4.8505 1.1261-0.3419 0.8909-2.1861 1.626-4.0983 1.6336-1.9122 0.007-5.5861 0.36241-8.1642 0.78855-4.3458 0.71831-4.6875 1.0846-4.6875 5.0255 0 2.3379-0.7136 4.5245-1.5859 4.8592-0.8722 0.33472-6.0754-0.56682-11.562-2.0034-5.4871-1.4366-11.383-2.7805-13.102-2.9864-1.7188-0.20592-6.661-1.3285-10.983-2.4947l-7.8578-2.1202-3.3922 3.6182c-8.0073 8.5404-12.675 10.426-30.395 12.28-15.381 1.609-17.347 2.128-29.121 7.6851l-12.626 5.9595h-21.875c-20.292 0-22.256-0.20346-27.138-2.8125-2.8945-1.5469-6.9101-2.8125-8.9235-2.8125-5.0569 0-27.27 7.8426-57.689 20.367-55.34 22.786-72.91 27.786-115 32.723-8.5938 1.008-17.389 2.3548-19.544 2.9928-2.1554 0.63801-11.155 1.8094-20 2.6031-20.717 1.8591-31.807 3.8901-58.261 10.669-11.863 3.04-30.289 6.9772-40.945 8.7494-10.656 1.7721-26.406 4.6064-35 6.2985-30.093 5.9252-39.154 6.9358-67.476 7.5259-28.728 0.5986-30.357 0.76332-36.965 3.737-5.6304 2.5338-8.9144 7.0981-14.81 20.584-7.1803 16.425-8.8287 66.311-3.862 116.88 1.013 10.312 2.6889 32.25 3.7244 48.75 1.8133 28.895 3.7326 43.284 7.4387 55.763 2.7157 9.1446 3.6178 26.697 1.9798 38.518-1.1788 8.5074-5.0975 23.55-8.3283 31.969-0.3016 0.78594 0.75203 2.0215 2.3414 2.7456 1.5894 0.72416 4.4038 4.0985 6.2544 7.4986 5.6713 10.42 15.972 41.623 20.552 62.255 1.0682 4.8125 3.2905 11.418 4.9383 14.679 1.6479 3.261 2.9054 6.0734 2.7945 6.25-0.11088 0.17654 0.94821 2.5748 2.3535 5.3294 6.9361 13.596 16.948 55.963 23.039 97.492 2.1612 14.735 2.126 65.552-0.0538 77.689-0.88301 4.9166-1.7951 11.385-2.0268 14.375-0.23174 2.9896-1.0903 13.029-1.9078 22.311-0.81759 9.2812-1.6631 21.628-1.8789 27.437-0.36178 9.7397-0.64751 10.748-3.6701 12.95-2.1365 1.5563-4.4588 2.1574-6.6701 1.7264-2.1592-0.4209-5.9242 0.4954-10.357 2.5207l-6.9648 3.1821-2.213 18.905c-2.0603 17.601-5.588 36.965-11.983 65.78-5.6703 25.549-7.4414 38.577-7.817 57.5-0.29602 14.918-0.45031 14.096 7.2791 38.75 1.6166 5.1562 4.4642 16.688 6.328 25.625 3.1447 15.08 3.427 18.956 3.9193 53.823 0.45803 32.44 0.16755 40.807-2.1263 61.25-3.0407 27.099-6.7141 51.428-10.086 66.802-4.4367 20.228-7.5109 39.548-12.493 78.513-5.7243 44.773-5.9921 50.332-2.6517 55.044 5.1242 7.2284 7.513 18.939 10.111 49.568 0.5832 6.875 2.2592 16.156 3.7244 20.625 12.396 37.806 16.033 53.215 18.883 80 2.0729 19.484-0.9522 30.929-10.945 41.405-12.468 13.071-30.054 17.724-55.941 14.799-26.055-2.9435-35.785-9.3353-43.788-28.765-3.4577-8.3952-4.3559-12.274-4.3741-18.892-0.0287-10.446 2.7381-25.16 6.2787-33.39 2.6833-6.2375 2.705-6.8867 1.9933-59.567-0.6828-50.538-0.59646-53.585 1.6891-59.6 1.3248-3.4865 3.5105-7.5261 4.8571-8.9767 3.118-3.3592 3.6835-19.063 1.5354-42.638-3.6476-40.032-7.8443-58.513-26.397-116.25-7.4431-23.163-13.087-48.924-15.124-69.034-1.736-17.138-0.2781-47.667 3.5505-74.349l2.0997-14.633-4.8508-17.242c-4.5772-16.27-4.8663-18.335-5.1251-36.617l-0.27431-19.375-5.2768-11.25c-11.106-23.678-21.251-53.463-26.398-77.5-0.88317-4.125-2.5592-8.3437-3.7245-9.375-1.6418-1.4529-2.2962-4.9703-2.907-15.625-0.43358-7.5625-1.2524-17.125-1.8196-21.25-0.56718-4.125-2.3313-17.766-3.9202-30.312-1.5889-12.547-3.2152-22.812-3.6139-22.812-0.39874 0-1.7079 6.6094-2.9093 14.688-1.2014 8.0781-2.4312 15.812-2.7329 17.188-0.30169 1.375-1.6998 9.8125-3.1069 18.75s-3.116 18.5-3.7976 21.25c-0.68153 2.75-1.2526 7.3777-1.269 10.284-0.0247 4.3805-0.61746 5.6598-3.4673 7.4838-1.8906 1.21-4.1808 2.9105-5.0893 3.7788-0.90847 0.8683-2.1524 1.5787-2.7643 1.5787s-1.6981 2.3906-2.4139 5.3125c-7.2414 29.562-15.456 53.501-26.273 76.562l-5.2768 11.25-0.27431 19.375c-0.25891 18.287-0.54711 20.345-5.1315 36.64l-4.8571 17.265 2.1398 15.235c3.9019 27.781 5.2527 55.796 3.5346 73.306-1.9809 20.187-7.5525 45.804-15.101 69.429-11.691 36.591-14.948 47.662-18.019 61.25-6.0072 26.578-10.128 62.246-9.5982 83.086 0.2641 10.396 0.66283 12.267 3.2756 15.372 6.4015 7.6078 6.7471 11.565 5.981 68.482l-0.70594 52.446 3.1196 7.807c9.9378 24.87 6.5454 51.436-8.5144 66.676-7.4215 7.5103-16.624 11.122-33.191 13.026-11.499 1.322-15.475 1.3254-26.778 0.024zm36.25-8.8285c5.5-1.3729 12.25-4.0399 15-5.9266 5.4137-3.7143 10.242-11.963 11.485-19.619l0.75755-4.6683-6.2802 6.2802c-7.5606 7.5606-13.05 9.4841-35.337 12.382-14.795 1.9235-16.135 1.9111-25.234-0.2341-8.6862-2.048-9.795-2.0793-11.55-0.3245-2.2394 2.2393-8.8035 3.9526-10.686 2.7891-0.70427-0.4353-1.2805-0.2725-1.2805 0.3616 0 1.6489 13.32 7.4015 22.002 9.5022 11.017 2.6657 29.234 2.4254 41.123-0.5423zm289.48-0.9454c3.8412-1.3724 8.8931-3.4825 11.226-4.6891l4.2424-2.1939-5.4812-1.6184c-3.0147-0.8901-5.9087-2.3101-6.4312-3.1556-0.73812-1.1942-3.1348-1.022-10.745 0.7724-9.3133 2.1957-10.564 2.2095-25.42 0.278-22.287-2.8975-27.777-4.821-35.337-12.382l-6.2802-6.2802 0.75755 4.6683c3.1996 19.717 19.4 28.496 50.86 27.56 11.519-0.3426 17.46-1.1205 22.609-2.96zm-345.95-14.848c0.45534-0.4553-1.9637-2.7078-5.3757-5.0056-3.412-2.2977-6.8043-5.3002-7.5385-6.6721-0.73422-1.3719-1.8777-2.4944-2.541-2.4944-1.7461 0-1.4818 6.6726 0.35647 9.0021 3.3137 4.1989 12.816 7.4527 15.099 5.17zm365.02-1.0451c4.946-2.0665 7.0727-5.0494 7.0727-9.9199 0-3.8265-1.8883-4.1857-3.747-0.7127-0.73423 1.3719-4.1266 4.3743-7.5385 6.6721-8.3257 5.6069-5.6801 8.0941 4.2128 3.9605zm-302.15-3.8321c9.2231-4.6084 14.914-12.432 16.085-22.116 0.86583-7.1601-0.0616-42.407-1.5868-60.304-0.52729-6.1875-0.47545-18 0.11525-26.25 1.829-25.547 1.154-30.625-4.0712-30.625-1.1671 0-4.4732 2.0126-7.3469 4.4724-3.9896 3.415-5.225 5.3637-5.225 8.242 0 2.7184 0.69719 3.952 2.5 4.4235 3.2214 0.8424 3.2259 3.7132 0.007 4.7347-6.6939 2.1246-8.3625 9.2367-3.1324 13.351 4.1939 3.2989 3.9541 5.9234-0.625 6.8391-2.4937 0.4987-3.75 1.501-3.75 2.9915 0 1.2329-0.3136 3.0587-0.69689 4.0576-0.38328 0.9988 0.15144 2.6644 1.1883 3.7013 1.0368 1.0367 2.2286 3.2533 2.6483 4.9256 0.61078 2.4336 0.124 3.3318-2.4383 4.4992-2.7502 1.2532-3.2014 2.2577-3.2014 7.1282 0 4.773 0.61824 6.2217 3.91 9.163 3.0901 2.761 3.7196 4.0935 3.002 6.3545-0.68927 2.1717-1.6162 2.7256-3.8474 2.2991-2.2548-0.431-3.0267 0.048-3.3145 2.0551-0.25998 1.8135-2.9567 3.9297-8.7838 6.8925l-8.4086 4.2756-5.1793-2.3355c-4.985-2.2478-16.129-11.909-16.129-13.983 0-0.5535 1.4062-3.0759 3.125-5.6053 3.6238-5.3329 3.9473-9.2513 1.0996-13.317-1.7555-2.5063-1.7971-3.3195-0.3125-6.1014 2.0143-3.7744 1.9987-16.884-0.0209-17.558-1.7303-0.5768-1.8393-6.0809-0.14118-7.1304 2.303-1.4234 1.3532-6.7318-1.4753-8.2456-2.6419-1.4139-2.6532-1.5112-0.3695-3.181 2.1548-1.5757 2.2288-2.328 0.86743-8.8184-2.8264-13.475-6.4882-11.687-8.753 4.2735-0.75872 5.3469-4.714 20.972-8.7896 34.722s-7.7652 26.406-8.1993 28.125c-1.8202 7.207-3.0448 26.224-2.1932 34.06 0.79219 7.2892 1.5021 9.0444 5.2271 12.924 6.1886 6.4456 14.703 10.344 28.495 13.047 17.373 3.4047 30.217 2.7625 39.72-1.9858zm268.28 2.0126c14.871-2.7321 23.241-6.4262 29.623-13.074 3.725-3.8798 4.4349-5.635 5.2271-12.924 0.85158-7.8354-0.37302-26.853-2.1932-34.06-0.43409-1.7188-4.1238-14.375-8.1993-28.125-4.0756-13.75-8.0308-29.375-8.7896-34.722-2.2648-15.961-5.9266-17.749-8.753-4.2735-1.3614 6.4904-1.2874 7.2428 0.86743 8.8184 2.2837 1.6698 2.2724 1.7671-0.3695 3.181-2.8285 1.5138-3.7783 6.8222-1.4753 8.2456 1.726 1.0667 1.5761 6.558-0.19513 7.1484-2.1004 0.7001-2.0649 15.128 0.0434 17.669 1.4341 1.7279 1.3838 2.6957-0.327 6.301-2.7202 5.7324-2.562 7.5937 1.1037 12.988 1.7188 2.5294 3.125 5.0517 3.125 5.6052 0 2.0647-11.133 11.731-16.08 13.962l-5.131 2.3137-8.3022-4.0871c-4.8075-2.3667-8.5602-5.0739-8.9151-6.4311-0.37678-1.4409-1.7284-2.344-3.5079-2.344-4.9587 0-5.3488-4.8384-0.72347-8.9711 3.2918-2.9413 3.91-4.39 3.91-9.163 0-4.8705-0.45116-5.875-3.2014-7.1282-2.5623-1.1675-3.0491-2.0656-2.4383-4.4992 0.41973-1.6723 1.6114-3.8889 2.6483-4.9256 1.0368-1.0369 1.5716-2.7025 1.1883-3.7013-0.38329-0.9989-0.69689-2.8247-0.69689-4.0576 0-1.4905-1.2563-2.4928-3.75-2.9915-4.5791-0.9158-4.8189-3.5403-0.625-6.8391 5.2301-4.1142 3.5615-11.226-3.1324-13.351-3.2185-1.0215-3.214-3.8924 0.007-4.7347 3.6228-0.9475 3.3183-7.2287-0.53729-11.084-4.7878-4.7877-9.2648-6.7906-11.719-5.2426-2.7874 1.7582-4.2653 11.039-2.6896 16.89 1.6676 6.193 1.7627 40.912 0.13818 50.424-0.7045 4.1249-1.1766 17.95-1.0491 30.724l0.23176 23.224 3.75 6.0308c4.5516 7.32 8.2936 10.227 17.06 13.255 8.6417 2.9843 17.43 2.9711 33.877-0.05zm-290.72-52.014c5.569-4.2476 4.211-5.9612-4.1731-5.2659-8.6389 0.7164-10.916 2.7334-6.8439 6.0611 3.9078 3.1932 5.9845 3.0432 11.017-0.7952zm285.58 0.7952c2.2515-1.8397 2.6064-2.7621 1.4972-3.8913-1.7839-1.816-11.976-3.0859-15.051-1.875-1.9642 0.7736-1.7033 1.3414 2.0822 4.531 5.0707 4.2726 7.4416 4.528 11.471 1.2353zm-289.64-12.549 7.5913-0.7895-5.927-2.994-5.927-2.994-3.7161 3.5603c-3.438 3.2937-4.1608 6.8176-0.99742 4.8625 0.76167-0.4708 4.8009-1.2111 8.9761-1.6453zm290.26-3.5601-3.2506-3.2505-5.9611 3.0105-5.9611 3.0106 7.8325 0.8117c4.3078 0.4462 8.2336 1.2126 8.724 1.703 0.49032 0.4903 1.111 0.2331 1.3792-0.5717 0.26824-0.8046-0.97506-2.9257-2.7629-4.7136zm-280.79-6c0-2.3767-1.7926-3.3918-4.2941-2.4319-1.5638 0.6001-1.6958 1.1653-0.58475 2.5041 1.8786 2.2636 4.8788 2.2193 4.8788-0.072zm268.63 0.073c1.1107-1.3383 0.9809-1.9033-0.57418-2.5-3.3369-1.2808-4.3047-0.892-4.3047 1.7287 0 2.8755 2.7691 3.3131 4.8788 0.771zm-274.41-7.0795c6.4495-2.8529 7.4093-5.6354 2.5775-7.4726-4.4039-1.6742-4.2954-1.7002-11.185 2.6693-5.7643 3.6555-5.989 3.992-3.7558 5.625 3.2103 2.3474 5.5509 2.1917 12.364-0.8218zm287.68 0.8217c2.2332-1.633 2.0085-1.9695-3.7558-5.625-6.6444-4.2139-8.2839-4.569-11.974-2.5942-3.8603 2.066-2.8269 4.6733 2.8947 7.3033 6.459 2.969 9.7098 3.2009 12.835 0.9159zm-298.15-12c1.6667-1.0941 1.6667-1.3677 0-2.4618-2.8104-1.8448-3.75-1.5365-3.75 1.2309s0.9396 3.0758 3.75 1.2309zm300-1.2309c0-2.7674-0.9396-3.0758-3.75-1.2309-1.6667 1.0941-1.6667 1.3677 0 2.4618 2.8104 1.8449 3.75 1.5365 3.75-1.2309zm-282.85-7.7254c2.9485-2.447 1.6512-4.5233-4.0373-6.4616-5.9623-2.0315-11.7-1.1329-15.519 2.4306-1.5172 1.4157-0.78938 2.1267 4.8545 4.7414 6.7424 3.1239 10.288 2.9525 14.702-0.7104zm279.27-0.4843c3.2547-1.6832 3.6138-2.2787 2.179-3.6135-3.7775-3.5147-9.5277-4.3824-15.517-2.3417-6.7949 2.3153-7.038 4.9933-0.739 8.141 4.4065 2.202 6.1002 1.939 14.077-2.1858zm-282.06-18.427c5.3554-1.9596 7.5906-3.4491 7.8612-5.2382 0.96278-6.3674 1.8146-8.3614 5.2372-12.26 2.0187-2.2991 5.9481-5.2074 8.7319-6.4628 4.1964-1.8922 5.0616-2.891 5.0616-5.8426 0-6.7015-8.6813-12.292-20.571-13.246-8.6238-0.6923-13.39 0.8861-24.73 8.1891-8.0052 5.1552-8.4718 6.6001-4.5893 14.21 1.435 2.8129 3.2929 8.819 4.1286 13.347 1.3016 7.052 1.9581 8.355 4.5784 9.0862 4.7741 1.3324 6.2944 1.1425 14.292-1.7839zm284.56 0.8813c0.43527-0.2537 1.1653-3.4538 1.6222-7.111 0.45695-3.6572 2.2102-9.6267 3.8961-13.266 1.6859-3.6389 3.0604-7.5446 3.0544-8.6795-0.0113-2.2286-11.262-10.011-19.361-13.394-12.649-5.2829-33.128 1.9903-33.128 11.766 0 2.9516 0.86518 3.9504 5.0616 5.8426 2.7839 1.2554 6.7132 4.1637 8.7319 6.4628 3.4288 3.9053 4.3136 5.983 5.2203 12.26 0.68571 4.7465 19.379 9.3403 24.903 6.1195zm-302.72-45.315c11.616-8.4146 26.435-8.5553 42.997-0.4085 0.58992 0.2902 0.65036-1.9302 0.13432-4.9341-0.51604-3.004-0.90802-7.9097-0.87109-10.902l0.0671-5.44-3.3265 3.1098c-8.3237 7.7816-21.167 10.214-35.094 6.6458-4.3892-1.1243-8.2399-1.7848-8.5572-1.4675-0.94001 0.94-1.9654 16.967-1.0856 16.967 0.44383 0 3.0252-1.6069 5.7363-3.5707zm309.64-4.7322c-0.42644-4.5666-0.98639-8.514-1.2443-8.772-0.25794-0.2578-4.0601 0.4512-8.4492 1.5755-13.927 3.5679-26.77 1.1358-35.094-6.6458l-3.3265-3.1098 0.0671 5.44c0.0369 2.992-0.35505 7.8977-0.87108 10.902-0.51604 3.0039-0.4556 5.2243 0.13432 4.9341 16.676-8.2029 32.949-7.8989 43.573 0.8138 2.0625 1.6915 4.2532 3.0958 4.8682 3.1204 0.62452 0.025 0.77592-3.621 0.34292-8.2579zm-320.86 2.2917c-0.0165-1.8217-0.18661-1.8547-1.2309-0.2388-1.582 2.448-1.582 4.1028 0 3.125 0.6875-0.4249 1.2414-1.7237 1.2309-2.8862zm327.67 0.1675c-1.0894-1.8736-1.3334-1.9275-1.3646-0.3022-0.0404 2.1051 1.274 4.0005 2.1599 3.1147 0.29219-0.2922-0.0657-1.5578-0.79532-2.8125zm-280.59-19.795 6.434-2.8556 0.60651-21.066c0.98211-34.111 2.0297-41.192 13.472-91.066 4.2784-18.648 12.488-44 19.228-59.375 4.8707-11.111 7.8462-27.232 9.5758-51.88 1.4817-21.114-0.79128-54.547-5.1955-76.42-2.6876-13.348-2.6883-14.972-0.007-19.201 0.65365-1.0312 2.6749-7.2187 4.4917-13.75 3.8717-13.918 4.503-35.112 1.1562-38.81-2.5884-2.8602-2.4401-3.5452 3.7481-17.314 11.596-25.801 19.751-47.199 25.124-65.918 3.0562-10.649 5.557-19.89 5.557-20.535 0-0.6449-1.5469-1.1748-3.4375-1.1776-5.9684-0.01-46.22-6.1851-65.837-10.102-23.447-4.6818-46.369-10.673-68.847-17.994-9.5188-3.1004-17.431-5.4991-17.583-5.3304-0.15176 0.1688 0.2075 3.1193 0.79838 6.5568 1.338 7.784 3.1155 21.23 4.9572 37.5 0.77825 6.875 3.0256 19.25 4.9942 27.5 12.788 53.592 14.079 76.524 5.7721 102.5-9.5258 29.788-10.861 41.903-10.198 92.5 0.75466 57.545 2.7666 83.113 9.3934 119.38 6.1659 33.74 8.5105 48.799 10.12 65 0.64892 6.5313 1.7931 16.938 2.5426 23.125 0.74954 6.1875 1.6161 17.06 1.9257 24.161l0.56293 12.911 4.6051 1.9821c5.0171 2.1593 19.867 3.9239 25.855 3.0721 2.0625-0.2933 6.6453-1.8185 10.184-3.389zm-2.06-283.9c0-0.4413 1.4118-2.88 3.1374-5.4195 1.7256-2.5394 2.6468-4.7805 2.0471-4.9804-0.59964-0.1999 0.30876-4.1393 2.0187-8.7542 2.7228-7.3486 3.2163-11.263 3.9735-31.516 0.87503-23.404 1.721-27.537 6.1187-29.89 3.082-1.6495 8.22 1.0642 8.7293 4.6104 0.21977 1.5303-0.74197 5.1725-2.1372 8.0937-1.5685 3.2839-3.5637 12.707-5.2271 24.686-2.472 17.804-5.0352 27.632-9.006 34.533-1.6184 2.8126-9.6543 10.002-9.6543 8.6368zm-34.146-26.479c-8.8442-17.592-10.245-26.691-4.1085-26.691 4.2521 0 6.0482 2.787 5.0895 7.8974-0.52282 2.7869 0.15876 8.2182 1.907 15.197 1.4964 5.9729 2.4276 11.153 2.0694 11.511-0.35816 0.3581-2.589-3.2032-4.9574-7.9144zm4.4535-22.981c-12.672-14.943-16.201-25.78-14.674-45.067 0.90048-11.377 2.2779-14.224 6.4939-13.42 2.5824 0.4923 3.7454 5.655 1.7284 7.6721-2.2873 2.2873-1.565 19.286 1.2653 29.775 1.5571 5.7706 4.8725 13.366 8.167 18.709 3.0502 4.9474 5.3633 9.5428 5.1402 10.212-0.22309 0.6694-3.8774-2.877-8.1206-7.8806zm300 333.42 4.6875-2.0028v-11.296c0-6.2128 0.54568-13.695 1.2126-16.626 0.66694-2.9317 1.8234-12.08 2.5699-20.33 2.1271-23.508 4.826-42.017 11.209-76.875 7.216-39.406 9.8319-79.05 9.238-140-0.35533-36.468-1.495-44.949-9.3337-69.454-9.1131-28.49-8.0836-49.844 5.0584-104.92 1.9685-8.25 4.2159-20.625 4.9942-27.5 1.7924-15.833 3.608-29.642 4.86-36.963l0.97711-5.7134-11.132 4.1894c-17.739 6.676-30.722 10.073-63.404 16.589-31.89 6.3581-64.718 11.274-75.293 11.274h-6.1561l0.87066 4.0625c4.2236 19.707 14.008 47.246 28.23 79.454 4.0415 9.1526 7.3481 17.264 7.3481 18.027 0 0.762-0.81919 2.2908-1.8204 3.3971-3.3469 3.6983-2.7155 24.892 1.1562 38.81 1.8168 6.5313 3.8381 12.719 4.4917 13.75 2.6806 4.229 2.6799 5.8528-0.008 19.201-4.4042 21.873-6.6771 55.305-5.1955 76.42 1.7296 24.648 4.7051 40.768 9.5758 51.88 6.7399 15.375 14.95 40.727 19.228 59.375 11.437 49.85 12.49 56.959 13.47 90.977l0.60476 20.977 4.9904 2.5459c2.7447 1.4003 7.2805 2.9369 10.08 3.4146 7.002 1.1954 21.824-0.2382 27.489-2.6587zm-38.648-286.91c-7.5717-6.4134-10.645-15.264-14.18-40.841-1.587-11.482-3.5737-20.809-5.125-24.061-1.3933-2.9212-2.3535-6.5634-2.1337-8.0937 0.50929-3.5462 5.6473-6.2599 8.7293-4.6104 4.3977 2.3535 5.2436 6.486 6.1187 29.89 0.7572 20.253 1.2507 24.167 3.9735 31.516 1.7099 4.6148 2.6183 8.5542 2.0187 8.7541-0.59964 0.1999 0.37157 2.5146 2.1582 5.144 1.7867 2.6292 3.0543 4.9747 2.8169 5.2121-0.23738 0.2374-2.2068-1.072-4.3764-2.9096zm33.35-16.2c0-0.5776 1.1565-5.4995 2.5701-10.938 1.6222-6.241 2.3-11.668 1.8379-14.715-0.8455-5.5743 0.80735-8.2978 5.0359-8.2978 6.0672 0 4.684 9.1639-4.0094 26.562-3.9372 7.8799-5.4344 9.9151-5.4344 7.3875zm-7.444-21.965c-0.0308-0.6271 2.4396-5.4084 5.4898-10.625 3.0502-5.2167 6.7065-13.692 8.125-18.835 2.7972-10.14 3.5076-27.347 1.2233-29.631-2.2124-2.2124-0.84188-7.2231 2.0902-7.642 4.7849-0.6837 5.8453 2.56 5.9511 18.204 0.1095 16.184-1.5858 23.007-7.9925 32.169-4.6109 6.594-14.816 17.808-14.887 16.36zm-160.02-169.8c0.0224-3.6094 1.1658-9.6562 2.5409-13.438 2.4601-6.7652 4.0346-14.686 10.808-54.375 2.6926-15.776 3.4199-24.092 3.4438-39.375 0.0166-10.656-0.38393-20.858-0.89017-22.671-1.5664-5.6092-6.893-5.5705-23.764 0.17228-15.149 5.1564-21.836 6.4782-15.929 3.1486 1.7188-0.96895 8.1875-3.5669 14.375-5.7732s11.675-4.378 12.194-4.8259c3.2579-2.8094-54.823-42.932-81.389-56.225-8.4947-4.2503-15.131-8.0417-14.747-8.4254 0.91363-0.91361 17.476 5.0526 30.499 10.987 5.6689 2.583 18.427 9.5374 28.35 15.454 19.585 11.677 42.201 22.028 53.937 24.685 10.914 2.4714 27.028-1.0219 38.492-8.3445 3.5274-2.2531 10.562-6.1831 15.632-8.7333 9.818-4.9384 41.503-17.268 42.308-16.464 0.72754 0.72752-6.4892 4.8829-19.36 11.147-6.371 3.1009-17.262 9.4866-24.203 14.19-6.9406 4.7038-16.32 10.421-20.844 12.705-6.0495 3.0546-7.7575 4.4416-6.4583 5.2445 0.97147 0.60041 1.5014 1.2629 1.1775 1.4721-0.32384 0.20925-1.6856 0.98646-3.0261 1.7271-1.3405 0.74066-3.5905 2.8928-5 4.7824-4.2319 5.6736-3.4063 33.061 2.2647 75.121 2.5028 18.562 5.3937 37.241 6.4241 41.507 1.0304 4.2663 1.8735 11.157 1.8735 15.312v7.5556h8.6814c10.128 0 32.135-3.104 66.319-9.3542 27.036-4.9434 42.201-8.7428 71.875-18.008 11-3.4347 23.257-7.1673 27.239-8.2949 6.116-1.732 7.1228-2.4156 6.4909-4.4066-0.41137-1.2961 0.39134-10.109 1.7838-19.584 7.4388-50.618 8.8614-64.292 8.8494-85.063-0.0196-34.088-2.2833-50.393-15.182-109.35-1.443-6.5959-3.5552-8.9731-5.3675-6.0407-0.38982 0.63073-10.599 6.2833-22.686 12.561-12.088 6.2779-26.849 14.418-32.803 18.089-22.182 13.676-44.303 25.818-46.282 25.403-2.3242-0.48753 1.7204-3.2831 18.582-12.843 5.8438-3.3134 16.531-9.5487 23.75-13.856 35.993-21.478 57.085-34.241 59.045-35.728 2.0406-1.5486 1.9523-2.3925-1.4814-14.147-4.3394-14.855-6.7769-20.916-9.2306-22.952-0.99624-0.8268-2.1932-4.0501-2.66-7.1629-0.46679-3.1128-1.2311-5.4632-1.6984-5.2232-9.0446 4.6458-17.413 8.4616-18.558 8.4624-0.80207 0.00054-1.6751-0.64939-1.9401-1.4443-0.34993-1.0498-2.9599-0.83797-9.5384 0.77415-4.9811 1.2207-9.3212 1.9548-9.6446 1.6314-0.32342-0.32344 5.4341-4.328 12.794-8.8992 11.036-6.8538 14.316-8.3111 18.708-8.3111h5.3259l-1.8112-4.3348c-0.99616-2.3842-1.8112-5.4413-1.8112-6.7936s-0.54631-3.8957-1.214-5.6519l-1.214-3.1931-4.7235 3.2289c-6.7482 4.6129-16.139 9.2445-18.744 9.2452-1.226 0.00034-5.0416 1.0675-8.479 2.3715-10.648 4.0391-34.247 8.7054-51.25 10.134-8.9375 0.75072-21.731 2.1816-28.429 3.1796-21.966 3.2729-88.238 1.8736-125.95-2.6591-45.38-5.455-81.842-14.255-101.63-24.529-7.5374-3.9129-11.19-5.2146-11.941-4.2549-0.59469 0.76055-1.43 4.0586-1.8562 7.3289-0.7645 5.8659-0.70361 5.9985 4.5148 9.8275 6.1074 4.4813 11.486 6.9818 29.62 13.772 27.695 10.369 49.82 14.636 99.023 19.096 56.396 5.112 94.742 3.5915 154.77-6.1371 9.9688-1.6156 21.219-3.2937 25-3.7292 6.3708-0.73379 6.7262-0.64119 4.8468 1.2628-4.0638 4.1167-26.971 9.034-72.347 15.53-13.768 1.9711-42.416 3.5601-80.625 4.472-45.128 1.077-45.705 0.98786-120.62-18.65-12.895-3.38-36.047-11.2-41.485-14.011-4.72-2.4408-4.7653-2.4055-4.7653 3.7183 0 3.3338-0.73107 6.0787-1.871 7.0248-3.8563 3.2004-8.1056 21.624-17.443 75.628-6.9469 40.177-10.698 76.403-10.673 103.06 0.0113 11.914 2.9373 47.324 6.2025 75.063 0.68788 5.8438 0.93938 11.609 0.55888 12.812-0.84005 2.6551-0.37552 2.8469 26.976 11.139 34.829 10.559 66.71 18.055 99.375 23.367 38.163 6.2059 36.709 6.016 47.812 6.2454l9.0625 0.1873 0.0408-6.5625zm148.09-84.2c-32.569-4.6159-40.457-6.1235-52.5-10.035-7.5625-2.4561-17.32-6.0786-21.683-8.05-18.333-8.2837-36.196-25.547-30.242-29.226 1.4656-0.90577 14.269 5.5441 19.425 9.7853 6.0644 4.9889 2.6252 5.2209-5.1645 0.3485-3.9475-2.4692-7.4941-4.1603-7.8814-3.7581-1.4566 1.5128 12.011 11.821 22.328 17.089 16.453 8.4023 35.35 14.064 59.047 17.691 11.456 1.7536 23.803 3.1884 27.438 3.1884 4.3626 0 6.1872 0.4207 5.3699 1.238-1.4725 1.4725-10.854 2.4777-16.137 1.7289zm-244.9-7.7986c-0.77631-1.2561 5.9542-3.522 20.521-6.9085 4.4688-1.0389 16.281-3.8456 26.25-6.2372 46.318-11.112 65.965-12.221 63.219-3.5684-1.0583 3.3345-10.26 9.4767-19.217 12.828-11.014 4.1209-11.123 2.3578-0.30498-4.9318 5.5294-3.7259 10.054-7.0131 10.054-7.3048 0-0.98506-13.007 1.1761-36.875 6.1268-45.76 9.4915-62.348 12.097-63.646 9.9957zm219.9-22c-14.91-2.78-41.88-13.41-41.88-16.51 0-2.7182 4.932-1.8659 11.739 2.0287 13.736 7.8592 33.052 13.462 48.529 14.077 3.9333 0.15628 6.4607 0.71707 5.625 1.2481-2.2411 1.4241-14.039 1.0056-24.017-0.85203zm19.375-5.7192c-2.4062-2.0661-6.7656-5.453-9.6875-7.5264-8.3004-5.8902-7.2317-7.3998 5.2387-7.3998 5.8032 0 10.899 0.5625 11.324 1.25 0.48504 0.7848-2.2787 1.25-7.4262 1.25-4.5093 0-8.1988 0.52484-8.1988 1.1663 0 0.64148 2.5606 3.2645 5.6902 5.829s6.2432 5.6959 6.919 6.9587c1.6204 3.0277 1.2974 2.8998-3.8592-1.5278zm-136.88-57.41c-19.364-3.9091-73.519-20.271-83.353-25.183-7.9919-3.9924-6.5461-5.0119 2.3277-1.6413 19.327 7.3412 66.385 20.264 86.025 23.624 10.878 1.8609 29.375 2.6464 29.375 1.2476 0-0.37673-1.5469-2.0464-3.4375-3.7105-3.0928-2.7222-3.1868-3.029-0.9375-3.0604 3.4562-0.0481 10.625 4.5186 10.625 6.7685 0 1.0172-1.088 2.4317-2.4178 3.1434-3.7588 2.0116-25.744 1.3282-38.207-1.1878zm32.449-20.101c-0.45316-0.73324-0.62699-1.4814-0.38627-1.6626 4.2077-3.1673 81.155-43.254 83.027-43.254 2.6737 0-23.712 15.628-45.089 26.707-5.236 2.7134-1.9282 2.5194 5.2662-0.30891 10.567-4.1541 35.07-12.648 36.487-12.648 2.1914 0 1.5846 2.1432-0.81552 2.88-1.2031 0.36935-6.4062 2.4474-11.562 4.6179-5.1562 2.1705-18.094 7.2091-28.75 11.197-10.656 3.9877-22.874 8.7252-27.15 10.528-8.6713 3.6554-9.8415 3.8618-11.027 1.9443zm-86.199-19.148c-29.534-10.529-58.207-23.415-66.343-29.815-1.9921-1.567-3.0267-3.4822-2.7874-5.1601 0.33813-2.3709 1.2969-2.7089 8.6037-3.033 8.8426-0.3922 15.537 0.91443 51.777 10.106 18.52 4.6972 85.047 19.634 87.447 19.634 0.37309 0 0.67833 0.84375 0.67833 1.875 0 2.2815 2.0262 2.3343-21.25-0.55327-21.319-2.6448-43.907-6.9298-63.125-11.975-40.065-10.518-49.405-12.539-46.771-10.118 1.3169 1.2098 20.275 10.164 43.958 20.762 23.058 10.318 29.452 13.91 24.375 13.693-0.85938-0.0368-8.3125-2.4732-16.562-5.4145zm225.62-3.1556c1.0312-0.58343 3.2812-1.4335 5-1.8891l3.125-0.82835-3.125 1.8828c-1.7188 1.0356-3.9688 1.8857-5 1.8891-1.6667 0.005-1.6667-0.11163 0-1.0545zm-112.48-10.42c0.0125-0.89121 6.8594-3.7822 15.938-6.7291 8.7538-2.8416 25.76-9.6577 37.791-15.147 12.031-5.4892 23.562-10.359 25.625-10.821l3.75-0.84072-3.75 2.6171c-5.4348 3.7929-21.341 11.76-33.349 16.704-8.838 3.639-43.831 15.779-45.483 15.779-0.29897 0-0.53389-0.70313-0.52204-1.5625zm19.565-87.876c20.312-4.0381 23.978-4.9197 42.288-10.17 34.329-9.8438 45.82-15.61 59.054-29.631l6.5537-6.944-4.0537 0.77752c-4.5336 0.86956-7.5536 2.7888-20.543 13.055-6.5197 5.153-12.529 8.4788-21.875 12.108-15.649 6.0758-31.388 10.551-35.126 9.988-2.8902-0.43556-3.6429-0.0321 32.085-17.196 13.431-6.4524 17.362-9.0146 23.75-15.482 12.28-12.432 16.87-22.299 21.345-45.891 2.6305-13.867 2.4461-20.692-1.085-40.154-1.6611-9.1551-3.3841-21.427-3.829-27.271-0.44489-5.8438-1.5915-17.094-2.548-25-3.507-28.988-6.2286-80.366-6.125-115.62 0.1145-38.974 1.116-46.855 8.1257-63.956 3.5198-8.5865 5.3933-11.143 15.192-20.732 11.118-10.881 14.825-12.805 17.692-9.1849 1.9563 2.4706 51.868 6.2947 70.138 5.3738 10.63-0.53583 21.832-2.5278 49.375-8.7802 19.594-4.448 42.656-10.151 51.25-12.673 19.628-5.7604 36.859-8.1094 60-8.1796 17.945-0.0544 23.501-0.73093 35.625-4.3384 3.4375-1.0228 14.406-3.8346 24.375-6.2486 26.32-6.3734 45.422-14.033 87.77-35.192 19.083-9.535 47.605-21.554 54.826-23.102 4.4703-0.9587 6.1539-1.907 6.1539-3.4662 0-2.1752 2.252-5.1464 3.9007-5.1464 0.4954 0 1.2539 1.6084 1.6857 3.5743s2.4452 5.1649 4.4743 7.1089 3.6893 4.5144 3.6893 5.712c0 2.4312 4.8195 3.607 24.517 5.9815 17.471 2.1062 18.962 1.9005 31.824-4.3912 17.401-8.5118 20.568-9.4315 32.409-9.4118 10.527 0.0175 10.58 0.002 5.75-1.6952-6.7613-2.3756-9.0539-6.7892-5.4375-10.468 0.8643-0.87915-1.3907-0.43227-5.0463 1-5.63 2.2059-9.3555 2.5894-25.156 2.5894-23.676 0-26.36-0.50069-26.36-4.9173 0-5.4461 2.6435-7.8741 8.7473-8.0342 3.3618-0.0881 5.6295 0.45681 5.9542 1.4309 0.2884 0.86529 2.0204 2.3345 3.8489 3.265 2.8582 1.4544 4.903 1.366 14.575-0.63029 6.1875-1.2771 14.107-2.3315 17.599-2.343 5.7458-0.019 6.3398-0.2842 6.25-2.7908-0.1533-4.2765 4.7102-5.8011 21.219-6.6514 12.435-0.64049 17.231-0.31667 28.682 1.9364 17.42 3.4275 27.254 4.3462 30.011 2.8034 1.916-1.0723 1.672-1.5876-2.1217-4.4812-5.9593-4.5454-20.303-9.7829-28.515-10.412-3.7812-0.28972-15.944-1.3477-27.03-2.3511-24.024-2.1746-37.506-2.3369-38.663-0.4654-0.5429 0.87835-1.2688 0.92994-2.0529 0.14586-0.7841-0.78407-3.636-0.58035-8.0644 0.57608-7.0574 1.8429-56.924 12.01-66.378 13.533-2.9219 0.47082-5.3125 1.3691-5.3125 1.9962 0 0.62707-3.2344 1.145-7.1875 1.151s-14.219 0.84149-22.812 1.8567c-34.995 4.134-51.819 3.8343-111.25-1.9821-8.9634-0.87724-20.492-1.0498-30.625-0.45851-8.9375 0.52159-17.656 0.94739-19.375 0.9462-10.171-0.007-50.585 8.0688-60.625 12.115-1.375 0.55406-21.344 1.6402-44.375 2.4135-29.956 1.0059-46.322 2.1184-57.5 3.9084-21.424 3.4309-36.966 4.4394-39.247 2.5466-0.98612-0.8184-11.262-3.4636-22.835-5.8781-37.078-7.7355-69.997-7.2532-103.94 1.523-9.3424 2.4153-18.277 4.0675-19.855 3.6714-2.049-0.51426-2.8691-0.17734-2.8691 1.1787 0 2.4884-6.1877 2.53-9.4486 0.0635-1.3345-1.0094-3.8485-1.8531-5.5867-1.875-4.6709-0.0588-18.788-7.2655-34.15-17.434-7.4584-4.9367-18.286-11.531-24.062-14.654-10.128-5.4761-13.471-8.4939-7.7533-6.9986 2.2588 0.59068 1.658-0.66936-3.3714-7.071l-6.1199-7.7897-3.8161 4.3371c-5.3165 6.0424-23.772 16.499-31.045 17.59-3.2426 0.48627-5.8957 1.4777-5.8957 2.2032 0 0.75221-1.4204 1.0476-3.3051 0.68732-1.8178-0.3475-5.0522-0.12162-7.1875 0.50199-2.1353 0.62359-9.1648 1.6901-15.621 2.37-16.321 1.7188-23.555 5.2857-33.74 16.637l-7.9791 8.8922 3.6041 1.4359c1.9823 0.78975 8.1041 1.7844 13.604 2.2103l10 0.7744 14.097-13.715c18.798-18.289 22.307-20.093 16.344-8.4042-1.4766 2.8945-6.3184 9.0267-10.76 13.627l-8.075 8.3645 4.1971 1.7755c5.0858 2.1514 7.9566 5.3199 9.0733 10.014 0.69713 2.9304 0.109 4.2463-3.519 7.8744-4.2992 4.2992-4.4832 4.3522-14.107 4.0684-10.875-0.3208-22.504 1.0511-23.573 2.781-0.38509 0.6231-1.8312 1.1329-3.2137 1.1329-1.3824 0-5.0111 1.7184-8.0637 3.8186s-8.6468 4.4681-12.432 5.262l-6.8814 1.4434-3.7346-4.5306c-3.5536-4.3112-4.2037-4.5691-13.419-5.3244-12.22-1.01-27.8-4.24-27.8-5.77 0-0.6406-1.0884-1.1647-2.4187-1.1647-3.0437 0-48.38 21.961-57.491 27.848l-6.7847 4.3844 6.7847 3.4224c8.863 4.4707 27.169 17.006 31.345 21.464 4.4247 4.7237 5.3954 8.3721 2.8931 10.874-1.1037 1.1037-2.8547 2.0067-3.8911 2.0067-2.3804 0-13.971-9.75-28.851-24.269l-11.539-11.259-24.086 16.294c-35.017 23.688-67.811 41.865-84.474 46.822-9.5027 2.8268-2.9846 4.2868 19.138 4.2868 17.718 0 21.64-0.40274 34.375-3.5299 30.936-7.5965 48.445-14.062 62.5-23.08l8.125-5.2129-4.375 0.0395c-2.4062 0.0217-8.5938 0.7981-13.75 1.7253-8.7754 1.5779-11.321 1.5868-9.7679 0.034 1.4797-1.4797 28.39-6.8295 34.407-6.8399 7.3013-0.0128 11.22 2.8294 12.478 9.0512 0.82655 4.0856 1.738 4.3079 3.8428 0.9375 3.5958-5.7578 6.7937-2.3883 8.9337 9.4134 2.4817 13.686 13.792 53.043 17.149 59.673 7.308 14.435 24.073 35.728 24.287 30.846 0.0436-0.99424 0.59808-0.51466 1.2323 1.0657 1.5274 3.8063 12.786 8.7219 25.564 11.161 9.822 1.8749 37.501 1.5965 45.625-0.45889 2.3717-0.60001 2.7939-0.43352 1.7513 0.69068-0.75554 0.81469-6.943 2.636-13.75 4.0473-22.539 4.6732-46.004 1.4425-60.533-8.3346-3.5584-2.3946-6.5539-4.353-6.6567-4.3519-0.10275 0.001-0.2465 10.267-0.31935 22.812-0.14395 24.789-2.0642 56.645-4.8411 80.31-0.96805 8.25-2.1203 19.781-2.5607 25.625-0.44031 5.8438-2.1596 18.116-3.8207 27.271-3.5311 19.462-3.7155 26.287-1.085 40.154 4.4684 23.555 9.0681 33.461 21.279 45.827 7.7228 7.8206 13.097 10.854 47.007 26.531 11.172 5.1652 25.435 8.9478 42.903 11.379 39.151 5.4484 49.629 6.6319 66.25 7.4835 32.69 1.6749 37.058 1.5264 53.962-1.834zm-81.1-69.55c-5.5927-1.4871-7.0479-4.8261-4.0784-9.3581 2.0022-3.0557 2.5188-3.1854 9.6991-2.4349 4.8639 0.50837 9.835 2.0643 13.859 4.3379 9.2807 5.2432 8.8768 6.447-2.163 6.447-5.173 0-9.753 0.5625-10.178 1.25-0.87954 1.4231-0.87686 1.4232-7.139-0.2419zm55.88-208.09c-7.736-1.092-7.227-2.0755 1.875-3.6237 35.805-6.0899 52.97-13.849 72.941-32.971 16.617-15.911 29.354-36.5 55.335-89.452l16.56-33.75 10.395-7.5989c19.22-14.03 41.48-28.02 44.62-28.02 0.8617 0-2.8273 3.3476-8.1977 7.439-15.79 12.03-38.977 35.569-48.08 48.811-9.9826 14.521-28.286 45.837-38.879 66.52-14.409 28.134-26.575 43.73-42.227 54.136-10.659 7.086-25.08 13.815-34.583 16.136-7.9479 1.9413-23.844 3.2132-29.746 2.3802zm-178.41-16.71c-3.1441-2.0826-6.4749-4.7286-7.4018-5.8802-0.92691-1.1515 1.0862 0.004 4.4735 2.5682 3.3873 2.564 7.6061 4.9781 9.375 5.3645 5.315 1.1611 5.8797 1.5316 2.493 1.6352-1.7728 0.0542-5.7956-1.6052-8.9397-3.6878zm-0.66392-8.2962c-0.86726-0.34939-2.1719-1.7472-2.8992-3.1062-1.5732-2.9396 0.41762-6.0612 3.8656-6.0612 2.4531 0 8.9866 4.8924 6.6217 4.9584-0.8188 0.0229-1.8364-0.52091-2.2613-1.2084-0.4249-0.6875-2.2058-1.25-3.9575-1.25-2.3907 0-2.9958 0.49307-2.4262 1.9772 0.41732 1.0875 0.75874 2.2125 0.75874 2.5 0 0.28751 0.81055 0.52276 1.8012 0.52276 0.99067 0 2.1489 0.5625 2.5738 1.25 0.80286 1.2991-1.343 1.5188-4.0768 0.41738zm-10.769-2.3407c-1.2062-3.1434-0.85038-3.9544 0.62317-1.4204 0.72961 1.2547 1.0632 2.5446 0.74141 2.8664-0.32184 0.32184-0.9359-0.32886-1.3646-1.446zm215.16-3.1768c-1.4513-0.8453-2.1875-2.8101-2.1875-5.8382 0-3.9314 1.0332-5.5688 7.454-11.813 5.1085-4.9678 8.4518-7.2488 10.625-7.2488 1.744 0 3.171 0.4845 3.171 1.0767 0 0.59216-1.3409 0.82033-2.9798 0.50703-4.2941-0.82088-17.02 11.935-17.02 17.06 0 4.1757 1.7276 5.1066 9.4772 5.1066 3.0375 0 5.5228 0.5625 5.5228 1.25 0 1.6301-11.229 1.5501-14.062-0.10013zm17.402-6.7221c3.7437-1.6285 7.5928-6.4126 6.2443-7.7611-1.1134-1.1134-5.8333 2.125-5.8333 4.0023 0 1.0071-0.5625 1.831-1.25 1.831-2.5098 0-1.1616-4.8881 2.0436-7.4093 4.1428-3.2587 7.5585-3.3137 8.5664-0.13794 1.5351 4.8366-4.5804 11.341-10.576 11.248-3.0094-0.0466-2.9712-0.13075 0.80472-1.7733zm-231.54-2.4838c1.3345-1.0692 2.9752-1.944 3.6458-1.944 1.5882 0 0.87904 0.57738-2.9472 2.3996-2.9466 1.4033-2.9865 1.3773-0.69859-0.45568zm7.8861-2.8261c1.5469-0.29795 4.0781-0.29795 5.625 0 1.5469 0.29793 0.28125 0.54171-2.8125 0.54171s-4.3594-0.24378-2.8125-0.54171zm104.16-88.597c0.06-1.4562 0.35617-1.7524 0.7552-0.75522 0.36108 0.90234 0.31668 1.9805-0.0986 2.3958-0.41536 0.41536-0.7108-0.32292-0.65652-1.6406zm8.3388-0.20742c-1.4747-0.33487-2.1875-1.6943-2.1875-4.172 0-2.0214-0.69034-4.7807-1.5341-6.1318-1.1733-1.8787-1.1988-3.3447-0.10862-6.233 1.1332-3.0021 1.0907-3.7766-0.20714-3.7766-2.911 0-3.0987-3.4168-1.3214-24.061 0.96189-11.173 2.451-30.11 3.3092-42.082 0.85816-11.972 1.9479-20.691 2.4216-19.375 1.9873 5.5215 2.0574 50.09 0.11413 72.588l-0.8806 10.195 3.6454-3.0674c8.455-7.1144 30.586-15.337 53.312-19.806 27.074-5.3248 39.549-8.1874 49.641-11.39 5.2013-1.6508 9.8005-2.969 10.221-2.9294 2.6716 0.2519-17.958 8.009-48.611 18.279-19.594 6.5645-40.834 14.369-47.201 17.344-10.895 5.0908-11.722 5.7501-14.062 11.211-1.3678 3.191-2.4869 7.4094-2.4869 9.3743 0 3.9589-0.81739 4.7705-4.0625 4.0336zm231.56-7.55c0-0.54945 2.1094-0.78992 4.6875-0.5344 7.2568 0.71924 7.7855 1.3261 1.25 1.4347-3.2656 0.0542-5.9375-0.35086-5.9375-0.90031zm-252.45-4.59c-6.7819-5.0035-16.111-7.4536-43.174-11.339-23.126-3.32-47.82-10.27-60.938-17.15-8.9957-4.7185-9.4622-6.8148-0.625-2.8081 9.4396 4.2798 29.146 7.6778 57.812 9.9688 28.468 2.2752 29.758 2.461 40.042 5.7669 12.807 4.117 20.151 12.332 15.333 17.151-2.1738 2.1738-3.7536 1.8768-8.4512-1.589zm244.01 1.0111c-1.5754-0.63569-2.2488-5.4222-0.7628-5.4222 0.96975 0 4.105 4.0034 4.1606 5.3125 0.0439 1.0344-1.0208 1.0688-3.3978 0.10962zm58.75-0.0337c1.2031-0.3144 3.1719-0.3144 4.375 0 1.2031 0.31441 0.21875 0.57166-2.1875 0.57166s-3.3906-0.25725-2.1875-0.57166zm25.32-1.64c1.375-0.59086 4.75-1.0473 7.5-1.0142 4.7784 0.0574 4.8338 0.10238 1.25 1.0142-2.0625 0.52481-5.4375 0.98122-7.5 1.0142-3.1756 0.0509-3.3671-0.1045-1.25-1.0142zm15.961-2.1162c1.2162-0.31692 2.9037-0.29609 3.75 0.0464 0.8463 0.34241-0.1488 0.60171-2.2113 0.57623-2.0625-0.0255-2.7549-0.30562-1.5387-0.62255zm-453.5-7.2542c6.3569-5.1949 19.322-11.224 20.849-9.6967 1.8068 1.8068 0.25742 4.0671-2.7878 4.0671-1.3516 0-6.3668 1.9688-11.145 4.375-10.152 5.1125-12.061 5.4588-6.9165 1.2545zm247.54-48.13c-0.4249-0.6875 0.41885-1.25 1.875-1.25s2.2999 0.5625 1.875 1.25-1.2686 1.25-1.875 1.25c-0.60635 0-1.4501-0.5625-1.875-1.25zm-96.016-20.917c-1.1298-1.9187 2.1162-25.383 3.4455-24.906 0.72644 0.26065 1.2358 1.5369 1.132 2.8361-1.2425 15.546-2.0723 21.828-2.9557 22.374-0.58176 0.35955-1.3116 0.22268-1.6218-0.30416zm-127.74 475.08c-2.0625-1.0937-7.4062-4.9176-11.875-8.4975s-9.367-7.283-10.885-8.2292c-1.518-0.94618-3.7367-3.5341-4.9306-5.751-2.3074-4.2845-4.1845-4.4129-4.1845-0.28608 0 1.375-0.49876 2.1918-1.1084 1.815-0.6096-0.37677-1.7827 0.1275-2.6069 1.1206-1.2203 1.4704-0.6309 2.5702 3.1744 5.9237 7.3996 6.5212 8.7832 7.2742 21.573 11.743 13.079 4.5696 16.772 5.3058 10.842 2.1615zm-231.24-342.27c19.763-5.4549 47.1-16.175 63.125-24.756 13.286-7.114 55.065-34.557 60.193-39.539 1.825-1.7729 10.825-7.541 20-12.818 22.735-13.076 43.557-28.746 43.557-32.78 0-2.3016 4.534-3.0776 9.1856-1.5721 7.2567 2.3486 17.941-0.0752 36.341-8.2442 9.6736-4.2948 19.278-9.2607 21.343-11.035 2.0653-1.7746 4.6486-3.5503 5.7408-3.9459 1.893-0.68562 24.144-14.745 26.764-16.91 1.4865-1.2288 19.654-4.9162 29.375-5.9622 15.288-1.645 32.003-5.6219 29.964-7.129-0.97629-0.72139-60.854 2.4294-62.221 3.2741-1.76 1.1-5.24-0.42-5.24-2.28 0-2.3079 8.1142-4.3002 20.679-5.0774 6.1575-0.38086 18.931-1.9223 28.385-3.4254 13.56-2.1558 17.968-2.439 20.877-1.341 2.5133 0.94866 3.8252 0.97859 4.1201 0.094 0.28636-0.85905 1.3985-0.78095 3.2894 0.231 2.386 1.277 3.2515 1.1716 5.2528-0.63949 1.3178-1.1926 2.396-2.7241 2.396-3.4033 0-1.6782-21.225-0.14017-39.748 2.8803-18.082 2.9484-44.413 6.2421-49.902 6.2421-3.5 0-4.0998-0.44115-4.0998-3.0151 0-2.5355-0.78286-3.1474-4.9217-3.8466-4.1484-0.70088-6.5542-0.0531-15.312 4.1226-5.7149 2.7248-15.172 7.7078-21.016 11.073-5.8438 3.3656-17.312 9.4305-25.484 13.478-9.3169 4.6136-15.083 8.2124-15.458 9.6482-0.68577 2.6224-0.9502 2.7028-3.8271 1.1631-1.4395-0.77042-5.6637 0.0304-13.355 2.532-6.1874 2.0124-15.75 4.4587-21.25 5.4362-5.5 0.97758-15.906 3.1745-23.125 4.882-12.692 3.0021-31.23 5.483-61.29 8.202-18.624 1.6846-41.866 5.6542-59.96 10.241-22.18 5.6223-44.998 18.138-56.604 31.047-3.1536 3.5076-5.911 7.6228-6.1274 9.1449-0.25066 1.7627-1.4146 2.9124-3.206 3.1669-2.0733 0.29445-2.8125 1.2336-2.8125 3.573 0 2.7683-0.40254 3.0725-3.1524 2.3824-2.3456-0.58871-3.3647-0.22349-3.9818 1.427-0.45613 1.22-3.2288 6.2963-6.1615 11.281-2.9327 4.9844-4.9277 9.0625-4.4334 9.0625 0.49432 0 3.0553-1.4654 5.691-3.2564 6.2022-4.2145 29.603-15.471 32.038-15.412 1.0312 0.0252-3.4991 2.7798-10.067 6.1212-6.5683 3.3414-12.684 6.9689-13.591 8.0611-0.914 1.1-2.177 1.99-2.814 1.99-1.668 0-16.036 10.3-16.036 11.5 0 0.55216 1.5469 1.0286 3.4375 1.0588 5.88 0.0939 12.091 3.0086 22.75 10.677 12.732 9.1591 19.584 13.694 24.437 16.172 5.4284 2.7718 16.89 1.5828 36.25-3.7608zm-11.88-74.34c0-3.0643 133.83-47.066 140.09-46.058 1.3209 0.21304-5.0488 2.625-14.155 5.3599-9.1061 2.7349-41.166 13.226-71.244 23.314-30.09 10.08-54.7 17.9-54.7 17.38zm270.31-14.517c2.5781-0.44378 4.6875-1.3068 4.6875-1.9178 0-1.2517-13.706-1.529-16.805-0.33991-3.3164 1.2726 0.30152 4.4685 4.1913 3.7024 1.7811-0.35082 5.3477-1.0009 7.9258-1.4447zm42.19-11.91c9.8887-2.0039 10-2.056 10-4.6784 0-5.0885-4.6582-6.3041-28.75-7.5023-18.045-0.89748-24.268-2.8784-26.796-8.5301-1.1184-2.5001-1.5679-2.3194-10 4.0204-4.8559 3.651-12.113 8.613-16.127 11.027l-7.298 4.3885 4.173 0.75087c14.654 2.6367 62.712 2.9737 74.798 0.52453zm873.75-22.232c0-0.61133-0.9844-2.2912-2.1875-3.7331-1.7364-2.0809-4.5075-2.8807-13.438-3.8782-6.1875-0.69117-13.219-1.2075-15.625-1.1474l-4.375 0.10926 5.625 1.723c12.368 3.7884 26.961 7.8686 28.438 7.9509 0.8594 0.0479 1.5625-0.4131 1.5625-1.0244zm-48.706-2.0665c2.3531-2.8354-0.3319-4.9299-6.1253-4.778-4.6722 0.1225-11.419 3.431-11.419 5.5998 0 2.0339 15.788 1.2944 17.544-0.82173zm66.768-5.4296c-0.6531-0.60914-4.5625-1.4401-8.6875-1.8466-7.3887-0.72809-7.4351-0.71306-3.125 1.0124 4.9059 1.964 13.689 2.5842 11.812 0.83414zm10.7-7.7c0-3.0438-1.11-4.3858-6.5625-7.934-3.6094-2.3488-7.955-4.6828-9.657-5.1865-2.9949-0.88643-2.9646-0.76798 0.9375 3.6763 4.5546 5.1875 5.0175 7.7968 1.8445 10.398-2.0122 1.6494-1.9422 1.7398 0.8725 1.1276 1.6829-0.366 3.6516-0.18703 4.375 0.39771 1.621 1.3106 5.9841 2.3114 7.2525 1.6635 0.5156-0.26337 0.9375-2.1274 0.9375-4.1423zm-71.25 1.311c1.4268-0.92201 0.9214-1.2163-2.1137-1.2309-2.1938-0.01-4.3364 0.54336-4.7613 1.2309-0.9901 1.6021 4.3959 1.6021 6.875 0zm18.438-0.86166c-1.2031-0.3144-3.1719-0.3144-4.375 0-1.2031 0.31441-0.2187 0.57166 2.1875 0.57166 2.4063 0 3.3906-0.25725 2.1875-0.57166zm-933.45-25.54c9.2812-3.3904 19.39-7.0871 22.465-8.2149 3.0744-1.1278 8.3451-4.6278 11.713-7.7778l6.123-5.7273 12.037-0.87658c6.6205-0.48211 22.162-1.4839 34.537-2.2262 12.375-0.74226 24.328-1.9387 26.562-2.6588 3.6448-1.1746 4.0625-1.7996 4.0625-6.0785 0-3.1858-0.65321-5.02-1.9674-5.5243-1.0821-0.41522-1.7775-1.741-1.5454-2.9462 0.42432-2.2034 0.8528-2.3734 6.7016-2.66 5.1558-0.25264 7.259-6.9098 7.3553-23.281 0.0641-10.909-0.37649-14.587-2.1326-17.801-3.1978-5.8519-7.4589-8.2812-12.776-7.2837-6.5687 1.2323-10.473 5.3446-11.753 12.381-0.60521 3.3256-1.6742 6.6203-2.3756 7.3217-1.9487 1.9487-4.2364-3.3519-4.4488-10.308-0.22636-7.414 2.7202-11.887 10.515-15.964 4.535-2.3715 6.877-2.793 12.787-2.3017 6.5306 0.54294 7.1662 0.38311 6.5238-1.6406-0.3914-1.2332-0.0416-3.7127 0.77732-5.5101 1.1578-2.5411 1.1415-5.2836-0.0735-12.331-2.3455-13.605-6.1625-28.092-8.9821-34.09-5.8981-12.548-24.982-28.447-41.335-34.437-3.6555-1.339-11.808-3.2674-18.117-4.2853-10.144-1.6366-12.707-1.6352-22.152 0.012-26.759 4.6664-54.095 19.739-69.665 38.412-7.3754 8.8457-16.257 26.532-19.312 38.455-2.5256 9.8582-1.9346 17 4.0331 48.745 2.391 12.719 4.734 27.906 5.2068 33.75 0.81856 10.118 1.0085 10.645 3.9845 11.035 5.1881 0.68079 17.216 9.1887 18.681 13.214 0.72544 1.9932 1.319 6.9753 1.319 11.071 0 6.5938 0.25069 7.3466 2.1875 6.5691 1.2031-0.48298 9.7812-3.6521 19.062-7.0425zm-6.25-17.194v-7.3467l10.938-3.8643c15.011-5.3036 24.333-6.7479 34.374-5.3259 6.7888 0.96142 13.439 3.0642 13.439 4.2494 0 0.15277-4.4029 0.0779-9.7842-0.16654-9.4734-0.43021-10.013-0.29803-16.985 4.1621-9.7567 6.2413-27.866 15.639-30.136 15.639-1.4167 0-1.8444-1.7038-1.8444-7.3467zm120.96-32.11c-0.433-0.433-0.51296-1.5021-0.1777-2.3758 0.33548-0.87423-0.54635-1.8908-1.9611-2.2608-3.4191-0.89411-3.2414-3.9172 0.61725-10.501 4.6441-7.9246 2.4661-10.397-4.21-4.7798-5.5568 4.6758-6.478 4.0599-6.478-4.3315 0-6.5619 0.46662-7.988 3.8893-11.886 4.4823-5.105 7.934-6.328 12.722-4.5076 3.2652 1.2414 4.9858 6.3503 2.1387 6.3503-0.6875 0-1.25-0.5625-1.25-1.25 0-1.8864-5.3383-1.499-8.3428 0.60546-1.457 1.0205-3.2601 3.6083-4.0069 5.7506-1.2145 3.484-1.1292 3.7989 0.80841 2.9838 4.4891-1.8885 7.867-2.083 9.7036-0.5588 2.2529 1.8698 3.6979 0.86222 2.6563-1.8521-0.4071-1.0609-2.1973-1.9289-3.9782-1.9289-1.8404 0-2.9046-0.53955-2.4655-1.25 1.0741-1.7379 7.3079-1.5671 9.125 0.25 3.1657 3.1657 0.81445 14.902-4.173 20.829-3.7804 4.4927-4.1981 7.8229-0.5693 4.5389 4.1155-3.7245 4.553-0.85176 0.48914 3.2121-2.0625 2.0625-4.1043 3.3957-4.5373 2.9627zm-18.123 31.137c-0.84629-0.3424-2.5338-0.36324-3.75-0.0464-1.2162 0.31692-0.52379 0.59707 1.5387 0.62255 2.0625 0.0255 3.0576-0.23383 2.2113-0.57624zm64.252-0.14924c0.80486-0.51199 1.8386-2.4259 2.2972-4.2532 1.2043-4.7985-1.77-5.8745-16.354-5.9162-12.959-0.0371-32.571 3.5989-37.373 6.9288-1.3561 0.94033-4.4498 1.775-6.875 1.8547s-3.5054 0.38675-2.4007 0.68222c1.1048 0.29547 6.4485-0.0606 11.875-0.79123 5.4265-0.73064 17.46-1.3085 26.741-1.284 13.477 0.0355 17.125 0.41726 18.119 1.8962 1.4041 2.0908 1.8979 2.2006 3.9698 0.88267zm-26.253-14.159c4.3532-0.75809 7.9149-1.6242 7.9149-1.9248 0-0.30057-1.078-2.6596-2.3956-5.2423s-2.796-6.9197-3.2853-9.6377c-1.2056-6.6967-2.9803-9.8208-3.0311-5.3357-0.0816 7.2058-5.6883 16.019-10.191 16.019-1.9206 0-2.0423 0.50149-0.90984 3.75 1.4873 4.2664 1.2684 4.2227 11.898 2.3717z"/>
</svg>
