<?xml version="1.0" encoding="UTF-8" standalone="no"?>
<!-- Created with Inkscape (http://www.inkscape.org/) -->
<svg id="svg3336" xmlns:rdf="http://www.w3.org/1999/02/22-rdf-syntax-ns#" xmlns="http://www.w3.org/2000/svg" height="1062.5" viewBox="0 0 1062.5 1062.5" width="1062.5" version="1.1" xmlns:cc="http://creativecommons.org/ns#" xmlns:dc="http://purl.org/dc/elements/1.1/">
 <metadata id="metadata3342">
  <rdf:RDF>
   <cc:Work rdf:about="">
    <dc:format>image/svg+xml</dc:format>
    <dc:type rdf:resource="http://purl.org/dc/dcmitype/StillImage"/>
    <dc:title/>
   </cc:Work>
  </rdf:RDF>
 </metadata>
 <path id="path3346" fill="#fff" d="m302.77 970.07c7.8791-7.5241 16.478-16.805 19.109-20.625 2.6307-3.8196 5.0494-6.9448 5.375-6.9448 0.32555 0 1.315 0.98437 2.1988 2.1875 1.4866 2.0237 1.6955 1.9535 2.7895-0.9375 0.65042-1.7188 0.91964-4.8865 0.59824-7.0395-0.32142-2.153-0.10838-4.2069 0.47327-4.5643 0.58171-0.35741 9.4952-2.4336 19.808-4.6137 34.487-7.2908 55.584-15.938 75.081-30.775 15.204-11.57 16.808-12.1 10.384-3.4298-16.286 21.98-31.124 37.903-49.809 53.455-11.345 9.4424-16.031 12.635-17.05 11.616-0.30524-0.30524 5.2262-5.2727 12.292-11.039 7.0659-5.7661 17.353-14.984 22.861-20.484 9.5477-9.5345 24.366-26.901 24.366-28.557 0-0.42904-2.9531 1.4691-6.5625 4.2181-8.0995 6.1688-25.767 14.939-39.044 19.382-7.5375 2.5224-46.998 11.831-50.153 11.831-0.26983 0-0.49062 2.287-0.49062 5.0822 0 6.9761-1.9516 10.326-5.4969 9.4367-2.256-0.56623-3.7094 0.50303-7.5768 5.5744-6.1439 8.0565-29.273 29.907-31.657 29.907-1.0015 0 4.6256-6.1561 12.505-13.68zm-15.27 10.05c0-0.86162 2.7496-4.7566 6.1102-8.6554s8.1591-10.323 10.663-14.276l4.5533-7.1875h-17.901c-12.05 0-20.336-0.62862-25.351-1.9232-16.17-4.1742-31.473-13.72-41.41-25.831-5.69-6.94-14.16-21.94-14.16-25.07 0-1.0062-5.4094-7.1114-12.021-13.567-30.275-29.562-50.045-58.717-64.003-94.385-2.9791-7.6128-7.5096-16.068-11.806-22.034-3.8345-5.3243-7.6197-11.644-8.4115-14.043-1.3722-4.158-0.80603-9.4093 1.013-9.3947 0.46929 0.004 8.7283 7.6709 18.353 17.038 21.555 20.977 40.97 37.792 57.868 50.119 17.686 12.901 46.016 28.991 62.231 35.344l2.5986 1.0182-2.2757-10.71c-2.4726-11.636-1.896-14.066 3.338-14.066 4.9099 0 10.68-3.1951 13.173-7.294 1.5812-2.6001 3.3927-3.956 5.285-3.956 2.1375 0 3.8988-1.6906 6.8369-6.5625 11.872-19.687 18.356-44.794 19.933-77.188 0.94861-19.483-1.2283-36.399-7.7216-60-3.1209-11.344-10.956-41.541-17.41-67.105-6.4548-25.564-14.574-54.814-18.043-65-10.275-30.174-14.915-57.82-16.044-95.601-0.78127-26.144 0.10725-37.505 4.0407-51.669 0.95465-3.4375 2.5936-10.469 3.6422-15.625 7.8824-38.762 39.343-102.16 72.016-145.11 36.999-48.647 108.38-108.32 161.12-134.69 16.21-8.1063 46.46-19.006 68.159-24.558 29.445-7.5351 75.637-7.3462 98.131 0.4014 36.546 12.588 66.095 44.191 83.041 88.812 7.7528 20.415 12.226 42.441 15.193 74.809 0.80191 8.7492 1.0273 9.2373 7.2318 15.663 11.584 11.997 26.369 36.063 32.441 52.806 5.9921 16.523 7.3445 22.991 7.3492 35.147 0.004 11.067-1.5074 15.478-5.3049 15.478-3.2338 0-3.1052 2.5353 0.49345 9.729 4.2319 8.4594 9.3944 21.809 12.683 32.796 3.4784 11.621 10.202 51.495 11.272 66.85 0.87126 12.498 4.2067 26.896 8.3296 35.956 3.8323 8.4215 3.1854 9.7216-15.955 32.066-7.7654 9.0651-7.4041 10.551 2.262 9.301 4.8694-0.62949 6.0606-0.38794 6.7334 1.3653 0.47208 1.2302-0.006 2.9538-1.1323 4.0798-1.4181 1.4181-1.6474 2.7449-0.84091 4.8661 0.76133 2.0025 0.62668 3.2218-0.42972 3.8908-0.84618 0.53594-3.0404 2.8035-4.8761 5.039-2.7345 3.3302-3.2118 4.9112-2.6413 8.75 0.38295 2.577 1.4816 5.9452 2.4414 7.485 2.7162 4.3574 6.404 21.959 8.0511 38.426 4.1488 41.48-4.1752 69.468-39.187 131.76-8.0738 14.365-40.268 87.937-44.699 102.15-3.9951 12.814-11.189 18.365-26.626 20.547-4.0421 0.57135-7.5771 1.2666-7.8555 1.545-1.2148 1.2148-3.3493 28.952-3.1742 41.249 0.1579 11.089-0.1484 13.608-1.7284 14.214-6.803 2.6106-14.215-18.961-16.258-47.314l-0.78321-10.873-5.8634-1.9475c-3.2249-1.0711-9.7862-4.2599-14.581-7.086-13.43-7.97-38.83-19.17-120.55-53.18-5.84-2.44-16.42-7.47-23.51-11.19-7.08-3.72-13.13-6.76-13.43-6.76-0.30574 0-0.5559 1.3777-0.5559 3.0616 0 5.8109-5.1843 29.901-9.5411 44.336-6.4843 21.483-19.672 46.515-33.969 64.478-10.19 12.803-35.509 37.697-47.74 46.94-9.8703 7.4587-28.064 18.685-30.282 18.685-3.2053 0 0.29536-2.9981 8.7784-7.518 20.374-10.856 55.368-42.956 71.681-65.752 9.0175-12.602 19.97-32.467 24.829-45.034 4.7686-12.333 12.329-42.669 13.345-53.545 0.42277-4.5274 1.1558-8.4709 1.6288-8.7633 0.47308-0.29237 8.9799 3.6299 18.904 8.7162 9.9242 5.0863 25.907 12.316 35.518 16.066 37.376 14.584 100.02 42.579 108.01 48.269 2.0184 1.4373 7.2229 3.9477 11.565 5.5788l7.8955 2.9656 1.3967 15.456c0.76819 8.5007 1.8124 17.42 2.3205 19.821 1.2338 5.8298 8.146 22.49 9.331 22.49 0.51695 0 1.3298-9.9844 1.8064-22.188 0.47655-12.203 1.2667-24.665 1.7559-27.692l0.88949-5.5049 10.282-2.0493c7.0655-1.4082 11.953-3.2232 15.625-5.8018 4.7042-3.3038 5.7299-4.9414 8.5788-13.696 3.2622-10.024 7.7731-20.891 21.511-51.818 18.057-40.65 21.281-47.295 30.948-63.794 10.954-18.694 23.143-47.023 28.219-65.581 3.941-14.41 5.1091-34.718 3.0363-52.789-1.831-15.963-4.7169-29.988-6.8852-33.461-0.8585-1.375-2.2674-5.4638-3.1308-9.0861-1.5208-6.3801-1.4622-6.732 1.872-11.25 1.893-2.5651 4.3092-5.367 5.3693-6.2264 1.6135-1.308 1.0742-1.5625-3.3115-1.5625-5.9986 0-6.9994-1.9147-1.6185-3.0965 1.9912-0.43733 4.6631-1.9729 5.9375-3.4123 2.308-2.6068 2.2998-2.6146-2.0579-1.9624-2.4062 0.36012-6.839 0.30411-9.8507-0.1245l-5.4757-0.77925 5.4757-6.656c3.0116-3.6608 8.1404-9.8483 11.397-13.75 3.2569-3.9017 7.0915-9.255 8.5213-11.896 2.5947-4.7927 2.595-4.8121 0.1568-10-4.279-9.1046-6.535-18.57-7.7934-32.698-1.6727-18.78-8.2896-57.739-11.956-70.392-3.1602-10.908-7.4335-21.752-12.581-31.927-2.4146-4.7731-2.8926-7.12-2.2384-10.992 0.69514-4.1145 1.1287-4.6763 2.6406-3.4215 3.4744 2.8835 4.7899-0.76739 4.6828-12.996-0.0885-10.097-0.76438-13.504-5.4653-27.544-5.089-15.199-8.8118-22.282-22.389-42.592-1.788-2.6748-4.6572-6.9852-6.3759-9.5787-1.7188-2.5935-4.7638-6.0026-6.7669-7.5757l-3.6419-2.8602 0.82092 4.314c0.4515 2.3727 1.1715 5.8608 1.6001 7.7515 0.57604 2.5413 0.30135 3.4375-1.0536 3.4375-1.4367 0-2.0141-2.7692-2.6714-12.812-2.3055-35.226-6.1615-58.184-13.456-80.117-16.44-49.42-46.78-83.681-85.44-96.448-14.18-4.683-25.84-5.927-49.39-5.267-12.783 0.35826-27.979 1.5402-33.978 2.643-14.305 2.6294-48.465 13.045-64.147 19.559-39.378 16.356-90.59 52.887-134.8 96.158-37.258 36.466-56.315 62.226-81.279 109.87-17.223 32.87-27.172 57.935-31.453 79.241-1.1392 5.6702-3.2171 14.247-4.6174 19.059-1.9764 6.792-2.6799 13.656-3.1443 30.675-0.67928 24.897 0.74213 43.793 5.262 69.953 3.2873 19.026 4.5703 23.87 13.575 51.247 3.0527 9.2812 8.4924 28.969 12.088 43.75 7.2425 29.771 10.992 44.171 18.644 71.614 7.3431 26.332 8.8565 34.471 9.7097 52.226 1.15 23.931-3.6442 57.255-10.97 76.251-4.3015 11.154-12.641 24.679-15.825 25.663-4.3078 1.3315-5.9457 2.6643-6.317 5.1404-0.45014 3.0012-4.1123 4.8452-11.96 6.022-3.1834 0.47738-5.784 1.226-5.7791 1.6635 0.005 0.43757 1.1298 5.4718 2.5 11.187 3.4839 14.532 3.5496 14.246-2.7574 12.021-17.898-6.3148-55.886-29.207-78.214-47.132-14.185-11.388-48.856-43.219-55.448-50.906-8.9953-10.49-3.9954 3.4015 6.2566 17.382 3.3243 4.5335 7.6165 12.461 9.5382 17.618 4.2078 11.29 14.928 33.03 22.023 44.66 8.2685 13.554 20.444 28.524 37.385 45.965 13.54 13.939 16.448 17.671 20.454 26.242 2.5686 5.4958 6.9861 12.994 9.8168 16.663 8.8861 11.518 27.847 23.073 43.186 26.318 7.7977 1.6497 42.178 1.7853 38.376 0.15139-1.375-0.59086-5.9256-1.1138-10.113-1.1621-15.373-0.17742-34.249-6.809-47.626-16.733-7.0926-5.2616-18.67-17.989-17.462-19.197 0.28044-0.28043 2.4089 0.60841 4.7299 1.9752 10.664 6.2801 55.414 19.969 72.033 22.035 6.4687 0.80419 6.5625 0.87652 6.5625 5.0623 0 5.1837-7.6204 20.131-15.375 30.157-6.67 8.65-12.11 13.92-12.11 11.74zm21.795-57.695c-13.673-1.0543-29.275-4.3621-44.844-9.5073-17.53-5.78-44.14-25.77-67.07-50.38-25.03-26.86-44.46-52.01-55.55-71.91l-3.484-6.25 6.7613 6.3438c37.643 35.318 74.892 57.857 105.97 64.118l10.455 2.1064 3.4099 9.3409c11.415 31.27 26.64 49.945 40.681 49.899 3.5831-0.0112 3.6387-0.0916 1.25-1.7949-10.155-7.2414-12.734-9.6642-17.735-16.665-5.9983-8.3972-14.797-26.342-18.497-37.722-2.0398-6.275-3.8904-11.093-5.5217-14.375-0.34167-0.6875 3.0765 2.4916 7.596 7.0648 8.8854 8.9908 19.452 14.903 35.195 19.693 14.64 4.4544 44.667 10.209 57.349 10.991 14.067 0.86703 29.773-1.3364 33.903-4.7566 2.6291-2.177 2.522-2.189-3.5388-0.39579-15.374 4.5488-39.956 3.3785-59.851-2.8492-15.046-4.71-40.797-17.016-39.118-18.694 0.33128-0.33129 4.4536 0.58896 9.1606 2.045 6.7855 2.099 11.729 2.6401 23.867 2.6122 25.939-0.0595 41.261-3.8056 62.817-15.358 41.749-22.374 73.055-54.347 87.087-88.941 3.946-9.7286 4.1211-9.948 4.1179-5.1605-0.006 9.825-3.442 28.877-6.5367 36.25-1.7315 4.125-4.0118 10.875-5.0673 15-2.1738 8.495-14.173 34.677-19.428 42.389-12.088 17.743-15.375 21.842-24.092 30.042-18.598 17.495-32.716 26.679-57.597 37.466-23.951 10.384-32.348 11.664-61.689 9.4012zm5.8414-64.173c0.41856-0.44803 5.7372-1.6832 11.819-2.7448 6.082-1.0616 16.146-3.5735 22.364-5.582 12.199-3.9403 36.957-17.304 45.056-24.321l5-4.3317-9.375 4.1738c-10.11 4.51-24.11 9.56-26.47 9.56-0.80095 0 2.4696-4.0781 7.268-9.0625 32.588-33.851 49.062-82.123 49.442-144.87 0.20206-33.354-2.8318-56.4-16.37-124.35-13.18-66.18-17.12-97.52-16.06-127.97l0.627-18.125-1.9976 8.75c-1.579 6.9163-1.9914 16.085-1.968 43.75 0.0321 38.007 0.76281 46.88 9.3146 113.12 7.7184 59.79 9.117 77.254 8.3082 103.75-0.45694 14.97-1.6549 28.635-3.3968 38.75-2.917 16.938-9.9804 43.041-13.119 48.485l-1.9551 3.3903 0.79252-3.75c4.548-21.52 5.7024-65.298 2.4209-91.804-3.5905-29.002-13.969-75.223-18.777-83.629-1.3104-2.2908-1.7101-2.5436-1.2917-0.81715 0.3332 1.375 1.2458 6.1562 2.0281 10.625 0.78226 4.4688 3.5856 19.094 6.2296 32.5 7.548 38.271 8.9346 49.629 8.9277 73.125-0.0125 42.352-11.18 83.808-28.049 104.12-12.24 14.74-28.799 23.66-46.251 24.916-5.3492 0.38511-10.016 1.1696-10.37 1.7434-0.35459 0.57373-1.7436 0.35687-3.0868-0.48193-1.9303-1.2055-2.972-1.1941-4.9708 0.0541-1.7013 1.0625-3.2352 1.191-4.6875 0.39286-3.6016-1.9794-15.603-14.779-14.469-15.431 0.58289-0.33482 3.0286-0.6436 5.4348-0.68619 3.6509-0.0646 5.4497-1.2272 10.868-7.0243 6.912-7.3951 14.219-18.936 17.897-28.267 3.6106-9.1602 8.4608-32.945 10.65-52.229 1.5671-13.802 1.919-26.231 1.5394-54.375-0.48924-36.27-0.52304-36.66-5.7617-66.484-5.7201-32.565-10.646-57.647-13.256-67.5-0.91068-3.4375-3.1677-13-5.0157-21.25-1.8479-8.25-3.7823-16.406-4.2987-18.125-0.51633-1.7188-2.8644-13.104-5.218-25.301s-4.7118-22.181-5.2406-22.188c-0.52873-0.006-0.69894 1.2546-0.37824 2.8014 0.3207 1.5469 0.93291 6.1875 1.3605 10.312 0.42757 4.125 2.9564 21 5.6196 37.5 6.7603 41.883 11.972 81.501 14.963 113.75 4.5011 48.527 4.7564 46.833-3.1082 20.625-6.1004-20.329-10.987-40.223-17.349-70.625-1.0071-4.8125-3.5952-16.906-5.7514-26.875-11.245-51.988-12.219-62.211-10.12-106.25 2.1834-45.823 3.092-53.495 12.066-101.88 4.9592-26.736 6.4848-30.437 25.98-63.024 19.936-33.323 42.328-60.997 70.805-87.508 45.171-42.052 81.432-68.474 119.38-86.984 29.846-14.561 50.421-19.167 87.726-19.641 20.641-0.26205 24.836 0.03363 34.23 2.4128 22.332 5.6562 38.29 12.544 49.391 21.318 7.6324 6.0331 13.099 15.956 16.178 29.363 1.2234 5.3281 2.6811 9.6875 3.2394 9.6875 1.877 0 3.8876-10.57 3.1687-16.659-0.86161-7.2986-5.7885-18.479-11.033-25.036-2.943-3.6797-3.255-4.4989-1.3189-3.4627 3.0205 1.6165 13.723 14.226 20.269 23.881 20.732 30.577 31.365 76.44 33.407 144.09l0.74518 24.688h3.5616c2.9904 0 3.5616 0.51455 3.5616 3.2084 0 1.7646-1.5355 5.2802-3.4122 7.8125-8.181 11.038-28.108 35.057-33.19 40.005l-5.5471 5.4006 0.94552-6.6506c4.4593-31.366 4.4424-33.451-0.74473-91.986-3.7984-42.864-14.68-74.411-33.296-96.526-4.571-5.4303-6.6487-8.7978-5.672-9.1928 0.84772-0.34288 0.41632-0.68223-0.95868-0.7541-1.375-0.0719-5.5938-2.1039-9.375-4.5157-11.433-7.2923-20.653-9.6008-40.625-10.172-9.625-0.27517-20.031 0.0277-23.125 0.67328-5.394 1.1254-5.2142 1.181 4.375 1.3542 14.975 0.2704 28.718 3.1383 38.715 8.0792 19.216 9.4972 35.897 29.988 45.647 56.073 5.406 14.463 11.582 80.262 9.4245 100.41l-0.92062 8.5967-4.087-10.131c-7.66-18.9-20.68-35.27-34.44-43.25-10.838-6.2856-20.681-8.7499-35.625-8.9193-13.454-0.15255-13.961-0.055-23.568 4.5318-27.407 13.086-68.802 47.264-90.018 74.325-8.1827 10.437-26.842 38.267-34.186 50.987-6.7098 11.623-14.385 27.01-13.776 27.619 0.26817 0.26817 3.4724-4.9926 7.1204-11.691 15.056-27.643 32.871-50.645 58.15-75.08 24.31-23.499 54.466-45.163 75.469-54.218 8.6136-3.7136 10.685-4.1089 20.968-4.0018 10.039 0.10463 12.419 0.591 19.807 4.0483 11.216 5.2486 23.764 17.743 29.719 29.594 4.7388 9.4295 11.359 29.061 12.834 38.061l0.91506 5.5813-9.4621-10.058c-15.834-16.832-29.173-22.21-51.962-20.951-21.513 1.1887-32.377 4.8126-48.262 16.1-12.119 8.6113-26.049 24.462-34.6 39.372-7.1569 12.479-17.842 39.364-25.586 64.375-1.7029 5.5-6.9786 21.812-11.724 36.25-17.927 54.546-20.279 91.085-9.9333 154.38 3.6448 22.298 9.1662 67.044 10.648 86.291 1.1865 15.415-1.0842 30.975-7.0476 48.296-6.1739 17.932-11.874 29.059-21.66 42.283-21.353 28.854-60.294 57.441-91.972 67.517-9.1932 2.9241-13.404 3.467-31.25 4.0286-11.344 0.35701-20.283 0.28255-19.864-0.16549zm44.935-99.539c4.8679-2.6052 11.832-14.087 14.003-23.087 6.9989-29.015 5.0653-36.716-39.391-156.88-23.971-64.791-31.435-87.592-38.26-116.88-6.3256-27.141-9.7216-65.206-7.6222-85.439 3.88-37.396 19.687-78.717 44.458-116.22 8.9613-13.567 9.644-14.944 4.7536-9.5919-15.918 17.422-39.211 58.613-47.357 83.747-8.9797 27.705-13.399 63.107-10.832 86.774 4.616 42.559 17.045 85.65 51.409 178.23 22.041 59.381 29.153 80.844 33.966 102.5 3.6564 16.454 2.0974 31.557-4.8783 47.259-2.6045 5.8627-3.9035 7.395-6.7517 7.9647-1.9397 0.38795-3.2214 1.1994-2.8483 1.8032 0.92486 1.4965 6.4086 1.385 9.3516-0.19003zm106.73-43.09c-1.0416-14.869-2.6415-25.345-9.4504-61.875-9.8794-53.004-11.482-68.087-10.757-101.25 0.71804-32.835 3.1127-48.97 10.682-71.976 8.7731-26.664 34.82-82.106 51.821-110.3 26.448-43.867 60.511-73.942 97.799-86.349 12.834-4.2701 11.757-5.0343-2.0112-1.428-33.779 8.8477-68.761 35.8-91.742 70.683-15.88 24.106-34.124 59.45-50.629 98.085-13.785 32.27-18.973 53.41-21.311 86.85-2.5772 36.856 0.96347 68.583 15.134 135.61 4.1332 19.55 7.8565 39.976 8.274 45.389 0.4712 6.1104 1.1629 9.2214 1.8241 8.2037 0.58577-0.90168 0.7498-6.1394 0.36453-11.639zm-188.44-271.53c-0.31693-1.2162-0.59708-0.52379-0.62255 1.5387-0.0255 2.0625 0.23382 3.0576 0.57623 2.2113 0.3424-0.84629 0.36324-2.5338 0.0464-3.75zm119.68-194.4c9.8309-13.245 28.036-32.874 41.14-44.358 15.279-13.39 20.987-18.703 17.682-16.459-4.3274 2.9376-19.655 16.254-28.54 24.795-12.71 12.22-39.17 43.83-36.68 43.83 0.3348 0 3.2181-3.5156 6.4072-7.8125zm310.97-44.357c-2.4369-23.192-13.737-44.102-29.255-54.132-6.7748-4.3788-9.95-5.6568-20.395-8.2088-1.375-0.33596 2.2017 1.6606 7.9482 4.4369 23.732 11.465 39.582 37.672 40.317 66.661 0.17906 7.0593 0.49723 8.437 1.4539 6.2955 0.80422-1.8002 0.78054-6.9681-0.0689-15.053zm-240.27-24.88c0-0.34375-1.6875 0.57661-3.75 2.0452s-3.75 2.9515-3.75 3.2952c0 0.34375 1.6875-0.57662 3.75-2.0452s3.75-2.9515 3.75-3.2952zm208.75 669.03c-28.503-7.5057-41.733-13.262-115.62-50.305-71.185-35.686-70.353-35.186-68.14-41.006 2.0576-5.412 2.6327-29.872 1.3751-58.492-1.4159-32.223-2.9142-47.191-9.6017-95.923-8.4939-61.895-5.2805-99.158 12.786-148.27 7.2198-19.627 24.013-53.566 33.636-67.978 15.273-22.875 23.634-29.607 41.332-33.279 24.156-5.0123 63.059 2.3582 84.555 16.019l5.9419 3.7762 2.454-2.9456 2.4541-2.9456 0.0416 2.7387c0.0229 1.5063 0.61258 3.0916 1.3104 3.5229 1.167 0.72129 13.1-1.2241 17.481-2.85 1.0312-0.38269 2.2736-0.74436 2.7609-0.80374 0.48723-0.0594 5.7791-4.5863 11.76-10.06 16.047-14.687 25.526-28.555 31.058-45.442 1.197-3.6539 2.4634-6.3565 2.8142-6.0056 1.7146 1.7146-8.2058 43.029-11.229 46.765-0.9127 1.1278-0.8997 2.0232 0.043 2.966 0.9673 0.9673 2.4905 0.052 5.3685-3.2258 2.2099-2.5169 6.6127-6.0508 9.784-7.853 13.478-7.6595 26.401-15.784 25.901-16.284-0.39915-0.39915-22.993 10.069-30.966 14.348-0.4567 0.24506 0.77142-3.6795 2.7291-8.7213 4.1155-10.599 6.8364-28.447 5.8272-38.225-0.61606-5.969-0.41226-6.8434 1.7252-7.4024 1.349-0.35276 2.4238-1.7105 2.4238-3.0618 0-1.3354 0.47555-2.1341 1.0568-1.7749 2.0744 1.282 13.716 26.537 16.477 35.744 1.5462 5.1562 4.6901 13.944 6.9864 19.529 6.2007 15.079 11.693 30.069 14.37 39.221 6.7768 23.166 11.034 57.763 11.305 91.875 0.0818 10.267 0.53366 13.112 2.5304 15.928l2.431 3.4284-3.2037 1.4597c-4.34 1.9774-4.0336 4.0142 1.3459 8.9441l4.5496 4.1694-2.3621 3.605c-1.2991 1.9827-2.3119 3.911-2.2506 4.285 0.0612 0.37398-0.91417 2.93-2.1677 5.68-1.2536 2.75-2.9632 8.2344-3.7991 12.188-1.3829 6.54-3.5197 9.8074-3.5197 5.3822 0-3.6732-5.5148-8.334-10.681-9.0269-7.0013-0.93908-21.25 3.515-29.743 9.2973-7.29 4.95-15.85 14.32-15.85 17.33 0 0.99341-3.5156 5.5808-7.8125 10.194-4.2969 4.6134-8.9248 10.497-10.284 13.076-1.3595 2.5781-2.9899 4.6875-3.6232 4.6875-0.67171 0-0.83434-4.4927-0.39038-10.784 0.41856-5.931 0.39785-10.421-0.046-9.9767-2.8095 2.8095-4.3554 12.009-4.9589 29.51-0.62326 18.075-0.4451 20.256 2.6554 32.5 1.8279 7.2188 4.5032 16.373 5.945 20.342 1.4418 3.9696 2.4006 7.4041 2.1306 7.6322-0.27 0.22815-6.9596 1.9798-14.866 3.8925-17.609 4.26-21.159 6.056-10 5.059 28.333-2.5315 27.429-2.5499 26.62 0.54247-0.63546 2.43-0.36861 2.6993 1.9466 1.9645 1.965-0.62368 2.683-0.32726 2.683 1.1077 0 1.0776-0.60526 1.9592-1.345 1.9592-2.0075 0-24.905 21.491-24.905 23.375 0 2.7207-1.2847 3.3376 26.552-12.75 7.189-4.1547 12.199-10.522 12.194-15.497-0.004-3.474-7.0795-16.209-11.879-21.378-3.3313-3.588-4.1846-6.47-9.3474-31.571-4.2229-20.531-4.4344-22.622-2.2082-21.836 0.85937 0.30315 1.4701 1.5608 1.3571 2.7947-0.19365 2.1154 1.2101 2.1949 24.585 1.3912 32.786-1.1273 35.399-1.9088 46.912-14.026 4.8353-5.089 9.0719-9.2528 9.4147-9.2528s0.61112 3.7969 0.5963 8.4375c-0.0149 4.6406 0.7374 13.5 1.6716 19.688 3.4395 22.78 1.3851 65.764-4.1608 87.056-2.0522 7.8791-9.7323 26.123-20.446 48.569-4.1018 8.5938-9.1901 19.457-11.307 24.141-2.1172 4.6839-5.7642 11.715-8.1046 15.625-2.3403 3.9099-8.2762 14.93-13.191 24.488-4.9147 9.5585-9.6985 17.996-10.631 18.75-0.93219 0.75396-3.2705 5.5786-5.1962 10.721-6.039 16.128-18.316 26.399-31.27 26.161-3.3923-0.0622-10.949-1.3723-16.793-2.9111zm34.84-45.857c4.364-1.5213 6.8019-4.8932 5.6701-7.8425-2.0642-5.3791-21.583-6.4452-37.413-2.0434-10.104 2.8096-22.278 7.5025-21.494 8.2862 0.23548 0.23549 7.0626-1.2474 15.171-3.2953 19.056-4.8127 39.477-5.1506 39.477-0.6533 0 1.9259-5.3741 4.4298-9.5076 4.4298-1.775 0-2.8041 0.54339-2.3674 1.25 1.0161 1.6441 5.5344 1.5873 10.465-0.13148zm-91.924-6.1994c2.2817-3.2576 1.3344-7.0336-2.374-9.4635-6.5188-4.2713-11.642 5.478-5.2295 9.9513 3.8161 2.662 5.4716 2.5557 7.6034-0.48783zm97.562-18.613c9.8682-3.7519 20.769-20.265 20.771-31.465 0.001-6.6894-2.4903-9.9413-5.624-7.3406-1.0312 0.85586-1.875 3.1536-1.875 5.1062 0 5.8036-4.7016 16.615-9.0595 20.832-8.2664 7.9992-21.623 11.645-33.572 9.1646-5.3564-1.112-52.632-22.981-65.303-30.208-4.2725-2.437-3.5669-0.13559 1.662 5.421 5.1684 5.4922 10.824 8.5836 35.647 19.485 14.643 6.4306 18.21 7.4972 29.414 8.7946 13.163 1.5243 24.265 1.6083 27.939 0.21123zm-8.2688-32.355c5.3128-6.3007 6.9097-6.978 30.042-12.742 6.0161-1.499 8.2173-4.677 4.6782-6.7539-1.2463-0.73139-6.4266-4.0017-11.512-7.2673-10.712-6.8792-16.416-7.6443-24.234-3.2505l-4.7808 2.687-6.2461-2.687c-12.613-5.4258-25.374-3.5295-54.193 8.0526-20.31 8.15-28.46 8.61-28.46 1.6 0-2.7966-3.5188-3.154-4.5517-0.4623-1.0026 2.6128 2.7507 7.9383 6.8046 9.6548 1.8735 0.79331 13.815 1.7511 26.87 2.1551 16.472 0.50978 23.78 1.1836 24.441 2.2536 0.51884 0.83951 7.1012 3.4963 14.627 5.9039 7.5262 2.4076 14.528 4.936 15.559 5.6186 3.4978 2.3152 5.8476 1.2924 10.96-4.77zm-15.96-2.17c-4.4688-1.5704-7.0494-2.8964-5.7349-2.9466 3.3736-0.12899 15.735 3.9066 15.735 5.1369 0 1.2936-0.22896 1.2434-10-2.1903zm9.0914-6.4249c-2.6896-1.8162-27.93-3.7445-54.091-4.1325-11.055-0.16396-9.809-0.99321 8.5978-5.7201 13.885-3.5657 28.522-3.9479 38.966-1.0174 6.3865 1.792 7.4749 1.8009 10.786 0.0884 2.0257-1.0475 7.0224-2.2562 11.104-2.6859 6.2553-0.65855 8.0848-0.36497 11.65 1.8697 2.3262 1.458 3.7324 3.0981 3.125 3.6447-0.60742 0.54659-6.1669 2.237-12.354 3.7564-6.1875 1.5194-12.094 3.5082-13.125 4.4194-1.5626 1.3808-2.3388 1.3437-4.6586-0.22273zm-15.34-54.19c0-1.739 0.86426-2.4262 3.0512-2.4262 7.4131 0 3.0122-7.2599-5.057-8.3422-4.1593-0.55787-6.1256-0.0396-10.612 2.7971-5.3617 3.39-5.4246 3.5043-2.382 4.3291 1.7188 0.46599 5.3011 2.3284 7.9607 4.1388 5.1706 3.5195 7.0393 3.3877 7.0393-0.4966zm-23.2-8.1987c0.96983-3.8641 0.58886-4.358-4.6734-6.0589-3.1326-1.0126-4.3984-2.4406-5.8274-6.5743-1.799-5.2041-1.7677-5.3628 2.1617-10.938 4.572-6.4864 4.292-6.9306-1.5568-2.4695-10.459 7.9774-10.602 22.986-0.26108 27.483 6.277 2.73 9.2143 2.3127 10.157-1.4429zm19.666-85.585c-3.358-9.2222-7.6598-21.549-9.5597-27.393-3.6158-11.122-5.7434-14.616-8.0366-13.199-3.3922 2.0965 0.14863 29.449 3.8122 29.449 0.75753 0 0.97255-0.94533 0.49696-2.1847-1.9496-5.0807-3.3008-14.208-2.9407-19.865l0.3866-6.075 1.7234 5c2.256 6.5452 17.531 49.451 18.468 51.875 0.42203 1.0916 0.94014 1.3079 1.2401 0.51757 0.2834-0.74658-2.2322-8.9028-5.5902-18.125zm-64.279 6.2607 12.812 0.10125v-6.1034c0-10.981-7.3872-26.847-16.236-34.873-11.312-10.259-33.764-13.881-58.764-9.4795-8.6962 1.5311-2.7774-0.731 8.4649-3.2352 16.739-3.7286 35.926-3.5256 45.675 0.4831 9.3738 3.8544 15.094 7.8196 17.738 12.295 2.8076 4.7529 3.5564 3.6716 1.5865-2.2908-2.086-6.314-9.9314-12.245-20.524-15.517-16.801-5.1894-44.633-2.2559-57.833 6.0955-5.2459 3.319-9.8971 4.4185-24.144 5.7074-3.795 0.34333-4.1401 2.0126-0.94429 4.5687l3.1063 2.4845-5.625-0.76188c-3.0938-0.41904-7.1719-1.0577-9.0625-1.4193-4.8481-0.92719-4.2909 0.0535 2.1875 3.8501 3.0938 1.8131 5.625 3.5647 5.625 3.8926 0 0.93417-5.9242-0.61816-17.902-4.6908-6.0646-2.0621-11.297-3.4786-11.628-3.1476-0.33095 0.33095 1.3966 1.8368 3.839 3.3463s4.4408 3.2612 4.4408 3.8926c0 0.63143 0.46057 1.148 1.0235 1.148 0.56292 0 8.2576 4.0245 17.099 8.9434 8.8417 4.9188 23.709 12.301 33.039 16.405 14.897 6.553 18.181 7.5369 26.963 8.0784 5.5 0.33907 10.281 0.88517 10.625 1.2135 0.34375 0.32838 4 0.21782 8.125-0.2457 4.125-0.4635 13.266-0.79716 20.312-0.74146zm-24.769-11.072c5.694-5.694 7.7988-11.894 6.717-19.787-0.74662-5.4472-0.69203-5.5608 2.2369-4.6536 11.769 3.645 19.266 10.685 20.944 19.666l1.0726 5.7412-5.174 1.976c-3.5 1.32-9.32 1.96-17.95 1.96h-12.77l4.9188-4.9188zm-23.97 1.9302c-3.95-0.86-8.51-2.81-10.13-4.34-3.54-3.32-5.82-10.33-5.82-17.89v-5.5424l7.229-1.4931c3.976-0.82122 11.494-1.8536 16.706-2.2942 8.6473-0.73096 9.7148-0.56309 12.196 1.918 5.6199 5.6199 6.5749 13.666 2.6487 22.316-3.4395 7.5776-10.772 9.9269-22.831 7.3146zm9.1049-9.54c3.4169-1.8287 5.1348-5.6609 4.2025-9.3751-1.1266-4.4888-3.4842-3.1754-3.5644 1.9857-0.0646 4.1641-0.21684 4.2931-5.0667 4.2931-4.6716 0-5.0247-0.25331-5.3763-3.8565-0.45025-4.614 1.3954-6.4035 7.2564-7.0355l4.37-0.47126-3.5338-1.0406c-4.5063-1.3269-9.0749 0.99922-10.61 5.402-2.6947 7.73 4.9858 14.024 12.322 10.098zm-34.164-0.78989c-3.2922-2.4709-6.814-6.094-7.8261-8.0513-1.8294-3.5377-1.8093-3.5736 3.4081-6.0944 2.8866-1.3947 6.4084-2.5362 7.8261-2.5367 2.3486-0.00085 2.5782 0.74908 2.5832 8.4375 0.002 4.6411 0.48509 9.4228 1.0712 10.626 1.6011 3.2864-0.41876 2.6054-7.0626-2.381zm198.49-49.74c8.25-0.9783 17.812-2.3974 21.25-3.1536 9.1569-2.0142 26.184-7.7494 26.667-8.982 0.22918-0.58517 1.3823-1.064 2.5625-1.064 2.5132 0 5.1458-2.3336 5.1458-4.5614 0-0.85876-2.0184-3.1009-4.4852-4.9824-3.8929-2.9693-4.9246-3.2373-7.8125-2.0296-15.314 6.404-43.091 17.668-53.327 21.625-14.33 5.5394-13.191 5.898 10 3.148zm-94.923-6.8257c-1.2046-1.9491-32.745-20.066-45.228-25.979-13.468-6.3801-14.312-6.3961-27.274-0.51885-7.5126 3.4064-10.577 6.3745-6.5804 6.3745 0.89035 0 10.312 2.842 20.938 6.3156 32.365 10.581 60.242 17.201 58.145 13.808zm-141.34-23.83c9.1799-2.1156 38.558-5.2624 42.245-4.525 2.8142 0.56283 6.0191-0.5693 14.135-4.9931 5.7724-3.1465 10.495-5.8807 10.495-6.076 0-1.2101-20.458-11.942-22.765-11.942-5.3753 0-51.536 21.375-52.697 24.402-1.8153 4.7306-0.46946 5.2219 8.5874 3.1346zm233.12 87.46c-11.487-1.5467-17.016-5.4361-13.592-9.5615 1.2377-1.4914 1.7602-1.4681 3.5575 0.15844 2.9831 2.6997 11.639 2.4687 14.216-0.37939 2.5996-2.8726 2.6839-9.3974 0.14849-11.502-1.6896-1.4022-1.8254-1.0005-1.1306 3.3448 0.96333 6.0244-1.1492 8.2945-7.18 7.7156-6.3178-0.60643-6.0745-4.5177 0.5543-8.9131 2.9158-1.9334 7.682-5.1981 10.591-7.2549 7.741-5.4724 10.082-5.6017 11.018-0.60858 0.68623 3.6579-1.6516 12.524-6.2963 23.879-1.7504 4.2791 6.7822-4.3978 9.4775-9.6377 1.65-3.18 2.4-7.23 2.4-12.88v-8.2372l7.153 0.37489 7.153 0.37487 1.0947 5.5609c1.4301 7.2646-0.78525 18.338-4.4691 22.339-5.7356 6.2287-15.871 7.7548-34.682 5.2221zm-19.688-1.559c0.28646-0.85938 1.2708-1.5625 2.1875-1.5625 0.91666 0 1.901 0.70312 2.1875 1.5625 0.30982 0.92949-0.57639 1.5625-2.1875 1.5625s-2.4973-0.63301-2.1875-1.5625zm20.016-32.56c1.0126-3.0598 13.41-11.944 20.226-14.494 10.401-3.8915 20.264-3.2129 23.489 1.616 1.7848 2.6731 0.83613 2.9644-11.231 3.4494-11.341 0.45579-12.91 0.85255-22.584 5.7106-5.7182 2.8714-10.173 4.5446-9.8995 3.7181zm-239.07-135.21c0-2.2772 6.2338-16.236 12.954-29.007 16.397-31.159 38.926-58.389 55.369-66.923 10.582-5.4918 14.818-6.8461 26.557-8.4905 8.086-1.1327 10.451-0.96873 18.712 1.2979 13.504 3.7048 20.46 7.9513 30.323 18.513 4.7648 5.1021 8.5024 9.4374 8.3058 9.634-0.1966 0.19662-4.855-0.94486-10.352-2.5366s-13.67-3.2874-18.162-3.7681c-9.4444-1.0106-32.426 1.0149-43.185 3.8062-7.9568 2.0642-23.972 9.8168-32.918 15.935-12.976 8.8741-28.585 28.659-41.364 52.431-4.6398 8.6313-6.2404 10.968-6.2404 9.1094zm182.5-60.67c0-1.7266 0.83334-2.5 2.6937-2.5 2.6146 0 2.6272 0.0735 0.43126 2.5-1.2444 1.375-2.4565 2.5-2.6937 2.5-0.23719 0-0.43126-1.125-0.43126-2.5zm91.827-12.123c-1.8496-2.8228-2.167-5.8377-1.9452-18.477 0.17142-9.7702-0.41615-18.371-1.6638-24.355-1.0609-5.088-1.7391-9.4405-1.5072-9.6724 0.55286-0.55286 8.1886 17.499 10.285 24.315 1.2746 4.1437 1.2965 5.3125 0.0997 5.3125-1.1458 0-1.4113 3.3232-1.0484 13.125 0.5123 13.84-0.30481 15.728-4.2204 9.7518zm-6.7469-7.8222c-1.4874-0.92329-1.5146-1.4514-0.15943-3.0843 1.0946-1.3189 1.1714-1.9703 0.23211-1.9703-0.87665 0-1.403-2.7288-1.403-7.2731 0-10.164-2.4643-17.319-11.916-34.602-8.511-15.562-8.7175-16.779-3.4407-20.283 2.4506-1.6271 2.8917-1.3667 6.4536 3.8104 7.864 11.43 13.19 34.982 12.408 54.869-0.31501 8.0092-0.68407 9.4577-2.174 8.5328z"/>
</svg>
