<?xml version="1.0" encoding="UTF-8" standalone="no"?>
<!-- Created with Inkscape (http://www.inkscape.org/) -->
<svg id="svg3336" xmlns:rdf="http://www.w3.org/1999/02/22-rdf-syntax-ns#" xmlns="http://www.w3.org/2000/svg" height="1845" viewBox="0 0 1845 1845" width="1845" version="1.1" xmlns:cc="http://creativecommons.org/ns#" xmlns:dc="http://purl.org/dc/elements/1.1/">
 <metadata id="metadata3342">
  <rdf:RDF>
   <cc:Work rdf:about="">
    <dc:format>image/svg+xml</dc:format>
    <dc:type rdf:resource="http://purl.org/dc/dcmitype/StillImage"/>
    <dc:title/>
   </cc:Work>
  </rdf:RDF>
 </metadata>
 <path id="path3346" fill="#fff" d="m891.15 1788.4c-15.229-4.0892-25.381-12.695-29.018-24.598-2.4248-7.9355-2.6216-24.708-0.42953-36.604 1.352-7.3377 1.2791-9.286-0.48328-12.902-7.0403-14.448-8.2277-19.626-7.3978-32.258 0.90928-13.841 3.204-26.133 5.383-28.834 0.97497-1.2091 1.5158-14.892 1.6176-40.927 0.15426-39.462 0.80501-45.149 5.1658-45.149 0.96668 0 2.8398-1.1958 4.1624-2.6573 2.1449-2.37 2.306-4.365 1.4907-18.451-2.2372-38.65-7.796-63.183-31.733-140.05-5.628-18.072-7.6508-28.754-9.2822-49.01-1.6052-19.933-0.65057-29.923 4.7934-50.157 3.4203-12.714 5.9334-18.132 9.7096-20.939 1.7203-1.2783 1.2328-3.5111-3.5565-16.289-7.3483-19.606-11.941-45.73-8.4218-47.905 0.70246-0.4342 0.40737-3.7389-0.69606-7.7949-1.0535-3.8728-2.1955-15.556-2.5378-25.963-0.89036-27.074-2.4937-36.084-10.721-60.249-9.6991-28.488-17.479-55.555-19.605-68.208-0.9511-5.6604-2.0976-10.292-2.5478-10.292s-1.5984 4.6413-2.5516 10.314c-2.0533 12.22-12.559 48.576-20.223 69.982-6.7549 18.869-9.2681 33.086-10.119 57.247-0.36375 10.332-1.1849 21.366-1.825 24.518-0.70503 3.4727-0.66736 6.0385 0.0955 6.5101 3.2936 2.0356-3.0048 32.754-10.78 52.577l-3.8448 9.8021 3.5543 3.8049c4.179 4.4736 9.9711 22.084 12.96 39.405 1.6976 9.837 1.8106 15.463 0.66086 32.897-1.3778 20.895-4.3751 40.312-6.9296 44.895-2.3344 4.1874-22.563 86.539-24.742 100.72-1.151 7.495-2.4651 23.341-2.9201 35.213l-0.82724 21.586 4.8086 3.6679c2.6448 2.0172 5.1717 5.3204 5.6154 7.3408 0.44372 2.0202 1.0508 19.154 1.3491 38.077 0.43052 27.31 0.95008 35.041 2.5196 37.496 3.1293 4.894 6.2317 17.054 6.2317 24.424 0 8.8367-5.2646 33.3-7.5373 35.024-2.1363 1.6203-2.2786 5.3443-1.1025 28.854 1.0106 20.2-0.41253 31.381-4.7381 37.227-3.1303 4.2307-14.321 12.214-18.221 12.999-1.4408 0.2899-4.4313 1.2297-6.6454 2.0885-5.5891 2.1682-23.034 1.9643-29.744-0.3473-14.243-4.9072-27.968-16.568-33.524-28.484-2.6913-5.7716-3.1304-8.823-3.1417-21.829-0.008-9.9579 0.88511-19.349 2.618-27.508 2.739-12.897 3.3984-25.791 1.9847-38.808-1.0642-9.7994 2.05-20.888 7.661-27.279 3.641-4.1469 4.1989-5.8463 4.5169-13.76 0.19951-4.9659 1.009-16.879 1.7988-26.474 0.78982-9.5945 1.4585-22.98 1.4859-29.747 0.0638-15.733 0.40369-16.548 6.9028-16.548 6.3036 0 6.1348 1.9156 2.4572-27.894-3.2461-26.312-7.1901-48.336-15.431-86.166-17.763-81.545-19.299-127.07-5.7073-169.08 2.2686-7.0112 4.9566-13.706 5.9731-14.877 1.5216-1.753 1.6339-6.377 0.63512-26.167-1.0806-21.413-1.7998-26.308-6.5878-44.837-2.9561-11.439-9.0067-31.97-13.446-45.624-4.4391-13.654-11.448-38.713-15.574-55.688-4.1265-16.974-9.9145-39.619-12.863-50.32-10.335-37.519-13.513-62.862-13.528-107.88-0.0107-31.339 1.1695-46.076 5.5744-69.585 4.3057-22.98 14.711-53.676 23.312-68.77 14.5-25.445 21.864-38.675 25.024-44.953 2.0436-4.0591 5.8734-9.6462 8.5109-12.415 2.6374-2.7693 4.7953-5.7218 4.7953-6.561 0-0.83921 1.9176-4.6119 4.2614-8.3836s6.1863-10.481 8.5388-14.909c2.3526-4.4282 5.8696-11.01 7.8155-14.625 2.1988-4.0854 3.538-8.6823 3.538-12.143 0-3.0636 0.69903-6.2692 1.5535-7.1236 1.1767-1.1767 0.0185-3.3502-4.7752-8.9612-3.4807-4.0743-8.1169-8.464-10.302-9.7551-6.0523-3.5752-20.312-23.569-27.952-39.191-3.7573-7.6833-6.8314-14.713-6.8314-15.623 0-0.909-0.90576-2.0004-2.0128-2.4252-1.1164-0.45087-2.0182-1.3848-2.0182-2.1041 0-0.71942-3.3792-4.504-7.5094-8.41-14.159-13.397-19.323-26.312-19.323-48.34 0-11.621-0.37358-14.529-1.826-14.215-1.0043 0.21685-7.8844-5.1233-15.289-11.866-25.139-22.896-33.5-27.583-40.744-22.843-9.9756 6.5276-38.276 8.4076-65.753 4.3679-7.6614-1.1264-27.463-3.3011-44.004-4.8328s-30.658-3.1459-31.372-3.5872c-0.71399-0.44126-7.1076-1.2069-14.208-1.7015-11.572-0.80609-14.083-1.4873-24.243-6.5768-13.85-6.9384-26.911-16.909-26.911-20.545 0-0.57382 0.97545-0.66898 2.1676-0.21148 1.6871 0.64742 1.9791 0.2377 1.317-1.8484-0.60737-1.9136 0.69159-4.6172 4.5418-9.4527 4.8391-6.0776 5.3924-7.5394 5.3924-14.245 0-16.016 10.674-32.313 26.279-40.126 15.604-7.8125 61.837-19.59 153.53-39.113l14.09-2.9998 0.42057-10.639c0.40021-10.124-1.0812-21.982-3.8436-30.768-1.7363-5.5216-19.894-15.488-26.373-14.475-3.9394 0.61594-4.6383 0.13856-8.339-5.6968-8.5787-13.527-14.367-38.303-13.128-56.197 0.87772-12.684 8.6695-40.932 14.063-50.982 4.6047-8.5807 21.283-26.213 31.831-33.651 11.35-8.0039 29.219-17.291 40.256-20.924 11.408-3.7547 28.484-4.0498 40.034-0.69189 27.768 8.0725 46.723 24.452 57.718 49.878 6.765 15.644 15.486 46.356 18.935 66.678 0.92009 5.4217 14.152 26.072 26.746 41.742 4.0794 5.0754 7.5928 9.7343 7.8076 10.353 0.56877 1.6387 24.214-2.4522 32.069-5.5482 7.7582-3.058 11.102-2.0942 12.534 3.6131 1.2343 4.9179-2.0419 9.0601-13.107 16.572-4.8924 3.3212-8.9107 6.3811-8.9297 6.7998-0.0491 1.0852 12.421 4.8563 23.448 7.0909 7.0024 1.419 13.916 1.6607 27.163 0.94985 9.7732-0.5245 17.925-1.2099 18.115-1.5232 0.19024-0.31325 1.0047-1.7773 1.8098-3.2534 4.1977-7.6955 30.258-22.184 50.364-28.001 14.202-4.1088 35.195-6.5816 46.064-5.426 4.464 0.47463 12.799 2.3834 18.523 4.2418l10.407 3.3788 8.0158-3.5973c24.041-10.789 73.239-21.785 109.01-24.364 7.1777-0.5176 12.721-1.4744 12.318-2.126-1.3461-2.1779 5.0571-10.618 12.076-15.917 17.641-13.319 49.928-23.409 96.744-30.232 18.167-2.6481 29.524-5.4983 79.841-20.036 21.772-6.2905 40.826-11.437 42.344-11.437 1.5178 0 4.8394-1.558 7.3814-3.4622 7.0121-5.2528 18.128-10.584 32.89-15.775 7.3317-2.5781 17.448-6.2588 22.479-8.1794 5.0319-1.9206 9.6956-3.154 10.364-2.7411 1.2897 0.7971 27.834-4.4813 43.555-8.6612 19.37-5.15 39.278-9.4886 43.539-9.4886 2.4243 0 7.3799-1.0556 11.012-2.3457 7.3139-2.5977 9.1242-1.6502 9.1668 4.7973 0.024 3.5052-6.7117 10.967-9.8983 10.967-1.2846 0-1.7823 0.75982-1.3078 1.9965 0.4959 1.2924-0.6991 2.8304-3.3883 4.3611-2.285 1.3006-4.1582 3.4554-4.1629 4.7884-0.014 3.8274-9.7242 7.2455-29.172 10.269-9.6923 1.5066-17.918 2.7393-18.28 2.7393-0.3618 0 0.2103 1.7399 1.2711 3.8665 2.5721 5.1559 1.6312 7.0148-6.7074 13.251-5.0319 3.7631-10.308 6.1459-18.354 8.289-11.418 3.0414-15.504 4.972-19.966 9.435-1.3514 1.3513-7.5004 4.7585-13.665 7.5716-12.417 5.6666-26.381 7.5161-35.079 4.6459-3.9242-1.2952-5.7369-1.0973-11.784 1.286-3.9302 1.5491-10.093 3.3754-13.695 4.0585-13.76 2.6096-38.115 15.706-76.117 40.932-37.956 25.195-49.99 31.896-82.733 46.07-20.266 8.773-28.247 10.885-41.133 10.885-4.7824 0-8.9653 0.73082-10.216 1.7849-5.9423 5.0067-31.892 19.625-53.868 30.347-21.014 10.252-31.866 14.424-72.09 27.711-28.912 9.5506-49.508 17.09-52.886 19.36-6.39 4.2915-11.79 12.414-11.801 17.748-0.004 2.0296-0.56727 3.6902-1.2521 3.6902-0.68494 0-1.6788 3.47-2.2087 7.7112-0.52989 4.2412-1.8166 8.335-2.8594 9.0975-1.5593 1.1402-0.82853 2.9782 4.1154 10.351 7.9177 11.807 9.6026 19.618 9.4822 43.96-0.0871 17.604-0.4189 20.244-3.4854 27.723-3.0659 7.4777-3.2168 8.6764-1.581 12.566 2.1687 5.1578 2.3912 25.579 0.44764 41.08-0.74825 5.9676-3.9584 20.444-7.1336 32.17-5.6662 20.925-5.7587 21.609-4.9929 36.875l0.7804 15.555 10.959 22.018c11.923 23.954 14.453 31.227 16.505 47.462 0.88245 6.9783 2.048 11.073 3.3607 11.809 1.1054 0.6186 2.0098 2.3589 2.0098 3.8674s1.0567 3.0336 2.3483 3.389c2.7724 0.7631 30.258 55.538 36.584 72.906 11.49 31.547 16.085 64.072 16.085 113.86 0 39.493-3.1185 70.256-11.447 112.92-1.801 9.2255-6.2448 33.38-9.8751 53.675-5.9675 33.362-7.9099 41.149-20.249 81.184-13.179 42.755-13.694 44.9-14.939 62.213-1.0812 15.038-0.98016 18.178 0.62627 19.457 2.6178 2.0855 10.997 28.359 13.754 43.125 1.6463 8.8187 2.2093 18.718 2.0869 36.69-0.22435 32.931-2.153 48.75-12.377 101.52-8.9587 46.242-13.671 77.99-15.516 104.54-0.9066 13.043-0.87077 13.281 1.8857 12.561 1.5454-0.4042 3.9786 0.083 5.4071 1.0842 2.4222 1.6967 2.6389 4.104 3.2159 35.746 0.56124 30.779 0.878 34.488 3.4128 39.966 1.5368 3.3212 4.3359 7.4838 6.2203 9.2503 4.9257 4.6178 7.9096 14.765 7.4781 25.43-0.67952 16.799 0.0685 27.72 2.6795 39.123 8.849 38.646 2.2809 59.485-23.513 74.601-6.5272 3.8251-19.319 7.2424-26.742 7.1439-2.2141-0.03-8.4749-1.2482-13.913-2.7085zm36.759-7.8336c6.9658-3.4292 9.7883-5.7501 12.835-10.554 5.578-8.7955 4.8457-9.563-2.5364-2.658-6.3182 5.9099-13.688 9.2122-24.649 11.044-6.7586 1.1296-22.106-2.2874-30.805-6.8592-3.9662-2.0843-7.6809-3.9997-8.2551-4.2568-0.5742-0.2572 0.0198 1.7632 1.3199 4.4896 1.691 3.546 4.2803 5.9303 9.0952 8.3753 10.109 5.1335 12.529 5.6654 23.753 5.222 8.43-0.3331 11.943-1.21 19.243-4.8035zm-210.88-2.4927c6.1102-2.8593 9.3282-5.2845 10.807-8.145 3.3724-6.5214 2.517-7.1164-4.2676-2.9688-10.524 6.4336-19.044 8.5665-31.587 7.9081-12.606-0.6617-22.283-4.9032-29.225-12.811-4.5928-5.231-4.8865-4.7964-1.3801 2.0409 3.1414 6.1257 7.1328 9.851 14.535 13.566 13.39 6.7204 27.335 6.8593 41.117 0.4094zm208.18-9.6792c7.4972-3.6294 13.124-9.4148 16.058-16.513 1.2774-3.0894 3.1632-7.2198 4.1907-9.1789 2.8402-5.4149 2.303-12.25-2.9007-36.908-2.6229-12.429-4.7898-25.617-4.8153-29.308-0.0435-6.294-2.4567-11.406-5.3845-11.406-1.8577 0-1.2904 2.9703 1.0641 5.5721 1.663 1.8376 1.831 2.8711 0.69012 4.2457-0.82935 0.9993-1.4376 4.9356-1.3518 8.7473 0.1311 5.8188 0.55851 6.9305 2.6645 6.9305 1.3797 0 2.5084 0.6039 2.5084 1.3419s-1.2077 1.3419-2.6838 1.3419c-2.0737 0-2.6838 0.8946-2.6838 3.9352 0 2.7568 0.80373 4.1902 2.6838 4.787 3.4085 1.0818 3.6734 5.2683 0.27724 4.3803-3.6606-0.9574-3.8442 9.1351-0.20742 11.406 3.0954 1.9331 3.3435 4.4746 0.69527 7.1228-2.2887 2.2887-1.0986 7.6098 3.29 14.711 1.5803 2.557 2.2738 4.6489 1.5411 4.6489-1.6122 0-6.7902-6.2075-9.8112-11.761-2.4211-4.4513-3.625-4.7381-26.916-6.4141-11.084-0.7973-11.81-0.6816-14.377 2.2941-8.0756 9.3588-14.713 15.881-16.162 15.881-0.90074 0-0.0525-1.8839 1.885-4.1865 7.7996-9.2694 8.5511-14.314 6.8712-46.134-1.3221-25.043-2.5806-27.404-6.7264-12.629-1.5903 5.6679-3.0884 8.4456-4.7956 8.8921-2.3411 0.6121-2.4586 2.4214-2.0613 31.714 0.23175 17.086 0.96577 32.877 1.6312 35.091 1.3827 4.601 11.776 10.567 23.698 13.602 9.3639 2.3845 23.748 1.364 31.127-2.2084zm-205.34-4.4409c15.095-6.0083 14.753-4.9877 14.836-44.387 0.0615-29.51-0.12143-32.115-2.2945-32.683-1.4708-0.3847-3.1359-3.2204-4.4157-7.5198-2.1727-7.2994-4.2066-11.266-5.2389-10.218-0.91618 0.9304-2.7285 35.377-2.422 46.035 0.28153 9.7868 2.3555 15.323 7.9992 21.356 2.4278 2.595 2.8636 3.6902 1.4681 3.6902-2.2794 0-12.182-9.8801-14.571-14.536-1.5924-3.1051-1.7374-3.1226-17.873-2.1596-21.52 1.2845-22.257 1.5373-26.367 9.056-1.8959 3.4684-4.8058 7.2442-6.4664 8.391-3.6732 2.5368-3.8399 1.505-0.52174-3.2274 1.3737-1.959 3.2652-5.9268 4.2034-8.8173 1.4881-4.5842 1.4261-5.4601-0.48468-6.8574-2.9374-2.1477-2.7648-4.9983 0.4233-6.9892 3.6367-2.2713 3.4532-12.364-0.20742-11.406-3.3962 0.888-3.1312-3.2984 0.27725-4.3803 1.7508-0.5556 2.6838-2.0302 2.6838-4.2416 0-2.2613-0.89344-3.6236-2.6838-4.0919-3.3285-0.8703-3.5377-3.0724-0.29183-3.0724 1.9455 0 2.448-1.2873 2.692-6.8974 0.16507-3.7935-0.40264-7.7441-1.2616-8.7791-1.1829-1.4252-1.1849-2.2585-0.008-3.4351 0.85436-0.8544 1.5534-2.7338 1.5534-4.1767 0-2.4798-0.13765-2.4988-2.5153-0.347-1.8821 1.7034-2.7494 5.0492-3.445 13.291-0.5113 6.0581-2.4042 17.612-4.2066 25.676-4.5752 20.468-5.4845 31.676-2.9031 35.779 1.1197 1.7796 2.7094 5.3652 3.5326 7.9681 2.0662 6.5333 8.7541 14.27 15.16 17.539 12.383 6.3173 26.534 6.1354 43.347-0.5572zm183.84-43.92c4.4256-0.6419 11.672-0.8479 16.103-0.4578 7.0222 0.6183 7.7634 0.4694 5.7754-1.1598-1.2542-1.028-4.7247-2.6757-7.7121-3.6617-4.7407-1.5645-6.4235-1.4923-13.227 0.5676-4.2874 1.2981-9.2708 3.5639-11.074 5.035-2.7183 2.2175-2.82 2.5183-0.59513 1.7592 1.4761-0.5036 6.3048-1.4408 10.73-2.0826zm-191.2-1.1809c0-1.6355-11.932-6.6073-18.254-7.6061-3.7468-0.5919-7.0351-0.048-11.602 1.9181-3.5056 1.509-6.3739 2.916-6.3739 3.1269 0 0.2107 6.4914 0.3954 14.426 0.4105 8.7789 0.016 15.476 0.6573 17.109 1.6365 3.2287 1.9359 4.6966 2.0966 4.6966 0.5141zm188.28-7.5309 3.9466-1.6594-6.1022-2.0793c-6.936-2.3633-7.6562-2.0466-7.6562 3.3672 0 4.2128 0.62023 4.2362 9.8118 0.3715zm-188.8-3.607c-1.098-5.4895-0.94804-5.4039-6.31-3.6108-5.7911 1.9365-7.9872 3.8329-4.5116 3.8959 1.4391 0.027 4.1263 0.9107 5.9714 1.9654 4.9708 2.8416 5.7925 2.4605 4.8503-2.2505zm213.65-1.8321c1.5608-1.3495-3.1529-5.7652-7.5656-7.0872-6.9861-2.0932-9.2951-1.9987-17.129 0.7008l-6.613 2.2787 9.3931 2.9866c6.5809 2.0926 11.201 2.765 15.432 2.246 3.3212-0.4074 6.2383-0.9138 6.4827-1.1249zm-225.21-4.5282 7.3803-2.4083-4.0256-1.7014c-10.188-4.3054-24.769-1.8681-25.925 4.3338-0.37751 2.025 0.63808 2.337 7.3764 2.2662 4.2978-0.046 11.135-1.1656 15.194-2.4903zm158.48-21.646c-1.0627-2.6613-1.3301-1.5797-1.3989 5.6577-0.11286 11.868 1.7956 16.596 2.3203 5.7482 0.21586-4.4636-0.19876-9.5963-0.92135-11.406zm37.551 15.924 4.5463-1.5847-3.8956-1.0419c-4.4062-1.1785-6.1383-0.5356-6.1383 2.2779 0 2.3293-0.16372 2.3189 5.4876 0.3487zm-184.93-5.2946c-0.91388-0.9139-3.0108-1.1317-5.3004-0.551l-3.7884 0.961 4.0256 1.719c4.3558 1.86 7.662 0.4698 5.0632-2.129zm206.02 0.6344c6.2478-0.7503 7.0636-1.1975 6.7094-3.6774-0.27735-1.9418-2.04-3.3579-5.6462-4.5361-5.9104-1.931-10.427-0.9345-18.24 4.0239l-4.6966 2.9807 5.3675 0.8528c7.9761 1.2674 8.7751 1.2846 16.506 0.3561zm-213.21-3.9871c3.2371-0.6644 3.2362-0.668-0.89575-3.1807-7.8096-4.7493-13.979-5.8747-19.518-3.5602-3.3767 1.4109-4.9675 2.9333-4.9675 4.7542 0 2.2406 1.0425 2.7491 6.3739 3.1096 6.5584 0.4433 13.324 0.044 19.007-1.1229zm193.4-5.0824 5.7-3.2376-5.2275-1.4514c-7.2649-2.0171-8.5822-1.8471-8.5822 1.1076 0 2.5467 1.2652 6.8191 2.0195 6.8191 0.21471 0 2.9554-1.4569 6.0904-3.2377zm-185.23-4.294v-4.8459l-5.032 0.9246c-5.2106 0.9576-9.1835 3.3751-5.6359 3.4294 1.0702 0.016 3.4554 1.2108 5.3004 2.6541 4.6711 3.6537 5.3675 3.3733 5.3675-2.1622zm31.824-9.5793c-0.30745-2.0295-0.559-0.3689-0.559 3.6902 0 4.0592 0.25155 5.7197 0.559 3.6902 0.30747-2.0296 0.30747-5.3508 0-7.3804zm178.86 4.9381c0-2.7545-3.5446-4.7592-11.096-6.2755-3.7307-0.7491-15.742 2.9537-15.742 4.853 0 1.438 11.509 3.7375 19.793 3.9548 6.2398 0.1637 7.0448-0.1261 7.0448-2.5323zm-224.96-1.9373c4.3172-1.0313 8.1279-2.1535 8.4682-2.4938 1.4422-1.4422-11.871-5.238-15.969-4.5531-7.8091 1.3046-11.754 3.4193-11.754 6.3005 0 2.3094 0.85561 2.7099 5.703 2.6692 3.1367-0.027 9.2352-0.8915 13.553-1.9228zm196.83-4.5672c3.3347-2.0281 3.7078-2.6745 1.9355-3.3547-2.833-1.0872-10.674-1.0905-11.759 0-0.64816 0.6482 3.9453 5.6143 5.3898 5.8272 0.16667 0.025 2.162-1.0859 4.434-2.4676zm-179.69-3.0137c2.302-2.302 2.4932-3.0704 1.0064-4.043-1.0096-0.6606-3.0434-0.8995-4.5194-0.531-1.4761 0.3686-3.7405 0.6783-5.032 0.6884-3.4094 0.027-2.8784 1.7084 1.3442 4.2569 2.0283 1.224 3.8387 2.2807 4.0233 2.3482 0.18451 0.067 1.6144-1.1563 3.1776-2.7195zm168.71-9.0926c6.8488-3.4422 21.672-4.3704 32.799-2.0539 10.652 2.2178 14.962 4.246 20.989 9.8757 2.4215 2.2622 4.6409 4.1129 4.9319 4.1129 1.2839 0 0.27003-5.3986-2.646-14.09-2.7766-8.2756-3.8024-9.7585-8.6215-12.463-6.1394-3.4464-20.861-6.9348-29.416-6.97-9.9222-0.04-19.662 4.6293-27.132 13.01-5.34 5.9913-6.424 7.9772-5.3996 9.8914 0.705 1.3173 1.2818 4.3839 1.2818 6.8147v4.4196l4.1554-5.0413c2.2855-2.7728 6.3615-6.15 9.0577-7.505zm38.442 9.3394c-0.45613-0.738-1.4331-1.3418-2.1712-1.3418-0.73803 0-0.96868 0.6038-0.51255 1.3418 0.45613 0.7381 1.4331 1.3419 2.1712 1.3419 0.73803 0 0.96868-0.6038 0.51255-1.3419zm-258.23-3.4384c5.0937-5.4219 10.615-8.2672 20.468-10.548 18.606-4.3068 31.517-2.217 40.707 6.5889l5.6601 5.4233 0.83963-4.4756c0.46179-2.4615 1.1338-5.2422 1.4934-6.1794 0.99718-2.5986-10.865-14.981-17.367-18.128-10.35-5.0103-31.021-3.3196-44.657 3.6523-5.1863 2.6516-5.7415 3.5192-9.0577 14.155-1.9429 6.2317-3.5327 11.695-3.5327 12.14 0 1.7808 2.3855 0.6295 5.4462-2.6285zm20.05-0.06c0-0.2901-0.90577-0.5274-2.0128-0.5274s-2.0128 0.5849-2.0128 1.2998 0.90576 0.9522 2.0128 0.5273 2.0128-1.0096 2.0128-1.2997zm227.45-0.5274c0.50685-0.8202-1.419-1.3053-4.9528-1.2475-4.4617 0.073-5.1692 0.3575-3.0984 1.2475 3.7137 1.5957 7.065 1.5957 8.0513 0zm-213-3.6058c-1.283-0.3358-3.6983-0.348-5.3675-0.027-1.6692 0.3209-0.6195 0.5958 2.3326 0.6107 2.9521 0.015 4.3178-0.2478 3.0349-0.5836zm170.57-10.82c1.4153-2.7676 5.2016-8.0197 8.414-11.671 3.2124-3.6515 4.784-6.237 3.4924-5.7451-1.2915 0.4919-2.3483 0.3094-2.3483-0.4056 0-0.7148 0.90577-1.2998 2.0128-1.2998 4.1479 0 1.7977-2.1846-4.0256-3.7422-4.6104-1.233-6.0384-2.2508-6.0384-4.3039 0-1.9735 0.89245-2.6889 3.3547-2.6889 2.8918 0 3.3536-0.6018 3.347-4.3611-0.018-10.084-5.3299-31.005-7.3576-28.977-2.3543 2.3542-6.2819 68.228-4.0679 68.228 0.35402 0 1.8016-2.2645 3.217-5.0321zm-134.76-47.234c-1.2075-10.701-2.4347-19.701-2.727-19.998-1.1096-1.1304-4.9303 10.204-6.0521 17.954-1.8917 13.069-1.6462 15.217 1.7952 15.705 1.9817 0.2816 3.0192 1.3511 3.0192 3.1126s-1.0375 2.8312-3.0192 3.1126c-1.6606 0.2358-3.0192 1.0263-3.0192 1.7566 0 0.7302-0.54935 0.9882-1.2208 0.5732-0.67142-0.4151-2.2519-0.3588-3.5122 0.1248-1.9968 0.7663-1.883 1.1057 0.88533 2.6406 2.1168 1.1735 2.4738 1.7772 1.0701 1.8088-1.4202 0.032-0.30386 1.9833 3.427 5.9896 3.0435 3.2683 6.7087 8.1291 8.1451 10.802l2.6114 4.8599 0.39638-14.492c0.218-7.9707-0.59161-23.248-1.7992-33.95zm196.92 11.072c-0.55473-29.442-2.6057-39.685-2.8064-14.015-0.0825 10.559-0.84828 21.971-1.7016 25.36-1.3857 5.5029-1.2865 6.3558 0.92742 7.9745 1.3634 0.997 2.8164 1.8136 3.2289 1.8147 0.41247 0.0009 0.57073-9.5096 0.35171-21.135zm-256.37 10.943c-0.26009-2.8832-0.59438-13.998-0.74286-24.699-0.36732-26.473-0.58819-29.521-2.139-29.521-0.81303 0-1.3794 6.2139-1.4373 15.768-0.0525 8.6718-0.56854 20.598-1.1467 26.503-0.82206 8.3946-0.65496 11.059 0.76642 12.225 0.99971 0.8194 1.8176 2.5303 1.8176 3.802s0.7548 2.0544 1.6774 1.7396c1.0744-0.3668 1.5074-2.4569 1.2045-5.8148zm248.04 2.8984c0-3.8637-0.97684-4.0148-10.968-1.6958l-7.1473 1.6588 6.7094 1.5671c10.347 2.4167 11.406 2.2747 11.406-1.5301zm-232.37-1.5675c4.1802-0.4914 6.9971-1.0799 6.2598-1.3081-0.73739-0.2282-5.1147-1.2814-9.7274-2.3406l-8.3867-1.9261v4.0502c0 3.1455 0.47511 3.8678 2.127 3.2339 1.1699-0.4488 5.5472-1.2181 9.7274-1.7093zm216.78-3.1152c8.0325-2.173 14.9-4.2461 15.261-4.6072 0.36105-0.361 0.21646-8.2848-0.32128-17.608-0.95162-16.499-1.0546-16.929-3.8549-16.108-7.5524 2.215-21.164 3.673-29.04 3.1107l-8.7261-0.6231-0.2432 17.347-0.24319 17.347 5.6107 2.5472c3.0859 1.4012 5.9126 2.5469 6.2817 2.5464 0.36901-0.0005 7.2429-1.7789 15.276-3.9518zm-191.15-2.1503 5.3399-2.1367-0.28069-17.656-0.28071-17.656-13.688 0.4557c-9.206 0.3065-15.847-0.177-20.281-1.4766l-6.5918-1.9323-0.8463 10.87c-0.46547 5.9783-0.84993 13.918-0.85435 17.643l-0.008 6.7733 13.754 3.4862c16.807 4.2598 17.111 4.2805 23.736 1.6297zm199.68-39.531c2.8416-1.0008 4.3611-2.42 4.3611-4.0737 0-2.3639-0.82412-2.4794-12.031-1.6838-7.6385 0.5422-15.732 0.2208-22.17-0.8803-5.5764-0.954-10.553-1.3204-11.059-0.8145-1.7048 1.705 3.4465 8.1837 7.2604 9.1315 5.3088 1.3193 28.396 0.1667 33.638-1.6792zm-191.52-5.3235c2.1055-2.7773 2.2275-3.6299 0.73509-5.1357-1.4622-1.4755-3.2069-1.5112-9.5411-0.1964-4.2634 0.8851-13.836 1.3958-21.273 1.1347-11.599-0.4071-13.58-0.1677-13.939 1.6852-0.39926 2.0567 3.0427 4.0756 9.769 5.7301 1.4761 0.3631 9.2179 0.5369 17.204 0.3862 13.733-0.2591 14.658-0.4546 17.045-3.6041zm182.47-7.8366c2.5831-0.6623 6.3975-1.5864 8.4765-2.0535 2.9954-0.673 3.695-1.4967 3.371-3.9693-0.22488-1.716 0.34418-4.0273 1.2646-5.1363 1.1478-1.3831 2.0843-12.294 2.9815-34.74 1.4116-35.312 1.5444-36.61 8.7802-85.728 2.6637-18.082 5.7118-38.914 6.7736-46.295 4.7298-32.877 3.8077-72.704-2.2312-96.355-2.5662-10.051-4.0417-19.379-6.1436-38.838-0.45837-4.2437-1.2398-7.7158-1.7366-7.7158-0.49673 0-2.2687 1.8471-3.9379 4.1047-2.0816 2.8155-2.6213 4.6068-1.7182 5.7029 1.6578 2.0126 4.2483 15.852 4.2483 22.697 0 5.5944-3.737 14.143-7.5335 17.234-2.1154 1.7222-2.2655 1.6655-1.4371-0.5425 2.3603-6.2909 2.2604-12.877-0.34738-22.91-3.4948-13.444-3.5218-16.946-0.138-17.831 3.8518-1.0074 8.561-16.118 8.8042-28.249l0.195-9.7286h-4.9704c-2.7338 0-7.5377-0.9057-10.675-2.0128-3.1377-1.107-6.2046-2.0129-6.8153-2.0129-0.61072 0-2.3241 2.7439-3.8076 6.0975-4.0545 9.166-8.0592 14.124-13.114 16.236-2.6217 1.0955-4.1726 2.5142-3.6581 3.3466 1.1731 1.8981-4.5235 0.1524-8.1653-2.5022-2.6164-1.9072-2.6071-1.9338 0.36918-1.06 2.0144 0.5914 2.9273 0.3627 2.6838-0.6721-0.21207-0.9011 1.5253-1.7374 4.0824-1.9651 5.856-0.5217 9.9377-4.5562 14.185-14.021 6.5018-14.488 7.5197-35.281 2.7512-56.199-2.6381-11.574-2.2196-13.354 0.84773-3.6069 3.8073 12.098 5.6502 28.132 4.6656 40.591-0.86251 10.916-0.83167 11.07 2.2145 11.056 5.0363-0.024 16.103-3.8299 21.479-7.3877 10.864-7.1896 19.551-33.674 29.917-91.214 2.6583-14.754 6.8819-35.889 9.3857-46.966 12.935-57.22 16.254-78.673 17.669-114.2 0.63202-15.871 0.44314-21.859-0.71195-22.573-3.2435-2.0047-93.032 3.9674-120.28 7.9996-18.501 2.7385-40.324 7.8187-49.691 11.568-6.3568 2.5442-8.0637 3.8962-9.0419 7.1619-0.66318 2.2141-1.6642 20.33-2.2246 40.256-1.3132 46.697-0.10188 56.456 12.242 98.628 4.4585 15.232 11.416 33.788 13.078 34.881 0.56699 0.3731 1.769 2.9426 2.6713 5.7102 0.90222 2.7676 1.841 5.0321 2.086 5.0321 0.24509 0 1.1653-4.2664 2.0448-9.4808 2.1474-12.732 3.3195-10.842 1.5288 2.4638-1.4982 11.132-1.111 16.711 3.6537 52.641 4.8708 36.73 11.729 50.573 26.143 52.765 9.6201 1.4635 14.664 7.4313 9.7367 11.521-1.3475 1.1183-2.1304 7.0711-2.8301 21.518-1.2238 25.268 0.14424 30.378 10.958 40.937 7.5362 7.358 7.7966 10.578 0.55247 6.8321-10.444-5.4007-18.774-19.954-22.323-38.996-1.2354-6.6285-3.2491-15.848-4.4749-20.489-2.0135-7.6222-2.7949-8.7746-8.0904-11.933l-5.8616-3.4954 0.82066 3.8813c0.45136 2.1347 2.0846 13.845 3.6295 26.022 1.5449 12.178 3.6797 23.747 4.7441 25.71 1.8856 3.4774 1.3774 7.6554-1.137 9.3457-0.6856 0.461-3.9446 9.5187-7.2421 20.128-7.7234 24.849-10.175 45.246-6.7111 55.837 1.2409 3.7937 2.2562 7.7917 2.2562 8.8843s4.1841 14.565 9.2979 29.94c15.979 48.039 23.474 82.815 25.894 120.15l1.5399 23.753 5.4524 0.5013c10.994 1.0111 18.983 0.9268 23.568-0.2487zm-24.19-101c-0.06-19.936-2.1736-53.814-4.7232-75.704-2.8218-24.228-8.2632-56.477-10.112-59.931-1.5664-2.9267-0.59332-5.0754 1.3797-3.0467 2.2787 2.3429 8.0056 31.508 10.074 51.303 4.4568 42.656 4.8592 48.778 4.8577 73.917-0.00089 14.306-0.32382 26.332-0.71763 26.726-0.39381 0.3939-0.73493-5.5739-0.75807-13.262zm16.145-336.54c0-0.738 0.60384-1.715 1.3419-2.1711 0.73803-0.4562 1.3419-0.2255 1.3419 0.5126 0 0.738-0.60385 1.715-1.3419 2.1711-0.73803 0.4562-1.3419 0.2255-1.3419-0.5126zm-60.278-14.36c0.0644-1.5631 0.38235-1.8811 0.81071-0.8107 0.38762 0.9687 0.33995 2.1261-0.10585 2.572-0.44589 0.4458-0.76305-0.3467-0.70478-1.7613zm-116.01 448.46c0.0891-0.084 0.8603-10.418 1.7137-22.964 1.6049-23.592 6.3323-56.859 10.942-77.001 2.2307-9.7465 16.682-63.536 21.853-81.34 2.0185-6.9494 1.5337-21.812-1.1325-34.72-2.8315-13.709-12.52-43.78-14.106-43.78-1.9642 0-3.1331-6.535-1.5172-8.4819 0.79327-0.9559 2.983-12.502 4.8661-25.659s3.804-25.436 4.2686-27.286l0.84479-3.366-5.7636 3.4371c-6.8448 4.0815-8.168 7.2416-12.046 28.763-1.4907 8.2741-3.7693 17.74-5.0635 21.035-3.2886 8.372-10.208 17.786-15.398 20.95-9.0026 5.4888-10.596 2.0311-2.3261-5.0476 2.9776-2.5487 6.7516-7.1355 8.3867-10.193 2.78-5.1983 2.95-7.0244 2.6197-28.149-0.28497-18.224-0.75309-22.99-2.422-24.658-1.1379-1.1379-1.8864-3.4616-1.6633-5.1641 0.29883-2.2803-0.82964-3.9263-4.2874-6.2528-10.134-6.8187-16.975-28.394-15.31-48.284 0.84877-10.139 5.7424-33.901 6.7699-32.874 0.32091 0.3209-0.0761 3.5266-0.88225 7.1238-5.0455 22.513-4.2359 43.988 2.1987 58.326 3.9961 8.9045 10.101 15 14.46 14.438 1.5572-0.2009 3.601 0.1142 4.5414 0.6991 2.6461 1.647 9.3333-0.3446 13.813-4.1135 4.6429-3.9068 8.3105-10.508 10.636-19.146 3.0584-11.358 7.0646-45.033 7.9852-67.123l0.92284-22.141 0.34633 17.444 0.34634 17.444 5.952-18.115c14.111-42.949 22.55-74.284 25.396-94.305 2.0141-14.168 2.7882-68.64 1.1457-80.622-0.83634-6.1018-0.95003-6.2258-5.7073-6.2258-2.6697 0-9.0789-1.2207-14.243-2.7127-21.434-6.1928-57.582-14.847-75.303-18.026-26.515-4.7586-40.684-6.0483-66.741-6.0751l-22.629-0.18249 0.86964 13.754c3.2309 51.101 5.9418 66.255 21.544 120.44 3.932 13.654 9.6592 36.297 12.727 50.32 6.7649 30.92 14.622 62.53 16.005 64.389 0.55802 0.7498 2.0609 4.1967 3.3399 7.6598 1.2789 3.463 3.5997 7.9165 5.1573 9.8967 4.0329 5.1271 15.132 9.9446 22.948 9.9603 4.3375 0.011 6.313 0.5312 5.9644 1.5773-0.69751 2.0926-13.95 6.4022-19.831 6.4486l-4.6966 0.036 0.16781 8.7119c0.2223 11.54 4.4271 27.745 7.4009 28.523 3.656 0.9559 3.8736 5.4648 0.8419 17.438-2.4197 9.5557-2.6378 12.358-1.4197 18.231 0.79165 3.8169 1.2341 7.1605 0.98311 7.4303-0.25096 0.2696-2.3552-2.4476-4.6761-6.0385-4.184-6.4734-4.2134-6.6416-3.4686-19.792 0.49776-8.7879 1.4078-13.995 2.697-15.432 1.7157-1.9119 1.5824-2.6219-1.1276-6.004-1.6903-2.1095-3.3711-3.3172-3.7349-2.6838-0.36386 0.6335-1.3992 7.1904-2.3006 14.571-0.90149 7.3803-3.2439 20.363-5.2054 28.85-3.3204 14.368-3.5667 17.606-3.5714 46.966-0.005 31.863 1.2337 44.518 8.0785 82.525 9.0642 50.331 12.462 77.631 13.598 109.26 0.67223 18.721 1.3525 25.265 2.7316 26.283 1.0101 0.7446 1.6669 2.8466 1.4596 4.6709-0.35286 3.1051 0.26527 3.4557 9.6872 5.4962 6.5978 1.4288 13.53 1.9523 20.128 1.5197 5.5352-0.3628 10.137-0.7281 10.226-0.8118zm-7.5467-125.17c0-49.782 4.4681-96.061 10.91-113.01 2.327-6.1206 2.2372-2.2447-0.16622 7.1708-4.4971 17.617-8.2332 61.485-8.7237 102.43-0.2505 20.911-0.80761 38.372-1.238 38.803-0.43042 0.4305-0.78257-15.498-0.78257-35.398zm-13.2-307.7c0-1.845 0.30458-2.5999 0.67683-1.6773 0.37224 0.9225 0.37224 2.4321 0 3.3546-0.37225 0.9226-0.67683 0.1678-0.67683-1.6773zm18.68-34.33c0.0644-1.5631 0.38235-1.8811 0.81071-0.8107 0.38762 0.9687 0.33996 2.1261-0.10585 2.572-0.44589 0.4458-0.76304-0.3468-0.70477-1.7613zm-40.26-45.7c0.0644-1.5631 0.38235-1.8811 0.81071-0.8107 0.38762 0.9687 0.33995 2.126-0.10585 2.572-0.44589 0.4458-0.76304-0.3468-0.70477-1.7613zm-1.3419-6.7094c0.0644-1.5631 0.38235-1.8811 0.81071-0.8107 0.38762 0.9687 0.33996 2.1261-0.10585 2.572-0.44589 0.4458-0.76304-0.3467-0.70477-1.7613zm-1.3419-6.7094c0.0644-1.5631 0.38235-1.8811 0.8107-0.8107 0.38762 0.9687 0.33996 2.1261-0.10584 2.572-0.44589 0.4458-0.76305-0.3467-0.70478-1.7613zm109.92-92.056c0.0121-1.0434-8.6762-13.436-16.913-24.125-3.0348-3.938-11.682-13.771-19.216-21.85-7.5339-8.0792-14.34-15.888-15.123-17.353-1.4196-2.6526-1.4079-2.6527 2.731-0.0322 5.209 3.2981 45.067 38.708 48.539 43.124 1.4535 1.8478 3.2385 2.8516 4.1115 2.312 0.84855-0.52443 3.741-1.0626 6.4278-1.1959 4.0742-0.20212 7.6728-2.5684 21.68-14.255 30.112-25.123 44.482-36.803 46.739-37.99 1.2194-0.64109-8.3826 9.6243-21.338 22.812s-26.391 27.122-29.856 30.965c-6.5482 7.2607-8.0884 10.809-3.9533 9.1066 1.2915-0.53161 4.4617-1.147 7.0448-1.3678 2.5831-0.22063 11.338-1.9283 19.457-3.7948 33.547-7.7129 77.422-10.925 120.3-8.8058 14.137 0.69866 26.016 0.95823 26.397 0.57681 0.96881-0.96882-3.472-41.163-6.578-59.539-3.0943-18.306-7.6466-32.31-20.346-62.59-5.2619-12.547-9.7027-23.011-9.8684-23.253-0.16573-0.24247-9.5632 1.6712-20.883 4.2527-35.609 8.1205-69.2 13.438-103.78 16.429-32.438 2.8053-71.103 2.0236-92.613-1.8727-21.463-3.8875-55.76-11.988-70.106-16.558-6.8363-2.1777-13.044-3.5796-13.796-3.1153-2.0105 1.2425-15.683 28.983-19.389 39.338-4.2282 11.816-9.5603 33.068-13.687 54.556-5.1306 26.711-5.5766 30.017-5.6819 42.117l-0.098 11.254 13.084-0.70813c16.106-0.87167 52.8 1.0596 70.635 3.7175 17.485 2.6057 50.876 10.167 72.609 16.443 13.56 3.9156 18.114 4.7349 20.453 3.6798 1.6548-0.7464 3.0134-1.7714 3.0192-2.2775zm54.351-157.53c11.704-1.5003 19.672-3.1675 21.135-4.4225 1.7638-1.5129 2.3483-1.5848 2.3483-0.28895 0 1.2559 1.3694 1.4856 5.032 0.84426 2.7676-0.48465 10.062-1.4813 16.209-2.215 14.794-1.7653 18.973-3.7072 28.515-13.25 8.6351-8.6351 11.97-14.781 11.97-22.062 0-2.725 0.77306-4.8928 1.8988-5.3248 3.9902-1.5311-6.202-27.532-17.827-45.477-12.768-19.711-17.943-31.952-18.676-44.182-0.53434-8.92-0.17526-11.196 2.7526-17.444 2.4848-5.3031 4.1101-12.877 6.2027-28.905 1.5596-11.945 2.8355-24.042 2.8355-26.88v-5.1624l-12.156 0.97128c-6.6861 0.53422-15.593 1.6512-19.793 2.482-13.285 2.6281-46.506 11.021-47.622 12.031-0.58902 0.53302 4.5437 4.3646 11.406 8.5146 20.197 12.214 20.534 13.781 0.78426 3.6464-10.123-5.1957-19.463-9.4468-20.772-9.4468-1.3027 0-6.3825 1.5338-11.288 3.4084l-8.9197 3.4084 0.68756 21.08c0.51567 15.811 1.145 21.349 2.5174 22.154 1.0064 0.5902 1.8298 2.2508 1.8298 3.6902s0.51883 2.6171 1.1529 2.6171c2.2522 0 3.9597 24.404 2.716 38.814-0.66411 7.694-1.4241 14.206-1.6888 14.471-0.26475 0.26473-0.89554-3.313-1.4018-7.9506-0.76063-6.9682-2.8708-17.843-8.1085-41.787-0.29986-1.3708 0.0401-4.0318 0.75549-5.9133 1.475-3.8794-3.2046-39.817-5.5532-42.647-1.0448-1.2589-4.639-0.32178-15.481 4.0363-11.05 4.4414-15.784 7.2075-21.771 12.718-10.188 9.3779-17.232 13.344-25.204 14.188l-6.6008 0.70021 6.7922-2.4363c7.2204-2.5899 13.075-6.2834 17.206-10.854 2.126-2.3525 0.3678-1.9556-11.052 2.4947-7.4688 2.9107-15.523 6.2972-17.898 7.5254l-4.3186 2.2333 3.5681 2.8431c1.9625 1.5637 5.8598 4.0359 8.6608 5.494 2.801 1.458 7.2062 3.9956 9.7893 5.6391 6.3601 4.0468 11.915 5.1318 26.167 5.1118 10.318-0.0145 13.221-0.55041 19.932-3.6793 5.5745-2.5994 8.4957-3.2999 10.064-2.4137 1.8304 1.0343 1.347 1.6109-2.8162 3.3593-13.272 5.5735-33.875 8.002-40.015 4.7163-2.2907-1.2259-2.5955-0.92887-2.5955 2.5304 0 2.1557-0.90205 5.6491-2.0046 7.763-2.533 4.857-2.4893 6.4231 0.61334 21.943 3.4404 17.209 5.2378 18.663 28.229 22.831 14.138 2.5631 13.674 3.6548-2.0037 4.7235-10.255 0.69901-15.302 0.53454-17.047-0.55559-1.9157-1.1963-2.6013-1.1601-3.0144 0.15919-0.29413 0.93926-2.3746 7.4443-4.6234 14.456-5.9247 18.473-8.6097 37.284-6.9723 48.846 0.71997 5.0839 1.9757 9.9106 2.7906 10.726 2.4583 2.4601 16.431 3.2495 50.999 2.8814 21.787-0.232 39.213-1.1624 51.662-2.7582zm24.825-8.162c0-0.43959 1.1508-2.4154 2.5574-4.3907 4.6157-6.4822 7.2184-18.31 6.1744-28.059-1.4256-13.311-3.7122-19.318-12.112-31.813-4.2081-6.2907-7.9224-11.433-8.2445-11.433-0.31594 0-2.205 0.83093-4.1979 1.8465-3.632 1.8508-29.665 6.7769-30.643 5.7985-0.28636-0.28636 4.6436-1.8849 10.955-3.5523 8.0577-2.1286 12.54-4.1111 15.047-6.6553l3.5712-3.6236 0.0649-24.397c0.0634-23.846 0.004-24.375-2.6189-23.409-1.4761 0.54368-10.836 0.98849-20.799 0.98849h-18.115v-3.3547c0-2.5573 0.63791-3.2853 2.6838-3.063 33.68 3.6599 37.636 3.2339 42.226-4.5461 2.8424-4.8176 2.8871-4.8359 4.8731-2.0005 1.6837 2.4038 1.7573 4.2061 0.45983 11.267-0.84946 4.6234-1.5866 15.048-1.6382 23.166-0.10553 16.605 0.96079 20.038 11.6 37.347 8.782 14.287 10.915 21.805 10.915 38.469 0 13.066-0.3119 14.748-4.2906 23.147-2.5819 5.4505-5.1203 9.0577-6.3739 9.0577-1.1459 0-2.0833-0.35966-2.0833-0.79926zm-69.883-38.311c-2.0643-3.8573-0.78947-14.035 2.1672-17.303 2.8775-3.1796 5.1012-3.3256 7.9075-0.51925 2.5097 2.5097 2.1121 15.45-0.57414 18.686-2.4665 2.972-7.7024 2.4955-9.5006-0.86463zm77.93-138.04c0.78997-1.4761 1.7382-2.6838 2.1073-2.6838 0.36902 0 0.0246 1.2077-0.76536 2.6838-0.78997 1.4761-1.7382 2.6838-2.1073 2.6838-0.36901 0-0.0246-1.2077 0.76537-2.6838zm-141.83 176.12c-3.058-7.7152-3.5867-11.046-3.5671-22.477 0.02-11.72 0.63194-15.288 4.8334-28.179 2.6458-8.1184 5.1619-17.327 5.5914-20.463 0.42954-3.1367 1.1352-8.0017 1.5682-10.811 0.58572-3.8008-0.13109-7.3208-2.8008-13.754-1.9733-4.7554-3.9161-12.374-4.3174-16.93-0.72758-8.2628-0.74865-8.2977-8.0355-13.317-4.0183-2.7675-9.4947-7.7951-12.169-11.173-2.6751-3.3774-5.2444-6.612-5.7095-7.1878-0.7942-0.9832-23.42 10.245-24.648 12.231-0.5122 0.82875 11.703 20.077 13.767 21.691 1.718 1.3449 4.211 6.7331 4.1824 9.0394-0.0541 4.3391-4.88 13.122-14.983 27.269-13.927 19.501-15.893 23.055-17.752 32.076-1.4675 7.1212-1.4047 7.9778 0.62378 8.5082 1.3697 0.35819 2.6345 2.6097 3.2204 5.7326 1.2116 6.4583 5.1962 14.359 9.1286 18.101 8.9563 8.5221 11.741 9.7399 32.307 14.128 11.198 2.3896 20.808 4.3959 21.355 4.4585 0.54719 0.0626-0.62065-3.9622-2.5952-8.944zm199.16-6.5812c5.7408-1.221 10.942-2.6612 11.558-3.2005 1.6012-1.401-2.6282-8.9753-6.0278-10.795-2.3841-1.276-3.0916-1.1132-4.2033 0.96664-0.73519 1.3755-4.3936 5.369-8.1297 8.8747-3.7362 3.5056-6.0826 6.3739-5.2141 6.3739 0.86847 0 6.276-0.99902 12.017-2.22zm-263.3-2.2007c-2.9521-1.6682-6.8455-5.3095-8.652-8.0916l-3.2845-5.0584-1.6726 3.1924c-3.1261 5.9665-2.7406 6.5694 6.2288 9.7412 11.223 3.9688 14.173 4.0554 7.3803 0.21657zm12.492-139.19c6.5121-3.9704 30.691-14.119 49.905-20.946 45.763-16.261 127.18-42.047 147.61-46.75 12.356-2.8447 23.634-2.7112 25.388 0.30054 0.98866 1.6974 1.379-1.836 1.4086-12.748 0.0224-8.3029-0.34683-15.096-0.8206-15.096s-4.5866 2.3527-9.1398 5.2283-11.029 6.1623-14.392 7.3039c-9.731 3.3038-29.029 6.2486-40.688 6.209-11.929-0.0405-11.438-1.741 0.93384-3.2335 10.579-1.2762 34.061-7.7786 41.337-11.447 15.57-7.8486 26.838-22.081 29.565-37.344 0.90518-5.0652 1.386-14.643 1.0686-21.283-0.70973-14.844-4.0684-22.478-15.859-36.047-15.397-17.719-35.388-42.925-41.701-52.578-12.784-19.551-20.456-45.507-17.792-60.202 1.1859-6.5429 1.0944-7.3057-0.78907-6.5752-1.1718 0.45444-5.1499 1.1363-8.8401 1.5152-3.6902 0.37894-7.6152 1.0358-8.7222 1.4596-1.107 0.42384-2.5106 0.65979-3.119 0.52434-1.2849-0.28608-0.2676 1.5856 3.9139 7.2005 4.0418 5.4275 9.201 17.386 11.016 25.534 5.2757 23.685 1.8549 50.575-9.8476 77.407-10.137 23.242-21.426 36.058-43.394 49.261-8.9081 5.354-13.096 6.939-23.518 8.9021-11.091 2.089-14.332 2.1861-25.864 0.77408-53.296-6.5262-82.413-25.392-92.444-59.896-2.3475-8.0756-3.0448-31.424-1.1905-39.867l0.82241-3.7444h-9.3355c-6.8316 0-9.8027 0.56297-11.077 2.0991-1.1493 1.3847-2.8681 1.8165-5.0509 1.2687-3.1249-0.7843-3.0769-0.63531 0.86353 2.6803 2.2948 1.9309 6.0073 7.2475 8.25 11.815 6.4158 13.066 8.0362 23.705 8.0626 52.935 0.0193 21.459-0.45394 27.95-2.7888 38.243-6.6458 29.3-0.85529 56.064 15.952 73.73 6.7798 7.1264 7.9954 7.8215 17.536 10.026 22.545 5.2106 42.868 1.9655 71.499-11.417 14.065-6.5736 33.258-12.423 39.983-12.184 1.889 0.0668-1.908 1.5226-8.4379 3.2351-15.499 4.0645-26.366 9.6039-37.106 18.913-4.7973 4.1586-12.647 9.4539-17.444 11.768-8.3407 4.0222-9.5147 4.2163-26.838 4.4358-9.9634 0.12627-18.662 0.27728-19.329 0.33546-0.6679 0.0583-0.33339 1.1625 0.74335 2.454s3.3766 6.5752 5.1107 11.742c4.0526 12.074 6.4296 16.775 8.4781 16.768 0.90359-0.002 3.6413-1.2235 6.0839-2.7126zm93.936-67.976c0.96867-0.38762 2.1261-0.33995 2.5719 0.10585 0.44589 0.44589-0.34666 0.76304-1.7612 0.70477-1.5632-0.0644-1.8812-0.38234-0.81073-0.8107zm-159.3-67.39c1.3996-3.9902 2.5485-8.2171 2.5531-9.3931 0.004-1.176 0.87427-3.7984 1.9327-5.8274 1.6953-3.2499 1.6204-5.6697-0.62907-20.324-3.0554-19.904-6.1799-33.066-9.6238-40.542-2.8064-6.0919-7.1009-11.261-9.3554-11.261-0.94036 0-1.2348-2.3478-0.8268-6.5934l0.63353-6.5933-11.534-2.68c-22.049-5.1236-19.264-5.3242-35.194 2.5356-7.938 3.9167-14.162 7.5592-13.831 8.0944 0.3308 0.53525-10.119 7.8788-23.222 16.319-48.671 31.351-66.539 40.993-80.183 43.273-2.9521 0.49318-6.5752 1.2352-8.0513 1.649-2.6838 0.75232-2.6838 0.75232 0 1.8013 4.1007 1.6028-0.25259 1.347-9.385-0.55158-5.8248-1.2109-8.1701-2.3313-8.5034-4.0621-0.29196-1.516 0.54762-2.6537 2.2958-3.1108 1.5158-0.39639 3.0996-1.8032 3.5195-3.1261 0.79413-2.5021 6.5583-4.6783 8.7704-3.3111 1.8379 1.136 23.439-2.8248 32.549-5.968 10.264-3.5415 27.542-13.335 54.622-30.959 28.349-18.45 61.725-38.859 72.651-44.424 10.003-5.095 18.837-5.8002 24.682-1.9706 2.9599 1.9394 5.5256 2.3072 12.576 1.8026 11.141-0.79712 20.643-5.3059 32.337-15.344 21.671-18.601 38.75-28.666 50.098-29.523 3.5726-0.27009 7.4977-0.98713 8.7222-1.5934 1.2245-0.60632 5.6415-1.8886 9.8154-2.8496 4.1739-0.96099 9.3066-3.1755 11.406-4.9212l3.817-3.1739-3.7776 1.345c-5.023 1.7884-7.0828 1.696-9.2099-0.41354-1.4623-1.4502-5.0188-1.4215-20.284 0.16359-10.181 1.0572-18.897 1.5365-19.368 1.0652-2.0542-2.0542 2.7364-3.6716 14.505-4.897 6.9509-0.72373 20.415-2.3028 29.918-3.509 16.055-2.0376 17.369-2.0359 18.522 0.0243 1.5417 2.7547 6.1418 1.8757 14.182-2.71 4.1555-2.37 5.6608-4.0563 5.5473-6.2151-0.13258-2.5243-0.25142-2.5895-0.80293-0.43998-0.57099 2.2255-1.5988 2.4364-8.7238 1.7904-4.8883-0.44327-14.503 0.25362-24.358 1.7654-8.9544 1.3738-23.209 3.1288-31.677 3.9001-12.928 1.1776-15.704 1.0938-17.321-0.52263-1.6721-1.6721-2.4701-1.6288-6.0739 0.32958l-4.1489 2.2546 3.6261 0.43681c4.6165 0.55612 6.3064 5.049 3.0603 8.1364-1.7875 1.7001-2.4577 1.8033-2.9557 0.45478-0.51324-1.3896-1.2707-1.3333-3.7296 0.27779-1.697 1.1119-9.12 3.5514-16.495 5.421-7.3756 1.8696-14.532 3.7258-15.902 4.1248-1.3706 0.399-0.98238 0.002 0.8627-0.88072 19.018-9.1059 27.678-14.186 26.383-15.48-0.6673-0.66732-19.259 8.4626-35.506 17.436-16.496 9.1111-25.082 12.116-35.041 12.263-7.6937 0.11365-9.5911 0.68012-14.625 4.3664-4.2874 3.139-7.7615 4.4368-13.419 5.0123-9.7944 0.99648-22.659 3.6889-41.181 8.6181-8.1184 2.1606-35.896 8.5237-61.726 14.14-44.609 9.6993-59.082 13.2-70.978 17.165-10.328 3.4428-25.182 20.238-27.142 30.687l-0.86306 4.6019 5.3907-5.1537c2.9649-2.8345 5.7339-4.5983 6.1533-3.9197 2.3714 3.8369-19.913 37.02-24.361 36.274-1.1893-0.19952-2.3662 0.62472-2.6153 1.8316-0.33436 1.6202 2.2863 3.3438 10.015 6.5868 16.505 6.9256 25.474 9.3341 34.76 9.3341 4.7414 0 9.6694 0.52198 10.951 1.1599 1.2816 0.63798 10.18 2.7197 19.775 4.626 9.5944 1.9063 27.23 5.5916 39.19 8.1896 21.69 4.7114 21.797 4.7204 41.598 3.5113 20.932-1.2782 28.168-3.0314 37.245-9.0236 9.0133-5.9503 15.122-4.4301 31.937 7.9471 9.0053 6.6288 27.741 25.724 27.923 28.459 0.12171 1.8316 4.8075-8.5326 8.0954-17.906zm-109.46-28.19c1.4556-1.4113 7.4773-4.1405 13.381-6.0648 7.2599-2.3662 8.9974-3.2671 5.3675-2.7832-13.223 1.7631-31.43 3.3048-37.573 3.1815l-6.7094-0.13457 6.7094-1.1407c11.978-2.0364 53.047-6.5948 59.417-6.5948 8.6336 0 5.7678 1.9019-7.0841 4.7013-12.062 2.6274-30.201 8.3869-32.138 10.205-0.70114 0.6579-1.892 1.1962-2.6465 1.1962-0.75444 0-0.18078-1.1547 1.2748-2.566zm-35.932-5.0322c0.92253-0.37224 2.4321-0.37224 3.3547 0 0.92253 0.37225 0.16773 0.67684-1.6774 0.67684s-2.5999-0.30459-1.6773-0.67684zm113.05-12.807c-22.229-14.04-31.777-18.741-42.03-20.691-10.364-1.9713-16.103-5.2197-16.741-9.4774-1.7011-11.334 22.565-3.1518 44.819 15.112 5.8292 4.7841 13.523 11.098 17.097 14.031 3.5737 2.9328 7.4937 5.8898 8.711 6.571 1.2174 0.68124 1.9164 1.5239 1.5536 1.8726-0.36287 0.34865-6.3962-2.9895-13.408-7.418zm159.68 37.124c0-7.5232-15.756-24.487-28.445-30.625-8.6331-4.176-4.6282-4.8783 5.6178-0.98513 3.6981 1.4052 6.7238 2.009 6.7238 1.3419 0-0.66713-0.60385-1.213-1.3419-1.213-0.73803 0-1.3419-0.61403-1.3419-1.3645 0-2.1444 12.929 4.9572 19.06 10.469 3.0496 2.7417 7.2548 7.6695 9.3449 10.951l3.8003 5.9657v-8.253c0-9.0251 3.8241-21.332 9.7947-31.519 3.6847-6.2874 15.415-19.187 16.479-18.123 0.33498 0.33497-1.5393 4.1714-4.165 8.5255s-5.7792 11.237-7.0078 15.296c-3.3373 11.026-2.2699 37.573 1.5108 37.573 6.4646 0 31.304-20.511 34.701-28.655 0.92989-2.2292 4.2943-9.4924 7.4765-16.14 13.128-27.425 14.59-55.743 4.0715-78.809l-4.0467-8.8738-13.64 6.8932c-7.5022 3.7912-19.206 9.097-26.008 11.79-18.172 7.1959-24.884 13.143-26.237 23.246-1.3343 9.9633-11.716 7.8944-11.716-2.3348 0-7.5039 5.4371-16.403 12.922-21.149 3.2875-2.0848 18.331-7.8344 33.429-12.777 15.099-4.9424 27.453-9.4534 27.453-10.024 0-0.57095-3.3212-5.0899-7.3803-10.042-4.0591-4.9522-7.3803-9.4844-7.3803-10.072 0-0.58723-4.076-2.085-9.0577-3.3283s-13.482-4.3812-18.89-6.9729c-11.302-5.4164-17.29-5.3482-26.022 0.29674l-4.9907 3.2263-0.37683 16.446-0.37685 16.446-2.6351-15.13c-2.1662-12.438-3.0019-14.987-4.6966-14.331-1.1337 0.43912-3.7345 1.136-5.7795 1.5486-2.0449 0.41265-3.9866 1.1847-4.3148 1.7158-0.99197 1.6051 6.089 23.403 8.1171 24.988 3.2295 2.523 5.7937 10.179 4.5259 13.513-0.68359 1.798-0.5914 4.6318 0.22706 6.9797 1.9559 5.6109 1.0395 14.144-1.5722 14.638-3.0884 0.58416-9.8399-5.0722-8.1142-6.798 0.94635-0.94636 2.0318-0.84036 3.4504 0.33698 1.8132 1.5048 2.0697 0.96451 2.0697-4.3595 0-5.1076-0.37464-5.9874-2.3483-5.5142-6.0449 1.4492-31.404 4.1428-34.15 3.6274-1.6976-0.3187-10.835 0.96693-20.304 2.857-9.4576 1.8894-20.558 3.4352-24.637 3.4352-6.2308 0-8.7614 0.81322-15.659 5.032l-8.2268 5.032 16.103 0.88809c21.665 1.1949 42.585 0.32008 56.742-2.3729 26.795-5.0967 33.835-2.839 33.835 10.851 0 3.3498-0.69811 4.7646-2.6578 5.3866-2.9785 0.94537-9.0315-2.8156-9.7051-6.0302-0.36191-1.7272-5.4044-2.0128-35.526-2.0128h-35.106l-0.77161 3.858c-0.4244 2.1219-0.77162 8.4864-0.77162 14.143 0 32.775 17.147 53.246 54.346 64.881 5.9043 1.8466 15.264 4.086 20.799 4.9761 5.5352 0.89017 10.97 1.796 12.077 2.0128 6.0812 1.1915 10.735 0.60159 10.735-1.3606zm161.58-77.238c2.8678-8.0749 9.7158-15.935 17.092-19.619 6.5535-3.273 21.247-7.1855 38.808-10.334 12.707-2.2781 29.505-7.5174 38.814-12.106 20.242-9.9771 77.094-39.968 83.339-43.962 4.0929-2.6182 10.264-6.0087 13.714-7.5347 3.4497-1.526 6.2722-3.3427 6.2722-4.0372 0-1.7396 13.325-3.2928 25.705-2.9961 9.5491 0.22882 11.49-0.2453 27.508-6.7201 37.136-15.011 71.581-33.972 109.82-60.456 9.5944-6.6442 21.503-14.274 26.464-16.955 4.9607-2.6808 8.8402-5.0535 8.6211-5.2726-0.219-0.21905-6.068 1.3793-12.998 3.5519-6.9298 2.1726-12.803 3.7467-13.052 3.498-0.6375-0.6375 17.209-7.9585 29.254-12.001 10.552-3.541 25.335-6.3991 27.212-5.2611 0.6 0.36376 2.2664-0.40243 3.7032-1.7027 2.2846-2.0676 3.0384-2.1359 6.0104-0.5454 2.153 1.1523 8.1711 1.8474 16.425 1.8971 12.835 0.0773 13.129 0.006 19.92-4.7458 3.9295-2.7501 12.007-6.4076 18.786-8.507 6.541-2.0255 15.41-5.2709 19.71-7.2119l7.8165-3.5292-4.3807-1.475c-4.9738-1.6747-6.2115-3.8384-3.8344-6.7027 2.2169-2.6712 0.8503-2.4751-5.567 0.79872-10.918 5.5695-32.908 9.6121-39.185 7.2034-1.7277-0.66297-1.7446-1.2456-0.1272-4.3611 1.8639-3.5903 1.8912-3.5959 17.652-3.5959 13.258 0 16.475-0.41747 20.095-2.6075 3.2659-1.9758 3.962-3.0271 2.8733-4.3389-1.0931-1.3172-0.5194-2.0877 2.3992-3.2215 10.177-3.9535 26.772-10.043 40.737-14.95 19.877-6.9836 25.496-9.8439 25.496-12.98 0-2.2168-0.65-2.3618-6.0577-1.3515-3.3317 0.62242-7.1057 1.6686-8.3867 2.3249-10.619 5.4403-64.334 18.02-74.663 17.484-4.5862-0.23739-8.0145 0.96596-17.67 6.202-24.716 13.404-39.312 21.983-42.039 24.711-1.9224 1.9224-4.5209 2.8158-8.1903 2.8158-2.956 0-16.405 2.9515-29.887 6.5589s-29.632 7.5746-35.888 8.8161c-6.2564 1.2415-18.319 4.2934-26.806 6.782-8.4873 2.4886-21.772 5.5227-29.521 6.7428-18.61 2.9298-38.004 7.5134-53.675 12.686-18.41 6.0767-41.81 17.742-46.324 23.093l-3.7347 4.4278 6.5785 0.72521c3.6182 0.39886 8.9939 1.9085 11.946 3.3547 2.9522 1.4462 6.8771 2.6294 8.7222 2.6294 2.7682 0 3.4255 0.72579 3.7595 4.1513 0.3236 3.3176-1.2446 6.376-7.8077 15.228-4.517 6.092-8.4781 10.811-8.8025 10.486-0.3245-0.32444 1.5285-5.1748 4.1176-10.779 5.6382-12.204 5.7975-14.68 1.1776-18.314-9.4455-7.4299-26.086-6.9135-61.85 1.9194-29.373 7.2545-72.582 21.23-86.834 28.085-5.4686 2.6303-10.56 4.7824-11.314 4.7824-2.652 0-5.5026-5.6298-4.1398-8.176 1.118-2.0888 0.46905-2.5323-5.0959-3.4827-9.6248-1.6437-30.545-0.85376-42.607 1.609-17.61 3.5955-55.688 20.062-55.688 24.081 0 0.91042-1.222 2.7612-2.7154 4.1128-4.1422 3.7487-0.35801 5.1041 4.6542 1.667l4.0997-2.8114-4.3611 4.6473c-3.9263 4.184-4.3611 5.4558-4.3611 12.755 0 22.724 11.503 47.042 33.882 71.636 6.0675 6.6675 7.7158 7.8737 7.7158 5.6464 0-8.2282 17.629-46.283 35.11-75.789 5.1376-8.6718 9.5643-15.768 9.8372-15.768 0.27294 0-2.1878 5.2603-5.4684 11.689-9.6722 18.958-30.09 72.569-30.09 78.999 0 1.7863-1.1406 4.3884-2.5346 5.7824-2.4849 2.4849-2.4799 2.5894 0.25824 5.3276l2.7929 2.7929 2.2802-5.663c1.2542-3.1147 3.2667-8.4404 4.4722-11.835zm22.919-38.775c0.45613-0.73803 2.7684-1.3419 5.1382-1.3419 10.624 0 63.346-17.587 114.21-38.1 12.034-4.8528 15.864-5.9017 13.426-3.6765-2.1657 1.9764-32.107 14.169-61.66 25.109-15.499 5.7373-28.369 10.895-28.601 11.462-0.23218 0.56646-1.3498 0.67394-2.4836 0.23885-1.1338-0.4351-2.4535-0.20153-2.9325 0.51907-1.0766 1.6195-26.743 7.1321-33.207 7.1321-2.8081 0-4.3883-0.54434-3.8953-1.3419zm-303.26 12.45c3.4193-0.68226 2.6109-1.0704-5.3675-2.5769-5.1662-0.97553-9.997-1.686-10.735-1.579-0.73804 0.10703-3.0333-0.50276-5.1005-1.3552-3.173-1.3084-5.4731-0.97599-14.761 2.133l-11.002 3.683 15.432 0.75156c15.393 0.74964 23.912 0.46419 31.534-1.0565zm41.598-9.8558c2.9521-0.75599 15.935-2.1533 28.85-3.1052 22.623-1.6673 32.205-3.8818 32.205-7.4427 0-0.65038-3.3523-2.237-7.4496-3.5257-6.6478-2.091-8.6448-2.1572-18.555-0.61553-8.776 1.3652-12.139 1.3864-16.034 0.10112-5.5086-1.818-7.481-6.0388-4.9938-10.686 0.82675-1.5448 1.1469-2.8087 0.71141-2.8087-0.94296 0-14.443 9.0808-24.831 16.703-4.0772 2.9913-10.092 6.6446-13.366 8.1185l-5.9533 2.6797 3.9731 0.85171c6.3574 1.3628 19.618 1.2225 25.443-0.26929zm49.315-21.86c4.2436-0.01 7.7158-0.35401 7.7158-0.76672 0-0.77294-6.8842-21.983-7.3163-22.542-0.51292-0.6631-9.3087 2.3365-10.034 3.4218-0.42091 0.63-4.2374 2.7211-8.4811 4.6469s-7.7158 4.2024-7.7158 5.0593c0 0.85683-1.5096 3.3519-3.3547 5.5447-5.4581 6.4865-4.6818 6.98 9.0577 5.7572 6.8268-0.60757 15.885-1.112 20.128-1.1211zm-142.57-11.01c4.0591-1.8827 9.2982-5.2731 11.642-7.5345 3.8627-3.7261 4.8155-4.0284 10.168-3.2257 5.0416 0.75603 9.4242-0.3056 29.935-7.2514 13.216-4.4754 30.448-10.622 38.294-13.66l14.266-5.5228 0.85147-10.073c1.1364-13.443 1.0746-20.699-0.16973-19.931-1.8061 1.1162-6.0546-2.9502-5.2561-5.0309 0.42278-1.1018 2.9834-2.4187 5.6901-2.9265 4.2154-0.79084 5.3262-1.812 7.7432-7.1189 3.7829-8.3059 4.0583-28.711 0.51151-37.901-2.1562-5.5869-8.848-14.186-7.1178-9.1468 1.4058 4.0946 1.8523 10.644 0.67628 9.9172-0.67431-0.41674-1.226-1.7954-1.226-3.0637 0-2.7517-3.6456-8.2707-5.4633-8.2707-1.2338 0-6.5982 7.7906-6.6086 9.5973-0.008 1.4056 8.4471 4.3338 11.636 4.0297 4.1008-0.39719 7.1495 4.5946 7.1495 11.701 0 6.6342-8.0835 22.973-11.358 22.973-6.3769 0-7.8357-4.7001-3.7343-12.031l2.3483-4.1974-4.1438-3.7495c-6.0132-5.4412-7.5468-12.759-4.4216-21.096 2.4198-6.456 2.4185-6.5086-0.0812-3.2508-2.7251 3.5516-4.5631 10.287-3.3451 12.258 0.40927 0.66222-0.49918 1.204-2.0188 1.204-6.4368 0-1.0153-16.619 7.0198-21.517 5.2524-3.2026 11.373-3.3779 15.559-0.44552 4.0747 2.854 8.0964 11.834 8.3339 18.608 0.18022 5.1393 0.22928 5.1963 1.1537 1.3419l0.96542-4.0256 1.1978 4.0256c0.65882 2.2141 1.1808 10.97 1.16 19.457-0.0439 17.847-2.3438 24.875-8.9579 27.371-2.9702 1.1211-3.6666 2.0646-3.0629 4.1488 0.42982 1.4837 1.7571 6.869 2.9497 11.967 2.0815 8.8991 2.0666 9.3489-0.37361 11.251-2.47 1.9254-2.4659 1.9546 0.142 1.0349 1.4761-0.52056 11.709-2.4309 22.739-4.2453 11.03-1.8143 20.182-3.4322 20.336-3.5952 0.15477-0.16302-3.0259-4.8044-7.0682-10.314-4.0423-5.5097-9.5449-13.964-12.228-18.786-2.6832-4.8227-5.6197-9.5269-6.5255-10.454-1.9322-1.9772-2.4578-3.6508-4.5278-14.417-7.3591-38.275-17.15-65.057-29.447-80.547-2.9147-3.6714-7.289-9.2238-9.7208-12.339-5.9316-7.5982-11.047-10.699-22.414-13.585-5.2462-1.3323-9.1762-2.7847-8.7334-3.2275 1.2659-1.2659-11.247-2.9438-21.582-2.8939-10.178 0.0492-20.827 2.2172-29.902 6.0885-8.2563 3.5217-31.617 20.417-40.467 29.266-9.4419 9.4419-17.995 25.755-21.766 41.513-5.0523 21.114-1.9989 48.167 7.5907 67.252 8.9988 17.908 8.3778 17.087 13.653 18.076 7.0748 1.3273 15.203 5.7477 15.203 8.2679 0 1.1711 1.7629 5.8386 3.9176 10.372 3.731 7.8502 5.894 16.632 7.5668 30.719 0.42949 3.6169 1.4469 6.3682 2.352 6.3608 0.87732-0.006 4.9163-1.5535 8.9754-3.4362zm-19.172-55.085c-2.3441-2.3441-0.41863-7.064 6.6433-16.284 4.1797-5.4569 9.7545-11.387 12.388-13.176 5.4853-3.7273 14.225-4.3634 18.334-1.3342 2.372 1.7484 2.1087 1.8544-2.9472 1.1855-4.936-0.65304-6.0972-0.2333-10.466 3.783-2.7026 2.4846-7.4789 9.3483-10.614 15.252-4.5392 8.5489-6.3804 10.816-9.0415 11.132-1.8378 0.21839-3.7718-0.0332-4.2978-0.55912zm185.93 25.448c-0.9085-0.36757-2.72-0.38993-4.0256-0.0498-1.3056 0.34021-0.56229 0.64095 1.6518 0.66831 2.2141 0.0274 3.2823-0.25102 2.3738-0.6186zm37.197-17.218c0.91097-1.0977 1.3323-2.8402 0.93623-3.8721-0.91562-2.3861-10.29-1.4742-20.915 2.0345-5.0422 1.6651-5.9933 2.2563-2.8899 1.7964 16.047-2.378 18.857-2.402 18.857-0.16053 0 2.7381 1.8301 2.8302 4.0115 0.20182zm-98.09-43.27c4.0075-8.2487 5.1168-18.884 2.3482-22.513-1.8927-2.4809-1.993-2.1258-1.3254 4.6966 0.62803 6.4196 0.26819 8.0431-2.7643 12.472-3.3097 4.8336-4.7236 11.682-2.4118 11.682 0.59097 0 2.46-2.8519 4.1535-6.3374zm-4.5235-24.167c-4.6889-4.0332-8.272-3.9368-9.0712 0.24439-0.61156 3.1991 2.3267 6.1106 3.2802 3.2502 0.64862-1.9458 7.7276 3.9432 7.9851 6.6429 0.11809 1.238 0.46875 0.14817 0.77921-2.4218 0.45682-3.7817-0.11004-5.253-2.9734-7.7158zm756.81-48.651c0-2.692-4.0494-3.2958-8.8284-1.3163-5.8784 2.4349-4.7266 4.1805 2.4545 3.7197 4.5615-0.29271 6.3739-0.97608 6.3739-2.4035zm-5.3675-9.4115c1.7696-0.76042 1.9981-1.1784 0.6709-1.227-1.1069-0.0406-2.9185 0.51157-4.0256 1.227-2.4529 1.5851-0.3343 1.5851 3.3547 0zm24.825-2.716c16.278-2.8604 22.812-4.8425 22.812-6.9192 0-0.69205-0.4529-0.97952-1.0064-0.63883-0.5535 0.3407-8.6479 2.1928-17.988 4.1159-9.3397 1.9231-19.001 4.4303-21.47 5.5718-3.246 1.5008-3.56 1.8686-1.1341 1.3287 1.8451-0.41063 10.299-1.967 18.786-3.4584zm12.73-8.0988c11.761-3.0805 20.237-6.316 19.217-7.3358-0.3691-0.36901-2.9696 0.28944-5.7788 1.4632-2.8094 1.1738-8.2147 2.6398-12.011 3.2579-7.2516 1.1802-17.67 5.0809-14.072 5.2687 1.1525 0.0602 6.8433-1.1342 12.646-2.654zm29.736-17.744c2.5327-4.8977 1.7953-5.6318-3.8022-3.7844-3.3166 1.0946-4.8165 2.6206-5.8634 5.9652l-1.4067 4.4944 4.529-1.39c2.8097-0.86231 5.2937-2.8687 6.5433-5.2853z"/>
</svg>
