<?xml version="1.0" encoding="UTF-8" standalone="no"?>
<!-- Created with Inkscape (http://www.inkscape.org/) -->
<svg id="svg3356" xmlns:rdf="http://www.w3.org/1999/02/22-rdf-syntax-ns#" xmlns="http://www.w3.org/2000/svg" height="1845" viewBox="0 0 1845 1845" width="1845" version="1.1" xmlns:cc="http://creativecommons.org/ns#" xmlns:dc="http://purl.org/dc/elements/1.1/">
 <metadata id="metadata3362">
  <rdf:RDF>
   <cc:Work rdf:about="">
    <dc:format>image/svg+xml</dc:format>
    <dc:type rdf:resource="http://purl.org/dc/dcmitype/StillImage"/>
    <dc:title/>
   </cc:Work>
  </rdf:RDF>
 </metadata>
 <path id="path3366" fill="#fff" d="m579.48 1803.8c-11.51-1.3259-22.046-6.6698-29.92-15.174-9.9461-10.743-13.037-22.688-10.802-41.744 2.7161-23.16 5.5172-35.988 13.822-63.304 5.9287-19.5 8.7757-30.924 8.7757-35.215 0-18.553 4.7836-41.824 10.19-49.572l3.9017-5.5916-0.80517-13.257c-0.87329-14.378-11.669-91.162-15.808-112.43-4.594-23.609-6.1821-37.848-6.2043-55.625-0.0409-32.75 4.7886-66.839 14.595-103.02 3.0899-11.4 6.68-24.666 7.9779-29.478 1.2979-4.8125 2.3695-12.547 2.3813-17.188 0.0112-4.6406 0.54602-8.4375 1.1872-8.4375 1.6006 0 2.3217 2.8948 3.2696 13.125 0.86645 9.3514-0.28055 16.495-6.9181 43.087-7.8292 31.366-11.701 57.565-13.214 89.413-0.97138 20.444 0.56233 37.823 5.7468 65.116 6.5217 34.334 15.777 110.26 14.565 119.49-0.55336 4.2144-0.25818 4.7713 3.4656 6.5383 11.932 5.6622 30.729 5.8181 41.48 0.344 6.4242-3.2711 6.4359-3.2883 7.1946-10.508 4.0141-38.2 7.691-67.554 10.222-81.606 3.7606-20.88 10.163-42.217 12.931-43.096 2.512-0.7972 11.953-28.79 14.132-41.904 0.89451-5.3824 1.5382-20.022 1.5114-34.375-0.047-25.145-1.8592-42.193-6.3783-60-1.7016-6.7051-1.7024-7.8974-0.007-11.25 2.9438-5.8235 14.374-43.87 16.463-54.798 1.03-5.3886 1.8726-12.339 1.8726-15.446 0-4.8967-0.29122-5.5264-2.1875-4.7293-4.4141 1.8554-7.5962 2.0517-10.248 0.6324-3.8027-2.0352-2.88-6.4433 1.8108-8.6505 9.6183-4.5257 19.404-16.18 24.255-28.884 6.8994-18.071 12.256-45.579 13.447-69.062l0.8088-15.938h-5.3485c-6.5276 0-31.896-5.049-51.085-10.167-7.7946-2.0791-14.545-3.4105-15-2.9587-1.7426 1.729-5.2956 35.99-5.9955 57.814-0.40252 12.547-1.2326 22.812-1.8447 22.812-0.61212 0-1.113-8.9923-1.113-19.983 0-17.379 2.1233-39.923 5.5603-59.038 0.59747-3.3229 0.33549-3.4809-12.162-7.3338-18.219-5.6166-38.234-13.535-53.217-21.054-7.119-3.5726-13.25-6.1892-13.625-5.8147-1.0563 1.0563 7.1485 43.795 8.4978 44.265 0.65744 0.2291 1.1954 1.7312 1.1954 3.3379 0 8.5131 15.044 42.461 23.908 53.95 5.6364 7.3058 15.781 14.125 21.092 14.177 1.7188 0.017 3.953 0.5545 4.965 1.1945 1.5698 0.9928 1.5159 1.288-0.3671 2.0106-2.1196 0.8133-6.7053 0.3174-13.348-1.4437-2.8586-0.7579-2.752-0.493 1.25 3.1074l4.375 3.9359-4.8925-1.9279c-6.9752-2.7486-15.632-9.6911-21.938-17.594-2.9904-3.7475-5.6614-6.5892-5.9357-6.315-0.27429 0.2743 0.42583 4.0666 1.5558 8.4274 5.6113 21.655 8.1573 52.303 6.1657 74.223-0.91672 10.089-1.1191 10.734-1.9614 6.25-0.51653-2.75-1.5737-10.906-2.3493-18.125-1.2638-11.763-7.5024-41.328-11.869-56.25-0.90542-3.0937-3.744-13.5-6.308-23.125s-5.9416-20.886-7.5059-25.023c-4.5682-12.084-11.687-42.559-13.49-57.752-1.5207-12.81-1.9591-14.257-5.0597-16.696-3.8007-2.9896-3.7389 0.3653-0.73437-39.903 0.6412-8.5938 1.4606-24.344 1.8208-35 2.0072-59.374 6.7353-87.231 24.187-142.5 8.4141-26.648 12.475-36.636 20.958-51.552 5.6926-10.009 7.77-15.155 9.4665-23.448 4.0747-19.92 11.851-40.52 15.93-42.201 0.43492-0.17924 0.57152-4.2061 0.30354-8.9487s0.46002-16.065 1.6178-25.161c2.757-21.661 2.3687-49.321-0.81095-57.753-1.2318-3.2665-6.7394-13.751-12.239-23.298-5.4998-9.5474-11.666-21.52-13.702-26.605-7.668-19.15-13.544-48.526-12.025-60.11 1.1296-8.6092 1.5677-9.2941 5.5689-8.7068 3.4437 0.50543 3.5524 0.76144 4.3424 10.235 1.2892 15.458 10.811 50.801 19.882 73.8 4.4744 11.344 9.3848 25.688 10.912 31.875 1.5271 6.1875 3.6478 12.938 4.7126 15 3.1794 6.158 4.1954 24.41 2.1917 39.375-4.3652 32.602-3.7593 38.625 5.4091 53.775 4.0924 6.762 5.3988 8.0395 7.9063 7.732 2.1988-0.2697 4.3844 1.1045 8.1551 5.1275 5.3782 5.7382 7.0223 6.2844 35.1 11.661l4.1147 0.78797-6.7113-6.9848c-12.628-13.143-18.405-29.115-18.374-50.799 0.0205-14.069 0.78684-16.807 4.5056-16.097 2.1084 0.40281 2.4285 2.1195 3.1107 16.685 0.8207 17.521 3.2412 26.481 10.5 38.868 4.589 7.8306 13.513 17.359 17.849 19.058 5.9293 2.3233 35.085 5.2768 59.751 6.0528 20.244 0.6369 25.212 0.4198 32.769-1.4323l8.9078-2.183 2.6637-7.0635c3.3274-8.8234 5.0776-27.029 4.6713-48.591-0.30818-16.354-0.33811-16.508-2.8423-14.659-11.886 8.779-20.888 12.066-33.621 12.275-8.0591 0.13241-10.09-0.22799-11.222-1.9914-2.1606-3.3661 0.31497-4.7493 9.9287-5.5472 20.437-1.6964 33.106-9.8852 37.917-24.51 1.8332-5.572 2.3714-19.73 0.98513-25.915-0.92544-4.1286-0.82737-4.0583 1.7414 1.2485 5.097 10.53 5.2874 26.973 0.42139 36.383-1.8577 3.5925-1.8449 3.6187 1.7771 3.6187 2.1737 0 3.955 0.79919 4.4071 1.9772 0.41732 1.0875 0.75874 9.7948 0.75874 19.35 0 20.341-2.4365 34.71-7.6582 45.163l-3.5541 7.1145 6.5436-1.8584c9.9589-2.8284 25.268-7.8513 30.163-9.8965 8.1154-3.3908 15.53-16.226 21.286-36.849 3.5872-12.852 4.6806-29.526 3.8119-58.125-0.96619-31.809-0.76649-33.105 10.018-65 4.304-12.73 7.0488-23.181 7.5503-28.75 0.57123-6.3428 0.42218-8.2342-0.54179-6.875-1.0771 1.5187-1.3334 1.5435-1.349 0.13054-0.0244-2.2243 4.9764-23.693 6.2905-27.006 0.5455-1.375 1.3151-5.2312 1.7103-8.5694 0.39515-3.3382 1.8486-8.1194 3.23-10.625 4.5679-8.2855 26.247-82.693 26.249-90.092 0.001-5.0677 4.6489-19.819 7.1839-22.801 0.97624-1.1485 2.7638-3.932 3.9724-6.1856 3.2527-6.065 5.7383-7.2236 8.693-4.052 2.1003 2.2544 4.9531 2.8198 20.979 4.1575 10.201 0.85152 20.798 2.0396 23.548 2.6402 10.273 2.2437 33.599 1.3308 48.459-1.8964 21.204-4.6052 44.257-11.525 54.041-16.22 4.8125-2.3097 17.75-6.8748 28.75-10.145 11-3.2698 21.11-6.7079 22.466-7.6403 1.3561-0.93236 3.6778-1.6952 5.1594-1.6952s3.3941-0.84375 4.2499-1.875c0.9495-1.1441 3.689-1.875 7.028-1.875 5.1494 0 7.3655 1.6154 3.9094 2.8497-3.1489 1.1246 0.3915 2.4498 9.3036 3.4823 21.146 2.4499 37.365 0.68985 64.25-6.9725 20.374-5.8065 35.866-12.023 65.508-26.286 31.226-15.025 63.729-28.541 73.859-30.714 4.4594-0.95637 6.1413-1.9049 6.1413-3.4635 0-2.1752 2.252-5.1464 3.9007-5.1464 0.4954 0 1.2539 1.6084 1.6857 3.5743s2.4452 5.1649 4.4743 7.1089 3.6893 4.5144 3.6893 5.712c0 2.4312 4.8195 3.607 24.517 5.9815 17.471 2.1062 18.962 1.9005 31.824-4.3912 17.401-8.5118 20.568-9.4315 32.409-9.4118 10.527 0.0175 10.58 0.002 5.75-1.6952-6.7613-2.3756-9.0539-6.7892-5.4375-10.468 0.8643-0.87915-1.3907-0.43227-5.0463 1-5.63 2.2059-9.3555 2.5894-25.156 2.5894-23.676 0-26.36-0.50069-26.36-4.9173 0-5.4461 2.6435-7.8741 8.7473-8.0342 3.3618-0.0881 5.6295 0.45681 5.9542 1.4309 0.2884 0.86529 2.0204 2.3345 3.8489 3.265 2.8582 1.4544 4.903 1.366 14.575-0.63029 6.1875-1.2771 14.107-2.3315 17.599-2.343 5.7458-0.019 6.3398-0.2842 6.25-2.7908-0.1533-4.2765 4.7102-5.8011 21.219-6.6514 12.435-0.64049 17.231-0.31667 28.682 1.9364 17.42 3.4275 27.254 4.3462 30.011 2.8034 1.916-1.0723 1.672-1.5876-2.1217-4.4812-5.9593-4.5454-20.303-9.7829-28.515-10.412-3.7812-0.28972-15.944-1.3477-27.03-2.3511-23.967-2.1694-36.97-2.3253-38.829-0.4654-0.8799 0.87991-1.6291 0.92178-2.1254 0.11875-0.4929-0.7975-3.2489-0.59187-7.7215 0.57608-7.1361 1.8635-56.957 12.025-66.482 13.56-2.9219 0.47081-5.3125 1.2688-5.3125 1.7732 0 1.6071-55.384 4.2916-70.1 3.3978-15.181-0.92201-40.598-4.3216-64.275-8.5969-20.18-3.6438-54.063-3.9126-68.425-0.54285-9.7398 2.2852-24.333 7.6222-26.484 9.686-0.6929 0.66474 0.8147 1.9311 3.75 3.1497 7.191 2.9855 17.443 12.238 20.314 18.334 2.6349 5.5938 4.9285 14.698 3.3142 13.155-0.5211-0.498-4.3444 2.7364-8.4963 7.1875-4.152 4.4511-7.9824 8.093-8.5121 8.093-1.3734 0 7.6752-19.067 9.9172-20.897 1.0256-0.83736 2.3444-1.226 2.9306-0.86373 2.8784 1.779 0.5154-2.5392-3.6917-6.7464-3.1493-3.1493-8.9595-6.5551-17.188-10.075-6.8364-2.9245-14.82-6.448-17.742-7.83-4.7404-2.2421-7.8395-2.5102-28.783-2.4901-33.475 0.0323-83.699 4.7131-101.9 9.4976-9.59 2.5204-11.77 2.407-13.432-0.69895-1.0996-2.0546-0.96917-3.073 0.6183-4.8271 1.9025-2.1022 1.2791-2.4371-11.463-6.1573-25.138-7.3392-37.714-9.2231-56.633-8.4836-24.819 0.97009-42.806 5.1719-77.748 18.162-7.411 2.7551-14.083 3.4509-15.233 1.5888-0.36424-0.58936-3.5173-1.4097-7.0068-1.823-6.8474-0.81097-22.77-7.9122-40.007-17.843-5.8594-3.3757-14.719-7.7739-19.688-9.7738-8.9905-3.6187-10.845-5.1892-7.0358-5.9596 1.5426-0.31198 0.797-1.8792-3.2691-6.8721-5.4537-6.6967-7.4986-7.227-9.6511-2.5029-0.6933 1.5216-6.8164 6.4866-13.607 11.033-9.1576 6.1317-13.88 8.4861-18.284 9.1162-3.2656 0.46721-5.9375 1.4431-5.9375 2.1686 0 0.75221-1.4204 1.0476-3.3051 0.68732-1.8178-0.34749-5.0522-0.12162-7.1875 0.50199-2.1353 0.62359-9.1648 1.6901-15.621 2.37-16.321 1.7188-23.555 5.2857-33.74 16.637l-7.9791 8.8922 3.6041 1.4359c1.9823 0.78975 8.1041 1.7844 13.604 2.2103l10 0.7744 14.097-13.715c18.798-18.289 22.307-20.093 16.344-8.4042-1.4766 2.8945-6.3184 9.0267-10.76 13.627l-8.075 8.3645 4.1971 1.7755c5.0858 2.1514 7.9566 5.3199 9.0733 10.014 0.69713 2.9304 0.109 4.2463-3.519 7.8744-4.2992 4.2992-4.4832 4.3522-14.107 4.0684-10.875-0.3208-22.504 1.0511-23.573 2.781-0.38509 0.6231-1.8312 1.1329-3.2137 1.1329-1.3824 0-5.0111 1.7184-8.0637 3.8186s-8.7158 4.4826-12.585 5.2942c-6.8446 1.4357-7.0892 1.3923-9.0501-1.604-4.1927-6.4068-5.6703-7.1066-16.936-8.0207-11.819-0.95894-26.954-5.0031-26.954-7.2019 0-2.716-8.5157 0.12513-38.125 12.72-16.5 7.0183-30.803 13.201-31.784 13.739-1.3039 0.71482-0.29409 1.7323 3.75 3.7785 7.5408 3.8154 23.773 15.315 33.848 23.981 7.6801 6.6052 8.2992 7.5109 8.125 11.886-0.17255 4.3326-0.5183 4.7678-4.0622 5.1132-3.5266 0.34378-5.7792-1.5414-25.143-21.041l-21.269-21.419-7.9148 3.9954c-4.3532 2.1975-17.508 9.3672-29.232 15.933-23.044 12.904-23.002 12.882-44.755 23.53-8.0781 3.954-14.688 7.6035-14.688 8.11 0 0.50643-4.3594 3.4364-9.6875 6.5111s-11.025 6.6748-12.66 8.0004l-2.9724 2.4101 12.972 2.9736c18.11 4.1512 40.299 4.2163 58.597 0.17195 30.652-6.775 48.907-13.842 66.231-25.639 11.598-7.8985 15.506-8.6506 20.887-4.0207 2.9968 2.5783 3.4866 3.8971 3.3657 9.0625-0.18115 7.7371 2.3969 9.8684 3.2665 2.7005 0.75718-6.2408 4.224-9.1458 6.7926-5.6917 0.90541 1.2175 2.0199 4.5925 2.4767 7.5 0.86473 5.5045 10.307 40.55 14.728 54.661 1.3999 4.4688 4.1393 11.322 6.0875 15.229 1.9483 3.9071 3.0548 7.2821 2.4589 7.5-0.59584 0.21789 1.129 4.0977 3.8331 8.6219 4.9895 8.3479 8.458 20.269 7.0016 24.065-0.50796 1.3237-2.2097 2.0844-4.6629 2.0844-2.257 0-3.5418-0.51966-3.0905-1.25 0.4249-0.6875-0.27311-1.25-1.5511-1.25-1.8366 0-2.6509-1.5844-3.8848-7.5584-2.1974-10.639-7.1549-21.715-13.961-31.192-9.956-13.862-13.256-19.065-17.999-28.375-5.765-11.316-10.548-25.272-11.533-33.652-1.1048-9.3998-1.8443-10.12-7.1692-6.9778-5.5077 3.2496-22.033 10.255-24.191 10.255-0.8724 0-1.5862 0.4338-1.5862 0.964s-3.2344 1.6315-7.1875 2.4473c-3.9531 0.81581-15.33 3.1817-25.282 5.2575-12.34 2.5738-23.67 4.0329-35.625 4.5876-19.497 0.90468-29.861-0.23933-47.371-5.2286l-11.09-3.16-5.4765 2.5743c-4.3862 2.0617-5.9405 2.2845-7.8071 1.1188-3.0691-1.9167-6.4118-0.5352-6.4118 2.6498 0 2.3278-0.7848 2.5392-9.4248 2.5392-6.7918 0-10.72-0.66256-14.062-2.3716-4.634-2.44-16.04-13.65-23.92-23.58-4.766-6.01-12.298-11.62-15.589-11.62-1.2296 0-3.6501 1.1126-5.3789 2.4725-2.367 1.8619-3.7144 2.1668-5.4559 1.2348-3.0234-1.6181-4.2847-8.6828-2.5101-14.06 1.9622-5.9454 14.104-26.223 19.422-32.436 2.43-2.84 4.418-5.92 4.418-6.86 0-6.5168 15.768-25.106 28.125-33.157 18.224-11.874 33.656-17.157 65.359-22.378 13.213-2.1759 24.317-2.7809 65.891-3.5903 43.091-0.83893 51.594-1.3221 61.539-3.4969 15.079-3.2977 31.198-9.8604 32.03-13.04 0.48591-1.8581 1.5611-2.3144 4.7968-2.0356 6.7678 0.58308 7.66-0.67674 6.9289-9.7844-0.79735-9.9333-2.8048-12.323-15.06-17.93-9.7667-4.4683-10.812-5.3963-10.841-9.6254-0.0105-1.5469-0.58164-2.8125-1.2691-2.8125-0.6875 0-1.25-1.9188-1.25-4.264s-1.4757-13.455-3.2793-24.688c-5.809-36.179-3.7237-59.924 7.3498-83.697 11.714-25.149 40.023-47.89 69.731-56.016 13.013-3.5596 39.915-4.0037 50.573-0.83478 18.413 5.4746 39.083 19.482 48.111 32.605 6.0721 8.8255 13.48 24.651 17.009 36.334 3.4717 11.495 4.7042 27.593 4.3972 57.436l-0.11575 11.25 8.3166 12.231c5.0896 7.4853 9.0858 12.158 10.299 12.044 1.0904-0.10325 2.2638-0.0846 2.6075 0.0414 0.34375 0.12607 4.2304 1.1752 8.6371 2.3314 9.916 2.6018 11.539 4.7141 7.7301 10.063-1.5331 2.153-3.5929 3.9146-4.5773 3.9146-3.3276 0-1.8195 2.3881 7.4175 11.746 5.0641 5.1302 9.5135 10.125 9.8876 11.1 0.3741 0.97487 6.7776 3.8738 14.23 6.442 7.4525 2.5682 17.3 6.3103 21.884 8.3158 4.584 2.0054 10.357 3.6462 12.829 3.6462 2.4722 0 5.4717 0.60484 6.6655 1.3441 1.6958 1.0501 5.492 0.0995 17.358-4.3466 29.441-11.031 52.182-15.367 73.74-14.058 20.585 1.2499 35.791 5.426 61.072 16.773l12.5 5.6102 10.625-1.9817c23.67-4.4146 33.59-5.1634 68.75-5.1896 19.594-0.0146 40.125 0.17545 45.625 0.42228 14.316 0.64247 15.28 0.50154 20.39-2.9797 6.1542-4.1927 21.941-10.198 32.826-12.488 11.915-2.5065 23.921-2.3346 43.188 0.61846 25.966 3.9798 66.838 7.779 91.096 8.4676 26.153 0.74244 65.981-1.3054 91.875-4.7239 51.502-6.7993 56.912-7.6794 59.039-9.6049 1.9104-1.7289 5.4948-1.8682 28.759-1.1171 36.447 1.1766 51.983 3.413 68.391 9.8449 15.29 5.9935 21.864 11.132 22.972 17.957 1.0813 6.6643-0.8974 9.5646-6.1105 8.956-2.6957-0.3147-4.4543 0.0936-4.8505 1.1261-0.3419 0.8909-2.1862 1.626-4.0983 1.6336-1.9122 0.007-5.5861 0.36241-8.1642 0.78855-4.3458 0.71831-4.6875 1.0846-4.6875 5.0255 0 2.3379-0.7137 4.5245-1.5859 4.8592-0.8723 0.33472-6.0754-0.56682-11.562-2.0034-5.4871-1.4366-11.383-2.7805-13.102-2.9864-1.7188-0.20592-6.661-1.3285-10.983-2.4947l-7.8577-2.1202-3.3923 3.6182c-8.0072 8.5404-12.675 10.426-30.395 12.28-15.381 1.609-17.348 2.128-29.121 7.6851l-12.626 5.9596h-21.875c-20.292 0-22.256-0.20346-27.138-2.8125-2.8945-1.5469-6.8692-2.8125-8.8327-2.8125-4.2901 0-28.93 8.0868-47.483 15.584-7.3819 2.983-22.703 9.1764-34.047 13.763-32.702 13.223-56.069 19.262-95 24.55-29.028 3.9434-37.419 4.2539-45.58 1.6869-3.8057-1.197-6.9195-2.662-6.9195-3.2553 0-2.1044-3.5113-1.011-14.501 4.5154-6.1184 3.0768-17.593 7.6438-25.499 10.149-7.9062 2.505-18.594 6.1554-23.75 8.1119-10.399 3.946-21.153 6.7825-30.625 8.0781-3.4375 0.47019-10.75 1.8918-16.25 3.1591-23.347 5.3796-35.385 6.5636-67.865 6.6747-30.545 0.1045-31.635 0.19283-32.191 2.6082-0.31672 1.375-1.3867 6.4666-2.3777 11.315-2.5912 12.676-10.148 34.908-21.861 64.31-9.5366 23.94-10.115 25.913-8.7929 30.012 1.6836 5.2203 0.0141 19.742-3.9946 34.747-1.413 5.289-3.8327 14.398-5.3771 20.241-1.5444 5.8438-5.7482 19.585-9.3419 30.536-10.434 31.795-12.551 43.842-13.857 78.839-0.61557 16.5-1.4969 31.594-1.9585 33.542-0.85173 3.5946 1.5938 13.333 3.3483 13.333 0.52582 0 2.7242 3.2344 4.8853 7.1875 3.6488 6.6745 6.7484 17.874 10.465 37.812 0.833 4.4688 2.779 10.094 4.3245 12.5 12.154 18.924 25.11 53.528 36.034 96.25 8.231 32.188 11.473 55.079 12.922 91.25 0.67512 16.844 1.5312 34.281 1.9023 38.75 0.37117 4.4687 1.2169 17.095 1.8793 28.058 1.1797 19.524 1.149 19.992-1.4923 22.804-2.1512 2.2898-3.0347 5.7173-4.3672 16.942-1.8083 15.232-8.9228 45.701-13.496 57.798-1.5643 4.1379-4.942 15.398-7.5059 25.023-2.564 9.625-5.4025 20.031-6.308 23.125-0.9054 3.0938-3.7128 14.344-6.2386 25-3.9688 16.744-4.6129 21.582-4.743 35.625-0.17657 19.052 1.9276 31.925 9.9305 60.751 11.801 42.509 15.342 64.457 16.314 101.12 0.77393 29.194 0.1175 36.818-5.8649 68.125-4.1314 21.62-12.067 76.836-13.025 90.625-0.35814 5.1563-1.0259 14.733-1.4839 21.282-0.83109 11.884-0.8251 11.918 3.0698 17.5 5.4074 7.7495 10.191 31.019 10.191 49.574 0 4.2907 2.847 15.715 8.7757 35.215 10.472 34.443 15.953 64.991 14.274 79.554-1.9279 16.725-11.126 29.676-25.732 36.231-14.847 6.6629-42.134 6.8689-61.052 0.461-15.306-5.1844-26.875-21.754-28.458-40.756-0.82085-9.8563 1.5617-24.987 5.4466-34.589 2.731-6.7503 2.9942-9.1751 2.9849-27.5-0.006-11.053-0.61114-25.16-1.3455-31.347-0.73441-6.1875-1.5098-16.312-1.723-22.5-0.21323-6.1875-1.0657-13.781-1.8943-16.875-2.7835-10.393 0.37604-26.011 6.8275-33.75 0.85973-1.0313 1.9075-4.1509 2.3283-6.9324 1.1512-7.6087-1.2073-30.087-4.1538-39.588-1.432-4.6176-3.9702-16.711-5.6405-26.875-6.4807-39.435-9.1061-50.288-14.903-61.604-10.594-20.68-15.376-41.418-16.574-71.875-0.80149-20.376 0.51758-33.054 6.6667-64.076l3.2856-16.576-7.6819-17.36c-4.27-9.6-7.73-18-7.73-18.8 0-0.7328-1.0346-1.886-2.299-2.5628-4.3301-2.3174-11.392-33.926-9.8804-44.225 0.39708-2.7054-0.2876-5.3851-2.1383-8.3688-7.8762-12.698-13.528-38.717-14.98-68.962-0.70291-14.64-5.4118-38.762-8.0894-41.439-0.7493-0.7493-1.3761-3.9218-1.3929-7.0499s-0.61469-8.2187-1.3286-11.312c-2.5887-11.218-6.0586-33.087-7.5576-47.631-0.84282-8.1778-1.8741-14.869-2.2917-14.869-0.41762 0-1.456 6.6245-2.3076 14.721-1.4147 13.451-5.7008 40.745-7.1104 45.279-0.32061 1.0313-1.0989 5.25-1.7294 9.375-0.63057 4.125-2.8728 14.25-4.9826 22.5-2.7375 10.704-4.0472 19.296-4.573 30-1.4802 30.134-6.9279 55.74-14.682 69.013-1.7064 2.9207-2.4703 7.1729-2.8069 15.625-0.69381 17.422-4.1806 28.702-16.87 54.57l-11.261 22.958 3.699 18.292c6.0425 29.882 6.7663 37.387 5.9802 62.003-0.39586 12.397-1.3715 25.352-2.168 28.789-3.1641 13.654-11.468 37.656-14.894 43.047-4.46 7.019-8.452 24.289-14.452 62.523-2.3862 15.205-5.24 31.124-6.3416 35.375-2.8417 10.966-3.067 32.429-0.37268 35.488 6.8318 7.7585 10.182 23.443 7.3038 34.191-0.8286 3.0938-1.681 10.688-1.8943 16.875-0.21324 6.1875-0.98859 16.312-1.723 22.5-0.7344 6.1875-1.3399 20.294-1.3455 31.347-0.009 18.325 0.25385 20.75 2.9849 27.5 12.976 32.072 2.2851 66.907-23.13 75.365-13.214 4.3975-29.427 5.8077-45.491 3.9571zm36.25-8.8285c5.5-1.3729 12.25-4.0399 15-5.9266 5.4137-3.7143 10.242-11.963 11.485-19.619l0.75755-4.6683-6.2802 6.2802c-7.5606 7.5606-13.05 9.4841-35.337 12.382-14.795 1.9235-16.135 1.9111-25.234-0.2341-8.6862-2.048-9.795-2.0793-11.55-0.3245-2.2394 2.2393-8.8035 3.9526-10.686 2.7891-0.70427-0.4353-1.2805-0.2725-1.2805 0.3616 0 1.6489 13.32 7.4015 22.002 9.5022 11.017 2.6657 29.234 2.4254 41.123-0.5423zm284.32 0.5955c9.1812-2.164 22.555-7.8298 22.555-9.5554 0-0.6341-0.57622-0.7969-1.2805-0.3616-1.8827 1.1635-8.4468-0.5498-10.686-2.7891-1.7547-1.7548-2.8634-1.7235-11.55 0.3245-9.0982 2.1452-10.439 2.1576-25.234 0.2341-22.287-2.8975-27.777-4.821-35.337-12.382l-6.2802-6.2802 0.75755 4.6683c1.2414 7.6496 6.0718 15.904 11.485 19.627 10.894 7.4912 37.963 10.664 55.57 6.5143zm-340.78-16.389c0.45534-0.4553-1.9637-2.7078-5.3757-5.0056-3.412-2.2977-6.8043-5.3002-7.5385-6.6721-0.73422-1.3719-1.8777-2.4944-2.541-2.4944-1.7461 0-1.4818 6.6726 0.35647 9.0021 3.3137 4.1989 12.816 7.4527 15.099 5.17zm366.98-1.6188c5.038-2.5703 6.3544-4.5445 6.3544-9.5305 0-3.6658-1.9228-3.9369-3.747-0.5284-0.73423 1.3719-4.1266 4.3743-7.5385 6.6721-8.6995 5.8586-4.955 8.4303 4.9312 3.3868zm-304.12-3.2584c9.2152-4.6045 14.909-12.429 16.093-22.116 0.4407-3.6049 0.37089-16.961-0.15514-29.679-1.5356-37.129-1.3087-63.71 0.58987-69.106 2.024-5.7527 0.88055-16.612-1.8598-17.664-2.485-0.9536-10.882 3.4627-13.915 7.3184-3.0292 3.8509-2.3702 9.4515 1.1122 9.4515 3.3944 0 2.895 2.1075-1.0832 4.5713-7.2992 4.5203-8.7753 10.072-3.4375 12.929 4.4121 2.3613 4.0793 6.1216-0.625 7.0625-2.4937 0.4988-3.75 1.501-3.75 2.9915 0 1.2329-0.3136 3.0588-0.69689 4.0576-0.38328 0.9988 0.15144 2.6644 1.1883 3.7013 1.0368 1.0367 2.2286 3.2534 2.6483 4.9256 0.61078 2.4336 0.124 3.3318-2.4383 4.4993-2.7502 1.2531-3.2014 2.2576-3.2014 7.1281 0 4.773 0.61824 6.2217 3.91 9.163 3.0901 2.761 3.7196 4.0935 3.002 6.3545-0.68927 2.1717-1.6162 2.7256-3.8474 2.2991-2.2548-0.431-3.0267 0.048-3.3145 2.0551-0.25997 1.8135-2.9567 3.9297-8.7838 6.8925l-8.4086 4.2757-5.1793-2.3355c-4.9848-2.2479-16.128-11.91-16.128-13.984 0-0.5535 1.4062-3.0759 3.125-5.6053 3.6238-5.3329 3.9473-9.2513 1.0996-13.317-1.7554-2.506-1.797-3.319-0.3125-6.0959 2.1689-4.057 2.0622-14.288-0.19296-18.501-1.3639-2.5483-1.4102-3.7242-0.22161-5.6273 2.2902-3.6672 1.8009-7.1923-1.2228-8.8105-2.4998-1.3378-2.5515-1.5855-0.625-2.9943 2.652-1.9391 2.6624-6.0401 0.0349-13.751-2.0264-5.9473-2.1049-6.0126-4.1628-3.4713-1.1601 1.4326-2.7196 6.9749-3.4896 12.401-0.76568 5.3961-4.7267 21.061-8.8022 34.811-4.0756 13.75-7.7652 26.406-8.1993 28.125-1.8202 7.207-3.0448 26.224-2.1932 34.06 0.79219 7.2892 1.5021 9.0444 5.2271 12.924 6.1886 6.4456 14.703 10.344 28.495 13.047 17.373 3.4047 30.217 2.7626 39.72-1.9858zm269.53 2.0126c14.871-2.7321 23.241-6.4262 29.623-13.074 3.725-3.8798 4.4349-5.635 5.2271-12.924 0.85158-7.8354-0.37302-26.853-2.1932-34.06-0.43409-1.7188-4.1238-14.375-8.1993-28.125-4.0756-13.75-8.0366-29.415-8.8022-34.811-0.76997-5.4264-2.3295-10.969-3.4896-12.401-2.0579-2.5414-2.1364-2.476-4.1628 3.4713-2.6275 7.7111-2.617 11.812 0.0349 13.751 1.9265 1.4088 1.8748 1.6565-0.625 2.9943-3.0237 1.6182-3.5129 5.1434-1.2228 8.8105 1.1886 1.9031 1.1423 3.079-0.22161 5.6273-2.2552 4.2138-2.3618 14.444-0.19296 18.501 1.4845 2.7769 1.4428 3.5899-0.3125 6.0959-2.8478 4.0657-2.5242 7.9841 1.0996 13.317 1.7188 2.5294 3.125 5.0518 3.125 5.6053 0 2.074-11.144 11.736-16.128 13.983l-5.1793 2.3355-8.4086-4.2756c-5.8271-2.9628-8.5238-5.079-8.7838-6.8925-0.2878-2.0076-1.0596-2.4861-3.3145-2.0551-2.2312 0.4265-3.1581-0.1274-3.8474-2.2991-0.71764-2.261-0.0881-3.5935 3.002-6.3545 3.2918-2.9413 3.91-4.39 3.91-9.163 0-4.8705-0.45116-5.875-3.2014-7.1282-2.5623-1.1674-3.0491-2.0656-2.4383-4.4992 0.41973-1.6723 1.6114-3.8889 2.6483-4.9256 1.0368-1.0369 1.5716-2.7025 1.1883-3.7013-0.38329-0.9988-0.69689-2.8247-0.69689-4.0576 0-1.4905-1.2563-2.4928-3.75-2.9915-4.7043-0.9409-5.0371-4.7012-0.625-7.0625 5.3378-2.8568 3.8617-8.4084-3.4375-12.929-3.9782-2.4637-4.4776-4.5712-1.0832-4.5712 3.4823 0 4.1414-5.6006 1.1122-9.4515-3.0329-3.8558-11.43-8.272-13.915-7.3184-2.7404 1.0516-3.8838 11.911-1.8598 17.664 1.7348 4.9309 1.8813 16.912 0.91457 74.824l-0.48145 28.843 3.75 6.037c4.5501 7.3252 8.2903 10.232 17.06 13.261 8.6417 2.9843 17.43 2.9711 33.877-0.05zm-291.97-52.014c5.569-4.2476 4.211-5.9612-4.1731-5.2659-8.6389 0.7164-10.916 2.7334-6.8439 6.0611 3.9078 3.1932 5.9845 3.0432 11.017-0.7952zm286.83 0.7952c2.2515-1.8397 2.6064-2.7621 1.4972-3.8913-1.7839-1.816-11.976-3.0859-15.051-1.875-1.9642 0.7736-1.7033 1.3414 2.0822 4.531 5.0707 4.2726 7.4416 4.528 11.471 1.2353zm-290.89-12.549 7.5913-0.7895-5.927-2.994-5.927-2.994-3.7161 3.5603c-3.438 3.2937-4.1608 6.8176-0.99741 4.8625 0.76166-0.4708 4.8009-1.2111 8.9761-1.6453zm292.13-2.9573-3.8562-3.8562-5.964 3.012-5.964 3.012 7.8325 0.8116c4.3078 0.4463 8.1832 1.1623 8.6118 1.5909 0.42867 0.4287 1.3231 0.4434 1.9877 0.033 0.66459-0.4107-0.52695-2.4821-2.6478-4.603zm-282.66-6.4c0-2.3767-1.7926-3.3918-4.2941-2.4319-1.5638 0.6001-1.6958 1.1653-0.58475 2.5041 1.8786 2.2636 4.8788 2.2193 4.8788-0.072zm269.88 0.073c1.1111-1.3388 0.97908-1.9041-0.58475-2.5042-2.5016-0.9599-4.2941 0.055-4.2941 2.4319 0 2.2915 3.0002 2.3359 4.8788 0.072zm-275.66-7.0795c6.1506-2.7208 7.3166-5.2833 3.3661-7.3975-3.6899-1.9748-5.3294-1.6197-11.974 2.5942-5.7643 3.6555-5.989 3.992-3.7558 5.625 3.2103 2.3474 5.5509 2.1918 12.364-0.8217zm288.93 0.8217c2.2332-1.633 2.0085-1.9695-3.7558-5.625-6.6444-4.2139-8.2839-4.569-11.974-2.5942-3.8603 2.066-2.8269 4.6733 2.8947 7.3033 6.459 2.969 9.7098 3.2009 12.835 0.9159zm-299.4-12c1.6667-1.0941 1.6667-1.3677 0-2.4618-2.8104-1.8448-3.75-1.5365-3.75 1.2309s0.9396 3.0758 3.75 1.2309zm301.25-1.2c0-2.7674-0.9396-3.0758-3.75-1.2309-1.6667 1.0941-1.6667 1.3677 0 2.4618 2.8104 1.8449 3.75 1.5365 3.75-1.2309zm-284.1-7.7254c2.9485-2.447 1.6513-4.5233-4.0367-6.4613-4.7622-1.6228-6.3675-1.6703-10.312-0.3057-6.7104 2.3212-6.546 4.8832 0.50942 7.9373 5.9836 2.5901 9.6861 2.277 13.84-1.1703zm281.35-0.6703c2.9606-1.2194 0.94483-4.4568-3.7962-6.0967-3.9524-1.3672-5.5513-1.3167-10.377 0.3276-6.8091 2.3202-7.0358 4.9942-0.69205 8.1638 3.8808 1.939 4.6425 1.9562 8.7463 0.199 2.4724-1.0588 5.226-2.226 6.1192-2.5938zm-284.62-17.892c8.2328-2.4518 8.551-2.6964 9.3524-7.1875 1.2017-6.7348 6.0441-12.446 13.763-16.231 5.6782-2.7847 6.7568-3.8502 6.7568-6.6739 0-7.6917-15.63-15.037-27.841-13.085-5.1526 0.824-18.827 7.0789-22.257 10.181-1.0854 0.9815-2.6323 1.7845-3.4375 1.7845-2.2349 0-1.75 4.3745 1.0888 9.8208 1.4041 2.6938 3.2619 8.7397 4.1286 13.435 1.3574 7.3549 1.9994 8.6558 4.6346 9.3911 4.6242 1.2905 4.6784 1.2849 13.812-1.4353zm283.56 1.4353c2.6352-0.7353 3.2772-2.0362 4.6346-9.3911 0.86663-4.6955 2.7245-10.741 4.1286-13.435 2.8388-5.4463 3.3237-9.8208 1.0888-9.8208-0.80524 0-2.3521-0.803-3.4375-1.7845-3.4304-3.1021-17.105-9.357-22.257-10.181-12.22-2-27.85 5.4-27.85 13.1 0 2.8237 1.0787 3.8891 6.7568 6.6739 7.7215 3.787 12.561 9.4968 13.764 16.24 0.79053 4.4298 1.211 4.7758 8.5926 7.0705 8.5127 2.6463 10.04 2.8081 14.57 1.5437zm-288.74-51.404c9.2081-2.5581 20.597-1.087 32.551 4.2047 1.5785 0.6987 1.875-0.7317 1.875-9.0443v-9.8744l-3.3467 2.3807c-10.423 7.4146-24.099 9.3332-38.952 5.4647-3.9592-1.0312-7.418-1.875-7.686-1.875-0.26808 0-0.83933 2.6719-1.2694 5.9375-0.43011 3.2656-1.0682 7.4681-1.418 9.3389l-0.63595 3.4012 7.2275-4.3521c3.9751-2.3937 9.2194-4.9055 11.654-5.5819zm297.47 0.6597c-0.67193-4.7448-1.4414-8.8465-1.7098-9.1149-0.26846-0.2685-2.0575 0.5412-3.9756 1.7992-2.9615 1.9424-6.1354 2.2874-21.046 2.2874-9.6572 0-19.032-0.4142-20.834-0.9206-3.0974-0.8706-3.3136-0.6345-3.9822 4.3511-0.3889 2.8994-0.54886 5.4299-0.3555 5.6233 0.19338 0.1933 3.1013-0.8648 6.4621-2.3514 7.2338-3.1999 20.389-4.4008 27.401-2.5013 2.75 0.745 8.0938 3.2395 11.875 5.5435 3.7812 2.3039 6.9901 4.1263 7.1308 4.0498 0.14068-0.076-0.294-4.0214-0.96595-8.7661zm-320.14 2.6806c0.58494-3.016-1.861-2.5678-2.66 0.4875-0.42775 1.6357-0.13967 2.394 0.79171 2.0839 0.80528-0.268 1.646-1.4252 1.8683-2.5714zm328.08 0.4161c-0.35958-1.375-1.1507-2.5-1.758-2.5-1.2915 0-1.4836 2.954-0.27087 4.1666 1.6388 1.6388 2.6714 0.7905 2.0288-1.6666zm-14.853-16.116 4.8841-2.0715 0.34521-16.844c0.57659-28.133 5.2835-68.628 12.419-106.84 6.3556-34.04 7.6527-51.744 5.8403-79.713-1.8492-28.536-4.7916-47.534-12.153-78.465-3.1836-13.377-7.6666-35.291-9.9622-48.697s-4.2264-23.25-4.2905-21.875-1.4042 5.3125-2.978 8.75c-2.7869 6.0873-2.8044 6.364-0.67284 10.625 2.6829 5.3631 2.8466 7.5 0.57464 7.5-1.0415 0-3.3991 4.4933-5.903 11.25-2.2929 6.1875-4.6442 11.25-5.2252 11.25-0.58092 0-0.75797-0.9844-0.39345-2.1875 2.8931-9.5485 4.151-21.5 2.4427-23.209-0.44715-0.4471-2.1078 0.5842-3.6903 2.2918-5.0649 5.465-5.6049 3.3305-1.033-4.0829l4.4327-7.1875-5.7982 6.25c-3.189 3.4375-5.5889 5.6875-5.333 5 0.25587-0.6875 2.5331-5.4687 5.0606-10.625 5.812-11.857 8.4243-21.989 8.4243-32.673 0-8.4854 2.1906-13.245 5.4737-11.894 0.77073 0.3173 2.3132 0.9445 3.4276 1.3938 3.0794 1.2412 6.0984-2.6456 6.1004-7.8538 0.002-5.5613 2.7726-21.722 5.5839-32.571 1.13-4.3608 1.8301-8.1531 1.5558-8.4274-0.27429-0.2742-2.9453 2.5675-5.9357 6.315-6.3066 7.9034-14.963 14.846-21.938 17.594l-4.8925 1.9279 4.375-3.9359c4.002-3.6004 4.1086-3.8653 1.25-3.1074-6.6426 1.7611-11.228 2.257-13.348 1.4437-1.883-0.7226-1.9369-1.0178-0.3671-2.0106 1.012-0.64 3.2462-1.1775 4.965-1.1945 5.3106-0.053 15.455-6.8715 21.092-14.177 8.8643-11.49 23.908-45.437 23.908-53.95 0-1.6067 0.53201-3.1088 1.1822-3.3379 1.1094-0.391 8.8178-38.524 8.8178-43.621 0-2.0232-1.8527-1.4174-13.438 4.3936-16.758 8.4058-28.924 13.328-49.688 20.103l-16.25 5.3022 0.39967 4.203c0.21983 2.3116 1.4855 11.945 2.8125 21.408 2.525 18.005 3.4155 57.17 1.2999 57.17-0.61211 0-1.4422-10.266-1.8445-22.812-0.83658-26.087-4.4182-57.354-6.6551-58.1-0.81283-0.271-7.8419 1.217-15.62 3.3067-18.763 5.0407-43.89 10.106-50.132 10.106h-5.0212l0.8088 15.938c1.1917 23.483 6.548 50.992 13.447 69.062 4.8505 12.704 14.637 24.358 24.255 28.884 4.6908 2.2072 5.6135 6.6153 1.8108 8.6505-2.6521 1.4193-5.8342 1.223-10.248-0.6324-1.9326-0.8123-2.1875-0.1026-2.1875 6.0893 0 5.0697 0.46945 7.0087 1.6969 7.0087 1.1572 0 1.9511 2.4321 2.4962 7.6467 1.0096 9.6594 10.194 46.618 12.949 52.106 1.9758 3.9362 1.9152 4.8942-1.3041 20.625-5.9096 28.877-7.1281 61.876-3.2284 87.429 1.838 12.043 10.696 38.521 13.776 41.176 5.2725 4.5459 12.463 34.128 17.262 71.017 1.4758 11.344 3.3027 24.844 4.06 30 0.75724 5.1563 2.0048 15.225 2.7723 22.375 1.2668 11.801 1.6997 13.226 4.6932 15.452 6.321 4.6999 32.712 5.3509 42.836 1.0566zm-41.483-97.009c-0.91099-37.697-8.152-165.26-10.16-178.99-0.80174-5.482-1.1363-0.3809-1.3688 20.87-0.49419 45.172-1.7639 50.776-2.8322 12.5-0.90955-32.589-0.18999-46.225 2.5858-49.001 2.4666-2.4665 3.7492 3.8735 5.7784 28.562 4.0002 48.671 7.0866 116.92 6.6904 147.94-0.2151 16.844-0.52702 25-0.69317 18.125zm-7.1214-198.32c-3.3761-4.0122-10.8-17.935-12.531-23.499-0.52458-1.6867-1.6561-3.769-2.5145-4.6274-0.85839-0.8584-2.534-5.5321-3.7235-10.386-1.1895-4.854-2.8621-9.2404-3.7169-9.7477-0.85477-0.5071-2.2158-2.1826-3.0245-3.7233-2.3212-4.4219 0.97001-9.513 7.3941-11.438 2.8626-0.8576 5.4492-1.3149 5.748-1.0161 0.29879 0.2988 1.1044 8.9159 1.7902 19.149 1.4156 21.122 3.9421 31.332 10.405 42.043 2.3849 3.9531 4.146 7.1875 3.9135 7.1875-0.23248 0-1.9155-1.774-3.74-3.9424zm-20.628-77.991c0.0148-1.3427 2.4053-6.1717 5.3125-10.731 2.9072-4.5595 5.8482-9.1976 6.5358-10.307 0.89427-1.443 1.7836-1.6718 3.125-0.8038 1.6139 1.0443 1.3905 2.1452-1.6043 7.9066-4.2466 8.1697-13.41 17.722-13.369 13.935zm-105.03-131.3c0-4.4634 1.3933-15.292 3.0962-24.062 5.1737-26.648 11.904-92.114 11.904-115.79 0-18.179-0.26549-20.831-2.3417-23.395l-2.3417-2.8918-12.561 5.8302c-13.51 6.2705-21.401 8.7959-17.493 5.598 1.1756-0.96185 8.054-4.5158 15.285-7.8977 7.2314-3.3818 13.16-6.4892 13.175-6.9052 0.0149-0.41601-3.9184-2.2131-8.7408-3.9935s-11.432-5.3706-14.688-7.9782c-27.164-21.756-46.668-38.481-45.377-38.911 3.728-1.2427 24.066 8.9083 40.707 20.318 6.1875 4.2422 16.193 10.164 22.235 13.159 9.9748 4.9448 11.871 5.4555 20.625 5.5543 12.377 0.13979 19.771-2.0686 30.085-8.9846 10.635-7.1322 43.931-23.884 43.931-22.103 0 0.77772-8.7016 6.1582-17.131 10.592-3.9845 2.0961-12.307 7.9696-18.494 13.052-6.1875 5.0827-14.183 10.797-17.768 12.698-4.633 2.4569-6.1678 3.878-5.3077 4.9143 0.83379 1.0046 0.22894 2.1935-1.9456 3.8241-1.7355 1.3014-3.7033 4.3349-4.3728 6.7412-1.799 6.4655-1.4662 36.946 0.61404 56.25 4.1 38.046 8.4106 71.324 10.712 82.696 1.3435 6.6393 2.4428 16.144 2.4428 21.121v9.0495l9.0625-0.7915c9.9613-0.87 36.281-6.7948 65.312-14.702 19.364-5.2744 37.101-11.496 70.777-24.825l19.527-7.7291-0.48728-46.472c-0.67099-63.992-2.6141-84.07-11.876-122.72-3.9175-16.348-17.719-62.696-19.073-64.05-0.39951-0.39952-1.7142 0.14146-2.9216 1.2022-1.2073 1.0607-11.244 7.0112-22.303 13.223-11.059 6.2121-26.809 15.75-35 21.195-15.151 10.073-19.676 12.804-21.213 12.804-1.9957 0 3.0185-4.3569 10.639-9.2442 4.5002-2.8862 20.276-13.005 35.057-22.487 14.781-9.4817 28.524-18.558 30.54-20.17l3.6647-2.9303-5.4737-13.968c-3.0106-7.6825-6.2097-14.251-7.1092-14.596-0.89953-0.34517-1.9855-2.8162-2.4132-5.4912-0.42775-2.675-0.9191-4.8636-1.0919-4.8636s-3.5643 1.488-7.5367 3.3066c-6.9342 3.1746-7.2896 3.2149-8.901 1.0111-0.92-1.25-1.68-2.67-1.68-3.13 0-0.4622 3.4461-2.3869 7.6581-4.2771 4.2119-1.8902 7.1059-3.7952 6.4311-4.2332-0.67481-0.43805-1.9137-3.0465-2.753-5.7965-0.83935-2.75-1.7526-5.7178-2.0294-6.5951-0.35779-1.1338-2.0471-0.61554-5.8426 1.7926-9.0587 5.7476-37.725 13.158-62.852 16.248-24.594 3.0244-90.746 2.9362-119.67-0.1595-29.962-3.2064-54.972-9.3643-65.804-16.202-2.8745-1.8146-5.7152-2.9971-6.3128-2.6277-0.99467 0.61474-5.0705 11.235-5.0705 13.211 0 1.5048 20.359 10.864 29.375 13.504 22.681 6.6416 44.555 8.8963 95 9.7922 43.778 0.7775 59.518-0.33034 93.485-6.5798 19.029-3.501 25.902-3.5897 18.39-0.23733-11.556 5.1568-39.389 9.9656-71.25 12.31-31.114 2.2894-88.25-0.24028-117.47-5.2008-14.039-2.3833-36.075-9.083-45.286-13.768l-4.6298-2.355-1.126 4.0585c-0.61927 2.2322-2.5309 6.1239-4.248 8.6483-6.2706 9.2187-27.467 75.114-33.907 105.41-6.715 31.59-8.485 47.951-9.0597 83.75-0.29799 18.562-0.73025 43.394-0.96057 55.181l-0.41876 21.431 13.24 5.2986c41.731 16.7 64.411 24.355 96.365 32.524 19.686 5.0325 43.084 9.7207 49.062 9.8306l5.9375 0.1092v-8.1152zm114.66-111.27c-34.928-7.4611-61.562-21.766-73.912-39.698-4.3083-6.2555-5.0629-10.881-1.775-10.881 1.5638 0 10.69 6.4004 15.091 10.584 5.6904 5.4086 3.8729 6.1986-2.8712 1.248-3.4698-2.5471-6.548-4.3918-6.8404-4.0994-1.9323 1.9323 14.643 16.544 25.725 22.678 15.56 8.6125 46.368 17.827 68.169 20.389 4.4789 0.5264 6.7546 1.3676 6.7546 2.4968 0 2.7033-8.5508 1.9375-30.342-2.7174zm-197.16-4.93c0-2.3416 55.181-21.202 73.199-25.019 21.205-4.4921 27.979 0.31572 15.497 11-5.9298 5.0757-17.3 11.432-18.43 10.302-0.44804-0.44805 3.1056-4.4153 7.8969-8.8161 4.7914-4.4008 8.149-8.0192 7.4615-8.0408-2.7196-0.0856-18.425 4.0834-41.759 11.085-29.866 8.9618-43.866 11.99-43.866 9.4887zm188.96-25.689c-8.9983-2.357-29.659-11.529-34.583-15.352-1.9393-1.5058-2.1659-2.2801-1.0104-3.4524 1.1619-1.1788 2.8117-0.66545 7.5 2.3338 11.718 7.4963 27.095 13.998 37.899 16.023 5.8364 1.0943 10.846 2.2137 11.132 2.4876 1.5171 1.4507-13.017 0.034-20.938-2.041zm11.252-10.943c-5.041-4.6177-8.7441-8.8171-8.2292-9.3321 1.4016-1.4016 16.503-1.1292 17.395 0.31371 0.47614 0.77041-1.6537 1.25-5.5512 1.25-3.4781 0-6.3238 0.45021-6.3238 1.0005 0 0.55026 2.8575 4.2065 6.35 8.125s6.1644 7.1052 5.9375 7.0816c-0.22688-0.0236-4.5369-3.821-9.5779-8.4387zm-111.49-53.45c-27.237-4.9348-66.067-15.851-73.097-20.549-4.9737-3.3244-3.3478-3.1713 7.3488 0.69175 21.731 7.848 70.252 18.035 85.9 18.035 8.9536 0 10.378-0.80445 6.1258-3.4599-3.8662-2.4144-3.0378-4.0975 1.2764-2.5936 4.687 1.6339 7.0276 5.4536 4.9073 8.0084-1.9271 2.322-19.305 2.2509-32.462-0.13288zm27.53-19.55c0-1.0134 13.553-9.4918 31.562-19.745 36.33-20.68 33.44-19.1 33.44-18.28 0 0.74238-21.572 14.945-30.312 19.958-3.2656 1.8727-5.9375 3.6306-5.9375 3.9064 0 0.27578 4.0484-1.168 8.9963-3.2084 14.587-6.0153 26.004-9.9148 26.004-8.882 0 1.4422-11.803 7.004-36.875 17.377-27.09 11.21-26.88 11.14-26.88 8.88zm-70-12.783c-21.189-6.4368-51.197-19.816-55.294-24.653-1.6418-1.9382-1.8591-3.1408-0.89352-4.9449 2.0043-3.7451 13.76-3.0702 35.563 2.042 15.7 3.6812 32.321 6.8764 79.902 15.361 2.696 0.48072 5.1468 1.6092 5.4463 2.5076 0.4307 1.2921-1.3778 1.469-8.6518 0.84656-31.38-2.69-53.54-6.1-76.69-11.8-18.23-4.49-24.38-5.64-24.38-4.56 0 0.97148 13.883 7.592 38.12 18.179 23.48 10.256 25.992 12.815 6.8804 7.0096zm91.993-15.541c-0.35978-0.58217 3.906-2.6026 9.4795-4.4899s18.632-7.5292 29.018-12.538c10.386-5.0085 20.29-9.5265 22.009-10.04l3.125-0.93382-3.125 2.4925c-5.2049 4.1514-28.172 15.166-43.864 21.036-16.365 6.1216-15.73 5.9509-16.643 4.4734zm-139.47-89.95c-2.3944-1.8583-6.689-5.5001-9.5436-8.0928-4.2286-3.8408-5.3317-4.345-5.9545-2.722-1.656 4.3154 2.9164 8.3601 14.109 12.481 6.2282 2.293 6.3311 2.1696 1.3889-1.6661zm-61.27-274.47c0-0.25956-0.98438-1.2439-2.1875-2.1875-1.9826-1.5548-2.0268-1.5106-0.47195 0.47195 1.633 2.0822 2.6594 2.7444 2.6594 1.7156zm-21.321-37.792c-0.76512-1.986-3.2793-10.361-5.587-18.611-3.8983-13.936-5.8556-15.942-3.049-3.125 1.4114 6.4458 8.8435 26.53 9.5542 25.82 0.2601-0.26011-0.1531-2.0978-0.91821-4.0838zm-187.69-28.72c9.2708-1.9014 25.215-7.4746 26.51-9.2663 1.1187-1.5484 24.011-18.092 39.375-28.455 30.789-20.767 60.022-36.751 100.62-55.018 28.498-12.821 28.75-12.958 28.75-15.653 0-2.1102 0.57501-2.292 4.6875-1.482 2.5781 0.50779 9.4688 0.9912 15.312 1.0742 10.109 0.14367 11.414-0.17038 26.875-6.4649 8.9375-3.6388 18.219-8.1766 20.625-10.084 2.4062-1.9075 5.2686-3.7997 6.3608-4.205 1.9085-0.70812 24.194-14.803 26.764-16.928 1.6258-1.3439 19.577-4.8686 33.266-6.5316 22.438-2.7259 36.627-8.4625 17.359-7.0184-5.8438 0.43801-20.063 1.3272-31.599 1.976s-21.469 1.4857-22.075 1.8598c-1.632 1.0086-5.0762-0.61217-5.0762-2.3888 0-2.5007 8.4424-4.3221 26.341-5.6831 9.2311-0.70191 20.44-2.0956 24.909-3.0972 9.9733-2.2353 18.998-2.411 21-0.40885 1.1667 1.1667 1.5 1.1667 1.5 0 0-1.8208 4.011-1.989 5.7586-0.24141 0.84477 0.84477 2.2117-0.0306 4.1576-2.6625l2.899-3.9211-8.595 0.90573c-4.7273 0.49816-15.908 2.0037-24.845 3.3456-27.042 4.0602-52.228 7.2753-57.188 7.3001-4.1276 0.0206-4.6875-0.33664-4.6875-2.9916 0-2.5537-0.781-3.1471-5.1038-3.8774-4.6946-0.79317-6.9239 0.0391-27.812 10.384-23.611 11.693-36.798 17.623-45.052 20.259-2.8402 0.9068-5.0977 2.5189-5.4583 3.898-0.70265 2.6869-0.95863 2.7685-3.8431 1.2251-1.3639-0.7298-6.0673-0.25871-13.355 1.3377-6.1875 1.3553-16.594 2.9546-23.125 3.5541-6.5312 0.59944-17.5 1.9751-24.375 3.057s-26 2.5238-42.5 3.2043c-58.57 2.4154-88.971 9.4933-114.91 26.754-11.26 7.4921-24.027 20.763-25.574 26.585-0.60453 2.2744-1.8937 3.6511-3.6614 3.9099-2.0783 0.30426-2.7284 1.2546-2.7284 3.9887 0 4.1232-1.2145 5.3038-3.8074 3.7014-1.432-0.88503-3.0614 1.5191-7.7528 11.439-3.2669 6.9078-5.9398 12.768-5.9398 13.023 0 0.25517 4.3594-2.667 9.6875-6.4938 9.6743-6.9482 27.59-16.703 30.597-16.661 0.87464 0.0125-1.2223 1.5914-4.6598 3.5088-12.597 7.01-21.87 13.36-21.87 14.96 0 0.9019-0.52108 1.3178-1.158 0.92417-1.1329-0.70018-15.311 10.861-16.134 13.156-0.22917 0.63922 0.93626 1.1622 2.5898 1.1622 5.9815 0 14.25 3.9172 22.827 10.814 16.936 13.61 18.222 14.18 32.172 14.18 6.7694 0 16.644-0.8892 21.943-1.976zm-6.4954-81.769c3.4338-3.4338 54.601-21.381 84.005-29.465 23.126-6.358 51.91-13.041 56.169-13.041 1.5573 0 2.8314 0.62268 2.8314 1.3837 0 0.76105-0.75279 1.0949-1.6729 0.7418-2.2435-0.8609-45.156 9.8287-70.99 17.684-11.433 3.4764-31.895 10.285-45.47 15.131-13.57 4.86-25 8.82-25.39 8.82-0.39473 0-0.15753-0.56016 0.52711-1.2448zm273.32-1.8517c9.36-1.27 6.93-3.15-4.06-3.15-5.5 0-10 0.35986-10 0.7997 0 1.5423 4.3939 4.094 6.25 3.6296 1.0312-0.25803 4.5469-0.83214 7.8125-1.2758zm43.44-12.03c9.8887-2.0039 10-2.056 10-4.6784 0-5.0885-4.6582-6.3041-28.75-7.5023-17.981-0.89429-24.06-2.8233-26.91-8.5397-1.2347-2.4766-1.6918-2.2918-10.628 4.2964-5.1357 3.7864-12.603 8.4447-16.595 10.352-3.9915 1.9072-6.804 3.7471-6.25 4.0888 0.9526 0.58744 23.95 3.0242 34.757 3.6829 10.789 0.65755 37.86-0.37929 44.375-1.6996zm873.75-22.232c0-0.61133-0.9844-2.2912-2.1875-3.7331-1.7364-2.0809-4.5075-2.8807-13.438-3.8782-6.1875-0.69117-13.219-1.2075-15.625-1.1474l-4.375 0.10926 5.625 1.723c12.368 3.7884 26.961 7.8686 28.438 7.9509 0.8594 0.0479 1.5625-0.4131 1.5625-1.0244zm-48.706-2.0665c2.3531-2.8354-0.3319-4.9299-6.1253-4.778-4.6722 0.1225-11.419 3.431-11.419 5.5998 0 2.0339 15.788 1.2944 17.544-0.82173zm66.768-5.4296c-0.6531-0.60914-4.5625-1.4401-8.6875-1.8466-7.3887-0.72809-7.4351-0.71306-3.125 1.0124 4.9059 1.964 13.689 2.5842 11.812 0.83414zm10.7-7.7c0-3.0438-1.11-4.3858-6.5625-7.934-3.6094-2.3488-7.955-4.6828-9.657-5.1865-2.9949-0.88643-2.9646-0.76798 0.9375 3.6763 4.5546 5.1875 5.0175 7.7968 1.8445 10.398-2.0122 1.6494-1.9422 1.7398 0.8725 1.1276 1.6829-0.366 3.6516-0.18703 4.375 0.39771 1.621 1.3106 5.9841 2.3114 7.2525 1.6635 0.5156-0.26337 0.9375-2.1274 0.9375-4.1423zm-71.25 1.311c1.4268-0.92201 0.9214-1.2163-2.1137-1.2309-2.1938-0.01-4.3364 0.54336-4.7613 1.2309-0.9901 1.6021 4.3959 1.6021 6.875 0zm18.438-0.86166c-1.2031-0.3144-3.1719-0.3144-4.375 0-1.2031 0.31441-0.2187 0.57166 2.1875 0.57166 2.4063 0 3.3906-0.25725 2.1875-0.57166zm-926.69-28.65c17.997-5.3036 21.072-6.7808 27.97-13.435 6.0718-5.8576 2.6771-5.3182 52.142-8.2852 12.375-0.74226 24.328-1.9387 26.562-2.6588 3.6448-1.1746 4.0625-1.7996 4.0625-6.0785 0-3.1858-0.65321-5.02-1.9674-5.5243-3.5773-1.3727-1.4662-4.9407 3.2188-5.4399 2.4055-0.25631 5.0522-1.3515 5.8816-2.4337 4.3154-5.6307 5.3539-30.916 1.5773-38.401-2.9634-5.8736-7.7166-8.702-12.968-7.7169-6.6723 1.2517-10.573 5.3306-11.86 12.401-0.60521 3.3256-1.6742 6.6203-2.3756 7.3217-1.9487 1.9487-4.2364-3.3519-4.4488-10.308-0.22637-7.414 2.7202-11.887 10.515-15.964 4.535-2.3715 6.877-2.793 12.787-2.3017 6.5306 0.54294 7.1662 0.38311 6.5238-1.6406-0.3914-1.2332-0.0416-3.7127 0.77732-5.5101 1.1578-2.5411 1.1414-5.2836-0.0735-12.331-2.3455-13.605-6.1625-28.092-8.9821-34.09-5.8981-12.548-24.982-28.447-41.335-34.437-3.6555-1.339-11.808-3.2674-18.117-4.2853-10.144-1.6366-12.707-1.6352-22.152 0.012-26.76 4.6666-54.127 19.757-69.643 38.402-8.1668 9.8134-18.184 30.208-20.034 40.788-1.5809 9.0406-0.63942 18.011 5.3105 50.599 1.9885 10.891 3.6154 23.677 3.6154 28.414 0 8.3684 0.0971 8.6341 3.4375 9.4068 6.0394 1.397 17.572 9.5946 18.994 13.502 0.72544 1.9932 1.319 7.1208 1.319 11.395v7.7706l7.1875-2.3913c3.9531-1.3152 13.887-4.3656 22.076-6.7787zm-13.01-14.78v-6.7852l7.1875-2.6926c18.411-6.897 37.002-8.6983 46.936-4.5476 2.5444 1.0631 4.6262 2.1065 4.6262 2.3185 0 0.21205-4.4029 0.1856-9.7842-0.0588-9.4584-0.42953-10.022-0.29239-16.917 4.1185-9.1288 5.8396-26.868 14.432-29.795 14.432-1.8947 0-2.2536-1.0806-2.2536-6.7852zm121.01-31.37c-0.46134-0.46134-0.56449-1.5536-0.22922-2.4273 0.33547-0.87423-0.54635-1.8908-1.9611-2.2608-3.4191-0.89411-3.2414-3.9172 0.61725-10.501 4.6441-7.9246 2.4661-10.397-4.21-4.7798-5.5568 4.6758-6.478 4.0599-6.478-4.3315 0-6.5619 0.46663-7.988 3.8893-11.886 4.4823-5.105 7.934-6.328 12.722-4.5076 3.2652 1.2414 4.9858 6.3503 2.1387 6.3503-0.6875 0-1.25-0.5625-1.25-1.25 0-1.8864-5.3383-1.499-8.3428 0.60546-1.457 1.0205-3.2601 3.6083-4.0069 5.7506-1.2145 3.484-1.1292 3.7989 0.80841 2.9838 4.4891-1.8885 7.867-2.083 9.7036-0.5588 2.2529 1.8698 3.6979 0.86222 2.6563-1.8521-0.4071-1.0609-2.1973-1.9289-3.9782-1.9289-1.8404 0-2.9046-0.53955-2.4655-1.25 1.0741-1.7379 7.3079-1.5671 9.125 0.25 3.1657 3.1657 0.81445 14.902-4.173 20.829-3.7804 4.4927-4.1981 7.8229-0.5693 4.5389 3.9883-3.6093 4.2773-1.2562 0.38126 3.1042-1.9465 2.1785-3.9165 3.5834-4.3779 3.1221zm-18.175 31.086c-0.84629-0.3424-2.5338-0.36324-3.75-0.0464-1.2162 0.31692-0.52379 0.59707 1.5387 0.62255 2.0625 0.0255 3.0576-0.23383 2.2113-0.57624zm16.539-1.7543c7.8878-1.1709 14.464-1.7852 31.771-2.9677 8.5649-0.58524 10.928-0.35041 12.711 1.2632 2.0114 1.8203 2.4089 1.7635 4.8688-0.69642 1.5172-1.5172 2.5098-3.8647 2.2892-5.4142-0.37651-2.6454-0.82248-2.7225-13.514-2.3377-13.4 0.4063-37.465 5.1047-40.947 7.9942-0.97321 0.80769-4.1114 1.8513-6.9738 2.3192-3.9821 0.65092-4.3236 0.86268-1.4543 0.90168 2.0625 0.028 7.125-0.45 11.25-1.0623zm21.306-13.203c4.4382-1.1148 8.0694-2.4889 8.0694-3.0536 0-0.56463-1.0838-2.8869-2.4083-5.1605-1.3246-2.2737-2.803-6.384-3.2853-9.134-1.2587-7.1766-2.9707-9.8001-3.0184-4.6254-0.065 7.0574-5.9389 16.5-10.264 16.5-2.1958 0-2.2201 0.22865-0.39916 3.75 1.0666 2.0625 2.231 3.75 2.5877 3.75 0.35669 0 4.2797-0.91214 8.7179-2.027zm-93.82 1253.9c0.54737-60.361 6.6515-155.97 10.384-162.64 4.2461-7.5874 6.1505 18.584 4.2396 58.265l-1.1136 23.125-0.33767-33.125c-0.36757-36.057-1.4153-47.224-2.9323-31.25-1.5995 16.842-6.9827 111.07-8.3553 146.25-1.8883 48.398-2.3276 48.252-1.8844-0.625zm11.312-175c4.6325-9.5804 8.0646-24.3 8.0754-34.635 0.009-8.2235 2.0531-16.12 4.7062-18.178 5.5074-4.2713 13.351 1.4477 10.172 7.4162-0.84866 1.5929-2.2448 3.4588-3.1026 4.1463-0.85775 0.6875-2.7636 5.75-4.2352 11.25-3.154 11.788-10.851 28.208-16.113 34.375l-3.7332 4.375 4.231-8.75zm-41.132-11.094c-5.2985-12.334-6.1356-17.932-2.9868-19.974 1.6179-1.0496 2.7571-1.0544 4.375-0.019 1.7696 1.1328 2.1081 2.8239 1.7718 8.8516-0.36214 6.4909 0.7725 13.7 3.1187 19.814 0.37924 0.9883 0.13358 1.7969-0.54588 1.7969-0.67948 0-3.2592-4.711-5.7328-10.469zm7.4806-16.718c-4.108-4.1279-8.8408-10.604-11.118-15.214-3.4671-7.0178-4.0161-9.5311-4.3688-20-0.42232-12.537 0.97321-17.831 4.8994-18.588 1.1024-0.2123 2.9164 0.526 4.0311 1.6408 2.6465 2.6465 2.6315 6.8481-0.0245 6.8481-1.7894 0-1.9666 1.3163-1.3887 10.312 0.75592 11.767 5.0976 25.527 10.634 33.702 7.3362 10.832 6.9914 11-2.6647 1.2975zm45.777-46.995c-2.925-3.1755-6.567-8.344-8.0933-11.486-2.3893-4.9179-2.5188-5.876-0.93184-6.8913 1.2938-0.8278 2.2158-0.5804 3.0933 0.8302 0.6875 1.1052 3.6843 5.8715 6.6595 10.592 7.0345 11.16 6.6379 14.951-0.72765 6.9549zm71.99-509.89c-1.8312-0.72619-3.9618-2.708-4.7346-4.4041-1.1519-2.5282-1.0025-3.5303 0.8295-5.5627 1.9218-2.1319 3.2595-2.3724 9.5563-1.718 7.1178 0.73965 7.3026 0.68263 6.6364-2.0465-1.0434-4.2743-4.3052-24.438-5.2061-32.182-0.43985-3.7812-1.5757-11.144-2.524-16.361-0.94836-5.2174-1.4166-10.663-1.0405-12.101 0.86329-3.3012 4.1374-4.6256 6.2329-2.5212 2.2116 2.221 4.2002 25.106 4.2131 48.483l0.0112 19.375 4.9904 2.8498c2.7447 1.5674 4.9904 3.3955 4.9904 4.0625 0 0.66698-3.623 1.2127-8.0512 1.2127s-8.3989 0.5625-8.8238 1.25c-0.92868 1.5026-2.6483 1.421-7.0795-0.3363zm-27.385-6.2262c-0.0494-0.85938-5.0343-3.9859-11.078-6.9478-19.674-9.6427-29.944-22.804-31.059-39.801-0.53218-8.114-0.20959-9.7531 3.5056-17.813 2.2504-4.8824 4.8889-9.5387 5.8633-10.347 0.97438-0.80866 0.2186 1.8636-1.6795 5.9384-2.8397 6.0961-3.4604 9.1818-3.5037 17.418-0.0457 8.7059 0.39269 10.769 3.3678 15.845 6.4144 10.945 18.616 18.406 39.673 24.259 14.109 3.9214 17.385 6.698 13.036 11.047-2.4958 2.4958-17.985 2.8391-18.126 0.40179zm78.83-70.5c-6.5312-1.7168-16.656-3.3361-22.5-3.5985-5.8438-0.26238-11.047-0.50083-11.562-0.5299-0.51563-0.029-0.9375-1.1671-0.9375-2.529 0-5.3589 13.14-4.922 36.875 1.2262 8.25 2.137 18.597 4.2252 22.993 4.6403 7.0795 0.66858 7.7305 0.94646 5.6986 2.4322-3.5496 2.5956-17.245 1.8601-30.566-1.6414zm67.539 1.7251c-0.0215-0.53279 1.8876-4.7944 4.2423-9.4702 8.1322-16.148 13.508-33.527 13.684-44.24 0.11237-6.8196 0.621-9.6814 1.7219-9.6875 1.0878-0.006 1.5625 2.4172 1.5625 7.9766 0 13.648-7.2382 34.291-18.019 51.39-1.7339 2.75-3.1701 4.5641-3.1916 4.0313zm-125.29-4.0699c-0.63248-0.63248-43.766-5.192-51.628-5.4575-2.0625-0.0696-5.7188-0.63206-8.125-1.2498-4.1756-1.072-4.0616-1.1284 2.5-1.2364 3.7812-0.0623 16.156-0.77096 27.5-1.5749 23.229-1.6463 33.975-0.84283 37.631 2.8136 3.2863 3.2863 1.227 7.3686-3.7171 7.3686-1.9237 0-3.7963-0.29862-4.1613-0.66361zm-67.487-8.9403c0.90234-0.36108 1.9805-0.31668 2.3958 0.0986 0.41536 0.41536-0.32292 0.7108-1.6406 0.65652-1.4562-0.06-1.7524-0.35617-0.75522-0.7552zm74.46-28.21c0.56874-18.704 0.40386-29.245-0.50343-32.188-1.6062-5.2086-1.8498-6.8145-4.4239-29.169-1.0953-9.5118-1.7221-17.564-1.3929-17.893 0.69208-0.69209 8.6644 19.556 11.527 29.277 1.0674 3.6246 1.5075 7.2809 0.97784 8.125-0.52963 0.84414-0.78835 2.5939-0.57494 3.8884 0.31176 1.8911-0.21509 2.2383-2.6809 1.767l-3.0689-0.58666 2.1977 3.858c5.4304 9.533 8.6962 28.19 8.7165 49.796v10.93h-5.8151-5.8151l0.84572-27.812zm83.781 12.176c-0.096-7.0201-0.67477-9.9883-2.2971-11.781-3.0018-3.317-2.0701-6.9574 1.7806-6.9574 4.1314 0 6.5019 4.7626 5.5994 11.25-1.1388 8.1866-3.2714 16.875-4.1418 16.874-0.44705-0.0006-0.8706-4.2241-0.94121-9.3856zm-179.76-6.2c-7.93-10.41-16.47-34.42-12.24-34.42 1.5586 0 2.4657 2.5298 3.3134 9.2408 0.66745 5.2841 6.5242 18.668 10.791 24.661 3.8035 5.3415 2.1602 5.7942-1.867 0.51435zm205.52-5.8218c-0.009-0.42948 2.7406-7.2031 6.1087-15.053 3.3681-7.8494 7.4187-20.014 9.0014-27.032 1.5827-7.0179 3.3896-12.76 4.0153-12.76 2.2438 0-3.8634 23.415-9.7808 37.5-2.8955 6.892-9.3164 18.809-9.3446 17.344zm-228.46-17.07c-4.2885-3.5833-5.0879-5.2789-2.4887-5.2788 0.85937 0.00002 3.1334 1.9688 5.0533 4.375 4.1629 5.2173 3.0621 5.6052-2.5646 0.90383zm175.33-0.24c-4.8125-1.2747-13.25-4.0669-18.75-6.205-13.001-5.054-19.071-6.0854-20.096-3.4146-0.6223 1.6217-1.3417 1.3003-3.903-1.7436-2.557-3.0388-2.855-4.0753-1.6048-5.5817 2.5132-3.0282 12.085-2.176 23.729 2.1126 28.119 10.356 35.725 12.589 43.426 12.75 4.3029 0.0895 7.8236 0.3321 7.8237 0.53906 0.00011 0.20695-1.9505 1.1913-4.3346 2.1875-5.7936 2.4207-15.629 2.1798-26.29-0.64399zm-126.95-1.429c-1.0195-1.905-1.0317-3.0123-0.044-4 0.98776-0.98774 1.3658-0.77758 1.3658 0.7592 0 4.8855 12.609 0.23719 32.863-12.115 14.039-8.5615 16.229-9.5102 21.962-9.5102 5.366 0 6.6811 0.47839 8.3603 3.0412 1.5975 2.4381 1.7031 3.5823 0.53228 5.7699-1.2929 2.4158-2.143 2.6382-7.412 1.9392-5.3213-0.7059-7.4598-0.12162-20.191 5.5162-15.412 6.8252-28.393 11.234-33.077 11.234-1.7201 0-3.5369-1.0979-4.3591-2.6342zm-16.81-4.31c-5.344-2.759-16.478-14.009-19.895-20.101-3.7586-6.7024-7.0031-16.281-6.8961-20.358 0.0591-2.2537 0.54491-1.5068 1.6248 2.4985 0.84727 3.1423 3.0074 8.2048 4.8002 11.25 4.6171 7.8422 16.911 19.86 23.178 22.657 5.6241 2.5103 6.5732 4.003 3.3353 5.2455-2.4522 0.94099-1.7517 1.0769-6.1478-1.1927zm186.22-21.351c8.8575-13.103 14.399-24.881 14.4-30.607 0.001-5.7677 2.6246-8.2884 5.5654-5.3475 1.1436 1.1436 1.7633 2.9028 1.3771 3.9093-0.38622 1.0065-1.042 3.184-1.4574 4.8388-0.41535 1.6549-1.2567 3.0089-1.8697 3.0089-0.61296 0-1.1145 0.70814-1.1145 1.5736 0 2.2766-12.53 20.582-18.602 27.176-4.9802 5.4086-4.9148 5.2334 1.7006-4.5529zm37.002 6.8218c-0.0556-0.47087 0.55321-2.4396 1.353-4.375 0.79982-1.9354 1.8296-10.55 2.2883-19.144l0.83411-15.625 0.17889 15c0.1476 12.378-0.23476 15.874-2.1872 20-1.3013 2.75-2.4116 4.6147-2.4672 4.1439zm-257.29-4.6863c-5.0524-3.6599-7.5073-6.3326-5.8166-6.3326 0.49131 0 2.6339 1.3204 4.7613 2.9342s5.5555 3.8413 7.618 4.95c3.18 1.7093 3.351 2.0233 1.125 2.0658-1.4437 0.0275-4.9032-1.6003-7.6877-3.6174zm243.07-20.864c-0.4421-0.4421 0.2636-2.1608 1.5682-3.8194 3.1451-3.9984 5.881-16.83 6.9481-32.587 0.49782-7.3511 1.4137-12.812 2.1487-12.812 1.9587 0 0.33076 30.651-2.0288 38.198-1.9212 6.1456-7.0133 12.644-8.6362 11.021zm-242.12-11.72c0-0.6875 0.81055-1.25 1.8012-1.25 0.99067 0 2.1489 0.5625 2.5738 1.25s-0.38565 1.25-1.8012 1.25c-1.41 0-2.57-0.56-2.57-1.25zm15.95-3.1973c-12.52-3.0345-23.891-10.446-27.889-18.176-2.6632-5.15-2.341-5.0774 3.5327 0.79631 7.6147 7.6147 16.055 9.9911 34.656 9.7575 20.845-0.26179 39.953-3.7924 60.822-11.239l8.947-3.1924 1.053-14.562c0.57913-8.0092 1.0406-30.312 1.0256-49.562-0.0162-20.832 0.28817-30.193 0.7521-23.125 0.42873 6.5312 1.9856 18.91 3.4596 27.509 2.4403 14.235 5.1259 43.924 5.1721 57.178 0.0136 3.8971-0.481 5.3125-1.8565 5.3125-2.1538 0-2.5042 1.9636-0.5643 3.1625 2.9156 1.8019-7.6234 9.3816-14.092 10.135-2.081 0.24229-7.5097 1.5315-12.064 2.865-4.5542 1.3334-11.618 3.0237-15.697 3.7561-10.352 1.8586-38.566 1.4911-47.258-0.61564zm120.43-8.1554c-10.39-2.0402-16.358-4.989-17.229-8.5126-0.44344-1.7929-1.8435-3.997-3.1113-4.8981-5.0222-3.5696-6.0542-8.3844-8.5564-39.921-1.3502-17.018-3.0051-36.847-3.6776-44.066-0.67249-7.2188-1.2416-20.867-1.2648-30.329-0.0278-11.358-0.56345-18.039-1.5762-19.661-1.1733-1.8787-1.1988-3.3447-0.10862-6.233 1.1332-3.0021 1.0907-3.7766-0.20714-3.7766-2.911 0-3.0987-3.4168-1.3214-24.061 0.96189-11.173 2.451-30.11 3.3092-42.082 0.85816-11.972 1.9488-20.691 2.4236-19.375 1.9666 5.4508 2.0393 50.148 0.11787 72.483l-0.86802 10.09 5.286-4.0349c7.4306-5.6719 27.913-13.36 53.192-19.967 26.424-6.9056 34.653-9.5494 48.989-15.738 6.1342-2.6482 11.478-4.8063 11.875-4.7957 0.39707 0.01-2.9343 2.0921-7.4031 4.6256-11.203 6.3514-40.876 19.203-61.875 26.799-9.625 3.4815-22.709 8.7668-29.076 11.745-10.911 5.1043-11.732 5.7602-14.294 11.426-2.5024 5.5322-2.722 8.0498-2.7602 31.636-0.0341 21.042 0.46808 28.643 2.8078 42.5 3.0868 18.281 8.7877 41.331 12.639 51.102 1.3279 3.3689 2.0859 6.4538 1.6844 6.8552-0.40146 0.40146 2.0216 1.9132 5.3845 3.3594 8.3208 3.5784 33.71 5.5485 46.739 3.627 22.471-3.3138 56.25-13.978 56.25-17.759 0-0.62869 4.1216-6.018 9.159-11.976 20.517-24.267 39.404-52.728 57.375-86.458 5.9376-11.145 12.484-27.991 12.047-31.001-0.54532-3.756 2.3773-7.1418 18.607-21.556 17.966-15.956 38.455-31.82 48.474-37.532 5.7216-3.2619 5.4256-2.9227-6.1091 7.0036-8.5401 7.3492-29.46 30.149-41.813 45.572-3.5738 4.4616-7.4018 8.1179-8.5068 8.125-1.438 0.009-3.5045 4.2766-7.2701 15.013-2.8936 8.25-7.2736 19.606-9.7334 25.236-4.3732 10.009-17.674 31.842-19.916 32.691-0.62132 0.23529-2.3214 2.7665-3.7778 5.625-7.2931 14.313-33.615 48.997-42.089 55.461-2.9492 2.2495-9.403 5.2996-14.342 6.7781-4.9387 1.4785-13.74 4.6399-19.558 7.0253-18.327 7.5136-31.957 10.327-49.269 10.171-8.3337-0.0754-17.624-0.62239-20.646-1.2157zm-140.13-17.52c-6.0591-3.6283-12.502-9.9737-12.492-12.304 0.005-1.2064 0.87461-0.62838 2.2948 1.5254 3.2596 4.9434 12.227 11.199 17.539 12.236 4.315 0.84184 4.3526 0.89102 0.78278 1.0234-2.0625 0.0765-5.7188-1.0398-8.125-2.4807zm-2.86-10.83c-3.9062-4.3163-2.1133-7.791 4.0202-7.791 1.2122 0 3.2221 1.125 4.4665 2.5s1.646 2.5 0.8925 2.5c-0.75348 0-1.7176-0.5625-2.1425-1.25s-2.1868-1.25-3.9154-1.25c-2.3185 0-3.0337 0.57381-2.7266 2.1875 0.28156 1.4796 2.0303 2.4335 5.4042 2.9476 2.7434 0.41808 4.1442 0.84763 3.1129 0.95458-1.0312 0.107-3.0221 0.50264-4.4242 0.8793-1.593 0.42796-3.3513-0.20147-4.6875-1.678zm-12.14-7.79c0-0.6875 0.5625-1.25 1.25-1.25s1.25 0.5625 1.25 1.25-0.5625 1.25-1.25 1.25-1.25-0.5625-1.25-1.25zm217.19-0.10013c-1.4513-0.8453-2.1875-2.8101-2.1875-5.8382 0-3.9314 1.0332-5.5688 7.454-11.813 5.1085-4.9678 8.4518-7.2488 10.625-7.2488 1.744 0 3.171 0.4845 3.171 1.0767 0 0.59216-1.3409 0.82033-2.9798 0.50703-4.2941-0.82088-17.02 11.935-17.02 17.06 0 4.1757 1.7276 5.1066 9.4772 5.1066 3.0375 0 5.5228 0.5625 5.5228 1.25 0 1.6301-11.229 1.5501-14.062-0.10013zm-213.94-4.1378c0.38386-1.0004 1.5787-2.1568 2.6552-2.5699 3.0455-1.1687 2.892-0.28216-0.37429 2.1608-2.2432 1.6777-2.8065 1.7788-2.2809 0.40913zm21.13-1.0769c-1.375-0.8188-5.3125-1.8475-8.75-2.286l-6.25-0.79726 5.3746-0.176c4.6822-0.15332 12.75 2.524 12.75 4.2311 0 0.81406-0.2636 0.73209-3.125-0.97184zm210.53-1.8747c4.3388-2.2149 7.4711-5.8497 6.1658-7.155-1.2631-1.2631-4.7033 0.75062-5.4838 3.2099-0.98314 3.0976-3.0884 3.0807-3.0884-0.0247 0-3.1045 5.9689-7.8106 9.3017-7.3338 7.0179 1.0039-0.0589 13.495-7.6431 13.491l-3.5336-0.002 4.2814-2.1856zm-408.53-65.86c0.38876-0.38874 6.8458-1.5376 14.349-2.5531 37.333-5.0525 58.731-10.351 76.284-18.889 7.6404-3.7165 14.531-6.7572 15.312-6.7572 0.78154 0 1.421 1.0062 1.421 2.2359 0 1.3615-2.5902 3.8057-6.6232 6.25-6.7338 4.0811-10.994 5.4412-6.5753 2.0994 2.7142-2.0529 0.54304-2.5089-2.9767-0.62525-5.7138 3.058-43.533 13.139-53.825 14.347-3.7812 0.44396-9.4062 1.3086-12.5 1.9215-7.2009 1.4264-25.795 2.9-24.866 1.9706zm289.07-18.2c0-6.5312 0.21068-9.2031 0.46818-5.9375s0.2575 8.6094 0 11.875-0.46818 0.59375-0.46818-5.9375zm-12.084-21.283c-6.7682-5.3239-16.62-7.9859-43.992-11.887-24.844-3.5406-57.775-14.232-66.875-21.712-2.5959-2.1336-1.6434-1.9523 5.625 1.071 12.389 5.1531 30.058 8.421 57.5 10.635 28.195 2.2744 30.268 2.572 40.042 5.7487 12.831 4.1702 20.146 12.365 15.333 17.177-2.1201 2.1201-3.9373 1.8741-7.6334-1.0333zm257.57 0.38795c-6.9127-1.0472-3.1939-2.217 5.6222-1.7686 6.2135 0.31607 8.2788 0.77997 6.5653 1.4746-2.6318 1.067-6.473 1.1596-12.188 0.29393zm22.515-2.4888c1.5549-0.29898 3.8049-0.28763 5 0.0252 1.1951 0.31287-0.0771 0.5575-2.8271 0.54363-2.75-0.0139-3.7278-0.26986-2.1729-0.56885zm-26.58-1.34c-7.964-0.72793-9.5556-1.4919-9.1436-4.3889 0.37217-2.6173 1.1779-2.8138 14.769-3.6017 7.9062-0.45837 22.109-0.9843 31.562-1.1687 9.4531-0.18441 17.188-0.79375 17.188-1.3541 0-0.56034 0.84375-1.0188 1.875-1.0188s1.875 0.61772 1.875 1.3727c0 0.92477 2.3456 1.128 7.1876 0.62276 3.9531-0.41249 20.688-2.1627 37.188-3.8895 26.037-2.7248 66.197-8.1684 88.024-11.932 3.7258-0.64235 7.0057-0.93633 7.2888-0.65329 0.283 0.28305-0.088 1.64-0.8238 3.0153-1.4581 2.7245-4.8102 3.623-26.748 7.1692-9.0418 1.4616-12.968 2.5636-11.875 3.3325 1.0452 0.73501-0.055 0.86957-3.0538 0.3736-3.7769-0.62459-4.6875-0.38894-4.6875 1.2131 0 1.6104-0.8659 1.8258-4.5557 1.1336-2.9154-0.54692-4.2783-0.40585-3.7853 0.39185 0.4819 0.77959-8.2296 2.2639-23.257 3.9627-13.215 1.4939-27.074 3.2608-30.798 3.9265-3.724 0.66567-8.7865 1.1659-11.25 1.1116-9.2838-0.20454 1.5222-2.1136 24.896-4.3984 15.588-1.5236 22.106-2.5746 20-3.2244-1.8951-0.58458-0.1731-0.74333 4.375-0.40335 4.125 0.30833 6.7969 0.24693 5.9375-0.13645-3.2827-1.4645-1.3626-2.7991 3.0068-2.0901 3.5117 0.56989 4.3416 0.37302 3.5854-0.85057-0.7514-1.2158 0.2181-1.4775 4.102-1.1071 2.7973 0.26676 4.8072 0.2063 4.4666-0.13438-0.3406-0.34067 4.8978-1.639 11.641-2.8851 6.7433-1.2461 14.792-2.7408 17.886-3.3216 3.0938-0.58078 4.4695-1.1221 3.0572-1.203-2.1882-0.12528-40.874 5.4954-54.307 7.8902-2.4062 0.429-6.2031 0.74724-8.4375 0.70723-2.2344-0.04-4.0625 0.54182-4.0625 1.293 0 0.89478-1.8319 1.099-5.3125 0.59206-5.4934-0.80003-59.028 4.2841-78.192 7.4258-11.561 1.8952-23.461 2.7899-29.621 2.2269zm187.19-21.11c-0.8594-0.34676-2.2656-0.34676-3.125 0s-0.1563 0.63049 1.5625 0.63049c1.7187 0 2.4219-0.28373 1.5625-0.63049zm-150.22 21.619c1.1684-1.0638 20.167-2.2182 19.529-1.1866-0.37228 0.60237-5.0389 1.2253-10.37 1.3843-5.3314 0.15897-9.4529 0.07-9.1589-0.19766zm-407.59-4.41c6.3412-5.062 20.529-12.872 24.578-13.529 5.0421-0.81822 5.4524 1.0238 0.89358 4.0109-1.8034 1.1816-2.8952 1.5276-2.4262 0.76876 1.3538-2.1904 0.16351-1.7517-13.38 4.9322-7.0344 3.4715-11.384 5.1893-9.6648 3.8173zm432.84 1.5046c1.2162-0.31692 2.9037-0.29608 3.75 0.0464 0.8462 0.34241-0.1488 0.60171-2.2113 0.57624-2.0625-0.0255-2.7549-0.30563-1.5387-0.62255zm10.28-1.63c0.4249-0.6875 1.335-1.25 2.0225-1.25s0.9023 0.5625 0.4774 1.25-1.335 1.25-2.0225 1.25-0.9023-0.5625-0.4774-1.25zm10.391-2.1039c0.9023-0.36108 1.9805-0.31668 2.3958 0.0986 0.4153 0.41536-0.323 0.7108-1.6406 0.65652-1.4562-0.06-1.7524-0.35617-0.7553-0.7552zm8.6719-1.224c0.8593-0.34676 2.2656-0.34676 3.125 0 0.8593 0.34676 0.1562 0.63049-1.5625 0.63049-1.7188 0-2.4219-0.28373-1.5625-0.63049zm8.75-1.25c0.8593-0.34676 2.2656-0.34676 3.125 0 0.8593 0.34676 0.1562 0.63049-1.5625 0.63049-1.7188 0-2.4219-0.28373-1.5625-0.63049zm-204.68-51.19c-3.7812-1.014-7.7188-2.723-8.75-3.7977-1.6942-1.7656-1.1055-1.9025 6.1055-1.4196 5.5633 0.37252 8.4446 1.1691 9.5128 2.63 0.84278 1.1526 2.8766 2.1351 4.5195 2.1834 1.643 0.0482 4.1122 0.57128 5.4872 1.1621 4.3753 1.8801-9.3338 1.2641-16.875-0.75824zm-107.81-16.27c-0.36245-0.60391 0.10238-6.4418 1.033-12.973 0.93061-6.5312 1.7118-12.409 1.736-13.062 0.0278-0.75 0.46964-0.75 1.1993 0 0.70728 0.72697 0.67108 5.5369-0.0934 12.403-1.2292 11.04-2.5796 15.791-3.875 13.633z"/>
</svg>
