<?xml version="1.0" encoding="UTF-8" standalone="no"?>
<!-- Created with Inkscape (http://www.inkscape.org/) -->
<svg id="svg4176" xmlns:rdf="http://www.w3.org/1999/02/22-rdf-syntax-ns#" xmlns="http://www.w3.org/2000/svg" height="800" viewBox="0 0 600 800" width="600" version="1.1" xmlns:cc="http://creativecommons.org/ns#" xmlns:dc="http://purl.org/dc/elements/1.1/">
 <metadata id="metadata4182">
  <rdf:RDF>
   <cc:Work rdf:about="">
    <dc:format>image/svg+xml</dc:format>
    <dc:type rdf:resource="http://purl.org/dc/dcmitype/StillImage"/>
    <dc:title/>
   </cc:Work>
  </rdf:RDF>
 </metadata>
 <path id="path4186" fill="#fff" d="m449.58 744.6c-1.4292-1.7912-3.3594-4.7281-4.2894-6.5264-2.4009-4.6429-6.5638-24.112-7.402-34.619l-0.71018-8.9018-2 3.7966c-2.7497 5.2197-4.6546 6.2645-8.6632 4.7515-2.6609-1.0044-3.4963-0.95772-4.8542 0.27116-1.8181 1.6453-4.5718 1.9581-5.4027 0.61366-1.0359-1.6762-12.416-7.9342-15.732-8.6516-1.8413-0.39827-5.5293-1.8236-8.1956-3.1674-4.4258-2.2305-4.9986-2.3068-6.5787-0.87679-2.6578 2.4053-3.9924 1.9575-12.073-4.0508-8.9436-6.6496-16.744-11.968-22.563-15.383-2.3429-1.375-6.8872-4.6391-10.098-7.2535-3.2112-2.6144-8.9885-6.4039-12.838-8.4211-20.836-10.917-32.991-19.253-88.283-60.546-28.721-21.449-41.61-31.66-42.357-33.555-0.59054-1.4984-1.4767-3.3994-1.9693-4.2244-2.4829-4.1586-3.1523-7.4204-3.6383-17.727-0.45157-9.5766-0.78918-11.309-2.2972-11.788-1.4776-0.46899-1.885-2.2788-2.481-11.023l-0.71311-10.462-5.1306 0.003-5.1306 0.003-0.2943 31.747c-0.38118 41.118-2.3337 57.426-11.219 93.709-4.3728 17.856-6.1291 22.539-8.4529 22.539-2.3214 0-2.5509-1.3817-1.5996-9.6329 0.49886-4.3269 1.1931-12.947 1.5428-19.156l0.63583-11.289-6.3062 4.6492c-12.44 9.1716-29.407 16.261-47.867 20.002-6.4724 1.3115-11.643 1.5733-23.375 1.1836-17.565-0.58339-23.471-2.2808-31.003-8.9112-6.0527-5.3278-8.5611-10.333-8.5611-17.083 0-6.9339 2.0255-9.988 6.3461-9.5685 3.1133 0.30224 3.1499 0.36882 2.8425 5.1642-0.39724 6.1965 2.9772 11.682 9.0625 14.732l4.2489 2.1296-3.6398-3.8599c-6.4982-6.8911-8.7832-14.378-4.6299-15.169 1.2265-0.23373 2.2042 0.85465 3.3579 3.738 2.0808 5.2004 11.258 13.645 16.553 15.232 6.7915 2.0348 12.237-0.0105 19.077-7.1646 12.127-12.685 19.908-36.727 23.786-73.496 1.4893-14.12 3.9335-28.61 6.5785-39 0.85592-3.3622-5.9754 4.8838-9.4562 11.414-3.253 6.1032-4.103 10.127-4.4323 20.978-0.1435 4.7287-0.62763 6.6656-1.8602 7.442-3.5837 2.2575-4.4834-0.50712-5.3958-16.581-1.3522-23.82-1.0296-39.264 0.97531-46.689 2.53-9.3701 10.723-25.817 15.64-31.395l4.2579-4.8304-4.1802-12.67c-6.7781-20.543-8.5118-29.701-8.5512-45.17-0.0239-9.4214 0.48086-15.615 1.6709-20.5 0.93785-3.85 1.9399-8.2027 2.2267-9.6727 0.78339-4.0143 5.9498-8.5446 11.874-10.412l5.2763-1.6632-2.3018-7.9469c-6.4724-22.346-9.4508-102.02-4.9084-131.31 5.325-34.328 13.057-55.827 27.776-77.225 6.9799-10.148 23.065-26.797 34.306-35.508 11.66-9.0362 28.047-18.738 40.279-23.846 9.6774-4.0413 30.239-9.9206 34.696-9.9206 1.2868 0 9.1062-1.3512 17.376-3.0027 28.13-5.6173 57.344-7.9449 76.149-6.067 42.228 4.2169 82.627 20.181 114.22 45.135 4.8194 3.8066 13.559 9.3146 19.538 12.313 17.152 8.6022 28.514 16.673 40.242 28.585 14.2 14.424 17.363 20.567 17.524 34.036 0.0625 5.225 0.62187 10.706 1.2431 12.18 2.2959 5.4471 4.2324 23.735 4.2324 39.969 0 16.145-1.1878 24.095-5.0639 33.892-0.76709 1.9389-0.27071 6.0828 2.0963 17.5 4.4508 21.468 7.5188 34.154 9.9796 41.265 1.8641 5.3864 2.0054 6.8862 1.0631 11.28-0.59777 2.7873-1.6239 6.0457-2.2802 7.241-0.65636 1.1953-1.0774 3.1404-0.93572 4.3224 0.24506 2.0441-1.5397 7.0277-8.819 24.626l-3.216 7.7749 2.0022 3.8414c1.1012 2.1128 3.241 7.6141 4.7549 12.225 2.3873 7.271 2.7965 10.308 3.0831 22.884l0.33043 14.5-5.1004 18c-2.8052 9.9-5.4352 18.609-5.8443 19.352-0.8444 1.5349 0.82891 7.0919 2.8795 9.5627 1.6853 2.0307 0.77936 22.706-1.4059 32.085-2.4331 10.443-8.1419 27.481-14.575 43.5-4.4675 11.124-8.144 22.981-13.023 42-8.4679 33.008-16.812 62.371-21.514 75.708-2.9277 8.3041-4.6598 11.471-9.285 16.978-3.1273 3.7235-6.9152 7.4547-8.4177 8.2916-2.4841 1.3836-3.0144 1.3604-5.8501-0.25656l-3.1184-1.7781-3.4479 4.0281c-1.8964 2.2155-4.0521 4.0281-4.7905 4.0281-1.5822 0-1.7999 0.98179-4.488 20.234-1.6868 12.081-1.8683 15.916-1.008 21.301 0.57706 3.6122 0.78532 6.9946 0.4628 7.5164-1.1656 1.886-4.0213 0.88237-6.5669-2.308zm3.6111-9.9932c0.0108-8.8196 2.5474-31.856 4.0632-36.901 0.27279-0.90782 1.4924-1.9046 2.7101-2.2152 1.2178-0.31053 4.2392-3.1178 6.7142-6.2384 4.0844-5.1498 4.5324-5.4532 4.8508-3.2848 0.40693 2.7712 1.7621 3.8522 4.8561 3.8737 3.3853 0.0235 12.809-12.274 16.246-21.2 4.7181-12.253 18.4-60.605 26.039-92.017 1.7027-7.0028 6.1617-20.503 9.9088-30 5.9263-15.021 8.766-23.369 14.037-41.268 0.64792-2.2 1.4439-9.7946 1.7689-16.877 0.51904-11.312 0.39048-12.989-1.058-13.8-0.93885-0.5254-1.6488-2.1677-1.6488-3.814 0-1.5902-0.43281-3.1588-0.96179-3.4857-0.61018-0.37711-0.58348-1.5868 0.073-3.309 0.56914-1.493 3.4704-11.009 6.4472-21.147 4.9414-16.829 5.312-18.768 4.2591-22.282-0.87557-2.9224-0.87205-4.1306 0.0146-5.0173 1.5698-1.5698 1.471-7.063-0.28663-15.93-1.6253-8.1994-5.8714-20.79-7.3273-21.727-2.9622-1.9066-2.2833-5.5025 3.6937-19.563 3.8401-9.0336 6.0998-15.748 6.1199-18.185 0.0175-2.1246 0.6664-4.7008 1.442-5.7248 2.5614-3.3817 2.856-11.533 0.64599-17.869-1.7296-4.9589-9.321-37.464-11.857-50.769-0.72441-3.801-0.38561-5.898 2.1811-13.5 2.9382-8.7023 3.0389-9.5954 3.0428-27 0.004-18.372-1.382-31.281-4.1661-38.8-0.99389-2.6842-1.4947-7.0295-1.3878-12.041 0.21036-9.8598-1.6675-15.72-7.635-23.826-10.569-14.357-26.765-27.027-48.919-38.268-6.1165-3.1037-14.216-8.1336-18-11.178-23.155-18.629-55.638-34.387-85.076-41.271-28.782-6.7306-62.601-6.7674-97.804-0.10638-6.05 1.1448-17.107 3.1673-24.57 4.4946-23.492 4.1775-40.559 10.982-60.96 24.303-14.296 9.3348-24.199 17.513-33.153 27.377-17.281 19.038-28.382 38.788-34.186 60.816-8.3998 31.882-10.575 55.377-8.7509 94.5 2.0293 43.513 3.8371 59.552 8.1127 71.979 1.0891 3.1654 1.7346 6.1525 1.4346 6.638-0.30004 0.48547-1.7565 0.89255-3.2365 0.90463-7.2961 0.0596-15.179 6.8913-15.187 13.163-0.002 1.4767-0.47284 3.9187-1.0462 5.4268-1.8924 4.9774-2.9055 21.353-1.8469 29.854 1.317 10.576 6.1964 29.77 10.467 41.173 1.8823 5.0261 3.4224 9.4136 3.4224 9.75s-0.89718 0.61163-1.9937 0.61163c-2.783 0-7.3431 6.533-13.187 18.893-8.0533 17.032-8.8863 23.19-7.3866 54.607 0.90914 19.045 2.3935 27.621 2.5042 14.468 0.0808-9.6076 1.8545-16.376 6.1476-23.46 3.3274-5.4903 15.785-19.972 16.536-19.222 0.20678 0.20678-0.74569 3.6738-2.1166 7.7044-3.2161 9.4558-6.1083 24.554-8.0049 41.789-3.1327 28.467-7.5717 47.478-14.165 60.663-8.3781 16.754-16.268 23.803-26.834 23.971-2.75 0.0437-5.259 0.43062-5.5756 0.85981-0.78755 1.0677-10.633-1.1152-14.924-3.3089-7.8835-4.03-14.127-14.696-10.888-18.6 1.5576-1.8768 0.23815-3.0725-1.9104-1.7312-2.6781 1.672-3.8101 7.788-2.25 12.157 3.8318 10.732 13.412 16.566 30.048 18.301 16.186 1.6875 30.349-0.1282 48.096-6.166 9.8626-3.3554 24.749-11.317 31.83-17.023l6.3941-5.1525-0.67676 16.375c-0.37222 9.0063-0.92371 18.175-1.2256 20.375-1.1154 8.1298 1.4106 0.85719 5.4747-15.762 9.1214-37.3 11.341-57.333 10.912-98.5-0.2676-25.695-0.12192-29.187 1.1953-28.648 0.825 0.33775 4.263 0.85074 7.6399 1.14l6.1399 0.52588 0.59906 3.6219c0.32947 1.992 0.604 6.6594 0.61005 10.372 0.01 6.0797 0.20963 6.75 2.011 6.75 1.8005 0 2.002 0.67327 2.0198 6.75 0.034 11.577 1.7001 20.504 4.2173 22.596 1.4839 1.2331 2.1279 2.7372 1.9398 4.5304-0.25578 2.4385 1.9915 4.3866 24.521 21.257 73.503 55.041 80.843 60.087 110.39 75.873 7.3508 3.9282 16.077 9.496 19.391 12.373 8.7295 7.5774 27.013 20.62 28.906 20.62 1.8948 0 2.1356-2.0847 0.43699-3.7833-2.4292-2.4292-0.11471-2.0002 4.4131 0.81793 2.5756 1.6031 7.5151 3.8636 10.977 5.0234 6.3611 2.1313 16.264 7.2754 17.332 9.0033 0.31908 0.51629 1.5125 0.9387 2.652 0.9387 1.8093 0 1.9999-0.44346 1.5038-3.5-0.31238-1.925-0.43224-3.5-0.26635-3.5s1.8251 1.3428 3.6871 2.984c4.2299 3.7282 7.1755 3.8697 8.7472 0.42007 1.4102-3.095 6.113-9.4051 7.007-9.4016 0.34722 0.001 0.66141 4.3888 0.6982 9.75 0.073 10.635 3.3522 28.856 6.4866 36.042 1.5651 3.5881 5.6271 10.206 6.2646 10.206 0.10005 0.00004 0.18755-4.6125 0.19445-10.25zm-31.154-46.088c-6.9462-6.2024-13.382-10.662-15.386-10.662-0.95014 0-2.3305 0.72654-3.0675 1.6145-1.1535 1.3898-0.96175 1.9398 1.3776 3.952 1.4946 1.2856 2.7175 2.6358 2.7175 3.0005 0 0.83482-4.0221-1.709-10.592-6.6993-5.7336-4.3548-8.1201-4.8193-9.2377-1.7981-0.71762 1.9399-1.2641 1.71-8.7178-3.6684-11.778-8.4987-14.636-10.401-15.623-10.401-1.8268 0-2.011 3.1414-0.29536 5.0372 5.4509 6.0232-8.3151-4.0271-14.989-10.943-2.5502-2.6428-4.5454-3.9114-5.6167-3.5714-1.1071 0.35139-7.8952-4.4894-20.343-14.508-10.275-8.2693-24.848-19.677-32.383-25.349-13.794-10.384-73.033-53.294-76.96-55.747-3.1761-1.9835-7.9401-16.671-8.7311-26.918-0.75377-9.7645-3.8702-26.905-5.3896-29.643-1.7859-3.2182-3.9507-19.763-7.1124-54.357-1.6839-18.425-3.3294-35.802-3.6566-38.616-0.38478-3.3083-0.19863-5.3606 0.52691-5.809 0.71733-0.44333 1.1219-4.5946 1.1219-11.512 0-8.6199-0.31969-11.084-1.5731-12.124-0.8652-0.71805-2.4038-2.9106-3.4192-4.8724-4.0317-7.7896-17.45-18.049-28.386-21.703-2.8167-0.94118-8.0463-2.1956-11.621-2.7876l-6.5-1.0764-0.26641-4c-0.14653-2.2-1.159-13.791-2.25-25.758-2.2353-24.519-2.7073-69.311-0.96258-91.347 1.8011-22.748 7.5441-49.571 13.494-63.024 5.2622-11.899 24.224-19.46 56.393-22.487 16.209-1.5251 42.525-0.57586 55.092 1.9872 11.189 2.282 28.979 7.9113 40.259 12.739 4.415 1.8897 8.19 3.273 8.3889 3.074 1.0988-1.0988-22.519-11.903-38.848-17.771-14.232-5.115-24.219-7.5591-36.301-8.8839-19.137-2.0984-48.943 0.99327-65.267 6.77-4.5282 1.6024-8.2331 2.5014-8.2331 1.9978 0-2.2395 12.726-17.259 23.251-27.443 12.421-12.017 25.025-21.925 39.151-30.777 9.66-6.0529 11.043-6.5581 10.137-3.7023-1.0537 3.32 3.019 3.1453 12.107-0.51937 7.6343-3.0784 18.012-5.9518 39.353-10.897 19.382-4.4906 57.365-6.7705 75.543-4.5343 26.653 3.2786 59.283 13.402 84.957 26.356 15.622 7.8829 20.315 11.683 6.9363 5.6165-13.588-6.1611-15.284-6.1908-4.1354-0.07224 11.907 6.5347 23.416 15.638 36.728 29.051 13.8 13.904 18.062 20.469 19.88 30.623 1.337 7.4666-0.0251 20.755-2.7429 26.759-2.4628 5.4409-8.4816 12.351-12.516 14.369l-3.1496 1.5756 3.384-3.1678c2.4378-2.2821 3.0799-3.4719 2.2963-4.2554-0.78356-0.78356-2.6385-0.0196-6.6343 2.7324-3.0506 2.101-5.7414 3.6253-5.9795 3.3872-0.23811-0.2381 1.1135-3.5755 3.0036-7.4164 4.1045-8.3409 5.4339-14.811 5.418-26.37-0.0229-16.618-5.0528-28.143-17.983-41.206-9.8963-9.9981-17.584-15.413-30.703-21.628-9.7095-4.5994-13.584-5.4432-6.0415-1.3156 11.965 6.5477 28.4 21.232 35.088 31.351 6.8202 10.318 8.9592 16.84 9.4369 28.771 0.48399 12.089-0.68074 19.056-4.4993 26.914l-2.6727 5.5-0.70983-11.251c-1.4598-23.137-10.673-42.77-28.116-59.912-14.247-14.001-27.844-22.115-51.788-30.9-6.325-2.3208-15.775-5.7962-21-7.7231-10.494-3.8701-29.205-8.2951-38.5-9.105-6.3756-0.55554-5.995-0.40362 5 1.9958 11.466 2.5021 33.278 10.424 44.401 16.125 28.625 14.673 53.99 38.264 65.367 60.795 5.2795 10.456 7.0235 18.625 6.5305 30.591-0.26697 6.4796-0.93131 11.417-1.6303 12.116-0.90633 0.90633-2.3952 0.55619-6.4242-1.5108-15.114-7.754-16.427-8.8144-24.41-19.721-29.829-40.752-76.353-65.538-137.33-73.166-6.121-0.76565-20.3-1.2947-34-1.2686-22.438 0.04272-23.952 0.16848-33.5 2.7831-12.263 3.358-20.651 7.2275-26.262 12.115-5.7632 5.02-7.9598 9.0101-2.594 4.7118 13.562-10.864 41.154-16.347 71.8-14.268 42.803 2.9036 85.418 16.155 114.56 35.623 11.128 7.4351 12.441 8.6889 17.767 16.97 6.5372 10.165 16.555 22.764 21.393 26.905 3.8767 3.3183 4.0129 3.5943 1.7698 3.5879-11.031-0.0318-53.411-14.772-67.93-23.627-13.252-8.0823-12.864-7.9038-8.5237-3.9159 2.187 2.0094 9.7063 7.3428 16.71 11.852 7.0034 4.5091 12.752 8.4917 12.774 8.8502 0.10408 1.683-11.857 1.8955-19.349 0.34383-8.4022-1.7403-31.164-9.4712-41.111-13.963-8.615-3.8904-11.183-4.837-10-3.6857 1.3902 1.3525 22.743 12.9 28.101 15.196 9.4176 4.0369 4.4179 3.6809-22.101-1.5734-22.981-4.5535-34.412-6.4768-38-6.3941-3.443 0.0794 27.523 7.9657 41 10.442 4.95 0.90944 9.9 2.0346 11 2.5004 1.1684 0.49473-8.6425 0.87501-23.594 0.91455-14.077 0.0372-30.502 0.39665-36.5 0.79873-10.59 0.7099-10.732 0.75015-4.9056 1.3915 9.8722 1.0866 69.598 0.93229 74-0.19123 6.4423-1.6444 16.948-1.0349 27.846 1.6155 11.751 2.8579 30.142 5.4532 38.642 5.4532 3.237 0 9.6264 0.89685 14.199 1.993 4.5723 1.0962 11.697 1.9962 15.833 2 7.3498 0.007 7.8594 0.17647 22.5 7.4893 8.2389 4.1152 15.754 7.4902 16.7 7.5 0.94604 0.01 2.7182-1.3322 3.9381-2.9822s2.7392-3 3.3763-3c0.63707 0 2.5636-0.70104 4.2811-1.5579 4.9586-2.4737 9.833-2.9364 11.662-1.1072 2.4278 2.4278 7.87-0.3658 18.026-9.2533 3.2004-2.8006 6.0022-4.9087 6.2261-4.6848 0.22397 0.22397-1.1987 2.6425-3.1615 5.3746-3.4073 4.7427-4.5551 8.2285-2.7095 8.2285 0.47257 0 2.9041-1.8 5.4034-4s4.8571-4 5.2396-4c0.38243 0-0.24913 1.6007-1.4034 3.5572-4.2638 7.2266-1.6815 8.486 6.0341 2.9428 6.6196-4.7557 8.2932-4.5661 11.253 1.2752 5.9246 11.692 6.5342 16.004 7.5944 53.725 1.1656 41.471 3.6411 62.066 8.6168 71.688l1.436 2.7768-6.6428 3.012c-11.36 5.1511-41.046 21.892-45.577 25.703l-4.3138 3.6284 6.0214-0.61489c3.3117-0.33819 12.312-2.3981 20-4.5776 16.081-4.5588 25.366-6.5618 26.262-5.6657 0.63013 0.63013-2.3691 16.469-3.2936 17.393-0.27373 0.27372-1.5084-0.42438-2.7437-1.5513-1.2353-1.127-3.5961-2.7833-5.2461-3.6807l-3-1.6317 4 0.56752c3.5017 0.49682 3.7508 0.40982 2-0.69836-3.0419-1.9253-22.573-1.616-30.202 0.47828-8.6646 2.3786-14.316 4.9719-17.659 8.1034-3.7866 3.5468-2.6658 4.4526 1.5456 1.2492 3.2233-2.4518 13.72-7.1087 14.428-6.4008 0.1938 0.19379-2.1629 1.8978-5.237 3.7866-7.8639 4.8318-11.05 7.5764-12.749 10.981-1.7422 3.4923-1.3394 3.659 2.1702 0.89829l2.6122-2.0547 1.7174 2.2768c2.3451 3.109 1.5728 3.8327-4.0903 3.8327-4.8022 0-4.8583-0.0376-6.191-4.1582-1.6484-5.0965-3.9551-6.8251-6.4-4.796-1.5335 1.2727-1.6558 2.9145-1.1134 14.942 0.36335 8.0563 1.6245 18.559 3.1234 26.012 2.571 12.784 13.615 53.264 14.335 52.544 0.82296-0.82296-2.0856-19.781-6.2971-41.044-4.5777-23.112-7.0589-39.267-6.1678-40.158 0.69995-0.69995 2.6627 6.4559 2.6698 9.7337 0.006 2.9264 3.0915 6.0873 7.5056 7.6898 3.5372 1.2841 19.486 3.5823 20.162 2.9054 0.25692-0.25691-1.8531-1.2378-4.6889-2.1797-2.8358-0.94191-6.5775-2.9468-8.3148-4.4552-4.6884-4.0709-7.5651-5.3047-10.84-4.6496-2.8685 0.57371-2.9302 0.49984-2.6278-3.1494l0.30959-3.7369 22-0.5c19.784-0.44963 22.425-0.71238 26.217-2.6081l4.2168-2.1081 1.6767 5.1081c0.92217 2.8095 4.0871 10.024 7.0332 16.032 2.9461 6.0084 5.3566 11.797 5.3566 12.865 0 2.5995-9.1757 34.712-9.9171 34.707-0.80519-0.005-3.6673-7.5483-4.9488-13.043-0.58327-2.5007-3.4998-9.7382-6.4812-16.083-2.9814-6.3451-5.7552-13.059-6.164-14.92-0.40878-1.8612-1.2443-4.1862-1.8566-5.1667-1.3704-2.1943-5.4796-2.3443-6.2911-0.22967-0.3278 0.85423-0.0267 6.5917 0.66904 12.75l1.265 11.197 8.0078 12.838c5.0511 8.0975 8.265 14.374 8.7043 17 0.38308 2.2894 0.6516 16.988 0.59672 32.662l-0.0998 28.5-4.8227 18c-2.6525 9.9-5.1891 18.38-5.637 18.845-0.44787 0.46466-0.77762-3.1353-0.73277-8 0.12854-13.944-5.1859-25.884-13.722-30.83-7.0716-4.0972-22.85-5.7901-28.82-3.0922-1.0365 0.46841-1.75 0.37711-1.75-0.22395 0-0.55813 3.9375-3.6164 8.75-6.7962s9.1099-6.3713 9.5497-7.0922c1.201-1.9687 3.2668-1.5826 5.0259 0.93919 1.2694 1.8198 1.5795 1.9267 1.622 0.55902 0.0289-0.93004-0.4293-1.9887-1.0181-2.3526-0.63236-0.39082-0.8279-2.1546-0.47772-4.309 0.44373-2.73 0.0526-4.5229-1.5551-7.1282l-2.1479-3.4808-2.7822 3.3326c-1.5302 1.8329-3.0643 4.8364-3.4091 6.6744-0.42734 2.2779-1.3322 3.5497-2.8422 3.9946-3.7036 1.0913-15.747 8.4942-19.851 12.202-2.1252 1.92-3.864 4.3019-3.864 5.293 0 0.99115-1.6018 2.792-3.5596 4.002-3.5261 2.1792-3.5802 2.1817-5.75 0.26617-1.2048-1.0636-3.3154-2.6228-4.6904-3.4649-2.8103-1.7212-13.096-5.3627-14.25-5.0448-0.4125 0.11368-0.75-0.53518-0.75-1.4419 0-1.4695-1.2223-1.5831-11.25-1.046-18.447 0.98812-33.42 6.432-53.031 19.281-12.512 8.1976-20.502 16.195-24.699 24.722l-3.182 6.4636-8.7161 0.13911-8.7161 0.13911-23.339-15.071c-27.902-18.018-40.666-27.566-52.093-38.97-9.7128-9.6927-14.994-17.223-19.64-28.004-7.5783-17.584-13.043-45.755-14.027-72.311-0.56951-15.37-0.75878-16.67-2.2146-15.214-1.3622 1.362-1.5876 4.7969-1.5625 23.806 0.0249 18.813 0.37672 24.052 2.2979 34.214 4.5812 24.234 9.1666 37.297 17.26 49.173 4.4106 6.4718 14.802 17.24 23.602 24.459 13.572 11.133 45.264 29.514 63.31 36.72 4.125 1.6471 10.099 4.419 13.275 6.1598 7.527 4.1252 13.179 4.8766 14.74 1.9596 0.88433-1.6524 0.7887-2.6225-0.44398-4.5038-0.86409-1.3188-1.5711-2.6152-1.5711-2.881s2.2851-3.2291 5.0781-6.5852c6.8702-8.2554 17.812-16.755 27.994-21.746 14.859-7.2836 40.917-13.931 49.428-12.608 1.65 0.25639 4.8 0.063 7-0.42977 4.5487-1.0188 8.554 0.52418 16.634 6.408 2.5487 1.8559 5.0372 3.3744 5.53 3.3744 0.49279 0 2.2927-1.4808 3.9999-3.2907 3.4041-3.609 17.893-9.2999 19.791-7.7736 0.57475 0.46219 3.52 1.1458 6.545 1.5192 19.466 2.4028 22.952 6.0705 29.374 30.907 3.3481 12.947 3.4824 14.046 2.116 17.316-2.1856 5.2308-11.437 37.374-19.512 67.796-3.9398 14.842-8.0392 28.208-9.1143 29.718-1.5115 2.1227-2.7121 2.7157-5.3014 2.6183-4.2192-0.15862-11.038 3.7605-15.893 9.1348-2.0151 2.2304-3.8586 4.0553-4.0968 4.0553-0.23817 0-0.57685-1.0125-0.7526-2.25-0.432-3.0418-4.1179-3.4471-7.4577-0.81998-3.47 2.7295-5.2052 2.6122-6.3618-0.43002-0.55765-1.4667-1.7428-2.5-2.8675-2.5-1.8256 0-11.451 9.504-14.796 14.61-0.86135 1.3146-1.9157 2.3902-2.3429 2.3902-0.42726 0-2.963-1.9521-5.635-4.3379zm12.82-54.42c0.21769-1.8919 0.96493-2.8427 2.3948-3.0471 1.8816-0.26893 2.0411-0.83712 1.6851-6-0.21632-3.1366-1.2915-8.788-2.3893-12.559-2.1498-7.384-1.9452-9.5503 0.47046-4.9826 1.3412 2.536 1.5786 2.6401 2.228 0.97694 0.44824-1.1479 0.0376-3.0283-1.0712-4.9054l-1.7981-3.044 2.3984 0.79507c3.0246 1.0027 9.0144 0.89646 9.802-0.17384 1.0552-1.4339 13.077-0.95114 14.015 0.56285 0.53455 0.86215-0.21598 4.298-2.0166 9.2319-1.5774 4.3223-3.5441 11.101-4.3705 15.064-1.3726 6.583-1.3607 7.3622 0.13787 9.0181 2.2659 2.5038 3.2792 2.3584 15.274-2.1916 14.56-5.5229 22.755-9.7531 24.918-12.863 2.559-3.6782 4.4478-9.5296 3.2094-9.9424-0.58174-0.19392-0.17919-2.5009 0.97437-5.5841 2.4492-6.546 5.5955-21.015 6.438-29.606 0.84425-8.6093-1.5588-21.098-4.9034-25.483-8.0852-10.6-28.921-16.341-44.149-12.164-5.2261 1.4335-18.095 1.6483-20.16 0.33647-0.67547-0.4291-7.115-0.77016-14.31-0.75791-21.173 0.036-36.137 4.6816-45.832 14.228-5.1472 5.0688-11.51 14.184-14.294 20.478-2.6003 5.8783-6.8362 22.679-6.8362 27.113 0 2.9926 0.21534 3.3155 1.5 2.2493 1.2903-1.0708 1.5-0.69251 1.5 2.7061 0 4.6462 4.2223 11.66 9.8514 16.365 4.3742 3.6559 16.993 9.7972 26.649 12.97 8.1706 2.6844 15.292 3.6335 28.684 3.8227l9.6836 0.13682 0.31642-2.75zm-40.839-9.2913c-2.2855-0.45219-7.4843-2.2079-11.553-3.9017-19.762-8.2269-25.942-27.602-14.727-46.165 8.5785-14.198 17.189-21.048 31.339-24.93 6.6943-1.8366 9.8917-2.0963 22.209-1.804 11.139 0.26428 14.389 0.0548 14.388-0.92767-0.0005-0.83895 0.80956-1.0657 2.3902-0.66897 1.315 0.33004 2.6767 0.13769 3.0259-0.42744 0.42252-0.68365 1.965-0.55828 4.6091 0.37461 2.5028 0.88305 3.9741 1.0189 3.9741 0.36704 0-0.63297 1.1814-0.77562 3.041-0.36719 1.9576 0.42996 3.6155 0.19109 4.6537-0.67055 1.1334-0.94063 4.9109-1.3384 12.709-1.3384 10.111 0 11.599 0.24697 16.758 2.7807 6.8279 3.3537 12.277 9.1125 13.97 14.765 0.97888 3.2672 0.99993 6.3646 0.0972 14.312-1.739 15.31-10.474 39.35-14.933 41.097-5.3822 2.1093-23.296 7.1472-23.296 6.5515 0-0.38427 1.7713-4.3233 3.9361-8.7534 6.6918-13.694 6.4541-18.253-0.95159-18.253-5.5402 0-6.0373-2.5807-0.65876-3.4198 7.3614-1.1484 15.674-3.8078 15.674-5.0144 0-0.64388 2.3471-2.0147 5.2158-3.0463s4.6592-2.0612 3.9788-2.288c-0.68041-0.2268-2.69 0.11351-4.4658 0.75625-1.9231 0.69605-14.147 1.4797-30.229 1.9379-24.065 0.6857-28.196 0.56598-38-1.1014-6.05-1.0289-12.575-2.3078-14.5-2.8419-4.5066-1.2505-6-1.2334-6 0.0687 0 2.5318 13.433 6.3006 30.67 8.6046 10.124 1.3533 12.25 1.9331 12.647 3.4488 0.87326 3.3394-1.76 4.198-5.964 1.9448-8.7685-4.6996-10.083-2.092-5.7794 11.468 4.9167 15.493 5.0573 14.586-2.5736 16.618-6.9808 1.8588-24.164 2.306-31.656 0.82395zm23.656-54.949c6.325-0.52034 20.5-1.1805 31.5-1.467 18.059-0.47041 41.368-3.0766 43.111-4.8203 0.3239-0.3239 0.25395-1.1309-0.15544-1.7933-1.1889-1.9236-36.625-0.70317-39.79 1.3704-1.8465 1.2099-2.6677 1.2984-3.5769 0.38568-0.67936-0.68204-5.5102-1.3969-11.385-1.6848l-10.205-0.5 9.3969-2.3355c8.5288-2.1198 9.995-2.2227 15.871-1.114 5.6058 1.0577 7.5332 0.97954 14.376-0.5832 6.7455-1.5406 8.8299-1.6337 14.245-0.63601 9.1003 1.6768 12.228 1.455 7.1122-0.50434-5.6633-2.1692-15.904-2.4699-23.246-0.68259-5.5566 1.3528-6.9676 1.3561-12.781 0.0301-5.5956-1.2764-6.9324-1.292-9.3038-0.10906-2.9409 1.4671-7.7284 2.6047-31.669 7.5249-8.25 1.6955-15.188 3.2688-15.417 3.4962-0.74184 0.73612 2.6954 0.43978 7.9364-0.68421 2.815-0.60372 5.341-0.87487 5.6133-0.60256 0.27231 0.2723-4.5962 1.7095-10.819 3.1937s-11.539 2.9394-11.814 3.2338c-0.5206 0.55728 11.317-0.0988 31-1.718zm25.443 28.572c-2.59-1.8939-1.9679-2.2523 4.849-2.7934 4.9006-0.38905 5.744-0.21581 5.4814 1.1259-0.20938 1.0702-1.1671 1.4853-2.9462 1.2767-1.4498-0.16998-2.9305 0.16752-3.2905 0.75-0.87413 1.4144-1.7766 1.3352-4.0938-0.35919zm13.557-2.5818c0-0.55 0.70156-1 1.559-1 0.85746 0 1.2809 0.45 0.94098 1s-1.0415 1-1.559 1c-0.51754 0-0.94098-0.45-0.94098-1zm-86.867-79.066c12.027-12.136 21.867-22.519 21.867-23.073 0-2.42-3.5568 0.72482-20.516 18.14-17.229 17.692-25.481 27-23.935 27 0.39426 0 10.557-9.9298 22.584-22.066zm80.933-7.9689c4.6388-2.4826 0.42421-8.0068-6.0382-7.9144-1.9401 0.0277-7.8025 0.86281-13.027 1.8557-10.375 1.9716-10.545 1.7601 4 4.9748 10.257 2.267 12.547 2.4317 15.066 1.0839zm-35.486-7.9648c-0.31871-1.65-0.84021-4.35-1.1589-6-0.49395-2.5573-0.2726-3 1.5-3 1.7156 0 2.0795-0.62144 2.0795-3.551 0-3.063 0.44662-3.7363 3.25-4.8993 6.5046-2.6985 16.942-4.7745 20.858-4.1484 2.1406 0.34229 3.892 0.41101 3.892 0.15269 0-1.4426-9.41-5.5709-14.96-6.5632-7.5242-1.3452-13.343-0.70091-17.723 1.9623-3.9828 2.4221-9.4322 10.307-9.5592 13.832-0.22316 6.1911 3.12 12.349 7.7418 14.261 3.8272 1.583 4.6962 1.1472 4.0795-2.046zm73.198-9.5567c2.3027-1.6129 2.9701-4.8632 1.2206-5.9445-0.55103-0.34055-1.437 0.52533-1.9689 1.9242-0.74256 1.9531-1.9077 2.6938-5.0203 3.1915-2.2293 0.35648-4.2949 1.039-4.5902 1.5168-0.9436 1.5268 8.0494 0.92944 10.359-0.68805zm-29.295-19.296c-0.7446-4.5939-1.6079-8.6066-1.9184-8.9172-0.80113-0.80113 0.0308 13.794 0.94544 16.586 1.6452 5.0218 2.2532 0.2298 0.973-7.6686zm-5.9-56.57c-0.8956-5.2542-1.3621-10.614-1.0367-11.91 0.58559-2.3332-0.4654-6.8221-5.1405-21.956-1.3255-4.2909-2.4101-8.1709-2.4101-8.6222 0-0.45132 1.8172-1.1112 4.0383-1.4663 2.3238-0.37158 4.2991-1.3255 4.6527-2.2469 1.4061-3.6642-3.4897-32.91-5.2176-31.167-0.16591 0.16731 0.56712 6.8292 1.629 14.804 2.3351 17.538 2.4376 17.343-8.859 16.806-4.6301-0.22029-7.1358 0.0238-6.923 0.67451 0.18348 0.56088 1.7614 1.1608 3.5066 1.3331 2.5474 0.25157 3.173 0.76413 3.173 2.5996 0 1.2575 2.3067 10.566 5.126 20.687 2.8193 10.12 5.8284 21.204 6.6868 24.63 0.85846 3.4264 1.7503 6.0404 1.9819 5.8088 0.23158-0.23157-0.31172-4.7199-1.2073-9.974zm-82.087-1.0639c17.122-3.5755 24.815-6.7076 25.327-10.311 0.86058-6.0565-6.1631-6.7003-14.555-1.3343-2.6246 1.6783-8.7096 5.3563-13.522 8.1733-8.5492 5.0042-10.531 6.5964-7 5.6245 0.9625-0.26493 5.35-1.2335 9.75-2.1523zm-73-14.501c1.1-0.47269 1.55-0.9014 1-0.9527-5.1778-0.48291-26.635-4.013-27.449-4.5157-0.57814-0.35731-1.0512-0.19425-1.0512 0.36236 0 1.3463 5.999 2.945 14 3.731 3.575 0.35118 7.175 1.0155 8 1.4764 1.8392 1.0273 2.9198 1.0074 5.5-0.10134zm73.232-5.6681c22.464-0.74118 23.001-0.96021 21.81-8.8987-0.87271-5.8196-6.3732-12.128-13.543-15.532-5.9212-2.8112-6.4897-4.3868-1.2493-3.4626 7.3628 1.2986 10.257 2.7618 14.102 7.131 2.1448 2.4366 4.1864 4.4302 4.537 4.4302 0.35054 0-0.0652-1.6814-0.9238-3.7364-3.877-9.2789-9.7255-11.557-28.144-10.963-19.89 0.64124-43.283 6.8269-54.441 14.396-2.4091 1.6341-6.2927 4.0289-8.6302 5.3218-2.3375 1.2928-4.25 2.7178-4.25 3.1665 0 0.44872 1.8179 0.81586 4.0398 0.81586s5.7364 0.86552 7.81 1.9234c7.7124 3.9346 26.896 7.4186 35.65 6.4745 2.2-0.23726 12.654-0.71693 23.232-1.0659zm-31.732-5.4002c-1.925-0.47493-4.1107-0.64949-4.8571-0.38793-0.7464 0.26157-2.9964 0.0515-5-0.46681-2.0036-0.51832-5.5554-1.44-7.8929-2.0483-2.3375-0.60822-4.25-1.4774-4.25-1.9315 0-0.87049 7.7049-4.0973 9.7834-4.0973 0.66911 0 1.2166 1.0929 1.2166 2.4286 0 2.7431 2.375 5.5714 4.6784 5.5714 1.0594 0 1.321-0.54264 0.84349-1.75-0.38063-0.9625-0.9283-3.1548-1.217-4.8719-0.46264-2.7512-0.13744-3.3152 2.7387-4.75 1.795-0.89548 3.5624-1.6281 3.9274-1.6281 0.36505 0 1.4285 2.4262 2.3633 5.3916 0.93476 2.9654 2.3882 5.9632 3.23 6.6617 1.2242 1.016 1.2708 1.4348 0.23306 2.0931-0.71353 0.45262-1.5223 0.78378-1.7973 0.73591-0.275-0.0479-2.075-0.47563-4-0.95056zm11.25 0.29324c-1.2375-0.20026-2.2432-0.44531-2.2349-0.54456 0.008-0.0992 0.66353-1.9804 1.4561-4.1804 0.79258-2.2 1.4608-5.6402 1.485-7.645 0.0424-3.5212 0.18142-3.6581 4.0958-4.0314 2.2286-0.21253 4.2536-0.1848 4.5 0.0616 1.2973 1.2973 0.13868 7.9669-2.0254 11.66-2.6562 4.5325-3.7683 5.2478-7.2765 4.68zm9.8152-2.0994c1.7434-2.3582 2.0631-3.9748 1.7799-9.0018l-0.34516-6.1275 4.1634 0.002c3.9244 0.002 4.5987 0.47045 11.75 8.1681 4.1726 4.4915 7.5866 8.5415 7.5866 9 0 0.45836-6.0885 0.83353-13.53 0.83353h-13.53l2.1251-2.8743zm-65.615 2.0386c-0.5225-0.45967-5.9-1.8439-11.95-3.0761s-14.121-3.5475-17.936-5.1452c-3.8146-1.5977-7.1463-2.6943-7.4037-2.4369-1.2654 1.2654 14.911 7.1241 26.339 9.5398 9.396 1.9861 12.27 2.2796 10.95 1.1183zm-82.698-13.414c0.66142-3.9875 1.4331-8.375 1.7148-9.75 0.28173-1.375-0.16578-0.475-0.99448 2-1.7915 5.3504-3.4294 15-2.5461 15 0.34274 0 1.1643-3.2625 1.8257-7.25zm260.25-6.1925c0-0.98216-1.3563-1.5406-4.25-1.75l-4.25-0.3075-0.78981-11.956c-0.4344-6.5761-0.9969-12.164-1.25-12.417-1.3555-1.3555-1.9934 2.2191-2.2914 12.84-0.319 11.373-0.24662 11.865 1.9725 13.419 2.9685 2.0792 10.859 2.2035 10.859 0.17105zm-61.172-10.975c-18.96-9.4795-32.797-14.235-54.226-18.634-8.3265-1.7095-16.537-4.0021-18.614-5.1975l-3.7165-2.139-7.8857 3.3815c-4.3371 1.8598-11.965 5.9154-16.951 9.0124-4.9857 3.097-11.185 6.2244-13.776 6.9499-10.328 2.8916-6.1418 4.0324 14.442 3.9359 8.6547-0.0406 20.654 0.61347 27.399 1.4934 6.6 0.86103 19.087 1.9999 27.749 2.5307 8.6619 0.53088 16.135 1.2037 16.606 1.4951 1.0778 0.66613 5.0114 1.1165 23.145 2.65 7.975 0.67442 15.4 1.5832 16.5 2.0195 1.1 0.43629 2.9 0.80328 4 0.81554 1.1 0.0123-5.5025-3.7288-14.672-8.3134zm-196.14 2.2304c-0.31922-0.79773-0.55618-0.56078-0.60416 0.60417-0.0434 1.0542 0.19292 1.6448 0.52522 1.3125 0.33229-0.33229 0.36781-1.1948 0.0789-1.9167zm-3.1442-8.5625c2.7038-4.8125 5.4435-10.1 6.0882-11.75 0.64469-1.65 2.5667-6.3075 4.2711-10.35s3.7746-9.9575 4.6004-13.144c3.2586-12.575 1.0934-13.227-6.3208-1.9026-2.9178 4.4566-5.5406 7.8674-5.8285 7.5795-0.28791-0.28791 2.1881-5.3968 5.5022-11.353 8.3447-14.997 12.409-25.434 12.956-33.265 0.35293-5.056 1.0649-7.2857 3.3209-10.4 5.3551-7.3924 2.7307-8.9332-5.2444-3.079-2.6862 1.9718-4.884 3.194-4.884 2.7158 0-0.47813 2.5066-3.329 5.5703-6.3352s6.2276-7.0408 7.031-8.9658c0.80338-1.925 3.5054-5.3946 6.0044-7.7102 3.3-3.0578 4.4549-4.837 4.219-6.5-0.29499-2.0799-0.9664-2.3356-7.3248-2.7898l-7-0.5 5.3137-3c14.642-8.2662 16.395-9.6264 15.881-12.317-0.35986-1.8824 0.57124-3.982 3.5604-8.0282 2.2262-3.0135 4.092-6.6397 4.1463-8.0582 0.0881-2.3036 0.63276-2.663 5.0987-3.3642 12.258-1.9247 15.515-2.8921 16.607-4.9321 1.4823-2.7698-0.50083-4.0527-5.1069-3.3036-29.171 4.7438-65.134 2.3761-83.502-5.4976-6.7943-2.9124-4.3968-0.47267 3.3267 3.3853 10.682 5.3359 21.372 8.3501 36.093 10.177 3.4044 0.42251 4.8905 0.96032 4 1.4476-3.3234 1.8184-17.255 5.0218-27.917 6.419-6.325 0.82885-16.999 2.232-23.72 3.1181-6.7212 0.88611-13.471 2.0079-15 2.4929-3.4203 1.085 66.942 0.51935 71.119-0.57173 5.4293-1.4181 1.8417 1.124-5.5976 3.9664-4.0156 1.5343-8.201 3.8329-9.301 5.1081-2.3115 2.6796-9.3708 4.1715-35.17 7.4327-16.323 2.0634-29.071 5.1305-37.33 8.9814-2.475 1.154-3.6 1.827-2.5 1.4955 12.438-3.7485 22.828-5.8308 37.5-7.5155 21.46-2.4642 35.67-4.5412 43.25-6.3222 3.1625-0.74301 5.75-1.2068 5.75-1.0307 0 0.17615-3.1809 2.378-7.0687 4.893-9.9152 6.4141-9.3986 7.9312 2.8301 8.3117 5.0812 0.15814 9.2386 0.66553 9.2386 1.1276 0 1.8618-3.309 3.3913-7.2878 3.3684-2.3167-0.0133-4.9238 0.34274-5.7936 0.79116-0.86983 0.44842-7.1658 1.5441-13.991 2.4348-16.59 2.165-24.54 3.9133-33.349 7.3339-13.664 5.3056-29.951 18.087-34.559 27.12-4.4439 8.7108-1.6534 9.1107 13.627 1.9526 18.709-8.7641 35.704-15.629 50.435-20.372 7.8194-2.5179 14.422-4.3733 14.672-4.1233 0.25006 0.25007-3.6422 4.6895-8.6494 9.8654-13.107 13.549-12.241 15.646 2.3503 5.6897 4.8561-3.3137 8.9995-5.8546 9.2076-5.6465 0.20812 0.20811-3.2183 4.928-7.6142 10.489-8.3156 10.519-20.358 23.226-27.978 29.522-6.23 5.148-2.5969 4.624 4.57-0.65916 5.5289-4.0756 16.254-15.297 24.81-25.956 2.1081-2.6265 4.0454-4.5629 4.3051-4.3031 1.328 1.328-4.9457 17.045-13.024 32.629-6.3746 12.297-8.8854 18.104-8.3882 19.4 0.66571 1.7348 0.87013 1.7007 3.2984-0.55036 1.4238-1.3199 4.8255-5.6989 7.5592-9.7311 2.7338-4.0322 5.1838-7.118 5.4446-6.8572 1.1452 1.1452-6.6496 21.422-13.335 34.689-8.0504 15.975-7.6279 15-6.4982 15 0.44627 0 3.0236-3.9375 5.7275-8.75zm-58.66-70.08c7.5201-10.561 24.642-22.496 38.879-27.101 11.531-3.7297 45.345-9.1492 42.159-6.757-5.525 4.1476-18.187 10.508-27.973 14.051-13.961 5.0549-31.075 12.276-43.89 18.52-10.212 4.9757-11.978 5.2231-9.1743 1.286zm76.621-28.17c3.2488-2.1516 4.5-2.4743 4.5-1.1605 0 0.94043-4.4397 3.1641-6.297 3.1539-0.66162-0.004 0.14705-0.90066 1.797-1.9934zm297.42 74.5c-1.2952-3.7369-4.0525-16.043-4.3756-19.529-0.17694-1.9091-1.9128-8.421-3.8574-14.471-6.4452-20.052-11.791-38.75-17.272-60.417-2.9801-11.779-5.7065-21.679-6.0587-22-0.35221-0.32067-0.38626 0.54196-0.0757 1.917 2.9748 13.169 6.9312 42.829 8.7374 65.5 1.347 16.908 2.9034 22.184 12.05 40.848 3.7206 7.5924 6.0084 11.111 7.6229 11.725 1.2688 0.48239 2.3601 1.6757 2.4252 2.6518 0.0651 0.97611 0.42871 0.42475 0.80808-1.2252s0.37783-3.9-0.003-5zm-14.299-23.039c-0.96498-2.5147-0.68031-3.1636 0.49853-1.1363 0.58369 1.0038 0.8506 2.0357 0.59313 2.2931-0.25747 0.25747-0.74872-0.26309-1.0917-1.1568zm-204.39-6.11c14.445-4.2033 27.388-7.7284 28.763-7.8335 1.375-0.10512 3.85-0.88685 5.5-1.7372 2.6534-1.3674 8.1592-3.0367 11-3.335 0.55-0.0578 2.9286-0.97056 5.2857-2.0284 3.1424-1.4103 4.4855-2.694 5.0347-4.8121 0.58957-2.2736 2.445-3.8453 8.7143-7.3815 9.2043-5.1916 8.99-5.0385 8.1802-5.8483-0.34015-0.34015-4.6402 1.0098-9.5558 3-4.9155 1.9902-9.5497 3.6185-10.298 3.6186-3.5736 0.00035-17.463 5.174-23.984 8.934-8.0585 4.6461-24.92 11.733-34.695 14.582-3.4753 1.013-6.8637 2.6198-7.5297 3.5707-0.66603 0.95089-3.6726 2.452-6.6812 3.3359-5.6868 1.6706-9.471 3.5339-7.2337 3.5616 0.68014 0.008 13.055-3.4238 27.5-7.6271zm32.205-14.907c2.1498-1.6062 3.9793-1.9395 3.1335-0.57097-0.29889 0.48361-1.563 1.1362-2.809 1.4503-2.1858 0.55085-2.1972 0.51987-0.32445-0.8793zm-20.71-212.05c-0.33229-0.33229-1.1948-0.36782-1.9167-0.07895-0.79773 0.31923-0.56078 0.55618 0.60417 0.60417 1.0542 0.04342 1.6448-0.19293 1.3125-0.52522zm-228.23 558.39c1.1-0.70739 4.9592-4.2156 8.576-7.796 5.5093-5.4539 7.5615-8.5358 12.652-19 9.7977-20.141 14.851-38.833 18.749-69.348 2.7461-21.497 7.9193-37.92 14.656-46.527 2.4695-3.1551 2.3542-4.5162-0.51249-6.0504-2.001-1.0709-2.9664-0.99456-6.0749 0.4805-2.0327 0.96456-4.3593 2.7664-5.1702 4.004-0.81094 1.2376-3.2342 3.4148-5.385 4.8382-4.7033 3.1125-15.88 15.995-19.986 23.035-3.3861 5.8066-3.5648 5.3335-1.5514-4.1074 3.3179-15.558 11.954-36.195 19.313-46.15 1.8133-2.4531 2.17-3.6294 1.3495-4.45-1.5185-1.5185-1.4024-2.7154 0.26327-2.7154 0.75827 0 1.9129 1.2896 2.5658 2.8659 0.65289 1.5762 2.632 5.0051 4.398 7.6198l3.211 4.754-6.7767 6.7767c-3.7272 3.7272-6.7767 7.3543-6.7767 8.0602s1.5976-0.58302 3.5503-2.8643c5.1211-5.9828 9.1735-8.6864 10.888-7.2637 1.0055 0.83448 1.4664 0.83823 1.7411 0.0142 0.20547-0.61641 2.0813 0.4898 4.1684 2.4583 2.0872 1.9685 4.1598 3.579 4.6059 3.579 0.44608 0-2.2721-5.7299-6.0405-12.733-10.853-20.17-19.878-45.906-24.404-69.591-2.7776-14.536-1.7485-37.676 1.6757-37.676 0.56619 0 0.78365-0.64052 0.48324-1.4234-0.35988-0.93783 0.50733-1.7906 2.5422-2.5 3.9011-1.3599 17.87-1.3548 23.79 0.009 8.1297 1.8724 17.181 7.0604 23.5 13.47 7.1704 7.2732 7.49 7.6921 10.257 13.444 2.0529 4.2676 2.1857 6.1783 2.5707 37 0.22332 17.875 0.9916 41.162 1.7073 51.749 0.71568 10.587 1.0359 19.514 0.71151 19.838-0.81241 0.81241-13.965 0.74381-17.774-0.0927-1.7089-0.37533-3.4144-1.4811-3.79-2.4573-0.64811-1.6847-17.183-19.684-17.183-18.705 0 2.0251 7.0836 13.316 11.457 18.262 5.2294 5.9139 5.3318 6.1426 3.4659 7.7402-1.0938 0.93657-1.9226 2.9234-1.9226 4.6091 0 2.392-0.66133 3.2767-3.4323 4.5916-4.8812 2.3163-12.864 11.127-16.357 18.054-4.5828 9.0877-6.8395 17.596-10.763 40.58-1.9848 11.628-4.5242 24.109-5.643 27.736-6.0904 19.744-19.421 35.517-31.037 36.723-3.7675 0.39143-4.0334 0.29262-2.2679-0.84275zm77.703-172.32c1.5426-3.3856 0.19181-4.6215-8.6728-7.9352-14.833-5.5445-22.913-13.206-30.554-28.971-2.6807-5.531-5.5344-13.206-6.3417-17.056l-1.4677-7-0.0815 5.8237c-0.13684 9.7751 7.3791 28.714 15.124 38.11 4.0401 4.9014 12.913 10.652 21.841 14.155 3.8244 1.5004 6.9534 3.332 6.9534 4.0701 0 2.239 1.9694 1.5034 3.1988-1.1949zm11.998-10.463c-0.24796-5.3117-1.1157-8.1453-4.7469-15.5-4.7862-9.6943-4.9543-12.284-0.96709-14.897 4.7216-3.0937 3.6652-15.504-2.3924-28.103-5.0737-10.553-9.6912-15.686-17.623-19.591-12.533-6.1702-26.097-4.6499-33.474 3.752-4.199 4.7824-4.0215 7.3852 0.25728 3.7732 7.1898-6.0693 14.815-7.7015 24.557-5.2566 6.6599 1.6712 15.11 10.259 17.537 17.822 2.7475 8.5638 5.0473 26.846 3.7385 29.719-1.5655 3.4358-1.3287 9.9042 0.49143 13.424 0.86555 1.6738 1.3916 3.2254 1.169 3.448-0.63604 0.63604-16.873-8.3693-19.574-10.856-3.3234-3.06-5.1692-7.7921-5.1692-13.252 0-5.6017 1.9512-9.6696 7.2964-15.211 4.4649-4.6293 4.4842-6.2533 0.0466-3.93-4.332 2.268-9.0009 7.6166-11.41 13.071-2.7095 6.1342-2.0835 13.948 1.6244 20.275 3.0689 5.2366 6.3687 7.736 18.209 13.792 8.458 4.3261 16.234 10.922 16.234 13.77 0 0.48925 1.0125 0.74575 2.25 0.57 2.1068-0.29922 2.2307-0.73315 1.9466-6.8196zm-75.2 181.62c0-0.2086 2.833-3.2686 6.2956-6.8 11.178-11.4 16.578-25.523 20.768-54.309 1.1216-7.7062 2.9634-17.836 4.0927-22.511 3.9221-16.236 13.214-31.84 20.841-34.999 3.8406-1.5908 4.9112-0.66164 2.4128 2.0942-1.7083 1.8843-1.9635 4.2407-2.4105 22.256l-0.5 20.149-6.1618 12.5c-5.5916 11.343-13.908 24.786-21.034 34l-2.707 3.5 4.3289-4c5.6727-5.2417 14.998-19.387 21.427-32.5l5.1474-10.5 0.2688 23.4c0.31057 27.037 1.1262 24.626-10.672 31.543-10.714 6.2812-19.251 9.9895-31.103 13.51-10.856 3.225-10.994 3.2585-10.994 2.6669zm388.5-243.39c-0.55-0.40408-1.858-2.2734-2.9066-4.154l-1.9066-3.4193 2.9066-2.3257c3.4867-2.79 4.3009-2.8852 5.0057-0.58566 0.29502 0.9625 1.4059 3.6745 2.4686 6.0268 1.0627 2.3522 1.9322 4.4897 1.9322 4.75 0 0.76226-6.4044 0.51286-7.5-0.29206zm8.8403-0.29435c-0.74621-0.74621-0.3233-2.8908 1.4297-7.25 2.6752-6.6525 3.5661-7.6513 6.8457-7.675 1.9024-0.0138 2.0461 0.36271 1.4251 3.7347-0.75344 4.091-2.4447 7.772-4.8243 10.5-1.7414 1.9964-3.3433 2.2232-4.8762 0.69034zm9.4545-2.3595c2.9396-3.3481 5.041-10.419 3.7278-12.544-0.96713-1.5649 4.9801-1.2713 9.0975 0.44907 1.9558 0.81718 3.3843 1.8297 3.1745 2.25-0.2098 0.42033-1.3302 2.8359-2.4898 5.368-2.0262 4.4242-2.3639 4.668-8.6621 6.25-8.5012 2.1354-8.3333 2.1968-4.8479-1.7729zm22.205-9.5809c0-0.55 0.47656-1 1.059-1 0.58246 0 0.7809 0.45 0.44098 1s-0.81648 1-1.059 1c-0.24254 0-0.44098-0.45-0.44098-1zm4.5581-125.26c-0.36812-1.2313-1.0575-10.581-1.5319-20.778-0.68223-14.662-1.3118-19.872-3.0105-24.915l-2.1478-6.3758 2.9359-2.9359 2.9359-2.9359 0.60958 3.3506c1.6925 9.3028 2.6352 23.052 2.6426 38.542 0.008 15.979-0.82095 21.442-2.4337 16.048zm-80.558-43.798c0-0.58246 0.45-0.7809 1-0.44098s1 0.81648 1 1.059c0 0.24254-0.45 0.44098-1 0.44098s-1-0.47656-1-1.059zm-7.5006-6.1592c-1.0996-0.59223-2.1138-1.1624-2.2537-1.267-0.13988-0.1046 0.40182-1.5055 1.2038-3.113 2.1899-4.3898 3.8617-17.046 3.2394-24.524-1.2324-14.81-11.582-33.033-28.075-49.436-5.5625-5.5317-12.139-11.739-14.614-13.794-6.404-5.3166-1.0144-2.531 7.782 4.022 15.685 11.685 27.259 24.499 33.716 37.329 6.0442 12.01 7.6821 18.997 8.4394 36 0.37966 8.525 0.55192 15.685 0.38279 15.911-0.16914 0.22579-1.2103-0.40645-2.3136-1.405-1.8358-1.6614-2.1548-1.681-3.7568-0.23123-1.3508 1.2224-2.2073 1.3383-3.75 0.50751zm52.96-2.7818c0.45956-0.825 1.8942-2.9325 3.188-4.6833 2.6082-3.5294 2.9209-4.9606 1.2083-5.5314-0.83443-0.27815-0.76855-1.4513 0.24332-4.3333 0.90885-2.5886 1.3898-8.4535 1.3942-17.001l0.007-13.049-3.8847-7.8634c-3.1694-6.4155-6.0978-10.138-15.904-20.214-6.6105-6.793-11.802-12.568-11.537-12.833 0.26539-0.26539 3.8221 1.8122 7.9038 4.6168 22.997 15.802 42.46 37.083 46.051 50.353 2.2161 8.1893-1.0821 20.934-6.6034 25.516-1.3389 1.1112-1.799 1.0313-2.9241-0.50735-1.2819-1.7531-1.4465-1.7385-4.1214 0.36562-3.2122 2.5267-4.1301 2.2452-2.5156-0.7714 2.4318-4.5439-0.41709-3.8391-6.7254 1.6638-3.6387 3.1742-6.2399 5.0962-5.7803 4.2712zm-137.21-9.7234c-1.7875-0.22182-3.25-0.81623-3.25-1.3209 0-1.7997 4.7996-2.1107 7.8923-0.51139 4.9348 2.5519 4.0309 2.9086-4.6423 1.8323zm-298.25 442.33c0-0.21174-1.2375-1.1384-2.75-2.0594l-2.75-1.6744 2.3608 2.0594c2.3037 2.0096 3.1392 2.4552 3.1392 1.6744zm-6-3.9926c0-0.20765-0.7875-0.99515-1.75-1.75-1.5861-1.2439-1.6214-1.2085-0.37756 0.37756 1.3064 1.6658 2.1276 2.1955 2.1276 1.3724z"/>
</svg>
