<?xml version="1.0" encoding="UTF-8" standalone="no"?>
<!-- Created with Inkscape (http://www.inkscape.org/) -->
<svg id="svg3376" xmlns:rdf="http://www.w3.org/1999/02/22-rdf-syntax-ns#" xmlns="http://www.w3.org/2000/svg" height="1062.5" viewBox="0 0 1062.5 1062.5" width="1062.5" version="1.1" xmlns:cc="http://creativecommons.org/ns#" xmlns:dc="http://purl.org/dc/elements/1.1/">
 <metadata id="metadata3382">
  <rdf:RDF>
   <cc:Work rdf:about="">
    <dc:format>image/svg+xml</dc:format>
    <dc:type rdf:resource="http://purl.org/dc/dcmitype/StillImage"/>
    <dc:title/>
   </cc:Work>
  </rdf:RDF>
 </metadata>
 <path id="path3386" fill="#fff" d="m218.75 1049.4c-1.8752-4.9319-1.4658-26.397 0.67934-35.619 4.66-20.032 12.7-39.933 21.211-52.5 6.1946-9.1467 22.072-25.323 30.612-31.189 12.661-8.6961 27.837-15.576 60-27.2 21.664-7.8297 45.896-20.329 54.299-28.009 8.6441-7.9002 16.053-19.624 20.19-31.947 2.97-8.87 5.44-22.93 4.02-22.93-0.32415 0-2.347 2.7126-4.4953 6.0279-4.9432 7.6286-14.581 16.685-21.528 20.229-8.0779 4.121-13.294 5.779-41.237 13.107-38.05 9.9783-58.638 18.56-81.974 34.169-21.682 14.503-48.359 41.68-59.973 61.096-8.296 13.87-14.303 25.236-14.303 27.064 0 0.67941-0.86492 2.191-1.922 3.3591-1.5813 1.7474-1.6556 2.7087-0.41873 5.4233 1.3195 2.8961 1.1458 3.68-1.4208 6.4121-4.2195 4.4914-11.758 4.2945-18.238-0.4764-15.563-11.458-25.938-32.849-27.577-56.862-0.59975-8.7846-1.5587-13.012-4.1512-18.299-6.771-13.808-8.1524-21.283-8.0853-43.75 0.0534-17.866 0.50781-22.505 3.397-34.676 9.9591-41.955 28.698-57.291 102.79-84.12 24.92-9.01 39.37-15.34 39.37-17.22 0-4.83-12.07-7.72-32.26-7.72-18.254 0-36.806 3.9774-59.924 12.848-9.3348 3.5816-10.312 4.2715-10.312 7.2765 0 1.8258-0.84375 4.02-1.875 4.8758-1.0312 0.85586-1.875 2.6205-1.875 3.9214 0 1.3271-1.7831 3.4525-4.0625 4.8423-13.656 8.3262-22.203-5.6432-13.816-22.581 4.2382-8.5589 21.946-25.874 31.935-31.225 9.2752-4.9694 10.668-7.4612 7.2578-12.98-3.5803-5.7931-6.0094-28.049-4.1432-37.961 2.8923-15.362 11.701-31.928 24.488-46.055 6.2704-6.9273 25.924-21.057 31.094-22.355l3.1786-0.79777-2.3626-4.89c-4.4564-9.2237-6.349-19.227-4.7654-25.186 1.8284-6.8803 9.3436-16.868 17.323-23.024 6.1878-4.7731 7.6423-6.7093 5.0402-6.7093-4.0909 0-16.056-13.62-20.864-23.75-8.7047-18.339-12.49-43.11-8.978-58.75 2.0795-9.2603 11.747-27.147 23.646-43.75 20.598-28.741 25.03-35.735 25.039-39.514 0.005-1.9859 1.08-8.1107 2.3892-13.611 1.3093-5.5 4.4633-20.125 7.0091-32.5 2.5457-12.375 7.1553-30.094 10.244-39.375 6.0063-18.051 21.894-53.043 30.455-67.075 24.689-40.467 69.09-69.808 124.06-81.986 11.741-2.6008 15.598-2.8043 50.83-2.6822 22.758 0.0789 41.4 0.71571 46.25 1.58 4.4688 0.79632 13.468 2.0535 19.998 2.7936 6.5304 0.7402 14.124 2.1632 16.875 3.1622 3.3515 1.2171 11.6 1.9551 25.002 2.2369 21.848 0.45943 35.977 2.4127 58.362 8.0686 32.428 8.1929 62.039 26.005 89.608 53.902 5.0956 5.1562 11.361 10.781 13.923 12.5 8.039 5.3924 18.732 15.342 18.732 17.43 0 1.101 2.0896 3.114 4.6436 4.4735 6.9309 3.6893 22.244 14.875 31.528 23.029 4.512 3.9632 13.044 10.363 18.96 14.221 12.321 8.0359 24.668 20.567 29.33 29.767 5.1921 10.246 8.0386 23.664 8.0386 37.892 0 14.936-1.9492 23.351-8.7895 37.948-2.7283 5.822-4.9605 11.824-4.9605 13.337 0 7.1042-5.6876 23.974-13.193 39.132-8.9578 18.091-14.745 26.375-32.716 46.831-8.8315 10.053-11.305 13.594-9.8226 14.062 1.0897 0.3446 2.8151 0.88635 3.8342 1.2039 1.0191 0.31753 4.1836-0.24497 7.0322-1.25 6.4206-2.2653 6.7855-2.2665 4.9179-0.0163-0.82667 0.99608-3.4268 2.446-5.778 3.2219-4.1346 1.3646-5.0511 1.2455-15.259-1.9815-0.96743-0.30584 3.194-5.8749 10.437-13.968 6.6253-7.4024 15.335-17.813 19.354-23.134 10.361-13.717 23.115-39.963 26.277-54.075 2.9554-13.19 4.3343-17.397 10.652-32.5 4.2741-10.218 4.7574-12.544 5.269-25.354 1.2355-30.943-9.7453-51.916-36.005-68.77-5.8438-3.7505-14.317-10.072-18.829-14.047-25.004-22.03-52.964-36.66-79.747-41.727-12.316-2.3302-40.546-2.5008-48.924-0.29572-5.228 1.3759-6.2941 1.2014-15.105-2.4712-5.2138-2.1734-12.667-4.9563-16.562-6.1842-3.9-1.22-7.09-2.62-7.09-3.1 0-1.4954 15.68-4.8912 29.06-6.2933 29.326-3.0732 60.411 4.4032 86.867 20.893 5.071 3.1606 9.496 5.4704 9.8335 5.133 1.3331-1.3331-17.079-13.864-28.886-19.66-18.339-9.0017-27.929-11.389-48.75-12.137-20.122-0.72243-33.978 1.152-46.986 6.3558-4.5158 1.8066-8.7721 3.2847-9.4585 3.2847-1.8668 0-0.4455 7.2269 1.5736 8.0017 1.0057 0.38591 1.7455-0.10828 1.7455-1.166 0-1.0097 0.62849-1.8358 1.3966-1.8358 1.6589 0 21.103 12.666 21.103 13.747 0 0.41048-3.6049 0.51678-8.0109 0.23623-17.733-1.1291-43.024 12.464-68.095 36.599-19.105 18.391-34.341 37.079-66.524 81.597-27.533 38.085-41.719 56.359-55.746 71.809-19.897 21.915-49.312 47.08-65.373 55.929-9.7177 5.3539-3.7897 5.0621 6.5396-0.3219 29.61-15.434 67.865-54.754 110.27-113.35 41.05-56.713 56.301-75.617 77.689-96.295 15.044-14.545 27.33-23.295 40.913-29.14 17.986-7.7393 33.907-4.3547 42.762 9.0901l4.1785 6.3447h-6.1914c-13.517 0-41.281 8.2118-57.026 16.867-25.685 14.118-47.156 35.786-100.8 101.72-56.556 69.518-80.683 93.631-111.16 111.1-10.284 5.8942-26.861 12.091-35.304 13.197-2.9245 0.38306-2.5941 0.53241 1.501 0.67847 17.042 0.60783 42.659-11.879 66.993-32.654 19.051-16.265 41.861-41.556 85.937-95.284 47.399-57.779 65.645-76.738 88.425-91.882 20.8-13.84 41.89-21.26 60.41-21.26 7.7604 0 9.973 0.41999 10.895 2.0681 0.74066 1.3235 1.9452 1.7658 3.3456 1.2284 2.9222-1.1214 5.6213 1.3012 5.6213 5.0453 0 3.3666 3.6378 5.3785 14.478 8.0074 8.4071 2.0388 8.9203 2.8916 3.6865 6.1263l-4.5184 2.7925-2.8107-3.271c-10.652-12.397-52.475-4.5224-77.819 14.652-16.312 12.341-27.098 25.68-56.784 70.226-24.705 37.071-54.583 74.38-74.235 92.696-30.659 28.577-52.378 39.741-83.247 42.795l-10.625 1.0511 9.1152 0.16609c26.833 0.48895 51.009-10.834 82.067-38.439 27.692-24.613 53.026-53.549 89.865-102.65 37.213-49.595 49.447-61.558 72.008-70.413 11.536-4.5274 30.222-5.894 40.944-2.9942 3.5745 0.9668 7.1599 1.3494 7.9676 0.85027 0.80764-0.49916 3.4459 0.43439 5.8628 2.0746s5.4688 2.9821 6.782 2.9821c3.5568 0 9.9955 3.677 9.4309 5.3858-0.30137 0.9122-4.57 1.7747-11.017 2.2261-14.996 1.05-27.27 7.3629-44.9 23.093-21.692 19.354-32.37 33.524-84.715 112.42-58.895 88.77-70.512 104.75-90.675 124.72-39.011 38.644-80.38 56.056-116.5 49.035-12.799-2.4876-15.166-3.7684-9.1675-4.9602 19.37-3.84 64.12-22.87 81.07-34.46 6.67-4.56 15.12-12.46 13.33-12.46-0.48764 0-5.3342 2.2362-10.77 4.9693-21.779 10.95-55.296 23.309-78.186 28.83-19.69 4.75-35.32 6.2-66.82 6.2-23.816 0-55.233 1.6749-60.251 3.212-1.5811 0.48433-3.1473-1.5897-6.5625-8.6902-6.9916-14.536-6.1597-17.852 7.7754-30.998 15.487-14.61 30.315-23.103 55.239-31.643 29.492-10.104 51.121-14.582 108.75-22.516 23.086-3.1784 28.15-4.1316 27.168-5.1136-0.82502-0.82503-67.471 6.8005-84.043 9.6162-29.375 4.9909-52.76 10.579-73.209 17.493-7.9524 2.6891-15.685 4.8892-17.184 4.8892-7.2631 0-17.994-15.566-22.795-33.063-7.5432-27.495 0.0295-52.129 26.149-85.062 8.039-10.136 43.183-47.172 80.604-84.942 26.94-27.192 42.483-44.613 50.652-56.776 9.5251-14.181 8.4225-13.732-4.9898 2.0303-11.8 13.868-16.774 18.906-47.695 48.306-12.216 11.615-22.524 20.805-22.908 20.421-1.0918-1.0918 7.8511-25.34 13.951-37.828 18.729-38.342 59.288-84.446 96.203-109.36 29.155-19.674 61.301-30.68 93.723-32.09 35.971-1.5638 63.228 5.0224 76.335 18.445 4.7289 4.8428 4.7141 4.978-0.70999 6.4863-1.0312 0.28676 2.136 1.1191 7.0384 1.8496 8.5676 1.2767 16.334 4.1737 22.962 8.5649 2.3818 1.5782 2.192 1.1759-0.7985-1.6918-3.4806-3.3377-15.486-8.9314-19.561-9.1139-0.83358-0.0374-3.2031-2.7092-5.2656-5.9375-9.7879-15.32-35.053-23.076-74.604-22.901-28.741 0.12685-53.196 6.4412-80.916 20.892-18.08 9.4258-27.199 15.711-44.657 30.784-28.399 24.517-55.652 58.958-71.54 90.406-6.2254 12.322-15.158 37.052-15.158 41.964 0 1.5266-8.8586 11.814-22.812 26.492-12.547 13.198-25.801 27.371-29.453 31.495l-6.6407 7.4991 6.1732-12.5c9.8462-19.937 18.627-48.425 23.288-75.553 2.2534-13.115 9.9709-40.797 15.724-56.399 5.3116-14.406 17.595-37.858 24.89-47.52 28.578-37.851 77.538-64.806 131.96-72.649 6.9382-0.99996 23.802-1.6228 43.999-1.6252 18.012-0.002 32.353-0.4005 31.868-0.88533-2.9906-2.9926-72.71-4.8059-88.19-2.2937-23.962 3.8888-42.164 9.4418-62.053 18.931-22.338 10.658-39.657 23.074-54.795 39.283-12.382 13.259-20.757 26.361-32.526 50.884-12.95 26.986-21.248 51.861-27.692 83.011-2.8232 13.649-5.9826 28.139-7.0208 32.202-1.0383 4.0623-1.5775 8.6221-1.1984 10.133 0.7349 2.9281-3.9573 10.379-25.573 40.606-11.889 16.625-21.547 34.514-23.621 43.75-2.7446 12.222-0.6128 31.964 5.0464 46.735 7.2602 18.95 18.934 33.265 27.125 33.265 3.23 0 6.8638-3.5099 5.9904-5.7862-0.85571-2.2299 1.7359-2.1283 4.7976 0.18801 2.8247 2.137 2.9393 1.9866-4.2838 5.6216-13.638 6.8632-27.114 20.026-30.59 29.878-2.1667 6.141-1.2978 11.752 3.7394 24.149 1.7054 4.1971 3.1008 8.034 3.1008 8.5264 0 0.49245-1.8281 1.2585-4.0625 1.7024-6.8229 1.3553-25.776 15.589-34.368 25.81-9.3634 11.139-18.002 27.547-20.324 38.602-1.3712 6.5286-1.4148 10.58-0.22865 21.25 1.2588 11.323 1.9962 13.939 5.2262 18.535 3.0587 4.3524 3.4103 5.4856 1.8841 6.0712-1.0321 0.39604-1.8765 1.4253-1.8765 2.2872 0 0.86191-3.4355 3.3982-7.6345 5.6363-17.7 9.46-36.12 30.95-36.12 42.16 0 5.6778 3.1492 10.398 6.9371 10.398 6.7967 0 12.336-7.6221 6.8129-9.375-3.0111-0.95569-3.1566-2.2898-0.53571-4.9107 2.4656-2.4656 3.1603-2.4934 2.2378-0.0892-0.39574 1.0312-0.37143 2.7821 0.054 3.8908 0.63189 1.6467 1.1193 1.7288 2.662 0.44853 1.0386-0.86199 1.6073-2.4722 1.2638-3.5783-0.34359-1.1061-0.21566-2.6386 0.28428-3.4056 2.2266-3.4161 21.528-10.79 40.909-15.629 21.284-5.3138 60.803-4.2145 65.022 1.8086 1.0193 1.4553 1.8533 3.6344 1.8533 4.8425 0 3.2067-10.489 8.732-29.327 15.449-44.157 15.744-71.338 28.171-84.558 38.659-14.867 11.794-23.113 26.408-28.641 50.758-6.2225 27.409-4.7995 51.822 4.2032 72.108 3.3905 7.6398 4.4261 11.863 4.9723 20.275 0.83581 12.874 5.3773 27.904 11.52 38.125 10.129 16.854 22.682 24.768 29.499 18.598 1.9755-1.7878 2.039-2.4145 0.5389-5.3154-0.93536-1.8088-2.958-4.4124-4.4948-5.7857l-2.7941-2.4971 0.96266 3.125c0.52946 1.7188 1.2269 3.8281 1.5499 4.6875 1.3932 3.7073-2.4848 0.99664-8.9415-6.25-14.863-16.682-19.807-32.611-19.883-64.062-0.0404-16.725 0.39625-21.638 2.6657-30 8.0304-29.59 27.079-52.14 56.479-66.861 16.112-8.0676 24.663-10.994 62.172-21.278 17.711-4.8558 36.703-10.285 42.203-12.064 11.557-3.7388 28.098-11.939 31.365-15.549 1.4096-1.5576-1.7309-0.36591-8.4363 3.2011-16.376 8.7117-23.444 10.842-66.609 20.077-37.438 8.0101-66.902 19.454-84.445 32.799-11.414 8.6821-23.945 22.382-29.406 32.148-7.841 14.021-14.344 36.454-14.344 49.483 0 6.0375-1.7036 8.3212-2.9695 3.9808-2.7543-9.4438-3.5678-19.735-2.9208-36.948 0.80787-21.493 3.095-31.626 10.423-46.177 13.375-26.56 28.729-36.078 91.297-56.598 17.3-5.6738 34.266-11.846 37.701-13.716 9.5064-5.1741 14.129-10.571 14.898-17.392 0.35535-3.1526 0.78103-5.732 0.94596-5.732 2.2444 0 28.002 8.6158 37.5 12.544 6.875 2.8431 20.938 8.3167 31.25 12.164l18.75 6.9943 15.625 0.25672 15.625 0.25673 0.79739 8.5799c0.43856 4.7189 0.28938 11.392-0.33149 14.83-1.661 9.1958-8.6088 22.806-15.582 30.523-10.95 12.119-19.773 16.255-53.542 25.099-20.42 5.3476-34.237 10.257-47.921 17.027-20.952 10.365-47.949 31.222-64.249 49.635-15.178 17.146-14.816 17.092 3.3296-0.49444 24.176-23.432 44.425-36.447 74.374-47.804 11.926-4.5229 19.516-6.7614 51.875-15.299 9.8689-2.6039 21.209-6.5415 26.005-9.0298 10.326-5.3573 19.977-15.539 26.003-27.434l4.2422-8.3733 0.36446 10.35c0.70854 20.121-7.6944 40.706-22.813 55.888-7.2448 7.275-11.453 10.181-23.801 16.433-8.25 4.1773-25.969 11.67-39.375 16.65-39.023 14.496-52.555 21.954-68.531 37.767-15.691 15.53-25.07 32.266-33.1 59.063-2.9303 9.7783-3.8686 15.664-4.3092 27.032-0.35989 9.2843-0.0648 15.464 0.81714 17.112 0.91179 1.7037 0.95414 2.8429 0.12475 3.3555-0.69065 0.4268-1.8172-0.7007-2.5034-2.5056zm-7.3382-114.06c1.5548-1.9826 1.5106-2.0268-0.47195-0.47195-1.2031 0.94356-2.1875 1.9279-2.1875 2.1875 0 1.0288 1.0265 0.36664 2.6594-1.7156zm108.59-429.83c0-0.79884 0.83337-2.1441 1.8519-2.9894 3.5637-2.9576 30.464-39.519 39.101-53.144 13.814-21.791 35.533-62.885 52.383-99.114 24.952-53.646 32.013-66.87 46.458-87.007 20.209-28.173 44.6-50.041 69.987-62.747 12.192-6.1023 8.0781-5.1842-5.2619 1.1742-19.864 9.468-40.172 26.751-58.915 50.141-16.399 20.464-28.832 42.116-46.327 80.678-11.956 26.354-35.809 74.202-44.352 88.968-2.9135 5.0361-7.5589 13.094-10.323 17.907-11.551 20.111-38.461 57.022-47.705 65.434-5.3805 4.8962-5.7491 7.3809-0.6479 4.3675 2.0625-1.2184 3.75-2.8688 3.75-3.6676zm20.352 0.67031c8.0329-2.6571 35.494-15.797 36.152-17.298 0.20434-0.46664 2.9489-2.3428 6.0991-4.1692 10.644-6.1715 26.713-19.027 38.022-30.418 17.257-17.383 26.098-30.585 54.353-81.168 34.809-62.317 45.186-79.432 59.869-98.75 12.807-16.85 35.86-36.77 59.947-51.801 4.8926-3.0532 8.6697-5.7772 8.3936-6.0534-1.0145-1.0145-21.85 11.195-32.052 18.783-20.242 15.054-35.366 31.27-51.499 55.216-4.2076 6.2452-19.522 32.167-34.033 57.605-14.51 25.438-30.004 52.069-34.43 59.181-16.724 26.873-38.49 50.572-61.108 66.536-22.224 15.686-51.131 30.324-63.131 31.969-3.1261 0.42848-5.6838 1.2651-5.6838 1.8591 0 1.9865 11.241 1.1091 19.102-1.491zm116.81-13.184c-0.41536-0.41536-1.4935-0.45977-2.3958-0.0986-0.99716 0.39903-0.70097 0.69523 0.75522 0.7552 1.3177 0.0542 2.056-0.24116 1.6406-0.65652zm292.84-291.95c-11.7-10.78-28.95-24.3-38.56-30.22-27.81-17.15-65.53-27.06-105.82-27.8-14.204-0.2629-21.537-0.93381-25.302-2.3149-2.9162-1.0696-9.3205-2.3182-14.232-2.7747-11.354-1.0552-11.318 1.1422 0.094 5.7841 4.3386 1.7648 10.075 5.3051 12.748 7.8675l4.8593 4.6589h16.939c48.386 0 109.89 18.785 143.93 43.96 5.3436 3.9522 10.278 7.1836 10.966 7.181 0.6875-0.002-1.8438-2.8559-5.625-6.3405zm-204.44-7.4414c1.9093-1.7839-0.82974-1.2365-4.3125 0.86193l-3.125 1.8828 3.125-0.81764c1.7188-0.4497 3.6594-1.3169 4.3125-1.9271zm-322.12 856.92c-0.51563-0.52-0.93325-4.3672-0.92806-8.5495 0.0384-30.872 18.127-70.706 41.174-90.672 15.399-13.341 27.131-18.869 66.46-31.317 44.465-14.073 60.511-21.852 73.794-35.774 9.5862-10.047 19.62-28.381 21.752-39.746 1.2267-6.5388 2.5946-4.4562 3.3999 5.1762 0.8268 9.8895-0.69486 25.386-3.4098 34.725-2.1975 7.5591-11.295 21.878-13.9 21.878-1.1277 0 0.24542-2.934 3.8093-8.1396 3.0649-4.4768 6.4308-11.03 7.4797-14.562 2.275-7.6607 4.8194-26.909 3.7795-28.592-0.40412-0.65389-3.2813 3.8981-6.3938 10.115-10.228 20.432-27.239 35.074-51.928 44.697-7.0959 2.7658-22.745 8.1365-34.777 11.935-43.697 13.795-52.189 17.768-68.988 32.272-21.175 18.282-37.636 53.686-39.615 85.198-0.42469 6.7647-1.194 11.874-1.7097 11.354zm204.12-112.3c-2.2626-2.7262-0.89179-5.1842 4.2526-7.6254 2.4546-1.1648 6.0678-4.1604 8.0292-6.657 15.102-19.222 15.451-40.721 1.3304-82.146-6.6671-19.56-9.4117-25.684-8.0752-18.018 6.1924 35.518 5.8114 48.403-1.9196 64.924-4.0596 8.6752-11.045 17.999-15.119 20.179-4.5888 2.4558-3.8123 0.21727 1.9093-5.5043 6.5768-6.5768 12.519-17.682 15.353-28.693 2.3378-9.0818 1.7076-27.171-1.4726-42.273-3.5108-16.672-6.2987-42.061-3.8157-34.749 0.32524 0.95777 4.2044 11.585 8.6204 23.616 13.349 36.368 15.154 42.814 16.947 60.499 1.3458 13.277 0.0192 22.614-4.6224 32.533-3.9803 8.5057-11.976 17.52-17.356 19.565-2.3029 0.87557-2.8856 1.6396-1.9579 2.5673 1.4369 1.4369 11.783-2.4482 13.374-5.022 0.47304-0.76541 3.233-1.3916 6.1332-1.3916 8.213 0 12.712-3.7704 17.9-15 6.4721-14.011 8.362-26.746 8.2545-55.625-0.12546-33.702-2.7644-55.326-10.829-88.74-0.99426-4.1193-1.5886-7.7089-1.3207-7.9768s9.3663 3.2136 20.219 7.7366c10.852 4.523 33.794 13.845 50.982 20.715 17.188 6.8704 43.067 17.517 57.509 23.66 31.432 13.368 45.572 18.046 63.251 20.923l13.26 2.1582 0.74776 17.637c0.41128 9.7003 1.6185 21.191 2.6827 25.536 2.0226 8.2568 14.974 41.231 17.003 43.288 1.7157 1.7403 1.4446-1.4454-0.73431-8.6285-4.2736-14.089-4.6633-27.029-1.6485-54.746 2.3819-21.899 3.136-25.938 4.8434-25.938 4.384 0 20.283-6.3308 26.856-10.694 15.669-10.401 27.062-33.639 33.802-68.946 1.739-9.1099 5.322-22.339 7.9623-29.399 6.3275-16.918 16.83-48.113 19.893-59.086 1.3433-4.8125 5.8935-17.328 10.112-27.813 10.572-26.279 14.051-41.987 14.739-66.562 0.44566-15.908 0.0779-21.931-2.0555-33.656-1.43-7.86-2.6-17-2.6-20.32 0-4.07-0.52-6.03-1.6-6.03-0.94788 0-1.543-1.3885-1.4552-3.3951 0.13971-3.1914 0.77974-3.5518 10.666-6.0054 5.7847-1.4357 12.886-3.8454 15.78-5.3549 6.2383-3.2534 7.4941-3.4382 5.2865-0.7782-2.5559 3.0797-9.741 6.2368-19.612 8.6173-8.5108 2.0526-11.186 4.2066-7.8125 6.2913 0.6875 0.4249 1.25 3.2026 1.25 6.1726s1.1192 11.796 2.4871 19.614c3.6156 20.664 3.4167 43.808-0.54384 63.254-3.4707 17.041-6.0328 25.171-14.09 44.71-3.1185 7.5625-6.7536 17.648-8.078 22.411-3.1932 11.485-13.865 43.201-19.845 58.98-2.6582 7.0136-6.2284 20.17-8.0193 29.552-6.1863 32.408-15.885 53.945-29.849 66.285-5.3633 4.7393-16.573 10.402-25.508 12.886l-7.4007 2.0576-2.738 24.014c-3.0344 26.614-2.4871 39.46 2.3785 55.823 2.6564 8.9338 3.0407 11.474 1.3266 8.7676-1.3053-2.0609-4.2699-0.62695-3.094 1.4965 0.44958 0.81187-0.35393 0.35113-1.7856-1.0239-3.134-3.01-15.717-33.537-18.384-44.601-1.0473-4.3445-2.2609-15.624-2.6968-25.066l-0.79263-17.167-4.4963-0.69433c-22.855-3.5293-36.517-7.5672-61.613-18.21-9.8357-4.1712-22.946-9.7303-29.133-12.354-6.1875-2.6232-28.125-11.53-48.75-19.793-20.625-8.2631-41.435-16.715-46.246-18.782-4.81-2.0672-8.9168-3.5872-9.1261-3.378-0.2093 0.2093 0.73064 4.8051 2.0888 10.213 6.4916 25.848 9.1003 48.956 9.2948 82.332 0.21648 37.151-4.585 57.459-16.094 68.067-4.7037 4.3357-6.2843 5.0581-11.067 5.0581-3.0685 0-5.9293 0.5665-6.3572 1.2589-1.0943 1.7706-6.7866 4.5377-11.358 5.5211-2.7374 0.5889-4.3264 0.2731-5.4523-1.0835zm21.19-11.88c0-0.64693 0.5732-1.5305 1.2738-1.9635 4.6908-2.8991 11.23-24.242 11.221-36.625-0.01-14.63-5.6894-40.54-13.065-59.61-12.755-32.976-20.26-58.258-18.587-62.616 0.88855-2.3155 10.44-5.6613 11.054-3.8724 0.2814 0.81869 1.9508 7.2643 3.7099 14.324 1.759 7.0593 4.5583 17.184 6.2205 22.5 9.2785 29.672 15.629 62.028 15.637 79.665 0.006 15.095-7.1186 40.278-13.341 47.154-2.1886 2.4184-4.1229 2.9088-4.1229 1.0452zm223.62-101.83c-0.41566-0.43741-6.0407-0.84205-12.5-0.89919-6.4594-0.0571-14.838-0.87238-18.619-1.8116-13.893-3.4511-117.82-40.579-148.44-53.029-34.986-14.227-31.668-11.814-32.089-23.329-0.0543-1.4858-0.52058-3.1264-1.0362-3.6458-0.51563-0.51944-0.9375-1.3913-0.9375-1.9375s9.1406-5.4555 20.312-10.91c53.949-26.338 82.956-53.858 108.34-102.78 12.408-23.917 21.164-47.38 33.195-88.959 2.0783-7.1823 2.0834-7.1875 7.0059-7.1875h4.9261l-0.80601-5.3125c-0.4433-2.9219-1.6816-6.3184-2.7518-7.5479-2.1299-2.4468-1.9881-3.457 3.4577-24.64 3.9232-15.26 3.4996-14.428 6.1326-12.045 2.3946 2.1671 10.877 2.7586 13.719 0.95668 1.3466-0.85379 1.1387-2.9393-1.1118-11.151-2.4077-8.7854-3.2382-10.296-6.3759-11.596-2.4125-0.99929-3.4103-2.1644-3.0121-3.5169 0.32753-1.1124 1.75-6.6239 3.1612-12.248 3.7536-14.959 9.4443-30.595 16.296-44.775 3.3219-6.875 6.3824-14.05 6.801-15.944 0.92239-4.1732 14.09-23.827 25.888-38.64 12.701-15.947 36.159-37.29 40.985-37.29 0.7355 0 1.3373 1.0561 1.3373 2.347 0 2.999 3.1567 5.6482 5.6091 4.7071 1.04-0.39908 1.8909-0.30431 1.8909 0.21063 0 0.51492 5.4844 1.5973 12.188 2.4052 6.7031 0.80796 14.438 2.2388 17.188 3.1796 4.7916 1.6393 5.1453 2.14 8.4853 12.013 3.8622 11.417 6.1312 30.408 8.3796 70.137 1.2954 22.89 3.1947 42.072 4.5036 45.483 0.96955 2.5266-0.15455 2.9574-16.587 6.3564-17.976 3.7182-37.613 8.701-38.743 9.8307-0.45648 0.4565-2.4202 0.83-4.3638 0.83-2.6798 0-4.4003 1.1961-7.1189 4.9491-8.7355 12.059-8.0649 16.997 1.7206 12.668 3.2542-1.4395 7.9545-2.6186 10.445-2.6204 5.9512-0.004 26.495-5.5426 35.026-9.4429 3.7109-1.6966 9.4778-5.0465 12.815-7.4443 3.3376-2.3978 6.2747-4.3596 6.5269-4.3596 1.4961 0 1.8145 10.819 0.57013 19.375-0.79992 5.5-1.5843 10.177-1.743 10.394-0.15869 0.21689-3.8611-1.4706-8.2275-3.75-7.8068-4.0754-8.2095-4.1442-24.189-4.1329-17.241 0.0125-23.798 1.2793-30.652 5.9234-5.6296 3.8143-6.4676 6.7287-1.0223 3.5554 4.5003-2.6226 17.704-6.3652 22.456-6.3652 1.8923 0-0.56306 1.7503-6.9719 4.9699-14.09 7.0782-26.935 20.184-26.935 27.482 0 1.8297-1.174 4.5869-2.6089 6.1271-2.9969 3.2168-2.3906 7.7642 0.69397 5.2042 0.993-0.82411 2.3767-1.1453 3.0749-0.71382 0.6982 0.43151 2.6438-0.11588 4.3235-1.2165 2.646-1.7337 6.1163-1.889 25.973-1.1618 22.951 0.84044 24.742 0.65216 34.794-3.6582 2.8695-1.2304 9.3773 45.55 9.3682 67.342-0.006 15.617-0.24065 17.078-6.0086 37.5-7.7173 27.324-13.905 45.416-19.048 55.696-2.2552 4.5079-7.0307 15.195-10.612 23.75-3.5815 8.5546-6.7093 15.775-6.9506 16.044-0.24134 0.26985-1.2602-0.19107-2.2641-1.0242-1.3807-1.1459-2.4709-1.1694-4.4758-0.0964-2.0977 1.1226-2.5706 2.3791-2.2674 6.0242 0.38395 4.6161 0.89683 4.9384 5.1969 3.2662 2.2128-0.86052 2.2235-0.72509 0.24472 3.1014-4.4584 8.6216-14.434 36.556-14.434 40.42 0 7.1726-6.7625 25.328-11.993 32.197-5.5677 7.3125-15.286 15.236-22.26 18.15-4.8884 2.0425-24.53 4.0066-25.878 2.5878zm-4.3465-57.751c1.0875-0.4173 1.9772-1.5018 1.9772-2.41 0-1.0934 2.4286-1.895 7.1875-2.3725 17.821-1.7882 36.464-5.0572 35.327-6.1946-0.65762-0.65762-10.352-1.2392-21.542-1.2924-22.119-0.10513-28.619 1.336-30.33 6.7241-1.4455 4.5542 2.4115 7.4522 7.3806 5.5454zm30.548-18.002c7.12-0.64113 16.295-1.8246 20.388-2.6299 6.3987-1.2589 7.8703-2.0937 10.492-5.9519 1.6772-2.4682 3.0494-5.0703 3.0494-5.7823 0-0.71206 1.299-3.2534 2.8866-5.6473 3.1396-4.7342 6.4805-14.777 5.3064-15.951-1.3348-1.3348-9.5277 7.4793-24.379 26.227-0.38274 0.48316-9.1318 1.4845-19.442 2.2251-10.311 0.74065-20.856 1.833-23.434 2.4274-6.1723 1.4231-12.932-0.20669-17.015-4.1024-1.8139-1.7307-8.0792-5.1845-13.923-7.675-5.8438-2.4906-11.871-5.3383-13.394-6.3284-3.25-2.12-4.1-2.24-4.1-0.57 0 0.67592 2.7727 2.634 6.1615 4.3512 3.3888 1.7173 6.5208 3.7035 6.9598 4.4139 0.43905 0.7104 2.8695 2.4145 5.401 3.7869 5.8779 3.1866 8.6083 4.8816 13.779 8.5538 4.7521 3.375 14.426 5.2496 22.699 4.3987 3.0938-0.31821 11.45-1.1031 18.57-1.7443zm-34.82-34.42c29.496-0.34514 37.883-0.85507 48.75-2.9641 7.2188-1.401 14.394-2.9087 15.944-3.3505 1.5505-0.4418 3.5193-0.23115 4.375 0.4681 0.85571 0.69924 4.075 1.4688 7.154 1.71 6.8478 0.5366 7.9752-1.9348 3.5567-7.7967-11.455-15.196-26.082-26.178-29.197-21.919-1.7931 2.4522-13.457 7.0368-17.817 7.0033-1.8652-0.0144-7.0475-0.81496-11.516-1.7792l-8.125-1.7531-8.209 5.3872c-4.515 2.963-10.497 6.5547-13.294 7.9815-6.16 3.15-33.9 12.7-36.87 12.7-3.2376 0-4.035 2.4549-1.4506 4.4656 1.5386 1.1971 3.777 1.544 6.6877 1.0366 2.4062-0.41948 20.406-0.95025 40-1.1795zm-34.575-3.3941c-0.32092-0.52048 0.15527-1.1641 1.0582-1.4302 11.16-3.289 21.565-7.1491 33.2-12.316l14.059-6.2435 6.3312 2.7236c9.6638 4.1572 17.361 4.692 21.055 1.4629 1.6521-1.444 3.5358-2.6254 4.1861-2.6254 0.65028 0 3.0496-0.88608 5.3318-1.9691l4.1495-1.9691 8.1803 6.6566 8.1803 6.6566-3.3908 1.5299c-2.1705 0.97927-6.3151 1.2751-11.516 0.82192-5.2878-0.46076-10.996-0.0366-16.347 1.2146-4.9709 1.1624-10.902 1.6557-15 1.2477-4.0253-0.40076-11.601 0.20527-18.653 1.4921-13.246 2.4171-39.922 4.2124-40.825 2.7475zm76.79-56.382c21.916-8.148 34.681-17.357 36.09-26.035 0.60692-3.7399 0.31877-4.504-1.9193-5.0892-3.408-0.89121-8.8627 1.6486-8.8752 4.1325-0.01 2.0649-4.8836 5.9505-23.829 19-11.719 8.0718-16.453 12.194-14.004 12.194 0.67813 0 6.3201-1.8913 12.538-4.203zm-19.044-7.1202c0.46865-0.75827 2.3653-0.98329 4.4425-0.52706 3.0671 0.67365 3.8054 0.32096 4.7991-2.2927 2.5-6.6-2.61-12.11-11.22-12.11-4.5 0-19.95 3.9-19.95 5.03 0 1.0998 18.013 11.041 20.239 11.169 0.47505 0.0274 1.2317-0.54563 1.6815-1.2734zm-27.55-6.55c0-1.0792-1.9554-3.2799-4.3452-4.8905-8.277-5.5779-12.768-16.506-8.5264-20.747 0.82683-0.82683 4.7643-2.1769 8.75-3.0001 7.4503-1.5388 8.3869-2.2719 5.6842-4.4492-5.2252-4.2093-17.577-1.8298-21.488 4.1396-4.5656 6.9679-0.86428 19.517 7.9924 27.098 5.6012 4.7944 11.933 5.7756 11.933 1.8492zm71.829-33.551c-1.4689-4.3771-6.0048-15.764-10.08-25.305-12.466-29.185-19.887-57.747-17.963-69.131 1.3718-8.1155 1.9462-9.2486 5.3829-10.618 3.909-1.558 1.6397-2.9104-2.9504-1.7583-11.552 2.8995-9.2491 34.746 5.1458 71.15 4.6019 11.638 21.734 45.022 22.639 44.117 0.27255-0.27255-0.70625-4.0768-2.1751-8.4539zm-49.26-58.51c-1.105-6.6086-3.1121-15.655-4.4601-20.104-1.348-4.4487-1.9604-8.2547-1.3607-8.4579 1.934-0.65533-9.0792-17.746-11.439-17.751-3.142-0.006-2.7452 4.1408 0.79934 8.3531 3.3849 4.0227 10.458 25.324 14.753 44.43 3.5304 15.706 4.6845 11.332 1.7077-6.4706zm-261.95 226.25c0-1.336-1.1479-3.2332-2.551-4.2159-2.5441-1.782-2.5434-1.7887 0.25791-2.5213 1.5449-0.404 2.8944-0.61622 2.999-0.47163 0.96388 1.3327 1.365 9.6379 0.46542 9.6379-0.64 0-1.17-1.09-1.17-2.43zm-51.318-24.417c-5.1934-0.98939-14.475-3.7084-20.625-6.0424-37.094-14.077-60.003-19.141-92.432-20.435-14.169-0.56523-22.154-0.24479-32.68 1.3115-16.57 2.4497-38.31 8.3521-48.157 13.074-5.5289 2.6516-6.8422 2.9408-5.9722 1.3153 0.61333-1.146 2.0199-2.4308 3.1258-2.8552 1.1058-0.42435 6.6058-4.0393 12.222-8.0332 13.153-9.3536 32.956-18.655 43.383-20.377 9.1055-1.5037 32.288-0.62915 55.579 2.0968 54.204 6.3439 74.75 6.7103 99.375 1.7724 22.402-4.492 49.136-14.753 68.048-26.119 2.1046-1.2648 9.0857-3.7852 15.514-5.6009 14.178-4.0048 27.478-10.018 38.789-17.538 10.226-6.7983 26.485-23.454 34.371-35.21 3.1777-4.7369 5.7777-7.8589 5.7777-6.9378 0 2.8153-14.161 31.414-21.014 42.437-10.157 16.339-24.142 33.81-37.091 46.338-9.5095 9.1996-13.985 12.51-22.214 16.433-5.6681 2.702-13.162 5.631-16.652 6.509-3.4907 0.87795-7.2452 2.4948-8.3434 3.593s-5.2735 3.2929-9.2783 4.8771c-4.0049 1.5842-8.4066 3.8824-9.7816 5.1072-3.5752 3.1845-11.666 4.7564-28.125 5.464-9.7184 0.41783-17.434 0.0353-23.818-1.1809zm-41.8-38c-2.3659-1.055-2.3324-1.1555 0.625-1.8736 13.629-3.3094 49.093-11.351 58.75-13.323 25.549-5.2146 56.9-10.938 57.379-10.475 0.27737 0.26787-4.7851 2.9354-11.25 5.9278-27.819 12.877-54.474 19.283-84.254 20.25-10.312 0.33475-19.875 0.107-21.25-0.50616zm-34.38-3.38c-19.373-2.6704-50.76-4.0988-64.312-2.9269-6.8404 0.59152-12.667 0.84613-12.947 0.5658-0.28032-0.28031 2.5039-1.3499 6.1872-2.3769s9.5094-2.6892 12.947-3.6938l6.25-1.8266-4.7606-0.13014c-2.6183-0.0716-8.6819 0.47826-13.475 1.2219l-8.7141 1.352-5.4075-5.4851c-8.1081-8.2244-10.552-16.021-10.019-31.96 0.71568-21.381 5.8429-29.534 21.728-34.552 22.808-7.2052 40.766-7.2382 77.382-0.14233 37.389 7.2457 50.153 8.5544 75.766 7.768 24.772-0.76061 36.101-2.6872 60.625-10.31 14.514-4.5112 34.57-12.411 36.875-14.525 0.79404-0.72804 0.56606-0.92094-0.625-0.52883-21.559 7.0972-42.729 13.637-50.625 15.638-34.996 8.8688-69.287 8.5831-119.38-0.99451-37.523-7.175-49.307-7.6787-70.401-3.0091-4.6891 1.038-8.8097 1.6033-9.1569 1.2561-1.3149-1.3149 15.705-9.6466 28.307-13.857 16.428-5.4887 26.589-6.6575 71.25-8.1954 19.594-0.6747 39.103-1.8608 43.355-2.6358 7.4514-1.3582 8.0143-1.2711 15.625 2.4183 11.428 5.5399 22.358 7.0915 36.491 5.1801 39.355-5.3226 77.618-30.68 114.09-75.61 5.5743-6.8665 31.811-45.916 56.019-83.375 19.83-30.71 38.36-58.53 38.98-58.53 0.34457 0-0.47033 1.8281-1.8109 4.0625s-4.0129 6.875-5.9384 10.312c-1.9256 3.4375-4.1828 7.0938-5.0162 8.125-3.4068 4.2159-15.593 28.596-15.987 31.986-0.97221 8.35-17.476 48.63-30.173 73.639-29.962 59.018-56.043 89.73-91.064 107.23-29.479 14.732-63.107 25.815-168.96 55.687-19.25 5.4321-39.219 10.92-44.375 12.195-5.4638 1.3512-8.2239 2.4962-6.6158 2.7447 5.1588 0.79703 39.785-4.7892 64.806-10.455 13.714-3.1056 26.623-5.9309 28.685-6.2785 2.0625-0.34756 5.7188-1.1723 8.125-1.8328 2.4062-0.66045 13.094-3.4737 23.75-6.2516 38.099-9.932 77.667-23.674 98.78-34.306 20.046-10.094 37.839-24.11 51.978-40.943 13.401-15.953 29.617-40.658 39.455-60.106 2.0349-4.0227 3.974-7.0398 4.309-6.7048 0.33506 0.33507-1.3504 6.7201-3.7456 14.189-2.3951 7.4689-6.9827 22.007-10.195 32.308-6.5645 21.052-9.6092 27.638-20.235 43.772-20.187 30.652-42.607 48.086-72.535 56.405-3.953 1.0987-9.9714 2.7764-13.374 3.7281-3.4027 0.95173-21.403 4.591-40 8.0873-30.395 5.7142-53.998 11.134-89.372 20.521-13.015 3.454-15.286 3.5343-32.566 1.1525zm202.5 1.1089c0-0.63793 1.755-2.812 3.9001-4.8313 5.9742-5.6238 20.327-24.542 27.866-36.729 11.838-19.138 24.124-45.856 30.782-66.943 1.5195-4.8125 7.3933-19.719 13.053-33.125 5.6596-13.406 11.238-26.836 12.397-29.844 3.7674-9.7777 1.26-6.7371-4.1087 4.9824-2.8799 6.2867-5.5573 11.109-5.9497 10.717-1.7226-1.7226 30.693-93.303 38.519-108.82 4.4311-8.7878 30.133-53.74 32.526-56.889 3.1181-4.1018 2.8375-2.4382-0.79953 4.739-8.0936 15.972-17.982 50.881-25.704 90.742-12.539 64.728-31.024 117.88-53.715 154.47-14.765 23.806-39.558 52.526-54.39 63.005-11.28 7.95-14.38 9.8-14.38 8.52zm128.75-182.88c0-0.6875 1.1582-1.25 2.5738-1.25s2.2261 0.5625 1.8012 1.25-1.5831 1.25-2.5738 1.25c-0.99068 0-1.8012-0.5625-1.8012-1.25zm98.256-9.0625c0.49705-0.85938 2.0233-3.1775 3.3917-5.1514l2.488-3.5889 2.2793 2.9639c3.1021 4.0339 3.015 4.2394-2.4976 5.891-6.0976 1.8269-6.7763 1.8131-5.6613-0.11463zm16.724-2.0156c-5.458-2.9174-7.5468-7.8955-4.6542-11.092 2.8582-3.1582 16.885-9.9598 22.487-10.904 4.1467-0.6987 4.8508-0.43352 6.094 2.2949 2.2438 4.9246 0.25411 14.31-3.9183 18.482-2.9191 2.9191-4.618 3.5468-9.5999 3.5468-3.5118 0-7.8818-0.97742-10.409-2.3281zm14.02-6.4904c3.22-4.33 1.33-9.93-3.34-9.93-1.7358 0-3.1559 0.5625-3.1559 1.25s0.8614 1.25 1.9142 1.25c2.968 0 3.6316 3.5751 1.1686 6.2966-2.9438 3.2528-6.1361 3.106-7.8072-0.35906-1.2939-2.6828-1.3603-2.6943-1.441-0.25-0.20566 6.2295 8.4478 7.421 12.666 1.744zm9.7492 7.7215c0-0.60331 0.88084-1.828 1.9574-2.7214 3.976-3.2998 5.8661-8.8899 5.1241-15.155l-0.71375-6.0266h4.663c5.67 0 9.3559 2.398 11.447 7.4474 1.4265 3.444 1.2714 4.1921-1.6688 8.0468-1.7828 2.3374-5.6844 5.4324-8.6702 6.8778-5.5338 2.6788-12.139 3.5119-12.139 1.531zm43.246-40.466c9.4846-13.158 11.912-17.225 15.626-26.183 6.5675-15.838 9.0755-28.52 9.0986-46.005 0.0192-14.577-2.1004-32.761-4.1526-35.625-0.49264-0.6875-2.1736-4.9062-3.7354-9.375s-4.1963-10.601-5.8544-13.628c-1.658-3.0264-2.7865-5.7307-2.5077-6.0095 0.70398-0.704 10.482 9.8694 14.236 15.394 1.7022 2.505 4.4303 7.8411 6.0625 11.858 1.6322 4.0168 4.0714 9.1184 5.4204 11.337 2.1349 3.5106 2.5665 3.7372 3.3296 1.7484 1.8018-4.6955-1.9351-21.04-7.3048-31.95-7.4854-15.208-22.393-30.095-37.422-37.369-10.29-4.97-31.76-11.37-38.17-11.37-2.5044 0-2.9038-0.45744-2.2361-2.5612 0.91517-2.8834-2.0976-8.3095-5.4048-9.7343-3.6974-1.5929-10.224-5.8007-10.232-6.5971-0.0127-1.2346 10.72-2.3574 22.534-2.3574 24.471 0 50.091 4.3222 63.083 10.642 15.824 7.6978 30.798 24.686 35.712 40.517 2.4421 7.8673 2.4545 16.34 0.0239 16.34-0.56423 0-2.2882-3.5156-3.8311-7.8125-9.8678-27.481-29.498-43.564-57.827-47.377-12.554-1.6896-16.132 0.37206-4.4633 2.572 16.869 3.1803 29.112 11.803 40.249 28.347 8.7164 12.948 12.187 25 12.929 44.895 0.89465 23.995-1.3539 35.079-11.679 57.567-11.276 24.558-21.087 41.733-29.238 51.182-8.3516 9.681-10.737 10.558-4.2541 1.5645zm34.25-140.93c-0.7989-1.4928-1.7338-2.4329-2.0776-2.0891-0.34375 0.34375 0.0286 1.8464 0.82755 3.3391 0.7989 1.4928 1.7338 2.4329 2.0776 2.0891 0.34375-0.34375-0.0286-1.8464-0.82755-3.3391zm-26.731 116.48c-0.39045-0.63176-2.1056-6.7083-3.8114-13.503-3.5056-13.965-5.0293-25.366-6.989-52.296-2.0865-28.673-5.5096-40.972-16.271-58.462-3.6868-5.9918-3.7141-6.1461-0.93516-5.2839 1.5744 0.48847 6.1229 2.5235 10.108 4.5222 5.8615 2.9401 8.1815 5.0827 12.148 11.219 15.296 23.667 22.135 60.339 16.4 87.946-4.2094 20.262-8.167 29.873-10.648 25.858zm-171.26-88.98c0.71433-1.0312 6.6723-8.625 13.24-16.875 26.589-33.4 51.464-51.957 69.486-51.835l5.8906 0.0396-3.75 2.7379c-2.0625 1.5058-6.8438 5.6128-10.625 9.1266s-11.342 8.7676-16.803 11.675c-19.384 10.322-31.003 18.862-45.03 33.096-7.5393 7.6505-13.123 13.066-12.409 12.035zm224.66-8.75c0-5.1562 0.22064-7.2656 0.49033-4.6875 0.26967 2.5781 0.26967 6.7969 0 9.375-0.26969 2.5781-0.49033 0.46875-0.49033-4.6875zm-184.82-14.23c5.484-5.1533 10.237-9.1037 10.562-8.7786 0.67155 0.67153-15.467 15.6-18.53 17.141-1.1014 0.55402 2.4844-3.2091 7.9684-8.3624zm48.467-62.902c-3.7924-0.73045-3.5392-2.1802 0.9375-5.3678 5.0654-3.6068 4.8438-7.0188-0.625-9.6267-10.262-4.8934-2.7192-7.086 24.375-7.086 19.753 0.00002 23.072 0.32239 34.215 3.323 13.614 3.6662 33.285 12.561 33.285 15.05 0 3.1066-2.6061 4.3843-6.6041 3.2377-7.0556-2.0235-36.37-3.9222-47.831-3.098-6.2204 0.44734-15.22 1.6315-20 2.6315-8.5895 1.7972-12.274 1.9914-17.753 0.93597zm74.062-21.595c-23.416-9.5523-56.371-10.608-76.375-2.4473-3.5757 1.4588-4.2282 1.2999-8.457-2.0599-2.5203-2.0024-6.5134-6.5416-8.8737-10.087-2.3602-3.5457-6.8823-8.6082-10.049-11.25l-5.7576-4.8033 5.381-0.84485c25.151-3.9488 62.771 3.3728 88.006 17.128 9.6163 5.2415 25.5 16.12 25.5 17.464 0 0.79018 0.84529 1.0696-9.375-3.0996z"/>
</svg>
