<?xml version="1.0" encoding="UTF-8" standalone="no"?>
<!-- Created with Inkscape (http://www.inkscape.org/) -->
<svg id="svg3436" xmlns:rdf="http://www.w3.org/1999/02/22-rdf-syntax-ns#" xmlns="http://www.w3.org/2000/svg" height="375" viewBox="0 0 1250 375" width="1250" version="1.1" xmlns:cc="http://creativecommons.org/ns#" xmlns:dc="http://purl.org/dc/elements/1.1/">
 <metadata id="metadata3442">
  <rdf:RDF>
   <cc:Work rdf:about="">
    <dc:format>image/svg+xml</dc:format>
    <dc:type rdf:resource="http://purl.org/dc/dcmitype/StillImage"/>
    <dc:title/>
   </cc:Work>
  </rdf:RDF>
 </metadata>
 <path id="path3446" fill="#fff" d="m598.43 295.35c-9.4485-0.44037-9.6792-0.5271-8.9657-3.3699 0.56941-2.2687-0.43916-4.1341-4.5335-8.3847-7.6495-7.9415-16.442-19.454-20.887-27.349-3.6335-6.4535-9.0488-22.726-10.969-32.96l-0.85036-4.5327 59.827 0.0171c32.905 0.01 60.998 0.33154 62.429 0.71588 2.5176 0.676 2.5503 0.97504 1.002 9.1629-3.4091 18.029-10.575 31.631-26.843 50.949-6.0219 7.1511-8.5399 11.127-8.3228 13.142 0.3105 2.8818 0.27417 2.8886-15.939 2.9752-8.9375 0.0478-20.614-0.11662-25.948-0.36527zm86.286 0.1554c-0.36801-0.61977-0.26065-4.2206 0.23859-8.0019 2.4397-18.478-0.0173-89.823-3.7881-110-1.8878-10.101-7.4777-31.503-8.9526-34.276-0.99226-1.8658-0.7704-2.7714 0.99526-4.0625 1.2497-0.91381 2.9265-1.6615 3.7262-1.6615 2.4137 0 8.5059 23.622 12.895 50 0.7436 4.4688 1.7355 18.915 2.2042 32.103 1.2196 34.314-3.423 82.46-7.3188 75.899zm-134.53-82.15c-1.3264-1.5982-1.2449-2.4952 0.46346-5.1025l2.0727-3.1634 60.198-0.35778c33.109-0.19677 61.044-0.78646 62.077-1.3104 1.4317-0.72608 2.2621 0.27666 3.4917 4.2166 0.88733 2.8431 1.4483 5.3186 1.2466 5.5012s-29.071 0.74222-64.154 1.2436c-56.838 0.8123-63.962 0.70038-65.396-1.0274zm109.81-14.95c-9.2812-0.56781-36.943-0.77132-61.47-0.45226-47.187 0.61384-46.525 0.68714-45.408-5.0237 0.24823-1.2694 1.1202-5.9643 1.9377-10.433 4.3239-23.635 12.477-41.206 25.377-54.688l5.0832-5.3125h25.142l2.1835 6.1477c2.6312 7.4082 11.991 16.409 19.359 18.616 5.9846 1.793 22.639 1.9588 27.082 0.26954 4.0846-1.553 5.655 0.68475 10.766 15.341 2.9348 8.4152 8.3053 36.086 7.0808 36.482-0.14253 0.0462-7.8529-0.38059-17.134-0.94839zm-21.258-54.503c-8.8489-2.9013-17.392-10.108-19.915-16.8-1.9886-5.2747-1.5547-13.358 1.0214-19.03 3.0021-6.609 12.487-14.856 19.271-16.755 7.7939-2.1822 20.975-0.90483 27.336 2.6491 7.4911 4.1852 9.6274 7.7936 10.968 18.526 0.9953 7.9686 0.8392 10.121-1.0428 14.375-2.5074 5.6684-9.8036 12.597-15.984 15.18-5.191 2.1689-17.484 3.222-21.654 1.855zm21.128-10.523c4.5974-2.3493 6.4759-4.3637 9.3366-10.012 4.4454-8.7776 3.8385-13.877-2.4844-20.876-7.7122-8.5364-18.068-9.5284-31.42-3.01-14.712 7.1825-17.093 19.97-5.7262 30.758 8.2524 7.8326 18.943 8.9406 30.294 3.1401zm-23.354-6.057c-4.4587-2.8551-7.7658-8.1289-7.7658-12.384 0-7.6814 10.568-13.693 24.073-13.693 5.0968 0 6.7298 0.61056 9.7731 3.6538 3.9533 3.9533 4.9095 10.414 2.2709 15.345-1.3586 2.5385-1.4316 2.5231-4.1419-0.87592-2.2551-2.8282-3.2009-3.2271-5.1795-2.1845-1.3313 0.70152-6.0769 1.709-10.546 2.2388-7.2594 0.86069-7.7205 1.0722-4.328 1.9852 2.0883 0.56202 5.4279 2.7242 7.4214 4.8049l3.6244 3.7831-5.5464-0.0211c-3.4739-0.0131-7.0818-1.0042-9.6555-2.6523zm-45.33-12.02c-0.0325-1.2031-0.3644-6.2743-0.73765-11.269-0.65649-8.7854-0.55338-9.2243 3.1606-13.454 2.1116-2.405 4.6766-5.9918 5.6999-7.9708l1.8607-3.5981 14.1-0.12435c13.417-0.11832 14.274 0.02962 17.682 3.0541 1.97 1.7481 3.3762 3.2902 3.125 3.4268-0.2512 0.13662-2.492 1.2814-4.9795 2.544-9.52 4.8321-17.404 15.044-19.262 24.95l-0.86848 4.6294h-9.8609c-8.5355 0-9.8688-0.29402-9.9199-2.1875zm-5.9-27.81c-0.8587-1.375-2.2629-2.5-3.1205-2.5-1.9374 0-5.008-6.6825-4.442-9.6669 0.25203-1.3288 1.7597-2.3634 3.7859-2.5979 2.0083-0.23247 3.6774-1.3675 4.136-2.8125 0.73-2.303 2.17-2.422 29.43-2.422 23.515 0 28.666 0.30941 28.666 1.7219 0 0.94707 0.92025 2.4857 2.045 3.4192 2.0014 1.661 7.955 10.424 7.955 11.709 0 0.35741-1.8546 0.64984-4.1213 0.64984-3.1611 0-5.2588-1.1649-9.0037-5l-4.8824-5h-18.578c-10.218 0-19.551 0.52024-20.739 1.1561-1.1881 0.63585-3.4973 4.0108-5.1315 7.5-1.63 3.489-3.3 6.344-3.7 6.344-0.4046 0-1.4382-1.125-2.2969-2.5z"/>
</svg>
