<?xml version="1.0" encoding="UTF-8" standalone="no"?>
<!-- Created with Inkscape (http://www.inkscape.org/) -->
<svg id="svg3428" xmlns:rdf="http://www.w3.org/1999/02/22-rdf-syntax-ns#" xmlns="http://www.w3.org/2000/svg" height="375" viewBox="0 0 1250 375" width="1250" version="1.1" xmlns:cc="http://creativecommons.org/ns#" xmlns:dc="http://purl.org/dc/elements/1.1/">
 <metadata id="metadata3434">
  <rdf:RDF>
   <cc:Work rdf:about="">
    <dc:format>image/svg+xml</dc:format>
    <dc:type rdf:resource="http://purl.org/dc/dcmitype/StillImage"/>
    <dc:title/>
   </cc:Work>
  </rdf:RDF>
 </metadata>
 <path id="path3438" fill="#fff" d="m426.78 237.51c-2.2793-0.5357-5.5671-2.3032-7.3063-3.9277-6.4325-6.0085-6.5881-7.051-6.7322-45.1-0.152-40.146-0.004-40.887 9.5346-47.5 5.3286-3.6946 15.967-5.1514 13.191-1.8064-0.95212 1.1472-1.491 16.92-1.7156 50.209-0.20953 31.067-0.77726 48.637-1.5774 48.818-0.6875 0.15485-3.1149-0.15675-5.3942-0.69245zm14.139-0.27408c-0.32257-0.884-0.73452-23.694-0.91545-50.688l-0.32896-49.081 80 0.43045c44 0.23674 81.969 0.84586 84.375 1.3536 5.9778 1.2614 8.0264 2.0957 18.125 7.382 16.58 8.6794 26.451 13.248 28.847 13.352 1.3214 0.0571 19.559 0.3416 40.528 0.63206 45.312 0.62769 51.603 1.1109 57.161 4.3903 5.1009 3.0096 6.138 3.0551 10.964 0.48105 2.0625-1.1002 5.7188-1.9225 8.125-1.8274s7.1875 0.29555 10.625 0.44548c5.5808 0.24338 6.2918-0.0209 6.64-2.4678 0.45119-3.1704-1.577-4.4166-16.64-10.224-5.5-2.1206-11.337-4.7938-12.972-5.9403-2.9377-2.0607-2.8159-2.1337 10.625-6.3639 15.825-4.9806 23.762-5.5222 36.722-2.5057 6.8794 1.6012 10.586 3.2592 13.923 6.2284 2.5014 2.2255 7.4264 6.4708 10.944 9.434 10.638 8.9608 11.209 11.156 7.6997 29.612-0.65363 3.4375-1.761 9.3438-2.4607 13.125-0.99969 5.4019-2.2303 7.7597-5.7435 11.004l-4.4712 4.129-24.633-0.23592c-13.548-0.12973-28.798-0.76412-33.888-1.4097-8.4311-1.0694-9.5639-0.94504-12.733 1.3982-8.0339 5.9397-11.536 6.3268-57.405 6.3462-48.431 0.0204-48.759 0.07-64.167 9.697-10.267 6.4152-19.722 10.073-29.566 11.438-4.4688 0.61985-42.026 1.2047-83.46 1.2997-60.372 0.13842-75.451-0.1465-75.921-1.4346z"/>
</svg>
