<?xml version="1.0" encoding="UTF-8" standalone="no"?>
<!-- Created with Inkscape (http://www.inkscape.org/) -->
<svg id="svg3336" xmlns:rdf="http://www.w3.org/1999/02/22-rdf-syntax-ns#" xmlns="http://www.w3.org/2000/svg" height="428" viewBox="0 0 1438 428" width="1438" version="1.1" xmlns:cc="http://creativecommons.org/ns#" xmlns:dc="http://purl.org/dc/elements/1.1/">
 <metadata id="metadata3342">
  <rdf:RDF>
   <cc:Work rdf:about="">
    <dc:format>image/svg+xml</dc:format>
    <dc:type rdf:resource="http://purl.org/dc/dcmitype/StillImage"/>
    <dc:title/>
   </cc:Work>
  </rdf:RDF>
 </metadata>
 <path id="path3346" fill="#fff" d="m226.63 408.21c-0.32173-0.52057-3.3569-1.2601-6.7449-1.6434-6.12-0.7-24.18-6.69-30.89-10.25-27.58-14.66-49.03-42.45-54.65-70.82-2.1689-10.939-2.8204-28.452-1.3765-37 4.0751-24.123 16.513-47.867 32.728-62.477l5.7996-5.2256-3.5 0.67595c-6.9023 1.333-25.888 10.791-31.353 15.62-2.6191 2.3139-5.6922 6.7486-8.3403 12.036-3.9729 7.932-8.3075 20.347-8.3064 23.79 0.00046 1.415-3.3765 1.5524-32.062 1.3043l-32.063-0.2773-1.5645-3.7227c-1.307-3.11-5.13-24.17-5.304-29.22-0.02844-0.825-0.8292-2.505-1.7795-3.7332-1.7337-2.2409-2.3035-2.3684-21.978-4.9175l-4.249-0.55v-24.73-24.72l2.5-2.35c1.375-1.2918 2.5-3.0619 2.5-3.9338 0-3.0226 4.0279-4.4417 24.5-8.6318 6.3647-1.3027 19.417-4.1933 42.5-9.4123 4.675-1.057 10.075-2.1956 12-2.5302 1.925-0.33462 4.4-1.0051 5.5-1.49s6.05-1.6005 11-2.479c4.95-0.87857 15.975-2.8281 24.5-4.3324l15.5-2.735 0.14418-5.7478c0.23208-9.2515-0.11488-9.1162 21.353-8.3298 10.177 0.37275 20.528 1.0956 23.003 1.6064 7.2077 1.4874 100.66 1.2855 103.32-0.22325 3.1152-1.767 72.685-2.4209 85.684-0.80529 5.225 0.64936 28.292 1.5143 51.26 1.9222 39.243 0.69683 46.514 1.2897 42.937 3.5008-1.1876 0.73399 6.103 8.2076 9.9445 10.194 4.3703 2.26 5.3049 1.8061 9.9323-4.8228 6.11-8.75 30.39-32.7 42.93-42.352 10.47-8.056 14.812-11.07 58.703-40.747 12.762-8.6289 23.519-16.2 23.905-16.824 0.86436-1.3986 1.4468-1.7302-16.607 9.4583-32.244 19.983-46.036 29.199-69.42 46.392-8.1348 5.9811-31.763 28.63-39.847 38.196l-4.5406 5.3728-5.0148-1.203c-2.7581-0.66166-5.8139-1.7874-6.7907-2.5016-1.6812-1.2293-1.6848-1.4376-0.0668-3.9069 0.93999-1.4346 3.39-3.4834 5.4444-4.553 2.0545-1.0695 8.4604-5.6601 14.235-10.201 21.667-17.037 37.377-28.153 57-40.332 1.925-1.1947 5.975-3.7723 9-5.7281 12.659-8.1846 26.128-16.907 35.63-23.072 5.5713-3.6153 15.021-9.0549 21-12.088 10.781-5.4697 10.977-5.524 23.87-6.6327 29.319-2.521 38.063-2.8821 84.5-3.49 47.369-0.62003 81.261 0.19293 102.44 2.4573 14.399 1.5393 49.734 6.667 59.058 8.5703 4.4 0.89815 12.275 2.4553 17.5 3.4603 11.484 2.209 21.856 4.7407 36.5 8.9092 6.05 1.7222 13.25 3.7585 16 4.5252 2.75 0.76665 8.2625 2.3269 12.25 3.4671 3.9875 1.1403 10.288 2.9218 14 3.9589 14.126 3.9461 25.843 7.3142 28.25 8.1205 1.375 0.46052 6.55 2.0339 11.5 3.4965s10.022 3.0675 11.271 3.5664c1.2491 0.49899 7.5491 2.666 14 4.8155 6.4509 2.1496 17.354 6.2562 24.229 9.1258 6.875 2.8697 24.425 9.2366 39 14.149 14.575 4.9121 27.406 9.3798 28.513 9.9282 1.1072 0.5484 5.3822 1.5956 9.5 2.3272 4.1177 0.73157 8.6118 1.7793 9.9868 2.3283 6.4655 2.5816 22.036 6.5954 48 12.374 34.884 7.7634 44.6 9.265 99.5 15.377 7.15 0.79597 19.975 2.3749 28.5 3.5088 8.525 1.1338 16.968 1.8008 18.762 1.4822 3.0401-0.53991 3.7557-0.057 10.5 7.0864 15.339 16.247 25.23 30.205 33.034 46.616 2.8635 6.0225 3.3843 8.813 1.645 8.813-0.5825 0-0.7809 0.45-0.441 1 0.3935 0.63669-2.4679 1-7.8759 1-9.2642 0-13.004 0.94029-13.993 3.5187-0.3529 0.91957-0.1665 6.7773 0.4142 13.017 0.9743 10.47 0.9059 11.639-0.8857 15.155-1.0677 2.0951-3.7999 8.5343-6.0713 14.309-2.2714 5.775-4.478 11.052-4.9034 11.726-0.6007 0.9522-20.505 1.2426-89.085 1.2998l-88.312 0.0737-4.1711-8.2998c-5.2887-10.524-11.227-18.608-19.551-26.617-7.1251-6.8548-7.0397-6.801-24.377-15.359-11.925-5.8868-13.197-5.9649-6.885-0.423 4.1114 3.6098 12.464 14.038 17.029 21.261 10.535 16.669 17.167 38.525 17.167 56.579 0 7.67-2.9827 23.667-6.2959 33.767-5.9192 18.044-17.224 33.689-34.96 48.382-10.57 8.7566-33.026 18.802-45.24 20.238-3.0582 0.35942-5.7992 1.0401-6.0912 1.5125-0.6805 1.101-26.7 1.1313-27.963 0.0325-0.5225-0.45457-4.55-1.399-8.95-2.0988-4.4-0.69979-8.45-1.6339-9-2.0757-0.55-0.44186-2.8-1.2854-5-1.8745-5.5568-1.488-20.905-10.428-27.45-15.99-16.16-13.77-28.14-29.83-33.99-45.63-4.7107-12.723-6.2183-21.548-6.2354-36.5-0.0171-14.917 0.97455-21.343 5.3725-34.816 2.301-7.0489 9.7793-21.948 13.519-26.934 1.3407-1.7875 1.9806-3.25 1.422-3.25-0.55864 0-1.5156 0.93406-2.1266 2.0757-0.61098 1.1416-1.9247 2.8896-2.9194 3.8843-2.4663 2.4663-8.1351 12.355-10.915 19.04-1.258 3.025-2.8106 6.7375-3.4501 8.25l-1.1628 2.75h-47.256-47.256v-12.326c0-6.7795 0.43193-17.017 0.95984-22.75 3.4772-37.762 4.5228-52.853 4.394-63.424-0.0983-8.0728 0.22897-12.24 1-12.735 0.74618-0.47831 0.56372-0.74003-0.52288-0.75-0.91794-0.008-4.6473-3.2778-8.2874-7.2653l-6.6184-7.25 7.1216-1.1974c3.9169-0.65857 7.6462-1.5955 8.2874-2.0821 3.9801-3.0202 28.784-12.024 40.666-14.762 23.074-5.3165 34-8.9657 34-11.356 0-2.5288-3.5207-10.117-7.4048-15.959-4.95-7.455-23.89-26.432-33.2-33.279-10.76-7.912-28.81-16.202-41.39-19.012-7.81-1.743-38.42-5.338-58-6.81-42.36-3.186-124.74-3.675-159.48-0.948-17.16 1.347-24 3.921-44.52 16.741-17.83 11.139-38.25 26.951-54 41.808-4.8715 4.5955-7.4457 6.3591-8.7084 5.966-2.267-0.70579-3.0009-0.168-7.6852 5.6318-2.1036 2.6046-5.3731 5.6925-7.2656 6.8621-5.0257 3.1061-20.535 21.021-19.997 23.098 0.34387 1.3267-0.34578 1.7622-3.1672 2-3.1519 0.26561-3.7887 0.78404-5.0496 4.1109-2.3671 6.2454-1.3843 6.6244 19.096 7.3651l17.618 0.63719 2.0684-3.4013c1.2068-1.9845 1.8154-4.1984 1.461-5.3149-0.58389-1.8397-0.10992-1.8883 12.261-1.2574 7.0776 0.36094 78.414 0.65808 158.52 0.66031 143.87 0.004 145.65 0.0279 145.15 1.9524-0.34179 1.307 0.84113 3.5501 3.5936 6.8144 2.2567 2.6763 4.1031 5.0621 4.1031 5.3017 0.00002 0.2396-79.987 0.29881-177.75 0.13157-97.75-0.17-182.02 0.04-187.24 0.46l-9.5 0.77007 11 0.7088c6.05 0.38984 90.875 0.6984 188.5 0.68568l177.5-0.0231 1.3164 2.3483c1.6299 2.9075 0.95266 25.871-1.3374 45.348-0.84065 7.15-1.8115 24.135-2.1574 37.745l-0.62899 24.745-210.37 0.25463-210.37 0.25-1-3.5c-2.18-7.62-4.96-29.8-4.96-39.59 0-30.641 11.746-63.545 29.331-82.161 2.7275-2.8875 4.4863-5.25 3.9086-5.25-1.4132 0-8.2539 5.7832-11.887 10.049-7.4015 8.6912-19.052 30.431-21.947 40.951-0.83231 3.025-1.927 6.5069-2.4326 7.7376-2.0662 5.0292-3.2054 29.08-2.0736 43.774 0.60914 7.9079 1.4945 15.415 1.9675 16.683 0.473 1.2679 1.1716 4.4273 1.5524 7.0208l0.69239 4.7155-48.738 0.0501c-26.806 0.0275-48.945 0.2572-49.199 0.51036-0.25316 0.25317 0.10541 1.1419 0.79682 1.975 1.0857 1.3082 7.8755 1.5501 49.792 1.7742l48.535 0.25944 1.3544 3.9127c0.74495 2.152 1.211 4.0561 1.0357 4.2315-0.17533 0.17532-21.109 0.34432-46.519 0.37554-45.122 0.0554-46.176 0.10124-45.18 1.9628 0.56105 1.0483 1.4535 2.1739 1.9832 2.5013 0.52973 0.32739 21.207 0.56881 45.949 0.53649 44.739-0.0584 44.992-0.0472 46.112 2.0461 0.61956 1.1577 0.97752 2.236 0.79546 2.3964-0.18206 0.16036-20.242 0.45932-44.578 0.66436-24.336 0.20503-44.248 0.68373-44.25 1.0638-0.007 1.4033 2.6166 2.2988 6.9965 2.3881 2.475 0.0504 22.164 0.16579 43.753 0.25633l39.26 0.16 4.9671 10.25c2.7319 5.6375 6.3572 12.644 8.0563 15.569l3.0892 5.3191 201.19-0.72146c198.17-0.71061 201.25-0.75138 205.02-2.7111 2.1058-1.0943 4.2433-3.08 4.75-4.4127 1.22-3.25 1.17-13.02-0.09-13.8-0.55-0.33992-1-2.4025-1-4.5835v-3.9654l43 0.0811 43 0.0811-0.073 2.1934c-0.0402 1.2064-0.47015 4.6684-0.95556 7.6934-0.4854 3.025-1.594 10.874-2.4636 17.442-0.86958 6.5679-2.0588 12.517-2.6426 13.221-0.58384 0.70349-1.0896 2.9798-1.1239 5.0584s-0.49481 4.3412-1.0233 5.0281c-1.4905 1.937-551.12 0.67506-558.22-1.2817-7.726-2.131-12.503-7.6942-32.149-37.443-18.051-27.333-25.76-37.948-26.801-36.907-0.29644 0.29645 0.17149 5.6494 1.0398 11.895 1.6805 12.088 1.0089 23.884-2.1345 37.487-5.9297 25.662-21.409 47.362-44.955 63.02-10.978 7.3008-28.442 13.771-41 15.189-2.75 0.31069-5.45 0.8816-6 1.2687-1.5498 1.0907-20.211 1.2975-20.87 0.23122zm25.676-14.325c46.918-7.2796 80.662-51.554 75.604-99.198-3.3978-32.005-23.496-60.433-49.743-70.36-6.0293-2.2804-26.211-7.3871-28.667-7.2537-1.7905 0.0973 3.8756 2.0269 9 3.0651 31.176 6.3158 55.892 30.413 64.062 62.459 4.7225 18.523 2.8704 40.173-4.9404 57.751-8.5349 19.208-27.978 37.752-47.622 45.419-20.896 8.1558-45.257 8.1462-65-0.0256-17.895-7.4068-30.87-17.983-41.04-33.451-11.712-17.813-16.648-39.606-13.576-59.941 2.9628-19.615 9.9755-34.235 23.116-48.191 12.903-13.704 28.275-22.372 46.5-26.222l8.5-1.7953-7.0685-0.0704c-15.518-0.15447-34.037 9.1767-49.432 24.907-25.739 26.3-32.824 67.186-17.46 100.75 7.0942 15.498 19.514 29.9 33.398 38.73 11.067 7.0381 20.48 10.617 36.561 13.902 4.2679 0.87179 20.964 0.58668 27.806-0.47483zm849.69-1.4c7.6963-2.0117 22.969-8.9909 29.484-13.473 11.476-7.8961 23.258-21.553 29.77-34.511 4.0469-8.0521 7.5004-20.352 8.7173-31.046 2.5875-22.74-5.1426-49.304-19.267-66.209-4.8832-5.8448-17.076-15.787-25.185-20.537-9.5784-5.6104-29.842-12.341-41.379-13.744-10.434-1.2687-19.247-0.0222-33.141 4.6878-41.168 13.956-66.207 52.878-61.862 96.162 3.9842 39.689 33.737 72.038 73.362 79.765 9.202 1.7943 30.731 1.1981 39.5-1.0939zm-41.112-2.3786c-15.934-3.478-32.012-12.39-43.916-24.341-30.521-30.642-33.904-79.162-7.9673-114.27 5.3194-7.2006 17.62-18.356 25.098-22.763 14.668-8.6425 37.943-14.449 50.672-12.643 10.798 1.5326 24.284 5.8541 36.224 11.607 10.277 4.9516 12.411 6.4606 20.067 14.185 12.982 13.098 19.195 23.899 23.582 40.999 5.5902 21.788 1.9509 47.189-9.4661 66.071-12.099 20.01-31.336 34.286-54.683 40.581-9.4897 2.5589-29.21 2.8448-39.612 0.57424zm30.612-4.5753c15.882-2.5795 27.499-7.6529 39.62-17.304 29.492-23.482 39.052-64.457 23.02-98.668-4.9659-10.597-8.3078-15.418-16.285-23.49-18.044-18.261-43.522-26.994-68.856-23.6-39.981 5.3555-69.293 36.729-71.702 76.744-2.5756 42.786 27.421 79.696 70.168 86.341 10.828 1.6832 13.544 1.6806 24.034-0.0231zm-18.5-3.2087c-7.5869-0.58683-18.135-3.4148-25.84-6.9281-34.525-15.741-52.791-53.157-43.728-89.568 8.9056-35.777 39.282-59.842 75.506-59.818 36.372 0.0241 66.14 22.49 76.253 57.55 1.8731 6.4935 2.2866 10.316 2.2655 20.943-0.022 11.279-0.3821 14.134-2.7162 21.562-7.2266 22.999-21.714 39.629-43.066 49.432-10.761 4.9407-26.697 7.7541-38.675 6.8276zm20.5-14.821c14.937-3.1253 29.768-13.011 39.065-26.039 5.9231-8.3005 9.096-16.322 11.065-27.974 1.4719-8.7125 1.4712-10.284-0.01-19.238-7.9704-48.23-62.443-71.101-102.04-42.843-27.298 19.48-35.051 56.855-17.907 86.33 4.3522 7.4827 16.815 19.214 25.004 23.535 13.683 7.2213 29.544 9.4251 44.825 6.2279zm-29.338-3.4712c-22.064-5.9651-38.81-22.709-44.71-44.703-2.1025-7.8378-2.0989-22.203 0.01-30.241 8.6563-33.03 41.266-53.01 73.797-45.217 16.413 3.9316 28.232 12.138 37.638 26.132 7.8957 11.747 10.492 21.431 9.8949 36.91-0.3756 9.7422-0.8966 12.706-3.2684 18.59-7.5253 18.67-21.304 31.792-39.52 37.639-9.5468 3.0644-24.355 3.4539-33.838 0.8901zm9.3383-33.404c2.75-2.2192 7.1169-5.8552 9.7041-8.0801 2.5873-2.2249 6.2676-5.299 8.1785-6.8313 1.9108-1.5323 3.7604-4.0887 4.1101-5.6809 0.8129-3.7009 1.437-4.134 10.757-7.4657 8.0879-2.8911 9.8821-5.0822 5-6.1061-1.5125-0.31723-4.6368-1.0008-6.9428-1.5191-2.3061-0.51825-5.7238-0.94228-7.595-0.94228-2.1502 0-4.079-0.74786-5.2414-2.0323-4.3361-4.7913-8.2639-6.2762-14.95-5.6519l-6.3016 0.58845-3.62-5.4521c-2.4-3.56-4.3-5.45-5.6-5.45-1.8138 0-1.9898 0.67982-1.9898 7.6844 0 4.2264 0.6269 10.189 1.3931 13.25 0.7662 3.0611 1.9179 7.8156 2.5592 10.566 0.6444 2.7628 2.3254 6.2131 3.7569 7.7113l2.5908 2.7113-2.2638 7.9502c-2.206 7.7475-2.1129 10.866 0.2829 9.4737 0.6495-0.37742 3.4309-2.5019 6.1809-4.721zm-3.2-6.62c0.9718-3.6408 1.3634-4 4.3611-4 1.8114 0 3.2934 0.37469 3.2934 0.83264 0 0.78273-7.3957 7.1674-8.3024 7.1674-0.2309 0 0.061-1.8 0.6479-4zm3.7482-8.3064c-9.6032-3.3649-10.704-17.302-1.7952-22.734 3.7577-2.2912 9.6863-2.5358 13.512-0.55756 3.0321 1.5679 7.1896 8.2275 7.1896 11.516 0 3.9373-2.8432 9.0157-6.1898 11.056-3.712 2.2631-7.6712 2.4871-12.716 0.71919zm22.508-13.425c-0.331-0.33104-0.6019-1.4473-0.6019-2.4805 0-1.6247 0.5068-1.787 3.75-1.2007 2.0625 0.37288 3.8568 0.76262 3.9874 0.86609 0.1306 0.10346-1.286 0.91462-3.1481 1.8026-1.862 0.88795-3.6564 1.3436-3.9874 1.0126zm-31.914-8.9144c-0.3781-0.37813-0.6775-2.3-0.6653-4.2708l0.022-3.5833 1.9702 2.5c1.0836 1.375 1.8611 3.1377 1.7277 3.9171-0.2779 1.6248-2.0388 2.4531-3.0549 1.437zm-815.58 92.186c25.744-3.8807 46.621-17.992 59.848-40.452 18.507-31.426 13.011-72.727-13.175-99.016-14.157-14.213-29.132-21.343-50.338-23.97-9.671-1.198-24.449 0.45706-34.439 3.8568-38.728 13.18-62.268 53.375-54.584 93.203 5.8996 30.579 27.635 54.838 57.127 63.759 13.372 4.0448 21.925 4.6749 35.561 2.6193zm-18.02-3.22c-21.28-1.64-43.79-14.13-56.46-31.32-22.303-30.251-20.311-71.727 4.7805-99.528 10.743-11.903 26.02-20.74 41.544-24.03 14.989-3.1769 34.679-1.171 48.434 4.9343 32.955 14.627 52.295 51.638 45.124 86.353-7.4612 36.122-36.17 61.141-72.921 63.547-3.3 0.21612-8.025 0.23632-10.5 0.0449zm20.5-14.821c19.633-4.1079 37.528-18.978 45.73-38.001 11.839-27.46 2.6016-60.675-21.698-78.014-40.178-28.67-95.078-5.0928-102.49 44.014-2.0436 13.541 1.2148 29.491 8.6288 42.237 4.4364 7.6274 16.809 19.271 25.045 23.57 13.82 7.2131 29.529 9.3857 44.784 6.1938zm-30.503-3.7685c-30.327-9.2298-48.652-36.785-44.847-67.436 2.9658-23.889 20.064-44.22 43.35-51.546 10.414-3.2763 27.232-3.0595 37.233 0.47984 10.505 3.7176 15.828 7.1535 24.301 15.685 12.44 12.53 17.96 25.78 17.96 43.09 0 27.455-16.943 50.759-43 59.145-10.102 3.2508-25.407 3.5077-35.003 0.58742zm18.321-39.575c3.5926-3.1115 7.713-6.4826 9.1565-7.4914 1.4436-1.0088 3.6148-3.8802 4.825-6.381 2.0838-4.306 2.6372-4.7037 10.45-7.5087 8.57-3.0768 10.48-5.2702 5.5-6.3148-1.5125-0.31723-4.6368-1.0008-6.9428-1.5191-2.31-0.52-5.77-0.94-7.69-0.94-1.924 0-3.7946-0.47972-4.157-1.066-0.36237-0.58633-2.4814-2.3863-4.7091-4-4.2989-3.1141-10.932-3.9775-14.771-1.9228-1.6268 0.87062-2.4568 0.17558-5.9715-5-2.66-3.92-4.77-6.01-6.05-6.01-1.79 0-1.96 0.72-1.96 8.37 0 4.8876 0.62453 10.144 1.5 12.626 0.825 2.3383 1.5 5.5237 1.5 7.0787 0 3.6797 1.7702 7.7526 4.8386 11.133l2.4613 2.7113-2.2637 7.9502c-1.245 4.3726-1.9572 8.4462-1.5825 9.0524 0.79609 1.2881 6.1048-2.3152 15.864-10.768zm-11.8 2.09c0.40457-0.9625 0.95517-2.7625 1.2236-4 0.38905-1.7938 1.1739-2.25 3.8714-2.25 1.8609 0 3.3834 0.37469 3.3834 0.83264 0 0.90729-7.4662 7.1674-8.5484 7.1674-0.3661 0-0.33461-0.7875 0.07-1.75zm4.572-10.556c-9.6032-3.3649-10.704-17.302-1.7951-22.734 3.8049-2.32 9.6973-2.5302 13.649-0.4868 2.8346 1.4659 7.0528 8.5681 7.0528 11.875 0 3.5402-2.992 8.6769-6.1898 10.627-3.712 2.2631-7.6711 2.4871-12.717 0.71919zm22.508-13.425c-0.33-0.32-0.6-1.44-0.6-2.47 0-1.6247 0.50682-1.787 3.75-1.2007 2.0625 0.37288 3.8568 0.76262 3.9874 0.86609 0.1306 0.10346-1.286 0.91462-3.1481 1.8026-1.862 0.88795-3.6564 1.3436-3.9874 1.0126zm-31.935-8.9352c-0.36-0.35-0.66-2.21-0.66-4.12v-3.4682l2.0957 2.6643c2.5798 3.2797 1.3079 7.6757-1.429 4.9388zm191.19-33.29c1.2138-1.7659 1.5081-1.8103 2.8829-0.4356 0.84208 0.84208 2.7088 1.4388 4.1482 1.3261 1.4394-0.11272 3.424 0.14023 4.4103 0.56211 0.98622 0.42188 2.1112 0.44631 2.5 0.0543 1.2342-1.2445 0.37717-13.811-0.99999-14.662-1.935-1.1959-2.6427 0.137-2.9831 5.6188-0.25253 4.0658-0.68076 5.0606-2.31 5.3662-1.9403 0.36401-1.9458 0.31499-0.18486-1.6417 2.1658-2.4066 0.81762-3.7166-2.872-2.7906-2.12 0.53-2.44 0.27-2.44-1.99 0-2.84-4.87-8.44-7.35-8.44-0.82744 0-2.5527 1.3394-3.834 2.9766-2.1195 2.7082-2.6895 2.913-6.3225 2.2712l-3.993-0.70541 4-0.52115c3.1596-0.41167 4-0.94135 4-2.5212 0-1.7809-0.67997-2.0044-6.2066-2.0399-3.4136-0.022-6.5261-0.35945-6.9167-0.75-1.1958-1.1958-6.8862-0.78922-8.8282 0.63072-1.5008 1.0974-1.7431 2.2829-1.335 6.5299 0.27423 2.854 0.11337 5.4272-0.35748 5.7182-1.2638 0.78105-1.0397 4.8274 0.34392 6.211 1.9878 1.9878 7.9192 1.4366 10.486-0.97431 1.27-1.19 2.31-1.66 2.31-1.03 0 2.3177 3.8964 3.4077 6.8732 1.9227 2.51-1.2522 3.0453-1.1976 5.1758 0.52759 2.8854 2.3365 7.7792 1.7308 9.8028-1.2133zm-7.83-5.78c0.0271-6.6415 2.9378-8.1338 5.0465-2.5874 1.1825 3.1103-0.39453 6.3374-3.097 6.3374-1.6065 0-1.962-0.68385-1.9495-3.75zm-23.349 2.0833c-1.33-1.32-0.63-3.33 1.16-3.33 2.3592 0 3.1651 0.84053 2.4908 2.5978-0.56538 1.4733-2.5255 1.8675-3.6574 0.73556zm9.33-1.77c0-1.12 1-1.56 3.58-1.56 4.5183 0 4.174 2.3606-0.41034 2.8134-2.3446 0.23154-3.173-0.0948-3.173-1.25zm-5.75-6.2691c-3.1962-0.61563-2.7856-1.9887 0.75-2.5076 2.3992-0.35213 3-0.0745 3 1.3865 0 1.0048-0.3375 1.7655-0.75 1.6906s-1.7625-0.3312-3-0.56955zm827.39 5.2357c-7.8923-17.239-28.012-41.833-44.209-54.04-13.555-10.216-25.264-15.07-54.433-22.564-10.433-2.6805-14.939-3.2911-27.248-3.6921-27.946-0.91042-48.867 3.4728-75.346 15.787-17.397 8.0901-26.963 15.767-34.868 27.98-7.6336 11.794-11.81 23.059-4.7524 12.82 14.252-20.678 53.505-41.985 89.215-48.428 11.619-2.0964 44.505-2.0603 55.491 0.0609 10.492 2.0257 24.261 6.0183 30.784 8.9264 2.8738 1.2812 6.0542 2.6218 7.0676 2.9792 4.1438 1.461 16.818 11.149 23.439 17.918 12.367 12.641 24.966 29.829 32.784 44.726 3.0379 5.7888 4.0076 6.9832 4.255 5.2411 0.1762-1.241-0.8039-4.7122-2.178-7.7136zm-1094.2-8.26c1.802-11.123 20.209-29.195 40.17-39.44 21.69-11.133 42.434-15.658 72.981-15.92 15.83-0.13578 27.171 1.76 50.281 8.405 6.2495 1.7969 21.38 11.675 33.077 21.595 4.5972 3.8986 8.6284 7.0884 8.9582 7.0884 1.5124 0-9.1991-9.829-17.317-15.89-19.031-14.21-26.796-17.868-45.863-21.607-13.142-2.5774-14.989-2.6945-35.5-2.2512-23.15 0.5004-32.112 1.8376-48.637 7.2574-14.62 4.795-32.233 14.836-42.852 24.428-8.6127 7.7805-17.648 22.161-17.648 28.089 0 4.1454 1.5844 2.9623 2.3484-1.7536zm789.89-83.212c52.31-16.604 84.21-21.042 151.26-21.042 37.47 0 62.924 1.4128 107.5 5.9668 5.225 0.53379 13.55 1.2147 18.5 1.513 26.027 1.5689-18.688-4.9247-51.5-7.4789-37.54-2.9222-46.489-3.2066-86-2.7335-42.309 0.50662-58.213 1.678-84.5 6.224-19.512 3.3742-45.351 10.786-59.35 17.023-9.4366 4.2048-8.0576 4.3826 4.0882 0.52724zm316.06 166.69c-1.1893-1.5245-10.308-29.046-9.7936-29.56 0.2013-0.20134 35.707-0.0354 78.902 0.36869 75.124 0.70285 78.494 0.81278 77.574 2.5305-0.5784 1.0807-2.4524 1.9659-4.7065 2.223-2.06 0.23499-1.0636 0.2578 2.2142 0.0507 3.2778-0.20712 9.1278-1.2308 13-2.2749 11.853-3.196 13.576-3.3065 7.5403-0.48363-10.567 4.9424-26.086 8.2083-63.566 13.377-7.7365 1.0669-14.712 2.1752-15.5 2.4628-1.8244 0.66549-19.126 3.1606-38.434 5.5425-28.363 3.4992-37.846 4.9592-38.872 5.9848-1.4377 1.4376-7.1824 1.285-8.3581-0.22215zm-552.51-0.72303c-125.34-0.37813-199.09-0.95542-199.69-1.5632-1.4085-1.4227-11.04-20.758-11.058-22.198-0.0121-0.97769 43.128-1.105 207.23-0.61131 113.99 0.34288 207.44 0.78539 207.67 0.98335 0.22841 0.19797 0.61908 3.8801 0.86814 8.1825 0.35607 6.1509 0.0772 8.5553-1.3048 11.251-1.6797 3.2767-3.403 5.0955-4.4786 4.7267-0.275-0.0943-89.931-0.44123-199.24-0.77097zm-578.98-8.37c-2.5818-0.72914-5.4179-1.9263-6.3024-2.6604-0.88452-0.73408-3.2529-1.602-5.2631-1.9288-3.9869-0.64806-4.2181-1.1682-5.642-12.693l-0.63242-5.1189 4.7671-0.60904c2.622-0.33 12.192-0.37 21.267-0.09l16.5 0.5179 0.61645 8.21c0.33905 4.5155 0.9578 9.6726 1.375 11.46l0.75855 3.25-4.875 0.007c-2.6812 0.004-7.8 0.22642-11.375 0.49446-3.8852 0.29131-8.3884-0.0459-11.194-0.83835zm-29.306-1.16c-10.147-1.6484-19.471-4.1172-25.379-6.7198-2.5414-1.1195-7.0562-2.7812-10.033-3.6925-3.0845-0.94436-5.88-2.5028-6.5-3.6236-0.598-1.08-3.371-4.66-6.162-7.96-2.79-3.3-5.401-6.89-5.802-7.97-0.9959-2.69-3.6679-29.82-3.0026-30.48 0.2937-0.3 3.0866-0.77 6.2066-1.04l5.672-0.51 0.28665-9.7864c0.20203-6.8975 0.61661-9.5824 1.4044-9.0955 1.4384 0.88897 4.4068 1.3082 14.559 2.0561 4.9829 0.36708 8.2602 1.0469 8.2758 1.7168 0.14049 6.0391 2.2496 21.749 3.4952 26.033 2.4317 8.3646 11.636 19.524 18.976 23.007 3.1602 1.4996 3.1734 1.5383 4.3565 12.786 1.1103 10.556 1.3795 11.459 4.1823 14.032l2.9956 2.75-2.7658-0.0989c-1.52-0.04-6.365-0.67-10.765-1.39zm394.66-21.206c-0.5985-1.1183-0.80401-2.3174-0.45669-2.6648 0.34732-0.34731 94.104-0.63148 208.35-0.63148 206.88 0 207.72 0.008 208.24 2 0.51974 1.9875 0.0307 2-78.218 2-43.307 0-136.81 0.29914-207.78 0.66475l-129.04 0.66474-1.0882-2.0333zm505.34 0.88c-1.1-0.21983-2.3306-0.91013-2.7347-1.534-0.52645-0.81282-0.73902-0.78003-0.75 0.11568-0.012 0.97917-8.7901 1.25-40.515 1.25-26.333 0-40.5-0.34979-40.5-1 0-0.55-0.1125-1.3375-0.25-1.75s19.663-0.975 44-1.25c29.19-0.32983 44.226-0.15966 44.18 0.5-0.17942 2.5377-1.582 4.0376-3.4301 3.6683zm416.73-1.6907c-1.048-1.189-0.8041-2.3751 1.3708-6.6671 6.258-12.35 16.744-38.558 16.929-42.311 0.1082-2.2 0.2604-8.5 0.3382-14l0.1415-10 11.628 0.003 11.628 0.003 2.8176 6.1597c3.4928 7.6358 6.9303 17.975 6.8988 20.749-0.013 1.1467-1.136 4.7848-2.4954 8.0848s-2.4737 6.6786-2.4763 7.508c-0.01 2.2512-4.8631 11.092-7.87 14.327-5.92 6.3695-23.729 16.167-27.928 15.364-1.3718-0.26224-3.99 0.14818-5.8182 0.91204-3.954 1.6521-3.5806 1.6617-5.163-0.13353zm-161.65-1.4011c-4.6506-0.38739-7.0733-1.0365-7.384-1.9784-0.3785-1.1478 0.6946-1.2845 5.9217-0.75463 3.5111 0.35595 40.504 0.66554 82.205 0.68799 58.992 0.0318 75.732 0.31023 75.417 1.2546-0.3121 0.93634-17.416 1.2313-74.821 1.2904-40.929 0.0421-77.531-0.18289-81.338-0.5zm-1137.6-3.88c-6.8445-0.32404-9.2006-1.4015-7.2753-3.3269 1.7718-1.7718 44.482-0.11736 44.077 1.7074-0.23419 1.054-3.657 1.4214-15.302 1.6425-8.25 0.15663-17.925 0.1463-21.5-0.023zm1127.7-4.4585c-0.9587-2.2447-1.4817-4.3428-1.1623-4.6624 0.8949-0.89551 170.65-1.2586 171.45-0.36667 0.388 0.43202 0.088 2.248-0.6674 4.0355l-1.3728 3.25-72.747 0.15404c-40.011 0.0847-77.194 0.0422-82.63-0.0945-5.8336-0.14671-10.138 0.16401-10.505 0.75838-0.3423 0.55381-1.4066-0.82965-2.3652-3.0743zm-661.84 2.5012-91.593-0.2552-1.1567-3.8608c-0.59-2.11-1.11-4.21-1.11-4.65 0-0.64824 419.01 0.18033 419.63 0.82979 0.10291 0.10833 0.33916 1.997 0.52499 4.197l0.33788 4h-117.49c-64.622 0-158.71-0.11484-209.09-0.25521zm331.76 0.0885c-0.32-0.36-0.62-2.39-0.62-4.5v-3.83l35.25-0.12305c19.388-0.0677 40.096-0.22798 46.018-0.35622l10.768-0.23318-0.59625 3.6062c-0.32794 1.9834-0.77207 4.1687-0.98696 4.8562-0.30485 0.97535-10.139 1.25-44.755 1.25-24.401 0-44.665-0.3-45.031-0.66667zm-817.36-8.58-2.638-2.75h29.687c21.947 0 29.687-0.3 29.687-1.17 0-0.64166 0.19055-0.97611 0.42344-0.74322 0.2329 0.2329 0.10189 1.9954-0.29112 3.9167l-0.71457 3.4932h-26.758-26.758l-2.6384-2.75zm458.49-128.49c-5.08-0.26-6.75-0.71-6.75-1.81 0-1.05 1.21-1.45 4.38-1.45 3.5424 0 4.4837-0.38372 4.9064-2 0.68403-2.6157 2.331-2.5584 3.0276 0.10536 1.0561 4.0385 3.1707 1.3715 3.7137-4.6839 0.78583-8.7628 2.7879-11.769 14.553-21.853 3.1105-2.6662 4.3617-3.2225 5.25-2.3342 1.1555 1.1555 1.7081 14.766 0.59949 14.766-0.3117 0-2.1071-1.1749-3.9899-2.611-4.7433-3.6179-7.5903-2.7354-10.39 3.2206-2.347 4.9929-3.719 13.213-2.6643 15.962 0.60485 1.5762 0.78458 1.5809 2.4604 0.0643 1.0656-0.96439 3.5204-1.6361 5.9792-1.6361 3.3962 0 4.1713 0.34474 4.1713 1.8554 0 1.561-1.0711 1.9566-6.75 2.4929-3.7125 0.35062-7.875 0.55255-9.25 0.44874s-5.5375-0.34617-9.25-0.53858zm16.521-11.239c0.31816-2.372 1.4461-5.1805 2.5066-6.2409 1.9042-1.9042 1.9866-1.8775 6.6363 2.1468 5.2723 4.5632 5.0044 4.4568 7.6523 3.0397 1.76-0.94 1.94-2.21 1.94-13.53v-12.487l5.25-5.0662c14.245-13.746 36.462-31.203 55.182-43.359 26.153-16.982 25.765-16.797 35.433-16.96 4.7495-0.07977 24.387-0.72561 43.64-1.4352 35.02-1.2907 57.694-0.92956 116.5 1.8556 10.725 0.508 25.512 0.94294 32.859 0.96653 12.453 0.03998 13.52 0.19549 15.733 2.2929l2.3737 2.25 0.0173 43.75 0.01 43.748-115.75 0.12c-127.54 0.12919-205.73 1.0079-208.65 2.345-1.7534 0.80111-1.8582 0.52886-1.3255-3.4429zm330.97-42.77c0.14328-24.062 0.61034-43.75 1.0379-43.75 0.42757 0 0.91599 18.45 1.0854 41 0.16938 22.55 0.65951 42.238 1.0892 43.75 0.67693 2.383 0.49729 2.75-1.3459 2.75h-2.1271l0.26051-43.75zm6.9892 0.75037c0.31205-49.455-1.0513-44.712 11.603-40.369 8.4738 2.908 20.429 8.735 26.8 13.062 6.5902 4.4763 21.871 18.142 27.668 24.744 6.3 7.173 13.7 17.103 13.7 18.383 0 1.0188-5.2426 2.7317-22 7.1877-21.137 5.6207-32.133 10.001-44.148 17.585-2.724 1.7196-5.251 2.4065-8.8533 2.4065h-5.0412l0.27132-43zm-649.98 31.3-12.25-0.36v-3.4041c0-1.8723-0.43886-4.5584-0.97525-5.9692l-0.97-2.57h45.383 45.383l0.39212 5.75c0.21566 3.1625 0.21998 5.975 0.01 6.25-0.45413 0.59359-59.399 0.82556-76.967 0.3029zm-60.927-14.616c-1.6672-2.1158-1.7799-4.031-1.3226-22.459 0.46302-18.656 0.64791-20.258 2.5-21.655 1.7408-1.3133 11.74-1.513 77.169-1.5406 65.264-0.02761 76.003 0.17652 81.5 1.5491 12.186 3.043 17.769 5.5734 22.775 10.32 4.4781 4.2471 4.901 5.0643 5.5322 10.69 1.3726 12.233-4.4782 18.977-20.417 23.535-7.8363 2.241-13.967 2.4007-16.618 0.43294-1.6553-1.2288-9.892-1.3616-55.941-0.90224-29.891 0.29817-54.424 0.94149-54.95 1.4409-0.5225 0.49624-9.3773 0.90225-19.677 0.90225-18.38 0-18.761-0.0429-20.55-2.313z"/>
</svg>
