<?xml version="1.0" encoding="UTF-8" standalone="no"?>
<!-- Created with Inkscape (http://www.inkscape.org/) -->

<svg
   xmlns:dc="http://purl.org/dc/elements/1.1/"
   xmlns:cc="http://creativecommons.org/ns#"
   xmlns:rdf="http://www.w3.org/1999/02/22-rdf-syntax-ns#"
   xmlns:svg="http://www.w3.org/2000/svg"
   xmlns="http://www.w3.org/2000/svg"
   xmlns:sodipodi="http://sodipodi.sourceforge.net/DTD/sodipodi-0.dtd"
   xmlns:inkscape="http://www.inkscape.org/namespaces/inkscape"
   id="svg3368"
   height="428"
   viewBox="0 0 1438 428"
   width="1438"
   version="1.1"
   inkscape:version="0.91 r13725"
   sodipodi:docname="sentinel.svg">
  <defs
     id="defs3358" />
  <sodipodi:namedview
     pagecolor="#ffffff"
     bordercolor="#666666"
     borderopacity="1"
     objecttolerance="10"
     gridtolerance="10"
     guidetolerance="10"
     inkscape:pageopacity="0"
     inkscape:pageshadow="2"
     inkscape:window-width="640"
     inkscape:window-height="480"
     id="namedview3356"
     showgrid="false"
     inkscape:zoom="0.24200278"
     inkscape:cx="332.6408"
     inkscape:cy="214"
     inkscape:window-x="0"
     inkscape:window-y="0"
     inkscape:window-maximized="0"
     inkscape:current-layer="svg3368" />
  <metadata
     id="metadata3374">
    <rdf:RDF>
      <cc:Work
         rdf:about="">
        <dc:format>image/svg+xml</dc:format>
        <dc:type
           rdf:resource="http://purl.org/dc/dcmitype/StillImage" />
        <dc:title />
      </cc:Work>
    </rdf:RDF>
  </metadata>
  <path
     id="path3378"
     d="m 1128.0354,421.28 c 13.037,-1.8137 31.434,-9.089 43.218,-17.091 18.984,-12.892 34.588,-34.867 40.253,-56.692 6.3203,-24.345 4.3968,-46.034 -6.0596,-68.325 -12.86,-27.416 -34.354,-45.996 -63.411,-54.817 -8.43,-2.5588 -10.203,-2.7333 -28,-2.7557 -17.882,-0.0225 -19.517,0.13585 -27.782,2.6917 -17.925,5.5429 -32.384,14.379 -44.72,27.33 -16.249,17.059 -24.494,34.865 -27.983,60.435 -2.147,15.734 1.5336,36.079 9.5158,52.601 17.111,35.417 52.894,57.751 91.626,57.19 5.6886,-0.0824 11.693,-0.33765 13.343,-0.56719 z m -28.401,-15.337 c -31.66,-5.13 -58.16,-28.8 -68.25,-60.94 -2.0889,-6.6587 -2.3505,-9.407 -2.3322,-24.5 0.02,-16.574 0.1027,-17.238 3.2919,-26.5 10.326,-29.988 34.528,-51.379 65.114,-57.552 11.241,-2.2687 30.361,-1.5594 41.035,1.5222 10.009,2.8895 23.207,9.8404 31.193,16.428 12.405,10.232 23.186,27.205 28.014,44.102 3.305,11.568 3.3022,33.451 -0.01,45 -12.338,43.075 -53.989,69.598 -98.064,62.446 z m 29.9,-6.37 c 15.549,-3.2833 28.149,-9.9157 39.724,-20.911 28,-26.597 33.153,-67.516 12.646,-100.42 -24.607,-39.48 -79.513,-49.308 -116.24,-20.806 -15.501,12.031 -25.354,27.682 -29.687,47.156 -2.3373,10.506 -1.6026,29.14 1.5342,38.91 5.0624,15.769 13.608,28.74 25.589,38.842 7.5231,6.3429 21.334,13.559 30.929,16.161 8.232,2.2322 27.269,2.8037 35.5,1.0658 z m -39.167,-7.8134 c -12.38,-4.0202 -20.328,-9.0346 -30.356,-19.152 -7.151,-7.2144 -9.9039,-10.867 -13.268,-17.603 -6.4699,-12.955 -8.5427,-22.694 -7.9651,-37.423 0.83,-20.96 6.89,-34.78 21.77,-49.58 14.404,-14.328 28.8,-20.852 48.022,-21.764 14.521,-0.68829 24.402,1.3773 37.908,7.9249 9.0286,4.377 11.621,6.2407 19.138,13.758 7.5221,7.5221 9.3767,10.103 13.752,19.138 5.71,11.78 8.17,21.86 8.17,33.44 0,34.874 -24.339,65.286 -58.5,73.095 -9.5702,2.1879 -29.129,1.257 -38.667,-1.8404 z m 39.089,-4.8088 c 25.989,-6.8051 45.672,-27.646 50.642,-53.62 2.9235,-15.28 1.0304,-28.398 -6.2494,-43.305 -11.799,-24.16 -37.31,-39.125 -64.317,-37.729 -25.294,1.3074 -47.564,16.195 -58.405,39.044 -13.431,28.307 -5.7671,62.307 18.548,82.286 7.0055,5.7561 19.543,11.813 28.557,13.795 9.6408,2.1201 22.045,1.933 31.225,-0.47103 z m -29.791,-37.471 c -19.005,-10.344 -22.992,-35.71 -7.9735,-50.729 7.064,-7.064 12.406,-9.2243 22.841,-9.2363 7.8814,-0.009 8.973,0.25066 15,3.569 19.323,10.639 22.779,35.552 7.0566,50.866 -7.0159,6.8337 -13.279,9.16 -23.569,8.7544 -6.5857,-0.25956 -8.9638,-0.83361 -13.355,-3.2238 z m 20.874,-4.3515 c 13.773,-4.5095 21.302,-17.67 17.531,-30.642 -3.1793,-10.936 -12.274,-17.824 -23.594,-17.868 -5.4798,-0.0215 -7.4503,0.47499 -12,3.0233 -6.3104,3.5345 -11.455,10.922 -12.511,17.965 -1.4708,9.8082 4.1936,20.859 12.928,25.221 5.015,2.5046 13.603,3.6243 17.646,2.3006 z m -779.49998,76.21 c 26.389,-4.2014 50.856,-18.743 66.525,-39.537 23.109,-30.668 26.919,-70.922 9.9671,-105.31 -10.771,-21.847 -28.832,-38.914 -51.441,-48.608 -8.4101,-3.606 -17.295,-5.6721 -29.051,-6.756 -43.166,-3.9796 -82.459,17.893 -100.97,56.204 -13.392,27.718 -13.392,59.601 0,87.32 13.216,27.355 36.89,46.642 66.902,54.504 7.9414,2.0805 30.555,3.3749 38.067,2.179 z m -35.5,-16.844 c -3.575,-0.92634 -10.626,-3.6601 -15.67,-6.075 -21.829,-10.452 -37.93,-29.367 -45.477,-53.424 -2.0889,-6.6587 -2.3505,-9.407 -2.3322,-24.5 0.02,-16.574 0.1027,-17.238 3.2919,-26.5 10.519,-30.549 36.713,-53.212 67.116,-58.069 29.217,-4.6674 57.098,4.6368 77.186,25.757 17.041,17.918 24.932,39.459 23.557,64.311 -2.1646,39.131 -29.451,70.724 -68.672,79.509 -8.4468,1.892 -29.948,1.335 -39,-1.0104 z m 37,-4.9305 c 15.549,-3.2833 28.149,-9.9157 39.724,-20.911 32.6,-30.967 33.54,-81.667 2.1095,-113.86 -27.844,-28.52 -74.119,-31.701 -105.86,-7.2773 -15.018,11.556 -25.256,27.876 -29.526,47.069 -2.3373,10.506 -1.6026,29.14 1.5342,38.91 5.0625,15.769 13.608,28.74 25.589,38.842 7.5231,6.3429 21.334,13.559 30.929,16.161 8.232,2.2322 27.269,2.8037 35.5,1.0658 z m -31.266,-6.0369 c -26.662,-5.6499 -48.229,-26.172 -55.931,-53.222 -2.8809,-10.118 -3.0867,-28.483 -0.4292,-38.309 6.964,-25.75 25.666,-44.993 51.662,-53.156 6.4009,-2.0099 9.4601,-2.3353 21.465,-2.2832 12.25,0.0533 14.958,0.38036 21.667,2.6173 12.505,4.1697 20.38,9.1542 30.363,19.219 15.2,15.32 21.5,30.54 21.5,52.1 0,13.65 -2.245,23.326 -7.9554,34.287 -10.021,19.236 -27.017,32.737 -48.045,38.167 -9.1509,2.3628 -24.613,2.6238 -34.266,0.57819 z m 31.098,-6.0648 c 3.4824,-0.75589 10.007,-3.169 14.5,-5.3626 24.2,-11.82 38.7,-34.88 38.7,-61.61 0,-29.966 -19.018,-56.04 -47.5,-65.122 -36.17,-11.534 -74.121,8.4585 -86.286,45.455 -3.5598,10.826 -3.7129,27.328 -0.3541,38.167 3.8618,12.462 8.7354,20.639 17.638,29.593 13.298,13.375 30.379,20.455 49.003,20.31 4.4,-0.0342 10.849,-0.68059 14.332,-1.4365 z m -26.332,-41.857 c -5.9994,-2.8445 -11.784,-8.6392 -14.085,-14.11 -2.3789,-5.6558 -2.2323,-15.864 0.3105,-21.613 4.3801,-9.902 13.764,-16.011 24.692,-16.074 10.623,-0.0613 18.808,4.6935 24.421,14.187 2.3194,3.9227 2.6608,5.5905 2.6608,13 0,7.4572 -0.335,9.0698 -2.7304,13.145 -5.3505,9.1017 -13.437,13.804 -23.77,13.824 -4.7849,0.009 -7.8193,-0.61336 -11.5,-2.3585 z m 20.071,-5.4471 c 10.274,-4.8063 15.15,-17.578 10.564,-27.671 -7.2325,-15.921 -30.003,-16.705 -37.927,-1.3071 -5.0478,9.8088 -1.9397,21.614 7.1741,27.249 6.1821,3.8221 14.24,4.5126 20.188,1.7298 z m -97.258,53.382 c 2.4299,-2.4299 2.1138,-4.1907 -1.6894,-9.4103 -5.4778,-7.518 -14.36,-26.027 -16.546,-34.478 -9.9353,-38.418 -0.111,-76.325 27.337,-105.48 10.72,-11.386 27.314,-21.847 43.136,-27.196 13.1,-4.38 23.1,-5.97 37.8,-5.97 11.35,0 14.615,0.40496 25.14,3.1177 20.346,5.2443 36.347,14.634 52.549,30.835 19.832,19.832 30.003,44.949 30.034,74.166 0.02,19.357 -3.8711,37.122 -12.569,57.381 -3.7618,8.7625 -4.0327,10.096 -2.1682,10.673 0.6875,0.21272 10.475,0.0294 21.75,-0.40745 18.167,-0.70382 147.12,-1.1621 480.2,-1.7068 l 100.69998,-0.16466 -5.0484,-7.697 c -6.9268,-10.561 -9.3262,-16.345 -12.323,-29.705 -3.2771,-14.611 -4.0762,-27.163 -2.5969,-40.79 1.476,-13.596 3.9504,-21.759 10.129,-33.417 6.1544,-11.611 10.454,-17.775 19.194,-27.519 8.5291,-9.5086 16.564,-15.644 28.035,-21.406 23.271,-11.69 41.467,-15.052 66.956,-12.373 18.874,1.984 34.434,8.5502 52.372,22.101 15.192,11.476 27.149,27.397 35.235,46.913 5.6617,13.665 7.5828,23.799 7.5828,40 0,18.945 -3.0926,32.441 -11.048,48.217 -1.3083,2.5942 -2.3787,5.1817 -2.3787,5.75 0,1.5331 6.573,1.2526 7.8921,-0.33671 2.0802,-2.5066 12.449,-6.4466 26.608,-10.111 7.7,-1.9927 16.916,-4.517 20.48,-5.6096 3.5638,-1.0926 11.214,-3.0633 17,-4.3795 13.057,-2.9701 32.911,-9.5801 43.612,-14.519 4.4504,-2.0543 14.957,-8.2971 23.348,-13.873 8.36,-5.57 16.06,-10.13 17.07,-10.13 1.5018,0 2.9452,-3.3626 7.8341,-18.25 9.313,-28.35 12.893,-41.61 14.057,-52.05 1.438,-12.89 1.366,-22.94 -0.177,-24.94 -1.714,-2.2181 -8.4631,-5.495 -13,-6.312 -3.2823,-0.59107 -3.75,-1.0254 -3.75,-3.4822 0,-6.0092 0.5981,-5.8506 -20.327,-5.3905 -10.545,0.23186 -26.766,0.83603 -36.045,1.3426 -9.2796,0.50657 -17.539,0.66506 -18.354,0.3522 -2.0542,-0.78828 -1.1864,-5.4352 3.6255,-19.413 9.1281,-26.515 14.466,-39.843 16.176,-40.386 0.9511,-0.30185 11.255,-0.92398 22.897,-1.3825 12.061,-0.47501 21.612,-1.2783 22.201,-1.8671 0.7113,-0.71126 0.6894,-2.6376 -0.07,-6.1791 -2.4971,-11.644 -1.0094,-17.094 6.9678,-25.529 5.4744,-5.7884 5.8295,-7.8448 1.6302,-9.4414 -5.161,-1.9622 -31.705,-4.0191 -58.702,-4.5487 -15.675,-0.30753 -39.75,-0.78122 -53.5,-1.0526 -13.75,-0.27142 -30.248,-0.77582 -36.661,-1.1209 l -11.661,-0.62738 -7.9277,-5.6669 c -15.28,-10.921 -58.63,-33.516 -82.25,-42.874 -4.125,-1.6341 -9.975,-4.0993 -13,-5.4784 -12.484,-5.6911 -50.653,-18.023 -67.331,-21.754 -6.5754,-1.4708 -7.1198,-1.1482 -8.2857,4.9098 -0.7817,4.0616 -0.1766,4.5238 8.001,6.1115 11.939,2.318 30.267,7.9041 41.004,12.497 14.838,6.3474 39.149,18.606 50.089,25.258 9.7962,5.9559 29.379,20.44 39.134,28.946 4.8354,4.216 6.8183,5.323 9.5,5.3036 4.7264,-0.0341 11.37,-1.6779 16.187,-4.0053 5.3282,-2.5743 7.3016,-2.4853 10.836,0.48848 l 2.9221,2.4588 -2.2777,1.4217 c -2.44,1.53 -19.14,3.66 -28.65,3.66 -4.6373,0 -6.1935,-0.42491 -7.7142,-2.1063 -4.54,-5.01 -37.01,-28.551 -48.41,-35.087 -28.06,-16.092 -79.8,-37.769 -90.26,-37.818 -5.5281,-0.02614 -6.0997,-0.92539 -4.7429,-7.4612 0.7417,-3.5725 0.8371,-6.0913 0.253,-6.6754 -1.11,-1.107 -17.85,-4.131 -34.75001,-6.276 -28.31,-3.5935 -43,-4.072 -125,-4.072 -86.352,0 -89.978,0.15809 -126.5,5.5148 -18.435,2.7039 -57.229,11.278 -73,16.134 -36.51,11.242 -70.041,26.728 -107.41,49.61 -17.502,10.715 -36.498,25.451 -48.561,37.67 l -7.48,7.57 10.98,-0.02 10.97,-0.01 4,-4.0988 c 13.289,-13.617 62.449,-45.172 95,-60.979 20.862,-10.131 28.493,-13.246 45,-18.368 6.6,-2.048 12.578,-4.1957 13.284,-4.7728 0.79492,-0.64943 1.1759,-2.8016 1,-5.6483 -0.26,-4.275 -0.11,-4.602 2.13,-4.602 1.8479,0 2.7057,0.81718 3.6739,3.5 0.69473,1.925 1.2974,4.9079 1.3392,6.6287 0.0899,3.6984 -0.62171,4.0642 -15.424,7.9275 -34.16,8.9156 -104.6,47.28 -132.28,72.048 -5.8938,5.2727 -12.04,10.275 -13.657,11.116 -3.7249,1.9367 -19.035,1.2538 -28.481,-1.2703 -4.4033,-1.1767 -6.9178,-1.4085 -8,-0.73733 -3.5298,2.189 -12.988,3.2967 -41.078,4.8107 -73.393,3.9557 -136.52,10.511 -169,17.55 -37.85,8.2024 -55.1,14.568 -90.5,33.396 -25.251,13.431 -39.703,28.252 -55.245,56.66 -4.647,8.4936 -6.9014,14.631 -10.788,29.371 -3.4087,12.926 -3.0181,16.805 2.4974,24.798 4.1174,5.9667 4.165,6.1336 3.0314,10.632 -2.3202,9.2081 -6.1321,28.962 -8.5042,44.07 -2.7996,17.831 -1.1549,15.446 -18.932,27.457 -7.969498,5.3847 -10.477998,6.6089 -12.652998,6.174 -2.2824,-0.45647 -2.8138,-0.13806 -3.3526,2.0087 -1.6018,6.3819 5.9178,8.3485 32.099998,8.3955 29.266,0.0525 89.785,1.8312 97.846,2.8758 18.797,2.4359 18.034,2.4115 19.813,0.63284 z m 406.7,-30.52 c -76.175,-0.0254 -139.1,-0.4254 -139.83,-0.88887 -2.9091,-1.8442 -3.5088,-16.65 -3.5898,-88.627 -0.0635,-56.485 0.2102,-73.576 1.2704,-79.315 0.74325,-4.0234 1.0796,-7.587 0.74755,-7.9191 -0.3321,-0.3321 -16.015,0.82887 -34.851,2.5799 -18.836,1.7511 -38.073,3.4393 -42.748,3.7516 -4.675,0.31232 -9.1593,0.77876 -9.9652,1.0365 -0.8663,0.27713 1.5282,2.0929 5.8587,4.4427 14.11,7.6564 24.876,17.602 33.824,31.247 6.3823,9.7327 10.119,18.519 13.41,31.533 3.4273,13.551 3.6122,17.184 0.4087,8.0274 -12.128,-34.665 -31.381,-56.311 -64.351,-72.35 -5.6143,-2.7312 -10.077,-5.3585 -9.917,-5.8386 0.16,-0.48005 2.7527,-0.99927 5.7614,-1.1538 18.262,-0.93804 100.77,-8.1106 103.55,-9.0022 0.5933,-0.19003 2.9736,-4.2945 5.2895,-9.121 4.6532,-9.6976 11.025,-19.087 16.534,-24.365 3.2158,-3.0806 4.9479,-6.0066 2.7527,-4.6498 -1.0833,0.66949 -30.305,3.1468 -54.155,4.5911 -52.004,3.1492 -80.412,5.363 -110,8.5721 -29.194,3.1664 -59.616,8.0884 -77.5,12.539 -24.004,5.9737 -66.757,21.179 -90.5,32.187 -4.9701,2.3043 -15,8.9092 -15,9.8778 0,0.64663 9.6502,0.77052 27.75,0.35625 l 27.75,-0.63514 -3.5,3.1859 c -1.925,1.7523 -2.825,2.8808 -2,2.5078 0.825,-0.37299 0.4875,0.0726 -0.75,0.99013 -1.2375,0.91756 -2.25,2.2186 -2.25,2.8912 0,1.918 -14.045,20.42 -20.278,26.713 -10.122,10.219 -20.306,14.635 -35.722,15.491 -15.608,0.86678 -27.068,-2.3117 -35.25,-9.7765 l -4.2505,-3.8782 6.5,2.9582 c 7.0321,3.2004 15.44,5.4923 23.75,6.4742 7.6151,0.89982 6.4893,-0.92939 -1.8262,-2.9672 -7.7918,-1.9095 -15.69,-6.6031 -17.638,-10.481 -3.0184,-6.0089 -0.3872,-18.617 4.9373,-23.657 1.8026,-1.7065 4.3109,-3.6338 5.574,-4.2828 3.3952,-1.7447 16.233,-5.0092 19.806,-5.0364 1.7062,-0.0129 4.6312,-1.1173 6.5,-2.4541 13.742,-9.8297 28.874,-17.864 45.498,-24.159 70.215,-26.584 106.69,-32.45 254.4,-40.907 23.925,-1.37 45.525,-2.7859 48,-3.1465 6.776,-0.98729 19,-7.9284 19,-10.789 0,-1.7546 12.665,-13.665 21.5,-20.218 19.62,-14.563 54.35,-35.305 73.46,-43.88 29.55,-13.261 80.3,-28.366 112.37,-33.443 41.63,-6.592 130.29,-9.798 166.17,-6.008 28.44,3.0039 71.443,12.143 86.00003,18.278 5.9143,2.4923 27.872,15.727 38.5,23.205 19.837,13.958 46,39.817 46,45.465 0,1.5975 -0.4537,3.1849 -1.0082,3.5276 -0.8454,0.52248 -46.945,2.4834 -142.49003,6.061 -9.9,0.37069 -18.308,0.85343 -18.685,1.0728 -0.3767,0.21932 1.4792,4.5605 4.1242,9.647 3.2058,6.165 5.5606,12.5 7.0631,19.002 l 2.254,9.7542 3.1218,-0.48118 c 1.72,-0.26 11.44,-0.73 21.62,-1.04 15.068,-0.4522 191.42003,-7.8402 239.00003,-10.013 7.0146,-0.32026 13.107,-0.16704 13.882,0.34915 1.1139,0.74133 1.0169,1.0242 -0.5,1.4577 -3.3856,0.96754 -5.0886,1.0479 -172.88,8.1604 -45.1,1.9117 -86.88503,3.7718 -92.85603,4.1336 l -10.856,0.65779 0.58722,3.6723 c 3.0009,18.767 3.0475,50.565 0.10288,70.242 -6.881,45.982 -27.172,92.631 -51.087,117.45 l -6.1092,6.3398 -35.391,0.26295 c -19.465,0.14462 -42.816,0.16434 -51.891,0.0438 -9.075,-0.12052 -78.825,-0.23991 -155,-0.26532 z m 240.91,-8.02 c 8.19,-7.44 21.27,-25.21 27,-36.7 12.89,-25.84 21.85,-55.18 25.58,-83.8 2.3411,-17.93 1.8601,-66.638 -0.68147,-69 -0.78466,-0.7293 -78.56,2.8642 -151.81,7.0141 -31.932,1.8091 -84.907,4.0061 -144.5,5.9928 -66.799,2.227 -127.85,5.5094 -129.29,6.9515 -1.0897,1.0897 -3.1782,12.737 -4.1127,22.936 -2.4708,26.965 -3.1103,71.36 -1.7191,119.36 l 0.87679,30.25 140.12,0.17243 c 77.068,0.0948 161.4,0.20733 187.4,0.25 l 47.27,0.08 3.86,-3.5 z m -696.11,-101.74 c 6.8008,-2.8068 15.778,-9.981 24.834,-19.847 4.6177,-5.0306 8.3959,-9.4687 8.3959,-9.8624 0,-0.39372 1.575,-2.6379 3.5,-4.9872 1.925,-2.3492 3.5,-4.5225 3.5,-4.8295 0,-1.3147 -30.564,0.18422 -43.5,2.1333 -15.791,2.3793 -19.184,3.2119 -26.702,6.5532 -15.438,6.8617 -13.305,22.691 3.9378,29.217 8.9414,3.384 20.084,4.0787 26.034,1.6232 z m 339.2,-74.35 c 14.062,-1.1866 67.075,-3.7217 103,-4.9255 112.95,-3.7848 267.55,-9.8943 295.36,-11.672 l 9.858,-0.63029 -0.62088,-4.6804 c -0.82855,-6.2459 -5.1115,-20.854 -8.0862,-27.581 l -2.4,-5.42 -12.589,0 c -6.9241,0 -64.436,2.0117 -127.81,4.4704 -63.369,2.4588 -127.91,4.9388 -143.43,5.5111 -15.518,0.57238 -29.386,1.4863 -30.819,2.031 -2.2878,0.86981 -22.656,2.219 -53.763,3.5615 -5.683,0.24525 -10.947,1.0178 -12.537,1.8399 -4.4957,2.3248 -16.949,14.42 -21.595,20.974 -3.8459,5.4255 -9.5715,15.642 -9.5715,17.079 0,0.61709 2.0061,0.54307 15,-0.55344 z m 68.71,-47.16 c 0.53966,-0.70598 0.75918,-5.9831 0.50439,-12.125 l -0.45114,-10.875 -4.9179,0.58245 c -6.0152,0.71241 -13.962,4.8968 -17.971,9.4632 -6.9095,7.8695 -0.56982,14.205 14.214,14.205 4.9562,0 8.0034,-0.44181 8.6212,-1.25 z m -30.437,0.5201 3.774,-0.39369 -2.024,-2.5731 c -1.11,-1.42 -2.02,-3.19 -2.02,-3.94 0,-0.76 -0.36,-1.37 -0.8,-1.37 -1.3773,0 -8.2781,7.5915 -7.5566,8.313 0.68971,0.68972 1.6506,0.68494 8.6276,-0.0429 z m 44.879,-1.9928 c 3.6252,-0.38355 3.6612,-0.43323 4.769,-6.5819 2.5612,-14.215 4.4182,-33.755 3.3131,-34.861 -0.79275,-0.79275 -4.0676,0.80073 -11.877,5.7789 -7.7463,4.9382 -10.23,6.976 -8.8202,7.2375 1.0791,0.20019 2.4371,0.74819 3.0179,1.2178 1.4118,1.1415 1.7697,23.454 0.4168,25.982 -1.1235,2.0993 -0.21593,2.2206 9.18,1.2265 z m 48.85,-2.31 c 22.099,-1.0623 114.21,-4.7255 163,-6.4826 49.9,-1.797 90.336,-3.4856 90.635,-3.7849 0.11296,-0.11297 0.53358,-19.891 0.9347,-43.952 l 0.73,-43.75 -18.4,-0.175 c -64.971,-0.61686 -82.783,0.03223 -117.4,4.2783 -13.043,1.5998 -48.096,9.179 -69.5,15.027 -25.844,7.0614 -43.54,13.619 -64.75,23.993 l -18.25,8.9262 0,6.992 c 0,7.7896 -3.791,26.817 -6.9294,34.779 l -2.04,5.18 13.73,-0.17 c 7.56,-0.09 20.26,-0.48 28.24,-0.86 z m 304.5,-12.02 c 7.7,-0.40656 34.69998,-1.6998 59.99998,-2.8738 25.3,-1.174 48.475,-2.4806 51.5,-2.9034 l 5.5,-0.76885 -12.5,-12.793 c -12.212,-12.498 -21.763,-20.155 -42.5,-34.073 -11.295,-7.5802 -40.67998,-22.399 -50.49998,-25.467 -6.8743,-2.1477 -23.047,-4.4621 -39.25,-5.6169 l -9.75,-0.689 0,43.119 0,43.119 11.75,-0.15 c 6.4625,-0.0847 18.05,-0.48669 25.75,-0.89325 z m -834.57,225.19 c 1.3978,-9.1176 5.9335,-32.814 6.8221,-35.641 0.4854,-1.5447 0.7995,-1.0893 1.3795,2 1.0406,5.543 1.0503,20.895 0.014,22.05 -0.4688,0.5225 -1.6395,4.775 -2.6015,9.45 -1.2568,6.1076 -2.3538,8.9787 -3.8976,10.201 -2.8699,2.2716 -3.1201,1.0968 -1.7163,-8.0595 z m 11.354,-3.775 c -0.2065,-0.62366 0.3196,-1.829 1.1692,-2.6786 0.8495,-0.84955 1.5446,-2.0038 1.5446,-2.565 0,-0.61149 1.3897,-0.43974 3.4679,0.42857 3.7022,1.5469 9.3233,1.8921 11.131,0.68366 0.6045,-0.40408 1.3711,-4.5597 1.7035,-9.2347 0.6373,-8.9645 2.8939,-17.214 5.5854,-20.42 1.5135,-1.8024 1.4898,-1.8715 -0.3881,-1.1323 -1.1,0.43301 -6.326,1.0165 -11.613,1.2967 l -9.6134,0.50938 -1.6366,-3.2808 c -1.8805,-3.7694 -1.9914,-4.3107 -0.7224,-3.5264 1.9401,1.199 24.576,0.8978 26.921,-0.35829 3.1177,-1.6696 3.9422,-0.60931 1.5749,2.0251 -1.728,1.923 -1.9105,3.8098 -1.9105,19.756 l 0,17.63 -4.5,1.1871 c -5.6531,1.4913 -22.191,1.2576 -22.714,-0.32102 z m 1104.99998,-69.61 c -1.8982,-8.2511 -10.619,-24.406 -18.35,-33.991 -14.027,-17.393 -34.942,-34.714 -53.918,-44.653 -19.541,-10.235 -36.541,-14.094 -62.117,-14.101 -24.704,-0.006 -39.061,3.4275 -60.901,14.567 -30.213,15.409 -51.823,36.827 -66.77098,66.175 -2.5899,5.085 -5.0222,9.2475 -5.405,9.25 -1.1682,0.008 2.2166,-10.084 5.8679,-17.495 5.7971,-11.767 12.303,-20.479 24.32398,-32.575 17.063,-17.168 38.915,-30.844 61.383,-38.416 28.621,-9.6452 67.411,-8.1014 95.126,3.7859 29.53,12.666 60.944,39.944 74.95,65.081 5.76,10.34 10.63,27.62 7.78,27.62 -0.4198,0 -1.3068,-2.3625 -1.9711,-5.25 z m 76.73,-66.79 c 6.325,-0.41512 18.865,-0.98728 27.866,-1.2715 9.1578,-0.28912 16.82,-0.97022 17.396,-1.5464 1.1055,-1.1055 -1.3812,-27.445 -3.6477,-38.638 l -1.215,-6 -19.45,0.24819 c -10.697,0.13651 -20.8,0.47952 -22.45,0.76225 -2.6236,0.44956 -3.4871,1.5476 -6.8824,8.7518 -11.157,23.672 -16.618,35.914 -16.618,37.25 0,1.6787 4.8666,1.7651 25,0.44369 z"
     inkscape:connector-curvature="0"
     style="fill:#ffffff" />
</svg>
