<?xml version="1.0" encoding="UTF-8" standalone="no"?>
<!-- Created with Inkscape (http://www.inkscape.org/) -->
<svg id="svg3376" xmlns:rdf="http://www.w3.org/1999/02/22-rdf-syntax-ns#" xmlns="http://www.w3.org/2000/svg" height="375" viewBox="0 0 1250 375" width="1250" version="1.1" xmlns:cc="http://creativecommons.org/ns#" xmlns:dc="http://purl.org/dc/elements/1.1/">
 <metadata id="metadata3382">
  <rdf:RDF>
   <cc:Work rdf:about="">
    <dc:format>image/svg+xml</dc:format>
    <dc:type rdf:resource="http://purl.org/dc/dcmitype/StillImage"/>
    <dc:title/>
   </cc:Work>
  </rdf:RDF>
 </metadata>
 <path id="path3386" fill="#fff" d="m400 267.58c0-18.754-0.4724-31.333-1.1767-31.333-0.64719 0-2.9756 3.375-5.1742 7.5-5.7419 10.773-9.0995 9.4335-3.562-1.4209 2.8382-5.5634 2.4024-7.5321-1.017-4.5948-4.6112 3.9611-8.8591 4.9586-21.657 5.0856-7.6204 0.0756-10.438-0.45508-14.481-2.727-2.7605-1.5515-6.3147-2.629-7.8981-2.3944-3.9427 0.58413-7.5344 7.7152-7.5344 14.959 0 4.9661-0.41325 5.9393-2.8125 6.6235-6.5441 1.8662-15.938 19.999-15.938 30.765 0 3.412-0.43965 6.2037-0.97699 6.2037-1.3242 0-29.669-8.2842-35.854-10.479-2.7259-0.96725-5.1224-2.2572-5.3256-2.8666-1.4303-4.291 21.369-40.894 33.016-53.006 5.2894-5.5005 5.4922-5.9942 5.1365-12.5l-0.36-6.78 17.81-0.34c23.49-0.46 23.81-2.78 0.38-2.78h-17.43l-11.633-13.165c-6.4-7.25-12.76-13.45-14.13-13.78-1.375-0.33763-57.625-0.46045-125-0.27291l-122.5 0.34099-1.0445 18.581c-0.57445 10.219-0.57445 18.988 0 19.486 1.1588 1.0048 13.229 0.1938 52.294-3.5133 14.438-1.3701 31.02-2.8844 36.85-3.3652 15.179-1.2519 18.27-3.9447 25.037-21.813 2.7828-7.348 3.1023-7.5 15.766-7.5 6.4471 0 11.722 0.29297 11.722 0.65105 0 0.35807-2.6043 9.1841-5.7873 19.613-5.3542 17.543-5.7373 19.692-5.1194 28.707 0.83088 12.122-1.021 15.284-9.7156 16.588-4.9304 0.73936-6.5597 0.34102-12.495-3.055l-6.8256-3.9052-37.841 2.5974c-20.813 1.4285-43.627 2.9555-50.699 3.3932-7.0718 0.43771-13.152 1.2716-13.511 1.8531-1.3293 2.1509-10.66 1.1402-12.806-1.3872-1.135-1.35-6.288-4.09-11.444-6.09-12.575-4.88-13.762-7.15-9.7797-18.7 2.567-7.44 2.8922-10.67 2.8585-28.39-0.0337-17.75-0.4064-21.29-3.2986-31.4-2.3163-8.1-3.0701-13.09-2.6026-17.24 0.8621-7.64 3.5309-9.49 13.725-9.49h7.8469l0.07204 44.062c0.06159 37.669 0.93006 55.988 2.5334 53.438 0.2161-0.34375 0.70266-23.406 1.0812-51.25l0.688-50.62 172.82-0.32 172.8-0.32v-4.9956-4.9956h7.5 7.5v-7.5-7.5l-17.188 0.003c-10.578 0.002-23.676 0.95327-34.062 2.474-9.2812 1.359-22.564 2.4825-29.518 2.4968l-12.643 0.0261-0.79491-5.7995c-1.0161-7.4133-1.0233-21.496-0.0136-26.544l0.78-3.906 14.531 0.000295c8.5922 0.000175 20.662 1.0114 29.531 2.4741 16.286 2.6859 48.619 3.5108 50 1.2756 1.0088-1.6324 23.991-1.6324 25 0 1.1928 1.93 7.769 1.4807 8.5617-0.58497 0.38728-1.0092 0.16622-2.1674-0.49126-2.5738-0.65-0.406-1.19-5.467-1.19-11.246 0-9.1089 0.32177-10.679 2.4178-11.801 2.5135-1.3452 21.313-1.7687 25.738-0.57983 4.8825 1.312 8.0793 21.815 3.6654 23.509-1.5088 0.57897-1.6389 1.282-0.59753 3.2279 1.2417 2.3202 2.2763 2.4439 15.366 1.837 13.166-0.61043 21.688-1.8547 55.036-8.0353 7.43-1.377 15.73-2.503 18.44-2.503h4.9366v23.303 23.303l-7.1875-0.75328c-3.9531-0.41431-13.094-2.0947-20.312-3.7343-7.2188-1.6396-16.665-3.6579-20.993-4.4852-4.3272-0.8273-8.6866-1.8184-9.6875-2.2025-1.48-0.56792-1.8198 0.8441-1.8198 7.5604v8.2587h173.12 173.12v5 5h9.7939 9.794l0.0142 24.375 0.0143 24.375-147.62 0.0171c-81.191 0.01-148.75 0.29797-150.12 0.64127-5.3104 1.3258-5.8281-0.87328-2.5056-10.642 1.7218-5.0624 3.1305-9.387 3.1305-9.6104 0-0.22334-36.45-0.40606-81-0.40606-61.333 0-81.364 0.3642-82.5 1.5-1.0538 1.0538-1.4724 7.654-1.4074 22.188 0.0811 18.114 1.2837 33.198 2.4964 31.312 0.2211-0.34375 0.71339-11.875 1.094-25.625l0.69195-25 77.188-0.32204c61.44-0.25634 77.188-0.0005 77.188 1.254 0 0.86681-1.1084 5.4518-2.463 10.189-1.3547 4.737-2.1458 9.126-1.7581 9.7533 0.65115 1.0536-3.9515 14.24-5.6781 16.268-0.4177 0.49053-6.3769 1.736-13.243 2.7677-36.867 5.5399-116.18 20.692-122.52 23.408l-3.7108 1.5884 4.4933 0.4235c4.8313 0.45536 68.599-9.3711 83.319-12.839l2.8125-0.66265v33.001 33.001l-12.188 2.1236c-6.7031 1.168-20.344 3.7152-30.312 5.6607-31.863 6.2182-37.559 7.1766-38.025 6.3981-0.25059-0.41918-0.54566-14.526-0.65571-31.348-0.11013-16.822-0.45196-30.838-0.75979-31.146-1.5369-1.5369-1.9052 3.164-2.545 32.482l-0.69282 31.75-3.0359 0.39553-3.0359 0.39552v-31.333zm-16.819-31.36 5.5694-2.6961v-11.764-11.763h-8.6163c-6.7038 0-8.7847 0.43886-9.375 1.9772-1.4299 3.7262-0.7557 7.1833 2.4765 12.699 3.6834 6.2852 3.1279 7.9772-1.7248 5.2535-4.5147-2.534-8.9647-10.735-8.9899-16.567-0.0205-4.7364-0.0466-4.7608-4.7081-4.375l-4.6875 0.38796-0.35416 12.625c-0.28473 10.15 0.0231 12.938 1.5702 14.222 5.276 4.3787 19.796 4.3793 28.84 0.001zm232.94-66.116c0.95955-0.60759 1.3991-2.0052 0.97672-3.1059-0.56-1.45-2.44-1.99-6.96-1.99-3.4028 0-7.0768 0.34143-8.1642 0.75874-2.6482 1.0162-2.5164 3.917 0.21026 4.6296 3.8995 1.0191 12.141 0.85263 13.932-0.28133zm26.25 0c0.95955-0.60759 1.3991-2.0052 0.97672-3.1059-0.5714-1.4891-2.4573-1.9962-7.3696-1.982-3.631 0.01-7.4455 0.58372-8.4767 1.2738-4.7894 3.2047 9.8868 6.9692 14.87 3.8141zm28.916-0.12607c1.419-0.75945 2.0767-2.0367 1.6378-3.1806-1.0957-2.8553-15.859-2.04-16.42 0.90679-0.61074 3.2078 9.9899 4.8384 14.782 2.2738zm27.334 0.12607c0.95955-0.60759 1.3991-2.0052 0.97672-3.1059-0.56-1.45-2.44-1.99-6.96-1.99-3.4028 0-7.0768 0.34143-8.1642 0.75874-2.6482 1.0162-2.5164 3.917 0.21026 4.6296 3.8995 1.0191 12.141 0.85263 13.932-0.28133zm28.835-0.67726c2.54-3.06 0.23-4.42-7.57-4.42-5.692 0-7.6479 0.47538-8.2334 2.0012-0.42236 1.1006 0.0171 2.4983 0.97672 3.1059 2.8676 1.8157 13.145 1.3462 14.824-0.67726zm26.165 0.67726c0.95955-0.60759 1.3991-2.0052 0.97672-3.1059-0.56-1.45-2.44-1.99-6.96-1.99-3.4028 0-7.0768 0.34143-8.1642 0.75874-2.3591 0.90527-2.6144 3.7758-0.41474 4.6634 2.6504 1.0695 12.715 0.85159 14.557-0.31514zm29.783-0.25934c3.01-3 0.24-4.84-7.32-4.84-5.637 0-7.5889 0.47789-8.1734 2.0012-0.42236 1.1006 0.0171 2.4983 0.97672 3.1059 2.5028 1.5848 12.863 1.3997 14.522-0.25934zm26.373-0.2021c2.6284-3.167-0.3366-4.7973-8.0042-4.4013-5.6939 0.29409-7.462 0.85469-7.7679 2.4628-0.22507 1.1833 0.57907 2.3348 1.8628 2.6675 4.7275 1.2252 12.631 0.8109 13.909-0.72903zm-424.22-9.5234c2.2534-0.88182 2.2072-1.0125-0.625-1.7701-1.6819-0.44987-15.855-0.82563-31.496-0.83502l-28.43-0.01v-3.7198-3.7198l20.938-0.34273c13.165-0.2155 20.822-0.80673 20.625-1.5927-0.19366-0.77465-8.75-1.25-22.5-1.25h-22.188l-0.4046 4.2355c-0.22253 2.3295-0.0711 5.5639 0.33631 7.1875l0.74091 2.952 30.289-0.0879c16.659-0.0482 31.384-0.51631 32.722-1.04zm2.5669-16.345 13.75-3.7205 67.085-0.0284c36.897-0.0156 67.975-0.36987 69.062-0.78718 6.6768-2.5621-3.9072-3.0231-68.197-2.9703l-70.174 0.0576-15.451 5.0268c-8.4981 2.7647-15.451 5.2782-15.451 5.5856 0 1.3665 6.639 0.28238 19.375-3.1637zm227.99-1.1703c0.95955-0.60759 1.3991-2.0052 0.97672-3.1059-0.56098-1.4619-2.4351-2.0012-6.9549-2.0012-3.4028 0-7.0768 0.34142-8.1642 0.75874-2.6482 1.0162-2.5164 3.917 0.21026 4.6296 3.8995 1.0191 12.141 0.85263 13.932-0.28133zm26.25 0c0.95955-0.60759 1.3991-2.0052 0.97672-3.1059-0.5714-1.4891-2.4573-1.9962-7.3696-1.982-3.631 0.01-7.4455 0.58372-8.4767 1.2738-4.7894 3.2047 9.8868 6.9692 14.87 3.8141zm30.085-0.67726c2.5502-3.0728 0.23216-4.4298-7.5676-4.4298-5.692 0-7.6479 0.47538-8.2334 2.0012-0.42236 1.1006 0.0171 2.4983 0.97672 3.1059 2.8676 1.8157 13.145 1.3462 14.824-0.67726zm26.165 0.67726c0.95955-0.60759 1.3991-2.0052 0.97672-3.1059-0.56098-1.4619-2.4351-2.0012-6.9549-2.0012-3.4028 0-7.0768 0.34142-8.1642 0.75874-2.6482 1.0162-2.5164 3.917 0.21026 4.6296 3.8995 1.0191 12.141 0.85263 13.932-0.28133zm28.835-0.67726c2.5502-3.0728 0.23216-4.4298-7.5676-4.4298-5.692 0-7.6479 0.47538-8.2334 2.0012-0.42236 1.1006 0.0171 2.4983 0.97672 3.1059 2.8676 1.8157 13.145 1.3462 14.824-0.67726zm26.165 0.67726c0.95955-0.60759 1.3991-2.0052 0.97672-3.1059-0.56098-1.4619-2.4351-2.0012-6.9549-2.0012-3.4028 0-7.0768 0.34142-8.1642 0.75874-2.6482 1.0162-2.5164 3.917 0.21026 4.6296 3.8995 1.0191 12.141 0.85263 13.932-0.28133zm29.783-0.25934c3.0124-3.0124 0.23908-4.8477-7.3253-4.8477-5.637 0-7.5889 0.47789-8.1734 2.0012-0.42236 1.1006 0.0171 2.4983 0.97672 3.1059 2.5028 1.5848 12.863 1.3997 14.522-0.25934zm26.642-0.52565c2.5844-3.114-0.22097-4.4943-8.2871-4.0773-5.6807 0.29364-7.4478 0.85485-7.7536 2.4624-0.69092 3.6326 13.205 5.0316 16.041 1.6149zm-347.78-28.07l0.36556-6.875h-23.178-23.178v6.3542c0 3.4948 0.38755 6.7417 0.86121 7.2154 0.47368 0.47367 10.739 0.70804 22.812 0.52083l21.951-0.34038 0.36555-6.875zm32.474 135.88c0.18687-17.33 0.55445-32.117 0.81687-32.859 0.26242-0.74269 6.297-2.3357 13.41-3.5401 7.1132-1.2044 13.918-2.4627 15.121-2.7964 2.0428-0.56654 2.1875 1.5432 2.1875 31.893 0 29.871-0.17695 32.553-2.1875 33.151-1.2031 0.35807-7.25 1.5389-13.438 2.6241-6.1875 1.0852-12.375 2.2123-13.75 2.5048-2.4549 0.52215-2.4939-0.0365-2.1603-30.977zm677.59-82.44c-0.2196-1.5469-0.2268-9.3535-0.016-17.348l0.3836-14.535 4.6164-0.76326c2.539-0.4198 18.745-0.76945 36.014-0.77701l31.398-0.0137 0.7942 4.6875c0.4368 2.5781 1.1423 6.5505 1.5678 8.8274 0.4255 2.277 0.03 8.3238-0.8784 13.438l-1.6519 9.2976h-35.914-35.914l-0.3995-2.8125zm18.712-13.265c0.3819-12.349-0.9263-16.565-4.2769-13.785-1.2192 1.0118-1.7092 4.7192-1.7092 12.932 0 11.957 0.4461 13.516 3.6891 12.897 1.5514-0.29652 2.0076-2.6885 2.297-12.044zm21.698 0.96514c-0.2881-6.343 0.058-10.63 0.9282-11.5 2.1309-2.1309 1.6855-3.0416-1.9314-3.9494-2.1574-0.54146-3.6819-0.26077-4.3559 0.80199-1.2329 1.9441-1.443 22.725-0.2419 23.927 0.4584 0.45834 2.0094 0.83334 3.4468 0.83334 2.4737 0 2.5889-0.54059 2.1542-10.113zm-201.75 9.1751-153.44-0.32243v-12.495-12.495h155 155l0.014 8.4375c0.01 4.6406 0.3624 10.547 0.7885 13.125 0.6764 4.0922 0.4762 4.6484-1.5763 4.38-1.293-0.16914-71.398-0.45262-155.79-0.62994zm-459.75-70.945v-23.212l12.812 0.35623 12.812 0.35623v22.5 22.5l-12.812 0.35623-12.812 0.35623v-23.212zm-131.02-49.687c0.34233-2.4104 1.6676-3.0659 9.2694-4.5848 7.4645-1.4915 10.386-1.513 18.438-0.13568 8.7565 1.4978 9.5676 1.8865 9.5676 4.5848v2.9482h-18.837c-18.82 0-18.837-0.0026-18.438-2.8125z"/>
</svg>
