<?xml version="1.0" encoding="UTF-8" standalone="no"?>
<!-- Created with Inkscape (http://www.inkscape.org/) -->
<svg id="svg3356" xmlns:rdf="http://www.w3.org/1999/02/22-rdf-syntax-ns#" xmlns="http://www.w3.org/2000/svg" height="375" viewBox="0 0 1250 375" width="1250" version="1.1" xmlns:cc="http://creativecommons.org/ns#" xmlns:dc="http://purl.org/dc/elements/1.1/">
 <metadata id="metadata3362">
  <rdf:RDF>
   <cc:Work rdf:about="">
    <dc:format>image/svg+xml</dc:format>
    <dc:type rdf:resource="http://purl.org/dc/dcmitype/StillImage"/>
    <dc:title/>
   </cc:Work>
  </rdf:RDF>
 </metadata>
 <path id="path3366" fill="#fff" d="m555.51 349.81c-0.49053-0.79367-1.0419-2.6218-1.2254-4.0625-0.18343-1.4407-2.3836-8.5257-4.8892-15.744-2.5057-7.2188-5.0579-15.094-5.6717-17.5-0.61373-2.4062-2.3247-8.5938-3.8022-13.75-3.1458-10.979-11.754-51.795-12.678-60.117l-0.63794-5.7421 8.2619-2.0418c65.758-16.251 63.826-16.02 63.868-7.6526 0.027 5.3916 4.2602 27.801 8.7899 46.533 4.4869 18.554 6.8356 26.205 13.957 45.464 0.67485 1.8252 2.306 3.6006 3.6247 3.9455 1.548 0.40481 2.3976 1.7222 2.3976 3.7177 0 2.8313-1.4428 3.6214-17.188 9.4126-9.4531 3.477-20.844 7.5228-25.312 8.9906-4.4688 1.4678-9.25 3.1906-10.625 3.8283-2.3536 1.0917-16.853 6.1617-17.622 6.1617-0.19555 0-0.75688-0.64937-1.2474-1.443zm-173.9-52.24c-6.6211-3.1313-11.874-6.1355-23.558-13.472-1.3348-0.83822-7.3838-4.4945-13.442-8.125-6.0584-3.6305-12.337-7.4447-13.952-8.476-1.6152-1.0312-5.6583-3.5075-8.9847-5.5028s-14.152-8.6839-24.058-14.864c-9.9053-6.1797-20.03-11.768-22.5-12.418-20.44-5.3809-24.929-5.331-36.99 0.4109-6.2447 2.9728-8.4097 4.9149-12.936 11.603-10.046 14.847-2.3596 13.457-73.652 13.316-41.263-0.0817-62.527-0.5615-63.579-1.4345-3.6437-3.024-4.4312-9.4434-2.9329-23.908 2.7462-26.511 3.4098-46.595 2.3781-71.966-1.0723-26.369-1.0084-26.932 4.2548-37.426l2.673-5.3h9.0886c4.9987 0 9.0881 0.42188 9.0874 0.9375-0.00064 0.51563 12.093 0.77556 26.875 0.57764l26.876-0.35986 0.24349 17.235c0.13392 9.4792 0.36348 18.641 0.51013 20.36 0.14666 1.7188 0.31834 4.3906 0.38152 5.9375l0.12 2.8h75.375c56.958 0 75.742-0.3665 76.875-1.5 1.5821-1.5821 2.2313-40.14 0.74126-44.023-0.43-1.09-1.83-1.98-3.13-1.98-2.23 0-2.37 1.22-2.37 20.62v20.625h-70.625-70.625l-0.009-16.562c-0.005-9.1094-0.36748-20.359-0.80575-25l-0.79687-8.4375h73.789 73.789l0.80238 5.3506 0.80238 5.3506 5.2828-0.30918 5.2828-0.30919-0.46323 5.8244c-0.25478 3.2034 0.18047 8.7008 0.96722 12.216l1.4304 6.3919 49.496 29.111c42.211 24.826 50.097 29.041 53.582 28.634 3.8755-0.45244 4.0268-0.31962 2.9281 2.5702-0.63721 1.676-2.1066 4.6522-3.2653 6.6138-2.0071 3.3977-1.9904 3.677 0.35332 5.9016 1.353 1.2843 5.999 4.1853 10.324 6.4466l7.8643 4.1114 20.086-2.1066c20.089-2.107 24.095-3.0802 24.998-6.0747 0.26504-0.87848 0.19058-7.7771-0.16544-15.33l-0.64745-13.733-4.7652-0.77034c-7.5118-1.2144-34.53 1.7232-35.929 3.9063-1.6857 2.6319-3.6685 10.058-3.6591 13.705 0.005 1.7188 1.375 5.5156 3.0456 8.4375 2.829 4.9479 2.8766 5.3125 0.69362 5.3125-2.2671 0-9.4521-7.7724-12.346-13.355-0.77-1.5-1.41-4.64-1.41-6.97v-4.2433l-7.1875-0.28854c-6.7682-0.27172-8.894-1.2868-36.441-17.401l-29.25-17.12 27.27-0.62c18.67-0.4278 27.424-1.0709 27.745-2.0382 0.81084-2.4399-7.5754-3.0993-36.245-2.85l-27.769 0.24143-13.209-7.3641-13.209-7.3641 0.55672-9.679c0.3299-5.7357 0.0254-10.319-0.74744-11.25-1.3151-1.5846 2.3834-6.1696 18.66-23.133 6.2045-6.4663 6.405-6.5625 13.685-6.5625h7.3887l0.14394-7.8125c0.0791-4.2969 0.0437-8.7969-0.0786-10-0.17906-1.7609 0.76795-2.1875 4.8561-2.1875 3.4907 0 5.0786 0.54067 5.0786 1.7292 0 0.95106 1.2656 2.0684 2.8125 2.4829 1.5469 0.41455 25.366 0.7614 52.931 0.77079 46.979 0.016 50.248-0.12613 52.188-2.2689 2.5115-2.7751 2.7288-7.7141 0.33953-7.7141-0.95107 0-2.0256 1.1334-2.3879 2.5187-0.64754 2.4762-1.5354 2.5169-52.646 2.4102l-51.98-0.103 0.00054-5.8477 0.00054-5.8477h53.75 53.75l-0.00021 2.8125c-0.00015 1.9792 0.74046 2.8125 2.4998 2.8125 1.375 0 2.5-0.5625 2.5-1.25s1.4062-1.25 3.125-1.25 3.125 0.5625 3.125 1.25 1.4062 1.25 3.125 1.25 3.125-0.5625 3.125-1.25c0-2.0561 3.9719-1.414 5.7997 0.9375 1.6193 2.0833 1.7813 2.0833 3.4006 0 2.0847-2.6821 5.2811-2.8418 6.2517-0.3125 0.39572 1.0312 1.8622 1.875 3.2587 1.875 1.4238 0 2.5392-0.82368 2.5392-1.875 0-1.1667 1.1806-1.875 3.125-1.875s3.125 0.70833 3.125 1.875c0 1.0417 1.1111 1.875 2.5 1.875s2.5-0.83333 2.5-1.875 1.1111-1.875 2.5-1.875 2.5 0.83333 2.5 1.875c0 1.1667 1.1806 1.875 3.125 1.875s3.125-0.70833 3.125-1.875c0-1.0417 1.1111-1.875 2.5-1.875s2.5 0.83333 2.5 1.875c0 1.1667 1.1806 1.875 3.125 1.875s3.125-0.70833 3.125-1.875c0-2.4365 3.613-2.4365 4.548 0 0.93604 2.4393 5.452 2.4393 5.452 0 0-1.0417 1.1111-1.875 2.5-1.875s2.5 0.83333 2.5 1.875c0 2.4905 6.0923 2.4905 7.048 0 0.93442-2.435 4.202-2.435 4.202 0 0 1.1729 1.1849 1.875 3.1642 1.875 1.7403 0 3.488-0.84375 3.8837-1.875 1.3149-3.4267 5.6612-1.9419 10.9 3.7236l5.177 5.5986 63.484 0.3389c46.147 0.24635 63.727 0.73123 64.375 1.7756 0.49019 0.79017 4.2662 5.2197 8.3912 9.8434 8.7519 9.81 9.1838 10.655 9.2474 18.095 0.091 10.635 3.839 9.9808-58.135 10.148-30.174 0.0813-56.474 0.50322-58.443 0.9375-3.1721 0.69941-5.1518 3.7526-17.33 26.727l-13.749 25.938-50.795 0.13836c-27.937 0.0761-51.947 0.0507-53.354-0.0563-1.982-0.15072-3.1802 1.3037-5.3125 6.4483-3.0233 7.2944-3.3259 9.2182-1.6161 10.275 2.3472 1.4506 5.0575-0.95191 7.0963-6.2905l2.1061-5.5148h53.909 53.909l13.789-25.938 13.789-25.938 57.444-0.625c31.594-0.34375 58.223-1.1269 59.175-1.7403 1.3443-0.86622 1.554-3.2079 0.93894-10.484l-0.79194-9.3687 60.311 0.77612c33.171 0.42685 77.749 0.79175 99.061 0.81086l38.75 0.0347 2.1783 4.6732c2.2214 4.7656 9.5626 26.59 15.058 44.766 2.4871 8.226 2.7656 10.484 1.5061 12.206-1.4418 1.9718-11.256 2.0586-146.39 1.2952l-144.84-0.83-14.37 2.74c-36.207 6.8982-44.004 9.1546-54.224 15.692-7.8525 5.0232-17.238 15.278-20.919 22.855-1.4192 2.9219-2.798 5.3125-3.064 5.3125-1.3752 0-54.991 11.699-63.005 13.748-6.5738 1.6806-9.5876 1.981-10.185 1.0151-0.46632-0.75449-2.0304-1.0626-3.4758-0.68459-1.4454 0.37798-2.628 0.13052-2.628-0.54991 0-3.1792-2.998 0.36525-6.0277 7.1262-1.841 4.1085-3.8081 8.1822-4.3712 9.0528-1.84 2.87-3.34 0.24-3.34-5.88v-6.0194l-4.6875 2.2652c-4.2096 2.0343-11.585 3.0333-39.913 5.4067-2.8742 0.2408-5.6867 0.0113-6.25-0.51048-0.5633-0.52156-4.1618-1.8419-7.9966-2.9341s-8.9387-3.3202-11.342-4.9511l-4.3697-2.9653-5.8797 11.375c-3.2338 6.2564-9.2917 17.844-13.462 25.75-4.1702 7.9062-10.361 19.709-13.757 26.229-3.3962 6.5196-6.5966 12.276-7.112 12.791-0.51539 0.51539-4.3947-0.69812-8.6207-2.6967zm-9.8836-76.576c5.646-1.0815 8.4312-2.4476 12.009-5.8902 6.1682-5.9351 7.5152-8.7821 7.5152-15.885 0-13.159-9.612-19.377-31.25-20.213-10.98-0.42455-14.351-0.08-20.625 2.108-4.125 1.4386-8.4842 3.8852-9.6871 5.4369s-2.7879 3.5416-3.5222 4.4218c-2.9843 3.5773-2.8971 10.441 0.20512 16.133 3.5008 6.4234 10.602 11.091 21.754 14.3 7.5822 2.1815 10.312 2.1339 23.601-0.41164zm85.496-44.312c0.40139-18.768-0.31034-20.245-10.296-21.371-4.9578-0.5588-5.6757-1.0145-5.6757-3.6022 0-3.3509-4.0177-7.9624-6.9371-7.9624-3.3887 0-9.3074 3.7345-9.461 5.9696-0.25558 3.7195 0.31579 5.8405 2.1167 7.8576 0.9586 1.0737 2.8372 6.3312 4.1747 11.683 2.7299 10.924 2.9657 11.349 5.7152 10.294 1.641-0.62971 1.8246-2.1371 1.11-9.1126-0.76514-7.4682-0.63576-8.2734 1.2152-7.5631 1.1394 0.43721 4.6016 0.32225 7.694-0.25546l5.6224-1.0504v14.111c0 14.768 0.62241 18.482 2.9665 17.704 0.92375-0.30672 1.528-6.055 1.7557-16.703zm-25.959-21.044c-1.85-2.22-0.82-5.64 1.68-5.64 2.1448 0 3.4938 3.0352 2.5 5.625-0.91118 2.3745-2.2272 2.3795-4.1888 0.0159zm168.21-13.692c0.97523-1.3345 1.7731-3.6176 1.7731-5.0736s-0.79791-3.7391-1.7731-5.0736c-1.6869-2.3084-3.8762-2.4439-45.01-2.7857l-43.237-0.35926-3.1149 3.1149c-1.72 1.7-3.12 4-3.12 5.1 0 1.0938 1.4017 3.3904 3.1149 5.1036l3.1149 3.1149 43.237-0.35926c41.134-0.34178 43.323-0.47728 45.01-2.7857zm-54.21 0.55c-29.598-0.52315-35.552-0.93054-36.543-2.5-1.6998-2.6923-1.497-4.5465 0.7422-6.7857 1.7048-1.7048 7.3079-1.9643 42.411-1.9643s40.706 0.25951 42.411 1.9643c4.4282 4.4282 1.4703 8.3168-7.0056 9.2096-3.6603 0.38558-22.567 0.41981-42.015 0.0761zm187.2-36.158c2.0437-4.9338 0.70511-8.417-5.5833-14.529l-5.2756-5.1273-14.239 0.53447c-7.8314 0.29396-14.773 1.0395-15.426 1.6569-0.67 0.62-17.33 1.125-37.05 1.125-30.34 0-36.08-0.288-37.4-1.875-1.22-1.47-4.7-1.875-16.1-1.875h-14.548l-3.1 3.75c-2.9853 3.6141-3.4719 3.75-13.424 3.75-9.4929 0-10.326 0.20175-10.326 2.5 0 2.4225-0.83334 2.5-26.875 2.5-16.37 0-26.875 0.4699-26.875 1.2021 0 1.4229 71.279 2.1416 144.06 1.4524l49.69-0.47v3.6996c0 2.0348 0.375 4.0746 0.83334 4.533 0.46 0.46 7.42 0.84 15.48 0.84h14.64l1.5151-3.6578zm304.8 46.456-49.616-0.32678-3.1963-10.479c-1.758-5.7634-3.1963-10.784-3.1963-11.156 0-0.83825 179.13 0.42474 180 1.2691 0.9473 0.92369 0.7479 18.814-0.2205 19.782-0.9879 0.98763-53.469 1.3738-123.77 0.9108zm-661.54-96.027c-0.97973-2.5531-0.96373-9.4449 0.0444-19.089l0.81-7.684h5.4469c2.9958 0 5.4469-0.5102 5.4469-1.1338 0-0.6611 18.848-1.052 45.208-0.9375 35.18 0.153 45.31-0.15 45.72-1.367 0.34-1.031 3.22-1.562 8.45-1.562h7.9309l0.7994 6.5625c0.43968 3.6094 0.62078 10.5 0.40245 15.312l-0.39696 8.75-57.812 0.32498c-37.1 0.21-57.81 0.769-57.81 1.563 0 2.0082-3.4154 1.4125-4.2413-0.73972z"/>
</svg>
