<?xml version="1.0" encoding="UTF-8" standalone="no"?>
<!-- Created with Inkscape (http://www.inkscape.org/) -->
<svg id="svg4136" xmlns:rdf="http://www.w3.org/1999/02/22-rdf-syntax-ns#" xmlns="http://www.w3.org/2000/svg" height="157" viewBox="0 0 300 157" width="300" version="1.1" xmlns:cc="http://creativecommons.org/ns#" xmlns:dc="http://purl.org/dc/elements/1.1/">
 <metadata id="metadata4142">
  <rdf:RDF>
   <cc:Work rdf:about="">
    <dc:format>image/svg+xml</dc:format>
    <dc:type rdf:resource="http://purl.org/dc/dcmitype/StillImage"/>
    <dc:title/>
   </cc:Work>
  </rdf:RDF>
 </metadata>
 <g id="layer1">
  <path id="path4146" fill="#fff" d="m2.8989 153.89c-4.3778-5.038-2.3396-15.507 6.5867-33.833 7.0708-14.517 17.193-31.417 18.816-31.417 2.5188 0-0.34369 8.241-6.6704 19.204-6.4644 11.201-6.6666 11.752-5.1258 13.951 0.88221 1.2595 1.6225 3.8774 1.645 5.8176l0.04101 3.5275 3.8909-4.3019c2.14-2.366 4.1766-5.6025 4.5257-7.1921 1.404-6.3922 9.1653-14.006 14.277-14.006 2.792 0 6.445 4.4455 7.1722 8.7282 1.2818 7.5489-7.717 20.272-14.338 20.272-2.6926 0-7.6102-3.8799-7.6102-6.0043 0-0.60237-2.025 0.59747-4.5 2.6663s-4.5 4.5494-4.5 5.5123c0 3.0821-4.0718 12.758-6.6666 15.841-2.8473 3.3838-5.3242 3.7891-7.5441 1.2344zm6.8531-8.2823c4.6614-9.594 4.8005-10.448 2.0012-12.282-2.3953-1.5694-2.4187-1.5484-4.5952 4.1182-1.2032 3.1326-2.4512 7.894-2.7733 10.581-0.82063 6.845 1.3398 5.872 5.3674-2.4174zm5.3576-18.468c0-1.8601-0.42726-3.646-0.94947-3.9688-1.1365-0.70239-2.537 5.8726-1.5805 7.4202 1.1721 1.8965 2.53 0.044 2.53-3.4514zm20.796 2.9304c1.2325-0.86329 3.3627-3.7833 4.7337-6.4888 2.3846-4.7059 2.4164-4.9994 0.73157-6.7681-0.96865-1.0169-2.2397-2.677-2.8246-3.689-0.97115-1.6804-1.3106-1.516-3.9108 1.893-3.005 3.9398-5.8187 12.695-4.8723 15.162 0.73086 1.9046 3.3339 1.8585 6.1425-0.10871zm8.2041-17.43c0-1.65-0.45-3-1-3-1.1123 0-1.3802 4.2865-0.33333 5.3333 1.1298 1.1298 1.3333 0.77354 1.3333-2.3333zm208.79 41.25c-2.9665-3.4138-3.0291-9.1111-0.20261-18.445 0.43359-1.4319-0.0206-1.6086-2.9241-1.1374-2.6874 0.43611-3.9188 0.0764-5.6437-1.6485-2.9354-2.9354-2.1424-7.1803 3.1327-16.769 2.1937-3.9875 3.5746-7.25 3.0686-7.25-1.6417 0-8.9014 5.7436-11.02 8.7184-1.1343 1.593-3.7382 6.2355-5.7864 10.317-3.0253 6.028-3.9142 7.119-4.7374 5.814-0.90636-1.4369-1.38-1.4532-4.487-0.15507-7.5332 3.1476-11.542-1.1055-8.8064-9.3424 1.9296-5.8094 8.7721-17.852 10.143-17.852 2.4209 0 1.3546 5.7806-2.4692 13.386-4.4554 8.8614-5.1834 13.114-2.2446 13.114 2.5102 0 6.4578-4.4691 9.7164-11 3.8648-7.7458 9.2601-16 10.458-16 0.55683 0 1.0124 1.3828 1.0124 3.0728v3.0728l3.7278-3.0728c5.6249-4.6365 9.2722-3.8707 9.2722 1.9467 0 1.0208-1.7937 5.1465-3.9859 9.1682-4.1763 7.6615-4.9784 11.505-2.5922 12.421 2.9801 1.1436 5.6093-1.9814 11.651-13.848 7.522-14.774 16.646-29.76 18.119-29.76 2.5188 0-0.34369 8.241-6.6704 19.204-6.4644 11.201-6.6666 11.752-5.1258 13.951 0.88221 1.2595 1.6225 3.8774 1.645 5.8176l0.041 3.5275 3.8909-4.3019c2.14-2.366 4.1766-5.6025 4.5257-7.1921 1.404-6.3922 9.1653-14.006 14.277-14.006 2.792 0 6.445 4.4455 7.1722 8.7282 1.2818 7.5489-7.717 20.272-14.338 20.272-2.6926 0-7.6102-3.8799-7.6102-6.0043 0-0.60237-2.025 0.59747-4.5 2.6663s-4.5 4.5494-4.5 5.5123c0 3.0821-4.0718 12.758-6.6666 15.841-2.8473 3.3838-5.3242 3.7891-7.5441 1.2344zm6.8531-8.2823c4.6614-9.594 4.8005-10.448 2.0012-12.282-2.3952-1.5694-2.4187-1.5484-4.5952 4.1182-1.2032 3.1326-2.4512 7.894-2.7733 10.581-0.82063 6.845 1.3398 5.872 5.3674-2.4174zm5.3576-18.468c0-1.8601-0.42726-3.646-0.94947-3.9688-1.1365-0.70239-2.537 5.8726-1.5806 7.4202 1.1721 1.8965 2.53 0.044 2.53-3.4514zm20.796 2.9304c1.2325-0.86329 3.3627-3.7833 4.7337-6.4888 2.3846-4.7059 2.4164-4.9994 0.73157-6.7681-0.96865-1.0169-2.2397-2.677-2.8246-3.689-0.97115-1.6804-1.3106-1.516-3.9108 1.893-3.005 3.9398-5.8187 12.695-4.8723 15.162 0.73085 1.9046 3.3339 1.8585 6.1425-0.10871zm8.2041-17.43c0-1.65-0.45-3-1-3-1.1123 0-1.3802 4.2865-0.33333 5.3333 1.1298 1.1298 1.3333 0.77354 1.3333-2.3333zm-247.33 22.34c-2.1355-2.1355 0.03167-8.2445 5.8127-16.385 2.4136-3.3986 3.1202-5.3163 2.7895-7.5698-0.32811-2.2356 0.25085-3.8426 2.233-6.1983 3.7214-4.4226 4.8585-4.0696 4.251 1.3198-0.27897 2.475-0.22499 4.4983 0.11995 4.4963s2.1326-0.92154 3.9725-2.0433c2.6064-1.589 3.6557-1.782 4.75-0.87381 2.3325 1.9358 1.6124 4.7315-2.6851 10.424-4.7789 6.3297-6.375 12.998-3.3857 14.145 1.7464 0.67014 6.0782-3.2132 9.1666-8.2176 1.1569-1.8746 1.1929-1.8696 1.25 0.17194 0.09404 3.3616-4.1376 8.736-7.6778 9.7513-2.4577 0.70486-3.7879 0.53294-5.7319-0.74082-4.379-2.8692-3.163-9.9445 3.1327-18.228l2.3678-3.1153-3.945 1.053c-3.4685 0.9258-4.4316 1.906-7.9734 8.1153-2.2156 3.8843-4.7286 8.7498-5.5844 10.812-1.6447 3.964-1.807 4.1388-2.8624 3.0833zm104 0c-2.1355-2.1355 0.0317-8.2445 5.8127-16.385 2.4136-3.3986 3.1202-5.3163 2.7895-7.5698-0.32811-2.2356 0.25085-3.8426 2.233-6.1983 3.7214-4.4226 4.8585-4.0696 4.251 1.3198-0.27897 2.475-0.22499 4.4983 0.11995 4.4963s2.1326-0.92154 3.9725-2.0433c2.6064-1.589 3.6556-1.782 4.75-0.87381 2.3325 1.9358 1.6124 4.7315-2.6851 10.424-4.7015 6.2271-6.3718 12.999-3.4798 14.109 2.6758 1.0268 7.3171-4.1224 8.0984-8.9844 1.4106-8.7784 8.8771-17.627 14.874-17.627 3.6988 0 7.5976 3.4211 7.5976 6.6666 0 2.9751-4.1252 8.6173-7.4795 10.23-2.2728 1.0928-3.5559 1.151-5.8967 0.26739-3.6194-1.3662-3.7916-1.2264-3.9164 3.178-0.25791 9.0985 8.7263 8.7882 16.516-0.57041 2.445-2.9376 2.7258-3.0525 2.75-1.1253 0.0338 2.7005-5.6123 7.7494-10.453 9.3468-4.5397 1.4982-10.022 0.55624-11.836-2.0337-1.3598-1.9414-1.3905-1.9416-3.1324-0.0168-2.5639 2.8331-7.1256 3.5664-10.092 1.6226-4.3031-2.8195-3.0448-9.9578 3.2048-18.181l2.3678-3.1153-3.945 1.053c-3.4685 0.9258-4.4316 1.906-7.9734 8.1153-2.2156 3.8843-4.7286 8.7498-5.5844 10.812-1.6447 3.964-1.807 4.1388-2.8624 3.0833zm39.524-17.083c4.6308-4.965 6.0921-9.25 3.1544-9.25-2.2565 0-9.3452 7.6173-9.3452 10.042 0 2.8588 3.163 2.4541 6.1907-0.79211zm-103.52 16.08c-2.1498-2.1498 1.8869-13.33 8.7233-24.159 3.1413-4.9761 4.3743-5.2524 4.7967-1.075l0.31336 3.0993 3.8875-3.0993c4.9646-3.9581 7.4057-3.991 8.7558-0.11809l1.0393 2.9813 3.2262-2.4607c8.8657-6.7622 11.28-1.1188 4.6554 10.882-5.2924 9.5875-5.3123 13.782-0.0573 12.114 2.5294-0.80281 7.5193-8.0183 8.4299-12.19 1.4551-6.6664 9.1134-14.308 14.339-14.308 2.792 0 6.445 4.4455 7.1722 8.7282 0.51138 3.0118 0.048 4.9425-2.2998 9.5822-5.222 10.32-12.283 13.434-17.586 7.756l-2.7404-2.9336-2.6836 2.6836c-2.1187 2.1187-3.6336 2.6836-7.1973 2.6836-8.002 0-8.6539-5.3928-1.9966-16.518 2.4443-4.0848 4.2829-7.5882 4.0856-7.7854-1.8133-1.8133-13.062 10.447-17.03 18.561-3.0148 6.1651-5.028 7.7427-5.7329 4.4925-0.64846-2.9898 1.2221-8.1956 5.4286-15.108 2.2232-3.6532 4.2402-6.9797 4.4822-7.3922 0.24205-0.4125-0.30044-0.75-1.2056-0.75-2.9058 0-11.935 10.362-15.538 17.831-3.4106 7.07-3.9874 7.7821-5.2672 6.5023zm53.129-3.9029c1.2325-0.86329 3.3627-3.7833 4.7337-6.4888 2.3846-4.7059 2.4164-4.9994 0.73157-6.7681-0.96865-1.0169-2.2397-2.677-2.8246-3.689-0.97115-1.6804-1.3106-1.516-3.9108 1.893-3.005 3.9398-5.8187 12.695-4.8723 15.162 0.73085 1.9046 3.3339 1.8585 6.1425-0.10871zm8.2041-17.43c0-1.65-0.45-3-1-3-1.1123 0-1.3802 4.2865-0.33333 5.3333 1.1298 1.1298 1.3333 0.77354 1.3333-2.3333zm79.701-7.6321c-1.0721-1.0721-0.83409-5.1678 0.34256-5.895 1.6074-0.99341 4.0884 1.6032 3.7545 3.9294-0.29933 2.0847-2.7852 3.2774-4.097 1.9656zm-215.69-57.329c-6.3646-1.396-9.1732-5.729-9.1332-14.087 0.1039-21.737 28.201-41.952 33.597-24.173 0.72843 2.4002-3.0933 13.211-4.6701 13.211-0.46058 0-1.3155-1.0492-1.8998-2.3316-0.80695-1.7711-0.68159-3.2429 0.52144-6.1221 3.613-8.6458 1.3-10.654-6.544-5.6794-7.946 5.0394-13.754 13.499-15.754 22.947-1.8338 8.6639 0.57167 14.186 6.1793 14.186 2.2512 0 4.1238-1.1711 7.595-4.75 2.5339-2.6125 5.1251-5.65 5.7581-6.75 2.1357-3.711 2.7686 0.98504 0.69503 5.1569-3.0484 6.1331-10.113 9.7598-16.346 8.3918zm23.86-0.96c-1.9-1.539-2.328-2.774-2.193-6.337 0.316-8.363 8.731-25.817 16.634-34.501 2.3841-2.6199 5.2235-2.9313 6.0919-0.66821 2.1214 5.5283-1.6453 13.757-10.262 22.418-4.3961 4.4189-6.87 7.8347-7.7267 10.669-3.9601 13.101 6.1929 10.038 13.263-4.0012 5.0158-9.96 8.2467-14.838 9.3683-14.145 1.905 1.1774 0.89566 5.6585-3.0358 13.478-4.4523 8.8552-5.123 13-2.1036 13 2.5785 0 7.7491-6.0968 8.6299-10.176 2.6408-12.23 13.671-20.627 19.474-14.824 2.4418 2.4418 2.5215 4.8386 0.31479 9.4661-3.1184 6.5394-6.7082 2.8046-3.8589-4.0148 1.8809-4.5015 1.8795-4.4513 0.12201-4.4513-2.2837 0-8.3731 7.8672-10.09 13.036-1.9253 5.7964-1.1562 9.7587 2.0502 10.563 6.5538 1.6449 12.039-3.7887 20.136-19.946 7.141-14.25 13.997-25.654 15.417-25.654 2.1938 0 0.59162 6.6758-3.3112 13.797-4.0448 7.3804-4.1091 7.6296-1.5352 5.9529 5.1686-3.3671 9.6554-1.3531 9.7249 4.3651 0.0434 3.5694-2.9971 7.1432-7.9945 9.3967-3.9655 1.7882-4.1436 2.0537-3.6047 5.3749 0.31183 1.9215 1.4522 4.379 2.5342 5.461 1.8843 1.8843 2.0786 1.8943 4.6092 0.23617 1.4531-0.95208 3.5517-3.2729 4.6636-5.1574s2.4272-3.4264 2.9228-3.4264c1.3333 0 1.1286 0.82313-1.2626 5.0776-1.9291 3.4324-6.8145 6.9224-9.6903 6.9224-2.6646 0-6.1881-2.5691-7.5977-5.5397-1.9209-4.048-2.0704-10.46-0.24397-10.46 2.4001 0 10.714-5.9461 11.874-8.4924 1.5039-3.3007 0.56824-4.0596-3.1213-2.5313-4.7175 1.954-10.422 8.928-14.595 17.843-3.7975 8.1127-5.4621 10.005-5.4621 6.2084 0-1.8813-0.21817-1.8547-4.75 0.57849-5.539 2.974-11.293 2.7944-14.542-0.4539-1.9713-1.9713-2.0333-1.9725-4.6033-0.08912-4.2636 3.1246-8.5342 3.5072-11.051 0.99016l-2.1546-2.1546-3.3176 2.0504c-4.1336 2.5547-6.6923 2.5912-9.7208 0.13851zm13.55-25.457c3.9848-5.8589 6.0841-12.089 3.3011-9.7963-1.704 1.4036-10.711 16.252-10.711 17.658 0 1.4619 3.8386-2.6107 7.4101-7.8617zm81.47 25.249c-2.9982-2.9982-1.9509-9.6948 2.5845-16.526 6.3628-9.583 15.388-13.862 18.086-8.5741l1.1639 2.2808 1.5331-2.2808c0.84321-1.2544 1.8823-1.9433 2.3091-1.5308 1.7799 1.7203 0.52525 6.7596-3.324 13.351-5.0691 8.6795-6.0796 12.138-3.8021 13.011 2.4225 0.92959 5.3945-2.2715 8.5305-9.1878 3.4233-7.5499 9.6716-17.424 11.026-17.424 0.55683 0 1.0124 1.3828 1.0124 3.0728v3.0728l3.7278-3.0728c5.6249-4.6365 9.2722-3.8707 9.2722 1.9467 0 1.0208-1.7937 5.1465-3.9859 9.1682-4.1763 7.6615-4.9784 11.505-2.5922 12.421 2.2188 0.85145 4.853-1.0564 7.5781-5.4885 2.5234-4.1041 4.0031-5.1667 3.9963-2.8698-0.007 2.4239-3.9436 7.6714-6.9024 9.2015-4.0652 2.1022-6.6964 1.9461-9.1876-0.54516-2.8132-2.8132-1.9594-7.1959 3.2452-16.656 2.1937-3.9875 3.5746-7.25 3.0686-7.25-1.6417 0-8.9014 5.7436-11.02 8.7185-1.1343 1.593-3.7107 6.1807-5.7253 10.195-2.4111 4.8043-4.0005 6.9612-4.6505 6.3112-0.65001-0.65001-2.1371-0.63468-4.3512 0.04485-2.7058 0.83043-3.8635 0.70492-5.9186-0.64164-1.4052-0.9207-2.5548-2.1001-2.5548-2.6208 0-0.52075-1.6378 0.16463-3.6396 1.5231-4.4579 3.0252-6.7215 3.1089-9.48 0.35032zm9.7978-3.5008c6.4676-6.8577 11.748-20.38 7.9586-20.38-2.0746 0-10.503 9.4899-12.672 14.268-4.2084 9.2707-1.5352 12.737 4.7133 6.1116zm62.322 3.6204c-1.7042-1.7042-2.0676-2.9122-1.5917-5.2915 1.3544-6.7719 9.8636-22.276 11.628-21.186 1.905 1.1774 0.89567 5.6585-3.0358 13.478-4.4523 8.8552-5.123 13-2.1036 13 2.5785 0 7.7491-6.0968 8.6299-10.176 2.6408-12.23 13.671-20.627 19.474-14.824 2.4418 2.4418 2.5215 4.8386 0.31479 9.4661-3.1184 6.5394-6.7082 2.8046-3.8589-4.0148 1.8809-4.5015 1.8795-4.4513 0.12201-4.4513-2.2837 0-8.3731 7.8672-10.09 13.036-1.9484 5.866-1.1611 9.7574 2.1418 10.586 5.3391 1.34 13.119-4.8247 15.847-12.557 2.8014-7.9401 9.0282-14.065 14.299-14.065 2.792 0 6.445 4.4455 7.1722 8.7283 1.2818 7.5489-7.717 20.272-14.338 20.272-2.6493 0-7.6102-3.8681-7.6102-5.9339 0-0.56367-2.0617 0.42838-4.5816 2.2045-5.7878 4.0796-13.049 4.5436-16.536 1.0566-2.1525-2.1525-2.1971-2.1549-4.7778-0.26365-4.301 3.152-8.5326 3.5088-11.105 0.9364zm46.796-2.5696c1.2325-0.86329 3.3627-3.7833 4.7337-6.4888 2.3846-4.7059 2.4164-4.9994 0.73157-6.7681-0.96865-1.0169-2.2397-2.677-2.8246-3.689-0.97115-1.6804-1.3106-1.516-3.9108 1.893-3.005 3.9398-5.8187 12.695-4.8723 15.162 0.73085 1.9046 3.3339 1.8585 6.1425-0.10871zm8.2041-17.43c0-1.65-0.45-3-1-3-1.1123 0-1.3802 4.2865-0.33333 5.3333 1.1298 1.1298 1.3333 0.77353 1.3333-2.3333zm3.6667 21.333c-2.4155-2.4155 0.82472-11.945 7.7348-22.747 4.03-6.2999 5.5986-7.0042 5.5986-2.5138v3.0728l3.7278-3.0728c5.6249-4.6365 9.2722-3.8707 9.2722 1.9467 0 1.0208-1.7937 5.1465-3.9859 9.1682-4.1763 7.6615-4.9784 11.505-2.5922 12.421 2.2188 0.85145 4.853-1.0564 7.5781-5.4885 3.6918-6.0044 5.6564-5.2237 2.4514 0.97404-1.7742 3.4309-6.8968 6.8969-10.201 6.9024-1.2375 0.0021-3.1922-0.93843-4.3437-2.09-2.8132-2.8132-1.9594-7.1959 3.2452-16.656 2.1937-3.9875 3.5746-7.25 3.0686-7.25-1.6417 0-8.9014 5.7436-11.02 8.7185-1.1343 1.593-3.6867 6.133-5.6721 10.089-3.7969 7.5656-3.8076 7.58-4.8617 6.526zm-198.97-28.964c-1.0721-1.0721-0.83408-5.1678 0.34257-5.895 1.6074-0.99341 4.0884 1.6032 3.7545 3.9294-0.29932 2.0847-2.7853 3.2774-4.097 1.9656zm152 0c-1.0721-1.0721-0.83409-5.1678 0.34256-5.895 1.6074-0.99341 4.0884 1.6032 3.7545 3.9294-0.29933 2.0847-2.7852 3.2774-4.097 1.9656z"/>
 </g>
</svg>
