<?xml version="1.0" encoding="UTF-8" standalone="no"?>
<!-- Created with Inkscape (http://www.inkscape.org/) -->
<svg id="svg4185" xmlns:rdf="http://www.w3.org/1999/02/22-rdf-syntax-ns#" xmlns="http://www.w3.org/2000/svg" height="1056" viewBox="0 0 619 1056" width="619" version="1.1" xmlns:cc="http://creativecommons.org/ns#" xmlns:dc="http://purl.org/dc/elements/1.1/">
 <metadata id="metadata4191">
  <rdf:RDF>
   <cc:Work rdf:about="">
    <dc:format>image/svg+xml</dc:format>
    <dc:type rdf:resource="http://purl.org/dc/dcmitype/StillImage"/>
    <dc:title/>
   </cc:Work>
  </rdf:RDF>
 </metadata>
 <g id="layer3">
  <path id="path4240" fill="#fff" d="m55.776 1052.8c-17.73-4.2916-38.476-20.294-46.282-35.698-1.3679-2.6995-3.3345-8.2214-4.3702-12.271-1.8329-7.1667-1.876-19.93-1.6171-479.15 0.20927-371.14 0.53002-472.75 1.5035-476.26 2.894-10.459 7.1407-17.27 16.538-26.528 12.23-12.047 24.399-18.998 37.661-21.514 7.1249-1.3512 496.73-1.3512 503.86 0 13.262 2.5151 25.431 9.4666 37.661 21.514 9.398 9.2576 13.646 16.071 16.538 26.528 0.97284 3.5171 1.2943 105.22 1.5055 476.26 0.26342 462.93 0.23231 471.92-1.6575 479.31-2.6703 10.441-7.3358 18.66-14.971 26.376-13.506 13.648-27.507 20.762-43.504 22.101-5.5 0.4607-119.58 0.8197-253.5 0.7979-206.73-0.034-244.39-0.254-249.36-1.4586zm507.28-11.892c16.107-4.1768 32.77-17.053 39.34-30.4 2.9719-6.0367 3.2087-7.3231 3.7071-20.133 0.29281-7.5266 0.30739-222.22 0.0324-477.09l-0.5-463.4-3-5.9774c-5.3717-10.703-19.25-22.686-32.992-28.486l-6.0084-2.5362-248.5-0.11157c-272.6-0.12239-257.77-0.44344-269 5.8257-12.699 7.0904-21.335 15.442-26.666 25.786l-2.8342 5.4997-0.5 473c-0.275 260.15-0.16135 475.02 0.25255 477.5 2.9358 17.555 26.116 38.541 45.16 40.884 2.7981 0.3443 115.34 0.7783 250.09 0.9644 225.99 0.3121 245.5 0.2092 251.42-1.3265zm-263.51-17.006c-19.771-4.3019-35.277-20.827-38.424-40.95-3.9764-25.429 13.1-49.662 38.839-55.117 8.3548-1.7707 11.003-1.7685 19.425 0.0163 16.968 3.5956 30.892 15.597 36.24 31.236 6.5422 19.13 2.483 37.255-11.492 51.314-7.3471 7.3912-14.669 11.383-24.826 13.536-8.0592 1.7081-11.783 1.7016-19.763-0.035zm25.589-8.3632c26.082-10.142 35.266-43.212 18.228-65.636-17.032-22.415-52.337-21.646-68.502 1.4922-16.319 23.359-5.3494 56.173 21.736 65.021 7.9301 2.5907 20.623 2.2005 28.538-0.8773zm-26.522-17.971c-8.1888-3.8271-13.478-11.342-13.478-19.149v-4.0321h24.13 24.13l-0.51191 4.5417c-0.71598 6.3521-5.2945 13.283-11.177 16.92-6.3092 3.9007-16.761 4.6789-23.093 1.7197zm-10.474-26.432c0.009-2.8983 4.0049-7.5977 7.4189-8.7245 6.3154-2.0843 11.868 0.97898 14.001 7.7245 0.70856 2.2407 0.66557 2.25-10.356 2.25-8.1892 0-11.066-0.32507-11.064-1.25zm23.996-0.81574c0-1.1362-0.47298-2.9495-1.0511-4.0297-0.91518-1.71-0.57856-2.1614 2.6036-3.491 2.0904-0.87343 4.8342-1.2679 6.4105-0.92173 3.135 0.68856 7.4824 4.9163 8.492 8.2581 0.668 2.2111 0.53178 2.25-7.8876 2.25-7.9916 0-8.5674-0.13883-8.5674-2.0657zm-6.4411-9.4661c-1.0676-0.80751-2.7926-1.4682-3.8333-1.4682-3.1241 0-1.4401-2.1397 4.1852-5.3178 4.186-2.3649 6.8888-3.0981 12.826-3.4791 8.8111-0.56546 9.7358 1.1075 1.9802 3.5827-2.5773 0.82255-6.4521 3.0072-8.6106 4.8549-4.5121 3.8622-4.0341 3.7288-6.5478 1.8275zm-268.3-58.39c-1.7727-1.0809-3.4705-2.9917-3.7728-4.2463-0.30229-1.2546-0.42687-181.33-0.27684-400.17l0.27278-397.89 2.8233-2.1079 2.8233-2.1079 271.18-0.26112c205.98-0.19834 271.9 0.0216 274.18 0.91469 1.65 0.6467 3.7875 1.8465 4.75 2.6661 1.6612 1.4147 1.75 21.697 1.75 399.9 0 271.34-0.32839 399.02-1.0296 400.33-2.8162 5.262 15.037 4.9449-278.17 4.9409-267.94-0.004-271.34-0.0281-274.52-1.969zm542.47-402.28-0.25127-390.25h-267.5-267.5l-0.25127 390.25-0.25127 390.25h268 268zm-325.74-430.75v-11h3 3v11 11h-3-3zm11-4v-15h8.5 8.5v3c0 3 0 3-6 3-5.7333 0-6 0.11111-6 2.5 0 2.3333 0.33333 2.5 5 2.5 4.8889 0 5 0.0667 5 3s-0.11111 3-5 3h-5v6.5c0 6.2667-0.0897 6.5-2.5 6.5h-2.5zm20 3.8865v-11.114l3.044 0.44677c1.6742 0.24572 3.2758 0.0718 3.559-0.3865 0.69083-1.1178 4.1367-1.0634 4.8412 0.0765 0.98166 1.5884-0.51351 4.3284-2.7378 4.2818-4.6024-0.0964-3.4734 3.1989-3.6068 11.558-0.0953 5.9734-0.21031 6.25-2.5997 6.25h-2.5zm16.441 9.6952c-1.6386-1.1973-1.9951-2.9119-2.2877-11l0.24454-9.3452 4.2569-0.23643c2.3664-0.13143 1.2153 0.9007 1.105 7.5727-0.12863 7.7771 0.22122 9.762 4.0176 7.8 1.3802-0.71329 1.7919-2.7705 2.0163-8.2275 0.28131-6.8412 0.39833-7.1452 2.75-7.1452h2.4562v11 11h-2.5c-1.375 0-2.5-0.54-2.5-1.2 0-0.93334-0.26667-0.93334-1.2 0-1.6278 1.6278-5.9881 1.5139-8.3589-0.21835zm18.559-9.5816v-11h3 3v11 11h-3-3zm12.243 9.843c-0.74692-0.74691-1.243-3.9568-1.243-8.043 0-5.3778 0.86841-7.1546-1.5-6.8-0.98897 0.14809-1.5-1-1.5-3s0.53696-3.2694 1.5-3c1.6222 0.45372 2.3195-0.41275 1.5-2.1398-0.8418-1.7741 2.4545-4.7523 4.25-4.8284 0.4125-0.0175 0.75 1.5432 0.75 3.4682 0 2.4444-0.61155 3.8546 1.5 3.5 0.98619-0.16563 1.5 1 1.5 3s-0.5 3-1.5 3c-1.1375 0-1.5 1.2341-1.5 5.107 0 4.2199 0.27145 5.0028 1.5628 4.5073 1.2526-0.48068 1.5007 0.0439 1.25 2.643-0.2522 2.6143-0.79867 3.2995-2.8198 3.5357-1.3789 0.16114-3.0664-0.26636-3.75-0.95zm22.051-4.4033c0.31563-3.0582 1.93-8.4582 3.5874-12l3.0135-6.4397h-5.4475c-5.3861 0-5.4475-0.0338-5.4475-3v-3h8.5c7.7987 0 8.5 0.16302 8.5 1.9758 0 1.0867-0.90749 3.4492-2.0166 5.25-2.6501 4.3027-5.9834 15.099-5.9834 19.38 0 3.0023-0.30514 3.3947-2.6399 3.3947-2.6055 0-2.6324-0.0725-2.066-5.5603zm-178.52-2.9985c-3.5176-1.9089-4.7751-4.3578-4.7751-9.2987 0-11.706 16.164-15.173 20.653-4.4304 4.1717 9.9844-6.2204 18.97-15.878 13.729zm10.737-4.4541c2.5804-2.8513 2.355-7.8668-0.4558-10.143-4.8078-3.8931-13.056-0.72439-13.056 5.0157 0 6.1699 9.3554 9.7199 13.512 5.1272zm67.488-14.987c0-1.5556 0.66667-2 3-2s3 0.44444 3 2-0.66667 2-3 2-3-0.44445-3-2zm66 0c0-1.5556 0.66667-2 3-2s3 0.44444 3 2-0.66667 2-3 2-3-0.44445-3-2zm-75.407-17.85c-0.72448-1.1722 0.97057-6.8339 2.9508-9.8562 0.88692-1.3536 3.49-3.3135 5.7846-4.3554 3.9194-1.7795 7.2929-1.8956 55.71-1.9162 51.486-0.0219 51.543-0.0197 55.977 2.228 4.7528 2.409 7.656 6.4079 8.1677 11.25l0.31704 3-64.186 0.25732c-35.354 0.14174-64.427-0.13121-64.721-0.60763z"/>
 </g>
</svg>
