<?xml version="1.0" encoding="UTF-8" standalone="no"?>
<!-- Created with Inkscape (http://www.inkscape.org/) -->
<svg id="svg4147" xmlns:rdf="http://www.w3.org/1999/02/22-rdf-syntax-ns#" xmlns="http://www.w3.org/2000/svg" height="26" viewBox="0 0 26.000113 26.000113" width="26" version="1.1" xmlns:cc="http://creativecommons.org/ns#" xmlns:dc="http://purl.org/dc/elements/1.1/">
 <metadata id="metadata4153">
  <rdf:RDF>
   <cc:Work rdf:about="">
    <dc:format>image/svg+xml</dc:format>
    <dc:type rdf:resource="http://purl.org/dc/dcmitype/StillImage"/>
    <dc:title/>
   </cc:Work>
  </rdf:RDF>
 </metadata>
 <path id="path4697" fill="#fff" d="m11.463 25.351c-2.1576-0.289-4.3744-1.232-6.1073-2.598-0.5222-0.412-1.5861-1.476-1.9977-1.998-1.4495-1.839-2.3811-4.12-2.6301-6.441-0.09563-0.892-0.04127-2.597 0.11016-3.454 0.94094-5.3207 5.1529-9.3984 10.519-10.183 1.4-0.20468 2.72-0.16958 4.159 0.11056 4.952 0.96414 8.843 4.855 9.807 9.8074 0.53302 2.7377 0.1736 5.4177-1.0631 7.9269-1.7555 3.5618-5.0625 6.0399-9.0098 6.7514-0.8635 0.15565-2.893 0.19714-3.7876 0.07742zm3.3572-1.827c1.1257-0.20862 2.0526-0.50689 2.9268-0.94181 2.7131-1.3499 4.7025-3.681 5.5624-6.5178 0.2926-0.96532 0.3835-1.5544 0.4182-2.7104 0.03735-1.2438-0.03322-1.9441-0.30167-2.9933-0.958-3.7435-3.933-6.7182-7.675-7.6759-1.049-0.2684-1.75-0.339-2.994-0.3017-1.156 0.0348-1.745 0.1256-2.711 0.4186-2.3689 0.718-4.4123 2.2361-5.7782 4.2926-1.1629 1.7508-1.7231 3.4894-1.7956 5.5734-0.13341 3.8345 1.812 7.4074 5.1458 9.4505 1.2289 0.75314 2.6002 1.237 4.1266 1.4562 0.6859 0.09848 2.4237 0.06949 3.0756-0.05131zm-6.0385-7.742c-1.4921-1.4909-2.713-2.7371-2.713-2.7692 0-0.03214 1.2203-1.2785 2.7118-2.7698l2.7118-2.7113h1.4055 1.4055l-1.9652 1.9658c-1.0809 1.0812-1.9652 1.9851-1.9652 2.0086 0 0.02351 2.0789 0.04273 4.6197 0.04273h4.6197v1.4634 1.4634h-4.6197c-2.5408 0-4.6197 0.0073-4.6197 0.01632 0 0.0089 0.87804 0.89296 1.9512 1.9644s1.9512 1.968 1.9512 1.9923-0.62561 0.04418-1.3902 0.04418h-1.3902l-2.713-2.7108z"/>
</svg>
