<?xml version="1.0" encoding="UTF-8" standalone="no"?>
<!-- Created with Inkscape (http://www.inkscape.org/) -->
<svg id="svg3336" xmlns:rdf="http://www.w3.org/1999/02/22-rdf-syntax-ns#" xmlns="http://www.w3.org/2000/svg" height="375" viewBox="0 0 1250 375" width="1250" version="1.1" xmlns:cc="http://creativecommons.org/ns#" xmlns:dc="http://purl.org/dc/elements/1.1/">
 <metadata id="metadata3342">
  <rdf:RDF>
   <cc:Work rdf:about="">
    <dc:format>image/svg+xml</dc:format>
    <dc:type rdf:resource="http://purl.org/dc/dcmitype/StillImage"/>
    <dc:title/>
   </cc:Work>
  </rdf:RDF>
 </metadata>
 <path id="path3346" fill="#fff" d="m546.16 277.78c-1.2518-1.5122-8.0984-15.858-15.214-31.88-10.247-23.071-13.411-31.295-15.207-39.531-2.7023-12.388-2.6829-12.708 0.8571-14.284 3.4103-1.518 4.7987 0.11861 12.452 14.678l5.6667 10.788 9.7168-3.6466c10.501-3.9352 11.219-3.8342 16.35 2.2998 5.5856 6.6779 9.1614 18.216 6.7442 21.761-0.47097 0.69071-5.4283 2.9864-11.016 5.1015l-10.16 3.8457 4.0588 12.496c4.6546 14.331 4.8102 18.107 0.81923 19.883-2.0727 0.92262-3.38 0.53413-5.0691-1.5063zm94.544-69.558c-36.505 15.2-66.557 27.578-66.782 27.506-0.22508-0.0712-0.79379-1.8384-1.2639-3.9268l-0.85468-3.7972 175.77-78.939c104.62-46.99 183.64-83.038 195.21-89.062 78.12-40.653 160.92-87.247 234.72-132 40.32-24.452 54.845-34.102 61.935-41.149 6.126-6.0889 12.32-16.648 11.911-20.303-0.3083-2.7527 2.3081-4.618 18.92-13.49 11.338-6.0551 12.638-5.6891 9.8018 2.7633-6.6372 19.782-37.451 46.047-93.684 79.85-11.873 7.1377-24.697 14.984-28.497 17.437-3.7998 2.4524-16.723 10.075-28.718 16.94-11.995 6.8644-24.01 13.761-26.7 15.326-7.2752 4.2324-24.612 14.158-43.07 24.658-9.0067 5.1238-17.556 10.124-18.998 11.112-4.5097 3.0884-35.781 19.309-65.584 34.019-15.733 7.7652-44.46 22.072-63.838 31.793-49.85 25.007-188.44 87.185-270.29 121.27zm-136.5 59.123c-11.189 4.4485-28.199 11.189-37.8 14.98-9.6003 3.7903-24.512 9.7139-33.136 13.163-8.6239 3.449-21.182 8.4325-27.908 11.075-10.607 4.1669-102.88 41.582-129.24 52.403l-9.2546 3.7996-6.0199-13.739c-3.8372-8.7576-5.9279-14.943-5.7665-17.059 0.24271-3.1763 0.72121-3.5074 11.086-7.6714 5.958-2.3935 11.323-4.1628 11.922-3.9321 0.59905 0.2309 4.0458 6.2693 7.6596 13.419 3.9692 7.8527 6.7997 12.402 7.1494 11.49 0.49226-1.282-4.884-19.184-7.8228-26.048-0.88914-2.0767-0.10829-2.5067 16.238-8.9417 9.4452-3.7183 40.124-16.061 68.175-27.429 72.118-29.226 114.78-46.384 132.01-53.097l14.867-5.7923 7.3142 16.432 7.3141 16.432-3.222 1.2147c-1.772 0.6681-12.377 4.8544-23.565 9.3028zm64.958-47.72c-0.83048-1.8657-3.2507-5.2312-5.3782-7.4787l-3.8683-4.0864 26.295-10.851c14.462-5.968 79.875-34.335 145.36-63.035 119.2-52.235 121.34-53.225 254.75-117.72 40.38-19.514 146.88-79.592 206.48-116.53 27.934-17.292 51.332-31.682 51.996-31.977 2.6698-1.1884-1.2678 6.3833-6.4097 12.325-6.5222 7.5368-11.109 11.047-30.166 23.088-67.322 42.537-176.14 104.55-264.66 150.82-11.276 5.8939-90.117 41.856-195.9 89.358l-177.03 79.492-1.51-3.3923z"/>
</svg>
