<?xml version="1.0" encoding="UTF-8" standalone="no"?>
<!-- Created with Inkscape (http://www.inkscape.org/) -->

<svg
   xmlns:dc="http://purl.org/dc/elements/1.1/"
   xmlns:cc="http://creativecommons.org/ns#"
   xmlns:rdf="http://www.w3.org/1999/02/22-rdf-syntax-ns#"
   xmlns:svg="http://www.w3.org/2000/svg"
   xmlns="http://www.w3.org/2000/svg"
   xmlns:sodipodi="http://sodipodi.sourceforge.net/DTD/sodipodi-0.dtd"
   xmlns:inkscape="http://www.inkscape.org/namespaces/inkscape"
   id="svg3336"
   height="375"
   viewBox="0 0 1250 375"
   width="1250"
   version="1.1"
   inkscape:version="0.91 r13725"
   sodipodi:docname="500.svg">
  <defs
     id="defs3341" />
  <sodipodi:namedview
     pagecolor="#ffffff"
     bordercolor="#666666"
     borderopacity="1"
     objecttolerance="10"
     gridtolerance="10"
     guidetolerance="10"
     inkscape:pageopacity="0"
     inkscape:pageshadow="2"
     inkscape:window-width="1920"
     inkscape:window-height="1017"
     id="namedview3339"
     showgrid="false"
     inkscape:zoom="1.3104"
     inkscape:cx="625"
     inkscape:cy="187.5"
     inkscape:window-x="-8"
     inkscape:window-y="-8"
     inkscape:window-maximized="1"
     inkscape:current-layer="svg3336" />
  <metadata
     id="metadata3342">
    <rdf:RDF>
      <cc:Work
         rdf:about="">
        <dc:format>image/svg+xml</dc:format>
        <dc:type
           rdf:resource="http://purl.org/dc/dcmitype/StillImage" />
        <dc:title />
      </cc:Work>
    </rdf:RDF>
  </metadata>
  <path
     id="path3346"
     d="m 333.0206,302.80928 c -14.01999,-2.54799 -19.96502,-8.33243 -18.64174,-18.13972 1.4115,-10.46272 23.13798,-63.48598 37.515,-91.55765 7.93763,-15.49802 15.20802,-31.5724 16.15601,-35.72259 1.55638,-6.81309 2.2307,-7.6692 6.95529,-8.83091 16.97971,-4.17517 21.31999,-6.04093 27.20288,-11.69206 3.41397,-3.28019 6.20713,-6.91752 6.20713,-8.08301 0,-2.68897 -7.09322,-9.185 -12.56511,-11.5077 -2.30296,-0.98698 -4.19162,-2.48573 -4.19162,-3.33867 0,-2.56615 9.44369,-1.69602 16.53984,1.52385 3.65182,1.65703 7.58134,3.01285 8.73221,3.01285 2.33878,0 8.58527,-11.45665 10.97132,-20.122216 1.37446,-4.991561 1.21632,-5.761161 -1.3507,-6.575847 -3.80414,-1.207381 -3.77867,-7.072383 0.0457,-10.533394 2.72491,-2.465988 3.22157,-2.484266 6.43133,-0.236059 1.91316,1.339978 5.96526,2.436379 9.00467,2.436379 3.03941,0 7.51348,0.677398 9.94218,1.505328 2.4287,0.82793 24.97791,1.818968 50.10935,2.202184 25.13144,0.383278 49.80595,1.129191 54.83224,1.65764 l 9.1387,0.960721 -0.23152,31.203194 c -0.19182,25.85157 -0.63743,31.65161 -2.59844,33.81809 -1.65557,1.82932 -2.50157,6.49274 -2.81472,15.5163 l -0.44779,12.9002 -19.60679,1.09025 c -25.05833,1.39335 -29.26213,3.28067 -33.21615,14.91193 -3.90576,11.49064 -8.30184,17.28677 -17.18442,22.65546 -11.04175,6.67467 -19.69817,9.32538 -30.32953,9.28736 -10.98595,-0.0395 -22.13029,-4.41558 -23.3756,-9.1794 -0.49165,-1.88002 -1.66641,-2.82057 -2.92146,-2.3389 -1.15452,0.44303 -5.49114,0.16222 -9.63707,-0.62403 -9.95997,-1.88891 -17.43665,1.07 -20.86427,8.25627 -2.35279,4.93393 -2.30819,5.34493 1.09963,10.13068 3.44237,4.83438 3.46247,5.0386 0.65031,6.62325 -10.47917,5.90519 -13.31449,12.86852 -9.51693,23.37194 1.68737,4.66634 1.5704,5.41109 -1.14234,7.27294 -5.78882,3.97327 -8.41918,7.41259 -10.19038,13.32424 -2.18671,7.29841 -5.08722,9.19256 -18.7246,12.22759 -13.95054,3.10484 -24.46371,3.95559 -31.98547,2.58856 z m 49.07851,-28.43965 c 10.25046,-1.03575 11.60956,-3.5786 1.91267,-3.5786 -7.92302,0 -21.44306,5.19847 -25.92347,9.96741 -3.54947,3.77818 -3.45613,3.76466 5.46081,-0.79366 5.78894,-2.95923 12.50175,-4.984 18.55035,-5.59508 z m -12.28852,-9.41031 c -3.52498,-3.89504 -3.13969,-8.91913 1.00157,-13.05982 4.25717,-4.25717 19.09989,-10.03844 25.85523,-10.07061 3.71945,-0.0177 4.34502,-0.37745 2.6083,-1.49984 -1.25651,-0.81207 -4.04125,-1.48693 -6.18824,-1.49985 -4.44629,-0.0264 -12.08917,-7.13855 -12.08917,-11.24938 0,-10.75662 14.33315,-16.35463 31.61261,-12.347 10.57921,2.45356 11.94722,2.25604 10.50001,-1.51532 -2.58126,-6.72657 -27.382,-7.16511 -39.11122,-0.69164 -12.37868,6.83173 -14.02487,17.79976 -3.4124,22.73344 5.41316,2.5168 6.44559,4.56156 2.31441,4.58361 -4.32906,0.0233 -17.79854,8.47938 -19.9699,12.53709 -2.81959,5.26852 -1.63802,10.64476 2.83507,12.9002 5.41426,2.72942 6.97089,2.41335 4.04382,-0.82092 z m 112.11486,-44.42751 c 11.21234,-4.19503 17.99838,-11.4876 19.00608,-20.42318 1.18862,-10.54546 -3.94829,-14.9363 -19.79079,-16.91514 -7.94701,-0.99292 -8.75634,-0.82894 -8.75634,1.77413 0,1.57746 -1.71344,5.38989 -3.80779,8.47182 -5.04445,7.42356 -4.9968,14.78034 0.1354,20.88012 2.6551,3.15541 3.24643,4.68621 1.81031,4.68621 -5.54561,0 -13.36931,-12.28486 -13.36931,-20.99222 0,-3.50561 -1.08635,-4.85424 -5.67173,-7.04083 l -5.67172,-2.70469 -3.46698,4.03066 c -2.50901,2.91683 -3.48599,6.0062 -3.53583,11.18041 l -0.0688,7.14988 -3.6701,-6.85403 c -2.01856,-3.76977 -3.70105,-8.0038 -3.73895,-9.40896 -0.0941,-3.4944 -6.54892,-8.30501 -18.31518,-13.64957 -16.80426,-7.63363 -19.47885,-12.52856 -15.00698,-27.45633 1.93059,-6.44389 0.49697,-9.66339 -3.60247,-8.09031 -4.477,1.71795 -8.649,16.52887 -6.76752,24.02504 1.62803,6.48678 8.47255,11.61956 19.86876,14.89975 20.00524,5.75872 20.23432,5.93967 21.45159,16.91392 1.54542,13.93348 6.81772,21.00196 9.75088,13.07322 l 1.25846,-3.40204 1.03894,3.27337 c 2.82252,8.89305 25.14362,12.48225 40.91825,6.58047 z m 47.99892,-60.25332 c 3.30468,-2.31465 3.38461,-3.08388 3.36183,-32.36564 -0.0122,-16.49719 -0.5749,-30.864453 -1.24908,-31.925761 -0.9478,-1.493265 -9.83495,-1.838586 -39.19652,-1.523118 -32.55572,0.349793 -37.97071,0.73385 -37.97071,2.692628 0,1.95678 5.30069,2.343164 36.93499,2.692507 l 36.935,0.407864 0,9.87322 0,9.87321 -26.27317,0.0233 c -14.45013,0.0122 -27.18095,0.59876 -28.291,1.30209 -1.20789,0.76581 -1.81885,3.32892 -1.52312,6.39002 0.66946,6.92982 3.13884,7.421 32.09879,6.38418 l 23.98971,-0.85879 0,12.58582 0,12.58583 -38.07672,-0.5483 -38.07672,-0.5483 -8.8e-4,-28.46889 c -5.1e-4,-15.65765 -0.60285,-28.84054 -1.33863,-29.29504 -2.24703,-1.388718 -3.22926,7.63606 -3.28238,30.15773 -0.0502,21.35045 -0.0726,21.48814 -2.94815,18.0398 -3.94768,-4.73409 -6.6252,-18.72459 -5.56779,-29.0952 l 0.87231,-8.55492 -2.96691,6.09247 c -3.37937,6.93944 -4.0002,20.30133 -1.31646,28.3312 2.11274,6.32143 8.56942,13.55453 12.09964,13.55453 1.42905,0 2.99287,1.02811 3.47503,2.28468 1.33303,3.47368 73.34359,3.39436 78.31261,-0.0864 z m 39.56938,-39.65345 c -0.44922,-9.97618 -0.50918,-18.65271 -0.13328,-19.28145 0.37594,-0.62828 28.91609,-1.14402 63.42262,-1.14608 76.06328,-0.005 131.71921,-1.489 125.18808,-3.339527 -2.51314,-0.712527 -46.20773,-1.732211 -97.09935,-2.266034 -50.89163,-0.533785 -92.53854,-1.374948 -92.55072,-1.86917 -0.011,-0.49427 -0.43409,-2.440887 -0.93922,-4.325654 -0.74066,-2.763788 -0.29451,-3.427014 2.30551,-3.427014 1.85029,0 3.2239,0.973442 3.2239,2.284676 0,1.281003 1.35923,2.284677 3.094,2.284677 1.70175,0 3.48854,-1.028105 3.9707,-2.284677 0.48221,-1.256511 2.17416,-2.284676 3.76003,-2.284676 1.58575,0 2.88332,1.028104 2.88332,2.284676 0,1.421617 1.43856,2.284677 3.8078,2.284677 2.36924,0 3.80779,-0.863096 3.80779,-2.284677 0,-1.269305 1.35387,-2.284676 3.04624,-2.284676 1.69236,0 3.04623,1.015407 3.04623,2.284676 0,1.421617 1.43856,2.284677 3.8078,2.284677 2.36924,0 3.80779,-0.863096 3.80779,-2.284677 0,-1.42158 1.43856,-2.284676 3.8078,-2.284676 2.36924,0 3.80779,0.863096 3.80779,2.284676 0,1.421581 1.43855,2.284677 3.80779,2.284677 2.36924,0 3.8078,-0.863096 3.8078,-2.284677 0,-1.269305 1.35387,-2.284676 3.04623,-2.284676 1.69237,0 3.04624,1.015407 3.04624,2.284676 0,1.421617 1.43855,2.284677 3.80779,2.284677 2.36924,0 3.8078,-0.863096 3.8078,-2.284677 0,-1.256511 1.29745,-2.284676 2.88332,-2.284676 1.58575,0 3.27775,1.028104 3.76003,2.284676 0.48218,1.256511 2.61172,2.284677 4.73226,2.284677 2.41177,0 3.85556,-0.855542 3.85556,-2.284677 0,-1.269305 1.35387,-2.284676 3.04624,-2.284676 1.69236,0 3.04623,1.015407 3.04623,2.284676 0,1.421617 1.43856,2.284677 3.8078,2.284677 2.36924,0 3.80779,-0.863096 3.80779,-2.284677 0,-1.42158 1.43856,-2.284676 3.8078,-2.284676 2.36924,0 3.80779,0.863096 3.80779,2.284676 0,1.281003 1.35923,2.284677 3.094,2.284677 1.70175,0 3.48855,-1.028105 3.97071,-2.284677 0.4822,-1.256511 2.17416,-2.284676 3.76003,-2.284676 1.58574,0 2.88332,1.028104 2.88332,2.284676 0,1.421617 1.43855,2.284677 3.80779,2.284677 2.36924,0 3.8078,-0.863096 3.8078,-2.284677 0,-2.972273 5.50272,-2.972273 6.64323,0 0.48218,1.256511 2.19572,2.284677 3.80779,2.284677 1.61207,0 3.32564,-1.028105 3.80779,-2.284677 1.41614,-3.690575 10.4676,-2.707128 21.01659,2.283458 l 9.6562,4.568134 59.88289,0.0012 c 63.68703,0.0012 62.34547,0.148168 71.53901,-7.83772 2.75173,-2.39032 6.44583,-4.346003 8.20924,-4.346003 1.7634,0 3.96705,-1.018868 4.89713,-2.264206 0.93006,-1.245301 3.95827,-2.709687 6.72937,-3.254232 4.298,-0.844623 5.16337,-0.511938 5.88935,2.264206 0.6187,2.36595 2.03927,3.254232 5.20358,3.254232 6.94408,0 8.44051,5.160444 7.78691,26.854389 l -0.55667,18.47725 -28.43478,0.99888 c -32.15849,1.12968 -87.88632,3.52389 -110.68313,4.75505 -57.99666,3.13239 -78.67329,3.85593 -135.71587,4.74884 l -64.12813,1.00394 -0.81673,-18.1385 z m 344.57795,-5.72863 c -0.009,-4.31237 -0.42875,-10.33173 -0.93231,-13.37663 l -0.91554,-5.53586 19.83099,-0.0073 19.83099,-0.0073 0.52078,6.304971 c 0.28643,3.46772 0.17807,9.38923 -0.24079,13.15852 l -0.76156,6.85403 -18.65758,0.225 -18.65758,0.225 -0.0167,-7.84064 z m 14.97529,-4.50428 c 0.68253,-3.54399 -2.3958,-7.19363 -5.16983,-6.12915 -2.24178,0.86027 -2.99688,6.79237 -1.10524,8.68396 1.85479,1.85479 5.7296,0.27712 6.275,-2.55494 z m 14.74256,-1.83408 c 0,-3.52267 -0.68234,-4.54852 -3.0254,-4.54852 -3.16699,0 -4.73275,3.82425 -3.20049,7.81713 1.59159,4.14763 6.22589,1.71466 6.22589,-3.26861 z"
     style="fill:#ffffff"
     inkscape:connector-curvature="0" />
</svg>
