<?xml version="1.0" encoding="UTF-8" standalone="no"?>
<!-- Created with Inkscape (http://www.inkscape.org/) -->
<svg id="svg3336" xmlns:rdf="http://www.w3.org/1999/02/22-rdf-syntax-ns#" xmlns="http://www.w3.org/2000/svg" height="1498" viewBox="0 0 716 1498" width="716" version="1.1" xmlns:cc="http://creativecommons.org/ns#" xmlns:dc="http://purl.org/dc/elements/1.1/">
 <metadata id="metadata3342">
  <rdf:RDF>
   <cc:Work rdf:about="">
    <dc:format>image/svg+xml</dc:format>
    <dc:type rdf:resource="http://purl.org/dc/dcmitype/StillImage"/>
    <dc:title/>
   </cc:Work>
  </rdf:RDF>
 </metadata>
 <path id="path3576" fill="#fff" d="m359.66 1457.5c-2.9995-1.5155-6.8223-2.5688-9.3908-2.5876-6.4512-0.048-14.793-3.2084-36.419-13.802-12.405-6.0767-22.795-10.435-28.547-11.974-16.398-4.3885-25.303-11.14-25.303-19.185 0-2.1988 0.43483-5.396 0.96629-7.1049 4.104-13.196 6.4552-27.247 6.8692-41.049 0.48765-16.259 0.20966-17.946-5.5832-33.894-2.2235-6.1212-6.0927-16.821-8.5984-23.777-8.7387-24.259-15.054-39.284-27.006-64.248-15.97-33.358-18.451-40.303-27.46-76.895-2.6218-10.649-3.5964-33.941-2.0109-48.059 1.5205-13.538 5.2999-28.531 9.9147-39.331 3.3992-7.9551 3.5265-8.6341 2.0871-11.13-1.7057-2.9571-2.6998-7.1455-5.9134-24.916-4.2578-23.545-17.227-65.047-26.716-85.495-12.892-27.781-17.445-38.994-21.775-53.624-2.3876-8.0688-6.5441-21.316-9.2367-29.439-4.677-14.109-8.8757-31.46-13.197-54.538-1.6939-9.0464-1.9184-13.628-1.5122-30.859 0.84959-36.04 6.8843-57.402 23.238-82.26 12.939-19.667 20.617-26.077 46.634-38.931 10.077-4.9788 19.35-9.446 20.607-9.927 5.6966-2.1806 13.523-19.936 16.596-37.649 2.1179-12.208 2.1296-12.735 0.40107-18.023-2.1027-6.4323-11.062-21.053-25.348-41.365-5.675-8.0688-10.859-15.695-11.521-16.947-0.66149-1.2521-1.5701-2.2765-2.019-2.2765-0.44898 0-2.0943 3.3009-3.6563 7.3353-1.562 4.0345-5.3294 12.344-8.372 18.465-11.552 23.24-20.631 49.167-27.812 79.424-3.0933 13.033-9.5893 29.703-19.997 51.317-9.5137 19.757-14.737 28.609-30.756 52.12-17.24 25.303-18.153 26.894-22.676 39.537-5.1671 14.44-5.5508 16.871-3.5873 22.728 2.4533 7.3182 3.7613 8.3189 10.907 8.3447 7.4363 0.027 13.583 2.5558 16.638 6.8454 2.0887 2.9334 2.1764 4.0823 2.1764 28.515v25.458l-2.6495 3.4737c-1.4572 1.9105-3.0935 3.4737-3.636 3.4737-0.54258 0-3.3933 1.4395-6.3349 3.199-5.1106 3.0568-5.3754 3.4273-5.9564 8.3327-0.80682 6.8124-3.347 10.133-8.0591 10.534l-3.67 0.3126-0.27658 17.393-0.27658 17.393-3.5412 0.3194c-2.6126 0.2357-4.8091 1.5598-8.376 5.0494l-4.8348 4.7298 0.69683 50.274 0.69682 50.274-5.1235 5.9141c-2.8197 3.2548-7.1008 6.8691-9.5209 8.0379-11.843 5.7195-10.834 5.4753-17.951 4.3469-3.6752-0.5827-7.1952-1.6052-7.8222-2.2723-1.5761-1.6771-3.3689-25.255-3.4002-44.719-0.0143-8.9036-0.47063-26.432-1.014-38.953-0.54333-12.521-0.99564-30.391-1.0052-39.712-0.014-13.712-0.28336-16.947-1.411-16.947-0.76657 0-1.851-0.5691-2.4098-1.2647s-1.4978-11.906-2.0867-24.911c-0.97582-21.552-1.2529-23.841-3.128-25.837-1.6696-1.7772-2.2687-4.5053-3.1784-14.474-1.0013-10.973-0.9362-12.674 0.61008-15.932 1.6032-3.3784 8.9195-10.664 10.709-10.664 0.43009 0 0.51908-2.2198 0.19776-4.9328-0.49161-4.1509-0.24348-5.2736 1.5653-7.0824 1.3228-1.3229 3.4334-2.1496 5.4875-2.1496 2.9477 0 3.4925-0.4436 4.6598-3.7942 0.72703-2.0867 2.7125-5.5654 4.4122-7.7304 2.1026-2.6781 3.6904-6.5134 4.9678-11.999 1.0326-4.4346 4.0974-14.729 6.8107-22.876 5.7884-17.38 13.624-47.808 15.278-59.331 1.1573-8.0607 1.5863-10.263 4.4346-22.765 6.416-28.161 16.379-60.854 21.453-70.402 1.4545-2.7364 5.8435-9.514 9.7534-15.061 9.8281-13.944 10.674-15.848 13.345-30.031 4.6056-24.454 11.832-59.153 13.876-66.625 1.1414-4.1735 4.1299-11.87 6.641-17.104 7.8629-16.388 8.4868-18.965 8.8422-36.52 0.48656-24.038 4.1206-41.098 11.415-53.591 2.1015-3.5989 7.5595-10.273 12.129-14.832 10.461-10.436 18.254-14.462 29.58-15.282 4.2028-0.304 9.2404-1.3543 11.195-2.334 1.9544-0.9797 6.8354-2.7782 10.847-3.9966 5.0407-1.5311 8.5362-3.3595 11.317-5.9199 2.2132-2.0376 5.4137-4.7637 7.1122-6.0581 2.4698-1.8822 3.0826-3.0978 3.0608-6.0706-0.0405-5.4987-4.9079-15.951-12.653-27.172-9.2675-13.426-9.4466-13.616-11.689-12.416-1.0208 0.5464-4.9534 1.1008-8.739 1.2322-6.2936 0.2184-7.3395-0.053-12.215-3.1762-6.694-4.2876-17.596-16.913-21.504-24.903-5.6815-11.617-5.8513-22.899-0.46714-31.035l2.4836-3.7529-3.4741-2.1471c-4.2947-2.6542-8.6965-8.1213-12.308-15.286-2.378-4.7182-2.8123-6.9952-3.1918-16.736-0.40917-10.503-0.2584-11.67 2.2009-17.042 1.6469-3.5974 5.3416-8.5528 9.8211-13.173 8.6113-8.8809 14.924-12.097 22.343-11.384 4.1617 0.3999 5.1552 0.1189 7.1442-2.0207 7.1411-7.6816 18.559-12.503 36.485-15.406 6.8015-1.1015 15.553-2.6863 19.449-3.5219 13.866-2.9743 30.03-1.5639 39.924 3.4836 9.9108 5.0561 19.798 19.544 21.194 31.056 0.71308 5.8814 2.0857 9.4548 4.8532 12.634 2.6023 2.9893 9.4062 20.002 9.4062 23.52 0 3.2748 0.19779 3.4521 4.8059 4.3073 5.1867 0.9626 4.8863 0.3498 4.1342 8.433-0.0777 0.8347 0.39299 5.1497 1.0459 9.5889 1.0149 6.9006 0.95059 8.8232-0.44355 13.256-1.4934 4.7481-1.4953 5.583-0.0219 9.9231 2.4624 7.2527 1.9666 14.959-1.996 31.027-1.9826 8.0397-4.6852 19.793-6.0056 26.118-2.3886 11.442-3.5663 13.843-9.1028 18.554-2.0232 1.7217-2.0225 1.7316 0.27629 4.0471 2.2076 2.2238 3.0362 2.3296 19.73 2.5211 9.5838 0.1099 21.068-0.2217 25.519-0.7369 16.059-1.8584 27.83 1.9902 40.09 13.108 3.6859 3.3425 8.1873 8.4832 10.003 11.424 1.8159 2.9406 4.0663 6.4849 5.001 7.8761 2.5241 3.7569 8.6521 19.744 10.634 27.742 2.6199 10.573 3.1336 11.518 10.451 19.241 8.8056 9.2929 14.643 17.154 24.379 32.83 8.5426 13.755 13.279 22.681 15.229 28.699 0.67611 2.0868 1.5476 3.7941 1.9368 3.7941 0.38909 0 3.8824-3.2198 7.7628-7.1552 3.8803-3.9354 13.202-11.844 20.714-17.576 20.443-15.596 23.636-19.483 45.754-55.705 4.4173-7.2342 9.361-14.834 10.986-16.888 1.822-2.3032 2.9546-4.9335 2.9546-6.8619 0-1.72 0.6271-4.628 1.3935-6.4623 2.6429-6.3255 18.226-21.94 30.348-30.41 3.1197-2.1798 8.1482-7.1881 11.174-11.13 8.8056-11.469 11.773-13.939 16.291-13.559 4.633 0.3897 7.4665 3.6841 8.2605 9.6038 0.6666 4.97-0.922 8.282-7.5003 15.637-2.6731 2.9888-5.4073 6.1464-6.076 7.017-1.0992 1.4311 2.5103 1.549 37.624 1.2297 36.931-0.3359 38.906-0.2608 40.186 1.5286 0.7406 1.035 3.9646 3.113 7.1643 4.6177 5.3627 2.5218 5.8177 2.9982 5.8177 6.0905 0 2.0698-0.7751 4.0562-2.0235 5.186-1.113 1.0072-2.0236 2.8732-2.0236 4.1466 0 3.0576-3.1519 5.1317-10.043 6.6088-3.1014 0.6648-6.322 1.78-7.1567 2.4783-0.8348 0.6983-6.9812 2.871-13.659 4.8284-11.712 3.4329-15.435 4.7905-37.436 13.649-12.65 5.0936-25.813 8.938-33.633 9.8226-5.6275 0.6367-6.0821 0.8881-7.201 3.9822-0.6567 1.8163-2.3012 4.497-3.6543 5.9571-4.2706 4.6079-8.0685 10.823-15.845 25.928-4.154 8.0688-11.37 20.59-16.036 27.824-9.0661 14.056-20.658 32.836-30.914 50.086-12.56 21.124-29.653 42.708-43.791 55.295-7.9036 7.0369-10.052 8.4438-12.893 8.4438-2.2302 0-3.7418-0.6213-4.3708-1.7966-0.52887-0.9882-3.7319-4.0187-7.118-6.7346-3.386-2.7159-6.1564-5.5094-6.1564-6.2079s-3.9839-4.4472-8.853-8.3305c-12.353-9.8514-21.067-20.517-33.022-40.416-3.3312-5.5448-4.0372-6.1926-5.7495-5.2763-2.3773 1.2724-2.3927 0.501 0.18542 9.3334 1.593 5.4576 2.268 11.23 2.6501 22.666 0.59755 17.88-0.86786 26.781-6.3022 38.28-4.1629 8.8087-11.069 29.345-12.589 37.435-0.78166 4.1604-0.93781 15.304-0.49627 35.412 0.52923 24.101 0.37294 30.606-0.87514 36.424-1.2333 5.7488-1.2771 7.3682-0.23243 8.6001 2.4955 2.9428 7.3613 21.826 8.2064 31.847 1.2096 14.345 1.2759 14.544 6.8755 20.634 16.397 17.835 26.912 38.05 38.589 74.182 7.6958 23.812 8.1637 25.476 13.041 46.35 4.075 17.441 8.6112 43.19 11.74 66.642 2.6506 19.866 5.138 30.459 10.248 43.641 3.5462 9.1486 4.2516 12.309 5.0801 22.765 0.5292 6.6777 0.62609 15.101 0.21531 18.718-0.41078 3.6171-0.61775 15.238-0.46007 25.824 0.32465 21.789-0.55842 29.593-5.4925 48.541-4.1861 16.076-9.1044 29.382-18.698 50.589-23.164 51.202-32.472 72.85-32.63 75.883-0.0575 1.1129-2.5076 9.1885-5.4439 17.946-2.9363 8.757-6.5108 20.822-7.9434 26.812-3.0748 12.856-7.397 26.315-8.7113 27.127-0.5127 0.3169-0.93218 2.3113-0.93218 4.432 0 2.1206-1.3413 8.3705-2.9806 13.889-2.9942 10.079-4.627 14.027-14.004 33.863-6.0715 12.843-9.3213 24.047-9.3213 32.135 0 3.2626-0.7008 7.9184-1.5574 10.346-1.019 2.8881-1.1909 4.5362-0.49725 4.7674 0.58306 0.1943 2.7987 1.8059 4.9236 3.5813 2.1249 1.7753 7.0155 4.5045 10.868 6.0647 11.792 4.7761 12.023 4.968 12.375 10.273 0.25343 3.825-0.1913 5.3632-2.3808 8.2338-1.4808 1.9414-3.8976 4.0544-5.3705 4.6955-1.473 0.6411-3.6637 2.1851-4.8684 3.4311-1.2046 1.246-3.4811 2.539-5.0589 2.8734-1.5777 0.3343-3.6592 1.0357-4.6255 1.5585-0.96628 0.5229-2.462 0.9507-3.3238 0.9507-0.86186 0-2.6265 0.6942-3.9215 1.5428-1.295 0.8485-5.2628 1.7852-8.8174 2.0817-5.5506 0.4628-7.1771 0.1782-11.522-2.017zm15.177-0.6817c2.2259-0.5976 4.5024-1.6194 5.0589-2.2709 0.55648-0.6513 1.9224-1.2632 3.0353-1.3597 5.1298-0.4447 10.311-2.4719 12.346-4.8305 1.2254-1.4203 2.7211-2.5824 3.3238-2.5824 1.8112 0 6.0858-3.1768 7.3402-5.4551 0.64597-1.1732 1.2086-3.829 1.2503-5.9017 0.0733-3.6482-0.10271-3.8392-5.5156-5.9854-7.5322-2.9864-14.678-6.5686-16.356-8.1987-0.75717-0.7357-2.7916-2.3319-4.5209-3.5471l-3.1442-2.2096 1.8464-5.3455c1.8726-5.4211 2.6643-17.198 1.0361-15.413-0.48204 0.5287-1.698 4.0718-2.7021 7.8737s-2.6916 8.0133-3.75 9.3589c-2.2503 2.8608-4.3282 3.3347-2.9633 0.6758 1.3734-2.6756 2.2622-12.708 1.267-14.302-1.3239-2.1195-2.7278 1.2302-3.5556 8.4838-0.96503 8.4559-1.4252 9.6118-3.8264 9.6118-2.0155 0-2.0796-0.3682-1.4987-8.6 0.36632-5.1908 0.22535-8.6001-0.35561-8.6001-0.52939 0-0.97657 0.5691-0.99376 1.2647-0.10283 4.1629-2.0992 16.268-2.9429 17.845-1.3663 2.553-6.4612 1.7343-5.624-0.9037 0.47643-1.5011 2.4959-17.105 2.5198-19.47 0.004-0.4173-0.62655-0.7588-1.4017-0.7588-1.9095 0-2.7074 2.434-1.9838 6.0517 0.63233 3.1616-2.41 16.207-3.7796 16.207-0.44104 0-1.1025-0.4864-1.4698-1.0809-0.36738-0.5943-1.3717-0.8106-2.2319-0.4805-1.3462 0.5166-1.4804-0.2953-0.96349-5.8302 0.33025-3.5368 1.3451-8.4426 2.2551-10.902 3.1821-8.599 3.1924-12.65 0.0292-11.436-1.831 0.7025-3.5858 6.4725-3.5936 11.816-0.005 3.7867-0.0515 3.8314-3.307 3.2207-4.8671-0.9131-8.0711 2.7452-7.6392 8.7225 0.29992 4.1511 0.52096 4.4349 4.1111 5.2789 3.7362 0.8784 4.7356 2.0133 2.8171 3.199-1.6691 1.0316-8.5442-3.172-10.405-6.3619-2.1635-3.7081-2.2346-9.7333-0.21587-18.297 0.83865-3.5578 1.282-7.2335 0.98529-8.1685-0.29673-0.9349 0.13314-3.0483 0.95527-4.6963 0.82212-1.648 1.8018-5.7121 2.1771-9.0315 0.77087-6.8183 2.3406-10.337 9.5147-21.326 2.765-4.2356 4.734-8.1756 4.3756-8.7555-0.35841-0.5799-0.16933-0.7563 0.42017-0.392 1.2548 0.7755 6.3402-7.4274 6.2874-10.142-0.0291-1.4988-0.32475-1.3705-1.5811 0.6861l-1.5452 2.5294 0.67198-2.5294c1.6681-6.279 2.4693-18.942 1.4916-23.574-1.6523-7.8274-1.2331-17.859 0.94693-22.661 1.4849-3.2707 3.0879-4.8335 6.9817-6.8066 6.6823-3.3862 13.311-4.8734 15.1-3.3881 1.037 0.8605 1.9108 0.5492 3.7127-1.323 2.4645-2.5607 6.6335-12.717 6.6335-16.16 0-1.8866 0.22445-1.8515 3.958 0.6193 5.3066 3.5117 15.155 5.1755 22.414 3.7864 5.4762-1.048 5.4818-1.0529 1.3597-1.1852-9.6567-0.3101-18.817-5.0044-21.283-10.907-0.77922-1.8649-2.11-3.3907-2.9572-3.3907-1.3019 0-1.4594-1.3709-1.017-8.853 0.28788-4.8692 0.7719-15.455 1.0756-23.524 0.6886-18.296 2.3602-31.344 4.3044-33.6 1.3135-1.5243 1.3005-2.5428-0.11032-8.6001-3.9789-17.083-4.5673-29.437-2.2306-46.836 2.1253-15.825 5.2599-29.27 10.375-44.502 7.3216-21.801 10.299-27.47 11.829-22.528 0.30158 0.9738 0.36816 0.091 0.14797-1.9609-0.24677-2.3 0.11295-4.1575 0.93768-4.8419 0.73592-0.6108 1.634-2.6879 1.9956-4.6157 0.36165-1.9278 0.97841-3.5038 1.3705-3.5022 0.39215 0 8.2254 2.4589 17.407 5.4607 15.251 4.9862 16.301 5.4776 12.141 5.6853l-4.553 0.2273 6.0706 0.8634c3.3388 0.4749 7.095 1.1109 8.3471 1.4135 1.5048 0.3637 2.2765 0.089 2.2765-0.81 0-1.5246-15.83-7.2185-32.927-11.843-10.901-2.9489-14.049-4.669-15.204-8.3081-0.44276-1.3951-1.2407-1.8228-2.6922-1.4432-1.5254 0.3988-3.6399-0.9611-8.1153-5.2193-8.4532-8.0431-13.595-15.615-23.584-34.729-8.8317-16.9-14.184-31.233-22.337-59.812-2.024-7.0951-4.081-12.9-4.571-12.9-0.49003 0-0.65762 1.0244-0.37241 2.2764 0.28521 1.2521 1.4558 6.6018 2.6014 11.888 1.1455 5.2864 3.1973 14.02 4.5596 19.407 1.3622 5.3874 2.4768 10.613 2.4768 11.612 0 2.1736-11.984-9.4091-25.11-24.269-11.582-13.112-18.937-24.266-27.421-41.582l-6.9756-14.238-1.1464-25.992c-0.63049-14.296-1.41-28.218-1.7323-30.94-0.52551-4.437-0.28092-5.3042 2.3713-8.408 1.6265-1.9034 5.187-7.1031 7.9123-11.555 4.7079-7.6904 14.18-18.042 25.291-27.638 5.0054-4.3233 5.0157-4.3443 1.0099-2.0669-10.234 5.8181-23.968 15.371-31.236 21.728-10.72 9.3743-10.725 9.3774-12.121 7.0817-1.5902-2.6147-11.016-13.744-18.36-21.678-6.3778-6.8899-20.639-18.842-21.479-18.002-0.27027 0.2703 4.4198 5.868 10.422 12.44 15.433 16.896 21.639 27.211 27.581 45.842 5.5341 17.353 5.6689 18.405 5.703 44.518 0.0367 28.063-1.484 49.465-4.5598 64.177-1.1894 5.6891-1.8516 11.614-1.5267 13.659 0.31566 1.9863 1.2623 14.311 2.1037 27.388 0.84138 13.077 1.9717 26.508 2.5118 29.847 0.54012 3.3388 0.98547 10.427 0.98968 15.752 0.0114 14.478-3.2393 23.944-11.023 32.097-4.6763 4.8983-4.6185 4.6075-2.5563 12.858 2.591 10.366 4.4464 28.743 3.4384 34.057-1.1575 6.1035-3.2427 11.091-5.3771 12.861-2.3241 1.9275-2.1196 4.1504 1.3044 14.174 6.9491 20.343 12.765 63.979 15.186 113.94 1.2353 25.488 2.3392 37.494 5.3491 58.177 1.1743 8.0689 2.2243 16.96 2.3335 19.758 0.10919 2.7978 0.51426 6.5245 0.90015 8.2814 0.66692 3.0364 0.51069 3.2475-3.1585 4.2664-2.123 0.5895-5.0295 1.0744-6.4588 1.0775-4.6556 0.01-12.641-2.9339-15.123-5.5754-1.8243-1.9419-3.078-2.439-5.0559-2.0045-2.4495 0.5379-2.7531 0.187-4.4239-5.1134-2.2514-7.1421-3.2086-6.5192-1.6344 1.0635 2.0549 9.8983 0.4499 7.0863-3.0249-5.2999-4.1694-14.862-11.56-36.085-17.18-49.336-3.5188-8.2957-26.344-57.514-29.379-63.35-1.6614-3.1949-9.0268-34.976-10.642-45.921-1.2667-8.5818-1.4872-14.719-0.96347-26.812 1.0517-24.281 4.4655-41.463 11.291-56.829l2.5471-5.7341 7.9144 8.0106c8.392 8.4942 12.547 10.819 6.8929 3.8572-8.544-10.52-11.973-15.6-11.973-17.738 0-2.3139 0.003-2.3135 8.1838 1.188 4.5011 1.9266 8.3711 3.5029 8.6001 3.5029 0.22894 0 0.48318 6.0326 0.56499 13.406 0.11887 10.713 0.30195 12.288 0.91133 7.8413 2.8737-20.971 2.2334-19.4 7.1946-17.649 4.4977 1.5869 15.016 3.1192 15.016 2.1876 0-0.3102-2.3903-1.343-5.3118-2.2952s-6.45-2.319-7.8412-3.0373-3.2868-1.54-4.2125-1.8259c-1.3311-0.4112-1.5695-1.3672-1.1397-4.5712 1.011-7.5379-2.0728-12.359-5.6301-8.8014-1.2367 1.2367-1.323 2.3655-0.46662 6.1078 0.57777 2.5249 0.87859 4.5907 0.66845 4.5907-2.2044 0-19.742-9.4381-20.937-11.267-0.85912-1.3155-3.4352-10.587-5.7246-20.604-8.3886-36.701-21.406-71.424-50.144-133.76-13.485-29.249-20.901-53.33-24.178-78.513-4.4701-34.35 2.2091-79.677 15.06-102.2 11.204-19.638 24.17-31.238 59.097-52.872 11.028-6.8308 14.808-9.7134 15.792-12.042 1.4859-3.519 13.406-18.64 18.428-23.376 2.8006-2.6412 3.3882-3.9342 3.3882-7.4552 0-5.8366-9.2572-33.62-14.195-42.603-2.2095-4.0196-4.0173-7.6264-4.0173-8.015 0-0.9296 18.118-7.135 20.786-7.1194 1.1377 0.01 9.9924-3.1607 19.677-7.0385 9.6847-3.8778 17.76-6.8995 17.944-6.715 0.18454 0.1846-2.5835 2.2373-6.1511 4.5618-3.5676 2.3244-7.3374 5.1808-8.3773 6.3475l-1.8906 2.1213 3.5412-1.7706c7.3719-3.6859 33.243-21.346 33.708-23.009 0.26701-0.9557 2.106-2.5105 4.0867-3.455s3.3227-2.1679 2.9823-2.7186c-0.34038-0.5508-0.13436-0.7019 0.45782-0.336 0.59219 0.366 3.2805-0.3191 5.974-1.5226 10.403-4.6478 0.94576-2.7146-18.126 3.7054l-19.809 6.6681-12.016-1.0434c-23.96-2.0804-36.264-9.6363-45.225-27.772-4.6591-9.4292-5.9573-18.516-3.9918-27.941 0.75434-3.6169 1.3646-7.2593 1.356-8.0942-0.0138-1.3493-0.12452-1.3493-0.99627-0.0004-0.71269 1.1028-0.98503 1.1556-0.99628 0.1932-0.008-0.7284-0.39457-1.0901-0.85788-0.8038-1.284 0.7936-3.5533 22.755-2.9962 28.997 1.1778 13.196 6.7167 25.076 16.096 34.523 4.0556 4.0848 6.0393 5.1513 14.501 7.7962 9.407 2.9404 10.152 3.0212 18.473 2.0035 4.7687-0.5833 10.486-1.7013 12.706-2.4844 2.2195-0.7831 4.5474-1.4056 5.173-1.3833 1.904 0.068-4.4946 3.1774-12.521 6.0852-12.351 4.4742-33.475 12.683-39.459 15.334l-5.5647 2.4648-7.9603-13.733c-9.6267-16.608-10.902-19.332-14.381-30.73-2.3675-7.7564-2.6285-9.9069-2.0266-16.694 0.62801-7.0817 5.2776-24.57 7.6278-28.69 1.5084-2.6445 5.9424-23.674 7.2196-34.242 1.3959-11.55 0.58926-25.377-2.0113-34.476-1.0458-3.659-2.4825-10.905-3.1927-16.102-1.2127-8.8739-1.5275-9.6853-5.1719-13.33-2.1344-2.1343-3.8807-4.1032-3.8807-4.3752s3.6994-2.3546 8.2208-4.628l8.2208-4.1333-0.80774 3.8691c-1.1796 5.6505-0.6828 10.707 2.1498 21.882 5.7262 22.59 11.86 34.542 23.658 46.099 10.344 10.133 14.644 12.986 34.739 23.051 18.234 9.1337 32.537 14.52 38.555 14.52 3.6582 0 5.4645-0.8289 11.332-5.2007 19.679-14.662 36.476-36.433 39.895-51.711 2.6654-11.911-2.6877-31.369-14.751-53.62-4.147-7.6489-7.5399-14.12-7.5399-14.381 0-0.2607 2.6157-0.3327 5.8128-0.1602 5.609 0.3028 5.8535 0.4345 6.9758 3.7575 1.6814 4.978 3.991 13.327 6.4105 23.173 1.1623 4.7301 4.3846 15.755 7.1607 24.501 4.2966 13.536 5.9356 17.223 11.02 24.788 3.3452 4.9783 10.27 13.088 15.743 18.436 14.439 14.11 17.999 19.97 19.19 31.588 2.0469 19.968-7.606 38.422-23.242 44.43-5.8495 2.2479-7.0474 2.3251-32.883 2.1187-31.706-0.2533-37.816 0.5972-22.693 3.1592 5.5251 0.9361 13.916 2.4361 18.646 3.3335 5.0385 0.9559 14.676 1.6955 23.271 1.7858l14.671 0.1542 2.2417 4.553c3.0593 6.2136 4.7329 21.031 3.9552 35.019-0.66691 11.995-4.836 28.248-10.742 41.875-5.2145 12.032-6.4933 23.208-6.5415 57.165-0.0404 28.472-0.19449 30.996-2.487 40.725l-2.4439 10.371 4.3702 9.196 4.3702 9.196-2.938 2.441-2.938 2.441 2.8482-1.0141c1.5665-0.5578 3.0695-1.0142 3.3399-1.0142 0.86055 0 3.4818 7.0664 4.355 11.74 0.73333 3.9253 0.58833 4.6467-1.1175 5.5597-3.0879 1.6526-1.9143 5.1802 2.4297 7.3032 10.618 5.1893 26 29.306 36.899 57.852 9.4514 24.754 22.02 72.967 27.582 105.81 2.1505 12.697 4.1658 23.5 4.4784 24.005 0.31251 0.5057 1.0832 4.2873 1.7126 8.4036 1.2672 8.2867 7.071 31.845 12.041 48.877 3.0481 10.445 3.1586 11.399 2.05 17.706-0.64454 3.6663-2.2728 10.136-3.6186 14.377-1.3457 4.241-2.4512 9.477-2.4566 11.635-0.0121 4.8243-2.3271 9.8131-13.517 29.13-4.807 8.2986-8.6136 15.215-8.4589 15.37 0.33785 0.3379 8.7203-10.07 11.329-14.067 1.1354-1.7393 2.4212-2.6138 3.3301-2.265 1.0148 0.3894 1.296 0.087 0.89392-0.9609-0.32272-0.8411-0.1189-1.5292 0.45295-1.5292s0.75834-0.4553 0.41442-1.0117c-0.34392-0.5565-0.1877-1.0118 0.34716-1.0118s1.4487-1.3659 2.0307-3.0353c1.4655-4.2042 2.3788-3.799 1.7105 0.7588l-0.55632 3.7941 1.4452-3.5412 1.4453-3.5412 0.072 6.0707c0.10571 8.8747-3.3566 30.713-6.8977 43.506-6.1777 22.319-8.972 29.702-27.954 73.859-5.9802 13.912-12.823 30.758-15.207 37.436-4.4368 12.431-8.3512 21.865-9.4459 22.765-0.33832 0.2783-0.68988 1.1889-0.78123 2.0236-0.51638 4.7182-10.724 41.247-12.266 43.895-1.0095 1.7335-2.8368 3.2975-4.0606 3.4753-2.0833 0.3026-2.2263 0.8514-2.2411 8.6001-0.0214 11.197-3.0135 24.591-8.0504 36.037-4.4209 10.046-9.1788 25.137-9.0673 28.759 0.0367 1.1897 0.7344-0.3409 1.5506-3.4015 0.81621-3.0606 4.8293-12.622 8.9179-21.247 8.1592-17.213 13.623-32.871 14.475-41.483 0.30291-3.0605 1.1194-6.2476 1.8144-7.0824 1.407-1.6897 5.4596-15.185 8.5074-28.33 1.0967-4.73 4.2325-15.202 6.9684-23.271 2.7359-8.0689 5.2307-16.037 5.5441-17.706 0.31341-1.6695 3.5684-10.235 7.2332-19.035 6.5407-15.705 9.9674-23.434 22.064-49.765 16.23-35.328 23.948-58.412 27.001-80.762 1.3802-10.104 1.4023-34.109 0.0348-37.706-0.76967-2.0243-0.62988-4.7944 0.52863-10.475 2.5001-12.258 0.8966-28.991-3.9808-41.54-4.7182-12.14-8.0234-25.475-10.157-40.977-9.6608-70.193-23.692-123.21-42.292-159.8-6.2011-12.199-19.165-30.706-23.499-33.546-3.167-2.0751-3.5706-3.3792-4.5908-14.83-1.1222-12.597-5.533-31.113-8.4301-35.389-2.1146-3.121-2.1586-3.5594-0.78927-7.8584 1.5452-4.8508 2.0412-26.844 1.278-56.659-0.32212-12.583-0.0568-16.982 1.3419-22.259 2.6269-9.9092 9.0318-28.004 12.534-35.412 4.7926-10.136 6.6126-21.216 5.9706-36.35-0.29812-7.0272-1.2668-15.212-2.1642-18.286-3.0576-10.474-3.114-11.981-0.54955-14.711 3.274-3.4851 5.3634-3.1186 7.4371 1.3046 0.97831 2.0868 5.6432 9.5775 10.366 16.646 6.4132 9.5978 10.784 14.85 17.26 20.741 4.7696 4.3392 11.727 10.849 15.46 14.466 12.332 11.948 16.035 15.177 17.398 15.169 1.6111-0.01 13.196-10.237 21.384-18.879 9.4788-10.004 24.61-31.234 37.552-52.689 6.6319-10.994 17.314-28.184 23.738-38.201 6.4238-10.016 15.437-25.497 20.029-34.4 4.5923-8.9036 10.415-18.689 12.94-21.746 2.5246-3.0569 4.8682-7.0408 5.2083-8.853 0.612-3.2624 0.6753-3.2951 6.4007-3.2951 7.7977 0 24.677-4.864 40.86-11.775 12.119-5.1752 28.33-10.808 38.876-13.507 2.3628-0.6049 5.1828-2.0518 6.2669-3.2154 1.1088-1.1901 2.6417-1.8583 3.5041-1.5274 0.8432 0.3236 3.9419-0.2421 6.8861-1.2569 5.0426-1.7382 5.3382-2.0288 5.0962-5.0113-0.1806-2.2263 0.1843-3.1661 1.2291-3.1661 1.489 0 3.5807-2.9373 3.5807-5.0283 0-0.6128-2.1627-2.0379-4.8059-3.1668-2.6433-1.129-6.0068-3.1977-7.4745-4.5973l-2.6685-2.5445-38.308 0.9116c-21.07 0.5014-38.91 0.615-39.645 0.2525-0.9863-0.4863-0.347-1.965 2.4374-5.6374 2.076-2.738 4.1428-5.1251 4.5932-5.3047 0.4503-0.1796 2.4801-2.5898 4.5106-5.3561 2.8044-3.8202 3.679-5.9769 3.6377-8.9698-0.073-5.2735-2.6774-9.1242-6.1715-9.1242-3.0409 0-5.6792 2.5011-14.538 13.782-3.1229 3.9767-8.4839 9.1902-11.964 11.635-7.9424 5.5794-22.438 19.28-26.308 24.866-1.7616 2.5421-3.1946 6.1974-3.57 9.1059-0.3448 2.6725-1.4014 5.7696-2.3477 6.8826-0.9464 1.1129-4.3734 6.3488-7.6155 11.635-25.759 42.001-30.505 47.918-50.598 63.081-6.6777 5.0393-15.986 12.996-20.685 17.682-9.0472 9.0225-10.503 9.4979-12.692 4.1423-2.8242-6.9122-13.053-25.901-18.758-34.823-7.1756-11.222-13.85-19.939-22.884-29.888-5.2198-5.7487-6.3076-7.675-8.285-14.671-8.2205-29.082-19.201-46.538-35.58-56.563-9.754-5.9697-11.348-6.1543-43.632-5.0525-22.994 0.7847-29.404 0.2564-32.324-2.6641-2.8999-2.8999-2.3967-5.3135 2.0308-9.7411 2.1898-2.1898 4.218-5.089 4.507-6.4426 0.87055-4.0767 6.7543-30.033 9.5013-41.915 2.3898-10.337 2.4782-11.59 1.2493-17.706-1.382-6.8779-1.4566-9.4426-0.66201-22.77 0.46638-7.8224 0.45716-7.865-0.27489-1.2683-1.1019 9.9293-2.1071 9.5383-2.1582-0.8395-0.0244-4.9619-0.65372-10.729-1.3984-12.816-1.2618-3.5356-0.22222-5.6621 1.0927-2.2354 0.46455 1.2106 0.9095 0.9587 1.9918-1.1274 1.8137-3.496 1.8239-3.4667-1.1955-3.4667-1.4684 0-2.3185-0.4379-1.9638-1.0117 0.36482-0.5903-0.66401-1.0118-2.4697-1.0118-2.708 0-3.095-0.3508-3.095-2.8055 0-4.1254-5.6119-17.996-10.26-25.36-3.181-5.0392-4.0986-7.5305-4.2856-11.635-0.48832-10.719-10.799-25.497-21.18-30.357-11.428-5.35-21.445-5.9066-40.804-2.2675-7.157 1.3454-17.11 3.1763-22.119 4.0686-10.44 1.8603-20.969 6.5573-27.774 12.39-4.1162 3.5281-5.0296 3.8646-10.624 3.9134-3.8827 0.034-7.3934 0.7274-9.6027 1.897-4.854 2.5698-13.773 11.215-15.251 14.782-0.67707 1.6346-1.5197 2.7967-1.8725 2.5825-0.35277-0.2142-0.71708 2.6372-0.80959 6.3364-0.16216 6.4846-0.1382 6.5554 0.66757 1.9717 1.583-9.0049 8.5848-19.022 13.296-19.022 1.4859 0 1.038 0.8491-2.1062 3.9933-6.2374 6.2374-7.5553 9.5048-7.5712 18.772-0.0113 6.5883 0.46912 9.1294 2.5825 13.659 3.0793 6.5998 10.217 14.058 14.221 14.858 1.8488 0.3698 2.8549 1.2056 2.8549 2.3718 0 1.5269-0.65397 1.7205-4.3 1.2726-6.1464-0.755-9.8961-3.2058-13.674-8.9378-6.5692-9.9659-9.1587-21.31-7.0338-30.812l0.79185-3.5412-1.8036 3.0353c-3.0179 5.0788-2.416 19.439 1.1794 28.141 3.3809 8.1826 11.3 17.426 15.77 18.408 3.7189 0.8168 3.7309 1.5306 0.10995 6.5291-10.608 14.644-4.6586 35.713 14.336 50.771 5.9104 4.6856 11.403 6.3147 18.158 5.3857 3.7438-0.5149 5.1743-1.1871 5.5452-2.6055 0.27492-1.0513 0.83205-1.9115 1.238-1.9115 1.0457 0 9.2561 8.9528 11.673 12.728 1.113 1.7386 3.8073 5.8463 5.9875 9.1282 4.9603 7.467 8.634 17.635 8.6619 23.974 0.0176 4.01-0.46254 5.3034-2.761 7.4371-1.5303 1.4207-4.0344 3.2318-5.5647 4.0248s-2.7824 2.118-2.7824 2.9445c0 1.6204-7.2125 5.2275-16.188 8.0961-3.0606 0.9782-6.1359 2.2238-6.834 2.768-0.6981 0.5443-4.7958 1.3494-9.1059 1.7892-9.3421 0.9533-16.488 3.2428-22.001 7.0496-5.8042 4.0072-15.52 14.205-19.99 20.981-7.4804 11.34-12.027 31.935-12.006 54.386 0.0146 15.447-0.9953 19.799-8.0845 34.836-6.9548 14.752-8.0673 18.869-16.656 61.634-4.1886 20.855-8.1149 38.869-8.7251 40.03-0.61024 1.1618-4.8537 7.5758-9.4299 14.254-4.5762 6.6777-9.2318 13.962-10.346 16.188-4.7974 9.586-14.968 43.538-21.519 71.836-1.1843 5.116-3.7119 18.823-4.571 24.788-1.4629 10.159-12.004 48.955-16.769 61.718-1.1427 3.0606-3.1448 10.08-4.4492 15.599-1.5262 6.4576-2.9737 10.371-4.0607 10.98-1.9214 1.0753-6.5346 10.403-6.5496 13.243-0.008 1.4847-0.52722 1.7503-2.4691 1.263-3.0731-0.7713-7.5043 0.8422-8.3475 3.0396-0.35042 0.9131-0.0614 3.2526 0.64245 5.1989 1.0564 2.9212 1.0396 3.6784-0.0958 4.3404-4.7908 2.7931-8.344 6.0541-10.508 9.6438-2.4586 4.0786-2.4715 4.2302-1.32 15.54 0.92984 9.1329 1.5664 11.797 3.1769 13.298 1.7847 1.6628 2.1056 3.8101 2.8179 18.86 0.4421 9.341 0.82917 20.296 0.86015 24.344 0.0528 6.8966 0.2157 7.421 2.5858 8.3221l2.5294 0.9617 0.0364 16.466c0.0201 9.0564 0.64315 32.174 1.3846 51.372 0.74152 19.198 1.1358 36.338 0.87608 38.088-0.25968 1.7502 0.0829 8.5796 0.76124 15.176 0.67836 6.597 1.1786 13.474 1.1116 15.283-0.0971 2.6219 0.27609 3.2883 1.8415 3.2883 1.0798 0 2.2446 0.4553 2.5885 1.0117 1.351 2.186 9.7102 1.0276 17.047-2.3623 5.7133-2.6397 8.2607-4.5668 11.703-8.853l4.4004-5.4789-0.68474-49.858-0.68474-49.858 3.7604-4.5891c4.0173-4.9026 8.4366-7.7561 11.277-7.2816 1.592 0.2659 1.7703-1.3339 2.0216-18.14l0.27564-18.431 2.6404 1.0039c5.2015 1.9776 7.91-0.9418 9.1298-9.841 0.54887-4.0045 1.156-4.8262 5.8854-7.9654 2.9004-1.9252 5.7722-3.5003 6.3819-3.5003 0.60969 0 2.2699-1.5227 3.6894-3.3837l2.5809-3.3837v-23.37c0-21.574-0.15596-23.635-2.0292-26.81-2.7683-4.692-6.2454-6.1339-15.17-6.2912l-7.5872-0.1336-2.9569-4.7827c-4.5748-7.3996-4.5925-13.007-0.0816-25.873 4.2221-12.043 8.6274-21.235 12.639-26.373 6.1343-7.8563 26.268-38.65 32.294-49.391 7.498-13.366 18.543-37.067 23.661-50.774 3.9264-10.515 6.2677-18.695 10.425-36.424 4.2492-18.119 12.42-39.933 23.687-63.236 3.2286-6.6777 7.3925-16.114 9.2531-20.969s3.9132-8.8389 4.5612-8.853c0.64801-0.014 2.3139 2.0064 3.702 4.4899s8.0359 12.223 14.773 21.643c16.795 23.484 23.331 35.334 24.142 43.775 0.49243 5.1249-1.9198 20.472-4.5133 28.714-1.9398 6.165-8.8829 19.852-11.251 22.178-0.94872 0.93213-10.831 6.1652-21.96 11.629-28.073 13.781-34.068 18.648-47.471 38.534-17.282 25.642-24.971 55.772-23.592 92.454 0.4552 12.114 1.3124 17.854 5.6354 37.733 2.8139 12.94 7.3622 30.168 10.15 38.447 2.7784 8.2511 6.9475 21.375 9.2646 29.164 3.8983 13.104 7.5258 21.89 22.62 54.787 6.2685 13.662 8.532 20.171 15.877 45.657 6.5434 22.705 9.7967 36.323 11.06 46.297 0.60739 4.7954 2.074 10.216 3.6184 13.374l2.597 5.3105-3.1717 6.7129c-4.9708 10.521-9.9064 29.624-11.075 42.866-1.8216 20.644-0.10996 38.554 5.6564 59.189 1.3996 5.0083 3.2765 11.838 4.1709 15.177 2.442 9.1161 9.2444 25.525 19.818 47.805 14.456 30.461 16.486 35.396 32.164 78.161l8.3454 22.765 0.37979 16.188c0.39122 16.676-0.005 19.819-5.3636 42.494-2.9376 12.432-2.9373 12.402-0.15628 16.604 3.0952 4.6772 11.917 9.2965 22.298 11.675 4.1642 0.9542 15.297 5.595 27.824 11.598 28.123 13.478 27.491 13.228 35.275 13.925 4.2312 0.3788 8.5934 1.5268 11.399 2.9996 5.0408 2.6462 7.6811 2.8951 13.667 1.2881zm-7.0868-2.9565c-0.76821-1.243 2.0163-2.4556 3.5137-1.5302 0.5922 0.3659 0.81479 1.0893 0.49462 1.6073-0.77222 1.2494-3.2175 1.2025-4.0083-0.077zm4.9845-3.9776c-2.8996-4.3815-8.0564-8.1565-11.142-8.1565-1.5755 0-1.4753 0.2686 0.6253 1.6756 1.3759 0.9217 3.4851 2.556 4.6872 3.6322l2.1856 1.9565-2.0536 2.0535c-1.6945 1.6947-2.8547 1.9437-6.6364 1.4254-2.5206-0.3454-5.0841-1.0028-5.6968-1.461-0.61261-0.458-4.0733-1.6473-7.6904-2.6426-3.6171-0.9955-16.138-6.5475-27.824-12.338-15.238-7.5504-23.86-11.191-30.486-12.872-10.265-2.6043-17.693-6.4437-20.363-10.525-2.4701-3.776-1.9748-10.914 1.5498-22.334l2.9138-9.4408 3.253 2.7372c1.7891 1.5055 3.3715 2.5667 3.5164 2.3583 3.9647-5.7003 4.0072-6.0161 1.2038-8.9423-2.4372-2.5438-2.8066-4.0461-4.1423-16.844-0.80655-7.7283-1.7435-15.529-2.0822-17.336l-0.61568-3.2843 3.9033 1.6309c5.2812 2.2067 16.571 1.4776 22.257-1.4372l4.1784-2.142 1.7734 4.7645c2.9007 7.7933 10.302 21.586 14.648 27.297 2.9437 3.8684 4.0577 6.3026 4.0577 8.8668 0 1.9439 0.56912 4.4527 1.2647 5.575 0.86461 1.395 0.92905 2.2709 0.20369 2.7686-3.8268 2.6256-4.6559 19.906-1.3264 27.646 2.3665 5.5011 8.3555 10.012 13.293 10.012 1.4486 0 2.9152 0.4553 3.2591 1.0118 0.75453 1.2207 7.2548 1.3581 7.9899 0.1686 0.28658-0.4637 1.849-0.6481 3.4721-0.4099 2.1177 0.3108 3.537-0.1958 5.0259-1.7939 1.1412-1.225 2.5761-1.9173 3.1888-1.5387 2.1141 1.3067 7.1352-0.5069 7.1352-2.5772 0-1.0877 0.69633-1.9431 1.5818-1.9431 1.3381 0 22.426 9.5561 23.604 10.696 0.21842 0.2115-0.17692 1.0761-0.87852 1.9215-1.8227 2.1962 1.188 6.4944 5.0965 7.2762 2.2372 0.4473 2.7408 0.9201 1.9699 1.8491-1.866 2.2483-6.0709 0.7682-11.942-4.2037-3.1748-2.6884-5.9272-5.24-6.1166-5.6701-0.43027-0.9774-5.7616-3.7749-7.1937-3.7749-0.5841 0-1.062 0.6829-1.062 1.5176 0 0.8348 0.57038 1.5177 1.2675 1.5177s4.5336 2.5768 8.5255 5.7262c7.1633 5.6516 7.2359 5.7564 5.562 8.0367l-1.696 2.3105-3.4551-3.7367c-4.5321-4.9014-9.1607-8.2896-11.325-8.2896-1.1296 0 0.54776 2.1962 4.784 6.264 5.4519 5.2351 6.2525 6.4156 4.8744 7.1869-1.2254 0.6859-2.4688 0.1455-4.8404-2.1036-3.1638-3.0005-8.742-6.2885-10.669-6.2885-0.5508 0 1.4883 2.3547 4.5313 5.2327 3.7898 3.5842 5.205 5.5603 4.4924 6.273-1.5732 1.5732-1.2572 2.3227 0.94178 2.2336 2.3244-0.094 2.8742 1.7966 0.65702 2.2595-0.86219 0.1799-2.687-1.4551-4.2356-3.7952zm9.9436 1.2344c-2.0411-0.7321-1.4496-3.3203 0.75883-3.3203 1.113 0 2.0236 0.6561 2.0236 1.458 0 1.7597-1.0707 2.4765-2.7824 1.8623zm6.8398-4.8255c-1.5699-1.8915 0.33904-4.7561 2.593-3.8912 1.8281 0.7017 1.8574 2.7817 0.0603 4.2733-1.0523 0.8733-1.6874 0.7818-2.6533-0.3821zm6.3696-12.083c-2.2096-1.9141-2.5708-2.7314-1.6294-3.6882 0.94871-0.9642 2.2026-0.951 5.8177 0.061 5.0063 1.4016 5.2067 1.6718 3.1999 4.3154-1.8407 2.4249-4.0296 2.2209-7.3882-0.6884zm-52.729-13.476c0.2151-1.117 1.2645-1.7706 2.8427-1.7706s2.6276 0.6536 2.8427 1.7706c0.26642 1.3834-0.35523 1.7706-2.8427 1.7706s-3.1091-0.3872-2.8427-1.7706zm8.8327 0.3501c1.5845-1.9092 4.4794-2.1704 3.8799-0.3501-0.22908 0.6957-1.4973 1.4223-2.8183 1.6148-2.0969 0.3058-2.2317 0.1452-1.0616-1.2647zm9.6925-2.6265c0.34392-0.5565 1.3082-1.0118 2.143-1.0118 0.83472 0 1.2363 0.4553 0.89236 1.0118-0.34393 0.5564-1.3083 1.0117-2.143 1.0117-0.83471 0-1.2363-0.4553-0.89235-1.0117zm-24.788-1.9443c-1.9131-0.5526-2.4693-1.3292-2.2826-3.1874 0.53593-5.3329 1.3443-7.1439 3.0428-6.8167 2.5467 0.4905 4.7255 5.0511 3.9291 8.2243-0.72389 2.8843-0.78545 2.9077-4.6893 1.7798zm-17.102-56.28c-2.8088-4.1995-5.7539-9.7769-6.5448-12.394-0.79087-2.6174-3.1138-10.222-5.1621-16.9-4.9791-16.232-8.3768-40.034-9.6771-67.789-0.57355-12.242-1.7252-33.186-2.5592-46.542-0.83403-13.355-1.2234-27.014-0.86538-30.353 0.78726-7.3406-1.0173-31.633-3.2075-43.179-2.2015-11.606-5.3129-20.603-8.2031-23.722l-2.4418-2.6347 1.9618-4.1857c2.6866-5.732 4.0602-13.14 5.0914-27.456 0.85632-11.888 0.37263-20.952-1.259-23.592-0.48517-0.7851-0.20811-2.0188 0.68062-3.0309 2.1991-2.5042 5.3107-9.024 7.3334-15.366 1.5867-4.9749 1.8002-11.303 2.0141-59.695 0.23198-52.471 1.0235-76.895 2.4921-76.895 1.2208 0 4.0599 3.6275 4.0599 5.1872 0 1.9327 11.752 19.634 19.059 28.707 3.1371 3.8953 13.495 14.824 23.017 24.286l17.314 17.203 6.2964 14.323c8.8194 20.063 14.77 29.25 27.087 41.824 5.724 5.843 9.9565 10.775 9.4054 10.961-0.55102 0.1854-1.0019 0.9935-1.0019 1.7958 0 0.8022-1.5476 4.5318-3.4392 8.2879-4.1372 8.2154-7.8356 20.029-11.344 36.236-3.6166 16.707-4.5244 50.669-1.9329 72.308 1.5111 12.617 1.587 16.573 0.56158 29.26-2.4778 30.657-8.5901 68.684-11.509 71.603-0.74309 0.7431-4.0139 2.0465-7.2685 2.8964s-8.5054 2.8517-11.668 4.4483c-8.9017 4.4937-9.5006 6.5978-9.2389 32.462 0.18966 18.751-0.006 21.56-1.9344 27.824-2.8789 9.3488-4.0346 11.407-10.878 19.372-3.2222 3.7504-6.6752 8.071-7.6732 9.6013-0.99805 1.5303-2.1846 2.7824-2.6369 2.7824-0.45222 0-3.1203-3.4359-5.929-7.6353zm13.951-5.5178c3.9517-4.73 7.6154-9.9659 8.1414-11.635 0.52604-1.6695 1.7268-5.0842 2.6684-7.5883 1.3971-3.7156 1.7341-8.5541 1.8325-26.306 0.1417-25.584 0.87471-29.054 7.0864-33.554 2.2177-1.6066 7.8029-4.0966 12.411-5.5334 4.6085-1.437 8.8571-3.1884 9.4412-3.8922 1.3509-1.6277 4.6156-16.662 6.0463-27.844 0.60521-4.73 1.7554-13.153 2.556-18.718 2.4139-16.779 3.5376-36.734 2.5068-44.518-5.7875-43.703-1.1954-87.529 12.212-116.55 2.2074-4.7778 4.0134-9.2024 4.0134-9.8325 0-0.63-3.898-5.0055-8.6621-9.7233-12.439-12.318-19.814-24.102-28.378-45.345-3.4594-8.5811-3.854-9.0758-21.505-26.964-9.8894-10.022-20.362-21.118-23.272-24.656-7.1349-8.675-17.472-24.153-18.906-28.308-1.0818-3.1351-1.2302-2.6286-2.0746 7.0824-0.50026 5.7523-0.68612 16.605-0.41305 24.118 0.63474 17.462 0.598 31.178-0.17748 66.271-0.59545 26.946-0.75324 28.699-3.2301 35.889-1.4323 4.1576-3.5162 8.7928-4.631 10.301-1.819 2.4603-1.9169 3.3363-0.9548 8.5408 0.7677 4.153 0.74262 9.8458-0.0883 20.052-1.2405 15.237-2.2239 20.941-4.5845 26.59-1.3661 3.2695-1.3289 3.7506 0.46655 6.0331 3.2753 4.164 7.8542 20.305 9.689 34.156 0.36236 2.7351 1.0624 18.898 1.5556 35.918 1.9378 66.862 3.5671 93.359 7.0978 115.42 2.5924 16.202 4.7705 24.57 6.676 25.648 0.96465 0.5459 1.3054 1.6874 0.93915 3.1466-0.84063 3.3493 4.5997 18.504 9.0477 25.203 2.1034 3.1678 4.1571 5.6325 4.5638 5.4769 0.40675-0.1557 3.9728-4.153 7.9245-8.883zm-297.48-291.9c0.20091-2.5262 0.0725-6.1536-0.28527-8.061-0.60218-3.2099-0.87338-3.4233-3.6463-2.8687-2.8862 0.5772-2.9957 0.4629-2.9957-3.1296 0-3.6901 0.0393-3.7255 3.7941-3.4148l3.7941 0.3141 0.28718 10.876c0.15795 5.9821-0.073 10.877-0.51317 10.877-0.4402 0-0.63597-2.067-0.43505-4.5931zm4.2022-5.401c0-7.592-0.32605-15.096-3.0829-70.948-0.59056-11.964-1.5044-22.186-2.0307-22.714-0.60182-0.6045-0.95699 1.9528-0.95699 6.8905v7.8517l-3.7941-0.314-3.7941-0.314-0.61778-12.647c-0.33977-6.9559-0.9484-17.91-1.3525-24.343l-0.73473-11.696 8.0378-0.9521 8.0378-0.952 0.64454 19.225c1.5775 47.053 4.107 95.155 5.0363 95.773 0.55031 0.3658 1.6046 0.4333 2.343 0.15 2.0321-0.7798 3.3941 3.9891 3.3941 11.884 0 6.982-0.0101 7.0072-3.3764 8.4138-8.2083 3.4296-7.7531 3.7412-7.7531-5.3071zm-10.047 5.694c0.0391-0.6956 0.41792-2.1509 0.8418-3.2341 0.71963-1.8389 0.81221-1.8105 1.3977 0.4286 0.34489 1.3188 0.39451 2.7741 0.11028 3.234-0.79596 1.288-2.4296 0.99-2.3498-0.4285zm24.241-13.037c-0.0273-7.1101 0.16883-7.8549 2.4642-9.3589 1.3716-0.8988 2.7375-1.634 3.0353-1.634 0.29781 0 0.54148 2.7245 0.54148 6.0546 0 5.2982-0.37557 6.4676-3.0056 9.3589l-3.0057 3.3042-0.0296-7.7248zm-22.896-9.6635c-2.3401-0.4611-2.4847-1.9491-4.0881-42.059l-0.67771-16.953 3.4454 0.6574c1.895 0.3615 3.5706 0.7551 3.7237 0.8746 0.4176 0.326 2.2029 40.241 2.2287 49.828 0.0233 8.6854 0.0857 8.5823-4.632 7.653zm15.35-19.288c-1.5026-41.443-2.7496-69.344-3.6493-81.646-0.7414-10.139-0.67601-13.273 0.28935-13.87 0.68597-0.4239 1.5321-0.4482 1.8804-0.054 0.34823 0.3942 1.4 20.522 2.3372 44.729 0.93725 24.207 1.9785 49.589 2.3138 56.406 0.52992 10.772 0.4049 12.394-0.95532 12.394-1.329 0-1.6632-2.709-2.2162-17.959zm6.5042 12.284c0-2.0083-0.94021-26.025-2.0894-53.371s-1.847-50.954-1.5508-52.463c0.76362-3.8894-1.8193-6.2426-5.8819-5.3587-1.7188 0.3739-7.7464 0.9102-13.395 1.1918l-10.27 0.512-0.58007-9.4481c-0.31903-5.1964-0.85183-15.936-1.184-23.866l-0.60396-14.418h5.5553 5.5554l0.55517 6.3236c0.30535 3.478 0.83652 13.836 1.1804 23.018 0.34386 9.1818 0.81322 16.884 1.043 17.116 1.3999 1.4125 1.5392-3.1419 0.69947-22.87-0.61182-14.373-0.59271-22.526 0.0548-23.378 0.66505-0.8746 0.60646-1.6954-0.17698-2.4788-0.64417-0.6442-1.1782-3.2428-1.1867-5.7749-0.008-2.5319-0.45685-5.2864-0.99628-6.1212-0.69571-1.0765-0.98529 0.1857-0.99627 4.3426l-0.0155 5.8603-7.8412-0.2955-7.8412-0.2956-0.10921-10.118c-0.0869-8.0505 0.26037-10.738 1.6997-13.153 1.8887-3.169 7.8069-9.2753 8.2637-8.5262 0.14492 0.2376 0.76471 1.3427 1.3773 2.4556 1.9388 3.5225 6.9853 3.1829 11.851-0.7975 2.3295-1.9057 6.1865-4.4583 8.5712-5.6725 5.0166-2.5543 4.863-3.6374-0.64075-4.5175-2.166-0.3464-4.515-1.3249-5.2201-2.1744-1.5547-1.8733-0.81927-9.713 1.4123-15.054l1.5272-3.6551h6.6281c3.6455 0 6.6213 0.1139 6.6129 0.2529-0.008 0.1392-0.67135 2.0742-1.4733 4.3001-0.8019 2.2259-1.4365 6.0959-1.4101 8.6l0.0479 4.553 1.8691-5.9578c1.028-3.2768 2.2846-6.3734 2.7925-6.8813 0.55669-0.5567 1.1542 4.823 1.5045 13.546 0.41074 10.228 1.1411 16.128 2.4913 20.128l1.9102 5.6578-2.8467 3.4099c-4.0921 4.9016-3.7878 8.493 1.1018 13.007l3.9485 3.6453 0.73478 10.364c0.77171 10.885 1.2306 11.655 5.5647 9.3354 1.616-0.865 2.2052-0.5023 3.6982 2.2765 1.5055 2.8019 1.7804 6.1374 1.8054 21.905l0.0295 18.6-2.9324 0.3175c-3.4655 0.3752-8.5909 5.0725-12.955 11.873l-3.1275 4.8734 0.73478 38.988 0.73478 38.988-2.2801 2.4271c-3.1145 3.3152-3.9509 3.0559-3.9509-1.2244zm19.274-97.046c3.191-1.6502 4.2422-4.2493 1.2145-3.0028-5.8408 2.4045-6.2883 1.5954-6.3098-11.408-0.0138-8.3198-0.00034-8.363 2.4052-7.7592 4.4276 1.1112 4.034-1.0362-1.6316-8.9017-1.0598-1.4713-0.90376-2.118 0.96147-3.9832 2.1696-2.1696 2.2796-2.1789 4.286-0.3632 2.0537 1.8586 2.6092 1.125 1.4451-1.9084-0.84679-2.2067-5.7664-2.0294-7.8594 0.2833-3.0918 3.4164-4.5988 20.065-3.0121 33.275 0.57201 4.7623 0.89032 5.3118 3.0768 5.3118 1.3413 0 3.782-0.6946 5.4238-1.5436zm-14.145-22.301c-0.53766-11.648-1.2664-28.691-1.6194-37.873-0.7758-20.178-2.0832-37.358-2.9056-38.181-0.33205-0.332-0.62526 0.041-0.65159 0.8296-0.0674 2.017-10.368 10.033-12.892 10.033-3.9705 0-6.2834 4.5797-6.2834 12.442 0 7.1598 2.6046 17.911 4.3392 17.911 0.51389 0 1.8134-1.1174 2.8878-2.4833 1.9175-2.4378 4.9202-2.5545 4.9087-0.1907-0.0117 2.3801-2.1438 8.7447-2.9295 8.7447-0.44907 0-2.0447-1.1382-3.5458-2.5295-3.3799-3.1323-3.6368-3.1348-3.6368-0.036 0 1.4779 0.84421 2.9457 2.0722 3.6029 1.4344 0.7677 1.8805 1.7128 1.4495 3.0708-0.46202 1.4558-0.14826 1.9533 1.2161 1.9283 2.4209-0.044 5.2194-2.5317 8.8365-7.8543 3.3032-4.8607 4.6376-6.0256 4.6376-4.0486 0 0.7347-3.4616 5.3435-7.6924 10.242-4.2308 4.8984-7.4478 9.1508-7.1488 9.4497 0.29897 0.299 2.2808-0.7476 4.4042-2.3259l3.8606-2.8695-4.3 4.7683c-2.365 2.6225-4.3 5.2861-4.3 5.919 0 1.3358 4.2399-1.1498 8.1495-4.7777 4.9868-4.6274 4.0313-2.3289-2.0212 4.8614-3.361 3.9928-5.9295 7.4411-5.7078 7.6628 0.89015 0.8901 6.4185-2.8408 10.805-7.2922l4.6493-4.7179 0.65729 9.9262c0.3615 5.4593 0.65963 12.962 0.66251 16.673 0.006 7.3692 0.77194 10.597 2.181 9.1883 0.51914-0.5192 0.48456-9.7927-0.0823-22.074zm-9.1758-37.624c0-1.2615 3.9659-6.1639 4.0134-4.9611 0.0185 0.4687-0.87694 2.0098-1.9899 3.4247s-2.0235 2.1062-2.0235 1.5364zm-12.034-7.6497c-2.2956-5.8439-1.0614-14.858 2.0344-14.858 1.5697 0 1.9028 0.7578 1.8902 4.3-0.008 2.365-0.6432 6.3489-1.4106 8.853l-1.3952 4.5529-1.1189-2.8481zm6.655 0.5717c0.57601-2.0314 8.4172-8.6817 9.252-7.8469 0.59956 0.5997-7.8841 9.6175-9.0477 9.6175-0.38851 0-0.48047-0.7967-0.20436-1.7706zm2.3438-11.172c0-1.0915 1.409-2.4514 3.5412-3.4178 4.2788-1.9395 4.5053-1.1306 0.70347 2.5118-3.3272 3.1876-4.2447 3.3834-4.2447 0.906zm-0.99352-7.0403c0.0365-1.5174 8.0759-7.4852 8.0759-5.9949 0 0.8001-1.5632 2.647-3.4737 4.1043-3.612 2.755-4.6331 3.1744-4.6022 1.8906zm-12.16 2.9364c0-2.4433 10.474-12.396 16.233-15.425 3.9026-2.0524 4.1974-2.4192 2.1954-2.7311-3.2962-0.5137-10.009 3.7447-16.167 10.256-5.1754 5.4722-6.8381 9.7696-3.78 9.7696 0.83472 0 1.5177-0.8412 1.5177-1.8695zm49.594 44.914c-1.182-3.109-1.2807-4.7862-0.41441-7.0437 0.87961-2.2923 1.9231-1.9807 3.2706 0.9766 1.5873 3.4838 1.4768 6.0299-0.32671 7.5268-1.2452 1.0333-1.6762 0.7846-2.5294-1.4597zm3.6382-8.1066c-1.9351-2.9534-2.9148-3.1567-5.028-1.0435-0.83471 0.8348-1.705 1.5177-1.9339 1.5177-0.96335 0-2.6861-8.2748-3.6862-17.706-0.59011-5.5648-2.2175-13.462-3.6164-17.55-1.3989-4.0877-2.5434-8.47-2.5434-9.7383 0-1.7529-0.72812-2.4517-3.0353-2.9132-2.2418-0.4483-3.0353-1.175-3.0353-2.7797 0-1.9238 0.20291-2.0136 1.7706-0.7841 0.97384 0.7637 2.1051 1.8438 2.5139 2.4003 0.4866 0.6624 0.74869 0.6436 0.75883-0.054 0.009-0.5864-1.4826-2.5183-3.3137-4.293l-3.3292-3.2268-0.29655-12.382c-0.30955-12.924-0.56485-14.318-2.4966-13.625-0.6446 0.2314-2.4201-0.2096-3.9456-0.9798-1.649-0.8324-3.8675-1.1257-5.4713-0.7232l-2.6976 0.677 0.61994-9.0026c0.64411-9.3537 1.6786-13.331 9.1851-35.309 4.3687-12.791 8.4334-28.276 16.756-63.832 9.439-40.328 28.035-86.063 39.348-96.775 4.779-4.5248 4.9325-4.8561 6.0597-13.077 0.63605-4.6392 1.6439-13.898 2.2397-20.576 2.2671-25.41 5.5294-40.088 12.93-58.177 1.7076-4.1736 5.6711-14.418 8.8078-22.765 3.1367-8.3471 6.409-16.63 7.2717-18.406 1.2584-2.5906 1.5371-6.7921 1.4096-21.247-0.0874-9.9099 0.30414-21.585 0.87022-25.944 1.8189-14.008 9.2689-24.467 21.967-30.839 10.698-5.3688 22.679-7.7953 25.342-5.1323 0.82699 0.827 1.6124 0.5582 2.9566-1.0118 1.0068-1.1758 2.1203-2.1379 2.4745-2.1379 0.35416 0 2.1657 3.7562 4.0257 8.3472l3.3818 8.3471 0.40322 20.904c0.22177 11.497-0.002 21.628-0.49727 22.513-0.49526 0.885-2.9202 2.633-5.3888 3.8844-3.552 1.8007-5.9181 4.3683-11.342 12.308-3.7696 5.5181-6.6134 10.273-6.3197 10.567 0.29376 0.2937 3.3673-2.2072 6.83-5.5577 7.2473-7.0124 12.659-11.501 13.866-11.501 0.95901 0-1.7292 11.074-3.0892 12.726-0.49379 0.5997-0.86099 3.7867-0.81601 7.0824 0.25052 18.352-15.42 68.146-33.623 106.84-5.6215 11.949-9.3675 21.713-12.562 32.742-2.5034 8.6437-4.9705 16.498-5.4824 17.453-0.51191 0.9556-1.8418 5.6826-2.9554 10.504-3.1643 13.702-21.309 57.063-28.509 68.128-1.0863 1.6694-7.44 11.388-14.119 21.597-6.6794 10.209-12.144 18.964-12.144 19.455 0 0.4914-3.4839 6.6744-7.742 13.74-4.2581 7.0657-10.656 18.907-14.218 26.314l-6.4761 13.467 1.9172 4.3341c1.0544 2.3837 4.6929 7.6483 8.0855 11.699 6.3695 7.6049 6.9733 8.9063 9.7644 21.045 1.3031 5.6671 1.4273 8.1482 0.5823 11.635-2.3496 9.6961-2.9062 21.644-1.4596 31.328 0.77285 5.1735 1.2498 9.5617 1.0599 9.7516-0.1899 0.19-1.1004-0.8071-2.0233-2.2157zm43.815-267.57c2.4247-9.7421 2.5921-12.371 0.89574-14.068-2.9299-2.9299-6.1671-0.9273-7.335 4.5376-0.5453 2.5516-0.22586 3.6851 1.5346 5.4456 1.9898 1.9898 2.1602 2.9263 1.6226 8.919-0.74453 8.3001 0.45136 6.5384 3.282-4.8347zm-60.13 258.66c-0.84009-8.484-2.3634-11.98-6.5781-15.096-3.7733-2.7897-3.7832-3.9406-0.0575-6.695l2.961-2.1892 2.0687 6.2989c1.1378 3.4644 2.3375 9.486 2.6661 13.381 0.32857 3.8953 0.80565 8.1069 1.0602 9.3589 0.25452 1.2521 0.045 2.2765-0.4656 2.2765s-1.2552-3.3009-1.6547-7.3354zm22.021-0.5557c-0.69559-2.9488-1.2647-6.3473-1.2647-7.5521 0-1.9814 0.15019-2.0403 1.573-0.6176 1.1514 1.1514 1.4904 3.1754 1.2647 7.5522l-0.30825 5.9791-1.2647-5.3616zm4.4505-3.9973c0.80757-6.2832 2.3789-7.9752 2.3789-2.5615 0 4.6458-0.78038 7.3674-2.1124 7.3674-0.4863 0-0.60622-2.1626-0.26649-4.8059zm4.4025 1.4582c0-1.7976 2.1434-4.3294 4.3-5.0792 2.2212-0.7721 2.311 1.1346 0.19558 4.1548-1.7235 2.4605-4.4956 3.0306-4.4956 0.9244zm1.8531-11.129c0.40056-6.417-1.0927-8.1734-7.0074-8.2421l-3.9418-0.046 0.68571-3.5412c0.37714-1.9476 0.70206-7.4112 0.72205-12.141 0.0287-6.7795-0.43881-9.6446-2.2083-13.535-1.2346-2.7139-2.2446-5.3319-2.2446-5.8176 0-1.0016 7.4293-1.1693 10.877-0.2455 3.0904 0.8282 2.8533 1.4397-1.809 4.6646-5.6254 3.8909-4.9975 5.3506 0.99537 2.3138 8.2269-4.1689 8.149-4.3536 8.149 19.304 0 17.666-0.21825 20.633-1.5177 20.633-0.83471 0-1.5177 0.4553-1.5177 1.0118s-0.34147 1.0124-0.75883 1.0132c-0.41735 0.0008-0.60789-2.4168-0.4234-5.3724zm-9.3275-0.8893c-0.35476-1.7737-0.18403-3.686 0.37941-4.2494 0.69137-0.6914 1.0244 0.357 1.0244 3.2249 0 5.0668-0.51955 5.4459-1.4038 1.0245zm4.4391-0.3162c0-0.8347 0.4553-1.5177 1.0118-1.5177 0.55648 0 1.0118 0.683 1.0118 1.5177s-0.45529 1.5176-1.0118 1.5176c-0.55647 0-1.0118-0.6829-1.0118-1.5176zm-69.227-27.065c-0.19944-0.6955-1.0958-3.3287-1.9918-5.8514-0.89604-2.5228-1.6292-4.9131-1.6292-5.3118 0-1.7198 4.9009-0.4525 9.0053 2.3287 2.4488 1.6593 4.8391 3.0168 5.3118 3.0168 1.9764 0 0.58037 1.6918-3.5484 4.3001-4.8442 3.0603-6.5986 3.4328-7.1477 1.5176zm450.68-252.07c0-1.2228-1.0259-1.6178-4.2021-1.6178-3.8574 0-4.8127-0.6017-11.646-7.3353-7.1663-7.0618-13.921-16.191-27.399-37.028-8.4131-13.007-9.507-15.501-10.412-23.741-0.60615-5.522-0.42326-7.7969 0.85905-10.686 2.6527-5.9757 2.3084-26.941-0.59507-36.234-2.8432-9.0999-6.3709-13.766-22.421-29.66-16.297-16.137-19.681-22.839-20.518-40.634-0.30717-6.5308-1.2336-6.7061-2.9215-0.5531l-1.1679 4.2573-1.4453-4.0471c-2.933-8.2131-7.4034-28.437-7.4034-33.492 0-7.0173 1.2197-7.8864 10.168-7.2461 5.3254 0.381 8.7306 1.3328 13.587 3.798 10.269 5.2121 22.33 18.839 26.157 29.553 2.6095 7.3052 6.8331 23.32 6.2927 23.861-0.27993 0.2799-1.3167-0.1251-2.304-0.9-0.98729-0.7748-0.10388 0.6968 1.9631 3.2705 2.067 2.5736 4.3027 5.8745 4.9684 7.3353 0.66558 1.4608 1.7912 2.656 2.5015 2.656 3.7211 0 23.598 36.026 31.878 57.779 5.6693 14.894 6.3428 16.08 9.1242 16.08 2.7265 0 2.3746 1.3839-1.714 6.7402-7.8455 10.278-12.295 22.285-11.132 30.04 0.91674 6.1131 2.6516 8.3612 5.2084 6.7495 4.1365-2.6075 5.6977-6.0412 5.9119-13.002 0.41709-13.558 6.2891-24.841 20.826-40.017 8.1372-8.4951 29.427-26.968 36.796-31.926 4.9143-3.3071 9.2892-8.1304 14.743-16.254 4.8442-7.2161 22.572-31.866 23.972-33.333 0.9713-1.0176-4.8388 13.269-9.1886 22.594-2.5662 5.5015-4.4649 10.204-4.2194 10.449 0.9051 0.9052 17.808-30.235 22.084-40.687 0.9108-2.2259 1.6822-6.9817 1.7141-10.568 0.095-10.705 6.1018-20.084 19.699-30.761 2.0187-1.5851 3.6736-3.4063 3.6774-4.0471 0-0.6408 1.5674-2.2277 3.4747-3.5264 3.4572-2.3541 9.7458-8.8924 17.077-17.755 4.69-5.6695 7.1741-6.004 8.7661-1.1802 1.4786 4.4803 0.6741 6.0137-8.0991 15.436-8.1654 8.7699-10.538 13.168-9.1169 16.905 0.6171 1.6231 1.7706 2.6142 3.0425 2.6142 1.1267 0 2.0486 0.4553 2.0486 1.0118s0.683 1.0118 1.5176 1.0118c2.098 0 1.9209 0.8271-1.1162 5.2096l-2.6338 3.8007-6.3522-0.5932c-10.003-0.9341-13.133 0.044-16.69 5.2133-3.0595 4.4469-3.8828 7.9975-2.1087 9.0939 0.5205 0.3217 1.0896-0.9029 1.2648-2.7212 0.2625-2.7253 1.0159-3.6333 4.2898-5.1694 7.4589-3.4999 13.084-3.3311 25.782 0.7738 6.3039 2.0379 11.977 3.4935 12.607 3.2347 0.6301-0.2588 0.4499-0.5065-0.4007-0.5504-1.3591-0.07-16.042-6.7077-17.036-7.7008-0.209-0.2089 1.0409-2.3117 2.7773-4.673 1.7365-2.3612 3.1572-5.3529 3.1572-6.6483 0-1.6365 0.849-2.6801 2.7824-3.4202 5.7593-2.2047 63.081-3.8345 67.536-1.9201 1.4749 0.6337 0.5147 0.8943-3.5412 0.961-3.0606 0.05-8.5242 0.542-12.141 1.0928-3.617 0.5507-11.812 1.7081-18.212 2.5719-12.068 1.629-13.821 2.2917-12.838 4.8532 0.7809 2.0349 6.8919 1.4355 21.944-2.1525 9.6806-2.3075 13.916-2.7735 25.21-2.7735 13.139 0 15.264 0.4887 14.072 3.2369-0.1809 0.417-5.1094 0.625-10.952 0.4622-7.2918-0.2031-14.907 0.3904-24.283 1.8924-7.5123 1.2036-15.929 2.4868-18.704 2.8514-3.6711 0.4825-5.1382 1.1454-5.386 2.4337-0.4693 2.4395 2.5773 2.307 17.996-0.7824 22.382-4.4845 36.591-4.4084 37.261 0.1996 0.2325 1.5987-0.4858 2.3938-2.9333 3.247-4.3547 1.5181-5.9746 1.4226-5.9746-0.3521 0-2.9125-3.6692-3.7371-11.675-2.6236-4.1654 0.5793-9.1299 1.7037-11.032 2.4986-1.9024 0.7948-7.2466 2.2124-11.876 3.1501-8.4301 1.7075-13.257 3.4202-9.821 3.485 2.0088 0.038 24.367-4.5517 29.221-5.9982 4.2889-1.2782 11.824-1.3843 12.57-0.1769 1.1747 1.9007-3.7222 4.4234-14.218 7.3248-15.8 4.3673-32.161 9.7189-40.315 13.186-3.885 1.6521-10.418 3.4292-14.519 3.949-4.1004 0.5199-10.255 1.4004-13.678 1.9566-3.4225 0.5563-7.7964 1.1308-9.7198 1.2768-3.2178 0.2442-3.6159 0.6493-4.9836 5.0713-1.0583 3.4218-2.0152 4.8059-3.3224 4.8059-2.7296 0-7.955 7.7802-16.649 24.788-9.1611 17.923-29.329 54.321-40.342 72.808-8.4442 14.175-18.496 28.268-28.172 39.499-13.727 15.932-29 30.372-29 27.418zm166.93-191.31c0.6867-0.8275 0.9862-2.5501 0.6655-3.828-0.6917-2.756-7.9041-13.86-9.0145-13.878-0.4244-0.01 0.8277 3.163 2.7824 7.0444 3.9021 7.7486 4.3687 10.143 1.9766 10.143-0.8676 0-1.2961 0.4553-0.9521 1.0117 0.9118 1.4754 3.1063 1.2374 4.5421-0.4927zm-340.45 143.07c5.0083-1.6084 9.4988-2.8008 9.979-2.6497 1.3571 0.4268-14.782 5.8002-17.061 5.6804-1.1129-0.059 2.0741-1.4223 7.0824-3.0307zm16.694-68.873c0-0.6393-1.4797-2.5998-3.2883-4.3564-1.8085-1.7567-4.8038-5.9004-6.656-9.2082-1.8523-3.3078-3.0747-5.1036-2.7164-3.9906 1.3772 4.2786 4.5666 16.191 4.5666 17.056 0 1.4178-6.7678-0.0008-21.323-4.47-22.129-6.7947-31.144-11.92-42.934-24.411-12.882-13.648-18.124-26.826-18.843-47.364l-0.37168-10.624 6.0706-0.2662c3.3388-0.1463 10.624-0.6657 16.188-1.154 13.028-1.1433 27.409 0.1457 32.905 2.9493 2.2713 1.1587 6.3884 4.284 9.1492 6.945 3.4944 3.3682 4.8308 4.1992 4.3984 2.7351-0.34167-1.1568-1.2316-2.5893-1.9776-3.1833s-1.935-4.2206-2.6423-8.0591c-0.88766-4.8175-2.3599-8.5567-4.7535-12.073-1.9072-2.8016-3.4798-5.643-3.4948-6.3141s-0.33104-1.0325-0.70235-0.803c-0.90349 0.5584-8.7875-10.705-11.085-15.836-1.1058-2.4699-2.1138-3.6266-2.5481-2.9239-0.46037 0.7449-1.7654-0.2202-3.6322-2.6862-1.6025-2.1169-2.9263-4.1492-2.9418-4.5162-0.0287-0.6796 3.0203 0.1101 18.045 4.6737 6.3289 1.9223 10.722 2.5701 17.427 2.5701 8.9101 0 8.9749 0.018 10.513 2.9931 1.8364 3.5511 13.428 10.65 19.685 12.056 2.3418 0.5262 5.0579 1.6807 6.0357 2.5656 0.97783 0.8849 2.2163 1.6089 2.7522 1.6089 1.8848 0 9.3954 8.682 13.987 16.168 5.3795 8.7712 9.69 19.525 12.251 30.563l1.8044 7.7778-2.5845 7.0003c-1.5322 4.1502-4.9166 10.046-8.3124 14.481-7.0725 9.237-24.487 27.21-26.364 27.21-0.8739 0-1.8112-2.141-2.547-5.8177-3.3639-16.81-5.6139-17.338-4.7581-1.1162 0.34365 6.5143 0.19635 10.981-0.36215 10.981-0.51779 0-0.94144-0.5231-0.94144-1.1625zm4.7841-90.368c13.468-5.8747 14.871-7.0856 7.2301-6.2411-7.6844 0.8494-18 4.1357-22.44 7.149-4.3864 2.9767-4.3071 3.1309-5.2907-10.296-0.37683-5.1439-1.0617-9.1198-1.522-8.8353-0.85897 0.5308-2.6486 16.37-2.055 18.188 0.1817 0.5565 0.45626 2.3777 0.61013 4.0471s0.82343 4.5167 1.4879 6.3272l1.2082 3.2919 4.9368-4.4386c3.2361-2.9095 8.6912-6.0762 15.835-9.1923zm-97.494-2.3118c0.28026-0.9738 1.069-3.7158 1.7528-6.0932 0.96933-3.3704 1.8194-4.4424 3.8586-4.8662 4.1984-0.8725 5.5418-1.8787 7.4198-5.5576 2.3976-4.6968 2.2918-14.784-0.25138-23.961-1.1129-4.0162-2.0235-7.4943-2.0235-7.7291 0-0.2347 1.7074 0.3905 3.7941 1.3894 2.0868 0.999 7.152 2.7598 11.256 3.9131s7.5526 2.2297 7.6635 2.392c0.11093 0.1623 1.7141 3.0269 3.5626 6.3657 1.8485 3.3389 5.9549 9.9407 9.1252 14.671 3.1704 4.73 6.915 10.433 8.3214 12.673l2.5571 4.0728-6.6987-0.3701c-4.0419-0.2233-13.348 0.6694-23.463 2.2508-9.2204 1.4415-19.154 2.6209-22.074 2.6209-4.5766 0-5.2395-0.2445-4.8003-1.7706zm59.827-38.875c-17.801-2.617-24.496-4.4901-37.869-10.594-11.734-5.3567-13.093-6.7692-19.19-19.954l-5.4428-11.77-4.1613 0.1092c-7.491 0.1967-15.797-2.5569-15.797-5.2371 0-0.4576 2.5333 0.3278 5.6295 1.7453 6.7606 3.0951 8.0611 2.6944 2.3649-0.7287-15.581-9.3633-19.23-13.315-19.914-21.564-0.37941-4.5753-0.1064-5.8053 1.6865-7.5982 2.9442-2.9442 8.019-2.7638 12.76 0.4538 2.6982 1.831 4.1371 2.277 4.8965 1.5177 1.8142-1.8142 3.706-1.1974 3.706 1.2081 0 2.7588 9.3537 22.129 11.577 23.974 1.0797 0.896 0.76763-0.4613-0.98722-4.2944-2.9663-6.4792-2.7484-9.4903 1.0468-14.466 2.971-3.8951 4.1536-4.2753 5.0003-1.6076 1.6502 5.1992 6.7872 11.354 11.447 13.716 10.849 5.4976 17.066 4.0301 27.096-6.396 6.9205-7.1937 8.8265-10.358 11.22-18.627l1.715-5.924 2.3611 3.9005c3.1647 5.228 3.0181 3.0506-0.17015-2.5264-3.0143-5.2728-3.0066-5.2085-0.62432-5.2085 1.312 0 2.9421 2.0461 5.3118 6.6678 1.8804 3.6673 6.0292 9.9277 9.2195 13.912 3.1903 3.9842 5.8083 7.7036 5.8177 8.2653 0.024 1.4408-3.9073 3.7269-5.1201 2.9774-1.4859-0.9184-9.133 0.5771-8.4664 1.6557 0.31344 0.5072 1.4049 0.9221 2.4255 0.9221s2.1176 0.683 2.438 1.5177c0.76287 1.988 3.098 1.9226 6.4992-0.1822 3.7846-2.3421 5.2762-4.3474 5.2762-7.0936 0-2.0776-0.9364-2.8354-2.5743-2.0831-0.79242 0.3639-11.717-16.652-11.092-17.277 0.28695-0.2869 1.5444 0.4133 2.7942 1.5561 5.1028 4.6657 12.677 6.8678 22.159 6.4428 6.189-0.2773 5.9878-0.4579 7.4164 6.6584 1.114 5.5493-1.4675 23.192-6.1744 42.196-4.1946 16.936-4.8114 18.601-8.0156 21.636-3.3765 3.1984-3.6998 3.2842-11.833 3.1413-4.5991-0.081-11.094-0.5485-14.433-1.0393zm21.928-20.047c0.93114-0.01 3.1181-1.2129 4.8599-2.6786 2.5067-2.1092 3.103-3.3221 2.86-5.8177-0.4104-4.2154-4.081-4.5095-4.85-0.3886-0.2837 1.5204-1.3081 3.683-2.2765 4.8059-2.6519 3.0751-13.72 2.8427-22.752-0.4777l-6.8526-2.5194 2.9134 2.409c3.4719 2.8706 17.204 5.9641 22.381 5.0416 1.113-0.1984 2.7854-0.3669 3.7165-0.3745zm-11.687-10.562c6.3487-0.9667 10.507-2.2115 13.321-3.9879 4.3274-2.7318 6.1192-4.688 4.294-4.688-2.3777 0-17.662 4.3393-21.629 6.1409-4.4869 2.0374-10.285 2.5606-11.241 1.0143-0.31917-0.5164 0.29695-1.2174 1.3691-1.5577s3.6407-1.9627 5.7078-3.6054c3.1586-2.5101 4.3625-2.8902 7.544-2.3814 3.1467 0.5032 4.048 0.2308 5.3398-1.6135 1.2192-1.7406 1.9572-2.0032 3.4242-1.218 2.6427 1.4143 7.8769 1.8866 8.2378 0.7433 0.16665-0.5279-2.3086-1.6101-5.5006-2.4049-5.1431-1.2807-6.1562-1.2657-8.903 0.1315-1.7047 0.8671-4.2176 1.8959-5.5841 2.2862-1.3665 0.3902-5.0089 2.4182-8.0942 4.5066-4.4684 3.0246-6.2786 3.6944-8.8979 3.2922-2.5233-0.3875-3.2883-0.1369-3.2883 1.0773 0 3.9052 8.0912 4.6718 23.901 2.2645zm-75.765-17.478c0.21913-0.6677-1.39-3.1719-3.5758-5.5647-2.1858-2.3929-4.5159-6.0214-5.178-8.0635-2.1522-6.6382-12.36-14.313-16.781-12.616-2.5854 0.9921-1.6741 2.3424 1.2875 1.9077 2.2324-0.3276 3.8224 0.5332 7.7629 4.2027 4.6991 4.376 4.8679 4.7115 3.2632 6.4847-2.4608 2.7191-2.1651 3.4331 2.6924 6.5017 4.7397 2.9942 8.7013 6.8442 7.0426 6.8442-0.56521 0-3.549-1.6604-6.6306-3.6898-6.2452-4.1128-10.346-10.156-9.5868-14.127 0.29888-1.5636 0.0539-2.3598-0.6544-2.1272-0.62263 0.2044-1.2669 2.1648-1.4316 4.3565-0.25189 3.3507 0.28891 4.6723 3.3984 8.305 5.9858 6.9931 17.083 11.571 18.391 7.5859zm69.064-7.3859c0-0.5565-0.7323-1.0118-1.6273-1.0118-1.247 0-1.4731-0.6144-0.96764-2.6284 0.47851-1.9066 0.30021-2.5088-0.64915-2.1927-1.5102 0.5029-2.241 3.2627-1.4262 5.3861 0.62767 1.6357 4.6703 2.0224 4.6703 0.4468zm-94.601-11.635c0-1.3912-0.56912-2.5294-1.2647-2.5294-1.323 0-1.7562 3.2183-0.59019 4.3843 1.2657 1.2658 1.8549 0.6766 1.8549-1.8549zm27.455 37.503c-2.0232-3.0879-2.1871-7.6555-0.27458-7.6555 0.87591 0 1.6164 1.7238 2.0268 4.7183 0.77853 5.68 0.42892 6.2661-1.7523 2.9372zm-4.1842-1.5849c-0.34392-0.5564-0.14314-1.0117 0.44617-1.0117 0.58932 0 1.0715 0.4553 1.0715 1.0117 0 0.5565-0.20077 1.0118-0.44617 1.0118-0.24539 0-0.72756-0.4553-1.0715-1.0118zm-27.318-5.2863c-15.939-5.6682-25.342-27.176-18.258-41.761l2.457-5.0588-0.56037 5.6015c-0.9383 9.3793 3.6743 23.28 10.362 31.228 1.492 1.7731 4.5905 4.1756 6.8855 5.3388l4.1728 2.1148-5.2001-5.5217c-5.1156-5.432-8.5634-11.015-9.8789-15.997-0.42207-1.5983 0.13262-1.0647 1.507 1.4499 3.513 6.4275 11.901 14.074 18.378 16.752 7.5055 3.1039 7.6043 4.7161 0.25295 4.1284-1.5069-0.1205-1.6788 0.072-0.67331 0.7548 1.0278 0.6978 0.78619 1.0678-1.0118 1.5492-3.1147 0.8339-4.7809 0.7195-8.4326-0.5792zm6.0706-10.785c-4.9284-3.0835-10.186-9.2513-14.267-16.736-3.3464-6.1379-3.8673-8.0212-4.1975-15.176-0.31843-6.9004-0.0555-8.6798 1.6935-11.457 1.1388-1.8085 2.5092-3.2882 3.0455-3.2882 0.55034 0 0.39072 1.4322-0.36645 3.2882-3.7489 9.1894-2.692 19.036 2.5131 23.416 1.6796 1.4133 3.7602 4.2921 4.6238 6.3975 0.86351 2.1053 3.6086 6.4458 6.1002 9.6455 2.4916 3.1998 4.3862 5.816 4.2101 5.8139-0.17604 0-1.686-0.8583-3.3554-1.9029zm50.083-8.8123c-6.1748-2.6746-11.26-8.7883-13.597-16.346-0.50734-1.6408-0.29249-2.2765 0.76935-2.2765 0.86896 0 1.733 1.385 2.1067 3.3766 0.7359 3.9227 6.5998 11.186 10.773 13.344 1.5859 0.8201 4.6135 1.4303 6.7279 1.356 3.7188-0.1308 3.688-0.1571-0.94129-0.8031-7.4369-1.038-12.746-6.9702-15.458-17.274-1.0622-4.0352-0.97704-4.8711 0.74927-7.3506 2.4499-3.5187 6.0833-5.404 15.269-7.9224 6.2278-1.7074 6.5897-1.9186 2.5442-1.4846-2.5939 0.2783-7.7272 1.7114-11.407 3.1847-6.3789 2.5536-6.9761 3.0947-12.796 11.592-6.7573 9.866-9.0214 12.314-9.0214 9.7523 0-0.87 0.45404-1.8624 1.009-2.2054 0.55493-0.343 2.103-2.9878 3.4401-5.8774s3.6858-7.9483 5.2193-11.242c1.5335-3.2933 5.1935-9.4999 8.1334-13.793 2.9399-4.2927 8.7656-14.072 12.946-21.732 7.9592-14.583 12.172-27.576 11.533-35.568-0.26124-3.2654 0.0272-3.754 2.7434-4.6466 1.6694-0.5486 3.8031-1.6653 4.7416-2.4817 1.8129-1.5769 2.0644-0.92 3.1868 8.3248 0.20268 1.6694 0.43673-0.2656 0.52011-4.3 0.12559-6.0773 0.43757-7.3354 1.819-7.3354 1.4682 0 1.5945 1.0579 1.057 8.853-1.4901 21.61-10.216 39.913-28.338 59.442-3.6149 3.8954-6.4376 7.2222-6.2726 7.3931 0.16494 0.1708 1.8295-0.1296 3.6991-0.6676s2.8032-1.0193 2.0748-1.0695c-2.6777-0.1845 0.0254-2.1148 2.9615-2.1148 1.6694 0 2.8096 0.3652 2.5338 0.8116-0.27587 0.4463 2.7705 0.4439 6.7697 0 10.913-1.2262 14.735-0.3402 16.473 3.8194 0.78218 1.872 1.3689 5.3533 1.3039 7.7362l-0.11829 4.3325-0.91487-5.5182c-0.82112-4.9527-2.0403-7.0678-4.1004-7.1134-0.38436-0.01-0.0457 1.2365 0.75259 2.7669 3.5077 6.7243 0.18141 16.857-8.5768 26.126-4.5071 4.77-11.001 8.498-14.748 8.4658-1.113-0.01-3.6171-0.7076-5.5647-1.5512zm13.111-62.65c6.6576-9.76 14.038-24.761 14.769-30.02 0.56847-4.089 0.39155-3.8849-2.8017 3.233-3.5339 7.8771-14.047 25.995-21.718 37.426l-4.4129 6.5765 4.6611-5.0589c2.5636-2.7823 6.8398-8.2528 9.5027-12.157zm-74.725 43.709c-0.61378-1.5665-1.0788-6.1195-1.0334-10.118l0.0826-7.2695 1.5662 3.5412c2.0582 4.6536 2.7275 11.01 1.4915 14.165l-0.99081 2.5295-1.116-2.8483zm33.284 0.8247c0-0.8347 0.4553-1.5176 1.0118-1.5176 0.55648 0 1.0118 0.6829 1.0118 1.5176s-0.45529 1.5177-1.0118 1.5177c-0.55647 0-1.0118-0.683-1.0118-1.5177zm89.147-1.5471c-7.4496-3.1486-9.488-4.6261-11.781-8.5382-3.2319-5.5148-3.3647-11.79-0.30969-14.637 2.1059-1.9619 15.763-8.1607 17.98-8.1607 0.63814 0 1.0821 2.3007 1.0821 5.6075 0 3.0841 0.454 6.1573 1.0089 6.8295 6.2686 7.5929 9.1294 12.562 8.5671 14.881-0.3373 1.3912-1.0296 2.9552-1.5384 3.4755-1.3294 1.3596-12.15 1.7505-15.009 0.5421zm-102.3-5.0063c-3.1487-2.7731-5.5088-4.0191-7.6519-4.04-5.5719-0.054-11.817-9.3301-13.232-19.654-0.94697-6.9089 0.3102-7.891 9.1432-7.1431 5.1027 0.4321 8.6412 0.1577 12.199-0.9459 2.7564-0.8549 5.23-1.336 5.497-1.0691 0.90748 0.9075-3.6193 6.0052-8.3653 9.4204-2.6013 1.8718-7.1072 4.0173-10.013 4.7677l-5.2834 1.3644 8.0942-0.3041c5.8016-0.218 9.8852-1.0336 14.418-2.8796 4.4249-1.8021 6.3236-2.1904 6.3236-1.2931 0 1.7119-7.5028 8.4143-11.489 10.263l-3.1817 1.4759 5.0589-0.4859c2.7824-0.2673 5.8556-0.7947 6.8294-1.172 0.97383-0.3773 1.7706-0.2332 1.7706 0.3202s-2.9648 2.2663-6.5883 3.8063c-7.6676 3.2588-8.2462 4.5303-0.70973 1.5597 6.4513-2.5429 7.8797-1.4223 6.583 5.1642-1.1455 5.8185-3.5134 6.0312-9.4026 0.8445zm13.606-5.2526c0.3691-3.5232 1.1776-7.4296 1.7967-8.6808 1.5718-3.1767 0.23726-4-3.1961-1.9719-4.2176 2.4914-4.869 2.1116-1.8263-1.065 2.2447-2.3435 5.8077-8.9962 5.8077-10.844 0-1.2589-4.452-0.3896-6.9262 1.3524-1.4771 1.04-3.8239 2.2323-5.215 2.6496l-2.5294 0.7588 2.6669-2.9026c1.4668-1.5963 3.4084-4.3724 4.3148-6.169 0.90635-1.7966 4.1171-6.0339 7.135-9.4161s5.6292-7.1218 5.8029-8.3101c0.2462-1.6843 1.5133-2.4631 5.7479-3.5324 2.9876-0.7545 5.6545-1.1493 5.9264-0.8774s-0.49951 5.1881-1.7142 10.925c-6.4203 30.321-9.9204 40.072-15.4 42.906l-3.0616 1.5832 0.67107-6.4059zm105.48-0.5882c-0.30606-1.5303-1.7779-4.5822-3.2708-6.782-2.2713-3.3469-2.6378-4.7954-2.2458-8.8753 0.5719-5.9519 1.1923-6.682 3.7281-4.3872 2.3295 2.1082 4.1156 9.6213 4.1156 17.312 0 5.8153-1.3852 7.4418-2.3271 2.7325zm-45.648-7.0824c-1.1686-1.1686-0.54667-2.068 1.8452-2.6684 1.3395-0.3361 3.2228-0.9133 4.1852-1.2826 1.1623-0.446 1.6072-0.244 1.3253 0.6018-0.49578 1.4874-6.4888 4.2161-7.3556 3.3492zm10.539-2.606c0-4.5061 3.0598-7.2102 11.045-9.7611 10.056-3.2125 10.468-2.3537 1.0965 2.2888-7.9197 3.9236-8.6251 4.5208-8.9171 7.5489-0.43777 4.5403-3.2242 4.4742-3.2242-0.077zm-21.777-3.0591c-2.0188-2.3072-2.6839-2.3839-9.3347-1.0756-3.9804 0.783-4.191-0.4135-0.65247-3.7065 4.862-4.5246 17.901-22.624 20.889-28.996 1.6268-3.4694 3.4662-9.2757 4.0875-12.903 0.94532-5.5187 1.4138-6.5046 2.8711-6.0421 1.2542 0.3981 1.8335-0.096 2.0705-1.7678 0.30682-2.1636 0.48183-2.0811 2.5885 1.2207 1.5364 2.4079 2.2649 2.9632 2.2765 1.735 0.0261-2.7617 3.3857-0.5489 7.3436 4.8368 1.8134 2.4675 3.8095 4.3108 4.4358 4.0962 1.3522-0.4632 2.8394 2.5269 6.0063 12.076 2.4384 7.3523 2.1693 8.5713-1.8998 8.6057-2.7256 0.023-5.6033 1.7739-12.075 7.3469-4.46 3.8408-5.8177 5.66-5.8177 7.7951 0 2.5846-0.49136 2.9155-6.8295 4.5988-3.7562 0.9976-8.0589 2.4311-9.5616 3.1855-3.5974 1.8061-3.9925 1.744-6.398-1.0052zm-31.847-7.2856c0-0.306 1.8424-7.1338 4.0943-15.173 2.2519-8.0391 4.3641-16.895 4.6939-19.679 0.32977-2.7843 0.94883-5.0624 1.3757-5.0624 0.42686 0 0.58812-0.7968 0.35833-1.7706-0.3117-1.3211 1.5749-2.9267 7.4301-6.3236 4.3163-2.5042 8.1893-4.7048 8.6067-4.8903 1.6236-0.7215 0.63615 6.1821-1.8176 12.708-2.498 6.644-17.945 37.256-19.761 39.162-0.77667 0.8152 1.2962-4.5834 12.309-32.057 1.0595-2.6432 1.7052-4.8059 1.4348-4.8059-0.8062 0-9.0524 16.942-13.666 28.077-3.8292 9.2421-5.058 11.626-5.058 9.8141zm65.765-2.3824c0-0.3461 1.5826-2.9794 3.517-5.8517 5.4568-8.1028 9.9889-8.2647 9.3942-0.3356-0.25616 3.4157-0.45327 3.5703-6.5876 5.1688-3.478 0.9063-6.3236 1.3646-6.3236 1.0185zm-126.46-5.3506c-3.1158-7.2428-2.612-21.287 1.0091-28.134l2.4079-4.5529 0.74005 4.0471c0.427 2.335 0.26235 5.7591-0.38917 8.0941-0.62108 2.2259-1.1006 8.9416-1.0656 14.924 0.035 5.9821-0.0502 10.876-0.18922 10.876-0.13905 0-1.2699-2.3644-2.5131-5.2542zm-6.6305-3.2673c-4.5535-6.9495-5.5484-14.937-2.9503-23.686 2.48-8.351 10.116-15.346 16.753-15.346 2.9986 0 0.49613 4.2133-3.9196 6.5994-2.1439 1.1584-4.9948 4.0971-6.7719 6.9804-2.7929 4.5313-3.0589 5.7157-2.9538 13.153 0.0635 4.4954 0.64537 9.4886 1.293 11.096 1.5463 3.8379 0.72364 4.5204-1.45 1.2029zm22.132 1.5294c-5.2683-0.6415-10.253-3.7322-8.6322-5.3528 0.47216-0.4721 3.3285 0.2214 6.3475 1.5411s6.6272 2.8938 8.0184 3.4979c2.7891 1.2111 1.9931 1.2546-5.7338 0.3138zm4.2161-2.8046c-8.4187-2.1586-9.176-3.3563-2.1222-3.3563 5.932 0 21.941-4.5982 26.622-7.6467 5.0096-3.2623 4.4537-0.9113-1.297 5.4849-6.5787 7.3171-11.563 8.5026-23.203 5.5181zm-11.704-9.5549c-1.5324-2.8634 0.28073-6.9545 3.0821-6.9545 1.1249 0 2.0452 0.4108 2.0452 0.9128 0 0.5021 1.4338 1.4127 3.1863 2.0236 4.4844 1.5632 6.0556 1.3108 2.2221-0.3571-3.6557-1.5905-5.1812-4.9678-3.279-7.2597 4.4543-5.3671 26.832-11.752 39.586-11.294 6.4429 0.2311 8.3868 0.6626 9.2629 2.0559 0.91057 1.4483 0.45994 2.4122-2.5215 5.3937-2.8967 2.8967-6.2681 4.5309-16.685 8.0877-7.1799 2.4516-15.103 4.5456-17.607 4.6533-3.2267 0.1389-2.3425 0.3639 3.0353 0.7725l7.5883 0.5766-6.7845 1.7706c-3.7314 0.9738-10.203 1.7706-14.382 1.7706-6.7128 0-7.7318-0.2506-8.7492-2.1515zm7.9661-17.717c0.60627-1.1328 4.0913-4.8557 7.7445-8.2731 11.854-11.089 28.778-17.548 46.582-17.777 7.2549-0.094 9.9259 0.2943 13.139 1.9078 2.2184 1.1138 4.1554 2.7074 4.3044 3.5412 0.16847 0.9428-3.1574 3.7322-8.796 7.3772l-9.0669 5.8612-2.0902-2.0902c-1.6329-1.6329-2.5133-1.8638-4.024-1.0553-1.0636 0.5693-3.7364 1.035-5.9395 1.035-3.2943 0-14.498 2.5287-29.516 6.6616-5.2019 1.4316-0.29934-1.7022 8.8001-5.6252 13.697-5.9053 29.803-8.7194 34.75-6.0718 1.529 0.8183 1.8178 0.7317 1.3784-0.4133-3.272-8.5268-38.781 0.2152-54.085 13.315-2.8176 2.4118-3.906 2.9615-3.1808 1.6066zm-0.81517-5.9027c0-1.6071 6.3974-9.7681 10.357-13.212 7.6088-6.6183 17.378-10.409 35.076-13.612 16.48-2.9824 24.62-2.3237 36.982 2.9924l5.0145 2.1565-4.5087 2.5831c-3.9764 2.2782-4.867 2.4397-7.544 1.3684-1.6694-0.6682-5.0842-1.7023-7.5883-2.298l-4.553-1.0832 5.0589-1.1354 5.0589-1.1353-4.9086-1.2673c-6.8079-1.7576-20.242-1.6198-27.303 0.2801-12.76 3.4333-27.702 11.79-36.384 20.349-2.6168 2.5798-4.7578 4.3861-4.7578 4.014zm104.08-3.8386c-2.9441-2.6241-3.5419-3.7538-3.0147-5.6968 0.64933-2.393 0.69325-2.3769 3.4797 1.2763 2.2474 2.9465 4.3826 7.7845 3.4021 7.7088-0.10716-0.01-1.8474-1.488-3.8672-3.2883zm-9.5144-8.1559c-0.86484-4.61 0.027-5.9492 1.6256-2.4409 0.80885 1.7752 0.84701 3.1121 0.12563 4.4012-0.8896 1.5896-1.1372 1.3124-1.7512-1.9603zm-30.553-11.501c0.98442-0.2565 2.3503-0.2397 3.0353 0.038 0.685 0.2771-0.12043 0.487-1.7898 0.4664-1.6694-0.021-2.2299-0.2474-1.2455-0.5039zm89.775 1221c0-2.8891 6.3027-14.457 12.242-22.469 2.8662-3.8663 4.9574-7.2837 4.6471-7.594-0.31034-0.3103-2.8376 2.5318-5.6162 6.3157-9.1106 12.407-15.53 25.697-12.411 25.697 0.62603 0 1.1382-0.8775 1.1382-1.95zm22.731-77.7c0.3539-1.4101 0.38782-3.7574 0.0754-5.2163-0.39571-1.8476 0.50957-4.7839 2.9834-9.6769 3.6573-7.2336 4.2972-9.6698 2.5398-9.6698-0.55647 0-1.0118 0.6239-1.0118 1.3863 0 0.7626-2.275 4.507-5.0556 8.3209-5.4028 7.4108-6.9877 12.271-5.2472 16.091 1.3978 3.0677 4.8218 2.3279 5.716-1.235zm-78.947-20.769c-1.3712-10.209-4.7116-40.557-6.5427-59.442-3.4635-35.718-9.1947-71.473-13.028-81.277-1.5912-4.0696-3.691-2.8576-3.3947 1.9595 0.88746 14.43 3.9822 29.385 3.5809 17.303-0.0952-2.8676 0.47422-1.2848 1.7447 4.8489 3.0087 14.525 5.2968 31.918 4.646 35.317-0.35735 1.8664-0.25363 2.5941 0.25687 1.8024 0.5254-0.8149 1.1141 2.0264 1.5235 7.3535 1.1869 15.441 8.6491 69.24 10.286 74.157 0.81189 2.4388 1.3648 1.2326 0.92743-2.0236zm-13.917-85.937c-0.32299-0.807-0.56274-0.5674-0.61128 0.6114-0.0439 1.0665 0.1952 1.6642 0.5314 1.3279 0.3362-0.3362 0.37215-1.2088 0.0798-1.9393zm158.65-85.305c3.7352-4.4518 10.047-11.525 14.025-15.718 15.735-16.583 21.904-24.19 21.904-27.012 0-2.877-2.874-0.9481-6.7565 4.5349-2.2658 3.1997-8.5238 10.826-13.907 16.947-10.621 12.078-23.855 28.923-23.855 30.365 0 1.0982 0.15157 0.9373 8.5884-9.1179zm27.764-10.118c0-0.5564-0.65069 0.1266-1.4459 1.5177-0.79534 1.3912-1.446 2.9847-1.446 3.5412s0.65061-0.1264 1.446-1.5177c0.79525-1.3911 1.4459-2.9847 1.4459-3.5412zm-240.16-15.176c-3.0293-3.9716-2.6661-4.4362 1.2929-1.6537 3.2796 2.3052 10.161 5.8041 8.7562 4.4525-1.0639-1.0239-13.258-9.5563-15.43-10.796-2.8213-1.6111-1.0656 3.1572 2.6655 7.2389 4.7492 5.1955 6.4648 5.6748 2.7149 0.7584zm36.121-17.358c-0.685-0.2772-2.0509-0.2941-3.0353-0.037-0.98443 0.2565-0.42397 0.4833 1.2455 0.5039 1.6694 0.02 2.4748-0.1893 1.7898-0.4665zm176.11-8.5102c-0.59379-0.5938-3.7581-1.9191-7.0318-2.9451-6.7587-2.1182-5.9891-2.8327 3.6597-3.3975 3.617-0.2117 1.9084-0.2965-3.7969-0.1885-15.04 0.285-15.4 1.3826-1.6397 4.9995 4.9378 1.2979 9.1826 2.4164 9.4331 2.4856 0.25043 0.069-0.0308-0.3602-0.62439-0.954zm-191.58-17.748c2.7743-1.1101 4.0676-2.246 4.0676-3.5729 0-2.7411-2.3298-3.3106-5.9291-1.4492-5.6738 2.9339-10.341 2.1066-17.483-3.0995-3.5392-2.5797-7.1178-5.1589-7.9525-5.7315-0.83471-0.5727 1.2141 1.7921 4.553 5.2551 6.1187 6.3462 12.26 10.162 16.421 10.203 1.2408 0.012 4.0864-0.7102 6.3236-1.6054zm197.82-4.0058c3.0578-1.4509 10.613-10.763 12.3-15.162 0.395-1.0292-2.1811 0.4164-6.1152 3.4316-7.3829 5.6587-8.4907 6.0856-16.81 6.4778-4.823 0.2273-5.6061 0.5519-5.8746 2.4354-0.22833 1.6019 0.4367 2.4455 2.5294 3.2084 4.2653 1.5551 10.22 1.3883 13.97-0.3913zm-94.458-241.21c9.1024-2.2121 21.444-4.8272 27.426-5.8111 5.9821-0.984 10.877-2.1335 10.877-2.5544 0-1.7418-11.572-0.5374-25.8 2.685-8.3471 1.8905-16.087 3.7512-17.2 4.1348s1.5233-1.4513 5.8582-4.0778c4.335-2.6264 7.6537-5.0033 7.3749-5.2821-0.79704-0.797-27.904 12.668-27.904 13.861 0 1.6171 1.4901 1.3897 19.368-2.9553zm-7.9857-28.221c1.6383-0.6447 2.7824-1.8647 2.7824-2.9668 0-1.22 2.5551-3.4987 7.3354-6.5418 4.0344-2.5684 8.9289-6.0773 10.877-7.7975 3.2638-2.8828 2.8279-2.7575-5.5647 1.5998-14.924 7.7484-24.929 13.751-25.53 15.318-1.2476 3.2512 2.4635 3.3941 10.101 0.3888zm41.967 2.2908c-0.3362-0.3361-1.2089-0.3721-1.9392-0.08-0.80712 0.323-0.56738 0.5628 0.61128 0.6113 1.0666 0.044 1.6642-0.1952 1.328-0.5314zm-23.818-1.8728c12.929-2.9809 18.002-3.4414 18.965-1.7215 0.78426 1.4014 1.3145 1.3721 4.9667-0.2749 8.7647-3.9523 5.4092-9.7786-4.8401-8.4039-5.7104 0.766-30.015 11.873-25.981 11.873 0.27655 0 3.3767-0.6625 6.8892-1.4723zm-123.56-16.353c-0.55897-2.1602-2.2821-8.253-3.8292-13.54-2.6629-9.0992-2.8293-9.3865-3.1204-5.3867-0.37698 5.1805 5.9599 24.86 7.5069 23.313 0.25246-0.2524 0.002-2.2264-0.55732-4.3867zm13.197-8.7336c-3.464-4.9272-7.516-9.8602-22.273-27.115l-10.528-12.31 7.4927 5.7248c4.121 3.1487 10.588 9.0031 14.371 13.01 3.7831 4.0067 6.4373 6.3743 5.8983 5.2614-1.52-3.1385-26.544-27.363-30.172-29.208-2.0645-1.0499-3.4596-1.2729-3.8646-0.61767-0.68067 1.1013 10.073 15.464 17.787 23.756 7.6024 8.1721 17.226 18.97 20.063 22.512 3.8389 4.7923 4.7675 4.0259 1.2259-1.0118zm13.332-31.618c-9.0231-2.9716-19.267-6.7662-22.765-8.4325-3.4976-1.6663-7.4975-3.2812-8.8887-3.5888-1.3912-0.30758-6.8006-3.3279-12.021-6.7118-11.808-7.6542-15.972-7.7579-5.1791-0.1291 12.552 8.8727 29.987 16.257 52.612 22.283 14.65 3.9019 12.48 1.9272-3.7584-3.4208zm6.3602-149c-0.45454-0.4545-10.696 4.6488-10.696 5.3299 0 0.2628 2.4914-0.7441 5.5365-2.2375s5.3668-2.885 5.1595-3.0924zm4.0015-2.0691c-0.31152-0.3115-1.1279-0.0006-1.8142 0.6909-0.9918 0.9992-0.87559 1.1154 0.56639 0.5664 0.99783-0.38 1.5594-0.9457 1.2478-1.2573zm-30.148-5.8655c-0.33621-0.3362-1.2089-0.3721-1.9392-0.08-0.80712 0.323-0.56738 0.5627 0.61129 0.6113 1.0666 0.044 1.6641-0.1952 1.3279-0.5314zm0.0329-4.131c-0.96735-0.2532-2.7885-0.2624-4.0471-0.02-1.2586 0.242-0.4671 0.4492 1.7588 0.4605 2.2259 0.011 3.2556-0.1868 2.2883-0.4401zm17.357-0.965c0.23187-0.1998-2.1853-0.3633-5.3715-0.3633-3.505 0-5.5523 0.3895-5.1835 0.9863 0.53916 0.8724 9.4288 0.3477 10.555-0.623zm135.45-0.5046c-0.21138-0.6341-5.0306-2.9859-10.709-5.2261-5.6787-2.2403-10.153-4.2446-9.9439-4.4542 0.20956-0.2095 3.2834 0.09 6.8308 0.6655 8.0411 1.3048 13.327 1.3548 12.563 0.1188-0.32056-0.5187-2.9654-1.4019-5.8774-1.9628-18.7-3.6014-28.451-5.2275-34.889-5.8179-6.2603-0.5742-7.3354-0.4413-7.3354 0.9065 0 1.9151 3.1382 3.1533 27.423 10.82 19.488 6.1524 22.57 6.848 21.938 4.9499zm-33.173-11.562-3.5412-1.4319 3.5412 0.6132c4.0139 0.695 7.7204 2.3777 5.0589 2.2967-0.83471-0.025-3.1112-0.6905-5.0589-1.478zm-74.583-14.022c9.5796-2.4632 28.572-6.8156 42.206-9.6722 38.044-7.9709 52.616-12.044 55.491-15.509 0.97852-1.1791 0.62742-1.684-1.8984-2.7302-3.6001-1.4913-45.679-0.8983-68.77 0.9691-7.5124 0.6076-18.212 1.4639-23.777 1.903-6.1504 0.4853 7.7353 0.6839 35.412 0.5066 50.459-0.3234 50.535-0.3067 24.283 5.3392-20.255 4.3562-39.625 9.3323-56.659 14.556-8.9036 2.7304-18.806 5.703-22.006 6.6059-3.1997 0.9028-5.8177 1.8369-5.8177 2.0757 0 1.1149 5.4526 0.091 21.536-4.0443zm-0.71055-28.774c-0.50372-0.8151-5.6486-0.3705-5.6486 0.4881 0 0.2134 1.3928 0.388 3.095 0.388 1.7023 0 2.8514-0.3943 2.5536-0.8761zm42.916-6.0386c17.447-2.9223 22.765-4.1553 22.765-5.2786 0-1.1929-2.1187-1.4657-11.382-1.4657-6.7834 0-11.461 0.4088-11.578 1.0118-0.10757 0.5565 1.1445 1.2608 2.7824 1.5653 2.497 0.4641 1.7523 0.8374-4.6103 2.3111-4.1736 0.9668-12.597 2.4426-18.718 3.2797-13.444 1.8385-14.879 2.2815-7.5883 2.3426 3.0606 0.026 15.809-1.6692 28.33-3.7662z"/>
</svg>
