<?xml version="1.0" encoding="UTF-8" standalone="no"?>
<!-- Created with Inkscape (http://www.inkscape.org/) -->
<svg id="svg3408" xmlns:rdf="http://www.w3.org/1999/02/22-rdf-syntax-ns#" xmlns="http://www.w3.org/2000/svg" height="375" viewBox="0 0 1250 375" width="1250" version="1.1" xmlns:cc="http://creativecommons.org/ns#" xmlns:dc="http://purl.org/dc/elements/1.1/">
 <metadata id="metadata3414">
  <rdf:RDF>
   <cc:Work rdf:about="">
    <dc:format>image/svg+xml</dc:format>
    <dc:type rdf:resource="http://purl.org/dc/dcmitype/StillImage"/>
    <dc:title/>
   </cc:Work>
  </rdf:RDF>
 </metadata>
 <path id="path3418" fill="#fff" d="m386.02 329.44c-2.3652-4.8684-3.2602-5.6094-7.1713-5.9375-4.0355-0.33856-4.5067-0.76875-4.8604-4.4374l-0.4-4.06h-50.546c-48.994 0-50.546-0.0736-50.546-2.3978 0-5.9663-0.8435-6.3522-13.884-6.3522h-12.366v-13.676c0-7.7691 0.5399-14.01 1.25-14.449 0.7484-0.46254 1.25-8.7362 1.25-20.618v-19.846l13.031-0.39292 13.031-0.39293 0.40617 36.46c0.2234 20.053 0.85864 36.912 1.4116 37.464 2.8348 2.8301 3.3444-5.6981 3.0541-51.112l-0.30957-48.438 7.8125 0.00046 7.8125 0.00045v47.5c0 46.667 0.0439 47.5 2.5 47.5 2.4393 0 2.5-0.83334 2.5-34.338v-34.338l36.562-0.34942c20.109-0.19218 36.844-0.16276 37.188 0.0654 0.34375 0.22815 0.90625 19.072 1.25 41.875 0.5388 35.742 0.88359 41.46 2.5 41.46 1.6331 0 1.875-6.007 1.875-46.563v-46.563l51.25-0.0001 51.25-0.00009-0.34454 46.563c-0.1895 25.61-0.59371 47.266-0.89827 48.126-0.41738 1.1778-6.5652 1.5625-24.968 1.5625l-24.414 0.00001v5.625 5.625h-21.266-21.266l-2.7025-5.5626zm100.98-71.546c-0.48831-18.347-1.1706-33.816-1.5162-34.375-0.34-0.56-25.63-1.02-56.18-1.02h-55.551v5 5h-36.875-36.875v-10.625-10.625h100.62 100.62v36.239c0 34.886-0.0934 36.298-2.5 37.801-1.375 0.8587-2.5 2.551-2.5 3.7606 0 1.6609-1.0239 2.1993-4.1825 2.1993h-4.1825l-0.8878-33.358zm20.39-32.58c-0.061-34.203-0.20267-63.875-0.31499-65.938l-0.20421-3.75 15.501-0.35249 15.501-0.35249-0.80586 10.352c-0.44322 5.6939-0.80924 35.524-0.81336 66.29l-0.007 55.938h-14.373-14.373l-0.11075-62.188zm33.86-8.19c0-44.319-0.37561-59.501-1.5-60.625-1.1667-1.1667-0.16432-1.5 4.5105-1.5 5.5982 0 5.9646-0.19295 5.341-2.8125-0.36822-1.5469-0.84085-14.062-1.0503-27.812l-0.38075-25 24.352-0.65891c13.394-0.3624 25.072-0.4364 25.952-0.16446 1.2104 0.37411 1.5146 4.1852 1.25 15.659-0.32505 14.092-0.51719 15.136-2.7167 14.756-3.6896-0.63677-4.4684 1.9823-4.489 15.096l-0.02 12.19h-21.667c-11.917 0-22.003 0.33624-22.414 0.74721-0.41096 0.41096-0.44454 1.536-0.0746 2.5 0.5404 1.4082 4.8326 1.7528 21.833 1.7528 26.074 0 27.322-0.49813 27.322-10.901v-6.8633l73.438 0.80559c40.391 0.44308 75.161 1.0708 77.267 1.395l3.83 0.58946-0.53999 14.674c-0.29699 8.071-0.715 14.869-0.92893 15.107-0.21391 0.23778-34.319 0.95303-75.79 1.5894-75.869 1.1643-123.99 2.3297-123.28 2.9856 0.20993 0.1947 38.913 0.97591 86.007 1.736 47.094 0.76012 91.953 1.5028 99.688 1.6505l14.062 0.26842v15.212 15.212l-6.5625 0.72355c-3.6094 0.39795-42.281 1.0947-85.938 1.5483-43.656 0.45363-85.562 1.1979-93.125 1.654l-13.75 0.82918 21.875 0.8773c12.031 0.48252 49.156 1.1736 82.5 1.5358 33.344 0.36217 68.359 0.99434 77.812 1.4048l17.188 0.74626v14.743 14.743l-11.562 0.70361c-6.3594 0.38698-36.594 1.006-67.188 1.3755-30.594 0.36952-70.391 1.0358-88.438 1.4805l-32.812 0.80865v7.3713c0 7.2298-0.0833 7.4061-4.3348 9.1825-2.3842 0.99616-4.6342 1.8112-5 1.8112-0.36584 0-0.66515-26.606-0.66515-59.125zm215.99-12.12c-0.14062-35.062-0.28125-66.141-0.3125-69.062l-0.0568-5.3125 6.875 0.4269c3.7812 0.2348 7.1562 0.7033 7.5 1.0411 1.0294 1.0116 1.5755 107.4 0.62924 122.59l-0.87593 14.062h-6.7517-6.7517l-0.25569-63.75zm164.81 50.938c-1.1206-18.331-1.2083-104.86-0.11725-115.62l0.91831-9.0625h4.7312c8.9795 0 8.5626-3.7013 7.7803 69.063-0.43105 40.095-1.1798 65.915-1.9394 66.874-0.68048 0.85937-3.3416 1.5625-5.9136 1.5625h-4.6764l-0.78325-12.812zm148.99-46.25c-0.285-32.484-0.2941-63.422-0.02-68.75l0.4977-9.6875h4.5627c8.4885 0 8.2435-1.9711 8.6743 69.784 0.288 47.968 0.013 64.608-1.0906 65.938-0.8526 1.0274-3.7199 1.7782-6.7907 1.7782h-5.315l-0.5181-59.062zm62.283 51.875c-1.1379-10.992-1.3558-114.97-0.258-123.12l0.9672-7.1875h5.2938 5.2937l0.8122 11.442c1.0537 14.844 1.0503 91.237 0 110.86l-0.8171 15.196h-5.2714-5.2715l-0.744-7.1875zm-1041.2 5.11c-1.4732-1.4732-0.83604-32.03 0.83408-39.998 0.88842-4.2387 2.9861-9.7545 4.6614-12.257 4.2143-6.296 17.456-14.859 37.579-24.302l17.033-7.9927 0.62249-8.7001c0.3893-5.4411 1.2665-9.108 2.3417-9.7891 0.94559-0.59895 6.5005-1.1159 12.344-1.1488 19.872-0.11188 35.548-2.8888 50.909-9.0187 7.7187-3.0801 14.328-5.3062 14.688-4.9467 0.35947 0.35946 0.65358 12.935 0.65358 27.945 0 26.458 0.0764 27.292 2.5 27.292 2.4319 0 2.5-0.83334 2.5-30.581 0-28.955 0.12854-30.65 2.4178-31.875 1.56-0.85 23.47-1.3 62.51-1.3h60.109l1.4238-3.125 1.4238-3.125h31.076 31.076l5.0237-3.3245c3.8101-2.5214 5.3738-2.9744 6.4732-1.875 0.81 0.79 2.47 1.44 3.71 1.44 2.0417 0 2.25 1.3889 2.25 15v15h27.426c15.084 0 27.67 0.42187 27.967 0.9375 0.29764 0.51562 0.25406 10.922-0.0969 23.125l-0.63801 22.188h-132.41-132.41l-3.9791-2.9446c-2.1885-1.6195-6.3419-4.2387-9.2298-5.8205l-5.2508-2.8759-4.3305 3.303c-4.9278 3.7586-8.1422 11.812-9.4402 23.65-0.0565 0.51562-0.93035 0.9375-1.9418 0.9375-1.6772 0-5.0614-9.2091-7.4646-20.312-0.55182-2.5496-1.4938-3.4375-3.6468-3.4375-3.3677 0-60.499 18.793-70.276 23.117-9.07 4.01-10.53 7.2-10.53 23.07v12.562h62.288 62.288l-0.57943-23.125-0.57944-23.125h21.55c19.137 0 21.465 0.22137 20.791 1.9772-0.41731 1.0875-0.75757 6.0094-0.75613 10.938l0.002 8.9603-14.68-0.62c-9.0925-0.38685-15.04-0.1487-15.608 0.625-0.5051 0.6875-0.92698 8.7031-0.9375 17.812l-0.019 16.562h-75.417c-41.479 0-75.792-0.375-76.25-0.83334zm686.13-14.07c-0.23178-0.39661-0.51878-6.8524-0.63778-14.346l-0.21637-13.625 8.5102 0.80366c4.6806 0.44201 35.932 0.80766 69.448 0.81255l60.938 0.009v12.5 12.5l-62.188 0.0913c-34.203 0.0501-65.168 0.51531-68.81 1.0336-3.6424 0.51829-6.8121 0.61785-7.0439 0.22125zm162.32-3.0131c-0.35183-0.91684-0.47479-6.4012-0.27326-12.188l0.36641-10.521 62.812-0.32406 62.812-0.32407v12.512 12.512h-62.539c-50.969 0-62.658-0.30841-63.179-1.667zm148.27-10.84v-12.565l19.062 0.34505 19.062 0.34506v11.875 11.875l-19.062 0.34506-19.062 0.34505v-12.565zm61.516 0.39071c0.3555-12.155 0.3879-12.269 3.5907-12.641 5.1399-0.59749 6.2893 2.0776 5.883 13.692l-0.365 10.434-4.7337 0.39071-4.7337 0.39071 0.3587-12.266zm-368.74-21.41-4.06-0.39v-18.046-18.046h69.375 69.375v18.125c0 16.436-0.2039 18.123-2.1875 18.107-1.2031-0.01-30.594 0.1305-65.312 0.3125-34.719 0.18199-64.953 0.15464-67.188-0.0607zm159.07-0.0181c-0.35-0.34-0.63-8.69-0.63-18.54v-17.917h63.125 63.125v18.125 18.125l-57.812 0.13042c-31.797 0.0718-59.919 0.26233-62.493 0.42354-2.5744 0.16122-4.965 0.009-5.3125-0.33875zm148.17-18.33v-18.125h19.375 19.375v18.125 18.125h-19.375-19.375v-18.125zm61.25 0.0719c0-13.107 0.3985-13.634 8.0944-10.709 3.1913 1.2134 3.2498 1.4468 2.8938 11.562l-0.3632 10.324-5.3125 0.38437-5.3125 0.38438v-11.947zm-372.23-38.36c0.33598-13.459 0.48799-14.19 2.8549-13.715 1.375 0.27586 32.453 0.73325 69.062 1.0164l66.562 0.51487v11.7 11.7l-65.938 0.56526c-36.266 0.3109-67.503 0.98605-69.417 1.5003l-3.4799 0.93506 0.35487-14.216zm162.23-0.47v-11.875h63.125 63.125v11.875 11.875h-63.125-63.125v-11.875zm148.75 0v-11.875h19.375 19.375v11.875 11.875h-19.375-19.375v-11.875zm61.25 0v-12.026l4.6875 0.38795 4.6875 0.38796v11.25 11.25l-4.6875 0.38796-4.6875 0.38795v-12.026zm-698.75-26.09c0-16.925-0.33412-20.749-1.9286-22.073-1.0607-0.88034-1.7639-2.4104-1.5625-3.4002 0.3025-1.4869 3.9499-1.7706 20.991-1.6324 12.093 0.0981 22.305 0.76953 24.688 1.6233l4.0625 1.4561v22.249 22.249h-23.125-23.125v-20.472zm51.25-3.934v-20.656l20.312 0.34347 20.312 0.34346 0.34329 19.5 0.34328 19.5-10.343 0.80515c-5.6888 0.44284-14.984 0.80853-20.656 0.81265l-10.312 0.007v-20.656zm56.675-38.79c-1.3379-3.4864 0.43109-73.445 1.9596-77.498 0.92443-2.4512 3.0447-4.5462 5.92-5.8495 4.1361-1.8747 4.8074-1.8742 8.7516 0.00661 2.556 1.2189 4.6327 3.3174 5.1704 5.2245 0.4942 1.7531 0.89855 20.344 0.89855 41.312v38.125l-10.983 0.29736c-8.9008 0.24099-11.122-0.06567-11.718-1.6179z"/>
</svg>
