<?xml version="1.0" encoding="UTF-8" standalone="no"?>
<!-- Created with Inkscape (http://www.inkscape.org/) -->

<svg
   xmlns:dc="http://purl.org/dc/elements/1.1/"
   xmlns:cc="http://creativecommons.org/ns#"
   xmlns:rdf="http://www.w3.org/1999/02/22-rdf-syntax-ns#"
   xmlns:svg="http://www.w3.org/2000/svg"
   xmlns="http://www.w3.org/2000/svg"
   xmlns:xlink="http://www.w3.org/1999/xlink"
   xmlns:sodipodi="http://sodipodi.sourceforge.net/DTD/sodipodi-0.dtd"
   xmlns:inkscape="http://www.inkscape.org/namespaces/inkscape"
   id="svg4190"
   version="1.1"
   inkscape:version="0.91 r13725"
   width="499"
   height="499"
   viewBox="0 0 499 499"
   sodipodi:docname="merry.svg">
  <metadata
     id="metadata4196">
    <rdf:RDF>
      <cc:Work
         rdf:about="">
        <dc:format>image/svg+xml</dc:format>
        <dc:type
           rdf:resource="http://purl.org/dc/dcmitype/StillImage" />
        <dc:title />
      </cc:Work>
    </rdf:RDF>
  </metadata>
  <defs
     id="defs4194">
    <linearGradient
       inkscape:collect="always"
       id="linearGradient5406">
      <stop
         style="stop-color:#890e00;stop-opacity:1"
         offset="0"
         id="stop5408" />
      <stop
         style="stop-color:#d11a00;stop-opacity:1"
         offset="1"
         id="stop5410" />
    </linearGradient>
    <linearGradient
       inkscape:collect="always"
       xlink:href="#linearGradient5406"
       id="linearGradient5412"
       x1="268.50818"
       y1="489.20361"
       x2="266.56491"
       y2="11.199437"
       gradientUnits="userSpaceOnUse"
       gradientTransform="matrix(0.81,0,0,0.81,45.807,5.7617343)" />
  </defs>
  <sodipodi:namedview
     pagecolor="#ffffff"
     bordercolor="#666666"
     borderopacity="1"
     objecttolerance="10"
     gridtolerance="10"
     guidetolerance="10"
     inkscape:pageopacity="0"
     inkscape:pageshadow="2"
     inkscape:window-width="1920"
     inkscape:window-height="1017"
     id="namedview4192"
     showgrid="false"
     inkscape:zoom="1.4142136"
     inkscape:cx="171.15148"
     inkscape:cy="205.54105"
     inkscape:window-x="-8"
     inkscape:window-y="-8"
     inkscape:window-maximized="1"
     inkscape:current-layer="layer3" />
  <path
     style="fill:url(#linearGradient5412);fill-opacity:1"
     d="M 84.871082,403.33151 C 69.892708,399.68331 57.068257,386.44747 53.980692,371.45022 53.36002,368.43542 53.097,319.84691 53.097,208.2029 53.097,68.146993 53.244391,48.673963 54.336665,44.420273 58.513868,28.152803 72.077493,15.724003 88.332,13.269213 c 3.87697,-0.5855 55.87484,-0.78519 164.43,-0.63145 l 158.76,0.22483 5.40976,2.10601 c 13.13235,5.1124 20.89642,12.97654 25.97397,26.30872 l 1.82627,4.79527 0.22484,158.759997 c 0.15373,108.55516 -0.0459,160.55303 -0.63146,164.43 -2.22875,14.7578 -12.72168,27.4903 -27.19877,33.00395 l -4.79461,1.82605 -161.595,0.13958 c -129.1958,0.1116 -162.451303,-0.069 -165.865918,-0.90066 z"
     id="path4200"
     inkscape:connector-curvature="0" />
  <g
     inkscape:groupmode="layer"
     id="layer3"
     inkscape:label="Layer 1">
    <path
       style="display:inline;fill:#ffffff"
       d="m 298.58553,314.87401 c -10.7626,-9.16316 -26.51952,-22.58112 -35.01536,-29.81769 l -15.447,-13.1574 -5.4667,4.64161 c -3.00669,2.5529 -18.5736,15.80344 -34.59312,29.44564 -16.01953,13.64221 -29.63177,24.80402 -30.24941,24.80402 -1.46242,0 -1.33502,0.72198 -4.36116,-24.71618 -1.43055,-12.02537 -2.70027,-21.96486 -2.8216,-22.08775 -0.12133,-0.1229 -9.57876,5.46926 -21.01649,12.427 -11.43774,6.95774 -24.32682,14.72939 -28.64242,17.27033 -7.56314,4.45302 -20.83325,10.76912 -22.625927,10.76912 -0.47787,0 -1.32177,-0.69124 -1.875333,-1.53608 -0.921243,-1.406 -0.918829,-1.70558 0.02852,-3.53754 0.569248,-1.10081 2.26581,-5.18645 3.77014,-9.07921 1.50432,-3.89276 4.20986,-10.88489 6.01231,-15.53807 10.08055,-26.02384 14.79728,-52.83793 16.51573,-93.89002 0.34289,-8.19119 1.06311,-17.60236 1.6005,-20.91369 3.20224,-19.73177 10.96337,-40.57789 20.36545,-54.70092 4.77323,-7.16995 14.63342,-17.73646 21.34768,-22.8769 17.25618,-13.211327 41.72385,-22.970827 64.57994,-25.759237 9.47102,-1.15545 35.16848,-0.42777 43.1101,1.22075 14.8603,3.0847 26.25914,7.07729 38.48756,13.48078 27.00248,14.139997 42.61424,32.590957 52.80448,62.407677 5.45074,15.9489 7.77746,28.89332 8.35961,46.50779 1.57841,47.75763 7.30363,74.29808 25.11182,116.41114 3.41389,8.07322 1.501,9.24283 -8.14585,4.98071 -6.85718,-3.0296 -20.31655,-10.80091 -47.66132,-27.51919 -9.19192,-5.61984 -16.79059,-10.21788 -16.88595,-10.21788 -0.39611,0 -1.03445,4.54263 -3.47318,24.71618 -1.65509,13.69113 -2.86448,21.53149 -3.40557,22.07794 -0.69859,0.70551 -4.11502,-1.94174 -20.40745,-15.81293 z"
       id="path4808"
       inkscape:connector-curvature="0" />
    <path
       style="display:inline;fill:#000000"
       d="m 176.9695,330.1335 c -0.22322,-0.36118 -1.53065,-9.98623 -2.90541,-21.389 -1.37475,-11.40278 -2.70617,-21.77801 -2.95872,-23.05608 l -0.45918,-2.32376 -10.45684,6.3934 c -31.40151,19.19911 -43.6751,26.38316 -51.90278,30.37997 -7.83992,3.80846 -9.334641,4.33698 -10.615281,3.75348 -1.891929,-0.86202 -1.87752,-2.24445 0.07133,-6.84357 17.406821,-41.07871 23.264581,-67.43592 25.057901,-112.74896 0.72787,-18.39167 1.68084,-26.02325 4.74145,-37.97055 8.10747,-31.64797 22.38257,-53.29209 45.00547,-68.237917 8.23811,-5.44251 22.13787,-12.10846 32.00429,-15.34839 16.08621,-5.28238 29.76161,-7.10584 48.7593,-6.5015 21.64808,0.68866 37.05321,4.50166 55.80917,13.81361 14.28375,7.0916 20.46361,11.398447 29.81047,20.775407 13.80738,13.85186 21.2592,27.01899 28.14202,49.72601 3.90493,12.88275 5.4051,22.80347 6.09643,40.31614 1.90723,48.31357 7.60123,74.37428 25.45179,116.48973 l 1.96375,4.63316 -1.3111,1.3111 -1.3111,1.3111 -5.60404,-2.37249 c -8.44736,-3.57622 -21.31167,-10.97436 -53.63768,-30.84651 -8.22181,-5.0543 -13.27889,-7.80998 -13.44715,-7.32759 -0.14833,0.42524 -1.4926,11.03633 -2.98728,23.58021 -2.19001,18.37941 -2.90369,22.8429 -3.67617,22.99168 -0.52723,0.10152 -4.24137,-2.6042 -8.25365,-6.01275 -4.01227,-3.40853 -19.63418,-16.70176 -34.71532,-29.5405 -24.29996,-20.68682 -27.54309,-23.24773 -28.4996,-22.5044 -0.59363,0.46132 -5.7849,4.84553 -11.53617,9.74269 -44.1613,37.60292 -57.0712,48.46297 -57.61042,48.46297 -0.34079,0 -0.80226,-0.29551 -1.02548,-0.65669 z m 34.23658,-30.77569 c 37.70629,-32.03798 36.06229,-30.67496 36.99809,-30.67496 0.43608,0 8.55985,6.6306 18.05283,14.73466 39.62908,33.83093 50.0132,42.63057 50.54302,42.83081 0.3074,0.1162 0.56066,-0.16899 0.5628,-0.63374 0.002,-0.46475 0.85595,-10.82653 1.89735,-23.02619 1.0414,-12.19965 1.89521,-22.67024 1.89735,-23.26795 0.002,-0.59772 0.58732,-1.399 1.3004,-1.78062 1.11167,-0.59496 4.56727,1.04499 24.24087,11.50417 12.6194,6.70891 27.15087,14.54602 32.29216,17.41578 5.14128,2.86976 9.34778,5.15708 9.34778,5.08292 0,-0.0741 -1.16288,-2.97476 -2.58418,-6.4458 -11.41587,-27.8793 -17.01355,-56.83623 -18.37143,-95.03575 -1.02534,-28.84436 -2.73414,-39.98692 -8.84433,-57.6711 -7.95857,-23.03378 -19.86109,-38.84383 -38.64487,-51.33178 -44.46236,-29.559747 -99.03336,-29.420567 -144.17773,0.36769 -13.25874,8.7487 -25.32827,22.5398 -32.32696,36.93802 -5.16377,10.62329 -10.27342,26.96123 -12.31474,39.376 -0.40119,2.43994 -0.85728,5.14922 -1.01354,6.02061 -0.15626,0.87141 -0.55712,9.8548 -0.8908,19.96308 -0.8536,25.85823 -2.37041,40.617 -6.12246,59.57234 -2.77855,14.0372 -9.64853,36.05886 -14.16598,45.40889 -0.7066,1.4625 -1.21439,2.72943 -1.12843,2.81539 0.086,0.086 3.29235,-1.62038 7.1253,-3.79188 7.72249,-4.37507 46.12603,-24.89058 53.47607,-28.56739 3.99595,-1.99895 4.80846,-2.21224 5.56093,-1.45976 0.98306,0.98306 0.89504,0.25983 3.0677,25.20402 2.10266,24.14048 2.0494,23.78289 3.37474,22.66039 0.58404,-0.49466 14.46568,-12.28819 30.84806,-26.20785 z m 34.03553,-74.2835 c -1.48113,-5.46875 -4.0123,-14.27301 -5.62482,-19.56502 l -2.93186,-9.62182 -4.18382,-1.8685 c -9.62834,-4.30004 -20.20545,-6.65671 -33.45723,-7.45459 -5.64831,-0.34008 -7.17138,-0.6333 -7.48103,-1.44024 -0.75059,-1.95599 1.51206,-2.73366 6.65139,-2.28609 11.32022,0.98583 22.21599,3.87647 32.16273,8.53275 2.87564,1.34615 5.22843,2.2053 5.22843,1.90924 0,-1.45513 -6.80541,-18.9286 -9.82316,-25.22179 l -3.42704,-7.14675 -4.62393,4.66706 c -5.16214,5.21029 -11.24097,8.6853 -17.44937,9.97507 -5.05227,1.04959 -13.57764,0.45153 -17.83782,-1.25134 -7.32735,-2.92885 -16.00964,-9.67866 -21.00849,-16.33246 -1.51999,-2.0232 -2.95871,-3.91561 -3.19717,-4.20535 -0.23847,-0.28975 -2.67763,0.87045 -5.42037,2.57821 -6.19149,3.85514 -7.08577,4.35685 -6.25429,3.50875 0.34857,-0.35552 5.33933,-4.61998 11.0906,-9.47656 19.60752,-16.55732 21.7262,-17.90998 28.09005,-17.93398 9.34595,-0.0352 24.1285,7.72534 34.33415,18.02484 5.8936,5.94779 8.11569,9.49153 12.85868,20.50665 2.80749,6.52012 11.69978,32.20176 14.52198,41.94062 0.76119,2.62672 0.37036,3.52593 4.90824,-11.29265 4.86488,-15.88641 9.21077,-27.50207 13.733,-36.70544 3.15194,-6.41464 4.65232,-8.64987 8.68052,-12.93198 6.16785,-6.55666 11.28719,-10.42938 19.02332,-14.39091 7.47702,-3.82886 11.8271,-5.16505 16.81521,-5.16505 4.83369,0 7.30635,1.19367 14.74191,7.11665 7.17422,5.71482 25.06332,20.76827 24.68041,20.76827 -0.1551,0 -2.78022,-1.56852 -5.83359,-3.48561 -3.05338,-1.9171 -5.7093,-3.47795 -5.90204,-3.46857 -0.19275,0.009 -1.06342,1.18086 -1.93483,2.6033 -2.46752,4.02788 -11.92177,12.61056 -17.15439,15.57297 -10.19468,5.77165 -21.10776,6.18827 -31.24435,1.19279 -3.93189,-1.9377 -9.17608,-6.17644 -11.60682,-9.38149 -0.98169,-1.29439 -1.95216,-2.36384 -2.1566,-2.37654 -0.52671,-0.0327 -5.1681,9.48679 -7.55908,15.50373 -3.07433,7.73658 -6.32832,17.00582 -6.06305,17.27108 0.13039,0.1304 2.4768,-0.88499 5.21422,-2.25642 9.086,-4.55203 20.95395,-7.74551 32.26346,-8.6816 4.22773,-0.34992 5.24743,-0.25109 5.93307,0.57505 1.81294,2.18446 0.49129,2.65823 -9.54765,3.42252 -5.73465,0.43659 -12.36645,1.38392 -16.15231,2.30728 -6.82909,1.66561 -17.5424,5.67173 -18.46011,6.90294 -0.74571,1.00046 -5.20826,15.53977 -8.66091,28.21779 -1.55287,5.70213 -2.91765,10.46175 -3.03285,10.57694 -0.11519,0.11519 -1.42126,-4.265 -2.90239,-9.73375 z m -45.01172,-53.37672 c 4.83601,-1.28628 9.92765,-4.46513 13.82477,-8.63116 5.82551,-6.22749 5.81553,-5.73863 0.22371,-10.96078 -2.65905,-2.48326 -5.06182,-4.4333 -5.33951,-4.33343 -0.27767,0.0999 -1.31945,1.74525 -2.31504,3.65638 -1.14917,2.20593 -2.80447,4.17301 -4.53306,5.38686 -2.32587,1.63328 -3.2921,1.90945 -6.62687,1.89408 -6.62454,-0.0305 -11.64767,-4.07488 -10.75615,-8.66031 0.50541,-2.59955 4.51574,-6.85204 7.97194,-8.45333 3.45313,-1.59984 3.42735,-1.65687 -1.39325,-3.08159 -5.26728,-1.55675 -7.41243,-1.30089 -12.54317,1.49605 -3.74618,2.04217 -18.75433,11.49923 -19.78713,12.46844 -0.15543,0.14585 1.84088,2.41584 4.43624,5.04441 4.77542,4.83653 12.90233,10.75329 17.44681,12.70209 6.18278,2.65134 13.00913,3.16964 19.39071,1.47229 z m 108.3285,0.6563 c 7.31507,-1.3564 19.62761,-9.14385 25.70579,-16.25844 3.52636,-4.12766 4.34573,-2.94472 -7.05732,-10.18879 -12.46321,-7.91756 -13.98408,-8.59839 -18.24124,-8.16596 -2.00209,0.20338 -4.71137,0.8223 -6.0206,1.3754 l -2.38042,1.00561 2.21812,1.09686 c 5.50429,2.72188 8.87247,6.71494 8.87247,10.51857 0,3.42669 -5.97923,7.33283 -11.16412,7.29335 -4.43417,-0.0338 -9.9995,-4.37015 -11.72195,-9.1335 -0.44948,-1.24303 -1.03782,-2.26006 -1.3074,-2.26006 -0.75021,0 -9.44291,7.62568 -9.82361,8.61776 -0.51179,1.3337 3.55581,6.55554 7.72966,9.92309 6.70168,5.40703 15.17226,7.66291 23.19062,6.17611 z m -71.3067,-4.33682 c -0.20523,-0.33205 0.50803,-2.48674 1.58502,-4.7882 1.4076,-3.00798 2.29771,-4.18446 3.16591,-4.18446 1.6883,0 1.53333,1.66492 -0.53505,5.74852 -1.64467,3.24708 -3.38102,4.57497 -4.21588,3.22414 z m 17.28274,-3.56524 c -1.90052,-4.06132 -1.95159,-5.40742 -0.20519,-5.40742 1.10848,0 4.94177,7.39305 4.47031,8.62164 -0.76707,1.99899 -2.40219,0.76676 -4.26512,-3.21422 z"
       id="path4256-2"
       inkscape:connector-curvature="0" />
    <text
       xml:space="preserve"
       style="font-style:normal;font-variant:normal;font-weight:bold;font-stretch:normal;font-size:82.5px;line-height:125%;font-family:Calibri;-inkscape-font-specification:'Calibri Bold';text-align:center;letter-spacing:0px;word-spacing:0px;text-anchor:middle;fill:#ececec;fill-opacity:1;stroke:none;stroke-width:1px;stroke-linecap:butt;stroke-linejoin:miter;stroke-opacity:1;"
       x="247.81616"
       y="478.94284"
       id="text4174"
       sodipodi:linespacing="125%"><tspan
         sodipodi:role="line"
         x="247.81616"
         y="478.94284"
         id="tspan3501">Merryweather</tspan></text>
  </g>
</svg>
