<?xml version="1.0" encoding="UTF-8" standalone="no"?>
<!-- Created with Inkscape (http://www.inkscape.org/) -->
<svg id="svg3336" xmlns:rdf="http://www.w3.org/1999/02/22-rdf-syntax-ns#" xmlns="http://www.w3.org/2000/svg" height="375" viewBox="0 0 1250 375" width="1250" version="1.1" xmlns:cc="http://creativecommons.org/ns#" xmlns:dc="http://purl.org/dc/elements/1.1/">
 <metadata id="metadata3342">
  <rdf:RDF>
   <cc:Work rdf:about="">
    <dc:format>image/svg+xml</dc:format>
    <dc:type rdf:resource="http://purl.org/dc/dcmitype/StillImage"/>
    <dc:title/>
   </cc:Work>
  </rdf:RDF>
 </metadata>
 <path id="path3346" fill="#fff" d="m384.81 286.9c-0.33095-0.33095-5.0653-1.4439-10.521-2.4731-18.179-3.4298-25.276-5.8309-30.532-10.33-4.5629-3.9057-5.0121-4.8301-5.0121-10.316 0-4.6502 1.2745-8.551 5.5839-17.09 6.0756-12.039 18.301-28.967 24.74-34.256 9.0174-7.4066 27.279-20.689 31.163-22.665 17.448-8.879 27.364-13.003 47.385-19.708 12.617-4.2253 23.798-8.3631 24.847-9.1951 1.0486-0.83203 4.022-2.5841 6.6075-3.8936 2.5855-1.3094 6.8936-4.2577 9.5737-6.5517 5.8395-4.9984 6.9235-5.086 12.876-1.0408l4.6064 3.1301 9.7463-2.0875c5.3604-1.1481 9.9772-2.272 10.259-2.4974 0.28224-0.22548-0.42088-1.4421-1.5625-2.7036-2.6076-2.8814-2.6183-4.4653-0.0444-6.6014 2.4608-2.0422 9.1034-1.5542 11.817 0.86814 2.9887 2.6678 11.379 2.1428 31.777-1.9884 10.183-2.0625 19.974-3.75 21.758-3.75h3.2425v14.154c0 12.819 0.27759 14.558 2.9438 18.438 6.0765 8.8418 7.1501 9.173 32.053 9.8876 20.786 0.5965 22.861 0.86816 27.191 3.5602 2.5781 1.603 4.6875 3.4311 4.6875 4.0625 0 0.6367-7.0987 1.1538-15.938 1.161-17.837 0.0144-36.089 1.3664-66.562 4.9306-58.287 6.8172-56.402 6.6695-68.469 5.3651-13.122-1.4185-23.151-5.5782-23.779-9.8635-0.4665-3.1806 7.2977-10.427 15.641-14.598 19.454-9.7258 43.482-14.967 69.3-15.116 10.075-0.0583 18.107-0.44738 17.849-0.86478-1.4168-2.2928-16.661-3.9026-30.847-3.2574-28.524 1.2973-58.521 11.969-74.383 26.463-4.2969 3.9261-7.8125 8.129-7.8125 9.3398 0 4.5325 6.1436 8.001 18.877 10.657 12.487 2.6051 29.009 2.4297 45.542-0.48358 17.306-3.0494 25.946-3.5423 80.908-4.6158 33.508-0.65447 45.029-1.267 46.007-2.446 1.857-2.2376-6.4416-13.446-11.858-16.017-3.18-1.5-8.1-2-19.81-2-23.951 0-31.744-2.2685-36.199-10.538-0.71489-1.3271-1.6476-8.4512-2.0727-15.831l-0.78-13.42 9.38 0.42c5.1562 0.22843 28.397 0.46192 51.647 0.51888 39.64 0.0971 42.232 0.23976 41.637 2.291-0.53581 1.8472-0.76061 13.979-0.81253 43.849-0.01 5.6942-2.286 11.278-6.1874 15.18-2.1228 2.1228-6.0311 2.4545-43.371 3.681-36.874 1.2112-75.938 4.3596-79.214 6.3844-0.76592 0.47338-0.46661 2.3033 0.78818 4.8186 2.6828 5.3778 1.5508 12.612-3.3036 21.111-5.0076 8.768-11.261 13.032-24.215 16.514-9.1887 2.4693-12.629 2.7806-24.154 2.1852-7.3918-0.38182-15.408-1.3879-17.815-2.2357-2.4062-0.84782-7.7525-4.748-11.881-8.6671-9.536-9.0532-14.077-11.376-22.235-11.374-3.5804 0.00089-7.9534-0.0584-9.718-0.13161-4.1753-0.17339-28.27 12.766-33.774 18.138-9.864 9.6262-13.17 14.973-15.99 25.861-4.3833 16.924-3.8425 16.25-13.042 16.25-4.3689 0-8.2142-0.27077-8.5452-0.60173zm-27.271-12.576c1.212-1.4603 1.2491-2.279 0.15306-3.375-6.448-6.448 6.8882-31.688 27.928-52.857 9.0411-9.0964 25.625-22.919 25.625-21.358 0 0.34539-1.9754 5.5279-4.3897 11.517-2.4143 5.9888-4.2106 11.068-3.9916 11.287 0.21897 0.21898 4.8662-1.5237 10.327-3.8726 11.243-4.8358 28.054-9.7705 28.054-8.2348 0 0.56028-1.758 1.7469-3.9066 2.6369-14.59 6.0433-43.219 35.9-46.684 48.685-0.46577 1.7188 1.5176-0.67454 4.4076-5.3184 9.8421-15.815 28.78-32.376 49.067-42.908 6.079-3.1559 10.794-6.3724 10.529-7.182-1.2864-3.9226-20.48-1.1009-36.706 5.396-5.1681 2.0694-9.6468 3.7626-9.9526 3.7626-0.90596 0 4.4603-9.9864 9.2114-17.142 2.4268-3.6551 4.1628-6.8953 3.8578-7.2004-0.94994-0.94992-13.103 5.1795-21.336 10.761-11.124 7.5413-30.93 27.141-38.516 38.114-11.132 16.103-15.114 29.888-10.526 36.439 2.279 3.2538 4.6128 3.5435 6.8481 0.85017zm185.3-34.879c11.731-4.2738 15.901-8.4399 15.901-15.885 0-6.6943-5.3216-12.308-11.668-12.308-8.2987 0-14.453 11.79-10.322 19.777 2.9574 5.719-0.0311 6.6239-4.4613 1.3509-3.1956-3.8036-3.5519-5.112-3.3711-12.378 0.11126-4.4688-0.18507-8.3025-0.65841-8.5194-1.7533-0.8036-16.967 8.6861-19.398 12.099-2.685 3.7707-3.7701 11.05-2.0598 13.817 0.70994 1.1487 0.48939 1.4969-0.69986 1.1049-2.9179-0.96179-2.8735-11.348 0.0733-17.124 3.4251-6.7137 3.354-9.0997-0.2472-8.305-1.5469 0.34134-7.2294 1.1981-12.628 1.904-5.3984 0.70586-10.299 1.5824-10.89 1.9479-0.59133 0.36546 0.15986 2.0848 1.6693 3.8209 2.6696 3.0703 2.775 3.088 3.8645 0.6463 0.92821-2.0802 8.2969-6.0976 8.2969-4.5234 0 0.26869-1.2114 2.5417-2.6921 5.0512-3.8692 6.5578-2.2365 12.224 5.1393 17.838l5.5722 4.2406 14.428-0.50643c11.896-0.41755 16.134-1.1281 24.151-4.0489zm155.91-39.86c0-0.39269 1.3612-2.0752 3.0249-3.7388 3.6861-3.6861 5.2797-12.617 3.5014-19.623-1.1638-4.5849-1.0504-5.0333 1.4168-5.6011 11.414-2.6268 39.264-3.478 131.12-4.0079l102.19-0.59v3.0023c0 5.8694-2.1938 6.8763-21.25 9.7534-9.9688 1.505-25.156 3.8032-33.75 5.107-26.998 4.096-80.114 8.8416-138.12 12.341-23.375 1.41-43.766 2.9027-45.312 3.3171-1.5469 0.41442-2.8125 0.4322-2.8125 0.0395zm3.75-46.521c0-7.7562-0.37537-15.08-0.83416-16.276-0.78851-2.0548 2.8546-2.1281 66.562-1.3384 37.068 0.4595 92.259 0.87755 122.65 0.92903 44.087 0.0746 55.525 0.42618 56.615 1.74 0.81848 0.9862 1.22 5.809 1.0014 12.027-0.34714 9.8725-0.518 10.423-3.49 11.247-1.7188 0.47624-46.747 0.92197-100.06 0.99049-89.308 0.11475-120.45 0.97129-136.5 3.7538l-5.9375 1.0296v-14.102z"/>
</svg>
