<?xml version="1.0" encoding="UTF-8" standalone="no"?>
<!-- Created with Inkscape (http://www.inkscape.org/) -->
<svg id="svg3376" xmlns:rdf="http://www.w3.org/1999/02/22-rdf-syntax-ns#" xmlns="http://www.w3.org/2000/svg" height="270" viewBox="0 0 900 270" width="900" version="1.1" xmlns:cc="http://creativecommons.org/ns#" xmlns:dc="http://purl.org/dc/elements/1.1/">
 <metadata id="metadata3382">
  <rdf:RDF>
   <cc:Work rdf:about="">
    <dc:format>image/svg+xml</dc:format>
    <dc:type rdf:resource="http://purl.org/dc/dcmitype/StillImage"/>
    <dc:title/>
   </cc:Work>
  </rdf:RDF>
 </metadata>
 <path id="path3386" fill="#fff" d="m508.11 262.09c-2.7581-0.61307-13.684-9.0504-28.699-22.162-16.27-14.21-36.77-44.61-46.49-68.93-6.01-15.07-11.11-37.59-11.97-52.89l-0.31602-5.6415 20.309 0.24147 20.309 0.24147 0.57629 10.35c1.0221 18.357 10.187 42.774 21.788 58.05 5.1105 6.729 12.462 14.881 14.312 15.871 1.7148 0.91774 1.6941 0.77432-0.29517-2.0421-1.1767-1.666-4.0964-5.4592-6.4881-8.4292-5.7014-7.0798-11.456-15.832-14.803-22.517-6.88-13.73-12.84-34.67-12.84-45.1v-6.6346h4.5c4.4763 0 4.5 0.0154 4.5029 2.925 0.005 4.4108 2.5226 17.913 4.6175 24.758 2.0797 6.7954 10.463 24.169 15.304 31.717 6.1736 9.6249 21.377 27.531 28.655 33.75 12.692 10.844 13.93 11.835 15.513 12.409 1.3051 0.47327 1.3992 1.0156 0.61185 3.5251-0.51179 1.6312-1.5888 4.1808-2.3932 5.6658-2.233 4.1219-22.497 33.363-23.808 34.356-0.63425 0.47998-1.938 0.69823-2.8973 0.485zm-210.15-60.02c-13.03-6.79-13.03-7.4-0.06-40.52 5.8618-14.973 9.9-26.566 9.9-28.421 0-1.7233-1.4175-6.4943-3.15-10.602-1.7325-4.1079-3.15-7.6394-3.15-7.8477 0-0.20831 12.15-0.37874 27-0.37874h27l-0.014 2.025c-0.008 1.1138-0.59332 4.455-1.3013 7.425-1.1932 5.0057-1.1615 5.6629 0.43424 9l1.7215 3.6 17.556-0.26171 17.556-0.26172 1.374-4.6266c0.75567-2.5446 1.374-7.115 1.374-10.156 0-7.3868-1.9876-9.4435-9.1261-9.4435-5.4168 0-7.2522 1.2571-10.119 6.9303-2.1629 4.2809-1.8232 7.2403 1.1755 10.239 1.831 1.831 2.2092 2.6308 1.2441 2.6308-0.76266 0-2.959-1.5724-4.8808-3.4941-2.93-2.91-3.5-4.09-3.5-7.17 0-2.0263-0.70875-4.8077-1.575-6.1809-1.3893-2.2024-2.1321-2.5008-6.3-2.5314-2.5988-0.0191-18.029-0.1203-34.29-0.225l-29.57-0.19-4.64-16.875c-2.5499-9.2812-4.6355-17.328-4.6348-17.882 0.0009-0.73344 29.633-1.1774 109.13-1.635 60.019-0.34549 109.77-0.81145 110.56-1.0355 3.8766-1.0977 4.6029-9.3427 1.2264-13.923l-2.29-3.1-20.44-0.45c-11.242-0.2475-20.856-0.34004-21.364-0.20565-0.50847 0.13439-1.9203 1.8556-3.1375 3.825l-2.213 3.5806h-6.0289c-9.0038 0-12.402 1.6607-12.432 6.075l-0.02 2.025-41.62-0.03-41.63-0.03 2.25-1.788c1.2375-0.98359 3.0876-2.4938 4.1112-3.3561 1.696-1.4286 4.1489-1.5379 27.631-1.2316 24.722 0.32251 25.863 0.26265 28.07-1.4732 3.6865-2.8998 9.5497-10.433 9.0777-11.663-0.34-0.89 5.72-1.128 28.69-1.128h29.12l0.39628-2.7c0.27041-1.8425 0.017-2.7-0.79785-2.7-0.75309 0-1.1836-1.0803-1.1655-2.925 0.0244-2.4878 0.19249-2.7103 1.125-1.4886 1.6265 2.131 44.243 2.4854 48.273 0.40139 3.2067-1.6583 7.3976-1.8033 8.8932-0.30783 0.594 0.594 1.08 3.429 1.08 6.3 0 4.62 0.2069 5.22 1.8 5.22 1.1744 0 1.8-0.6 1.8-1.7264 0-4.8444-2.4764-4.6161 43.971-4.0551 23.583 0.28484 44.945 0.90851 47.471 1.3859 6.6937 1.2653 6.8156 1.6992 6.4868 23.104-0.17811 11.597 0.0465 18.259 0.62086 18.408 0.495 0.12857 15.203 0.11748 32.685-0.02466 29.444-0.23939 31.763-0.37195 31.487-1.8-0.28-1.418-2.69-1.541-30.22-1.541h-29.913l0.00021-5.975c0.00017-4.2022 0.33402-5.9626 1.1252-5.9332 0.61875 0.02298 14.288-0.03433 30.375-0.12737 20.373-0.11782 28.772-0.44754 27.675-1.0865-1.0271-0.59825-1.575-2.0174-1.575-4.0798v-3.1624l-28.801 0.28215-28.801 0.28215 0.00064-7.425c0.00059-6.7495 0.15956-7.425 1.7475-7.425 0.96079 0 1.9972 0.405 2.3031 0.9 0.35329 0.57165 11.799 0.9 31.373 0.9 31.358 0 32.977 0.16525 32.977 3.3664 0 1.5143 3.0656 5.9675 7.1181 10.34 2.1313 2.2996 4.844 3.9331 8.6157 5.1883 5.1323 1.7079 7.3817 1.8158 33.233 1.5937l27.73-0.239 4.83-12.15c3.0173-7.5779 4.8432-13.522 4.8522-15.795 0.008-2.0048 0.5005-4.131 1.0945-4.725 1.5102-1.5102 15.726-1.4709 16.285 0.045 0.22843 0.61875 0.20325 8.3138-0.056 17.1l-0.47129 15.975 2.156 0.09996c1.1858 0.05498 4.181 0.15623 6.656 0.225l4.5 0.12504 0.27414 5.3165c0.16972 3.2915-0.11684 5.5582-0.75235 5.9509-0.56457 0.34892-3.6014 0.44045-6.7485 0.20338l-5.722-0.43102-0.27568 4.8301-0.27 4.831-5.3062 0.27382c-2.9184 0.15061-5.7332-0.15314-6.255-0.675-1.27-1.279-90.24-1.327-91.03-0.049-0.72219 1.1685-5.5778 1.1685-6.3 0-0.35474-0.57398-12.723-0.9-34.143-0.9-28.214 0-33.76 0.20837-34.668 1.3026-2.7395 3.3009-8.0975 3.9894-42.339 5.4411-18.562 0.78696-39.124 1.7685-45.692 2.1812l-11.942 0.75037-9.7842 4.7252c-8.9247 4.3101-10.089 4.6531-13.258 3.9042l-3.47-0.82-0.24-18.638-0.25-18.642h14.793c9.6634 0 14.904-0.33236 15.113-0.95843 0.17571-0.52714 0.10821-3.0584-0.15-5.625-0.38-3.911-0.75-4.667-2.26-4.667-1.4742 0-1.8501 0.69225-2.0768 3.825l-0.27675 3.825h-13.268c-9.1198 0-13.606 0.33768-14.348 1.08-0.76752 0.76752-1.08 6.2535-1.08 18.961v17.881l-2.025-0.73565c-1.1138-0.40461-7.4925-0.7034-14.175-0.66399-10.257 0.0605-86.85 1.9239-86.85 2.113v10.639 10.576l-2.925 0.86112-2.925 0.86111v6.1139c0 3.3626-0.33591 6.1139-0.74646 6.1139s-0.74335-0.70875-0.73955-1.575c0.0311-7.0903-0.33546-8.2899-2.9457-9.6397-2.6149-1.3522-2.6422-1.3395-4.275 2.0019l-1.6433 3.3628h-19.976-19.976l-3.1988-3.1018-3.1988-3.1018-3.3748 1.9038c-3.7956 2.1412-4.3129 3.2478-16.746 35.825-5.6955 14.924-6.8792 18.919-6.8792 23.22 0 6.4057-1.7493 9.9975-5.507 11.307-5.4536 1.9011-9.7918 1.1641-17.83-3.0291zm508.44-112.97c0-0.495-0.30375-0.96102-0.675-1.0356-3.5598-0.71515-13.959-1.0956-37.689-1.3789-27.523-0.32856-28.022-0.30244-28.491 1.49-0.47 1.808-0.18 1.824 33.19 1.824 21.85 0 33.67-0.316 33.67-0.9zm-184.95-16.2c0-1.1018-1.8056-1.3972-9.823-1.607-9.5151-0.2489-12.206 0.35722-10.908 2.4573 0.41491 0.67134 3.9753 0.92259 10.677 0.75342 8.22-0.208 10.05-0.5 10.05-1.604zm-37.776-0.03943c0.31933-0.51668 0.0911-1.5292-0.50708-2.25-0.83-1.006-3.44-1.311-11.21-1.311-5.57 0-11.393 0.25312-12.94 0.5625-2.8209 0.56417-3.7942 2.4914-1.6875 3.3414 2.256 0.91033 25.764 0.60399 26.349-0.34337zm234.86-2.6311c0.29591-0.4788 0.26535-2.9261-0.0679-5.4384l-0.60594-4.5678-5.9291 0.26336-5.9291 0.26336-1.6099 4.3448c-0.88542 2.3896-1.3789 4.7184-1.0967 5.175 0.68437 1.1073 14.552 1.0707 15.239-0.0403zm-738.13 91.36c-1.1215-0.4924-2.196-2.0212-2.5302-3.6-0.84282-3.9822-1.6749-68.91-0.96768-75.513 0.52859-4.9359 0.88059-5.7106 3.0228-6.6525 2.632-1.153 106.95-3.355 132.02-2.782l13.5 0.30847 7.6124 4.725c7.4171 4.6038 7.7856 4.725 14.365 4.725 3.714 0 13.357-0.87046 21.428-1.9344 8.0715-1.0639 14.795-1.7726 14.942-1.575 0.14639 0.19765 2.2994 7.4469 4.7846 16.109 2.4851 8.6625 4.7943 16.361 5.1314 17.109 0.50977 1.1297-4.2797 2.4695-28.425 7.9519-15.97 3.63-41.19 9.42-56.04 12.87-94.2 21.91-126.96 29.09-128.85 28.26zm206.89-90.351c-2.2502-1.4278 1.0923-5.4441 5.0816-6.1062 0.67437-0.11192 4.1123-2.1226 7.6398-4.4683 3.5275-2.3456 8.3651-5.4154 10.75-6.8217l4.3365-2.5569 54.88 0.2319 54.88 0.2319-3.4068 4.6985-3.4067 4.6985-11.331 0.02651c-22.736 0.05319-44.131 1.1672-45.324 2.36-0.62899 0.62899-3.0473 2.7913-5.3741 4.8051l-4.22 3.662-31.67-0.014c-17.419-0.0076-32.19-0.34371-32.826-0.74695zm157.48-1.714 0.28-2.475l9.0388-0.25443 9.0388-0.25443 1.008-2.6706 1.008-2.6706h20.231 20.231l0.52201 2.0798c0.2871 1.1439 0.10948 3.5739-0.39474 5.4l-0.92 3.32h-30.167-30.167l0.28478-2.475z"/>
</svg>
