<?xml version="1.0" encoding="UTF-8" standalone="no"?>
<!-- Created with Inkscape (http://www.inkscape.org/) -->
<svg id="svg4143" xmlns:rdf="http://www.w3.org/1999/02/22-rdf-syntax-ns#" xmlns="http://www.w3.org/2000/svg" height="800" viewBox="0 0 600 800" width="600" version="1.1" xmlns:cc="http://creativecommons.org/ns#" xmlns:dc="http://purl.org/dc/elements/1.1/">
 <metadata id="metadata4149">
  <rdf:RDF>
   <cc:Work rdf:about="">
    <dc:format>image/svg+xml</dc:format>
    <dc:type rdf:resource="http://purl.org/dc/dcmitype/StillImage"/>
    <dc:title/>
   </cc:Work>
  </rdf:RDF>
 </metadata>
 <path id="path4153" fill="#fff" d="m270.26 723.09c-0.33562-0.87464-0.38315-1.9577-0.1056-2.4067 0.27754-0.44908-0.40114-0.57964-1.5082-0.29014-1.7371 0.45426-2.8298-1.1816-7.978-11.944-7.0481-14.734-17.902-35.392-29.683-56.497-4.6753-8.3754-8.6356-16.458-8.8007-17.962-0.16506-1.5037-0.75375-2.8851-1.3082-3.07-0.55445-0.18482-0.77838-1.2145-0.49762-2.2881 0.94627-3.6185 4.1423-2.1297 9.0282 4.2056 2.6119 3.3867 5.5854 7.0992 6.6077 8.25 2.1991 2.4755 2.9354 3.8228-8.4199-15.408-9.053-15.332-17.169-33.184-16.747-36.836 0.24209-2.0931 0.84414-2.6644 2.8082-2.6644 2.1344 0 4.5471 3.0221 16.5 20.668 7.7 11.368 17.973 25.689 22.828 31.825 8.6481 10.929 9.9284 14.007 5.8258 14.007-1.9939 0-12.315-12.057-22.282-26.031-8.868-12.432-9.0958-12.693-5.8226-6.6722 4.1812 7.691 29.922 49.464 41.954 68.084 2.8011 4.3348 4.9536 8.6047 4.7834 9.4885-0.89898 4.668-4.0054 1.609-20.163-19.855-9.1431-12.146-16.624-22.496-16.624-23 0-0.50386 0.63601-1.276 1.4134-1.7158 1.159-0.65577 0.94366-1.5935-1.1964-5.2104-1.4354-2.4259-2.8013-3.8363-3.0352-3.1343-0.234 0.70198 0.1919 1.6674 0.94644 2.1454 0.75453 0.47797 0.94438 0.87593 0.42188 0.88435-0.5225 0.008-0.41 0.55531 0.25 1.2153 0.66 0.66 1.1978 1.6725 1.195 2.25-0.003 0.5775-1.0874-0.3-2.4104-1.95-4.7142-5.8795-3.5642-1.5895 2.4448 9.1206 10.945 19.507 30.368 59.617 30.544 63.074 0.1865 3.6631-0.0572 4.094-0.9701 1.715zm3.8399-28.16c-5.8169-8.9547-8.7735-13.25-9.1204-13.25-0.68177 0 1.8418 4.2896 6.0301 10.25 4.104 5.8405 6.355 8.0257 3.0903 3zm-19.444-50.628c0-0.20765-0.7875-0.99515-1.75-1.75-1.5861-1.2439-1.6214-1.2085-0.37756 0.37756 1.3064 1.6658 2.1276 2.1955 2.1276 1.3724zm-3-3.9674c0-0.18976-1.0125-1.2023-2.25-2.25l-2.25-1.905 1.905 2.25c1.7902 2.1144 2.595 2.7052 2.595 1.905zm-4-5.0326c0-0.20765-0.7875-0.99515-1.75-1.75-1.5861-1.2439-1.6214-1.2085-0.37756 0.37756 1.3064 1.6658 2.1276 2.1955 2.1276 1.3724zm-6.7617-8.3724c-1.6114-2.0625-6.2082-8.7-10.215-14.75-6.5933-9.9549-10.728-15.556-8.4883-11.5 2.0672 3.7444 16.943 25.735 18.772 27.75 3.2032 3.5292 3.1626 2.6352-0.0682-1.5zm-24.738-36.25c-0.99549-1.1-2.2401-2-2.7658-2-0.52569 0 0.10655 0.88503 1.405 1.9667 3.0558 2.5458 3.6477 2.5602 1.3608 0.0333zm232.43 101.42c-0.7231-0.87128-1.5063-4.2329-1.7405-7.4702l-0.42576-5.886-12.632 0.0118c-7.8953 0.007-14.681-0.53211-18.095-1.4386-5.2608-1.3966-5.6408-1.3604-10.257 0.97887-7.7005 3.9022-20.987 6.6869-31.78 6.6606-11.398-0.0278-21.437-2.837-35.963-10.064-17.878-8.895-68.086-44.251-97.523-68.676-38.114-31.624-58.725-61.438-69.951-101.19-2.5094-8.8846-4.5625-16.872-4.5625-17.75 0-1.3294-1.3454-1.5962-8.0497-1.5962-9.2427 0-11.989-1.0867-17.131-6.7785l-3.5306-3.908-1.1442 3.1643c-0.62932 1.7403-1.1485 7.6323-1.1538 13.093-0.0142 14.677-2.4866 34.247-6.4673 51.193-1.9377 8.2483-3.5559 15.838-3.5961 16.867-0.0402 1.0284-0.86135 3.2197-1.8248 4.8697-1.4248 2.4401-2.5134 3.0565-5.8331 3.3029-3.312 0.2458-4.3819-0.12607-5.6752-1.9725-0.87657-1.2515-1.5938-3.5181-1.5938-5.037 0-3.4433 4.2232-23.609 8.0859-38.611 1.6028-6.2247 2.9141-11.524 2.9141-11.776 0-0.25196-1.3047 0.2166-2.8994 1.0412-2.588 1.3383-3.0366 1.334-4.1771-0.0401-1.0053-1.2113-1.0267-2.2335-0.10059-4.7947 2.1158-5.8512 1.0681-40.468-1.4706-48.586-0.53375-1.7069-17.53 30.739-23.82 45.473-9.7034 22.729-17.725 52.012-22.985 83.907-1.4429 8.7489-2.8578 16.286-3.1443 16.75-0.71294 1.1536-3.1489 1.0628-3.8955-0.14519-0.93102-1.5065 4.3128-48.732 7.1078-64.012 4.8028-26.257 10.604-42.969 26.379-76 11.258-23.571 13.006-27.818 13.006-31.603 0-1.2706 1.0805-3.11 2.4091-4.1008l2.4091-1.7967-3.6591-6.7433c-4.0329-7.4323-6.2286-8.4644-8.5234-4.0067-2.4656 4.7895-7.6395 22.346-9.9462 33.75-1.9321 9.5522-2.4858 11-4.2072 11-1.7894 0-1.9531-0.58381-1.6827-6 0.45414-9.0948 2.8349-22.133 5.5692-30.5 2.3814-7.287 2.7549-10.716 0.64134-5.8887-0.57518 1.3138-2.5952 4.8637-4.489 7.8887s-3.4608 5.9904-3.4822 6.5897c-0.02141 0.59932-2.2663 5.4645-4.9886 10.812-6.932 13.615-13.015 29.74-14.61 38.73-2.3279 13.118-3.6078 44.989-3.2676 81.369 0.32112 34.344 0.29007 35-1.6558 35-1.5272 0-2.1482-0.91956-2.7014-4-1.2316-6.8583-2.9-51.424-2.3771-63.5l0.49789-11.5-1.4497 7.5c-4.8408 25.044-6.7668 75.507-4.5122 118.23 1.3221 25.053 1.0742 29.118-1.742 28.576-1.7759-0.34201-2.5369-6.2307-5.2084-40.306-3.474-44.311 2.0341-107.91 12.458-143.85 1.4116-4.8666 3.6754-14.1 5.0305-20.518 1.3551-6.4182 4.0287-16.316 5.9413-21.995 4.2425-12.598 3.2725-12.063-7.588 4.1848-13.156 19.681-23.176 42.912-29.193 67.677-7.3669 30.323-13.384 84.571-15.344 138.34-0.50904 13.962-0.95635 17.961-2.0566 18.383-0.77332 0.29675-1.843 0.10254-2.3772-0.43157-0.5461-0.52-1.6329-14.18-2.427-30.35-2.651-53.97 1.4562-111.07 10.461-145.43 7.6734-29.275 21.843-57.083 40.255-79 11.936-14.209 23.686-23.029 34.849-26.159l5.5439-1.5545-1.2568-7.1434c-0.69123-3.9288-1.5376-16.818-1.8809-28.643-0.64674-22.279-0.23711-25.869 4.3932-38.5 0.60485-1.65 1.3261-4.1578 1.6028-5.573 0.2767-1.4151 2.039-4.5845 3.9163-7.0431 3.1257-4.0936 3.2878-4.635 1.9246-6.427-1.2163-1.5989-1.3882-4.4267-0.93927-15.457 0.62728-15.414 2.1307-24.636 7.0622-43.32 12.733-48.238 28.529-76.444 57.09-101.94 30.648-27.361 55.389-39.42 114.5-55.811 8.525-2.3638 16.229-4.9064 17.12-5.6501 2.5051-2.0907 35.818-2.0317 46.923 0.08304 22.662 4.3156 40.986 13.277 69.957 34.212 11.621 8.3982 30.238 26.733 39.075 38.485 4.5792 6.0893 8.9248 14.08 8.9248 16.411 0 0.84423 6.6749 8.1717 14.833 16.283 16.809 16.713 26.016 28.474 33.075 42.248 8.9876 17.539 13.092 32.764 13.092 48.561 0 6.5249 0.34034 8.5303 1.5639 9.215 3.8413 2.1497 2.6684 26.23-2.1452 44.041l-2.5179 9.3171 2.4178 1.9018c2.2267 1.7515 2.5186 3.0339 3.694 16.224 1.9116 21.452 0.78022 31.154-7.8992 67.74-6.4324 27.115-22.823 105.65-25.356 121.5-1.2217 7.6419-3.6742 14.864-10.385 30.582l-5.372 12.582-0.0239 11.418c-0.0453 21.684-1.808 46.035-3.929 54.28-2.2923 8.9105-4.5839 13.096-10.87 19.854l-4.3868 4.7159 0.70867 7.0566c0.50403 5.0188 0.35457 7.4833-0.51752 8.5341-1.6246 1.9576-7.3944 1.8896-9.0511-0.10666zm7.1517-3.1659c0.045-1.5125 0.0149-5.2955-0.0669-8.4068-0.14285-5.4296 0.0277-5.8333 4.2489-10.054 10.039-10.039 12.385-19.984 14.103-59.789 1.0335-23.945 1.5183-29.043 3.0335-31.897 3.4435-6.4866 11.57-28.066 12.172-32.323 0.33299-2.3541 1.9007-10.355 3.4839-17.78s5.3615-26.242 8.3964-41.816 8.9608-43.024 13.169-61c4.2079-17.976 8.0858-35.609 8.6175-39.184 1.2954-8.7105 0.45778-40.456-1.1175-42.354-0.65522-0.78949-1.063-1.9747-0.90622-2.6338 0.22668-0.95281-1.5563-2.5715-4.0103-3.6409-0.16246-0.0708 1.13-5.6958 2.8722-12.5 2.1046-8.2199 3.3782-16.063 3.7954-23.371 0.59379-10.404-0.31591-18.5-2.0788-18.5-0.43638 0-0.79341-3.1174-0.79341-6.9276 0-29.062-12.345-56.531-38.338-85.306-4.6039-5.0966-11.586-11.944-15.516-15.217-4.4593-3.7136-7.1457-6.6964-7.1457-7.9343 0-9.5888-27.324-40.851-49.227-56.322-21.463-15.16-30.866-20.629-45.183-26.278-15.099-5.9578-22.144-7.1652-44.089-7.5565-20.848-0.37178-20.911-0.0045-0.5 2.9331 27.98 4.0269 51.595 15.518 79.133 38.505 10.175 8.4941 31.131 30.353 34.391 35.874 1.0621 1.7984 2.4665 3.0643 3.121 2.8131 0.65447-0.25114 1.4154 0.13081 1.6909 0.84878 0.3053 0.79559-1.9794 2.8867-5.8502 5.3544l-6.3511 4.049-4.9176-5.1997c-2.7047-2.8598-5.4627-6.8512-6.1289-8.8698-1.3456-4.0772-3.9387-5.451-7.0978-3.7603-2.7504 1.472-3.6375 4.0545-4.4796 13.042-1.4222 15.177 4.7854 38.259 16.571 61.613 3.7023 7.3368 6.5385 13.34 6.3026 13.34-0.93817 0-13.462-20.037-17.813-28.5-10.341-20.111-14.689-42.057-11.58-58.448 1.1149-5.8789 0.0947-9.0522-2.9103-9.0522-2.8433 0-4.9383 4.1626-5.6651 11.256l-0.6598 6.4401-10.627-3.7496c-5.8451-2.0622-12.652-4.489-15.127-5.3928-2.475-0.90377-5.4767-1.3985-6.6705-1.0993-2.5033 0.62727-5.5491-0.28993-4.8295-1.4543 0.69272-1.1208-2.1918-2.0555-4.0926-1.3261-1.1105 0.42616-1.4624 1.4985-1.1623 3.5428 0.34391 2.3432 0.11156 2.8213-1.1574 2.382-0.87324-0.30233-6.0877-2.1055-11.588-4.0071-12.722-4.3985-21.666-5.593-41.822-5.5857-17.524 0.006-31.652 1.6987-41.178 4.9326-3.9365 1.3364-4.7963 1.8544-2.5 1.506 1.925-0.29206 6.425-0.78283 10-1.0906l6.5-0.55957-5 3.4185c-2.9168 1.9942-7.4999 3.9629-11 4.725-20.727 4.5135-45.592 17.364-69.673 36.009-11.94 9.2448-44.281 41.999-50.623 51.27-5.5269 8.0802-11.831 20.489-10.889 21.431 0.30256 0.30256 1.7591-1.8571 3.2368-4.7993 11.485-22.868 48.886-60.474 80.948-81.392 12.913-8.4247 29.488-16.343 41.502-19.827l5.4984-1.5943-3.3149 3.0256c-4.1006 3.7428-3.8818 6.3206 0.57307 6.7512 1.783 0.17235 3.2418 0.5536 3.2418 0.84724 0 0.29363-2.25 2.5568-5 5.0293-5.3709 4.8289-6.3405 7.9919-3.0749 10.031 1.0588 0.66122 7.4136 8.532 14.122 17.491 6.7082 8.9586 13.12 17.301 14.249 18.538 1.1289 1.2375 1.8616 2.2813 1.6283 2.3195-0.23337 0.0382-2.8993 0.25282-5.9243 0.47689-11.909 0.88216-29.633 5.3132-31.235 7.809-1.4595 2.2738-0.71326 5.3437 1.8765 7.7203 3.0758 2.8225 11.358 13.751 11.358 14.987 0 1.3309-6.1434 2.6578-10.108 2.1832-5.8094-0.69538-17.909 6.1242-17.871 10.072 0.0118 1.2 2.0368 5.2931 4.5 9.0956s4.4786 7.1877 4.4786 7.5226c0 0.33489-1.587 1.4636-3.5267 2.5081-8.5627 4.6113-24 22.712-32.503 38.111-4.5142 8.1753-10.804 26.24-11.664 33.501-1.0434 8.8098-2.5633 6.8663-1.7997-2.3012 0.77422-9.2944-0.18692-12.755-3.5424-12.755-1.0806 0-1.9785 0.5625-1.9952 1.25s-0.50757 0.42947-1.0908-0.57339c-0.80778-1.3891-0.69236-2.1037 0.48453-3 1.3828-1.0532 1.3315-1.8009-0.48898-7.1273-2.7286-7.9833-7.4261-14.823-15.601-22.715-9.8787-9.537-15.446-12.11-27.336-12.632-12.247-0.53802-17.66 1.5244-24.958 9.5098-5.475 5.9905-7.0908 10.494-2.2299 6.2156l2.75-2.4207-2.6964 2.9964c-8.6608 9.6244-11.099 25.499-8.7528 56.996 0.91538 12.291 1.6178 16.976 3.5472 23.659 0.37718 1.3064-0.62166 1.8949-4.7009 2.7698-30.128 6.4614-66.355 57.972-78.334 111.39-3.0947 13.798-5.9339 33.449-7.7568 53.686-1.5099 16.763-1.5091 94.547 0.0012 105l0.93911 6.5 0.13034-11c0.071688-6.05 0.79768-21.35 1.6133-34 6.0794-94.289 16.472-137.04 43.027-177 7.2669-10.935 19.075-25.5 20.674-25.5 0.46004 0 0.09037 1.6875-0.82149 3.75-4.8106 10.881-8.9499 23.076-11.625 34.25-1.6461 6.875-4.5556 18.28-6.4656 25.344-9.6063 35.53-13.278 66.822-13.369 113.94-0.04585 23.704 1.7703 58.178 2.8883 54.824 0.2539-0.7617-0.09595-11.335-0.77745-23.497-1.9867-35.453 0.17598-78.901 5.481-110.11 2.2626-13.311 5.003-26.337 5.6842-27.018 0.17323-0.17324 0.18294 16.185 0.02157 36.352-0.16136 20.167 0.11425 40.942 0.61248 46.167 0.71091 7.4554 0.93599 1.4291 1.0458-28 0.13766-36.886 1.1358-58.663 3.2313-70.5 1.0582-5.9772 7.8615-24.576 11.848-32.391 1.153-2.26 1.8317-4.1091 1.5083-4.1091-0.32342 0-2.601 4.1625-5.0614 9.25-5.0306 10.402-4.9634 8.3536 0.25423-7.75 5.5427-17.107 9.2957-24.537 13.947-27.614 4.7949-3.171 11.969-6.8865 13.297-6.8865 0.53338 0-0.1213 2.6852-1.4549 5.9671-2.9851 7.3464-7.462 24.313-7.36 27.892 0.04141 1.4523 1.3439-2.0845 2.8944-7.8595 3.5296-13.146 8.0659-25.007 10.03-26.225 3.0313-1.8802 6.778 0.85146 10.202 7.438 5.0852 9.7829 5.0742 9.732 2.3319 10.775-1.757 0.668-2.6158 1.9689-3.1144 4.7176-1.0517 5.7984-2.8077 9.9643-14.456 34.295-14.337 29.948-21.252 50.167-25.479 74.5-1.7474 10.06-6.6894 52.628-6.1702 53.147 0.18321 0.18321 1.5447-6.75 3.0255-15.407 2.9493-17.242 8.8402-41.486 13.628-56.085 4.8777-14.874 9.3689-24.988 22.875-51.514l12.658-24.859 1.7182 11.859c3.2657 22.539 3.363 41.148 0.25471 48.702-0.7179 1.7447-0.54961 1.7366 3.1514-0.15147 3.1959-1.6304 4.2587-2.9649 5.8208-7.309 3.7523-10.435 2.5077-2.8879-3.3286 20.184-3.2603 12.888-6.7132 27.403-7.6732 32.255-1.7286 8.7368-1.7256 8.8409 0.31469 10.881 1.4668 1.4668 2.7779 1.8798 4.5531 1.4343 2.3047-0.57845 2.7634-1.7781 6.0715-15.881 1.9681-8.3905 4.0604-17.488 4.6496-20.217 1.5591-7.2217 3.9252-31.763 3.9481-40.951 0.0179-7.1519 2.4508-18.592 3.9524-18.585 0.31206 0.001 1.4674 1.6523 2.5674 3.6685s3.7321 5.0525 5.8491 6.7473c3.676 2.9429 4.2635 3.081 13.063 3.0711l9.2138-0.0104 1.7906 8.0104c2.9863 13.359 8.4812 30.411 12.052 37.401 1.8571 3.6351 4.073 8.3198 4.9243 10.41 2.18 5.354 11.642 19.669 19.63 29.699 15.889 19.949 49.616 48.586 88.451 75.102 5.5142 3.765 13.176 9.145 17.026 11.956 8.7897 6.417 29.391 18.71 34.298 20.466 16.494 5.9035 20.941 6.7783 31.443 6.1856 11.475-0.64762 23.024-3.5319 29.673-7.4106 3.2341-1.8867 4.8378-2.312 6-1.5912 3.9101 2.425 12.683 3.5427 24.113 3.0719l11.759-0.48431 0.39784 6.2479c0.42326 6.6473 1.8907 9.4572 4.9388 9.4572 1.3617 0 1.9001-0.75553 1.9595-2.75zm-103.6-13.27c-1.0076-1.1134-5.3355-3.8911-9.6176-6.1727s-11.29-6.8061-15.573-10.054c-4.2831-3.2483-17.237-12.706-28.787-21.018-45.363-32.644-66.538-50.349-83.995-70.23-11.099-12.639-24.955-34.378-27.569-43.25-0.68865-2.3375-1.5868-4.25-1.996-4.25-1.266 0-2.547-4.9288-5.3278-20.5-3.4397-19.26-4.4496-23.6-5.8992-25.346-0.6503-0.78357-1.1892-2.1324-1.1974-2.9975-0.008-0.86503-1.2376-2.2605-2.7319-3.101-2.4915-1.4015-2.8255-1.3795-4.0278 0.26469-1.6994 2.324-8.8853 3.9615-12.07 2.7505-3.2466-1.2344-12.111-13.614-17.244-24.083-2.2964-4.6832-6.1474-11.659-8.558-15.501-9.5676-15.251-19.231-34.427-22.964-45.568-3.3104-9.8809-4.8366-24.398-4.89-46.511-0.0311-12.876 1.7602-20.838 5.9881-26.616 2.4197-3.3067 2.4328-3.5354 0.23269-4.0654-1.2106-0.2916-0.20876-1.1619 3.25-2.8233 4.0703-1.9552 6.5805-2.4018 13.5-2.4018 7.2291 0 9.3294 0.40732 14.047 2.7242 10.045 4.9332 21.001 17.344 25.141 28.48 2.5798 6.9389 4.4099 9.296 7.2171 9.2953 2.0859-0.00047 2.0936 0.12454 1.759 28.75-0.46192 39.53 1.844 56.396 9.8932 72.358 1.7735 3.517 2.4757 5.9595 1.8836 6.5516-1.2198 1.2198 2.8172 7.4985 11.445 17.801 3.6666 4.378 6.4622 8.4926 6.2123 9.1435-0.5237 1.3647 4.0786 6.0526 5.0189 5.1123 0.86954-0.86953-3.655-8.3508-9.0726-15.001-2.845-3.4926-4.3134-6.1542-3.9367-7.1359 0.53283-1.3885 0.90017-1.3586 3.2463 0.264 4.9648 3.4338 5.4499 3.595 4.2882 1.4244-0.58123-1.086-2.6705-3.9061-4.6428-6.2668-5.1708-6.189-5.5161-7.0836-7.5516-19.562-4.8239-29.572-2.8251-68.875 4.7188-92.79 2.9793-9.4449 8.9051-21.647 14.555-29.973 8.874-13.075 23.345-25.641 29.559-25.667 1.2548-0.005 2.5295-0.65597 2.8328-1.4462 0.30574-0.79674 1.2278-1.1773 2.0697-0.85423 1.3091 0.50236 1.2905 0.14215-0.13504-2.6146-0.90934-1.7585-2.2414-3.4228-2.96-3.6986-1.2557-0.48185-10.589-14.438-10.589-15.834 0-0.3739 0.45617-0.39789 1.0137-0.0533 0.55754 0.34458 4.945-0.49417 9.75-1.8639s10.886-2.8031 13.514-3.1852c7.9567-1.1571 7.8329-2.6431-1.2359-14.841-6.7628-9.0963-7.6574-10.75-6.2203-11.501 3.6753-1.9207 16.51-4.1166 24.061-4.1166 8.7033 0 13.118-1.1424 13.118-3.3948 0-1.3275-28.498-40.162-33.301-45.379l-2.0935-2.2742 6.4077-6.4652c6.7129-6.7731 7.0638-8.7364 1.5615-8.7364-1.4162 0-2.575-0.39375-2.575-0.875s0.6423-0.875 1.4273-0.875c0.78503 0 4.4975-1.5959 8.25-3.5464 6.8-3.5347 11.323-7.3349 11.323-9.514 0-0.82466 2.3222-0.96039 8.25-0.48221 29.572 2.3856 47.714 7.0399 66.601 17.087 4.6063 2.4504 8.7744 4.4553 9.2623 4.4553 0.48791 0 0.88711-1.0875 0.88711-2.4167s0.5625-2.6151 1.25-2.8575c0.93327-0.32917 0.78188-1.2547-0.59743-3.6526-1.0161-1.7664-1.6371-3.422-1.38-3.6791 0.25709-0.25708 2.8884 0.50023 5.8474 1.6829 7.821 3.1259 10.579 3.9232 18.359 5.3079l6.9795 1.2421 1.1475 8.4365c2.7386 20.135 11.162 40.523 24.541 59.401 5.4733 7.7228 34.808 39.398 40.208 43.416 1.7349 1.2909 1.7743 1.2262 0.60952-1-0.68491-1.3091-3.6006-5.7551-6.4794-9.8801-10.544-15.109-24.47-46.804-30.513-69.447-3.3784-12.659-5.4139-26.512-4.0901-27.835 0.51114-0.51114 2.8866 1.2583 5.6376 4.1993 2.6148 2.7954 5.3462 5.0826 6.0698 5.0826 0.72361 0 4.7334-1.8 8.9107-4 9.0152-4.7479 15.647-5.4631 17.557-1.8934 0.88263 1.6492 1.7512 1.9818 4.0008 1.5319 2.6717-0.53435 3.4789 0.17769 11.499 10.143 24.184 30.053 39.383 58.947 42.364 80.54 2.008 14.545 1.5097 20.321-2.4128 27.965-4.6871 9.1333-9.7362 16.368-19.342 27.713-13.804 16.303-22.486 25-24.957 25-2.0894 0-2.1511-0.1646-0.84272-2.25 2.1141-3.3697 3.3903-8.4737 4.0101-16.038 0.34841-4.2519 0.19534-6.5649-0.40969-6.191-0.53126 0.32834-0.96592 1.635-0.96592 2.9036 0 3.9415-6.9106 16.35-12.036 21.613-4.1221 4.232-5.2934 4.918-7.4666 4.3725-1.7699-0.44423-3.1916-0.0912-4.5372 1.1266-2.4649 2.2307-2.535 5.5003-0.13147 6.1289 1.0822 0.28299 2.5016 2.3872 3.4782 5.1564 2.2364 6.3409 7.4372 35.152 8.7872 48.678 1.0811 10.832 1.9293 14.306 3.341 13.684 0.39421-0.17362 1.612 0.71659 2.7063 1.9782 1.1942 1.377 1.5525 2.4396 0.89633 2.6583-0.67562 0.22521-0.85246 1.6476-0.46297 3.7237 0.83238 4.437-1.877 8.2282-9.6548 13.51-3.2557 2.2109-5.9195 4.5316-5.9195 5.1569 0 0.62537 1.0125 0.1885 2.25-0.97083s3.375-2.7112 4.75-3.4486c7.8248-4.1962 16.049-10.493 16.902-12.942 0.5393-1.547 0.60963-5.1739 0.16401-8.4577-0.94952-6.9971-4.1442-10.392-9.7786-10.392h-3.6006l0.87683-16.25c0.48227-8.9375 0.7704-20.019 0.64029-24.625l-0.23655-8.3752 5.7661 0.63412c19.641 2.1601 31.613 1.6043 29.767-1.3819-0.34056-0.55103 0.03-1.0019 0.82346-1.0019 1.9834 0 7.92-6.7576 9.6699-11.007 0.79099-1.921 2.298-4.1956 3.3489-5.0547 2.5315-2.0696 1.4442-5.4962-2.1392-6.7417l-2.7042-0.93995 3.6807-0.72642c3.8093-0.75179 5.6533-3.0958 3.8522-4.8969-1.0406-1.0406-18.192 0.3799-22.533 1.8662-2.0459 0.70046-1.8394 0.48756 11-11.346 3.3-3.0414 8.6669-8.4826 11.926-12.092 3.2595-3.6089 6.3618-6.7333 6.894-6.943 1.5176-0.59806 0.25813 32.479-1.3086 34.367-1.7295 2.0839-0.77994 9.6566 3.5223 28.089 3.246 13.907 3.596 18.425 1.4276 18.425-4.2755 0-30.539 120.81-32.566 149.8-0.5287 7.561-1.3285 10.403-6.1063 21.7-6.8952 16.304-8.4652 22.473-12.282 48.258-2.9048 19.627-5.1125 29.941-10.112 47.242-1.192 4.125-2.3554 8.1624-2.5853 8.972-0.35587 1.2528-0.54767 1.2624-1.2883 0.064-0.66611-1.0778-1.3972-0.51475-3.1174 2.4007l-2.2472 3.8087-13.579-0.56929c-12.388-0.51934-20.549-1.8866-23.829-3.9918-0.7182-0.461-1.25-0.3518-1.25 0.25666 0 0.58246-0.45 1.059-1 1.059-2.1066 0-0.8423-1.8386 3.0237-4.397 4.3658-2.8892 15.976-14.368 15.976-15.795 0-0.48332-0.9126-0.39035-2.028 0.2066s-1.7938 1.4643-1.5075 1.9276c0.7499 1.2134-11.321 12.194-16.003 14.557-2.1788 1.1-5.0284 2.7825-6.3324 3.739-3.2035 2.3497-21.693 8.2338-31.99 10.18-11.373 2.1501-15.406 2.0488-17.662-0.44376zm61.522-22.479c0-0.23839-0.7875-0.1383-1.75 0.22242-1.3919 0.52165-1.5319 0.36178-0.68394-0.78139 0.58633-0.79048 4.15-5.4872 7.9192-10.437 9.1656-12.037 9.392-12.388 6.1306-9.5-4.2605 3.7722-15.616 19.25-15.616 21.285 0 1.4756 0.3471 1.5998 2 0.71515 1.1-0.5887 2-1.2654 2-1.5038zm2.7837-20.496c3.3588-4.3998 3.3643-4.4221 0.24479-1-3.7525 4.1165-9.0285 11.516-9.0285 12.662 0 0.44108 1.2034-0.99 2.6742-3.1802s4.2201-6.0071 6.1095-8.4821zm0.7163-53.018c10.935-1.2172 20.372-3.9464 30.166-8.7244 7.3738-3.5974 15.334-9.526 15.334-11.42 0-0.55388-2.1064 0.84702-4.6808 3.1131-5.6898 5.0083-14.601 9.3788-25.023 12.273-6.8138 1.892-10.379 2.1669-28.296 2.1825-15.615 0.0136-22.606-0.40174-29.339-1.7428-15.871-3.1611-36.479-11.024-46.344-17.682-2.5058-1.6912-4.8397-2.7783-5.1863-2.4159-1.2546 1.3116 6.5751 6.6626 15.914 10.876 19.011 8.5775 33.569 12.297 52.956 13.529 6.325 0.40207 12.4 0.79456 13.5 0.87219 1.1 0.0776 6.05-0.30965 11-0.86064zm2.2784-23.484c31.552-3.2197 42.548-5.5713 46.108-9.8611 1.199-1.4448 1.0508-1.6366-1.2642-1.6366-2.6232 0-3.6614-2.2398-1.6224-3.5 0.55-0.33992 1.0088-2.729 1.0197-5.309 0.0349-8.3125 5.6645-34.275 7.9215-36.532 0.58238-0.58238 1.0589-0.68877 1.0589-0.23643 0 0.45235 0.675 0.26225 1.5-0.42244s1.5-2.3148 1.5-3.6224c0-2.5408-0.95387-3.0237-2.6408-1.3368-0.71506 0.71506-2.4207 0.72271-5.45 0.0244-2.577-0.59402-22.277-1.0629-47.409-1.1284-23.65-0.0616-45.25-0.44094-48-0.84292-4.9792-0.72783-4.9855-0.7334-1.5-1.3421 10.255-1.791 42.158-5.7536 46.316-5.7528 5.1396 0.001 9.1181 1.49 8.1532 3.0512-0.82479 1.3345 1.2423 1.1674 6.9399-0.56099 10.713-3.2498 26.211-1.6249 37.678 3.9504l3.4128 1.6594-2.291-1.993c-6.5916-5.734-24.211-8.6019-35.931-5.8484-5.7349 1.3474-6.3445 1.3264-7.7865-0.26695-2.7171-3.0024-9.6325-3.1397-26.841-0.53309-26.777 4.0561-36.677 4.7565-50.903 3.6012-8.0368-0.65261-14.874-1.802-18.499-3.1095-8.709-3.142-9.7421-3.2628-13.091-1.531-4.4973 2.3256-5.4503 4.9054-5.9517 16.111-0.3638 8.1302-0.0457 11.498 1.68 17.788 4.0539 14.776 14.727 34.278 18.255 33.356 0.99457-0.26009 1.8646 0.24256 2.1218 1.2258 0.349 1.3346 2.8068 1.9387 12.336 3.0323 29.48 3.3831 50.886 3.8414 73.179 1.5665zm-45.278-9.1056c-3.3-0.20699-12.889-1.1107-21.308-2.0082-8.4193-0.89749-16.969-1.4163-19-1.1529l-3.6922 0.47886-5.1556-15.355c-4.786-14.254-5.3474-17.473-2.4354-13.965 1.7683 2.1307 9.773 5.2578 18.091 7.0675 9.5577 2.0794 36.479 3.0342 58.308 2.0681 9.2442-0.40916 16.669-0.8766 16.5-1.0388-0.16922-0.16216-9.3077-0.8001-20.308-1.4176-36.062-2.0245-55.555-5.2522-66.708-11.045-4.9362-2.564-5.9006-2.7726-7.131-1.5422-0.78253 0.78254-1.7014 1.1442-2.0418 0.80374-1.0404-1.0404-0.6877-18.289 0.41613-20.351 1.4612-2.7302 4.9648-2.5489 4.9648 0.25687 0 2.103 0.0552 2.1156 1.3735 0.3128 1.3381-1.83 1.5211-1.8218 7.1135 0.31825 3.1686 1.2126 7.9977 4.2264 10.78 6.7276l5.0396 4.531 2.6516-2.5404c1.4584-1.3972 3.752-2.5379 5.0969-2.5348 3.7591 0.009 10.153 2.0136 13.1 4.1079 1.4599 1.0376 3.4275 1.8865 4.3724 1.8865 1.4683 0 1.5232-0.23482 0.37746-1.6153-1.1643-1.4029-1.0818-1.5625 0.62755-1.2138 1.1998 0.24482 1.8535 1.0706 1.6743 2.1153-0.36203 2.1115 0.46631 2.1841 2.4367 0.21375 2.4738-2.4738 17.525-2.0557 22.916 0.6366l4.2781 2.1366 2.7162-2.1366c2.3986-1.8867 3.997-2.1366 13.668-2.1366h10.952l1.1324 3c0.62281 1.65 1.6117 3 2.1975 3 0.58584 0 1.8626-1.35 2.8373-3 1.73-2.9287 1.9591-3 9.6338-3 4.3239 0 8.5735 0.27314 9.4435 0.60699 2.4555 0.94225 1.9756 8.6229-1.082 17.318-2.056 5.8466-2.6835 9.5705-2.75 16.319l-0.0862 8.7439-7.5 0.0257c-4.125 0.0141-13.35 0.70157-20.5 1.5277-13.211 1.5265-42.093 2.5352-53 1.8511zm29.5-45.392c0-0.55 0.45-1 1-1s1 0.45 1 1-0.45 1-1 1-1-0.45-1-1zm32.5 0c-0.33992-0.55 0.11008-1 1-1s1.3399 0.45 1 1c-0.33992 0.55-0.78992 1-1 1s-0.66008-0.45-1-1zm-91.194-5.5734-2.8058-2.5734 4.4625 0.61924c5.3254 0.73899 5.7042 1.0194 4.0576 3.0035-1.7208 2.0734-2.4572 1.9382-5.7143-1.0493zm-134.23 26.193c-3.8942-5.8042-7.0965-10.906-7.1163-11.336-0.0656-1.4282-4.954-6.8089-4.9591-5.4584-0.009 2.3558 17.723 28.781 18.674 27.829 0.26478-0.26478-2.7047-5.2303-6.5989-11.034zm1.4184-5.6222c-0.85397-1.6514-5.4394-9.4139-10.19-17.25-4.7505-7.8361-8.6384-14.808-8.6397-15.493-0.001-0.68522-0.82741-1.9925-1.8358-2.905-4.6294-4.1896-1.0251 3.2206 10.531 21.651 3.2761 5.225 7.0151 11.188 8.3088 13.25 2.8136 4.4857 4.0127 4.9766 1.8257 0.74746zm-2.2809-17.934c-0.39478-1.065-3.1928-5.406-6.2178-9.6465-8.2174-11.519-8.6236-12.139-6.9883-10.667 0.76358 0.6875 1.8478 1.25 2.4094 1.25 0.56161 0-1.8779-2.925-5.4211-6.5-5.5275-5.577-9-7.8883-9-5.9903 0 1.168 24.727 33.49 25.621 33.49 0.17326 0-0.008-0.8714-0.40275-1.9364zm201.18-56.767c2.1244-2.0446 2.4726-2.0747 8.6589-0.74861 3.545 0.75994 8.3925 1.3975 10.772 1.4168l4.3267 0.0351-2.9892-2.5153c-7.7162-6.4928-22.337-10.448-26.085-7.0565-1.7199 1.5565-2.1598 1.5649-5.6456 0.10851-5.5646-2.325-6.5814-3.3922-5.3768-5.6431 1.1063-2.0671 8.1099-5.8872 14.443-7.8779 2.2-0.69153 4.45-1.71 5-2.2634 1.2408-1.2483-8.2156-0.36033-13.977 1.3125-4.709 1.3672-11.523 7.7932-11.523 10.867 0 3.8505 2.9176 7.9594 8.1574 11.488 5.9342 3.9963 10.692 4.2893 14.238 0.87656zm-252.98-8.9036c1.9636-0.75351 2.0053-5.0282 0.0818-8.393-1.931-3.3779-1.8598-7.945 0.15866-10.175 2.0157-2.2273 1.3435-4.0012-4.4068-11.629l-3.9989-5.3048 2.7458-7.0573c1.5102-3.8815 3.3216-7.4132 4.0254-7.8481 0.96752-0.59797 1.1101-2.8235 0.58452-9.1254-2.292-27.483-14.543-56.019-26.809-62.445-1.4852-0.77807-5.1096-1.4147-8.0542-1.4147-9.2175 0-18.791 8.033-20.279 17.016l-0.57717 3.4836 1.677-3c3.7322-6.6765 10.546-11.5 16.246-11.5 4.0489 0 9.1076 3.6899 12.999 9.4818l3.3115 4.9285-2.3115 0.85218c-5.3768 1.9822-10.454 9.0313-13.411 18.619-2.1038 6.8223-2.734 21.594-1.1942 27.994 1.2821 5.329 1.2936 5.2686 1.341-7 0.0552-14.292 2.3228-23.636 7.4558-30.722 3.3542-4.6304 7.4297-7.1204 9.0318-5.5182 2.5242 2.5242 8.357 23.359 10.004 35.732 1.0783 8.1029 1.0549 8.2733-2.4752 18.025-1.9601 5.4149-3.5638 10.207-3.5638 10.648 0 0.44157 2.9494 4.7134 6.5543 9.4931 3.6049 4.7796 6.3486 8.8959 6.0972 9.1473-0.25142 0.25142-3.1689-1.4866-6.4833-3.8624-3.3144-2.3757-8.5807-5.839-11.703-7.6961-11.673-6.9436-12.671-19.424-2.8343-35.439 1.9645-3.1983 3.3769-6.0101 3.1387-6.2483-0.82536-0.82535-6.9264 8.6207-10.34 16.009-5.227 11.313-4.5136 22.538 1.8681 29.392 1.2112 1.301 6.197 5.108 11.08 8.4601 5.1847 3.5596 10.369 8.0928 12.463 10.898 3.5753 4.789 4.5815 5.3462 7.5775 4.1966zm269.19-51.56c-3.0949-13.342-9.2113-22.831-14.716-22.831-4.2023 0-3.6927 2.3079 1.7242 7.8082l4.6206 4.6918-3.1937-4.2361c-1.7565-2.3299-3.6108-4.4939-4.1206-4.809-1.594-0.98513-1.0136-2.4549 0.96945-2.4549 1.043 0 3.3493 1.6548 5.1251 3.6773 5.6167 6.3971 8.5991 15.683 9.7389 30.323l0.73961 9.5 0.29061-7.6691c0.16305-4.3029-0.35401-10.448-1.178-14zm-5.6126-7.2085c0-0.20765-0.7875-0.99515-1.75-1.75-1.5861-1.2439-1.6214-1.2085-0.37756 0.37756 1.3064 1.6658 2.1276 2.1955 2.1276 1.3724zm-66-9.3411c3.025-0.85961 7.6727-1.4643 10.328-1.3438l4.8283 0.2191-2.0783-2.0783c-2.6389-2.6389-2.8704-6.5987-0.32829-5.6152 0.9625 0.37236 3.0561 0.94049 4.6525 1.2625 2.8921 0.58336 2.9005 0.57061 2.3489-3.5419-1.2982-9.6788-8.0252-14.861-19.777-15.235-12.699-0.40433-60.481 1.2985-60.808 2.1671-0.18334 0.48646-1.1261 0.88448-2.095 0.88448-0.96892 0-2.5165 0.83406-3.439 1.8535-1.583 1.7492-1.4932 2.1288 1.595 6.7437 7.5152 11.231 27.65 17.93 50.272 16.726 4.95-0.26336 11.475-1.1822 14.5-2.0418zm-19.75-3.5102c-3.9875-0.52839-7.25-1.3681-7.25-1.8659 0-0.49787 0.64234-0.90522 1.4274-0.90522 2.3646 0 5.5726-5.006 5.5726-8.6961v-3.4264l4.25 0.52166c2.3375 0.28691 7.5585 0.79626 11.602 1.1319 4.0438 0.33564 7.9764 0.84974 8.7391 1.1424 1.5642 0.60025 3.8071 7.8456 3.0442 9.8337-1.1721 3.0544-13.641 4.0853-27.386 2.264zm-26.935-6.7151c-4.8048-2.1814-10.315-6.0512-10.315-7.2441 0-0.44657 2.25-0.81194 5-0.81194 3.725 0 5 0.37363 5 1.4652 0 0.80587 1.3966 3.0559 3.1036 5 3.5314 4.0221 3.1038 4.266-2.7886 1.5908zm10.185-0.22301c-3.2057-1.773-6.5-5.071-6.5-6.5073 0-2.2482 5.7615-1.6525 6.4993 0.67199 1.1921 3.7558 8.5729 3.4333 8.4703-0.37012-0.0167-0.62016-0.48908-0.34006-1.0497 0.62244-1.2469 2.1408-4.2406 2.2735-5.9101 0.26183-1.653-1.9918 0.32186-2.7413 6.1258-2.3249 3.9512 0.28345 4.3949 0.57918 4.6867 3.1236 0.17724 1.5458-0.21536 3.4583-0.87245 4.25-1.4164 1.7066-8.5499 1.8764-11.45 0.27255zm101.11-3.8751c1.8881-0.6195 3.8083-2.3182 4.8891-4.3251 1.5554-2.8881 1.627-3.9246 0.56811-8.2189-1.3345-5.412-8.938-20.863-9.017-18.324-0.0272 0.87452 0.85051 5.109 1.9505 9.41 2.3545 9.2061 2.4388 10.5 0.684 10.5-1.2926 0-6.85 5.6682-8.0463 8.2068-0.33518 0.71124-1.3094 2.251-2.1649 3.4218-1.5476 2.1178-1.5311 2.1241 3.2359 1.2391 2.6353-0.48926 6.1906-1.3486 7.9007-1.9097zm-16.283-4.2952c-1.5547-1.2855-8.0053-6.1522-14.335-10.815-12.209-8.994-24.911-21.958-39.537-40.351-8.2281-10.347-11.568-15.615-22.82-35.997l-6.6248-12 0.0384 4.5c0.0211 2.475 0.40841 6.4125 0.86061 8.75 0.45219 2.3375 0.56114 4.25 0.24211 4.25-0.31904 0-3.8216-3.4875-7.7835-7.75l-7.2034-7.75 0.8892 4.1005c0.48906 2.2552 1.8179 6.2669 2.9529 8.9149 1.135 2.6479 1.71 5.1681 1.2777 5.6004-0.43231 0.43231-2.4506 0.41059-4.4851-0.0483-2.0345-0.45885-3.9188-0.61449-4.1875-0.34587-1.0136 1.0136 5.3389 11.701 10.981 18.475 8.9724 10.771 35.58 32.874 55.907 46.442 7.9011 5.2737 28.213 15.926 26.553 13.925-1.8485-2.2274 0.45241-2.0243 4.9474 0.4366 4.772 2.6126 5.7269 2.4742 2.3267-0.33722zm-95.781-12.589c-1.009-1.6325 10.466-2.3804 27.445-1.7886 12.144 0.4233 15.717 0.29803 13.51-0.47372-4.5116-1.5778-38.121-2.2597-43.254-0.87752-4.4376 1.1949-5.475 2.5984-2.496 3.3769 3.1379 0.82001 5.3803 0.70918 4.7955-0.23703zm-35.3-178.73c-0.6875-0.27741-1.8125-0.27741-2.5 0s-0.125 0.50439 1.25 0.50439 1.9375-0.22698 1.25-0.50439zm-152.16 326.08c0.0517-9.8542 0.6142-22.555 1.25-28.224l1.156-10.307 5.75 9.9202c3.1625 5.4561 5.75 10.441 5.75 11.077 0 1.2243-12.774 34.225-13.547 34.998-0.24904 0.24904-0.4105-7.6097-0.3588-17.464zm68.842-19.993c-0.74177-0.89377-1.4398-2.2456-1.5511-3.0042-0.11133-0.75852-0.91855-2.0953-1.7938-2.9706-2.3561-2.3561-1.9319-3.0666 0.51096-0.85591 2.2843 2.0672 5.3095 7.3288 4.6139 8.0244-0.23718 0.23718-1.0381-0.30004-1.7799-1.1938zm-5.2026-15.684c-1.1562-0.88461-2.0743-4.7878-3.2054-13.628-1.6803-13.132-1.4539-17.181 0.41614-7.441 0.61555 3.2061 1.9787 9.418 3.0292 13.804 1.0505 4.3862 1.7908 8.094 1.6452 8.2397-0.14566 0.14567-0.99398-0.29301-1.8851-0.97482zm285.27-81.791c-2.475-0.44039-6.7638-0.83407-9.5308-0.87484-4.7284-0.0697-5.1053-0.26948-6.2709-3.3241-1.1244-2.9468-1.0341-3.419 0.96754-5.0615 1.4349-1.1774 3.0471-1.6008 4.6059-1.2096 3.4169 0.85758 6.2282-0.29176 6.2282-2.5463 0-1.3948 0.69572-1.9326 2.5-1.9326 3.0537 0 3.2874 2.2126 0.52544 4.9746-2.429 2.429-5.9308 3.372-10.528 2.8353-2.1879-0.25542-3.4973 0.0181-3.4973 0.7304 0 1.7883 4.6605 3.4597 9.647 3.4597 3.8445 0 5.082-0.52903 7.953-3.4 2.4498-2.4498 3.4-4.2942 3.4-6.5995v-3.1995l8.9179 0.3495c4.9048 0.19223 9.1957 0.62782 9.5352 0.968 0.33949 0.34017-0.34729 3.1965-1.5262 6.3474-1.8499 4.9442-2.7107 5.9865-6.2852 7.6095-4.3343 1.9681-9.0879 2.2176-16.642 0.87355zm-8.5-12.949c0.33992-0.55 1.0415-1 1.559-1 0.51754 0 0.94098 0.45 0.94098 1s-0.70156 1-1.559 1c-0.85746 0-1.2809-0.45-0.94098-1zm13.881-8.9127c1.5847-1.0448 4.9597-2.1895 7.5-2.5439 2.5403-0.35438 6.0062-0.88262 7.702-1.1739 2.3416-0.40216 3.0833-0.15818 3.0833 1.0142 0 1.0819-1.3712 1.719-4.5833 2.1297-2.5208 0.32227-6.4701 1.0136-8.7762 1.5363-6.7756 1.5358-8.2718 1.2434-4.9258-0.9624zm-32.88-182.1c0.33992-0.55 0.81648-1 1.059-1 0.24254 0 0.44098 0.45 0.44098 1s-0.47656 1-1.059 1c-0.58246 0-0.7809-0.45-0.44098-1zm-398.81 504.27c-0.25354-0.97297-0.47766-0.41903-0.49804 1.231s0.18706 2.4461 0.46099 1.769c0.27392-0.67703 0.2906-2.027 0.03705-3zm40.969-215.52c-0.27741-0.6875-0.50439-0.125-0.50439 1.25s0.22697 1.9375 0.50439 1.25c0.27741-0.6875 0.27741-1.8125 0-2.5zm25.024-150.5c0.34312-0.9625 1.0955-2.3564 1.672-3.0975 0.57649-0.74114 1.1926-2.2938 1.3691-3.4503 0.58996-3.8657 6.3877-11.603 14.205-18.957 18.215-17.136 48.556-33.435 80.527-43.261 12.872-3.9559 11.083-4.6078-2.7692-1.0088-35.931 9.3357-78 35.437-89.532 55.549l-3.1396 5.4754-0.009-5.5c-0.0311-18.627 10.212-57.838 22.051-84.412 9.6461-21.652 21.945-38.39 40.264-54.796 26.263-23.522 65.954-45.233 103.68-56.714 10.235-3.1149 23.951-6.2518 19.25-4.4026-3.1349 1.2332-0.62852 1.8325 6.2173 1.4868 13.191-0.66612 29.047 4.07 41.687 12.452 10.22 6.7768 17.931 15.812 28.812 33.759l2.3481 3.8728-6.3643-5.1284c-15.75-12.69-44.49-23.18-81.02-29.59-16.664-2.923-14.936-2.719-14.936-1.7643 0 0.4175 3.7125 1.5868 8.25 2.5984 17.535 3.9093 39.354 14.191 54.956 25.897 5.1115 3.835 8.3936 5.9719 7.2936 4.7487-6.5513-7.285-29.532-21.205-43.772-26.513-2.6248-0.97848-4.6174-1.9339-4.4281-2.1232 0.6477-0.64771 24.25 5.4924 35.217 9.1614 26.731 8.9436 40.58 18.346 51.249 34.793 6.9855 10.77 6.1373 6.9718-1.3436-6.0159-15.479-26.874-25.952-39.638-38.703-47.171-8.357-4.9372-21.957-9.3543-30.553-9.9231-4.9081-0.32483-7.5069-0.93624-7.857-1.8485-0.98617-2.5699-8.9317-1.407-27.946 4.0903-62.342 18.024-88.772 32.287-119.77 64.632-17.549 18.314-28.578 37.11-38.089 64.914-9.1893 26.864-13.897 48.17-15.104 68.352-0.62365 10.431-0.50681 11.876 1.1048 13.656 2.2246 2.4582 4.3533 2.5574 5.1789 0.24147zm112.56-72.912c-0.6875-0.27741-1.8125-0.27741-2.5 0s-0.125 0.50439 1.25 0.50439 1.9375-0.22698 1.25-0.50439zm5.4792-0.94189c-0.3323-0.33229-1.1948-0.36781-1.9167-0.0789-0.79773 0.31922-0.56078 0.55618 0.60417 0.60416 1.0542 0.0434 1.6448-0.19293 1.3125-0.52522zm-71.229-48.965c5.2192-3.8458 15.35-8.4506 27.367-12.439 15.085-5.0069 23.51-6.6637 41.177-8.0977 7.9507-0.64534 15.08-1.5004 15.843-1.9002 1.4857-0.77859-1.1827-0.64767-21.273 1.0438-14.282 1.2024-30.783 4.9901-43.114 9.8966-4.4 1.7508-8.675 3.4223-9.5 3.7146-3.3571 1.1894 14.444-9.8859 28-17.421 23.034-12.803 42.146-20.351 63-24.881 13.114-2.8488 47.178-2.6078 59.243 0.41918 10.045 2.5201 17.921 6.2025 20.187 9.4384 1.1388 1.6259 1.5696 1.8108 1.5696 0.67341 0-3.9119-10.733-9.1451-24.776-12.08-13.37-2.7942-40.782-3.0387-53.724-0.47917-26.219 5.1852-47.004 13.816-79 32.805-15.313 9.088-29.493 19.272-30.306 21.766-0.5078 1.5568 0.47653 1.1008 5.3063-2.4581zm-98 435.57c0.33992-0.55 0.12373-1-0.48041-1-0.70628 0-0.6381-0.49601 0.19098-1.3893 0.93409-1.0065 1.4919-1.0754 2.0241-0.25 1.2304 1.908 0.85279 3.6393-0.7937 3.6393-0.85746 0-1.2809-0.45-0.94098-1zm501.72-103.25c-2.3452-2.8258-3.5136-11.946-3.8115-29.752-0.30923-18.483-1.9806-30.68-4.7169-34.422-0.68497-0.93675-7.3058-4.7219-14.713-8.4115-12.775-6.3634-13.468-6.8614-13.468-9.6874 0-2.6571 0.48639-3.1302 4.5-4.3766 8.5876-2.6669 10.409-3.5226 13.76-6.4649 7.697-6.7581 11.648-21.95 13.821-53.138 0.80241-11.519 1.7276-14.783 4.0595-14.323 2.6683 0.52688 4.1905 9.1607 5.2841 29.973 1.2335 23.473 3.8246 34.722 9.3732 40.693 2.8742 3.0927 5.7444 4.1675 13.971 5.2318 7.5036 0.9707 10.731 2.2905 10.731 4.3883 0 1.4001-7.3593 5.2774-14.153 7.4568-2.0092 0.64453-4.76 2.1976-6.1127 3.4512-5.2446 4.8605-8.7397 19.565-10.727 45.129-1.6684 21.467-4.0257 28.798-7.7985 24.252zm5.2675-22.252c2.6786-38.844 6.595-49.113 20.523-53.813 2.475-0.83512 5.7521-2.1743 7.2824-2.9759l2.7824-1.4575-4.4752-1.1269c-2.4614-0.61978-5.7384-1.1368-7.2824-1.1488-4.7488-0.0371-10.986-3.5298-13.66-7.6495-4.9478-7.6214-6.7713-16.291-7.8518-37.328-0.5508-10.725-1.5757-21.75-2.2775-24.5l-1.276-5-0.64665 7c-4.7508 51.427-8.2184 59.408-28.522 65.641-2.4348 0.7475-4.5725 1.8095-4.7503 2.36-0.17785 0.55052 5.4865 3.8536 12.587 7.3402 7.1009 3.4866 13.829 7.3166 14.951 8.511 3.8619 4.1108 5.3752 12.744 5.7229 32.648 0.33223 19.016 0.69302 22.962 2.6513 29l1.1353 3.5 1.2427-6c0.68347-3.3 1.5219-10.05 1.8633-15zm-3.5521-50.091c-1.8835-1.9506-6.453-5.015-10.154-6.8098l-6.7299-3.2633 3.0798-2.9179c4.0924-3.8773 8.2906-10.062 9.9201-14.615 1.3153-3.6746 2.9592-4.2266 2.9608-0.99422 0.002 3.5088 5.8359 13.825 9.8815 17.473l4.1946 3.7822-3.1793 2.6752c-1.7486 1.4714-3.9374 3.9218-4.864 5.4455l-1.6847 2.7702-3.4245-3.5465z"/>
</svg>
