<?xml version="1.0" encoding="UTF-8" standalone="no"?>
<!-- Created with Inkscape (http://www.inkscape.org/) -->
<svg id="svg3396" xmlns:rdf="http://www.w3.org/1999/02/22-rdf-syntax-ns#" xmlns="http://www.w3.org/2000/svg" height="1062.5" viewBox="0 0 1062.5 1062.5" width="1062.5" version="1.1" xmlns:cc="http://creativecommons.org/ns#" xmlns:dc="http://purl.org/dc/elements/1.1/">
 <metadata id="metadata3402">
  <rdf:RDF>
   <cc:Work rdf:about="">
    <dc:format>image/svg+xml</dc:format>
    <dc:type rdf:resource="http://purl.org/dc/dcmitype/StillImage"/>
    <dc:title/>
   </cc:Work>
  </rdf:RDF>
 </metadata>
 <path id="path3406" fill="#fff" d="m684.64 1019.2c-5.252-10.39-13.323-40.206-13.366-49.378l-0.0217-4.5744-6.4523 1.7021c-10.644 2.8078-29.208 4.5504-49.769 4.6718-19.239 0.11363-19.552 0.0707-36.904-5.0535-36.485-10.775-69.254-23.991-110-44.365-28.423-14.212-47.279-25.28-76.875-45.123-28.032-18.794-32.579-23.585-41.128-43.335-3.7139-8.5799-8.3667-20.662-10.34-26.85-3.3621-10.545-9.7671-39.26-11.571-51.875-0.44236-3.0938-1.8126-6.9467-3.0449-8.562l-2.2406-2.937-5.9109 4.1664c-5.1893 3.6578-7.0679 4.2248-15.388 4.645-11.284 0.5698-17.669-1.1079-23.413-6.1518l-4.2445-3.7267-0.79606 9.7206c-1.1988 14.638-5.4096 44.381-10.047 70.971-2.2785 13.062-4.5253 26.138-4.9931 29.056-0.46774 2.9183-1.4399 5.6702-2.1603 6.1155-1.5683 0.96926-1.1183-2.4138 4.722-35.502 6.3533-35.994 9.2279-56.759 10.135-73.214l0.81581-14.794 5.0383 5.8943c6.2727 7.3385 10.919 9.3269 21.713 9.292 9.5118-0.0308 16.651-2.659 21.487-7.9107l3.0098-3.2679 3.4172 4.6655c2.4345 3.3238 3.8292 7.3616 4.8497 14.041 4.2387 27.74 11.87 54.13 22.231 76.875 8.6599 19.012 12.668 22.998 43.93 43.693 48.654 32.209 94.066 55.284 145.18 73.771 36.664 13.261 50.271 17.02 63.75 17.612 15.814 0.69467 43.549-1.4966 55.757-4.4053 5.4213-1.2916 10.016-2.1892 10.211-1.9945 0.19463 0.19461 1.1745 5.8205 2.1775 12.502 1.003 6.6814 4.3637 19.788 7.4683 29.127 5.4561 16.411 6.5009 21.871 2.7743 14.499zm3.251-3.8662c-0.55775-3.2656-1.0134-18.594-1.0126-34.062l0.001-28.125 4.0728-8.125c2.24-4.4688 4.877-9.5312 5.86-11.25 3.3304-5.8232 11.566-30.539 16.245-48.75 10.728-41.759 16.898-59.454 39.444-113.12 13.771-32.782 23.509-62.845 28.141-86.875 4.4832-23.259 3.4904-69.28-1.7367-80.501-3.9571-8.4948-4.1134-11.552-1.4334-28.045 1.4147-8.706 2.8706-17.798 3.2352-20.204 0.9392-6.1968 6.5164-25.591 9.0234-31.377 1.1611-2.68 2.8114-4.8728 3.6674-4.8728 2.486 0 3.4789-5.8866 3.4789-20.625 0-13.338-0.1311-13.993-4.375-21.851-3.9321-7.2806-4.415-7.7551-4.7705-4.6875-0.3099 2.6742-1.0542 3.4132-3.4375 3.4132-2.7856 0-3.048 0.50045-3.114 5.9375-0.0396 3.2656-0.50887 8.1875-1.0428 10.938l-0.97075 5-0.80606-5.625c-0.44334-3.0938-1.4401-10.969-2.215-17.5-2.8383-23.922-11.928-63.106-15.458-66.636-0.81902-0.81901-1.4489-2.0516-1.3998-2.7391s-1.2299-1.4368-2.8422-1.665c-2.3297-0.32983-2.7823-0.97132-2.2046-3.125 0.3998-1.4905 0.7346-3.6944 0.74399-4.8975 0.0155-1.9808 0.25331-1.9512 2.5171 0.3125 1.6749 1.6749 4.1667 2.5 7.5498 2.5 7.108 0 13.628 3.7448 21.137 12.141 16.613 18.575 26.471 53.778 22.794 81.398-0.80831 6.0711-2.5878 14.288-3.9545 18.261-1.8249 5.3042-2.0194 6.8361-0.73221 5.7678 2.3185-1.9242 7.7975-17.24 10.085-28.192 2.7187-13.016 2.4063-36.445-0.65637-49.22-4.92-20.523-19.456-41.616-33.722-48.933-5.725-2.9365-15.701-3.989-20.625-2.1758-2.4223 0.89202-2.5041 0.36769-2.6329-16.875-0.1205-16.125-1.3832-25.779-5.0067-38.274l-0.86371-2.9784 8.6267 0.86071c10.718 1.0694 20.371 3.7313 28.573 7.8793 26.304 13.302 49.866 39.731 66.138 74.184 11.597 24.554 21.54 55.842 24.996 78.658 0.98932 6.5312 1.854 10.088 1.9214 7.903 0.41785-13.532-8.4092-50.92-17.507-74.153-11.031-28.17-25.089-50.125-43.396-67.772-18.288-17.63-36.504-27.145-56.55-29.538l-8.0493-0.96115 7.6916-0.97273c4.9886-0.63088 8.5837-0.49525 10.23 0.38599 3.1698 1.6964 4.3312 1.7317 3.3232 0.10075-1.2418-2.0092 14.371 4.0885 23.408 9.1424 36.338 20.322 64.212 55.203 78.491 98.225 8.9232 26.885 12.786 56.667 10.105 77.911-1.6539 13.105-7.3337 38.49-9.0151 40.292-0.64986 0.69638-1.1112-3.6979-1.1156-10.625-0.0345-55.231-33.979-135.15-73.267-172.5-9.5056-9.037-21.981-17.497-25.628-17.38-0.94757 0.0304 0.52716 1.2313 3.2772 2.6687 20.439 10.684 43.032 38.015 61.295 74.151 20.826 41.207 30.555 75.785 32.533 115.62l0.83771 16.875-4.6782 12.5c-5.3752 14.362-14.861 33.767-22.142 45.296-5.8006 9.1846-7.5422 9.6166-3.0875 0.76577 4.4535-8.8484 9.2835-24.032 12.205-38.367 6.3854-31.334 3.5064-75.773-7.0173-108.31-5.2231-16.151-17.752-41.676-28.21-57.473-9.1315-13.793-24.747-30.556-34.486-37.02-7.5562-5.0155-16.168-6.9944-17.981-4.1318-2.1516 3.3979-1.058 4.8758 6.3898 8.6354 8.8771 4.4812 23.699 18.155 32.398 29.889 14.319 19.315 27.931 45.978 25.479 49.905-0.71949 1.1521-2.2776 5.4294-3.4624 9.505-4.3975 15.127-12.649 28.629-27.556 45.088-9.424 10.406-16.357 19.347-15.002 19.347 0.46983 0 6.5654-4.7068 13.546-10.46 17.378-14.322 30.093-28.155 37.438-40.729l3.2498-5.5635 1.2732 3.3489c4.2065 11.064 8.2433 34.254 9.5136 54.653 1.3072 20.99-2.3254 46.569-10.137 71.375-4.4771 14.218-15.751 39.462-21.813 48.841-4.6528 7.1988-6.4261 12.088-3.7942 10.462 1.5708-0.97084 29.682-39.409 35.691-48.803 2.6387-4.125 8.0821-13.393 12.096-20.596 4.0142-7.2029 7.3366-12.547 7.383-11.875 0.0464 0.67168 0.83615-1.31 1.755-4.4038 0.91884-3.0938 4.2033-12.094 7.2988-20 17.42-44.494 17.453-90.73 0.0971-137.2-15.762-42.197-39.381-71.038-77.985-95.224-3.5794-2.2426-3.8068-2.6018-1.25-1.9758 2.7535 0.67419 2.8496 0.59345 0.80803-0.6791-4.0668-2.535-22.011-8.6751-25.353-8.6751-2.5912 0-3.04-0.4287-2.2903-2.1875 0.51283-1.2031 1.1984-6.9846 1.5234-12.848 0.50684-9.1432 0.14018-11.956-2.5767-19.769-7.8528-22.581-28.502-46.866-54.64-64.261-7.9221-5.2721-29.634-17.427-48.249-27.011-46.211-23.792-54.66-29.159-69.961-44.447-15.01-15-30.5-37.33-30.5-43.96 0-2.2597 0.5625-4.4561 1.25-4.881 0.73846-0.45639 1.25 0.94368 1.25 3.4212 0 7.4386 16.276 31.318 31.187 45.757 11.891 11.514 25.169 19.75 63.799 39.574 18.914 9.7064 40.295 21.478 47.514 26.16 27.736 17.988 45.714 37.02 57.273 60.634l5.8516 11.954v14.57 14.57l7.3025 2.0299c8.0633 2.2414 19.572 7.6813 19.572 9.2511 0 0.55192 4.9219 4.3278 10.938 8.3909 23.059 15.575 45.983 42.518 58.266 68.484 12.704 26.857 18.146 46.304 20.867 74.58 2.837 29.479-0.97592 54.555-13.298 87.455-3.7244 9.944-6.7716 18.803-6.7716 19.688 0 0.88415-0.50814 1.6075-1.1292 1.6075s-3.0598 3.7969-5.4194 8.4375c-11.179 21.986-48.458 74.688-52.831 74.688-4.0524 0-3.5834-4.3861 1.3367-12.5 2.5013-4.125 6.7914-12.281 9.5335-18.125 23.637-50.374 28.831-94.134 17.103-144.12l-2.5798-10.996-3.4712 5.3713c-10.303 15.942-46.03 49.51-51.244 48.147-2.888-0.75523-4.7624 6.0937-9.3342 34.106-3.2889 20.152-3.2406 22.267 0.70259 30.756 3.1199 6.7167 5.3858 35.707 4.3912 56.183-1.5573 32.061-12.159 69.502-34.781 122.84-19.292 45.483-24.687 60.952-33.508 96.087-5.9004 23.501-16.267 54.324-19.944 59.296-3.941 5.3304-7.621 16.32-8.6134 25.722-0.97047 9.1941 0.22798 47.193 1.6968 53.801 0.57863 2.6032 0.42538 4.0625-0.42665 4.0625-0.73132 0-1.786-2.6719-2.3438-5.9375zm114.37-503.64c5.6262-18.754 6.4619-30.97 3.4057-49.787-3.2726-20.15-10.86-37.523-21.544-49.33-7.506-8.2944-11.97-10.705-21.618-11.673-4.2576-0.42715-5.8789-0.29156-4.2584 0.35612 1.4391 0.57522 3.5143 2.9377 4.6116 5.25 4.3718 9.2129 11.508 38.677 15.263 63.021 0.70116 4.5456 1.1217 5.0609 3.724 4.5634 1.6135-0.30844 3.2132-1.63 3.5549-2.9367 1.5837-6.0561 8.5891 0.83159 12.682 12.469 3.3985 9.6635 1.9138 34.968-2.2461 38.28-2.0432 1.6268-5.8303 7.1344-5.8303 8.4792 0 0.57634 2.1816-1.4728 4.848-4.5535 3.2448-3.7491 5.6949-8.4245 7.4091-14.139zm79.859 2.4242c-0.31693-1.2162-0.59708-0.52379-0.62255 1.5387-0.0255 2.0625 0.23382 3.0576 0.57624 2.2113 0.3424-0.84629 0.36323-2.5338 0.0464-3.75zm-544.82 447.27c-1.45-3.49-3.12-6.35-3.72-6.35-0.59 0-1.08-0.53-1.08-1.18 0-0.64808-5.6214-13.61-12.492-28.804-15-33.18-26.63-62.16-25.61-63.81 0.41-0.67 0.25-1.21-0.37-1.21-0.61349 0-1.1154-0.73944-1.1154-1.6432 0-2.6597-12.164-32.491-12.652-31.027-0.50837 1.5251 12.26 38.725 20.653 60.17 3.0941 7.9062 11.498 26.653 18.675 41.661 7.1774 15.007 12.808 27.945 12.513 28.75-0.64314 1.7538-20.68-38.383-29.064-58.22-8.515-20.146-24.644-65.891-24.791-70.315-0.0987-2.9538 0.40336-3.75 2.3649-3.75 2.0063 0 3.5482 2.6726 7.9332 13.75 2.9936 7.5625 6.0606 15.156 6.8156 16.875 0.75499 1.7188 1.4704 4.1674 1.5899 5.4416 0.11949 1.2741 2.5018 6.8991 5.2942 12.5s5.0677 11.59 5.0564 13.308c-0.0184 2.7836 16.522 41.388 20.184 47.109 1.8234 2.8486 2.0218 3.4328-7.5809-22.324-8.8748-23.805-19.861-59.052-34.218-109.79-11.539-40.776-12.591-47.766-7.3022-48.518 2.391-0.34005 3.817 1.6775 10.602 15 4.3118 8.4661 8.2879 16.94 8.8357 18.83 1.1107 3.8332 3.3702 4.6347 3.5239 1.25 0.10137-2.2313 1.1731 1.3217 10.192 33.788 3.7393 13.46 4.7584 18.85 3.7545 19.853-2.9258 2.9258-5.0274-0.40654-8.9259-14.152-2.2114-7.7972-5.069-16.427-6.3503-19.177s-3.8482-8.8211-5.7042-13.491c-1.856-4.6702-3.595-8.2709-3.8644-8.0014-0.26945 0.26945 3.7659 15.341 8.9675 33.491 9.113 31.8 18.673 61.38 36.117 111.75 8.8451 25.542 10.359 33.34 6.6234 34.112-1.6562 0.34219-2.8831-1.1463-4.8542-5.8893zm6.4345 4.5903c-0.0474-1.3396-12.515-38.468-19.203-57.188-11.524-32.253-41.093-129.59-43.858-144.38-1.0026-5.3611 13.376 23.778 19.429 39.375 2.8017 7.2188 6.5956 18.703 8.431 25.522 1.8354 6.8181 4.015 12.622 4.8437 12.898 1.0426 0.34702 0.75858-2.1232-0.92236-8.0216-4.6372-16.272-9.4256-30.515-10.049-29.891-0.34478 0.34478-2.2501-3.7062-4.2341-9.0023-3.9343-10.502-8.5417-20.262-15.382-32.58-3.3145-5.9695-4.6747-7.4869-5.4574-6.0882-1.2303 2.1985 0.18236 7.8215 15.241 60.666 13.323 46.754 20.501 69.025 34.321 106.5 5.7051 15.469 11.308 31.359 12.45 35.312 1.1426 3.9531 2.6002 7.1875 3.2389 7.1875 0.63871 0 1.1563-0.14063 1.1502-0.3125zm256.27-1.48c-2.9048-1.5699-19.867-6.7603-57.135-17.483-13.043-3.7526-19.077-6.4896-41.532-18.837-72.982-40.132-135.03-79.858-131.01-83.877 0.39647-0.39646-1.5369-5.5961-4.2964-11.555-11.79-25.46-32.27-80.74-32.27-87.1 0-5.359-4.3077-10.808-7.9087-10.004-1.494 0.3336-6.3725 1.4959-10.841 2.5828-26.25 6.3848-29.043 4.6065-46.954-29.885-4.3312-8.3409-9.0853-16.531-10.565-18.201-3.2384-3.6549-17.54-30.864-16.676-31.728 0.33476-0.33474-1.1284-4.0497-3.2515-8.2555s-5.007-12.476-6.4088-18.378c-2.2677-9.5481-2.3968-11.98-1.1718-22.055 0.75725-6.2279 1.6362-11.743 1.9532-12.256 0.31699-0.51291 2.4375-0.36135 4.7123 0.33679l4.1359 1.2694-0.0639 10.801c-0.0351 5.9404 0.47697 13.613 1.138 17.051 1.1086 5.7651 1.2542 5.0206 1.8781-9.5972 0.37197-8.716 0.98856-16.159 1.3702-16.541 0.38164-0.38163 2.6254-0.13684 4.9861 0.54398 12.351 3.5619 27.196 5.2086 40.177 4.4567 14.974-0.86738 16.792-1.3132 18.52-4.5438 1.8992-3.5486 0.15259-6.5104-3.3247-5.6377-1.6256 0.40798-2.9556 0.23712-2.9556-0.37972 0-0.61682-6.8906-1.0875-15.312-1.046-11.508 0.0568-18.273-0.60464-27.229-2.6616-16.297-3.7433-48.955-13.118-58.084-16.673l-7.5-2.9207 21.25-0.72491c19.439-0.66313 22.262-1.0612 33.125-4.6712 11.508-3.8242 31.268-11.354 30-11.431-0.34375-0.021-7.8412 1.3752-16.661 3.1026-8.8199 1.7274-21.195 3.4294-27.5 3.7821-6.3051 0.3527-14.273 0.89564-17.706 1.2065l-6.2419 0.56526 3.3298-2.7897c3.1066-2.6026 13.39-17.82 15.056-22.281 0.63456-1.6987 2.1381-1.311 10.238 2.6399 10.847 5.2909 25.205 10.08 32.791 10.936 4.437 0.5012 5.3008 0.209 6.0127-2.034 1.2077-3.8051-2.489-6.8971-10.569-8.8404-27.32-6.58-49.26-22.28-65.6-46.96-5.94-8.97-14.4-24.41-14.4-26.28 0-1.718 10.227 7.7008 12.447 11.464 1.6252 2.7546 3.0853 3.902 4.3485 3.4173 1.0459-0.40136 6.6722 1.3192 12.503 3.8235 13.358 5.7374 24.661 8.1497 38.202 8.153 14.902 0.004 16.3-1.7304 2.8776-3.5702-16.331-2.2384-30.259-5.7871-40.253-10.255-6.4229-2.8719-8.5572-4.3852-7.6784-5.4442 0.81457-0.98151 0.22086-4.336-1.7948-10.141-4.3906-12.644-5.8466-23.815-5.855-44.924-0.007-19.221 0.81439-25.377 9.5904-71.821 1.9948-10.557 3.622-25.22 4.3694-39.375 0.65502-12.405 1.7265-26.21 2.3811-30.679 0.65454-4.4688 1.5819-13.881 2.0608-20.917l0.87069-12.792 7.0279 6.3913c3.8654 3.5152 7.9883 7.8808 9.162 9.7013 2.0517 3.1823 2.015 3.5505-0.9506 9.543-1.6966 3.4281-3.8625 10.444-4.8131 15.591-0.95065 5.1468-2.9135 13.807-4.3619 19.245-3.0116 11.307-3.5664 32.56-1.2813 49.085 3.5873 25.942 21.866 67.148 40.935 92.278 3.13 4.125 12.663 14.648 21.185 23.385l15.494 15.885-0.42085 5.8315c-0.48349 6.6992 1.5149 8.9065 6.8511 7.5672 5.6208-1.4107 8.3531-5.5076 8.3531-12.525 0-8.2918-2.8308-12.218-19.694-27.314-14.93-13.365-23.677-23.377-34.308-39.267-15.699-23.466-25.76-47.659-29.137-70.059-2.7816-18.454-2.177-19.821 2.5195-5.6957 11.216 33.733 29.972 62.32 59.67 90.941 47.421 45.703 57.379 52.005 15.8 10-26.222-26.491-38.482-40.84-49.665-58.125-12.862-19.881-22.831-44.315-27.212-66.695-2.1416-10.941-2.1336-11.219 0.6813-23.75 3.462-15.412 5.0038-18.672 5.0566-10.692 0.0866 13.074 7.6525 34.034 17.618 48.809 11.233 16.654 33.651 36.06 48.15 41.68 2.8292 1.0967 3.8987 1.2384 2.5338 0.3356-1.2989-0.85915-5.6679-3.7244-9.709-6.3673-4.041-2.6429-11.936-9.1116-17.545-14.375-22.97-21.556-35.742-45.446-38.499-72.015-0.63905-6.1573-0.9323-11.425-0.65166-11.705 0.28063-0.28063 3.7741 2.3055 7.7633 5.747 10.523 9.0784 22.252 16.278 50.49 30.992 29.486 15.365 37.862 20.792 48.116 31.178 8.3151 8.4225 13.023 16.692 13.023 22.877 0 3.2888 0.48868 3.9837 2.8125 3.9995 1.9651 0.0134 2.3219 0.33035 1.184 1.052-0.89566 0.5681-1.4729 1.5439-1.2828 2.1684 0.19015 0.6245-2.2806 9.0104-5.4905 18.635-15.61 46.806-21.299 101.13-17.215 164.38 0.97769 15.142 1.5142 18.95 5.7708 40.958l1.9985 10.333-4.7179 9.5483c-4.0716 8.2403-18.452 29.16-20.044 29.16-0.30171 0 0.33912-2.1094 1.4241-4.6875 2.623-6.2329 6.8896-24.174 6.0659-25.507-1.2263-1.9841-3.989-1.0573-7.9906 2.6808-3.801 3.5506-13.902 7.5134-19.152 7.5134-1.8976 0-1.2482-1.0522 2.9469-4.7751 4.0264-3.5732 5.1603-5.3498 4.5046-7.0585-0.78388-2.0427-1.9599-2.2054-11.158-1.5436-11.337 0.81578-25.271 3.5693-21.87 4.3219 1.9758 0.4373 1.9365 0.78183-0.45825 4.0209-1.4406 1.9484-3.0488 5.892-3.5739 8.7635-0.83724 4.5785-0.42883 6.1698 3.3193 12.933 9.5779 17.284 17.927 38.409 17.927 45.36 0 4.3681-2.9887 11.728-4.7626 11.728-0.52161 0-1.9188-1.6428-3.1049-3.6506s-7.2472-9.1797-13.469-15.938c-13.258-14.4-19.291-25.345-21.061-38.209-1.5417-11.203-0.1477-15.69 6.8897-22.177 4.2614-3.928 4.967-5.0289 2.7926-4.3576-8.3428 2.576-15.381 9.0271-16.764 15.365-0.40098 1.8376-0.94855 4.0518-1.2168 4.9204-0.26829 0.86858 0.0639 5.9302 0.7381 11.248 1.796 14.166 7.258 24.714 19.816 38.269 5.6512 6.0999 12.917 15.097 16.146 19.994 3.2292 4.8966 6.7844 9.0727 7.9006 9.2802 1.4406 0.26785 3.7071-2.8711 7.8125-10.82 4.569-8.8464 5.7832-12.484 5.7832-17.327 0-8.0547-5.8-24.985-13.701-39.993-3.4644-6.5807-6.2989-12.165-6.2989-12.41 0-0.24491 4.1162-0.44528 9.147-0.44528 7.9314 0 21.694-2.6903 28.665-5.6034 1.3382-0.55919 2.1875-0.3612 2.1875 0.50995 0 3.6154-8.1586 22.015-11.984 27.026-12.516 16.396 5.2388 9.9859 23.869-8.6184 4.9236-4.9167 10.393-10.855 12.155-13.197l3.203-4.2573-0.49423 8.6323-0.49421 8.6323 1.8544-8.125c1.0199-4.4688 2.6016-10.656 3.515-13.75l1.6606-5.625 0.82634 11.25c1.1146 15.174 5.7402 42.14 7.5505 44.017 2.1818 2.2624 4.83-0.0136 4.8479-4.1665 0.009-1.9804 0.27354-6.1704 0.58897-9.3111l0.57353-5.7103 8.9764 8.9038c4.937 4.8971 16.008 13.929 24.601 20.071 37.498 26.801 53.053 43.056 66.16 69.137 2.8862 5.743 5.5563 10.133 5.9337 9.7557 1.1172-1.1173-8.9643-20.92-16.075-31.574-9.6577-14.472-26.22-30.246-51.644-49.186-22.921-17.076-35.116-28.223-36.379-33.255-1.1749-4.6813 9.5228-54.706 15.891-74.307 2.1218-6.5312 10.918-25.938 19.546-43.125 8.6288-17.188 20.108-41.047 25.51-53.021 9.2886-20.59 9.7179-21.928 7.9148-24.68-1.8392-2.8069-1.1271-4.1139 20.145-36.979 26.612-41.114 39.721-60.049 48.599-70.196 3.6689-4.1932 8.3928-9.5928 10.498-11.999l3.8267-4.375 0.009 13.75c0.023 38.167-8.676 95.769-23.241 153.89-3.8989 15.56-5.5031 16.237-10.024 4.2303-4.9669-13.192-5.7594-14.359-9.8578-14.519-2.0282-0.0793-4.3907-0.21989-5.2501-0.3125-1.04-0.09-1.58-2.32-1.58-6.4 0-3.4375-0.5125-6.25-1.1389-6.25-1.45 0-7.6111 7.269-7.6111 8.9796 0 0.70831-0.81176 0.97634-1.8039 0.59561-2.7709-1.0633-9.1744 7.1185-14.884 19.017-4.5919 9.5698-5.1414 11.751-5.5995 22.223-0.69777 15.954-0.82978 15.762 8.7697 12.722 8.2671-2.6184 24.178-2.6962 25.847-0.12635 0.43761 0.67377 2.3479 2.0285 4.2451 3.0104l3.4494 1.7854-10.508 17.59c-5.7796 9.6742-12.535 20.41-15.012 23.858-2.477 3.4477-4.5035 6.8848-4.5035 7.6378 0 0.75308-1.1732 1.9971-2.6071 2.7645-1.4339 0.76739-2.3069 1.6954-1.9401 2.0622 0.36684 0.36682 3.2135-0.75633 6.326-2.4959l5.659-3.1629 3.4686 4.327c15.317 19.107 21.999 22.934 47.914 27.438 13.988 2.431 38.17 2.1219 39.795-0.50867 0.68107-1.102 3.6345-1.4753 9.6209-1.216l8.6381 0.37419-9.8246 4.6788c-7.6666 3.6511-9.6522 5.1279-9.0401 6.7232 0.52917 1.379-0.74839 3.4512-3.9254 6.3672l-4.7099 4.3229 6.25-3.4558c3.4375-1.9007 7.9375-4.4787 10-5.7289s4.4685-2.2752 5.3466-2.2777c3.1025-0.009 38.55-18.34 49.28-25.485 30.861-20.548 46.283-38.962 81.386-97.174 10.52-17.446 21.207-34.438 23.748-37.758 9.6913-12.664 18.185-29.495 24.078-47.712 2.7382-8.4655 2.8737-8.6371 4.1654-5.2779 0.73437 1.9097 2.515 8.0972 3.957 13.75 2.5762 10.099 8.6117 30.898 15.951 54.968 2.0442 6.7044 3.3142 12.439 2.8222 12.743-0.49202 0.30408-2.2415 3.1716-3.8876 6.3724-1.6462 3.2007-5.2664 8.1729-8.045 11.049-2.7786 2.8764-10.114 12.1-16.302 20.497-11.111 15.078-16.901 20.856-9.3562 9.3369 3.1908-4.8717 1.7992-3.7832-7.7524 6.0634-6.7255 6.9332-13.052 12.343-14.983 12.812-4.9362 1.1984-10.844 6.6849-16.333 15.168-3.3725 5.2122-4.6856 8.4628-4.2804 10.597 0.38037 2.0031-0.59204 4.8404-2.7846 8.125-1.853 2.7759-4.0438 6.4533-4.8683 8.172-0.82459 1.7188-2.2064 4.1423-3.0708 5.3857-2.8018 4.0304 1.4915 5.5369 18.59 6.5231 22.865 1.3188 33.532 0.43686 41.747-3.4516 7.7936-3.6892 10.205-6.5464 17.241-20.427 8.891-17.542 9.0882-17.498 8.8639 1.9703-0.107 9.2812 0.21734 27 0.72063 39.375 1.0446 25.684-0.25447 38.18-7.5996 73.103-3.459 16.446-5.5652 23.255-10.439 33.75-11.372 24.488-23.819 58.886-41.397 114.4-10.519 33.22-18.507 56.618-20.484 60-0.80376 1.375-2.4828 5.3125-3.7312 8.75-3.4663 9.5447-11.033 23.125-12.885 23.125-0.90815 0-1.9931 0.89091-2.4109 1.9798-0.42258 1.1012-1.0986 1.436-1.5233 0.75448-0.46364-0.74404-4.937 0.16072-11.389 2.3034-7.9243 2.6318-53.048 12.76-55.301 12.412-0.1784-0.0275-1.7306-0.81006-3.4494-1.739zm61.445-95.616c3.8887-0.64649 9.6235-2.3385 12.744-3.76 3.1204-1.4215 6.4606-2.5846 7.4227-2.5846 0.96204 0 3.3835-1.4689 5.3811-3.2643 3.5906-3.2272 3.5963-3.2542 0.50693-2.3715-8.9408 2.5544-38.14 4.0067-88.75 4.4144-22.397 0.18042-25.128 1.0494-9.7583 3.1041 3.6483 0.4877 7.477 1.6222 8.5083 2.521 1.0312 0.89887 5.8125 2.2139 10.625 2.9224 9.7517 1.4355 42.396 0.83461 53.32-0.98148zm-86.83-23.76c27.387-4.9334 73.175-7.2452 100.18-5.058 16.35 1.3243 20.459 1.329 22.03 0.0251 2.0589-1.7088 2.5519-7.1334 0.88665-9.757-3.6999-5.8292-32.815-5.2172-74.672 1.5696-21.164 3.4316-51.293 10.799-56.485 13.813-1.883 1.093-2.4744 1.7013-1.3141 1.3518 1.1603-0.34949 5.379-1.2244 9.375-1.9442zm0.39579-6.4866c5.8408-2.8364 18.116-7.872 27.278-11.19 9.1619-3.3182 20.068-7.9042 24.236-10.191l7.5775-4.1581 6.3856 3.1607c7.5292 3.7268 26.331 5.4878 25.156 2.3561-0.39396-1.0499 1.3191-2.755 4.4992-4.4785 4.9837-2.7009 5.1959-2.7148 7.1869-0.47054 1.1284 1.2719 7.0236 4.9718 13.101 8.2219 10.109 5.4067 10.869 5.635 8.936 2.6844-2.419-3.6918-11.627-10.582-19.526-14.612l-5.3901-2.7498-7.8166 4.2183-7.8166 4.2184-11.082-2.8386-11.082-2.8387-10.511 4.5408c-5.7811 2.4974-18.683 7.5067-28.67 11.132-19.399 7.0408-36.216 14.897-36.216 16.918 0 2.1762 2.898 1.3497 13.755-3.9228zm94.385-58.546c-1.314-4.1402 8.1115-12.992 20.443-19.199 9.2541-4.6579 10.883-5.9517 11.425-9.0777 0.44817-2.581 1.452-3.7622 3.4375-4.045 1.5424-0.21969 2.8045-1.1912 2.8045-2.159 0-3.3834-6.4247-18.797-13.071-31.359l-6.7023-12.668-1.3636-29.832c-1.3996-30.619-3.0502-41.514-7.6583-50.547-3.0104-5.9008-7.6262-8.6116-10.542-6.1914-2.3878 1.9817-2.4454 4.6759-0.14911 6.9722 0.9696 0.9696 2.6438 4.1638 3.7205 7.0982 2.2489 6.1293 12.461 63.558 12.246 68.866-0.0788 1.9418 1.2766 7.8481 3.0118 13.125 2.7628 8.402 9.253 33.209 9.2574 35.384 0.003 0.94196-20.792 4.6669-28.651 5.1326-3.3681 0.19955-5.7507 1.0044-6.0983 2.0599-0.46526 1.413 1.3141 1.6233 9.649 1.1408l10.219-0.59159-6.3415 5.5474c-9.5828 8.3828-12.013 14.403-8.0798 20.018 2.4054 3.4342 3.4761 3.5768 2.4441 0.32534zm-187.99-15.891c-1.4736-2.534-1.8294-1.7229-0.62317 1.4204 0.42868 1.1171 1.0427 1.7678 1.3646 1.446 0.32184-0.32183-0.0113-1.6117-0.74141-2.8664zm162.03-3.5154c4.0906-1.1757 5.059-6.4528 1.7849-9.7269-2.071-2.071-4.0246-2.5713-9.4798-2.4278-3.7792 0.0994-8.726 0.95798-10.993 1.9079-4.5813 1.9197-12.247 7.9734-12.247 9.6718 0 0.60149 5.4844 1.2687 12.188 1.4826 13.002 0.415 14.377 0.34846 18.747-0.90758zm-35.89-9.7567c1.9179-2.3686 1.9012-2.9596-0.24273-8.6021-1.27-3.32-2.31-6.53-2.31-7.12 0-0.59067 3.2344-1.7184 7.1875-2.5061 10.668-2.1256 22.46-6.0776 20.312-6.8074-1.0312-0.35049-9.4995-0.98825-18.818-1.4173-16.119-0.74207-17.058-0.65291-19.308 1.8335-2.1144 2.3364-2.2167 3.3213-0.96497 9.289 0.77012 3.6715 2.6436 9.5658 4.1633 13.098 2.3437 5.4481 3.1539 6.2988 5.3385 5.6055 1.4165-0.44957 3.5022-1.9619 4.6348-3.3607zm29.079-85.552c-1.2755-13.242-5.7496-34.983-8.2936-40.302-3.0193-6.3124-7.0857-8.3593-7.0712-3.5593 0.005 1.5973 1.1298 7.5804 2.5 13.296 1.3702 5.7154 2.5308 11.903 2.5791 13.75 0.0781 2.9892 0.20379 3.0835 1.1426 0.85831 0.5801-1.375 0.82469-4.75 0.54353-7.5l-0.51119-5 1.7282 5.8948c0.95051 3.2421 2.7332 11.23 3.9614 17.752 2.313 12.281 4.427 15.253 3.4212 4.8108zm-10.275-31.061c0.06-1.4562 0.35617-1.7524 0.7552-0.75522 0.36108 0.90234 0.31668 1.9805-0.0986 2.3958-0.41536 0.41536-0.7108-0.32292-0.65652-1.6406zm-382.61 26.99c-0.73588-1.375-1.6192-2.5-1.963-2.5-0.34375 0-0.0229 1.125 0.71296 2.5 0.73587 1.375 1.6192 2.5 1.963 2.5 0.34375 0 0.0229-1.125-0.71296-2.5zm402.11-53.83c8.162-3.0838 12.125-9.5216 13.418-21.795 0.47801-4.5398 0.38121-5.2002-0.35374-2.4133-2.0597 7.8102-5.5539 11.838-13.607 15.684-7.794 3.7228-9.1496 5.5167-6.3125 8.3539 1.835 1.835 2.4125 1.8494 6.8561 0.17047zm20.92-5.858c0.39855-1.8906-0.11263-6.5312-1.1358-10.312-1.0233-3.7812-1.8671-9.2656-1.8753-12.188-0.009-3.0787-0.60346-5.3125-1.4147-5.3125-1.0053 0-1.144 4.1404-0.49204 14.688 0.49931 8.0781 1.1624 15.109 1.4736 15.625 1.1776 1.9511 2.7459 0.81271 3.4442-2.5zm17.727-5.8211c0.37117-0.96723-0.24845-4.4781-1.3769-7.802-2.2397-6.5968-1.7443-16.302 1.3593-26.631 0.91995-3.0617 1.5024-5.7369 1.2943-5.945-0.20809-0.20809-2.7492 3.5964-5.6468 8.4543-5.2639 8.8251-5.2682 8.8426-4.9783 20.32 0.15959 6.318 0.50447 11.909 0.76641 12.425 0.84669 1.6667 7.8858 0.99322 8.582-0.82113zm-342.43-13.55c-0.34676-0.85938-0.63049-0.15625-0.63049 1.5625s0.28373 2.4219 0.63049 1.5625c0.34676-0.85938 0.34676-2.2656 0-3.125zm1.25-10c-0.34676-0.85938-0.63049-0.15625-0.63049 1.5625s0.28373 2.4219 0.63049 1.5625c0.34676-0.85938 0.34676-2.2656 0-3.125zm-91.165 253.12c1.097-38.137 1.2554-85.055 0.33588-99.473-0.62298-9.7685-0.61688-9.7924 3.4203-13.404 3.416-3.0557 3.8675-4.083 2.9058-6.6124-1.238-3.256-6.9857-8.3229-9.4414-8.3229-0.84093 0-2.9438-2.7271-4.6732-6.0603-1.7293-3.3332-10.977-18.1-20.55-32.815-9.5731-14.715-17.823-27.597-18.332-28.627-0.50964-1.0297-1.74-3.2784-2.7342-4.9972-2.7074-4.6807-1.9411-24.523 1.2619-32.675 0.60419-1.5376-0.88027-3.0139-5.9434-5.9108-3.7118-2.1237-10.575-6.6858-15.252-10.138-4.68-3.46-9.17-6.28-9.99-6.28-2.0156 0-6.4399-4.9827-7.4851-8.4296-0.71017-2.3422-0.47622-2.6643 1.4188-1.9535 1.9956 0.74852 2.0624 0.59684 0.55369-1.2579-1.5498-1.9053-1.2841-2.109 2.7515-2.109 2.4569 0 7.7064 0.84375 11.666 1.875 3.9592 1.0312 8.9894 1.875 11.178 1.875h3.9796l-2.9202-9.1958c-4.3099-13.572-7.9546-34.356-9.1284-52.054-1.1473-17.299-5.2905-34.092-11.568-46.884-2.0266-4.1302-4.5068-10.599-5.5117-14.375-2.0813-7.8212-2.4851-25.705-0.60664-26.866 0.79482-0.49123 1.2525 3.0095 1.257 9.6137 0.007 12.083 1.1313 16.948 6.871 29.761 6.5386 14.597 10.394 30.449 11.88 48.845 1.9629 24.302 6.3387 44.803 13.12 61.467 0.77224 1.8977 0.11863 2.1875-4.9343 2.1875-3.2035 0-9.7571-0.89445-14.564-1.9877-4.8065-1.0932-9.5582-1.6734-10.559-1.2892-3.8568 1.48-1.1933 8.2769 3.2435 8.2769 1.135 0 5.7641 2.8014 10.287 6.2253s11.908 8.2505 16.411 10.726l8.1877 4.5005-1.9445 4.5867c-1.0695 2.5227-2.2674 9.8188-2.6622 16.214-0.65246 10.571-0.47358 11.957 1.9698 15.262 1.4781 1.9993 2.6875 3.9406 2.6875 4.314 0 0.37345 8.7986 14.282 19.552 30.907 10.754 16.625 19.786 31.121 20.071 32.213 0.28545 1.0916 2.5715 3.0969 5.08 4.4562 4.3836 2.3754 7.9044 7.0177 9.5724 12.621 0.64782 2.1764 0.15525 2.7764-2.7574 3.359-5.7136 1.1427-6.4452 4.5188-4.9487 22.838 0.947 11.592 0.90555 29.744-0.14676 64.279-0.80653 26.469-1.4568 50.516-1.445 53.438 0.0112 2.9219-0.55198 5.3125-1.2528 5.3125-0.85792 0-0.96002-10.925-0.3125-33.438zm47.935-41.042c0.06-1.4562 0.35617-1.7524 0.7552-0.75522 0.36108 0.90234 0.31668 1.9805-0.0986 2.3958-0.41537 0.41536-0.7108-0.32292-0.65652-1.6406zm69.23-148.81c-0.43464-1.9718-1.015-4.3094-1.2898-5.1948-0.27473-0.8854 0.4033-1.9563 1.5068-2.3797 1.7645-0.67709 1.7113-1.0104-0.44142-2.7652-2.2835-1.8615-5.6485-14.234-5.6534-20.786-0.004-4.8191 18.311-48.771 30.226-72.536 11.741-23.418 36.619-66.457 37.286-64.504 0.18707 0.54777-5.0594 12.49-11.659 26.538-17.663 37.598-29.37 65.695-35.644 85.542-1.304 4.125-4.686 19.031-7.5156 33.125s-5.3429 25.832-5.5851 26.085c-0.24218 0.253-0.79594-1.1532-1.2306-3.125zm-150.97-8.103c-1.9338-1.9839-4.3245-3.607-5.3125-3.607-1.8894 0-2.4589-1.9436-0.85894-2.931 0.51562-0.31822 0.59297-6.9608 0.17187-14.761-0.42108-7.8005-0.56116-14.552-0.31127-15.003 0.2499-0.45107 2.444-0.20949 4.8758 0.53684 3.3394 1.0249 4.2045 1.8374 3.5351 3.3201-1.9525 4.3247-1.9628 22.364-0.0168 29.003 1.0672 3.6407 1.8262 6.7162 1.6866 6.8345-0.13963 0.11825-1.8361-1.4081-3.7699-3.392zm71.268-6.0661c1.0006-3.8264 3.537-5.2367 8.6492-4.8091l4.7008 0.39316-6.3452 3.4375c-7.5661 4.0989-7.8304 4.1359-7.0048 0.97845zm255.01-4.6619c-1.7985-0.46732-1.2484-1.2961 2.8125-4.2378 2.7765-2.0113 5.0482-3.9678 5.0482-4.3478 0-0.38002-0.62085-0.30723-1.3797 0.16175-0.75881 0.46896-0.35258-0.71484 0.90274-2.6307 1.2553-1.9158 2.5828-6.0632 2.9499-9.2164 0.65923-5.6616 0.72196-5.7294 5.0348-5.4367 11.355 0.77052 12.128 1.2214 19.974 11.655 6.9626 9.2586 7.2512 9.8973 4.0686 9.007-1.884-0.52706-7.4013-0.95063-12.261-0.94124-7.1668 0.0139-10.08 0.66294-15.428 3.4375-6.6008 3.4246-7.5557 3.6323-11.723 2.5495zm177.86-2.585-6.875-0.5646 4.3108-1.5171c2.3951-0.84295 6.5612-4.1723 9.375-7.4921 4.7474-5.6011 5.0642-6.4662 5.0642-13.827v-7.852l10-2.1124c5.5-1.1618 11.262-2.4125 12.804-2.7792 2.7946-0.66447 2.7973-0.64987 0.75991 4.1542-1.1245 2.6516-3.0459 8.6659-4.2698 13.365-2.4565 9.4322-4.6186 12.486-11.228 15.859-5.3908 2.7514-10.866 3.5107-19.942 2.7654zm-199.2-3.4882c-12.465-4.5706-17.964-11.303-16.333-19.997 0.59683-3.1814 0.36307-4.3299-0.89321-4.3884-0.93589-0.0436-0.31756-0.63175 1.374-1.3071 1.6916-0.67531 6.051-0.85609 9.6875-0.40174 6.3177 0.78935 8.0722 1.988 5.3618 3.663-2.1411 1.3232-1.414 9.211 1.0788 11.704 3.0184 3.0184 11.013 4.5662 13.391 2.5926 2.2772-1.8899 2.3158-10.421 0.0556-12.297-1.4347-1.1907-1.6206-0.50829-1.1058 4.059 0.74197 6.5826-0.60746 7.7756-6.5696 5.8079-6.8748-2.2689-8.0249-12.435-1.2134-10.726 2.3378 0.58677 3.1134 0.28745 3.1134-1.2016 0-1.291 0.76338-1.7671 2.1875-1.3642 1.2031 0.34035 5.1406 0.99354 8.75 1.4515l6.5625 0.83273v5.4642c0 4.3462-0.80527 6.3814-3.9356 9.9466-7.0123 7.9866-12.357 9.5171-21.511 6.1605zm175.12-1.0046-7.2023-1.4262 5.9523-7.3479c3.2738-4.0413 6.6861-8.682 7.583-10.312 2.133-3.8779 2.8263-3.7451 6.1818 1.1838 3.5111 5.1575 3.5037 6.0165-0.0805 9.3837-3.205 3.011-7.0619 3.513-9.3569 1.2179-1.0612-1.0612-1.5-1.0873-1.5-0.0892 0 2.0153 3.5961 5.3393 5.7764 5.3393 3.5698 0 9.344-3.9037 10.579-7.152 1.4731-3.8745 0.46752-9.5664-2.0607-11.665-3.2468-2.6946-1.8839-3.826 4.1428-3.4393l5.9375 0.38099-0.39384 5c-0.21661 2.75-1.6229 7.5312-3.125 10.625-2.445 5.0356-3.2296 5.6661-7.4884 6.0171-2.6841 0.22124-5.0575 1.1745-5.4462 2.1875-0.37892 0.98746-1.0506 1.7341-1.4927 1.6591-0.44206-0.0749-4.0448-0.77805-8.0061-1.5625zm-88.27-12.347c22.756-22.59 42.262-57.244 52.916-94.007 3.8699-13.354 3.8744-13.57 0.365-17.357l-2.8159-3.0384-14.297 19.87c-7.8633 10.929-15.326 20.802-16.584 21.94-1.2579 1.1384 1.9148-6.6056 7.0506-17.209 15.299-31.587 21.713-54.037 22.889-80.113 0.77107-17.101-1.1582-34.672-5.4657-49.782-3.9664-13.914-14.873-35.79-23.606-47.35-3.8297-5.0692-6.7982-9.3456-6.5965-9.5032 0.2016-0.15751 1.4916-0.91472 2.8666-1.6827 2.1142-1.1808 1.5538-1.4022-3.6312-1.4344-5.9651-0.037-6.0724-0.103-3.9603-2.4369 1.9747-2.182 18.125-11.351 19.994-11.351 1.4415 0-2.9933 7.3559-5.2149 8.6499-1.2031 0.70077-1.5344 1.2912-0.73614 1.3121 1.3878 0.0364 5.9015-4.8178 8.5486-9.1932 3.3808-5.5882 42.408-8.2672 59.037-4.0526 16.292 4.1293 30.587 14.868 37.795 28.391 6.6828 12.538 9.0083 24.197 9.2038 46.143 0.15615 17.531-0.16309 20.671-3.3536 32.987-2.9488 11.383-13.701 40.467-18.496 50.032-3.475 6.9315-16.593 29.365-16.958 29-0.22824-0.22823 0.75206-3.1375 2.1784-6.4651 8.2622-19.275 14.075-49.207 13.459-69.304-0.41683-13.589-1.1389-11.855-3.981 9.5596-4.1872 31.551-17.772 67.398-39.067 103.09-22.867 38.327-47.527 64.262-77.941 81.971-4.9565 2.886-4.1955 1.8562 6.403-8.6651zm44.14-54.772c7.1928-16.873 13.478-38.732 18.848-65.557 6.997-34.949 8.5321-52.67 7.6879-88.75-1.0701-45.737-2.7036-44.402-2.7036 2.2094 0 32.539-0.43564 43.176-2.2643 55.291-5.5837 36.989-14.229 71.915-24.29 98.125-6.7908 17.692-7.1346 18.761-4.8231 15 1.0563-1.7188 4.4514-9.0617 7.5447-16.318zm10.669-4.3073c0-0.6875-0.54526-0.40625-1.2117 0.625-0.66645 1.0312-1.2117 2.4375-1.2117 3.125s0.54526 0.40625 1.2117-0.625c0.66645-1.0312 1.2117-2.4375 1.2117-3.125zm12.154-27.89c17.049-41.813 23.711-69.349 25.007-103.36 1.1228-29.471-2.5396-61.809-9.5729-84.526-3.0185-9.7492-9.8914-21.539-12.893-22.117-1.8955-0.36504-1.7684 0.2288 0.88561 4.1397 6.2842 9.2602 11.803 28.388 15.148 52.503 3.1244 22.523 2.8821 59.518-0.51376 78.444-4.8486 27.023-11.975 51.839-24.057 83.775-3.366 8.897-6.0951 16.538-6.0647 16.979 0.12262 1.7813 5.471-9.6768 12.061-25.838zm-0.0125-165.47c-0.39902-0.99716-0.69522-0.70097-0.7552 0.75522-0.0543 1.3177 0.24117 2.056 0.65653 1.6406 0.41536-0.41536 0.45976-1.4935 0.0986-2.3958zm-322 261.58c-2.5044-1.5852-3.6137-10.929-4.5368-38.215-0.90037-26.614-0.57192-28.783 9.6378-63.645 20.735-70.802 70.432-173.04 98.333-202.29 4.9565-5.1968 6.4205-5.7554 6.5513-2.5 0.0747 1.8603 0.24046 1.8135 1.1081-0.3125 0.56111-1.375 0.58196-2.974 0.0464-3.5533-1.5946-1.7247-5.5449 1.1536-12.111 8.8244-14.311 16.719-27.33 38.034-45.919 75.179-25.093 50.143-44.399 99.509-54.818 140.18-1.6768 6.5446-2.8905 9.5016-3.1602 7.6998-0.8337-5.5696 2.2838-62.131 4.1449-75.2 4.169-29.277 11.932-59.756 19.261-75.625 1.9051-4.125 4.9933-10.816 6.8625-14.869 3.2084-6.9566 8.0219-13.167 22.623-29.189 7.21-7.91 26.52-22.82 29.56-22.82 1.1298 0 2.3464-0.76142 2.7035-1.692 0.35712-0.93062 5.0579-4.275 10.446-7.432 26.394-15.464 53.109-23.881 68.48-21.576l5.7834 0.86728-8.8935 9.5231c-43.958 47.07-109.08 151.86-141.43 227.59-2.7418 6.4173-4.7413 11.912-4.4433 12.21 0.29795 0.29793 2.1221-3.2617 4.0536-7.9104 5.6952-13.706 29.676-60.662 41.662-81.577 33.715-58.828 79.006-124.68 102.11-148.48l10.292-10.598 3.9882 2.3493c6.8511 4.0358 8.2229 6.3512 7.9204 13.368-0.16453 3.8162 0.3146 6.7446 1.1922 7.287 1.1075 0.68445 1.0575 1.6724-0.20353 4.0288-0.91895 1.7171-1.3283 4.0145-0.90975 5.1053 0.65777 1.7141 2.5949 1.872 14.272 1.1628 13.031-0.79147 13.632-0.71465 16.919 2.1635 1.8745 1.6412 4.6434 6.3591 6.1531 10.484 2.3436 6.4034 2.7521 10.15 2.7939 25.625 0.0417 15.481-0.38142 19.584-2.9006 28.125-5.3186 18.032-19.252 50.783-37.184 87.403-2.3828 4.866-3.4562 7.7419-2.3853 6.3907 1.0709-1.3511 8.8636-16.257 17.317-33.125 10.698-21.347 17.221-36.178 21.459-48.793 5.8571-17.437 6.1085-18.768 6.6179-35.067 0.585-18.718-1.0978-28.534-6.5704-38.325-1.8193-3.255-2.4157-5.3568-1.5198-5.3558 2.1669 0.002 25.913 5.8511 29.849 7.352 3.8286 1.4598 5.1802 5.2813 8.0097 22.646 2.3228 14.255 2.2328 47.97-0.1709 64.071-2.5288 16.938-8.5343 39.701-12.986 49.221-3.2924 7.0412-18.941 33.165-21.614 36.083-1.3285 1.45-0.0311-2.0476 4.5724-12.327 3.592-8.0205 9.4396-27.186 9.4396-30.938 0-4.5688-4.2882-2.5328-7.5022 3.5619-5.7946 10.989-32.046 45.599-48.526 63.977l-6.0742 6.7738-7.5941-4.6132-7.5941-4.6132 9.1146-19.036c5.013-10.47 11.662-25.504 14.775-33.411 6.4966-16.498 20.922-58.302 20.857-60.44-0.0241-0.78909-4.376 8.6903-9.6708 21.065-10.071 23.538-29.593 63.516-28.383 58.125 0.38566-1.7188 2.3452-10.438 4.3546-19.375 6.5373-29.078 13.507-62.372 14.262-68.125 2.1732-16.573 3.1525-31.589 3.3303-51.067 0.18862-20.66 0.0704-21.819-2.4869-24.375-2.5488-2.5472-2.8641-2.5805-6.218-0.6575-2.4817 1.4229-4.1716 1.6684-5.6791 0.82471-3.7984-2.1257-7.844 0.0901-14.759 8.0836-12.929 14.946-26.341 34.065-52.821 75.3-54.037 84.145-77.448 131.29-94.048 189.41-2.5508 8.9296-4.9358 16.227-5.3 16.217-0.36423-0.01-1.46-0.52405-2.4349-1.1412zm9.18-72.59c0.58093-2.1718 0.48254-2.5531-0.3226-1.25-0.63717 1.0312-1.5346 3.2812-1.9944 5-0.58094 2.1718-0.48254 2.5531 0.3226 1.25 0.63716-1.0312 1.5346-3.2812 1.9944-5zm60.678-145.62c0-0.6875-0.54526-0.40625-1.2117 0.625-0.66645 1.0312-1.2117 2.4375-1.2117 3.125s0.54526 0.40625 1.2117-0.625c0.66645-1.0312 1.2117-2.4375 1.2117-3.125zm18.684-38.75c0-0.6875-1.0778 0.71875-2.3952 3.125s-2.3952 4.9375-2.3952 5.625 1.0778-0.71875 2.3952-3.125 2.3952-4.9375 2.3952-5.625zm16.233-33.75c0-0.6875-1.9142 2.4062-4.2537 6.875s-4.2537 8.6875-4.2537 9.375 1.9142-2.4062 4.2537-6.875 4.2537-8.6875 4.2537-9.375zm3.833-8.75c0-0.6875-0.54526-0.40625-1.2117 0.625-0.66645 1.0312-1.2117 2.4375-1.2117 3.125s0.54526 0.40625 1.2117-0.625c0.66645-1.0312 1.2117-2.4375 1.2117-3.125zm125.3 296.56c-1.3633-2.2333-4.2795-6.4512-6.4804-9.373-3.7216-4.9407-3.8192-5.3125-1.3936-5.3125 4.3846 0 2.9203-2.061-3.3294-4.6862-8.2485-3.4647-8.9739-3.5899-38.438-6.6332-26.31-2.7174-44.251-2.7105-56.134 0.0217l-4.8844 1.123 3.0094-2.9127c1.6551-1.602 9.091-8.5404 16.524-15.419l13.515-12.506 7.6306 3.1006c8.8062 3.5783 34.364 16.39 41.323 20.714 2.603 1.6175 4.2905 3.3897 3.75 3.9383-0.54049 0.54856-0.13896 0.82059 0.89229 0.60449 1.9092-0.40007 9.9254 3.869 19.93 10.614 3.0551 2.0597 6.5368 3.8173 7.737 3.9057s4.1468 1.2188 6.5479 2.5118l4.3657 2.3511-2.4649 3.4617c-1.3557 1.9039-4.075 4.6082-6.0429 6.0094l-3.578 2.5477-2.4788-4.0605zm-37.12-30.38c-10.318-1.9551-40.493-2.4301-38.672-0.60867 1.124 1.124 13.837 1.852 37.422 2.1432l10 0.1235-8.75-1.658zm-59.443 29.606c-3.0565-1.9701-7.191-5.3259-9.1879-7.4575l-3.6306-3.8755 3.0922-1.1756c6.1561-2.3405 9.082-2.1971 9.4995 0.46565 0.98581 6.2873 1.7555 8.1838 4.7804 11.779 4.0407 4.8021 2.615 4.8849-4.5535 0.26436zm119.36-21.89c-0.50202-2.0002-2.9645-4.0922-7.5445-6.4095-5.8865-2.9783-6.5917-3.7123-5.253-5.4681 2.3145-3.0357 11.903-12.653 12.615-12.653 0.34102 0 2.4025 2.7777 4.5811 6.1728 2.1786 3.395 4.5684 6.3752 5.3106 6.6226 1.1196 0.37321-7.2029 14.705-8.5392 14.705-0.23332 0-0.75958-1.3362-1.1695-2.9694zm122.58-5.2c16.418-4.047 16.955-4.3051 7.9564-3.8273l-8.2936 0.44035 6.4186-5.4764c9.0544-7.7253 29.636-23.297 30.101-22.774 0.21409 0.2401 0.105 6.0615-0.2425 12.937l-0.63174 12.5-18.279 3.6555c-20.942 4.188-27.931 5.2326-17.029 2.5455zm-247.68-18.07c4.906-8.2072 9.4826-14.917 10.17-14.911 0.6875 0.006 2.8602 0.69866 4.8283 1.5393l3.5783 1.5284-11.554 12.209c-6.3548 6.7148-12.542 12.737-13.748 13.383-1.2442 0.66589 1.6675-5.2858 6.726-13.748zm96.101 3.1335c-6.3628-4.5537-13.613-9.1335-16.111-10.177-2.4982-1.0438-8.3248-4.5542-12.948-7.801l-8.4057-5.9031 11.892-15.57c6.5409-8.5636 15.817-21.476 20.614-28.695 4.7967-7.2188 8.3668-12 7.9336-10.625-0.77334 2.4545-0.75369 2.4561 1.0796 0.0883 6.1909-7.9958 20.272-39.729 27.348-61.628 7.1423-22.107 8.6238-32.749 8.0961-58.155-0.53052-25.546-0.68352-25.45 9.4188-5.9301 12.23 23.631 16.104 40.988 16.182 72.5 0.0574 23.316-1.2007 30.847-9.3979 56.25-4.7647 14.766-22.097 55.34-24.791 58.034-0.83031 0.83031-4.3789-1.8625-10.607-8.0491-5.1476-5.1132-9.3593-8.6936-9.3593-7.9564 0 0.73726 3.0916 6.2648 6.8702 12.283 3.7786 6.0186 6.4811 11.589 6.0056 12.378-0.47551 0.78943-2.864 4.032-5.3077 7.2058s-5.0056 6.729-5.6931 7.9006c-1.102 1.8779-2.6197 1.1498-12.819-6.1494zm43.45-0.64c0-0.68551-2.0308-3.4942-4.5128-6.2415l-4.5128-4.9952 9.5633-10.166c5.2598-5.5912 12.75-14.573 16.646-19.959 3.8954-5.386 7.256-9.6194 7.468-9.4074 1.1588 1.1588-22.343 52.015-24.037 52.015-0.33801 0-0.61456-0.56088-0.61456-1.2464zm-418.12-7.19c-5.45-13.34-15.63-49.53-15.63-55.52 0-2.0647 1.3002-0.64252 4.6875 5.1274 2.5781 4.3915 9.2451 12.745 14.815 18.564l10.128 10.579-4.2331 7.0298c-2.3282 3.8664-4.8654 9.1404-5.6383 11.72-1.5374 5.1314-2.7602 5.8716-4.1343 2.5028zm327.82-21.999c-2.5714-1.4785-4.6719-2.9694-4.6678-3.3131 0.004-0.34375 4.265-5.4062 9.4687-11.25s14.86-17.788 21.458-26.544c6.598-8.7552 12.227-15.687 12.51-15.405 1.8532 1.8532-28.711 55.902-33.15 58.622-0.51846 0.31765-3.0465-0.63209-5.6179-2.1105zm-349.56-73.44c-3.1777-3.991-5.8731-9.2132-7.2044-13.958-1.5595-5.5579-2.3491-6.9489-2.9585-5.2118-0.63981 1.824-1.2845 0.93638-2.7996-3.8543-2.5253-7.9852-4.1375-24.938-2.2613-23.779 0.73609 0.45492 1.3383 2.2948 1.3383 4.0885 0 7.9275 2.7395 18.862 4.8649 19.418 1.4157 0.37022 2.7172 2.9296 3.8134 7.4994 0.91534 3.8155 2.8528 8.4279 4.3055 10.25l2.6412 3.3124 0.005-27.882c0.005-30.779-0.46679-27.796 11.78-74.453 7.5491-28.759 9.3089-42.722 9.333-74.054 0.0184-23.927-0.28171-27.96-2.7362-36.762-1.5166-5.4381-2.7572-12.251-2.7572-15.139 0-3.5467-1.683-8.8434-5.1831-16.313-7.8888-16.834-7.7543-25.24 0.38507-24.069 2.9913 0.43029 4.029 2.0929 8.78 14.068 2.6855 6.7689 3.7821 7.9768 12.683 13.97 8.4073 5.6608 28.929 16.746 31.003 16.746 0.38432 0 1.0689-7.7344 1.5213-17.188 0.45238-9.4531 1.3617-24.5 2.0206-33.438 0.65896-8.9375 1.219-24.284 1.2446-34.103 0.0576-22.148 1.3987-26.522 8.1318-26.522 4.448 0 4.4839 0.0447 10.7 13.322 3.4302 7.3273 6.4887 13.07 6.7967 12.762 0.30799-0.308 1.1645-13.194 1.9034-28.635 0.73888-15.441 2.162-35.813 3.1624-45.272 1.0313-9.7503 1.4866-21.129 1.0514-26.277-0.84511-9.9978 0.5212-12.727 5.975-11.935 2.2665 0.32927 3.4576 2.2542 6.1441 9.9293 5.5297 15.798 15.117 27.999 39.796 50.643 8.5187 7.8164 15.957 14.212 16.53 14.212 0.57281 0-0.70144-2.9531-2.8317-6.5625-2.1302-3.6094-7.8041-14.637-12.609-24.506-7.5776-15.565-8.5547-18.34-7.3712-20.938 1.0398-2.2821 2.3494-2.9943 5.506-2.9943 3.5343 0 5.6005 1.4912 14.089 10.169 17.383 17.77 37.125 32.02 65.116 47.001l13.918 7.4494-0.43735-4.4974c-1.2127-12.471-1.5211-35.624-0.50991-38.284 1.2451-3.2748 6.2246-5.1994 9.0915-3.5139 0.98255 0.57766 4.4698 4.4253 7.7495 8.5503 10.002 12.58 24.781 27.018 25.882 25.285 0.5363-0.84421 0.98372-4.2068 0.99424-7.4724 0.0138-4.2526 0.72855-6.6469 2.5191-8.4375 5.0094-5.0094 7.7964-2.6835 12.956 10.812 4.2017 10.991 10.58 21.585 19.311 32.078 5.1896 6.2366 7.2433 7.8673 9.3911 7.4568 1.8081-0.34563 4.8385 1.07 8.8538 4.1359l6.1048 4.6614-0.72327-3.6348c-0.39778-1.9991-1.7194-10.844-2.9368-19.656-2.3741-17.183-1.9597-19.875 3.1771-20.637 3.7302-0.55331 5.5418 1.1945 10.587 10.215 5.0275 8.9883 10.097 15.604 15.332 20.009l3.7403 3.1473-0.48806-3.9814c-0.26842-2.1898-1.2907-9.6786-2.2716-16.642-0.98095-6.9632-1.7836-15.147-1.7836-18.186 0-3.7371-1.6119-9.1465-4.9806-16.715-4.812-10.81-6.3284-16.159-3.8634-13.627 0.63579 0.65312 3.4483 6.4159 6.25 12.806 3.8123 8.6951 5.0953 13.256 5.0991 18.125 0.002 3.5785 0.79497 11.569 1.7605 17.756 2.7816 17.827 3.4971 25.625 2.3508 25.625-1.7302 0-15.942-15.132-20.264-21.576-2.1954-3.2732-4.8116-7.9138-5.8138-10.312-1.1922-2.8533-2.6593-4.3612-4.2433-4.3612-2.775 0-4.9542 3.1601-4.217 6.115 0.93296 3.7397 6.3358 39.507 6.0247 39.884-0.16984 0.20555-4.061-2.4663-8.6471-5.9375s-8.5898-6.3112-8.8971-6.3112c-0.30734 0-0.5588 0.79595-0.5588 1.7688 0 2.0911 8.5006 9.7832 18.175 16.446 6.0349 4.1564 7.1237 4.5226 8.715 2.9314 1.4486-1.4486 1.5534-2.7782 0.51529-6.5379-0.71671-2.5957-2.0342-8.924-2.9279-14.063l-1.6247-9.3432 7.6364 7.6841c4.2 4.2263 10.558 9.6393 14.128 12.029 4.3966 2.9425 6.7364 5.4585 7.2497 7.7958 0.92934 4.2312 4.9833 8.7767 7.8698 8.8239 1.3562 0.0223 4.2979 3.8326 8.0392 10.413 10.182 17.909 21.085 32.134 36.6 47.75 12.996 13.081 42.6 37.744 43.83 36.514 0.23317-0.23317-7.2014-7.4357-16.521-16.006-24.89-22.87-39.41-38.61-49.43-53.56-10.22-15.25-18.53-31.62-18.53-36.49 0-1.8428-0.7883-4.0048-1.7518-4.8044-2.8273-2.3465-10.04-33.852-7.7502-33.852 0.32128 0 3.3954 4.6406 6.8314 10.312 13.155 21.715 29.011 38.36 49.236 51.684 4.6933 3.092 18.031 10.637 29.64 16.766 54.773 28.92 80.269 47.881 95.624 71.114 8.9321 13.515 12.328 22.576 12.93 34.498 0.27755 5.5 1.003 10.614 1.6122 11.365 1.6842 2.0756-0.0139 3.0028-5.6416 3.0805-10.821 0.14958-18.861 5.8891-11.871 8.4747 2.3629 0.8741 2.4742 1.1558 0.72231 1.8281-1.527 0.58597-2.726-0.48905-4.5641-4.092-1.3712-2.6877-2.3091-5.6224-2.0844-6.5215 0.22476-0.89915 0.18929-1.2626-0.0789-0.80776-0.26813 0.45487-4.3166-3.002-8.9966-7.682-14.261-14.261-33.281-21.316-57.241-21.231-10.469 0.0368-27.209 1.688-31.762 3.1329-1.7164 0.54475-2.396-0.59825-3.5294-5.9359-1.957-9.2164-10.105-25.153-17.579-34.383-8.7664-10.826-20.723-20.55-46.87-38.119-41.52-27.898-66.4-49.64-76.221-66.609-6.2522-10.802-5.2112-11.185 6.0465-2.2216 5.8521 4.6594 13.067 9.8164 16.033 11.46 4.7097 2.6102 3.6473 1.1859-8.3912-11.25-17.608-18.189-27.772-33.638-30.079-45.719-0.41809-2.1894-1.8189-4.9389-3.1129-6.11-3.6294-3.2846-6.1497-0.39121-6.1497 7.06 0 5.8415-1.9932 12.406-3.7669 12.406-1.3646 0-22.567-22.36-28.743-30.312-5.9241-7.628-7.3923-8.3566-10.526-5.2232-2.1643 2.1643-2.2896 6.3912-0.9149 30.849 0.45408 8.0788 0.3897 14.688-0.14309 14.688-1.5424-0.002-16.88-7.9519-27.781-14.4-21.52-12.726-36.48-23.896-50.58-37.762-7.88-7.748-14.73-14.088-15.22-14.088-0.97 0-4.83 3.577-4.83 4.479 0 0.30273 4.5622 9.6613 10.138 20.797 13.606 27.172 23.034 40.974 27.989 40.974 1.4041 0-0.69446-4.8554-5.5602-12.865-5.6661-9.3266-14.152-25.967-13.55-26.569 0.23503-0.23503 4.3493 2.7283 9.1427 6.5851 19.126 15.389 40.627 26.849 60.041 32.003l11.159 2.9622 1.7044 6.1292c1.98 7.13 4.57 10.51 8.04 10.51 2.0563 0 2.3417-0.60406 1.7301-3.6621-0.41037-2.0518-0.16995-3.8496 0.54673-4.0885 0.86073-0.28691 0.83339-1.5989-0.0835-4.0107-0.74951-1.9713-1.7138-10.51-2.1428-18.975l-0.78004-15.391 6.6458 6.1418c3.6552 3.378 10.491 8.1622 15.19 10.632l8.5439 4.4897v13.455c0 13.891 1.7563 22.578 6.4133 31.721 2.7138 5.328 2.7594 5.3112-7.8982 2.9093-7.9937-1.8015-15.857-2.8353-48.515-6.3779-43.17-4.683-78.152-15.589-88.762-27.674-4.3077-4.9062-5.0393-3.2588-1.0444 2.3516 9.8853 13.883 43.467 24.271 98.046 30.331 52.079 5.7821 50.518 5.2074 64.26 23.648 5.8438 7.8418 10.82 14.07 11.059 13.84 0.2385-0.22954-3.5642-9.0706-8.4505-19.647l-8.8842-19.229-1.8486-17.42c-1.0167-9.5811-1.8546-19.916-1.862-22.966l-0.0134-5.5461 4.7841 8.0461c2.6312 4.4253 5.4756 11.243 6.3208 15.149 4.2129 19.474 30.931 44.778 86.844 82.249 30.971 20.755 44.025 34.485 52.91 55.648 1.4432 3.4375 2.9999 8.5526 3.4593 11.367l0.83525 5.117-7.3706 2.6874c-10.316 3.7613-22.375 11.87-25.48 17.131-1.4368 2.4352-2.9717 4.2634-3.4108 4.0625-0.43914-0.20082-3.8852-1.8976-7.658-3.7706-11.025-5.4733-21.606-7.7289-36.544-7.7898l-13.434-0.0548 0.26792-9.0139c0.24371-8.1994-0.0671-9.4889-3.4406-14.271-2.3911-3.3897-6.5947-6.8482-11.834-9.7361l-8.125-4.4789-16.25 0.0405c-14.742 0.0367-17.059 0.36026-24.965 3.486-20.387 8.0598-39.445 19.246-57.09 33.51-4.5677 3.6924-11.516 8.6822-15.44 11.088-8.4634 5.1896-22.655 19.747-29.351 30.106l-4.785 7.4033-3.7456-6.5674c-11.166-19.579-27.224-30.594-76.141-52.232-20.633-9.1271-30.695-14.714-40.834-22.672-5.5938-4.3908-6.1181-6.3277-1.0045-3.7116 1.1579 0.59239 3.7928 1.4324 5.8553 1.8668 2.3496 0.49478 0.59215-0.85098-4.7059-3.6036l-8.4559-4.3933 1.9856-3.8397c2.3668-4.577 1.0901-6.6904-1.6129-2.6698-2.8763 4.2783-4.0671 3.4076-4.2736-3.125l-0.18775-5.9375-0.74975 5.4285-0.74976 5.4285-2.6808-2.9285c-3.4825-3.8042-7.9442-12.283-7.9442-15.097 0-1.2133-0.60719-2.206-1.3493-2.206-0.84893 0-1.0439 1.3906-0.52567 3.75 0.453 2.0625 0.50344 3.75 0.11212 3.75-1.3324 0-9.3401-13.111-10.218-16.73l-0.87424-3.6046 7.7873 5.2882c20.835 14.148 56.793 25.617 115.69 36.899 13.062 2.5021 26.844 5.4312 30.625 6.5091 9.3894 2.6767 19.947 8.1726 23.931 12.457 3.5319 3.7989 6.0074 11.681 3.6686 11.681-0.74214 0-1.3493 0.59986-1.3493 1.333 0 0.73316 1.5469 1.155 3.4375 0.9375 2.5655-0.29519 4.0333-1.6156 5.7863-5.2051 4.7172-9.6594-1.8294-18.817-19.295-26.989-10.905-5.1029-22.65-7.9375-49.304-11.9-27.84-4.1388-59.46-10.81-74.712-15.762-19.465-6.3202-49.56-22.423-56.131-30.033-1.151-1.3331-3.2921-6.0279-4.7579-10.433-2.9046-8.7283-4.7906-11.138-7.4376-9.5018-2.5768 1.5926-0.93833 8.8097 4.8094 21.184 3.4098 7.341 5.192 13.12 5.6264 18.244 0.34965 4.125 1.4947 11.156 2.5446 15.625 2.8737 12.232 3.665 33.35 2.0654 55.122-1.803 24.542-3.3818 33.444-11.221 63.263-9.6148 36.576-10.642 43.04-10.485 65.989 0.0831 12.126 0.82842 23.076 1.8931 27.812 0.9658 4.2969 1.3367 7.8125 0.82415 7.8125-0.5125 0-3.2166-2.8695-6.009-6.3767zm563.22-155.95c0.91572-10.923-1.471-18.381-9.9284-31.026-16.091-24.058-43.327-43.16-98.522-69.1-26.385-12.4-42.187-22.078-48.903-29.95l-3.8141-4.4708 2.3392 4.2075c5.1181 9.2057 14.961 15.965 46.089 31.65 63.919 32.208 84.93 47.011 100.76 70.989 7.7618 11.759 10.359 20.352 9.5536 31.608-0.41715 5.8302-0.23399 8.1042 0.5412 6.719 0.64446-1.1516 1.4937-5.9338 1.8872-10.627zm-177.67-6.5627c2.8158-5.4453 3.753-16.4 1.8052-21.102-2.9464-7.1134-17.834-19.371-31.669-26.075-23.25-11.26-73.2-26.02-129.58-38.26-41.464-9.0072-58.717-14.637-69.64-22.723-3.4514-2.5551-4.1233-2.7888-2.478-0.86202 6.2422 7.3102 27.023 14.956 62.192 22.884 42.335 9.5424 82.085 19.921 106.18 27.721 26.39 8.5447 52.824 24.325 60.181 35.925 3.1551 4.9751 3.4905 6.4123 2.791 11.959-0.43729 3.4672-1.5375 8.1321-2.445 10.366-2.1056 5.1845 0.007 5.3205 2.6703 0.17185zm27.304-1.5135c4.4505-5.9867 3.6815-16.966-1.9901-28.411-18.07-36.5-59.3-58.55-132-70.61-31.54-5.23-87.39-24.67-111.73-38.88-14.645-8.5542-29.896-23.774-32.87-32.803-2.3399-7.1042-2.0322-18.323 0.71908-26.215l1.3295-3.8139 7.7107 5.9987c8.7514 6.8083 20.212 13.683 29.139 17.48 4.7089 2.0028 5.3802 2.0993 2.9911 0.43022-10.564-7.381-17.457-13.342-31.784-27.49-23.192-22.902-30.544-33.054-34.456-47.585-1.0684-3.9677-1.9931-5.2513-3.5613-4.9436-1.709 0.33541-2.0851 1.739-1.9469 7.2658 0.0942 3.7676-0.6424 15.85-1.637 26.85-0.99456 11-2.4779 34.625-3.2963 52.5l-1.488 32.5-5.7876-10c-3.1832-5.5-6.7854-12.698-8.0048-15.996-2.7209-7.3586-5.793-9.4181-9.1064-6.1047-2.0901 2.0901-2.4225 5.421-3.2146 32.216-0.48589 16.437-1.4033 35.229-2.0386 41.76-0.63536 6.5312-1.1704 16.991-1.1891 23.244-0.0289 9.6844 0.32485 11.693 2.3874 13.56 2.3747 2.149 5.8149 1.6486 4.4004-0.64008-0.39553-0.63999 0.0416-1.1636 0.97148-1.1636 2.1281 0 6.0487-45.176 5.9937-69.062-0.0202-8.7656 0.38513-15.936 0.90075-15.935s2.4827 2.3918 4.3713 5.3125c4.881 7.5482 14.248 17.263 19.209 19.922 3.5666 1.9116 5.7154 1.6634 3.6324-0.41955-0.32979-0.32977-0.84065-14.908-1.1353-32.396-0.29-17.49-0.93-43.326-1.42-57.42l-0.89051-25.625 5.0389 7.6815 5.0389 7.6815-1.1653 17.943c-1.8775 28.909 0.3049 48.138 7.6038 66.997 9.6433 24.916 33.27 51.806 61.285 69.75 10.582 6.7779 36.109 19.879 36.999 18.989 0.32087-0.32089-3.341-2.9149-8.1376-5.7645-25.312-15.038-59.751-46.309-72.406-65.747-13.36-20.52-17.63-37.04-18.58-71.91l-0.66442-24.375 6.8553 6.6724 6.8553 6.6724-2.5413 6.4526c-1.6958 4.3057-2.5777 9.5717-2.6506 15.828-0.0953 8.1692 0.36718 10.235 3.5955 16.064 4.8364 8.7316 19.089 21.914 31.092 28.757 13.215 7.5346 33.782 16.554 52.864 23.183 8.8488 3.074 15.203 5.6244 14.12 5.6675-4.0453 0.16103-29.84-4.9834-40.552-8.0877-12.593-3.6494-27.674-11.083-35.758-17.625-3.6746-2.9739-3.0698-2.1573 1.8416 2.4867 15.076 14.255 34.866 21.355 90.949 32.629 46.739 9.3955 67.136 14.689 83.077 21.562 30.913 13.327 55.253 32.51 65.395 51.539 4.7866 8.9806 6.9667 21.517 3.5434 20.376-2.2872-0.76241-2.4286 3.906-0.16831 5.5599 3.661 2.6789 9.2591 1.5312 12.267-2.515zm-263.73-113.97c-1.1262-1.7188-2.2973-3.125-2.6026-3.125-0.61258 0 0.56624 2.2644 2.4402 4.6875 2.1523 2.7829 2.2697 1.6536 0.16237-1.5625zm-4.6562-9.6094c-0.39903-0.99716-0.69523-0.70097-0.7552 0.75522-0.0542 1.3177 0.24116 2.056 0.65652 1.6406 0.41537-0.41537 0.45977-1.4935 0.0986-2.3958zm-1.24-11.96c-0.31-1.2-0.57-0.22-0.57 2.19 0 2.4062 0.25725 3.3906 0.57166 2.1875 0.3144-1.2031 0.3144-3.1719 0-4.375zm1.2422-36.797c-0.39903-0.99717-0.69523-0.70098-0.7552 0.7552-0.0542 1.3177 0.24116 2.056 0.65652 1.6406 0.41537-0.41537 0.45977-1.4935 0.0986-2.3958zm236.38-4.13c-4.6022-16.909-4.3265-19.671 0.92836-9.3005 2.7072 5.3425 3.0425 7.1378 2.1589 11.562l-1.046 5.238-2.0414-7.5zm0.46-19.38c-3.0065-5.1305-3.9295-8.0644-3.6374-11.562 0.21526-2.5781-0.0454-4.6875-0.57915-4.6875-0.5338 0-0.97054 0.84375-0.97054 1.875 0 3.8256-2.0744 1.6501-5.9817-6.2737-2.21-4.481-4.02-8.452-4.02-8.823 0-1.7955 2.7988 1.4077 5 5.7225 1.8287 3.5846 3.3554 4.9329 5.9196 5.2277 3.1227 0.359 3.4206 0.81845 3.0949 4.7722-0.38889 4.7202 2.885 13.395 5.2844 14.002 0.91301 0.23099 1.1775 1.5617 0.69529 3.4978-0.72848 2.9246-1.0367 2.6841-4.8072-3.75z"/>
</svg>
