<?xml version="1.0" encoding="UTF-8" standalone="no"?>
<!-- Created with Inkscape (http://www.inkscape.org/) -->
<svg id="svg3376" xmlns:rdf="http://www.w3.org/1999/02/22-rdf-syntax-ns#" xmlns="http://www.w3.org/2000/svg" height="1062.5" viewBox="0 0 1062.5 1062.5" width="1062.5" version="1.1" xmlns:cc="http://creativecommons.org/ns#" xmlns:dc="http://purl.org/dc/elements/1.1/">
 <metadata id="metadata3382">
  <rdf:RDF>
   <cc:Work rdf:about="">
    <dc:format>image/svg+xml</dc:format>
    <dc:type rdf:resource="http://purl.org/dc/dcmitype/StillImage"/>
    <dc:title/>
   </cc:Work>
  </rdf:RDF>
 </metadata>
 <path id="path3386" fill="#fff" d="m542.34 944.16c-2.55-4.7-8.45-15.28-13.11-23.54-27.81-49.18-61.59-113.84-64.33-123.12-1.6893-5.7138-10.893-21.424-12.973-22.145-1.1269-0.3904-4.4962-3.0207-7.4874-5.8451l-5.4385-5.1353 0.68897 5c1.8253 13.247 2.0516 22.623 0.92118 38.163-1.5501 21.309-8.4749 54.512-10.87 52.117-0.38032-0.38033 1.0518-8.3151 3.1826-17.633 5.2052-22.762 7.1524-46.937 5.2176-64.776-0.80435-7.4161-1.7873-14.33-2.1843-15.365-1.2592-3.2815 1.2087-2.0404 8.7094 4.38 4.0088 3.4314 8.2508 6.942 9.4266 7.8014 1.1758 0.85935 3.6078 4.0937 5.4043 7.1874 1.7965 3.0938 4.41 6.9362 5.8078 8.5387 1.3978 1.6026 2.2606 3.6456 1.9173 4.54-1.3044 3.3992 28.882 62.619 57.34 112.49 14.511 25.43 24.036 44.251 22.945 45.342-0.29007 0.29008-2.6132-3.3119-5.1625-8.0045zm162.94 6.1633c-3.3475-3.9278-13.172-22.037-15.431-28.445-1.2122-3.4375-2.4742-11.172-2.8045-17.188-0.33022-6.0156-0.77215-10.938-0.98206-10.938s-4.5005 0.57266-9.5346 1.2726c-6.0694 0.84386-13.104 0.86365-20.881 0.0587-10.306-1.0666-13.49-2.0471-26.25-8.0823-7.9869-3.7776-21.834-9.699-30.772-13.159-31.96-12.371-69.551-32.428-97.659-52.105-7.1799-5.0265-12.828-8.7388-12.551-8.2496 0.27711 0.48921 8.9291 15.514 19.227 33.389 27.779 48.22 34.587 61.364 30.464 58.816-0.62885-0.38865-4.6374-7.3125-8.908-15.386-6.6544-12.581-43.958-77.357-49.835-86.536-1.2788-1.9974 1.8048-0.16464 8.636 5.133 33.397 25.899 76.484 49.645 118.75 65.445 5.1562 1.9275 14.719 6.013 21.25 9.0788 16.508 7.7489 20.517 9.0456 30.579 9.8892 7.9574 0.66716 23.602-0.86894 28.674-2.8155 1.7255-0.66213 1.997 0.57591 1.997 9.1048 0 13.722 2.6611 22.607 11.462 38.269 7.1002 12.636 8.8936 17.522 4.5688 12.447zm2.6596-4.5394c-4.6654-10.547-6.7239-22.845-6.721-40.156 0.001-11.192 0.52119-17.188 1.6685-19.264 0.91619-1.6576 6.7642-10.095 12.996-18.75 14.671-20.377 27.398-40.003 36.422-56.168l7.2195-12.932 4.5501 4.3716c9.8552 9.4687 34.339 22.806 48.48 26.41 4.2242 1.0765 12.38 1.9826 18.125 2.0136 6.1057 0.033 12.002 0.77188 14.195 1.7787 3.4687 1.5931 2.9999 1.6805-6.25 1.1644-27.032-1.5083-31.373-2.5134-48.544-11.239-10.185-5.1756-24.561-14.535-27.767-18.078-2.0812-2.2996-2.4078-1.931-9.3504 10.553-7.7522 13.94-20.368 33.164-38.534 58.715l-11.44 16.08v12.758c0 14.856 1.3971 23.828 5.8175 37.359 3.5946 11.003 3.0597 14.289-0.87736 5.389zm-169.16-18.82c-6.6443-12.703-15.672-29.515-20.062-37.361-4.39-7.8455-15.974-29.386-25.742-47.867-9.77-18.48-19.39-36.56-21.38-40.17s-3.37-6.56-3.07-6.56c0.71432 0 9.3592 14.458 27.402 45.828 7.9725 13.862 19.497 32.987 25.61 42.5 6.1127 9.5134 12.05 19.125 13.193 21.36 3.5927 7.0194-0.0901 4.4145-4.8599-3.4375-2.5058-4.125-4.7291-7.5-4.9406-7.5-0.21152 0 5.8649 12.339 13.503 27.421 7.6383 15.081 13.559 27.749 13.157 28.151-0.40168 0.40169-6.1666-9.6629-12.811-22.366zm-181.1-7.056c-3.8524-2.2438-2.4075-5.1288 7.8125-15.599 5.5-5.6348 10.047-11.298 10.105-12.585 0.058-1.2871 0.536-5.7152 1.0622-9.8402 1.2642-9.9108-0.44395-32.282-3.6906-48.335-2.9835-14.751-10.356-37.713-16.206-50.471l-3.986-8.6937-2.0801 3.1129c-6.0664 9.0784-23.079 28.917-34.905 40.703-22.678 22.601-45.587 39.839-69.675 52.426-6.1875 3.2332-13.5 8.0088-16.25 10.612-6.129 5.8028-14.789 11.271-17.85 11.271-3.5044 0-5.2748-2.5524-5.2748-7.6046 0-3.7684 0.88786-5.4067 4.8894-9.0218 2.6892-2.4295 6.0724-5.0504 7.5182-5.8242 4.2893-2.2956 8.3202-9.9762 14.539-27.703 6.07-17.29 13.06-39.37 13.06-41.23 0-0.5856-5.6987 3.7005-12.664 9.5247-22.44 18.764-48.89 35.609-55.914 35.609-8.4865 0-5.9176-5.5636 7.0152-15.193 13.149-9.7899 23.506-27.014 37.9-63.029 6.2166-15.554 8.5783-23.613 8.6324-29.455l0.0306-3.3009-12.406 4.8701c-14.746 5.7887-28.219 7.2923-28.219 3.1493 0-1.5899 3.7808-4.706 11.875-9.7873 6.5312-4.1001 13.219-8.6755 14.862-10.167 4.7928-4.3525 22.638-25.012 22.638-26.208 0-0.60045-2.6104 1.2061-5.801 4.0145-5.8866 5.1816-10.01 6.4551-11.164 3.4479-0.35-0.91209 3.471-7.806 8.4912-15.32 5.0201-7.5138 11.537-18.292 14.481-23.952l5.3538-10.291-9.4563 6.7846c-20.161 14.465-49.516 28.818-85.03 41.575-24.762 8.8949-29.558 10.287-27.363 7.9432 0.7629-0.81469 10.888-4.8374 22.5-8.9394 40.251-14.219 73.963-31.086 94.715-47.388 9.2997-7.3056 9.8025-7.5404 8.9615-4.1848-1.3858 5.5289-13.462 27.306-22.413 40.415-4.4536 6.5232-7.874 12.084-7.6008 12.357 1.9273 1.9273 20.088-15.122 32.121-30.155 4.8152-6.0156 8.9828-10.938 9.2614-10.938 0.81399 0-14.256 22.13-23.408 34.375-13.391 17.916-25.402 29.81-38.464 38.091-6.4292 4.0758-12.335 7.6425-13.125 7.9262-0.78959 0.28366-1.1544 0.81281-0.8106 1.1759 1.3539 1.4301 15.06-2.0465 28.125-7.1339l13.75-5.3543 0.39012 5.6837c0.50569 7.3674-3.987 21.753-14.305 45.804-12.097 28.198-20.155 39.778-37.764 54.273-4.3342 3.5675-6.2147 5.8906-5.4155 6.6899 3.559 3.559 43.834-23.405 65.53-43.872 4.6738-4.409 8.7678-7.7463 9.0979-7.4162 0.86763 0.86763-8.4628 32.199-14.367 48.245-2.7729 7.5356-5.0522 14.474-5.0653 15.419-0.0476 3.4423-7.5736 13.623-12.255 16.579-4.64 2.92-11.47 9.98-11.47 11.86 0 0.50335 0.78391 1.9872 1.742 3.2975 1.7115 2.3406 1.823 2.3393 6.3559-0.0736 2.5377-1.3508 8.0819-5.2957 12.32-8.7665 4.2386-3.4708 12.593-8.9028 18.566-12.071 36.094-19.146 80.815-59.366 100.83-90.684 2.306-3.6078 4.6198-6.5597 5.1418-6.5597 0.52195 0 2.4 3.2344 4.1735 7.1875 14.733 32.841 22.127 64.34 22.079 94.062-0.0348 21.54-0.83517 23.863-12.163 35.296-7.422 7.4907-9.2459 10.007-8.0907 11.162 2.122 2.122 6.5714-0.46838 16.179-9.4195 20.405-19.011 32.835-44.198 36.477-73.914 1.9569-15.969 1.7446-44.791-0.38904-52.805-2.1623-8.1224-5.9653-16.025-10.08-20.945l-3.136-3.75 3.0251 5.625c1.6638 3.0938 4.2365 9.2522 5.7172 13.686 5.9279 17.749 1.695 54.468-9.9606 86.405-3.3867 9.2799-12.227 25.64-13.283 24.583-0.25975-0.25977 0.1503-5.4959 0.91124-11.636 0.78257-6.3144 1.0987-19.308 0.72785-29.914-0.99525-28.461-4.8362-43.749-18.579-73.952-6.3448-13.944-7.2853-16.897-6.0911-19.129 1.8182-3.3974 0.6096-7.103-3.1122-9.5416-4.6371-3.0384-7.1548-0.65864-14.986 14.165-6.5879 12.47-20.466 33.41-21.475 32.401-0.24157-0.24157 0.96058-2.9437 2.6714-6.0048 4.3899-7.8543 6.7039-14.748 10.007-29.815 1.5828-7.2188 4.0549-17.625 5.4934-23.125 3.8122-14.575 6.3343-30.316 7.8112-48.75 0.71607-8.9375 1.5853-18.707 1.9316-21.71l0.62964-5.4604 6.6151 12.96c10.853 21.264 24.788 43.856 28.366 45.99 1.817 1.0836 6.6881 5.6265 10.824 10.095 4.1364 4.4688 10.638 10.656 14.448 13.75 4.652 3.7774 6.9472 6.5652 6.988 8.4873 0.0334 1.5743 1.1236 4.9493 2.4228 7.5s3.2808 7.7314 4.4037 11.513c2.7559 9.2805 6.1685 38.024 5.3423 44.997-1.6386 13.829-14.692 46.734-24.82 62.567-2.4248 3.7905-5.1486 8.2799-6.053 9.9765-1.5328 2.8756-1.4956 2.9621 0.54827 1.2755 7.3861-6.0949 23.23-34.896 28.573-51.941 2.2924-7.3127 2.8137-8.1476 3.1735-5.0826 0.59692 5.0843-2.2229 28.393-3.7135 30.696-0.82422 1.2734-0.98432-0.95751-0.49254-6.8633l0.72864-8.75-6.5887 13.179c-7.5304 15.063-17.07 29.006-21.981 32.127-1.8466 1.1736-3.8148 2.8639-4.3738 3.7561-6.1106 9.7543-27.913 30.355-32.039 30.275-1.0694-0.0209-2.9287-0.61135-4.1318-1.3121zm291.57-39.26c-4.4688-0.83969-12.975-3.5598-18.904-6.0448-5.9282-2.4849-16.897-6.7029-24.375-9.3733-14.096-5.0336-23.909-9.955-53.596-26.879-35.286-20.116-54.467-33.343-53.532-36.916 0.46435-1.7757-1.3529-3.8619-7.2997-8.3799-10.248-7.7856-29.63-26.604-37.251-36.168-5.8474-7.338-6.0082-7.7743-7.4423-20.197-0.80615-6.9836-2.8405-20.765-4.5208-30.625-1.6803-9.8602-3.0605-20.231-3.0671-23.046-0.009-3.5486-0.79177-5.8244-2.5541-7.4193-2.4374-2.2058-2.79-2.2114-8.5631-0.13539-9.305 3.346-11.811 1.6284-15.023-10.297-6.2945-23.372-13.978-65.466-12.262-67.182 0.2932-0.2932 1.8105 2.996 3.3718 7.3093 5.889 16.269 11.697 24.507 18.768 26.62 1.7188 0.51365 3.5469 1.5612 4.0625 2.3279 0.6557 0.97499 1.3418 0.83042 2.2827-0.48098 1.0129-1.4118 1.5018-1.489 1.9792-0.3125 0.34871 0.85938 1.2222 1.5625 1.9411 1.5625 0.87779 0 1.018-3.6948 0.42699-11.25-0.48404-6.1875-0.47114-16.453 0.0286-22.812l0.90874-11.562 3.075 13.75c1.6912 7.5625 3.8205 16.562 4.7316 20 0.91117 3.4375 3.1513 13.281 4.9781 21.875 4.4592 20.977 17.063 58.939 18.945 57.058 0.28519-0.28519-0.90901-5.5054-2.6538-11.601-4.5856-16.019-13.333-61.153-13.414-69.207-0.0995-9.9944 0.26373-11.51 2.3446-9.7831 2.673 2.2184 3.6252-0.21331 2.7771-7.0919l-0.77063-6.25-0.31996 5.625-0.31998 5.625-1.7951-5.625c-3.9097-12.251-5.6589-31.451-5.7512-63.125-0.10825-37.194 2.1821-59.794 9.1845-90.625 3.2415-14.272 10.15-38.876 10.748-38.278 0.26418 0.26419-0.91578 6.0317-2.6222 12.817-9.2952 36.96-14.484 75.057-15.131 111.09-0.45174 25.17-0.42545 25.53 0.63887 8.75 4.41-69.528 17.522-132.26 38.87-185.96 11.577-29.122 35.502-69.446 51.531-86.851 2.6909-2.9219 4.4232-5.3125 3.8496-5.3125-0.57362 0-4.3514 3.5156-8.3951 7.8125l-7.3521 7.8125 4.6566-6.875c12.663-18.696 33.697-40.242 49.618-50.826 13.403-8.91 20.93-10.817 39.288-9.9523 21.437 1.0095 31.197 3.3889 53.964 13.156 38.233 16.403 76.678 40.32 94.258 58.638 6.0156 6.2683 10.938 11.948 10.938 12.621 0 0.6733 2.8125 3.9927 6.25 7.3764s6.25 5.8358 6.25 5.449c0-2.1263 9.9694 9.4176 16.372 18.957 15.615 23.267 28.291 55.373 35.614 90.205 3.9834 18.947 5.4847 56.964 3.0732 77.82-3.8037 32.895-11.839 64.529-26.096 102.74l-9.5362 25.555-2.4178-8.4545c-1.4074-4.9215-3.8298-9.9661-5.7966-12.072-3.8507-4.1222-5.7069-14.765-4.259-24.42 0.75368-5.0259 1.5179-6.0503 7.4521-9.9892 7.5672-5.0228 11.676-9.177 7.4697-7.5528-1.375 0.53095-4.3281 1.2724-6.5625 1.6476-3.6996 0.62126-4.0625 0.39747-4.0625-2.5054 0-3.0624 1.4659-9.8438 5.8356-26.996 1.3196-5.1798 3.1122-8.9092 5.1072-10.625 4.0465-3.4803 5.7974-8.047 3.9424-10.282-0.78018-0.94005-1.8768-1.426-2.4369-1.0798-1.3917 0.8601-1.9484-1.3698-4.8453-19.407-3.7173-23.145-13.219-68.674-17.609-84.375-2.1143-7.5625-4.1374-14.875-4.4958-16.25-1.1223-4.3055 11.392 15.636 18.626 29.682 3.8013 7.3801 8.4044 17.901 10.229 23.38 7.7594 23.299 11.074 57.038 7.6484 77.862-1.1013 6.6957-1.9606 12.602-1.9094 13.125 0.1989 2.0328 6.3892-17.207 9.5473-29.674 2.9514-11.651 3.3261-15.512 3.3354-34.375 0.0125-24.566-2.0958-38.881-8.7953-59.727-14.163-44.071-44.765-87.651-75.749-107.88-4.9812-3.2514-9.7541-6.7675-10.606-7.8134-0.85226-1.046-1.9362-1.5151-2.4088-1.0426-0.97185 0.97185 0.79939 2.487 11.458 9.8015 4.125 2.8307 14.009 11.674 21.965 19.652 29.31 29.39 51.256 70.736 59.451 112.01 2.5755 12.969 3.1077 55.18 0.80389 63.75-1.3357 4.9685-1.345 4.9472-1.4698-3.3735-0.15362-10.245-3.2349-34.334-5.8145-45.457-8.9155-38.443-27.712-73.286-58.856-109.1-6.7818-7.7987-14.244-16.392-16.583-19.096-4.0832-4.7214-2.9366-5.6336 2.377-1.8908 2.3212 1.635-4.2809-5.8436-9.375-10.62-2.6596-2.4935-5.0685-3.5265-8.2844-3.5525-7.2833-0.0589-8.0351 1.9472-5.4968 14.668 2.7682 13.874 4.1009 38.902 2.8412 53.359-2.9042 33.33-16.46 72.479-36.282 104.78-9.8029 15.975-9.1878 16.578 1.2613 1.2371 17.233-25.301 34.515-58.749 42.006-81.298 5.69-17.12 8.34-32.35 8.34-47.95 0-6.785 0.42187-12.294 0.9375-12.243 1.8968 0.18812 18.191 20.163 21.636 26.522 9.1847 16.958 17.21 50.304 23.076 95.885 1.8137 14.094 4.0887 30.378 5.0555 36.188l1.7578 10.563-4.6476 3.8121c-2.5562 2.0967-9.157 7.9061-14.669 12.91-5.5115 5.0038-16.49 13.526-24.396 18.938-7.9062 5.4121-15.603 11.162-17.104 12.777-4.0464 4.3545-5.6841 9.4377-4.0339 12.521 1.1208 2.0943 0.8139 3.1319-1.7321 5.8557-3.8543 4.1234-7.1297 10.497-7.1297 13.873 0 3.6183 1.8231 3.1791 3.6339-0.87543 4.3259-9.6862 13.703-18.372 22.616-20.948 2.432-0.70298 2.0162-0.0873-1.875 2.7767-8.1092 5.9683-13.009 12.467-19.503 25.863-6.0874 12.559-8.3721 22.919-4.3112 19.549 1.3445-1.1158 6.8994-1.276 21.562-0.6218 16.334 0.72876 21.135 0.52603 27.75-1.1718 4.6564-1.1952 9.7551-1.7235 12.203-1.2643 3.6721 0.68888 4.0964 0.50743 3.3517-1.4333-0.5798-1.5109-0.38992-1.936 0.59333-1.3284 3.7977 2.3471 5.2636 13.854 5.3614 42.085 0.0895 25.84-0.1509 29.094-3.043 41.182-3.9665 16.579-6.7347 24.013-16.756 45-4.4319 9.2812-9.1201 19.536-10.418 22.789-5.801 14.535-8.4707 19.02-36.165 60.762-33.017 49.764-32.822 49.517-42.988 54.583-5.5167 2.7491-7.7326 3.0961-18.82 2.9472-6.9119-0.0928-16.223-0.85577-20.692-1.6955zm62.5-65.173c7.1523-3.3004 12.2-8.3782 15.165-15.254 2.9306-6.7972 2.9518-9.7909 0.0802-11.328-2.999-1.605-4.2958-0.48474-6.359 5.4938-0.94904 2.75-2.7872 6.5113-4.0847 8.3585-5.7638 8.2052-29.308 11.913-50.415 7.9391-6.1811-1.1638-11.821-2.5996-12.534-3.1909-0.71237-0.59122-5.4988-2.0209-10.637-3.1772-11.267-2.5355-12.776-3.3055-8.7038-4.439 2.8614-0.79642 2.7847-0.87634-0.9501-0.99089-4.4706-0.13711-5.8342 3.0993-1.875 4.4503 1.2031 0.41057 7.3892 2.9258 13.747 5.5893 20.399 8.5465 26.401 9.8171 44.691 9.4608 13.358-0.26019 17.251-0.77846 21.875-2.9122zm16.562-30.047c1.734-1.0414 0.9569-6.3906-1.0397-7.1568-3.415-1.3104-23.236-0.82924-41.924 1.0178-9.8858 0.9771-24.162 2.0614-31.724 2.4095l-13.75 0.63295 10-3.5435c5.5-1.9489 15.059-5.5645 21.241-8.0345 6.1828-2.47 12.053-4.491 13.044-4.491 0.99167 0 3.0699 1.1902 4.6183 2.6448 4.208 3.9532 12.621 4.5069 18.688 1.2299 2.6992-1.458 5.8808-3.3381 7.0701-4.178 1.853-1.3086 3.0217-0.68078 8.1679 4.3881 6.7526 6.651 9.0447 7.3581 9.0447 2.7903 0-1.7188-0.51941-3.125-1.1542-3.125-0.63485 0-3.8156-2.0315-7.0684-4.5144l-5.9141-4.5144-7.3066 2.2123c-4.17 1.26-7.3 2.92-7.3 3.88 0 2.4075-3.7929 2.0704-10.604-0.94231-3.2569-1.4407-7.1253-2.3247-8.5964-1.9645-20.942 5.127-57.852 16.913-59.614 19.036-1.6999 2.0483-0.6587 2.6256 6.3138 3.5009 5.4463 0.6837 96.527-0.51507 97.812-1.2874zm-15.18-45.73c8.0196-8.8366 9.2982-9.8221 14.415-11.11 7.8666-1.9808 9.852-4.8445 9.7229-14.024-0.0914-6.5041-1.2965-10.449-7.8822-25.803-4.2759-9.9688-9.7117-23.899-12.08-30.956-4.02-11.97-4.31-13.92-4.31-28.81 0-16.819 2.1501-28.904 5.8747-33.02 1.8232-2.0146 1.8264-2.2241 0.0339-2.2241-2.3958 0-5.9734 9.0837-9.0521 22.984-4.3036 19.43 0.66345 49.228 13.927 83.552 4.3774 11.328 5.473 20.893 2.6537 23.17-0.85937 0.69395-4.0938 1.674-7.1875 2.1778-10.642 1.7332-17.5 6.7434-17.5 12.784 0 6.2605 6.22 6.9545 11.379 1.2697zm-19.504-6.7151 5-4.4235-2.9017-2.3595c-4.4256-3.5987-10.738-4.31-17.005-1.9163l-5.4243 2.0716-5.1468-5.0956c-2.83-2.8-5.15-5.68-5.15-6.39 0-0.71382 1.7127-3.0106 3.8061-5.1039 4.5966-4.5966 4.099-5.4917-1.9441-3.4973-5.7423 1.8951-9.7309 7.8496-8.7889 13.121 0.36858 2.0625 2.6322 5.5781 5.0302 7.8125 3.6149 3.3682 5.3779 4.0748 10.316 4.1346 4.132 0.05 7.2957 0.98491 10.331 3.0529 2.4062 1.6395 4.9375 2.9899 5.625 3.0009 0.6875 0.0113 3.5-1.9706 6.25-4.4035zm-212.08-2.66c-5.1906-6.1904-8.18-17.888-10.023-39.219-1.5596-18.053-1.4201-20.027 4.0086-56.718 5.59-37.782 16.569-78.825 29.09-108.75 15.049-35.967 25.129-58.161 34.852-76.735 10.748-20.534 27.968-51.18 29.9-53.212 1.2083-1.2709-2.169 11.074-3.9468 14.427-1.6996 3.2052-5.8902 26.295-9.3106 51.302-3.425 25.04-5.4946 36.772-9.493 53.811l-2.544 10.841-5.2309 0.87142c-10.754 1.7915-20.323 5.5031-23.951 9.2895-4.2477 4.4336-3.1122 4.7276 4.7783 1.2373 3.1631-1.3992 9.4512-2.8895 13.974-3.3118l8.2225-0.76783-2.0572 5.4993c-1.1315 3.0246-5.5001 12.702-9.7081 21.505-7.2772 15.224-7.8056 15.967-10.82 15.215-1.743-0.43475-5.0858-2.2492-7.4286-4.032l-4.2595-3.2416 2.3845 4.0915c1.3115 2.2503 3.8861 5.3659 5.7214 6.9236l3.3369 2.8321-2.5307 4.2278c-1.3919 2.3253-3.6947 5.4934-5.1173 7.0403-3.0519 3.3184-1.6049 3.7571 2.1257 0.64454 1.4291-1.1924 0.95194-0.35449-1.0604 1.862-7.2035 7.934-1.2516 5.6303 11.455-4.4339 6.2489-4.9492 10.972-4.4136 9.8651 1.1188-0.39915 1.9957-0.1015 3.897 0.68625 4.3839 0.83797 0.5179-0.2966 1.785-2.8534 3.1868l-4.2445 2.3271 5-0.13447c7.6818-0.20657 7.7962-0.0705 3.1681 3.7666l-4.3319 3.5915 6.2069-1.5998c7.4211-1.9128 9.5233-1.1396 5.4394 2.0006l-2.9825 2.2934 4.2222-1.1808c2.8746-0.80392 5.0599-0.73242 6.8471 0.22405 2.5812 1.3814 2.5837 1.4209 0.15285 2.3707-1.9691 0.7693-1.6328 0.98371 1.6524 1.0537 2.2685 0.0484 5.6435 0.8694 7.5 1.8246 7.5184 3.8684 24.607 7.5632 34.625 7.4865 21.742-0.16665 39.932-1.9044 41.562-3.9706 1.3949-1.768 1.5719-1.7202 1.6504 0.44603 0.0851 2.3511 0.12113 2.3489 1.1621-0.0736 1.6849-3.921 1.4224-11.543-0.56121-16.29-1.5816-3.7854-1.5816-4.3348 0-4.3348 4.5769 0-0.48478-11.795-8.685-20.239-7.1164-7.3276-12.17-9.075-27.004-9.337l-13.125-0.23185 10.625 1.6372c14.037 2.1629 20.394 4.8977 25.646 11.034 4.9854 5.8243 4.7474 7.9249-0.3464 3.0569-3.9319-3.7576-13.422-8.3522-17.334-8.3926-1.4629-0.0151-4.6792-0.8712-7.1474-1.9024-2.4681-1.0312-6.2129-1.875-8.3216-1.875-2.1088 0-5.1736-0.87769-6.8108-1.9504-2.7413-1.7962-3.0776-1.7715-4.2524 0.3125-1.2087 2.1441-1.5726 2.1016-6.9288-0.8084-6.1777-3.3563-8.7172-2.7686-5.136 1.1886 2.208 2.4398 2.1931 2.5077-0.54842 2.5077-1.5498 0-6.1642-2.0655-10.254-4.59l-7.4365-4.59 7.2481-7.396c3.9864-4.0678 10.542-9.9561 14.568-13.085l7.3201-5.689 7.0549 2.8306c3.8802 1.5568 9.1522 4.1668 11.716 5.8001 2.5634 1.6332 5.0452 2.9695 5.5151 2.9695 0.46993 0 5.1226 2.5003 10.339 5.5562 11.309 6.6249 37.601 17.946 44.12 18.999 4.3534 0.70263 4.763 0.48076 6.7311-3.6464 2.786-5.8422 1.5886-10.597-2.9482-11.707-1.8802-0.46008-3.6997-1.1821-4.0435-1.6046-0.81728-1.0043-34.046-13.451-41.98-15.725-3.3799-0.96862-11.379-3.6462-17.775-5.9503l-11.629-4.1891 9.0044-8.0026c26.445-23.503 63.433-71.715 80.265-104.62 10.602-20.727 14.79-34.359 15.574-50.701 0.35564-7.4071 0.86406-13.25 1.1298-12.984 1.9021 1.9021 2.7625 24.673 1.7016 45.034-1.747 33.527-6.8407 57.064-20.162 93.164-7.3916 20.031-8.05 22.628-5.736 22.628 2.0903 0 8.7813-7.343 9.0751-9.9594 0.11838-1.0536 2.5039-7.5406 5.3013-14.416 8.6077-21.155 13.862-41.729 16.612-65.047 2.0614-17.479 0.73245-56.484-2.4296-71.306-2.4148-11.319-5.5494-19.272-7.596-19.272-0.59333 0-1.473-2.1094-1.9548-4.6875-0.99013-5.2984-2.6572-7.8125-5.1803-7.8125-2.3169 0-2.2354 7.5934 0.16657 15.511 2.0364 6.7126 2.5162 20.187 0.75757 21.274-0.97159 0.60048-2.8145 10.519-3.2682 17.59-0.29644 4.6199-5.9404 19.892-12.473 33.75-11.481 24.356-34.751 61.162-52.903 83.676-8.3908 10.407-31.636 34.731-32.431 33.936-0.30997-0.30997 3.1509-4.8227 7.6909-10.028 39.09-44.821 69.146-104.01 79.561-156.68 5.4246-27.431 1.6819-76.532-5.8336-76.532-1.9275 0-2.1798 4.1909-0.48928 8.125 0.92574 2.1543 1.0891 1.9815 1.1813-1.25 0.18233-6.3907 2.2366-1.1171 3.8876 9.9803 0.96923 6.5147 1.2736 17.939 0.85132 31.955-0.56849 18.87-1.1728 23.84-4.4772 36.815-6.6497 26.111-14.475 46.758-27.79 73.319-6.8707 13.706-20.636 37.306-21.76 37.306-0.25069 0 1.7201-5.0168 4.3796-11.148 9.9997-23.055 16.198-49.915 16.899-73.227 0.49095-16.336-0.10563-14.606-3.679 10.666-1.0239 7.2415-3.864 19.279-6.3114 26.75-6.8776 20.995-19.134 45.562-21.884 43.863-0.55633-0.34384-3.7477 4.2579-7.0919 10.226-3.3442 5.9682-8.5145 13.977-11.489 17.798-2.975 3.8207-6.1461 8.6342-7.0469 10.697-3.9379 9.0161-42.664 53.107-45.245 51.512-0.81702-0.50495 2.409-8.2966 8.5034-20.538 8.6913-17.457 10.455-22.238 15.344-41.599 11.268-44.623 65.212-177.41 82.091-202.07 5.3232-7.7781 16.048-19.179 18.041-19.179 0.84735 0 2.2409-0.84375 3.0967-1.875 1.2426-1.4972 1.2402-1.875-0.0125-1.875-3.0302 0-9.7702 5.1004-15.302 11.58-18.681 21.882-37.086 61.338-70.396 150.92-5.7519 15.469-10.476 27.168-10.499 25.998-0.0753-3.9388 5.074-37.748 7.9573-52.248 3.2866-16.527 5.6095-22.153 26.062-63.125 17.558-35.172 27.407-53.358 37.063-68.432 5.8239-9.0922 7.5438-10.933 10.222-10.938 3.5188-0.006 7.3185-3.6152 9.71-9.222 3.4236-8.0266-6.4301-12.906-14.015-6.9404-5.8242 4.5813-14.917 18.682-24.674 38.262-5.2302 10.496-9.961 18.675-10.513 18.176-0.55189-0.49896-0.58503-0.18178-0.0736 0.70486 0.86604 1.5015-11.564 33.394-12.609 32.35-0.25335-0.25335 2.3609-7.1331 5.8095-15.288 3.4486-8.1552 6.2526-15.131 6.2311-15.501-0.16309-2.8138-14.794 25.09-20.62 39.327-1.9695 4.8125-4.318 9.5938-5.219 10.625s-4.3064 5.4267-7.5675 9.7677c-15.93 21.205-23.368 31.95-30.443 43.982-4.2451 7.2188-10.485 17.344-13.867 22.5-7.5523 11.514-23.924 44.79-30.75 62.5-7.3098 18.965-13.095 38.856-18.451 63.443-2.5841 11.863-4.9523 21.314-5.2628 21.004-0.83447-0.83448 2.9826-20.87 8.7059-45.697 17.025-73.851 40.45-131.26 61.683-151.16 6.1636-5.777 7.5415-9.1759 2.1434-5.287-29.908 21.546-64.979 114.06-75.177 198.32-7.3681 60.874-8.0039 85.966-2.8048 110.69 3.4145 16.238 9.8538 32.435 12.895 32.435 0.88786 0 0.73107-0.81164-0.42258-2.1875zm113.95-112.19c5.2622-2.4141 10.829-7.5112 13.237-12.12 2.0925-4.0054 2.3123-12.638 0.41213-16.189-2.9559-5.5231 0.59118-3.6015 8.7566 4.7438 7.2911 7.4518 15.095 19.131 15.095 22.591 0 0.53847-5.2031 0.99566-11.562 1.016-6.3594 0.0202-15.781 0.47059-20.938 1.0006-9.2662 0.95255-9.3242 0.94044-5-1.0434zm-19.005-8.0689c-8.7981-6.3002-11.375-11.36-9.8753-19.388 0.60415-3.2339 1.6773-6.4586 2.3848-7.1661 1.5711-1.5711 27.866-2.798 29.641-1.383 0.69857 0.55679 2.8079 2.8836 4.6875 5.1708 6.4774 7.8819 3.3681 19.603-6.5984 24.873-7.8365 4.144-12.136 3.6966-20.239-2.1061zm14.719-10.635c4.5852-6.9979-3.3641-14.481-9.9118-9.3309-4.1572 3.2701-4.9005 7.0672-1.9592 10.009 3.4727 3.4727 9.3722 3.1359 11.871-0.67771zm-8.753-1.0728c-2.62-1.9158-1.8137-6.4016 1.3703-7.6233 4.1652-1.5984 7.2244 4.4756 3.919 7.7811-1.8979 1.8979-2.5027 1.8798-5.2893-0.15775zm-30.013 1.6675c-10.88-9.0486-10.885-9.2197-0.3513-12.342 4.9656-1.4718 9.4647-2.6741 9.998-2.672 0.53328 0.003 0.0434 1.795-1.0886 3.9841-1.49 2.8814-1.8689 5.8146-1.3724 10.625 0.37719 3.6547 0.58583 6.6306 0.46363 6.6131-0.12225-0.0175-3.5644-2.8113-7.6493-6.2085zm-32.92-12.52c0.8587-1.375 2.0756-2.5 2.7043-2.5 0.62869 0 0.125 1.125-1.1194 2.5s-2.4613 2.5-2.7043 2.5c-0.24303 0 0.26071-1.125 1.1194-2.5zm8.46-9.57c0-2.2127 3.3384-5.8599 4.1547-4.5391 0.43248 0.69978-0.32541 2.2784-1.6842 3.5081-1.36 1.23-2.47 1.7-2.47 1.03zm20.938-2.0611c-5.3073-1.486-5.6209-2.1394-2.4182-5.0378 2.1296-1.9273 2.5295-1.7853 6.4952 2.3063 4.4162 4.5564 3.8338 4.9466-4.077 2.7316zm34.35-198.37c2.9268-8.0166 7.6104-18.77 8.0039-18.377 0.55327 0.55326-6.6847 18.486-7.8898 19.548-0.43924 0.38699-0.49057-0.14014-0.114-1.1714zm8.502-20.625c0-0.6875 0.54526-2.0938 1.2117-3.125 0.66645-1.0312 1.2117-1.3125 1.2117-0.625s-0.54526 2.0938-1.2117 3.125c-0.66645 1.0312-1.2117 1.3125-1.2117 0.625zm98.217 279.76c-4.9388-28.59-15.469-52.418-20.807-47.08-0.99321 0.99321-0.84835 2.6182 0.52681 5.9094 2.2998 5.5043 3.6718 6.053 1.8147 0.72569-0.73123-2.0976-0.99681-4.1465-0.59019-4.5531 3.6027-3.6027 12.607 21.55 18.434 51.492 2.3979 12.322 2.9233 6.8316 0.62139-6.4937zm-229.5-118.42c3.4204-41.491 12.115-83.553 25.581-123.76 7.7709-23.2 7.3032-21.645 5.8388-19.407-1.8272 2.7935-11.707 32.027-16.246 48.07-12.561 44.398-19.296 98.106-18.732 149.38 0.16654 15.148 0.28466 14.125 1.1545-10 0.53293-14.781 1.6148-34.709 2.404-44.283zm226.4-19.16c1.5548-1.9826 1.5106-2.0268-0.47195-0.47195-1.2031 0.94356-2.1875 1.9279-2.1875 2.1875 0 1.0288 1.0265 0.36664 2.6594-1.7156zm-191.45-130.94c0-0.6875-0.54526-0.40625-1.2117 0.625-0.66645 1.0312-1.2117 2.4375-1.2117 3.125s0.54526 0.40625 1.2117-0.625c0.66645-1.0312 1.2117-2.4375 1.2117-3.125zm2.5-6.25c0-0.6875-0.54526-0.40625-1.2117 0.625-0.66645 1.0312-1.2117 2.4375-1.2117 3.125s0.54526 0.40625 1.2117-0.625c0.66645-1.0312 1.2117-2.4375 1.2117-3.125zm-268.13 507.19c9.3602-15.537 26.292-56.394 32.014-77.251 3.1874-11.618 4.9382-26.7 3.438-29.618-1.5133-2.9434-6.872-2.798-8.4927 0.23032-0.71168 1.3298-1.294 4.9214-1.294 7.9812 0 4.3613-0.60774 5.9827-2.8125 7.5036-1.5469 1.0671-8.0871 7.0378-14.534 13.268-12.07 11.67-31.76 28.83-33.07 28.83-0.40834 0 1.7049-3.5156 4.696-7.8125 6.5639-9.4292 24.42-44.816 30.326-60.098 2.3456-6.0698 4.5924-14.546 4.9931-18.837 0.7246-7.7595 0.75893-7.817 6.4736-10.839 3.1598-1.671 11.91-7.1065 19.445-12.079 7.5351-4.9724 13.905-8.8358 14.156-8.5853 0.7273 0.7273-3.29 29.841-6.658 48.251-9.3138 50.911-28.211 99.188-46.404 118.55l-5.4731 5.8248 3.204-5.3184zm10.67-2.29c2.2471-2.8669 3.9908-4.2221 5.4656-4.248 1.598-0.028-1.7114 3.6417-4.7378 5.2538-2.4336 1.2963-2.481 1.2309-0.7278-1.0058zm14.944-24.58c16.154-32.256 26.765-73.873 31.315-122.81 2.071-22.278 2.045-22.181 7.3304-27.343l4.8166-4.7032 0.90911 6.6479c2.1803 15.943 2.7732 35.918 1.7743 59.773-1.9243 45.953-8.3252 64.851-28.688 84.698-7.0004 6.8231-21.638 17.787-23.763 17.798-0.40531 0.002 2.4322-6.3242 6.3055-14.059zm581.18-18.85c-19.651-16.805-37.002-41.257-45.731-64.448-3.8434-10.211-2.6659-11.708 5.4578-6.9409 3.3111 1.9432 12.817 6.9403 21.123 11.105l15.103 7.5717-7.8949-11.25c-22.227-31.673-24.26-35.843-21.942-45 0.69633-2.75 3.0931-11.75 5.326-20 3.6789-13.592 4.1315-17.229 4.8219-38.75l0.76193-23.75 12.317-27.5c12.897-28.795 18.443-44.184 24.552-68.125 14.148-55.443 12.874-107.05-3.8501-155.99-14.075-41.189-32.743-71.036-52.834-84.474-3.5553-2.3781-8.7142-6.6908-11.464-9.5838-5.6346-5.9275-21.535-18.133-25.887-19.872-1.5748-0.62923-7.2363-4.8312-12.581-9.3376-20.636-17.4-60.287-40.231-79.139-45.57-4.7536-1.3461-15.674-4.5845-24.268-7.1965l-15.625-4.749-24.375 0.002c-20.166 0.002-26.641 0.47225-37.5 2.7217-7.2188 1.4954-21.984 3.2938-32.812 3.9965-33.353 2.1643-49.406 6.4988-85.938 23.204-25.621 11.716-53.031 26.542-58.308 31.54-2.7182 2.5744-10.16 8.8862-16.536 14.026-19.655 15.843-35.646 35.406-48.604 59.461-15.56 28.885-45.212 74.489-66.753 102.66-7.4516 9.7466-13.548 18.56-13.548 19.586 0 1.0256-1.8281 2.9984-4.0625 4.3839s-5.3653 3.738-6.9576 5.2276c-1.5923 1.4897-3.2352 2.3685-3.6508 1.9529-0.9903-0.99031 4.3656-6.6624 8.7334-9.2491 1.8906-1.1196 3.4375-2.6595 3.4375-3.422 0-0.76244 6.3281-9.7865 14.062-20.053 23.416-31.083 56.049-81.335 67.736-104.31 2.6138-5.1374 7.6378-13.546 11.164-18.685 8.1527-11.881 29.668-34.273 42.784-44.527 5.5672-4.3525 10.903-8.854 11.857-10.003 2.7522-3.3162 9.3117-7.0755 33.663-19.292 52.496-26.337 73.648-32.986 111.23-34.964 10.656-0.56084 25.844-2.2753 33.75-3.8099 19.369-3.7595 55.12-4.1578 67.5-0.75203 28.917 7.9549 46.739 14.105 58.899 20.325 21.809 11.156 44.437 26.104 58.931 38.931 3.3017 2.9219 6.5777 5.3125 7.2799 5.3125 2.4077 0 15.579 9.7132 24.921 18.377 5.1391 4.7665 11.875 10.392 14.969 12.501 27.447 18.709 54.796 74.528 63.265 129.12 3.2213 20.767 2.958 62.577-0.51958 82.5-6.3047 36.119-14.17 61.082-31.958 101.43l-11.75 26.71-0.57 23.12c-0.5945 24.061-0.75141 24.964-9.9142 57.051-2.1336 7.4716 0.39647 13.047 15.911 35.063 7.1748 10.181 13.047 19.232 13.05 20.113 0.002 0.88097-0.77647 1.9015-1.7311 2.2678-1.7177 0.65912-25.343-10.58-34.834-16.571-2.7042-1.7071-5.1509-2.8697-5.437-2.5836-2.0366 2.0366 11.012 27.664 20.848 40.945 8.0117 10.818 22.82 26.403 31.783 33.45 3.0598 2.4058 4.2252 3.9475 3.0032 3.9732-1.0982 0.023-6.1607-3.5189-11.25-7.871zm-24.222-2.8178c-15.107-5.2756-42.767-20.9-47.857-27.033-1.2138-1.4625-0.1963-4.1924 5.2964-14.211 3.7393-6.8202 7.2924-13.223 7.8958-14.229 0.80466-1.3412 2.6214 1.3895 6.8172 10.247 9.6844 20.444 18.934 32.667 32.353 42.754 8.5655 6.4388 7.9002 6.8037-4.5056 2.4715zm-514.4-5.07c0-1.6085 6.032-7.3364 6.857-6.5114 0.33928 0.33929-1.0648 2.228-3.1201 4.1971-2.06 1.97-3.74 3.01-3.74 2.31zm5.045-11.937c-0.0247-0.47296 0.76815-4.4105 1.7619-8.75 6.4409-28.125 5.4812-95.229-1.838-128.52-4.7447-21.577-8.0961-61.654-7.0559-84.375 0.78234-17.089 5.2185-41.87 9.5704-53.462 2.3593-6.284 2.3626-6.4183 0.085-3.4504-4.0615 5.2924-15.08 42.814-15.072 51.322 0.005 4.883-7.639 19.517-16.05 30.727-27.259 36.331-67.627 65.633-131.14 95.192-7.7357 3.6003-14.225 6.546-14.422 6.546-0.19618 0-0.48287-1.656-0.63709-3.68-0.33184-4.3549 2.3267-6.3991 25.047-19.259 18.915-10.706 30.956-19.344 30.094-21.591-0.37682-0.982 3.0232-5.8702 7.9342-11.407 31.154-35.123 42.934-51.552 56.694-79.064 11.476-22.944 22.52-48.572 23.704-55 0.96662-5.2516 21.206-53.416 21.254-50.578 0.0428 2.5449-12.243 37.736-18.749 53.703-9.1324 22.414-23.597 53.605-31.342 67.586-9.5702 17.275-23.968 35.955-53.278 69.121-5.844 6.6127-5.011 7.2749 2.4531 1.95 6.316-4.5059 6.4216-4.5351 2.8125-0.77737-6.9112 7.1957-23.409 18.737-41.346 28.923-18.864 10.713-24.161 14.349-22.838 15.678 1.0908 1.0954 33.239-14.909 44.216-22.013 11.218-7.2595 37.383-29.093 49.067-40.944 11.13-11.289 23.232-27.245 36.231-47.766 14.67-23.11 27.94-47.37 25.94-47.37-0.27502 0-2.5805 3.7969-5.1232 8.4375-14.245 25.998-48.003 74.977-56.241 81.6-2.6144 2.1018-0.14368-1.6681 10.265-15.663 13.993-18.814 32.308-51.913 41.736-75.425 5.7383-14.311 6.2085-18.911 0.56503-5.5268-3.9505 9.3688-10.446 22.615-10.524 21.462-0.0275-0.40707 3.2881-10.095 7.3679-21.53 11.65-32.66 23.83-74.77 23.83-82.4 0-1.6366 1.1687-7.4375 2.5971-12.891s2.3395-11.606 2.0247-13.673c-0.31484-2.0666-0.104-4.6549 0.46845-5.7517 0.65915-1.2629 0.33609-3.0005-0.88092-4.738-2.6199-3.7405-4.9277-2.8204-18.9 7.5352-6.3612 4.7146-11.956 8.572-12.433 8.572-0.47675 0 0.8495-1.8281 2.9472-4.0625 5.8166-6.1956 9.9875-12.86 27.986-44.715 26.948-47.695 35.255-60.287 48.536-73.567 11.214-11.214 29.884-22.966 48.905-30.784 8.294-3.4089 12.333-6.2043 10.956-7.5819-1.1624-1.1624-21.432 6.5387-33.397 12.688-5.8116 2.9871-10.785 5.2126-11.052 4.9456-0.26703-0.26702 4.0158-4.0433 9.5174-8.3918 9.3295-7.374 14.819-10.875 38.976-24.858 12.266-7.1 23.602-14.569 27.5-18.12 3.6226-3.2996 35.171-19.731 44.375-23.112 18.418-6.7656 37.735-9.2118 65.813-8.3343 20.243 0.63261 38.603 2.7844 38.53 4.5156-0.0176 0.41398-4.0444 3.284-8.9485 6.3777-19.09 12.043-45.999 41.631-63.448 69.763-9.0604 14.608-32.177 59.123-40.606 78.194-17.453 39.487-29.625 84.919-33.323 124.38-2.8159 30.052-3.5224 27.187-3.0416-12.337 0.49716-40.877 1.1461-49.682 6.3572-86.25 5.9342-41.642 14.992-79.604 24.433-102.4 1.6021-3.868 1.7745-4.958 0.53084-3.3565-3.0447 3.9209-17.629 39.319-22.375 54.309-7.8902 24.917-15.693 64.076-19.018 95.438-1.6376 15.446-1.9074 28.039-1.4006 65.381 0.34521 25.438 1.3036 52.569 2.1297 60.292 1.1762 10.995 1.1723 14.928-0.0177 18.125-0.83592 2.2458-1.8113 11.536-2.1676 20.646-0.35626 9.1094-1.068 16.562-1.5816 16.562-1.611 0-4.0758-3.683-4.4094-6.5886-0.17596-1.5325-2.096-8.1301-4.2667-14.661-9.1409-27.503-17.405-64.91-20.685-93.634-2.099-18.379-4.087-53.706-3.6291-64.491 0.28928-6.8127 0.14788-6.4691-1.5432 3.75-1.2552 7.5851-1.916 21.43-2.0284 42.5-0.17024 31.89 0.7265 43.452 5.5109 71.06 1.8697 10.789 2.1925 15.184 1.1888 16.188-2.0443 2.0443-1.716 31.322 0.5267 46.967 3.0947 21.588 11.597 54.271 18.88 72.574 3.6742 9.2336 6.4775 16.991 6.2295 17.239-0.71813 0.71813-10.083-19.089-15.674-33.15-11.192-28.15-18.983-62.301-20.906-91.641-0.53171-8.1136-1.401-12.857-2.5276-13.792-0.9444-0.7838-1.8989-1.2043-2.1211-0.93445-1.1034 1.3401 1.9513 39.388 4.1404 51.571 6.2184 34.607 20.745 72.772 39.224 103.05 3.905 6.3992 7.1 12.318 7.1 13.153 0 0.83474 1.6012 3.474 3.5581 5.865 4.1923 5.1221 6.8896 9.9413 6.0398 10.791-0.65081 0.65079-18.183-14.874-36.216-32.069-6.1286-5.8438-15.583-16.519-21.01-23.724-13.26-17.63-34.87-59.94-34.87-68.3 0-1.5429-0.54674-2.9928-1.215-3.222-1.2441-0.42665-7.3138-16.858-11.305-30.603-1.6912-5.8247-1.8834-8.0644-0.79356-9.2459 1.0903-1.1819 1.0743-1.3544-0.0659-0.71307-1.649 0.92757-2.7656-2.4868-6.6415-20.309-6.5324-30.037-7.9752-45.263-8.0111-84.545l-0.0342-37.5 4.035-19.092c7.5869-35.898 18.567-62.997 33.416-82.471 3.8007-4.9844 6.6304-9.0625 6.2883-9.0625-0.34212 0-3.0243 2.5855-5.9603 5.7456-16.963 18.258-34.415 52.841-40.934 81.116-5.1501 22.339-6.6055 35.745-6.5833 60.638 0.0334 37.468 3.4698 66.899 11.663 99.884l3.8522 15.509-1.9804 9.8284c-2.8847 14.317-2.4606 33.31 1.2652 56.653 3.9203 24.562 5.3076 59.542 3.0828 77.734-1.9403 15.867-8.7592 36.08-15.734 46.641-5.7313 8.6779-11.726 16.179-11.8 14.765zm96.92-107.57c-8.4216-17.734-22.872-53.213-26.467-64.985-1.2049-3.9448-2.4112-6.9518-2.6808-6.6822-0.76822 0.76823 4.5067 17.715 9.3706 30.105 9.7022 24.714 25.335 58.125 27.196 58.125 0.24544 0-3.0931-7.4531-7.419-16.562zm-29.857-76.172c-0.39903-0.99716-0.69523-0.70097-0.7552 0.75522-0.0542 1.3177 0.24116 2.056 0.65652 1.6406 0.41536-0.41536 0.45977-1.4935 0.0986-2.3958zm-1.25-5c-0.39903-0.99716-0.69523-0.70097-0.7552 0.75522-0.0542 1.3177 0.24116 2.056 0.65652 1.6406 0.41536-0.41536 0.45977-1.4935 0.0986-2.3958zm-0.85-4.77c0-0.6875-0.5957-1.25-1.3238-1.25-0.72808 0-0.97613 0.5625-0.55123 1.25s1.0206 1.25 1.3238 1.25c0.30318 0 0.55123-0.5625 0.55123-1.25zm5.8539-25.234c-0.39903-0.99716-0.69523-0.70097-0.7552 0.75522-0.0542 1.3177 0.24116 2.056 0.65652 1.6406 0.41536-0.41536 0.45977-1.4935 0.0986-2.3958zm-3.2504-17.382c-4.9622-29.225-5.7295-39.866-5.67-78.634 0.0421-27.42 0.65911-43.448 2.1975-57.083 7.1044-62.967 21.638-111.11 43.349-143.61 7.8874-11.805 28.72-32.836 39.798-40.179 14.182-9.3991 26.827-11.528 29.956-5.0432 1.2068 2.5007 1.355 2.5409 1.4309 0.38822 0.27324-7.7564-11.858-9.4435-23.918-3.3265-16.863 8.5527-40.618 30.977-53.813 50.797-27.151 40.784-41.869 100.32-45.406 183.68-0.84402 19.893 0.73519 46 3.9318 65 2.2435 13.335 9.3366 43.495 10.059 42.772 0.2779-0.27789-0.5842-6.9216-1.9158-14.764zm109.5-318.87c-0.39903-0.99716-0.69523-0.70097-0.7552 0.75522-0.0542 1.3177 0.24116 2.056 0.65652 1.6406 0.41536-0.41537 0.45977-1.4935 0.0986-2.3958zm-30.28 513.9c-1.3453-2.1768 0.1869-2.6378 1.9013-0.57205 0.98594 1.188 1.0808 1.9052 0.25191 1.9052-0.73111 0-1.7001-0.59993-2.1532-1.3332zm348.1-20.601c-3.0544-2.6748-5.7397-4.9731-5.9673-5.1074-0.70759-0.41757 2.3257-5.4596 3.2702-5.4358 1.4488 0.0364 9.2056 12.541 8.707 14.037-0.25108 0.7532-2.9556-0.81901-6.01-3.4938zm-569.77-22.76c11.276-11.704 15.67-17.149 26.985-33.438 19.45-28 28.701-49.054 11.432-26.019-10.186 13.587-24.383 29.769-29.567 33.701-4.5185 3.427-4.5747 3.4364-2.4606 0.41249 9.6916-13.862 21.341-35.507 22.844-42.446 0.64041-2.9555 4.1068-7.7686 10.803-15 7.5788-8.1847 9.7823-11.371 9.5246-13.773-0.22467-2.0942-1.2091-3.2497-2.9845-3.503-1.9389-0.27668-4.6027 1.847-9.9351 7.9207-13.001 14.808-37.768 33.967-59.603 46.107-4.6406 2.58-8.4375 4.3836-8.4375 4.0079 0-0.37567 6.0469-4.7203 13.438-9.6548 35.641-23.796 60.588-47.597 74.07-70.669l4.9926-8.5436 0.004 13.105c0.005 14.043 1.6523 34.407 4.1905 51.789 1.4439 9.8881 1.3916 10.905-0.656 12.758-1.2237 1.1074-2.5954 3.205-3.0482 4.6612-2.2924 7.3725-26.534 32.677-39.866 41.613-10.669 7.1522-27.448 16.659-29.402 16.659-0.91104 0 2.5434-4.3594 7.6766-9.6875zm204.52 2.0398c-3.45-8.22-12.17-30.97-12.17-31.75 0-0.43971 9.063 0.75986 9.7278 1.2876 0.7331 0.58192 6.6525 35.85 6.2299 37.118-0.24344 0.73029-1.9486-2.262-3.7893-6.6495zm-96.277-18.26c-0.41888-11.545-1.8342-25.935-3.4147-34.718-1.8352-10.198-2.9119-22.503-3.3633-38.438-0.67941-23.984 0.34141-29.389 3.3178-17.569 0.81275 3.2278 4.0517 12.368 7.1976 20.312 6.3731 16.093 6.5766 18.417 4.0014 45.694-1.3544 14.347-5.5982 43.01-6.5015 43.913-0.28701 0.28702-0.84378-8.351-1.2372-19.196zm400.67-93.86c-1.5469-0.21968-2.8125-0.6695-2.8125-0.99957 0-1.2023 4.1917-8.7327 7.7823-13.981l3.6808-5.3801 2.9588 3.1926c3.753 4.0496 4.5853 4.0272 3.5506-0.0954-0.94306-3.7575 1.5162-3.7554 3.8133 0.004 1.7879 2.9254-3.0765 7.0348-8.3272 7.0348-3.307 0-3.5631 0.24277-2.107 1.9972 1.1784 1.42 2.8934 1.7967 5.9331 1.3034 5.81-0.94341 8.9654-4.0849 8.9654-8.9263 0-4.5081-2.8634-7.6881-7.5-8.3291-2.7759-0.38374-2.4421-0.7675 2.987-3.435 7.0429-3.4603 8.9459-2.8839 12.324 3.7326 3.7414 7.3293 2.9275 11.997-3.152 18.077-4.2529 4.2529-6.5668 5.5252-11.355 6.2432-5.043 0.75625-6.588 0.47687-9.5749-1.7314-3.2463-2.4001-3.5966-2.4417-3.9578-0.47014-0.26526 1.4481-1.3258 2.031-3.2087 1.7636zm35.981-5.9205c3.6202-5.8576 3.0695-17.422-1.0982-23.059l-2.7699-3.7465h3.1624c1.7393 0 3.1624 0.42592 3.1624 0.94651 0 0.52058 2.4525 0.75145 5.4499 0.51305 6.397-0.50877 7.0172 0.63331 7.0138 12.915-0.003 7.0329-1.074 10.978-2.916 10.732-2.5305-0.33866-3.3512 0.0455-2.6211 1.2268 0.45331 0.73349 0.0646 1.1817-0.86374 0.99604-0.92836-0.18566-3.4881 0.62047-5.6884 1.7914-5.6179 2.9897-5.9451 2.7221-2.8314-2.316zm18.076-1.4926c0.48757-1.2031 1.1876-5.7078 1.5557-10.01 0.54907-6.4182 0.97501-7.569 2.3722-6.4094 1.8284 1.5174 2.1442 6.397 0.90073 13.92-0.59073 3.5739-1.3616 4.6875-3.245 4.6875-1.8569 0-2.2501-0.54307-1.5837-2.1875zm-36.87-35.8c0-0.26465 5.0094-4.1968 11.132-8.7382 11.1-8.2333 20.276-17.966 27.082-28.724 4.3394-6.8592 7.9575-8.1134 12.888-4.4678l3.5752 2.6433-4.2129 6.9962c-5.0965 8.4636-9.0485 18.708-10.058 26.072-0.41086 2.9976-1.2331 5.4501-1.8271 5.4501-0.59406 0-1.0801-0.5625-1.0801-1.25 0-1.9804-15.503-1.4907-19.545 0.6173-3.08 1.6063-17.955 2.7674-17.955 1.4015zm-487.5-45.77c-0.003-0.34594 1.144-4.5647 2.548-9.375 4.12-14.1 18.7-67.4 18.7-68.35 0-0.47497-6.8906 3.54-15.312 8.9221-8.4219 5.3821-17.844 10.909-20.938 12.283-7.3246 3.2517-23.774 8.1639-24.594 7.3442-1.031-1.031 6.4033-4.4243 14.066-6.4202 8.336-2.1712 18.185-7.4091 35.84-19.06 7.047-4.6504 13.314-8.672 13.927-8.9368 1.313-0.56744 1.1115 0.338-6.2251 27.97-9.2784 34.944-13.356 48.544-15.743 52.5-1.244 2.0625-2.264 3.467-2.2665 3.121zm-1.857-89.959c-1.0914-1.766 2.2716-7.5918 6.8763-11.912 2.1984-2.0625 6.7658-7.8281 10.15-12.812 3.3839-4.9844 6.4704-9.0625 6.8588-9.0625 0.9847 0-6.0653 12.399-14.037 24.688-6.4816 9.9916-8.2734 11.647-9.8482 9.0992z"/>
</svg>
