<?xml version="1.0" encoding="UTF-8" standalone="no"?>
<!-- Created with Inkscape (http://www.inkscape.org/) -->
<svg id="svg3356" xmlns:rdf="http://www.w3.org/1999/02/22-rdf-syntax-ns#" xmlns="http://www.w3.org/2000/svg" height="1845" viewBox="0 0 1845 1845" width="1845" version="1.1" xmlns:cc="http://creativecommons.org/ns#" xmlns:dc="http://purl.org/dc/elements/1.1/">
 <metadata id="metadata3362">
  <rdf:RDF>
   <cc:Work rdf:about="">
    <dc:format>image/svg+xml</dc:format>
    <dc:type rdf:resource="http://purl.org/dc/dcmitype/StillImage"/>
    <dc:title/>
   </cc:Work>
  </rdf:RDF>
 </metadata>
 <path id="path3366" fill="#fff" d="m578.35 1803.8c-11.235-1.2941-21.851-6.6074-29.751-14.889-10.004-10.488-13.225-22.824-10.972-42.03 2.6439-22.544 5.404-35.636 12.071-57.256 9.2606-30.031 10.215-33.797 10.988-43.37 2.01-24.891 5.5465-40.064 11.137-47.781l3.7314-5.1511-0.85984-18.846c-1.8093-39.658-7.1191-94.448-11.457-118.22-1.2832-7.0322-2.1654-22.037-2.6091-44.375-0.98114-49.394 2.8231-81.804 15.298-130.34 3.3644-13.088 5.5564-24.407 5.568-28.75 0.0208-7.7575 1.5227-12.089 2.9249-8.4344 0.43556 1.135 0.83656 7.2291 0.8911 13.542 0.0751 8.6984-0.97039 16.474-4.3168 32.104-9.96 46.519-12.564 70.349-12.566 115-0.001 30.965 0.32965 36.545 3.3371 56.25 5.1855 33.975 7.306 59.664 10.059 121.87 0.24623 5.5625 0.68347 6.4432 4.0262 8.1095 2.294 1.1437 8.3607 2.0275 15.625 2.2764 10.978 0.3763 12.394 0.1414 18.75-3.1095l6.875-3.5165 0.313-7.5c2.4618-58.988 10.814-115.09 18.493-124.21 3.2836-3.9023 10.426-23.665 14.471-40.04 3.9022-15.798 4.6471-53.468 1.609-81.372-1.2351-11.344-2.19-22.875-2.122-25.625s2.7375-14.844 5.9322-26.875 6.6199-27.219 7.6116-33.75c1.6869-11.11 2.4892-30 1.2742-30-0.299 0-2.0624 0.5775-3.9187 1.2832-2.5985 0.988-4.0554 0.8375-6.3314-0.6538-4.3682-2.8622-3.7083-6.3733 1.8585-9.8875 9.3306-5.8901 16.374-17.146 20.833-33.295 1.7954-6.5021 4.3529-14.134 5.6834-16.959 1.3305-2.8253 2.4213-6.2003 2.424-7.5 0.002-1.2997 1.4019-9.6756 3.1094-18.613 1.7075-8.9375 3.36-17.703 3.6721-19.478 0.56713-3.2263 0.55766-3.2299-15.922-6.0501-38.858-6.6499-76.84-16.963-105.85-28.74l-15.368-6.2391 0.72194 8.3788c0.9639 11.187 6.9109 33.726 14.476 54.866 8.5255 23.822 10.818 38.472 10.636 67.962-0.16452 26.622-1.5044 44.415-3.0536 40.55-0.55125-1.375-1.0464-7.8437-1.1004-14.375-0.13669-16.544-1.9265-30.836-7.0442-56.25-5.1176-25.413-7.9863-36.545-13.208-51.25-4.1627-11.724-10.445-36.895-11.805-47.303-0.97651-7.4693-0.7002-7.1329-11.453-13.942-6.0381-3.8236-8.617-4.7824-11.378-4.2303-2.8814 0.5763-4.097 0.044-6.3011-2.7578-1.6076-2.0438-2.3921-4.2781-1.9072-5.4319 0.45312-1.0779 1.577-10.36 2.4976-20.627 0.92058-10.267 1.9564-20.111 2.3017-21.875 0.34538-1.7641 0.94301-10.239 1.3281-18.832 1.7703-39.511 5.6335-69.616 14.23-110.89 6.4939-31.179 18.409-72.575 24.931-86.612 4.9353-10.623 9.343-26.5 13.36-48.125 1.788-9.625 3.9893-18.069 4.8918-18.764 0.90249-0.6952 2.6473-6.039 3.8774-11.875s2.741-11.612 3.3577-12.835c1.7701-3.5109 4.7444-30.303 4.7444-42.736 0-25.044-5.4377-58.712-11.615-71.915-9.1467-19.55-17.146-51.103-17.111-67.5 0.0181-8.6869 0.97573-10.238 5.7342-9.2859 3.6294 0.72588 3.7527 1.0001 5.2037 11.577 1.6624 12.118 5.8101 28.927 12.302 49.855 6.671 21.506 8.0502 34.929 9.0913 88.479 1.0182 52.376 0.23342 47.129 9.2805 62.042 3.2273 5.3198 30.011 31.254 33.762 32.691 1.4112 0.54058 9.6336 2.6029 18.272 4.583 30.226 6.9284 65.454 11.283 91.408 11.298 15.599 0.009 20.425-0.50073 33.75-3.5666 29.92-6.81 42.42-11.47 42.42-15.72 0-2.3948 4.7349-5.9942 6.8284-5.1908 1.0569 0.40557 1.9216 1.5988 1.9216 2.6516s0.42187 1.9121 0.9375 1.9096c2.1593-0.0113 8.8204-4.9739 13.46-10.029 2.7376-2.9826 6.1606-6.542 7.6068-7.9097 2.264-2.1411 2.452-3.065 1.3528-6.6466-1.4073-4.5855-2.3094-5.0537-4.5456-2.3592-0.82195 0.99039-2.2299 1.5185-3.1288 1.1735-0.9248-0.35487-2.7488 1.1698-4.2012 3.5118-1.4117 2.2764-4.6808 6.1077-7.2648 8.514-4.8607 4.5265-4.4961 3.7404 3.5864-7.7336 2.5731-3.6528 5.5271-9.7351 6.5645-13.516 1.0374-3.7812 2.8476-10.25 4.0226-14.375 2.8979-10.173 3.1267-60.302 0.35951-78.75-1.0822-7.2146-1.8631-20.957-1.8468-32.5 0.0316-22.474 1.0921-27.794 11.462-57.5 7.6853-22.015 13.318-42.221 17.884-64.159 10.523-50.554 16.021-63.721 28.3-67.774 2.7727-0.91507 5.0484-2.9863 6.899-6.2789 2.8903-5.1426 6.4761-6.3966 9.0383-3.1608 1.9316 2.4394 51.541 6.2632 70.023 5.3972 10.961-0.51357 21.326-2.3504 49.49-8.7702 19.594-4.4663 42.656-10.184 51.25-12.706 19.597-5.7511 36.914-8.1178 59.626-8.1491 17.454-0.024 26.096-1.0781 35.999-4.3905 2.75-0.91986 11.75-3.1958 20-5.0577 26.391-5.956 39.99-11.152 80.153-30.629 32.602-15.81 58.799-27.115 66.818-28.835 4.4703-0.9587 6.1539-1.907 6.1539-3.4662 0-2.1752 2.252-5.1464 3.9007-5.1464 0.4954 0 1.2539 1.6084 1.6857 3.5743s2.4452 5.1649 4.4743 7.1089 3.6893 4.5144 3.6893 5.712c0 2.4312 4.8195 3.607 24.517 5.9815 17.593 2.1208 18.951 1.925 32.469-4.6808 16.859-8.238 20.744-9.3456 32.363-9.2247 9.9668 0.10363 9.9972 0.0943 5.151-1.6007-6.7596-2.364-9.0552-6.78-5.4375-10.46 0.8643-0.87915-1.3907-0.43227-5.0463 1-5.63 2.2059-9.3555 2.5894-25.156 2.5894-23.676 0-26.36-0.50069-26.36-4.9173 0-5.3644 2.6566-7.8744 8.4961-8.0276 3.5247-0.0924 5.6897 0.54064 6.7788 1.9821 2.9242 3.8705 6.8766 4.2988 18.236 1.9761 5.9752-1.2217 13.721-2.2308 17.213-2.2423 5.7458-0.019 6.3398-0.2842 6.25-2.7908-0.1533-4.2765 4.7102-5.8011 21.219-6.6514 12.393-0.63832 17.27-0.31271 28.682 1.9149 17.853 3.4849 24.728 4.2525 28.84 3.2202l3.351-0.84105-2.866-3.0508c-3.8333-4.0803-21.399-10.772-29.95-11.411-3.7812-0.28215-15.944-1.3339-27.03-2.3373-23.967-2.1694-36.97-2.3253-38.829-0.4654-0.9037 0.90368-1.6212 0.93453-2.1419 0.0921-0.5125-0.82935-2.18-0.86164-4.8285-0.0935-5.1662 1.4983-55.105 11.847-66.233 13.725-4.6406 0.78327-8.4375 1.9289-8.4375 2.5458 0 0.61692-3.2344 1.1266-7.1875 1.1326s-14.219 0.84704-22.812 1.869c-34.369 4.0873-52.956 3.7556-111.25-1.9856-9.0007-0.88645-20.45-1.0612-30.625-0.4674-8.9375 0.52159-17.656 0.94739-19.375 0.9462-10.324-0.007-50.48 8.0158-60.625 12.112-1.375 0.55526-21.344 1.6423-44.375 2.4157-29.956 1.0059-46.322 2.1184-57.5 3.9084-21.424 3.4309-36.966 4.4394-39.247 2.5466-0.98611-0.8184-11.262-3.4636-22.835-5.8781-37.078-7.7355-69.997-7.2532-103.94 1.523-9.3424 2.4153-18.277 4.0675-19.855 3.6714-2.049-0.5143-2.8691-0.17738-2.8691 1.1787 0 2.4884-6.1877 2.53-9.4486 0.0635-1.3345-1.0094-3.8485-1.8531-5.5867-1.875-4.6709-0.0588-18.788-7.2655-34.15-17.434-7.4584-4.9367-18.286-11.531-24.062-14.654-10.128-5.4761-13.471-8.4939-7.7533-6.9986 2.2621 0.59155 1.6732-0.64994-3.3276-7.0152l-6.0761-7.7339-3.8599 4.1838c-5.6681 6.1436-24.068 16.579-31.089 17.632-3.2426 0.48627-5.8957 1.4777-5.8957 2.2032 0 0.75221-1.4204 1.0476-3.3051 0.68732-1.8178-0.3475-5.0522-0.12162-7.1875 0.50199-2.1353 0.62359-9.0241 1.6755-15.308 2.3376-16.358 1.7234-24.006 5.4667-34.053 16.667l-7.9791 8.8946 3.6041 1.4359c1.9823 0.78975 8.1041 1.7844 13.604 2.2103l10 0.7744 14.097-13.715c18.798-18.289 22.307-20.093 16.344-8.4042-1.4766 2.8945-6.3184 9.0267-10.76 13.627l-8.075 8.3645 4.1971 1.7755c5.0858 2.1514 7.9566 5.3199 9.0733 10.014 0.69713 2.9304 0.109 4.2463-3.519 7.8744-4.2992 4.2992-4.4832 4.3522-14.107 4.0684-10.875-0.3208-22.504 1.0511-23.573 2.781-0.38509 0.6231-1.8312 1.1329-3.2137 1.1329-1.3824 0-5.0111 1.7184-8.0637 3.8186s-8.6468 4.4681-12.432 5.262l-6.8814 1.4434-3.7346-4.5306c-3.5536-4.3112-4.2037-4.5691-13.419-5.3244-12.2-1-27.78-4.23-27.78-5.76 0-0.6406-1.0884-1.1647-2.4187-1.1647-3.0437 0-48.38 21.961-57.491 27.848l-6.7847 4.3844 6.7847 3.4224c8.863 4.4707 27.169 17.006 31.345 21.464 4.4247 4.7237 5.3954 8.3721 2.8931 10.874-1.1037 1.1037-2.8612 2.0067-3.9056 2.0067-2.5195 0-13.284-9.0142-28.206-23.619l-12.158-11.9-26.187 17.76c-14.403 9.7679-26.463 17.76-26.801 17.76-0.33772 0-5.0199 2.6114-10.405 5.803-12.221 7.2437-32.349 17.15-41.979 20.662-11.427 4.1665-7.82 5.4104 15.688 5.4104 17.992 0 21.853-0.39353 34.625-3.5299 30.936-7.5965 48.445-14.062 62.5-23.08l8.125-5.2129-4.375 0.0395c-2.4062 0.0217-8.5938 0.7981-13.75 1.7253-8.7754 1.5779-11.321 1.5868-9.7679 0.034 1.4797-1.4797 28.39-6.8295 34.407-6.8399 9.2031-0.016 13.406 4.7454 12.559 14.227-0.17757 1.9874 0.34422 3.8504 1.1596 4.14 0.93235 0.33113 1.6281-1.1946 1.875-4.1119 0.48644-5.7473 4.0469-8.5576 6.5602-5.1779 0.90541 1.2175 2.0128 4.5925 2.4608 7.5 1.7739 11.512 13.732 53.315 17.742 62.025 4.869 10.574 4.9907 11.054 2.2197 8.7542-1.1189-0.92859 0.50349 2.2369 3.6053 7.0344 8.2693 12.79 12.114 23.557 10.196 28.555-0.99671 2.5974-7.4868 2.726-8.4685 0.1678-0.39572-1.0312-1.4403-1.879-2.3212-1.8838-0.94193-0.005-2.4453-3.5092-3.6498-8.5066-3.0875-12.811-6.8577-20.517-16.15-33.011-15.629-21.013-24.448-39.793-25.862-55.072-0.36762-3.9727-1.1302-7.5084-1.6947-7.8573-0.56448-0.34886-3.8265 0.78467-7.2489 2.519-22.281 11.291-56.421 20.035-90.586 23.203-16.91 1.5678-26.298 1.1142-42.435-2.0502-5.3762-1.0543-10.643-1.5837-11.704-1.1764-1.0612 0.40722-8.1859 2.1527-15.833 3.8788-14.986 3.3829-25.104 3.2966-32.886-0.28059-2.1717-0.99826-10.071-8.2041-17.554-16.013-15.007-15.661-17.987-17.304-24.763-13.655-4.1062 2.2114-4.3123 2.2102-6.7973-0.0387-3.7711-3.4128-3.2885-9.8185 1.3602-18.056 4.7243-8.3711 12.856-19.591 17.305-23.876 1.7843-1.7188 4.7977-6.3331 6.6965-10.254 8.3433-17.229 37.555-35.674 65.96-41.649 21.719-4.5687 61.294-9.2674 84.24-10.002 27.723-0.88729 47.924-3.247 63.996-7.4756 12.899-3.3938 30.962-11.874 34.754-16.317 1.375-1.6109 4.1308-3.0973 6.1239-3.3032 5.0716-0.52382 6.245-3.1018 5.204-11.433-1.1108-8.8907-4.8617-12.765-16.346-16.884-6.727-2.4126-8.24-3.4802-8.8345-6.2342-0.39455-1.8277-1.195-4.4481-1.7788-5.8231s-1.3544-5.0312-1.7124-8.125-2.078-14.062-3.8221-24.375c-7.326-43.316-1.8629-74.692 17.4-99.933 13.227-17.332 37.376-33.321 59.442-39.357 13.013-3.5596 39.915-4.0037 50.573-0.83478 24.709 7.3464 44.099 23.191 55.335 45.217 3.5328 6.9255 7.9301 17.613 9.7717 23.75 3.4257 11.415 4.1919 21.907 4.2494 58.185l0.019 12.027 8.2633 12.66c4.5448 6.9632 8.8923 12.66 9.661 12.66 3.5564 0 18.5 6.7393 19.631 8.8535 1.614 3.0157-1.7718 8.6465-5.1991 8.6465-1.2959 0-2.3562 0.32397-2.3562 0.71995 0 1.3652 10.964 14.913 14.853 18.352 2.1435 1.8959 3.9079 4.1459 3.9207 5 0.0279 1.8504 44.463 23.479 48.175 23.449 1.4155-0.0113 3.6655 0.78987 5 1.7807 1.3345 0.99082 3.692 1.4923 5.2389 1.1145 1.8337-0.44792 2.8125-0.11775 2.8125 0.9485 0 1.2721 0.33334 1.3022 1.5 0.13551 0.825-0.825 2.853-1.5 4.5067-1.5s7.5881-1.3898 13.188-3.0884c16.83-5.1056 33.012-7.1236 57.681-7.1934 25.276-0.0715 35.59 1.4131 58.894 8.4767 16.763 5.0811 23.281 5.3391 44.856 1.7758 25.122-4.1493 44.288-5.0565 77.807-3.6831l30.595 1.2536 23.924-7.9867c36.186-12.08 34.315-11.906 90.799-8.4585 47.993 2.9293 54.669 2.8027 123.12-2.3345 35.585-2.6704 94.228-10.741 97.13-13.367 1.9541-1.7684 5.3668-1.9045 28.793-1.1482 36.447 1.1766 51.983 3.413 68.391 9.8449 15.29 5.9935 21.864 11.132 22.972 17.957 1.0814 6.6643-0.8974 9.5646-6.1105 8.956-2.6956-0.3147-4.4542 0.0936-4.8505 1.1261-0.3419 0.8909-2.1861 1.626-4.0983 1.6336-1.9122 0.007-5.5861 0.36241-8.1642 0.78855-4.3458 0.71831-4.6875 1.0846-4.6875 5.0255 0 2.3379-0.7136 4.5245-1.5859 4.8592-0.8722 0.33472-6.0754-0.56682-11.562-2.0034-5.4871-1.4366-11.383-2.7805-13.102-2.9864-1.7188-0.20592-6.661-1.3285-10.983-2.4947l-7.8578-2.1202-3.3922 3.6182c-8.0073 8.5404-12.675 10.426-30.395 12.28-15.381 1.609-17.347 2.128-29.121 7.6851l-12.626 5.9595h-21.875c-20.292 0-22.256-0.20346-27.138-2.8125-2.8945-1.5469-6.9101-2.8125-8.9235-2.8125-5.2616 0-27.659 7.9969-61.439 21.937-48.788 20.133-71.242 26.44-110.62 31.072-8.9375 1.0511-18.014 2.434-20.169 3.073-2.1554 0.639-11.155 1.8112-20 2.6049-20.9 1.8756-32.678 4.0314-58.581 10.723-11.688 3.0191-29.969 6.9357-40.625 8.7035s-26.406 4.5986-35 6.2906c-30.093 5.9252-39.154 6.9358-67.476 7.5259-15.455 0.32203-29.237 0.90823-30.625 1.3026-4.8939 1.3903-10.18 4.1776-12.24 6.4546-4.7343 5.2314-9.6211 19.317-14.012 40.39-4.9921 23.957-11.033 45.623-17.645 63.287-5.6499 15.093-11.442 33.931-13.693 44.531-2.3799 11.21-2.2996 39.613 0.1845 65.231 1.0666 11 2.1689 34.769 2.4495 52.82 0.40218 25.875 0.89353 33.414 2.3217 35.625 2.9344 4.5428 13.236 49.62 13.236 57.918 0 1.5159 2.1912 6.363 4.8693 10.771 13.999 23.042 26.843 56.401 37.7 97.911 9.5211 36.404 11.599 53.525 15.014 123.7 0.73603 15.125 1.8472 32.543 2.4694 38.707 1.3777 13.651-0.10488 17.32-6.7665 16.746-2.8127-0.2423-6.1097 0.9157-10.851 3.8112-3.7458 2.2876-6.9339 4.2623-7.0847 4.3882-0.15083 0.1259-1.1418 6.0052-2.2022 13.065-2.6557 17.681-6.4263 34.589-10.128 45.418-7.5559 22.101-15.355 67.709-17.269 100.99-1.6754 29.13-2.4341 28.116-4.6121-6.1644-1.7552-27.625-1.1424-35.858 3.7895-50.915 2.0636-6.3001 4.8512-17.55 6.1946-25 1.3435-7.4498 3.0247-15.071 3.736-16.936 1.3707-3.5937 8.8906-47.433 8.8906-51.83 0-2.394-0.92228-2.1439-12.188 3.3052-6.7031 3.2423-15.844 7.09-20.312 8.5504-17.348 5.6691-60.285 16.318-78.75 19.53-10.656 1.8538-20.686 3.638-22.289 3.9649-2.6634 0.5432-2.8443 1.047-2.103 5.8575 0.4461 2.8948 1.6428 8.2519 2.6594 11.905 1.0166 3.6528 3.4964 14.98 5.5107 25.171 7.1932 36.394 12.728 47.585 29.269 59.183 5.4355 3.8112 3.488 9.6292-3.2232 9.6292-1.8844 0-3.7739-0.5625-4.1988-1.25-3.4194-5.5327-4.7931 7.1281-2.5779 23.759 1.7027 12.784 8.6559 43.933 12.768 57.2 1.9327 6.2353 1.8906 7.8476-0.79312 30.378-3.6631 30.754-3.1949 67.742 1.0765 85.034 4.0449 16.375 11.187 36.138 14.471 40.04 7.6788 9.1257 16.031 65.225 18.493 124.21l0.313 7.5 6.25 3.4674c5.8331 3.236 7.0838 3.4437 18.75 3.1145 7.9604-0.2247 13.862-1.0335 16.25-2.2273 3.342-1.6705 3.78-2.5534 4.0262-8.1145 2.709-61.199 4.7351-86.358 9.7638-121.24 5.1751-35.898 6.2854-58.013 4.5764-91.157-1.6964-32.9-3.6775-49.726-8.4002-71.343-1.8024-8.25-3.966-19.219-4.808-24.375-1.6222-9.9336-1.3109-28.75 0.47557-28.75 0.58371 0 1.3912 3.2344 1.7943 7.1875 0.94826 9.2979 3.3588 20.669 8.8109 41.562 7.209 27.626 9.4748 46.135 10.274 83.925 0.74117 35.039-0.2708 52.677-4.6516 81.075-4.6626 30.224-8.9685 76.356-10.743 115.09l-0.83422 18.214 3.7371 5.1589c5.646 7.7941 9.1773 23.063 11.197 48.414 0.44478 5.5835 3.8202 19.029 9.3273 37.155 14.119 46.471 17.593 77.202 10.615 93.903-3.1158 7.457-13.625 17.567-22.316 21.467-19.013 8.5325-57.455 5.8446-71.69-5.0124-10-7.5-18.08-24.8-18.08-38.5 0-10.26 2.7408-24.621 6.2434-32.714 2.6527-6.1292 2.6934-7.156 2.1092-53.125-0.32764-25.781-0.98178-47.825-1.4536-48.986-2.0389-5.0174 3.9468-23.161 9.7195-29.461 2.2419-2.4468 2.6032-4.5279 2.7125-15.625 0.0694-7.0414-0.57336-16.74-1.4283-21.552-0.85494-4.8125-2.4352-16.906-3.5118-26.875-4.2671-39.513-8.0115-57.195-15.618-73.75-5.2294-11.382-9.3134-23.174-13.853-40-1.8132-6.7204-3.6702-28.776-3.6685-43.57 0.001-14.11 2.5083-39.669 5.7184-58.305l1.9378-11.25-6.7527-16.25c-13.796-33.199-17.384-47.851-17.115-69.894 0.14455-11.86-0.10738-13.201-4.2539-22.646-3.0561-6.9615-6.5191-19.61-11.294-41.25-3.7875-17.166-7.2633-33.601-7.7239-36.522-0.61631-3.9093-1.4159-5.3125-3.027-5.3125-1.2042 0-4.529-2.2704-7.3884-5.0453-4.6556-4.5181-5.1158-5.4884-4.4035-9.2848 0.43744-2.3317 0.18623-9.2019-0.55824-15.267-0.74446-6.0652-2.2295-19.746-3.3001-30.403-1.0706-10.656-2.7664-23.513-3.7686-28.571-1.0022-5.0579-1.8221-12.905-1.8221-17.438 0-19.161-2.4398-4.5787-10.73 64.134-0.24883 2.0625-0.80528 5.7188-1.2366 8.125-0.43126 2.4063-1.2223 9.1336-1.7578 14.95-0.58213 6.3224-1.5757 10.775-2.471 11.074-0.82352 0.2745-3.1608 2.1253-5.1941 4.1129-2.0332 1.9875-4.4602 3.6137-5.3932 3.6137-1.9534 0-2.153 0.7015-5.6911 20-6.5848 35.916-13.973 65.719-17.51 70.625-0.49553 0.6875-0.97207 8.8684-1.059 18.18-0.19745 21.15-2.8175 32.21-14.606 61.659l-8.442 21.088 2.0427 15.162c3.2 23.8 4.55 40 4.55 54.6 0 14.903-1.8454 36.966-3.6594 43.75-4.3446 16.248-9.8313 32.024-14.072 40.458-6.8825 13.69-10.739 32.245-16.012 77.042-1.4162 12.031-2.9965 24.125-3.5119 26.875-0.51541 2.75-0.8838 10.761-0.81867 17.802 0.10275 11.104 0.46159 13.177 2.7048 15.625 5.5665 6.075 11.943 24.888 9.6783 28.553-0.47298 0.7653-1.1248 22.732-1.4486 48.816l-0.58866 47.425 3.1026 7.7645c9.9203 24.827 6.5174 51.405-8.5314 66.634-7.4215 7.5103-16.624 11.122-33.191 13.026-11.499 1.322-15.475 1.3254-26.778 0.024zm36.25-8.8285c16.135-4.0276 24.271-11.681 26.37-24.808l0.86286-5.3961-6.2753 6.2752c-7.5552 7.5553-13.049 9.4798-35.332 12.377-14.795 1.9235-16.135 1.9111-25.234-0.2341-8.6862-2.048-9.795-2.0793-11.55-0.3245-2.2394 2.2393-8.8035 3.9526-10.686 2.7891-0.70428-0.4353-1.2805-0.2725-1.2805 0.3616 0 1.9744 17.923 9.2322 26.25 10.63 9.0246 1.5145 27.463 0.6796 36.875-1.6697zm282.68 1.3682c8.5256-1.6168 19.779-5.9817 23.202-8.9995 1.5751-1.3885 2.1469-2.1587 1.2708-1.7117-2.2146 1.13-8.6835-0.4524-10.897-2.6655-1.6185-1.6185-3.0437-1.58-11.892 0.3214-9.4046 2.021-11.039 2.0298-25.336 0.137-21.214-2.8087-27.676-5.1184-35.154-12.567l-6.1212-6.0969 0.75755 4.6683c1.2412 7.6485 6.0719 15.904 11.485 19.628 10.175 6.9996 35.63 10.52 52.684 7.2856zm-339.15-17.162c0.45534-0.4553-1.9637-2.7078-5.3757-5.0056-3.412-2.2977-6.8043-5.3002-7.5385-6.6721-0.73422-1.3719-1.8777-2.4944-2.541-2.4944-1.7461 0-1.4818 6.6726 0.35647 9.0021 3.3137 4.1989 12.816 7.4527 15.099 5.17zm367.52-1.0451c4.946-2.0665 7.0727-5.0494 7.0727-9.9199 0-3.8265-1.8883-4.1857-3.747-0.7127-0.73423 1.3719-4.1266 4.3743-7.5385 6.6721-8.3257 5.6069-5.6801 8.0941 4.2128 3.9605zm-310.86-1.2404c8.7617-2.602 14.102-6.5496 18.515-13.686l3.7889-6.1275 0.23176-23.224c0.12748-12.773-0.34464-26.599-1.0491-30.724-1.6464-9.6403-1.52-44.266 0.18473-50.597 1.359-5.0468 0.10812-14.178-2.2676-16.554-3.3329-3.3329-15.225 5.862-15.225 11.772 0 2.6863 0.70317 3.9214 2.5 4.3914 3.2214 0.8424 3.2259 3.7132 0.007 4.7347-6.6939 2.1247-8.3625 9.2367-3.1324 13.351 4.1939 3.2989 3.9541 5.9234-0.625 6.8391-2.4937 0.4988-3.75 1.501-3.75 2.9915 0 1.2329-0.3136 3.0588-0.69689 4.0576-0.38328 0.9988 0.15144 2.6644 1.1883 3.7013 1.0368 1.0367 2.2286 3.2534 2.6483 4.9256 0.61078 2.4336 0.124 3.3318-2.4383 4.4993-2.7502 1.2531-3.2014 2.2576-3.2014 7.1281 0 4.773 0.61824 6.2217 3.91 9.163 3.0901 2.761 3.7196 4.0935 3.002 6.3545-0.68927 2.1717-1.6162 2.7256-3.8474 2.2991-2.2548-0.431-3.0267 0.048-3.3145 2.0551-0.25998 1.8135-2.9567 3.9297-8.7838 6.8925l-8.4086 4.2757-5.1793-2.3355c-4.9849-2.2479-16.129-11.91-16.129-13.984 0-0.5535 1.4062-3.0759 3.125-5.6053 3.6238-5.3329 3.9473-9.2513 1.0996-13.317-1.7555-2.5063-1.7971-3.3195-0.3125-6.1014 2.0143-3.7744 1.9987-16.884-0.0209-17.558-1.7303-0.5768-1.8393-6.0809-0.14118-7.1304 2.303-1.4234 1.3532-6.7318-1.4753-8.2456-2.4998-1.3378-2.5515-1.5855-0.625-2.9943 2.6203-1.916 2.6392-4.6166 0.0922-13.193-2.0037-6.7471-2.0127-6.7557-4.2252-4.0235-1.2194 1.506-2.6006 5.9934-3.0693 9.9722-0.94099 7.9883-3.2565 17.039-11.285 44.109-2.9564 9.9687-5.7232 19.531-6.1484 21.25-1.8142 7.3339-3.0242 26.264-2.177 34.06 0.79219 7.2892 1.5021 9.0444 5.2271 12.924 6.2207 6.479 14.75 10.363 28.495 12.976 15.082 2.8669 25.432 3.0759 33.511 0.6769zm276.99-0.5791c14.871-2.7321 23.241-6.4262 29.623-13.074 3.7318-3.8868 4.4312-5.6218 5.2099-12.924 1.8213-17.079 0.27217-26.376-10.362-62.185-4.0831-13.75-8.0504-29.415-8.816-34.811-0.76997-5.4264-2.3295-10.969-3.4896-12.401-2.0579-2.5413-2.1364-2.476-4.1628 3.4713-2.6275 7.7111-2.617 11.812 0.0349 13.751 1.9265 1.4088 1.8748 1.6565-0.625 2.9943-2.8285 1.5139-3.7783 6.8222-1.4753 8.2456 1.726 1.0668 1.5761 6.558-0.19513 7.1484-2.1004 0.7001-2.0649 15.128 0.0434 17.669 1.4341 1.7278 1.3838 2.6956-0.327 6.301-2.7202 5.7323-2.562 7.5936 1.1037 12.988 1.7188 2.5294 3.125 5.0518 3.125 5.6053 0 2.074-11.144 11.736-16.128 13.984l-5.1793 2.3355-8.4086-4.2757c-5.8271-2.9628-8.5238-5.079-8.7838-6.8925-0.2878-2.0076-1.0596-2.4861-3.3145-2.0551-2.2312 0.4265-3.1581-0.1274-3.8474-2.2991-0.71764-2.261-0.0881-3.5935 3.002-6.3545 3.2918-2.9413 3.91-4.39 3.91-9.163 0-4.8705-0.45116-5.875-3.2014-7.1281-2.5623-1.1675-3.0491-2.0657-2.4383-4.4993 0.41973-1.6722 1.6114-3.8889 2.6483-4.9256 1.0368-1.0369 1.5716-2.7025 1.1883-3.7013-0.38329-0.9988-0.69689-2.8247-0.69689-4.0576 0-1.4905-1.2563-2.4927-3.75-2.9915-4.5791-0.9157-4.8189-3.5402-0.625-6.8391 5.2301-4.1141 3.5615-11.226-3.1324-13.351-3.2185-1.0215-3.214-3.8923 0.007-4.7347 1.7968-0.47 2.5-1.7051 2.5-4.3914 0-5.9097-11.892-15.105-15.225-11.772-2.3689 2.369-3.6269 11.506-2.2752 16.525 1.6513 6.1324 1.824 39.295 0.26038 50-1.6609 11.371-1.8728 47.762-0.31177 53.559 2.7117 10.07 9.0614 16.44 20.236 20.299 8.6417 2.9843 17.43 2.9712 33.877-0.05zm-293.22-52.014c5.569-4.2476 4.211-5.9612-4.1731-5.2659-8.6389 0.7164-10.916 2.7334-6.8439 6.0612 3.9078 3.1931 5.9845 3.0431 11.017-0.7953zm288.08 0.7953c4.1933-3.4264 1.6902-5.4194-7.6554-6.0954-8.6687-0.627-9.4445 0.5576-3.4561 5.2771 4.8758 3.8428 7.2005 4.014 11.112 0.8183zm-292.14-12.549 7.5913-0.7895-5.927-2.994-5.927-2.994-3.7161 3.5603c-3.438 3.2937-4.1608 6.8176-0.99742 4.8625 0.76167-0.4708 4.8009-1.2111 8.9761-1.6453zm293.38-2.9573-3.8562-3.8562-5.964 3.012-5.964 3.012 7.8325 0.8117c4.3078 0.4462 8.1832 1.1622 8.6118 1.5908 0.42866 0.4287 1.3231 0.4434 1.9877 0.033 0.66458-0.4107-0.52695-2.4821-2.6478-4.603zm-283.91-6.5c0-2.3767-1.7926-3.3918-4.2941-2.4319-1.5638 0.6001-1.6958 1.1653-0.58475 2.5041 1.8786 2.2636 4.8788 2.2193 4.8788-0.072zm271.13 0.073c1.1111-1.3388 0.97908-1.9041-0.58475-2.5042-2.5016-0.9599-4.2941 0.055-4.2941 2.4319 0 2.2915 3.0002 2.3359 4.8788 0.072zm-276.91-7.0795c6.4495-2.8529 7.4093-5.6354 2.5775-7.4726-4.4039-1.6742-4.2954-1.7002-11.185 2.6693-5.7643 3.6555-5.989 3.992-3.7558 5.625 3.2103 2.3474 5.5509 2.1917 12.364-0.8218zm290.18 0.8217c2.2332-1.633 2.0085-1.9695-3.7558-5.625-6.6444-4.2139-8.2839-4.569-11.974-2.5942-3.8603 2.066-2.8269 4.6733 2.8947 7.3033 6.459 2.969 9.7098 3.2009 12.835 0.9159zm-300.65-12c1.6667-1.0941 1.6667-1.3677 0-2.4618-2.8104-1.8448-3.75-1.5365-3.75 1.2309s0.9396 3.0758 3.75 1.2309zm302.5-1.2309c0-2.7674-0.9396-3.0758-3.75-1.2309-1.6667 1.0941-1.6667 1.3677 0 2.4618 2.8104 1.8449 3.75 1.5365 3.75-1.2309zm-285.35-7.7254c2.9485-2.447 1.6512-4.5233-4.0373-6.4616-5.9623-2.0315-11.7-1.1329-15.519 2.4306-1.5172 1.4157-0.78938 2.1267 4.8545 4.7414 6.7424 3.1239 10.288 2.9525 14.702-0.7104zm282.6-0.6703c2.9606-1.2194 0.94483-4.4568-3.7962-6.0967-3.9524-1.3672-5.5513-1.3167-10.377 0.3276-6.8091 2.3202-7.0358 4.9942-0.69205 8.1638 3.8808 1.939 4.6425 1.9562 8.7463 0.199 2.4724-1.0588 5.226-2.226 6.1192-2.5938zm-285.39-18.241c5.3554-1.9597 7.5906-3.4492 7.8612-5.2383 0.96278-6.3674 1.8146-8.3614 5.2372-12.26 2.0187-2.2991 5.9481-5.2074 8.7319-6.4627 5.8729-2.6483 6.5843-5.8798 2.4512-11.134-3.6507-4.6411-8.643-6.9266-17.049-7.8052-5.2932-0.5534-8.5572-0.1993-12.219 1.3254-8.1646 3.3996-20.576 11.212-20.599 12.967-0.0125 0.897 1.1532 4.2105 2.5894 7.3632 1.4362 3.1526 3.294 9.4315 4.1286 13.953 1.2994 7.0406 1.9565 8.3436 4.5762 9.0747 4.7741 1.3324 6.2944 1.1425 14.292-1.7839zm287.06 0.8812c0.43526-0.2537 1.1653-3.4537 1.6222-7.111 0.45695-3.6572 2.2102-9.6267 3.8961-13.266 1.6859-3.6389 3.0555-7.5446 3.0434-8.6795-0.0221-2.0944-11.519-9.6193-20.251-13.254-9.2354-3.8445-21.47-1.6922-28.106 4.9443-5.8115 5.8115-5.5264 9.6077 0.94042 12.524 2.7839 1.2553 6.7132 4.1636 8.7319 6.4627 3.4288 3.9053 4.3136 5.983 5.2203 12.26 0.68571 4.7465 19.379 9.3403 24.903 6.1195zm-297.36-49.275c8.0259-3.643 21.254-3.3648 29.11 0.6122 3.3484 1.6953 6.244 2.9263 6.4346 2.7355 0.19063-0.1906-0.15185-3.4092-0.76108-7.1525-0.60924-3.7432-0.78872-8.4898-0.39887-10.548l0.70881-3.7421-5.1104 4.6044c-8.0801 7.2797-20.666 9.3104-33.526 5.4091-3.3749-1.0237-6.5176-1.8675-6.9837-1.875-0.46616-0.013-1.2154 3.2209-1.6649 7.174-0.44954 3.9531-1.1305 8.2981-1.5132 9.6555-0.60877 2.1591-0.12754 2.0345 3.8445-0.995 2.4972-1.9047 6.9345-4.5499 9.8608-5.8781zm303.2-0.5833c-0.65646-4.806-1.3777-8.9223-1.6028-9.1475-0.22506-0.225-3.3793 0.4729-7.0094 1.5509-13.406 3.9811-25.768 2.0466-33.934-5.3106l-5.1104-4.6044 0.70881 3.7421c0.38985 2.0582 0.21036 6.8048-0.39887 10.548-0.60923 3.7433-0.95172 6.9619-0.76108 7.1525 0.19065 0.1908 3.0862-1.0402 6.4346-2.7355 11.576-5.8605 28.142-3.5478 39.396 5.4995 1.7085 1.3737 3.1883 2.3953 3.2886 2.2704 0.10025-0.125-0.35487-4.1592-1.0113-8.9654zm-321.03 2.1022c-0.0165-1.8217-0.18661-1.8547-1.2309-0.2388-1.582 2.448-1.582 4.1028 0 3.125 0.6875-0.4249 1.2414-1.7237 1.2309-2.8862zm327.67 0.1675c-1.0894-1.8735-1.3334-1.9275-1.3646-0.3022-0.0404 2.1052 1.274 4.0005 2.1599 3.1147 0.29219-0.2922-0.0657-1.5578-0.79532-2.8125zm-188.69-523.64c0.46106-5.5574 1.9796-13.995 3.3744-18.75 1.3949-4.7551 3.4288-15.958 4.5197-24.896 1.091-8.9375 2.2352-17.094 2.5427-18.125 2.085-6.9921 5.5682-46.965 5.4463-62.5-0.17659-22.503-0.67849-25.071-5.1926-26.575-2.8358-0.9444-5.7771-0.21957-16.067 3.9594-6.9279 2.8135-13.522 5.1117-14.654 5.1072-3.3344-0.0134 4.4065-4.54 15.228-8.9048l9.7855-3.947-7.9105-8.0209c-4.3508-4.4115-12.129-11.205-17.285-15.096-5.1562-3.8913-14.438-11.086-20.625-15.987-6.1875-4.9017-16.734-12.108-23.438-16.015-6.7031-3.9065-12.188-7.6329-12.188-8.2809 0-1.3575 2.1436-0.62685 14.201 4.8402 10.332 4.6849 20.618 10.843 34.318 20.546 13.584 9.6209 36.292 21.61 45.303 23.919 4.8377 1.2394 8.5048 1.484 11.35 0.75712 2.3118-0.59059 6.3128-1.432 8.8913-1.8698 2.7462-0.46631 9.4774-4.0657 16.25-8.6893 11.579-7.9052 23.795-14.615 32.121-17.643 2.4426-0.8884 6.691-2.5281 9.441-3.6438l5-2.0286-3.75 3.1498c-2.0625 1.7324-6.8576 4.8079-10.656 6.8344-7.6462 4.0797-22.164 14.529-28.328 20.388-2.191 2.0829-7.1854 5.6019-11.099 7.82-4.2257 2.395-6.5395 4.3887-5.6975 4.9091 0.92181 0.56971-0.0595 2.2704-2.8046 4.861-5.3389 5.0383-6.3745 11.494-5.2179 32.528 1.0072 18.317 10.068 93.271 12.614 104.35 0.99747 4.3395 1.8136 12.439 1.8136 18v10.11l10.938-0.8049c12.165-0.8952 39.265-6.1582 65.91-12.8 25.174-6.2755 26.76-6.809 61.903-20.827l31.875-12.715-0.32865-20.676c-1.65-103-4.24-121.93-26.16-191.45-3.1442-9.9688-5.9338-18.505-6.1993-18.97-0.73968-1.2954-31.252 17.912-64.738 40.752-16.051 10.948-21.457 13.708-18.971 9.6871 0.40707-0.65866 6.5103-5.0106 13.563-9.6709 26.464-17.488 67.198-46.764 67.198-48.296 0-2.5738-9.4386-24.145-12.616-28.832-1.9739-2.912-3.5991-6.4665-3.6116-7.8988-0.0374-4.2737-1.2247-4.3194-8.312-0.31954-5.3157 3-7.1346 3.5031-8.5172 2.3557-1.3512-1.1214-3.2781-1.0075-8.3277 0.49203-7.6657 2.2765-7.366 2.2379-7.366 0.94737 0-0.55198 4.3858-3.927 9.7461-7.5 6.51-4.35 11.03-6.5 13.63-6.5h3.8838l-2.4299-6.5625c-1.3364-3.6094-2.663-7.2448-2.948-8.0788-0.33927-0.99307-2.744-0.0184-6.9689 2.8248-3.548 2.3876-7.933 4.6576-9.7445 5.0444-1.8115 0.38684-5.2624 1.5082-7.6686 2.492-7.7725 3.1777-24.428 6.7492-37.689 8.0819-7.1146 0.71495-19.293 2.1208-27.062 3.124-17.467 2.2555-34.347 2.2482-68.998-0.0298-50.57-3.3244-90.868-11.865-110.44-23.408-3.3888-1.9981-6.586-3.1785-7.1051-2.6231-0.51902 0.5554-1.3223 3.3417-1.7851 6.1917-0.79203 4.8775-0.58054 5.3809 3.5997 8.5694 10.339 7.8857 39.333 18.136 61.92 21.89 31.328 5.2068 48.782 6.641 81.939 6.7332 32.746 0.091 57.385-2.086 83.125-7.345 13.205-2.6979 21.25-3.5146 21.25-2.1572 0 5.0438-49.149 14.215-88.75 16.56-35.151 2.0819-64.082 1.6758-78.125-1.0966-24.367-4.8107-70.63-18.836-83.077-25.186l-4.7331-2.4147-0.67633 5.0424c-0.37199 2.7733-1.5444 5.7018-2.6054 6.5077-2.6307 1.9982-7.9555 18.517-16.993 52.715-20.747 78.509-25.256 108.26-26.895 177.5-0.40708 17.188-1.0316 33.255-1.3879 35.705-0.75685 5.2052-2.6471 4.0569 24.834 15.086 27.861 11.182 60.455 21.635 82.867 26.577 32.691 7.2081 52.015 10.624 58.668 10.371l6.25-0.238 0.83829-10.104zm136.04-97.59c-1.0312-0.22252-10.168-1.8717-20.304-3.6649-33.459-5.9194-59.879-19.26-72.682-36.701-9.7806-13.324-3.4444-14.498 12.048-2.2326 7.2853 5.7677 5.8425 8.1034-1.6212 2.6245-7.2576-5.3276-9.596-4.8713-4.2251 0.82438 16.404 17.396 52.834 31.523 89.615 34.752 6.0258 0.529 11.353 1.359 11.839 1.8445 2.3293 2.3293-7.654 4.0661-14.67 2.5522zm-223.75-9.2028c0-1.4206 13.1-5.7014 40-13.071 32.459-8.8925 36.063-9.6821 47.603-10.43 10.29-0.6667 10.949-0.55706 12.347 2.0556 1.1873 2.2186 1.0956 3.342-0.46762 5.7278-2.3378 3.5679-10.85 9.5853-17.476 12.354-9.7988 4.0942-9.4277 1.9731 1.0726-6.1298 4.4436-3.4291 8.0998-6.6632 8.125-7.1869 0.0738-1.5347-8.8746 0.22837-37.208 7.3309-38.42 9.6311-53.996 12.328-53.996 9.349zm200.63-23.15c-14.6-3.01-39.38-14.14-39.38-17.69 0-2.9406 3.5096-2.0226 12.353 3.2314 10.772 6.3996 27.076 12.349 36.56 13.34 4.0781 0.42625 7.7118 1.2555 8.0748 1.8429 0.93069 1.5059-8.7223 1.1096-17.613-0.72315zm12.427-9.2432c-2.7818-2.525-6.5984-5.8728-8.4813-7.4397-1.883-1.5669-3.0861-3.395-2.6735-4.0625 0.99905-1.6165 18.103-1.5822 18.103 0.0363 0 0.6875-2.4375 1.25-5.4167 1.25s-5.8053 0.38867-6.2804 0.86371c-0.47505 0.47505 1.7879 3.5558 5.0288 6.8462 7.0656 7.1734 6.8631 8.9891-0.27945 2.5059zm-115.58-55.14c-24.783-5.2307-81.077-25.653-78.317-28.412 0.27247-0.27246 5.4931 1.5272 11.602 3.9993 13.505 5.4656 51.633 17.189 64.646 19.877 14.65 3.026 33.726 2.2739 25.21-0.99395-2.6174-1.0044-2.3467-3.298 0.3893-3.298 2.3106 0 7.7357 4.2815 7.7357 6.105 0 0.55416-1.0287 1.9385-2.2859 3.0763-3.0415 2.7525-14.953 2.6075-28.979-0.3529zm24.369-20.113c-0.49464-0.80033-0.12966-2.154 0.81106-3.0081 2.4734-2.2456 53.172-32.424 59.835-35.617l5.625-2.6955-3.75 3.162c-2.0625 1.7391-10.078 7.1786-17.812 12.088-7.7344 4.9092-14.062 9.1212-14.062 9.3599 0 0.48999 0.30655 0.37369 19.811-7.5159 14.421-5.8336 17.132-6.6206 15.892-4.6142-0.78146 1.2644-22.453 11.995-29.347 14.531-2.4646 0.90659-10.95 4.5476-18.856 8.0911-7.9062 3.5435-15.021 6.7199-15.811 7.0586-0.78984 0.33873-1.8408-0.039-2.3354-0.8393zm-76.85-19.79c-27.967-11.666-48.534-22.745-51.657-27.825-0.68223-1.1097-0.85981-3.0095-0.39459-4.2218 1.3404-3.493 16.991-1.8883 35.177 3.6067 8.25 2.4928 30.99 8.4512 50.533 13.241 19.543 4.7897 36.046 9.2207 36.671 9.8466 2.3471 2.3471-1.4426 2.3838-17.842 0.17279-21.632-2.9164-34.947-5.888-64.774-14.455-13.289-3.8169-24.783-6.7327-25.542-6.4796-1.6801 0.56002 8.5948 6.3378 33.453 18.812 10.312 5.1747 19.875 10.282 21.25 11.35 2.5 1.9413 2.5 1.9413 0 1.9455-1.375 0.002-8.9688-2.6943-16.875-5.9925zm98.75-11.76c0-0.87859 3.74-2.6389 8.4375-3.9712 4.6406-1.3162 18.221-7.3818 30.179-13.479 11.958-6.0973 22.645-10.896 23.75-10.664 4.7716 1.0023-24.567 16.307-47.048 24.543-15.91 5.83-15.32 5.69-15.32 3.57zm-149.52-105.61c-6.2264-6.0156-12.269-12.484-13.427-14.375-1.1585-1.8906-2.6415-3.4375-3.2955-3.4375-1.2412 0-4.0915 4.9434-5.5157 9.5663-1.2577 4.0826 7.9487 10.957 20.692 15.451 5.7448 2.0259 10.99 3.6945 11.656 3.708 0.66592 0.0136-3.8835-4.8972-10.11-10.913zm-77.26-314.76c-1.6345-5.4584-3.5803-12.174-4.3241-14.924l-1.3523-5 0.50977 6.25c0.46408 5.6896 6.6742 25.063 7.7039 24.033 0.23896-0.23898-0.90282-4.9004-2.5373-10.359zm-173.84-9.91c19.763-5.4549 47.1-16.175 63.125-24.756 13.286-7.114 55.065-34.557 60.193-39.539 1.825-1.7729 10.825-7.541 20-12.818 22.735-13.076 43.557-28.746 43.557-32.78 0-2.3016 4.534-3.0776 9.1856-1.5721 7.2567 2.3486 17.941-0.0752 36.341-8.2442 9.6736-4.2948 19.278-9.2607 21.343-11.035 2.0653-1.7746 4.6486-3.5503 5.7408-3.9459 1.893-0.68562 24.144-14.745 26.764-16.91 1.4865-1.2288 19.654-4.9162 29.375-5.9622 15.288-1.645 32.003-5.6219 29.964-7.129-0.97629-0.72139-60.854 2.4294-62.221 3.2741-1.76 1.1-5.24-0.42-5.24-2.28 0-2.3096 8.12-4.3012 20.679-5.072 6.1575-0.37791 18.959-1.9087 28.448-3.4018 13.45-2.1165 18.051-2.4132 20.877-1.3464 2.4791 0.93576 3.7619 0.95802 4.0577 0.0705 0.28636-0.85905 1.3985-0.78095 3.2894 0.231 2.386 1.277 3.2515 1.1716 5.2528-0.63949 1.3178-1.1926 2.396-2.7241 2.396-3.4033 0-1.6782-21.225-0.14017-39.748 2.8803-18.082 2.9484-44.413 6.2421-49.902 6.2421-3.5 0-4.0998-0.44115-4.0998-3.0151 0-2.5355-0.78286-3.1474-4.9217-3.8466-4.1484-0.70088-6.5542-0.0531-15.312 4.1226-5.7149 2.7248-15.172 7.7078-21.016 11.073-5.8438 3.3656-17.312 9.4305-25.484 13.478-9.3169 4.6136-15.083 8.2124-15.458 9.6482-0.68577 2.6224-0.9502 2.7028-3.8271 1.1631-1.4395-0.77042-5.6637 0.0304-13.355 2.532-6.1874 2.0124-15.75 4.4587-21.25 5.4362-5.5 0.97758-15.906 3.1745-23.125 4.882-12.692 3.0021-31.23 5.483-61.29 8.202-18.624 1.6846-41.866 5.6542-59.96 10.241-22.18 5.6223-44.998 18.138-56.604 31.047-3.1536 3.5076-5.911 7.6228-6.1274 9.1449-0.25066 1.7627-1.4146 2.9124-3.206 3.1669-2.0733 0.29445-2.8125 1.2336-2.8125 3.573 0 2.7683-0.40254 3.0725-3.1524 2.3824-2.3456-0.58871-3.3647-0.22349-3.9818 1.427-0.45613 1.22-3.2288 6.2963-6.1615 11.281-2.9327 4.9844-4.9277 9.0625-4.4334 9.0625 0.49432 0 3.0553-1.4654 5.691-3.2564 6.2022-4.2145 29.603-15.471 32.038-15.412 1.0312 0.0252-3.4991 2.7798-10.067 6.1212-6.5683 3.3414-12.684 6.9689-13.591 8.0611-0.914 1.1-2.177 1.99-2.814 1.99-1.668 0-16.036 10.3-16.036 11.5 0 0.55216 1.5469 1.0286 3.4375 1.0588 5.88 0.0939 12.091 3.0086 22.75 10.677 12.732 9.1591 19.584 13.694 24.437 16.172 5.4284 2.7718 16.89 1.5828 36.25-3.7608zm-11.88-74.33c0-3.075 133.81-47.083 140.09-46.071 1.3209 0.21304-5.0488 2.6252-14.155 5.3603-9.1061 2.7351-41.166 13.233-71.244 23.328-30.09 10.09-54.7 17.91-54.7 17.38zm270.31-14.53c2.5781-0.44378 4.6875-1.3068 4.6875-1.9178 0-1.2517-13.706-1.529-16.805-0.33991-3.3164 1.2726 0.30152 4.4685 4.1913 3.7024 1.7811-0.35082 5.3477-1.0009 7.9258-1.4447zm42.19-11.91c9.8887-2.0039 10-2.056 10-4.6784 0-5.0885-4.6582-6.3041-28.75-7.5023-18.045-0.89748-24.268-2.8784-26.796-8.5301-1.1184-2.5001-1.5679-2.3194-10 4.0204-4.8559 3.651-12.113 8.613-16.127 11.027l-7.298 4.3885 4.173 0.75087c14.654 2.6367 62.712 2.9737 74.798 0.52453zm873.75-22.232c0-0.61133-0.9844-2.2912-2.1875-3.7331-1.7364-2.0809-4.5075-2.8807-13.438-3.8782-6.1875-0.69117-13.219-1.2075-15.625-1.1474l-4.375 0.10926 5.625 1.723c12.368 3.7884 26.961 7.8686 28.438 7.9509 0.8594 0.0479 1.5625-0.4131 1.5625-1.0244zm-48.706-2.0665c2.3531-2.8354-0.3319-4.9299-6.1253-4.778-4.6722 0.1225-11.419 3.431-11.419 5.5998 0 2.0339 15.788 1.2944 17.544-0.82173zm66.768-5.4296c-0.6531-0.60914-4.5625-1.4401-8.6875-1.8466-7.3887-0.72809-7.4351-0.71306-3.125 1.0124 4.9059 1.964 13.689 2.5842 11.812 0.83414zm10.7-7.7c0-3.0438-1.11-4.3858-6.5625-7.934-3.6094-2.3488-7.955-4.6828-9.657-5.1865-2.9949-0.88643-2.9646-0.76798 0.9375 3.6763 4.5546 5.1875 5.0175 7.7968 1.8445 10.398-2.0122 1.6494-1.9422 1.7398 0.8725 1.1276 1.6829-0.366 3.6516-0.18703 4.375 0.39771 1.621 1.3106 5.9841 2.3114 7.2525 1.6635 0.5156-0.26337 0.9375-2.1274 0.9375-4.1423zm-71.25 1.311c1.4268-0.92201 0.9214-1.2163-2.1137-1.2309-2.1938-0.01-4.3364 0.54336-4.7613 1.2309-0.9901 1.6021 4.3959 1.6021 6.875 0zm18.438-0.86166c-1.2031-0.3144-3.1719-0.3144-4.375 0-1.2031 0.31441-0.2187 0.57166 2.1875 0.57166 2.4063 0 3.3906-0.25725 2.1875-0.57166zm-933.45-25.54c9.2812-3.3904 19.39-7.0871 22.465-8.2149 3.0744-1.1278 8.3451-4.6278 11.713-7.7778l6.123-5.7273 12.037-0.87658c6.6205-0.48211 22.162-1.4839 34.537-2.2262 12.375-0.74226 24.328-1.9387 26.562-2.6588 3.6448-1.1746 4.0625-1.7996 4.0625-6.0785 0-3.1858-0.65321-5.02-1.9674-5.5243-1.0821-0.41522-1.7775-1.741-1.5454-2.9462 0.42432-2.2034 0.8528-2.3734 6.7016-2.66 5.1558-0.25264 7.259-6.9098 7.3553-23.281 0.0641-10.909-0.37649-14.587-2.1326-17.801-3.1978-5.8519-7.4589-8.2812-12.776-7.2837-6.5687 1.2323-10.473 5.3446-11.753 12.381-0.60521 3.3256-1.6742 6.6203-2.3756 7.3217-1.9487 1.9487-4.2364-3.3519-4.4488-10.308-0.22636-7.414 2.7202-11.887 10.515-15.964 4.535-2.3715 6.877-2.793 12.787-2.3017 6.5306 0.54294 7.1662 0.38311 6.5238-1.6406-0.3914-1.2332-0.0416-3.7127 0.77732-5.5101 1.1578-2.5411 1.1415-5.2836-0.0735-12.331-2.3455-13.605-6.1625-28.092-8.9821-34.09-5.8981-12.548-24.982-28.447-41.335-34.437-3.6555-1.339-11.808-3.2674-18.117-4.2853-10.144-1.6366-12.707-1.6352-22.152 0.012-26.759 4.6664-54.095 19.739-69.665 38.412-7.3754 8.8457-16.257 26.532-19.312 38.455-2.5256 9.8582-1.9346 17 4.0331 48.745 2.391 12.719 4.734 27.906 5.2068 33.75 0.81856 10.118 1.0085 10.645 3.9845 11.035 5.1881 0.68079 17.216 9.1887 18.681 13.214 0.72544 1.9932 1.319 6.9753 1.319 11.071 0 6.5938 0.25069 7.3466 2.1875 6.5691 1.2031-0.48298 9.7812-3.6521 19.062-7.0425zm-6.25-17.194v-7.3467l10.938-3.8643c15.057-5.32 24.325-6.749 34.46-5.3137 4.5481 0.64407 9.3484 1.9269 10.667 2.8508 2.0803 1.4571 1.179 1.6182-6.799 1.2153l-9.1971-0.46444-13.192 7.7106c-13.895 8.1214-22.711 12.486-25.314 12.532-1.0759 0.0189-1.5625-2.2606-1.5625-7.3193zm120.96-32.11c-0.433-0.433-0.51296-1.5021-0.1777-2.3758 0.33548-0.87423-0.54635-1.8908-1.9611-2.2608-3.4191-0.89411-3.2414-3.9172 0.61725-10.501 4.6441-7.9246 2.4661-10.397-4.21-4.7798-5.5568 4.6758-6.478 4.0599-6.478-4.3315 0-6.5619 0.46662-7.988 3.8893-11.886 4.4823-5.105 7.934-6.328 12.722-4.5076 3.2652 1.2414 4.9858 6.3503 2.1387 6.3503-0.6875 0-1.25-0.5625-1.25-1.25 0-1.8864-5.3383-1.499-8.3428 0.60546-1.457 1.0205-3.2601 3.6083-4.0069 5.7506-1.2145 3.484-1.1292 3.7989 0.80841 2.9838 4.4891-1.8885 7.867-2.083 9.7036-0.5588 2.2529 1.8698 3.6979 0.86222 2.6563-1.8521-0.4071-1.0609-2.1973-1.9289-3.9782-1.9289-1.8404 0-2.9046-0.53955-2.4655-1.25 1.0741-1.7379 7.3079-1.5671 9.125 0.25 3.1657 3.1657 0.81445 14.902-4.173 20.829-3.7804 4.4927-4.1981 7.8229-0.5693 4.5389 4.1155-3.7245 4.553-0.85176 0.48914 3.2121-2.0625 2.0625-4.1043 3.3957-4.5373 2.9627zm-18.123 31.137c-0.84629-0.3424-2.5338-0.36324-3.75-0.0464-1.2162 0.31692-0.52379 0.59707 1.5387 0.62255 2.0625 0.0255 3.0576-0.23383 2.2113-0.57624zm64.252-0.14924c0.80486-0.51199 1.8386-2.4259 2.2972-4.2532 1.2043-4.7985-1.77-5.8745-16.354-5.9162-12.959-0.0371-32.571 3.5989-37.373 6.9288-1.3561 0.94033-4.4498 1.775-6.875 1.8547s-3.5054 0.38675-2.4007 0.68222c1.1048 0.29547 6.4485-0.0606 11.875-0.79123 5.4265-0.73064 17.46-1.3085 26.741-1.284 13.477 0.0355 17.125 0.41726 18.119 1.8962 1.4041 2.0908 1.8979 2.2006 3.9698 0.88267zm-26.253-14.159c4.3532-0.75809 7.9149-1.6242 7.9149-1.9248 0-0.30057-1.078-2.6596-2.3956-5.2423s-2.796-6.9197-3.2853-9.6377c-1.2056-6.6967-2.9803-9.8208-3.0311-5.3357-0.0816 7.2058-5.6883 16.019-10.191 16.019-1.9206 0-2.0423 0.50149-0.90984 3.75 1.4873 4.2664 1.2684 4.2227 11.898 2.3717zm-100.36 1261.9c0.7974-31.57 2.3888-58.056 6.3269-105.3 4.3589-52.296 6.4235-70.043 8.3947-72.158 3.1404-3.3689 3.7132 3.2685 2.8578 33.114-1.3363 46.626-2.9266 55.462-2.4748 13.75 0.23385-21.59-0.0213-33.163-0.64741-29.375-2.5582 15.474-10.396 116.15-12.505 160.62-0.79861 16.844-1.7495 30.906-2.1131 31.25-0.3636 0.3438-0.29136-14.012 0.16051-31.903zm234.52 27.8c0-8.7164-2.6405-57.663-4.4306-82.13-1.0312-14.094-3.0131-42.219-4.4042-62.5-3.669-53.489-4.5579-55.828-4.9882-13.125-0.33316 33.058-0.44226 34.654-1.2391 18.125-1.1357-23.56-1.3611-58.601-0.40002-62.188 1.2445-4.6437 3.8661-3.2462 4.6897 2.5 1.7317 12.082 3.3617 30.742 5.1594 59.062 1.0474 16.5 2.7138 40.969 3.7032 54.375 2.0705 28.054 3.9504 90 2.7312 90-0.45178 0-0.82142-1.854-0.82142-4.1201zm-11.784-211.19c-6.0862-9.295-13.648-32.128-16.353-49.375-0.45817-2.9219-1.2911-5.3125-1.8509-5.3125-1.8904 0-3.7114-7.4714-2.5594-10.501 2.3424-6.1609 8.8847-4.9587 11.179 2.0542 0.73274 2.2397 1.8882 12.51 2.5677 22.822 1.2748 19.348 2.7715 26.988 7.2861 37.194 2.8169 6.368 2.705 7.6616-0.26978 3.1185zm-208.26-5.0601c4.4974-10.782 6.3647-20.675 7.5077-39.776 0.80974-13.531 1.6807-19.65 3.107-21.826 2.4788-3.7831 7.5509-4.025 9.4635-0.4514 1.5903 2.9715 0.56346 9.1204-1.8587 11.131-0.91232 0.7572-2.0412 4.0304-2.5087 7.2739-2.3363 16.211-10.277 39.718-15.715 46.522-2.4938 3.1205-2.4938 3.1164 0.004-2.8726zm240.66-2.8599c0.57538-1.3159 1.1206-8.8175 1.2116-16.67 0.13521-11.669 0.53472-14.511 2.1865-15.552 2.8612-1.8048 5.9806 1.1126 5.9806 5.5932 0 4.6383-7.1561 27.002-9.0061 28.145-0.99035 0.6121-1.1028 0.1545-0.37259-1.5158zm-276.9-12.695c-4.3246-13.5-4.8694-18.052-2.5024-20.904 2.0293-2.4452 3.1112-2.4145 5.687 0.1613 1.5078 1.5079 1.8437 3.1404 1.2214 5.9375-1.0855 4.8796-0.79886 16.186 0.5652 22.295 2.0742 9.2903-1.154 4.4261-4.9712-7.4904zm267.53-8.2c0-0.2724 1.9578-4.6318 4.3506-9.6875 5.5887-11.808 8.6357-26.466 7.8332-37.682-0.33704-4.7105-1.2475-9.1993-2.0233-9.9751-3.3672-3.3672-0.0297-10.022 3.8298-7.637 5.4282 3.3549 6.7722 27.142 2.287 40.476-2.6152 7.7751-16.277 28.343-16.277 24.505zm-260.46-10.7c-8.9995-12.225-11.312-19.489-11.367-35.715-0.0519-15.036 0.81212-19.968 3.6918-21.073 4.6398-1.7805 7.8118 4.0218 4.1827 7.651-2.2283 2.2283-1.814 22.123 0.657 31.547 1.1718 4.4688 3.8087 11.725 5.86 16.124 2.0512 4.3997 3.4776 8.2512 3.1697 8.559-0.30791 0.3079-3.095-2.884-6.1937-7.0931zm221.71-47.9c0-2.4753 9.7831-21.36 11.368-21.944 2.7803-1.0237 2.2437 3.8852-1.1585 10.599-4.1 8-10.21 14.8-10.21 11.3zm-181.42-3.4c-4.02-5.3-8.58-14.2-8.58-16.8 0-4.7508 2.7183-2.4413 7.4486 6.3283 5.9713 11.07 6.7045 17.823 1.1317 10.423zm76.762-494.05c-4.7733-1.5324-6.2481-5.0464-3.9332-9.3717 1.5676-2.929 2.1176-3.0772 8.8214-2.3765 7.0023 0.73188 19.77 6.9674 19.77 9.6554 0 0.62854-3.9043 1.1428-8.6762 1.1428s-9.0239 0.5625-9.4488 1.25c-0.89219 1.4436-1.1371 1.4323-6.533-0.29996zm-107.49-205.92c-17.31-0.83529-24.033-2.5124-10.241-2.5549 31.779-0.0979 60.223-2.6532 68.021-6.111 2.75-1.2194 8.3988-5.8584 12.553-10.309 6.7437-7.2249 7.85-9.1759 10.326-18.212 3.6696-13.39 6.4586-32.355 6.5764-44.719 0.0524-5.5 0.54625-11.125 1.0975-12.5 1.6517-4.1199 3.013 15.83 2.1307 31.227-1.7298 30.188-12.335 52.407-28.29 59.271-8.9064 3.8314-32.727 5.3285-62.174 3.9076zm128.59-2.684c-8.1471-1.3542-8.0802-1.313-16.122-9.9288-9.952-10.663-15.286-24.766-15.309-40.48-0.01-6.6464 1.5326-4.3947 4.2302 6.1758 4.7258 18.518 14.853 32.42 25.857 35.492 9.0343 2.5227 36.187 2.3497 48.289-0.3076 5.6419-1.2388 11.267-2.0253 12.5-1.7478 4.9998 1.1254-39.53 12.312-47.98 12.054-2.6278-0.0804-7.787-0.64633-11.465-1.2577zm-146.73-16.14c-3.1441-2.0826-6.4749-4.7286-7.4018-5.8802-0.92691-1.1515 1.0862 0.004 4.4735 2.5682 3.3873 2.564 7.6061 4.9781 9.375 5.3645 5.315 1.1611 5.8797 1.5316 2.493 1.6352-1.7728 0.0542-5.7956-1.6052-8.9397-3.6878zm-0.66392-8.2962c-0.86726-0.34939-2.1719-1.7472-2.8992-3.1062-1.5732-2.9396 0.41762-6.0612 3.8656-6.0612 2.4531 0 8.9866 4.8924 6.6217 4.9584-0.8188 0.0229-1.8364-0.52091-2.2613-1.2084-0.4249-0.6875-2.2058-1.25-3.9575-1.25-2.3907 0-2.9958 0.49307-2.4262 1.9772 0.41732 1.0875 0.75874 2.2125 0.75874 2.5 0 0.28751 0.81055 0.52276 1.8012 0.52276 0.99067 0 2.1489 0.5625 2.5738 1.25 0.80286 1.2991-1.343 1.5188-4.0768 0.41738zm-10.769-2.3407c-1.2062-3.1434-0.85038-3.9544 0.62317-1.4204 0.72961 1.2547 1.0632 2.5446 0.74141 2.8664-0.32184 0.32184-0.9359-0.32886-1.3646-1.446zm215.16-3.1768c-1.4513-0.8453-2.1875-2.8101-2.1875-5.8382 0-3.9314 1.0332-5.5688 7.454-11.813 5.1085-4.9678 8.4518-7.2488 10.625-7.2488 1.744 0 3.171 0.54485 3.171 1.2108 0 0.66592-0.82948 0.89247-1.8433 0.50344-4.5771-1.7564-18.157 11.253-18.157 17.394 0 3.6749 1.9734 4.6414 9.4772 4.6414 3.0375 0 5.5228 0.5625 5.5228 1.25 0 1.6301-11.229 1.5501-14.062-0.10013zm17.402-6.7221c3.7437-1.6285 7.5928-6.4126 6.2443-7.7611-1.1134-1.1134-5.8333 2.125-5.8333 4.0023 0 1.0071-0.5625 1.831-1.25 1.831-2.5098 0-1.1616-4.8881 2.0436-7.4093 4.1428-3.2587 7.5585-3.3137 8.5664-0.13794 1.5351 4.8366-4.5804 11.341-10.576 11.248-3.0094-0.0466-2.9712-0.13075 0.80472-1.7733zm-231.54-2.4838c1.3345-1.0692 2.9752-1.944 3.6458-1.944 1.5882 0 0.87904 0.57738-2.9472 2.3996-2.9466 1.4033-2.9865 1.3773-0.69859-0.45568zm7.8861-2.8261c1.5469-0.29795 4.0781-0.29795 5.625 0 1.5469 0.29793 0.28125 0.54171-2.8125 0.54171s-4.3594-0.24378-2.8125-0.54171zm303.83-68.69c7.4462-15.012 15.696-31.937 18.333-37.611 4.5406-9.7708 5.3618-10.734 15.533-18.229 19-14 41.73-28.33 44.95-28.33 0.8617 0-2.8273 3.3315-8.1977 7.4032-5.3704 4.0718-17.077 14.669-26.014 23.55-17.323 17.213-23.531 25.804-44.865 62.085-5.6317 9.5773-10.923 17.641-11.758 17.92-0.83544 0.27849 4.5734-11.776 12.02-26.788zm-199.67-19.9c0.06-1.4562 0.35617-1.7524 0.7552-0.75522 0.36109 0.90234 0.31669 1.9805-0.0986 2.3958-0.41536 0.41536-0.7108-0.32292-0.65652-1.6406zm8.3388-0.20742c-1.4747-0.33487-2.1875-1.6943-2.1875-4.172 0-2.0214-0.69034-4.7807-1.5341-6.1318-1.1733-1.8787-1.1988-3.3447-0.10862-6.233 1.1332-3.0021 1.0907-3.7766-0.20714-3.7766-2.911 0-3.0987-3.4168-1.3214-24.061 0.96189-11.173 2.451-30.11 3.3092-42.082 0.85816-11.972 1.9479-20.691 2.4216-19.375 1.9873 5.5215 2.0574 50.09 0.11413 72.588l-0.8806 10.195 3.6454-3.0674c8.455-7.1144 30.586-15.337 53.312-19.806 27.074-5.3248 39.549-8.1874 49.641-11.39 5.2013-1.6508 9.8005-2.969 10.221-2.9294 2.6869 0.25334-17.987 8.0221-48.611 18.267-19.594 6.5548-40.834 14.358-47.201 17.341-10.889 5.1019-11.723 5.7676-14.062 11.225-1.3678 3.191-2.4869 7.4094-2.4869 9.3743 0 3.9589-0.81739 4.7705-4.0625 4.0336zm231.56-7.56c0-0.54945 2.1094-0.78992 4.6875-0.5344 7.2568 0.71924 7.7855 1.3261 1.25 1.4347-3.2656 0.0542-5.9375-0.35086-5.9375-0.90031zm-252.45-4.59c-6.7819-5.0035-16.111-7.4536-43.174-11.339-23.126-3.32-47.82-10.27-60.938-17.15-8.9957-4.7185-9.4622-6.8148-0.625-2.8081 9.4396 4.2798 29.146 7.6778 57.812 9.9688 28.468 2.2752 29.758 2.461 40.042 5.7669 12.807 4.117 20.151 12.332 15.333 17.151-2.1738 2.1738-3.7536 1.8768-8.4512-1.589zm244.01 1.0111c-1.5754-0.63569-2.2488-5.4222-0.7628-5.4222 0.96975 0 4.105 4.0034 4.1606 5.3125 0.0439 1.0344-1.0208 1.0688-3.3978 0.10962zm58.75-0.0337c1.2031-0.3144 3.1719-0.3144 4.375 0 1.2031 0.31441 0.2187 0.57166-2.1875 0.57166-2.4063 0-3.3906-0.25725-2.1875-0.57166zm25.32-1.64c1.375-0.59086 4.75-1.0473 7.5-1.0142 4.7784 0.0574 4.8338 0.10238 1.25 1.0142-2.0625 0.52481-5.4375 0.98122-7.5 1.0142-3.1756 0.0509-3.3671-0.1045-1.25-1.0142zm15.961-2.1162c1.2162-0.31692 2.9037-0.29609 3.75 0.0464 0.8463 0.34241-0.1488 0.60171-2.2113 0.57623-2.0625-0.0255-2.7549-0.30562-1.5387-0.62255zm-453.5-7.2542c6.3569-5.1949 19.322-11.224 20.849-9.6967 1.8068 1.8068 0.25742 4.0671-2.7878 4.0671-1.3516 0-6.3668 1.9688-11.145 4.375-10.152 5.1125-12.061 5.4588-6.9165 1.2545zm247.54-48.13c-0.4249-0.6875 0.41885-1.25 1.875-1.25s2.2999 0.5625 1.875 1.25-1.2686 1.25-1.875 1.25c-0.60635 0-1.4501-0.5625-1.875-1.25zm-96.016-20.917c-1.1298-1.9187 2.1162-25.383 3.4455-24.906 0.72644 0.26065 1.2358 1.5369 1.132 2.8361-1.2425 15.546-2.0723 21.828-2.9557 22.374-0.58176 0.35955-1.3116 0.22268-1.6218-0.30416z"/>
</svg>
