<?xml version="1.0" encoding="UTF-8" standalone="no"?>
<!-- Created with Inkscape (http://www.inkscape.org/) -->
<svg id="svg3336" xmlns:rdf="http://www.w3.org/1999/02/22-rdf-syntax-ns#" xmlns="http://www.w3.org/2000/svg" height="127" viewBox="0 0 500 127" width="500" version="1.1" xmlns:cc="http://creativecommons.org/ns#" xmlns:dc="http://purl.org/dc/elements/1.1/">
 <metadata id="metadata3342">
  <rdf:RDF>
   <cc:Work rdf:about="">
    <dc:format>image/svg+xml</dc:format>
    <dc:type rdf:resource="http://purl.org/dc/dcmitype/StillImage"/>
    <dc:title/>
   </cc:Work>
  </rdf:RDF>
 </metadata>
 <path id="path3346" fill="#f2f2f2" d="m243.02 110.76c-7-4.77-7.02-4.91-7.02-46.679 0-35.77 0.0924-37.641 2.0601-41.705 1.4999-3.0984 3.2252-4.8196 6.3445-6.3297 4.2613-2.0629 4.8378-2.0726 106.87-1.8101 102.52 0.26378 102.58 0.26527 105.41 2.3685 1.5527 1.1575 3.7231 3.6325 4.8231 5.5 1.882 3.1951 2.0181 5.5011 2.3074 39.076 0.33912 39.368 0.0689 41.802-5.2905 47.65l-3.37 3.67-104.41 0.26356-104.41 0.26357-3.3164-2.2636zm207.69-5.8133c1.6563-0.57737 3.5234-2.1736 4.1492-3.547 0.78-1.715 1.14-13.671 1.14-38.312 0-34.722-0.0634-35.899-2.0726-38.453l-2.08-2.635h-101.49c-64.29 0-102.16 0.359-103.32 0.979-3.61 1.93-4.04 6.301-4.04 40.702 0 35.994 0.42348 39.352 5.2056 41.271 3.3468 1.3432 198.65 1.3411 202.51-0.002zm-194.92-5.663c-1.4927-0.22722-3.8737-1.7912-5.291-3.4756l-2.58-3.062 0.29-30.462 0.29-30.463 2.81-2.412 2.8-2.412h94.928 94.928l3.0193 2.75 3.0193 2.75 0.048 30.207c0.0538 33.867-0.0404 34.362-6.9078 36.269-3.5008 0.97238-181.08 1.2675-187.36 0.3114zm-184.83-6.537c-3.297-1.663-5.048-3.43-6.707-6.77-4.883-9.83-4.886-31.123-0.006-40.949 5.997-12.072 23.489-11.796 29.714 0.469 2.382 4.694 2.537 5.919 2.537 20.027 0 14.093-0.15708 15.336-2.527 20-2.884 5.675-8.887 9.473-14.973 9.473-1.967 0-5.584-1.012-8.038-2.25zm12.477-5.904c3.876-1.766 5.52-5.136 6.579-13.485 1.763-13.906-0.809-26.167-6.059-28.882-6.7804-3.5063-12.818-0.62451-14.997 7.158-1.5108 5.3959-1.821 18.54-0.60874 25.795 1.4194 8.4952 8.0381 12.626 15.086 9.4144zm32.521 5.904c-3.2972-1.6627-5.048-3.43-6.7073-6.7704-4.9-9.867-4.89-31.278 0.03-40.98 6.0945-12.039 23.472-11.746 29.687 0.5 2.3822 4.6941 2.5374 5.9194 2.5374 20.027 0 14.093-0.15708 15.336-2.527 20-2.89 5.675-8.89 9.473-14.98 9.473-1.9669 0-5.5841-1.0125-8.0381-2.25zm12.477-5.9041c3.8763-1.7662 5.5201-5.1356 6.5787-13.485 1.7632-13.906-0.80891-26.167-6.0588-28.882-6.596-3.4109-13.028-0.50255-15.094 6.8249-1.5386 5.4578-1.5222 22.992 0.0267 28.492 1.8887 6.7067 8.3879 9.8565 14.547 7.0503zm39.82-2.096c2.9912-5.6375 10.065-19.138 15.718-30 9.83-18.894 10.41-19.75 13.24-19.75h2.956l-3.4382 6.25c-1.891 3.4375-8.9756 16.938-15.743 30-11.82 22.799-12.43 23.75-15.25 23.75h-2.9311l5.4386-10.25zm26.768 8.9707c-4.54-2.297-7.03-7.336-7.03-14.221 0-9.995 5.35-16.071 13.33-15.124 6.68 0.793 10.67 6.447 10.67 15.124 0 11.283-8.5747 18.469-16.97 14.221zm8.5288-5.1401c1.63-1.192 1.94-2.651 1.94-9.081 0-6.4296-0.31205-7.8894-1.9411-9.0806-2.69-1.967-5.21-1.774-7.56 0.581-1.5897 1.5897-2 3.3333-2 8.5s0.41026 6.9103 2 8.5c2.3546 2.3546 4.8687 2.5477 7.5589 0.58061zm-167.56-17.059v-22.478l-6.155 3.978c-3.385 2.188-6.535 3.978-7 3.978s-0.845-1.473-0.845-3.273c0-2.7158 0.59681-3.594 3.5079-5.1617 1.9293-1.039 5.7798-4.2914 8.5566-7.2274 2.777-2.936 5.924-5.338 6.993-5.338 1.879 0 1.943 0.948 1.943 29v29h-3.5-3.5v-22.478zm432-8.522c0-18.634-0.01-18.608 5.9012-15.551 4.7785 2.4711 8.898 8.0295 9.6456 13.015 0.56276 3.7528 0.22955 5.4652-1.9055 9.7922-2.72 5.509-7.7 9.744-11.45 9.744-2.17 0-2.19-0.179-2.19-17zm-309.5 2.046c-4.7352-1.9586-6.922-5.823-7.3243-12.943-0.5703-10.093 3.0255-15.827 10.497-16.741 7.66-0.936 13.33 5.501 13.33 15.138 0 10.955-8.0418 18.044-16.5 14.546zm8.0589-5.4654c1.63-1.192 1.94-2.651 1.94-9.081 0-6.4296-0.31205-7.8894-1.9411-9.0806-5.47-4.002-9.56-0.121-9.56 9.081 0 9.2025 4.0851 13.083 9.5589 9.0806z"/>
</svg>
