<?xml version="1.0" encoding="UTF-8" standalone="no"?>
<!-- Created with Inkscape (http://www.inkscape.org/) -->

<svg
   xmlns:dc="http://purl.org/dc/elements/1.1/"
   xmlns:cc="http://creativecommons.org/ns#"
   xmlns:rdf="http://www.w3.org/1999/02/22-rdf-syntax-ns#"
   xmlns:svg="http://www.w3.org/2000/svg"
   xmlns="http://www.w3.org/2000/svg"
   xmlns:sodipodi="http://sodipodi.sourceforge.net/DTD/sodipodi-0.dtd"
   xmlns:inkscape="http://www.inkscape.org/namespaces/inkscape"
   id="svg4190"
   height="499"
   viewBox="0 0 499 499"
   width="499"
   version="1.1"
   inkscape:version="0.91 r13725"
   sodipodi:docname="bikers.svg">
  <sodipodi:namedview
     pagecolor="#ffffff"
     bordercolor="#666666"
     borderopacity="1"
     objecttolerance="10"
     gridtolerance="10"
     guidetolerance="10"
     inkscape:pageopacity="0"
     inkscape:pageshadow="2"
     inkscape:window-width="1920"
     inkscape:window-height="1017"
     id="namedview3451"
     showgrid="false"
     inkscape:zoom="0.47294589"
     inkscape:cx="51.802966"
     inkscape:cy="249.5"
     inkscape:window-x="-8"
     inkscape:window-y="-8"
     inkscape:window-maximized="1"
     inkscape:current-layer="svg4190" />
  <metadata
     id="metadata4196">
    <rdf:RDF>
      <cc:Work
         rdf:about="">
        <dc:format>image/svg+xml</dc:format>
        <dc:type
           rdf:resource="http://purl.org/dc/dcmitype/StillImage" />
        <dc:title />
      </cc:Work>
    </rdf:RDF>
  </metadata>
  <defs
     id="defs4194">
    <linearGradient
       id="linearGradient4139"
       y2="11.199"
       gradientUnits="userSpaceOnUse"
       x2="306.16"
       y1="489.91"
       x1="307.4"
       gradientTransform="matrix(0.81,0,0,0.81,45.807,5.7664265)">
      <stop
         id="stop4135"
         stop-color="#1a1a1a"
         offset="0" />
      <stop
         id="stop4137"
         stop-color="#5a5a5a"
         offset="1" />
    </linearGradient>
  </defs>
  <path
     id="path4200"
     d="m 84.87087,403.33873 c -14.97852,-3.6531 -27.80244,-16.8885 -30.89016,-31.8816 -0.620703,-3.0132 -0.88371,-51.6051 -0.88371,-163.2474 0,-140.057104 0.14742,-159.529504 1.2393,-163.782004 4.17717,-16.27047 17.74143,-28.69911 33.9957,-31.15422 3.87666,-0.58506 55.8738,-0.78481 164.43,-0.63107 l 158.76,0.22484 5.40975,2.106 c 13.13253,5.1124 20.89638,12.9762 25.97427,26.3088 l 1.8263,4.79528 0.22484,158.760004 c 0.15373,108.5562 -0.0459,160.5501 -0.63146,164.43 -2.22871,14.7582 -12.72186,27.49059 -27.19899,33.00426 l -4.7952,1.8225 -161.595,0.1377 c -129.195,0.1134 -162.453596,-0.0729 -165.863696,-0.8991 z"
     style="fill:url(#linearGradient4139)"
     inkscape:connector-curvature="0" />
  <path
     id="path4227"
     d="m 181.6764,347.28673 c -16.11576,-0.708 -20.68983,-5.89947 -20.68983,-7.49922 0,-1.02376 1.40721,-5.04266 3.12709,-8.93106 8.48232,-19.17513 11.87217,-56.98269 6.69432,-74.65284 -1.3416,-4.57837 -6.89707,-15.0498 -12.34521,-23.26968 l -9.9063,-14.94531 5.32203,-11.87541 c 7.73525,-17.26029 9.14004,-23.72652 9.24048,-42.52662 0.0726,-13.62825 -0.58191,-18.88515 -3.41561,-27.43632 -4.56281,-13.76838 -11.79684,-28.16208 -16.88688,-33.59799 -3.99055,-4.262224 -4.0061,-4.362664 -1.01404,-6.560034 5.51999,-4.05397 8.84682,-8.38917 26.11359,-9.33687 10.86777,-0.59637 20.33829,0.84272 23.4252,1.91881 4.02238,1.40219 13.45167,1.58549 17.5689,-0.83139 2.72306,-1.59877 10.12338,-4.28036 16.44543,-5.95908 29.22399,-7.76005 61.95285,-8.14941 86.3217,-1.02717 36.82341,10.76328 50.83317,26.036644 54.72522,59.659744 0.76908,6.64362 2.38934,13.5918 3.60061,15.44022 2.00637,3.06213 7.2282,4.42147 -2.51813,10.90989 -4.07608,2.71342 -6.71538,12.72105 -9.15381,19.0431 -4.84615,12.56472 -4.14226,12.82068 -11.79522,19.54044 -2.83273,2.48735 -10.52595,5.52704 -9.88524,7.19515 0.50308,1.31099 7.67718,4.44569 8.92053,5.10649 8.0514,4.27882 8.84763,7.87069 12.54852,26.02206 1.43759,7.0525 3.68016,13.23783 5.52639,15.24339 l 3.10708,3.37478 -3.98876,4.74036 c -4.17061,4.95656 -4.79302,6.84548 -10.15254,30.81483 -3.96018,17.70984 -7.71331,23.70141 -20.1277,32.13189 -18.92078,12.84903 -32.63246,16.74351 -58.84973,16.71435 -15.27903,-0.0165 -37.99953,-2.05375 -52.10811,-4.67224 -8.47908,-1.57359 -3.781,-2.56373 -13.35205,1.10128 -9.96947,3.81753 -15.73263,4.63676 -26.4959,4.16388 z m 15.15186,-7.32224 c 3.96511,-1.19329 9.46323,-3.88856 12.21723,-5.98946 l 5.00791,-3.81972 9.09954,3.07841 c 28.70397,9.71109 63.64656,9.55557 90.2583,-0.40048 22.10571,-8.27091 30.13929,-18.66321 35.37594,-45.765 1.26554,-6.54934 3.86337,-13.90041 6.11452,-17.3016 l 3.91409,-5.91462 -3.14297,-4.41386 c -1.72862,-2.42757 -3.80027,-7.88024 -4.60379,-12.11679 -3.3027,-17.415 -10.27161,-27.78462 -21.48444,-31.96665 l -7.66179,-2.85808 8.38917,-4.11448 c 9.66087,-4.73833 16.55883,-13.16088 19.84743,-24.2352 2.88854,-9.72648 4.92706,-13.4703 10.59642,-19.45863 l 4.76142,-5.02937 -3.97119,-3.39989 c -3.06074,-2.62043 -4.76191,-6.73791 -7.42025,-17.95932 -4.39182,-18.53928 -7.48764,-25.65189 -14.58405,-33.50727 -4.63482,-5.130224 -7.99243,-7.035014 -17.93907,-10.176844 -35.55089,-11.24118 -84.64499,-10.92609 -109.5768,0.6885 l -9.49239,4.42365 -5.77473,-2.94419 c -9.42273,-4.80411 -40.99572,-3.54334 -44.27865,1.76815 -0.5213,0.84346 1.57108,4.321684 4.64964,7.729354 6.99978,7.74789 9.91927,14.57109 15.31224,35.78337 3.7243,14.64885 4.1613,18.68346 3.4033,31.41828 -1.06539,17.90019 -4.31195,29.04984 -10.51542,36.11547 l -4.71428,5.36924 4.23557,4.18787 c 2.32956,2.30331 11.13993,12.59145 14.06079,24.39234 l 3.51297,14.19363 0.66785,16.92252 c 1.01784,25.79121 -4.17296,47.42712 -10.61505,56.72268 -6.41002,9.24939 -5.49099,10.73331 6.64969,10.73331 5.76655,0 13.72869,-0.97638 17.69364,-2.16967 z m -17.44983,-4.38218 c 4.3e-4,-0.18966 1.30475,-3.79315 2.8985,-8.00782 3.89967,-10.31292 6.64354,-32.66811 6.86581,-55.93941 0.23603,-24.70905 -3.24826,-37.20978 -13.57155,-48.69153 -6.24956,-6.95102 -6.65513,-7.85878 -4.35813,-9.75483 1.39296,-1.14988 3.7358,-5.28703 5.63493,-8.98776 11.35377,-22.12272 5.60933,-56.76885 1.93379,-72.42858 -2.47819,-10.55916 -8.47341,-24.09669 -12.98835,-29.32929 -2.44255,-2.830794 -2.1763,-2.878984 10.30968,-1.86543 7.04952,0.57222 14.90967,2.12236 17.46684,3.44469 4.32208,2.23503 5.03812,2.19234 10.17198,-0.60697 6.72357,-3.666384 27.00054,-8.726944 44.60346,-11.132644 18.57654,-2.53805 44.33616,0.48229 68.20038,7.996654 8.64756,2.72289 12.26421,4.90989 18.64782,11.27682 8.71155,8.68887 12.14514,17.07804 13.76676,33.64011 0.49537,5.05755 1.83425,10.69443 2.9753,12.52584 1.82104,2.92337 1.63271,4.14088 -1.54119,9.96219 -1.98871,3.64734 -4.73388,10.10151 -6.10044,14.34267 -3.85551,11.96613 -9.92736,18.18045 -22.43376,22.95945 -5.92587,2.26443 -13.51161,4.48424 -16.85691,4.9329 -8.42886,1.13059 -7.59982,2.88181 1.96353,4.1472 11.82276,1.56443 20.09853,5.81879 29.3868,15.10731 7.61019,7.61019 8.34867,8.98047 9.33039,17.31699 0.58617,4.97898 2.00539,11.00871 3.15381,13.39902 1.85328,3.85786 1.75916,4.80564 -0.83689,8.42967 -2.97716,4.15554 -5.87768,13.62744 -9.22914,30.13686 -2.60285,12.8223 -11.4777,21.42531 -29.30499,28.40913 -11.17071,4.37586 -15.14376,5.1226 -30.48192,5.72872 -21.01464,0.83041 -35.36379,-1.16348 -54.83457,-7.61991 l -14.42691,-4.78386 -3.69538,4.72181 c -3.6399,4.65086 -11.90295,8.53173 -21.66912,10.17684 -2.7395,0.46151 -4.98061,0.68397 -4.98021,0.4943 z m 105.7455,-25.75638 c 8.37135,-3.78934 14.66343,-9.53775 18.40968,-16.81803 3.38855,-6.58546 6.63884,-23.42844 5.32186,-27.57807 -0.52304,-1.64786 -1.50789,-8.5212 -2.18862,-15.27336 -0.94818,-9.40572 -3.92372,-18.60813 -9.09792,-22.25151 -6.96284,-4.90333 -8.79822,-5.77222 -4.08459,0.31065 6.04131,7.79609 5.78818,24.95772 3.27564,29.4921 -1.77633,3.20582 -1.64219,4.61538 1.00943,10.61019 3.57639,8.08502 0.57491,22.39326 -3.51864,28.64079 -4.13465,6.31031 -10.75356,9.92817 -22.47669,9.91845 -14.78736,-0.0123 -20.58048,-2.04784 -27.64773,-9.71514 -8.16399,-8.85654 -11.62593,-19.6911 -11.58543,-36.25398 0.0497,-20.18277 5.82333,-30.47544 21.16449,-37.72737 8.26929,-3.90946 23.17653,-4.9623 30.55239,-2.15792 5.92782,2.25375 4.71946,0.21087 -1.38356,-2.3392 -8.47746,-3.54205 -24.71391,-2.84917 -33.76647,1.44091 -9.27207,4.39425 -13.65093,8.41266 -17.36559,15.93756 -12.74859,25.82361 -5.65389,61.55028 14.29002,71.95959 11.36592,5.93196 28.2528,6.71199 39.09141,1.80573 z m -1.59181,-14.40504 c 10.97631,-5.67615 14.15718,-18.39267 7.17417,-28.6821 -3.14062,-4.62801 -3.34109,-5.69649 -1.5326,-8.16966 2.99197,-4.09179 2.55077,-14.49657 -0.85139,-20.07585 -2.0101,-3.29637 -5.19907,-5.56591 -10.22949,-7.27979 -13.45167,-4.58355 -21.51927,-2.45341 -29.28879,7.7338 -3.93215,5.15532 -4.2939,6.73693 -4.2939,18.7758 0,7.23054 0.52745,15.62004 1.17207,18.64458 1.28985,6.05029 10.48788,17.78679 15.53985,19.82961 5.20134,2.10292 17.57538,1.67281 22.30983,-0.77547 z m 4.16016,-92.1942 c 7.41603,-3.09857 16.8885,-13.18437 18.77985,-19.99566 0.89294,-3.2157 1.62745,-12.83688 1.63215,-21.38076 0.007,-14.0373 -0.40406,-16.32393 -4.27389,-23.73138 -3.07832,-5.89267 -5.82592,-10.20438 -11.04273,-13.4298 -6.79095,-4.19855 -14.16447,-6.77573 -23.32557,-7.15011 -14.39127,-0.58812 -18.71262,1.86446 -24.75846,5.01171 -8.93106,4.64916 -13.16088,8.05877 -18.11322,16.47945 -3.41828,5.8124 -3.93093,10.57374 -4.41612,22.96917 -0.55265,14.11911 -0.01,15.71724 4.99017,25.34085 3.95766,7.61724 13.2678,15.05223 18.09297,17.7147 11.24442,6.20282 30.37662,3.21052 42.43509,-1.82776 z m -39.00231,-2.26597 c -13.89231,-6.87658 -19.66518,-19.75914 -18.42831,-41.12613 0.98269,-16.97517 4.19393,-22.47264 16.95573,-29.02716 16.76295,-8.60949 30.75327,-8.07441 41.76927,1.59837 2.82325,2.47884 6.24153,7.40915 7.59618,10.95606 2.23301,5.84723 2.24256,7.07422 0.10189,13.14144 -2.13176,6.04203 -2.12795,7.37918 0.0387,13.76109 1.42859,4.20779 2.0173,9.10845 1.45459,12.10788 -1.23265,6.57064 -9.13761,15.45885 -16.87311,18.97344 -8.76582,3.98212 -24.15987,3.8002 -32.61546,-0.38537 z m 33.67332,-7.67435 c 7.20843,-3.78351 9.72243,-16.84719 4.99997,-25.97913 -2.12285,-4.10516 -2.12285,-4.8971 0,-7.92787 3.30488,-4.71842 2.93519,-11.3643 -0.93458,-16.79859 -8.27091,-11.6154 -27.92313,-11.64861 -40.01238,-0.069 -14.49981,13.88826 -5.62181,44.28918 15.12918,51.80922 5.97982,2.16692 15.63219,1.68748 20.81781,-1.03404 z"
     inkscape:connector-curvature="0"
     style="fill:#ffffff" />
  <text
     xml:space="preserve"
     style="font-style:normal;font-variant:normal;font-weight:bold;font-stretch:normal;font-size:95.54141235px;line-height:125%;font-family:Calibri;-inkscape-font-specification:'Calibri Bold';text-align:center;letter-spacing:0px;word-spacing:0px;text-anchor:middle;fill:#ececec;fill-opacity:1;stroke:none;stroke-width:1px;stroke-linecap:butt;stroke-linejoin:miter;stroke-opacity:1"
     x="251.81616"
     y="490.94284"
     id="text4174"
     sodipodi:linespacing="125%"><tspan
       sodipodi:role="line"
       x="251.81616"
       y="490.94284"
       id="tspan4178">Biker Club</tspan></text>
</svg>
