<?xml version="1.0" encoding="UTF-8" standalone="no"?>
<!-- Created with Inkscape (http://www.inkscape.org/) -->
<svg id="svg3416" xmlns:rdf="http://www.w3.org/1999/02/22-rdf-syntax-ns#" xmlns="http://www.w3.org/2000/svg" height="1062.5" viewBox="0 0 1062.5 1062.5" width="1062.5" version="1.1" xmlns:cc="http://creativecommons.org/ns#" xmlns:dc="http://purl.org/dc/elements/1.1/">
 <metadata id="metadata3422">
  <rdf:RDF>
   <cc:Work rdf:about="">
    <dc:format>image/svg+xml</dc:format>
    <dc:type rdf:resource="http://purl.org/dc/dcmitype/StillImage"/>
    <dc:title/>
   </cc:Work>
  </rdf:RDF>
 </metadata>
 <path id="path3426" fill="#fff" d="m465.36 1045.4c-0.84385-2.199 0.95222-9.49 6.2544-25.389 16.143-48.406 23.061-79.694 25.981-117.5 1.535-19.875 0.84709-59.748-1.1537-66.875l-1.0528-3.75-0.96224 4.375c-0.52923 2.4062-6.1009 19.844-12.381 38.75-11.142 33.54-11.419 34.66-11.42 46.12-0.00089 10.01-0.3093 11.792-2.0884 12.062-2.4871 0.37811-6.5533-3.8196-7.9256-8.182-0.54068-1.7188-1.3214-16.625-1.735-33.125l-0.75199-30-5.4175 14.375c-13.606 36.101-20.348 60.988-22.642 83.57-0.72328 7.1197-1.3151 13.279-1.3151 13.688 0 0.40841-0.56742 0.17514-1.2609-0.51838-3.2458-3.2458 3.5694-41.99 11.74-66.739 6.8222-20.666 23.227-62.961 24.087-62.101 0.23093 0.23091-0.122 4.595-0.78433 9.6979-1.6055 12.37-1.6098 57.83-0.006 66.285 0.7294 3.8461 2.3929 7.7975 3.8871 9.2331l2.612 2.5096-0.83667-10.183-0.83669-10.183 12.43-37.942c6.8366-20.868 13.164-40.895 14.061-44.505 2.9684-11.946 4.1036-8.6012 6.2581 18.438 3.2536 40.833-1.1851 86.323-12.685 130-3.7371 14.194-4.9821 18.231-14.973 48.559-7.3729 22.381-5.9162 24.326 3.593 4.7963 4.2901-8.8108 9.9667-21.467 12.615-28.125 6.8068-17.115 22.541-63.685 29.007-85.855l5.4683-18.75-0.0548-21.25c-0.04-15.546-0.66007-24.102-2.31-31.875-2.5855-12.181-11.315-39.27-13.993-43.422-1.6043-2.4871-1.5117-3.6639 0.83576-10.625 3.4639-10.272 8.1683-33.118 9.2947-45.138 0.49298-5.2608 1.1338-9.565 1.4239-9.565 0.29019 0 5.7085 4.135 12.041 9.1889 24.861 19.843 64.282 43.13 104.65 61.824 24.118 11.168 31.138 13.357 48.734 15.2 27.649 2.8952 46.481 0.13266 57.136-8.3817 5.2468-4.1926 17.261-31.042 27.834-62.207 9.1065-26.84 20.947-58.501 27.657-73.953 3.3326-7.6743 8.5749-21.174 11.65-30 3.0747-8.8257 8.392-23.359 11.816-32.297 11.03-28.789 14.606-47.346 12.694-65.876-0.60245-5.8393-2.0345-12.812-3.1822-15.495-1.1478-2.6832-2.8949-7.5315-3.8826-10.774-0.98763-3.2425-2.6708-6.3852-3.7403-6.9838-1.7174-0.96108-1.6407-1.5868 0.65627-5.3545 1.6614-2.7252 2.6026-6.3971 2.6055-10.165 0.005-5.8857 0.0197-5.9063 6.6759-9.1655 3.6692-1.7966 8.3098-4.6062 10.312-6.2436l3.6413-2.977-9.0625-0.045c-4.9844-0.0248-9.0625-0.35413-9.0625-0.73202s0.78477-2.206 1.7439-4.0625c5.5826-10.805 10.636-39 6.9904-39-0.98806 0-1.2957-1.2036-0.87298-3.415 0.35905-1.8783-0.12025-4.91-1.0651-6.7371-3.0709-5.9384-20.546-72.731-20.546-78.529 0-0.42381 1.6995-1.412 3.7767-2.1961 5.6891-2.1474 8.4292-9.6545 9.9941-27.381 0.72185-8.1767 0.96-17.961 0.52921-21.742-2.4866-21.826-11.752-41.288-28.278-59.397-12.907-14.143-45.447-41.404-50.608-42.398-1.2636-0.24336-5.3894-2.5021-9.1682-5.0194-10.411-6.9352-27.101-14.698-33.041-15.367-5.1857-0.5845-5.3902-0.78984-9.933-9.9706-10.98-22.18-31.75-53.39-45.07-67.694-4.24-4.56-15.38-17.06-24.75-27.779-32.35-36.99-52.01-51.45-74.73-54.975-15.22-2.362-45.5-0.904-61.23 2.948-25.783 6.3146-47.287 15.543-67.197 28.839-11.536 7.7039-37.836 28.927-55.928 45.133-8.25 7.39-16.055 14.079-17.344 14.865-5.0704 3.0896-71.841 81.221-85.078 99.553-19.401 26.869-18.881 26.07-24.947 38.355-16.986 34.396-31.847 79.665-39.731 121.02-2.4781 12.999-2.8622 19.002-2.8795 45-0.0221 33.312 1.1886 42.265 10.142 75 8.7883 32.131 16.284 50.284 49.551 120 13.037 27.322 34.594 81.405 37.01 92.855 3.6389 17.243 2.7321 41.396-1.7776 47.347-2.2818 3.0112-2.2434 1.1226 0.18656-9.1876 2.267-9.6188 1.7159-25.677-1.3219-38.515-3.436-14.521-21.952-60.635-36.89-91.875-14.553-30.434-27.749-58.683-30.657-65.625-10.357-24.728-19.447-53.979-25.249-81.25-3.2619-15.332-3.4569-18.05-3.4529-48.125 0.004-29.642 0.24406-33.101 3.4286-49.372 6.4104-32.753 14.087-58.546 27.226-91.479 9.8726-24.746 17.388-38.365 33.676-61.022 14.896-20.721 18.773-25.588 36.855-46.259 4.8146-5.504 17.605-20.169 28.422-32.588 10.818-12.419 21.955-24.418 24.751-26.665 2.7953-2.2464 12.353-10.489 21.239-18.316 52.848-46.552 79.451-61.774 124.53-71.259 26.994-5.6794 61.254-4.0217 76.354 3.6945 16.957 8.6652 37.672 27.178 60.998 54.516 6.1594 7.2188 14.942 17.177 19.517 22.129 14.937 16.169 34.879 45.636 46.45 68.637 4.18 8.3088 4.7911 8.9424 9.3267 9.6676 6.5133 1.0415 20.227 7.3624 30.813 14.202 4.758 3.0742 9.6809 5.7878 10.94 6.0303 5.1162 0.9853 36.028 26.737 49.813 41.498 11.384 12.189 17.714 21.505 22.954 33.777 7.3155 17.132 8.7924 27.59 7.0778 50.122-1.423 18.698-3.8947 26.247-9.7713 29.842l-3.64 2.23 4.07 18.12c4.7703 21.226 13.65 52.679 16.341 57.884 1.034 1.9996 1.5509 4.9467 1.1487 6.5493-0.40223 1.6026-0.12138 3.2907 0.62415 3.7515 2.333 1.4419-0.0416 21.382-3.8262 32.128l-3.4116 9.6875h7.36c12.6 0 11.217 5.1094-3.3887 12.523l-8.0797 4.101v5.5c0 3.025-0.84169 7.1277-1.8704 9.117-1.1412 2.2069-1.3976 3.9092-0.65749 4.3666 0.66712 0.4123 2.0545 3.3974 3.0831 6.6334 1.0286 3.2361 3.046 9.1991 4.4832 13.251 2.0729 5.8445 2.6313 10.495 2.7016 22.5 0.10925 18.661-3.2571 33.821-13.31 59.936-3.7467 9.7334-9.0946 24.317-11.884 32.409-2.7897 8.0915-7.8205 21.029-11.18 28.75-6.925 15.918-17.645 44.478-26.383 70.288-9.1377 26.992-19.594 51.962-26.332 62.879-4.7988 7.7753-22.844 13.996-40.6 13.996-9.5269 0-9.5636 0.0126-6.7144 2.3198 2.532 2.0502 2.699 2.7401 1.4382 5.9375-5.529 14.021-9.2822 42.492-8.1682 61.961 0.52844 9.2358 0.37255 13.667-0.46266 13.15-2.403-1.4851-2.9588-26.054-0.95555-42.235 2.02-16.317 5.1176-30.726 7.1691-33.349 0.9048-1.157-0.0815-2.7605-3.62-5.8855-7.1544-6.3183-8.5414-5.838-10.273 3.5574-2.1629 11.738-1.753 30.459 1.0848 49.543 3.4658 23.308 4.2751 32.15 2.8032 30.625-0.66347-0.6875-2.5471-9.9688-4.1858-20.625-3.0605-19.902-4.093-49.778-2.1033-60.861l0.93997-5.2355-5.94-0.82125c-12.412-1.7161-21.635-4.8814-43.445-14.911-33.749-15.519-75.418-39.826-99.37-57.966-7.2188-5.4669-13.22-9.8581-13.335-9.7582-0.11575 0.0999-0.84281 4.9619-1.6158 10.805-1.4832 11.211-8.0732 40.173-9.8728 43.389-0.67501 1.2062-0.19881 3.6797 1.3094 6.8013 3.3808 6.9975 9.5369 26.127 12.408 38.558 1.6448 7.1205 2.6839 17.428 3.1503 31.25l0.69592 20.625-4.5707 17.5c-11.905 45.581-38.918 118.15-49.672 133.44-2.7358 3.8896-5.6845 4.4577-6.886 1.3266zm-42.129-70.752c-0.57133-1.2311-0.76062-10.512-0.42067-20.625 0.48472-14.419 1.4652-22.163 4.5433-35.887 2.1588-9.625 4.273-18.596 4.6982-19.936 0.65508-2.0642 0.16135-1.9211-3.2359 0.9375-7.79 6.55-13.81 2.93-13.81-8.34 0-5.5069 0.70192-7.0675 6.7622-15.034 7.7351-10.169 9.612-14.221 12.569-27.136 3.5527-15.515 2.5674-50.342-1.9715-69.689-2.26-9.6333-7.6978-26.519-8.3348-25.882-0.32769 0.32767 0.17948 5.258 1.127 10.956 0.94754 5.6983 1.7228 18.703 1.7228 28.899 0 15.526-0.32404 18.776-1.9938 20-1.5177 1.1125-2.1591 4.5958-2.6859 14.587-0.48084 9.1196-1.5443 15.414-3.4849 20.625-3.3502 8.9965-4.5231 10.625-7.6527 10.625-3.631 0-4.0188-2.972-1.2149-9.3108 7.6222-17.231 6.7253-48.304-2.2568-78.189-10.022-33.344-23.707-58.791-49.132-91.355-18.708-23.962-21.946-27.091-10.794-10.431 17.195 25.687 29.896 56.079 33.495 80.151 3.1897 21.334 1.3971 35.042-8.9278 68.269-4.4852 14.434-5.2388 15.971-7.6638 15.625-2.3301-0.3321-2.6558-1.1127-2.4381-5.8431 0.1382-3.0029 2.2098-12.284 4.6036-20.625 6.2456-21.762 7.3996-28.582 7.2483-42.837-0.14135-13.323-2.3457-25.363-7.1568-39.088-3.6465-10.403-8.3153-20.548-7.512-16.324 1.7254 9.0738 2.1207 27.896 0.79487 37.846-0.80701 6.0569-4.5326 21.762-8.2791 34.9s-7.7162 28.151-8.8216 33.363c-2.6214 12.358-3.8587 36.924-1.9201 38.122 1.7506 1.0819 1.8584 6.0361 0.1682 7.7263-1.1308 1.1308 0.58156 19.404 3.2217 34.379 0.63781 3.6179 0.35808 4.6697-1.4238 5.3535-3.1542 1.2104-3.7415 0.16763-6.6074-11.731-4.2545-17.664-5.6796-29.762-5.6686-48.125 0.009-15.368 0.49231-19.48 3.9659-33.75 2.1755-8.9375 5.9475-22.719 8.3822-30.625 13.319-43.251 12.134-63.149-5.9183-99.375-11.429-22.935-29.439-50.319-39.001-59.302l-3.2186-3.0237 1.8901 6.163c6.5882 21.482 13.267 57.426 14.047 75.598 0.5213 12.147 0.19898 15.968-2.0339 24.107-2.82 10.29-11.86 29.58-13.85 29.58-1.3006 0-1.2402-0.16441 4.8139-13.125 7.3662-15.769 9.343-25.497 8.51-41.875-0.83103-16.339-8.4983-56.001-14.49-74.956-2.057-6.507-3.4728-12.098-3.1462-12.425 1.094-1.094 13.118 11.648 21.12 22.381 10.168 13.638 19.256 28.497 27.523 45 9.1135 18.193 12.905 29.433 14.505 42.993 2.0418 17.313 0.0389 31.144-8.8886 61.382-1.4209 4.8125-4.625 16.625-7.1204 26.25-4.2185 16.272-4.5344 18.772-4.5009 35.625 0.0258 12.929 0.80672 22.425 2.7243 33.125 2.6446 14.756 7.3924 32.525 5.752 21.527-6.3414-42.515-5.7136-68.336 2.3622-97.152 1.6377-5.8438 5.3436-19.062 8.2352-29.375 4.5241-16.134 5.3264-20.843 5.7508-33.75 0.70913-21.568-2.1326-34.486-12.05-54.78-2.6879-5.5004-4.6623-10.226-4.3876-10.5 0.84591-0.84591 13.076 20.179 18.946 32.572 11.071 23.371 15.688 41.626 15.83 62.587 0.0914 13.519-1.1842 21.438-6.161 38.247-4.6336 15.65-6.7863 25.053-6.26 27.345 0.50177 2.1851 8.5048-21.992 12.362-37.345 8.9322-35.555-0.28273-73.608-28.875-119.24-17.525-27.97-36.653-53.411-53.764-71.508-5.9634-6.3072-7.6759-9.1614-9.9101-16.517-4.9893-16.426-4.7966-18.167 0.94745-8.5623 11.011 18.413 35.941 51.652 69.528 92.704 35.398 43.265 54.464 81.82 61.218 123.79 3.2155 19.982 2.0331 46.745-2.3729 53.711-0.86976 1.375-1.9886 4.1875-2.4864 6.25-1.4729 6.1034 2.0871 1.364 5.6337-7.5 2.7545-6.8842 2.9961-9.1934 2.9436-28.125-0.0462-16.688-0.60365-23.13-2.92-33.75-4.5964-21.073-12.999-44-22.905-62.5-6.85-12.81-26.48-41.72-38.62-56.88-32.09-40.07-56.65-73.61-66.54-90.9-8.86-15.45-22.27-52.53-27.59-76.23-3.73-16.65-4.34-36.94-1.36-45.32 1.9722-5.5371 1.3199-7.5218-1.2962-3.944-5.5293 7.5617-5.6034 37.939-0.14219 58.271 1.7543 6.5312 4.3093 15.237 5.6777 19.345 2.682 8.0527 2.5698 9.4422-0.55287 6.8506-3.1706-2.6314-4.4771 0.8211-2.3523 6.216 4.3742 11.106 31.914 121.54 31.773 127.41-0.0473 1.9761-2.8708-3.971-7.632-16.075-2.8395-7.2188-7.3729-17.906-10.074-23.75-2.7012-5.8438-5.9534-13.719-7.2269-17.5-1.2735-3.7812-9.375-24.735-18.003-46.564-21.007-53.145-23.846-62.688-30.963-104.06-3.275-19.039-4.6705-72.094-2.4194-91.984 2.0698-18.288 7.9282-46.744 13.213-64.179 16.987-56.041 40.547-98.064 79.925-142.56 23.69-26.768 40.444-42.126 73.066-66.977 8.5199-6.4903 18.645-14.26 22.5-17.265 11.315-8.8218 32.509-22.554 42.829-27.751 13.307-6.7009 36.081-14.337 52.011-17.44 16.825-3.2769 40.188-3.5069 55.964-0.55079 10.389 1.9467 11.678 2.5495 21.134 9.8857 5.5389 4.2969 16.258 11.928 23.821 16.957 17.022 11.32 32.697 26.345 40.413 38.737 3.2102 5.1555 9.7743 15.295 14.587 22.533 4.8125 7.2376 9.8198 15.394 11.127 18.126 1.3075 2.7319 3.1356 6.4601 4.0625 8.285 2.251 4.432 2.1268 5.1314-0.64792 3.6464-2.33-1.28-15.15-19.24-15.15-21.27 0-0.59738-3.95-5.3157-8.7777-10.485-9.9861-10.693-23.479-19.324-37.806-24.184-12.152-4.1217-33.846-6.0088-48.539-4.2222-22.355 2.7181-54.263 13.125-80.015 26.096-36.832 18.552-98.646 64.39-144.15 106.9-8.2046 7.6635-13.836 12.246-12.514 10.184 14.557-22.717 50.123-71.597 65.536-90.071 14.6-17.499 15.298-18.597 5.5162-8.6792-22.025 22.331-57.573 69.487-86.826 115.18-22.517 35.169-44.742 81.732-59.282 124.2-8.4383 24.646-12.939 45.319-9.3883 43.125 0.6875-0.4249 1.2572-2.5675 1.2661-4.7613 0.029-7.1911 14.017-46.002 29.52-81.904 8.6717-20.082 25.217-52.373 31.17-60.835 7.3406-10.434 48.754-50.868 70.544-68.877 49.799-41.157 76.818-59.553 111.88-76.169 33.153-15.713 62.638-23.243 91.25-23.302 22.386-0.04625 32.492 2.0494 48.838 10.127 12.941 6.3949 21.564 13.729 30.586 26.011l3.8864 5.2913-8.0616-3.0344c-16.931-6.3728-38.432-8.283-63.11-5.607-24.44 2.6502-44.078 9.069-74.013 24.192-13.988 7.0664-39.145 21.992-37.069 21.992 0.44702 0 5.8986-2.824 12.115-6.2755 32.641-18.124 70.062-30.335 98.079-32.005 21.027-1.253 54.238 4.5542 65.625 11.475 3.1083 1.8891 3.1016 1.8948-1.25 1.0557-8.0867-1.5594-30.405-0.80875-40 1.3453-5.1562 1.1575-11.062 2.2891-13.125 2.5145-7.3071 0.79871-30.707 10.742-79.205 33.655-36.887 17.428-94.879 46.784-98.92 50.075-1.0312 0.8397-8.0747 5.2276-15.652 9.751-28.432 16.973-67.009 46.167-88.606 67.056-9.5962 9.2815-11.302 10.571-7.5796 5.7275 17.006-22.125 47.06-47.457 78.709-66.344 12.865-7.6774 15.621-10.847 3.5678-4.1027-46.602 26.074-83.558 61.252-100.27 95.447-9.928 20.314-19.148 52.417-18.797 65.451 0.10413 3.867 0.355 3.4244 1.6727-2.9506 2.6589-12.864 4.2398-17.302 10.644-29.88 10.305-20.241 31.736-47.808 48.535-62.433 23.128-20.135 60.871-46.906 88.401-62.704 16.101-9.2395 49.127-26.389 47.5-24.666-0.6875 0.72832-8.5596 6.823-17.494 13.544-22.062 16.596-42.805 34.097-58.131 49.045-4.4688 4.3583 0.0312 0.97725 10-7.5135 51.958-44.255 73.117-59.223 111.88-79.144 26.455-13.597 36.745-19.304 58.877-32.653 23.667-14.275 46.15-19.671 70.451-16.907 20.371 2.3164 31.872 8.2118 39.007 19.995 1.5209 2.5117 4.3609 6.2359 6.311 8.276 3.963 4.1459 8.0745 15.998 9.2822 26.759l0.78928 7.032-3.9216-4.8594c-2.17-2.71-3.93-6.14-3.93-7.66 0-4.3039-5.1638-11.021-10.472-13.622-21.014-10.297-95.289-0.56363-142.21 18.636-47.661 19.5-79.817 41.53-121.11 82.974-36.097 36.225-65.158 72.261-76.189 94.474-9.0382 18.201-12.289 38.101-8.3514 51.127 1.3933 4.6091 1.4758 4.2973 1.6536-6.25 0.33244-19.717 9.3601-43.125 25.117-65.127 21.254-29.678 62.874-74.317 88.606-95.033 30.92-24.893 73.035-47.222 112.9-59.855 7.1814-2.276 13.254-3.9415 13.494-3.701 0.24048 0.24048-2.8228 2.2703-6.8072 4.5108-10.44 5.8706-19.519 12.539-31.619 23.226-8.9071 7.8664-13.353 10.648-27.5 17.204-44.63 20.683-79.57 46.015-116.69 84.599-35.044 36.43-53.145 66.311-53.351 88.075-0.0391 4.125-0.63285 10.031-1.3193 13.125-0.6865 3.0938-1.2238 12.094-1.194 20 0.0631 16.723 2.6588 28.863 10.262 47.998 5.8418 14.702 29.686 62.266 29.746 59.338 0.0364-1.7594-5.9597-18.614-19.964-56.118-7.9336-21.247-10.493-33.288-10.489-49.344 0.005-17.045 1.5491-24.898 7.432-37.784 12.89-28.236 39.125-53.759 94.802-92.23 6.8-4.6986 12.144-8.0072 11.875-7.3525-0.26878 0.65475-4.4063 7.4348-9.1944 15.067-6.7602 10.775-9.9726 14.673-14.375 17.443-8.1876 5.1508-29.778 27.048-37.448 37.982-19.388 27.634-29.591 59.83-30.899 97.5-0.62524 18.011-0.37828 22.253 1.9482 33.467 6.0869 29.34 16.644 54.917 31.745 76.911 25.86 37.663 62.165 108.38 74.246 144.62 2.4063 7.2188 5.1601 14.013 6.1194 15.098 0.95936 1.0854 1.7443 2.8803 1.7443 3.9887s0.5625 2.363 1.25 2.7878c2.4557 1.5177 1.1362 5.8055-7.0118 22.784-4.544 9.4687-9.6825 20.299-11.419 24.068-3.93 8.48-15.33 37.18-15.33 38.54 0 0.54795-0.79245 2.08-1.761 3.4046-1.5651 2.1404-1.6407 1.7845-0.67944-3.1986 2.6135-13.549 0.33452-55.447-4.008-73.686-7.028-29.518-21.85-63.477-42.029-96.296-10.236-16.647-9.3887-15.456-50.245-70.625-24.945-33.684-25.152-32.239-0.44732 3.125 46.946 67.202 62.905 95.054 76.036 132.7 8.9426 25.639 10.77 35.549 11.526 62.5 1.0424 37.172-1.9804 48.807-17.415 67.031-3.9643 4.681-4.7769 13.044-1.673 17.218 1.6686 2.2438 2.0649 2.2837 5.2652 0.53001 1.9034-1.043 5.1696-4.1858 7.2581-6.9839s5.0187-6.726 6.5116-8.7286c2.4709-3.3146 2.3858-2.6733-0.9485 7.1508-6.8761 20.26-11.382 44.71-12.292 66.708-0.50534 12.21-1.2324 19.128-1.8665 17.762zm1.2123-171.73c1.8728-17.488-2.0479-47.279-8.9369-67.906-5.1933-15.55-17.753-41.438-28.35-58.438-9.8722-15.836-19.63-28.984-44.761-60.312-22.946-28.605-29.938-38.698-37.88-54.682-6.738-13.561-12.428-27.823-11.48-28.772 0.3921-0.3921 0.71291 0.0371 0.71291 0.95376s0.26864 1.398 0.59699 1.0697c0.32833-0.32834-1.3377-6.0101-3.7024-12.626-4.9593-13.876-8.9454-28.919-9.9686-37.622-0.39141-3.3291-1.2495-7.058-1.9069-8.2863-0.65737-1.2283-2.0122-8.4724-3.0108-16.098-0.99855-7.6255-2.2665-14.584-2.8178-15.464-0.55122-0.87951-1.6823-6.3804-2.5135-12.224-1.4256-10.023-1.4909-9.1373-1.1513 15.625 0.34066 24.844 0.56771 27.02 4.2381 40.625 4.7884 17.749 9.4624 31.394 17.853 52.12 12.323 30.438 18.758 40.621 50.011 79.13 40.268 49.618 52.623 68.903 66.65 104.04 8.2353 20.627 11.98 39.94 12.85 66.277 0.38051 11.516 1.1376 20.938 1.6825 20.938 0.54483 0 1.3927-3.7549 1.8842-8.3442zm-130.98-206.65c-4.8481-7.0256-7.7474-9.4423-4.8637-4.054 1.2336 2.305 8.9914 11.536 9.6949 11.536 0.1825 0-1.9916-3.3669-4.8312-7.4821zm394.46 321.77c-0.41347-1.0775-0.1145-2.5962 0.66423-3.375 1.0546-1.0546 1.416-0.55471 1.416 1.959 0 3.7609-0.93593 4.398-2.0802 1.416zm4.6789-1.2701c0.06-1.4562 0.35617-1.7524 0.7552-0.75522 0.36108 0.90234 0.31668 1.9805-0.0986 2.3958-0.41536 0.41536-0.7108-0.32292-0.65652-1.6406zm-223.7-35.53c-0.1827-16.547 2.7291-41.768 6.6617-57.701 1.6657-6.7489 6.1804-19.447 10.033-28.218 7.6749-17.475 9.9013-27.17 11.939-51.987 2.612-31.816-4.3922-71.153-20.638-115.9-8.4946-23.4-15.295-37.923-27.075-57.823-10.561-17.839-16.536-31.155-24.138-53.791-7.7387-23.043-9.8318-37.218-9.1134-61.718 0.6637-22.636 2.0892-29.026 12.896-57.804 3.7341-9.944 6.7893-18.871 6.7893-19.838 0-3.4226 29.56-45.706 42.408-60.661 43.857-51.051 57.416-64.727 80.717-81.41 47.354-33.904 109.48-36.025 125.67-4.2908 3.203 6.2784 3.3422 11.803 0.26422 10.488-7.9431-3.3932-15.551-4.4617-28.438-3.9941-11.342 0.4116-15.829 1.2037-25.625 4.5236-23.695 8.0306-75.157 36.509-101.88 56.377-17.552 13.051-56.12 46.425-63.927 55.316-4.0616 4.6259-21.607 33.238-27.113 44.215-6.141 12.243-8.8386 26.619-8.7681 46.729 0.0759 21.644 3.0705 35.042 12.041 53.873 23.989 50.359 33.614 73.38 44.518 106.48 15.411 46.779 18.882 68.601 18.867 118.63-0.01 35.866-5.8491 67.784-21.692 118.59-4.6386 14.874-10.439 36.291-13.691 50.552-0.31352 1.375-0.63531-3.4097-0.71506-10.633zm221.73-75.093c-18.36-1.51-31.16-4.74-53.33-13.48-11.92-4.69-27.3-10.65-34.18-13.24-17.168-6.4659-50.036-24.471-74.512-40.818l-10.762-7.1876-0.7094-27.273c-0.39016-15-1.5594-32.617-2.5982-39.148-2.0683-13.004-10.211-47.874-15.323-65.625-3.1294-10.865-18.734-49.691-25.119-62.5-3.7781-7.5792-17.515-30.357-20.234-33.55-1.8147-2.1314-1.6846-2.4908 1.7748-4.9007 12.81-8.9239 23.562-25.524 33.796-52.174 20.098-52.339 29.348-72.012 44.078-93.75 20.633-30.449 40.795-48.673 67.123-60.671 16.672-7.5979 46.275-14.334 62.937-14.322 11.746 0.009 17.595 1.5422 21.423 5.6161 1.6157 1.7198 4.1072 3.1269 5.5367 3.1269 3.3248 0 23.299-7.0392 36.713-12.938 5.7052-2.5089 12-4.5617 13.989-4.5617 1.9886 0 4.0057-0.63106 4.4824-1.4024 1.2215-1.9765 13.354-0.37448 20.244 2.673 14.803 6.5479 22.7 16.044 30.811 37.046 5.142 13.314 6.4465 20.776 8.2712 47.309 2.2652 32.939 6.2601 57.028 12.425 74.924 1.4066 4.083 2.1293 7.7952 1.606 8.2494-0.52326 0.45417-7.4202 5.1106-15.326 10.348-7.9062 5.237-20.562 14.199-28.125 19.915l-13.75 10.394 0.25575 6.8352c0.32123 8.5852 0.70716 11.21 1.6481 11.21 0.40875 0 3.9545-1.9338 7.8795-4.2972 4.6537-2.8023 10.499-4.9516 16.801-6.1782 12.814-2.4936 24.235-3.6446 20.915-2.1078-1.375 0.6366-4.4688 1.2052-6.875 1.2635-8.8484 0.21447-23.646 6.9612-32.612 14.869-3.1552 2.7828-7.8924 8.3258-10.527 12.318-2.6347 3.9919-5.8188 8.7821-7.0758 10.645-1.257 1.8628-2.2854 4.2715-2.2854 5.3528 0 1.9737 4.8107 4.5712 6.5595 3.5416 0.51397-0.30257 6.4494 0.11825 13.19 0.93518 12 1.4544 20.108 0.67307 34.938-3.3669 1.9876-0.54144 2.8125-0.22783 2.8125 1.0692 0 1.0095 1.6554 3.5676 3.6786 5.6848 4.9312 5.16 6.5022 11.785 6.552 27.631 0.0338 10.763-0.78676 16.921-4.3488 32.641-6.5458 28.886-22.294 75.417-37.653 111.25-3.6835 8.5938-6.9974 16.469-7.3641 17.5-0.36676 1.0312-0.71125-1.2722-0.76552-5.1188-0.0719-5.098-0.71833-7.5545-2.3846-9.0625-3.2732-2.9622-3.9353-2.5679-2.4216 1.4425 3.5159 9.3146-4.9666 21.939-17.177 25.565-13.401 3.9793-51.742-1.88-68.115-10.409-3.7812-1.9698-8.5356-4.1925-10.565-4.9394l-3.6902-1.358 2.4402 2.7436c1.3421 1.509 6.1981 5.1659 10.791 8.1264 7.6784 4.9493 16.882 8.3674 42.899 15.933l6.25 1.8173-6.1476 0.13014c-9.4099 0.19921-21.855 2.6859-23.955 4.7868-2.6636 2.6636-1.5686 4.6771 2.6995 4.9635 3.4494 0.23147 3.4797 0.19357 0.5412-0.67838-1.747-0.5184-2.5261-1.2859-1.7758-1.7496 2.7302-1.6874 19.073-3.6021 32.699-3.831 7.7332-0.12992 14.061-0.37522 14.062-0.54512s-1.826-1.1084-4.0604-2.0855c-3.825-1.6728-3.8798-1.7833-0.9375-1.8908 5.1985-0.18995 16.544-6.1622 22.273-11.724l5.3979-5.2408-0.88759 3.75c-2.3213 9.8072-20.985 52.665-26.793 61.526-2.8683 4.3758-5.116 6.5155-6.8216 6.4937-1.3991-0.0179-5.3563 0.51615-8.7938 1.1868-9.0709 1.7696-21.073 2.2562-32.5 1.3174zm37.12-92.4c1.2375 0 2.25-0.49622 2.25-1.1027 0-0.6065 1.8281-1.1 4.0625-1.0967 2.2344 0.004 8.9833-1.7504 14.998-3.8973 6.0897-2.1737 13.429-3.9033 16.562-3.9033 6.6725 0 7.8903-2.9849 1.7211-4.2188-10.718-2.1436-28.392 0.62363-35.09 5.4941-1.854 1.3481-3.6685 1.9698-4.032 1.3816-1.2243-1.9809-10.705-2.4363-23.568-1.1321-7.0287 0.7127-21.779 1.3643-32.779 1.448-16.681 0.12692-20 0.45667-20 1.9871 0 2.8217 15.63 4.8214 39.375 5.0376 11.344 0.10325 23.156 0.60499 26.25 1.1149 3.0938 0.50989 6.1594 0.46819 6.8125-0.0926 0.65312-0.56086 2.2-1.0197 3.4375-1.0197zm-59.432-11.323c1.9143-0.7278 14.217-2.6724 27.339-4.3214s24.771-3.3479 25.885-3.7755c1.1142-0.42756 4.5891 0.35646 7.7219 1.7423l5.6961 2.5196 7.134-4.2958c8.7951-5.2961 14.48-5.6263 19.693-1.1436 2.2671 1.9497 4.1062 2.7048 4.8286 1.9824 1.6413-1.6413 0.19364-3.5003-5.5484-7.1252-4.2283-2.6692-5.8502-3.0116-10.832-2.287-3.2228 0.46873-7.4572 1.6637-9.41 2.6554-3.1225 1.5859-4.1426 1.5663-8.4628-0.16232-8.9016-3.5617-22.617-1.8832-45.329 5.5475-6.274 2.0527-14.642 4.6169-18.595 5.6982-3.9531 1.0814-7.1875 2.4887-7.1875 3.1274 0 1.5341 2.7739 1.4706 7.0678-0.16199zm79.515-47.944c2.5366-3.0346 7.8588-7.3417 11.827-9.5715 3.9684-2.2298 8.8806-5.706 10.916-7.7251l3.7007-3.671-2.9274-11.445c-1.6101-6.2948-7.2782-22.414-12.596-35.82-10.635-26.813-12.835-33.152-15.452-44.544-1.7-7.398-1.6654-7.7728 0.97971-10.625 2.0988-2.2634 3.1007-5.742 4.2719-14.831 0.84153-6.531 1.8632-13.562 2.2704-15.624 1.0737-5.4387-0.82954-2.9627-7.2064 9.375-3.0204 5.8438-6.0541 11.027-6.7416 11.519-2.1742 1.5542-0.82585 19.812 2.288 30.981 2.9452 10.564 17.241 49.511 22.883 62.343 1.6275 3.7012 2.954 9.1671 2.954 12.172 0 5.857-1.0714 6.8832-14.126 13.528-4.8817 2.485-13.374 10.926-13.374 13.292 0 2.3806 2.5499 6.1642 4.1543 6.1642 0.86147 0 3.6417-2.4828 6.1783-5.5174zm-22.297-5.1969c1.0804-1.0804 1.9643-3.5714 1.9643-5.5357 0-6.1832-5.3776-9.6553-19.375-12.51-10.562-2.1539-16.325-5.3644-17.939-9.9927-3.3942-9.7365 8.5811-17.006 20.531-12.462 4.9819 1.8941 5.1894 0.48043 0.36148-2.4629-5.1342-3.1301-15.757-3.449-21.196-0.63635-5.3988 2.7918-8.6224 8.7854-8.628 16.042-0.006 8.6475 3.5148 13.739 12.713 18.383 10.195 5.1466 22.058 8.7627 23.119 7.047 0.48348-0.78229 1.2402-0.21158 1.8286 1.3792 1.1818 3.1948 3.8704 3.4992 6.6201 0.74942zm11.394-62.485c-1.4496-9.6667-4.1647-19.016-12.684-43.676-8.1529-23.6-10.857-29.084-12.794-25.95-1.9559 3.1634 2.5891 31.575 5.051 31.575 0.83773 0 1.0353-1.7237 0.53725-4.6875-0.43322-2.5781-1.0821-7.7812-1.4419-11.562-0.59024-6.2028-0.0464-5.1638 5.5623 10.625 5.7027 16.054 10.192 30.4 13.788 44.062 1.8494 7.0262 3.0575 6.7905 1.9812-0.38658zm-77.24-55.02c7.3673-0.80142 8.9533-3.034 2.1554-3.034h-4.4071l1.9392-3.75c1.0666-2.0625 2.2423-3.75 2.6128-3.75 0.37048 0 2.1135 1.7113 3.8734 3.8028s3.3948 3.6078 3.6331 3.3696c0.83325-0.83325-4.193-19.1-6.8497-24.894-3.0696-6.6942-12.911-14.078-24.585-18.446-10.685-3.9976-36.596-3.6783-57.783 0.71215-8.746 1.8124-19.978 3.3592-24.961 3.4375-4.9825 0.0782-9.0606 0.477-9.0625 0.88606-0.0113 2.6049 5.22 4.7855 12.3 5.1266l7.8796 0.37962 2.2394 6.6299c1.2317 3.6465 3.8624 8.3433 5.8462 10.437 8.4307 8.8996 23.089 16.323 37.529 19.006 7.6029 1.4127 34.988 1.4618 47.641 0.0854zm-33.188-5.517c-5.8575-1.3872-5.9097-1.9233-0.34923-3.5892 2.7232-0.81591 6.4173-3.2571 8.2819-5.4731 3.0372-3.6095 3.302-4.7062 2.7106-11.227-0.36043-3.975-0.16123-7.2272 0.4427-7.2272 0.60391 0 3.6302 1.2302 6.725 2.7338 7.6466 3.715 10.119 8.7782 7.6718 15.713-3.4376 9.7432-4.1833 10.317-13.22 10.175-4.4752-0.0704-9.9935-0.56768-12.263-1.1051zm-34.75-11.11c-10.7-7.91-19.9-20.15-15.13-20.15 0.98163 0 4.3331-0.34929 7.4477-0.7762l5.663-0.77619-0.64873 5.7555c-0.7861 6.9743 1.1983 12.256 6.1798 16.447 5.0892 4.2823 2.4572 3.9052-3.508-0.50252zm16.693 1.6039c-3.3719-1.0369-7.8226-3.7147-10.312-6.2046-3.8313-3.8313-4.3804-5.1587-4.3804-10.589v-6.2083l7.1875 0.045c8.0712 0.0505 31.154 2.8802 32.224 3.9503 0.38222 0.38222 1.008 2.6239 1.3906 4.9815 0.56318 3.4704 0.0286 5.0792-2.8076 8.4498-3.7552 4.4628-9.892 7.6275-14.517 7.4863-1.569-0.0479-5.5221-0.90795-8.7847-1.9112zm12.889-8.0457c2.7403-1.4666 3.2947-7.3292 0.91783-9.706-2.5861-2.5861-3.3382-1.6466-1.8462 2.3062 1.851 4.9039-0.31149 6.5692-7.2168 5.5575-6.2666-0.91807-8.5364-2.8104-7.8264-6.5248 0.34635-1.8118 0.0255-2.7593-0.83698-2.4718-0.76924 0.25641-1.3986 2.1068-1.3986 4.112 0 2.917 0.87455 4.0827 4.375 5.8314 4.9389 2.4673 10.252 2.8112 13.832 0.89547zm51.17 0.63c0-2.5519-3.8693-9.9628-8.5646-16.404-9.89-13.57-27.84-19.25-48.94-15.49l-5.625 1.0009 7.7308 0.15645c10.943 0.22146 24.704 3.3748 31.958 7.323 7.2188 3.929 14.115 11.324 18.215 19.533 2.8909 5.7885 5.2213 7.5181 5.2213 3.8752zm27.067-17.988c3.1334-6.2906-3.4768-13.253-20.883-21.995-6.0025-3.0146-16.098-8.6248-22.435-12.467-16.4-9.9443-31.741-17.426-41.875-20.42-17.248-5.0968-34.162-0.0285-69.117 20.711-6.3892 3.7909-11.342 7.1676-11.005 7.504 0.33632 0.33632 6.9701-1.6506 14.742-4.4155 34.992-12.449 33.045-11.967 47.223-11.689 12.917 0.25317 13.194 0.32196 20.625 5.1322 4.1426 2.6816 12.876 7.94 19.407 11.685 17.907 10.269 45.105 26.722 46.533 28.15 0.69424 0.69424 4.4143 1.1678 8.2667 1.0523 6.0632-0.18174 7.2079-0.61824 8.5179-3.2482zm-210.1 257.28c-14.27-41.95-43.67-95.26-69.2-125.5-17.27-20.45-30.77-50.41-38.59-85.62-3.0992-13.963-3.463-18.018-3.422-38.125 0.0635-31.11 4.0182-49.624 16.053-75.153 6.7912-14.406 13.801-24.742 23.937-35.293l7.9775-8.3042-1.8657 5.4727c-1.0261 3.01-3.9223 10.604-6.436 16.875-9.9121 24.729-13.848 49.069-12.603 77.932 0.5797 13.436 1.1797 16.357 6.8739 33.471 3.4313 10.312 7.3587 21.293 8.7276 24.4 2.9238 6.6378 17.319 32.257 19.652 34.975 6.424 7.4833 21.421 41.16 29.888 67.115 9.9068 30.369 15.548 57.618 19.57 94.526 1.3175 12.091 1.0618 18.023-0.57008 13.225zm293.04-223.18c0.004-0.58618 1.6054-1.9744 3.558-3.0849 6.2086-3.5313 10.438-10.393 11.289-18.319l0.76973-7.162 7.8125-0.37215 7.8125-0.37214v5.6378c0 6.8129-4.0758 18.257-7.6565 21.499-2.01 1.8196-4.9986 2.4581-13.099 2.7983-5.772 0.24243-10.491-0.0389-10.487-0.625zm-11.258-1.2527c-1.7188-0.25932-5.5169-0.77987-8.4403-1.1568-5.6711-0.73118-5.7484-1.2468-1.1105-7.4063 1.5089-2.0039 2.1968-2.19 3.4666-0.9375 4.3934 4.3334 14.893-0.10563 14.784-6.25-0.0471-2.6511-0.15709-2.6152-1.9149 0.625-1.4514 2.6754-2.7568 3.4261-5.8875 3.3862l-4.0226-0.0513 5.6111-5.071c3.0861-2.7891 7.1515-5.8676 9.0343-6.8412 3.2626-1.6871 3.4611-1.6192 4.2306 1.4467 1.6528 6.5854-0.23459 14.291-4.6047 18.8-2.2752 2.3474-5.0107 4.1914-6.079 4.0978s-3.3485-0.38239-5.0673-0.6417zm-329.99-54.41c-4.3404-18.488-3.552-44.93 1.9811-66.441 3.6694-14.265 7.3482-20.416 20.191-33.758 6.7253-6.9869 16.719-17.716 22.208-23.843 19.736-22.03 42.69-40.539 85.677-69.089 27.184-18.055 33.321-21.3 49.445-26.148 9.6736-2.9084 13.447-3.3578 29.232-3.4813l18.125-0.14177 7.9458 4.3077c4.3702 2.3692 8.2311 5.0512 8.5798 5.96 0.92687 2.4154-2.2546 9.3349-3.9865 8.6703-4.4829-1.7202-19.228-2.1434-29.56-0.84823-32.561 4.0816-59.527 14.107-81.375 30.255-25.501 18.847-49.429 55.746-75.844 116.96-14.837 34.381-18.342 41.435-24.978 50.266-4.9035 6.5259-13.883 13.807-17.028 13.807-0.82125 0-2.5113 1.125-3.7556 2.5-1.2444 1.375-2.6909 2.5-3.2146 2.5-0.52366 0-2.1642-5.1626-3.6456-11.473zm357.77 0.0942c5.002-4.1956 11.47-10.21 14.374-13.366 2.9039-3.1558 5.6196-5.398 6.035-4.9826 0.41538 0.41538-1.1168 5.3841-3.4048 11.042l-4.16 10.286-8.75 2.2524c-13.623 3.5067-13.976 3.0561-4.0946-5.2318zm-457.2-50.81c4.8537-19.618 23.643-46.852 53.133-77.014 27.497-28.123 51.812-47.572 82.72-66.164 16.43-9.8832 41.274-23.613 41.76-23.08 0.16071 0.17623-4.6434 6.2632-10.676 13.527-8.8997 10.716-12.705 14.232-20.18 18.646-29.983 17.705-53.217 35.932-95.56 74.966-26.436 24.37-38.465 38.626-47.25 55.995-3.6358 7.1886-5.2737 8.4853-3.9475 3.125zm81.183-82.589c3.7827-4.3366 37.626-30.139 51.363-39.16 18.214-11.96 21.43-13.446 17.048-7.8745-1.3798 1.7542-2.847 3.1404-3.2604 3.0804-0.41336-0.06-1.62 0.75937-2.6814 1.8208s-12.432 8.9419-25.268 17.512c-12.836 8.5702-26.994 18.232-31.463 21.47-4.4688 3.2382-7.0507 4.6561-5.7376 3.1507zm384.12-20.54c-3.0829-15.902-8.7293-28.197-20.141-43.856-11.344-15.566-17.126-20.95-28.244-26.296-7.5382-3.625-9.089-3.9072-21.472-3.9072-11.686 0-13.786 0.33156-16.875 2.6655-2.0508 1.5493-3.4855 3.7861-3.426 5.3414 0.0728 1.9019-0.8312 2.8799-3.125 3.3811-3.8459 0.84031-15.085 4.1168-17.277 5.0363-0.87992 0.36926 0.0256-3.0508 2.0961-7.9162 4.6298-10.88 8.4736-25.531 10.264-39.123 1.2696-9.6363 1.1548-11.452-1.2221-19.327-1.4428-4.7802-2.4356-8.8789-2.2062-9.1083 0.75493-0.75491 12.45 4.3602 21.801 9.5349 13.091 7.2446 24.806 16.252 34.732 26.704 8.3483 8.7905 21.326 26.736 20.17 27.892-0.31401 0.31401-3.154-2.7169-6.3111-6.7354-10.552-13.431-28.851-26.373-37.388-26.443-5.4328-0.0444-5.0449 1.8782 0.68832 3.4116 24.367 6.5172 62.181 57.015 69.593 92.936 2.5977 12.59 3.0166 17.377 1.5198 17.371-0.51562-0.002-1.9458-5.2054-3.1782-11.562zm2.87-7.44c0-6.8692-5.8086-22.868-14.426-39.736-12.533-24.53-19.46-39.031-18.908-39.582 0.59309-0.59308 12.983 15.866 18.065 23.997 6.9938 11.191 13.006 25.785 15.399 37.38 2.6235 12.711 2.9711 18.937 1.1213 20.08-0.69667 0.43056-1.25-0.51623-1.25-2.1388zm-36.378-45.357c-2.336-1.7163-7.9036-4.9506-12.372-7.1875-7.8629-3.9358-8.6684-4.0742-24.97-4.2902-9.9573-0.13194-17.016-0.73624-17.263-1.4779-0.8714-2.6142 5.5817-4.2655 17.214-4.4049 11.511-0.13795 12.405 0.0517 21.33 4.5225 5.1234 2.5666 12.128 7.1856 15.565 10.264 6.8778 6.1603 7.1258 7.4434 0.49735 2.5736z"/>
</svg>
