<?xml version="1.0" encoding="UTF-8" standalone="no"?>
<!-- Created with Inkscape (http://www.inkscape.org/) -->
<svg id="svg3419" xmlns:rdf="http://www.w3.org/1999/02/22-rdf-syntax-ns#" xmlns="http://www.w3.org/2000/svg" height="375" viewBox="0 0 1250 375" width="1250" version="1.1" xmlns:cc="http://creativecommons.org/ns#" xmlns:dc="http://purl.org/dc/elements/1.1/">
 <metadata id="metadata3425">
  <rdf:RDF>
   <cc:Work rdf:about="">
    <dc:format>image/svg+xml</dc:format>
    <dc:type rdf:resource="http://purl.org/dc/dcmitype/StillImage"/>
    <dc:title/>
   </cc:Work>
  </rdf:RDF>
 </metadata>
 <path id="path3429" fill="#fff" d="m458.87 292.12c-2.3418-0.82058-5.3403-2.9524-6.6632-4.7374-2.1807-2.9424-2.2678-3.944-0.93341-10.727l1.4718-7.4813 11.932 2.2591c6.5626 1.2425 12.183 2.51 12.49 2.8168 0.30675 0.30673 0.084 3.5336-0.49492 7.1708-0.88637 5.5685-1.7229 7.0647-5.2957 9.4725-4.7566 3.2054-6.3986 3.3664-12.506 1.2264zm32.198-21.468c-0.33072-0.33073-3.6588-0.8465-7.3958-1.1462-8.5056-0.68207-26.624-4.2819-32.42-6.4412-2.4062-0.89653-5.8254-1.9386-7.5982-2.3157-1.8792-0.39978-3.8606-2.0846-4.7518-4.0406-1.5892-3.4878-0.79858-8.8433 3.1644-21.436 0.92706-2.9459 1.6856-6.2152 1.6856-7.2651 0-4.3478 10.407-33.636 17.058-48.004 7.3728-15.929 17.62-31.65 28.001-42.958 8.7752-9.5595 9.9414-11.387 9.9414-15.577v-4.7466l7.1875 0.0105c4.8484 0.007 9.8711-1.0568 15.434-3.2691 4.5354-1.8038 12.527-4.1639 17.76-5.2447 10.576-2.1846 31.676-2.6607 32.327-0.72946 0.22916 0.67959 0.13541 17.414-0.20834 37.187-0.34375 19.774-0.4242 36.655-0.17876 37.514 0.85457 2.9923 3.9073 1.5337 5.6826-2.7153 0.98307-2.3528 3.2406-5.23 5.0168-6.3938l3.23-2.11v-27.297c0-29.703-0.64366-33.277-6.1078-33.911-2.5236-0.29281-3.1841-0.98416-2.9022-3.0377 0.46698-3.4013-1.8647-4.3669-12.865-5.3274l-8.75-0.76401-0.38437-5.3125-0.38438-5.3125h16.322 16.322v18.597c0 20.512 1.6184 27.653 6.2668 27.653 2.334 0 2.4832 0.86578 2.4832 14.406 0 14.314 0.0205 14.414 3.2064 15.625 1.8146 0.68991 18.875 1.2191 39.304 1.2191 34.418 0 36.304 0.122 40.544 2.6235 5.1917 3.0632 5.7394 6.4641 1.7286 10.733-2.7038 2.878-2.7045 2.8931-0.13849 2.8931 6.0092 0 9.6186-6.5867 7.3636-13.438l-0.92574-2.8125h36.396c28.823 0 37.099-0.36543 39.772-1.7562 1.8565-0.9659 5.3442-4.8764 7.7504-8.6899l4.375-6.9337 11.611-0.0601 11.611-0.0601 5.1095 4.9096 5.1095 4.9097-2.8541 4.7778c-4.5053 7.542-10.12 12.973-16.211 15.681-13.264 5.8968-16.027 6.0709-93.972 5.9221-40.403-0.0771-74.074 0.23955-74.825 0.70375-0.75109 0.4642-1.2695 2.3351-1.152 4.1575s0.15405 5.4229 0.0813 8.001l-0.1325 4.6876h-9.75c-5.9167 0-10.34 0.58974-11.25 1.5-0.825 0.825-1.5 3.8732-1.5 6.7737s-0.98438 6.999-2.1875 9.1078c-3.561 6.2416-9.0256 7.6227-30.025 7.5887-26.172-0.0424-32.206-1.9484-36.86-11.642-4.1992-8.7483-9.6212-4.6205-14.511 11.047-3.2742 10.492-5.1671 21.411-5.1671 29.807 0 10.198-2.3274 13.318-9.9354 13.318-3.2438 0-6.1685-0.27059-6.4992-0.6013zm94.035-51.538c1.7855-4.6962 0.50559-30.339-1.6094-32.245-1.1261-1.0147-4.9804-1.2085-12.712-0.63919-10.707 0.78845-11.22 0.96738-14.653 5.108-7.2363 8.7291-9.3876 17.738-5.5455 23.224 1.007 1.4377 1.4757 2.9691 1.0417 3.4031-1.9304 1.9304-4.2576 0.37882-7.3522-4.9016-2.6433-4.5105-3.3508-7.3624-3.4109-13.75-0.0418-4.4326-0.45125-8.0592-0.91013-8.0592-0.45886 0-2.3227 1.3794-4.1418 3.0653-2.7512 2.5497-3.3075 4.1474-3.3075 9.4986 0 3.5383 0.91707 8.3659 2.038 10.728 3.5888 7.5628 4.9933 7.9582 28.271 7.9582h21.003l1.2887-3.3895zm89.9-44.11c0-1.6413-0.83334-2.5-2.4262-2.5-2.7471 0-4.3529 1.8826-3.1988 3.75 1.4407 2.3312 5.625 1.4013 5.625-1.25zm-98.75-32.5c0-26.667 0.0757-27.5 2.5-27.5 2.4199 0 2.5 0.83333 2.5 26 0 25.241-0.51844 29-4 29-0.55 0-1-12.375-1-27.5zm24.27 20.104c-0.28615-0.28645-0.52888-6.7552-0.53941-14.375-0.01-7.6198-0.43804-14.513-0.95002-15.318-0.51199-0.80486-2.4721-1.8502-4.3559-2.323l-3.425-0.85963v-19.864-19.864h29.644 29.644l10.914 6.2988 10.914 6.2988 41.004-0.36127 41.004-0.36127-0.36949 20.938-0.3695 20.938h-57.87c-66.141 0-92.016 0.87954-92.016 3.1278 0 2.3913 22.134 3.1103 95.938 3.1165 37.297 0.002 67.812 0.29182 67.812 0.64151 0 0.3497-1.728 3.0216-3.8401 5.9375l-3.8401 5.3017-79.39 0.625c-43.664 0.34375-79.624 0.39062-79.91 0.10412zm205.35-12.6l-4.666-6.25h-21.052-21.052l-0.78825-6.5625c-0.43354-3.6094-0.79314-12.857-0.79912-20.551-0.007-8.9262-0.51513-14.3-1.4043-14.85-0.86655-0.53556-1.1636-3.2534-0.78554-7.1877 0.77-7.963 4.91-12.101 12.11-12.101 7.4448 0 10.513 3.2752 11.293 12.056l0.66 7.324 15.62 0.62c8.5938 0.34375 16.328 1.0801 17.188 1.6363 1.159 0.75013 1.5625 7.0988 1.5625 24.585 0 22.429-0.43847 27.528-2.3669 27.528-0.4672 0-2.9492-2.8125-5.5155-6.25zm-35.33-54.464c2.35-2.358 2.44-3.309 0.46-5.286-2.3563-2.3563-7.0192-1.7669-8.5428 1.0799-2.6853 5.0176 3.8594 8.4249 8.0785 4.2058zm-254.73 13.184c-2.9759-5.0378-2.5358-9.4051 1.381-13.704 4.9356-5.417 9.7786-5.9905 15.842-1.8759 4.1787 2.8358 5.7179 3.2061 10.404 2.5034 5.4214-0.81299 5.4942-0.7761 5.0958 2.5826-0.3621 3.0521-1.2714 3.6441-8.7218 5.6781-4.5746 1.2489-11.384 3.6267-15.131 5.284l-6.8135 3.0133-2.0565-3.4813z"/>
</svg>
