<?xml version="1.0" encoding="UTF-8" standalone="no"?>
<!-- Created with Inkscape (http://www.inkscape.org/) -->
<svg id="svg3376" xmlns:rdf="http://www.w3.org/1999/02/22-rdf-syntax-ns#" xmlns="http://www.w3.org/2000/svg" height="1845" viewBox="0 0 1845 1845" width="1845" version="1.1" xmlns:cc="http://creativecommons.org/ns#" xmlns:dc="http://purl.org/dc/elements/1.1/">
 <metadata id="metadata3382">
  <rdf:RDF>
   <cc:Work rdf:about="">
    <dc:format>image/svg+xml</dc:format>
    <dc:type rdf:resource="http://purl.org/dc/dcmitype/StillImage"/>
    <dc:title/>
   </cc:Work>
  </rdf:RDF>
 </metadata>
 <path id="path3386" fill="#fff" d="m694.66 1787.3c-15.564-2.1008-34.155-15.758-40.759-29.941-2.7455-5.8962-3.1798-8.8872-3.1912-21.976-0.008-9.9788 0.88697-19.389 2.6234-27.566 2.7448-12.924 3.4055-25.845 1.9888-38.889-1.0664-9.8199 2.0542-20.932 7.6771-27.336 3.6486-4.1556 4.2077-5.8585 4.5263-13.789 0.19992-4.9763 1.0111-16.914 1.8025-26.529 0.79147-9.6145 1.4615-23.028 1.489-29.809 0.0612-15.091 0.56783-16.583 5.6335-16.583 3.6983 0 3.9084-0.2795 3.2828-4.3702-0.3676-2.4036-1.0312-9.8162-1.4745-16.472-1.1289-16.946-3.1012-29.129-6.7998-42-8.0138-27.888-22.248-88.883-24.716-105.92-4.4984-31.031-5.6918-55.169-4.1321-83.571 1.6282-29.65 3.8554-42.374 9.118-52.09 6.2862-11.606 6.0873-13.577-6.9385-68.732-3.3186-14.052-9.7153-38.559-14.215-54.46-4.4995-15.901-10.345-37.987-12.989-49.081-2.6443-11.093-7.4477-30.286-10.674-42.648-11.569-44.329-16.247-72.658-17.607-106.61-0.70104-17.513-0.42164-22.064 2.1214-34.543 9.0288-44.309 41.037-126.7 53.709-138.26 2.8454-2.5944 5.6216-6.225 6.1694-8.0681 2.0616-6.9366 11.804-21.621 22.697-34.212 15.817-18.282 21.07-27.519 21.07-37.052 0-4.3778-0.81427-8.6259-1.9696-10.275-1.0833-1.5466-1.6216-3.1599-1.1962-3.5853 1.0997-1.0997-14.036-18.732-17.857-20.802-1.7499-0.94809-3.2036-2.4609-3.2305-3.3617-0.0269-0.90086-3.0456-5.5711-6.708-10.378-3.6625-4.8073-7.8238-12.069-9.2474-16.136-8.006-22.877-11.119-28.74-19.85-37.384-12.844-12.78-16.588-23.989-16.588-49.786v-15.709l-8.5297-8.0933c-4.6913-4.4512-11.905-10.105-16.031-12.564-13.709-8.1705-17.26-8.5604-73.501-8.0713-27.79 0.24166-57.788 0.25827-66.663 0.0369-16.032-0.39994-47.022-3.7037-49.582-5.2858-0.73586-0.45478-5.4004-0.71776-10.365-0.58437-8.8067 0.23656-9.5489-0.021-30.345-10.529-12.96-6.5486-22.003-11.956-23.068-13.793-2.3491-4.0539-1.2004-17.232 2.3231-26.65 5.0248-13.43 21.942-37.477 30.645-43.561 17.606-12.307 19.286-13.032 45.43-19.59 29.015-7.279 35.673-8.4754 96.145-17.277l43.702-6.3602 0.41232-8.6654c0.40843-8.5838-1.3421-22.399-3.8241-30.18-1.013-3.1757-3.5743-5.2683-12.038-9.8348-5.913-3.1905-11.395-5.4026-12.183-4.916-10.561 6.5273-25.881-33.651-23.742-62.265 0.91689-12.264 8.8987-40.915 14.097-50.601 4.6143-8.5987 21.328-26.268 31.898-33.722 11.374-8.0207 29.28-17.327 40.341-20.967 11.432-3.7626 28.544-4.0583 40.118-0.69335 27.826 8.0894 46.821 24.503 57.839 49.983 6.7792 15.677 15.519 46.453 18.975 66.818 0.92201 5.4331 14.182 26.127 26.802 41.829 4.088 5.086 7.6087 9.7547 7.8239 10.375 0.56996 1.6421 24.265-2.4573 32.136-5.5598 7.7744-3.0644 11.125-2.0986 12.56 3.6206 1.2369 4.9282-2.0462 9.0791-13.135 16.606-4.9026 3.3282-8.9294 6.3945-8.9484 6.814-0.0495 1.0936 12.493 4.8782 23.498 7.0906 7.1741 1.4422 13.571 1.6302 26.894 0.79046 23.024-1.4512 25.239-2.006 31.74-7.9485 10.861-9.9273 44.914-23.926 67.017-27.548 6.3291-1.0372 17.558-2.2109 24.954-2.608 27.968-1.502 66.557-9.9982 95.473-21.021 5.9166-2.2554 13.782-4.6286 17.481-5.274 4.3847-0.76518 9.9977-3.3492 16.136-7.4285 10.956-7.2807 29.343-16.335 43.702-21.52 14.063-5.0786 39.758-10.523 86.06-18.236 51.448-8.5702 63.712-10.873 88.077-16.537 22.707-5.2794 43.043-12.037 47.064-15.639 1.4791-1.325 5.2701-3.7044 8.4241-5.2877 8.6526-4.3432 53.013-20.286 54.275-19.507 1.1984 0.74067 28.396-4.7264 43.531-8.7506 19.411-5.1608 39.361-9.5084 43.63-9.5084 2.4294 0 7.3954-1.0578 11.035-2.3506 7.3292-2.6031 9.1433-1.6536 9.1859 4.8073 0.024 3.5125-6.7257 10.99-9.9189 10.99-1.2874 0-1.7861 0.7614-1.3106 2.0007 0.497 1.2951-0.7006 2.8363-3.3954 4.3702-2.2898 1.3033-4.1669 3.4626-4.1717 4.7984-0.014 3.8354-9.7445 7.2607-29.234 10.29-9.7125 1.5098-17.955 2.7451-18.318 2.7451-0.3625 0 0.2107 1.7436 1.2738 3.8746 2.5775 5.1667 1.6346 7.0295-6.7215 13.279-5.0424 3.7709-10.33 6.1588-18.392 8.3064-11.442 3.0478-15.536 4.9824-20.008 9.4548-1.3541 1.3542-7.5118 4.7421-13.684 7.5287-12.602 5.69-27.366 7.6889-34.614 4.6865-3.6587-1.5155-5.9336-0.72303-32.637 11.37-25.218 11.419-56.423 27.048-75.096 37.607-3.3282 1.8821-10.892 5.9128-16.809 8.9568-5.9166 3.044-22.151 11.841-36.077 19.55-21.44 11.898-46.591 24.656-48.538 24.656-0.3021 0-8.9133 3.5387-19.135 7.8637-25.008 10.581-116.68 40.545-124.03 40.545-4.444 0-25.818 8.0717-37.762 14.26-13.706 7.1017-33.61 22.842-40.63 32.132-6.8357 9.045-9.203 14.346-10.429 23.352-0.94973 6.9764-0.67509 8.2755 3.4712 16.419 2.7764 5.4528 5.0185 12.412 5.8482 18.153 2.1374 14.788 1.7284 42.787-0.77054 52.75-2.0132 8.0272-2.0058 9.1477 0.10101 15.55 1.2487 3.7946 3.2453 15.053 4.4368 25.02 2.0333 17.008 2.0164 19.567-0.27575 41.685-2.6349 25.426-2.6992 29.713-0.64478 43.062 1.431 9.299 1.3677 9.1826 19.854 36.525 6.1693 9.1246 14.108 22.641 17.643 30.037 8.3328 17.435 16.187 37.23 16.187 40.797 0 1.5469 2.1121 6.655 4.6935 11.351 2.5815 4.6964 5.8271 11.827 7.2127 15.847 1.3856 4.0191 5.2808 13.359 8.6562 20.754 10.697 23.437 26.159 71.889 31.223 97.835 4.0545 20.777 4.1765 32.026 0.6484 59.778-4.7678 37.505-8.0397 53.666-18.274 90.261-5.5149 19.721-11.79 42.208-13.945 49.974-2.1548 7.7655-6.6741 23.897-10.043 35.846-3.3687 11.95-8.8793 33.431-12.246 47.736-13.14 55.836-13.317 57.576-7.0295 69.185 10.676 19.712 12.94 80.866 5.0155 135.5-2.4664 17.006-16.753 78.198-24.839 106.4-3.6075 12.58-5.5825 24.861-6.7032 41.685-0.4434 6.6562-1.107 14.069-1.4745 16.472-0.6256 4.0906-0.41558 4.3702 3.2828 4.3702 5.0988 0 5.5747 1.4597 5.6248 17.255 0.0226 7.1503 0.69667 20.564 1.4979 29.809 0.80115 9.2447 1.6162 20.88 1.8114 25.857 0.31113 7.9374 0.86563 9.6299 4.5174 13.789 5.7767 6.5793 8.8053 17.675 7.6728 28.107-1.434 13.21-0.82591 24.834 1.9942 38.118 1.7352 8.1734 2.6311 17.591 2.6225 27.566-0.0122 13.202-0.43313 16.053-3.277 22.162-5.4942 11.801-19.102 23.308-33.378 28.227-6.9654 2.3996-21.363 2.5581-29.222 0.3214-3.3282-0.9472-6.8844-1.8805-7.9027-2.0741-3.232-0.6142-14.838-9.1361-17.687-12.988-4.3817-5.9222-5.7659-17.043-4.7271-37.978 1.1839-23.856 1.076-26.594-1.1126-28.242-2.2867-1.7216-7.5663-26.212-7.5663-35.097 0-7.4091 3.1115-19.577 6.2684-24.512 1.5795-2.4696 2.1203-9.6055 2.5475-33.617 0.56639-31.834 1.9002-46.156 4.3755-46.981 0.80584-0.2688 3.0958-1.7713 5.0887-3.3387l3.6236-2.8502-0.79341-30.342c-0.95628-36.57-6.3035-73.784-16.436-114.38-1.9381-7.7655-4.928-19.743-6.6445-26.617-1.7165-6.8743-3.8318-18.674-4.7009-26.221-0.86908-7.5478-2.1441-17.404-2.8333-21.901-2.9431-19.208-0.44709-59.334 4.1941-67.423l2.486-4.3327-6.0028-12.672c-9.509-20.074-11.673-30.415-10.623-50.755 0.76671-14.852 0.45286-19.198-2.5246-34.962-1.8701-9.9009-3.8045-21.33-4.2988-25.397-0.49424-4.0676-1.7671-10.724-2.8288-14.792-2.057-7.8819-8.6886-38.858-15.402-71.941-2.251-11.093-4.679-28.642-5.3954-38.996-1.2993-18.777-2.1993-25.124-2.4784-17.481-0.64693 17.711-3.2152 39.488-6.6609 56.477-6.6868 32.97-13.338 64.044-15.399 71.941-1.0616 4.0678-2.3345 10.724-2.8288 14.792-0.49422 4.0677-2.4325 15.517-4.3073 25.441-2.9924 15.843-3.2958 20.056-2.4839 34.514 1.1095 19.759-1.1964 30.772-10.704 51.118l-5.9463 12.725 2.4822 4.3264c4.5744 7.9729 7.291 51.526 4.2288 67.797-0.66804 3.5495-1.921 12.838-2.7842 20.64-0.86327 7.803-2.996 19.906-4.7393 26.894-1.7434 6.9885-4.7555 19.06-6.6935 26.826-10.133 40.601-15.48 77.813-16.436 114.38l-0.79341 30.342 3.6236 2.8502c1.9929 1.5675 4.2829 3.07 5.0887 3.3386 2.4664 0.8222 3.7909 15.097 4.3583 46.968 0.42825 24.061 0.96577 31.131 2.5561 33.617 3.1646 4.9473 6.2771 17.109 6.2771 24.525 0 8.8553-5.2756 33.37-7.553 35.097-2.1407 1.6238-2.2834 5.3555-1.1048 28.914 1.0127 20.242-0.41338 31.446-4.748 37.305-2.8784 3.8902-14.514 12.411-17.687 12.952-1.0184 0.1736-3.9695 0.9853-6.558 1.804-6.9756 2.2062-14.51 2.6964-23.271 1.5137zm27.81-8.9247c6.123-2.8653 9.3477-5.2956 10.83-8.1621 3.3795-6.535 2.5223-7.1313-4.2765-2.9751-10.546 6.4471-19.084 8.5845-31.653 7.9248-12.633-0.6631-22.329-4.9135-29.286-12.838-4.6024-5.2419-4.8967-4.8065-1.383 2.0452 3.148 6.1385 7.1477 9.8716 14.566 13.594 13.418 6.7344 27.392 6.8736 41.203 0.4102zm208.98 0.3931c9.0892-4.1612 13.086-7.6376 16.553-14.398 3.5138-6.8518 3.2194-7.2871-1.383-2.0453-6.9574 7.9241-16.654 12.174-29.286 12.838-12.57 0.6597-21.107-1.4777-31.653-7.9247-6.7653-4.1359-7.6528-3.5539-4.3425 2.8474 2.0825 4.0272 9.1282 8.3728 18.798 11.594 7.9629 2.6527 22.014 1.3463 31.314-2.9112zm-206.14-14.543c15.126-6.0209 14.784-4.9982 14.867-44.48 0.0616-29.571-0.12169-32.182-2.2993-32.751-1.4739-0.3855-3.1425-3.2271-4.425-7.5356-2.1772-7.3147-4.2154-11.29-5.2499-10.24-0.91809 0.9323-2.7342 35.451-2.4271 46.131 0.28211 9.8073 2.3604 15.355 8.0159 21.401 2.4329 2.6004 2.8696 3.6979 1.4712 3.6979-2.2841 0-12.208-9.9008-14.601-14.567-1.5958-3.1117-1.741-3.1292-17.91-2.1641-21.566 1.2871-22.304 1.5404-26.423 9.0749-1.8999 3.4756-4.8159 7.2594-6.48 8.4086-3.6809 2.5421-3.848 1.5081-0.52282-3.2342 1.3765-1.9631 3.272-5.9392 4.2122-8.8357 1.4912-4.5939 1.4291-5.4716-0.48569-6.8718-2.9436-2.1523-2.7706-5.0088 0.42419-7.0039 3.6443-2.2761 3.4605-12.389-0.20786-11.43-3.4033 0.8898-3.1377-3.3054 0.27783-4.3895 1.7544-0.5568 2.6894-2.0345 2.6894-4.2505 0-2.2661-0.89531-3.6312-2.6894-4.1004-3.3355-0.8722-3.5451-3.0789-0.29244-3.0789 1.9496 0 2.4531-1.29 2.6977-6.9118 0.16541-3.8015-0.40349-7.7604-1.2642-8.7975-1.1854-1.4282-1.1874-2.2633-0.008-3.4423 0.85615-0.8562 1.5566-2.7395 1.5566-4.1854 0-2.485-0.13793-2.5041-2.5206-0.3478-1.886 1.707-2.7551 5.0598-3.4522 13.319-0.51236 6.0708-2.4092 17.649-4.2154 25.73-4.5847 20.511-5.496 31.742-2.9091 35.854 1.122 1.7833 2.7151 5.3764 3.54 7.9848 2.0705 6.547 8.7724 14.3 15.192 17.576 12.409 6.3306 26.589 6.1483 43.438-0.5583zm205.46 1.4775c7.8702-3.3856 14.925-11.321 17.824-20.049 1.1907-3.5853 2.7239-6.8638 3.4069-7.2861 2.2073-1.3641 1.3188-11.612-2.6965-31.1-2.16-10.483-4.3514-23.922-4.8697-29.864-0.6991-8.0145-1.593-11.392-3.4629-13.084-2.3827-2.1562-2.5206-2.1372-2.5206 0.3478 0 1.4459 0.70048 3.3292 1.5566 4.1854 1.179 1.1791 1.1771 2.0142-0.009 3.4423-0.86073 1.0371-1.4297 4.996-1.2642 8.7975 0.24459 5.6219 0.74809 6.9118 2.6977 6.9118 3.2526 0 3.0431 2.2068-0.29243 3.0789-1.794 0.4692-2.6894 1.8344-2.6894 4.1004 0 2.216 0.93498 3.6937 2.6894 4.2505 3.4156 1.0842 3.6811 5.2794 0.27783 4.3895-3.6683-0.9593-3.8523 9.1542-0.20787 11.43 3.1948 1.995 3.3677 4.8515 0.4242 7.0038-1.9148 1.4002-1.9769 2.2779-0.48569 6.8718 0.94023 2.8966 2.8358 6.8726 4.2122 8.8358 3.3251 4.7421 3.158 5.7762-0.52284 3.2341-1.6641-1.1492-4.58-4.933-6.48-8.4086-4.1243-7.5445-4.987-7.8417-26.523-9.1356-16.07-0.9656-16.179-0.952-17.794 2.1952-2.4066 4.691-12.326 14.597-14.616 14.597-1.3984 0-0.96177-1.0976 1.4712-3.6979 5.5197-5.8996 7.6901-11.517 7.9932-20.689 0.33384-10.098-1.5063-45.928-2.4057-46.844-1.0329-1.0513-3.072 2.927-5.2486 10.24-1.2955 4.3525-2.9466 7.149-4.4536 7.5429-2.2166 0.5797-2.3857 3.0162-2.2734 32.751 0.0838 22.177 0.63194 33.292 1.7702 35.894 1.1436 2.6144 4.0195 4.847 9.387 7.2869 16.48 7.4922 31.921 8.4398 45.104 2.7685zm-212.84-46.688c0-1.6389-11.957-6.6211-18.292-7.622-3.7547-0.5932-7.0498-0.048-11.627 1.9221-3.513 1.5121-6.3873 2.9221-6.3873 3.1334 0 0.2112 6.5049 0.3963 14.456 0.4114 8.7973 0.016 15.508 0.6586 17.145 1.6399 3.2354 1.9399 4.7064 2.101 4.7064 0.5152zm190.28-1.8223c3.6979-0.7243 10.808-0.9461 15.801-0.493 4.9921 0.4531 9.0766 0.4956 9.0766 0.094 0-0.4011-2.8743-1.9667-6.3873-3.479-4.5771-1.9703-7.8722-2.5151-11.627-1.9219-6.5903 1.0412-18.292 6.0091-18.292 7.7658 0 0.7391 1.0384 0.8879 2.3532 0.337 1.2942-0.5425 5.3788-1.5788 9.0766-2.3031zm-190.79-9.3389c-1.1003-5.5011-0.95002-5.4151-6.3232-3.6184-5.8032 1.9405-8.0039 3.841-4.521 3.9042 1.4422 0.027 4.135 0.9125 5.9838 1.9694 4.9813 2.8475 5.8046 2.4656 4.8604-2.2552zm186.76 1.6965c6.4445-2.4668 6.584-2.6267 3.3617-3.8535-8.3553-3.1809-9.0468-3.1805-9.9001 0-0.84697 3.1614-1.1119 6.4258-0.52122 6.4238 0.18489-0.0006 3.3617-1.1592 7.0596-2.5747zm-198.35-8.0702 7.3958-2.4132-4.0341-1.705c-10.209-4.3146-24.821-1.872-25.979 4.3428-0.37831 2.0293 0.63941 2.3419 7.3918 2.271 4.3068-0.046 11.159-1.168 15.226-2.4956zm225.67 0.2246c-0.2413-1.2942-2.5548-3.4493-5.1412-4.7888-5.2638-2.7265-16.218-2.4392-21.732 0.5698-3.02 1.6481-2.8561 1.8045 4.2548 4.061 4.0676 1.2908 10.92 2.3838 15.226 2.429 6.7525 0.071 7.7701-0.2417 7.3918-2.271zm-214.54-11.264c-0.91579-0.9158-3.017-1.1341-5.3115-0.5521l-3.7963 0.9631 4.0341 1.7225c4.365 1.8639 7.678 0.4708 5.0738-2.1335zm187.51-0.088c-2.3146-1.4706-6.0371-1.3328-7.0214 0.2598-1.6405 2.6544 0.68716 3.7948 4.674 2.29 2.6814-1.0121 3.4513-1.8484 2.3474-2.5498zm-194.72-3.4c3.2439-0.6657 3.243-0.6694-0.89763-3.1873-7.826-4.7592-14.008-5.887-19.559-3.5677-3.3838 1.4137-4.9779 2.9395-4.9779 4.7641 0 2.2454 1.0447 2.7549 6.3873 3.1162 6.5722 0.4443 13.352 0.044 19.047-1.1253zm220.64-2.0439c0-1.7662-1.6397-3.3186-4.9779-4.7134-5.5509-2.3193-11.733-1.1915-19.559 3.5677l-4.1452 2.5207 3.2476 0.7212c5.3276 1.1831 10.901 1.4858 18.375 0.9981 5.9564-0.3888 7.0596-0.8722 7.0596-3.0943zm-212.46-7.3523v-4.856l-5.0426 0.9265c-5.2215 0.9596-9.2027 3.3822-5.6477 3.4366 1.0724 0.016 3.4626 1.2133 5.3115 2.6596 4.6809 3.6614 5.3787 3.3804 5.3787-2.1667zm184.22 2.1667c1.849-1.4463 4.2391-2.643 5.3115-2.6595 3.555-0.055-0.42623-2.4771-5.6477-3.4367l-5.0426-0.9265v4.856c0 5.5471 0.69784 5.8281 5.3788 2.1667zm-152.33-11.767c-0.3081-2.0338-0.56018-0.3697-0.56018 3.6979 0 4.0677 0.25208 5.7317 0.56018 3.6979 0.30811-2.0338 0.30811-5.362 0-7.3958zm115.65-0.6482c-0.29928-2.4168-0.55031-0.7637-0.55785 3.6738-0.009 4.4374 0.23731 6.415 0.54413 4.3943 0.30683-2.0206 0.31299-5.6512 0.0137-8.0681zm-161.87 3.716c4.3262-1.0334 8.1449-2.1579 8.486-2.4989 1.4453-1.4453-11.896-5.249-16.003-4.5627-7.8254 1.3074-11.778 3.4265-11.778 6.3137 0 2.3142 0.8574 2.7156 5.7149 2.6748 3.1432-0.027 9.2546-0.8934 13.581-1.9269zm226.78-0.8606c0-2.9768-4.2323-5.1686-12.151-6.2921-4.992-0.7084-15.931 2.8899-14.174 4.6623 1.5975 1.6114 13.054 4.0207 19.937 4.1928 5.5694 0.1393 6.3873-0.1889 6.3873-2.563zm-209.61-6.8487c2.3068-2.3069 2.4984-3.0769 1.0085-4.0515-1.0118-0.662-3.0497-0.9014-4.5289-0.5322-1.4792 0.3694-3.7483 0.6798-5.0426 0.6899-3.4166 0.027-2.8844 1.712 1.347 4.2658 2.0325 1.2265 3.8468 2.2855 4.0317 2.3532 0.18489 0.067 1.6178-1.1588 3.1842-2.7252zm180.36 0.2359c4.1939-2.1022 4.8452-4.1023 1.3447-4.1297-1.2942-0.014-3.5634-0.3205-5.0426-0.6899-1.4792-0.3692-3.5172-0.1304-4.5289 0.5322-1.5086 0.9868-1.3877 1.6941 0.67235 3.9314 1.3816 1.5004 2.8145 2.6114 3.1842 2.4688 0.36979-0.1426 2.3364-1.0934 4.3702-2.1128zm-231.54-3.5229c5.1043-5.4333 10.637-8.2845 20.511-10.57 18.645-4.3158 31.583-2.2216 40.792 6.6028l5.672 5.4346 0.84138-4.485c0.46276-2.4667 1.1362-5.2532 1.4966-6.1923 0.99926-2.6041-10.888-15.012-17.403-18.166-10.372-5.0207-31.086-3.3265-44.75 3.6599-5.1972 2.6572-5.7535 3.5267-9.0766 14.185-1.947 6.2447-3.5401 11.719-3.5401 12.166 0 1.7846 2.3905 0.6308 5.4576-2.634zm280.96 2.634c0-0.4464-1.6079-5.9687-3.5731-12.272l-3.5731-11.46-8.675-4.0596c-11.252-5.2657-30.361-6.7437-39.931-3.0885-7.2904 2.7841-20.169 16.077-18.835 19.441 0.47233 1.1913 1.1629 3.9814 1.5344 6.2001l0.67567 4.034 5.8738-5.6353c6.7047-6.4324 12.552-8.4657 24.373-8.4763 15.15-0.014 29.363 4.9015 36.672 12.683 3.0671 3.2648 5.4576 4.4186 5.4576 2.634zm-260.87-2.6939c0-0.2907-0.90767-0.5285-2.017-0.5285-1.1094 0-2.017 0.5862-2.017 1.3025 0 0.7165 0.90766 0.9542 2.017 0.5284 1.1094-0.4258 2.017-1.0117 2.017-1.3024zm239.35 0.9682c0-0.7396-1.059-1.3354-2.3532-1.3242-2.011 0.017-2.06 0.2103-0.33617 1.3242 2.5377 1.64 2.6894 1.64 2.6894 0zm-224.89-4.958c-1.2856-0.3365-3.7061-0.3488-5.3787-0.027-1.6727 0.3216-0.6208 0.597 2.3375 0.612s4.3269-0.2483 3.0412-0.5848zm212.46 0c-1.2856-0.3365-3.7061-0.3488-5.3788-0.027-1.6727 0.3216-0.62079 0.597 2.3375 0.612s4.3269-0.2483 3.0412-0.5848zm-176.63-57.2c-1.3103-11.648-2.8566-21.179-3.4364-21.179-1.6605 0-4.9552 13.18-5.9377 23.754-0.8744 9.4101-0.82106 9.6445 2.2927 10.085 4.2901 0.6069 4.421 5.6547 0.16244 6.2595-1.6641 0.2362-3.0256 1.0284-3.0256 1.7602s-0.5505 0.9903-1.2233 0.5745c-0.67282-0.416-2.2566-0.3596-3.5195 0.125-2.001 0.7679-1.887 1.108 0.88717 2.6461 2.1213 1.176 2.479 1.7809 1.0723 1.8127-1.4232 0.032-0.30449 1.9874 3.4342 6.0021 3.0499 3.2751 6.7228 8.1469 8.1621 10.826l2.6169 4.8717 0.44842-13.18c0.24662-7.2487-0.62359-22.71-1.9338-34.358zm146.85 28.87c3.3936-2.5288 3.5469-2.9106 1.201-2.9893-2.4608-0.082-2.4187-0.2403 0.49395-1.8551 2.7741-1.5381 2.8882-1.8783 0.88718-2.6462-1.2629-0.4846-2.8466-0.541-3.5195-0.125-0.67283 0.4158-1.2233 0.1573-1.2233-0.5744 0-0.7318-1.3615-1.524-3.0255-1.7603-4.2586-0.6047-4.1276-5.6526 0.16244-6.2594 3.1139-0.4406 3.1671-0.6751 2.2927-10.085-0.97261-10.467-4.2721-23.754-5.8989-23.754-1.6617 0-5.665 38.508-5.6483 54.332l0.0154 14.664 5.1864-8.0242c2.8525-4.4134 6.937-9.3289 9.0766-10.923zm-206.35-7.8162c-0.26065-2.8892-0.59564-14.028-0.74442-24.751-0.36809-26.528-0.58943-29.583-2.1434-29.583-0.81473 0-1.3823 6.2269-1.4403 15.801-0.0526 8.69-0.56973 20.642-1.1491 26.558-0.82379 8.4122-0.65635 11.082 0.76802 12.251 1.0018 0.8211 1.8215 2.5357 1.8215 3.81s0.75638 2.0586 1.6809 1.7432c1.0766-0.3675 1.5106-2.462 1.207-5.827zm256.64 3.9717c0-1.2127 0.81967-2.8768 1.8215-3.6979 1.4244-1.1675 1.5918-3.8382 0.76802-12.251-0.5794-5.9167-1.0965-17.867-1.1491-26.558-0.0526-8.69-0.6165-15.801-1.253-15.801-1.933 0-2.8655 13.211-1.9679 27.882 0.57845 9.4544 0.29506 16.18-0.88986 21.12-1.7505 7.2969-1.2808 11.508 1.2835 11.508 0.76279 0 1.3869-0.9923 1.3869-2.205zm-240.92-2.7276c4.189-0.4925 7.0117-1.0822 6.2729-1.3108-0.73893-0.2286-5.1254-1.2841-9.7478-2.3455l-8.4043-1.93v4.0585c0 3.1522 0.4761 3.876 2.1315 3.2407 1.1724-0.4497 5.5588-1.2206 9.7478-1.7129zm234.2-1.6695v-3.9129l-7.732 1.848c-4.2525 1.0162-8.6396 1.9347-9.749 2.0408-1.6845 0.1612 1.3148 0.8428 16.472 3.7438 0.55468 0.1065 1.0085-1.5677 1.0085-3.7197zm-208.52-3.6022 5.3389-2.1363-0.26917-17.698-0.26917-17.698-13.717 0.4567c-9.2253 0.3071-15.88-0.1774-20.323-1.4797l-6.6056-1.9364-0.84807 10.893c-0.46644 5.9908-0.85171 13.947-0.85614 17.68l-0.008 6.7875 13.782 3.4934c16.839 4.2679 17.147 4.2893 23.774 1.6381zm193.4-1.478 15.127-3.6633-0.009-6.7826c-0.004-3.7304-0.3897-11.685-0.85614-17.675l-0.84807-10.893-6.6056 1.9363c-4.4426 1.3023-11.097 1.7869-20.323 1.4797l-13.717-0.4566-0.26922 17.7-0.26922 17.7 4.9757 2.0649c6.5483 2.7175 5.4708 2.7842 22.793-1.4107zm-190.94-40.2c4.8313-0.9663 7.9469-6.1804 5.1031-8.5403-1.3078-1.0855-3.5544-1.0838-8.3289 0-3.5959 0.8208-12.882 1.2923-20.636 1.048-12.113-0.3818-14.157-0.1395-14.517 1.72-0.40287 2.0788 3.3558 4.2566 9.7902 5.6724 4.2118 0.9268 24.099 0.9921 28.589 0.095zm201.07-1.9194c2.1894-1.0418 3.5799-2.664 3.3406-3.8979-0.34804-1.7955-2.5303-2.0466-14.508-1.6691-7.754 0.2443-17.04-0.2272-20.636-1.048-8.0806-1.8444-10.934-0.3066-8.6662 4.6705 0.79948 1.7546 2.7322 3.477 4.2949 3.8275 5.7106 1.2808 32.45-0.1117 36.174-1.883zm-199.13-13.124c0.51517-0.4605 1.5532-13.847 2.3067-29.749 2.5875-54.601 6.4579-80.639 18.888-127.07 11.808-44.11 12.002-48.869 4.1349-101.66-1.512-10.146-2.5152-13.307-4.2232-13.307-2.0793 0-1.3055-5.3365 1.324-9.1311 1.3887-2.0039 3.8497-8.7868 5.4688-15.073 1.6192-6.2864 4.3935-15.975 6.165-21.529 2.9238-9.1668 5.6655-27.959 8.0418-55.118 0.99076-11.324 3.5236-27.112 6.5894-41.073 3.4858-15.874 7.3124-37.896 10.854-62.468 1.8657-12.942 4.3387-27.163 5.4955-31.6 6.866-26.338 9.4532-53.386 7.5505-78.936-1.3866-18.619-2.5266-21.243-9.2308-21.243-2.0882 0-10.149-1.8214-17.913-4.0476-37.334-10.705-85.094-19.249-120.34-21.531-20.388-1.3197-24.678-1.2062-39.668 1.0491l-16.809 2.5289-0.37833 15.648c-0.35404 14.643-0.0222 17.012 5.1688 36.885 3.0508 11.68 9.3829 32.735 14.071 46.788 7.975 23.903 14.471 47.084 27.321 97.49 2.9222 11.463 7.4639 28.71 10.093 38.324 6.4601 23.628 10.186 41.52 10.501 50.426 0.42047 11.896-1.5056 44.062-2.8503 47.599-5.184 13.635-5.96 73.885-1.4998 116.45 5.5134 52.621 10.867 81.101 22.452 119.43 7.1786 23.75 7.6214 26.048 8.0782 41.936l0.48341 16.809 9.0851 2.1887c8.686 2.0927 26.504 2.0886 28.847 0zm-10.138-104.04c-1.5998-27.763-0.93958-59.694 1.7813-86.161 3.6843-35.839 9.1183-61.088 13.459-62.534 1.2881-0.4294 1.4883 0.1116 0.71828 1.9414-3.4571 8.2133-5.0455 14.462-7.4113 29.157-5.4295 33.726-7.1245 56.676-7.0465 95.41 0.0413 20.523-0.0831 37.316-0.27665 37.316-0.19347 0-0.74404-6.8075-1.2234-15.127zm-8.96-157.6c0-0.9515 2.9596-3.9395 6.5768-6.6401 4.6614-3.48 7.7944-7.3467 10.757-13.277 4.0647-8.1342 4.1807-8.8752 4.1807-26.713 0-17.043 0.24734-18.843 3.482-25.334 3.0009-6.022 4.0226-6.9874 7.3958-6.9874 3.448 0 3.9138 0.4778 3.9138 4.0147 0 2.2083 0.7227 6.717 1.606 10.02 4.4202 16.527-14.078 56.477-29.952 64.686-4.6858 2.423-7.96 2.5182-7.96 0.2312zm-35.214-28.861c-5.4164-8.2807-5.6742-9.5967-5.9925-30.592-0.16818-11.093-0.4961-21.986-0.72873-24.204-0.33988-3.2418 0.0895-4.0341 2.1866-4.0341 1.7367 0 3.6556 2.0327 5.7366 6.0765 3.7893 7.3633 4.5332 20.277 1.9804 34.38-1.4832 8.1939-1.4354 10.36 0.34199 15.464 1.1368 3.2645 2.0757 6.3893 2.0864 6.9439 0.0482 2.4832-2.5874 0.5883-5.6108-4.034zm244.27 290.58 10.123-2.2245v-12.384c0-15.592 1.1452-21.566 9.4494-49.285 10.716-35.771 16.204-65.458 21.584-116.76 4.4404-42.339 3.6593-102.88-1.5025-116.45-1.3446-3.5365-3.2707-35.702-2.8503-47.599 0.31478-8.9057 4.0407-26.798 10.501-50.426 2.6287-9.6145 7.1703-26.86 10.093-38.324 13.383-52.5 19.282-73.602 26.686-95.473 7.0612-20.856 15.423-49.547 19.02-65.262 0.6828-2.983 1.0691-12.321 0.8585-20.75l-0.3873-15.222-16.803-2.528c-14.991-2.2552-19.281-2.3686-39.668-1.0489-35.252 2.2819-83.012 10.826-120.34 21.531-7.764 2.2263-15.825 4.0476-17.913 4.0476-6.7042 0-7.8441 2.6232-9.2308 21.243-1.9028 25.55 0.68453 52.599 7.5505 78.936 1.1569 4.4375 3.6338 18.658 5.5043 31.6 3.5571 24.612 8.4984 52.652 11.867 67.336 2.1563 9.4021 5.0986 31.266 8.2992 61.672 1.2115 11.508 3.365 23.557 5.2882 29.583 1.7843 5.5922 4.5691 15.311 6.1882 21.597 1.6192 6.2864 4.0801 13.069 5.4688 15.073 3.0191 4.3565 3.1055 5.6118 0.65429 9.5145-1.7729 2.8228-4.4021 16.989-7.4962 40.39-2.0129 15.224-1.7078 35.033 0.69632 45.2 1.1478 4.8545 4.2516 16.996 6.8971 26.98 7.4556 28.138 9.6969 38.129 12.492 55.682 3.2542 20.441 6.7111 56.681 6.93 72.651 0.0919 6.7025 0.54571 16.414 1.0085 21.581l0.84149 9.3944 6.7234 0.4223c3.6979 0.2321 7.3285 0.6465 8.0681 0.9208 2.2976 0.8517 3.0096 0.7714 13.408-1.5136zm-18.76-115.4c0.69771-49.715-6.4253-118.8-13.7-132.87-1.1015-2.13-1.6454-4.2298-1.2087-4.6666 3.5189-3.5188 9.7196 21.434 13.625 54.831 2.6361 22.542 3.8568 75.257 2.1796 94.128-1.1596 13.047-1.2276 12.179-0.89627-11.43zm2.6073-146.43c-10.931-4.7622-24.812-27.329-29.633-48.176-2.0213-8.7415-2.1513-11.477-0.81939-17.248 0.87066-3.7719 1.5831-8.3246 1.5831-10.117 0-2.6593 0.68061-3.2588 3.6979-3.2577 3.0265 0 4.3693 1.1968 7.3958 6.5854 3.545 6.3118 3.6979 7.3634 3.6979 25.431 0 18.643 0.0473 18.938 4.3798 27.307 2.8704 5.5449 6.4619 10.041 10.421 13.047 9.1436 6.9404 8.737 10.552-0.7239 6.4301zm37.514-25.012c0.36556-1.8489 1.2593-5.6801 1.9859-8.5137 0.90115-3.5137 0.83571-8.0038-0.20573-14.119-2.3574-13.844-1.5424-26.633 2.1552-33.818 2.081-4.0438 4-6.0764 5.7366-6.0764 2.0971 0 2.5265 0.7923 2.1866 4.034-0.23263 2.2188-0.53519 13.111-0.67235 24.204-0.26766 21.647-1.1288 25.091-8.4073 33.617-3.3938 3.9756-3.434 3.9854-2.779 0.6724zm-126.21-337.52c0.51208-0.82856-1.2994-1.3573-4.6502-1.3573-5.379 0-5.4496 0.0608-3.5215 3.0255 1.0822 1.6641 2.4131 6.3536 2.9577 10.421l0.99 7.3958 1.6926-9.064c0.93094-4.9852 2.0701-9.6749 2.5314-10.421zm-18.15 2.3406c-0.002-2.4037-1.1258-6.1856-2.4956-8.4043-3.4917-5.6554-26.579-29.076-33.534-34.018-7.7602-5.5141-11.84-10.756-9.8897-12.707 1.0845-1.0845 1.0404-2.0573-0.16314-3.602-3.6474-4.6814 3.867 2.2216 19.783 18.174 25.345 25.402 38.39 30.195 57.232 21.029 12.928-6.2893 20.708-12.837 33.922-28.549 11.866-14.11 16.021-17.047 17.749-12.545 0.69606 1.8139-2.0157 5.2064-11.356 14.206-6.7485 6.5026-13.901 12.667-15.895 13.698-1.9939 1.0311-6.8805 5.7137-10.859 10.406-3.9786 4.6921-8.6505 9.7586-10.382 11.259-2.0993 1.8191-3.4381 4.843-4.0184 9.0766l-0.87019 6.3488h5.7161c3.1439 0 11.244-1.5027 17.999-3.3393 46.377-12.608 108.51-21.351 152.64-21.481l19.334-0.0568-0.8649-10.757c-1.7185-21.374-7.2782-41.292-21.958-78.664-14.231-36.23-23.15-51.038-34.381-57.087-4.6615-2.5104-4.722-2.507-9.886 0.55488-5.9964 3.5555-16.759 6.2978-46.881 11.945-61.205 11.475-119.25 15.261-157.37 10.264-25.437-3.3345-75.806-14.688-84.35-19.013-2.544-1.2878-4.465-1.474-6.1121-0.59255-3.7298 1.9962-20.79 26.61-31.186 44.993-14.03 24.81-25.619 61.428-27.723 87.599l-0.86488 10.757 19.334 0.0568c44.37 0.13017 113.95 10.054 154.48 22.031 4.8073 1.4209 11.917 2.6297 15.801 2.6863l7.0596 0.10327-0.005-4.3702zm65.212-156.11c33.528-4.0529 54.176-7.4003 55.126-8.9368 0.35531-0.57492 3.3638-1.4529 6.6856-1.951 8.9978-1.3493 32.299-7.1481 37.566-9.3489l4.6072-1.9251-2.7113-12.508c-3.7914-17.491-12.261-38.65-19.174-47.898-3.1791-4.2534-7.0868-10.318-8.6839-13.478-4.3863-8.6771-16.191-24.305-19.042-25.211-4.7524-1.5084-6.5976-15.312-4.0521-30.317 1.6398-9.6659 3.0537-46.896 2.0255-53.33l-0.81089-5.0741-13.135 0.17428c-7.2244 0.0959-20.333 1.5122-29.129 3.1474-38.357 7.1302-107.35 28.131-138.62 42.192-5.7753 2.5974-13.829 6.0233-17.896 7.6132-4.0676 1.5898-8.3035 3.6815-9.4128 4.6481-1.1093 0.96661-5.0426 3.3149-8.7405 5.2185-11.149 5.739-10.878 5.1424-5.6602 12.467 8.5661 12.025 15.746 24.73 15.746 27.865 0 7.1331-7.6142 23.971-17.328 38.32-15.91 23.503-21.685 35.366-21.657 44.502 0.008 2.6073 1.3091 4.1954 5.309 6.4793 2.9142 1.6641 6.1646 3.0256 7.2229 3.0256 1.0584 0 5.1742 1.482 9.1464 3.2932 6.4986 2.9633 39.259 10.559 52.942 12.274 2.9583 0.37093 9.3119 1.1991 14.119 1.8404 4.8073 0.64129 23.869 1.0149 42.358 0.83019 26.484-0.26453 39.895-1.0947 63.2-3.9119zm-43.746-47.324c-2.5837-3.1132-2.3484-12.938 0.41099-17.151 2.549-3.8909 7.7178-4.8981 10.05-1.9585 0.7334 0.92447 1.6421 4.5664 2.0193 8.0932 0.53861 5.0356 0.12237 7.1287-1.9387 9.749-2.9612 3.7647-7.9689 4.3665-10.541 1.2668zm6.7772-10.037c0-0.73958-0.26684-1.3447-0.59298-1.3447s-0.96696 0.60511-1.4241 1.3447c-0.45708 0.73958-0.19024 1.3447 0.59299 1.3447 0.78322 0 1.4241-0.6051 1.4241-1.3447zm-92.622-76.215c0.28083-0.70769 5.3515-5.5523 11.268-10.766 10.637-9.3731 23.74-22.828 30.255-31.07 3.942-4.9863 9.9598-6.9891 11.21-3.7309 1.4006 3.6499-19.609 23.536-40.121 37.976-11.913 8.3866-13.247 9.1893-12.613 7.591zm121.52-40.65c-5.177-2.7316-12.59-6.2656-16.472-7.8533-5.2903-2.1632-7.0596-3.5793-7.0596-5.6505 0-3.9428 2.827-3.4949 14.383 2.2786 9.9799 4.9861 20.579 12.832 20.579 15.233 0 1.8294-1.0964 1.445-11.43-4.0074zm-160.78 13.432c27.284-14.008 54.846-23.393 123.13-41.927 16.62-4.511 37.932-9.2662 53.459-11.928 8.3159-1.4257 20.502-3.5342 27.08-4.6854 8.9168-1.5605 12.424-1.7083 13.782-0.58061 1.4733 1.2228 1.8135 0.64373 1.7753-3.0223-0.0517-4.9673-3.2465-21.051-4.4132-22.219-0.40116-0.40116-3.5728 1.2269-7.0481 3.618s-9.115 5.2068-12.532 6.2572c-7.7979 2.3966-37.184 3.6773-47.9 2.0876l-8.0681-1.197 12.102-0.91526c16.175-1.2232 35.36-4.4001 41.075-6.8018 2.554-1.0732 7.2682-3.8587 10.476-6.1901 10.103-7.3428 16.218-25.1 16.308-47.352 0.0861-20.773-2.4742-28.26-16.749-48.818-10.844-15.641-30.465-46.913-34.854-55.595-8.8211-17.395-14.716-39.631-13.985-52.658l0.41976-7.3958-8.7405 0.47645c-4.8073 0.26204-9.4012 1.0132-10.209 1.6691-0.80762 0.656-1.9636 0.74416-2.5688 0.19589-1.5777-1.4292 0.64951 2.3555 4.1614 7.0713 8.5622 11.498 13.21 28.508 13.042 47.736-0.19568 22.449-4.3664 38.374-16.792 64.122-8.3659 17.335-23.656 32.398-42.731 42.099-29.854 15.183-95.238 3.2154-120.52-22.057-14.224-14.224-19.89-29.188-19.625-51.838 0.0903-7.7357 0.53501-15.753 0.98827-17.817l0.82413-3.7522h-9.355c-6.846 0-9.8232 0.56415-11.101 2.1035-1.1517 1.3876-2.8741 1.8203-5.0615 1.2713-3.1314-0.78594-3.0833-0.63663 0.86535 2.6859 5.4124 4.5543 11.806 17.67 14.418 29.573 1.1874 5.412 2.4096 20.076 2.8755 34.5 0.74347 23.018 0.55794 26.179-2.2484 38.324-6.3632 27.535 0.2523 58.351 15.986 74.461 5.9151 6.0571 6.6676 6.4042 17.429 8.0391 23.216 3.5266 43.536-0.10785 67.242-12.027 9.4399-4.7463 35.89-16.223 37.389-16.223 0.32744 0 0.16247 0.70043-0.36662 1.5565-0.6771 1.0956-0.004 1.2884 2.2738 0.65117 1.7797-0.49792 9.2314-1.2956 16.559-1.7726 10.206-0.66436 13.09-0.48929 12.325 0.7482-0.54913 0.88852-2.1086 1.2631-3.4654 0.83248-1.3568-0.43064-10.231 0.77555-19.721 2.6804-20.082 4.0313-32.219 9.2379-46.534 19.963-18.873 14.141-29.975 17.795-53.082 17.474-11.559-0.16065-15.127 0.19866-15.127 1.5232 0 0.95339 0.81769 2.412 1.8172 3.2414 0.99942 0.82944 2.9161 5.5932 4.2594 10.586 2.8348 10.537 5.6787 17.819 6.9588 17.819 0.49339 0 6.6876-2.9729 13.765-6.6066zm-65.87-136.94c1.8298-6.5892 1.7994-7.1772-0.76504-14.744-3.2265-9.521-9.358-17.201-20.317-25.449-5.3764-4.0463-9.7752-7.8942-9.7752-8.5507 0-2.737 20.368 8.129 27.215 14.519 2.0261 1.8907 4.0274 3.0941 4.4474 2.6741 1.1952-1.1952-5.5511-29.506-8.8689-37.218-1.6401-3.8124-4.7926-8.4552-7.0057-10.317-3.6098-3.0374-3.9554-3.9926-3.3591-9.283l0.66469-5.8972-15.951-2.9734-15.951-2.9734-10.093 4.4008c-5.5514 2.4204-10.093 4.9392-10.093 5.5972 0 0.65803 1.5127 1.7716 3.3617 2.4746 1.849 0.70296 3.3617 2.0656 3.3617 3.0283 0 0.9626 4.2808 5.9698 9.513 11.126 5.2321 5.1572 10.819 11.192 12.415 13.41l2.9022 4.0341-5.3554-4.382c-2.9455-2.4101-11.406-9.5173-18.802-15.794-9.0573-7.6866-14.544-11.413-16.809-11.413-4.356-0.001-9.0594 2.9146-30.255 18.76-31.764 23.745-45.043 31.337-77.805 44.478l-15.949 6.3975 7.2651 2.112c20.139 5.8547 18.415 5.8341 138.26 1.6505 16.795-0.58627 38.917 6.4054 50.426 15.936 2.2187 1.8376 4.4594 3.3628 4.9794 3.3894 0.51991 0.0266 1.5754-2.2208 2.3457-4.9943zm126.48-3.152c0-7.0983-15.236-22.74-28.706-29.471-6.1604-3.0784-7.2368-4.0128-4.6227-4.0128 1.8741 0 5.98 0.90766 9.1243 2.017 7.1395 2.519 7.4626 2.5108 5.2684-0.133-1.608-1.9376-1.259-1.9308 3.5332 0.069 9.8646 4.1165 21.848 14.06 25.921 21.51l2.244 4.1038 0.70008-11.544c0.59305-9.7789 1.4581-13.078 5.6583-21.576 4.451-9.0061 17.71-25.298 19.297-23.712 0.34339 0.34339-1.5253 4.1942-4.1527 8.5574-5.973 9.9192-8.7157 18.993-8.7157 28.837 0 7.3682 2.0522 21.265 3.3288 22.542 0.34127 0.34127 4.1189-1.1253 8.3948-3.2591 7.982-3.9833 25.928-20.432 25.928-23.765 0-1.0037 2.6705-7.3118 5.9346-14.018 14.727-30.258 16.733-57.597 5.9604-81.219l-4.0552-8.8924-13.668 6.9076c-7.5179 3.7991-19.246 9.116-26.062 11.815-18.21 7.211-24.936 13.17-26.292 23.294-1.337 9.9841-11.741 7.911-11.741-2.3396 0-7.5196 5.4485-16.437 12.949-21.193 3.2944-2.0892 18.37-7.8508 33.499-12.804 15.13-4.9528 27.51-9.4732 27.51-10.045 0-0.57215-3.3282-5.1006-7.3958-10.063-4.0676-4.9625-7.3958-9.5042-7.3958-10.093 0-0.58846-4.0845-2.0893-9.0766-3.3352s-13.51-4.3904-18.93-6.9875c-11.325-5.4278-17.326-5.3594-26.076 0.29735l-5.0012 3.2331-0.37764 16.48-0.37763 16.48-2.6406-15.162c-2.1708-12.464-3.0082-15.019-4.7064-14.361-1.1361 0.44003-3.7423 1.1384-5.7916 1.5519-2.0492 0.41352-3.9949 1.1872-4.3239 1.7194-0.99404 1.6085 6.1018 23.452 8.1341 25.04 3.2363 2.5283 5.8058 10.2 4.5354 13.542-0.68503 1.8018-0.59265 4.6415 0.22753 6.9943 1.96 5.6226 1.0416 14.174-1.5754 14.669-3.0948 0.58538-9.8605-5.0828-8.1312-6.8122 0.94834-0.94835 2.0361-0.84212 3.4577 0.33769 1.8169 1.508 2.074 0.96653 2.074-4.3686 0-5.1183-0.37541-5.9999-2.3532-5.5257-6.0575 1.4523-31.47 4.1515-34.222 3.635-1.7012-0.31937-10.858 0.96896-20.347 2.863-9.4774 1.8933-20.601 3.4424-24.688 3.4424-6.2439 0-8.7797 0.81492-15.692 5.0426l-8.244 5.0426 16.136 0.88996c21.711 1.1974 42.674 0.32074 56.861-2.3778 26.851-5.1073 33.905-2.8449 33.905 10.874 0 3.3568-0.69957 4.7746-2.6633 5.3979-2.9848 0.94734-9.0504-2.8215-9.7254-6.0428-0.36266-1.7308-5.4158-2.017-35.601-2.017h-35.179l-0.77323 3.866c-1.2213 6.1064-0.8398 23.799 0.65285 30.274 5.6307 24.425 24.896 40.641 58.412 49.169 19.604 4.9881 39.668 7.3328 39.668 4.6359zm-340.88-23.93c30.61-9.2959 57.089-21.919 84.576-40.32 7.3192-4.8997 16.093-10.754 19.498-13.009 3.4046-2.2555 15.872-8.5974 27.705-14.093s29.684-14.198 39.668-19.337c20.02-10.306 27.032-11.722 34.337-6.9364 2.966 1.9434 5.5372 2.312 12.602 1.8064 11.164-0.79877 20.687-5.317 32.405-15.376 21.716-18.64 38.831-28.726 50.203-29.585 3.5801-0.27064 7.5134-0.98919 8.7405-1.5967 1.2271-0.60758 5.6533-1.8926 9.8359-2.8556s9.3261-3.1822 11.43-4.9314l3.825-3.1806-3.7854 1.3478c-5.0335 1.7922-7.0977 1.6996-9.2292-0.41439-1.4654-1.4532-5.0293-1.4245-20.326 0.16393-10.202 1.0594-18.936 1.5397-19.409 1.0675-2.0586-2.0586 2.7421-3.6793 14.536-4.9072 6.9655-0.72523 20.458-2.3076 29.981-3.5163 16.089-2.0419 17.406-2.0402 18.561 0.0243 1.5449 2.7605 6.1547 1.8797 14.212-2.7156 4.1642-2.3749 5.6726-4.0648 5.5589-6.2282-0.13285-2.5296-0.25194-2.5949-0.8046-0.4409-0.57219 2.2301-1.6021 2.4415-8.7421 1.7941-4.8985-0.44418-14.533 0.25417-24.409 1.7691-8.9732 1.3766-23.258 3.1354-31.743 3.9083-12.955 1.1801-15.737 1.0961-17.357-0.52372-1.6756-1.6756-2.4753-1.6322-6.0866 0.33027l-4.1576 2.2593 3.6337 0.43773c4.6262 0.55729 6.3196 5.0596 3.0668 8.1534-1.7912 1.7037-2.4628 1.807-2.9619 0.45573-0.51432-1.3926-1.2734-1.3361-3.7374 0.27838-1.7006 1.1143-9.1391 3.5588-16.53 5.4323-7.391 1.8735-14.562 3.7336-15.935 4.1335-1.3735 0.39984-0.98444 0.002 0.86451-0.88256 19.058-9.1249 27.736-14.216 26.439-15.512-0.6687-0.66872-19.299 8.4804-35.58 17.472-14.506 8.0122-23.601 11.359-34.936 12.856-6.1874 0.81723-11.945 2.5572-15.652 4.7294-5.5867 3.274-15.375 5.1107-37.088 6.9592-3.3282 0.28335-10.287 1.1357-15.464 1.894-5.177 0.75836-20.607 2.9286-34.29 4.8227-50.016 6.9241-74.375 12.977-108.99 27.081-20.909 8.5186-26.894 14.596-34.81 35.353-2.3976 6.2865-5.5143 13.318-6.926 15.625-3.5747 5.8434-5.006 16.647-2.2055 16.647 1.1374 0 7.4219 2.4538 13.965 5.453 6.5439 2.9991 14.281 6.5278 17.194 7.8414 6.0497 2.7286 7.8007 2.4978 28.322-3.7342zm494.15-44.19c3.509-8.9646 6.126-13.287 10.992-18.153 4.2586-4.2593 5.6459-6.3873 4.1642-6.3873-4.4925 0 0.61271-2.6561 17.814-9.2682 9.6145-3.6957 25.116-9.6974 34.447-13.337 9.3309-3.6396 27.484-10.062 40.341-14.273 31.688-10.378 81.349-26.552 95.316-31.042 11.025-3.545 38.73-17.479 96.817-48.693 54.12-29.083 76.861-39.741 111.15-52.097 17.383-6.2641 17.709-6.4562 18.55-10.944 0.7129-3.7998 1.4433-4.5676 4.3456-4.5676 1.9188 0 4.251-1.0425 5.1826-2.3166 1.5286-2.0903 2.0551-2.1233 5.3909-0.33809 2.5212 1.3493 7.8269 1.9792 16.684 1.9805 12.775 0.001 13.106-0.0796 20.307-4.9915 4.0259-2.7464 12.464-6.5864 18.75-8.5335 6.2863-1.947 14.955-5.1277 19.262-7.068l7.8329-3.528-4.3899-1.4781c-4.9842-1.6782-6.2245-3.8464-3.8424-6.7168 2.2215-2.6768 0.852-2.4802-5.5787 0.80039-10.94 5.5812-32.977 9.6323-39.267 7.2185-1.7313-0.66436-1.7483-1.2482-0.1275-4.3702 1.8678-3.5978 1.8951-3.6034 17.688-3.6034 13.286 0 16.51-0.41832 20.137-2.613 3.2727-1.9799 3.9704-3.0334 2.8793-4.348-1.0954-1.32-0.5204-2.0921 2.4042-3.2282 10.199-3.9618 26.828-10.064 40.823-14.981 19.918-6.9982 25.549-9.8645 25.549-13.007 0-2.2214-0.6514-2.3668-6.0703-1.3544-3.3387 0.62374-7.1206 1.6722-8.4043 2.3298-10.623 5.4423-64.464 18.058-74.788 17.523-4.607-0.23846-8.1825 1.053-19.052 6.8814-23.32 12.506-38.894 21.724-40.004 23.678-1.5701 2.7647-3.6311 2.3129-3.6311-0.79601 0-3.4382 0.034-3.4416-14.203 1.3838-19.06 6.4596-35.022 10.401-51.686 12.762-8.5052 1.2047-22.3 3.9514-30.656 6.1037-8.3553 2.1522-23.786 5.1574-34.29 6.6779-27.155 3.931-56.502 10.009-71.457 14.8-12.399 3.9718-39.874 17.255-56.561 27.346-5.5183 3.3369-9.6857 4.8798-13.186 4.8822-2.8152 0.001-10.076 2.0528-16.136 4.5577-34.068 14.083-56.185 19.331-93.716 22.241-17.362 1.3459-41.719 6.4336-59.839 12.499-15.307 5.124-37.776 16.336-39.612 19.768-1.7774 3.321-1.8072 5.893-0.0556 4.8105 0.73958-0.45709 1.3447-0.22595 1.3447 0.51362 0 0.73958-0.60511 1.7186-1.3447 2.1757-2.246 1.388-1.507 17.088 1.3255 28.163 1.4686 5.7421 5.4052 16.214 8.748 23.271 6.5108 13.744 20.688 34.69 22.32 32.976 0.54406-0.57158 3.8239-7.3929 7.2884-15.158 8.013-17.961 18.252-36.199 29.44-52.443 4.8394-7.0259 11.085-16.242 13.877-20.479 4.7436-7.1969 7.095-9.3761 7.095-6.5757 0 0.65129-5.1156 10.787-11.369 22.524-11.796 22.143-30.779 65.208-32.895 74.625-0.6675 2.9708-2.2172 6.5104-3.4438 7.8659-1.8908 2.0893-1.9624 2.8931-0.47019 5.2825 0.96799 1.5499 2.0853 2.8181 2.483 2.8181 0.39766 0 2.7954-5.2947 5.3285-11.767zm186.45-130.09c-2.954-2.954-2.7882-4.2846 0.8152-6.5362 3.5635-2.2267 29.247-4.2731 29.247-2.3304 0 0.70074-4.6993 3.0863-10.443 5.3013-14.978 5.7762-17.034 6.1498-19.62 3.5652zm-461.01 95.42c4.9046-0.9855 4.8283-1.0342-4.4222-2.8244-5.177-1.0018-10.095-1.5684-10.93-1.2593-0.83436 0.30928-2.1354-0.0559-2.8911-0.81172-2.2874-2.2874-10.182-1.5506-17.89 1.6696-4.007 1.674-7.7092 3.3986-8.2276 3.8324-1.3544 1.1338 38.404 0.59008 44.361-0.60662zm42.642-10.131c2.9583-0.75758 15.968-2.1578 28.911-3.1117 22.67-1.6708 32.272-3.8899 32.272-7.4583 0-0.65174-3.3594-2.2416-7.4652-3.5331-6.6617-2.0954-8.6629-2.1617-18.594-0.61683-8.7944 1.368-12.165 1.3893-16.067 0.10134-5.5201-1.8218-7.4967-6.0514-5.0043-10.708 0.82849-1.548 1.1493-2.8146 0.7129-2.8146-0.94493 0-14.473 9.0998-24.883 16.738-4.0857 2.9976-10.113 6.6586-13.394 8.1355l-5.9658 2.6853 3.9815 0.8535c6.3707 1.3657 19.659 1.2251 25.496-0.26985zm49.418-21.905c4.2525-0.01 7.732-0.35475 7.732-0.76832 0-0.77456-6.8986-22.029-7.3317-22.59-0.514-0.66449-9.3282 2.3414-10.055 3.429-0.42179 0.63131-4.2463 2.7268-8.4988 4.6566s-7.732 4.2112-7.732 5.0699c0 0.85862-1.5127 3.3589-3.3617 5.5564-5.4695 6.5001-4.6916 6.9946 9.0766 5.7692 6.8411-0.60884 15.918-1.1144 20.17-1.1234zm-142.44-11.71c2.8258-0.78469 7.5137-3.5732 10.418-6.1968 4.8478-4.3797 5.7566-4.6987 11.103-3.8969 4.9308 0.73943 9.5124-0.37615 29.902-7.2809 13.244-4.4848 30.511-10.645 38.374-13.689l14.296-5.5344 0.85325-10.094c1.1388-13.472 1.0768-20.743-0.17009-19.972-1.8098 1.1186-6.0672-2.9564-5.2671-5.0414 0.42367-1.1042 2.9896-2.4238 5.702-2.9326 4.2242-0.79249 5.3373-1.8158 7.7594-7.1338 3.7908-8.3233 4.0668-28.771 0.51258-37.98-2.1608-5.5986-8.8665-14.216-7.1328-9.1659 1.4087 4.1031 1.8562 10.666 0.6777 9.938-0.67572-0.4176-1.2286-1.7992-1.2286-3.0701 0-2.7575-3.6532-8.288-5.4747-8.288-1.2364 0-6.612 7.8069-6.6224 9.6174-0.008 1.4086 8.4648 4.3429 11.66 4.0382 4.1094-0.38727 7.1645 4.615 7.1645 11.736 0 6.6481-8.1004 23.021-11.381 23.021-6.3903 0-7.8521-4.71-3.7421-12.056l2.3532-4.2062-4.1525-3.7574c-6.0258-5.4525-7.5626-12.785-4.4309-21.141 2.4248-6.4696 2.4236-6.5223-0.0813-3.2576-2.7308 3.559-4.5727 10.309-3.3521 12.284 0.41013 0.66361-0.50023 1.2066-2.0231 1.2066-6.4503 0-1.0175-16.654 7.0345-21.562 5.2634-3.2093 11.396-3.385 15.592-0.44645 4.0832 2.86 8.1133 11.859 8.3514 18.647 0.18059 5.15 0.22976 5.2072 1.1561 1.3447l0.96744-4.0341 1.2003 4.0341c0.6602 2.2187 1.1833 10.993 1.1624 19.498-0.044 17.884-2.3487 24.927-8.9767 27.428-2.9764 1.1234-3.6743 2.0689-3.0693 4.1574 0.43072 1.4868 1.7608 6.8834 2.9558 11.992 2.0859 8.9178 2.0709 9.3685-0.37439 11.275-2.4752 1.9295-2.4711 1.9587 0.1423 1.0371 1.4792-0.52165 11.733-2.436 22.787-4.2542 11.053-1.8181 20.224-3.4394 20.379-3.6027 0.1551-0.16336-3.0322-4.8144-7.0829-10.336-4.0507-5.5213-9.5649-13.993-12.254-18.826-2.6888-4.8328-5.6314-9.5468-6.5392-10.476-1.9362-1.9813-2.4629-3.6584-4.5373-14.447-7.3745-38.355-17.186-65.194-29.509-80.716-2.9208-3.6791-7.3042-9.2432-9.7411-12.365-5.944-7.6142-11.071-10.721-22.461-13.614-5.2572-1.3351-9.1954-2.7905-8.7517-3.2342 1.2685-1.2685-11.271-2.9499-21.627-2.9-10.2 0.0493-20.871 2.2218-29.965 6.1012-8.2736 3.5291-31.683 20.46-40.551 29.327-9.4616 9.4616-18.033 25.809-21.812 41.6-5.284 22.082-1.5922 50.953 8.9622 70.088 1.8357 3.3282 4.0039 7.7086 4.8184 9.7345 1.1147 2.7725 3.0695 4.1552 7.9055 5.5912 8.8048 2.6147 14.838 5.8993 14.838 8.0783 0 1.001 1.5817 5.2748 3.5149 9.4976 4.7431 10.36 7.2074 20.12 7.2267 28.618 0.0154 6.8029 0.15044 7.0593 3.7138 7.0521 2.0338-0.004 6.0099-0.6495 8.8357-1.4342zm-19.643-54.525c-2.349-2.349-0.41951-7.0788 6.6572-16.318 4.1884-5.4684 9.7749-11.41 12.414-13.204 5.4968-3.7351 14.255-4.3725 18.373-1.337 2.377 1.7521 2.1131 1.8582-2.9534 1.188-4.9463-0.6544-6.1099-0.23378-10.488 3.7909-2.7083 2.4898-7.4945 9.3678-10.636 15.284-4.5487 8.5668-6.3937 10.838-9.0604 11.156-1.8417 0.21884-3.7798-0.0332-4.3068-0.56029zm186.32 25.502c-0.9104-0.36833-2.7257-0.39074-4.0341-0.0499-1.3083 0.34093-0.56347 0.6423 1.6553 0.66971 2.2187 0.0274 3.2892-0.25155 2.3788-0.61989zm37.275-17.254c0.91288-1.1 1.3351-2.8461 0.93819-3.8802-0.91754-2.3911-10.311-1.4773-20.959 2.0388-5.0528 1.6686-6.0058 2.261-2.8959 1.8002 16.08-2.383 18.897-2.407 18.897-0.16086 0 2.7438 1.8339 2.8361 4.0198 0.20225zm-98.291-43.342c4.0159-8.266 5.1276-18.924 2.3531-22.561-1.8967-2.486-1.9971-2.1302-1.3282 4.7064 0.62934 6.4331 0.26875 8.0599-2.77 12.498-3.3166 4.8438-4.7335 11.706-2.4169 11.706 0.59221 0 2.4652-2.8578 4.1622-6.3507zm-4.533-24.217c-4.6988-4.0417-8.2893-3.945-9.0902 0.2449-0.61284 3.2058 2.3316 6.1234 3.2871 3.257 0.64998-1.9499 7.7438 3.9514 8.0018 6.6568 0.11834 1.2406 0.46973 0.14849 0.78084-2.4269 0.45778-3.7896-0.11027-5.264-2.9796-7.7319zm758.36-48.75c0-2.6976-4.058-3.3026-8.8469-1.3191-5.8908 2.44-4.7365 4.1893 2.4596 3.7275 4.5711-0.29332 6.3873-0.97812 6.3873-2.4085zm-5.3788-9.4312c1.7733-0.762 2.0023-1.1808 0.6723-1.2296-1.1093-0.0407-2.9246 0.51265-4.034 1.2296-2.4581 1.5884-0.335 1.5884 3.3617 0zm24.877-2.7216c16.312-2.8664 22.86-4.8526 22.86-6.9336 0-0.6935-0.4539-0.98157-1.0085-0.64016-0.5547 0.34141-8.6661 2.1974-18.025 4.1245-9.3593 1.9271-19.041 4.4396-21.515 5.5835-3.2528 1.5039-3.5675 1.8726-1.1365 1.3314 1.849-0.41149 10.32-1.9711 18.826-3.4656zm12.756-8.1158c11.786-3.087 20.279-6.3293 19.257-7.3511-0.3698-0.36979-2.9757 0.29004-5.7908 1.4662-2.8153 1.1762-8.2319 2.6454-12.037 3.2647-7.2668 1.1827-17.707 5.0915-14.102 5.2798 1.1549 0.0603 6.8577-1.1365 12.672-2.6596zm29.798-17.781c2.538-4.908 1.7991-5.6436-3.8102-3.7923-3.3235 1.0968-4.8266 2.6261-5.8756 5.9777l-1.4097 4.5038 4.5385-1.3929c2.8155-0.86412 5.3048-2.8747 6.557-5.2964z"/>
</svg>
