<?xml version="1.0" encoding="UTF-8" standalone="no"?>
<!-- Created with Inkscape (http://www.inkscape.org/) -->
<svg id="svg3439" xmlns:rdf="http://www.w3.org/1999/02/22-rdf-syntax-ns#" xmlns="http://www.w3.org/2000/svg" height="375" viewBox="0 0 1250 375" width="1250" version="1.1" xmlns:cc="http://creativecommons.org/ns#" xmlns:dc="http://purl.org/dc/elements/1.1/">
 <metadata id="metadata3445">
  <rdf:RDF>
   <cc:Work rdf:about="">
    <dc:format>image/svg+xml</dc:format>
    <dc:type rdf:resource="http://purl.org/dc/dcmitype/StillImage"/>
    <dc:title/>
   </cc:Work>
  </rdf:RDF>
 </metadata>
 <path id="path3449" fill="#fff" d="m465 292.47c-8.2614-1.614-41.512-10.979-48.345-13.616l-3.9704-1.5323 4.2829-7.3076c2.3556-4.0192 4.2829-7.6296 4.2829-8.0231 0-0.39352 4.5-8.0385 10-16.989 5.5-8.9504 10-16.719 10-17.263 0-0.54437 2.364-4.6172 5.2533-9.0508 6.248-9.5875 7.9468-17.969 5.1032-25.178-1.0016-2.5391-2.7572-4.8645-3.9013-5.1675-1.1441-0.30304 7.2011-0.65793 18.545-0.78864 42.846-0.4937 41.794-3.8606-1.4322-4.5854-28.185-0.47255-30.181-0.66063-33.566-3.163-3.4317-2.5372-4.4577-2.6197-22.117-1.7791l-18.518 0.88145-3.6676-3.8281-3.6676-3.8281h-43.516-43.516v-26.25-26.25h34.217 34.217l5.4699 5 5.4699 5 96.876 0.0966c97.645 0.0974 211.96 1.4202 212.95 2.4642 0.29535 0.31027 0.74196 7.2127 0.99246 15.339l0.45545 14.775-50.637-0.3997c-49.93-0.39-50.64-0.36-50.64 2.1 0 2.4164 0.8986 2.5066 26.875 2.6958 14.781 0.10775 27.719 0.24755 28.75 0.3108 1.4811 0.0909 1.7851 1.5585 1.4471 6.9866-0.33631 5.4011-0.002 7.0351 1.5625 7.6354 1.7636 0.67676 1.9904 5.3595 1.9904 41.102 0 32.651-0.32669 40.609-1.7144 41.761-1.2144 1.0079-12.059 1.3259-37.188 1.0906l-35.46-0.32-0.33-40.42c-0.25646-31.411-0.67402-40.297-1.875-39.898-1.0776 0.35757-1.6528 4.8289-1.9013 14.778l-0.35629 14.265-4.5849 4.6954-4.5849 4.6954h-21.993-21.993l-4.6287-4.7402-4.6287-4.7402-0.2317-14.947-0.2317-14.947-0.74928 13.75c-0.76602 14.057-2.1493 19.379-8.773 33.75-1.9012 4.125-4.9894 11.979-6.8626 17.453-1.8732 5.4742-5.0362 13.404-7.0288 17.621-1.9926 4.2174-3.623 8.2196-3.623 8.8939 0 1.6571-6.257 17.096-7.2971 18.006-0.45532 0.39809-2.7966 0.33917-5.2029-0.13094zm96.154-75.704c3.84-3.24 3.85-3.26 3.85-16.24v-12.997l-4.5276-1.8918c-2.66-1.11-8.35-1.89-13.81-1.89h-9.2834l-2.4114 5.3125c-3.481 7.6687-3.125 14.112 1.2449 22.534 3.183 6.135 3.4054 7.1457 1.5625 7.1018-2.9513-0.0704-11.912-8.4027-14.574-13.552-1.202-2.3254-3.1389-7.9504-4.3041-12.5-2.0999-8.1991-2.1595-8.2755-6.7573-8.66l-4.6388-0.38795v14.985 14.985l4.0625 3.2017c3.9888 3.1437 4.4404 3.202 24.904 3.2156 20.607 0.0137 20.885-0.0225 24.688-3.2222zm-404.17 34.31c-0.34672-1.6221-1.5461-15.887-2.6654-31.699-1.1192-15.812-2.6167-29.964-3.3278-31.448-0.71109-1.4841-1.0349-4.859-0.71968-7.5 0.31527-2.641 0.14585-5.6455-0.37646-6.6767s-2.1607-17.344-3.6408-36.25-2.9766-36.081-3.3256-38.167c-0.61428-3.671-0.34278-3.9198 8.5302-7.8156l9.1646-4.0239 30.202 0.0031 30.202 0.0031 0.42309 13.649c0.23271 7.507 0.89052 14.116 1.4618 14.688 0.57129 0.57114 15.196 1.3197 32.5 1.6634 17.304 0.34375 32.164 1.0801 33.024 1.6363 1.1783 0.76263 1.5625 8.3692 1.5625 30.938l0.01 29.92h-11.29-11.29l-9.8114 6.875c-5.3962 3.7812-10.145 6.875-10.553 6.875-1.6059 0-28.376 19.054-29.973 21.333-0.9349 1.3348-8.4996 9.949-16.81 19.143l-15.111 16.716-6.9558 0.77913c-22.552 2.5261-20.529 2.5877-21.22-0.64662zm538.02-77.87c0-3.4952-0.52004-4.3619-2.8125-4.6875-2.3202-0.32952-2.7382-1.0559-2.3882-4.1494 0.23335-2.0625 0.69001-14.016 1.0148-26.562l0.59-22.81 70.86-0.0471c38.973-0.0259 83.516-0.56754 98.985-1.2036 15.469-0.6361 31.057-0.82117 34.641-0.41126l6.5161 0.7453 0.35894 27.021c0.19743 14.861-0.0629 27.208-0.57855 27.438-0.51563 0.22918-0.9375 2.3386-0.9375 4.6875v4.2708h-103.12-103.12v-4.2881zm211.88-6.96c0.4249-0.6875 1.0206-1.25 1.3238-1.25 0.30317 0 0.55122 0.5625 0.55122 1.25s-0.5957 1.25-1.3238 1.25c-0.72807 0-0.97612-0.5625-0.55122-1.25zm0.62424-28.827c0.00072-23.191-0.13597-24.599-2.651-27.298-2.2348-2.3988-3.365-2.6969-7.1875-1.8961-2.4946 0.52266-50.098 0.83129-105.79 0.68585-65.442-0.17092-101.91 0.17484-103.11 0.97766-1.1301 0.75655-2.1074 4.0743-2.5 8.4873l-0.64458 7.2452-154.31 0.31745-154.31 0.31744-5.6003-6.402-5.6003-6.402-35.712 0.15269c-19.642 0.084-51.04-0.17872-69.774-0.58377l-34.062-0.73646v-11.769-11.769h70.735 70.735l14.578-5.9375 14.57-5.943 39.06-0.363 39.06-0.363v-4.324-4.325h86.875 86.875v4.258c0 3.4381 0.42121 4.1487 2.1875 3.6904 1.2031-0.31214 4.6488 0.30302 7.6572 1.367 3.0083 1.064 6.8052 1.9346 8.4375 1.9346 2.6292 0 2.9678-0.5706 2.9678-5 0-4.9555 0.0422-5 4.7463-5 6.7773 0 13.656 7.1157 14.776 15.284 0.91914 6.7058 4.2569 10.534 10.225 11.728 3.9184 0.78367 4.0024 0.70466 4.0024-3.7617 0-3.7162 0.5795-4.7825 3.125-5.7503 2.5176-0.95717 3.125-2.0446 3.125-5.5941v-4.4059h96.25 96.25v5c0 4.2412 0.39716 5 2.617 5 1.4803 0 2.8756 0.98899 3.2124 2.2768 0.4814 1.8409 3.8695 2.9099 17.695 5.5835 9.405 1.8187 21.6 3.4262 27.1 3.5724l10 0.26573 0.39247-6.1306c0.30096-4.7007 1.3419-7.304 4.4634-11.162 6.2594-7.7359 6.3369-7.971 7.011-21.281l0.63312-12.5 6.1119-0.38811c3.3615-0.21346 6.576 0.07601 7.1433 0.64327 0.56726 0.56726 1.0903 15.929 1.1624 34.138 0.072 18.209 0.71219 36.622 1.4226 40.919l1.2916 7.8125h10.428 10.428l0.381 5.9375c0.2096 3.2656 0.1883 8.8906-0.047 12.5l-0.4282 6.5625h-24.884c-15.756 0-24.884 0.45852-24.884 1.25 0 0.6875-2.2576 1.25-5.017 1.25-2.7593 0-5.9937 0.54962-7.1875 1.2214-1.1938 0.67176-11.593 1.6561-23.109 2.1875l-20.938 0.9661 0.00077-24.452zm56.25-13.04c0-1.4167-1.5278-1.875-6.25-1.875h-6.25v-4.375-4.375h-8.125-9.0625c-0.51563 0-0.9375 2.3906-0.9375 5.3125v5.3125l10 0.70828c19.176 1.3582 20.625 1.3084 20.625-0.70828zm-382.5-23.75c0-5.1667-0.25463-5.625-3.125-5.625s-3.125 0.45833-3.125 5.625 0.25463 5.625 3.125 5.625 3.125-0.45833 3.125-5.625zm64.771 2.1875c-0.55999-4.8668-5.8348-4.9301-10.371-0.12434l-3.3618 3.5618h7.064c6.9687 0 7.0586-0.0464 6.6684-3.4375zm-90.34-4.153c0.45316-0.73324 0.43901-1.7176-0.0315-2.1875-1.12-1.113-146.44-1.107-147.55 0.006-3.19 3.189 3.63 3.514 73.78 3.514 50.338 0 73.233-0.41358 73.801-1.3332zm501.22 21.333c-2.0625-0.52482-16.547-1.0208-32.188-1.1021l-28.45-0.15v-7.3864-7.3864l30.312-0.72226c16.672-0.39725 33.688-1.0544 37.812-1.4602l7.5-0.73795-0.4212 6.8508c-0.2397 3.8996 0.2487 8.1024 1.1338 9.7563 1.4977 2.7984 1.5906 2.8144 2.5209 0.43339 0.5312-1.3597 1.0053-5.7065 1.0536-9.6596l0.088-7.1875h20 20v10 10l-27.812-0.14789c-15.297-0.0813-29.5-0.57729-31.562-1.1021zm-889.4-41.25 2.67-3.75h19.645 19.645l2.2152 3.75 2.2152 3.75h-24.531-24.531l2.6702-3.75z"/>
</svg>
