<?xml version="1.0" encoding="UTF-8" standalone="no"?>
<!-- Created with Inkscape (http://www.inkscape.org/) -->
<svg id="svg3336" xmlns:rdf="http://www.w3.org/1999/02/22-rdf-syntax-ns#" xmlns="http://www.w3.org/2000/svg" height="375" viewBox="0 0 1250 375" width="1250" version="1.1" xmlns:cc="http://creativecommons.org/ns#" xmlns:dc="http://purl.org/dc/elements/1.1/">
 <metadata id="metadata3342">
  <rdf:RDF>
   <cc:Work rdf:about="">
    <dc:format>image/svg+xml</dc:format>
    <dc:type rdf:resource="http://purl.org/dc/dcmitype/StillImage"/>
    <dc:title/>
   </cc:Work>
  </rdf:RDF>
 </metadata>
 <path id="path3346" fill="#fff" d="m499.59 277.87c-7.4688-0.95428-7.4062-0.9143-8.5481-5.4638l-0.86-3.44h31.297 31.297l1.3151-6.5625c3.4045-16.989 15.27-84.867 15.951-91.25l0.76705-7.1875h-13.734c-14.883 0-17.159-0.93212-18.07-7.4021-0.70048-4.9721-3.5515-4.7054-3.5515 0.3322 0 3.2521 0.85286 5.0593 3.2936 6.9792 2.8509 2.2425 5.0351 2.5907 16.25 2.5907 7.126 0 12.937 0.42187 12.913 0.9375-0.0236 0.51562-3.826 22.312-8.4496 48.438l-8.4066 47.5-31.728 0.33434-31.728 0.33433 0.66871-10.719c0.62934-10.087 1.1862-11.801 9.4529-29.084 4.8313-10.101 9.1618-20.616 9.6234-23.366 0.46158-2.75 2.7066-8.375 4.9889-12.5 2.7232-4.9217 4.6168-10.585 5.5083-16.475 1.4993-9.9048 3.0206-14.731 5.0358-15.977 0.7299-0.4511 1.3093-1.4901 1.2876-2.3089-0.10813-4.075-6.134 6.1999-8.0287 13.69-1.1925 4.7142-2.6394 9.6963-3.2154 11.071-0.8837 2.1096-1.0604 1.8945-1.1318-1.3776-0.113-5.1806-4.7577-11.869-10.11-14.558-3.2876-1.6517-7.4546-2.186-17.06-2.1875-17.561-0.002-20.488-1.4577-12.602-6.2656 3.9875-2.4312 6.7118-2.477 147.53-2.4816l143.47-0.005-1.969 3.8076-1.969 3.8076-55.251-0.11813c-30.388-0.065-56.233-0.0909-57.434-0.0576-3.0642 0.0849-12.256 8.6767-14.168 13.243-1.4365 3.431-1.0072 13.772 0.90568 21.817 0.38244 1.6085-3.4116 1.9638-26.69 2.5-25.273 0.58209-27.266 0.79662-29.029 3.125-1.0412 1.375-2.1676 3.3438-2.5031 4.375-1.203 3.6976-10.707 53.32-10.707 55.904 0 1.4516 1.1472 5.3156 2.5493 8.5865 4.1983 9.7942 4.0169 9.853-31.029 10.061-16.305 0.0969-32.564-0.1967-36.131-0.65247zm125.44-87.818c1.0899-0.90455 1.6677-4.2695 1.6606-9.6716-0.01-7.773-0.28516-8.5739-4.4537-12.972-4.3558-4.5957-4.6245-4.6875-13.71-4.6875-8.2496 0-9.4631 0.30889-11.049 2.8125-3.4194 5.3995-3.7004 10.638-0.83159 15.5 1.4612 2.4765 2.3821 4.7772 2.0466 5.1128-0.33553 0.33553-2.5422-0.58408-4.9037-2.0436-4.6214-2.8562-6.7866-6.9407-7.3585-13.882l-0.3605-4.375-2.1844 4.0004c-4.3393 7.9469-2.0337 19 4.5118 21.631 3.7128 1.492 34.564 0.29199 36.632-1.4249zm140.42-37.08c0-0.55 0.62599-1.626 1.3911-2.3911 2.4995-2.4995-0.16446-4.1089-6.8014-4.1089h-6.5127l-0.00004-7.8125c-0.00002-4.6222-0.85746-9.7267-2.0997-12.5l-2.0997-4.6875h-49.535-49.535l-3.6538-3.6538c-2.1479-2.1479-3.6538-4.9814-3.6538-6.875 0-1.7716-0.5625-3.2212-1.25-3.2212-1.8356 0-1.5082 6.3506 0.5288 10.255l1.7634 3.3801-20.422 0.36989-20.422 0.36989-0.41183-5c-0.2265-2.75-0.23384-6.5469-0.0163-8.4375l0.39552-3.4375h16.006 16.006l1.0772 7.8125 1.0773 7.8125 0.38853-7.6075 0.38852-7.6075 12.995-0.20801c7.2369-0.11585 13.325 0.32602 13.74 0.99722 0.4775 0.77262 1.8799 0.7737 3.907 0.003 4.8946-1.8609 68.388-1.5637 70.281 0.32896 1.1081 1.1081 2.1271 1.1659 3.6875 0.20911 1.186-0.72715 5.5313-1.2706 9.6563-1.2076 5.832 0.089 8.4423-0.51347 11.737-2.7091 5.2277-3.4839 7.6752-3.5768 8.5259-0.32361 0.46308 1.7708 1.705 2.5 4.258 2.5 1.9823 0 3.6042 0.5625 3.6042 1.25s-0.00001 1.5578-0.00002 1.934c-0.00002 0.37619-29.531 0.67093-65.625 0.65495-36.094-0.016-65.625 0.44968-65.625 1.0348 0 2.2875 10.207 2.6677 69.873 2.6026 58.42-0.0637 61.865 0.056 62.256 2.1656 1.5368 8.2775 0.81934 17.805-1.7751 23.574-1.5238 3.3878-3.6044 8.2689-4.6237 10.847-1.5765 3.9875-2.4228 4.6875-5.667 4.6875-2.0976 0-3.8138-0.45-3.8138-1zm-273.9-5.7095c-2.1631-1.3727-7.0103-2.602-11.765-2.9836-7.8692-0.63166-10.053-1.785-6.1871-3.2683 1.0448-0.40092 3.0691-2.7111 4.4985-5.1337 3.1972-5.4188 5.7809-5.5586 12.519-0.67754 5.3093 3.846 7.333 3.9194 7.333 0.26573 0-1.1602 1.4564-6.4828 3.2366-11.828 2.7675-8.3101 4.1238-10.483 9.3588-14.992 3.3672-2.9004 7.1139-5.279 8.3259-5.2858 1.6253-0.009 2.142-0.91445 1.9684-3.4497-0.20384-2.9776 0.22687-3.4375 3.2196-3.4375 2.0691 0 4.6326 1.2535 6.3907 3.125l2.9358 3.125h32.131 32.131l1.3275 8.9444c0.73015 4.9194 2.0637 9.6547 2.9635 10.523 1.2688 1.2242 17.83 1.6716 73.787 1.9931l72.152 0.41455 0.77992 3.5269c0.42897 1.9398 0.4681 3.8387 0.087 4.2198-1.0363 1.0363-8.9958 1.2931-50.17 1.619-23.377 0.18501-35.617 0.68053-32.5 1.3157 2.75 0.56038 22.578 1.088 44.062 1.1724l39.062 0.15347v4.9339 4.9339h-80.625c-63.681 0-80.619-0.32836-80.598-1.5625 0.015-0.85938 1.6425-7.8945 3.6166-15.634 2.1531-8.4407 3.1092-14.368 2.3895-14.813-0.65989-0.40782-1.3959-0.54456-1.6356-0.30384-0.4069 0.4086-8.1478 30.596-8.1478 31.774 0 0.29604-0.76945 0.53825-1.7099 0.53825-1.3322 0-0.86061-3.4394 2.1354-15.573 2.1149-8.5651 3.4163-16.002 2.8919-16.526-1.563-1.563-2.6538 1.3321-6.4418 17.097-2.4395 10.153-4.1608 15.002-5.3245 15.002-1.0451 0-1.4717-0.85805-1.0877-2.1875 2.506-8.6756 6.9544-29.561 6.4118-30.104-1.4732-1.4732-2.9501 2.3175-6.2502 16.041-1.9011 7.9062-3.9351 14.9-4.52 15.542-2.5652 2.8144-2.2231-1.2195 1.2784-15.075 2.0619-8.1589 3.2764-15.307 2.6988-15.884-1.553-1.553-2.0616-0.23644-6.1352 15.882-2.0469 8.0996-4.0536 15.058-4.4594 15.464-2.2645 2.2645-1.8856-2.3602 1.245-15.196 1.9321-7.922 3.0896-14.827 2.5722-15.345-1.525-1.525-2.5689 1.2057-6.2836 16.437-2.5011 10.255-4.049 14.425-5.354 14.425-1.2494 0-1.5894-0.7763-1.0644-2.4304 2.2757-7.1701 6.8525-28.031 6.2763-28.607-1.4666-1.4666-2.945 2.2657-6.2358 15.742-3.1338 12.833-4.751 16.604-6.4093 14.946-0.32978-0.32978 1.0874-7.2751 3.1493-15.434 2.1415-8.474 3.2801-15.303 2.6554-15.928-0.60142-0.60141-0.82612-1.7902-0.49934-2.6418 0.79321-2.0671-6.0055-3.116-20.308-3.1333-9.4843-0.0113-11.922 0.40193-14.547 2.4665-3.7842 2.9766-5.2476 7.8812-3.3882 11.355 1.0334 1.931 0.71187 5.3234-1.3505 14.248l-2.7069 11.714-8.1039 0.41337c-6.2774 0.32021-8.933-0.11275-11.783-1.9211zm24.35-3.603c0.40884-1.5469 1.4077-5.7656 2.2197-9.375 0.95379-4.2397 2.1212-6.5625 3.2982-6.5625 1.2763 0 1.5993 0.84227 1.0785 2.8125-0.40883 1.5469-1.4077 5.7656-2.2197 9.375-0.95379 4.2397-2.1212 6.5625-3.2982 6.5625-1.2763 0-1.5993-0.84228-1.0785-2.8125zm6.2262 1.25c0.34998-0.85938 1.3531-4.7969 2.2293-8.75 0.99041-4.4689 2.2394-7.1875 3.3021-7.1875 1.024 0 1.4676 0.87698 1.1066 2.1875-0.33137 1.2031-1.3194 5.1406-2.1955 8.75-0.97517 4.0172-2.269 6.5625-3.3359 6.5625-0.95858 0-1.4565-0.70313-1.1065-1.5625zm8.2055-6.7902c1.1594-4.594 2.8442-8.5982 3.7441-8.8981 1.2387-0.41292 1.4263 0.47726 0.77233 3.6653-1.8023 8.7859-3.5988 13.586-5.085 13.586-1.1624 0-1.0232-2.0453 0.56863-8.3528zm5.6343 5.0782c2.4692-10.211 3.4345-12.975 4.5303-12.975 1.5757 0 1.4877 1.8362-0.44502 9.2909-0.87925 3.3912-2.354 6.4177-3.2773 6.7255-1.2693 0.4231-1.4664-0.31849-0.80801-3.0409zm6.1738 1.087c0.75796-2.7179 1.5976-6.1609 2.591-10.625 0.42075-1.8906 1.3778-3.4375 2.1267-3.4375 0.85332 0 1.0519 1.2834 0.53193 3.4375-2.4369 10.095-3.4068 12.812-4.5737 12.812-0.70734 0-1.0115-0.98438-0.676-2.1875zm3.9144-17.843c-0.50943-0.82427-0.15104-1.9802 0.79641-2.5689 2.0788-1.2914 3.1994 0.99794 1.3794 2.818-0.83272 0.83272-1.5585 0.74962-2.1758-0.24913zm-20.289-0.97166c-7.8782-0.45419-10.209-3.1441-7.5469-8.7089 1.6014-3.3473 1.8798-3.4205 14.322-3.7686l12.689-0.35501-1.719 5.7116c-2.3653 7.8593-2.7121 8.2358-7.2237 7.8438-2.1855-0.18992-6.9203-0.5152-10.522-0.72282zm1.4888-5.1347c1.208-1.9546-0.7163-5.1128-3.1152-5.1128-2.7558 0-4.1689 1.9492-3.215 4.4349 0.76766 2.0005 5.2183 2.4771 6.3303 0.67794z"/>
</svg>
