<?xml version="1.0" encoding="UTF-8" standalone="no"?>
<!-- Created with Inkscape (http://www.inkscape.org/) -->

<svg
   xmlns:dc="http://purl.org/dc/elements/1.1/"
   xmlns:cc="http://creativecommons.org/ns#"
   xmlns:rdf="http://www.w3.org/1999/02/22-rdf-syntax-ns#"
   xmlns:svg="http://www.w3.org/2000/svg"
   xmlns="http://www.w3.org/2000/svg"
   xmlns:sodipodi="http://sodipodi.sourceforge.net/DTD/sodipodi-0.dtd"
   xmlns:inkscape="http://www.inkscape.org/namespaces/inkscape"
   id="svg3376"
   height="375"
   viewBox="0 0 1250 375"
   width="1250"
   version="1.1"
   inkscape:version="0.91 r13725"
   sodipodi:docname="g18.svg">
  <defs
     id="defs3341" />
  <sodipodi:namedview
     pagecolor="#ffffff"
     bordercolor="#666666"
     borderopacity="1"
     objecttolerance="10"
     gridtolerance="10"
     guidetolerance="10"
     inkscape:pageopacity="0"
     inkscape:pageshadow="2"
     inkscape:window-width="1920"
     inkscape:window-height="1017"
     id="namedview3339"
     showgrid="false"
     inkscape:zoom="1.3104"
     inkscape:cx="602.10623"
     inkscape:cy="187.5"
     inkscape:window-x="-8"
     inkscape:window-y="-8"
     inkscape:window-maximized="1"
     inkscape:current-layer="svg3376" />
  <metadata
     id="metadata3382">
    <rdf:RDF>
      <cc:Work
         rdf:about="">
        <dc:format>image/svg+xml</dc:format>
        <dc:type
           rdf:resource="http://purl.org/dc/dcmitype/StillImage" />
        <dc:title />
      </cc:Work>
    </rdf:RDF>
  </metadata>
  <path
     id="path3386"
     d="m 531.24868,283.81725 c -9.2812,-2.9912 -20.109,-6.8834 -24.062,-8.6493 -5.9911,-2.6762 -7.1875,-3.7335 -7.1875,-6.3514 l 0,-3.1408 25.312,-4.4e-4 25.312,-4.4e-4 -0.25954,10.938 c -0.14275,6.0159 -0.28337,11.36 -0.3125,11.875 -0.0762,1.35 -0.27084,1.3017 -18.803,-4.671 z m -39.206,-24.482 c -3.747,-2.9474 -4.1703,-6.9101 -1.8861,-17.66 1.7447,-8.2112 7.2,-19.195 18.278,-36.8 12.907,-20.513 19.023,-36.742 19.332,-51.299 0.24174,-11.402 -4.5564,-17.018 -16.829,-19.698 -2.9479,-0.64354 -3.4375,-1.3701 -3.4375,-5.1016 l 0,-4.3512 63.75,0 c 35.062,0 63.75,0.26986 63.75,0.5997 0,0.32984 -0.91416,2.8844 -2.0315,5.6769 -2.9772,7.4406 -1.1621,7.509 2.5935,0.0978 l 3.2301,-6.3743 23.729,0 23.729,0 0,9.8645 c 0,9.2226 -0.18525,9.911 -2.8468,10.579 -1.5657,0.39298 -13.519,0.80513 -26.562,0.91588 -31.652,0.26875 -32.634,0.41976 -33.583,5.1628 -0.59265,2.9632 0.22566,5.3952 3.7892,11.262 3.6296,5.975 4.1984,7.6964 2.8235,8.5461 -1.0485,0.64802 -2.7497,0.39046 -4.3509,-0.65873 -3.7744,-2.4731 -10.52,-9.4023 -10.52,-10.806 0,-0.65618 -0.98438,-1.5405 -2.1875,-1.9651 -1.2031,-0.42461 -3.4093,-1.8701 -4.9026,-3.2121 l -2.7151,-2.4401 -3.8412,6.6888 c -2.1127,3.6789 -5.307,10.626 -7.0985,15.439 -1.7915,4.8125 -4.7242,12.014 -6.5171,16.003 -1.7929,3.9889 -3.1268,8.9985 -2.9642,11.132 0.18787,2.4657 -0.60654,4.8402 -2.1794,6.5145 -3.3747,3.5921 -6.3444,11.048 -6.3444,15.929 0,2.5574 -1.109,5.2033 -3.0293,7.2276 -3.6397,3.8368 -8.2192,15.438 -8.22,20.823 -3.9e-4,2.3853 -1.1815,5.1541 -3.0659,7.1875 l -3.0653,3.3075 -31.766,0 c -30.244,0 -31.924,-0.12413 -35.06,-2.5907 z m 45.203,-14.587 c -5.2955,-0.23373 -14.295,-0.23503 -20,-0.002 -5.7045,0.23214 -1.3718,0.42336 9.6282,0.42495 11,0.001 15.667,-0.18835 10.372,-0.42208 z m 19.689,-16.016 c 9.7584,-25.68 18.394,-50.643 17.744,-51.293 -0.551,-0.551 -11.028,24.965 -22.104,53.834 -3.8614,10.064 -4.9922,16.07 -2.5696,13.647 0.69087,-0.69088 3.8094,-7.9752 6.93,-16.188 z m -43.74,-0.86885 c 4.6045,-8.4219 10.798,-19.25 13.764,-24.062 10.157,-16.48 13.551,-25.415 13.178,-34.688 -0.21751,-5.404 -2.6384,-4.0133 -2.6384,1.5156 0,7.0897 -3.8503,16.427 -12.664,30.711 -13.408,21.729 -23.284,41.836 -20.549,41.836 0.29546,0 4.3045,-6.8906 8.909,-15.312 z m 64.299,-56.176 c 0.0127,-2.1113 -3.9659,-2.8607 -15.62,-2.9423 -6.875,-0.0481 -13.906,-0.51576 -15.625,-1.0392 -2.8976,-0.88249 -2.9431,-0.83585 -0.625,0.64091 4.4864,2.8581 13.571,4.6135 22.807,4.4069 4.9815,-0.11138 9.0596,-0.59125 9.0625,-1.0663 z m 1.0582,-14.441 c 3.7375,-4.1204 2.8984,-9.4342 -2.3139,-14.653 -3.2439,-3.248 -4.7678,-3.7683 -12.281,-4.1928 -6.3345,-0.35793 -9.6387,0.0639 -12.634,1.6128 -2.2309,1.1536 -3.7708,2.3828 -3.422,2.7316 0.34877,0.34875 1.7703,0.026 3.159,-0.71718 1.3887,-0.7432 5.8937,-1.3513 10.011,-1.3513 6.2631,0 8.1256,0.53792 11.399,3.2923 5.0895,4.2825 4.9574,10.205 -0.28331,12.705 -3.4529,1.6468 -4.1626,2.8613 -2.5904,4.4334 1.4404,1.4404 5.8857,-0.47566 8.9559,-3.8604 z m 70.469,-21.467 c 3.4183,-3.8257 4.6835,-8.8532 2.228,-8.8532 -0.6875,0 -1.25,0.88702 -1.25,1.9712 0,1.0841 -1.6442,3.6154 -3.6538,5.625 -2.6764,2.6765 -4.8499,3.6538 -8.125,3.6538 -2.4905,0 -4.4712,0.62575 -4.4712,1.4126 0,0.9444 1.9544,1.1923 5.897,0.7479 4.546,-0.5124 6.6938,-1.5565 9.375,-4.5573 z m -42.147,45.346 c -2.75,-1.1157 -6.5469,-2.0951 -8.4375,-2.1765 -4.1219,-0.17751 -4.1202,-0.1619 -0.81895,-7.6249 l 2.6186,-5.9197 2.1789,3.5733 c 4.6124,7.5641 7.0307,8.1472 29.45,7.1007 16.93,-0.79023 17.601,-0.92692 20.938,-4.2633 2.9775,-2.9775 3.4469,-4.4434 3.4469,-10.765 0,-4.6003 -0.72265,-8.3498 -1.9459,-10.096 -1.9331,-2.7598 -1.9047,-2.7781 4.3009,-2.7781 l 6.2468,0 -1.7932,3.4375 c -2.3926,4.5867 -2.2793,13.568 0.27098,21.464 1.2433,3.8498 1.6203,6.8658 0.9375,7.5003 -0.62814,0.58374 -12.673,1.4021 -26.767,1.8186 -21.953,0.64872 -26.342,0.46655 -30.625,-1.2713 z m 83.125,-40.45 0,-3.75 32.5,0 c 20.322,0 32.5,0.45759 32.5,1.2212 0,0.67165 -1.2656,2.0434 -2.8125,3.0483 -3.5609,2.3133 -23.698,3.0738 -24.415,0.922 -0.69739,-2.0922 -5.225,-1.7688 -6.0701,0.43351 -0.58601,1.5271 -3.5939,1.875 -16.211,1.875 l -15.491,0 0,-3.75 z m -0.60666,-8.5397 c -0.35384,-0.9156 -0.64334,-3.0073 -0.64334,-4.6483 l 0,-2.9835 33.751,-0.35173 c 24.376,-0.25402 33.751,0.0389 33.75,1.0545 -4.5e-4,0.77344 -0.35053,3.1548 -0.77794,5.2918 l -0.77711,3.8856 -32.33,-0.29181 c -25.56,-0.23071 -32.464,-0.6404 -32.973,-1.9566 z m -59.767,-11.154 -123.5,-0.31861 0.21284,-12.353 c 0.11713,-6.7942 0.62604,-13.021994 1.131,-13.838994 0.50501,-0.81713 3.189,-1.7903 5.9645,-2.1625 3.7309,-0.50043 5.4001,-1.4532 6.4034,-3.6552 1.8202,-3.9949 5.0146,-3.769 6.491,0.45914 l 1.2004,3.4375 107.42,0.24717 c 106.48,0.24502 107.43,0.22529 108.22,-2.2563 0.43702,-1.3769 1.1687,-2.3182 1.626,-2.0918 0.45729,0.22641 2.6269,1.5145 4.8213,2.8625 l 3.9899,2.4508 0.38512,13.578994 c 0.21182,7.4686 0.10388,13.665 -0.23987,13.769 -0.34375,0.10438 -56.199,0.0463 -124.12,-0.12892 z m -98.294,-6.6004 c 1.6929,-0.90603 3.1994,-0.87567 5.0249,0.10125 3.492,1.8688 4.9143,0.21382 1.7836,-2.0754 -1.7461,-1.2768 -2.3615,-2.9468 -2.0789,-5.6412 0.47273,-4.5067 -3.7945,-9.851194 -7.8422,-9.821794 -3.6201,0.0263 -11.355,2.8501 -11.931,4.356194 -0.26333,0.6875 2.772,3.1911 6.7451,5.5635 5.9512,3.5536 6.8159,4.474 4.9078,5.2246 -3.8523,1.5154 -5.0865,1.2238 -9.0952,-2.1493 -2.8475,-2.396 -3.8459,-2.744 -3.8459,-1.3407 0,5.0664 10.635,8.832 16.332,5.7829 z m -4.2157,-9.4092 c -2.539,-1.7253 -4.6164,-3.3979 -4.6164,-3.7169 0,-0.31897 1.958,-0.57994 4.3512,-0.57994 3.62,0 4.4854,0.53491 5.1501,3.1832 1.1294,4.5 0.35755,4.6759 -4.8849,1.1136 z m 229.13,0.91152 c 0,-10.329994 0.4187,-11.698994 3.2472,-10.612994 1.2989,0.49843 1.7528,3.2277 1.7528,10.538994 0,9.0329 -0.21116,9.8663 -2.5,9.8663 -2.2872,0 -2.5,-0.83334 -2.5,-9.7917 z"
     style="fill:#ffffff"
     inkscape:connector-curvature="0" />
</svg>
