<?xml version="1.0" encoding="UTF-8" standalone="no"?>
<!-- Created with Inkscape (http://www.inkscape.org/) -->
<svg id="svg3396" xmlns:rdf="http://www.w3.org/1999/02/22-rdf-syntax-ns#" xmlns="http://www.w3.org/2000/svg" height="375" viewBox="0 0 1250 375" width="1250" version="1.1" xmlns:cc="http://creativecommons.org/ns#" xmlns:dc="http://purl.org/dc/elements/1.1/">
 <metadata id="metadata3402">
  <rdf:RDF>
   <cc:Work rdf:about="">
    <dc:format>image/svg+xml</dc:format>
    <dc:type rdf:resource="http://purl.org/dc/dcmitype/StillImage"/>
    <dc:title/>
   </cc:Work>
  </rdf:RDF>
 </metadata>
 <path id="path3406" fill="#fff" d="m682.04 354.54c-0.82561-2.2832-1.5011-5.0976-1.5011-6.2544 0-1.1567-2.5111-9.8355-5.5802-19.286-11.008-33.896-19.439-69.24-23.879-100.1-2.441-16.967-2.257-17.648 4.7798-17.687 1.8952-0.01 8.9264-0.84103 15.625-1.8456 6.6986-1.0045 22.304-2.9801 34.679-4.3902s23.977-2.8102 25.782-3.1113l3.2824-0.54756 1.5112 14c2.8076 26.01 13.017 68.523 22.575 94 6.7546 18.005 7.9994 21.778 7.3708 22.338-1.19 1.06-79.02 27.04-81 27.04-1.3035 0-2.7449-1.6376-3.6539-4.1512zm-178.37-66.3c-21.058-11.39-42.635-25.217-43.706-28.008-0.39403-1.0268 6.8938-12.673 17.268-27.595 30.483-43.846 32.137-46.316 34.001-50.778 2.1646-5.1806 2.3325-11.107 0.41614-14.688-1.2304-2.299-1.1195-2.4868 0.9375-1.588 13.284 5.8045 20.26 7.2603 37.333 7.7915 9.7772 0.30421 19.964-0.0252 23.084-0.74669 3.4725-0.803 6.1154-0.84988 6.99-0.124 1.8294 1.5183 3.0514 0.22022 3.0514-3.2414 0-1.52 0.84375-3.4639 1.875-4.3197 3.9616-3.2878 1.6412-31.058-2.8984-34.688-1.416-1.1321-8.8006-1.5625-26.807-1.5625-22.996 0-24.821 0.16342-24.432 2.1875 0.37954 1.9754 2.6815 2.2204 23.736 2.5272l23.316 0.33968 0.69452 4.6603c0.89643 6.015 1.0604 10.003 0.89848 21.848l-0.14 9.68h-10.885-10.885l5.039-5.3125c9.4757-9.99 12.49-18.311 8.7178-24.068-2.3379-3.568-8.2248-4.2708-10.708-1.2783-1.9861 2.3931-1.967 10.197 0.0308 12.605 1.2318 1.4842 1.2397 2.5915 0.0376 5.2787-3.1914 7.1345-6.9467 11.508-9.8882 11.517-5.0206 0.0148-22.749-4.9848-31.095-8.7691-5.8994-2.6749-10.266-3.7088-16.678-3.9485l-8.6858-0.32475 0.01-44.412c0.009-39.057 1.0807-62.14 3.2041-69.013 0.35695-1.1554 6.8025-6.0772 14.323-10.938 13.08-8.456 14-8.839 21.19-8.839 5.8502 0 7.5189-0.41614 7.5189-1.875 0-1.0312 0.5625-1.875 1.25-1.875s1.25 0.84375 1.25 1.875c0 1.4167 1.5278 1.875 6.25 1.875h6.25v4.375c0 3.5417 0.47619 4.375 2.5 4.375 1.3889 0 2.5 0.83333 2.5 1.875s-1.1111 1.875-2.5 1.875-2.5 0.83333-2.5 1.875c0 1.0513 1.1155 1.875 2.5392 1.875 1.3966 0 2.863 0.84375 3.2587 1.875 0.39574 1.0312 2.0054 1.875 3.577 1.875s3.1813-0.84375 3.577-1.875c0.9299-2.4233 4.416-2.4233 5.3459 0 0.93178 2.4282 5.3182 2.4282 6.25 0 0.39-1.031 1.72-1.875 2.95-1.875 1.2279 0 2.5563 0.84375 2.952 1.875 0.39572 1.0312 1.8798 1.875 3.298 1.875s2.9022-0.84375 3.298-1.875c0.39-1.031 1.72-1.875 2.95-1.875 1.2279 0 2.5563 0.84375 2.952 1.875 0.39572 1.0312 1.8798 1.875 3.298 1.875s2.9022-0.84375 3.298-1.875c0.39-1.031 1.72-1.875 2.95-1.875 1.2279 0 2.5563 0.84375 2.952 1.875 0.93232 2.4296 5.6636 2.4296 6.5959 0 0.93604-2.4393 5.452-2.4393 5.452 0 0 2.4804 5.7502 2.4804 6.702 0 0.4-1.031 1.6-1.875 2.67-1.875 1.0744 0 2.2772 0.84375 2.673 1.875 0.93178 2.4282 5.3182 2.4282 6.25 0 0.4-1.031 1.73-1.875 2.96-1.875 1.2279 0 2.5563 0.84375 2.952 1.875 0.39572 1.0312 1.8798 1.875 3.298 1.875s2.9022-0.84375 3.298-1.875c0.93114-2.4265 4.9729-2.4265 5.9041 0 0.93232 2.4296 5.6636 2.4296 6.5959 0 0.39-1.031 1.72-1.875 2.95-1.875 1.2279 0 2.5563 0.84375 2.952 1.875 0.39572 1.0312 1.802 1.875 3.125 1.875s2.7293-0.84375 3.125-1.875c0.93177-2.4282 5.3182-2.4282 6.25 0 0.39572 1.0312 1.802 1.875 3.125 1.875s2.7293-0.84375 3.125-1.875c0.93177-2.4282 5.3182-2.4282 6.25 0 0.9299 2.4233 4.416 2.4233 5.3459 0 0.93178-2.4282 5.3182-2.4282 6.25 0 0.39574 1.0312 1.802 1.875 3.125 1.875s2.7293-0.84375 3.125-1.875c0.93178-2.4282 5.3182-2.4282 6.25 0 0.39574 1.0312 1.7242 1.875 2.952 1.875 1.2279 0 2.5563-0.84375 2.952-1.875 0.93232-2.4296 5.6636-2.4296 6.5959 0 0.93114 2.4265 4.9729 2.4265 5.9041 0 0.93177-2.4282 5.3182-2.4282 6.25 0 0.9299 2.4233 4.416 2.4233 5.3459 0 0.9331-2.4316 6.221-2.4316 7.1541 0 0.39572 1.0312 1.5986 1.875 2.673 1.875s2.2772-0.84375 2.673-1.875c0.9331-2.4316 6.221-2.4316 7.1541 0 0.9299 2.4233 4.416 2.4233 5.3459 0 0.39574-1.0312 1.7154-1.875 2.9327-1.875s2.9135 0.84375 3.7693 1.875c0.85586 1.0312 2.2708 1.875 3.1443 1.875 0.87352 0 1.912-0.84375 2.3077-1.875 0.4-1.031 1.88-1.875 3.3-1.875 1.4182 0 2.9022 0.84375 3.298 1.875 0.39574 1.0312 1.5207 1.875 2.5 1.875 0.97928 0 2.1043-0.84375 2.5-1.875 0.39574-1.0312 2.0832-1.875 3.75-1.875s3.3543 0.84375 3.75 1.875c0.39574 1.0312 1.5207 1.875 2.5 1.875 0.97928 0 2.1043-0.84375 2.5-1.875 0.93479-2.436 5.2959-2.4038 8.0175 0.05929 1.929 1.7457 2.3259 1.7457 4.0716 0 2.467-2.467 6.3539-2.4799 8.389-0.02775 1.4181 1.7087 1.8009 1.7087 3.689 0 2.6952-2.4392 7.0564-2.4564 7.9869-0.03154 0.39572 1.0312 1.5207 1.875 2.5 1.875 0.97926 0 2.1043-0.84375 2.5-1.875 0.95404-2.4862 6.5757-2.4087 7.5399 0.10395 1.495 3.896 3.6124 0.87901 6.5681-9.3588 4.5326-15.7 4.1516-15.294 13.951-14.863l8.3638 0.36793 3.75 11.286c2.0625 6.2075 4.6688 13.162 5.7918 15.456 2.009 4.1021 20.272 20.375 25.771 22.961 1.5469 0.72775 2.8125 2.011 2.8125 2.8517 0 2.6589 4.814 3.0356 39.019 3.0531l33.394 0.01707 4.3284 3.8005c5.1265 4.5011 9.7128 16.019 11.865 29.796 0.7922 5.0718 2.737 13.087 4.3217 17.812l2.8814 8.5911-48.842 0.30894c-26.863 0.16992-56.013 0.31055-64.777 0.3125l-15.935 0.004-0.001-11.875-0.002-11.875 59.005-0.3595c32.452-0.19772 59.265-0.6196 59.583-0.9375 2.0478-2.0479-7.5762-2.4866-60.793-2.7716l-59.497-0.31857-1.4649-4.2611c-0.80569-2.3436-2.8135-5.9712-4.4618-8.0612l-2.9969-3.8002-42.48 0.25474-42.48 0.25474-4.9845 7.5c-2.7415 4.125-9.9253 14.725-15.964 23.557-11.366 16.621-13.987 22.068-10.622 22.068 1.0267 0 2.853 1.5052 4.0584 3.345 1.2054 1.8397 3.6083 4.6578 5.3397 6.2624s2.9192 3.0996 2.6396 3.3222c-0.27963 0.22259-4.2865 3.0655-8.9042 6.3176-10.149 7.1473-14.569 12.524-20.413 24.829l-4.4404 9.3503-15.875 1.5093c-14.715 1.399-46.821 5.5403-71.136 9.1759-5.6433 0.84377-10.757 2.0919-11.365 2.7736-1.1405 1.2803-4.6486 15.514-4.2336 17.177 0.36082 1.4463-1.594 1.1096-3.2661-0.5625-0.825-0.825-1.5-4.7823-1.5-8.794 0-7.0634-0.0845-7.2488-2.6723-5.8638-1.4698 0.7866-4.1416 1.6311-5.9375 1.8767-40.696 5.5652-57.477 5.3761-69.289-0.78072-2.6956-1.405-5.0325-2.3878-5.1931-2.1839-0.1606 0.20389-8.055 16.402-17.543 35.996-13.756 28.407-17.275 36.744-17.37 41.145-0.0656 3.0362-0.68174 5.6982-1.3692 5.9154-0.6875 0.21722-5.75-2.0391-11.25-5.014zm104.37-78.73c7.9062-1.0135 15.922-2.2363 17.812-2.7174l3.4375-0.87457v-16.531c0-9.0921-0.24456-16.776-0.54346-17.075-1.3537-1.3537-28.337 1.3261-30.812 3.0601-9.4035 6.5865-12.148 20.14-5.7704 28.501 3.8299 5.0212 4.1963 6.3016 1.5082 5.27-1.0273-0.39421-1.5814-1.1801-1.2315-1.7464 0.35-0.56631-0.60912-1.2105-2.1314-1.4315-4.3979-0.63855-7.4171-7.3632-8.3903-18.688-0.65677-7.6425-1.4253-10.531-3.1341-11.781-2.4536-1.7941-2.2887-1.8753-10.39 5.111-4.85 4.19-11.61 15.87-11.61 20.06 0 1.6965 8.7987 8.3246 14 10.547 3.4406 1.4697 17.608 0.82631 37.25-1.6916zm136.91-84.908c0.38438-1.5332 0.53292-7.5689 0.33007-13.413l-0.36881-10.625-58.914-0.32465-58.914-0.32464-0.75688 2.8246c-2.1471 8.0127-0.36119 22.013 3.1508 24.7 0.44929 0.34375 26.457 0.47321 57.795 0.28769l56.978-0.33733 0.69891-2.7877zm-113.58-2.996c-0.46-0.45-0.83-4.39-0.83-8.74v-7.9167h55 55v8.75 8.75h-54.167c-29.792 0-54.542-0.375-55-0.83334zm-128.88-38.848 0.78713-5.9375 71.405 0.38824c64.018 0.34808 71.555 0.18328 72.854-1.593 1.2919-1.7667 6.44-1.9123 47.539-1.3444 25.349 0.35028 68.021 0.91768 94.825 1.2609 26.804 0.34321 49.445 0.89646 50.312 1.2294 0.86774 0.33298 1.5777 1.7481 1.5777 3.1447 0 2.4423 0.73424 2.5392 19.241 2.5392 14.267 0 19.383-0.40391 19.789-1.5625 0.30146-0.85938 0.68408-4.5061 0.85028-8.1038l0.3-6.542-11.65-7.506-11.65-7.507-26.71-0.014-26.7-0.015-10.35 6.25c-13.357 8.0682-15.719 8.068-29.138-0.0024l-10.38-6.248h-23.104-23.104l-13.742 7.5-13.742 7.5h-21.828c-20.995 0-21.828 0.09544-21.828 2.5 0 2.4657-0.83695 2.5001-60.938 2.5109-33.516 0.006-63.891 0.36558-67.5 0.79911-5.6689 0.68092-6.5625 0.49676-6.5625-1.3525 0-1.3634-0.79439-1.9903-2.1875-1.7264-2.5566 0.48431-3.4385 6.2375-2.2109 14.423 1.06 7.0683 2.8709 6.7899 3.8494-0.59188zm482.74 5.1496c3.2352-0.86698 3.7897-4.8197 0.83526-5.9534-4.1962-1.6103-15.186-0.79569-16.885 1.2515-1.4175 1.708-1.3106 2.2719 0.71086 3.75 2.4498 1.7913 10.372 2.283 15.339 0.95188zm-30.2-1.902c1.52-2.457-3.42-4.81-10.1-4.81-6.656 0-9.656 1.5923-8.5297 4.5273 0.84195 2.1941 17.3 2.444 18.636 0.28305zm-772.53 173.23c-2.5107-2.5107-2.4717-6.5083 0.22321-22.875 1.8514-11.244 2.1663-21.16 2.0496-64.535-0.0759-28.188-0.7069-57.147-1.4023-64.355-1.2889-13.359-0.59851-17.921 2.9156-19.27 0.91396-0.35072 5.4784 0.17107 10.143 1.1595 6.9216 1.4667 25.033 1.8006 98.481 1.8159 49.651 0.01025 97.497-0.55322 106.72-1.2569 21.385-1.6314 35.261-5.1003 50.246-12.562 6.5825-3.2775 15.301-6.9096 19.375-8.0712 4.0738-1.1616 7.9413-2.6123 8.5944-3.2237 0.65313-0.61138 2.4812-1.1116 4.0625-1.1116 1.5812 0 2.875-0.5625 2.875-1.25s0.70803-1.25 1.5734-1.25c1.2455 0 1.4789 10.225 1.1199 49.062-0.24938 26.984-0.56994 49.191-0.71235 49.347-0.89505 0.98456-27.585-2.3644-28.32-3.5535-0.65672-1.0626-13.415-1.4324-47.592-1.3794l-46.694 0.0724-28.125 6.8312c-15.469 3.7572-31.197 7.5431-34.951 8.4132-10.955 2.5388-26.45 9.1121-34.483 14.628-10.091 6.9289-24.149 21.624-30.597 31.982-2.9199 4.6908-7.9501 15.206-11.178 23.368-3.2281 8.1614-6.5956 15.714-7.4834 16.784-1.8366 2.2129-5.9305 2.5018-10.552 0.74462-2.1644-0.82288-6.4149-0.62692-13.519 0.62329-5.699 1.003-10.462 1.8243-10.585 1.8253-0.12275 0.00093-1.1072-0.88222-2.1875-1.9626zm113.67-101.14c60.809-11.776 60.259-11.648 61.252-14.186 1.5266-3.9025 0.6501-41.919-0.99047-42.962-2.381-1.5132-135.62-1.2291-138.47 0.29532-4.1844 2.2394-3.1918 10.208 2.5822 20.728 4.6914 8.548 5.0012 9.7504 5.0191 19.482 0.01 5.7042 0.4324 11.004 0.9375 11.777s2.6882 1.7893 4.8512 2.2584c4.8353 1.0486 7.3922 3.8087 8.5436 9.2226 0.77956 3.6656 1.2578 4.0618 4.2016 3.4809 1.8271-0.36054 25.259-4.9038 52.072-10.096zm133.75-32.521v-13.75h-26.25-26.25l-0.36046 12.411c-0.19825 6.8261-0.0709 13.166 0.28303 14.088 0.51552 1.3434 5.808 1.6097 26.61 1.339l25.967-0.33795v-13.75zm556.46 48.542c-0.47-0.46-0.84-2.1-0.84-3.65 0-4.1181-1.2762-6.7689-3.2587-6.7689-0.95769 0-1.7413-0.5625-1.7413-1.25s-1.9356-1.25-4.3012-1.25c-2.3657 0-4.6489 0.5625-5.0738 1.25s-2.3936 1.25-4.375 1.25-3.9501-0.5625-4.375-1.25-2.7081-1.25-5.0738-1.25-4.3012 0.5625-4.3012 1.25-1.9356 1.25-4.3012 1.25c-2.3657 0-4.6489-0.5625-5.0738-1.25s-2.7081-1.25-5.0738-1.25-4.3012 0.5625-4.3012 1.25-1.6543 1.25-3.6762 1.25-4.0239-0.5625-4.4488-1.25-3.2706-1.25-6.3238-1.25-5.5512 0.5625-5.5512 1.25c0 0.73405-4.3304 1.25-10.491 1.25-11.37 0-12.01-0.4-12.01-7.48v-3.5244l-14.062-0.83892c-7.7344-0.46141-32.203-0.65752-54.376-0.43581-25.517 0.25515-40.313-0.0424-40.312-0.81065 0.00044-0.66756-3.145-4.3927-6.9899-8.2782l-6.9907-7.0644 8.661-11.722c4.7636-6.447 10.855-15.454 13.537-20.015 3.5284-6.0017 5.9411-8.6787 8.7309-9.6875 2.4954-0.90235 16.395-1.394 39.408-1.394h35.553l5.3782 6.8862 5.3782 6.8862 0.2303 22.176c0.195 18.777 0.51776 22.176 2.1053 22.176 1.3951 0 1.9684-1.7595 2.2401-6.875l0.36514-6.875 65.572 0.41781 65.572 0.4178 0.038-4.7928c0.053-6.7119 1.9291-2.9331 3.0158 6.075 1.3362 11.076 0.1945 12.257-11.848 12.257h-9.956l-0.01 4.6875c0 2.5781-0.848 6.2987-1.875 8.2679s-1.8673 5.2036-1.8673 7.1875c0 3.4786-0.2152 3.6071-6.0417 3.6071-3.3229 0-6.4167-0.375-6.875-0.83334zm40.996-46.23-5.0458-0.55458-1.6067-10.211c-0.8837-5.6162-1.7069-10.793-1.8292-11.504-0.1442-0.83769 7.6154-1.4323 22.054-1.6901 18.949-0.33828 22.742-0.0931 25.389 1.6415 2.0594 1.3494 2.9806 2.9639 2.7231 4.7727-0.3591 2.523-1.2553 2.7832-11.639 3.3792-6.1875 0.35512-12.025 1.1361-12.973 1.7355-3.3738 2.1339 2.7153 3.8688 13.579 3.8688 11.293 0 13.24 1.2018 9.7294 6.0032-1.3706 1.8743-4.1396 2.2729-18.474 2.659-9.2738 0.24984-19.132 0.20469-21.907-0.10037z"/>
</svg>
