<?xml version="1.0" encoding="UTF-8" standalone="no"?>
<!-- Created with Inkscape (http://www.inkscape.org/) -->
<svg id="svg3416" xmlns:rdf="http://www.w3.org/1999/02/22-rdf-syntax-ns#" xmlns="http://www.w3.org/2000/svg" height="375" viewBox="0 0 1250 375" width="1250" version="1.1" xmlns:cc="http://creativecommons.org/ns#" xmlns:dc="http://purl.org/dc/elements/1.1/">
 <metadata id="metadata3422">
  <rdf:RDF>
   <cc:Work rdf:about="">
    <dc:format>image/svg+xml</dc:format>
    <dc:type rdf:resource="http://purl.org/dc/dcmitype/StillImage"/>
    <dc:title/>
   </cc:Work>
  </rdf:RDF>
 </metadata>
 <path id="path3426" fill="#fff" d="m110.77 437.14c-5.225-2.6017-5.3028-2.7169-10.625-15.729-4.5786-11.194-5.2056-13.657-4.2912-16.857 2.1782-7.625 2.4836-7.7698 94.54-44.817 74.713-30.067 86.962-34.715 94.696-35.93 4.8853-0.76731 11.313-2.3894 14.284-3.6043 9.3325-3.8172 8.858-4.2039 15.871 12.941l6.2345 15.242-4.354 3.3878c-2.3947 1.8633-8.0181 5.182-12.496 7.3747-4.4783 2.1929-8.9342 4.9443-9.9022 6.1145-1.1848 1.4354-31.075 14.126-90.228 38.321l-88.464 36.184-5.2635-2.6209zm30.11-25.097c2.1097-5.0301-4.7335-18.997-8.5442-17.438-1.2214 0.49958-1.0641 2.6555 0.57348 7.8567 1.8814 5.976 1.8999 7.3941 0.11119 8.5263-2.9725 1.8816-3.6555 3.8529-1.9598 5.656 2.0626 2.1935 8.1698-0.66806 9.8191-4.6008zm22.07-9.2015c1.2822-3.0571 1.0253-4.2728-2.1553-10.201-1.986-3.7018-4.2759-7.0094-5.0888-7.3505-2.9599-1.2414-3.3003 2.1037-0.82905 8.1456 2.384 5.8285 2.3585 6.3322-0.44745 8.8115-2.7918 2.4669-3.048 5.2551-0.57803 6.2911 2.3273 0.97619 7.7146-2.3968 9.0986-5.6965zm22.351-9.6828c0.56354-2.9022-0.0371-5.0801-2.7565-9.9965-5.867-10.606-9.0063-9.6432-5.5098 1.6915 1.7247 5.591 1.7157 7.0306-0.0504 8.1499-5.5713 3.5308-2.6693 8.0643 3.5372 5.5257 3.0655-1.2539 4.2354-2.5685 4.7794-5.3709zm21.614-8.2998c1.2822-3.0571 1.0253-4.2728-2.1553-10.201-1.9859-3.7018-4.2759-7.0094-5.0888-7.3505-2.9599-1.2414-3.3004 2.1037-0.82905 8.1456 2.384 5.8285 2.3584 6.3321-0.44746 8.8114-2.7918 2.4669-3.048 5.2551-0.57803 6.2911 2.3273 0.97619 7.7146-2.3968 9.0986-5.6965zm21.982-8.9913c1.2822-3.0571 1.0253-4.2728-2.1553-10.201-5.8925-10.984-10.173-9.7645-5.5732 1.5873 2.0018 4.9404 1.9358 5.6088-0.79211 8.0193-2.7918 2.4669-3.048 5.2551-0.57804 6.2911 2.3273 0.97619 7.7146-2.3968 9.0986-5.6965zm21.982-8.9913c1.2822-3.057 1.0253-4.2728-2.1553-10.201-5.9444-11.08-9.3141-10.373-5.7426 1.205 1.7247 5.591 1.7158 7.0306-0.0504 8.1499-2.9722 1.8836-3.6548 3.8543-1.9593 5.6573 2.1227 2.2574 8.1757-0.68191 9.9071-4.8109zm21.982-8.9913c1.2822-3.0571 1.0253-4.2728-2.1553-10.201-5.9444-11.08-9.3141-10.373-5.7426 1.205 1.7247 5.591 1.7157 7.0306-0.0504 8.1499-2.9722 1.8836-3.6548 3.8543-1.9593 5.6573 2.1227 2.2574 8.1757-0.68191 9.9071-4.8109zm53.967-14.134c-0.20193-1.5887-2.6787-8.5602-5.504-15.492l-5.1367-12.603 127.85-51.453c70.317-28.299 136.28-54.604 146.59-58.456 10.309-3.8518 49.209-19.44 86.445-34.642 37.236-15.201 71.053-28.635 75.15-29.852l7.4495-2.2135 4.997 11.181 4.997 11.181-6.1742 3.0651c-3.3958 1.6858-54.263 22.869-113.04 47.075-58.775 24.205-128.04 53.232-153.92 64.505-25.876 11.272-74.564 31.768-108.2 45.547l-61.15 25.052-0.36715-2.8885zm470-206.76-6.152-15.04 14.752-6.0331 14.752-6.0331-15.015-36.71-15.015-36.71 4.0243-5.0193c3.3182-4.1386 5.5506-5.6329 12.723-8.5161 23.039-9.2619 44.844-4.6468 53.875 11.403 8.044 14.295 11.541 52.676 6.7992 74.634-2.7549 12.76-16.535 23.404-45.791 35.373l-18.8 7.6907-6.152-15.04zm38.269-45.266c-1.63-6.5018-6.0009-18.105-11.808-31.345-8.262-18.838-9.5969-21.249-12.847-23.205-4.3816-2.6364-9.1025-2.2879-6.3076 0.4657 6.6593 6.5606 11.581 16.205 22.399 43.894 9.0275 23.106 11.119 27.706 11.134 24.482 0.01-2.1833-1.147-8.6148-2.5704-14.293zm9.9516-20.363c-1.6174-8.3594-3.4836-13.648-8.7454-24.784-6.4882-13.732-6.8342-14.218-11.515-16.187-3.7879-1.5937-5.0053-1.6043-5.6575-0.04935-0.53656 1.2794-0.38893 1.8005 0.41697 1.4708 4.6411-1.8983 16.737 24.092 21.912 47.084 4.6361 20.595 4.6237 20.567 5.16 11.395 0.26691-4.5659-0.43983-13.083-1.5708-18.928zm11.39 5.3437c1.4503-19.271-8.3935-49.973-15.97-49.806-1.1246 0.02486 0.19016 4.3764 4.7857 15.84 5.7238 14.278 6.4509 17.093 7.522 29.121 0.6522 7.3233 1.3415 13.696 1.5319 14.161 0.6842 1.6729 1.6063-2.3603 2.1298-9.3163zm-85.863 72.713c-2.3464-6.283-4.3125-12.059-4.3694-12.836-0.0568-0.77689 2.5043-2.5491 5.6916-3.9383 3.1871-1.3891 6.6336-3.5397 7.6588-4.779s2.5028-2.1467 3.2835-2.0164c0.7925 0.13222 3.8109 6.0833 6.8338 13.474l5.4141 13.237-10.124 4.1418-10.123 4.1418-4.266-11.423z"/>
</svg>
