<?xml version="1.0" encoding="UTF-8" standalone="no"?>
<!-- Created with Inkscape (http://www.inkscape.org/) -->
<svg id="svg3396" xmlns:rdf="http://www.w3.org/1999/02/22-rdf-syntax-ns#" xmlns="http://www.w3.org/2000/svg" height="375" viewBox="0 0 1250 375" width="1250" version="1.1" xmlns:cc="http://creativecommons.org/ns#" xmlns:dc="http://purl.org/dc/elements/1.1/">
 <metadata id="metadata3402">
  <rdf:RDF>
   <cc:Work rdf:about="">
    <dc:format>image/svg+xml</dc:format>
    <dc:type rdf:resource="http://purl.org/dc/dcmitype/StillImage"/>
    <dc:title/>
   </cc:Work>
  </rdf:RDF>
 </metadata>
 <path id="path3406" fill="#fff" d="m454.38 289.5c-20.97-5.32-34.38-10.05-34.38-12.12 0-0.58394 12.936-20.521 28.747-44.305s29.094-44.626 29.518-46.315l0.77093-3.0716 19.544 0.34352 19.544 0.34351 0.34615 18.477 0.34614 18.477-3.7193 3.3978c-2.5498 2.3294-3.9925 5.1072-4.5882 8.8344-0.48427 3.0298-2.7021 8.0103-5.0097 11.25-10.96 15.41-25.49 42.2-25.49 47.02 0 2.2014-0.66675 3.1514-2.1875 3.1168-1.2031-0.0274-11.75-2.4779-23.438-5.4456zm261.24-12c-0.48463-0.78414-13.54-1.25-35.031-1.25-34.92 0-48.166-1.1044-71.844-5.9899-18.45-3.8067-21.25-6.9695-21.25-24.002v-9.6185l-11.737-8.32-11.72-8.32-20.451 0.001-20.451 0.001 0.3428-18.439c0.18854-10.142-0.11312-19.122-0.67044-19.956-0.69172-1.0354-8.0392-1.7909-23.155-2.3809l-22.14-0.86v-11.623-11.623l8.3178-2.4954c4.5748-1.3725 22.715-6.0186 40.312-10.325 17.597-4.3062 30.962-8.0416 29.7-8.301-3.7416-0.76894-32.099 3.4322-48.406 7.1712l-15.147 3.4732 0.5631-2.9457c0.55887-2.9235 0.47553-2.9457-11.065-2.9457-6.3954 0-11.967-0.54839-12.381-1.2186-0.42545-0.68838-3.1631-0.88831-6.2918-0.45947-5.1507 0.70597-5.627 0.52675-6.8001-2.5588-1.7622-4.635-2.9339-29.349-1.6066-33.888 1.0001-3.4199 1.6323-3.7844 7.1821-4.1405 3.4853-0.22362 6.6541-1.1673 7.4163-2.2087 1.0477-1.4314 7.4473-2.086 30.081-3.0769 15.812-0.69226 32.266-1.5712 36.562-1.9533l7.8125-0.69464v-11.151c-0.01-10.31-0.2-11.143-2.51-11.143-2.0074 0-2.5-0.83333-2.5-4.2292 0-3.178 0.62143-4.3917 2.5-4.883 1.9532-0.51078 2.4998-1.7046 2.499-5.4583l-0.00097-4.8045 35.001 0.4007 35.001 0.4007v-4.4192c0-3.0898 0.72733-4.8085 2.4178-5.7132 1.5842-0.84786 25.825-1.2803 70.312-1.2542 74.484 0.04361 72.27-0.1854 72.27 7.4741v4.1132l12.188-0.80706c6.7031-0.44388 17.077-0.80997 23.053-0.81353l10.866-0.0065 0.38438-5.3017c0.28038-3.8674 0.97617-5.414 2.5719-5.7167 1.821-0.34541 2.1875 0.5284 2.1875 5.2148 0 4.8758 0.3744 5.6832 2.7957 6.0292 3.6117 0.51603 4.5363 5.5235 4.6323 25.087 0.0617 12.601 0.35617 14.688 2.0724 14.688 1.7928 0 1.9068 2.3135 1.0989 22.289-0.4958 12.259-0.53356 23.448-0.0839 24.865 0.46071 1.4516 2.027 2.6825 3.5886 2.8203 1.5241 0.13446 49.318 0.49794 106.21 0.80774l103.44 0.56327v-2.6266-2.6266l-102.95 0.25848c-56.63 0.14-103.6-0.14-104.38-0.62-0.98-0.61-1.42-8.37-1.42-25.18 0-20.767-0.27-24.3-1.88-24.3-2.315 0-2.6042-7.5208-0.375-9.75 1.1409-1.1409 24.744-1.5 98.597-1.5 107.39 0 100.68-0.54355 99.672 8.072-0.2798 2.396 0.08 4.5901 0.7987 4.8757 0.719 0.28562 5.1389 6.933 9.8219 14.772 4.6831 7.8389 10.535 16.394 13.005 19.012l4.4904 4.7595-0.7808 22.52c-0.4866 14.034-1.3233 23.173-2.2205 24.254-1.204 1.4507-16.37 1.7348-92.619 1.7348-60.462 0-91.994-0.43593-93.597-1.294-1.892-1.0126-2.4178-2.6436-2.4178-7.5 0-6.0782-0.0781-6.206-3.794-6.206-3.2196 0-3.6193 0.33116-2.64 2.1875 1.8953 3.5927 4.0822 15.972 3.2189 18.221-0.44136 1.1502-1.586 2.0912-2.5437 2.0912-1.2697 0-1.7413-1.7972-1.7413-6.6361 0-9.163-1.8574-11.403-8.5206-10.278-7.0033 1.1832-10.229 5.6912-10.229 14.294v6.3695h-10.32c-10.079 0-10.353 0.0804-11.748 3.4375-0.82814 1.9937-1.9714 18.138-2.7218 38.438-1.4168 38.323-2.7774 46.715-8.3607 51.562-3.2112 2.7881-3.5794 2.8125-42.471 2.8125-24.806 0-39.516-0.45963-40.004-1.25zm80.018-4.2333c2.1904-1.6017 6.2009-14.545 4.491-14.494-0.41719 0.0125-2.6184 2.2624-4.8916 5-3.6779 4.4292-3.8581 4.9775-1.6363 4.9775 1.3732 0 2.8444 0.5625 3.2694 1.25 0.50907 0.8237-13.32 1.25-40.551 1.25-26.71 0-41.32-0.44-41.32-1.25 0-0.79787 10.625-1.25 29.375-1.25h29.375v-4.375-4.375h-9.2292c-8.178 0-9.3037-0.28476-9.883-2.5-0.64402-2.4628-1.705-2.5-71.238-2.5h-70.585l-5.7824-3.2319-5.7824-3.2319v-76.569-76.569l6.1067-3.3237 6.1067-3.3237h70.768c69.4-0.01 70.76-0.057 70.76-2.455 0-2.1684 1.0262-2.4868 9.0625-2.8125 8.316-0.33701 9.0954-0.59895 9.4619-3.1798l0.39943-2.8125-87.274-0.000338-87.274-0.000338 0.4272 79.688c0.45068 84.068-0.0415 100.31-3.0394 100.31-1.8812 0-2.4438 3.1815-0.74802 4.2296 2.1932 1.3555 26.88 5.7569 45.984 8.1985 16.318 2.0856 27.132 2.5719 57.188 2.5719 23.876 0 37.064 0.44478 37.064 1.25 0 0.7968 10.337 1.25 28.511 1.25 22.334 0 29.025-0.37552 30.881-1.7333zm-208.38-63.58c0.31923-3.857-0.019-4.6875-1.9094-4.6875-1.2635 0-3.5475-0.87565-5.0754-1.9459-2.4978-1.7496-2.7781-3.0107-2.7781-12.5v-10.554h-11.831c-13.128 0-13.321 0.118-14.951 9.1404-1.1891 6.5828 1.1095 12.624 6.4915 17.06 5.4516 4.4937 4.7058 6.1009-1.37 2.9527-6.0745-3.1475-12.088-11.045-12.097-15.887-0.004-2.1398-0.60157-6.0318-1.3283-8.6489-1.2537-4.5147-1.5552-4.7387-5.8903-4.375-6.3563 0.53323-10.274 6.3989-10.274 15.382 0 9.2576 1.8449 13.502 7.2332 16.643 4.3836 2.5548 5.9974 2.6887 29.017 2.407l24.375-0.29826 0.38796-4.6875zm240.24-46.47c0-0.98135 1.4821-2.9501 3.2936-4.375l3.2936-2.5907h-12.044-12.044v4.375 4.375h8.75c6.7467 0 8.75-0.4085 8.75-1.7843zm-234.51-80.197c2.1-5.472 1.9-5.523-21.74-5.523h-22.5v3.75 3.75h21.741c18.672 0 21.848-0.27912 22.5-1.9772zm-365.14 180.5c-4.1232-2.0343-6.2168-11.477-7.1553-32.271-1.1473-25.422-3.4731-39.595-12.669-77.202-4.42-18.06-8.03-34.2-8.03-35.89 0-3.7354 8.8161-9.4136 14.616-9.4136h3.7711l3.9119 18.438c9.6826 45.635 16.606 86.389 20.597 121.24 1.7974 15.697 2.3361 14.526-7.271 15.797-2.75 0.36363-6.2485 0.0451-7.7744-0.7077zm21.559-8.7193c-4.6638-42.845-13.88-97.34-22.549-133.34-1.7104-7.1019-3.1098-13.067-3.1098-13.256 0-0.18901 3.7969-0.43489 8.4375-0.54641 10.458-0.25131 163.81-8.5551 176.25-9.5439l9.0625-0.72012 0.0636 9.7396c0.0638 9.7593 1.7585 34.352 2.6087 37.855 0.36797 1.516-1.7966 2.0138-11.564 2.6598l-12.017 0.79475-60.713 47.054-60.713 47.054-1.3704 6.6012c-1.67 8.05-5.48 10.86-14.68 10.86-3.3658 0-6.7334 0.61381-7.4837 1.364-0.98537 0.98537-1.6035-0.83639-2.2268-6.5625zm55.154-60.504 32.312-26.952-0.41272-5.2354c-0.22701-2.8795-0.78951-5.6078-1.25-6.0629-0.46051-0.45515-10.962 3.882-23.337 9.638-20.105 9.3516-22.7 10.263-24.375 8.5637-2.3843-2.4185-2.0393-2.6843 16.105-12.409 7.574-4.0595 13.548-7.6041 13.275-7.8768-0.2727-0.2727-13.219-0.081-28.77 0.42607l-28.274 0.92189-3.4536 3.6953-3.4536 3.6953 4.1022 24.587c2.2562 13.523 4.4283 26.378 4.8269 28.568 0.70748 3.8864 2.0085 4.7022 8.3302 5.2238 1.1348 0.0936 16.604-11.958 34.375-26.782zm748.58-46.89c0.4731-2.8006 0.4604-10.144-0.028-16.318-0.7584-9.5824-1.3716-11.799-4.1879-15.136-1.8147-2.1505-5.941-8.1655-9.1697-13.367-5.4416-8.7661-5.6926-9.5223-3.4375-10.356 1.3381-0.49497 2.4328-1.4806 2.4328-2.1902 0-0.78584 4.1539-1.2903 10.625-1.2903h10.625v31.875 31.875h-3.8599c-3.8222 0-3.8515-0.0496-2.9995-5.092zm-629.87-22.57c-0.44558-5.0708-1.114-11.811-1.4854-14.979l-0.67526-5.7589 4.7802-0.78984c2.6291-0.43442 9.1065-0.79604 14.394-0.8036l9.614-0.0138 0.386 15.002 0.386 15.002-6.875 0.009c-3.7812 0.005-9.7639 0.35562-13.295 0.77987l-6.4198 0.77135-0.81011-9.2197z"/>
</svg>
