<?xml version="1.0" encoding="UTF-8" standalone="no"?>
<!-- Created with Inkscape (http://www.inkscape.org/) -->
<svg id="svg3356" xmlns:rdf="http://www.w3.org/1999/02/22-rdf-syntax-ns#" xmlns="http://www.w3.org/2000/svg" height="1062.5" viewBox="0 0 1062.5 1062.5" width="1062.5" version="1.1" xmlns:cc="http://creativecommons.org/ns#" xmlns:dc="http://purl.org/dc/elements/1.1/">
 <metadata id="metadata3362">
  <rdf:RDF>
   <cc:Work rdf:about="">
    <dc:format>image/svg+xml</dc:format>
    <dc:type rdf:resource="http://purl.org/dc/dcmitype/StillImage"/>
    <dc:title/>
   </cc:Work>
  </rdf:RDF>
 </metadata>
 <path id="path3366" fill="#fff" d="m587 961.68c-10.819-0.89968-11.258-1.0815-23.379-9.696-10.375-7.3734-36.791-23.625-56.949-35.036-32.147-18.198-50.792-31.543-52.263-37.407-0.82751-3.297-2.4628-3.6764-6.9786-1.6188-6.7608 3.0804-12.396-6.4925-6.9808-11.86 2.0204-2.0025 1.7608-2.4084-5.6949-8.9081-8.0664-7.0306-15.653-12.555-34.184-24.871-28.477-18.934-36.553-25.187-50.355-39.018-18.08-18.128-19.826-21.638-22.358-44.994-0.68001-6.2644-3.9259-25.148-7.213-41.963-3.2872-16.815-6.7296-36.641-7.6497-44.059-2.1314-17.181-3.8068-20.683-9.8936-20.683-2.474 0-5.6972-0.83987-7.1628-1.8664l-2.6646-1.8664-0.0624 38.134c-0.11305 69.127-1.466 91.61-9.6183 159.82-2.2317 18.676-3.5098 35.173-3.5091 45.298 0.0009 13.352-0.30233 16.04-1.8779 16.644-1.0335 0.39657-2.387 0.21297-3.0081-0.40801-0.62097-0.62096-1.9546-20.52-2.9637-44.22-1.4771-34.529-1.6785-61.52-1.0167-136l0.82364-92.917-4.3421-6.7871c-5.6712-8.8648-27.604-52.598-31.269-62.35-5.438-14.468-6.8842-22.695-6.4826-36.877 0.20693-7.3066 0.0916-13.283-0.25618-13.282-0.34786 0.00096-1.8372 0.8463-3.3096 1.8776-1.4725 1.0313-3.6848 1.5554-4.9163 1.1645-4.1558-1.319-5.5272-10.16-5.4929-35.411 0.0337-24.781 1.2684-35.424 7.351-63.363 2.8236-12.97 3.6401-15.114 6.5813-17.289l3.3578-2.4825-2.6682-1.3284c-9.2734-4.6167-6.8258-75.545 3.9946-115.76 11.531-42.854 36.72-78.298 77.294-108.76 10.086-7.5728 31.767-20.427 38.934-23.084 2.3079-0.85555 11.75-5.2051 20.981-9.6653 19.133-9.2448 24.949-11.486 44.764-17.244 29.477-8.566 49.33-11.406 86.138-12.321 66.068-1.6433 120.52 10.269 165.97 36.31 53.563 30.686 88.145 61.314 107.46 95.17 14.361 25.176 24.807 66.109 22.572 88.451-0.50807 5.0767-0.32752 7.4933 0.55985 7.4933 1.5726 0 9.3986 16.698 12.924 27.575 4.6327 14.294 5.4253 22.883 4.5917 49.753-0.6907 22.263-1.0323 25.383-2.9532 26.976-1.1947 0.99061-3.1514 3.4196-4.3482 5.3979-3.1708 5.241-8.0656 10.279-11.152 11.479l-2.6925 1.0467 2.5484 6.326c1.4017 3.4793 3.287 8.7538 4.1897 11.721 0.90267 2.9674 2.2504 6.5676 2.9948 8.0004 2.0639 3.9721 0.36365 8.1751-5.0375 12.453-2.6906 2.131-8.357 8.1661-12.592 13.411-7.53 9.3264-7.6997 9.6931-7.6997 16.649 0 3.9118 0.86635 9.1181 1.9252 11.57 5.4829 12.694 11.528 36.674 13.063 51.815 1.0978 10.832-3.4163 33.16-12.229 60.488-3.3353 10.342-3.9502 13.583-2.897 15.271 0.73528 1.1774 1.3369 3.4354 1.3369 5.0179 0 1.5824-4.5737 16.643-10.164 33.468-15.927 47.933-16.132 48.934-15.499 75.584 0.44871 18.9 0.23231 22.993-1.3807 26.112-1.3472 2.6052-2.5594 3.5298-4.0997 3.127-2.4494-0.64054-2.4189-0.80942-4.9673 27.532-1.064 11.833-1.0816 17.493-0.0704 22.528 1.661 8.2712-0.10347 14.44-6.731 23.531-6.9484 9.5312-51.013 66.521-61.085 79.001-3.2494 4.0267-4.9243 4.2673-41.674 5.9886-14.507 0.67947-29.344 1.4-32.971 1.6011-3.6267 0.20111-10.641 0.0293-15.586-0.38207zm62.825-4.0214c21.339-1.3271 24.035-1.7315 25.528-3.8279 3.7987-5.3364 14.504-19.299 32.133-41.909 22.556-28.93 32.781-42.997 34.852-47.955 1.1876-2.8425 1.2732-5.9411 0.36551-13.246-0.79383-6.389-0.77857-12.701 0.0462-19.127 0.67708-5.2753 1.6012-15.753 2.0537-23.283l0.8226-13.692 2.3293 2.8765c2.2972 2.8369 2.3532 2.8438 4.0648 0.50362 2.8732-3.9284 3.2946-7.85 1.9272-17.938-0.83421-6.1544-0.95728-15.004-0.34212-24.599 1.0412-16.24 1.903-19.471 18.546-69.518 7.7133-23.194 7.7518-23.377 5.4462-25.831-2.2974-2.4454-2.2961-2.5396 0.11318-8.8806 4.2816-11.268 11.657-37.808 12.545-45.137 0.47222-3.9011 1.4103-7.7828 2.0848-8.626 3.7009-4.6264-5.2425-51.798-12.332-65.045-1.551-2.898-2.6856-15.017-1.7884-19.102 0.90675-4.1284 12.451-18.547 20.747-25.912l5.5047-4.8873-2.7591-8.7423c-1.5175-4.8083-4.05-11.661-5.6278-15.229-1.5634-3.568-2.8583-7.1744-2.8583-8.0185 0-0.8434 2.1583-2.4857 4.7961-3.6496 3.4035-1.5016 5.7235-3.7443 7.9901-7.724 1.7567-3.0844 4.3192-6.5211 5.6946-7.6372 2.4156-1.9601 2.5007-3.0614 2.5007-32.371v-30.342l-3.9133-11.395c-5.6288-16.416-11.157-27.064-13.817-26.615-1.8003 0.30428-1.9889-0.16715-1.1989-2.9973 1.7776-6.3683 0.7294-29.293-1.918-41.95-9.2161-44.06-31.496-78.756-70.271-109.43-19.069-15.085-58.393-39.722-75.869-47.533-20.401-9.1194-50.838-17.781-78.341-22.292-14.126-2.3177-20.709-2.6386-55.012-2.6818-31.323-0.0394-41.641 0.36299-52.609 2.0515-41.516 6.3912-80.86 20.126-107.32 37.466-3.0073 1.9705-3.1228 1.9686-2.3521-0.0397 0.67448-1.7577-0.0761-1.5965-4.4756 0.96106-2.9073 1.6901-8.9246 5.1351-13.371 7.6555-13.823 7.8342-28.967 19.231-42.132 31.707-36.525 34.613-53.144 67.636-61.47 122.15-2.279 14.921-3.0902 63.793-1.2386 74.633 0.84906 4.9713 1.3442 5.6949 3.8965 5.6949 4.0992 0 3.8099 3.6897-0.54147 6.9068-3.0045 2.2214-3.882 4.3637-6.5983 16.112-5.8291 25.21-7.2139 37.155-7.2691 62.705-0.0379 17.545 0.4018 25.345 1.6388 29.074 0.92982 2.8025 1.9354 5.0955 2.2346 5.0955 0.29922 0 2.6347-1.175 5.1898-2.6111 2.5552-1.4361 4.943-2.314 5.3061-1.9509 0.36313 0.36313 0.0647 4.3706-0.663 8.9055-2.0741 12.924 0.70721 29.469 7.9506 47.295 4.5105 11.1 23.949 49.536 29.488 58.306l4.8347 7.6551-0.86594 94.963c-0.61037 66.937-0.44449 105.23 0.56204 129.73 1.9074 46.443 2.8972 52.881 3.9629 25.777 0.45372-11.54 1.6398-25.949 2.6357-32.02 0.99588-6.0715 2.6319-19.64 3.6354-30.15 1.0036-10.511 2.6546-26.585 3.669-35.72 1.3008-11.714 2.0447-34.982 2.5243-78.953 0.37395-34.29 0.85135-62.538 1.0609-62.775 0.20953-0.23678 1.979 0.70738 3.9321 2.0981 2.2986 1.6368 5.3889 2.5302 8.7613 2.5331 5.0546 0.005 5.2771 0.16745 7.4551 5.4631 1.2347 3.0022 2.9367 11.228 3.7821 18.279 0.84543 7.0514 4.2862 26.51 7.6462 43.242 3.4726 17.292 6.1091 33.675 6.1091 37.959 0 4.1726 1.0637 10.931 2.3824 15.138 1.3103 4.1801 2.3893 8.7398 2.3979 10.132 0.0194 3.1804 4.6667 9.1042 17.174 21.892 11.474 11.731 21.318 19.438 45.185 35.379 26.438 17.657 31.669 21.415 40.025 28.75 8.1911 7.1648 11.539 8.3925 11.539 4.2202 0-3.5201-11.654-14.349-35.488-32.966-18.54-14.483-23.221-18.866-43.296-40.639-10.33-11.212-19.758-20.775-20.957-21.245-1.1935-0.47331-2.1699-1.6872-2.1699-2.6976 0-1.0191-1.0361-1.8371-2.3271-1.8371-1.2799 0-2.6346-0.49746-3.0103-1.1054-0.37578-0.60801-1.7449-17.691-3.0424-37.963-2.0856-32.583-3.4926-49.6-5.5748-67.423-0.3603-3.0841-1.5897-6.0691-3.0368-7.3734-1.3372-1.2054-2.9526-2.6501-3.5898-3.2106-4.0237-3.5397-6.2523-9.6778-5.9202-16.306 0.19001-3.7916 0.085-6.8939-0.23339-6.8939-0.31836 0-2.9308 1.0672-5.8052 2.3716-3.818 1.7325-7.811 2.3697-14.818 2.3646-8.8782-0.006-9.8217-0.24966-12.686-3.2707-1.7017-1.795-5.1612-7.0404-7.6878-11.657-5.8405-10.671-12.742-20.898-16.182-23.979-4.7901-4.2908-14.039-24.378-18.563-40.314-4.7617-16.775-4.3855-37.554 0.84996-46.951 2.409-4.3236 4.0597-5.4502 14.703-10.036 6.5941-2.841 13.068-5.1746 14.387-5.1859 4.2987-0.0368 16.653 6.7775 22.541 12.433 3.1656 3.0407 6.4084 5.5286 7.2064 5.5286 1.0205 0 2.2644 8.6814 4.1945 29.272 1.5091 16.1 3.0573 31.341 3.4406 33.869l0.69675 4.5974-5.0468-4.7957c-2.7758-2.6377-5.6762-5.8748-6.4455-7.1936-0.9216-1.5801-1.4088-9.7584-1.4284-23.979-0.0272-19.741-0.24942-21.995-2.6066-26.44-5.5822-10.522-15.951-17.303-26.482-17.303-5.2178 0-6.8411 0.58585-10.483 3.7831-10.263 9.0113-14.082 27.92-9.1574 45.344l2.1942 7.7632-0.55767-13.535c-0.69791-16.94 1.4949-26.365 7.8649-33.806 4.1944-4.9003 4.4374-5.0033 10.595-4.4926 7.2112 0.59801 13.673 4.7419 16.788 10.767 1.9592 3.7887 1.9075 12.867-0.23668 41.51-0.96298 12.865 0.89499 17.892 10.597 28.671 4.0162 4.462 8.0009 8.5327 8.8551 9.0461 2.1586 1.2973 7.323-0.18077 8.1485-2.3322 0.37608-0.98006-0.72633-19.41-2.4498-40.956-2.4911-31.142-2.8592-40.222-1.7959-44.286 0.73566-2.8119 1.3375-6.2454 1.3375-7.6298 0-3.9816-5.0398-11.9-8.8172-13.854-1.8962-0.98063-2.9811-2.2126-2.4107-2.7376 1.5155-1.3908 35.229-12.526 56.791-18.761 10.221-2.9538 27.756-7.2182 38.965-9.4766l20.382-4.1059 2.9973 3.5156c3.0749 3.6067 7.9176 6.0054 12.124 6.0054 2.1211 0 1.9605-0.51745-1.4951-4.8174-2.3704-2.9497-3.4382-5.2399-2.7541-5.9071 1.0251-0.99981 35.91-7.2595 40.458-7.2595 1.0858 0 3.0219 2.0232 4.3026 4.496 2.89 5.5802 15.083 18.946 25.974 28.475l8.2227 7.1936-3.1669-5.6949c-3.3945-6.1042-3.3522-6.4297 0.56258-4.3347 1.445 0.77333-0.0842-1.6841-3.5436-5.6949-6.3592-7.3567-13.543-20.267-13.543-24.324 0-1.8707 1.0541-2.4968 5.0955-3.027 30.175-3.9582 106.59-6.0844 157.36-4.3781 20.441 0.68698 39.325 1.7754 41.963 2.4186 2.6376 0.64324 11 1.8128 18.583 2.5991 18.144 1.8813 43.979 9.5992 53.208 15.895 2.8214 1.9247 3.8699 2.0936 5.7414 0.92484 1.8386-1.1482 2.6517-1.0679 4.1272 0.40767 2.3396 2.3396 2.6677 2.3145 7.3902-0.56476 2.1677-1.314 4.1531-2.3883 4.4217-2.3883 0.27088 0 0.26939 7.6881-0.004 17.084l-0.49582 17.084-4.5216 0.32806-4.5217 0.32804 2.9794-2.3442c1.6387-1.2893 2.711-2.6126 2.3829-2.9406-0.32806-0.32807-3.8269-0.86164-7.7751-1.1857-10.345-0.84911-33.199 3.9968-56.934 12.072-16.401 5.5801-21.25 6.7475-28.368 6.8307-7.8768 0.0921-9.0542-0.22992-14.275-3.9034-4.8328-3.4008-6.1129-3.8109-8.4999-2.7233-3.453 1.5733-3.7281 6.5419-0.8419 15.205 2.3068 6.9248 3.6636 8.9059 6.0987 8.9059 0.97833 0 2.7859 1.2804 4.0169 2.8452 1.231 1.5649 4.1657 3.76 6.5216 4.8779 4.8306 2.2923 4.8134 3.9008-0.12295 11.444-3.5505 5.4255-9.4264 19.063-8.5788 19.911 0.35853 0.35851 3.807 0.0668 7.6631-0.648 5.1768-0.95972 11.717-0.90953 24.995 0.19205 27.033 2.2426 34.533 1.9355 43.761-1.7915 10.102-4.0801 17.76-5.7923 18.748-4.192 0.41281 0.66797 1.1757 2.9043 1.6954 4.9696 0.51961 2.0653 2.5682 9.6903 4.5525 16.943 5.2497 19.191 6.5973 30.647 5.7593 48.959-1.1772 25.722-1.7971 29.336-8.2624 48.155-3.6519 10.63-6.2763 20.436-6.4178 23.979-0.1459 3.6532-2.5903 12.55-6.258 22.78-3.3102 9.2318-7.5477 21.64-9.4168 27.575l-3.3983 10.79-7.4994-7.4782-7.4994-7.4782 4.8018-0.76784c6.4688-1.0343 6.6314-4.4912 0.30574-6.4961-2.4728-0.78374-6.6977-2.6831-9.3886-4.2209-2.691-1.5378-7.405-3.4286-10.476-4.2018-3.0707-0.77322-5.3232-1.8265-5.0055-2.3406 1.8638-3.0158-12.541-2.598-27.233 0.78988-8.8311 2.0364-14.028 1.553-6.345-0.59009 2.6377-0.73566 8.4322-3.4685 12.877-6.0729 4.4447-2.6045 9.2719-5.1133 10.727-5.5752 1.4553-0.46191 5.507-3.5456 9.0036-6.8525 8.2207-7.7748 8.457-11.404 1.5253-23.427-2.6577-4.6097-5.6022-9.0203-6.5433-9.8015-1.1241-0.9329-1.4692-2.6292-1.0061-4.9448 1.0395-5.1963-2.2166-8.2554-8.7866-8.2554-4.5274 0-5.8378 0.64617-9.9924 4.9271-3.1598 3.2559-4.9456 4.3743-5.265 3.2971-4.07-13.724-10.511-42.091-15.888-69.969-5.7384-29.754-6.61-36.066-6.0424-43.761 0.5386-7.3031 1.1271-9.301 3.133-10.637 5.1411-3.4239 2.207-8.546-4.8955-8.546-3.2786 0-4.9909 0.71803-6.3544 2.6646-2.368 3.3809-2.3946 12.018-0.0601 19.625 0.99339 3.237 3.4432 15.291 5.444 26.786s5.0135 26.602 6.6948 33.57c5.2206 21.637 11.226 52.016 11.23 56.809 0.003 2.5161-0.55511 5.6184-1.2377 6.8939-2.8609 5.3457 5.3949 11.55 9.9195 7.4553 1.8232-1.65 2.2103-3.1578 1.7299-6.7396-0.60303-4.4959-0.48306-4.674 4.691-6.9627 2.9204-1.2919 5.7723-2.063 6.3375-1.7137 0.5652 0.34932 1.3654 2.6703 1.7782 5.1577 0.41279 2.4874 2.1314 7.4717 3.8192 11.076 4.3688 9.3301 3.6177 10.817-7.8534 15.554-8.9607 3.6996-19.804 10.615-21.852 13.936-0.58159 0.94317-5.0302 1.4103-13.328 1.3997-6.8505-0.009-13.066 0.36184-13.814 0.8236-0.74715 0.46177-1.3584 2.1565-1.3584 3.7662 0 1.6096-0.40464 2.9086-0.8992 2.8866s-4.9456-3.5213-9.8907-7.7764c-14.569-12.536-30.424-19.758-43.353-19.758-5.5007 0-7.5425 0.53664-9.5037 2.4978-1.3738 1.3738-2.7108 2.2847-2.9712 2.0243-0.82535-0.82535 1.6839-13.994 3.3093-17.368 0.85811-1.781 2.909-3.552 4.5576-3.9356 2.3258-0.54106 3.0825-1.5726 3.3774-4.6044 0.30335-3.1192 1.2301-4.3125 4.5952-5.9172 4.0622-1.9371 4.3833-1.9133 8.8496 0.65714 6.4761 3.7272 7.6098 3.3367 4.4701-1.5395-4.6254-7.1836-17.727-11.948-24.8-9.0186-12.488 5.1729-18.745 31.135-10.463 43.423 2.7453 4.0737 3.4529 4.3319 18.767 6.8468 3.6267 0.59562 10.37 2.5161 14.987 4.2678 12.897 4.8943 43.779 13.838 47.782 13.838 4.7025 0 3.4056 1.1321-2.9267 2.5549-4.6722 1.0498-5.878 0.75096-14.78-3.6632-7.7715-3.8535-11.832-5.0512-20.484-6.0419-29.284-3.3533-75.396 0.74801-86.031 7.6519-1.4798 0.96059-5.3881 2.6482-8.6852 3.7503-10.332 3.4534-11.792 6.6792-3.5031 7.7393l4.702 0.60129-7.0064 3.595c-18.164 9.32-35.265 27.434-46.934 49.714-8.4683 16.168-8.5404 17.543-0.72216 13.77 3.2361-1.5611 7.2589-3.1835 8.9396-3.6054l3.0559-0.76699-2.2116 4.6128c-3.0593 6.3807-5.2006 12.998-9.7718 30.199-5.022 18.898-10.971 30.774-17.702 35.339-5.357 3.6326-6.5389 7.6244-3.1021 10.477 1.5523 1.2883 2.4376 1.2266 5.1172-0.3562 3.8162-2.2543 6.9387-1.0603 8.5907 3.285 2.3085 6.0716 17.34 16.844 48.558 34.796 28.07 16.142 46.487 27.4 59.259 36.224 16.983 11.732 15.398 11.32 40.253 10.492 11.869-0.39489 32.318-1.3857 45.441-2.2018zm-39.44-7.3375c-0.65942-0.20928-8.8774-1.0501-18.262-1.8684-13.042-1.1374-17.461-1.1572-18.754-0.0844-2.9419 2.4416-43.193-25.124-65.492-44.852-35.493-31.4-41.642-35.837-47.928-34.579l-3.8145 0.76291 5.4434-8.1165c8.8067-13.132 18.711-42.937 17.041-51.285-1.1747-5.8734 7.0376-19.633 13.808-23.134 4.7677-2.4655 4.4648-6.9392-0.50853-7.5094-1.8533-0.2125-4.0114 0.13208-4.7957 0.76574-1.7786 1.4368-18.639 8.6127-20.236 8.6127-1.2714 0 3.1997-6.0656 12.759-17.308 12.464-14.66 41.408-32.477 55.045-33.885 3.7156-0.38349 6.7558-1.2537 6.7558-1.9337 0-0.68009 0.88804-2.2178 1.9734-3.4172 1.8609-2.0563 1.7358-2.2799-2.1966-3.9229-2.2935-0.9583-6.948-2.1109-10.343-2.5612-3.3952-0.45038-5.9306-1.2112-5.6342-1.6907 0.29636-0.4795 4.2374-1.2156 8.758-1.6357 4.5206-0.42014 9.7977-1.2883 11.727-1.9292 6.4253-2.1343 29.506-3.559 40.676-2.5107 14.952 1.4034 34.314 6.444 44.683 11.634l8.7147 4.361 10.468-2.719c5.7576-1.4955 14.201-4.0015 18.765-5.5689 11.214-3.8522 27.101-5.7605 38.69-4.6474 9.743 0.93583 9.6807 1.3702-0.59079 4.1358-10.054 2.7068-7.7288 7.8074 3.987 8.7478 6.015 0.48283 9.3062 1.5403 14.398 4.6259 9.1858 5.5672 11.946 10.136 14.882 24.637 3.049 15.06 3.0631 16.76 0.14521 17.524-1.567 0.40977-2.1295 1.3365-1.7325 2.8545 0.32328 1.2362 0.10562 3.5512-0.48369 5.1443-0.89838 2.4286-1.193 1.7341-1.8235-4.2982-0.41361-3.9572-1.2785-8.5053-1.9222-10.107-0.87037-2.1662-1.0012-1.0694-0.51038 4.2812 0.36289 3.9565 0.0475 21.532-0.70104 39.056-1.008 23.6-1.0115 33.492-0.014 38.143 1.147 5.348 1.0627 6.5939-0.56749 8.3953-1.0529 1.1634-1.9334 3.4217-1.9569 5.0183-0.0234 1.5966-0.72219 4.127-1.553 5.6232-0.83077 1.4961-14.233 16.375-29.782 33.063-19.22 20.628-29.758 31.033-32.916 32.498-2.5546 1.1853-6.3999 3.4654-8.5449 5.0668-3.2882 2.4548-6.016 3.0866-17.385 4.0273-13.053 1.0799-27.811 1.3651-30.27 0.58481zm-38.99-72.7c10.716-8.0742 21.405-19.805 29.863-32.774 4.8499-7.436 5.565-8.0939 5.932-5.4578 0.51021 3.6646 2.3016 5.9947 4.6086 5.9947 0.9886 0 3.5696-3.9808 6.0245-9.2917 4.4311-9.5864 4.523-9.6183 6.8012-2.3979 0.3641 1.154 1.5016 2.0981 2.5277 2.0981 2.2752 0 4.2042-4.7117 4.2042-10.269 0-2.265 0.53952-4.1182 1.1989-4.1182 0.65941 0 1.1989 0.61568 1.1989 1.3681 0 2.2162 12.271 27.407 13.351 27.407 1.62 0 5.3296 8.5098 6.9095 15.851 1.8662 8.6711 7.6553 16.369 12.377 16.459 2.1628 0.0411 8.0909-3.1903 17.569-9.5764 17.254-11.626 23.347-16.866 31.004-26.666l5.8267-7.4565 0.33768-11.113c0.18573-6.112-0.27132-16.094-1.0156-22.18-1.5448-12.633-6.7614-39.567-8.5295-44.038-1.5106-3.8201-12.539-10.369-22.68-13.469-9.5652-2.9236-39.96-4.2788-50.771-2.2636-4.9078 0.91492-7.7129 0.9299-9.357 0.05-5.5868-2.99-16.339-3.5472-32.938-1.7069-9.0537 1.0038-18.659 2.4131-21.345 3.1318-11.97 3.2027-22.684 7.2394-31.227 11.766-5.0762 2.6894-9.8831 4.8899-10.682 4.8899-0.79875 0-4.3946 1.8746-7.9908 4.1656-3.5962 2.2911-6.8512 4.1794-7.2332 4.1963-0.38207 0.0169-0.65183-1.1832-0.59947-2.6669 0.0733-2.0755-0.65891-2.7845-3.1748-3.0744-3.1006-0.35724-3.6684 0.45-10.961 15.586-8.533 17.71-13.552 30.884-15.215 39.942-0.60551 3.2971-2.2468 10.891-3.6472 16.876l-2.5464 10.882 2.9708 3.2056c1.6339 1.763 3.7182 3.2069 4.6317 3.2086 0.9135 0.00096 4.8634 1.9341 8.7775 4.2943 3.9142 2.3602 11.737 6.2175 17.385 8.5717 13.464 5.6126 42.086 15.766 44.664 15.844 1.1134 0.0336 6.4004-3.2364 11.749-7.2666zm-41.416-12.862c-17.532-6.9718-27.088-12.295-33.644-18.744l-4.9424-4.8606 1.544-10.175c1.2428-8.1893 3.4151-14.345 11.135-31.553 5.2747-11.758 9.7718-21.497 9.9924-21.643 25.178-16.538 37.696-19.554 87.325-21.038 19.337-0.57825 30.603-1.4025 32.971-2.4123 2.7632-1.1784 9.9598-1.35 31.05-0.74029 30.288 0.87553 34.291 1.7405 34.291 7.4083 0 2.0265 0.78588 3.2843 2.2993 3.6801 5.6697 1.4826 10.316 21.232 11.984 50.943 1.2263 21.838 0.93836 24.561-2.9175 27.594-9.0753 7.1386-30.764 22.447-32.574 22.992-5.2247 1.5717-18.489-12.34-27.012-28.333-2.9306-5.4982-4.1512-6.7837-5.9113-6.225-1.5998 0.50773-2.2233 0.0965-2.2365-1.4749-0.01-1.1985-0.54961-2.9882-1.1989-3.9773-1.0125-1.5423-1.3368-1.5557-2.2776-0.0943-0.83631 1.2993-1.5455 0.587-2.9844-2.9973-3.9129-9.7469-5.3362-10.24-7.8573-2.7205l-1.7478 5.2126-0.65937-3.5821c-1.2307-6.686-4.3056-5.1288-8.9536 4.5347-2.3519 4.8898-4.2762 9.4766-4.2762 10.193 0 0.71615-0.61273 1.6808-1.3616 2.1436-0.97814 0.60451-1.2035-1.064-0.80056-5.9239 0.43039-5.19 0.18008-6.7654-1.0749-6.7654-0.89976 0-2.0232 1.0395-2.4965 2.3101-0.47332 1.2706-6.6453 7.3402-13.716 13.488-15.493 13.472-39.579 28.576-45.507 28.536-2.1906-0.0147-10.49-2.6142-18.442-5.7767zm101.38-52.594 2.9973-0.81514-2.9973-0.90033c-1.6486-0.49519 4.8257-0.82953 14.387-0.74299 16.685 0.15102 17.891-0.006 29.973-3.8978 11.587-3.7326 12.255-4.108 8.3925-4.72-2.6005-0.41198-6.7039 0.19533-10.79 1.5971-5.6309 1.9314-11.936 2.3852-43.162 3.1065-35.457 0.81905-37.041 0.75668-52.154-2.053-23.444-4.3586-24.983-4.5289-24.373-2.6985 1.5918 4.7753 66.769 14.103 77.725 11.124zm11.113 0.0614c-0.81172-0.32841-2.4303-0.34839-3.5968-0.0445-1.1665 0.30399-0.50239 0.57268 1.4758 0.59712 1.9782 0.0245 2.9327-0.22428 2.121-0.5527zm50.029-26.214c0-1.0035-3.2517-3.9262-7.2259-6.4949-8.7678-5.6668-15.531-6.6155-46.126-6.4692-31.904 0.15259-65.376 4.3888-82.726 10.47l-8.3925 2.9414 6.233 0.0892c3.4282 0.049 12.33-0.70006 19.782-1.6648 18.622-2.4107 64.814-4.4346 80.091-3.5092 7.4583 0.45181 16.497 1.8981 22.18 3.5486 11.486 3.3361 16.186 3.6523 16.186 1.089zm22.18-247.28c-3.4878-0.64673-12.859-5.0275-15.205-7.108-1.1095-0.9838-1.7471-2.4927-1.417-3.3533 0.3302-0.86046 0.0767-1.8881-0.56332-2.2836-1.9498-1.2051 5.1781-7.7363 11.313-10.366 5.8978-2.5281 21.439-7.1412 24.058-7.1412 0.79883 0 1.8129 2.4247 2.2595 5.4023 1.7912 11.944-10.365 26.719-20.445 24.85zm16.949-2.8039c5.1312-5.7479 7.6287-12.56 7.6287-20.807 0-7.6706 0.0686-7.8408 3.158-7.8408 6.0569 0 12.609 2.7163 13.742 5.6974 2.5885 6.8084 1.3428 11.364-4.9172 17.981-4.9037 5.1838-6.6712 6.2944-10.017 6.2944-2.2348 0-5.8842 0.34748-8.1097 0.77217l-4.0464 0.77217 2.5623-2.8704zm-45.118-0.93997c0-0.58356 1.2512-1.8809 2.7805-2.8828 2.546-1.6682 2.8998-1.6306 4.1963 0.44531 2.0431 3.2716 1.8627 3.4986-2.7805 3.4986-2.3079 0-4.1963-0.47748-4.1963-1.061zm68.137-34.749c-3.7378-1.0761-7.1926-2.3539-7.6774-2.8398-1.2066-1.2095 5.4108-3.8304 17.399-6.8913 8.4712-2.1629 10.286-2.307 11.667-0.92654 1.3805 1.3805 0.79536 2.511-3.761 7.2662-5.9751 6.236-7.0368 6.4403-17.627 3.3916zm-518.39-13.96c-0.92985-7.3977 0.34011-70.678 1.6952-84.469l0.76132-7.7484 21.581-7.6498c11.869-4.2074 27.246-9.437 34.17-11.621 6.9239-2.1844 23.649-7.4768 37.167-11.761 58.975-18.691 73.505-22.921 103.57-30.149 28.852-6.9363 65.628-12.774 94.729-15.038 22.809-1.7739 78.545-1.4616 100.42 0.56268 40.422 3.7396 78.108 9.6557 108.12 16.972 10.667 2.601 12.869 3.5125 12.332 5.1032-0.35978 1.0651-2.0135 5.7837-3.6751 10.485-1.6615 4.7018-4.8966 17.854-7.1891 29.226-2.2925 11.373-4.3753 20.884-4.6286 21.138-0.25327 0.25327-0.82224-8.3653-1.2643-19.152-1.1494-28.043-4.1766-37.963-11.585-37.963-2.4312 0-3.9994 1.1343-6.2155 4.496-5.5843 8.4713-14.441 34.514-17.672 51.966l-1.4637 7.9043-53.552-0.0807c-66.718-0.10047-106.63 2.7891-164.03 11.876-76.927 12.177-116.1 21.614-166.47 40.115-11.211 4.1167-22.005 7.6385-23.987 7.8261-3.6359 0.34405-19.558 6.4492-37.05 14.207-5.3918 2.3912-10.641 5.6576-12.167 7.5708l-2.6833 3.3652-0.90284-7.1827zm541.8-56.741c-3.3934-2.4164-7.0542-4.9329-8.1352-5.5924-1.8009-1.0986-1.7094-2.4495 1.0933-16.144 3.9101-19.105 10.051-42.885 12.131-46.976 1.3208-2.5978 2.5988-3.2521 7.042-3.6054l5.4282-0.43172 0.004 7.8017c0.0108 21.08-2.7921 64.269-4.3129 66.456-1.538 2.213-1.6359 2.2173-2.4455 0.1073-0.77982-2.0321-0.91562-2.0026-1.8016 0.39241-1.2311 3.3278-1.6374 3.2371-9.0037-2.0084zm-25.005-11.788c-4.6159-1.5351-10.355-3.0746-12.754-3.4212l-4.3612-0.63007 2.1702-6.9728c1.1936-3.8351 3.8333-15.133 5.8661-25.107 2.0328-9.9732 5.049-22.416 6.7025-27.651 2.5288-8.0051 3.3614-9.4244 5.2403-8.9331 1.9944 0.52154 2.3461 2.5333 3.2816 18.767l1.0479 18.183 0.32943-19.482c0.20142-12.066 0.7865-19.471 1.5346-19.471 2.0344 0 13.118 5.9677 13.118 7.0631 0 0.56539-0.84459 3.3888-1.8769 6.2742-2.7182 7.598-6.0269 24.528-8.2887 42.414-1.0841 8.5724-2.3426 16.978-2.7967 18.678l-0.82558 3.0924-8.3925-2.7911zm-31.767-5.9083c-4.2862-0.88856-10.947-1.9443-14.802-2.3462l-7.0084-0.73063 0.79079-4.3954c1.951-10.844 11.958-40.953 16.76-50.431 3.3656-6.6416 4.4254-7.6375 7.0546-6.6286 4.5619 1.7505 6.563 14.151 8.5466 52.964 0.78705 15.4 1.8608 14.305-11.343 11.568zm-475.39-24.43c1.9511-2.156 2.022-3.3265 0.78529-12.97-4.3231-33.71 2.3044-84.738 15.422-118.74 9.5864-24.85 34.352-59.87 61.672-87.208 13.965-13.975 14.98-14.725 29.451-21.774 74.827-36.449 149.4-45.12 223.91-26.038 57.671 14.77 126.24 57.029 159.32 98.188 12.451 15.49 23.591 37.463 29.817 58.813 3.3892 11.621 7.7529 34.71 7.7658 41.089 0.006 3.0161 0.70042 4.2377 3.0053 5.2879 3.1558 1.4379 4.0418 3.4093 1.4987 3.3347-0.82427-0.0242-5.0056-1.786-9.2917-3.9152l-7.7931-3.8712-0.74615-14.368c-0.95009-18.296-3.1381-26.74-11.219-43.299-20.817-42.659-48.552-68.648-93.239-87.371-18.507-7.754-19.946-7.5077-3.899 0.66718 31.197 15.893 54.6 34.628 71.834 57.506 18.74 24.877 28.713 47.518 31.003 70.379 0.74078 7.3975 1.0862 13.711 0.76771 14.029-0.31855 0.31856-3.1367-0.0733-6.2626-0.87068l-5.6834-1.4498-0.56146-10.929c-1.3402-26.087-12.645-46.549-40.207-72.773-13.403-12.754-19.708-16.705-9.3681-5.8715 17.687 18.53 31.79 41.524 38.201 62.28 2.7714 8.9727 3.3433 24.325 0.90523 24.299-0.82427-0.009-7.4334-1.0819-14.686-2.3848-12.617-2.2662-26.816-4.1136-56.949-7.4094-22.088-2.4159-100.24-2.0467-124.69 0.5891-62.463 6.7342-136.82 25.173-207.31 51.405-19.315 7.1883-65.375 26.699-69.647 29.501-2.4293 1.594-13.539 6.0501-15.472 6.206-0.26705 0.0216 0.47955-1.0272 1.6591-2.3307zm471.3-81.952c0.88083-2.2954-1.4896-11.973-4.5026-18.383-1.422-3.0252-5.542-8.6937-9.1552-12.596-7.8793-8.5105-13.677-12.288-7.142-4.6521 6.0256 7.0395 12.365 19.544 14.778 29.148 1.9443 7.7402 4.4892 10.481 6.0226 6.4845zm76.041 27.969c0-0.65941 0.53952-1.1989 1.1989-1.1989 0.65942 0 1.1989 0.53953 1.1989 1.1989 0 0.65941-0.53952 1.1989-1.1989 1.1989-0.65941 0-1.1989-0.53952-1.1989-1.1989zm-388.29 391.92c-1.2962-12.607-4.1212-21.2-10.429-31.723-5.3359-8.9018-29.517-40.861-40.689-53.777-18.055-20.874-18.009-20.8-17.574-28.336 0.21362-3.7083-0.2255-9.1235-0.97583-12.033-1.5407-5.9762-12.3-32.219-13.221-32.247-0.32971-0.0108-0.76124 6.2453-0.95896 13.902-0.26121 10.115-0.87153 14.702-2.2325 16.779-2.3099 3.5254-1.5083 8.6816 2.6128 16.804 1.6316 3.216 2.9688 7.4918 2.9716 9.5019 0.006 4.3494 3.814 8.5109 31.476 34.398 35.36 33.091 41.739 42.439 45.208 66.255 1.793 12.308 2.3926 14.325 3.8299 12.888 0.72246-0.72247 0.71611-5.2768-0.0173-12.409zm349.15-34.05c6.2049-14.114 14.291-35.445 13.672-36.065-0.23851-0.23852-4.2348 8.5876-8.8806 19.614s-9.8936 23.284-11.661 27.241c-2.6119 5.845-2.7632 6.6317-0.80753 4.1963 1.3238-1.6486 4.7788-8.3925 7.6778-14.987zm-306.15-8.4309c4.9456-3.8966 20.332-16.579 34.193-28.184 13.861-11.604 32.204-25.731 40.764-31.393 16.241-10.743 31.749-22.923 31.749-24.934 0-2.9338-4.9901-0.49808-15.543 7.587-6.2883 4.8178-25.636 17.631-42.996 28.475-46.947 29.326-66.418 45.926-66.012 56.283 0.0906 2.3079-0.25186 5.2753-0.76073 6.5941-0.61353 1.5901 0.85002 0.75711 4.3443-2.4725 2.8983-2.6787 9.3159-8.0585 14.262-11.955zm-5.9446-3.677c7.3033-7.5364 30.05-24.596 42.812-32.109 3.9177-2.3064 0.009 1.2585-17.984 16.4-16.394 13.796-26.746 21.225-29.577 21.225-0.32758 0 1.8097-2.4821 4.7495-5.5157zm196.64 0.39986c-5.5074-2.7873-7.2703-7.8372-8.0927-23.183-0.85481-15.951-2.5762-15.477-2.6264 0.72317-0.0468 15.049 3.8897 23.999 10.54 23.961l3.1113-0.0177-2.9317-1.4837zm-6.071-69.219c-1.0589-16.932-5.0252-39.43-10.885-61.744-6.3508-24.183-7.6003-27.575-10.157-27.575-2.0254 0-2.3753 1.0086-2.7037 7.7931-0.70517 14.567 5.247 36.561 9.6548 35.674 0.83232-0.16754 1.5133 0.44529 1.5133 1.3618 0 1.6935-2.6324 3.1993-21.244 12.152-10.295 4.9526-14.007 7.6795-12.502 9.1846 0.84632 0.8463 31.62-12.513 32.646-14.171 1.4209-2.299 2.7226-0.75529 3.9263 4.6556 0.69669 3.1322 2.7193 13.518 4.4947 23.079 3.6727 19.78 5.2406 26.803 5.8476 26.196 0.23204-0.23204-0.0336-7.7049-0.59026-16.607zm-188.99-8.0952c8.0112-6.4293 16.633-13.235 19.16-15.125 3.2006-2.3936 4.213-3.8163 3.3381-4.691-0.87478-0.87478-5.8275 0.89431-16.331 5.8333-15.566 7.3196-19.783 10.119-19.783 13.13 0 2.4671 2.7344 2.1756 6.3624-0.67808 1.6989-1.3364 5.1437-3.2421 7.655-4.235l4.5661-1.8052-2.9973 2.4848c-1.6486 1.3666-5.4251 4.5209-8.3925 7.0096-2.9674 2.4886-6.3394 4.8778-7.4933 5.3094-1.9158 0.71645-3.0688 4.4567-1.3738 4.4567 0.3984 0 7.279-5.2603 15.29-11.69zm109.36-60.31c1.2498-1.0372 1.0846-2.3668-0.85703-6.8964-1.323-3.0862-3.7157-7.3294-5.3173-9.4293-1.6018-2.1005-2.9158-4.0668-2.9158-4.3641 0-0.29884 2.3613-0.89744 5.2474-1.3302 4.6609-0.69894 6.2484-1.8867 14.203-10.626 4.9254-5.4119 9.7929-11.46 10.815-13.44 1.023-1.9798 2.9944-4.6262 4.3807-5.8807 2.8315-2.5625 3.2696-5.054 1.022-5.8116-0.82427-0.27782-5.7864 1.5655-11.026 4.0963-8.3705 4.0424-10.589 4.6015-18.258 4.6015-8.0194 0-22.289-3.5442-29.315-7.2816-2.4672-1.3122-37.53-10.785-52.601-14.211-13.542-3.0784-50.355-5.0331-50.355-2.6738 0 0.7626 1.4837 1.3939 3.2971 1.4029 4.7585 0.0236 8.7705 1.285 8.0086 2.5178-0.36121 0.58445-2.4867 1.0626-4.7232 1.0626-9.5775 0-34.868 7.1042-39.324 11.046l-2.6273 2.3245 2.9973-0.75963c7.6605-1.9414 23.071-3.1182 31.772-2.4261 10.615 0.84437 34.221 5.1828 35.734 6.5671 0.53049 0.48575-1.9918 1.1883-5.605 1.5612-3.6132 0.37292-9.0378 1.7699-12.055 3.1044-6.6486 2.9409-7.3898 5.5818-1.2889 4.5918 2.3079-0.37453 4.1963-0.48656 4.1963-0.24894 0 0.23761-3.9115 3.0097-8.6923 6.1602s-9.024 6.2081-9.4295 6.7946c-0.40548 0.58653-1.971 1.692-3.4791 2.4567-7.3773 3.7406-6.1777 10.223 2.727 14.735 15.082 7.6424 25.912 9.1076 69.829 9.4463 27.989 0.21586 38.271 0.69393 41.638 1.936 5.5826 2.0597 19.926 2.6931 22.001 0.97152zm-59.272-9.8639c13.405-8.1612 17.815-12.685 17.815-18.274 0-1.0768 0.40464-1.7607 0.8992-1.5198 4.1425 2.0183 7.5562 3.5326 11.356 5.0378 3.2099 1.2712 5.6785 3.6679 8.7927 8.536 2.3814 3.7226 4.1497 6.9195 3.9296 7.1038-0.22009 0.18443-10.917 0.65648-23.771 1.049l-23.371 0.71367 4.348-2.6471zm-48.13-5.1506c-8.2427-3.6562-15.661-6.9406-16.486-7.2988-0.82427-0.3582-1.4804-0.99818-1.4581-1.4222 0.0638-1.2102 17.958-11.297 21.11-11.9 2.7024-0.5166 2.8281-0.23862 2.8281 6.2528 0 7.8761 2.2447 13.111 7.6039 17.733 2.0823 1.7956 3.2464 3.269 2.587 3.274-0.65941 0.005-7.9429-2.9822-16.186-6.6384zm25.321 2.9579c-9.6586-2.8774-13.332-8.2391-13.332-19.452 0-4.3164 0.60444-6.9875 1.8071-7.9857 2.2502-1.8675 12.631-0.92131 31.164 2.8405l13.188 2.677-0.42362 3.5301c-0.8668 7.2233-9.1565 18.423-13.756 18.584-0.77368 0.0272-4.374 0.26807-8.0008 0.53533-3.6267 0.26726-8.418-0.0584-10.647-0.72366zm-147.67-27.44c0.20409 6.3898 0.29618 6.1855 2.9722-6.5941 3.7675-17.992 4.6282-25.42 3.0578-26.391-1.873-1.1576-4.4212 1.4045-5.1205 5.1483-0.33473 1.7922-1.9924 10.674-3.6837 19.738-1.6914 9.0638-3.348 21.472-3.6816 27.575l-0.60646 11.096 3.4258-18.583c2.9534-16.021 3.4548-17.674 3.6364-11.989zm333.24 17.536c1.921-2.3146 0.70751-4.3861-5.0596-8.6373-4.5912-3.3842-4.9865-4.1035-4.7783-8.6923 0.25782-5.6823-1.0911-6.2984-5.2452-2.3958-4.934 4.6353-2.6985 10.93 6.2989 17.738 5.3037 4.013 6.8184 4.3556 8.7842 1.987zm-61.877-1.4392c14.819-3.8366 23.633-10.378 23.633-17.533 0-3.6428-5.2416-15.942-7.3491-17.245-2.1776-1.3458-2.2446 0.19889-0.23095 5.325 2.6949 6.8605 1.189 12.931-4.087 16.476-4.8853 3.2828-17.759 6.3605-27.898 6.6695-11.205 0.34147-14.201 2.2123-10.106 6.3084 2.5164 2.5164 16.316 2.5151 26.032-0.002zm-271.71-7.9993c-0.33259-0.82427-0.60473-0.14987-0.60473 1.4987 0 1.6485 0.27214 2.323 0.60473 1.4987 0.3326-0.82427 0.3326-2.173 0-2.9973z"/>
</svg>
