<?xml version="1.0" encoding="UTF-8" standalone="no"?>
<!-- Created with Inkscape (http://www.inkscape.org/) -->
<svg id="svg4136" xmlns:rdf="http://www.w3.org/1999/02/22-rdf-syntax-ns#" xmlns="http://www.w3.org/2000/svg" height="800" viewBox="0 0 600 800" width="600" version="1.1" xmlns:cc="http://creativecommons.org/ns#" xmlns:dc="http://purl.org/dc/elements/1.1/">
 <metadata id="metadata4142">
  <rdf:RDF>
   <cc:Work rdf:about="">
    <dc:format>image/svg+xml</dc:format>
    <dc:type rdf:resource="http://purl.org/dc/dcmitype/StillImage"/>
    <dc:title/>
   </cc:Work>
  </rdf:RDF>
 </metadata>
 <path id="path4146" fill="#fff" d="m358.23 693.01c-4.3042-6.4982-5.6794-13.135-5.7021-27.521-0.0182-11.542-0.17305-12.565-2.0197-13.345-3.4101-1.4401-17.224-5.5364-36-10.676-39.609-10.841-76.663-24.646-94.181-35.088-5.7026-3.3991-6.0989-3.5038-5.1185-1.352 1.3494 2.9617 0.41626 5.4599-2.0395 5.4599-1.2151 0-3.4306-2.2573-6.1342-6.25-4.8138-7.1089-4.8311-7.2647 0.93869 8.44 2.3622 6.4295 4.0255 12.392 3.6962 13.25-1.524 3.9714-4.5639 1.3681-15.11-12.94-5.8783-7.975-10.795-14.5-10.926-14.5-0.13109 0-0.25671 5.2028-0.27916 11.562-0.0333 9.433-0.34854 11.87-1.7121 13.233-3.432 3.432-4.7773 0.59718-8.4501-17.806-2.6971-13.514-3.2442-17.99-2.4546-20.082 0.92897-2.4611 0.18829-3.8795-8.6421-16.549-14.077-20.197-20.966-32.33-27.038-47.615-1.2843-3.233-4.5368-8.2844-7.418-11.521-2.822-3.1698-6.604-7.554-8.4045-9.7427l-3.2736-3.9793 2.4628 7c2.4001 6.8217 2.4155 7.0481 0.6069 8.889-1.0208 1.0389-2.5212 1.6337-3.3342 1.3216-2.54-0.97467-16.849-20.79-19.975-27.661-8.2182-18.065-21.876-63.443-27.151-90.213-4.9505-25.121-5.7925-58.341-2.0863-82.308 2.3849-15.423 10.878-48.775 16.068-63.103 5.6142-15.497 17.509-39.705 25.267-51.424 11.028-16.658 30.578-36.863 48.637-50.266 17.997-13.357 48.011-24.45 73.701-27.239 4.5893-0.49825 5.7504-1.0013 6.1899-2.682 0.42504-1.6253 1.1143-1.9592 3.216-1.5574 1.6083 0.30744 5.1215-0.48759 8.8101-1.9937 22.146-9.0423 55.162-13.848 78.842-11.477 20.59 2.0621 36.21 7.3364 67.293 22.722 24.188 11.973 37.071 20.894 52.581 36.409 10.122 10.126 21.216 24.23 23.663 30.085 0.80466 1.925 4.7264 8.675 8.715 15 18.66 29.59 34.325 65.775 42.859 99 2.3781 9.2582 5.4394 26.826 7.6672 44 1.7533 13.516 2.4594 57.803 1.1356 71.23-1.6172 16.404-2.9091 19.082-7.293 15.115-1.7502-1.5839-1.8288-1.4229-1.8294 3.75-0.00033 2.9728-0.87123 13.28-1.9353 22.905s-2.2388 20.875-2.6104 25c-0.72266 8.021-1.6213 10-4.5409 10-2.4703 0-3.9006-2.9487-3.9699-8.1843-0.0568-4.2903-0.0744-4.2686-2.9909 3.6843-1.6136 4.4-3.6109 9.35-4.4385 11-4.2588 8.4908-22.85 63.224-29.042 85.5-1.4523 5.225-4.6787 16.475-7.1698 25-7.7307 26.457-10.283 39.924-10.295 54.316l-0.007 8.8164-2.7146-0.31642c-2.3482-0.27371-2.9809-1.1263-4.687-6.3164-1.8396-5.5963-1.96-8.5904-1.7896-44.5l0.18271-38.5-5.5333 10c-3.0433 5.5-10.033 19.197-15.532 30.438-10.275 21.004-15.486 29.226-20.025 31.598-1.429 0.7469-5.5237 1.897-9.0993 2.5559-6.5589 1.2085-9.8261 0.55848-22.859-4.5481-2.8499-1.1166-7.2983 17.04-8.1968 33.456-0.22091 4.0359-0.51655 4.5313-2.8664 4.8039-2.1516 0.24956-3.1633-0.51619-5.6581-4.2827zm6.7782-4.8965c0-9.0828 3.0893-24.349 6.5505-32.369 0.0581-0.1346 4.1205 1.1311 9.0276 2.8127 9.9005 3.3927 13.081 3.6932 20.43 1.93 7.2926-1.7495 10.519-6.1166 22.9-30.998 14.307-28.752 24.061-47 25.122-47 0.47834 0 1.0157 19.238 1.1942 42.75 0.27216 35.861 0.57625 43.388 1.8872 46.712l1.5628 3.962 0.6652-9.462c0.60068-8.5444 1.9064-17.073 4.5871-29.962 0.51477-2.475 3.5018-13.275 6.6378-24s6.9536-24 8.4835-29.5c6.485-23.314 24.108-74.037 27.546-79.284 0.87216-1.3311 1.368-3.2526 1.102-4.2701-0.26608-1.0175-0.0687-1.9884 0.4387-2.1575 1.2044-0.40145 6.5346-16.401 7.411-22.245 1.2209-8.1418 2.4539-4.7934 2.4695 6.7069 0.008 6.1875 0.40811 11.87 0.8882 12.628 1.3984 2.2078 3.0965 0.30274 3.0965-3.4741 0-1.9128 1.1005-14.374 2.4455-27.691 2.9452-29.16 3.2356-33.797 4.2404-67.713 0.92026-31.06 1.7921-27.343 2.8144 12 0.68377 26.315 1.1196 30.685 2.5595 25.664 3.105-10.827 3.5704-52.751 0.86788-78.164-4.9093-46.163-17.46-86.426-39.69-127.33-10.261-18.88-17.098-28.669-28.223-40.409-10.573-11.157-17.823-16.76-21.686-16.76-4.2506 0-2.5942 3.3034 4.165 8.3061 6.764 5.0063 19.865 19.511 27.725 30.694 2.5125 3.575 7.7116 11.998 11.554 18.718 19.477 34.066 29.288 67.285 35.229 119.28 2.3352 20.438 2.273 19.289 0.99928 18.501-0.55-0.33992-1.0449-2.504-1.0997-4.809s-0.49311-5.316-0.97396-6.691c-0.95681-2.736-0.84164-0.36134 1.1398 23.5 1.2432 14.971 0.61652 60.446-0.9439 68.5-0.47953 2.475-0.96689 3.825-1.083 3-0.11613-0.825-0.73495-6-1.3752-11.5-0.89026-7.6481-1.5128-10-2.6471-10-1.9433 0-2.927 4.9131-4.0854 20.405-1.8145 24.266-6.3904 45.937-10.505 49.75-1.6717 1.5492-2.4268 1.8143-2.4268 0.85172 0-3.3496 4.0387-28.479 4.9713-30.932 1.4334-3.7703 1.2978-4.5756-0.77047-4.5756-1.4674 0-1.7238-0.64547-1.3906-3.5 0.22473-1.925 0.006-3.5-0.48655-3.5-0.94599 0-4.4722 16.439-4.0754 19 0.38142 2.4616-2.4412 24.377-3.3487 26-0.54256 0.97037-0.85232-0.26542-0.8773-3.5-0.0966-12.51-3.5621-34.889-8.7247-56.34-1.9404-8.0629-5.227-23.123-7.3036-33.467-3.4251-17.062-4.9939-22.844-4.9939-18.405 0 0.89129 1.3364 10.079 2.9698 20.417 4.5354 28.705 10.181 71.288 9.7677 73.67-0.2677 1.5421-0.58896 1.0879-1.1702-1.6546-0.64918-3.0629-1.1514-3.6691-2.6463-3.1947-1.4457 0.45884-2.665-0.74992-5.633-5.5844-6.2689-10.211-16.111-23.015-28.788-37.452-6.6-7.5161-15.262-18.013-19.249-23.327-8.72-11.623-20.876-35.41-25.379-49.662-1.7377-5.5-3.5282-10.411-3.979-10.913-1.0931-1.2176-2.8938 3.6812-2.8938 7.8726 0 1.8313 0.85501 6.1895 1.9 9.6849s2.1958 10.322 2.5574 15.17c1.1874 15.921 6.0432 29.79 16.696 47.686l3.2739 5.5-5.624-5c-5.9351-5.2766-15.121-15.195-20.543-22.183-5.1796-6.6746-14.923-29.152-22.245-51.317-3.7245-11.275-7.989-23.2-9.4767-26.5-4.7555-10.549-11.226-27.657-14.94-39.5-1.9834-6.325-4.273-12.85-5.0881-14.5s-3.7754-8.594-6.5785-15.431c-13.113-31.985-25.787-52.118-43.299-68.785-4.7482-4.5191-8.633-9.0416-8.633-10.05s-0.48605-2.3196-1.0801-2.9136c-0.77347-0.77347-0.76872-2.1787 0.0168-4.95 0.60328-2.1284 1.3822-8.0324 1.7309-13.12 0.34873-5.0875 1.0537-9.25 1.5666-9.25 1.8335 0 15.685 5.924 19.536 8.3552 13.34 8.4215 25.867 22.463 42.368 47.495 17.605 26.706 21.755 35.995 30.443 68.149 3.6314 13.44 3.9401 14.154 4.2219 9.7682 0.56108-8.7319-10.027-45.494-19.47-67.603-4.5476-10.647-19.692-36.311-28.567-48.409-9.256-12.618-23.082-23.012-37.479-28.177-2.0831-0.74722-5.8124-2.5688-8.2874-4.0479l-4.5-2.6893 7.5781 0.60515c35.509 2.8355 80.403 31.122 106.9 67.351 4.5441 6.2141 8.4751 11.085 8.7355 10.825 0.84076-0.84076-6.614-12.648-14.515-22.991-10.904-14.273-25.961-29.581-38.195-38.83-11.897-8.995-30.468-18.633-41.892-21.742-4.0658-1.1064-7.6658-2.303-8-2.659-0.33416-0.35606 2.4788-0.32591 6.251 0.067 37.67 3.9236 86.875 52.041 118.65 116.03 15.961 32.14 23.759 63.494 24.087 96.856 0.14326 14.579 1.3961 17.522 2.3521 5.5245 1.657-20.795-2.4828-49.304-10.655-73.38-18.278-53.848-55.08-105.93-93.273-132-4.0288-2.75-8.1573-5.5715-9.1745-6.27-1.6716-1.1478-1.609-1.2072 0.65052-0.61694 5.5168 1.4411 23.754 10.023 35.282 16.603 14.061 8.0259 25.422 15.968 38.221 26.72 4.952 4.1599 9.8632 8.2385 10.914 9.0635 4.1674 3.2727-0.60006-3.2131-8.2607-11.238-21.454-22.475-61.353-44.671-92.242-51.315-8.4148-1.8098-31.803-2.3996-44.665-1.1264-4.5944 0.45479-8.25 0.43404-8.25-0.0468 0-0.93969 12.283-3.6652 23.614-5.2397 3.9128-0.5437 13.813-1.0197 22-1.0577 12.185-0.0566 16.973 0.37524 26.386 2.38 45.323 9.6522 93.273 34.678 118.57 61.886 7.7018 8.2823 5.8247 4.3546-2.9574-6.1883-12.62-15.15-30.274-30.121-47.035-39.884-19.359-11.277-47.89-23.482-66.229-28.33-8.0166-2.1194-10.929-2.3381-30.852-2.3166-17.381 0.0187-23.785 0.40433-30.5 1.8365-11.985 2.556-25.345 6.3575-32.359 9.2074-3.2924 1.3378-7.2784 2.4324-8.8577 2.4324-2.18 0-2.8007 0.42141-2.5776 1.75 0.25257 1.5042-0.82986 1.8376-7.7062 2.3738-15.323 1.1949-38.45 7.9066-55 15.962-15.982 7.7789-34.022 22.489-51.09 41.659-22.264 25.006-38.356 58.666-49.364 103.26-7.0495 28.555-7.5106 32.444-7.5293 63.5-0.01494 24.858 0.23953 29.417 2.2679 40.627 4.1622 23.004 11.428 49.674 20.534 75.373 7.6401 21.563 10.859 28.214 16.682 34.475 0.825 0.887 3.075 3.9546 5 6.8169s4.0625 5.205 4.75 5.2061c1.5696 0.002 1.6919 0.68442-1.3453-7.5024-4.253-11.464-10.407-29.825-10.373-30.949 0.0174-0.57576 2.1549 3.0032 4.75 7.9532 5.7676 11.001 8.9196 15.543 18.409 26.525 4.4932 5.2002 8.0852 10.466 9.2096 13.5 4.0249 10.862 15.3 30.823 26.243 46.462 11.14 15.919 11.474 16.549 10.076 18.989-1.2966 2.2644-1.1414 4.1178 1.5087 18.024 1.6246 8.525 3.1954 16.175 3.4908 17 1.2497 3.4914 2.451-6.2492 2.1273-17.25-0.19015-6.4625-0.0405-11.75 0.33266-11.75 0.37311 0.00002 6.1698 7.425 12.882 16.5 6.7118 9.075 12.528 16.5 12.924 16.5 0.39655 0-4.1402-12.938-10.082-28.75-5.9414-15.812-11.916-33.057-13.278-38.322-3.6291-14.033-5.909-37.017-3.8012-38.32 0.45304-0.28 2.232 2.9559 3.9532 7.191 3.118 7.6718 3.1238 7.7203 1.5735 13.228l-1.556 5.5281 5.7462 15.972c3.1604 8.7846 5.7091 17.5 5.6637 19.368-0.10891 4.4798 3.1321 8.6174 12.176 15.544 8.8552 6.7826 19.963 13.176 32.265 18.571 12.471 5.4693 52.092 18.805 71.355 24.018 8.525 2.3066 20.675 5.7744 27 7.7061s12.549 3.7409 13.832 4.0205c1.874 0.40845 2.1874 0.92419 1.5957 2.626-1.3612 3.9146-1.6035 16.787-0.44202 23.481 1.7202 9.914 6.72 20.055 9.148 18.554 0.47649-0.29449 0.86635-3.3512 0.86635-6.7928zm14-33.133c-11.969-2.4226-13.925-2.977-25.5-7.225-10.048-3.6876-42.15-17.064-47.739-19.892-2.6066-1.3188-14.982-6.4822-27.5-11.474-13.114-5.2295-29.542-12.705-38.761-17.638-15.449-8.2672-27.651-15.771-28.325-17.419-0.17883-0.43715-2.4588-2.9738-5.0666-5.6371-3.466-3.5397-5.4832-6.8415-7.4992-12.275-2.5834-6.9624-4.8204-15.932-3.9734-15.932 0.2076 0 2.3664 3.103 4.7974 6.8956 7.5446 11.77 8.7916 11.041 5.0938-2.9779-2.0029-7.5934-2.3868-10.386-1.503-10.932 0.88402-0.54636 0.77195-1.3672-0.43903-3.2154-3.5167-5.3671-4.9646-17.168-4.9409-40.27 0.0245-23.889 1.4953-35.465 6.8613-54 2.5225-8.7134 12.357-34.5 13.157-34.5 0.21716 0 3.0478 1.3392 6.2903 2.976 7.572 3.8224 13.502 4.887 14.387 2.5828 0.55757-1.453 1.0821-1.3426 4.397 0.92613 5.1598 3.5312 18.129 7.2795 27.764 8.0238 9.2704 0.71619 38.759-1.7795 45.5-3.8507 3.9326-1.2084 4.9123-1.1864 7.7697 0.17424 6.3469 3.0223 7.126-1.1209 3.1651-16.832-0.48529-1.925-2.4178-5.8238-4.2945-8.6641-2.3034-3.486-3.0831-5.4932-2.3994-6.1768 2.1189-2.1189-7.9578-14.98-14.173-18.089-5.0522-2.5273-10.35-3.1335-16.902-1.9341-5.773 1.0568-20.642 6.7216-19.815 7.5489 0.25034 0.25033 3.4188-0.46022 7.041-1.579 9.4312-2.913 15.442-3.4897 22.057-2.1163 4.8948 1.0162 6.6509 2.0355 11.353 6.59 3.0595 2.9634 5.2691 5.6815 4.9102 6.0404-0.35886 0.35887-3.0287-0.38057-5.9329-1.6432-10.193-4.4314-26.872-3.6874-43.728 1.9506-7.6748 2.567-8.6951 2.6973-10.723 1.3686-2.9533-1.9351-4.3991-0.8965-3.6897 2.6505 0.74331 3.7166-2.3061 5.7761-5.2512 3.5465-2.2913-1.7347-6.3881-1.9411-6.3881-0.3218 0 0.64419 0.74724 1.997 1.6605 3.0061 2.5318 2.7976 0.96401 3.2834-6.2855 1.9476-3.638-0.67033-6.8982-0.93234-7.2448-0.58225-0.34662 0.35009 0.60728 1.6256 2.1198 2.8344 1.5125 1.2089 2.75 2.4674 2.75 2.7968 0 1.0506-9.204 2.022-10.154 1.0718-0.55057-0.55057 2.3279-6.2381 7.2521-14.329 4.4907-7.379 9.7496-16.116 11.686-19.416 4.0608-6.9191 24.531-28.208 31.303-32.555 5.7506-3.6914 7.66-3.6767 18.583 0.14277 10.358 3.6221 18.045 7.7178 32.013 17.059 5.6011 3.7454 10.62 6.9322 11.154 7.0819 1.2755 0.35766 6.4983-6.8569 7.913-10.931 1.0827-3.1178 1.0012-3.2664-3.0693-5.5988-2.2998-1.3178-7.162-4.2343-10.805-6.4812-3.6428-2.2468-9.2879-5.2068-12.545-6.5776-6.358-2.676-20.834-6.6397-24.249-6.6397-3.0884 0-2.5649-1.6048 2.1666-6.6422 9.5259-10.142 23.978-32.59 27.784-43.156 1.2479-3.4641 2.5978-5.9391 3-5.5 1.577 1.722 7.3082 19.421 10.034 30.985 4.8468 20.566 16.271 52.68 26.037 73.195 3.2421 6.8099 5.8946 12.568 5.8946 12.797 0 1.5287 9.7248 16.797 13.553 21.279 8.593 10.06 9.2904 11.3 10.443 18.564 1.462 9.2181 7.128 26.011 11.765 34.869 2.047 3.9104 6.5077 10.571 9.9127 14.801l6.1909 7.6912-6.6819 2.207c-11.098 3.6658-18.567 13.126-13.982 17.711 2.1394 2.1394 4.5673 1.2816 7.7516-2.7388 2.0687-2.612 5.5499-5.103 10.334-7.3947 7.64-3.6598 11.714-6.8393 11.714-9.1416 0-0.76851-2.4933-4.2385-5.5407-7.711-10.355-11.8-14.887-20.04-22.445-40.814l-3.0927-8.5 7.3415 7.5c4.0378 4.125 11.581 10.425 16.763 14 5.1819 3.575 11.008 8.1453 12.948 10.156 4.0609 4.2106 9.7355 7.8346 12.276 7.84 2.705 0.006 2.0993-1.3808-2.0651-4.7274-4.6195-3.7123-17.241-19.997-23.538-30.368-3.9767-6.5502-11.816-24.27-14.113-31.901-0.41385-1.375 1.8074 1.55 4.936 6.5 7.7228 12.218 11.789 17.486 25.773 33.387 12.206 13.88 22.724 27.409 28.701 36.918 2.7816 4.4254 3.156 5.669 2.2576 7.5-0.59232 1.2072-1.274 7.145-1.515 13.195-0.36055 9.0548-1.0922 13.119-4.1372 22.985-5.7704 18.695-16.158 45.115-21.543 54.791-2.693 4.8395-5.2098 9.7946-5.5927 11.011-1.6483 5.2378-15.796 37.505-20.948 47.78-6.3789 12.719-16.132 24.012-20.592 23.843-1.3057-0.0496-7.549-1.1377-13.874-2.418zm16.274-60.876c6.0396-1.1689 7.1776-1.7785 10.5-5.6251 5.7125-6.6137 7.0956-9.0487 8.3674-14.731 0.7921-3.5392 0.85381-5.9557 0.19008-7.4431-0.92929-2.0826-1.2052-1.9016-5.0668 3.3258-8.5642 11.593-12.958 13.801-26.764 13.454-9.4587-0.23805-10.691-0.53157-22.762-5.4222-7.0192-2.8438-15.156-6.5213-18.081-8.1722-2.9253-1.6509-5.6097-3.0017-5.9654-3.0017-1.3501 0 15.589 15.116 21.238 18.952 8.9796 6.0979 19.243 9.7182 28.071 9.9018 1.925 0.04 6.5482-0.51713 10.274-1.2382zm-6.0952-28.88c3.5559-3.4024 9.7718-7.7356 11.097-7.7356 0.81807 0 2.6887-1.575 4.157-3.5s3.0879-3.5 3.5993-3.5c0.51133 0 3.47-1.6875 6.5749-3.75s6.5735-4.2838 7.7081-4.9363c2.4444-1.4057 5.028-5.9507 4.1709-7.3374-1.1063-1.79-3.4853-1.0116-3.4853 1.1403 0 1.707-0.43542 1.9999-2.25 1.5137-1.2375-0.33164-2.8112-0.60913-3.4971-0.61664-0.68591-0.008-2.9359-1.5237-5-3.3693s-4.7358-3.8706-5.9371-4.5c-3.0954-1.6217-11.885-1.4187-15.312 0.35361-2.6555 1.3732-3.178 1.332-6.2745-0.49503-1.8578-1.0961-5.3694-2.2593-7.8036-2.5848-5.5911-0.74769-8.6522 0.53065-18.466 7.7115-5.0548 3.6988-17.939 10.543-22.46 11.931-2.3834 0.73176-2.3534 0.77156 0.64466 0.85351 5.2634 0.14386 15.343-3.5642 25.514-9.3857 6.4339-3.6828 10.774-5.5271 13-5.5246 3.8287 0.004 9.9738 3.3561 9.5958 5.234-0.33555 1.667 2.7564 1.1303 7.5267-1.3065 5.73-2.927 10.154-2.5009 16.285 1.5687 2.9001 1.925 6.0108 3.5 6.9125 3.5 2.8132 0 0.56381 2.0065-5.0156 4.474-5.403 2.3894-9.041 2.3989-10.978 0.0284-1.4308-1.7509-28.952-0.20584-36.985 2.0764-11.013 3.1289-30.734 3.044-33.924-0.14597-0.79651-0.79651-1.7034-1.0354-2.0152-0.53076-1.1366 1.839 0.72114 4.0567 5.2788 6.302 4.1195 2.0294 6.135 2.296 17.36 2.296 10.843 0 12.761 0.23573 13.121 1.6133 0.2604 0.99611 3.0958 2.4255 7.4114 3.7364 3.8443 1.1677 8.965 3.0193 11.379 4.1147 5.1806 2.3505 6.3053 2.458 8.0682 0.77122zm-13.463-10.206c-10.598-2.3182-8.4209-3.1955 9.5345-3.8424 6.4625-0.23284 11.75-0.26531 11.75-0.0722 0 0.19314-2.235 1.4838-4.9668 2.868-5.4726 2.7732-7.7552 2.9196-16.318 1.0466zm0.41755-62.15c1.5716-1.4222 2.582-1.4711 8.2615-0.39944 8.6958 1.6408 10.858 0.25924 6.3554-4.0615-3.4472-3.3082-9.7811-5.8724-14.566-5.8967-6.1263-0.0312-8.1843 1.3372-8.1843 5.4418 0 5.6854 4.3664 8.3246 8.1331 4.9158zm-5.1497-70.707c-4.0087-13.284-12.544-28.68-15.043-27.136-2.3573 1.4569 1.295 11.518 5.1721 14.248 2.0164 1.4197 4.6123 6.8593 8.6927 18.215 2.218 6.1729 2.7522 6.9997 3.0188 4.6726 0.17814-1.5551-0.65009-6.0551-1.8405-10zm83.047 184.9c-0.0167-8.2128-0.54299-18.929-1.1695-23.814-1.258-9.809-0.45651-14.608 3.1304-18.744 1.1048-1.2738 2.0156-3.4847 2.024-4.913 0.008-1.4283 0.48229-3.272 1.053-4.097 2.3744-3.4321-1.614 60.684-4.0327 64.829-0.66503 1.1397-0.9845-3.075-1.0052-13.262zm-265.7-11.81c-13.573-18.093-31.638-45.461-38.12-57.75-8.1982-15.544-8.0982-18.446 0.25357-7.3647 2.7298 3.622 5.1069 6.1544 5.2825 5.6276 0.17561-0.52681-2.7802-7.664-6.5685-15.86-3.7883-8.1964-8.31-19.178-10.048-24.403-3.7068-11.142-5.0907-13.807-5.1136-9.8468-0.0159 2.7603 6.0802 21.197 8.6555 26.177 2.2157 4.2846 0.96198 4.2564-2.4529-0.0552-1.6627-2.0994-4.4782-7.9839-6.2566-13.077-3.4781-9.9602-5.1669-11.857-2.5539-2.8687 2.1317 7.3327 2.0708 7.5006-1.4872 4.1073-3.6034-3.4366-10.623-13.806-14.173-20.937-3.5309-7.093-7.9204-20.297-7.5558-22.729 0.24933-1.6635 0.91438-1.1217 3.482 2.8366 3.7016 5.7065 16.629 19.949 19.503 21.487 1.8124 0.96996 1.8772 0.87436 0.78773-1.1614-0.65296-1.2201-3.1675-5.1711-5.5879-8.78-5.8778-8.7641-13.799-24.372-15.776-31.085-1.8422-6.2544-2.1002-20.325-0.55145-30.068 1.2563-7.9034 3.9793-18 4.8544-18 0.35159 0 1.6484 8.3183 2.8818 18.485 4.0488 33.374 13.276 61.798 27.465 84.603 6.5992 10.606 7.6001 9.0182 2.7159-4.309-3.5643-9.7257-7.4589-24.47-9.9788-37.779-0.98933-5.225-1.8412-8.5662-1.893-7.4249-0.14814 3.2641 3.6344 23.016 6.3051 32.925 1.3342 4.95 2.2716 9.1561 2.083 9.3469-1.4752 1.4929-10.072-23.583-13.318-38.847-4.0392-18.993-7.3583-49.399-7.5205-68.894-0.13573-16.31-0.35078-18.519-1.8983-19.495-2.7632-1.743-5.1927 0.43797-5.5589 4.9902-0.22603 2.8092-1.2571 4.8769-3.6893 7.3987-7.9644 8.2579-13.365 24.492-14.138 42.5-0.44538 10.373-0.2188 13.017 1.6708 19.5 1.6555 5.6798 2.1457 9.8056 2.02 17-0.18247 10.44 2.1267 21.21 7.9094 36.89 3.2718 8.872 3.4464 10.903 0.55792 6.4952-2.0235-3.0882-24.785-65.749-26.961-74.222-2.0771-8.0874-6.2462-33.711-7.6324-46.909-1.7441-16.605-0.68616-52.416 2.0154-68.224 4.5384-26.556 7.3714-34.643 23.168-66.131 14.387-28.68 22.306-39.3 42.32-56.754 26.053-22.721 41.945-32.014 66.036-38.616 15.012-4.1144 27.812-6.0761 33.133-5.078l3.8405 0.72048-10.468 4.2269c-45.593 18.411-80.49 46.064-104.24 82.601-16.213 24.943-25.873 49.729-25.649 65.815l0.079 5.6846 2.3126-9c3.1598-12.297 6.6245-21.107 13.174-33.5 22.526-42.626 52.645-72.592 93.594-93.12 11.453-5.7411 28.634-12.88 30.998-12.88 0.58547 0-3.1656 2.5433-8.3358 5.6517-11.526 6.9301-19.179 12.733-28.656 21.727-6.3514 6.0282-15.892 18.307-14.953 19.246 0.1833 0.18331 5.4888-4.7197 11.79-10.896 19.393-19.007 40.685-32.135 54.713-33.735 3.6882-0.42058 7.3809-0.92879 8.2059-1.1294 2.2131-0.53805 1.4188 15.937-1.0913 22.635-2.4733 6.6005-11.927 23.503-22.429 40.1-4.6636 7.3702-12.396 19.588-17.182 27.15-4.7866 7.5625-10.834 17.8-13.44 22.75-7.2561 13.787-16.064 35.5-14.401 35.5 0.27174 0 1.4667-2.1375 2.6555-4.75 2.8532-6.2702 20.2-33.524 34.848-54.75 14.733-21.349 22.924-33.651 26.496-39.795 1.5333-2.6374 2.9612-4.6219 3.173-4.4101 0.51351 0.5135-9.4215 24.608-20.047 48.617-4.7249 10.677-8.4173 19.585-8.2054 19.797 0.62147 0.62147 8.5035-12.316 14.763-24.232 6.3402-12.07 15.901-34.243 20.394-47.298l2.8636-8.3209 3.7565 11.321c4.1793 12.595 4.6908 18.693 2.3754 28.321-7.1047 29.541-20.56 54.495-52.033 96.5-19.824 26.458-27.47 38.284-36.853 57-9.7396 19.428-14.651 33.799-18.212 53.292-1.4275 7.8142-2.873 15.333-3.2122 16.708-0.33916 1.375-0.98012-4.25-1.4244-12.5-0.44425-8.25-1.1004-19.725-1.4582-25.5l-0.65044-10.5-1.3646 4.5c-1.7052 5.6234-3.6604 43.701-2.7984 54.5 0.78556 9.8424 3.864 25.646 6.1513 31.579 1.3759 3.5689 1.8333 9.526 2.3742 30.921 0.61033 24.139 0.90248 27.377 3.279 36.348 2.7713 10.461 9.8383 27.858 17.834 43.902 2.6724 5.3625 4.6343 9.75 4.3598 9.75-0.27454 0-5.3098-6.4125-11.189-14.25zm-52.64-157.5c-0.25153-0.9625-0.45733-0.175-0.45733 1.75s0.2058 2.7125 0.45733 1.75c0.25152-0.9625 0.25152-2.5375 0-3.5zm325.35 162.75c-0.0216-0.825 0.61034-4.65 1.4042-8.5 0.79391-3.85 1.9264-12.85 2.5167-20 1.7115-20.732 3.2225-33.804 4.0991-35.462 0.44707-0.8458 1.5374-5.8128 2.423-11.038 0.88559-5.225 2.2478-11.75 3.0271-14.5 0.77933-2.75 1.7099-6.35 2.068-8 0.62968-2.9014 0.7274-2.8029 2.9748 3 4.2117 10.875 4.9926 15.945 3.1173 20.239-0.90322 2.0684-4.6024 15.911-8.2205 30.761s-7.4346 29.811-8.4811 33.247c-2.0824 6.8367-4.8666 12.629-4.9287 10.253zm-273-88.5c-5.3389-14.012-10.978-31.535-12.457-38.708-3.3473-16.238-1.2306-34.54 6.832-59.076 11.088-33.742 22.945-55.393 49.702-90.757 34.176-45.171 45.08-64.876 52.82-95.459l2.784-11 1.3869 7.5c0.9304 5.0314 1.3869 15.235 1.3869 31 0 22.828-0.0815 23.786-2.849 33.5-3.6156 12.691-10.341 30.469-12.39 32.75-0.93806 1.0447-3.0201 1.7548-5.1663 1.7619-6.4734 0.0214-13.752 2.6621-24.762 8.9833-11.558 6.6361-18.686 11.527-21.777 14.942-1.8072 1.9969-1.6104 1.9764 3.744-0.39159 3.1083-1.3746 9.1497-4.2456 13.425-6.3799 4.2757-2.1343 10.776-5.0698 14.444-6.5232 7.3949-2.9296 13.47-3.5684 12.129-1.2752-0.43983 0.75206-9.1742 10.09-19.41 20.75-26.028 27.108-34.483 36.767-25.764 29.43 1.7191-1.4465 3.318-2.4376 3.5532-2.2024 0.2352 0.23521-1.5654 3.5162-4.0014 7.2911-14.154 21.933-24.733 50.088-29.161 77.608-2.0236 12.575-3.4892 42.246-2.3001 46.566 1.6554 6.0136 0.15797 5.7999-2.17-0.30961zm-84.046-62.059c0-0.85746 0.45-1.2809 1-0.94098s1 1.0415 1 1.559c0 0.51754-0.45 0.94098-1 0.94098s-1-0.70156-1-1.559zm184.5-32.514c3.4292-2.048 7.6129-6.301 9.2123-9.365 2.1181-4.0577 1.7898-11.046-0.71865-15.297-1.1412-1.9342-1.8346-3.7572-1.5408-4.051s2.2939-0.007 4.4447 0.63742c9.3981 2.8158 19.9 13.246 20.036 19.899 0.0594 2.9087-0.22768 3.25-2.7336 3.25-1.54 0-3.2275 0.41505-3.75 0.92233-1.0898 1.0581-13.332 3.6736-21.45 4.5828-4.5315 0.50751-5.1478 0.40565-3.5-0.57843zm-21.48-4.1767c-5.7146-2.92-8.3176-6.5728-8.4306-11.831-0.0834-3.8796 0.24075-4.404 4.5871-7.4213 5.0292-3.4912 15.579-6.5786 22.822-6.6785 5.0733-0.07 7.5299 2.1492 8.5809 7.7519 1.3861 7.3887-2.6786 15.36-9.6781 18.98-4.286 2.2164-12.714 1.8388-17.881-0.80108zm13.757-8.3067c2.2401-1.569 2.9833-4.8551 1.3292-5.8774-0.49133-0.30366-1.1749 0.56978-1.519 1.941-0.5116 2.0384-1.2383 2.4931-3.9842 2.4931-4.3768 0-6.2735-2.2127-4.9801-5.8098 0.83897-2.3333 1.4852-2.6728 4.8704-2.5586 3.5533 0.11985 3.7338 0.008 2.0136-1.25-2.5384-1.8562-4.8625-1.7397-7.3538 0.36834-3.44 2.9108-3.7538 6.7406-0.79466 9.6997 2.9271 2.9271 7.0913 3.3242 10.419 0.99362zm-27.539 7.1589c-7.5047-3.1747-8.1216-4.0306-5.1749-7.1808 4.4748-4.7839 5.761-4.9191 6.483-0.68136 0.35236 2.068 1.5382 5.0328 2.6352 6.5886 1.097 1.5557 1.8425 2.9796 1.6565 3.164-0.18593 0.18449-2.7059-0.6662-5.5999-1.8904zm27.762-97.132c0-0.29158 1.0797-3.1041 2.3992-6.25 2.8561-6.8091 6.97-20.372 8.7112-28.72 1.6175-7.7546 1.576-40.406-0.0648-51-1.8335-11.838-5.7914-28.781-7.4862-32.048-1.769-3.4097-1.1581-4.6 0.96431-1.8792 7.0793 9.075 25.476 40.361 25.476 43.325 0 0.79455-0.7875 2.3154-1.75 3.3796-1.4459 1.5988-1.762 3.958-1.8188 13.579-0.0604 10.212-0.41402 12.566-2.8762 19.144-4.0399 10.793-9.4873 21.273-16.531 31.803-5.6373 8.4278-7.0239 10.139-7.0239 8.6666zm-22.98-179.1c0.0368-2.1011 1.7848-3.1818 5.9847-3.6999 2.475-0.30531 5.625-0.69462 7-0.86512 1.9475-0.24148 2.5706 0.18726 2.8196 1.94 0.29442 2.073-0.0693 2.25-4.625 2.25-2.7195 0-6.3508 0.28125-8.0696 0.625s-3.1181 0.23125-3.1097-0.25zm-44.634 471.38c-3.0259-5.1308-8.6294-13.75-8.9391-13.75-1.1304 0 4.2467 9.7059 7.3405 13.25 1.7744 2.0326 2.6671 2.3119 1.5986 0.5z"/>
</svg>
