<?xml version="1.0" encoding="UTF-8" standalone="no"?>
<!-- Created with Inkscape (http://www.inkscape.org/) -->
<svg id="svg4136" xmlns:rdf="http://www.w3.org/1999/02/22-rdf-syntax-ns#" xmlns="http://www.w3.org/2000/svg" height="800" viewBox="0 0 600 800" width="600" version="1.1" xmlns:cc="http://creativecommons.org/ns#" xmlns:dc="http://purl.org/dc/elements/1.1/">
 <metadata id="metadata4142">
  <rdf:RDF>
   <cc:Work rdf:about="">
    <dc:format>image/svg+xml</dc:format>
    <dc:type rdf:resource="http://purl.org/dc/dcmitype/StillImage"/>
    <dc:title/>
   </cc:Work>
  </rdf:RDF>
 </metadata>
 <path id="path4146" fill="#fff" d="m393.15 733.12c-6.996-10.687-12.075-24.912-12.075-33.82v-4.5828l-5.286-1.7968c-2.9073-0.98821-8.8698-3.9764-13.25-6.6404-7.3578-4.475-8.0187-4.6965-8.6818-2.9103-0.39477 1.0633-1.3527 1.9334-2.1288 1.9334-0.77606 0-5.011-3.6-9.411-8s-8.8109-8-9.802-8c-0.99113 0-5.4332-2.4235-9.8712-5.3856-8.6501-5.7734-23.235-13.262-38.569-19.804-20.03-8.5453-27.119-12.607-50-28.645-19.662-13.782-30.636-22.016-47.5-35.642-8.25-6.6658-17.64-14.063-20.866-16.439-5.7619-4.2424-5.8564-4.3905-5.3256-8.3475 0.8868-6.6116-1.1016-15.372-3.9063-17.209-2.2456-1.4714-2.4021-1.4501-2.4021 0.32668 0 1.0453 0.675 2.4608 1.5 3.1455 0.90728 0.75298 1.5 2.9421 1.5 5.54 0 5.4274-8.5731 48.854-13.811 69.96-2.184 8.8-5.0014 20.658-6.2609 26.351-2.1727 9.8203-3.7996 12.715-5.92 10.532-0.47762-0.49165-0.24099-5.7565 0.53408-11.883 0.76541-6.05 2.0873-24.05 2.9375-40s2.0992-33.275 2.7755-38.5c0.67635-5.225 1.1704-11.75 1.0979-14.5-0.19022-7.2142-12.658-51.438-15.992-56.725-1.4829-2.3515-6.1645-8.2026-10.404-13.002-13.992-15.844-23.43-31.203-28.559-46.48-2.7552-8.2064-5.3389-28.452-5.3776-42.139-0.04565-16.143 7.2395-30.234 18.159-35.123l3.8821-1.7381-4.031-4.878c-2.217-2.6829-4.0521-5.3363-4.078-5.8964-0.02586-0.56008-0.17371-3.4933-0.32855-6.5183s0.12598-6.0379 0.62404-6.6953c0.55529-0.73293 0.29442-4.2141-0.67443-9-1.8822-9.2977-3.9158-32.943-2.9655-34.48 0.36832-0.59596 0.76834-13.963 0.88894-29.704 0.23576-30.773 1.1833-38.963 4.6116-39.859 1.3576-0.35502 1.8909-1.397 1.8909-3.6942 0-4.9126 2.0032-14.636 3.4969-16.974 0.73567-1.1513 2.0688-6.1432 2.9626-11.093 1.7456-9.6683 4.1963-18.231 5.7953-20.25 1.4942-1.8864 3.7166-1.5018 4.5643 0.78999 0.58679 1.5863 2.0547-1.1864 6.5997-12.466 3.2148-7.9782 6.4862-15.421 7.2698-16.54 2.8332-4.045 8.122-1.3999 6.904 3.4529-0.90755 3.616 0.0657 3.0945 2.3084-1.237 1.0679-2.0625 4.4977-7.575 7.6216-12.25 4.3282-6.4772 5.7153-9.4484 5.8286-12.485 0.10652-2.8541 0.62389-4.0769 1.8231-4.3088 1.2338-0.23858 2.7065 1.8622 5.5974 7.985 2.1577 4.5698 4.9062 9.4338 6.1079 10.809l2.1849 2.5-1.3587-3.5c-0.74729-1.925-3.0942-7.7066-5.2154-12.848-3.9805-9.6483-4.0049-11.163-0.21803-13.552 1.5391-0.97084 2.7965-0.71302 10.478 2.1484 0.82858 0.30867 1.25-0.5627 1.25-2.5846 0-5.2164 2.6132-6.1514 17.473-6.2513 15.351-0.10323 24.246-1.07 20.804-2.2611-2.521-0.87226-6.2761-5.2317-6.2761-7.2861 0-0.75083 0.8335-2.1986 1.8522-3.2174 1.6594-1.6595 3.1425-1.8036 14.25-1.3847l12.398 0.4675 5.2074-3.5189c8.2915-5.6031 27.42-11.203 47.097-13.788 10.817-1.421 29.467-0.72707 42.128 1.5674 4.6378 0.84048 9.3628 1.2694 10.5 0.95314 1.7104-0.47565 1.8084-0.37865 0.56764 0.56135-1.1947 0.90507-0.82954 1.0541 1.794 0.73224 1.8117-0.22227 3.5258-0.02915 3.809 0.42915 0.28324 0.4583 2.8963 0.83327 5.8067 0.83327 2.9105 0 6.743 0.50591 8.5168 1.1242 2.3876 0.83232 3.5169 0.83232 4.3492 0 1.7976-1.7976 4.7538-1.3521 16.335 2.4617 14.287 4.7051 31.916 12.181 42.403 17.982 4.634 2.5632 10.319 5.2303 12.633 5.9268 4.6994 1.4143 7.6964 3.3772 16.082 10.533 3.6854 3.1448 6.0885 4.5555 6.707 3.9369 0.53015-0.53015 2.1166-0.9639 3.5255-0.9639 3.1576 0 16.563 12.024 23.013 20.642 2.4114 3.2217 5.6294 6.9826 7.151 8.3576 2.0466 1.8494 3.9396 6.0224 7.2737 16.035 5.7505 17.269 7.1126 27.665 5.664 43.231-1.2359 13.28-2.8561 18.84-5.8931 20.221-1.1939 0.54292-2.1707 1.8195-2.1707 2.8368s2.2606 7.9187 5.0236 15.336c5.4665 14.676 10.26 30.871 12.029 40.637 0.61773 3.4115 1.4908 6.6528 1.9401 7.2028 0.44933 0.55 1.5244 5.725 2.3892 11.5 0.8647 5.775 2.7468 15.45 4.1825 21.5 3.553 14.972 4.115 21.091 2.1386 23.282-1.7675 1.9593-7.6323 20.667-11.354 36.218-3.2842 13.723-3.4565 31.249-0.3778 38.432 4.3933 10.249 5.2283 15.515 5.7201 36.068 0.45064 18.835 0.32605 20.698-2.1398 31.986-6.5878 30.157-17.861 61.988-39.943 112.78-4.7268 10.873-9.7224 21.996-11.101 24.717-2.9111 5.7448-3.0514 7.4663-1.0069 12.359 2.0051 4.7989 1.8899 9.8099-0.43456 18.898-3.0272 11.836-6.0723 16.876-14.18 23.467-3.9159 3.1837-9.8796 8.2732-13.253 11.31-6.2803 5.6543-20.843 13.978-24.454 13.978-1.2277 0-2.8673-1.3778-4.1938-3.5242-1.198-1.9383-3.3722-4.1424-4.8316-4.8979l-2.6535-1.3736 0.68552 15.648c0.37704 8.6063 1.1619 18.348 1.7442 21.648 1.3979 7.9223 1.3706 8.2689-0.7394 9.3981-1.5138 0.81014-2.3502 0.14281-5.1155-4.0811zm3.0313-7.9155c-0.60839-4.5207-1.1062-13.521-1.1062-20.001 0-7.083-0.41505-12.038-1.0407-12.425-0.57237-0.35375-0.76817-1.5018-0.4351-2.5512 0.4205-1.3249-0.25469-2.6583-2.2093-4.363-2.6405-2.3029-2.4433-2.2693 3.1851 0.54368 3.3 1.6493 7.5316 4.438 9.4035 6.1971l3.4035 3.1985-3.3374-6c-1.8356-3.3-3.5922-6.225-3.9035-6.5-0.31132-0.275-2.3065-2.6653-4.4337-5.3118s-4.4349-4.5942-5.1282-4.3281c-0.69328 0.26603-1.7578-0.0136-2.3657-0.62149-0.60785-0.60785-1.402-0.80836-1.7648-0.44557-0.36279 0.36278 1.9922 3.705 5.2333 7.427l5.893 6.7674-5-3.7833c-7.8684-5.9537-12.325-8.7041-14.103-8.7041-1.3235 0-1.408 0.28232-0.43542 1.4542 0.66379 0.79982-5.5373-1.6752-13.78-5.5-14.863-6.8965-18.752-7.9844-20.892-5.8442-0.8133 0.8133-2.3181 0.27874-5.6302-2-2.4861-1.7105-5.0895-3.11-5.7853-3.11s-2.556-1.2367-4.1337-2.7483c-2.0896-2.002-2.6754-2.2448-2.1572-0.89432 0.62661 1.6329 0.24666 1.5666-3.1861-0.55566-2.1436-1.3253-6.7587-3.6311-10.256-5.124-3.497-1.4929-8.672-4.2313-11.5-6.0854s-10.992-6.8366-18.142-11.072c-13.411-7.9448-35.305-22.777-58-39.292-15.41-11.214-48.143-37.249-48.847-38.852-0.27159-0.61824-0.79734-4.6682-1.1683-9l-0.67452-7.8759 19.047-7.768c10.476-4.2724 28.856-11.082 40.845-15.133s26.298-9.1668 31.798-11.368c9.3388-3.7383 29.404-10.805 39.36-13.862 3.3302-1.0226 4.1332-1.047 3.3989-0.10347-1.8706 2.4036-3.4478 13.416-3.9796 27.784-0.44067 11.907-0.22827 15.63 1.1696 20.5 2.2134 7.7118 5.7296 13.69 11.881 20.201 5.0813 5.3783 8.186 7.1557 4.9666 2.8433-0.98817-1.3237-2.185-2.3362-2.6596-2.25-1.5062 0.27347-7.4937-11.622-9.1977-18.274-1.9073-7.4449-1.3801-24.679 1.1948-39.059 0.83606-4.6692 1.2776-9.7021 0.98116-11.184-0.52719-2.6359-0.31918-2.763 9.5278-5.8223 5.5367-1.7201 10.242-2.9521 10.457-2.7377 0.21438 0.21439-2.0605 4.1142-5.0553 8.6662-8.0144 12.182-14.748 28.747-15.33 37.713-0.44578 6.8676 0.98829 16.171 2.9833 19.354 0.66251 1.0571 0.74346 0.76184 0.27415-1-0.36627-1.375-0.89887-6.6159-1.1836-11.646-0.61925-10.942 0.42559-14.757 8.4506-30.854 8.0623-16.171 12.573-22.158 20.791-27.594 7.2714-4.8098 19.237-15.633 33.14-29.977 12.73-13.133 23.356-31.487 36.864-63.671 6.8104-16.226 6.8184-16.239 8.2345-13.315 1.4996 3.0964 5.5319 5.0574 10.399 5.0574 2.5269 0 2.7981 0.28571 2.2697 2.3909-0.75877 3.0232 1.1158 4.3112 2.5028 1.7196 1.215-2.2701 12.414-8.1228 15.469-8.0839 1.3603 0.0173 0.0561 1.1302-3.7349 3.1867-6.0802 3.2984-14.118 11.298-16.139 16.063-1.1754 2.7712-1.1813 2.7727-3.0118 0.75-2.5254-2.7906-6.1164-2.5786-8.1201 0.47946-1.372 2.0939-1.5307 4.1088-0.96495 12.25 0.37242 5.3591 1.1207 11.769 1.6629 14.244 1.7376 7.9319 7.8155 23.084 15.46 38.541 4.0911 8.2724 7.4384 15.414 7.4384 15.869 0 0.45568 1.575 3.4212 3.5 6.5901s3.5 6.4324 3.5 7.2522c0 0.81982-1.6875 3.3248-3.75 5.5665-2.8632 3.112-6.1515 5.0543-13.905 8.213-5.5852 2.2754-11.176 5.2241-12.424 6.5527l-2.2693 2.4156h2.4949c5.3655 0 21.261-4.0963 26.104-6.7272 6.4704-3.5147 11.118-10.263 10.167-14.761-0.35012-1.6563-1.7419-4.4828-3.0929-6.2811-5.1852-6.9019-11.521-23.097-18.477-47.23-5.9987-20.812-5.8441-20.064-4.2732-20.667 0.78393-0.30082 1.4253-1.1738 1.4253-1.94 0-1.8563 4.2656-1.7904 15.5 0.23966 12.97 2.3437 28.471 2.1344 35.792-0.48315 3.1858-1.139 6.9512-2.9825 8.3675-4.0966 3.6287-2.8544 4.7972-1.5285 2.2645 2.5695-2.3799 3.8507-2.2935 4.702 1.4862 14.651 3.3288 8.7618 4.6915 21.154 3.9801 36.195-1.5276 32.295-17.102 87.709-45.259 161.03-1.8973 4.9408-1.9762 5.0037-6.6654 5.3105-7.168 0.46901-16.967-3.3176-22.299-8.6166-7.5051-7.4595-8.3619-7.4122-20.993 1.1587-5.831 3.9567-16.39 7.6474-21.879 7.6474-1.9214 0-5.0196 0.72416-6.8847 1.6092-2.7965 1.327-5.9796 1.5293-18.151 1.1532-12.937-0.39973-16.427-0.90238-28.26-4.0695-26.974-7.22-45.765-14.699-62.373-24.824-20.519-12.51-39.563-26.495-63.627-46.727-6.875-5.78-13.368-11.214-14.428-12.076-3.0363-2.467 28.28 28.026 34.595 33.685 27.164 24.344 54.205 41.096 80.302 49.748 32.098 10.641 52.188 13.147 76.031 9.4837 3.3-0.50706 10.883-1.6528 16.851-2.546 5.968-0.89323 12.385-2.2649 14.259-3.0481 2.9394-1.2282 3.7163-1.2295 5.6491-0.01 3.2945 2.0794 12.294 4.425 19.982 5.2078 6.7008 0.68233 6.7468 0.70792 7.7444 4.2993 1.3643 4.9116 1.2944 5.5498-0.81732 7.4608-1.4679 1.3284-1.7442 2.7172-1.3901 6.987 0.3652 4.4038-0.11621 6.617-2.7727 12.747-4.2524 9.8128-5.174 10.749-7.898 8.0252-1.1589-1.1589-2.6696-2.095-3.3571-2.0802-3.9725 0.0855-24.522 24.534-22.403 26.654 1.0214 1.0214 18.568-8.914 22.774-12.895 2.4083-2.2797 6.8538-6.0667 9.8788-8.4155 9.2709-7.1984 10.684-8.6863 13.396-14.103 5.2498-10.485 7.3434-25.584 4.1354-29.826-2.2715-3.0032-1.8334-6.0324 2.069-14.306 7.485-15.87 24.952-57.374 32.041-76.135 7.5281-19.922 15.881-47.177 18.849-61.5 4.0314-19.458 2.8935-45.174-2.6746-60.444-2.4249-6.6501-3.1415-10.289-3.2177-16.341-0.0722-5.7345-0.49312-8.0444-1.598-8.769-1.3103-0.85929-1.2787-1.1533 0.25-2.325 1.1613-0.89003 1.75-2.713 1.75-5.4189 0-2.2427 0.70282-7.1431 1.5618-10.89 2.6388-11.509 10.564-36.754 11.87-37.812 1.3256-1.0735-0.21124-12.067-4.317-30.88-1.0947-5.016-2.2867-11.82-2.6489-15.12-0.36219-3.3-1.0606-6.4906-1.5519-7.0901-0.49135-0.59956-1.8081-5.5496-2.926-11-2.514-12.256-5.8361-23.271-11.726-38.878-2.4973-6.6175-4.8631-13.988-5.2574-16.378l-0.71684-4.3462 2.8265 0.5653c2.6731 0.53462 2.9152 0.28201 4.4601-4.6538 2.1808-6.9671 3.0758-29.669 1.4968-37.968-1.718-9.0293-9.0838-30.751-10.428-30.753-0.62868-0.00098-2.485-2.1385-4.1252-4.75-3.1804-5.0638-18.182-21.161-22.756-24.418-4.2974-3.06-5.2282-1.3038-2.1236 4.0063l2.7267 4.6636-8.4323-7.5584c-11.025-9.8827-17.866-15.342-18.468-14.739-0.26693 0.26693 2.107 2.5623 5.2754 5.1008 7.8856 6.3179 15.915 13.611 15.036 13.658-0.39838 0.0211-3.7734-2.5594-7.5-5.7345-10.073-8.582-13.872-11.345-23.649-17.198-8.3271-4.9852-34.513-17.035-36.997-17.024-0.62122 0.0027 3.1673 1.9426 8.4189 4.3109 21.156 9.5407 41.474 22.124 50.088 31.019 2.2184 2.2908 8.1953 10.465 13.282 18.165 8.3801 12.685 9.5224 14 12.165 14 2.3456 0 2.9849-0.48643 3.2668-2.4858 0.19275-1.3672-0.34058-3.8422-1.1852-5.5-0.84459-1.6578-2.9691-6.3892-4.7212-10.514-1.752-4.125-3.6801-8.175-4.2846-9-0.60447-0.825 0.0484-0.48091 1.4507 0.76465 6.7633 6.007 16.081 27.686 19.969 46.457 1.7991 8.6878 2.0503 12.522 1.6228 24.778-0.27812 7.975-0.94707 15.628-1.4866 17.007-0.61783 1.5789-2.4006 3.0201-4.8168 3.8938-4.9595 1.7934-11.867 6.0397-22.172 13.629-4.5502 3.3514-13.55 9.3018-20 13.223-6.4498 3.9213-12.627 7.8131-13.727 8.6484-6.7384 5.1169 21.163-6.4584 43.404-18.007 11.665-6.057 17.079-8.365 18.678-7.9634 1.9257 0.48331 2.5517 1.9092 4.3103 9.8171 4.2372 19.053 8.8938 53.482 7.4018 54.725-0.43685 0.36397-3.2693 1.2557-6.2943 1.9816-6.5235 1.5654-16.816 5.9893-26.5 11.39-11.943 6.6602-29.198 17.562-33.542 21.191-2.9736 2.4844-5.1248 3.4648-7.6022 3.4648-1.9003 0-4.8067 0.69898-6.4588 1.5533-2.1517 1.1127-7.8819 1.776-20.2 2.3385-9.4581 0.43184-17.534 0.6063-17.947 0.38768-0.4125-0.21861-0.75-7.3062-0.75-15.75 0-8.444-0.66738-20.455-1.4831-26.691-0.81568-6.2356-1.8832-14.488-2.3722-18.338l-0.88913-7-0.12781 10.02c-0.23881 18.722-8.8136 41.271-20.695 54.423-3.9244 4.3439-5.4471 4.702-14.637 3.4425l-4.4832-0.61448 1.3602-3.9479c1.4409-4.1822 4.3375-26.565 4.3117-33.317-0.008-2.2034-0.40811-4.6263-0.8882-5.3842-1.5625-2.4668-3.0965-0.11196-3.0965 4.7535 0 10.494-4.0591 25.673-8.912 33.325l-2.843 4.483-8.8725 0.64472c-14.25 1.0354-43.598 5.4258-55.014 8.23-19.025 4.6731-46.997 14.814-50.853 18.437-1.9057 1.7904-3.4996 2.0053-14.871 2.0053h-12.736l2.4254-3.25c4.057-5.4362 4.9824-7.9398 5.8222-15.75 0.44352-4.125 1.0994-9.8625 1.4575-12.75 0.41354-3.3345 0.27808-5.25-0.37127-5.25-0.60094 0-0.24117-2.51 0.87277-6.0891 2.1025-6.7553 2.4608-11.911 0.82791-11.911-0.58698 0-3.722 2.7899-6.9668 6.1998s-6.172 5.9274-6.505 5.5945c-0.96306-0.96305 3.6823-7.5666 12.178-17.311 14.834-17.015 19.844-25.466 17.421-29.386-0.70211-1.136-1.5516-0.96563-4.7084 0.94457-3.1385 1.8991-2.2707 0.67601 4.6868-6.6056 9.0483-9.4698 13.961-17.61 13.961-23.133 0-1.817-0.26845-3.3037-0.59655-3.3037s-2.6244 1.785-5.1029 3.9666c-4.199 3.6961-14.916 8.7517-16.081 7.5863-0.59002-0.59003 7.6291-4.4976 9.5304-4.531 0.6875-0.0121 1.25-0.52773 1.25-1.1459 0-0.61816 1.9125-2.8183 4.25-4.8891s5.0694-5.2776 6.071-7.1261l1.821-3.3609-2.2699 3c-4.1249 5.4516-9.7923 10.154-13.854 11.494-3.4224 1.1295-5.2338 1.0796-12.476-0.34324-22.265-4.3747-47.841-14.618-56.531-22.64-2.3893-2.2058-4.6437-4.0106-5.0097-4.0106s-1.8552-2.1375-3.3093-4.75-2.6548-4.0506-2.6682-3.1958c-0.0134 0.85482 1.4382 3.7461 3.2257 6.425 1.7875 2.679 3.8059 5.8046 4.4853 6.9458 0.67939 1.1412 1.2419 1.5215 1.25 0.84512 0.008-0.6764 3.1792 0.81726 7.0469 3.3192 3.8677 2.502 9.4015 5.5969 12.297 6.8776 10.599 4.6875 31.542 11.011 43.08 13.007l3.9097 0.67646-2.6677 1.75c-2.8733 1.8849-2.5733 3.0999 0.76506 3.0987 2.9038-0.001 13.416-5.1273 17.386-8.4778l3.3024-2.7875-0.69277 2.883c-1.8914 7.8712-8.4556 16.62-20.618 27.478-5.1118 4.5638-9.4442 8.6595-9.6276 9.1015-0.7862 1.8954 2.9613 0.52052 8.712-3.1964 3.4038-2.2 6.6539-4 7.2224-4 3.1593 0-3.5306 10.655-15.069 24-4.5176 5.225-9.7479 11.744-11.623 14.487-5.6393 8.249-3.8085 11.437 3.0898 5.3803 1.9626-1.7232 3.8386-2.8628 4.1689-2.5326 0.74642 0.74641-3.055 11.258-6.8222 18.864-2.5361 5.1206-2.9098 8.8015-0.89351 8.8015 1.1133 0 3.6018-3.0954 5.5012-6.8429 0.93188-1.8386 1.9248-3.1124 2.2065-2.8307 0.83572 0.83571-7.5006 17.864-10.704 21.865-1.6256 2.0302-2.9557 4.1678-2.9557 4.75 0 1.6378-7.5826 1.2177-17.5-0.96951-13.336-2.941-20.47-5.502-36.102-12.958l-14.102-6.7267-2.098-7.8934c-2.8615-10.766-3.5105-14.074-2.5294-12.893 0.89621 1.0786 3.8336 1.3306 4.7562 0.40803 0.31155-0.31155-0.81565-6.3808-2.5049-13.487-2.4466-10.293-3.1844-16.005-3.627-28.082-0.5164-14.089-0.43051-15.149 1.215-15 1.6485 0.14966 1.7564-1.2701 1.5639-20.576-0.11376-11.405 0.16093-21.305 0.61043-22 0.44949-0.69484 1.3523-5.5383 2.0062-10.763 0.65391-5.225 1.6654-12.65 2.2477-16.5 0.58234-3.85 1.2927-9.925 1.5786-13.5l0.51985-6.5-1.554 4c-0.8547 2.2-2.2094 7.825-3.0104 12.5-1.6729 9.7635-3.6136 17-4.5589 17-1.153 0-2.8163 11.156-3.5784 24-0.61025 10.286-0.86943 11.703-1.4634 8-0.39699-2.475-0.79384-6.75-0.88188-9.5-0.14969-4.6756-0.22126-4.8053-1.103-2-1.4418 4.5873-2.3933 29.915-2.3104 61.5 0.06582 25.076 0.32334 29.581 2.1433 37.5 1.595 6.9398 1.7984 9.2864 0.88846 10.251-0.77987 0.82676-0.98618 3.2788-0.60836 7.2305 0.46068 4.8184 1.1597 6.6144 3.5999 9.249 1.6655 1.7982 3.5495 4.5 4.1865 6.0039 1.1269 2.6604 1.0238 2.7923-3.8048 4.8696-5.4595 2.3486-11.392 8.2449-13.591 13.508-2.6185 6.267-4.5512 17.677-3.9614 23.388 0.31238 3.025 1.0254 10.84 1.5846 17.366 2.036 23.765 11.536 42.85 34.294 68.897 4.211 4.8196 8.419 10.22 9.3511 12 1.6719 3.1936 7.8274 24.313 13.027 44.696 2.5564 10.021 2.6174 10.859 1.457 20-1.1381 8.9654-1.5586 15.02-4.0996 59.041-0.5556 9.625-1.2519 19.75-1.5473 22.5-0.53198 4.9523 3.4213-10.293 10.043-38.73 3.4022-14.611 10.463-51.187 10.463-54.201 0-0.86307-0.91368-2.4829-2.0304-3.5996-1.7318-1.7318-1.9301-2.7865-1.3483-7.1721l0.68206-5.1417 2.6885 2.9221c1.4787 1.6071 3.5479 3.4202 4.5983 4.029 2.3809 1.38 3.1406 4.76 3.2915 14.643 0.0651 4.2625 0.49214 7.75 0.94905 7.75 0.4569 0 9.436 6.8858 19.954 15.302 44.725 35.788 74.201 55.404 100.22 66.69 12.777 5.5434 32.326 15.454 38.283 19.408 3.1258 2.0748 6.2983 3.8626 7.05 3.9729 0.75172 0.11033 2.5435 0.97163 3.9818 1.914 1.4382 0.94237 2.9683 1.7107 3.4002 1.7073 0.43185-0.003 4.0268 3.4842 7.9889 7.75 3.962 4.2659 7.2245 7.2299 7.25 6.5867 0.0255-0.64318-2.2631-3.6963-5.0857-6.7847s-4.9308-5.8165-4.6848-6.0625c0.24599-0.24599 4.0179 2.1734 8.382 5.3764 10.02 7.3542 22.672 14.64 28.185 16.23 3.878 1.119 4.25 1.5111 4.25 4.48 0 8.1416 3.0151 18.71 8.1267 28.484 2.8616 5.472 5.4016 9.7506 5.6443 9.5079 0.24273-0.24273-0.0565-4.1401-0.66485-8.6608zm-23.5-40.558c-5.3307-3.6247-9.5189-6.7638-9.3071-6.9756 0.21185-0.21185 4.9448 1.7563 10.518 4.3736 6.9161 3.2482 10.141 5.2956 10.158 6.4498 0.0493 3.2907-1.7812 2.6712-11.368-3.8478zm11.597-3.7722c-4.6449-3.2843-5.2986-4.223-1.3764-1.9764 1.8298 1.048 3.7974 2.468 4.3724 3.1555 1.4779 1.7668 0.78428 1.4939-2.996-1.1791zm-243.08-154.88c-1.8513-6.7027-3.5777-12.862-3.8365-13.687-0.25875-0.825 1.8111 0.975 4.5997 4l5.0701 5.5-0.60553 7c-0.33305 3.85-0.88819 7.534-1.2337 8.1867-0.34546 0.65267-2.1428-4.2973-3.9941-11zm15.939-9.1185c-2.0523-2.1846-2.2076-3.0234-1.5724-8.4961 0.54896-4.7299 0.41175-6.0721-0.62072-6.0721-0.76158 0-0.17812-1.1473 1.3715-2.697 1.4833-1.4833 2.908-2.4859 3.166-2.228 0.61679 0.61679 0.98629 20.864 0.39162 21.458-0.25233 0.25232-1.4835-0.632-2.736-1.9652zm14.528-6.8182c-3.0921-34.098-5.1034-50.625-7.6472-62.838-5.431-26.075-6.0008-29.315-6.888-39.161-0.80746-8.9615-1.2769-10.497-5.8077-19-2.7111-5.0877-5.2417-10.515-5.6236-12.061-1.1826-4.7867-8.4883-10.827-20.109-16.627-5.9921-2.9904-10.332-5.6246-9.6448-5.8537 0.68744-0.22915 5.6099 1.828 10.939 4.5715 12.179 6.27 21.569 9.643 33.804 12.142 5.2817 1.079 9.7712 2.13 9.9768 2.3355 0.20556 0.20557-0.0847 1.919-0.64495 3.8075-1.4081 4.7464-1.4807 25.158-0.11531 32.434 0.61929 3.3 2.047 18.6 3.1727 34 1.8842 25.776 4.0938 51.383 5.5389 64.191 0.56455 5.0034 0.4768 5.2472-2.4292 6.75-1.6582 0.85749-3.2264 1.5591-3.485 1.5591-0.25853 0-0.72511-2.8125-1.0368-6.25zm-25.162-1.8618c-0.64087-1.037 1.1268-2.8383 2.8191-2.8729 0.90832-0.0185 0.93033 0.35118 0.14301 2.4029-0.70849 1.8463-1.9862 2.049-2.9621 0.46999zm43.184 0.24043c-0.19401-0.34575-0.65862-3.5536-1.0324-7.1286-1.3914-13.306-9.7538-70.851-11.687-80.423l-2.0041-9.9229 2.1246-12.077c1.1685-6.6424 2.8056-14.822 3.638-18.177l1.5135-6.0999 12.166-0.67774c6.6914-0.37276 13.469-0.95519 15.061-1.2943 2.7721-0.59046 2.8653-0.49407 2.2025 2.2777-0.38065 1.5918-0.94766 3.7498-1.26 4.7955-0.43296 1.4495-0.18406 1.754 1.0475 1.2814 2.0129-0.77243 2.0173-0.0804 0.10588 16.817-2.8117 24.857-1.5366 68.201 2.5005 85 1.0611 4.4152 1.2808 11.894 0.4407 15-0.39918 1.4757-3.6764 3.2133-12.502 6.6286-6.5788 2.5458-12.12 4.3458-12.314 4zm41.647-7.3648c0.15614-1.4657-0.4972-2.5639-1.8963-3.1874-1.8847-0.83991-2.2946-2.3631-3.5018-13.014-2.3612-20.831 0.35116-84.099 4.581-106.85 1.2794-6.8827 1.0481-11.709-0.56121-11.709-1.3488 0-1.0517-4.6269 0.36658-5.7078 3.1228-2.38 33.002-12.415 47.226-15.861 22.649-5.4872 28.942-5.919 81.424-5.5868 39.111 0.24756 48.805 0.57163 50.51 1.6885 1.409 0.92321 2.6043 1.0693 3.5998 0.43994 3.7069-2.3436 3.7773-0.73326 0.40553 9.2771-1.8988 5.6375-5.489 17.9-7.9782 27.25-8.4581 31.771-12.211 41.455-19.957 51.5-13.776 17.863-27.757 25.95-67.48 39.032-11.275 3.7131-24.775 8.3219-30 10.242-9.079 3.3359-11.876 4.537-29 12.455-13.592 6.2847-27.004 12.271-27.494 12.271-0.26507 0-0.37475-1.0063-0.24373-2.2362zm-94.495-9.6967c-2.5436-1.6131-5.1225-3.8631-5.731-5-0.60846-1.1369-1.7474-2.0671-2.531-2.0671-1.5178 0-7.1309-5.7092-15.239-15.5-5.6817-6.8609-16.266-22.364-16.266-23.826 0-0.53833 2.5875 1.4738 5.75 4.4714s9.8 8.0757 14.75 11.285c11.262 7.3004 15.961 11.704 19.281 18.07 1.7185 3.2947 2.7328 4.426 2.974 3.3171 0.4749-2.1834-1.9724-6.8565-5.9829-11.424-1.7549-1.9988-8.384-7.1279-14.731-11.398-13.445-9.0456-22.518-17.56-25.219-23.666-1.0532-2.3809-2.2782-4.3288-2.7224-4.3288-1.0405 0-5.1207-13.721-5.0555-17 0.04165-2.094 0.45131-1.7285 2.5223 2.25 3.4349 6.5986 3.8759 5.9522 0.68217-1-4.8091-10.469-4.0355-22.005 1.9313-28.801 5.1857-5.9062 11.05-8.7428 17.876-8.646 13.238 0.1877 19.828 6.7119 25.451 25.197 0.73706 2.4233 0.70018 2.4463-1.2012 0.75-1.0789-0.9625-2.3976-1.75-2.9304-1.75-1.4754 0-19.351 9.6733-21.639 11.71-2.5429 2.2635-4.7351 7.383-4.7351 11.058 0 5.9417 7.4309 13.908 19 20.368l5.5 3.0713-4.6848-4.3536c-10.894-10.124-14.403-18.266-9.8376-22.831 1.0877-1.0877 5.5537-3.7756 9.9245-5.9732s8.5838-4.9049 9.3621-6.0161c2.1341-3.0469 2.7358-1.4805 2.7358 7.1228 0 5.4013-0.61891 9.451-1.9995 13.083-2.6978 7.098-2.5687 8.126 1.5994 12.74 3.0772 3.4061 3.8913 3.8286 5.6074 2.9102 1.4326-0.7667 2.3165-0.76538 3.0865 0.005 0.77198 0.77198 1.595 0.61197 2.8926-0.56235 2.3614-2.1371 2.2944-2.8344-0.642-6.6843-2.3309-3.056-2.384-3.4208-1.0439-7.1833 1.8987-5.331 1.8597-18.285-0.0776-25.762-3.5407-13.664-10.447-24.874-18.081-29.348-4.0218-2.3569-6.1225-2.8398-13.82-3.1764-10.339-0.45217-14.969 1.0895-22.415 7.4628-4.0079 3.4306-4.0934 3.4547-3.113 0.87608 4.1894-11.019 10.383-15.762 20.505-15.704 9.4303 0.054 23.501 6.1671 23.501 10.21 0 1.5762 0.6797 1.977 3.3528 1.977 2.7904 0 4.2411 0.95446 8.6492 5.6906 8.8496 9.5083 10.461 14.428 12.38 37.809 0.90318 11 1.9332 28.676 2.289 39.28 0.5959 17.763 0.51525 19.229-1.0249 18.638-2.9681-1.139-4.6463 1.4374-4.6463 7.1333 0 6.5962-1.6174 8.449-7.3756 8.449-2.9637 0-5.6194-0.87936-8.8575-2.9329zm326.23-83.923c0.00002-0.35403 1.5761-1.9012 3.5024-3.4382 5.6047-4.472 7.7208-9.6706 7.3594-18.08l-0.30615-7.1252 4.4722 0.29316c3.702 0.24268 5.2041 1.0105 8.7222 4.4582 3.9347 3.856 4.25 4.5557 4.25 9.4312 0 4.7377-0.27595 5.407-2.75 6.6707-6.9752 3.5626-25.25 9.201-25.25 7.7905zm-26.985-3.3937c0.008-1.2375 0.45223-2.925 0.98623-3.75 0.81137-1.2535 1.3781-1.007 3.4487 1.5 3.2886 3.9816 3.1791 4.5-0.95026 4.5-2.9675 0-3.4977-0.34232-3.4847-2.25zm17.485-1.1956c-0.55-0.20869-2.167-0.63467-3.5934-0.94664s-3.7889-1.7627-5.25-3.2238c-2.2122-2.2122-2.6566-3.55-2.6566-7.9972 0-4.4405 0.3792-5.5859 2.25-6.7959 3.8552-2.4936 7.354-2.8964 10.015-1.1529 1.3493 0.8841 3.1917 1.3241 4.0942 0.97778 1.3325-0.51132 1.6409 0.0417 1.6409 2.9421 0 4.0022-2.244 5.9141-5.8383 4.9742-1.6962-0.44357-2.1617-0.12405-2.1617 1.484 0 4.4283 8.4499 2.949 11.065-1.9371 1.1455-2.1404 0.87845-7.9686-0.50998-11.129-0.67138-1.5282-0.17012-1.75 3.9547-1.75h4.7235l-0.42183 6.25c-0.49842 7.3848-2.9572 13.006-6.925 15.831-2.7459 1.9553-8.279 3.2729-10.386 2.4734zm-283.12-17.719c0.88367-9.508 1.5417-11.835 3.3463-11.835 1.1227 0 1.3562 0.70286 0.91376 2.75-0.32691 1.5125-1.146 5.7875-1.8201 9.5-1.6419 9.042-3.2928 8.7614-2.4399-0.41473zm321.51-13.49c-3.1145-3.7555-15.613-6.5829-29.619-6.7003-3.4354-0.0288-5.9104-0.34385-5.5-0.70014 5.7605-5.0007 22.681-16.712 27.007-18.693 4.6511-2.1293 7.1725-2.5893 14.437-2.6339 7.6429-0.0469 8.802-0.2809 8.802-1.777 0-2.3091 1.5972-3.159 4.5459-2.4189 2.3914 0.60021 2.3228 0.76851-4.0975 10.041-3.5913 5.1869-8.1 12.83-10.019 16.984-1.9193 4.1541-3.6459 7.5529-3.8369 7.5529s-0.96487-0.74471-1.7197-1.6549zm-68.872-12.014c0-0.8872 6.8471-18.29 9.1795-23.331 1.1079-2.3944 1.3281-3.1348 1.6682-5.6076 0.0838-0.60916 4.3148-2.8162 9.4023-4.9045s17.8-7.7094 28.25-12.491c10.45-4.782 20.64-9.2317 22.645-9.8883 2.3091-0.75636 3.8519-1.9866 4.2103-3.3574 0.31119-1.19 0.82085-1.9085 1.1326-1.5968 0.87818 0.87818 4.6443 27.824 4.0282 28.821-0.30027 0.48583-0.0143 2.8709 0.63538 5.3001 0.64971 2.4292 0.9013 5.1465 0.55907 6.0383-0.56044 1.4605-0.97107 1.4758-4.134 0.15421-2.3612-0.98657-7.0445-1.4618-14.294-1.4505-9.8407 0.0154-11.484 0.30153-18.821 3.2776-4.4212 1.7934-13.196 6.2401-19.5 9.8815-8.7068 5.0295-12.783 6.7922-16.961 7.3344-3.025 0.39251-6.0625 1.1684-6.75 1.7241-0.6875 0.55576-1.25 0.59905-1.25 0.0962zm-316.33-4.9973c-1.3691-1.3691-0.58842-2.041 1.8333-1.5781 1.375 0.26285 2.5 0.87544 2.5 1.3613 0 1.029-3.3533 1.1968-4.3333 0.21675zm254.33-26.989c0-0.36058 1.0612-2.0481 2.3581-3.75 4.8478-6.3615 8.382-15.035 12.263-30.094 1.2717-4.9351 2.1967 7.9993 1.5911 22.25l-0.52053 12.25h-7.8457c-4.3151 0-7.8457-0.29502-7.8457-0.65561zm39.816 351.15c-0.62755-1.3773-1.3294-2.3159-1.5596-2.0856-0.46705 0.46705 1.5605 4.5899 2.2572 4.5899 0.24386 0-0.0701-1.1269-0.69762-2.5042zm19.877-80.022c1.4721-4.2521 5.5792-9.1076 8.4833-10.029 1.0032-0.31839 1.8239-1.215 1.8239-1.9925 0-0.77745 1.0919-1.6876 2.4264-2.0225 3.2229-0.80889 5.6952-3.6143 4.6606-5.2883-0.65995-1.0678-1.726-0.99416-5.6994 0.39388-11.779 4.1149-30.473 2.8071-52.085-3.6437-5.6087-1.6741-11.234-2.8969-12.5-2.7174-2.0163 0.28586-1.7433 0.65099 2.1976 2.939 6.7092 3.8953 14.371 6.4392 25.237 8.3799 5.3556 0.95649 9.4795 2.1564 9.1642 2.6666-0.66947 1.0832 12.656 15.766 14.017 15.445 0.50537-0.11915 1.5286-1.9779 2.2739-4.1306zm-8.3066-4.7235-3.8466-4.25 5.8436-0.30329c3.214-0.1668 6.0386-0.10835 6.2768 0.12989 0.40858 0.40858-3.5407 8.6734-4.1445 8.6734-0.15547 0-2.0136-1.9125-4.1293-4.25zm17.614-30.518c3.025-1.0486 9.6625-2.9826 14.75-4.298s9.25-2.6653 9.25-2.9999c0-0.94942-24.539-2.9442-34-2.7638-4.675 0.0891-17.5 0.0494-28.5-0.0883l-20-0.25033 8.3087-1.8756c4.5698-1.0316 11.62-3.0187 15.668-4.4157 8.9884-3.1024 10.976-3.1588 12.932-0.36737 1.4147 2.0198 1.5707 2.0454 2.2158 0.36408 0.38172-0.99475 0.23934-2.535-0.31639-3.4227-1.698-2.7124-7.869-2.4622-17.669 0.71662-12.236 3.9691-19.282 5.3204-28.732 5.5104-5.564 0.11192-7.8992 0.52824-7.9025 1.4089-0.007 1.8756-2.407 1.508-5.3698-0.82258-3.9498-3.107-3.5092 0.16844 0.61514 4.572 4.8005 5.1256 11.188 6.4122 38.25 7.705 17.286 0.82578 23.373 1.4509 24.5 2.5165 1.8751 1.7722 8.3222 1.1722 16-1.4892zm-111.89-10.89c-1.1155-2.1144-2.048-3.5221-2.0723-3.1283-0.071 1.1499 3.2751 7.798 3.7073 7.3657 0.21619-0.2162-0.51957-2.123-1.635-4.2374zm98.884-4.8092c0-4.2064 10.317-4.6661 21.987-0.97956 4.8572 1.5344 9.773 2.4335 12.302 2.25 3.7306-0.27071 2.6657-0.73391-9.324-4.0556-14.565-4.0353-16.526-4.2772-22.106-2.7273-4.1972 1.1658-6.3359 3.2902-5.5015 5.4646 0.74289 1.9359 2.6433 1.9704 2.6433 0.0479zm3.1713-48.19c3.6241-3.2798 1.6483-6.8512-5.4257-9.8069-4.1559-1.7364-13.92-2.0502-16.746-0.538-1.2259 0.65607-2.7514 0.66459-4.4343 0.0248-2.1471-0.81638-2.5655-1.6098-2.5655-4.8653 0-2.4211 0.78259-4.8848 2.0726-6.5248l2.0726-2.6349h-2.1495c-1.1822 0-3.519 1.3695-5.1928 3.0433-2.815 2.815-3.009 3.4578-2.5851 8.5687 0.36927 4.453 1.0234 6.0716 3.3702 8.3392 3.5189 3.4002 11.104 5.0153 12.044 2.5646 0.7753-2.0204 2.6387-1.8561 10.368 0.91409 3.575 1.2813 6.6896 2.3838 6.9213 2.4499 0.23169 0.0661 1.2442-0.62456 2.25-1.5348zm-271.46-193.13c-2.0339-2.0829-5.265-6.6954-7.1802-10.25-1.9153-3.5546-3.4925-6.076-3.505-5.603-0.0882 3.3394 11.306 19.64 13.728 19.64 0.36014 0-1.0093-1.7042-3.0431-3.787zm6.292-5.5906c0-0.20765-0.7875-0.99515-1.75-1.75-1.5861-1.2439-1.6214-1.2085-0.37756 0.37756 1.3064 1.6658 2.1276 2.1955 2.1276 1.3724zm-9-8.1224c-2.429-2.475-4.6414-4.5-4.9164-4.5s1.4874 2.025 3.9164 4.5 4.6414 4.5 4.9164 4.5-1.4874-2.025-3.9164-4.5zm-6.9146-4.9472c1.4678 0.90716 1.0531-0.19298-0.58541-1.5528-1.2635-1.0486-1.4876-0.87082-1.421 1.1276 0.0434 1.3048 0.30685 1.8071 0.58541 1.1162 0.27855-0.69093 0.91803-1.0019 1.421-0.69098zm22.901-25.303c-11.95-10.36-16.02-16.45-21.17-31.68-4.2674-12.62-5.1456-12.891-1.1974-0.36908 4.8295 15.317 10.737 24.293 21.684 32.946 6.8257 5.3954 7.2702 4.8149 0.68502-0.89439zm249.06-7.5c0.0264-0.6875 2.553-2.825 5.6145-4.75 7.4894-4.7091 17.639-15.836 21.384-23.443 2.6102-5.3022 3.0138-7.1406 2.7558-12.555-0.16621-3.4889-0.75618-6.493-1.311-6.6758-0.55487-0.18278-3.1742 3.2809-5.8206 7.697-6.6104 11.031-14.47 20.009-21.8 24.904-5.9644 3.9828-6.2292 4.0589-8.163 2.3444-1.9467-1.726-1.968-1.7136-0.81789 0.47798 1.3436 2.5604 0.0104 3.0395-1.935 0.6954-1.6293-1.9632-5.5073-4.1486-4.5164-2.5452 1.2837 2.077-0.76442 1.0939-6.0771-2.9172-5.1502-3.8885-10.21-6.468-11.046-5.6318-0.22393 0.22392 2.201 2.7601 5.3887 5.636 3.1963 2.8836 4.8988 4.9782 3.7958 4.67-1.1-0.30738-5.6268-1.4687-10.06-2.5807-4.4328-1.112-13.208-3.777-19.5-5.9221-6.2922-2.1452-13.465-4.199-15.94-4.564-2.475-0.36503-15.75-4.44-29.5-9.0556-13.75-4.6155-28.469-9.099-32.708-9.9633-8.7032-1.7744-24.272-2.1563-23.292-0.57143 0.33992 0.55 3.4769 1 6.971 1 15.935 0 35.848 6.2689 69.029 21.731 17.309 8.0659 32.96 14.12 45.842 17.731 17.459 4.895 31.609 6.8086 31.706 4.2877zm32.174-23.506c0.94707-1.509 3.5282-5.2187 5.7359-8.2437s5.334-8.8787 6.9473-13.008c2.9052-7.4364 5.7681-23.093 4.5755-25.023-1.0327-1.6709-2.4802-0.0181-2.4876 2.8404-0.013 4.9837-3.9623 19.241-7.0608 25.49-1.691 3.4104-4.8425 8.5438-7.0033 11.408-3.5489 4.7035-5.1234 9.303-3.1789 9.2866 0.4125-0.003 1.5249-1.241 2.472-2.75zm-210.22-6.12c-3.025-0.97256-6.625-2.3534-8-3.0686-1.5762-0.81983-2.0996-0.87324-1.4166-0.14453 1.4426 1.539 10.397 4.9973 12.917 4.9884 1.1-0.004-0.475-0.80273-3.5-1.7753zm-16.701-10.534c2.4012 0.22102 1.202-0.23404-2.7994-1.0623-3.85-0.79692-10.569-3.2601-14.931-5.4737-4.3623-2.2136-8.1166-3.8396-8.3429-3.6132-0.22633 0.22634 1.0221 1.1529 2.7744 2.059 5.3685 2.7762 2.627 2.7412-4.1776-0.0532-6.7199-2.7596-13.267-7.0758-9.3224-6.1454 1.1 0.25943 2.9 0.77882 4 1.1542 1.343 0.4583 1.1787 0.17871-0.5-0.85111-1.375-0.8435-3.5125-1.5496-4.75-1.5691-7.2826-0.1147 4.0711 6.6438 19.25 11.459 6.05 1.9192 11.675 3.9287 12.5 4.4656 0.825 0.53687 1.6347 0.58635 1.7994 0.10996 0.16467-0.4764 2.1897-0.69218 4.5-0.47953zm13.951 0.68639c-1.7875-0.22182-4.7125-0.22182-6.5 0-1.7875 0.22183-0.325 0.40333 3.25 0.40333s5.0375-0.1815 3.25-0.40333zm18-4.9823c-1.2375-0.23836-2.25-0.79482-2.25-1.2366 0-0.44177-2.1832-1.013-4.8516-1.2694-4.8578-0.46677-14.148-4.2571-14.148-5.7722 0-0.44301 1.6875-0.4136 3.75 0.0653 2.0625 0.47896 6.9 0.82837 10.75 0.77648l7-0.0944-5-0.91303c-6.691-1.2218-20.403-3.9145-23.455-4.6059l-2.4551-0.5562 2.4551 3.0311c3.4654 4.2785 10.748 9.0624 15.455 10.153 2.2 0.50965 6.475 0.91055 9.5 0.8909 3.025-0.0197 4.4875-0.23075 3.25-0.4691zm-137.22-2.5443c0.20842-8.2887 7.9122-38.979 10.128-40.349 0.65991-0.40785 0.83776 0.0501 0.4751 1.2234-1.0641 3.4426-3.7341 21.609-3.2475 22.096 0.87359 0.87359 2.6128-0.80985 2.6134-2.5295 0.001-4.055 10.508-28.39 21.649-50.142 4.7936-9.3592 8.4622-17.27 8.1524-17.58-1.4153-1.4152-17.556 27.011-22.913 40.353-1.8377 4.577-3.4871 7.8842-3.6654 7.3494-0.17828-0.53483 1.3158-7.5748 3.3202-15.644 3.5032-14.104 3.7768-18.054 0.98612-14.237-0.71854 0.98265-4.496 9.7613-8.3943 19.508-6.8396 17.101-11.257 32.876-12.741 45.497-0.63112 5.3699-0.54495 5.7049 1.4672 5.7049 1.1757 0 2.1518-0.5625 2.1691-1.25zm320.91-9c3.8938-8.6313 9.7866-27.246 10.624-33.56 0.38191-2.879 1.0851-5.4759 1.5626-5.771 1.1356-0.70184 0.98789-1.7342 1.8716 13.081l0.77546 13-0.22974-14.5c-0.12636-7.975-0.57476-15.288-0.99645-16.25-1.5228-3.4757-3.3981-1.8163-4.5207 4-3.5789 18.543-10.802 40.813-12.642 38.974-0.24625-0.24625-1.084-4.6866-1.8618-9.8674-3.0183-20.107-10.954-36.856-17.463-36.856-1.8236 0-1.1831 1.9706 1.888 5.8086 5.8766 7.3441 10.956 23.396 12.561 39.691 0.80208 8.1472 0.95182 8.5 3.6073 8.5 1.4905 0 2.7259-1.6009 4.8232-6.25zm-55.743-6c0.58904-6.0785 0.0598-7.8438-3.6858-12.294-4.4004-5.2281-5.7328-3.6782-1.6843 1.9592 2.5643 3.5707 3.1683 5.3816 3.1683 9.4983 0 6.1581 1.6262 6.776 2.2018 0.83652zm95.191-4.0738c2.4743-3.314 3.4543-14.226 1.5904-17.708l-1.2328-2.3036-1.3396 2.4178c-0.73677 1.3298-1.3609 3.7678-1.3869 5.4178s-0.69637 5.4388-1.4897 8.4196c-2.0501 7.703-0.33474 9.373 3.8585 3.7566zm-299.6-51.753c0.32046-2.6682-3.2464-15.395-6.6681-23.792-1.9952-4.8966-2.0309-5.3062-0.40541-4.6516 0.98037 0.39481 5.6075 1.689 10.282 2.8761 4.675 1.187 9.7154 2.98 11.201 3.9844 2.8149 1.9033 5.8742 1.9393 6.4944 0.0764 0.1985-0.59628-1.49-3.4088-3.7522-6.25l-4.1131-5.1658h11.454c6.2997 0 15.226-0.65912 19.835-1.4647 12.558-2.1947 40.945-9.1994 42.145-10.4 0.73453-0.73453 0.66554-1.5152-0.22917-2.5933-0.98668-1.1889-3.6012-1.5678-11.408-1.6532l-10.128-0.11077 5.5-1.2721c3.025-0.69965 10.9-2.0982 17.5-3.1079s11.131-2.0111 10.07-2.2252c-1.0618-0.21415-5.2607 0.14785-9.3309 0.80446-12.409 2.0019-9.0357 0.53624 4.5256-1.966 12.235-2.2575 17.511-4.0117 12.067-4.0117-1.413 0-6.5655 0.68058-11.45 1.5124-15.846 2.6985-15.324 2.654-10.881 0.92798 16.698-6.4872 46.821-9.7499 69-7.4735 6.8188 0.69986 6.8641 0.72252 1.75 0.87579-3.6545 0.10952-5.25 0.56631-5.25 1.503 0 1.0204 2.961 1.4963 12.25 1.969 20.188 1.0272 41.304 6.2538 68.25 16.893 14.585 5.7586 18.1 6.9863 16.99 5.9341-1.5054-1.4276-27.626-11.504-39.49-15.234-5.775-1.8156-9.7125-3.4706-8.75-3.6776 3.2236-0.69332 1.8192-3.1333-2.5-4.3434-4.9256-1.3801-5.3436-1.4596-33.75-6.4201-17.513-3.0582-23.911-3.7516-34.5-3.7391-15.574 0.01844-31.379 2.633-47.154 7.8004-11.983 3.9254-15.763 5.9435-14.975 7.9957 0.8592 2.239-2.8574 2.7438-17.292 2.3486-13.174-0.36073-13.587-0.30915-13.879 1.7303-0.33508 2.3465 2.1246 4.3173 8.0502 6.45 8.024 2.8879 3.6889 3.9013-19.75 4.6167-14.242 0.4347-18.365 0.87215-19.75 2.0953-2.6668 2.3558-2.1331 4.2162 2.2978 8.0088 2.2263 1.9056 3.8846 3.628 3.6852 3.8274-0.37395 0.37395-7.4096-2.1394-13.951-4.9837-4.6269-2.0119-7.7821-2.0727-7.7821-0.15012 0 0.80657 2.4952 7.6416 5.5448 15.189 3.0496 7.5473 5.391 14.65 5.2031 15.784-0.5887 3.5512-9.0271-6.0894-13.707-15.66-2.2267-4.5535-3.764-6.929-3.4164-5.279 1.251 5.9369 7.622 16.536 12.665 21.07 5.3931 4.8489 7.0463 5.147 7.502 1.3529zm193.03-58.625c0.72187-0.28887 1.5844-0.25334 1.9167 0.07895 0.33229 0.33229-0.25834 0.56864-1.3125 0.52522-1.165-0.04798-1.4019-0.28494-0.60417-0.60417zm33.188 8.2848c0-0.54136-21.674-9.6017-22.969-9.6017-0.56696 0-1.0308 0.40203-1.0308 0.89339s5.0625 2.681 11.25 4.8658c11.983 4.2312 12.75 4.4624 12.75 3.8424zm-121.25-6.291c-0.9625-0.25153-2.5375-0.25153-3.5 0s-0.175 0.45732 1.75 0.45732 2.7125-0.2058 1.75-0.45732zm100.25-6.3107c-0.825-0.53316-2.175-0.94464-3-0.9144-0.98906 0.03625-0.81874 0.34772 0.5 0.9144 2.7491 1.1813 4.328 1.1813 2.5 0zm-5.2708-1.6042c-0.33229-0.33229-1.1948-0.36782-1.9167-0.07895-0.79773 0.31923-0.56078 0.55618 0.60417 0.60417 1.0542 0.04342 1.6448-0.19293 1.3125-0.52522z"/>
</svg>
