<?xml version="1.0" encoding="UTF-8" standalone="no"?>
<!-- Created with Inkscape (http://www.inkscape.org/) -->

<svg
   xmlns:dc="http://purl.org/dc/elements/1.1/"
   xmlns:cc="http://creativecommons.org/ns#"
   xmlns:rdf="http://www.w3.org/1999/02/22-rdf-syntax-ns#"
   xmlns:svg="http://www.w3.org/2000/svg"
   xmlns="http://www.w3.org/2000/svg"
   xmlns:sodipodi="http://sodipodi.sourceforge.net/DTD/sodipodi-0.dtd"
   xmlns:inkscape="http://www.inkscape.org/namespaces/inkscape"
   id="svg3336"
   height="428"
   viewBox="0 0 1438 428"
   width="1438"
   version="1.1"
   inkscape:version="0.91 r13725"
   sodipodi:docname="infernus.svg">
  <defs
     id="defs3393" />
  <sodipodi:namedview
     pagecolor="#ffffff"
     bordercolor="#666666"
     borderopacity="1"
     objecttolerance="10"
     gridtolerance="10"
     guidetolerance="10"
     inkscape:pageopacity="0"
     inkscape:pageshadow="2"
     inkscape:window-width="1920"
     inkscape:window-height="1017"
     id="namedview3391"
     showgrid="false"
     inkscape:zoom="0.70710678"
     inkscape:cx="811.12257"
     inkscape:cy="196.63471"
     inkscape:window-x="-8"
     inkscape:window-y="-8"
     inkscape:window-maximized="1"
     inkscape:current-layer="svg3336" />
  <metadata
     id="metadata3342">
    <rdf:RDF>
      <cc:Work
         rdf:about="">
        <dc:format>image/svg+xml</dc:format>
        <dc:type
           rdf:resource="http://purl.org/dc/dcmitype/StillImage" />
        <dc:title />
      </cc:Work>
    </rdf:RDF>
  </metadata>
  <path
     id="path3346"
     d="m 353.55019,392.81639 c -9.54523,-1.00023 -26.57854,-6.53744 -35.5744,-11.56452 -10.6689,-5.96221 -16.85141,-10.84987 -25.81403,-20.40894 -6.54999,-6.98608 -8.42414,-9.78529 -13.47024,-20.11811 -11.44264,-23.43188 -13.97437,-45.36522 -8.29986,-71.91421 3.84847,-18.00649 11.18504,-31.00953 25.24158,-44.73645 17.58361,-17.17181 35.7646,-26.00793 59.40976,-28.8739 9.8093,-1.18886 23.96094,-0.21686 34.97793,2.40265 6.42554,1.52772 20.01008,7.05985 24.87041,10.12784 2.04357,1.29006 3.94939,2.34559 4.23506,2.34559 1.36577,0 11.75287,8.41592 17.58453,14.24859 14.85798,14.85798 22.37376,29.03548 27.17962,51.26613 1.8204,8.42174 2.01375,11.24967 1.51497,22.15955 -0.94677,20.71088 -1.5436,23.2306 -9.06723,38.28063 -6.07227,12.14713 -8.82633,16.00843 -18.72113,26.25076 -18.97411,19.63983 -42.37368,30.09083 -69.29384,30.94859 -4.57041,0.14563 -11.21828,-0.04 -14.77304,-0.4125 z m 26.28492,-16.13215 c 29.6107,-5.61699 53.8154,-25.16587 64.53047,-52.11835 5.76868,-14.50989 7.51052,-33.9669 4.35961,-48.69839 -7.14276,-33.39445 -33.53202,-59.5261 -66.95324,-66.29769 -11.28937,-2.28742 -29.01517,-1.49226 -40.04693,1.79649 -39.88073,11.8886 -66.05486,51.31599 -60.71349,91.4534 3.93471,29.56731 21.55756,54.22074 47.60981,66.60147 7.53618,3.58144 18.63341,7.03058 25.85281,8.03486 6.574,0.91457 18.36196,0.55565 25.36161,-0.77225 z m -26.74843,-5.66916 c -16.59196,-2.78841 -33.87641,-11.86459 -44.95619,-23.60915 -25.02183,-26.49914 -28.61352,-68.03907 -8.48526,-97.9914 14.60684,-21.73483 40.45042,-35.64918 66.19243,-35.64918 12.1342,0 28.8185,4.80687 40.80035,11.75472 13.3733,7.75446 27.1473,24.73653 33.00389,40.69325 18.74421,51.06208 -19.86881,105.94113 -74.09139,105.30405 -5.58606,-0.0656 -11.19519,-0.29388 -12.46475,-0.50729 z m 28.46672,-14.69455 c 23.03578,-5.91549 41.21769,-24.34596 47.23771,-47.88403 3.75586,-14.68532 1.99823,-29.96341 -5.13382,-44.62472 -7.59011,-15.60217 -21.72375,-27.61727 -39.0239,-33.17378 -32.29662,-10.37344 -68.53026,7.41173 -80.37454,39.4514 -2.98028,8.06201 -3.93037,13.66782 -3.93988,23.24814 -0.0258,25.93499 15.98165,50.01042 39.77363,59.82156 5.7613,2.37578 9.16067,3.25265 19.45701,5.01895 3.78097,0.64862 16.38607,-0.41611 22.00351,-1.85854 z m -29.29678,-5.49372 c -9.88593,-2.14449 -20.66747,-8.12056 -28.16294,-15.61049 -11.02715,-11.01791 -16.71477,-23.28507 -17.78489,-38.35449 -0.72132,-10.162 1.25441,-19.79217 6.16996,-30.07328 2.82571,-5.91033 4.96743,-8.78322 10.38175,-13.92636 11.2432,-10.67998 18.53,-14.7518 31.14802,-17.40633 29.80829,-6.27041 58.02756,10.11214 67.83039,39.37753 2.11735,6.32147 2.59212,9.37626 2.63311,16.94467 0.0582,10.72984 -1.21332,16.87819 -5.347,25.85281 -11.80735,25.63491 -39.1504,39.20949 -66.8683,33.19686 z m 20.22983,-45.88875 c 4.91009,-3.34175 6.80889,-6.5776 6.80889,-11.60329 0,-14.35293 -17.89476,-19.58905 -25.97377,-7.59999 -4.38039,6.50014 -0.85992,17.22905 6.6909,20.39048 3.60406,1.50907 9.3107,0.96597 12.47398,-1.1872 z m -8.78072,-4.19184 c -3.405,-0.69835 -6.00367,-3.96666 -5.97219,-7.51099 0.0431,-4.85137 3.53408,-8.37972 8.29081,-8.37972 2.90974,0 7.37618,4.86439 7.37618,8.03339 0,4.90188 -4.86808,8.84729 -9.6948,7.85741 z m 738.65177,92.06186 c -9.5471,-1.00133 -26.5794,-6.53854 -35.5744,-11.56544 -10.6772,-5.96683 -16.8579,-10.85541 -25.8039,-20.40895 -6.4488,-6.88737 -8.4818,-9.90255 -13.4379,-19.92975 -11.4306,-23.12534 -14.0224,-45.5268 -8.3421,-72.10257 3.8459,-17.99356 11.1859,-31.01045 25.2111,-44.7069 16.8569,-16.4627 34.0795,-25.17325 56.3545,-28.5018 8.4288,-1.25959 11.6199,-1.31766 21.444,-0.38982 13.7814,1.30159 19.0886,2.52969 29.7086,6.8738 26.1972,10.71691 47.5756,32.47021 56.4459,57.43756 1.2727,3.58228 3.2393,11.03177 4.3703,16.55411 1.767,8.62727 1.975,11.73995 1.4781,22.1097 -0.9683,20.21136 -1.5424,22.6129 -9.0208,37.73679 -5.9153,11.96247 -8.8519,16.09615 -18.6214,26.20829 -15.1129,15.64372 -34.6991,26.31262 -54.7074,29.79998 -7.452,1.29892 -21.5317,1.72143 -29.5036,0.88531 z m 26.3145,-16.08414 c 28.7797,-5.06291 53.8283,-25.32098 64.5009,-52.16544 9.9487,-25.0246 7.3515,-53.5264 -6.9727,-76.50863 -12.2911,-19.72108 -32.7001,-33.84317 -55.6214,-38.48745 -10.3974,-2.10682 -28.9561,-1.45339 -38.6795,1.36189 -47.0419,13.61982 -73.061,61.30625 -58.6609,107.51077 7.7954,25.01075 26.8656,45.10854 51.3252,54.09147 14.8607,5.45744 29.2026,6.82348 44.1076,4.20136 z m -27.2378,-5.73434 c -14.9023,-2.04957 -34.1202,-12.3401 -44.7937,-23.98495 -28.487,-31.07969 -28.3291,-78.19368 0.3629,-108.16632 30.064,-31.40101 79.0191,-33.14884 110.6131,-3.9492 30.1831,27.89149 34.0167,73.56233 8.9511,106.61515 -9.8934,13.04644 -27.453,24.27118 -44.2065,28.2562 -7.4612,1.77517 -22.5704,2.37228 -30.9311,1.22247 z m 28.9284,-14.68255 c 23.3875,-6.0346 41.3654,-24.38474 47.3697,-48.3503 2.5172,-10.04843 2.0602,-24.90734 -1.0512,-34.18111 -5.28,-15.7379 -16.7803,-30.13792 -29.8498,-37.37671 -35.3334,-19.56873 -78.8926,-4.28159 -93.421,32.78506 -3.1487,8.03441 -4.3228,14.72964 -4.2986,24.51216 0.065,25.89529 16.4618,50.03535 40.6351,59.82434 5.1248,2.07505 8.4817,2.91407 18.6103,4.65166 3.7912,0.65038 16.3953,-0.41791 22.0035,-1.86501 z m -29.3614,-5.54912 c -9.9718,-2.17718 -20.5576,-8.0394 -28.067,-15.54216 -11.0262,-11.01791 -16.7147,-23.28507 -17.7848,-38.35449 -0.7124,-10.03459 1.2326,-19.61952 6.0901,-30.01327 2.7919,-5.97385 4.7748,-8.63733 10.3679,-13.92636 11.5923,-10.96251 16.7185,-13.89127 29.8554,-17.05732 30.1426,-7.26547 59.2122,9.10056 69.2163,38.9685 2.1175,6.32148 2.5921,9.37626 2.6332,16.94468 0.058,10.72984 -1.2133,16.87819 -5.347,25.85281 -11.8406,25.70693 -39.1273,39.20671 -66.9643,33.12853 z m 20.3129,-45.82411 c 4.9101,-3.34176 6.8089,-6.5776 6.8089,-11.6033 0,-14.30399 -17.6593,-19.6546 -25.7199,-7.79296 -7.9713,11.73071 7.2439,27.33658 18.9114,19.39607 z m -8.7809,-4.19139 c -3.405,-0.69835 -6.0037,-3.96665 -5.9722,-7.51098 0.043,-4.85137 3.5341,-8.37973 8.2908,-8.37973 2.9097,0 7.3762,4.86439 7.3762,8.03339 0,4.90188 -4.8681,8.8473 -9.6948,7.85741 z m -940.7654,43.94978 c -1.17169,-1.67286 -1.21001,-2.27551 -0.21968,-3.46243 0.65944,-0.79037 4.32278,-5.19041 8.14068,-9.7779 l 6.94167,-8.34095 -7.77034,-8.27872 c -17.20135,-18.32687 -26.52683,-31.48226 -38.1329,-53.79139 -6.03275,-11.59683 -6.33449,-13.29112 -2.67004,-14.99463 0.72779,-0.33834 2.56977,-1.31822 4.09324,-2.17745 1.52347,-0.85928 6.92486,-3.59613 12.00309,-6.08179 5.07823,-2.48574 11.7261,-6.04494 14.77303,-7.90948 19.91867,-12.18868 76.65359,-38.28248 102.9496,-47.34943 4.31649,-1.48829 11.49619,-4.00764 15.95488,-5.59842 14.58837,-5.20519 44.05227,-11.86644 68.06676,-15.38797 14.51543,-2.12879 37.47734,-0.74278 55.86054,3.37186 9.2747,2.07598 30.71961,9.1385 37.94454,12.49706 2.58815,1.2029 5.36815,2.18715 6.1779,2.18715 2.26388,0 2.62877,1.39734 1.12035,4.28963 -1.8747,3.59465 -1.81367,14.77211 0.10593,19.37299 0.82043,1.96638 6.53347,10.94959 12.69558,19.96391 19.41731,28.40301 20.22336,30.12222 24.56664,52.39811 3.80165,19.49856 3.60314,18.78114 4.91055,17.74334 0.61386,-0.48714 9.21819,-1.16522 19.12093,-1.50676 21.60187,-0.74512 42.19733,-1.91514 66.47866,-3.77654 9.90255,-0.75914 26.72996,-2.01033 37.39425,-2.78047 10.66428,-0.7701 20.42834,-1.65763 21.69789,-1.97238 1.58977,-0.39407 2.02086,-0.27214 1.38498,0.39167 -0.71096,0.74789 -28.4935,4.82894 -32.82384,4.82894 -0.48013,0 -0.87715,0.44319 -0.87715,0.98795 0,1.12616 1.25118,1.04704 45.70408,-2.88942 16.75816,-1.48396 33.17008,-2.92266 36.47093,-3.19707 5.88234,-0.48906 31.40747,-1.32025 98.79468,-3.21729 36.88827,-1.03846 73.58541,-3.04233 93.71644,-5.11738 16.56704,-1.70777 19.04429,-1.03024 28.40486,7.76932 9.37072,8.80842 25.74478,28.65507 32.29016,39.13839 3.09273,4.95294 5.83756,8.79097 6.09969,8.52884 0.2621,-0.26211 -2.56441,-6.48582 -6.28112,-13.83033 -5.671,-11.20627 -8.34704,-15.25501 -16.6409,-25.17602 -10.71599,-12.81838 -18.59926,-20.28707 -24.45122,-23.16505 -3.69003,-1.81468 -3.85263,-1.81579 -17.03147,-0.11402 -17.18289,2.21882 -34.99917,3.44083 -67.02249,4.5971 -14.21905,0.51341 -39.28797,1.58551 -55.71004,2.38233 -16.42116,0.79688 -30.00866,1.29708 -30.19424,1.11149 -0.48157,-0.48157 60.87229,-5.40629 78.64979,-6.31307 8.19793,-0.41814 20.45512,-1.21407 27.23779,-1.7688 15.49322,-1.26706 60.21028,-4.24531 83.8259,-5.58291 9.86746,-0.55894 18.2013,-1.17723 18.51984,-1.37408 0.53948,-0.33341 19.00367,-2.20654 41.55932,-4.21604 5.33215,-0.47504 10.52579,-0.96874 11.54144,-1.09699 1.2353,-0.15607 1.74137,0.2252 1.52873,1.15165 -0.17488,0.76174 -1.0824,4.35694 -2.0168,7.98935 -3.68494,14.32615 -4.73189,37.06462 -2.29323,49.81006 0.75555,3.94865 1.6904,7.49769 2.07746,7.88659 0.38714,0.38895 0.57624,-4.46331 0.42038,-10.78247 -0.34966,-14.17381 1.41397,-27.43538 6.19658,-46.59323 1.9649,-7.87126 3.8937,-15.09528 4.2861,-16.05368 0.6243,-1.52448 0.3777,-1.6808 -1.9729,-1.2509 -29.79726,5.44995 -75.15972,10.63843 -110.71472,12.66233 -10.15646,0.57834 -26.77613,1.6471 -36.93259,2.37495 -10.15646,0.72789 -25.03014,1.79299 -33.0519,2.36683 -8.02231,0.57387 -14.80165,0.82816 -15.06388,0.5651 -0.26306,-0.26308 0.74327,-2.90946 2.23627,-5.88078 4.27458,-8.50705 13.74077,-32.60132 18.78853,-47.82216 5.53389,-16.68615 7.04157,-27.28026 5.53906,-38.91957 -0.99072,-7.67459 -4.48334,-16.95667 -8.5065,-22.60644 -1.0981,-1.54212 -1.71616,-3.08433 -1.37343,-3.42706 0.34274,-0.34273 10.87942,-1.32551 23.41434,-2.18401 12.53492,-0.85849 30.68544,-2.19989 40.33408,-2.98083 9.64864,-0.78099 20.9694,-1.54009 25.15756,-1.6869 4.18797,-0.1468 7.61577,-0.47913 7.61734,-0.73851 0.0116,-1.88956 -16.77755,-20.49112 -34.31868,-38.02395 -18.22623,-18.210534 -21.43014,-21.034954 -24.49554,-21.562167 -1.92973,-0.333316 -7.87588,-1.578868 -13.21263,-2.767174 -15.42859,-3.436577 -32.20522,-6.706035 -39.70254,-7.735531 -26.14827,-3.590771 -74.68693,-3.666483 -99.71799,-0.155117 -50.70845,7.112294 -78.99881,14.26152 -123.26252,31.143409 -19.20494,7.32558 -27.46861,10.43899 -36.47093,13.73523 -8.15979,2.98729 -8.98496,3.33953 -24.00618,10.24879 -10.76862,4.9534 -12.01602,5.31294 -18.62788,5.37074 -8.15065,0.0713 -11.69655,1.89981 -13.1757,6.79393 -0.58806,1.9458 -1.79335,3.25053 -3.69326,3.99832 -5.55124,2.18484 -36.00373,17.49867 -40.37378,20.30277 -2.90318,1.86297 -4.45703,3.50786 -4.45703,4.71814 0,1.48321 -0.41906,1.741 -2.07745,1.27787 -1.14261,-0.31913 -4.77816,-1.2558 -8.07901,-2.08152 -3.30085,-0.82569 -6.38998,-1.85328 -6.86475,-2.28345 -1.11721,-1.01565 24.791,-13.4804 53.94928,-25.98208 42.93413,-18.39612 52.21529,-22.22511 65.55535,-27.05035 7.36343,-2.66321 22.52887,-8.4764 33.70098,-12.918097 27.16115,-10.799089 58.85762,-21.891792 75.25015,-26.336629 19.52072,-5.292441 51.76288,-12.618943 66.53683,-15.119279 11.48604,-1.943855 29.80091,-3.29568 39.51234,-2.500798 30.44815,0.677399 45.54896,3.476095 74.45887,8.139942 41.37742,6.866785 52.71665,8.47326 80.32838,11.380778 23.10041,2.432103 38.53361,4.342718 44.78076,5.543674 10.67075,2.051328 66.61527,10.463003 89.09987,13.396373 9.6486,1.258848 18.5669,2.530344 19.818,2.825528 1.2514,0.295165 9.561,1.528086 18.4663,2.739844 24.8963,3.387824 70.8506,10.200784 87.2865,12.940254 8.1252,1.35451 18.5051,2.84141 23.0663,3.30436 7.9093,0.80274 8.362,0.7498 9.7908,-1.14482 l 1.4983,-1.98642 16.7296,2.63016 16.7295,2.63015 -1.3605,2.07645 c -2.5059,3.82436 -1.8062,4.37235 7.938,6.21723 10.6569,2.01762 13.5063,3.61311 23.5926,13.21078 12.9809,12.35211 20.1707,22.24912 29.0299,39.95922 8.0375,16.06752 12.0382,28.24697 12.6236,38.42836 l 0.4836,8.42035 -7.0514,8.35766 c -3.8782,4.59673 -11.088,12.14621 -16.0213,16.77663 l -8.9706,8.41915 0.2313,7.11885 c 0.1273,3.91541 0.6882,13.67891 1.2466,21.6979 0.5584,8.01834 0.8385,14.75549 0.6226,14.97155 -0.3862,0.38609 -13.9882,2.65333 -33.0815,5.51422 -18.5161,2.77437 -22.3747,3.27453 -26.1806,3.39346 -2.1047,0.0657 -4.5444,0.48607 -5.4214,0.93402 -1.2917,0.65973 -1.8774,0.15279 -3.0839,-2.66912 -1.2238,-2.86283 -1.3822,-5.45799 -0.8885,-14.56344 0.9725,-17.93262 -2.1405,-33.5551 -9.6588,-48.47402 -4.1612,-8.2573 -7.5271,-12.97442 -14.6714,-20.55945 -21.8346,-23.18259 -49.6725,-35.27155 -80.9009,-35.12936 -14.8838,0.0675 -25.8158,2.02585 -39.0423,6.99374 -23.4291,8.80039 -39.5105,23.1909 -52.3529,46.84899 -6.4277,11.84151 -9.4012,22.67938 -10.5766,38.54285 -1.2778,17.25768 0.3146,31.50812 5.5621,49.77128 1.4809,5.15404 2.6925,10.45193 2.6925,11.77227 l 0,2.40985 -277.45612,0 c -152.60546,0 -277.45608,-0.34163 -277.45608,-0.76635 0,-0.42201 -1.0318,-1.31951 -2.29296,-1.99446 -3.30934,-1.7711 -3.62539,-3.94615 -1.47582,-10.15738 2.98692,-8.63096 3.64958,-12.58755 4.67529,-27.91642 1.06671,-15.94195 -0.10254,-29.20629 -3.72215,-42.22596 -2.45694,-8.8375 -7.92648,-19.93898 -15.32149,-31.09816 -3.61016,-5.44793 -15.38519,-16.9973 -21.89641,-21.47722 -9.44551,-6.50014 -27.18238,-13.47117 -40.29345,-15.82562 -9.48706,-1.70813 -30.52294,-1.47268 -39.70254,0.4445 -29.73996,6.21104 -51.42124,19.62597 -66.81197,41.33864 -5.65678,7.98003 -10.10938,18.33057 -13.06675,30.37336 -3.04768,12.41212 -3.66566,21.6305 -2.41475,36.02313 1.19477,13.74723 2.83328,21.3655 6.45637,30.01973 1.46004,3.48736 2.88296,7.85353 3.16217,9.70219 0.47697,3.15885 0.33784,3.39586 -2.30339,3.92409 -1.54194,0.31393 -24.33858,0.56322 -50.65305,0.56322 l -47.84432,0 z m 49.78513,-4.45961 c 12.78606,-1.24481 22.20849,-3.75401 30.46938,-8.11381 6.46847,-3.41377 7.98483,-5.48717 6.11743,-8.36477 -0.64895,-0.99995 -2.22436,-0.4096 -7.62261,2.85655 -9.56185,5.78503 -16.91421,8.46504 -31.27267,11.39924 -6.85562,1.40076 -12.88024,2.92562 -13.38807,3.38848 -0.56395,0.51405 0.33446,0.64348 2.30829,0.33255 1.77738,-0.28 7.80201,-0.95406 13.38806,-1.4979 z m 596.62751,-21.23162 c 1.42957,-0.5142 4.47799,-3.01786 6.77418,-5.56371 3.21397,-3.56335 5.0004,-4.76283 7.76092,-5.21073 2.38529,-0.38707 3.38672,-0.25954 2.9909,0.38089 -0.32728,0.52954 0.038,1.48829 0.8119,2.13045 1.12405,0.93283 2.4202,0.94086 6.44566,0.0401 2.77124,-0.62018 5.84255,-0.8725 6.82496,-0.56069 0.98241,0.31182 3.27094,-0.0535 5.08562,-0.81163 1.81468,-0.75821 3.29937,-1.01767 3.29937,-0.57657 0,0.44109 -2.04551,1.48137 -4.54548,2.3118 -7.54929,2.50744 -8.68174,6.02518 -1.93979,6.02518 3.03882,0 4.02048,-0.55172 6.6812,-3.75494 2.39563,-2.88406 3.86343,-3.81393 6.32895,-4.00959 1.76547,-0.14007 4.1106,-0.7367 5.21138,-1.32588 1.22265,-0.65433 2.21207,-0.73032 2.5428,-0.19527 0.31065,0.50264 3.18701,0.64173 6.75008,0.32642 3.41479,-0.30219 7.87071,-0.6178 9.90163,-0.70134 2.03129,-0.0836 5.37969,-0.22931 7.4409,-0.32392 2.06121,-0.0946 4.55416,-0.80164 5.53989,-1.57121 1.68929,-1.31877 1.63316,-1.36429 -0.9777,-0.7931 l -2.76994,0.60603 2.07745,-2.2672 c 2.42832,-2.63145 2.61298,-3.52706 0.72942,-3.52706 -0.74653,0 -2.25815,1.2184 -3.3592,2.70762 -1.95383,2.64271 -2.05862,2.67041 -4.37033,1.15571 l -2.36848,-1.55191 2.72691,-0.58484 c 2.43202,-0.52161 2.30838,-0.59668 -1.14269,-0.69411 -4.851,-0.13694 -5.64542,1.02885 -2.36756,3.47425 2.53154,1.88864 2.53339,1.89797 0.37512,1.92715 -2.89948,0.039 -8.5739,-2.71547 -7.88622,-3.82825 0.3008,-0.48671 1.11482,-0.667 1.80896,-0.40065 0.6941,0.26636 1.50759,0.087 1.80776,-0.3987 0.60456,-0.97816 -3.19836,-1.2017 -5.48929,-0.32255 -2.00341,0.76879 -1.83038,2.07561 0.52767,3.98502 1.95789,1.58543 1.9229,1.60989 -2.2936,1.60989 -3.50158,0 -4.09222,-0.22839 -3.24157,-1.25339 1.9143,-2.30654 -0.23163,-2.58566 -3.85346,-0.50123 -4.49063,2.58445 -6.38638,2.69701 -4.16969,0.24748 0.90336,-0.9982 3.3568,-2.20017 5.45218,-2.67106 l 3.80968,-0.85615 -3.52309,-0.0989 c -4.32037,-0.12125 -6.78645,1.05904 -10.11583,4.84168 l -2.55943,2.90761 0.62143,-2.69599 0.62145,-2.69598 -4.45453,2.48972 c -2.88702,1.61358 -4.77068,2.17357 -5.35283,1.59133 -0.85347,-0.85348 0.0113,-1.36392 7.6818,-4.53477 l 2.30828,-0.95415 -2.42637,-0.0625 c -2.87825,-0.0741 -8.65774,2.21365 -11.76303,4.65646 -1.21961,0.95932 -2.88859,1.74276 -3.70877,1.74082 -0.86809,-0.002 -0.23728,-0.76804 1.50952,-1.83306 3.44369,-2.09971 3.89261,-3.70342 1.03652,-3.70342 -1.72845,0 -1.50685,-0.49618 1.84663,-4.13432 2.09592,-2.27385 3.81088,-4.75221 3.81088,-5.50739 0,-2.68251 -3.43916,-3.51857 -9.86838,-2.39896 -4.53957,0.79054 -6.31557,0.78237 -7.29871,-0.0335 -1.469,-1.21915 -4.06924,0.30193 -4.06924,2.3804 0,0.63794 -1.24961,1.67747 -2.77687,2.31013 -3.65152,1.51248 -12.39088,11.01884 -15.16821,16.49963 -3.22422,6.36275 -1.47103,8.79873 4.72774,6.56911 z m -3.84255,-2.72378 c -1.04843,-1.69631 3.96019,-9.75944 9.05605,-14.57914 6.94656,-6.56975 8.79116,-6.49164 5.49326,0.23271 -2.11328,4.30893 -2.8728,5.07823 -5.01369,5.07823 -1.38774,0 -2.81712,0.47573 -3.17648,1.0572 -0.451,0.72974 0.10407,0.91239 1.79216,0.58969 3.38136,-0.64639 3.15016,1.16772 -0.66429,5.21221 -2.99865,3.17952 -6.34511,4.25611 -7.48698,2.40865 z m 36.9252,-0.93504 c -0.57246,-0.93255 3.02847,-3.71173 4.81047,-3.71173 0.64874,0 1.17953,0.36462 1.17953,0.81027 0,1.79917 -5.13206,4.2899 -5.98742,2.90585 z m -10.62735,-8.31907 c 0,-0.76635 2.25288,-1.85586 3.82252,-1.85586 0.49626,0 0.6765,0.36534 0.40053,0.81186 -0.67708,1.09552 -4.22379,1.97479 -4.22379,1.04713 z m -10.13061,-0.6426 c 0.0143,-0.4151 1.36466,-3.24767 3.00077,-6.29461 2.71639,-5.05857 3.31959,-5.61228 6.94305,-6.3729 2.43598,-0.51135 4.30339,-0.49781 4.83632,0.0351 1.50676,1.50676 -2.29905,7.1171 -6.59385,9.72066 -4.52544,2.74308 -8.22572,4.05935 -8.18629,2.91195 z m 74.22527,-8.24003 c 2.24365,-0.85869 1.7266,-2.20673 -0.84945,-2.20673 -1.43631,0 -2.30829,0.52322 -2.30829,1.38498 0,1.49023 0.84566,1.71108 3.15608,0.82452 z m 331.9132,-7.44377 c 13.7574,-7.45115 39.7948,-24.26471 39.7948,-25.65891 0,-0.18562 -4.051,1.99131 -9.0023,4.83761 -4.9512,2.8463 -13.5727,7.11229 -19.1588,9.47967 -14.4683,6.13247 -21.6979,9.9441 -21.6979,11.43895 0,1.67471 0.9773,4.21715 1.621,4.21715 0.275,0 4.0739,-1.93989 8.4419,-4.31096 z m -737.17451,-4.65923 c -3.27185,-28.82958 -6.58729,-37.39055 -24.90364,-64.30241 -12.77498,-18.77006 -13.52564,-20.31477 -13.52564,-27.86102 0,-5.08239 0.41872,-6.80058 2.37911,-9.76313 2.23063,-3.37074 2.66339,-3.59502 6.93529,-3.59502 2.50588,0 9.25161,-0.60518 14.99094,-1.3449 5.73905,-0.73968 15.83577,-1.8048 22.43747,-2.36692 6.6017,-0.5621 17.19674,-1.59428 23.54453,-2.29379 6.34778,-0.69948 18.1893,-1.54276 26.31447,-1.87386 8.12517,-0.33114 20.58991,-1.19071 27.69944,-1.91016 7.10952,-0.71946 23.72919,-2.331 36.93259,-3.58117 13.2034,-1.25016 25.25266,-2.48741 26.77612,-2.74935 1.52347,-0.26198 14.19597,-1.52024 28.1611,-2.79617 13.96514,-1.27592 27.05313,-2.54539 29.08442,-2.82109 2.03129,-0.27569 14.28829,-1.51018 27.23778,-2.74326 12.94949,-1.23309 35.59379,-3.46797 50.32066,-4.96624 14.72687,-1.49835 28.51657,-2.8692 30.64389,-3.04647 3.84524,-0.32044 3.89039,-0.28761 7.83303,5.69823 6.46321,9.81299 7.63748,14.20059 7.66481,28.64215 0.0268,14.18027 -1.05951,19.93621 -7.39686,39.19471 -4.02002,12.21638 -13.76939,37.53644 -16.44885,42.71716 -1.41332,2.73301 -1.50371,2.75969 -11.39832,3.35828 -5.4856,0.33187 -17.66025,1.22884 -27.05497,1.99334 -9.39473,0.76445 -27.46862,2.21485 -40.16419,3.22302 -27.22579,2.16212 -72.41835,6.00265 -86.79159,7.37562 -5.58605,0.53362 -20.54375,1.79409 -33.23933,2.80115 -12.69558,1.00697 -24.53709,2.03794 -26.31447,2.29102 -1.77738,0.25307 -12.37242,1.09118 -23.54453,1.86242 -18.57616,1.28249 -33.35105,2.3539 -50.94296,3.69409 l -6.62359,0.50462 z m 148.44131,-2.74945 c 0.89836,-0.23409 2.14486,-0.2187 2.76995,0.0343 0.62511,0.25292 -0.1099,0.44446 -1.63335,0.42564 -1.52346,-0.0188 -2.03489,-0.22575 -1.1366,-0.45985 z m 8.75395,-0.89496 c 0.63478,-0.25613 1.67351,-0.25613 2.30829,0 0.63478,0.25614 0.11541,0.46572 -1.15415,0.46572 -1.26955,0 -1.78892,-0.20958 -1.15414,-0.46572 z m 66.94032,-5.56481 c 0.88869,-0.23224 2.34291,-0.23224 3.2316,0 0.88869,0.23224 0.16158,0.42226 -1.6158,0.42226 -1.77738,0 -2.50449,-0.19002 -1.6158,-0.42226 z M 466.23069,173.10306 c -10.95975,-1.20031 -14.00669,-3.13927 -10.43346,-6.6571 2.14209,-2.11439 36.59096,-20.0821 38.49299,-20.0821 0.65578,0 1.04205,2.5683 1.07613,7.15569 0.0778,10.46485 0.94565,14.36493 3.44082,15.46368 3.83129,1.68699 2.0192,3.64645 -3.96481,4.28723 -7.34321,0.78636 -20.61392,0.70997 -28.61352,-0.16472 z m 43.8436,-6.32203 c 0.46505,-3.62512 1.25903,-5.15126 4.04818,-7.78188 l 3.46963,-3.27232 -0.28964,-10.14631 -0.28964,-10.1463 4.8474,-2.37504 c 3.79778,-1.86076 4.84741,-2.08162 4.84741,-1.01999 0,0.74525 1.6363,6.24604 3.6361,12.22376 1.9999,5.97791 4.46598,13.88019 5.48034,17.56053 l 1.84423,6.69135 -2.01791,0.40351 c -2.14209,0.44319 -22.39961,2.38215 -24.74483,2.38215 -1.13439,0 -1.28766,-0.84548 -0.81765,-4.50947 z m 33.25779,-0.0739 c 0,-1.03301 -2.64788,-9.04553 -5.88419,-17.80521 -3.23631,-8.76013 -6.17079,-16.85603 -6.521,-17.99078 -0.68325,-2.23443 -0.60939,-2.28059 17.48758,-10.14723 33.147,-14.41018 71.09523,-27.292263 113.17069,-38.407126 29.73073,-7.856485 66.76489,-11.109323 107.243,-9.418733 l 16.35745,0.683197 15.11189,30.602342 c 19.02859,38.53362 18.17453,36.40538 15.48399,38.58348 -1.43049,1.15839 -3.61127,1.71349 -6.73124,1.71349 -2.53838,0 -10.9062,0.61463 -18.59464,1.36586 -7.68881,0.7512 -21.45876,2.00063 -30.59957,2.77649 -9.14082,0.77588 -29.70765,2.65666 -45.70408,4.17948 -15.99643,1.52282 -38.22523,3.5941 -49.39734,4.60273 -11.17211,1.00872 -28.8305,2.65979 -39.24088,3.66916 -10.41037,1.00936 -27.03004,2.47679 -36.93259,3.26105 -16.35375,1.29523 -28.87482,2.44134 -40.85667,3.7397 -3.9505,0.4281 -4.38575,0.28888 -4.38575,-1.40288 z m -42.80579,-6.99365 c -0.33723,-4.38722 -1.0234,-8.74324 -1.52476,-9.68003 -0.50137,-0.9368 -0.89776,-3.28867 -0.88086,-5.22643 0.0705,-8.08879 8.8099,-11.66146 14.94477,-6.10994 1.34822,1.22007 1.55329,2.58897 1.20326,8.03044 -0.43379,6.74223 -1.25949,8.16884 -6.49505,11.22197 -1.03209,0.60189 -1.8699,2.52674 -2.21042,5.07823 -0.43411,3.2533 -0.95185,4.16655 -2.48602,4.38565 -1.80121,0.25723 -1.98088,-0.28533 -2.55085,-7.69998 z m -83.22759,1.24647 c -2.53912,-0.48573 -5.75918,-0.84576 -7.15569,-0.80005 -1.39651,0.0457 -2.53912,-0.15138 -2.53912,-0.43797 0,-0.2866 4.46654,-2.6236 9.92564,-5.19328 35.87724,-16.88835 53.73784,-24.12344 96.25556,-38.99066 17.92246,-6.26709 27.83794,-9.8767 33.23933,-12.09819 8.21676,-3.38063 26.3394,-10.214632 35.54762,-13.404684 15.87178,-5.502033 41.80769,-13.845105 43.0357,-13.845105 1.68615,0 8.07642,-7.259562 11.15549,-12.673418 2.19388,-3.857239 3.42346,-5.015722 6.13127,-5.776718 5.22245,-1.467701 56.03689,-4.121954 62.47886,-3.263549 l 5.53989,0.738172 -6.00155,1.313692 c -40.85021,8.94175 -73.04435,18.725746 -111.72108,33.953976 -7.36344,2.899116 -20.65917,7.976424 -29.54607,11.282904 -8.88691,3.30639 -25.50657,9.75482 -36.93259,14.32985 -11.42602,4.57484 -30.12961,11.7501 -41.56302,15.94472 -28.3633,10.40576 -31.65953,11.7658 -47.53685,19.60843 -8.69043,4.29286 -14.09625,7.50618 -14.51267,8.6258 -0.36449,0.98139 -0.77998,1.73546 -0.92331,1.67572 -0.1385,-0.0554 -2.33599,-0.50782 -4.8751,-0.98795 z M 822.87393,137.4801 c -0.79405,-1.96666 -6.64787,-14.18212 -13.00027,-27.12699 -9.75944,-19.881734 -16.32421,-34.266054 -16.32421,-35.763671 0,-0.631242 5.61644,0.262351 36.89474,5.870158 4.29581,0.770174 8.06875,1.559941 8.38443,1.755037 0.31566,0.195087 4.34946,1.178704 8.96401,2.185855 4.61454,1.007152 10.08444,2.695802 12.15636,3.752536 2.07145,1.056734 5.69639,2.185948 8.05546,2.509292 5.40407,0.740711 8.52044,3.420143 16.83018,14.470193 3.49013,4.64796 10.72892,13.43792 16.07491,19.5318 l 9.7225,11.07977 -8.91525,0.63779 c -16.54949,1.18397 -55.92979,3.64202 -66.70487,4.16369 l -10.7003,0.51803 z m 423.09977,-27.21009 c -10.4104,-1.46613 -23.0829,-3.47101 -28.1611,-4.45536 -5.0783,-0.98434 -10.7714,-2.04302 -12.6513,-2.35261 -2.649,-0.43619 -4.4767,-1.75005 -8.119,-5.836637 -5.1921,-5.825469 -6.3773,-8.70021 -4.513,-10.946819 1.0923,-1.316185 3.5065,-1.430584 20.6471,-0.978437 15.7268,0.414855 21.3738,0.937903 29.7594,2.756279 13.4739,2.92183 15.5828,4.339487 25.0144,16.813564 2.3056,3.04943 4.5877,6.06387 5.0712,6.69865 1.3483,1.77018 -5.4451,1.34351 -27.0467,-1.69863 z"
     inkscape:connector-curvature="0"
     style="fill:#ffffff" />
</svg>
