<?xml version="1.0" encoding="UTF-8" standalone="no"?>
<!-- Created with Inkscape (http://www.inkscape.org/) -->

<svg
   xmlns:dc="http://purl.org/dc/elements/1.1/"
   xmlns:cc="http://creativecommons.org/ns#"
   xmlns:rdf="http://www.w3.org/1999/02/22-rdf-syntax-ns#"
   xmlns:svg="http://www.w3.org/2000/svg"
   xmlns="http://www.w3.org/2000/svg"
   xmlns:sodipodi="http://sodipodi.sourceforge.net/DTD/sodipodi-0.dtd"
   xmlns:inkscape="http://www.inkscape.org/namespaces/inkscape"
   id="svg4190"
   height="499"
   viewBox="0 0 499 499"
   width="499"
   version="1.1"
   inkscape:version="0.91 r13725"
   sodipodi:docname="lamar.svg">
  <sodipodi:namedview
     pagecolor="#ffffff"
     bordercolor="#666666"
     borderopacity="1"
     objecttolerance="10"
     gridtolerance="10"
     guidetolerance="10"
     inkscape:pageopacity="0"
     inkscape:pageshadow="2"
     inkscape:window-width="1920"
     inkscape:window-height="1017"
     id="namedview3541"
     showgrid="false"
     inkscape:zoom="0.66884649"
     inkscape:cx="162.3472"
     inkscape:cy="253.83507"
     inkscape:window-x="-8"
     inkscape:window-y="-8"
     inkscape:window-maximized="1"
     inkscape:current-layer="svg4190" />
  <metadata
     id="metadata4196">
    <rdf:RDF>
      <cc:Work
         rdf:about="">
        <dc:format>image/svg+xml</dc:format>
        <dc:type
           rdf:resource="http://purl.org/dc/dcmitype/StillImage" />
        <dc:title />
      </cc:Work>
    </rdf:RDF>
  </metadata>
  <defs
     id="defs4194">
    <linearGradient
       id="linearGradient4139"
       y2="11.199"
       gradientUnits="userSpaceOnUse"
       y1="489.91"
       x2="306.16"
       x1="307.4"
       gradientTransform="matrix(0.81,0,0,0.81,45.807,5.7664265)">
      <stop
         id="stop4135"
         stop-color="#397b22"
         offset="0" />
      <stop
         id="stop4137"
         stop-color="#85be5f"
         offset="1" />
    </linearGradient>
  </defs>
  <path
     id="path4200"
     d="m 84.87087,403.33873 c -14.97852,-3.6531 -27.80244,-16.8885 -30.89016,-31.8816 -0.620703,-3.0132 -0.88371,-51.6051 -0.88371,-163.2474 0,-140.057104 0.14742,-159.529504 1.2393,-163.782004 4.17717,-16.27047 17.74143,-28.69911 33.9957,-31.15422 3.87666,-0.58506 55.8738,-0.78481 164.43,-0.63107 l 158.76,0.22484 5.40975,2.106 c 13.13253,5.1124 20.89638,12.9762 25.97427,26.3088 l 1.8263,4.79528 0.22484,158.760004 c 0.15373,108.5562 -0.0459,160.5501 -0.63146,164.43 -2.22871,14.7582 -12.72186,27.49059 -27.19899,33.00426 l -4.7952,1.8225 -161.595,0.1377 c -129.195,0.1134 -162.453596,-0.0729 -165.863696,-0.8991 z"
     style="fill:url(#linearGradient4139)"
     inkscape:connector-curvature="0" />
  <path
     id="path6521"
     d="m 256.5042,344.01433 c -2.05375,-1.26295 -33.5016,-10.81998 -50.68332,-15.40296 -31.06269,-8.28549 -40.30236,-12.53961 -44.44389,-20.46303 -1.10533,-2.11491 -4.09277,-17.26272 -5.88335,-29.8323 -0.26475,-1.85838 -0.68833,-4.39465 -0.9413,-5.63622 -0.82207,-4.03477 -3.06261,-0.54873 -4.75843,7.40364 -1.8208,8.53821 -8.98614,39.31416 -9.80505,42.11028 -0.3444,1.17677 -2.13856,-3.71012 -4.78491,-13.0329 -17.3178,-61.01001 -20.61369,-75.92454 -20.61369,-93.2958 0,-9.11493 -0.20212,-10.29105 -2.02217,-11.76444 -5.08259,-4.11561 -6.4101,-49.86846 -1.92229,-66.2499 3.18192,-11.61459 9.7848,-24.48225 16.01775,-31.21497 6.66881,-7.203094 21.49011,-18.689944 30.8934,-23.298844 20.45574,-10.02618 40.78998,-11.92158 53.82855,-10.65069 19.87983,1.93817 46.99215,8.87274 61.18902,20.09529 13.84695,10.945534 28.33704,35.795524 28.33704,48.599194 0,4.21945 0.212,4.67119 2.17209,4.62842 1.19467,-0.0261 8.2539,-0.42953 15.68808,-0.89659 16.06392,-1.00934 45.53496,0.2744 56.25855,2.4505 11.78793,2.39217 30.25593,8.05042 35.49177,10.87425 4.34687,2.34422 4.86964,2.99716 5.65607,7.06538 0.74415,3.84928 0.56982,4.96255 -1.23411,7.88146 -3.78918,6.13098 -15.0417,11.81466 -28.06731,14.17662 -10.77867,1.95462 -40.23756,3.8437 -60.14007,3.85658 -11.01762,0.006 -20.02563,0.12156 -20.01834,0.25431 0.007,0.13275 1.51632,4.74458 3.35299,10.24812 2.24581,6.72997 3.06302,10.52352 2.49545,11.58462 -0.46415,0.86767 -1.96474,5.70467 -3.33453,10.7487 l -2.49067,9.17163 2.06874,6.27507 c 1.68707,5.11742 2.07838,8.67915 2.12099,19.30797 0.0577,14.39046 -0.78863,18.69075 -9.49968,48.26952 -2.42376,8.2296 -5.5485,18.89082 -6.94389,23.69088 l -2.53708,8.72775 -13.13739,2.27051 c -16.18866,2.79774 -20.4525,3.18914 -22.30902,2.0476 z m -112.6629,-81.4536 c -2.81459,-3.22396 -10.91232,-9.73539 -10.91232,-8.77392 0,0.30231 0.8437,3.88022 1.87483,7.95096 1.03121,4.07074 2.36568,10.44252 2.96549,14.1588 0.59984,3.71677 1.29486,7.38388 1.5445,8.14941 0.24967,0.76522 1.97956,-3.05824 3.84426,-8.4969 l 3.39034,-9.88767 z m 34.50114,-64.5003 c 6.55209,-12.97296 12.31848,-16.97274 31.81761,-22.06926 14.99634,-3.91991 29.62008,-5.24345 49.7178,-4.49979 27.57807,1.02044 39.02256,2.9629 46.21536,7.84436 4.13967,2.80924 9.79695,3.10919 28.06893,1.48821 48.80898,-4.33009 53.63091,-5.00418 63.04311,-8.81199 2.78753,-1.12776 5.06833,-2.65801 5.06833,-3.40062 0,-3.23959 -16.94439,-10.05291 -31.23117,-12.55824 -10.45548,-1.83343 -43.5618,-1.32929 -67.72248,1.03129 -45.77067,4.47201 -101.5092,15.27417 -130.7178,25.33356 -12.6441,4.35489 -38.60865,14.37345 -39.46239,15.22719 -1.19953,1.19953 2.18352,2.52631 5.09385,1.99779 1.59294,-0.28929 6.01401,-0.79126 9.82449,-1.11553 6.052,-0.51494 7.35893,-0.32343 10.33155,1.51389 3.40281,2.10308 7.37667,9.02664 10.24488,17.84916 l 1.22828,3.77832 3.17115,-9.69246 c 1.7441,-5.33085 4.13084,-11.59272 5.30388,-13.91499 z m -48.63159,-11.5587 c 12.2796,-5.33417 43.74405,-16.51428 55.25091,-19.63197 25.75719,-6.97872 53.39682,-12.35655 89.7966,-17.47251 5.53028,-0.77721 10.26675,-1.62462 10.52514,-1.88309 0.25849,-0.25851 -0.28913,-3.27442 -1.21694,-6.7021 -5.11929,-18.91188 -27.44199,-43.983814 -48.14964,-54.078844 -12.7251,-6.20338 -32.66649,-7.27623 -45.09918,-5.84059 -16.96464,1.95907 -39.13272,12.72186 -48.85839,24.084544 -3.98407,4.65451 -13.86882,17.89209 -17.16552,27.78057 -6.91578,20.74653 -8.47422,47.05695 -3.1522,53.2089 2.60618,3.01239 2.39663,2.99846 8.06744,0.53511 z"
     inkscape:connector-curvature="0"
     style="fill:#ffffff" />
  <text
     xml:space="preserve"
     style="font-style:normal;font-variant:normal;font-weight:bold;font-stretch:normal;font-size:95.54141235px;line-height:125%;font-family:Calibri;-inkscape-font-specification:'Calibri Bold';text-align:center;letter-spacing:0px;word-spacing:0px;text-anchor:middle;fill:#ececec;fill-opacity:1;stroke:none;stroke-width:1px;stroke-linecap:butt;stroke-linejoin:miter;stroke-opacity:1"
     x="251.81616"
     y="490.94284"
     id="text4174"
     sodipodi:linespacing="125%"><tspan
       sodipodi:role="line"
       x="251.81616"
       y="490.94284"
       id="tspan4178">Lamar</tspan></text>
</svg>
