<?xml version="1.0" encoding="UTF-8" standalone="no"?>
<!-- Created with Inkscape (http://www.inkscape.org/) -->

<svg
   xmlns:dc="http://purl.org/dc/elements/1.1/"
   xmlns:cc="http://creativecommons.org/ns#"
   xmlns:rdf="http://www.w3.org/1999/02/22-rdf-syntax-ns#"
   xmlns:svg="http://www.w3.org/2000/svg"
   xmlns="http://www.w3.org/2000/svg"
   xmlns:sodipodi="http://sodipodi.sourceforge.net/DTD/sodipodi-0.dtd"
   xmlns:inkscape="http://www.inkscape.org/namespaces/inkscape"
   id="svg4190"
   height="499"
   viewBox="0 0 499 499"
   width="499"
   version="1.1"
   inkscape:version="0.91 r13725"
   sodipodi:docname="lester.svg">
  <sodipodi:namedview
     pagecolor="#ffffff"
     bordercolor="#666666"
     borderopacity="1"
     objecttolerance="10"
     gridtolerance="10"
     guidetolerance="10"
     inkscape:pageopacity="0"
     inkscape:pageshadow="2"
     inkscape:window-width="1490"
     inkscape:window-height="791"
     id="namedview3579"
     showgrid="false"
     inkscape:zoom="0.47294589"
     inkscape:cx="51.802966"
     inkscape:cy="249.5"
     inkscape:window-x="0"
     inkscape:window-y="0"
     inkscape:window-maximized="0"
     inkscape:current-layer="svg4190" />
  <metadata
     id="metadata4196">
    <rdf:RDF>
      <cc:Work
         rdf:about="">
        <dc:format>image/svg+xml</dc:format>
        <dc:type
           rdf:resource="http://purl.org/dc/dcmitype/StillImage" />
        <dc:title />
      </cc:Work>
    </rdf:RDF>
  </metadata>
  <defs
     id="defs4194">
    <linearGradient
       id="linearGradient7111"
       y2="99"
       gradientUnits="userSpaceOnUse"
       x2="255.59"
       gradientTransform="matrix(0.875691,0,0,0.875691,28.72815,-17.595593)"
       y1="412"
       x1="248.41">
      <stop
         id="stop7107"
         stop-color="#333"
         offset="0" />
      <stop
         id="stop7109"
         stop-color="#979797"
         offset="1" />
    </linearGradient>
  </defs>
  <path
     id="path4200"
     d="m 84.87087,403.33873 c -14.97852,-3.6531 -27.80244,-16.8885 -30.89016,-31.8816 -0.620703,-3.0132 -0.88371,-51.6051 -0.88371,-163.2474 0,-140.057104 0.14742,-159.529504 1.2393,-163.782004 4.17717,-16.27047 17.74143,-28.69911 33.9957,-31.15422 3.87666,-0.58506 55.8738,-0.78481 164.43,-0.63107 l 158.76,0.22484 5.40975,2.106 c 13.13253,5.1124 20.89638,12.9762 25.97427,26.3088 l 1.8263,4.79528 0.22484,158.760004 c 0.15373,108.5562 -0.0459,160.5501 -0.63146,164.43 -2.22871,14.7582 -12.72186,27.49059 -27.19899,33.00426 l -4.7952,1.8225 -161.595,0.1377 c -129.195,0.1134 -162.453596,-0.0729 -165.863696,-0.8991 z"
     inkscape:connector-curvature="0"
     style="fill:#e2eaf4" />
  <path
     id="path7088"
     d="m 225.6837,346.67113 c -7.80265,-1.69752 -13.56831,-4.97421 -19.98027,-11.35458 -4.32427,-4.30304 -7.69273,-6.63163 -14.10615,-9.75159 -23.895,-11.62431 -31.89618,-24.10884 -36.84123,-57.48246 -1.15425,-7.79139 -1.34241,-13.09284 -0.89408,-25.19262 0.31231,-8.42886 0.93142,-16.87959 1.37587,-18.78066 0.75194,-3.21602 0.60251,-3.68323 -2.15395,-6.73426 -5.36674,-5.94038 -5.58819,-6.87544 -5.74809,-24.27813 -0.15788,-17.17686 0.15116,-18.5004 4.32678,-18.5247 3.8411,-0.0224 4.24699,-0.85414 4.26659,-8.74314 0.0173,-6.93174 2.14707,-15.59007 4.63118,-18.82764 0.36959,-0.48162 1.69201,-3.39568 2.93868,-6.47579 4.16583,-10.29186 17.75358,-31.88565 23.62851,-37.5516 12.76965,-12.314434 25.97103,-23.838304 27.30834,-23.838304 0.40562,0 0.26462,0.47287 -0.31333,1.05082 -1.26886,1.26886 -1.38542,3.32764 -0.18829,3.32764 0.47439,0 2.78381,-1.1822 5.13208,-2.62707 2.34827,-1.44488 5.06566,-2.62708 6.03871,-2.62708 0.97306,0 4.38648,-0.98512 7.58541,-2.18918 3.19893,-1.20407 6.75969,-2.18919 7.91289,-2.18919 1.15312,0 3.9558,-0.79694 6.22817,-1.77099 4.87393,-2.08923 5.74865,-2.14277 14.58891,-0.89375 6.05232,0.85512 7.31041,0.76664 12.11679,-0.85252 2.9497,-0.99371 6.11234,-1.56889 7.02805,-1.27827 0.9157,0.29065 2.79903,-0.14147 4.1851,-0.96025 3.57826,-2.1137 7.29098,-1.16624 16.00155,4.08378 7.23735,4.36193 7.42301,4.41814 14.44068,4.37554 3.9102,-0.0237 7.65369,-0.24357 8.3187,-0.48849 3.26835,-1.20318 4.27705,2.25504 2.9497,10.11204 -0.63084,3.73394 0.52161,4.88794 7.01687,7.02602 5.14358,1.69322 5.69065,2.34576 5.7054,6.805864 0.0162,4.89256 0.1844,5.15995 5.54023,8.8047 2.33207,1.58712 5.58309,4.06483 7.22439,5.50598 2.68159,2.35442 2.98429,3.08529 2.98429,7.20454 0,3.72365 0.82215,6.26543 4.37902,13.53915 3.66914,7.50287 4.22099,9.2502 3.40402,10.77624 -0.61018,1.14016 -0.7576,3.7435 -0.39396,6.95758 0.45522,4.02384 0.25988,5.67939 -0.90226,7.64672 -1.4431,2.44288 -1.40948,2.66247 1.23841,8.09782 2.55692,5.24847 2.72872,6.22857 2.83815,16.18542 0.0878,7.98676 -0.21407,11.23794 -1.2248,13.19247 -1.07049,2.07019 -1.15927,3.37624 -0.43973,6.47117 1.97057,8.47584 -1.0965,24.15177 -6.54383,33.44652 -2.43632,4.15732 -9.86094,11.49309 -13.14711,12.99078 -1.8549,0.84515 -2.16181,1.69808 -2.59848,7.22115 -0.59821,7.56604 -2.90255,15.1875 -8.64108,28.58085 -3.76099,8.77797 -12.70242,24.24006 -13.53591,23.40657 -0.16039,-0.16038 1.45695,-6.99192 3.59397,-15.18102 4.99859,-19.15407 6.57915,-28.39698 6.57915,-38.47176 l 0,-8.13645 2.84601,-0.94163 c 7.83335,-2.59167 17.30808,-13.80807 21.08673,-24.9642 3.14037,-9.27045 1.2065,-19.5048 -4.61044,-24.39963 -3.04333,-2.56081 -5.70232,-2.95431 -9.19836,-1.36128 -3.39301,1.54596 -4.88648,4.51469 -8.90757,17.70822 -2.56988,8.43129 -4.68082,13.56993 -6.89553,16.78563 -3.36911,4.89183 -4.82865,5.93462 -7.09122,5.06638 -2.36682,-0.90825 -2.66134,-3.54804 -1.42852,-12.80367 1.42528,-10.7001 0.91044,-23.24538 -1.29365,-31.52277 l -1.58298,-5.94507 -7.88122,-0.37772 c -4.33464,-0.20775 -10.44252,-0.48792 -13.57317,-0.62259 l -5.69195,-0.24488 -0.4434,10.97631 -0.4434,10.97631 -3.37665,4.59991 c -1.87344,2.55207 -4.98968,5.45956 -6.99993,6.53087 -3.46203,1.8451 -4.44188,1.91824 -22.01256,1.64397 -20.73438,-0.32366 -19.84176,-0.0437 -24.17445,-7.58038 -2.40749,-4.18754 -2.51765,-4.86154 -2.5255,-15.45561 l -0.008,-11.07675 -6.3487,-1.32824 c -3.99913,-0.83673 -7.96911,-1.11229 -10.72683,-0.74467 l -4.37846,0.5836 -0.50127,11.38374 c -0.56565,12.8466 -1.80767,16.44462 -7.35876,21.31839 -3.64792,3.2029 -2.06016,2.99133 -20.81862,2.77441 -15.31305,-0.17706 -15.70104,-0.0761 -13.74651,3.57664 0.5067,0.94681 1.69824,9.29475 2.64772,18.55062 4.35967,42.49746 7.61854,53.78886 18.55467,64.29051 9.42354,9.04932 24.95853,15.42321 43.11468,17.69121 27.10908,3.38604 36.18594,1.79739 61.80705,-10.81755 5.42182,-2.6696 10.05129,-4.66009 10.28781,-4.42349 1.64317,1.64316 -11.77659,9.22185 -28.74852,16.23483 -16.4916,6.81501 -23.0688,8.13807 -40.90095,8.22555 -14.28192,0.0706 -14.99715,0.95645 -3.30642,4.09422 12.51288,3.35834 40.99896,3.23595 51.92829,-0.2231 5.74663,-1.8187 3.79064,0.18474 -3.52933,3.61495 -9.44136,4.42422 -15.09516,5.8111 -28.42371,6.97175 -12.64248,1.10095 -12.40515,1.10557 -19.20024,-0.37286 z m -32.2218,-133.9821 c 2.92013,-0.88144 4.41644,-28.80036 1.66593,-31.08294 -1.00173,-0.83138 -6.05427,-0.9328 -21.86433,-0.43873 l -20.56185,0.64249 0.49678,14.12397 c 0.67702,19.24803 -0.82644,18.05085 21.9591,17.48142 9.53289,-0.23816 17.77059,-0.56503 18.30438,-0.72639 z m 82.1421,-2.26111 c 2.2245,-2.64368 2.26703,-2.94776 2.26703,-16.2 l 0,-13.50594 -22.76748,0 -22.76748,0 0,14.68368 0,14.68368 2.40813,1.49307 c 2.06266,1.27883 5.00402,1.49639 20.5011,1.51632 l 18.09297,0.0233 2.26703,-2.69423 z m -48.39183,-33.78024 c 1.3203,-1.6294 13.8105,-2.81265 34.71498,-3.28885 18.53604,-0.42223 19.60767,-0.35817 21.23577,1.27 0.94308,0.94308 1.71469,2.05141 1.71469,2.46297 0,1.2201 22.20858,1.89734 22.98942,0.70109 0.36313,-0.55634 1.67281,-4.16404 2.91033,-8.01705 2.7446,-8.54469 3.74066,-22.599 2.22045,-31.32837 -1.45395,-8.34948 -5.98444,-19.62387 -9.40815,-23.41386 -5.85516,-6.48097 -18.2331,-11.37159 -28.78092,-11.37159 -15.01416,0 -34.42905,6.49458 -43.25724,14.47065 -1.85247,1.67362 -3.58376,3.04293 -3.84734,3.04293 -0.26356,0 -1.33504,-1.38478 -2.38107,-3.07719 -1.04604,-1.69242 -3.7354,-4.33877 -5.97651,-5.88069 -3.94016,-2.7109 -4.37845,-2.80446 -13.27509,-2.8337 l -9.20079,-0.0302 -6.56764,3.89634 c -3.61219,2.14302 -7.47184,4.57788 -8.57709,5.4108 -3.2272,2.43243 -10.81593,14.63751 -12.9924,20.89557 -2.37905,6.84094 -4.21321,24.03513 -3.17698,29.78208 l 0.71045,3.94057 16.90713,0.43784 c 15.44103,0.39989 17.01405,0.5852 18.14805,2.13768 0.68256,0.9349 1.24108,2.25779 1.24108,2.93965 0,0.8381 0.49658,1.03477 1.53244,0.60703 6.15616,-2.54211 14.53383,-2.58876 19.23264,-0.107 2.2049,1.16462 2.47123,1.14777 2.75408,-0.17376 0.17224,-0.80467 0.68122,-1.91719 1.13109,-2.47237 z"
     style="fill:url(#linearGradient7111)"
     inkscape:connector-curvature="0" />
  <text
     xml:space="preserve"
     style="font-style:normal;font-variant:normal;font-weight:bold;font-stretch:normal;font-size:95.54141235px;line-height:125%;font-family:Calibri;-inkscape-font-specification:'Calibri Bold';text-align:center;letter-spacing:0px;word-spacing:0px;text-anchor:middle;fill:#ececec;fill-opacity:1;stroke:none;stroke-width:1px;stroke-linecap:butt;stroke-linejoin:miter;stroke-opacity:1"
     x="251.81616"
     y="490.94284"
     id="text4174"
     sodipodi:linespacing="125%"><tspan
       sodipodi:role="line"
       x="251.81616"
       y="490.94284"
       id="tspan4178">Lester</tspan></text>
</svg>
