<?xml version="1.0" encoding="UTF-8" standalone="no"?>
<!-- Created with Inkscape (http://www.inkscape.org/) -->
<svg id="svg3356" xmlns:rdf="http://www.w3.org/1999/02/22-rdf-syntax-ns#" xmlns="http://www.w3.org/2000/svg" height="375" viewBox="0 0 1250 375" width="1250" version="1.1" xmlns:cc="http://creativecommons.org/ns#" xmlns:dc="http://purl.org/dc/elements/1.1/">
 <metadata id="metadata3362">
  <rdf:RDF>
   <cc:Work rdf:about="">
    <dc:format>image/svg+xml</dc:format>
    <dc:type rdf:resource="http://purl.org/dc/dcmitype/StillImage"/>
    <dc:title/>
   </cc:Work>
  </rdf:RDF>
 </metadata>
 <path id="path3366" fill="#fff" d="m382.5 306.26c-3.7812-1.324-16.633-3.6963-28.559-5.2717-17.449-2.305-21.912-3.2908-22.854-5.0474-2.4723-4.6113 4.6866-22.789 17.183-43.63 10.96-18.27 11.73-20.01 11.73-26.34 0-12.798-9.8236-20.633-23.687-18.892-3.1283 0.39283-7.548 1.7729-9.8217 3.0669-2.2737 1.2939-4.383 2.3526-4.6875 2.3526-0.30445 0-0.55355-1.9986-0.55355-4.4413 0-7.5944 4.5932-12.501 19.751-21.097 19.199-10.888 23.342-14.47 28.436-24.585 3.6842-7.316 4.3132-9.8336 4.3132-17.266v-8.7017l12.188-5.8454c12.26-5.8801 29.157-11.421 38.438-12.605 2.75-0.35073 18.554-0.73806 35.12-0.86073 23.648-0.17511 30.571-0.59705 32.218-1.9637 1.1539-0.95734 2.4486-1.3899 2.8773-0.96125 0.42865 0.42865 3.0342-0.47557 5.7901-2.0094 3.6468-2.0297 5.156-2.3634 5.5446-1.2262 0.69386 2.0308 6.21 2.0308 6.8918 0 0.4097-1.2202 1.254-1.1739 3.8542 0.21123 2.8751 1.5316 3.784 1.5316 6.6591 0 2.6002-1.3852 3.4445-1.4314 3.8542-0.21123 0.68189 2.0309 6.2007 2.0309 6.8826 0 0.4097-1.2202 1.254-1.1739 3.8542 0.21123 2.8751 1.5316 3.784 1.5316 6.6591 0 2.6002-1.3852 3.4445-1.4314 3.8542-0.21123 0.62039 1.8477 6.5663 2.1307 6.5663 0.3125 0-0.6875 0.84375-1.25 1.875-1.25s1.875 0.5625 1.875 1.25c0 1.7444 4.5071 1.561 7.6803-0.3125 2.1171-1.25 2.7595-1.25 3.2122 0 0.66936 1.8484 6.6075 2.1292 6.6075 0.3125 0-0.6875 0.84375-1.25 1.875-1.25s1.875 0.5625 1.875 1.25c0 1.8167 5.9382 1.5358 6.6075-0.3125 0.45269-1.25 1.0951-1.25 3.2122 0 3.1731 1.8735 7.6803 2.0569 7.6803 0.3125 0-1.9653 3.4022-1.4593 4.202 0.625 0.92757 2.4172 3.1627 2.3849 5.8923-0.0854 1.7994-1.6284 2.5967-1.6915 4.7088-0.3725 2.0737 1.295 3.1358 1.2704 5.7593-0.13364 2.8798-1.5412 3.4016-1.4694 4.9818 0.68499 1.6942 2.3098 1.4048 2.4188-7.202 2.7126-4.932 0.16835-21.061 0.4496-35.842 0.625l-26.875 0.31892-0.37783 6.5625-0.37782 6.5625-23.997 0.0191c-13.198 0.01-24.756 0.49982-25.683 1.0873-0.92702 0.58748-1.483 2.1197-1.2355 3.405 0.67063 3.4822 5.4006 3.8188 67.971 4.8368 51.129 0.83183 56.455 0.72952 57.985-1.1141 1.2525-1.5092 1.5209-4.9047 1.0459-13.235-0.51001-8.9449-0.26528-11.515 1.2132-12.742 1.4953-1.241 2.1536-1.1248 3.4171 0.60322 1.9273 2.6357 3.6309 2.7155 5.6644 0.26532 2.0665-2.49 2.5889-2.3958 6.4221 1.1585l3.2715 3.0335 203.59 1.3125c111.97 0.7219 233.8 1.6105 270.73 1.9746 66.275 0.65351 67.156 0.62974 68.482-1.8461 0.7382-1.3794 2.1176-2.5081 3.0651-2.5081 1.5659 0 8.6513-8.447 9.8593-11.754 0.6234-1.7064 8.3299 5.3479 8.3299 7.6249 0 0.90935 1.125 2.6166 2.5 3.7939s2.5 2.8593 2.5 3.7378c0 1.1614 2.6923 1.5972 9.8663 1.5972 7.8436 0 10.022 0.40534 10.625 1.9772 1.4242 3.7116 0.8122 22.473-0.8038 24.638-1.3137 1.7597-4.4483 2.1461-19.688 2.4264l-18.125 0.33344 5.625 3.1458 5.625 3.1458 0.3584 11.462 0.3583 11.462-5.4682 3.2046c-5.1402 3.0124-6.4831 3.2046-22.393 3.2046-13.519 0-17.238-0.37728-18.481-1.875-1.3108-1.5794-6.7223-1.875-34.327-1.875h-32.771l-1.4239-3.125c-1.7695-3.8838-3.6756-4.0255-4.203-0.3125-0.2926 2.0602-1.2354 2.8125-3.5244 2.8125s-3.2319-0.75235-3.5244-2.8125c-0.5315-3.7421-2.2632-3.575-3.2389 0.3125-1.0919 4.3505-5.3921 4.1624-7.1453-0.3125-1.2685-3.2378-1.4301-3.2986-2.7816-1.0472-4.4925 7.4842 1.039 6.9855-77.372 6.9764l-71.562-0.009-0.25189-16.221-0.25189-16.221 70.877-0.33284c38.982-0.18306 72.127 0.0691 73.654 0.56045 1.5277 0.49131 3.1355 2.3194 3.573 4.0625 1.0117 4.0308 2.7519 4.0488 4.2744 0.0442 1.5771-4.1482 5.7222-4.1482 6.7633 0 1.0119 4.0317 2.7475 3.9944 3.7704-0.0811 1.0429-4.1552 6.137-3.8577 6.7407 0.39365 0.5183 3.6493 3.6829 3.6493 4.2012 0l0.3994-2.8121 33.647-0.625c22.572-0.41928 33.796-1.0718 34.098-1.9822 0.4755-1.4297-101.69-3.0143-194.48-3.0166-39.279-0.00096-46.959-0.28938-48.125-1.8074-2.0714-2.6959-26.541-1.2168-27.66 1.6719-0.42809 1.1051-1.106 10.025-1.5064 19.822l-0.71 17.83h-4.6752c-3.0026 0-4.9326 0.67079-5.3947 1.875-0.39572 1.0312-1.8954 1.875-3.3325 1.875-1.5955 0-2.2793-0.54001-1.756-1.3868 1.4178-2.294 0.77493-50.84-0.71-53.614-1.3114-2.4504-2.6248-2.4991-67.339-2.4991-77.361 0-155.67 1.2701-157.76 2.5586-1.038 0.64149-1.511 8.6918-1.6226 27.611l-0.15 26.7-13.12-0.37c-7.2128-0.2057-15.334-0.87264-18.046-1.4821-3.655-0.82122-5.2758-0.68371-6.2608 0.53119-1.0961 1.352-4.0668 1.3527-16.954 0.004-17.74-1.857-96.25-2.4343-96.25-0.70778 0 0.60284-2.9531 2.3614-6.5625 3.908-7.3453 3.1473-17.335 10.625-22.444 16.802-3.9061 4.7217-13.074 9.0447-20.686 9.7542-2.9018 0.27044-5.5288 0.74454-5.8378 1.0536-1.3634 1.3634-20.986-1.0224-22.008-2.6757-2.0652-3.3416-2.4741-0.28727-0.6526 4.8753l1.8359 5.2035-7.4221 3.7467c-4.0822 2.0607-8.2466 5.01-9.2544 6.554-2.4657 3.7779-14.796 35.617-18.082 46.692-3.8328 12.917-3.5863 14.572 2.9886 20.068 3.0938 2.586 5.625 5.1453 5.625 5.6872 0 1.7151-6.6274 0.99036-13.75-1.5036zm60.886-92.679c11.155-1.6238 15.741-3.5884 18.615-7.9742 2.4606-3.7553 1.6461-7.863-3.0324-15.293-3.241-5.1474-3.5448-5.3103-9.9061-5.3125-9.4099-0.004-11.673 2.6181-11.87 13.748-0.006 0.34375 0.34359 3.1562 0.77701 6.25l0.78807 5.625-3.6186-3.9306c-2.5293-2.7474-3.8778-5.8158-4.4799-10.193-0.6836-4.9703-1.4164-6.4076-3.5514-6.9659-3.682-0.96287-4.5217 0.192-7.2235 9.9357-2.6202 9.4493-2.1468 10.904 4.4898 13.797 4.6865 2.0425 6.8924 2.079 19.012 0.31473zm-425.26 63.46c-0.238-0.78-0.714-10.7-1.06-22.04-0.94103-30.927 2.3435-98.445 5.5336-113.75 1.1937-5.7272 2.2959-7.5801 6.6019-11.099l5.169-4.2236 12.354 0.74397c6.7945 0.40919 12.57 0.96037 12.835 1.2248 0.26446 0.26446-0.34594 4.4112-1.3564 9.215-8.4162 40.009-10.678 95.125-4.8766 118.82 1.7535 7.1606 2.921-0.33084 2.9323-18.815 0.02101-34.4 3.6212-72.189 9.4713-99.413l2.0958-9.753 11.398 2.1882c7.4814 1.4363 14.404 1.961 20.148 1.527 7.5108-0.56752 55.044 0.66597 159.69 4.1439l24.688 0.82051v7.7046 7.7046l-33.13 10.984c-18.222 6.0414-33.467 11.529-33.878 12.195-0.4783 0.7739 2.5671 0.84054 8.4427 0.18474 5.055-0.56422 13.41-0.89678 18.566-0.73904 5.1562 0.15775 15.281-0.24546 22.5-0.896 7.2188-0.65055 18.469-1.5494 25-1.9975 6.5312-0.4481 24.25-2.0684 39.375-3.6006s27.691-2.6343 27.924-2.4489c0.72608 0.5775-9.2884 9.1824-19.753 16.973-11.459 8.5305-6.2922 7.4885-61.052 12.313-20.715 1.8249-28.369 2.9433-29.777 4.3509-1.042 1.042-3.7735 1.8946-6.07 1.8946-2.2964 0-10.553 0.8159-18.348 1.8131-7.7951 0.99721-23.735 2.664-35.423 3.704-69.927 6.2222-64.651 5.4195-81.609 12.416-15.066 6.2153-15.497 6.5042-22.61 15.139-3.988 4.8417-9.6155 13.368-12.506 18.948-2.8901 5.5796-5.9344 11.069-6.7652 12.2-0.89297 1.2149-8.4096 3.8757-18.386 6.5083-22.423 5.9175-27.579 6.8463-28.12 5.066zm898.58-73.88c-0.4278-1.1148-0.47034-4.3194-0.0945-7.1213 1.0683-7.9645 0.45561-8.5365-9.1431-8.5365h-8.5055l-0.1557-19.375-0.15572-19.375h9.4199 9.4199v17.617c0 16.68 0.13557 17.652 2.5497 18.284 2.327 0.60853 2.5181 1.4979 2.1875 10.182-0.30086 7.9033-0.73343 9.586-2.5535 9.9336-1.2052 0.23015-2.5413-0.49368-2.9691-1.6085zm-234.21-11.92c-9.2812-0.52091-19.125-1.0126-21.875-1.0927l-5-0.14556 0.7842-24.065c0.43131-13.236 0.85319-25.611 0.9375-27.502l0.16-3.44h39.169c21.543 0 69.556 0.3723 106.7 0.82734l67.526 0.82732 1.0421 13.86c0.57317 7.6231 1.0758 19.474 1.1169 26.336l0.0747 12.476-5 1.0718c-6.4302 1.3784-163.39 2.0919-185.62 0.84385zm-124.82-63.43 0.00034-6.5625h33.036 33.036v5.6642c0 3.4194-0.61924 5.8713-1.5625 6.1867-0.85938 0.28732-15.726 0.69155-33.036 0.89826l-31.474 0.37585 0.00033-6.5625zm-99.87-15c-15.6-0.25-22.81-0.8-22.81-1.75 0-0.76018 1.658-4.2801 3.6845-7.822 5.4752-9.5696 14.454-11.876 20.038-5.1472 3.9138 4.7159 13.344 8.1577 22.352 8.1577 6.7417 0 8.8257 0.4376 9.4166 1.9772 1.7472 4.5531 0.89816 5.5302-4.5538 5.2403-2.9219-0.15537-15.578-0.44931-28.125-0.6532z"/>
</svg>
