<?xml version="1.0" encoding="UTF-8" standalone="no"?>
<!-- Created with Inkscape (http://www.inkscape.org/) -->
<svg id="svg3396" xmlns:rdf="http://www.w3.org/1999/02/22-rdf-syntax-ns#" xmlns="http://www.w3.org/2000/svg" height="375" viewBox="0 0 1250 375" width="1250" version="1.1" xmlns:cc="http://creativecommons.org/ns#" xmlns:dc="http://purl.org/dc/elements/1.1/">
 <metadata id="metadata3402">
  <rdf:RDF>
   <cc:Work rdf:about="">
    <dc:format>image/svg+xml</dc:format>
    <dc:type rdf:resource="http://purl.org/dc/dcmitype/StillImage"/>
    <dc:title/>
   </cc:Work>
  </rdf:RDF>
 </metadata>
 <path id="path3406" fill="#fff" d="m636.44 321.59c0.11425-0.53081-0.18448-1.8489-0.66375-2.9291-0.47928-1.0802-0.7092-7.5489-0.51095-14.375l0.36046-12.411h23.75 23.75v15 15l-23.447 0.34011c-12.896 0.18706-23.353-0.0942-23.239-0.625zm-7.9117-34.873c-4.8313-2.5509-9.4702-8.5353-11.307-14.587-2.871-9.4581-1.8068-28.392 2.5926-46.125 5.7525-23.187 5.3697-28.409-2.7082-36.943l-3.85-4.06h37.745 37.745v14.866c0 17.341-0.69811 16.526 13.92 16.26l9.8233-0.17853-3.9328-4.4792c-5.3998-6.15-10.062-16.74-9.579-21.757 0.39118-4.0624 0.43298-4.0862 7.2684-4.1511l6.875-0.0652-0.4394 9.6326c-0.43381 9.5101-0.38393 9.6931 3.9217 14.391 4.139 4.5164 4.8146 4.7844 13.265 5.262 12.332 0.69681 12.627 0.33434 12.627-15.485 0-7.3884 0.54267-13.234 1.2704-13.683 4.3069-2.6618-5.441-3.1124-67.335-3.1124h-67.167l0.0812-10.525c0.13394-17.344-6.9706-15.804 71.166-15.423l66.359 0.32335 0.36501 10.434c0.22525 6.4389-0.17488 11.084-1.0451 12.133-0.77557 0.9345-1.0472 2.2862-0.60374 3.0038 0.53734 0.86944 16.713 1.3048 48.483 1.3048 37.082 0 47.343 0.33334 46.176 1.5-0.825 0.825-1.5 2.8307-1.5 4.4572 0 1.6264-0.58229 4.0452-1.294 5.375-1.2319 2.3018-2.9686 2.4178-36.188 2.4178-20.802 0-37.501-0.5591-41.349-1.3843-9.0421-1.9392-10.759-0.007-12.667 14.253l-1.4559 10.881h-26.678-26.678l-1.2191 3.2064c-0.67 1.75-1.22 15.56-1.22 30.67v27.475l-3.0682 3.0682-3.0682 3.0682-25.994-0.1326c-19.785-0.10088-26.794-0.55477-29.342-1.9zm-300.09-58.44-8.44-7.84v-38.468-38.468l8.3301-8.6285 8.3301-8.6285h78.545 78.545v4.8438c0 2.6641 0.35409 6.6142 0.78685 8.778l0.78685 3.9343-72.872-0.0862-72.872-0.0863-6.0228 5.9322-6.0228 5.9322-0.32926 40.311-0.32926 40.311-8.4375-7.8382zm513.57-46.5c-0.57-1.49-7.74-1.78-44.85-1.78h-44.167l0.50783-19.062c0.27931-10.484 1.0078-19.593 1.6188-20.241 0.61101-0.64805 5.1455-1.3316 10.077-1.5191 4.9312-0.18743 9.5478-0.92283 10.259-1.6342 3.386-3.386 3.9103-0.94841 3.5095 16.315-0.38311 16.501-0.26486 17.584 1.875 17.174 2.059-0.39511 2.3181-2.1288 2.6317-17.61 0.2861-14.127 0.67403-17.172 2.1875-17.172 1.5325 0 1.8397 2.9379 1.8397 17.592 0 16.081 0.18791 17.556 2.1875 17.172 1.9361-0.37145 2.2275-2.393 2.5353-17.592 0.28296-13.972 0.68406-17.172 2.1522-17.172 1.4682 0 1.8693 3.2003 2.1522 17.172 0.30782 15.199 0.59916 17.22 2.5353 17.592 1.9996 0.38364 2.1875-1.0915 2.1875-17.172 0-14.804 0.29715-17.592 1.875-17.592 1.566 0 1.875 2.5581 1.875 15.523 0 16.525 0.49395 19.477 3.2587 19.477 1.4059 0 1.7413-3.3884 1.7413-17.592 0-15.754 0.21784-17.549 2.0854-17.188 2.2758 0.44105 2.4321 1.7314 2.7366 22.592 0.14484 9.9209 0.52663 12.188 2.0529 12.188 1.5774 0 1.875-2.7778 1.875-17.5 0-16.667 0.119-17.5 2.5-17.5 2.3816 0 2.5 0.83334 2.5 17.592 0 16.081 0.18791 17.556 2.1875 17.172 1.9357-0.37137 2.2275-2.3906 2.535-17.544l0.34746-17.124 10.903-0.36066c8.6975-0.28771 10.903-0.73986 10.903-2.2356 0-1.6038-4.24-1.9236-29.316-2.2112-16.852-0.19324-29.629-0.84295-30.053-1.5281-0.66546-1.0767-33.645-17.241-39.174-19.2-1.5276-0.54133-2.1244-0.29083-1.7894 0.75116 0.27641 0.85984 5.1264 4.162 10.778 7.3381l10.275 5.7747-35.024 0.55531c-19.263 0.30544-35.41 0.94119-35.882 1.4128-0.4716 0.4716-0.46087 1.254 0.0239 1.7388 0.48472 0.48472 18.968 1.0622 41.075 1.2834 22.107 0.22113 40.46 0.66829 40.785 0.99369 0.3254 0.32541-0.92601 0.59165-2.7809 0.59165s-3.6963 0.84375-4.0921 1.875c-0.57 1.5-3.24 1.88-13.04 1.88-14.24 0-14.91 0.5-14.91 11.13v6.2911l-67.812 0.35357c-80.749 0.42101-73.438-1.2805-73.438 17.09 0 12.341-1.1894 15.5-1.418 3.7665-0.23072-11.844 2.4093-11.044-37.678-11.421l-35.28-0.32-0.35-3.13c-0.87112-7.7791-1.4591-8.75-5.2989-8.75h-3.7262v-16.25-16.25h3.7809c2.9739 0 4.0597-0.73326 5.087-3.4352 0.71833-1.8894 2.0358-4.28 2.9277-5.3125 0.9537-1.1041 1.938-6.9616 2.3898-14.221 0.42249-6.7892 1.41-13.117 2.1944-14.062 1.03-1.242 4.79-1.719 13.54-1.719h12.112l9.8188 14.375 9.8188 14.375h68.441 68.441l6.4014-8.8011c8.65-11.893 10.65-13.699 15.13-13.699 7.6704 0 8.6678 1.4808 8.6678 12.868 0 14.425-1.2141 13.911 34 14.403l28.375 0.39641-0.91658 2.7286c-1.2083 3.5969 0.0689 14.066 1.6673 13.666 0.6875-0.17188 1.25-3.8281 1.25-8.125s0.49076-8.1695 1.0906-8.6059c0.59982-0.43636 3.7102-5.4989 6.912-11.25l5.8214-10.457h9.963 9.9631l0.36069 12.43c0.19839 6.8365 0.96424 13.157 1.7019 14.046 0.85925 1.0353 1.4034 12.137 1.5143 30.893l0.17309 29.277-5.2135 3.149c-4.1978 2.5355-5.3469 2.8013-5.8983 1.3645zm-291.49-22.54c2.8089-1.0779 2.8188-13.651 0.0113-14.728-3.9495-1.5156-6.7844 1.4746-6.7844 7.1558 0 6.933 2.1563 9.3438 6.7728 7.5723zm144.36-10.394c1.1984-0.75867 2.0633-5.0412 2.7101-13.418 0.93686-12.135 0.90514-12.351-2.3065-15.742l-3.2565-3.4375h-28.959-28.959l-3.3075 3.0653c-1.8191 1.6859-3.3075 3.7345-3.3075 4.5524 0 1.1149-4.3012 1.2928-17.188 0.71105-9.4531-0.42679-17.609-0.78785-18.125-0.80234-0.51563-0.0145-0.9375-2.5576-0.9375-5.6514 0-4.7917-0.37037-5.625-2.5-5.625-2.1882 0-2.5 0.83333-2.5 6.6813 0 10.032 0.71885 10.334 22.815 9.5762l18.44-0.63249-0.002 7.8722c-0.003 6.9089 0.4022 8.2473 3.305 10.938l3.32 3.06 29.505-0.0191c16.228-0.01 30.297-0.52057 31.265-1.1334zm-59.607-4.5433c-2.43-1.71-2.77-3.07-2.77-11.02 0-14.119-1.3829-13.502 29.9-13.344 15.131 0.0767 27.685 0.6769 29.011 1.3869 1.9953 1.0678 2.3387 2.7685 2.3387 11.583 0 6.3686-0.57532 10.906-1.5 11.831-1.0718 1.0718-9.0215 1.5-27.847 1.5-21.823 0-26.824-0.33413-29.125-1.9459zm223.47 4.5263v-21.17l13.438-0.39292c18.5-0.55 17.82-1.36 17.82 20.94 0 9.806-0.34143 18.719-0.75874 19.806-0.63301 1.6496-3.222 1.9772-15.625 1.9772h-14.866v-21.17zm35.264 0.23208 0.36116-10.938 17.5-0.35939c24.52-0.51 23.14-1.2 23.14 11.63v10.6h-20.674-20.674l0.36118-10.938zm-394.72-0.44735c-0.47074-0.76168-0.76927-6.246-0.6634-12.188 0.22668-12.721 1.1571-13.928 10.736-13.928 3.5124 0 7.0611-0.675 7.8861-1.5 1.1667-1.1667 1.5 1.8889 1.5 13.75v15.25h-9.3012c-5.4563 0-9.655-0.57248-10.157-1.3848z"/>
</svg>
