<?xml version="1.0" encoding="UTF-8" standalone="no"?>
<!-- Created with Inkscape (http://www.inkscape.org/) -->
<svg id="svg4136" xmlns:rdf="http://www.w3.org/1999/02/22-rdf-syntax-ns#" xmlns="http://www.w3.org/2000/svg" height="656.25" viewBox="0 0 892.5 656.25" width="892.5" version="1.1" xmlns:cc="http://creativecommons.org/ns#" xmlns:dc="http://purl.org/dc/elements/1.1/">
 <defs id="defs7">
  <filter id="filter4154" style="color-interpolation-filters:sRGB" height="1.0551" width="1.0425" y="-.027541" x="-.021266">
   <feGaussianBlur id="feGaussianBlur4156" stdDeviation="7.0021906"/>
  </filter>
 </defs>
 <metadata id="metadata4142">
  <rdf:RDF>
   <cc:Work rdf:about="">
    <dc:format>image/svg+xml</dc:format>
    <dc:type rdf:resource="http://purl.org/dc/dcmitype/StillImage"/>
    <dc:title/>
   </cc:Work>
  </rdf:RDF>
 </metadata>
 <g id="layer1">
  <path id="path4146-8" filter="url(#filter4154)" d="m283.99 619.28c-3.9808-4.2209-4.0294-4.3971-3.6118-13.097 0.50439-10.508 3.3436-17.089 11.092-25.707 6.288-6.9938 13.104-11.226 19.803-12.298 4.4139-0.70567 5.2462-0.43343 8.4404 2.7608 4.1203 4.1203 4.4679 7.5793 1.5732 15.656-3.7068 10.342-8.0784 4.2592-4.6481-6.4676 2.1012-6.5707 1.7947-7.7938-1.9536-7.7938-7.246 0-22.306 14.484-26.386 25.378-2.7819 7.4263-3.3635 17.918-1.1416 20.596 3.2058 3.8628 11.838 1.0048 16.659-5.516 4.7184-6.3805 4.7151-6.3928-1.5859-5.7874-4.5216 0.43447-6.3305 0.0912-8.1376-1.5442-3.082-2.7892-1.6224-3.5878 8.7015-4.7609 9.3025-1.0571 13.365-0.80276 15.502 0.97047 2.4372 2.0226 1.6682 3.2625-2.0235 3.2625-3.0955 0-3.4926 0.39257-3.4926 3.4521 0 4.2278-5.9192 11.356-11.296 13.602-2.0704 0.86508-5.946 1.5729-8.6122 1.5729-4.0762 0-5.49-0.68098-8.8829-4.2785zm141.83 2.8061c-5.4833-2.818-7.6797-7.3434-7.6773-15.818 0.002-6.4584 0.65876-9.1315 3.8249-15.563 6.296-12.769 18.236-23.032 26.814-23.032 4.0652 0 10.671 4.2327 12.774 8.1843 2.6192 4.9222 1.1413 17.431-3.0702 25.986-4.3919 8.9211-11.499 17.251-16.908 19.817-4.7231 2.2412-11.838 2.4315-15.75 0.42106zm10.193-3.6771c5.2614-2.7208 12.937-11.961 16.821-20.253 4.0804-8.7085 5.6829-21.014 3.1361-24.083-1.813-2.1845-6.1464-2.2287-10.254-0.10465-5.2644 2.7224-15.287 14.247-18.574 21.356-3.5366 7.6503-4.3566 19.466-1.5833 22.814 1.9609 2.367 6.1892 2.4768 10.454 0.27176zm23.069 4.3734c-2.1442-2.1442-0.40541-9.4617 4.4745-18.83 8.0951-15.542 11.339-18.772 11.339-11.294 0 1.6274 0.12442 2.959 0.27649 2.959s2.2854-1.5965 4.7408-3.5477c2.9036-2.3075 5.5033-3.4267 7.4363-3.2015 4.9357 0.57499 4.584 6.1467-1.0342 16.384-5.2281 9.5259-6.2508 15.978-2.5324 15.978 2.6683 0 9.6079-7.4452 11.403-12.232 4.9187-13.125 6.9355-17.656 10.477-23.536 8.4588-14.048 15.186-19.85 17.132-14.779 2.6157 6.8165-2.5409 17.839-13.438 28.723-5.5258 5.5193-8.0907 9.0303-8.6067 11.781-1.0433 5.5613-0.26801 9.3778 1.9926 9.8081 3.5944 0.68473 9.5287-6.3604 16.038-19.042 3.5564-6.9276 7.0543-12.78 7.7731-13.005 0.71886-0.22546 1.6314 0.79026 2.0278 2.2572 0.49762 1.8411-0.89857 6.0341-4.5086 13.54-5.5911 11.624-6.3019 14.984-3.4064 16.095 2.8796 1.105 8.7021-5.4682 14.834-16.746 8.6856-15.976 11.575-18.83 11.575-11.434 0 1.6274 0.12442 2.959 0.2765 2.959 0.15207 0 2.2854-1.5965 4.7408-3.5477 2.9036-2.3075 5.5033-3.4268 7.4363-3.2015 4.9357 0.57499 4.584 6.1467-1.0342 16.384-5.1664 9.4132-6.245 15.978-2.6253 15.978 3.462 0 9.1075-7.0581 10.609-13.263 1.5655-6.4692 6.701-14.561 11.05-17.41 6.1566-4.034 15.824-0.68269 15.824 5.4857 0 2.9025-2.7974 7.8649-6.2539 11.093-2.6008 2.4295-3.7326 2.6973-8.8421 2.0922l-5.8595-0.69398v4.0964c0 11.377 8.9758 11.624 19.005 0.52273 3.2636-3.6125 4.2783-4.2197 4.2783-2.5608 0 5.3874-10.316 12.883-17.812 12.941-3.6626 0.0288-9.6889-2.7282-10.359-4.7392-0.27445-0.82338-2.1298-0.17465-4.9245 1.7218-2.4681 1.6671-5.7558 3.0362-7.3112 3.0362-8.9175 0-9.8761-7.4893-2.6551-20.737 2.5522-4.6821 4.6404-9.0338 4.6404-9.6703 0-1.8714-6.8735 2.687-11.143 7.3897-2.1674 2.3874-6.0642 8.564-8.6594 13.725-4.2413 8.4355-6.9744 10.916-6.9744 6.3301 0-1.3052-0.80948-1.1669-3.7836 0.64646-4.7879 2.9192-8.403 2.9352-11.288 0.0497-2.245-2.245-2.3083-2.2427-6.8803 0.26164-5.3222 2.9153-10.281 2.0177-12.407-2.2456l-1.2289-2.4649-3.2168 2.767c-4.0224 3.4599-8.3578 4.5957-12.292 3.2203-2.5418-0.88853-3.0969-1.8761-3.3989-6.0464-0.29126-4.0235 0.55033-6.6735 4.3657-13.747 2.5996-4.8195 4.7265-9.276 4.7265-9.9031 0-1.8571-6.8913 2.7235-11.143 7.4065-2.1674 2.3874-6.0536 8.5432-8.6361 13.68-4.8927 9.7308-4.96 9.824-6.2216 8.5623zm122.59-18.571c3.5217-2.9633 7.0327-8.3867 7.0327-10.863 0-2.9731-4.8575-0.7692-9.2147 4.1808-4.6323 5.2625-5.5676 7.3676-3.9796 8.9556 1.3022 1.3022 2.3891 0.90128 6.1615-2.2731zm-64.604-18.042c1.7121-3.1458 2.9169-6.6286 2.6774-7.7397-0.43964-2.0386-8.6581 9.4822-13.092 18.353l-2.0367 4.0747 4.6693-4.4844c2.5681-2.4664 6.07-7.0582 7.7822-10.204zm81.525 36.216c-1.0735-1.7369 0.41026-5.4931 2.4842-6.2889 2.3763-0.91185 3.9253 0.13101 3.9253 2.6426 0 3.7552-4.6924 6.4247-6.4095 3.6463zm-273-4.4873c0-3.1494 2.1167-8.7986 7.0611-18.845 3.8836-7.891 8.0747-15.771 9.3136-17.51 3.1685-4.4498 2.8364-5.315-1.8307-4.7701-4.0898 0.47746-9.8873-2.1399-9.8873-4.4636 0-0.62555 2.1672-1.1374 4.8159-1.1374 2.6488 0 9.416-0.61247 15.039-1.3611 9.4318-1.2558 10.478-1.1894 13.521 0.85811l3.2977 2.2192-7.9686 1.1792c-7.7559 1.1477-8.0074 1.292-9.4188 5.4038-0.79768 2.3236-4.6497 9.9199-8.5601 16.881-3.9104 6.961-8.4404 15.668-10.067 19.351-1.6263 3.6818-3.4874 6.6941-4.1358 6.6941-0.64838 0-1.1789-2.0239-1.1789-4.4977zm31.433 1.5498c0-1.6213 0.7339-4.7044 1.6309-6.8512 1.4406-3.448 1.4116-4.1226-0.24946-5.7835-1.7137-1.723-1.6299-1.872 1.0711-1.872 2.4168 0 4.2184-1.9405 10.201-10.988 3.9965-6.0433 10.641-14.556 14.764-18.918l7.4976-7.9304 2.4316 2.8594c1.4062 1.6536 2.2039 3.8628 1.8916 5.2389-0.29699 1.3087-2.0021 7.9982-3.7891 14.865-3.052 11.728-3.1306 12.617-1.2962 14.644 2.5429 2.8098 2.4651 3.721-0.31757 3.721-1.9112 0-2.3956 1.1055-3.0609 6.9852-0.43465 3.8418-1.2595 6.9852-1.8329 6.9852-1.5494 0-3.3134-5.3951-3.3134-10.133v-4.161l-6.112 0.73414c-3.3616 0.40377-7.1598 0.74052-8.4404 0.74832-1.6208 0.009-3.3775 1.959-5.7802 6.4132-3.7765 7.001-5.2797 7.9836-5.2797 3.4511zm23.154-16.41c2.7315-0.54628 3.8125-1.501 4.2844-3.7836 0.34715-1.6791 1.6196-7.2309 2.8277-12.338 1.2081-5.1064 2.0196-9.4617 1.8033-9.6777-0.50796-0.50795-19.262 24.45-19.262 25.634 0 1.0824 5.3345 1.1674 10.347 0.16486zm149.19-16.094c-2.0202-2.4343-1.0128-5.8184 1.8546-6.2295 2.7703-0.39719 4.3567 2.3814 3.2857 5.7555-0.82184 2.5894-3.2026 2.809-5.1404 0.47402zm-277.44-50.25c-1.546-1.546-0.79924-7.978 1.5197-13.088 1.2666-2.7913 2.3029-5.3034 2.3029-5.5827 0-0.27925-1.8359-0.1633-4.0798 0.25767-5.6035 1.0512-9.8901-1.7896-9.8901-6.5541 0-3.6497 2.8809-10.1 7.8965-17.678 3.6991-5.5897 2.6432-6.7439-2.5475-2.7847-5.7156 4.3594-11.471 11.787-15.747 20.323-4.1193 8.2224-6.5297 8.8656-6.3935 1.7061 0.0643-3.377 1.638-7.3161 5.6714-14.196 3.0703-5.2372 5.3017-9.8025 4.9586-10.146-2.4333-2.4333-14.364 10.747-19.597 21.649-3.974 8.2795-5.2232 9.5511-6.3923 6.5043-0.5555-1.4476-1.178-1.4259-4.4974 0.15705-8.001 3.8154-13.575-0.98883-11.177-9.6321 1.5729-5.6663 10.719-22.85 12.474-23.435 0.71137-0.23712 1.6178 0.76905 2.0142 2.2359 0.49761 1.8411-0.89857 6.0341-4.5086 13.54-5.5876 11.617-6.3017 14.984-3.4136 16.092 2.9694 1.1394 8.349-5.1441 14.004-16.357 2.8859-5.7222 6.3471-11.949 7.6916-13.837 2.148-3.0167 2.5775-3.1951 3.5418-1.4722 0.60351 1.0784 0.77681 3.2377 0.38511 4.7984-0.68449 2.7272-0.50395 2.6786 4.641-1.2486 6.6368-5.0659 9.5501-5.242 11.142-0.67367l1.1895 3.4124 5.3808-3.4124c6.5427-4.1493 8.162-4.2538 9.0826-0.58597 0.94449 3.7632-0.1099 6.7904-5.4776 15.727-2.4756 4.1216-4.5011 8.1388-4.5011 8.9273 0 2.9077 1.4675 5.1165 3.3994 5.1165 3.419 0 8.189-6.1978 18.592-24.158 4.7555-8.2096 7.1135-10.387 7.1135-6.5696 0 1.3466 0.57089 1.62 2.0373 0.97578 1.1205-0.4923 3.9564-1.1229 6.3018-1.4014 3.5152-0.41736 4.51-0.0476 5.6617 2.1045 3.0645 5.7262-0.98556 20.057-7.723 27.326l-2.9453 3.1781 3.1425-0.78872c3.7388-0.93844 8.2964-4.0925 9.2277-6.386 0.36697-0.90383 3.0269-5.1929 5.911-9.5315 3.8517-5.7938 5.0625-8.6105 4.5607-10.61-0.45198-1.8009 0.23755-4.0883 2.0377-6.7595 4.8482-7.1943 8.6578-5.2439 5.5783 2.8558-1.43 3.7614 0.18374 3.9126 5.7221 0.53629 3.8249-2.3318 4.073-2.3477 5.5299-0.35523 2.3264 3.1816 1.9098 4.7241-3.0504 11.296-2.5167 3.3342-5.1652 7.6133-5.8855 9.5092-1.7011 4.4772-0.61676 8.7769 2.2136 8.7769 2.8146 0 9.1937-7.2523 10.003-11.372 1.1628-5.9192 7.1079-15.958 11.019-18.606 2.1279-1.4407 5.3166-2.6194 7.0859-2.6194 4.1317 0 9.2449 5.8446 9.2449 10.567 0 1.9267 0.63137 3.4193 1.4552 3.4402 0.95185 0.0242 0.80913 0.52914-0.41268 1.4597-1.0274 0.78248-2.2808 2.7235-2.7854 4.3135-1.5489 4.8801-6.6459 11.716-10.047 13.475-5.044 2.6084-8.5287 2.0397-12.521-2.0435-1.9969-2.0425-3.6307-3.0825-3.6307-2.3113 0 1.9067-6.9516 6.0152-10.187 6.0205-1.4407 0.003-3.728-1.1042-5.083-2.4592-3.572-3.5719-2.3653-10.214 3.3635-18.516l4.5603-6.6086-4.6123 1.3618c-5.1884 1.5319-7.4744 4.5722-14.905 19.824-3.6243 7.4382-4.6769 8.82-5.2277 6.862-0.66102-2.3498-0.89137-2.3816-5.5456-0.76598-7.4197 2.5756-14.67 1.3621-18.242-3.0533l-2.9084-3.5947-6.4442 12.849c-3.5443 7.067-6.8196 12.474-7.2784 12.015zm23.837-23.656c6.1062-4.8031 12.922-21.728 10.335-25.664-0.97644-1.4864-1.5826-1.3944-4.3904 0.66589-7.5818 5.5632-14.574 20.094-11.991 24.919 1.5537 2.9031 2.4419 2.9148 6.0469 0.0791zm62.88-0.94737c1.6501-1.7608 4.0846-5.3659 5.4099-8.0113 2.3806-4.7517 2.3825-4.8343 0.15781-6.8477-1.2385-1.1209-2.5767-3.0614-2.9737-4.3124-0.69657-2.1947-0.82538-2.1791-3.6759 0.44458-5.3756 4.9479-9.4682 18.211-6.5275 21.152 1.6361 1.6361 4.7264 0.6511 7.6095-2.4254zm9.0774-20.082c0-3.4359-1.4929-4.6222-2.9169-2.318-0.93704 1.5161 0.41638 5.8106 1.8312 5.8106 0.59715 0 1.0858-1.5717 1.0858-3.4926zm316.28 28.338c-0.43207-0.43209-0.7856-1.7461-0.7856-2.92 0-2.5711 0.13984-2.5604-5.0593-0.38806-16.419 6.8604-24.725-8.2318-13.505-24.539 4.1558-6.0403 8.0918-8.6399 13.081-8.6399 4.2699 0 8.9754 3.8843 8.9754 7.409 0 2.9025-2.7974 7.8649-6.2539 11.093-2.6008 2.4295-3.7326 2.6973-8.8421 2.0922l-5.8595-0.69397v4.0964c0 5.8703 1.806 8.6001 5.6898 8.6001 5.0334 0 10.459-4.3928 17.258-13.974 4.802-6.7664 6.0497-9.3946 5.552-11.696-0.43087-1.9922 0.24637-4.2863 2.0597-6.9771 4.8316-7.1697 8.6319-5.1979 5.5591 2.8843-1.43 3.7613 0.18374 3.9126 5.7221 0.53629 3.8249-2.3318 4.073-2.3477 5.5299-0.35524 2.3264 3.1816 1.9098 4.7241-3.0504 11.296-5.4405 7.2077-7.4381 11.989-6.5265 15.622 1.3066 5.2057 7.3432 1.8149 13.071-7.3422 1.3503-2.1586 1.3885-2.1556 1.4509 0.11141 0.17708 6.4309-8.2999 13.297-14.497 11.742-6.8223-1.7123-6.6217-10.606 0.46756-20.726l4.48-6.3955-4.6384 1.3696c-5.2139 1.5395-7.5814 4.6787-14.744 19.55-2.3927 4.9676-4.7037 8.6785-5.1359 8.2464zm-8.9783-20.909c3.5217-2.9633 7.0327-8.3867 7.0327-10.863 0-2.9731-4.8575-0.7692-9.2147 4.1808-4.6323 5.2625-5.5677 7.3676-3.9796 8.9556 1.3022 1.3022 2.3891 0.90127 6.1615-2.2731zm-299.13 17.63c-1.0332-1.2448-1.3087-3.9185-0.87513-8.4904 0.75728-7.9854 3.9613-22.277 5.5415-24.718 1.0048-1.5523 1.2578-1.5523 2.2768 0 1.7588 2.6791 1.4112 8.1646-1.2189 19.239-1.3205 5.56-2.2135 10.296-1.9844 10.525 0.22913 0.22912 3.7925-4.3665 7.9186-10.212 9.2328-13.082 17.311-22.083 17.376-19.363 0.0254 1.0643-2.3387 4.9935-5.2538 8.7315-2.915 3.738-8.4711 10.987-12.347 16.11-3.8758 5.1225-7.6946 9.4672-8.4863 9.6544-0.79179 0.18754-2.1182-0.47668-2.9476-1.476zm30.006-0.0857c-6.6173-3.592-6.4899-14.611 0.28286-24.456 4.1744-6.0673 8.1049-8.6679 13.1-8.6679 4.2699 0 8.9754 3.8843 8.9754 7.409 0 2.9025-2.7974 7.8649-6.2539 11.093-2.6008 2.4295-3.7326 2.6973-8.8421 2.0922l-5.8595-0.69397v4.0964c0 5.6539 1.8285 8.6001 5.3376 8.6001 7.0464 0 13.021-5.6722 19.62-18.627 2.4462-4.8023 5.5052-10.231 6.7978-12.063 2.07-2.9345 2.481-3.098 3.4474-1.371 0.60351 1.0784 0.77681 3.2377 0.38511 4.7984-0.68449 2.7272-0.50395 2.6786 4.641-1.2486 6.6368-5.0659 9.5501-5.242 11.142-0.67367l1.1895 3.4124 5.3808-3.4124c6.5427-4.1493 8.162-4.2538 9.0826-0.58597 0.94449 3.7632-0.1099 6.7904-5.4776 15.727-4.6093 7.674-5.0223 9.0023-3.7944 12.203 2.0735 5.4034 10.807-2.2707 13.143-11.55 1.6096-6.392 6.7889-14.475 11.074-17.283 6.1566-4.034 15.824-0.68268 15.824 5.4857 0 2.9025-2.7974 7.8649-6.2539 11.093-2.6008 2.4295-3.7326 2.6973-8.8421 2.0922l-5.8595-0.69397v4.0964c0 8.1474 4.2034 10.713 11.409 6.9644 4.68-2.435 7.5515-6.0868 12.903-16.41 7.6469-14.75 10.905-17.895 10.905-10.526 0 1.6274 0.12442 2.959 0.27649 2.959 0.15208 0 2.2854-1.5965 4.7408-3.5477 2.9036-2.3075 5.5033-3.4268 7.4363-3.2015 4.9357 0.57499 4.584 6.1467-1.0342 16.384-7.4724 13.615-5.5511 21.297 3.0497 12.195 4.0318-4.2671 16.13-28.025 14.541-28.554-0.56682-0.18894-2.0217-1.0938-3.233-2.0108-2.0667-1.5645-1.983-1.6696 1.3587-1.7043 4.2978-0.0447 6.0798-1.424 10.201-7.8953 1.7332-2.7213 3.4725-4.9478 3.8649-4.9478 0.39253 0 0.4645 2.5935 0.15993 5.7632-0.49104 5.1104-0.28741 5.8026 1.7981 6.112 4.309 0.63926 3.4973 3.0906-1.1509 3.4758-4.2186 0.34964-4.6542 0.79837-9.9618 10.262-6.6448 11.848-8.5038 17.635-6.7296 20.951 0.68681 1.2833 2.18 2.3332 3.3183 2.3332 3.0008 0 8.3262-6.0414 8.3262-9.4458 0-3.9157 3.0676-8.0111 4.4425-5.931 1.1658 1.7637 5.3862-3.8317 10.426-13.822 2.3227-4.6047 3.9332-6.415 5.9628-6.7021 2.3482-0.3323 2.6194-0.0607 1.7441 1.7463-0.57009 1.1769-1.0456 8.2255-1.0564 15.664-0.015 10.214-0.44258 14.036-1.7468 15.616-1.6007 1.9396-1.5448 1.9953 0.76702 0.76384 2.6576-1.4158 7.9902-7.2896 8.8773-9.7783 0.29374-0.82404 0.98621-1.0742 1.5388-0.55594 1.4085 1.321-2.964 8.881-6.7496 11.67-1.8725 1.3794-5.6773 2.5323-9.3676 2.8382-5.348 0.4435-6.6934 0.112-9.6535-2.3785l-3.4391-2.8938-4.0415 2.7693c-5.1584 3.5346-8.7153 3.5061-12.32-0.0988l-2.8682-2.8682-4.2265 2.8682c-2.3246 1.5774-5.4976 2.8682-7.0511 2.8682-8.9175 0-9.8761-7.4893-2.6551-20.737 2.5522-4.6821 4.6404-9.0338 4.6404-9.6703 0-1.8714-6.8735 2.687-11.143 7.3897-2.1675 2.3874-6.0642 8.564-8.6594 13.725-4.2275 8.4081-6.9744 10.916-6.9744 6.3699 0-1.2867-1.0196-1.1579-4.9478 0.62523-2.7213 1.2353-6.4145 2.2574-8.2072 2.2715-3.753 0.0294-9.6945-2.7447-10.398-4.8551-0.33315-0.99944-1.4646-0.6617-3.7159 1.1091-7.3858 5.8097-16.971 3.9533-16.971-3.2868 0-3.6497 2.8809-10.1 7.8965-17.678 3.6991-5.5897 2.6432-6.7439-2.5475-2.7847-5.7156 4.3594-11.471 11.787-15.747 20.323-4.1193 8.2224-6.5297 8.8656-6.3935 1.7061 0.0643-3.377 1.638-7.3161 5.6714-14.196 3.0703-5.2372 5.3017-9.8025 4.9586-10.146-2.4333-2.4333-14.364 10.747-19.597 21.649-4.0633 8.4657-5.4782 9.7681-6.4738 5.9614-0.57094-2.1833-0.66786-2.1838-5.421-0.0256-5.7801 2.6245-10.691 2.7707-14.974 0.44573zm165.01-5.5858c0.37651-2.0192 0.52173-6.7758 0.32272-10.57l-0.36186-6.899-4.3657 6.5901c-5.0391 7.6066-5.2135 8.7268-1.9945 12.819 2.9343 3.7304 5.4863 2.9568 6.3994-1.9397zm-154.35-11.95c3.5217-2.9633 7.0327-8.3867 7.0327-10.863 0-2.9731-4.8575-0.76919-9.2147 4.1808-4.6323 5.2625-5.5676 7.3676-3.9796 8.9556 1.3022 1.3022 2.3891 0.90128 6.1615-2.2731zm76.837 0c3.5217-2.9633 7.0327-8.3867 7.0327-10.863 0-2.9731-4.8575-0.76919-9.2147 4.1808-4.6323 5.2625-5.5676 7.3676-3.9796 8.9556 1.3022 1.3022 2.3891 0.90128 6.1615-2.2731zm114.95 16.348c-1.65-1.65-3.1738-4.1385-3.3862-5.5299-1.6947-11.101 8.6665-26.379 17.898-26.392 4.0102-0.006 9.126 5.9155 9.126 10.563 0 1.9267 0.63137 3.4193 1.4552 3.4402 0.95185 0.0242 0.80913 0.52915-0.41268 1.4597-1.0274 0.78248-2.2808 2.7235-2.7854 4.3135-1.5489 4.8801-6.6459 11.716-10.047 13.475-4.7609 2.462-8.4737 2.0453-11.849-1.3299zm9.904-3.6941c1.6501-1.7608 4.0846-5.3659 5.4099-8.0112 2.3806-4.7517 2.3825-4.8343 0.1578-6.8477-1.2385-1.1209-2.5767-3.0614-2.9737-4.3124-0.69657-2.1948-0.82539-2.1791-3.6759 0.44458-5.3756 4.9479-9.4682 18.211-6.5275 21.152 1.6361 1.6361 4.7264 0.6511 7.6095-2.4254zm9.0774-20.082c0-3.4359-1.4929-4.6222-2.9169-2.318-0.93703 1.5161 0.41639 5.8106 1.8312 5.8106 0.59715 0 1.0858-1.5717 1.0858-3.4926zm8.1736 25.059c-1.0332-1.2448-1.3087-3.9185-0.87514-8.4903 0.7573-7.9855 3.9613-22.277 5.5415-24.718 1.0048-1.5523 1.2578-1.5523 2.2768 0 1.7588 2.6791 1.4112 8.1646-1.2189 19.239-1.3205 5.56-2.2135 10.296-1.9844 10.525 0.22913 0.22913 3.7925-4.3665 7.9186-10.212 9.2328-13.082 17.311-22.083 17.376-19.363 0.0253 1.0643-2.3387 4.9935-5.2538 8.7315-2.915 3.738-8.4711 10.987-12.347 16.11-3.8758 5.1225-7.6946 9.4672-8.4863 9.6544-0.79178 0.18755-2.1182-0.47668-2.9476-1.476zm-406.28-34.9c-2.0202-2.4343-1.0128-5.8184 1.8546-6.2295 2.7704-0.39719 4.3567 2.3814 3.2857 5.7555-0.82184 2.5894-3.2026 2.809-5.1404 0.47402zm296.91-45.617c-3.2278-4.1035-3.0834-9.8249 0.53759-21.287 4.8058-15.19 27.503-57.139 30.921-57.139 0.57865 0 1.0521 1.7295 1.0521 3.8434 0 2.58-2.1415 7.4594-6.5145 14.844-10.433 17.617-11.163 19.269-9.2247 20.877 0.91012 0.75534 2.0163 3.7843 2.4582 6.7311l0.80343 5.3577 3.201-3.5826c1.7606-1.9704 3.7428-4.5508 4.4051-5.7343s1.5993-1.7566 2.0822-1.2737c1.5588 1.5588-2.8444 8.8539-6.9806 11.566-2.2781 1.4933-4.2748 3.9158-4.6103 5.5935-1.2046 6.0233-5.6802 16.428-8.5157 19.798-3.606 4.2855-6.4711 4.4067-9.6172 0.40693zm9.0817-8.8655c5.2394-11.005 5.5032-12.953 2.059-15.21l-2.9042-1.903-2.9964 8.9971c-1.6479 4.9484-2.9963 10.436-2.9963 12.194 0 5.5122 3.1727 3.6198 6.8378-4.0787zm5.9683-22.41c0-2.8814-0.4584-5.2389-1.0187-5.2389-1.3253 0-2.6083 6.4447-1.7356 8.7187 1.3297 3.4652 2.7543 1.6654 2.7543-3.4798zm37.744 8.2577c-4.4217-1.9425-6.8594-7.3398-5.9225-13.114 1.2159-7.4928 18.941-41.131 21.674-41.131 1.8502 0 2.1959 4.903 0.65373 9.2739-0.85972 2.4367-2.9762 6.6689-4.7034 9.4048-7.0331 11.141-12.287 23.666-11.943 28.472 0.29281 4.0888 0.7154 4.7009 3.4645 5.0183 4.6922 0.54185 10.82-6.3803 18.898-21.349 11.554-21.408 17.124-30.82 18.237-30.82 0.58426 0 1.0623 2.0453 1.0623 4.545 0 7.8944-20.23 43.472-27.087 47.635-5.2764 3.204-10.143 3.9046-14.335 2.0634zm50.735-0.22346c0-3.2246 3.2828-8.9244 9.9916-17.347 8.854-11.118 35.387-40.165 36.687-40.165 1.7993 0 1.1504 5.0682-1.1178 8.7315-1.1893 1.9209-6.5573 8.2422-11.929 14.048-13.673 14.778-24.506 27.102-28.326 32.23-3.4721 4.659-5.3056 5.5244-5.3056 2.5043zm38.908 0.22346c-4.4217-1.9425-6.8594-7.3398-5.9225-13.114 1.2159-7.4928 18.941-41.131 21.674-41.131 1.8502 0 2.1959 4.903 0.65373 9.2739-0.85972 2.4367-2.9762 6.6689-4.7034 9.4048-7.0332 11.141-12.287 23.666-11.943 28.472 0.2928 4.0888 0.7154 4.7009 3.4645 5.0183 4.6922 0.54185 10.82-6.3803 18.898-21.349 11.554-21.408 17.124-30.82 18.237-30.82 0.58426 0 1.0623 2.0453 1.0623 4.545 0 7.8944-20.23 43.472-27.087 47.635-5.2764 3.204-10.143 3.9046-14.335 2.0634zm-430.04-0.94999c-1.5768-0.83365-3.626-3.5099-4.5536-5.9473-1.5101-3.9676-1.4736-5.1077 0.34846-10.888 2.7206-8.6306 10.51-16.67 16.152-16.67 4.0721 0 8.9651 3.8467 8.9651 7.048 0 2.8466-4.0189 11.588-5.1557 11.214-2.931-0.96405-3.4886-4.3114-1.5772-9.4691 1.0692-2.8847 1.4796-5.5319 0.91225-5.8826-1.5964-0.98668-8.7006 6.729-11.477 12.465-2.7355 5.6507-3.2883 13.632-1.0962 15.825 3.9673 3.9673 16.772-2.6619 18.764-9.715 3.4295-12.141 11.4-21.485 18.325-21.485 4.1317 0 9.2449 5.8446 9.2449 10.567 0 1.9267 0.63137 3.4193 1.4552 3.4402 0.95185 0.0242 0.80912 0.52914-0.41269 1.4597-1.0274 0.78248-2.2808 2.7235-2.7854 4.3135-1.5489 4.8801-6.6459 11.716-10.047 13.475-4.949 2.5593-8.5335 2.0348-12.28-1.7968l-3.3896-3.467-4.0309 2.868c-4.8993 3.4859-13.341 4.7723-17.363 2.6457zm35.119-5.2741c1.6501-1.7608 4.0846-5.3659 5.4099-8.0112 2.3806-4.7517 2.3825-4.8343 0.1578-6.8477-1.2385-1.1209-2.5767-3.0614-2.9737-4.3124-0.69657-2.1947-0.8254-2.1791-3.6759 0.44458-5.3756 4.9479-9.4682 18.211-6.5275 21.152 1.6361 1.6361 4.7264 0.6511 7.6095-2.4254zm9.0774-20.082c0-3.4359-1.4929-4.6222-2.9169-2.318-0.93704 1.5161 0.41638 5.8106 1.8312 5.8106 0.59715 0 1.0858-1.5717 1.0858-3.4926zm10.122 25.483c-5.7372-3.3375-4.6395-13.171 3.2994-29.558 8.4615-17.466 18.477-28.072 20.797-22.025 2.6157 6.8165-2.5409 17.839-13.438 28.723-7.931 7.9218-9.8761 11.934-8.9497 18.459 0.59719 4.2047 3.8099 3.9532 8.9621-0.70141 3.518-3.1783 5.2703-6.1133 7.166-12.002 6.6861-20.772 23.016-42.384 26.05-34.477 2.6157 6.8165-2.5409 17.839-13.438 28.723-5.5257 5.5193-8.0907 9.0303-8.6067 11.781-1.0752 5.7316-0.2614 9.3788 2.1974 9.8482 3.0114 0.57426 12.991-10.014 13.948-14.798 0.92574-4.6288 6.64-13.102 10.574-15.68 6.1566-4.034 15.824-0.68269 15.824 5.4857 0 2.9025-2.7974 7.8649-6.2539 11.093-2.6008 2.4295-3.7326 2.6973-8.8421 2.0922l-5.8595-0.69398v4.0964c0 5.6539 1.8285 8.6001 5.3376 8.6001 7.0446 0 14.321-6.7812 17.376-16.194 2.7512-8.4752 10.51-16.404 16.053-16.404 4.0721 0 8.9651 3.8467 8.9651 7.048 0 2.8466-4.0189 11.588-5.1557 11.214-2.931-0.96404-3.4886-4.3114-1.5772-9.4691 1.0692-2.8847 1.4796-5.5319 0.91224-5.8826-1.5964-0.98668-8.7006 6.729-11.477 12.465-2.7355 5.6507-3.2884 13.632-1.0962 15.825 4.249 4.249 16.153-2.2926 19.362-10.641 1.024-2.6635 3.6384-8.2296 5.8097-12.368 2.1713-4.1393 3.4426-7.6945 2.8251-7.9003-0.61752-0.20583-2.1138-1.1245-3.3252-2.0415-2.0667-1.5645-1.983-1.6696 1.3587-1.7043 4.2978-0.0447 6.0798-1.424 10.201-7.8953 1.7332-2.7213 3.4725-4.9478 3.865-4.9478 0.39254 0 0.46451 2.5934 0.15994 5.7631-0.49105 5.1104-0.28741 5.8026 1.7981 6.112 4.309 0.63926 3.4973 3.0906-1.1509 3.4758-4.2186 0.34964-4.6542 0.79837-9.9618 10.262-3.0524 5.4427-6.0963 11.858-6.7641 14.256-2.2239 7.9871 2.7244 11.931 7.9674 6.3501 1.3833-1.4725 5.5348-8.6505 9.2255-15.951 3.6906-7.3005 7.2984-13.452 8.0173-13.669 0.71886-0.21741 1.6314 0.80489 2.0278 2.2718 0.49762 1.8411-0.89856 6.0341-4.5085 13.54-5.6381 11.722-6.3062 14.982-3.3072 16.133 2.6952 1.0343 10.399-7.4907 11.939-13.212 2.8168-10.461 10.919-19.031 17.993-19.031 3.7738 0 8.8928 6.0828 8.8928 10.567 0 1.9267 0.63136 3.4193 1.4552 3.4402 0.95185 0.0242 0.80913 0.52915-0.41268 1.4597-1.0274 0.78248-2.2808 2.7235-2.7854 4.3135-1.5489 4.8801-6.6459 11.716-10.047 13.475-4.9838 2.5772-8.6132 2.0469-12.232-1.787-3.1935-3.3835-3.3133-3.4114-5.6286-1.3097-5.6732 5.1498-10.943 6.0846-14.463 2.565-2.1575-2.1575-2.2689-2.1577-5.5299-0.008-4.5265 2.9842-8.1153 2.7671-11.583-0.70097-3.3755-3.3755-4.3165-3.5509-6.2903-1.1726-2.0501 2.4702-10.154 4.4044-14.8 3.5326-2.6649-0.49995-4.6276-1.8629-6.0494-4.2006-1.9302-3.1739-2.239-3.298-3.7281-1.4986-2.2952 2.7734-10.295 6.2014-14.43 6.1829-4.4597-0.02-8.6343-2.3368-10.6-5.8823-0.84818-1.5303-1.5607-2.1496-1.5834-1.3762-0.0554 1.8891-9.4887 7.3253-12.711 7.3253-1.4135 0-3.7974-1.2273-5.2976-2.7275l-2.7275-2.7275-4.4958 2.7215c-4.8755 2.9513-7.9748 3.3478-11.255 1.4399zm141.46-5.4006c1.6501-1.7608 4.0846-5.3659 5.4099-8.0113 2.3806-4.7517 2.3825-4.8343 0.15781-6.8477-1.2385-1.1209-2.5767-3.0614-2.9737-4.3124-0.69657-2.1947-0.82539-2.1791-3.6759 0.44459-5.3756 4.9479-9.4682 18.211-6.5275 21.152 1.6361 1.6361 4.7264 0.6511 7.6095-2.4254zm-88.777-12.657c3.5218-2.9633 7.0327-8.3867 7.0327-10.863 0-2.9731-4.8575-0.7692-9.2147 4.1808-4.6323 5.2625-5.5676 7.3676-3.9796 8.9556 1.3022 1.3022 2.3891 0.90128 6.1615-2.2731zm-34.334-18.042c1.7121-3.1458 2.9169-6.6286 2.6774-7.7397-0.43964-2.0386-8.6581 9.4822-13.092 18.353l-2.0367 4.0747 4.6693-4.4844c2.5681-2.4664 6.07-7.0582 7.7822-10.204zm19.791 0c1.7121-3.1458 2.9169-6.6286 2.6774-7.7397-0.43964-2.0386-8.6581 9.4822-13.092 18.353l-2.0367 4.0747 4.6693-4.4844c2.5681-2.4664 6.07-7.0582 7.7822-10.204zm112.39 10.608c0-3.4359-1.4929-4.6222-2.9169-2.318-0.93703 1.5161 0.41639 5.8106 1.8312 5.8106 0.59715 0 1.0858-1.5717 1.0858-3.4926zm4.2687 26.001c-2.1442-2.1442-0.40541-9.4617 4.4745-18.83 8.0951-15.542 11.339-18.772 11.339-11.294 0 1.6275 0.12442 2.959 0.2765 2.959 0.15207 0 2.2854-1.5965 4.7408-3.5477 2.9036-2.3075 5.5033-3.4267 7.4363-3.2015 4.9357 0.575 4.584 6.1467-1.0342 16.384-5.2281 9.5259-6.2508 15.978-2.5324 15.978 2.0485 0 8.2708-6.0775 11.418-11.152 1.2746-2.0554 1.3923-1.968 1.4552 1.0818 0.0469 2.2678-1.1627 4.5491-3.8212 7.2076-4.46 4.46-9.0741 5.9917-13.446 4.4635-2.5418-0.88853-3.097-1.8761-3.3989-6.0464-0.29126-4.0235 0.55033-6.6735 4.3657-13.747 2.5996-4.8195 4.7265-9.276 4.7265-9.9031 0-1.8571-6.8913 2.7235-11.143 7.4065-2.1675 2.3874-6.0536 8.5432-8.6361 13.68-4.8927 9.7308-4.96 9.824-6.2216 8.5623zm59.408-2.2239c-1.65-1.65-3.1738-4.1385-3.3862-5.5299-1.6947-11.101 8.6665-26.379 17.898-26.392 4.0102-0.006 9.126 5.9155 9.126 10.563 0 1.9267 0.63137 3.4193 1.4552 3.4402 0.95185 0.0242 0.80913 0.52914-0.41268 1.4597-1.0274 0.78248-2.2808 2.7235-2.7854 4.3135-1.5489 4.8801-6.6459 11.716-10.047 13.475-4.7609 2.462-8.4737 2.0453-11.849-1.3299zm9.904-3.6941c1.6501-1.7608 4.0846-5.3659 5.4099-8.0113 2.3806-4.7517 2.3825-4.8343 0.15781-6.8477-1.2385-1.1209-2.5767-3.0614-2.9737-4.3124-0.69657-2.1947-0.82539-2.1791-3.6759 0.44459-5.3756 4.9479-9.4682 18.211-6.5275 21.152 1.6361 1.6361 4.7264 0.6511 7.6095-2.4254zm9.0774-20.082c0-3.4359-1.4929-4.6222-2.9169-2.318-0.93703 1.5161 0.41639 5.8106 1.8312 5.8106 0.59715 0 1.0858-1.5717 1.0858-3.4926zm85.514 24.065c-0.4122-1.6424-0.11048-4.9785 0.6705-7.4136 3.1759-9.9003 22.511-45.758 24.672-45.758 0.98127 0 1.2999 2.3656 0.94067 6.9852-0.12448 1.6008-2.5287 6.9268-5.3428 11.836-2.8141 4.9087-8.2948 15.105-12.179 22.657-3.8846 7.5529-7.2756 13.945-7.5356 14.205-0.25997 0.25996-0.80992-0.87104-1.2221-2.5134zm90.279-0.43342c0-4.0227 4.8089-11.164 13.724-20.381l5.3009-5.4804-2.0193-12.394c-1.1106-6.8162-1.7988-12.613-1.5293-12.883 2.1842-2.1842 7.8084 6.6746 7.8084 12.3 0 6.4736 1.3065 6.0769 11.169-3.3911 9.8184-9.4263 12.115-10.852 12.115-7.5206 0 3.3691-2.5369 6.8584-11.924 16.4l-9.3378 9.4915 1.4702 7.9711c0.80857 4.3841 2.3988 10.46 3.5338 13.501 2.2317 5.9801 1.3717 6.972-3.2423 3.7402-2.5614-1.7941-6.1122-11.36-6.1122-16.466 0-1.4846-0.46994-2.6992-1.0443-2.6992s-4.3383 3.7982-8.3642 8.4404c-12.458 14.365-11.547 13.626-11.547 9.3704zm-526.22-0.9674c0-1.6213 0.7339-4.7044 1.6309-6.8512 1.4406-3.448 1.4116-4.1226-0.24947-5.7835-1.723-1.723-1.6392-1.872 1.0618-1.872 2.4168 0 4.2184-1.9405 10.201-10.988 3.9964-6.0433 10.641-14.556 14.764-18.918l7.4976-7.9304 2.4316 2.8594c1.4062 1.6536 2.2039 3.8628 1.8916 5.2389-0.29699 1.3088-2.0021 7.9982-3.7891 14.865-3.052 11.728-3.1306 12.617-1.2962 14.644 2.5429 2.8098 2.4651 3.721-0.31757 3.721-1.9112 0-2.3956 1.1055-3.0609 6.9852-0.43465 3.8418-1.2595 6.9852-1.8329 6.9852-1.5494 0-3.3134-5.3951-3.3134-10.133v-4.161l-6.112 0.73414c-3.3616 0.40377-7.1598 0.74052-8.4404 0.74832-1.6208 0.009-3.3775 1.959-5.7802 6.4132-3.7765 7.001-5.2797 7.9836-5.2797 3.4511zm23.154-16.41c2.7315-0.54629 3.8125-1.501 4.2844-3.7836 0.34714-1.6792 1.6196-7.2309 2.8277-12.338 1.2081-5.1064 2.0196-9.4617 1.8033-9.6777-0.50796-0.50795-19.262 24.45-19.262 25.634 0 1.0824 5.3345 1.1675 10.347 0.16486zm219.05-16.094c-2.0202-2.4343-1.0128-5.8184 1.8546-6.2295 2.7704-0.39719 4.3567 2.3814 3.2857 5.7555-0.82183 2.5894-3.2026 2.809-5.1404 0.47401zm262.83-51.796c-1.581-1.2436-4.5894-5.7446-6.6855-10.002-3.4022-6.911-3.7632-8.5848-3.3662-15.61 0.5436-9.6209 6.4088-22.412 14.301-31.19 6.6051-7.3465 20.098-16.677 32.569-22.52 7.541-3.5338 10.02-5.2985 10.92-7.7705 0.64004-1.7592 2.0375-5.2348 3.1056-7.7238l1.9419-4.5253-6.0007 4.4049c-3.3005 2.4227-7.9215 5.091-10.269 5.9294-9.593 3.4264-19.203 0.9768-23.51-5.9928l-2.3974-3.8791-6.542 4.5827c-13.492 9.4514-26.856 9.417-36.114-0.0915-2.0666-2.1224-4.2998-5.5023-4.9627-7.5109l-1.2053-3.652-5.926 5.7119c-14.733 14.201-36.157 16.634-44.411 5.0439-3.8411-5.3944-4.2379-17.871-0.90028-28.314 4.858-15.201 26.986-56.889 33.862-63.794 3.037-3.0498 5.8066-1.3792 7.8823 4.7542 3.1878 9.4198 1.4316 14.715-15.243 45.947-8.9832 16.827-12.49 26.148-12.49 33.204 0 5.206 2.1976 8.6324 5.5365 8.6324 4.2259 0 12.292-5.282 18.606-12.184 7.0325-7.6871 11.274-15.223 18.368-32.638 2.3476-5.7628 8.9505-19.515 14.673-30.56 10.075-19.448 10.312-20.082 7.4851-20.082-6.641 0-14.608-4.9472-14.608-9.0706 0-0.59087 5.3389-1.442 11.865-1.8914 6.5253-0.44942 12.245-1.0529 12.712-1.341 0.46619-0.28812 2.679-3.7935 4.9173-7.7897 2.2383-3.9963 6.7233-11.326 9.9664-16.288 6.6249-10.136 9.5203-11.468 11.651-5.3562 2.2228 6.3763 1.2756 14.838-2.7368 24.45-0.64178 1.5374 0.11386 2.0763 3.7803 2.6957 5.3576 0.90516 12.613 7.5009 11.485 10.441-0.56905 1.4829-2.8273 1.823-12.104 1.823h-11.404l-10.098 17.754c-14.739 25.913-25.067 46.978-27.226 55.53-3.2495 12.867-0.37418 22.603 7.0886 24.003 5.5356 1.0385 11.028-1.9916 18.901-10.427 5.8499-6.2678 6.9851-8.2701 8.8466-15.604 4.7592-18.702 33.669-70.094 39.443-70.094 2.3798 0 5.5729 7.8185 5.577 13.656 0.006 7.5617-2.0867 12.871-10.903 27.673-21.836 36.659-26.09 58.672-10.104 52.275 9.8649-3.9472 21.44-19.895 42.591-58.678 15.213-27.896 19.663-34.926 22.107-34.926 3.3482 0 5.6892 5.7884 5.6892 14.067 0 7.5561-0.39625 8.696-8.5443 24.578-11.353 22.13-28.214 58.183-27.529 58.867 0.66468 0.66467 7.7318-3.5271 14.056-8.3375 9.945-7.5641 16.798-13.964 23.263-21.724 7.7304-9.2803 9.9227-10.102 9.9068-3.7114-0.0145 5.7925-5.3594 14.951-13.266 22.734-6.1114 6.0144-22.1 15.745-33.906 20.633-5.8038 2.4036-5.8987 2.5275-10.929 14.309-19.897 46.596-38.462 71.841-52.834 71.841-2.1968 0-5.2878-1.0175-6.8688-2.2612zm12.032-20.196c11.018-13.924 31.266-50.889 27.885-50.889-0.56878 0-4.3014 2.456-8.2947 5.4578-13.701 10.299-28.526 32.668-29.935 45.169-1.2074 10.712 2.0182 10.794 10.346 0.26128zm56.012-20.909c0.67852-2.0419 23.908-2.4139 80.04-1.2819 58.423 1.1783 44.886 2.424-28.329 2.6069-41.283 0.10303-52.094-0.17391-51.711-1.325zm-613.82-2.036-59.956-0.59044 50.643-0.59553c27.853-0.32753 157.65-0.72259 288.43-0.87788 211.85-0.25156 237.78-0.0898 237.78 1.4829 0 1.5726-24.941 1.7329-228.47 1.4683-125.66-0.16331-255.45-0.56263-288.43-0.88736zm-10.785-47.266c-8.781-8.781-10.248-16.833-7.3063-40.118 5.2011-41.174 21.479-111.91 26.762-116.3 2.2767-1.8894 3.6914-0.83985 6.629 4.9182 3.862 7.57 2.5474 20.867-5.7809 58.476-3.8284 17.288-8.337 39.029-10.019 48.314-1.6821 9.2845-3.3413 18.167-3.6872 19.738-0.34585 1.5716 5.8448-6.8106 13.757-18.627 33.925-50.657 84.851-115.34 89.592-113.78 2.384 0.78689 2.6316 13.225 0.38061 19.12-2.8539 7.4727-8.7888 16.033-31.037 44.77-24.182 31.235-44.123 58.336-59.662 81.088-7.367 10.794-12.051 16.597-13.385 16.597-1.1286 0-3.9382-1.8862-6.2435-4.1915zm90.208 1.0912c-6.3322-3.121-8.9088-7.9188-9.3918-17.489-0.52591-10.414 1.9549-18.701 11.438-38.203 7.3984-15.216 20.864-38.208 24.535-41.895 3.037-3.0498 5.8066-1.3792 7.8823 4.7542 3.1878 9.4197 1.4316 14.715-15.243 45.947-11.906 22.301-15.369 35.298-10.66 40.007 2.4297 2.4297 4.5965 2.3078 10.595-0.59586 11.16-5.4023 24.481-24.513 27.044-38.799 2.3932-13.339 11.936-29.762 24.508-42.174 9.4766-9.3573 16.91-13.364 26.091-14.063 6.7242-0.51155 7.4811-0.30108 12.884 3.5829 3.1575 2.2695 7.2678 6.3774 9.1343 9.1286 4.7961 7.0698 4.0482 13.983-3.2537 30.079-3.0385 6.6976-5.9193 12.615-6.4019 13.15-1.5595 1.728-7.7613-2.5004-9.7196-6.6268-2.8715-6.0511-2.3511-10.426 2.7535-23.149 5.1266-12.778 5.4729-14.614 2.94-15.586-4.448-1.7068-19.951 13.152-29.055 27.848-10.834 17.489-15.275 38.027-10.628 49.151 5.9675 14.282 26.797 10.285 46.699-8.9614l10.007-9.6777 1.756-9.3062c3.191-16.912 12.948-34.218 26.369-46.773 13.683-12.799 27.867-16.72 37.794-10.447 6.6458 4.1991 13.016 11.345 14.272 16.011 2.4133 8.9609-2.5997 22.646-12.212 33.337-11.137 12.387-25.54 15.646-38.39 8.6867l-6.4578-3.4976-1.7565 5.9148c-2.4118 8.1213-2.1964 17.799 0.52977 23.805 8.5361 18.804 37.757 8.4815 59.254-20.931 5.905-8.0797 8.3115-8.6561 8.3115-1.991 0 9.2871-9.0634 21.245-22.995 30.34-11.952 7.8022-18.359 9.7765-31.722 9.7737-9.1161-0.00093-11.879-0.44392-15.717-2.5162-5.8781-3.1736-11.256-8.854-14.484-15.298l-2.5107-5.0128-6.4274 5.8743c-25.078 22.92-57.707 23.285-68.95 0.77207l-2.7097-5.4256-3.2434 4.4775c-10.028 13.843-31.079 21.591-42.87 15.779zm163.43-50.005c8.0308-3.8108 19.86-19.246 23.903-31.187 2.3278-6.8764 1.7979-8.8406-2.3851-8.8406-8.4899 0-26.26 17.624-34.865 34.579-2.3347 4.6-2.3616 4.9634-0.45036 6.0766 3.0499 1.7766 9.3331 1.4907 13.798-0.62774zm134.43 49.004c-11.718-3.2889-18.813-9.5837-24.606-21.832-16.285-34.433 4.9326-91.088 45.821-122.35 16.277-12.447 36.49-19.263 47.412-15.99 9.5324 2.8559 20.863 16.651 22.576 27.485 0.43851 2.7733 0.0674 7.0111-0.91743 10.478-1.9283 6.7873-12.156 32.122-13.573 33.618-1.8402 1.9447-6.7766-0.45341-9.2837-4.5101-4.0326-6.5249-3.403-15.206 2.1648-29.847 6.2956-16.556 6.8478-19.933 3.7632-23.018-3.0559-3.0559-5.3532-3.0562-13.516-0.002-21.395 8.0051-49.087 35.993-60.999 61.652-9.1793 19.773-12.835 44.114-8.8419 58.867 2.4989 9.2319 8.0693 15.772 15.261 17.917 13.882 4.1416 34.886-11.598 50.109-37.55 2.9108-4.9621 5.846-9.3639 6.5227-9.782 2.3612-1.4592 4.3698 3.4689 4.3698 10.721 0 15.196-13.096 32.435-31.155 41.011-7.253 3.4444-10.006 4.1043-18.655 4.4722-6.7548 0.28726-12.255-0.16032-16.454-1.339zm-258.82-99.59c-7.6962-4.4826-7.0266-23.059 0.90283-25.049 9.245-2.3204 17.412 15.018 10.945 23.238-2.5761 3.275-7.9293 4.0928-11.849 1.81zm384.18 0c-7.6962-4.4826-7.0266-23.059 0.90283-25.049 9.245-2.3204 17.412 15.018 10.945 23.238-2.5761 3.275-7.9293 4.0928-11.849 1.81zm-339.05-100.9c-1.1843-4.9624-2.8118-11.804-3.6165-15.203l-1.4631-6.1808 3.0612 0.35978c2.7883 0.32771 3.2689 1.1902 5.3903 9.6731l2.3291 9.3136 2.922-9.6042c2.496-8.2552 3.2691-9.6042 5.4857-9.6042 2.1408 0 2.8948 1.1307 4.4641 6.6941 1.0385 3.6817 2.3142 8.0039 2.835 9.6042 1.0377 3.1897 0.77276 3.8267 4.722-11.351 1.0804-4.1768 1.7416-4.9474 4.2284-4.9474 2.2535 0 2.8051 0.47786 2.3514 2.0373-0.32599 1.1205-1.9858 7.9608-3.6884 15.201-3.0231 12.855-3.1672 13.154-6.1432 12.806-2.72-0.31868-3.3466-1.3497-5.8292-9.593-3.0742-10.207-3.3319-10.132-6.7094 1.9593-1.9843 7.1035-2.4836 7.8583-5.1983 7.8583-2.7846 0-3.16-0.65685-5.1566-9.0225zm37.818-6.112v-15.135h8.7315c7.9554 0 8.7315 0.20697 8.7315 2.3284 0 2.018-0.77614 2.3284-5.821 2.3284-5.6916 0-5.821 0.07761-5.821 3.4926s0.12936 3.4926 5.821 3.4926c5.0449 0 5.821 0.31045 5.821 2.3284 0 2.0179-0.77614 2.3284-5.821 2.3284h-5.821v4.6568 4.6568h5.821c5.0449 0 5.821 0.31045 5.821 2.3284 0 2.1214-0.77614 2.3284-8.7315 2.3284h-8.7315v-15.135zm23.284 0v-15.135h2.9105 2.9105v12.806 12.806h4.6568c3.8807 0 4.6568 0.38807 4.6568 2.3284 0 2.0896-0.77614 2.3284-7.5673 2.3284h-7.5673v-15.135zm27.144 12.872c-8.0935-3.677-10.925-12.971-6.2774-20.597 4.4426-7.2794 17.947-9.3881 26.059-4.0669 2.8821 1.8906 3.0304 2.2827 1.3815 3.6512-1.54 1.2781-2.5225 1.2111-5.9056-0.40211-6.1492-2.9324-10.595-2.4837-14.547 1.4678-9.4952 9.4952 3.0609 22.421 15.08 15.523 2.7522-1.5796 3.8465-1.7196 4.9346-0.63144 2.0069 2.0068-0.49744 4.6574-5.789 6.1272-6.0573 1.6825-9.3918 1.443-14.932-1.0719zm35.102-0.06326c-11.771-5.8271-11.561-20 0.38352-25.782 8.5044-4.117 17.505-1.5767 22.473 6.3425 4.4876 7.1532 0.83638 16.431-7.9377 20.169-5.1744 2.2048-9.4095 1.9978-14.918-0.72949zm14.926-4.6736c3.93-3.0914 4.9803-8.1401 2.6366-12.672-2.1887-4.2435-5.0386-5.9411-9.9655-5.9411-4.995 0-10.465 5.4767-10.465 10.478 0 8.4316 11.019 13.468 17.798 8.1352zm14.218 4.4614c0.36787-1.4855 1.583-8.2017 2.7004-14.925 2.0303-12.217 2.0336-12.224 5.3779-12.224 3.0754 0 3.5573 0.6128 5.9508 7.5673 4.9913 14.503 4.3222 14.309 8.5559 2.4742 3.5298-9.8584 4.0328-10.624 6.9666-10.624 3.1309 0 3.196 0.15732 5.1709 12.516 1.1 6.8833 2.3104 13.694 2.6898 15.135 0.58244 2.2118 0.22796 2.6194-2.278 2.6194-1.8234 0-3.1975-0.78558-3.5635-2.0373-0.51193-1.751-2.9373-14.606-3.1155-16.513-0.0339-0.36263-1.6542 3.6627-3.6007 8.9453-3.0262 8.2125-3.9264 9.6042-6.2113 9.6042-2.2971 0-3.1338-1.326-5.9601-9.4449-1.8083-5.1947-3.4585-8.9333-3.6669-8.3079-0.20845 0.62539-1.0419 4.7446-1.8522 9.1539-1.3667 7.4375-1.7031 8.0438-4.6552 8.3894-2.8099 0.32893-3.1038 0.05663-2.5133-2.3284zm42.489-12.597v-15.135h8.7315c7.9554 0 8.7315 0.20697 8.7315 2.3284 0 2.018-0.77614 2.3284-5.821 2.3284-5.6916 0-5.821 0.07761-5.821 3.4926s0.12935 3.4926 5.821 3.4926c5.0449 0 5.821 0.31045 5.821 2.3284 0 2.0179-0.77614 2.3284-5.821 2.3284h-5.821v4.6568 4.6568h5.821c5.0449 0 5.821 0.31045 5.821 2.3284 0 2.1214-0.77614 2.3284-8.7315 2.3284h-8.7315v-15.135zm52.389 2.3284v-12.806h-3.4926c-2.7165 0-3.4926-0.51742-3.4926-2.3284 0-2.1344 0.77613-2.3284 9.3136-2.3284 8.5374 0 9.3136 0.19403 9.3136 2.3284 0 1.7075-0.77614 2.3284-2.9105 2.3284h-2.9105v12.806 12.806h-2.9105-2.9105v-12.806zm22.664 10.481c-11.771-5.8271-11.561-20 0.38351-25.782 8.5044-4.117 17.505-1.5767 22.473 6.3425 4.4876 7.1532 0.83638 16.431-7.9377 20.169-5.1744 2.2048-9.4095 1.9978-14.918-0.72949zm14.926-4.6736c3.93-3.0914 4.9803-8.1401 2.6366-12.672-2.1887-4.2435-5.0386-5.9411-9.9655-5.9411-4.995 0-10.465 5.4767-10.465 10.478 0 8.4316 11.019 13.468 17.798 8.1352z"/>
 </g>
 <g id="layer2">
  <path id="path4146" fill="#fff" d="m280.2 616.94c-3.9808-4.2209-4.0294-4.3971-3.6118-13.097 0.50439-10.509 3.3436-17.089 11.092-25.707 6.288-6.9938 13.104-11.226 19.803-12.298 4.4139-0.70567 5.2462-0.43343 8.4404 2.7608 4.1203 4.1203 4.4679 7.5793 1.5732 15.656-3.7068 10.342-8.0784 4.2592-4.6481-6.4676 2.1012-6.5707 1.7947-7.7938-1.9536-7.7938-7.246 0-22.306 14.484-26.386 25.378-2.7819 7.4263-3.3635 17.918-1.1416 20.596 3.2058 3.8628 11.838 1.0048 16.659-5.516 4.7184-6.3806 4.7151-6.3928-1.5859-5.7874-4.5216 0.43447-6.3305 0.0912-8.1376-1.5442-3.082-2.7892-1.6224-3.5878 8.7015-4.7609 9.3025-1.0571 13.365-0.80276 15.502 0.97047 2.4372 2.0226 1.6682 3.2625-2.0235 3.2625-3.0955 0-3.4926 0.39257-3.4926 3.4521 0 4.2278-5.9192 11.356-11.296 13.602-2.0704 0.86508-5.946 1.5729-8.6122 1.5729-4.0762 0-5.49-0.68097-8.8829-4.2785zm141.83 2.8061c-5.4833-2.818-7.6797-7.3434-7.6773-15.818 0.002-6.4584 0.65876-9.1315 3.8249-15.563 6.296-12.769 18.236-23.032 26.814-23.032 4.0652 0 10.671 4.2327 12.774 8.1843 2.6192 4.9222 1.1413 17.431-3.0702 25.986-4.3919 8.9211-11.499 17.251-16.908 19.817-4.7231 2.2412-11.838 2.4315-15.75 0.42106zm10.193-3.6771c5.2614-2.7208 12.937-11.961 16.821-20.253 4.0804-8.7085 5.6829-21.014 3.1361-24.083-1.813-2.1845-6.1464-2.2287-10.254-0.10465-5.2644 2.7224-15.287 14.247-18.574 21.356-3.5366 7.6503-4.3566 19.466-1.5833 22.814 1.9609 2.367 6.1892 2.4768 10.454 0.27176zm23.069 4.3734c-2.1442-2.1442-0.40541-9.4617 4.4745-18.83 8.0951-15.542 11.339-18.772 11.339-11.294 0 1.6274 0.12442 2.959 0.27649 2.959s2.2854-1.5965 4.7408-3.5477c2.9036-2.3075 5.5033-3.4267 7.4363-3.2015 4.9357 0.57499 4.584 6.1467-1.0342 16.384-5.2281 9.5259-6.2508 15.978-2.5324 15.978 2.6683 0 9.6079-7.4452 11.403-12.232 4.9187-13.125 6.9355-17.656 10.477-23.536 8.4588-14.048 15.186-19.85 17.132-14.779 2.6157 6.8165-2.5409 17.839-13.438 28.723-5.5258 5.5193-8.0907 9.0303-8.6067 11.781-1.0433 5.5613-0.26801 9.3778 1.9926 9.8081 3.5944 0.68473 9.5287-6.3604 16.038-19.042 3.5564-6.9276 7.0543-12.78 7.7731-13.005 0.71886-0.22546 1.6314 0.79026 2.0278 2.2572 0.49762 1.8411-0.89857 6.0341-4.5086 13.54-5.5911 11.624-6.3019 14.984-3.4064 16.095 2.8796 1.105 8.7021-5.4682 14.834-16.746 8.6856-15.976 11.575-18.83 11.575-11.434 0 1.6274 0.12442 2.959 0.2765 2.959 0.15207 0 2.2854-1.5965 4.7408-3.5477 2.9036-2.3075 5.5033-3.4268 7.4363-3.2015 4.9357 0.57499 4.584 6.1467-1.0342 16.384-5.1664 9.4132-6.245 15.978-2.6253 15.978 3.462 0 9.1075-7.0581 10.609-13.263 1.5655-6.4692 6.701-14.561 11.05-17.41 6.1566-4.034 15.824-0.68268 15.824 5.4857 0 2.9025-2.7974 7.8649-6.2539 11.093-2.6008 2.4295-3.7326 2.6973-8.8421 2.0922l-5.8595-0.69398v4.0964c0 11.377 8.9758 11.624 19.005 0.52273 3.2636-3.6125 4.2783-4.2197 4.2783-2.5608 0 5.3874-10.316 12.883-17.812 12.941-3.6626 0.0288-9.6889-2.7282-10.359-4.7392-0.27445-0.82338-2.1298-0.17465-4.9245 1.7218-2.4681 1.6671-5.7558 3.0362-7.3112 3.0362-8.9175 0-9.8761-7.4893-2.6551-20.737 2.5522-4.6821 4.6404-9.0338 4.6404-9.6703 0-1.8714-6.8735 2.687-11.143 7.3897-2.1674 2.3874-6.0642 8.564-8.6594 13.725-4.2413 8.4355-6.9744 10.916-6.9744 6.3301 0-1.3052-0.80948-1.1669-3.7836 0.64646-4.7879 2.9192-8.403 2.9352-11.288 0.0497-2.245-2.245-2.3083-2.2427-6.8803 0.26164-5.3222 2.9153-10.281 2.0177-12.407-2.2456l-1.2289-2.4649-3.2168 2.767c-4.0224 3.4599-8.3578 4.5957-12.292 3.2203-2.5418-0.88853-3.0969-1.8761-3.3989-6.0464-0.29126-4.0235 0.55033-6.6735 4.3657-13.747 2.5996-4.8195 4.7265-9.276 4.7265-9.9031 0-1.8571-6.8913 2.7235-11.143 7.4065-2.1674 2.3874-6.0536 8.5432-8.6361 13.68-4.8927 9.7308-4.96 9.824-6.2216 8.5623zm122.59-18.571c3.5217-2.9633 7.0327-8.3867 7.0327-10.863 0-2.9731-4.8575-0.7692-9.2147 4.1808-4.6323 5.2626-5.5676 7.3676-3.9796 8.9556 1.3022 1.3022 2.3891 0.90129 6.1615-2.2731zm-64.604-18.042c1.7121-3.1458 2.9169-6.6286 2.6774-7.7397-0.43964-2.0386-8.6581 9.4822-13.092 18.353l-2.0367 4.0747 4.6693-4.4844c2.5681-2.4664 6.07-7.0582 7.7822-10.204zm81.525 36.216c-1.0735-1.7369 0.41026-5.4931 2.4842-6.2889 2.3763-0.91185 3.9253 0.13101 3.9253 2.6426 0 3.7552-4.6924 6.4247-6.4095 3.6463zm-273-4.4873c0-3.1494 2.1167-8.7986 7.0611-18.845 3.8836-7.891 8.0747-15.771 9.3136-17.51 3.1685-4.4498 2.8364-5.315-1.8307-4.7701-4.0898 0.47746-9.8873-2.1399-9.8873-4.4636 0-0.62555 2.1672-1.1374 4.8159-1.1374 2.6488 0 9.416-0.61247 15.039-1.3611 9.4318-1.2558 10.478-1.1894 13.521 0.85812l3.2977 2.2191-7.9686 1.1792c-7.7559 1.1477-8.0074 1.292-9.4188 5.4038-0.79768 2.3236-4.6497 9.9199-8.5601 16.881-3.9104 6.961-8.4404 15.668-10.067 19.351-1.6263 3.6818-3.4874 6.6941-4.1358 6.6941-0.64838 0-1.1789-2.0239-1.1789-4.4977zm31.433 1.5498c0-1.6213 0.7339-4.7044 1.6309-6.8512 1.4406-3.448 1.4116-4.1226-0.24946-5.7835-1.7137-1.723-1.6299-1.872 1.0711-1.872 2.4168 0 4.2184-1.9405 10.201-10.988 3.9965-6.0433 10.641-14.556 14.764-18.918l7.4976-7.9304 2.4316 2.8594c1.4062 1.6536 2.2039 3.8628 1.8916 5.2389-0.29699 1.3087-2.0021 7.9982-3.7891 14.865-3.052 11.728-3.1306 12.617-1.2962 14.644 2.5429 2.8098 2.4651 3.721-0.31757 3.721-1.9112 0-2.3956 1.1055-3.0609 6.9852-0.43465 3.8418-1.2595 6.9852-1.8329 6.9852-1.5494 0-3.3134-5.3951-3.3134-10.133v-4.161l-6.112 0.73414c-3.3616 0.40377-7.1598 0.74052-8.4404 0.74832-1.6208 0.009-3.3775 1.959-5.7802 6.4132-3.7765 7.001-5.2797 7.9836-5.2797 3.4511zm23.154-16.41c2.7315-0.54628 3.8125-1.501 4.2844-3.7836 0.34715-1.6792 1.6196-7.2309 2.8277-12.338 1.2081-5.1064 2.0196-9.4616 1.8033-9.6777-0.50796-0.50795-19.262 24.45-19.262 25.634 0 1.0824 5.3345 1.1674 10.347 0.16485zm149.2-16.1c-2.0202-2.4343-1.0128-5.8184 1.8546-6.2295 2.7703-0.39718 4.3567 2.3814 3.2857 5.7555-0.82184 2.5894-3.2026 2.809-5.1404 0.47403zm-277.44-50.25c-1.546-1.546-0.79924-7.978 1.5197-13.088 1.2666-2.7913 2.3029-5.3034 2.3029-5.5827 0-0.27924-1.8359-0.1633-4.0798 0.25768-5.6035 1.0512-9.8901-1.7896-9.8901-6.5541 0-3.6497 2.8809-10.1 7.8965-17.678 3.6991-5.5897 2.6432-6.7439-2.5475-2.7847-5.7156 4.3594-11.471 11.787-15.747 20.323-4.1193 8.2224-6.5297 8.8656-6.3935 1.706 0.0643-3.377 1.638-7.3161 5.6714-14.196 3.0703-5.2372 5.3017-9.8025 4.9586-10.146-2.4333-2.4333-14.364 10.747-19.597 21.649-3.974 8.2795-5.2232 9.5511-6.3923 6.5043-0.5555-1.4476-1.178-1.4259-4.4974 0.15705-8.001 3.8154-13.575-0.98883-11.177-9.6321 1.5729-5.6663 10.719-22.85 12.474-23.435 0.71137-0.23712 1.6178 0.76905 2.0142 2.2359 0.49761 1.8411-0.89857 6.0341-4.5086 13.54-5.5876 11.617-6.3017 14.984-3.4136 16.092 2.9694 1.1394 8.349-5.1441 14.004-16.357 2.8859-5.7222 6.3471-11.949 7.6916-13.837 2.148-3.0167 2.5775-3.1951 3.5418-1.4722 0.60351 1.0784 0.77681 3.2377 0.38511 4.7984-0.68449 2.7272-0.50395 2.6786 4.641-1.2486 6.6368-5.0659 9.5501-5.242 11.142-0.67367l1.1895 3.4124 5.3808-3.4124c6.5427-4.1493 8.162-4.2538 9.0826-0.58597 0.94449 3.7632-0.1099 6.7904-5.4776 15.727-2.4756 4.1216-4.5011 8.1388-4.5011 8.9273 0 2.9077 1.4675 5.1165 3.3994 5.1165 3.419 0 8.189-6.1978 18.592-24.158 4.7555-8.2096 7.1135-10.387 7.1135-6.5696 0 1.3466 0.57089 1.62 2.0373 0.97578 1.1205-0.4923 3.9564-1.1229 6.3018-1.4014 3.5152-0.41736 4.51-0.0476 5.6617 2.1045 3.0645 5.7262-0.98556 20.057-7.723 27.326l-2.9453 3.1781 3.1425-0.78872c3.7388-0.93844 8.2964-4.0925 9.2277-6.386 0.36697-0.90383 3.0269-5.1929 5.911-9.5315 3.8517-5.7938 5.0625-8.6105 4.5607-10.61-0.45198-1.8009 0.23755-4.0883 2.0377-6.7595 4.8482-7.1943 8.6578-5.2439 5.5783 2.8558-1.43 3.7614 0.18374 3.9126 5.7221 0.53629 3.8249-2.3318 4.073-2.3477 5.5299-0.35523 2.3264 3.1816 1.9098 4.7241-3.0504 11.296-2.5167 3.3342-5.1652 7.6133-5.8855 9.5092-1.7011 4.4772-0.61676 8.7769 2.2136 8.7769 2.8146 0 9.1937-7.2523 10.003-11.372 1.1628-5.9192 7.1079-15.958 11.019-18.606 2.1279-1.4407 5.3166-2.6194 7.0859-2.6194 4.1317 0 9.2449 5.8446 9.2449 10.567 0 1.9267 0.63137 3.4193 1.4552 3.4402 0.95185 0.0242 0.80913 0.52914-0.41268 1.4597-1.0274 0.78248-2.2808 2.7235-2.7854 4.3135-1.5489 4.8801-6.6459 11.716-10.047 13.475-5.044 2.6084-8.5287 2.0397-12.521-2.0435-1.9969-2.0425-3.6307-3.0825-3.6307-2.3113 0 1.9067-6.9516 6.0152-10.187 6.0205-1.4407 0.003-3.728-1.1042-5.083-2.4592-3.572-3.5719-2.3653-10.214 3.3635-18.516l4.5603-6.6086-4.6123 1.3618c-5.1884 1.5319-7.4744 4.5722-14.905 19.824-3.6243 7.4382-4.6769 8.82-5.2277 6.862-0.66102-2.3498-0.89137-2.3816-5.5456-0.76597-7.4197 2.5756-14.67 1.3621-18.242-3.0533l-2.9084-3.5947-6.4442 12.849c-3.5443 7.0671-6.8196 12.474-7.2784 12.015zm23.837-23.656c6.1062-4.8031 12.922-21.728 10.335-25.664-0.97644-1.4864-1.5826-1.3944-4.3904 0.66589-7.5818 5.5632-14.574 20.094-11.991 24.919 1.5537 2.9031 2.4419 2.9148 6.0469 0.0791zm62.88-0.94736c1.6501-1.7608 4.0846-5.3659 5.4099-8.0113 2.3806-4.7517 2.3825-4.8343 0.15781-6.8477-1.2385-1.1209-2.5767-3.0614-2.9737-4.3124-0.69657-2.1947-0.82538-2.1791-3.6759 0.44457-5.3756 4.9479-9.4682 18.211-6.5275 21.152 1.6361 1.6361 4.7264 0.65109 7.6095-2.4254zm9.0774-20.082c0-3.4359-1.4929-4.6222-2.9169-2.318-0.93704 1.5161 0.41638 5.8106 1.8312 5.8106 0.59715 0 1.0858-1.5717 1.0858-3.4926zm316.28 28.338c-0.43207-0.43209-0.7856-1.7461-0.7856-2.92 0-2.5711 0.13984-2.5604-5.0593-0.38806-16.419 6.8604-24.725-8.2318-13.505-24.539 4.1558-6.0403 8.0918-8.6399 13.081-8.6399 4.2699 0 8.9754 3.8843 8.9754 7.409 0 2.9025-2.7974 7.8649-6.2539 11.093-2.6008 2.4296-3.7326 2.6973-8.8421 2.0922l-5.8595-0.69398v4.0964c0 5.8703 1.806 8.6001 5.6898 8.6001 5.0334 0 10.459-4.3928 17.258-13.974 4.802-6.7664 6.0497-9.3946 5.552-11.696-0.43087-1.9922 0.24637-4.2863 2.0597-6.9771 4.8316-7.1697 8.6319-5.1979 5.5591 2.8843-1.43 3.7613 0.18374 3.9126 5.7221 0.53629 3.8249-2.3318 4.073-2.3477 5.5299-0.35524 2.3264 3.1816 1.9098 4.7241-3.0504 11.296-5.4405 7.2077-7.4381 11.989-6.5265 15.622 1.3066 5.2057 7.3432 1.8149 13.071-7.3422 1.3503-2.1586 1.3885-2.1556 1.4509 0.11141 0.17708 6.4309-8.2999 13.297-14.497 11.742-6.8223-1.7123-6.6217-10.606 0.46756-20.726l4.48-6.3955-4.6384 1.3696c-5.2139 1.5395-7.5814 4.6787-14.744 19.55-2.3927 4.9676-4.7037 8.6785-5.1359 8.2464zm-8.9783-20.909c3.5217-2.9633 7.0327-8.3867 7.0327-10.863 0-2.9731-4.8575-0.7692-9.2147 4.1808-4.6323 5.2625-5.5677 7.3676-3.9796 8.9556 1.3022 1.3022 2.3891 0.90127 6.1615-2.2731zm-299.12 17.631c-1.0332-1.2448-1.3087-3.9185-0.87513-8.4904 0.75728-7.9854 3.9613-22.277 5.5415-24.718 1.0048-1.5523 1.2578-1.5523 2.2768 0 1.7588 2.6791 1.4112 8.1646-1.2189 19.239-1.3205 5.56-2.2135 10.296-1.9844 10.525 0.22913 0.22912 3.7925-4.3665 7.9186-10.212 9.2328-13.082 17.311-22.083 17.376-19.363 0.0254 1.0642-2.3387 4.9935-5.2538 8.7315-2.915 3.738-8.4711 10.987-12.347 16.11-3.8758 5.1224-7.6946 9.4672-8.4863 9.6544-0.79179 0.18754-2.1182-0.47668-2.9476-1.476zm30.006-0.0857c-6.6173-3.592-6.4899-14.611 0.28286-24.456 4.1744-6.0673 8.1049-8.6679 13.1-8.6679 4.2699 0 8.9754 3.8843 8.9754 7.409 0 2.9025-2.7974 7.8649-6.2539 11.093-2.6008 2.4295-3.7326 2.6973-8.8421 2.0922l-5.8595-0.69397v4.0964c0 5.6539 1.8285 8.6001 5.3376 8.6001 7.0464 0 13.021-5.6723 19.62-18.627 2.4462-4.8022 5.5052-10.231 6.7978-12.063 2.07-2.9345 2.481-3.098 3.4474-1.371 0.60351 1.0784 0.77681 3.2377 0.38511 4.7984-0.68449 2.7272-0.50395 2.6786 4.641-1.2486 6.6368-5.0659 9.5501-5.242 11.142-0.67367l1.1895 3.4124 5.3808-3.4124c6.5427-4.1493 8.162-4.2538 9.0826-0.58596 0.94449 3.7632-0.1099 6.7904-5.4776 15.727-4.6093 7.674-5.0223 9.0023-3.7944 12.203 2.0735 5.4034 10.807-2.2707 13.143-11.55 1.6096-6.392 6.7889-14.475 11.074-17.283 6.1566-4.034 15.824-0.68268 15.824 5.4857 0 2.9025-2.7974 7.8649-6.2539 11.093-2.6008 2.4296-3.7326 2.6973-8.8421 2.0922l-5.8595-0.69397v4.0964c0 8.1474 4.2034 10.713 11.409 6.9644 4.68-2.435 7.5515-6.0868 12.903-16.41 7.6469-14.75 10.905-17.895 10.905-10.526 0 1.6274 0.12442 2.959 0.27649 2.959 0.15208 0 2.2854-1.5965 4.7408-3.5477 2.9036-2.3075 5.5033-3.4268 7.4363-3.2015 4.9357 0.57499 4.584 6.1467-1.0342 16.384-7.4724 13.615-5.5511 21.297 3.0497 12.195 4.0318-4.2671 16.13-28.025 14.541-28.554-0.56682-0.18894-2.0217-1.0938-3.233-2.0108-2.0667-1.5645-1.983-1.6696 1.3587-1.7043 4.2978-0.0447 6.0798-1.424 10.201-7.8953 1.7332-2.7213 3.4725-4.9478 3.8649-4.9478 0.39253 0 0.4645 2.5935 0.15993 5.7632-0.49104 5.1104-0.28741 5.8026 1.7981 6.112 4.309 0.63926 3.4973 3.0906-1.1509 3.4758-4.2186 0.34964-4.6542 0.79837-9.9618 10.262-6.6448 11.848-8.5038 17.635-6.7296 20.951 0.68681 1.2833 2.18 2.3332 3.3183 2.3332 3.0008 0 8.3262-6.0414 8.3262-9.4458 0-3.9157 3.0676-8.0111 4.4425-5.931 1.1658 1.7637 5.3862-3.8317 10.426-13.822 2.3227-4.6047 3.9332-6.415 5.9628-6.7021 2.3482-0.3323 2.6194-0.0607 1.7441 1.7463-0.57009 1.1769-1.0456 8.2255-1.0564 15.664-0.015 10.214-0.44258 14.036-1.7468 15.616-1.6007 1.9396-1.5448 1.9953 0.76702 0.76384 2.6576-1.4158 7.9902-7.2896 8.8773-9.7783 0.29374-0.82404 0.98621-1.0742 1.5388-0.55594 1.4085 1.321-2.964 8.881-6.7496 11.67-1.8725 1.3794-5.6773 2.5323-9.3676 2.8382-5.348 0.4435-6.6934 0.112-9.6535-2.3785l-3.4391-2.8938-4.0415 2.7693c-5.1584 3.5346-8.7153 3.5061-12.32-0.0988l-2.8682-2.8682-4.2265 2.8682c-2.3246 1.5774-5.4976 2.8682-7.0511 2.8682-8.9175 0-9.8761-7.4893-2.6551-20.737 2.5522-4.6821 4.6404-9.0338 4.6404-9.6703 0-1.8714-6.8735 2.687-11.143 7.3897-2.1675 2.3874-6.0642 8.564-8.6594 13.725-4.2275 8.4081-6.9744 10.916-6.9744 6.3699 0-1.2867-1.0196-1.1579-4.9478 0.62523-2.7213 1.2353-6.4145 2.2574-8.2072 2.2715-3.753 0.0294-9.6945-2.7447-10.398-4.8551-0.33315-0.99944-1.4646-0.6617-3.7159 1.1091-7.3858 5.8097-16.971 3.9533-16.971-3.2868 0-3.6497 2.8809-10.1 7.8965-17.678 3.6991-5.5897 2.6432-6.7439-2.5475-2.7847-5.7156 4.3594-11.471 11.787-15.747 20.323-4.1193 8.2224-6.5297 8.8656-6.3935 1.7061 0.0643-3.377 1.638-7.3161 5.6714-14.196 3.0703-5.2372 5.3017-9.8025 4.9586-10.146-2.4333-2.4333-14.364 10.747-19.597 21.649-4.0633 8.4657-5.4782 9.7681-6.4738 5.9614-0.57094-2.1833-0.66786-2.1838-5.421-0.0256-5.7801 2.6245-10.691 2.7707-14.974 0.44573zm165.01-5.5858c0.37651-2.0192 0.52173-6.7758 0.32272-10.57l-0.36186-6.899-4.3657 6.5901c-5.0391 7.6066-5.2135 8.7268-1.9945 12.819 2.9343 3.7304 5.4863 2.9568 6.3994-1.9397zm-154.36-11.94c3.5217-2.9633 7.0327-8.3867 7.0327-10.863 0-2.9731-4.8575-0.76919-9.2147 4.1808-4.6323 5.2625-5.5676 7.3676-3.9796 8.9556 1.3022 1.3022 2.3891 0.90128 6.1615-2.2731zm76.837 0c3.5217-2.9633 7.0327-8.3867 7.0327-10.863 0-2.9731-4.8575-0.76919-9.2147 4.1808-4.6323 5.2625-5.5676 7.3676-3.9796 8.9556 1.3022 1.3022 2.3891 0.90128 6.1615-2.2731zm114.95 16.348c-1.65-1.65-3.1738-4.1385-3.3862-5.5299-1.6947-11.101 8.6665-26.379 17.898-26.392 4.0102-0.006 9.126 5.9155 9.126 10.563 0 1.9267 0.63137 3.4193 1.4552 3.4402 0.95185 0.0242 0.80913 0.52916-0.41268 1.4597-1.0274 0.78249-2.2808 2.7235-2.7854 4.3135-1.5489 4.8801-6.6459 11.716-10.047 13.475-4.7609 2.462-8.4737 2.0452-11.849-1.3299zm9.904-3.6941c1.6501-1.7608 4.0846-5.3659 5.4099-8.0112 2.3806-4.7517 2.3825-4.8343 0.1578-6.8477-1.2385-1.1209-2.5767-3.0614-2.9737-4.3124-0.69657-2.1948-0.82539-2.1791-3.6759 0.44458-5.3756 4.9479-9.4682 18.211-6.5275 21.152 1.6361 1.6361 4.7264 0.6511 7.6095-2.4254zm9.0774-20.082c0-3.4359-1.4929-4.6222-2.9169-2.318-0.93703 1.5161 0.41639 5.8106 1.8312 5.8106 0.59715 0 1.0858-1.5717 1.0858-3.4926zm8.1736 25.059c-1.0332-1.2448-1.3087-3.9185-0.87514-8.4903 0.7573-7.9855 3.9613-22.277 5.5415-24.718 1.0048-1.5523 1.2578-1.5523 2.2768 0 1.7588 2.6791 1.4112 8.1646-1.2189 19.239-1.3205 5.56-2.2135 10.296-1.9844 10.525 0.22913 0.22913 3.7925-4.3665 7.9186-10.212 9.2328-13.082 17.311-22.083 17.376-19.363 0.0253 1.0643-2.3387 4.9935-5.2538 8.7315-2.915 3.738-8.4711 10.987-12.347 16.11-3.8758 5.1225-7.6946 9.4672-8.4863 9.6544-0.79178 0.18754-2.1182-0.47668-2.9476-1.476zm-406.29-34.91c-2.0202-2.4343-1.0128-5.8184 1.8546-6.2295 2.7704-0.39719 4.3567 2.3814 3.2857 5.7555-0.82184 2.5894-3.2026 2.809-5.1404 0.47402zm296.91-45.62c-3.2278-4.1035-3.0834-9.8249 0.53759-21.287 4.8058-15.19 27.503-57.139 30.921-57.139 0.57865 0 1.0521 1.7295 1.0521 3.8434 0 2.58-2.1415 7.4594-6.5145 14.844-10.433 17.617-11.163 19.269-9.2247 20.877 0.91012 0.75534 2.0163 3.7843 2.4582 6.7311l0.80343 5.3577 3.201-3.5826c1.7606-1.9704 3.7428-4.5508 4.4051-5.7343s1.5993-1.7566 2.0822-1.2737c1.5588 1.5588-2.8444 8.8539-6.9806 11.566-2.2781 1.4933-4.2748 3.9158-4.6103 5.5935-1.2046 6.0233-5.6802 16.428-8.5157 19.798-3.606 4.2855-6.4711 4.4067-9.6172 0.40693zm9.0817-8.8655c5.2394-11.005 5.5032-12.953 2.059-15.21l-2.9042-1.903-2.9964 8.9971c-1.6479 4.9484-2.9963 10.436-2.9963 12.194 0 5.5122 3.1727 3.6198 6.8378-4.0787zm5.9683-22.41c0-2.8814-0.4584-5.2389-1.0187-5.2389-1.3253 0-2.6083 6.4447-1.7356 8.7187 1.3297 3.4652 2.7543 1.6654 2.7543-3.4798zm37.744 8.2577c-4.4217-1.9425-6.8594-7.3398-5.9225-13.114 1.2159-7.4928 18.941-41.131 21.674-41.131 1.8502 0 2.1959 4.903 0.65373 9.2739-0.85972 2.4367-2.9762 6.6689-4.7034 9.4048-7.0331 11.141-12.287 23.666-11.943 28.472 0.29281 4.0888 0.7154 4.7009 3.4645 5.0183 4.6922 0.54185 10.82-6.3803 18.898-21.349 11.554-21.408 17.124-30.82 18.237-30.82 0.58426 0 1.0623 2.0453 1.0623 4.545 0 7.8944-20.23 43.472-27.087 47.635-5.2764 3.204-10.143 3.9046-14.335 2.0634zm50.735-0.22346c0-3.2246 3.2828-8.9244 9.9916-17.347 8.854-11.118 35.387-40.165 36.687-40.165 1.7993 0 1.1504 5.0682-1.1178 8.7315-1.1893 1.9209-6.5573 8.2422-11.929 14.048-13.673 14.778-24.506 27.102-28.326 32.23-3.4721 4.659-5.3056 5.5244-5.3056 2.5043zm38.908 0.22346c-4.4217-1.9425-6.8594-7.3398-5.9225-13.114 1.2159-7.4928 18.941-41.131 21.674-41.131 1.8502 0 2.1959 4.903 0.65373 9.2739-0.85972 2.4367-2.9762 6.6689-4.7034 9.4048-7.0332 11.141-12.287 23.666-11.943 28.472 0.2928 4.0888 0.7154 4.7009 3.4645 5.0183 4.6922 0.54185 10.82-6.3803 18.898-21.349 11.554-21.408 17.124-30.82 18.237-30.82 0.58426 0 1.0623 2.0453 1.0623 4.545 0 7.8944-20.23 43.472-27.087 47.635-5.2764 3.204-10.143 3.9046-14.335 2.0634zm-430.04-0.94999c-1.5768-0.83365-3.626-3.5099-4.5536-5.9473-1.5101-3.9676-1.4736-5.1077 0.34846-10.888 2.7206-8.6306 10.51-16.67 16.152-16.67 4.0721 0 8.9651 3.8467 8.9651 7.048 0 2.8466-4.0189 11.588-5.1557 11.214-2.931-0.96405-3.4886-4.3114-1.5772-9.4691 1.0692-2.8847 1.4796-5.5319 0.91225-5.8826-1.5964-0.98667-8.7006 6.729-11.477 12.465-2.7355 5.6507-3.2883 13.632-1.0962 15.825 3.9673 3.9673 16.772-2.6619 18.764-9.715 3.4295-12.141 11.4-21.485 18.325-21.485 4.1317 0 9.2449 5.8446 9.2449 10.567 0 1.9267 0.63137 3.4193 1.4552 3.4402 0.95185 0.0242 0.80912 0.52914-0.41269 1.4597-1.0274 0.78248-2.2808 2.7235-2.7854 4.3135-1.5489 4.8801-6.6459 11.716-10.047 13.475-4.949 2.5593-8.5335 2.0348-12.28-1.7968l-3.3896-3.467-4.0309 2.868c-4.8993 3.4859-13.341 4.7723-17.363 2.6457zm35.119-5.2741c1.6501-1.7608 4.0846-5.3659 5.4099-8.0112 2.3806-4.7517 2.3825-4.8343 0.1578-6.8477-1.2385-1.1209-2.5767-3.0614-2.9737-4.3124-0.69657-2.1947-0.8254-2.1791-3.6759 0.44458-5.3756 4.9479-9.4682 18.211-6.5275 21.152 1.6361 1.6361 4.7264 0.6511 7.6095-2.4254zm9.0774-20.082c0-3.4359-1.4929-4.6222-2.9169-2.318-0.93704 1.5161 0.41638 5.8106 1.8312 5.8106 0.59715 0 1.0858-1.5717 1.0858-3.4926zm10.122 25.483c-5.7372-3.3375-4.6395-13.171 3.2994-29.558 8.4615-17.466 18.477-28.072 20.797-22.025 2.6157 6.8165-2.5409 17.839-13.438 28.723-7.931 7.9218-9.8761 11.934-8.9497 18.459 0.59719 4.2047 3.8099 3.9532 8.9621-0.70142 3.518-3.1783 5.2703-6.1133 7.166-12.002 6.6861-20.772 23.016-42.384 26.05-34.477 2.6157 6.8165-2.5409 17.839-13.438 28.723-5.5257 5.5193-8.0907 9.0303-8.6067 11.781-1.0752 5.7316-0.2614 9.3788 2.1974 9.8482 3.0114 0.57426 12.991-10.014 13.948-14.798 0.92574-4.6288 6.64-13.102 10.574-15.68 6.1566-4.034 15.824-0.68269 15.824 5.4857 0 2.9025-2.7974 7.8649-6.2539 11.093-2.6008 2.4295-3.7326 2.6973-8.8421 2.0922l-5.8595-0.69398v4.0964c0 5.6539 1.8285 8.6001 5.3376 8.6001 7.0446 0 14.321-6.7812 17.376-16.194 2.7512-8.4752 10.51-16.404 16.053-16.404 4.0721 0 8.9651 3.8467 8.9651 7.048 0 2.8466-4.0189 11.588-5.1557 11.214-2.931-0.96404-3.4886-4.3114-1.5772-9.4691 1.0692-2.8847 1.4796-5.5319 0.91224-5.8826-1.5964-0.98668-8.7006 6.729-11.477 12.465-2.7355 5.6507-3.2884 13.632-1.0962 15.825 4.249 4.249 16.153-2.2926 19.362-10.641 1.024-2.6635 3.6384-8.2296 5.8097-12.368 2.1713-4.1393 3.4426-7.6945 2.8251-7.9003-0.61752-0.20583-2.1138-1.1245-3.3252-2.0415-2.0667-1.5645-1.983-1.6696 1.3587-1.7043 4.2978-0.0447 6.0798-1.424 10.201-7.8953 1.7332-2.7213 3.4725-4.9478 3.865-4.9478 0.39254 0 0.46451 2.5934 0.15994 5.7631-0.49105 5.1104-0.28741 5.8026 1.7981 6.112 4.309 0.63926 3.4973 3.0906-1.1509 3.4758-4.2186 0.34964-4.6542 0.79837-9.9618 10.262-3.0524 5.4427-6.0963 11.858-6.7641 14.256-2.2239 7.9871 2.7244 11.931 7.9674 6.3501 1.3833-1.4725 5.5348-8.6505 9.2255-15.951 3.6906-7.3005 7.2984-13.452 8.0173-13.669 0.71886-0.21741 1.6314 0.80489 2.0278 2.2718 0.49762 1.8411-0.89856 6.0341-4.5085 13.54-5.6381 11.722-6.3062 14.982-3.3072 16.133 2.6952 1.0343 10.399-7.4907 11.939-13.212 2.8168-10.461 10.919-19.031 17.993-19.031 3.7738 0 8.8928 6.0828 8.8928 10.567 0 1.9267 0.63136 3.4193 1.4552 3.4402 0.95185 0.0242 0.80913 0.52915-0.41268 1.4597-1.0274 0.78248-2.2808 2.7235-2.7854 4.3135-1.5489 4.8801-6.6459 11.716-10.047 13.475-4.9838 2.5772-8.6132 2.0469-12.232-1.787-3.1935-3.3835-3.3133-3.4114-5.6286-1.3097-5.6732 5.1498-10.943 6.0846-14.463 2.565-2.1575-2.1575-2.2689-2.1577-5.5299-0.008-4.5265 2.9842-8.1153 2.7671-11.583-0.70097-3.3755-3.3755-4.3165-3.5509-6.2903-1.1726-2.0501 2.4702-10.154 4.4044-14.8 3.5326-2.6649-0.49995-4.6276-1.8629-6.0494-4.2006-1.9302-3.1739-2.239-3.298-3.7281-1.4986-2.2952 2.7734-10.295 6.2014-14.43 6.1829-4.4597-0.02-8.6343-2.3368-10.6-5.8823-0.84818-1.5303-1.5607-2.1496-1.5834-1.3762-0.0554 1.8891-9.4887 7.3253-12.711 7.3253-1.4135 0-3.7974-1.2273-5.2976-2.7275l-2.7275-2.7275-4.4958 2.7215c-4.8755 2.9513-7.9748 3.3478-11.255 1.4399zm141.46-5.4006c1.6501-1.7608 4.0846-5.3659 5.4099-8.0113 2.3806-4.7517 2.3825-4.8343 0.15781-6.8477-1.2385-1.1209-2.5767-3.0614-2.9737-4.3124-0.69657-2.1947-0.82539-2.1791-3.6759 0.44459-5.3756 4.9479-9.4682 18.211-6.5275 21.152 1.6361 1.6361 4.7264 0.6511 7.6095-2.4254zm-88.777-12.657c3.5218-2.9633 7.0327-8.3867 7.0327-10.863 0-2.9731-4.8575-0.7692-9.2147 4.1808-4.6323 5.2625-5.5676 7.3676-3.9796 8.9556 1.3022 1.3022 2.3891 0.90128 6.1615-2.2731zm-34.334-18.042c1.7121-3.1458 2.9169-6.6286 2.6774-7.7397-0.43964-2.0386-8.6581 9.4822-13.092 18.353l-2.0367 4.0747 4.6693-4.4844c2.5681-2.4664 6.07-7.0582 7.7822-10.204zm19.791 0c1.7121-3.1458 2.9169-6.6286 2.6774-7.7397-0.43964-2.0386-8.6581 9.4822-13.092 18.353l-2.0367 4.0747 4.6693-4.4844c2.5681-2.4664 6.07-7.0582 7.7822-10.204zm112.39 10.608c0-3.4359-1.4929-4.6222-2.9169-2.318-0.93703 1.5161 0.41639 5.8106 1.8312 5.8106 0.59715 0 1.0858-1.5717 1.0858-3.4926zm4.2687 26.001c-2.1442-2.1442-0.40541-9.4617 4.4745-18.83 8.0951-15.542 11.339-18.772 11.339-11.294 0 1.6275 0.12442 2.959 0.2765 2.959 0.15207 0 2.2854-1.5965 4.7408-3.5477 2.9036-2.3075 5.5033-3.4267 7.4363-3.2015 4.9357 0.575 4.584 6.1467-1.0342 16.384-5.2281 9.5259-6.2508 15.978-2.5324 15.978 2.0485 0 8.2708-6.0775 11.418-11.152 1.2746-2.0554 1.3923-1.968 1.4552 1.0818 0.0469 2.2678-1.1627 4.5491-3.8212 7.2076-4.46 4.46-9.0741 5.9917-13.446 4.4635-2.5418-0.88853-3.097-1.8761-3.3989-6.0464-0.29126-4.0235 0.55033-6.6735 4.3657-13.747 2.5996-4.8195 4.7265-9.276 4.7265-9.9031 0-1.8571-6.8913 2.7235-11.143 7.4065-2.1675 2.3874-6.0536 8.5432-8.6361 13.68-4.8927 9.7308-4.96 9.824-6.2216 8.5623zm59.408-2.2239c-1.65-1.65-3.1738-4.1385-3.3862-5.5299-1.6947-11.101 8.6665-26.379 17.898-26.392 4.0102-0.006 9.126 5.9155 9.126 10.563 0 1.9267 0.63137 3.4193 1.4552 3.4402 0.95185 0.0242 0.80913 0.52914-0.41268 1.4597-1.0274 0.78248-2.2808 2.7235-2.7854 4.3135-1.5489 4.8801-6.6459 11.716-10.047 13.475-4.7609 2.462-8.4737 2.0453-11.849-1.3299zm9.904-3.6941c1.6501-1.7608 4.0846-5.3659 5.4099-8.0113 2.3806-4.7517 2.3825-4.8343 0.15781-6.8477-1.2385-1.1209-2.5767-3.0614-2.9737-4.3124-0.69657-2.1947-0.82539-2.1791-3.6759 0.44459-5.3756 4.9479-9.4682 18.211-6.5275 21.152 1.6361 1.6361 4.7264 0.6511 7.6095-2.4254zm9.0774-20.082c0-3.4359-1.4929-4.6222-2.9169-2.318-0.93703 1.5161 0.41639 5.8106 1.8312 5.8106 0.59715 0 1.0858-1.5717 1.0858-3.4926zm85.514 24.065c-0.4122-1.6424-0.11048-4.9785 0.6705-7.4136 3.1759-9.9003 22.511-45.758 24.672-45.758 0.98127 0 1.2999 2.3656 0.94067 6.9852-0.12448 1.6008-2.5287 6.9268-5.3428 11.836-2.8141 4.9087-8.2948 15.105-12.179 22.657-3.8846 7.5529-7.2756 13.945-7.5356 14.205-0.25997 0.25996-0.80992-0.87103-1.2221-2.5134zm90.279-0.43342c0-4.0227 4.8089-11.164 13.724-20.381l5.3009-5.4804-2.0193-12.394c-1.1106-6.8162-1.7988-12.613-1.5293-12.883 2.1842-2.1842 7.8084 6.6746 7.8084 12.3 0 6.4736 1.3065 6.0769 11.169-3.3911 9.8184-9.4263 12.115-10.852 12.115-7.5206 0 3.3691-2.5369 6.8584-11.924 16.4l-9.3378 9.4915 1.4702 7.9711c0.80857 4.3841 2.3988 10.46 3.5338 13.501 2.2317 5.9801 1.3717 6.972-3.2423 3.7402-2.5614-1.7941-6.1122-11.36-6.1122-16.466 0-1.4846-0.46994-2.6992-1.0443-2.6992s-4.3383 3.7982-8.3642 8.4404c-12.458 14.365-11.547 13.626-11.547 9.3704zm-526.22-0.9674c0-1.6213 0.7339-4.7044 1.6309-6.8512 1.4406-3.448 1.4116-4.1226-0.24947-5.7835-1.723-1.723-1.6392-1.872 1.0618-1.872 2.4168 0 4.2184-1.9405 10.201-10.988 3.9964-6.0433 10.641-14.556 14.764-18.918l7.4976-7.9304 2.4316 2.8594c1.4062 1.6536 2.2039 3.8628 1.8916 5.2389-0.29699 1.3088-2.0021 7.9982-3.7891 14.865-3.052 11.728-3.1306 12.617-1.2962 14.644 2.5429 2.8098 2.4651 3.721-0.31757 3.721-1.9112 0-2.3956 1.1055-3.0609 6.9852-0.43465 3.8418-1.2595 6.9852-1.8329 6.9852-1.5494 0-3.3134-5.3951-3.3134-10.133v-4.161l-6.112 0.73414c-3.3616 0.40377-7.1598 0.74052-8.4404 0.74832-1.6208 0.009-3.3775 1.959-5.7802 6.4132-3.7765 7.001-5.2797 7.9836-5.2797 3.4511zm23.154-16.41c2.7315-0.54629 3.8125-1.501 4.2844-3.7836 0.34714-1.6792 1.6196-7.2309 2.8277-12.338 1.2081-5.1064 2.0196-9.4617 1.8033-9.6777-0.50796-0.50795-19.262 24.45-19.262 25.634 0 1.0824 5.3345 1.1675 10.347 0.16486zm219.05-16.094c-2.0202-2.4343-1.0128-5.8184 1.8546-6.2295 2.7704-0.39718 4.3567 2.3814 3.2857 5.7555-0.82183 2.5894-3.2026 2.809-5.1404 0.47401zm262.83-51.796c-1.581-1.2436-4.5894-5.7446-6.6855-10.002-3.4022-6.911-3.7632-8.5848-3.3662-15.61 0.5436-9.6209 6.4088-22.412 14.301-31.19 6.6051-7.3464 20.098-16.677 32.569-22.52 7.541-3.5338 10.02-5.2985 10.92-7.7705 0.64004-1.7592 2.0375-5.2348 3.1056-7.7238l1.9419-4.5253-6.0007 4.4049c-3.3005 2.4227-7.9215 5.091-10.269 5.9294-9.593 3.4264-19.203 0.97679-23.51-5.9928l-2.3974-3.8791-6.542 4.5827c-13.492 9.4514-26.856 9.4169-36.114-0.0915-2.0666-2.1224-4.2998-5.5023-4.9627-7.5109l-1.2053-3.652-5.926 5.7119c-14.733 14.201-36.157 16.634-44.411 5.0439-3.8411-5.3944-4.2379-17.871-0.90028-28.314 4.858-15.201 26.986-56.889 33.862-63.794 3.037-3.0498 5.8066-1.3792 7.8823 4.7542 3.1878 9.4198 1.4316 14.715-15.243 45.947-8.9832 16.827-12.49 26.148-12.49 33.204 0 5.206 2.1976 8.6324 5.5365 8.6324 4.2259 0 12.292-5.282 18.606-12.184 7.0325-7.6871 11.274-15.223 18.368-32.638 2.3476-5.7628 8.9505-19.515 14.673-30.56 10.075-19.448 10.312-20.082 7.4851-20.082-6.641 0-14.608-4.9472-14.608-9.0706 0-0.59087 5.3389-1.442 11.865-1.8914 6.5253-0.44942 12.245-1.0529 12.712-1.341 0.46619-0.28812 2.679-3.7935 4.9173-7.7897 2.2383-3.9963 6.7233-11.326 9.9664-16.289 6.6249-10.136 9.5203-11.468 11.651-5.3562 2.2228 6.3763 1.2756 14.838-2.7368 24.45-0.64178 1.5374 0.11386 2.0763 3.7803 2.6957 5.3576 0.90516 12.613 7.5009 11.485 10.441-0.56905 1.4829-2.8273 1.823-12.104 1.823h-11.404l-10.098 17.754c-14.739 25.913-25.067 46.978-27.226 55.53-3.2495 12.867-0.37418 22.603 7.0886 24.003 5.5356 1.0385 11.028-1.9916 18.901-10.427 5.8499-6.2678 6.9851-8.2701 8.8466-15.604 4.7592-18.702 33.669-70.094 39.443-70.094 2.3798 0 5.5729 7.8185 5.577 13.656 0.006 7.5617-2.0867 12.871-10.903 27.673-21.836 36.659-26.09 58.672-10.104 52.275 9.8649-3.9472 21.44-19.895 42.591-58.678 15.213-27.896 19.663-34.926 22.107-34.926 3.3482 0 5.6892 5.7884 5.6892 14.067 0 7.5561-0.39625 8.696-8.5443 24.578-11.353 22.13-28.214 58.183-27.529 58.867 0.66468 0.66467 7.7318-3.5271 14.056-8.3375 9.945-7.5641 16.798-13.964 23.263-21.724 7.7304-9.2803 9.9227-10.102 9.9068-3.7114-0.0145 5.7925-5.3594 14.951-13.266 22.733-6.1114 6.0144-22.1 15.745-33.906 20.633-5.8038 2.4036-5.8987 2.5275-10.929 14.309-19.897 46.596-38.462 71.841-52.834 71.841-2.1968 0-5.2878-1.0175-6.8688-2.2612zm12.032-20.196c11.018-13.924 31.266-50.889 27.885-50.889-0.56878 0-4.3014 2.456-8.2947 5.4578-13.701 10.299-28.526 32.668-29.935 45.169-1.2074 10.712 2.0182 10.794 10.346 0.26129zm56.012-20.909c0.67852-2.0419 23.908-2.4139 80.04-1.2819 58.423 1.1783 44.886 2.424-28.329 2.6069-41.283 0.10303-52.094-0.17391-51.711-1.325zm-613.82-2.036-59.956-0.59044 50.643-0.59553c27.853-0.32753 157.65-0.72258 288.43-0.87788 211.85-0.25156 237.78-0.0898 237.78 1.4829 0 1.5726-24.941 1.7329-228.47 1.4683-125.66-0.16331-255.45-0.56263-288.43-0.88736zm-10.77-47.27c-8.781-8.781-10.248-16.833-7.3063-40.118 5.2011-41.174 21.479-111.91 26.762-116.3 2.2767-1.8894 3.6914-0.83985 6.629 4.9182 3.862 7.57 2.5474 20.867-5.7809 58.476-3.8284 17.288-8.337 39.029-10.019 48.314-1.6821 9.2845-3.3413 18.167-3.6872 19.738-0.34585 1.5716 5.8448-6.8106 13.757-18.627 33.925-50.657 84.851-115.34 89.592-113.78 2.384 0.78689 2.6316 13.225 0.38061 19.12-2.8539 7.4726-8.7888 16.033-31.037 44.77-24.182 31.235-44.123 58.336-59.662 81.088-7.367 10.794-12.051 16.597-13.385 16.597-1.1286 0-3.9382-1.8862-6.2435-4.1915zm90.208 1.0912c-6.3322-3.121-8.9088-7.9188-9.3918-17.489-0.52591-10.414 1.9549-18.701 11.438-38.203 7.3984-15.216 20.864-38.208 24.535-41.895 3.037-3.0498 5.8066-1.3792 7.8823 4.7542 3.1878 9.4197 1.4316 14.715-15.243 45.947-11.906 22.301-15.369 35.298-10.66 40.007 2.4297 2.4297 4.5965 2.3078 10.595-0.59586 11.16-5.4023 24.481-24.513 27.044-38.799 2.3932-13.339 11.936-29.762 24.508-42.174 9.4766-9.3573 16.91-13.364 26.091-14.063 6.7242-0.51155 7.4811-0.30108 12.884 3.5829 3.1575 2.2695 7.2678 6.3774 9.1343 9.1286 4.7961 7.0698 4.0482 13.983-3.2537 30.079-3.0385 6.6976-5.9193 12.615-6.4019 13.15-1.5595 1.728-7.7613-2.5004-9.7196-6.6268-2.8715-6.0511-2.3511-10.426 2.7535-23.149 5.1266-12.778 5.4729-14.614 2.94-15.586-4.448-1.7068-19.951 13.152-29.055 27.848-10.834 17.489-15.275 38.027-10.628 49.151 5.9675 14.282 26.797 10.285 46.699-8.9614l10.007-9.6777 1.756-9.3062c3.191-16.912 12.948-34.218 26.369-46.773 13.683-12.799 27.867-16.72 37.794-10.447 6.6458 4.1991 13.016 11.345 14.272 16.011 2.4133 8.9609-2.5997 22.646-12.212 33.337-11.137 12.387-25.54 15.646-38.39 8.6867l-6.4578-3.4976-1.7565 5.9148c-2.4118 8.1213-2.1964 17.799 0.52977 23.805 8.5361 18.804 37.757 8.4815 59.254-20.931 5.905-8.0797 8.3115-8.6561 8.3115-1.991 0 9.2871-9.0634 21.245-22.995 30.34-11.952 7.8022-18.359 9.7765-31.722 9.7737-9.1161-0.00093-11.879-0.44392-15.717-2.5162-5.8781-3.1736-11.256-8.854-14.484-15.298l-2.5107-5.0128-6.4274 5.8742c-25.078 22.92-57.707 23.285-68.95 0.77207l-2.7097-5.4256-3.2434 4.4775c-10.028 13.843-31.079 21.591-42.87 15.779zm163.43-50c8.0308-3.8108 19.86-19.246 23.903-31.187 2.3278-6.8764 1.7979-8.8406-2.3851-8.8406-8.4899 0-26.26 17.624-34.865 34.579-2.3347 4.6-2.3616 4.9634-0.45036 6.0766 3.0499 1.7766 9.3331 1.4907 13.798-0.62774zm134.43 49.004c-11.718-3.2889-18.813-9.5837-24.606-21.832-16.285-34.433 4.9326-91.088 45.821-122.35 16.277-12.447 36.49-19.263 47.412-15.99 9.5324 2.8559 20.863 16.651 22.576 27.485 0.43851 2.7733 0.0674 7.0111-0.91743 10.478-1.9283 6.7873-12.156 32.122-13.573 33.618-1.8402 1.9447-6.7766-0.45341-9.2837-4.5101-4.0326-6.5249-3.403-15.206 2.1648-29.847 6.2956-16.556 6.8478-19.933 3.7632-23.018-3.0559-3.0559-5.3532-3.0562-13.516-0.002-21.395 8.0051-49.087 35.993-60.999 61.652-9.1793 19.773-12.835 44.114-8.8419 58.867 2.4989 9.2319 8.0693 15.772 15.261 17.917 13.882 4.1416 34.886-11.598 50.109-37.55 2.9108-4.9621 5.846-9.3639 6.5227-9.782 2.3612-1.4592 4.3698 3.4689 4.3698 10.721 0 15.196-13.096 32.435-31.155 41.011-7.253 3.4444-10.006 4.1043-18.655 4.4722-6.7548 0.28726-12.255-0.16032-16.454-1.339zm-258.83-99.61c-7.6962-4.4826-7.0266-23.059 0.90283-25.049 9.245-2.3204 17.412 15.018 10.945 23.238-2.5761 3.275-7.9293 4.0928-11.849 1.81zm384.18 0c-7.6962-4.4826-7.0266-23.059 0.90283-25.049 9.245-2.3204 17.412 15.018 10.945 23.238-2.5761 3.275-7.9293 4.0928-11.849 1.81zm-339.04-100.9c-1.1843-4.9624-2.8118-11.804-3.6165-15.203l-1.4631-6.1808 3.0612 0.35979c2.7883 0.3277 3.2689 1.1902 5.3903 9.6731l2.3291 9.3136 2.922-9.6042c2.496-8.2552 3.2691-9.6042 5.4857-9.6042 2.1408 0 2.8948 1.1307 4.4641 6.6941 1.0385 3.6818 2.3142 8.0039 2.835 9.6042 1.0377 3.1897 0.77276 3.8267 4.722-11.351 1.0804-4.1768 1.7416-4.9474 4.2284-4.9474 2.2535 0 2.8051 0.47786 2.3514 2.0373-0.32599 1.1205-1.9858 7.9608-3.6884 15.201-3.0231 12.855-3.1672 13.154-6.1432 12.806-2.72-0.31868-3.3466-1.3497-5.8292-9.593-3.0742-10.207-3.3319-10.132-6.7094 1.9593-1.9843 7.1035-2.4836 7.8583-5.1983 7.8583-2.7846 0-3.16-0.65685-5.1566-9.0225zm37.818-6.112v-15.135h8.7315c7.9554 0 8.7315 0.20696 8.7315 2.3284 0 2.018-0.77614 2.3284-5.821 2.3284-5.6916 0-5.821 0.0776-5.821 3.4926s0.12936 3.4926 5.821 3.4926c5.0449 0 5.821 0.31045 5.821 2.3284 0 2.0179-0.77614 2.3284-5.821 2.3284h-5.821v4.6568 4.6568h5.821c5.0449 0 5.821 0.31045 5.821 2.3284 0 2.1214-0.77614 2.3284-8.7315 2.3284h-8.7315v-15.135zm23.284 0v-15.135h2.9105 2.9105v12.806 12.806h4.6568c3.8807 0 4.6568 0.38807 4.6568 2.3284 0 2.0896-0.77614 2.3284-7.5673 2.3284h-7.5673v-15.135zm27.144 12.872c-8.0935-3.677-10.925-12.971-6.2774-20.597 4.4426-7.2794 17.947-9.3881 26.059-4.0669 2.8821 1.8906 3.0304 2.2827 1.3815 3.6512-1.54 1.2781-2.5225 1.2111-5.9056-0.40211-6.1492-2.9324-10.595-2.4838-14.547 1.4678-9.4952 9.4952 3.0609 22.421 15.08 15.523 2.7522-1.5796 3.8465-1.7196 4.9346-0.63144 2.0069 2.0068-0.49744 4.6574-5.789 6.1272-6.0573 1.6825-9.3918 1.443-14.932-1.0719zm35.102-0.06326c-11.771-5.8271-11.561-20 0.38352-25.782 8.5044-4.117 17.505-1.5767 22.473 6.3425 4.4876 7.1532 0.83638 16.431-7.9377 20.169-5.1744 2.2048-9.4095 1.9978-14.918-0.72949zm14.926-4.6736c3.93-3.0914 4.9803-8.1401 2.6366-12.672-2.1887-4.2435-5.0386-5.9411-9.9655-5.9411-4.995 0-10.465 5.4767-10.465 10.478 0 8.4316 11.019 13.468 17.798 8.1352zm14.218 4.4614c0.36787-1.4855 1.583-8.2017 2.7004-14.925 2.0303-12.217 2.0336-12.224 5.3779-12.224 3.0754 0 3.5573 0.61281 5.9508 7.5673 4.9913 14.503 4.3222 14.309 8.5559 2.4742 3.5298-9.8584 4.0328-10.624 6.9666-10.624 3.1309 0 3.196 0.15731 5.1709 12.516 1.1 6.8833 2.3104 13.694 2.6898 15.135 0.58244 2.2118 0.22796 2.6194-2.278 2.6194-1.8234 0-3.1975-0.78558-3.5635-2.0373-0.51193-1.751-2.9373-14.606-3.1155-16.513-0.0339-0.36263-1.6542 3.6627-3.6007 8.9453-3.0262 8.2125-3.9264 9.6042-6.2113 9.6042-2.2971 0-3.1338-1.326-5.9601-9.4449-1.8083-5.1947-3.4585-8.9333-3.6669-8.3079-0.20845 0.62539-1.0419 4.7446-1.8522 9.1539-1.3667 7.4375-1.7031 8.0438-4.6552 8.3894-2.8099 0.32893-3.1038 0.05663-2.5133-2.3284zm42.489-12.597v-15.135h8.7315c7.9554 0 8.7315 0.20697 8.7315 2.3284 0 2.018-0.77614 2.3284-5.821 2.3284-5.6916 0-5.821 0.0776-5.821 3.4926s0.12935 3.4926 5.821 3.4926c5.0449 0 5.821 0.31045 5.821 2.3284 0 2.0179-0.77614 2.3284-5.821 2.3284h-5.821v4.6568 4.6568h5.821c5.0449 0 5.821 0.31045 5.821 2.3284 0 2.1214-0.77614 2.3284-8.7315 2.3284h-8.7315v-15.135zm52.389 2.3284v-12.806h-3.4926c-2.7165 0-3.4926-0.51743-3.4926-2.3284 0-2.1344 0.77613-2.3284 9.3136-2.3284 8.5374 0 9.3136 0.19403 9.3136 2.3284 0 1.7075-0.77614 2.3284-2.9105 2.3284h-2.9105v12.806 12.806h-2.9105-2.9105v-12.806zm22.664 10.481c-11.771-5.8271-11.561-20 0.38351-25.782 8.5044-4.117 17.505-1.5767 22.473 6.3425 4.4876 7.1532 0.83638 16.431-7.9377 20.169-5.1744 2.2048-9.4095 1.9978-14.918-0.72949zm14.926-4.6736c3.93-3.0914 4.9803-8.1401 2.6366-12.672-2.1887-4.2435-5.0386-5.9411-9.9655-5.9411-4.995 0-10.465 5.4767-10.465 10.478 0 8.4316 11.019 13.468 17.798 8.1352z"/>
 </g>
</svg>
