<?xml version="1.0" encoding="UTF-8" standalone="no"?>
<!-- Created with Inkscape (http://www.inkscape.org/) -->

<svg
   xmlns:dc="http://purl.org/dc/elements/1.1/"
   xmlns:cc="http://creativecommons.org/ns#"
   xmlns:rdf="http://www.w3.org/1999/02/22-rdf-syntax-ns#"
   xmlns:svg="http://www.w3.org/2000/svg"
   xmlns="http://www.w3.org/2000/svg"
   xmlns:sodipodi="http://sodipodi.sourceforge.net/DTD/sodipodi-0.dtd"
   xmlns:inkscape="http://www.inkscape.org/namespaces/inkscape"
   id="svg4190"
   height="499"
   viewBox="0 0 499 499"
   width="499"
   version="1.1"
   inkscape:version="0.91 r13725"
   sodipodi:docname="peg.svg">
  <sodipodi:namedview
     pagecolor="#ffffff"
     bordercolor="#666666"
     borderopacity="1"
     objecttolerance="10"
     gridtolerance="10"
     guidetolerance="10"
     inkscape:pageopacity="0"
     inkscape:pageshadow="2"
     inkscape:window-width="1920"
     inkscape:window-height="1017"
     id="namedview3513"
     showgrid="false"
     inkscape:zoom="0.47294589"
     inkscape:cx="51.802966"
     inkscape:cy="249.5"
     inkscape:window-x="-8"
     inkscape:window-y="-8"
     inkscape:window-maximized="1"
     inkscape:current-layer="svg4190" />
  <metadata
     id="metadata4196">
    <rdf:RDF>
      <cc:Work
         rdf:about="">
        <dc:format>image/svg+xml</dc:format>
        <dc:type
           rdf:resource="http://purl.org/dc/dcmitype/StillImage" />
        <dc:title />
      </cc:Work>
    </rdf:RDF>
  </metadata>
  <defs
     id="defs4194">
    <linearGradient
       id="linearGradient4139"
       y2="11.199"
       gradientUnits="userSpaceOnUse"
       y1="489.91"
       x2="306.16"
       x1="307.4"
       gradientTransform="matrix(0.81,0,0,0.81,45.807,5.7664265)">
      <stop
         id="stop4135"
         stop-color="#56c0eb"
         offset="0" />
      <stop
         id="stop4137"
         stop-color="#52e6ce"
         offset="1" />
    </linearGradient>
  </defs>
  <path
     id="path4200"
     d="m 84.87087,403.33873 c -14.97852,-3.6531 -27.80244,-16.8885 -30.89016,-31.8816 -0.620703,-3.0132 -0.88371,-51.6051 -0.88371,-163.2474 0,-140.057104 0.14742,-159.529504 1.2393,-163.782004 4.17717,-16.27047 17.74143,-28.69911 33.9957,-31.15422 3.87666,-0.58506 55.8738,-0.78481 164.43,-0.63107 l 158.76,0.22484 5.40975,2.106 c 13.13253,5.1124 20.89638,12.9762 25.97427,26.3088 l 1.8263,4.79528 0.22484,158.760004 c 0.15373,108.5562 -0.0459,160.5501 -0.63146,164.43 -2.22871,14.7582 -12.72186,27.49059 -27.19899,33.00426 l -4.7952,1.8225 -161.595,0.1377 c -129.195,0.1134 -162.453596,-0.0729 -165.863696,-0.8991 z"
     style="fill:url(#linearGradient4139)"
     inkscape:connector-curvature="0" />
  <path
     id="path5954"
     d="m 245.0751,345.75583 c -2.68418,-2.80843 -3.62078,-4.6831 -3.12312,-6.25117 1.77544,-5.59395 -5.85484,-11.31327 -24.85647,-18.63162 -7.52773,-2.89924 -13.29291,-5.89032 -14.99553,-7.78014 l -2.76615,-3.07022 4.65491,-4.09763 c 10.98846,-9.67302 10.15578,-14.65533 -9.60255,-57.4128 -1.76742,-3.82474 -3.8799,-10.34451 -4.69444,-14.48766 -1.26991,-6.45991 -1.22091,-8.48799 0.34378,-14.22927 1.00359,-3.68274 1.48586,-7.03485 1.07155,-7.44916 -0.41426,-0.41425 -2.31247,0.74065 -4.21816,2.56648 -3.05856,2.93034 -3.46502,4.09925 -3.46502,9.96624 0,4.34095 1.20625,10.19304 3.47709,16.86987 3.56214,10.4733 4.29162,17.84754 2.41339,24.39639 -2.16197,7.53843 -9.072,15.9732 -18.85923,23.02182 l -7.41474,3.83819 -11.44044,3.35939 c -11.96451,3.51321 -31.05216,-1.17798 -31.57299,-2.754 -0.23878,-0.72149 2.95189,-2.05764 7.4401,-3.11558 14.91048,-3.51492 16.9614,-4.16786 19.93815,-6.34749 4.70764,-3.44752 7.04003,-9.22104 7.04206,-17.4312 8.1e-4,-6.70412 -0.65896,-8.62893 -8.15832,-23.77512 l -3.92121,-9.21375 -3.20793,-9.08415 c -2.53765,-7.18632 2.62578,-11.86893 7.65547,-16.78968 7.07454,-6.92056 15.957,-11.56032 25.49718,-13.31883 7.98523,-1.47169 12.47319,-0.82304 21.29166,3.07687 5.56414,2.4607 6.72422,2.62894 8.83386,1.28085 2.673,-1.70837 7.1306,-2.93131 24.42069,-6.69975 14.81004,-3.22801 29.37627,-8.2782 32.88195,-11.40156 2.2403,-1.99544 2.48257,-2.75943 1.31974,-4.16057 -1.19994,-1.44585 -7.01857,-1.72206 -36.92223,-1.75292 l -35.49825,-0.0366 -8.11215,-4.30968 c -8.21016,-4.36194 -10.52433,-7.41596 -6.72316,-8.87436 1.14647,-0.43995 16.68843,-1.30662 34.53759,-1.92586 32.99211,-1.14469 35.35083,-1.35408 35.35083,-3.13867 0,-3.15179 -7.04255,-3.69951 -47.5713,-3.69951 l -41.66721,0 -4.63944,-4.19143 c -4.65337,-4.20406 -5.68572,-6.61527 -3.42938,-8.00985 0.66553,-0.41131 23.2227,-1.16704 50.12766,-1.67937 26.90496,-0.51231 50.11227,-1.31609 51.5727,-1.78613 3.59049,-1.15571 2.71731,-2.99692 -2.73877,-5.77514 -4.40259,-2.24175 -6.38556,-2.30372 -60.24132,-1.88381 l -55.68912,0.43424 -3.71069,-3.71069 c -2.04088,-2.04087 -3.71069,-4.38906 -3.71069,-5.21818 0,-4.50481 1.83975,-4.66357 63.05283,-5.44077 32.57334,-0.41358 60.78888,-1.23347 62.70129,-1.82193 1.91241,-0.58847 3.47708,-1.80962 3.47708,-2.71374 0,-0.90405 -1.56467,-1.97835 -3.47708,-2.38732 -1.91241,-0.40893 -29.8161,-0.84232 -62.00793,-0.96309 -32.19183,-0.12078 -62.62758,-0.59203 -67.63419,-1.04725 -8.77392,-0.79768 -9.26721,-1.00286 -13.61853,-5.66773 -3.45044,-3.699114 -4.514782,-5.788584 -4.514782,-8.863834 0,-3.09801 0.572672,-4.20511 2.489862,-4.81359 2.2684,-0.71996 28.86273,-0.42012 147.4605,1.66261 39.98241,0.70214 40.44492,0.73793 42.11676,3.25839 1.58249,2.3865 1.36226,2.90207 -3.46575,8.112964 -2.83557,3.06058 -5.75003,6.70396 -6.4766,8.09627 -2.0109,3.8539 -1.59602,11.99286 1.5812,31.01976 1.59117,9.52884 2.893,17.48223 2.893,17.67501 0,0.19271 0.79524,0.35038 1.76726,0.35038 2.22863,0 3.96803,-4.42673 3.23862,-8.24256 -0.34788,-1.81974 0.14429,-3.49069 1.31414,-4.46164 1.7023,-1.4128 1.63977,-1.79771 -0.69628,-4.28425 -2.51213,-2.67397 -2.51942,-2.76656 -0.34375,-4.35748 2.12617,-1.55471 2.13411,-1.72351 0.18202,-3.88046 -3.17982,-3.5137 -1.4461,-6.28876 3.36514,-5.38618 4.60226,0.86338 5.2386,-0.86832 1.02457,-2.78834 -3.25223,-1.48182 -3.76707,-3.42703 -1.17077,-4.42333 1.11699,-0.42865 1.62858,-1.95048 1.44876,-4.30993 -0.24514,-3.21667 0.10652,-3.69141 2.97805,-4.02068 4.07811,-0.46765 3.49782,-2.96962 -0.80649,-3.47709 -3.89213,-0.4589 -3.75946,-4.07243 0.1701,-4.63303 2.55353,-0.36432 3.77582,-3.686234 1.35635,-3.686234 -0.68179,0 -1.07293,-1.17353 -0.86929,-2.6078 0.32273,-2.27237 0.96665,-2.56713 5.00645,-2.29165 l 4.63611,0.31615 -2.64748,-2.08956 -2.64749,-2.08955 3.36102,-3.22008 3.36101,-3.22007 4.24756,2.38569 c 4.93557,2.77215 6.49506,2.9791 6.49506,0.86184 0,-0.83811 -1.82549,-2.39436 -4.05656,-3.45829 -4.93865,-2.35508 -5.13345,-4.52434 -0.69034,-7.68812 4.63028,-3.29702 6.62482,-3.00891 8.08064,1.16705 0.68333,1.9602 1.77746,3.23328 2.43146,2.82917 1.63636,-1.01137 1.49274,-4.46205 -0.25977,-6.24194 -1.16284,-1.18106 -0.7626,-2.03302 2.02824,-4.31714 1.91241,-1.56516 4.16259,-3.40621 5.00037,-4.09131 1.15822,-0.94705 2.72776,-0.0239 6.54837,3.85147 3.99986,4.05713 4.90762,5.71098 4.44973,8.10648 -0.52298,2.73585 0.18021,3.40653 7.73307,7.37545 5.82957,3.06334 10.09908,6.43124 14.30946,11.28816 3.30083,3.807334 10.8135,10.514614 16.69491,14.904814 5.88133,4.3902 11.22741,8.97966 11.88027,10.19952 2.66417,4.97802 -0.11081,12.80043 -4.54094,12.80043 -1.16543,0 -2.97335,1.30386 -4.0176,2.89753 -2.41453,3.68502 -4.80597,3.60872 -10.27971,-0.32826 -16.76862,-12.0609 -16.58961,-11.96451 -19.87821,-10.71387 -4.89232,1.86009 -7.7193,1.43516 -12.50154,-1.87895 -2.43632,-1.68837 -4.78232,-2.71707 -5.2134,-2.28599 -0.43108,0.43108 -0.17578,3.76829 0.56734,7.41604 0.74311,3.64775 1.65936,11.06541 2.03601,16.48431 1.01477,14.5962 1.17669,15.06762 5.17517,15.06762 4.4009,0 19.34928,5.82082 33.61338,13.08879 4.12752,2.10308 4.14785,5.5873 0.0793,13.59342 -1.95598,3.8492 -3.55638,7.44503 -3.55638,7.99081 0,0.54576 1.8033,1.84802 4.00731,2.89389 2.20401,1.04587 4.30774,2.38772 4.675,2.98185 0.36719,0.59413 0.93603,7.75162 1.26408,15.90516 0.32806,8.15427 1.61449,20.54403 2.85865,27.53352 3.00851,16.90065 2.98623,27.81459 -0.0668,32.82201 -1.27616,2.0932 -3.05265,4.08678 -3.94762,4.43022 -1.94319,0.74567 -8.6751,-2.5289 -9.47295,-4.60793 -0.3095,-0.80651 1.24173,-4.46294 3.44712,-8.12511 3.94438,-6.55023 3.98058,-6.72875 2.21891,-10.93257 -0.98504,-2.35046 -2.52703,-12.09654 -3.4267,-21.65859 -1.24319,-13.21272 -2.25229,-18.63729 -4.20431,-22.60062 -3.96389,-8.04873 -6.2536,-7.6238 -14.75901,2.73885 -3.91651,4.77187 -8.85816,9.50049 -10.98198,10.50813 -5.19582,2.46556 -20.25486,3.70024 -23.55885,1.93161 -5.83353,-3.12198 -0.0696,-9.45513 8.88489,-9.76212 5.08373,-0.17447 6.69887,-0.89043 12.21966,-5.41663 3.49896,-2.86854 6.64435,-5.88425 6.98974,-6.70146 0.73084,-1.72919 -3.02349,-3.36765 -11.76282,-5.13345 l -6.06034,-1.22448 -10.21248,9.71676 c -14.61645,13.9077 -22.76262,17.71875 -59.37786,27.783 -7.33083,2.01496 -13.90932,4.12476 -14.61888,4.68852 -0.70942,0.56375 -1.65167,5.06258 -2.09393,9.99783 -0.44228,4.93485 -1.38842,11.31975 -2.10252,14.18796 -2.41372,9.69651 -10.78677,23.02425 -22.18671,35.31681 -6.54415,7.05624 -6.76099,6.75184 11.09862,15.58035 12.01959,5.94176 13.31235,6.90007 15.70509,11.64618 1.43427,2.84432 2.6078,6.71895 2.6078,8.6103 0,4.43767 -2.43162,11.16018 -3.99962,11.05731 -0.66877,-0.0438 -2.94119,-1.88479 -5.04987,-4.09106 z m 122.6745,-155.2446 c 0.87415,-1.05332 1.05154,-2.17882 0.43168,-2.73999 -1.18722,-1.07479 -10.90422,-3.58554 -13.87692,-3.58554 -3.08812,0 0.30605,3.40491 5.86108,5.87971 5.83192,2.59815 5.79936,2.59621 7.58403,0.44577 z M 357.2763,98.997426 c 0,-0.9562 -0.78235,-1.7385 -1.7385,-1.7385 -0.95621,0 -1.73851,0.78234 -1.73851,1.7385 0,0.95621 0.78235,1.738504 1.73851,1.738504 0.9562,0 1.7385,-0.782334 1.7385,-1.738504 z"
     inkscape:connector-curvature="0" />
  <text
     xml:space="preserve"
     style="font-style:normal;font-variant:normal;font-weight:bold;font-stretch:normal;font-size:95.54141235px;line-height:125%;font-family:Calibri;-inkscape-font-specification:'Calibri Bold';text-align:center;letter-spacing:0px;word-spacing:0px;text-anchor:middle;fill:#ececec;fill-opacity:1;stroke:none;stroke-width:1px;stroke-linecap:butt;stroke-linejoin:miter;stroke-opacity:1"
     x="251.81616"
     y="480.94284"
     id="text4174"
     sodipodi:linespacing="125%"><tspan
       sodipodi:role="line"
       x="251.81616"
       y="480.94284"
       id="tspan4178">Pegasus</tspan></text>
</svg>
