<?xml version="1.0" encoding="UTF-8" standalone="no"?>
<!-- Created with Inkscape (http://www.inkscape.org/) -->

<svg
   xmlns:dc="http://purl.org/dc/elements/1.1/"
   xmlns:cc="http://creativecommons.org/ns#"
   xmlns:rdf="http://www.w3.org/1999/02/22-rdf-syntax-ns#"
   xmlns:svg="http://www.w3.org/2000/svg"
   xmlns="http://www.w3.org/2000/svg"
   xmlns:xlink="http://www.w3.org/1999/xlink"
   xmlns:sodipodi="http://sodipodi.sourceforge.net/DTD/sodipodi-0.dtd"
   xmlns:inkscape="http://www.inkscape.org/namespaces/inkscape"
   id="svg4136"
   height="1056"
   viewBox="0 0 524 1056"
   width="524"
   version="1.1"
   inkscape:version="0.91 r13725"
   sodipodi:docname="phone.svg">
  <defs
     id="defs4141">
    <linearGradient
       inkscape:collect="always"
       id="linearGradient4184">
      <stop
         style="stop-color:#222222;stop-opacity:1"
         offset="0"
         id="stop4186" />
      <stop
         style="stop-color:#545454;stop-opacity:1"
         offset="1"
         id="stop4188" />
    </linearGradient>
    <linearGradient
       inkscape:collect="always"
       xlink:href="#linearGradient4184"
       id="linearGradient4190"
       x1="303.70303"
       y1="915.95941"
       x2="302.02286"
       y2="101.17768"
       gradientUnits="userSpaceOnUse" />
  </defs>
  <sodipodi:namedview
     pagecolor="#ffffff"
     bordercolor="#666666"
     borderopacity="1"
     objecttolerance="10"
     gridtolerance="10"
     guidetolerance="10"
     inkscape:pageopacity="0"
     inkscape:pageshadow="2"
     inkscape:window-width="1920"
     inkscape:window-height="1017"
     id="namedview4139"
     showgrid="false"
     inkscape:zoom="0.74621212"
     inkscape:cx="262"
     inkscape:cy="528"
     inkscape:window-x="-8"
     inkscape:window-y="-8"
     inkscape:window-maximized="1"
     inkscape:current-layer="layer2" />
  <metadata
     id="metadata4142">
    <rdf:RDF>
      <cc:Work
         rdf:about="">
        <dc:format>image/svg+xml</dc:format>
        <dc:type
           rdf:resource="http://purl.org/dc/dcmitype/StillImage" />
        <dc:title></dc:title>
      </cc:Work>
    </rdf:RDF>
  </metadata>
  <g
     inkscape:groupmode="layer"
     id="layer1"
     inkscape:label="Layer 1">
    <rect
       style="opacity:1;fill:url(#linearGradient4190);fill-opacity:1;stroke:#000000;stroke-opacity:1"
       id="rect4144"
       width="458.31473"
       height="821.48224"
       x="32.162437"
       y="100.50762"
       rx="178.61128"
       ry="0" />
  </g>
  <g
     inkscape:groupmode="layer"
     id="layer2"
     inkscape:label="Layer 2"
     style="display:inline">
    <path
       inkscape:connector-curvature="0"
       id="path4146"
       d="M 47.039,1053.4 C 32.417,1049.5 15.207,1034.2 7.949,1018.7 1.7349,1005.4 2.1258,1040 2.3663,525.00005 2.5748,78.460048 2.6795,53.180048 4.3443,47.530048 c 3.4705,-11.778 7.5744,-18.494 17.143,-28.056 5.7103,-5.7061 11.263,-10.1960004 15.109,-12.2190004 12.669,-6.66120004 -4.0742,-6.2489 228.75,-5.6325 200.21,0.53 211.44,0.6527 216.35,2.3651 11.951,4.1679 27.323,17.7740004 33.62,29.7570004 1.9604,3.7306 4.5056,10.15 5.656,14.266 l 2.0917,7.4837 -0.003,472.510002 c -0.003,470.59 -0.0114,472.54005 -2.0206,480.39995 -3.8148,14.916 -13.49,28.076 -27.558,37.485 -12.961,8.6689 8.8614,7.8636 -228.97,8.4491 -184.52,0.4543 -212.71,0.3314 -217.48,-0.9483 z m 436.03,-14.59 c 12.022,-5.9642 23.239,-18.183 27.6,-30.065 1.4002,-3.8155 1.5548,-52.08395 1.5429,-481.60995 l -0.0133,-477.370002 -3.7594,-7.6066 c -4.9084,-9.9317 -15.438,-20.551 -25.09,-25.302 l -6.7903,-3.3428 -213.52,0 -213.52,0 -6.5644,3.1106 c -11.954,5.6647 -24.537,19.417 -28.263,30.889 -1.4882,4.5829 -1.6334,44.663 -1.7406,480.500002 -0.11659,473.85995 -0.11006,475.51995 1.8911,480.77995 5.5892,14.7 20.662,29.22 34.106,32.855 3.5713,0.9657 50.714,1.1952 215.62,1.0499 l 211.05,-0.1 z m -234.59,-9.7683 c -12.023,-3.9411 -23.108,-14.298 -27.501,-25.693 -3.3682,-8.73765 -3.7884,-20.97395 -1.0076,-29.34395 4.3046,-12.956 14.079,-23.185 26.822,-28.069 7.8571,-3.0116 21.337,-3.0699 29.458,-0.12735 19.915,7.2166 31.213,26.167 28.597,47.967 -1.6521,13.765 -10.918,26.199 -24.542,32.932 -6.4058,3.1659 -8.288,3.6155 -16.509,3.9435 -7.2891,0.2908 -10.574,-0.054 -15.317,-1.609 z m 20.064,-4.1264 c 12.107,-2.2381 22.523,-10.198 28.034,-21.423 2.6577,-5.41295 2.9396,-6.94615 2.9396,-15.98695 0,-8.8551 -0.32041,-10.687 -2.7985,-16 -3.673,-7.875 -11.375,-15.61 -19.097,-19.179 -5.4124,-2.5014 -7.2411,-2.8213 -16.128,-2.8213 -9.3075,0 -10.499,0.23437 -16.685,3.2806 -23.154,11.403 -28.677,41.268 -11.134,60.21595 5.8401,6.3079 12.928,10.449 20.388,11.911 6.2853,1.2321 7.83,1.2324 14.481,0 z m -17.026,-18.753 c -7.2668,-3.4621 -11.5,-9.62515 -11.5,-16.74295 l 0,-3.4548 21.25,0.26989 21.25,0.26989 -0.27947,3.4392 c -0.41209,5.0712 -4.142,11.06607 -9.0136,14.48597 -5.5903,3.925 -15.453,4.7121 -21.707,1.7326 z m -8.5,-24.02195 c 0,-1.025 1.1864,-3.05 2.6364,-4.5 4.9025,-4.9025 13.928,-2.5602 15.85,4.1136 0.64006,2.2217 0.52795,2.25 -8.9192,2.25 -8.6674,0 -9.5674,-0.17531 -9.5674,-1.8636 z m 21.098,-1.2844 c -0.80326,-2.3042 -0.79666,-3.5104 0.0246,-4.5 1.3251,-1.5967 7.1954,-1.7872 9.9325,-0.32232 1.6653,0.89125 4.9446,5.8127 4.9446,7.4207 0,0.30231 -3.106,0.54966 -6.9022,0.54966 -6.8422,0 -6.9117,-0.0274 -7.9996,-3.148 z m -4.5,-6.693 c -0.34164,-0.55278 -2.0428,-1.3173 -3.7804,-1.6989 l -3.1592,-0.69388 2.4207,-1.9107 c 3.8703,-3.0549 8.9036,-4.8843 15.268,-5.5495 7.3616,-0.76944 7.4602,1.0187 0.20803,3.7716 -2.6774,1.0163 -6.0984,3.0266 -7.602,4.4672 -1.5749,1.5089 -2.9973,2.1932 -3.3551,1.6142 z m -228.2,-45.01 c -2.0527,-1.2517 -3.3231,-2.9866 -3.75,-5.1213 -1.1855,-5.9276 -0.75499,-820.91 0.43484,-823.13 2.7246,-5.091002 -8.9843,-4.849602 235.27,-4.849602 245.33,0 232.84,-0.26179 235.62,4.939302 0.71591,1.3377 0.96069,130.13 0.78607,413.6 l -0.2536,411.65 -3,2.4002 -3,2.4002 -229.5,10e-4 c -223.42,0.001 -229.58,-0.0489 -232.6,-1.8918 z m 458.6,-415.1 0,-404 -226.5,0 -226.5,0 0,403.5 0,403.5 226.25,0.25436 c 124.44,0.1399 226.36,0.36588 226.5,0.50217 0.1375,0.1363 0.25,-181.55 0.25,-403.75 z m -283,-444.000002 c 0,-10.333 0.12121,-11 2,-11 1.87879,0 2,0.66667 2,11 0,10.33333 -0.12121,11 -2,11 -1.87879,0 -2,-0.66666 -2,-11 z m 10,-4 0,-15 8.5,0 8.5,0 0,3 0,3 -6.5,0 c -6.2667,0 -6.5,0.09 -6.5,2.5 0,2.3636 0.3,2.5 5.5,2.5 5.4444,0 5.5,0.0303 5.5,3 0,2.9697 -0.0556,3 -5.5,3 l -5.5,0 0,6.5 c 0,5.8333 -0.20513,6.5 -2,6.5 -1.9111,0 -2,-0.66666 -2,-15 z m 20,4 0,-11 2.5,0 c 1.375,0 2.5137,0.5625 2.5304,1.25 0.0169,0.69372 0.48401,0.47121 1.0497,-0.5 0.97496,-1.6739 3.9689,-2.3677 5.1445,-1.1921 1.164,1.164 -0.53768,4.4421 -2.306,4.4421 -2.7965,0 -3.9186,3.1309 -3.9186,10.934 0,6.8701 -0.0692,7.0657 -2.5,7.0657 l -2.5,0 z m 16.461,8.9568 c -1.4221,-1.5714 -1.6013,-3.7494 -1.5684,-10.646 l 0.0444,-9.3112 3.3312,0.23629 c 2.5691,0.18223 1.559,0.24076 1.559,6.9957 0,7.5952 1.0747,10.477 4.0068,8.1053 2.4307,-1.9663 1.7397,-2.8348 1.96,-8.192 0.28131,-6.8412 -0.90125,-7.1452 2.75,-7.1452 l 2.4562,0 0,11 0,11 -2.5,0 c -1.375,0 -2.5,-0.46583 -2.5,-1.0352 0,-0.71358 -0.60093,-0.71358 -1.9343,0 -2.9648,1.5867 -5.569,1.2416 -7.6048,-1.008 z m 19.539,-8.9568 c 0,-10.333 0.12121,-11 2,-11 1.87879,0 2,0.66667 2,11 0,10.33333 -0.12121,11 -2,11 -1.87879,0 -2,-0.66666 -2,-11 z m 11.243,9.843 c -0.74692,-0.74691 -1.243,-3.9568 -1.243,-8.043 0,-3.8667 -0.43744,-6.8829 -1,-6.8 -2.0878,0.30757 -1.5938,-1.9401 -1.5907,-3.5907 0.003,-1.65 -0.14072,-2.4093 1.5907,-2.4093 0.55,0 1,-0.81 1,-1.8 0,-1.8548 1.7868,-4.2 3.2,-4.2 0.44,0 0.8,1.35 0.8,3 0,2.3334 0.44444,3 2,3 1.55556,0 2,0.66667 2,3 0,2.33333 -0.44444,3 -2,3 -1.7097,0 -2,0.66667 -2,4.5936 0,3.7927 0.10226,6.4364 1.8175,6.0759 3.9648,-0.83345 2.5252,4.732 -0.82454,5.1235 -1.3789,0.16114 -3.0664,-0.26636 -3.75,-0.95 z m 21.757,-1.7376 c 0,-3.7296 3.4914,-15.047 5.4356,-17.62 2.3282,-3.0804 1.9286,-3.4858 -3.4356,-3.4858 -4.8889,0 -5,-0.067 -5,-3 l 0,-3 8,0 c 9.3661,0 9.4338,0.1187 5.0212,8.8022 -2.5921,5.1009 -3.7395,8.9607 -5.6327,18.948 -0.27157,1.4326 -1.1462,2.25 -2.4075,2.25 -1.5184,0 -1.981,-0.67594 -1.981,-2.8947 z m -176.61,-5.0388 c -3.2045,-1.3654 -6.3881,-5.9838 -6.3881,-9.2671 0,-6.4138 4.35,-10.744 10.827,-10.777 9.1611,-0.047 13.608,10.136 7.4231,16.997 -2.9651,3.2891 -8.1617,4.6242 -11.862,3.0475 z m 7.647,-3.5847 c 5.2062,-2.6922 4.9725,-9.465 -0.44899,-13.017 -4.8227,-3.1599 -11.586,0.5316 -11.586,6.3238 0,6.5943 5.8911,9.8708 12.035,6.6936 z m 69.965,-16.482 c 0,-1.3333 0.66667,-2 2,-2 1.33333,0 2,0.6667 2,2 0,1.3333 -0.66667,2 -2,2 -1.33333,0 -2,-0.6667 -2,-2 z m 66,0 c 0,-1.3333 0.66667,-2 2,-2 1.33333,0 2,0.6667 2,2 0,1.3333 -0.66667,2 -2,2 -1.33333,0 -2,-0.6667 -2,-2 z m -75.726,-17.81 c -1.9132,-1.2154 0.40509,-8.088 3.7971,-11.257 1.5789,-1.4749 4.7963,-3.1602 7.1499,-3.7451 5.8343,-1.45 99.724,-1.45 105.56,0 2.3536,0.5849 5.571,2.2702 7.1499,3.7451 3.392,3.1686 5.7103,10.041 3.7971,11.257 -1.6024,1.018 -125.85,1.018 -127.45,0 z"
       style="fill:#ffffff" />
  </g>
</svg>
