<?xml version="1.0" encoding="UTF-8" standalone="no"?>
<!-- Created with Inkscape (http://www.inkscape.org/) -->
<svg id="svg3336" xmlns:rdf="http://www.w3.org/1999/02/22-rdf-syntax-ns#" xmlns="http://www.w3.org/2000/svg" height="1498" viewBox="0 0 716 1498" width="716" version="1.1" xmlns:cc="http://creativecommons.org/ns#" xmlns:dc="http://purl.org/dc/elements/1.1/">
 <metadata id="metadata3342">
  <rdf:RDF>
   <cc:Work rdf:about="">
    <dc:format>image/svg+xml</dc:format>
    <dc:type rdf:resource="http://purl.org/dc/dcmitype/StillImage"/>
    <dc:title/>
   </cc:Work>
  </rdf:RDF>
 </metadata>
 <path id="path3467" fill="#fff" d="m384.91 1492.4c-14.236-2.1241-21.967-6.2378-27.187-14.468-6.6028-10.409-7.2024-19.479-3.2998-49.913 2.6098-20.352 2.62-27.001 0.0607-39.225-0.66369-3.1696-2.1178-6.7131-3.2314-7.874-1.1136-1.161-2.36-3.1729-2.7698-4.4707-0.82798-2.6227-6.7177-8.8962-9.8202-10.46-2.9188-1.4715-2.964-3.7694-0.18836-9.5755 3.3606-7.0298 5.4375-14.209 6.785-23.454 0.97977-6.7221 0.90869-8.3996-0.52784-12.455-0.91304-2.5778-2.3726-9.3376-3.2434-15.022-1.9786-12.915-2.1889-63.787-0.4618-111.71 1.33-36.907 0.71789-154.04-0.89236-170.77-1.2796-13.291-1.5708-14.203-6.0831-19.061-4.6703-5.0275-4.7279-6.4411-0.91449-22.449 3.9871-16.737 5.0885-41.369 4.8471-108.4l-0.19075-52.964-5.1538 22.944c-6.5553 29.183-15.281 64.482-18.972 76.752-2.8736 9.5517-3.0011 13.175-0.60048 17.058 1.4037 2.2708 2.9083 25.948 2.9083 45.768 0 10.468-0.47807 15.271-2.2534 22.638-2.1854 9.0684-2.2486 10.642-2.096 52.166l0.15732 42.815-2.5938 8.031c-2.7787 8.6033-7.2339 15.978-13.759 22.774-6.1961 6.4537-11.287 9.0571-17.712 9.0571-2.9844 0-5.6999-0.4428-6.0344-0.9842-0.33456-0.5413-1.6299-0.9842-2.8786-0.9842s-5.4114-1.5715-9.2505-3.4921c-14.852-7.4301-23.579-20.905-26.814-41.402-1.0158-6.4356-2.1216-16.433-2.4574-22.216-0.46971-8.0889-0.90828-10.401-1.9006-10.02-0.70948 0.272-3.2156-0.3692-5.5692-1.4248-2.3536-1.0558-5.3865-2.2505-6.7399-2.6548-3.3882-1.0119-9.0885-4.379-24.558-14.506-9.7868-6.4066-13.57-9.4528-14.507-11.681-0.69707-1.6579-2.5358-4.1992-4.0861-5.6475-2.3535-2.1983-3.0991-4.1591-4.5181-11.88-1.9225-10.461-3.4395-36.339-3.4827-59.411l-0.0291-15.535 3.4449-2.0325c3.9927-2.3558 3.9323-2.0714 1.8253-8.5954-1.5692-4.8588-1.5402-5.3754 0.93351-16.599 1.4042-6.3714 3.4831-17.121 4.6196-23.888 1.1365-6.7668 2.4654-13.853 2.953-15.748 0.48761-1.8947 1.8209-12.746 2.963-24.114 2.1355-21.258 6.8289-51.157 11.285-71.892 3.1218-14.526 3.2552-14.955 10.841-34.9 7.4485-19.582 21.174-60.031 21.174-62.399 0-1.7266-15.711-20.41-34.449-40.966-17.764-19.488-21.363-23.899-29.782-36.506-12.901-19.319-19.625-37.234-20.941-55.796-0.56588-7.9819-0.39939-10.937 0.80216-14.24 0.83395-2.2923 1.7772-8.154 2.0962-13.026 1.7291-26.411 1.7511-31.332 0.22236-49.705-0.90059-10.824-1.7053-32.498-1.8452-49.705-0.23494-28.879-0.13169-30.933 1.9288-38.386 5.8699-21.231 12.688-31.986 20.281-31.99l3.1233-0.002 0.0309-14.024c0.0263-11.865 0.38425-15.16 2.3264-21.406 2.6013-8.3659 5.8166-15.127 9.1779-19.299 1.2616-1.5659 2.7784-3.9543 3.3707-5.3077 0.59231-1.3534 2.1314-4.8855 3.4202-7.8493 2.7519-6.3283 12.51-17.122 19.891-22.002 2.7995-1.8508 8.4118-4.639 12.472-6.1959 7.221-2.769 7.8004-2.8308 26.575-2.8308h19.193l10.037-4.9213 10.037-4.9213 0.052-4.063c0.038-2.9646-0.47088-4.4281-1.8824-5.4134-3.3784-2.3583-6.9267-17.141-6.9068-28.774 0.0259-15.166 1.7538-21.524 10.737-39.506l7.8665-15.748 0.42862-22.638c0.54181-28.616 1.8656-35.709 9.4138-50.446 3.2209-6.2883 4.8558-8.6255 13.228-18.911 10.468-12.86 22.878-19.681 35.923-19.746 4.6094-0.02274 6.212-0.52394 9.4083-2.9425 5.5621-4.2087 13.115-6.7256 23.736-7.91 15.382-1.7152 27.796 0.9083 41.251 8.7178 8.7912 5.1026 22.897 19.671 28.302 29.229 2.4487 4.3307 6.0808 10.532 8.0712 13.78 5.0269 8.2032 10.437 26.988 10.437 36.239 0 1.842 0.28166 5.404 0.62591 7.9156 0.53448 3.8994 0.95057 4.5665 2.8483 4.5665 1.6578 0 2.8327 1.1876 4.6251 4.6752 4.4611 8.6803 17.605 15.559 31.891 16.689 6.747 0.53388 7.2878 0.40941 14.019-3.2262 5.0602-2.7332 7.2992-3.4836 8.0759-2.7069 3.1953 3.1953-8.5072 13.346-19.197 16.651-7.2594 2.2448-20.629 2.7977-26.857 1.1107-3.3288-0.9017-4.8823-1.0117-4.4242-0.31317 0.38828 0.59209 4.9648 7.4988 10.17 15.348 5.2054 7.8494 10.606 16.537 12.001 19.305 2.2605 4.4855 2.9573 5.1006 6.4016 5.6514 2.1258 0.33991 6.0096 2.0611 8.6308 3.825 13.063 8.7899 18.408 25.634 13.117 41.338-2.5031 7.4303-5.0232 11.108-9.0322 13.181l-3.0515 1.578 6.3279 6.0957c9.4366 9.0903 23.17 24.407 27.17 30.303 6.3385 9.3422 12.09 23.838 12.119 30.544 0.007 1.8149 0.52817 2.7067 1.5793 2.7067 0.8622 0 4.1755 2.36 7.3628 5.2444 6.9724 6.3097 14.669 10.251 22.82 11.687 7.4287 1.3085 24.258-0.29008 32.892-3.1244 7.1201-2.3374 10.053-2.2892 9.4141 0.1546-1.3671 5.2278-27.383 16.036-43.2 17.948-7.7834 0.94059-22.685-1.0484-28.235-3.7688l-4.76-2.333 0.42173 5.0588c0.23196 2.7823 1.4273 11.481 2.6564 19.331 1.8178 11.609 2.1397 16.75 1.7254 27.559-0.5867 15.308-1.7767 21.613-5.7374 30.402-1.5585 3.4582-2.8336 7.0237-2.8336 7.9232 0 1.5386-13.825 29.875-19.193 39.34-1.3532 2.3858-2.4604 5.1232-2.4604 6.0831 0 3.015-20.421 22.747-27.205 26.288-7.5709 3.9511-14.178 4.3374-16.538 0.96692-0.84246-1.2028-2.3071-2.1994-3.2546-2.2146-0.94756-0.0152-5.2279-3.7924-9.5119-8.3938s-8.0505-8.4775-8.37-8.6135c-1.1444-0.48721-12.043 23.032-14.025 30.267-1.5632 5.7053-2.1335 11.431-2.5108 25.208-0.47887 17.488-0.44638 17.865 1.7111 19.875 1.697 1.5809 2.0491 2.6798 1.542 4.8116-0.93639 3.9368-0.94585 3.8816 2.2428 13.097 1.9078 5.5138 3.4613 13.064 4.5564 22.146l1.6617 13.78 3.8197 3.9468c3.4373 3.5517 4.0613 5.0295 6.234 14.764 6.7664 30.315 10.411 55.12 10.426 70.954 0.005 4.9257-1.1061 17.327-2.4686 27.559-1.3624 10.232-2.9129 22.735-3.4456 27.785-0.53268 5.05-1.2235 10.198-1.5351 11.439-0.45323 1.8058-0.0833 2.3789 1.8496 2.864 5.3714 1.3481 5.8582 16.542 0.68514 21.383-5.3671 5.0234-7.3459 19.157-9.2894 66.352l-1.4186 34.449 8.2668 12.938c4.5467 7.1159 11.877 19.296 16.288 27.067 4.4119 7.771 9.2502 15.901 10.752 18.066 4.2894 6.1852 6.1042 11.346 6.0571 17.224-0.0239 2.9773 0.59824 7.8495 1.3825 10.827 3.9155 14.866 25.054 106.12 28.954 125 1.2454 6.0271 2.7725 10.826 3.6639 11.515 3.1148 2.4046-1.3422 10.267-7.2099 12.719-6.9044 2.8848-16.107 0.1725-16.107-4.7472 0-1.1184-3.9128-8.7286-8.6952-16.912-4.7824-8.183-16.157-28.252-25.277-44.598-10.089-18.083-17.614-30.484-19.22-31.671l-2.6381-1.9505 0.46031 6.5723c0.54055 7.7181-1.3019 51.078-2.6841 63.167-0.52609 4.6013-1.6392 21.432-2.4737 37.402-2.5825 49.425-4.503 77.58-6.2776 92.028-0.67124 5.4652-0.56813 7.0527 0.49873 7.6769 1.0989 0.6431 1.3449 7.4947 1.3449 37.459v36.672l-3.8634 2.8956c-2.1248 1.5926-4.5873 4.1158-5.4721 5.6073-2.5635 4.3213-3.439 25.785-1.2985 31.835 0.59362 1.6776 0.79336 4.1894 0.44386 5.5821-0.91569 3.6483-6.6204 10.769-10.024 12.512-1.6036 0.8214-3.2126 1.9055-3.5757 2.4094-0.36307 0.5037-0.39987 8.2547-0.0819 17.224 0.95931 27.049 0.70103 46.37-0.69822 52.234-2.148 9.0013-6.6393 16.664-14.199 24.223-12.07 12.07-25.387 17.154-39.441 15.057zm16.694-3.7146c8.5594-2.5084 14.515-6.2413 21.861-13.702 13.605-13.818 16.401-28.27 13.466-69.6-0.5382-7.5787-0.80378-16.084-0.59014-18.901 0.36532-4.8167 0.58599-5.1865 3.7092-6.2173 3.7887-1.2504 7.6969-5.4743 9.864-10.661 1.2368-2.9603 1.272-3.9507 0.21101-5.9332-0.88474-1.6532-1.216-6.2356-1.0848-15.007 0.22414-14.988 1.7464-19.611 7.9179-24.047l3.9254-2.8216 0.19-33.108c0.18481-32.202-0.29517-41.123-1.9805-36.812-1.0859 2.7773-1.0535-4.2412 0.0594-12.831 1.0985-8.48 3.5485-41.847 4.9143-66.929 2.501-45.931 3.1046-55.627 3.9521-63.484 1.0739-9.9569 2.3691-42.872 2.3529-59.794-0.005-6.6314 0.21766-12.057 0.49781-12.057 0.28017 0 1.8091 1.2179 3.3975 2.7067 2.5652 2.404 2.76 2.459 1.7417 0.492-0.63056-1.2179-0.94808-2.2145-0.70564-2.2145s3.203 4.9828 6.5791 11.073c15.498 27.956 38.193 67.997 43.096 76.034 2.9724 4.8721 5.3368 9.8272 5.2542 11.012-0.0954 1.3669 0.56297 2.3797 1.8022 2.7731 1.0738 0.3408 1.9524 1.0326 1.9524 1.5376 0 1.4911 5.8234 1.0492 9.5639-0.7258 1.9051-0.904 4.2642-2.96 5.2425-4.5685 1.7172-2.8238 1.7164-3.0136-0.023-5.4922-0.99091-1.412-2.3342-5.6678-2.9851-9.4572-1.6544-9.6312-20.635-92.149-27.504-119.58-1.6474-6.5772-2.9952-14.238-2.9952-17.025 0-5.6141-2.1657-12.432-5.3816-16.943-1.1579-1.6239-5.1508-8.2677-8.8732-14.764-3.7224-6.4961-11.589-19.5-17.482-28.898-7.0242-11.202-10.501-17.642-10.094-18.701 0.3407-0.88786 1.2389-16.895 1.9959-35.571 1.4774-36.446 1.7533-39.947 4.0225-51.024 1.7054-8.3251 4.1115-13.937 5.9752-13.937 0.73303 0 1.2941-1.0949 1.2941-2.5254 0-1.3889 0.43014-3.3291 0.95586-4.3114 0.64491-1.205 0.54371-3.1852-0.31103-6.0869-1.1463-3.8915-1.5307-4.272-4.0385-3.9972-2.4647 0.27003-2.705 0.052-2.1699-1.9685 1.886-7.1226 8.461-63.06 8.4945-72.268 0.0415-11.401-4.2702-38.954-10.525-67.259-2.2738-10.289-2.8186-11.595-6.2604-15.002-4.0708-4.0304-4.1263-4.2233-5.8842-20.48-0.70264-6.4979-2.3604-14.107-4.4654-20.495-2.7217-8.2596-3.1399-10.548-2.2361-12.237 0.93143-1.7404 0.75504-2.3663-1.0873-3.8581-2.1769-1.7627-2.1944-1.9875-1.7367-22.212 0.54441-24.055 1.2236-26.882 11.285-46.968l6.3906-12.757 8.8381 9.5545c7.521 8.1306 9.1849 9.4674 11.165 8.9705 1.9033-0.4777 2.4418-0.12519 2.9594 1.9374 1.3568 5.4057 8.1881 4.5388 18.481-2.3452 8.965-5.9962 21.727-19.767 22.638-24.427 0.35272-1.8049 1.48-4.4624 2.5051-5.9055 3.745-5.2723 15.815-29.699 18.391-37.218 1.4562-4.2508 3.2584-8.9292 4.0048-10.396 4.5806-9.0047 5.9731-37.465 2.7589-56.388-2.0314-11.959-2.9594-27.067-1.6626-27.067 0.51131 0 1.7414 0.897 2.7336 1.9934 0.99216 1.0963 4.8562 2.9204 8.5868 4.0536 5.7942 1.7599 8.5305 1.9917 18.772 1.5903 10.327-0.40479 13.217-0.91207 20.847-3.659 8.2436-2.9677 24.552-10.759 23.895-11.416-0.16007-0.16007-2.8836 0.58419-6.0522 1.6539-7.8054 2.6351-21.034 4.1493-30.945 3.5421-10.194-0.6245-18.214-4.2759-26.751-12.18-4.4682-4.1368-6.324-5.2671-7.8516-4.7822-1.7399 0.55223-2.0004 0.20458-2.0004-2.6695 0-8.0865-5.7781-22.432-13.792-34.244-3.3475-4.9337-12.287-13.953-17.93-18.089l-2.2347-1.6382 2.4606 1.1402c2.3746 1.1004 2.3574 1.0264-0.49214-2.118-1.624-1.7921-4.2815-4.3801-5.9055-5.7511-1.624-1.3711-4.6417-4.274-6.7059-6.4509l-3.7532-3.958 3.261-0.8306c7.9497-2.0249 12.945-11.332 13.041-24.298 0.0525-7.0731-0.34072-9.2254-2.5442-13.925-4.4174-9.422-14.385-17.489-21.682-17.549-2.2113-0.0182-3.0179-0.85171-5.0208-5.189-1.3124-2.842-7.2917-12.545-13.287-21.563-10.216-15.365-13.998-21.573-13.998-22.976 0-0.32509 1.4645 0.52595 3.2545 1.8912 7.4809 5.706 22.196 6.8204 34.439 2.6081 5.7398-1.9748 13.644-6.8282 16.687-10.246 2.4619-2.7655 2.1316-3.1163-0.98426-1.0455-6.4256 4.2703-9.5753 5.3174-15.995 5.3174-15.46 0-31.366-7.818-36.54-17.96-1.6691-3.2717-2.3395-3.7832-4.3103-3.2885-2.608 0.65455-2.7774-0.006-3.8884-15.169-0.69954-9.5473-4.5673-24.428-8.1644-31.411-10.289-19.975-21.96-35.103-32.695-42.382-13.085-8.872-22.343-11.894-36.472-11.905-14.666-0.01137-26.91 3.5144-32.364 9.3191-1.9949 2.1235-2.844 2.336-7.4381 1.8619-6.391-0.65961-15.299 2.0764-23.537 7.2292-10.126 6.3335-25.158 27.391-30.819 43.173-2.4049 6.7034-4.2434 25.707-4.2434 43.861v17.361l-7.3898 14.292c-4.5501 8.8001-8.1432 17.238-9.3504 21.958-2.4465 9.5657-2.5372 21.412-0.23813 31.098l1.7224 7.2566 0.57493-12.795c0.63137-14.052 2.487-20.675 9.639-34.404 4.4369-8.517 4.7304-7.4033 3.101 11.766-0.88896 10.458-1.9097 16.033-4.2348 23.13-2.6186 7.9922-3.0716 10.862-3.1191 19.758l-0.0555 10.408-11.33 5.5204c-12.626 6.1519-15.093 6.5304-33.472 5.1349-7.9866-0.60643-10.498-0.40143-17.027 1.3896-10.542 2.8923-18.134 6.9432-25.103 13.395-6.7515 6.2507-11.286 12.834-13.634 19.793-0.89389 2.6497-3.0938 6.6232-4.8887 8.83-3.7208 4.5746-7.067 11.805-9.7592 21.086-1.4232 4.9066-1.8624 9.6666-1.8844 20.423l-0.0288 14.026-2.9528 0.004c-8.1819 0.0103-14.251 9.5204-20.41 31.985-2.017 7.3563-2.1448 9.7186-1.9431 35.925 0.11872 15.428 0.74631 33.809 1.3946 40.847 2.2769 24.715 1.2936 66.552-1.7344 73.799-1.2048 2.8834-1.2864 5.2444-0.46878 13.566 1.545 15.727 5.9294 28.841 14.886 44.526 8.3547 14.631 13.829 21.53 42.265 53.272 6.2433 6.9692 15.199 17.168 19.902 22.664l8.5509 9.9925-1.3852 5.2635c-2.2962 8.7252-14.605 44.515-21.443 62.35-4.9517 12.915-7.3208 20.999-10.385 35.433-5.1685 24.348-8.5675 45.759-10.938 68.898-1.7994 17.567-8.2477 56.203-11.439 68.536-1.2159 4.6993-1.2331 6.124-0.11316 9.3504 0.72667 2.0935 1.5885 5.1876 1.915 6.8757 0.55226 2.8547 0.32195 3.1762-3.2927 4.596l-3.8865 1.526 0.0324 13.121c0.0524 21.28 1.6981 49.077 3.5042 59.188 1.6492 9.2333 1.7816 9.5154 6.9494 14.808 2.8974 2.9675 4.7999 5.5517 4.2276 5.7425-0.57223 0.1907 5.0273 4.3251 12.443 9.1873 14.51 9.5131 22.648 14.134 25.023 14.208 0.82003 0.025 3.1453 0.9332 5.1673 2.0168 3.4156 1.8308 3.6819 1.8481 3.7541 0.2461 0.0464-1.0291 0.27787-1.2283 0.57414-0.494 0.27303 0.6765 1.0802 1.2302 1.7937 1.2302 0.96098 0 1.4752 2.9981 1.9836 11.565 0.3775 6.3607 1.4977 16.418 2.4893 22.35 3.8046 22.759 15.765 38.412 32.813 42.944 2.2376 0.5949 4.8373 1.4829 5.7774 1.9736 9.5207 4.9697 27.109-10.286 33.015-28.636 2.55-7.9231 4.4662-17.399 3.7521-18.555-0.29447-0.4764-0.55683-18.31-0.58298-39.63-0.0375-30.521 0.24922-39.85 1.3481-43.872 0.76763-2.8094 1.2166-5.2871 0.99779-5.5061-0.21885-0.2187 0.29643-2.3493 1.145-4.7343 1.2448-3.4985 1.436-7.0947 0.98964-18.608-0.30433-7.8493-0.99057-18.036-1.525-22.638-0.53442-4.6014-0.97502-10.484-0.97913-13.072-0.005-3.0402-0.47844-4.8868-1.3379-5.2167-0.7893-0.30288-1.152-1.4444-0.89157-2.8065 0.24139-1.2628 0.004-2.5647-0.5276-2.8933-0.58896-0.36399 0.14877-4.1547 1.8886-9.704 6.6689-21.271 22.76-89.002 26.895-113.21 0.34679-2.03 1.0825-3.691 1.6348-3.691 0.97322 0 0.50322 143.73-0.523 159.94-0.23984 3.7893-1.7951 12.342-3.456 19.006-1.661 6.6643-3.02 12.693-3.02 13.398 0 2.039 5.6604 8.6723 6.1734 7.2342 0.8845-2.4793 1.8928 0.2023 2.7386 7.2837 2.8403 23.781 3.9349 38.444 2.9577 39.622-0.71987 0.8673-0.81259 17.068-0.30235 52.826 0.40473 28.366 0.4413 59.769 0.0812 69.784-1.5628 43.469-2.092 117.33-0.90166 125.86 1.8746 13.427 3.1048 19.149 4.6336 21.552 2.7435 4.3111-1.539 26.231-7.2449 37.083-2.0442 3.8878-2.2783 4.96-1.1643 5.3312 2.5329 0.8442 10.612 9.5981 11.267 12.208 0.41741 1.663 1.1293 2.3753 2.0291 2.0299 0.89851-0.3449 1.3861 0.1398 1.3861 1.3779 0 1.0503 0.3319 2.2416 0.73753 2.6472 1.349 1.3491 3.1517 10.798 3.7715 19.768 0.46922 6.7908-0.011 13.568-2.0577 29.036-1.8906 14.289-2.5066 22.359-2.1108 27.655 1.4196 18.992 10.054 28.221 29.679 31.726 8.7846 1.5689 8.2149 1.6068 17.717-1.1776zm-23.314-3.9967c-7.0699-2.7644-11.536-5.869-14.674-10.201-3.9498-5.4525-3.5752-5.9961 1.0804-1.5675 4.5439 4.3225 10.925 6.553 21.16 7.3968 6.0872 0.5018 7.8605 0.2112 15.223-2.4966 8.5788-3.1549 18.734-8.7024 18.734-10.234 0-0.4764 1.568-2.6977 3.4844-4.9367 4.387-5.1253 7.2932-14.427 8.2844-26.515l0.74596-9.0973 0.14026 8.5637c0.25939 15.838-3.3561 25.666-13.132 35.695-12.46 12.783-28.893 18.145-41.046 13.393zm4.7237-8.4918c-17.93-3.6893-23.099-13.388-19.676-36.915 2.8677-19.707 3.4306-27.078 2.8515-37.344-0.60892-10.795-2.3396-20.686-4.2378-24.221-0.96127-1.7898-0.78192-2.2263 1.3062-3.1777 1.3313-0.6065 2.4205-1.6797 2.4205-2.3845 0-1.2647 3.5881-3.0631 9.3504-4.6867 1.624-0.4575 7.3027-2.6289 12.619-4.8252l9.6664-3.9933 6.5033 3.9224c7.3998 4.4631 15.178 7.5789 22.284 8.9266 2.6836 0.5089 5.0192 1.0652 5.19 1.236 0.17091 0.171-0.57041 1.2565-1.6474 2.4127-1.855 1.9911-1.9585 3.5158-1.9662 28.964-0.0119 39.593-1.6209 49.326-9.8816 59.777-2.9423 3.7223-5.7613 5.811-12.046 8.9249-9.5216 4.7181-13.426 5.2989-22.738 3.383zm52.97-100.17c-0.78804-2.0535 0.19655-3.3944 1.5205-2.0706 0.55908 0.559 0.57356 1.4985 0.0365 2.3675-0.75516 1.2217-0.99154 1.1769-1.557-0.2969zm-13.711-10.841c-8.6615-4.4422-17.396-9.1002-19.41-10.351-3.4325-2.1317-4.0898-2.208-10.478-1.2168-7.2116 1.1189-25.758 6.9604-31.742 9.9974-1.9578 0.9939-4.9474 2.9746-6.6437 4.402-2.5682 2.161-3.0842 2.3118-3.0842 0.9014 0-0.9316-0.91781-3.1787-2.0396-4.9938-1.3262-2.1459-1.8054-4.0381-1.37-5.4098 0.6119-1.9279 1.1902-2.0691 6.7148-1.6391 7.0921 0.5521 9.04 0.1351 7.5813-1.6225-0.76533-0.9222 1.4078-1.9937 9.0633-4.4683 5.5385-1.7904 19.15-6.9044 30.247-11.365 11.097-4.46 25.426-9.7438 31.841-11.741 6.4153-1.9974 11.509-3.771 11.319-3.9415-0.1899-0.1705-3.8886 0.5044-8.2193 1.4995s-13.41 2.978-20.177 4.4062c-6.7668 1.4282-18.283 4.5653-25.591 6.9711-7.3081 2.4057-15.421 4.8424-18.028 5.4146-2.6075 0.5721-7.4796 2.1604-10.827 3.5295-3.3472 1.3691-7.3602 2.8614-8.9177 3.3163l-2.8318 0.8274 0.60569-6.8434c0.33311-3.7639 1.1057-9.8715 1.717-13.573 0.93545-5.6643 0.87216-7.1913-0.4002-9.6517-1.6181-3.1291-3.1163-10.714-4.1577-21.048-0.3546-3.5187-1.0709-8.3751-1.5917-10.792-0.68272-3.1678-0.51802-7.5623 0.59028-15.748 4.0215-29.702 6.9966-147.32 4.6066-182.12-2.2099-32.178-2.2969-35.242-1.2463-43.887 0.58632-4.824 1.1868-13.11 1.3345-18.414 0.2456-8.8217 0.42323-9.6028 2.0858-9.1718 2.8988 0.7518 4.5803-0.3912 4.5803-3.1139 0-1.8154-1.8673-4.3629-6.6437-9.064-3.654-3.5964-7.8931-7.4129-9.4202-8.4812l-2.7764-1.9423 2.4418-9.8038c5.0331-20.208 4.9871-19.203 4.8723-106.44-0.0593-45.028-0.39893-82.787-0.75478-83.908-0.35583-1.1212-0.40063-2.0385-0.0995-2.0385 0.75763 0 8.5085 15.545 8.2138 16.473-0.13111 0.41323 0.3598 2.1817 1.0909 3.9299 0.94495 2.2595 1.9375 3.1443 3.4329 3.0599 1.1569-0.0654 3.2177 0.18718 4.5794 0.56109 1.9641 0.53934 3.0536 0.0768 5.2713-2.238 2.5146-2.6246 2.695-3.2476 1.7954-6.2003-0.55003-1.8054-1.2697-5.1857-1.5993-7.5117-0.32959-2.326-3.2379-11.158-6.4629-19.626-3.225-8.4682-5.6518-15.609-5.3929-15.868 0.25889-0.25889 1.4795 0.0692 2.7125 0.72908 1.9258 1.0307 3.1742 0.76347 8.8568-1.8957 6.2254-2.9132 8.1885-5.1479 5.3847-6.1295-0.67668-0.23689-3.6032 0.60872-6.5035 1.8792-5.4002 2.3655-8.0489 2.2776-5.9937-0.19882 0.87226-1.051 0.64426-2.3712-0.99396-5.7553-1.863-3.8483-7.8888-10.448-10.523-11.524-0.50408-0.206-4.3722-7.2397-8.5959-15.631-4.2237-8.3908-8.3812-16.042-9.239-17.002-1.9056-2.1329-1.1964-2.8653 5.0116-5.176 5.6113-2.0887 9.5241-4.9537 9.5241-6.9739 0-1.1319-0.77846-1.3035-3.5527-0.78306-2.5344 0.47545-3.7996 0.27666-4.4141-0.6936-1.4644-2.3122-0.99293-3.5819 1.5691-4.2249 1.7308-0.43439 2.4606-1.2878 2.4606-2.8772 0-2.6642 6.619-6.5701 7.3641-4.3456 4.153 12.399 17.681 50.743 21.442 60.777 2.7394 7.3081 4.9058 14.373 4.8143 15.7-0.24035 3.4842 3.3947 16.083 6.2873 21.791 1.9023 3.754 3.1418 5.0263 5.3211 5.4622 2.6029 0.52059 2.796 0.84657 2.3026 3.8869-0.34008 2.0958 0.00016 4.1417 0.92341 5.5523 0.80405 1.2285 2.2201 4.8911 3.1467 8.1392 1.3605 4.7688 7.4282 18.778 11.272 26.024 1.5267 2.8783 3.072 2.2423 3.072-1.2643 0-2.56 0.67154-3.9837 2.5915-5.494 2.7341-2.1506 16.667-6.9408 20.343-6.994 2.1144-0.0306 2.1202-0.0643 0.2532-1.4764-1.0508-0.7948-3.1972-1.4451-4.7698-1.4451-4.5658 0-13.709 2.9685-17.197 5.5831-2.3266 1.7442-3.3194 2.0513-3.6138 1.1176-1.605-5.0902-6.7582-26.346-6.8474-28.244-0.0947-2.0145 0.87311-2.7564 6.7793-5.1968 3.7894-1.5658 8.352-3.1672 10.139-3.5589 4.1509-0.90972 4.4544-2.3145 0.71607-3.3143-2.2069-0.59021-4.9842-0.0448-11.319 2.2234-10.711 3.8349-12.824 4.3248-12.824 2.9733 0-1.5462 7.0718-5.8212 16.149-9.7624 6.8642-2.9803 8.4327-3.3073 13.287-2.77 4.636 0.51314 6.7384 0.14658 13.324-2.3232 4.3009-1.6128 7.9162-2.8343 8.0338-2.7142 0.73261 0.74726 8.2722 18.871 9.7129 23.348 0.95813 2.9774 2.795 6.5449 4.0819 7.9279 1.6945 1.821 2.3399 3.6567 2.3399 6.656 0 3.9651-0.24104 4.2959-5.6595 7.7686-4.1709 2.6731-6.6236 3.59-9.3252 3.4858-3.9208-0.15116-5.0444 0.66366-4.1454 3.0063 1.6823 4.384 13.61 0.84206 18.717-5.5578 2.6198-3.2832 2.927-3.4133 4.5637-1.932 2.3441 2.1214 2.2503 2.6188-1.2438 6.5984-3.684 4.1958-12.084 7.3849-14.869 5.6454-2.6126-1.6316-3.7856-1.3751-3.7856 0.82772 0 1.0702 1.1295 2.6859 2.51 3.5905 3.6832 2.4133 11.392 0.48846 17.335-4.3286 3.7404-3.0316 4.5295-4.2432 4.5452-6.9797 0.0205-3.5882 1.4252-5.4526 4.8911-6.4919 2.5965-0.7786 2.6221-0.55061 1.1559 10.295-3.0897 22.857-4.9582 41.627-5.511 55.364-0.34314 8.5261-0.99844 15.502-1.4563 15.502-0.45781 0-0.83238-0.45241-0.83238-1.0054 0-0.55295-1.0821-2.6568-2.4048-4.6752-2.7125-4.1395-5.1956-16.644-5.8052-29.234-0.37461-7.7368-0.42356-7.8654-3.4669-9.1072-2.6465-1.0799-3.087-1.76-3.087-4.7664 0-5.7203-1.3965-7.3144-6.4077-7.3144-4.3185 0-4.3631-0.0342-3.7866-2.9166 0.8683-4.3414-0.31366-7.9103-2.6198-7.9103-1.8462 0-2.0794 0.38717-2.3708 3.937-0.0667 0.81202-0.88501 1.4149-1.8186 1.3397-0.93357-0.0752-1.6974 0.47847-1.6974 1.2303 0 0.75185 0.47277 1.367 1.0506 1.367 0.58753 0 0.78661 0.83168 0.45168 1.8869-0.48519 1.5287-0.21747 1.7872 1.4101 1.3616 3.1357-0.82002 2.516 2.5037-0.69775 3.7426-1.4887 0.57385-4.9559 2.1686-7.7049 3.5438-3.5245 1.7632-5.6827 2.2832-7.3198 1.7636-2.266-0.7192-2.276-0.77203-0.41528-2.2015 1.328-1.0202 1.5332-1.6046 0.67615-1.9258-0.67668-0.25364-1.2303-1.9494-1.2303-3.7683 0-2.2294-0.66443-3.7724-2.039-4.7352l-2.039-1.4282 2.0775-1.9354c2.5885-2.4116 10.907-5.1624 15.612-5.1624 3.2578 0 3.4152-0.12756 1.9569-1.5859-0.87222-0.87221-3.6153-1.8146-6.0957-2.0942-8.4083-0.94775-19.315 6.5821-19.315 13.335 0 1.1222 0.40739 2.2921 0.90531 2.5998 0.4979 0.30773 2.0721 2.6471 3.4982 5.1987l2.5929 4.6392-2.5292 1.8424c-4.4859 3.2677-4.8798 5.1834-1.8759 9.1218 2.5036 3.2825 2.592 3.7297 1.3929 7.0461-1.1027 3.0493-1.0699 3.6951 0.23567 4.6498 1.6097 1.177 11.312 14.107 15.533 20.701 2.6183 4.09 5.6963 17.253 9.7817 41.831 2.7395 16.481 10.615 56.719 11.944 61.024 0.58487 1.8947 2.3078 5.4381 3.8287 7.8741 4.8058 7.6977 9.7419 20.945 9.9492 26.702 0.32097 8.9118-1.166 56.69-2.1862 70.247-2.2916 30.451-2.8452 41.341-3.8274 75.296-2.1411 74.015-3.4025 96.65-6.5432 117.42l-0.56516 3.7374-4.5808-4.2577c-2.5195-2.3418-14.989-11.188-27.711-19.658-12.722-8.4706-24.332-16.659-25.801-18.197l-2.6707-2.796 9.9709-11.795c15.958-18.877 23.24-31.176 30.131-50.89 6.7147-19.21 5.056-17.851-3.2388 2.652-7.694 19.018-12.573 27.182-26.798 44.843-6.1168 7.5938-11.121 14.371-11.121 15.06 0 2.4024 6.549 7.4616 29.018 22.418 12.441 8.2811 24.949 17.312 27.794 20.068 4.9909 4.8342 5.1394 5.1314 4.2006 8.4047-0.53526 1.8664-0.96643 4.2822-0.95815 5.3685 0.0124 1.6357 0.17902 1.7214 0.96919 0.4987 0.52478-0.8121 0.9609-2.9701 0.9692-4.7959 0.0132-2.9003 0.20959-3.1579 1.5564-2.0402 2.6656 2.2124 4.3642 6.5754 4.3642 11.21 0 4.1205-0.32443 4.7068-4.1309 7.4642-2.276 1.6487-5.4116 5.2977-6.9831 8.1264-2.8016 5.0427-2.8377 5.2999-2.034 14.484 0.45002 5.1426 0.75679 12.574 0.68168 16.513-0.11652 6.1108-0.51947 7.6649-2.7435 10.581-1.4338 1.8799-2.9166 3.3891-3.295 3.354-0.37846-0.035-7.7748-3.6983-16.436-8.1404zm31.004-46.473c0-0.2706-1.3288 0.1952-2.9528 1.035-1.624 0.8396-2.9528 1.7484-2.9528 2.0191s1.3288-0.1952 2.9528-1.035c1.624-0.8397 2.9528-1.7484 2.9528-2.0191zm1.3771-2.8059c-0.29127-0.7591-10.354-5.7973-22.361-11.196-12.007-5.3988-28.028-12.64-35.603-16.091l-13.771-6.2744 5.6893-0.6122c9.0082-0.9693 7.7769-1.8484-2.5889-1.8484-5.5955 0-9.5145 0.3995-9.5145 0.9702 0 1.826 7.3949 5.8596 30.02 16.374 22.07 10.257 45.048 19.95 47.459 20.022 0.65968 0.02 0.9611-0.5858 0.66981-1.3448zm-94.177-261.17c5.3352-5.278 16.445-15.244 24.689-22.146 8.2439-6.9023 14.508-12.549 13.921-12.549-2.5967 0-33.877 27.428-44.581 39.09-7.5714 8.2495-4.6005 6.0627 5.9701-4.3949zm42.49-40.036c9.6235-6.1686 14.731-8.6203 16.656-7.9956 0.91656 0.2975 3.4381 2.2534 5.6035 4.3466 3.9565 3.8248 6.3977 4.291 6.3977 1.2219 0-1.5181-1.8095-3.4733-13.396-14.474-4.2077-3.995-5.7971-7.9542-8.2591-20.573-0.63369-3.2481-2.9152-13.146-5.07-21.996-2.1548-8.8499-4.7305-20.366-5.7237-25.591-1.0814-5.6887-1.8432-8.1179-1.899-6.055-0.0511 1.8947 1.4176 11.86 3.2641 22.146 1.8465 10.285 3.8749 23.13 4.5075 28.543 2.0932 17.911 4.3822 24.371 10.144 28.628 2.038 1.5055 1.715 1.5646-5.7139 1.0456-4.3307-0.3026-13.632-1.9065-20.669-3.5645-16.083-3.789-32.285-6.3172-35.428-5.5284-3.509 0.88075-4.953 4.0718-3.1131 6.8798 1.3793 2.1052 2.5237 2.3029 20.493 3.5397 20.881 1.4375 31.676 1.6104 40.686 0.6514 4.552-0.4844 5.3486-0.3942 3.4754 0.3944-2.8692 1.208-19.716 11.747-19.716 12.334 0 0.8645 1.1976 0.2546 7.7604-3.952zm-6.08-100.21c-0.23542-1.2243-0.43697-0.45439-0.44791 1.711-0.0108 2.1654 0.18171 3.1671 0.42805 2.226 0.24636-0.94103 0.25528-2.7127 0.0199-3.937zm-0.97409-10.333c-0.22622-1.4961-0.41738-0.50565-0.42477 2.201-0.006 2.7067 0.17771 3.9308 0.41134 2.7202 0.23362-1.2106 0.23969-3.4251 0.0133-4.9213zm40.34-88.703c-0.8646-7.3002-9.4707-28.683-11.544-28.683-1.7704 0-0.98621 3.2103 4.0419 16.546 6.7001 17.77 8.5177 20.711 7.5024 12.137zm16.953-1.749c2.8361-3.6055 2.5512-6.5984-1.0148-10.66-5.4655-6.2249-12.693-3.6969-12.693 4.4396 0 7.9563 9.096 12.084 13.708 6.2202zm-4.6804-1.0046c0.18988-0.98604 1.1153-1.9411 2.0564-2.1224 2.3823-0.45878 2.1442 1.4823-0.34526 2.8146-1.7612 0.94254-2.0069 0.84315-1.7112-0.69226zm-4.6103-1.4978c-0.34987-0.90796-0.4904-2.6796-0.31226-3.937 0.28356-2.0014 0.86599-2.2842 4.6762-2.2706 2.565 0.009 4.5186 0.5144 4.7572 1.2303 0.24327 0.72978-0.51196 1.2208-1.8916 1.2298-2.7791 0.0183-4.0885 0.83281-5.5134 3.4298-0.96516 1.7592-1.1477 1.793-1.7162 0.31765zm-2.3733-19.435c3.8115-3.8115 3.9549-8.9299 0.35118-12.534-2.0342-2.0342-3.1259-2.4059-5.608-1.9094-6.9721 1.3944-9.9193 5.8496-7.5898 11.473 1.2721 3.0711 5.0252 5.7383 8.1714 5.8072 0.98898 0.0216 3.0928-1.2552 4.6752-2.8376zm-4.997-2.0096c0-1.1738 3.9005-3.352 4.6537-2.5988 0.81291 0.81293-1.7294 3.5484-3.2978 3.5484-0.74571 0-1.3559-0.42732-1.3559-0.94963zm-4.5001-2.3253c-0.92494-2.4104 0.16328-4.4592 3.0725-5.7847 1.7762-0.80928 3.0528-0.86071 4.1521-0.16723 2.8255 1.7823 2.5391 3.3213-0.61819 3.3213-1.9422 0-3.5003 0.7443-4.4768 2.1385-1.3221 1.8875-1.572 1.9453-2.1296 0.49213zm-70.477-47.94c3.2164-1.961 3.8125-4.396 1.0761-4.396-0.76689 0-1.7143-0.44292-2.1054-0.98425-0.41571-0.57545-2.4537 0.75317-4.9068 3.1988l-4.1958 4.1831 3.4304-0.004c1.8867-0.002 4.9024-0.9011 6.7014-1.998zm93.254 561.73-2.4926-3.268 2.3903-16.663c1.3147-9.1649 2.5644-18.214 2.7771-20.108 0.21273-1.8947 0.45765 7.0742 0.5443 19.931 0.0865 12.857-0.0415 23.376-0.28452 23.376-0.24312 0-1.5637-1.4706-2.9346-3.2679zm80.149-165.98c0-0.5169 1.6609-1.239 3.691-1.6049 2.03-0.3656 4.2446-1.1043 4.9213-1.6413 0.86847-0.6893 1.2303-0.5533 1.2303 0.4624 0 0.7914-1.1281 1.9529-2.507 2.5811-3.032 1.3816-7.3356 1.5003-7.3356 0.2027zm-257.88-2.6941c4.5691-0.767 9.3347-2.5344 12.303-4.5631l2.9528-2.0179-1.9662 2.2553c-2.9576 3.3928-6.8088 5.0219-11.518 4.8726-2.5437-0.081-3.2503-0.2988-1.7713-0.5469zm251.8-8.4725c-1.9835-4.0085-12.876-23.852-24.206-44.097s-23.4-41.902-26.823-48.128c-3.4229-6.2253-7.6201-13.534-9.3271-16.24-1.707-2.7068-4.1591-6.6931-5.4491-8.8584-1.29-2.1654-2.6965-4.0847-3.1256-4.2651-1.8701-0.7865-0.48277-4.4675 3.1821-8.4436 7.9074-8.5784 27.396-16.152 38.56-14.985 6.6996 0.7003 9.4397 2.1589 9.346 4.975-0.0881 2.6549 0.79059 6.7519 10.786 50.278 13.307 57.947 14.897 64.738 18.543 79.22 1.8965 7.5309 3.4482 14.1 3.4482 14.597 0 0.4975-1.6609 1.1616-3.691 1.4752-2.03 0.3137-4.5789 0.8381-5.6641 1.1655-1.6694 0.5034-2.5283-0.5268-5.5795-6.6932zm-17.92-58.802c-2.9274-7.8267-6.3012-16.445-7.4974-19.152-1.1962-2.7066-3.7093-9.1231-5.5846-14.259-6.4963-17.789-15.749-38.065-17.715-38.819-3.1521-1.2095-2.1791 3.108 3.5258 15.645 3.3173 7.2905 7.5255 17.145 9.3515 21.899 6.8011 17.706 22.37 51.532 22.936 49.833 0.16824-0.5047-2.0892-7.3214-5.0166-15.148zm8.8098-14.58c-1.3795-6.5335-4.2294-18.207-6.3331-25.942-2.1037-7.7345-4.3441-16.277-4.9787-18.984-0.63453-2.7068-2.2544-8.5753-3.5998-13.041-1.9378-6.4328-2.8315-8.1201-4.3009-8.1201-1.0202 0-2.0335 0.5358-2.2518 1.1908-0.45702 1.3711 1.4532 9.9398 3.0258 13.573 0.58579 1.3534 2.8889 9.534 5.118 18.179 2.2291 8.6451 5.5687 19.598 7.4215 24.339 1.8527 4.7412 3.3686 9.0336 3.3686 9.5384 0 1.5269 4.195 11.99 4.632 11.553 0.22365-0.2236-0.72207-5.7523-2.1016-12.286zm-254.43 75.447c-2.3976-0.5346-5.4199-1.6665-6.7162-2.516-3.4206-2.2411-9.826-12.109-12.539-19.316-3.1057-8.251-5.4212-24.385-5.4212-37.772v-10.829l12.664-7.5015c6.9654-4.1258 15.574-8.821 19.131-10.434 6.0654-2.7502 23.177-13.247 24.345-14.934 0.99055-1.4307 6.8084 70.377 6.1926 76.434-0.97064 9.5461-1.4161 10.592-7.0415 16.536-8.4987 8.9801-13.049 11.538-20.297 11.41-3.2774-0.059-7.9206-0.5427-10.318-1.077zm-50.911-79.953c-4.4144-3.3543-9.065-6.8576-10.335-7.7849l-2.3085-1.6862 2.4606 0.6301c1.6116 0.4127 2.121 0.2975 1.4764-0.3332-2.2119-2.1652-27.077-17.959-28.273-17.959-0.98142 0-1.2067-1.7183-0.93549-7.1358 0.19647-3.9248-0.11072-20.098-0.68263-35.94-0.57193-15.842-0.79205-29.45-0.48914-30.239 0.3029-0.78935 2.0631-1.7189 3.9115-2.0656 4.3705-0.81992 4.8754-1.8237 2.2419-4.4572-2.1313-2.1313-2.147-2.3935-1.5453-25.873 0.63029-24.597 1.9697-36.583 6.1698-55.216 1.3423-5.9548 4.4574-20.571 6.9223-32.48 8.9163-43.079 24.082-100.64 34.352-130.37 4.6827-13.558 4.7295-13.632 6.7322-10.773 0.88891 1.2691 1.6162 3.0808 1.6162 4.0261 0 1.0872 0.51794 1.5199 1.4099 1.1776 0.90459-0.34712 2.0147 0.63397 3.0976 2.7376 3.9165 7.6082 11.356 17.55 13.132 17.55 2.1128 0 3.9701 4.0739 6.9829 15.317 1.5116 5.6406 1.7285 7.8688 0.91412 9.3904-0.80765 1.5091-1.3834 1.733-2.3638 0.91925-0.95831-0.79532-2.8006-0.51718-7.0672 1.067-3.1741 1.1785-6.0964 2.6306-6.4942 3.2268-1.0491 1.5726-0.90324 7.3656 0.29979 11.911 4.142 15.649 10.748 22.941 17.415 19.225 0.94001-0.524 5.1694-1.8836 9.3986-3.0215l7.6895-2.0687 4.3268 3.9883 4.3268 3.9882 4.6832-2.0075c2.5758-1.1041 5.1424-2.3886 5.7036-2.8543 0.57651-0.47848 3.1038-0.37012 5.8097 0.24908 4.4818 1.0256 5.1371 0.90978 10.206-1.8034 5.1931-2.7796 5.4626-2.8228 6.5264-1.0451 2.6932 4.501 5.8155 7.4005 8.636 8.02l3.0441 0.66861-0.47942 8.016c-0.26367 4.4088-0.79027 8.9018-1.1702 9.9845-0.45381 1.2932-0.17296 1.1244 0.81871-0.49212 2.0065-3.2708 1.9761-2.609-0.56903 12.398l-2.1861 12.89-3.4642-0.0947c-3.1672-0.0865-3.6891 0.31787-6.087 4.7169-1.958 3.5919-2.4999 5.7277-2.138 8.426 1.1896 8.8695-6.4411 27.13-16.473 39.42-18.997 23.273-39.279 41.815-62.977 57.573-22.93 15.247-32.444 19.395-48.229 21.026-7.818 0.80767-7.9926 0.87289-2.6652 0.99509 11.791 0.27053 33.488-6.1635 46.149-13.685 17.488-10.39 41.848-31.773 57.703-50.653 8.1374-9.6899 19.446-26.311 23.914-35.149 3.42-6.7641 13.169-21.767 12.337-18.985-0.32384 1.0827-1.7202 6.9942-3.1031 13.137-4.4879 19.935-12.189 50.293-13.27 52.314-0.58003 1.0838-0.73293 1.9706-0.33974 1.9706s-0.14489 0.69722-1.1957 1.5494c-1.0508 0.85216-1.4034 1.2976-0.78339 0.98991 0.61995-0.30771 1.3791 0.0971 1.687 0.89946 0.30792 0.80241 0.0826 1.3535-0.50084 1.2247-0.58338-0.12884-4.9165 6.8524-9.6291 15.514-4.7126 8.6614-15.56 27.394-24.106 41.627-8.5454 14.233-15.725 26.857-15.954 28.051l-0.41671 2.1726 0.97859-2.21c0.53821-1.2155 4.3885-7.4162 8.5562-13.78 10.587-16.165 26.251-42.876 33.787-57.617 3.4961-6.8387 6.4205-12.342 6.4985-12.229 0.36817 0.53212-5.2599 26.13-6.2808 28.567-0.63851 1.5239-1.161 3.1456-1.161 3.6038 0 0.45811-1.5578 4.4726-3.4619 8.9211-4.4178 10.321-8.7537 22.611-11.8 33.447-1.3185 4.6896-2.6436 9.3713-2.9446 10.404-0.53223 1.8259 0.15108 0.41297 6.6499-13.751 1.7085-3.7236 3.2467-6.3491 3.4183-5.8345 0.24535 0.73603-2.8854 8.0345-7.4122 17.28-0.19879 0.40591 0.0665 0.73818 0.58937 0.73818 0.52295 0 4.4165-7.5602 8.6523-16.8 4.2358-9.2403 8.0126-16.993 8.393-17.228 0.38037-0.23505 0.97397 3.4496 1.3191 8.1882 0.34514 4.7385 0.95294 12.933 1.3506 18.211 0.50673 6.7239 0.35534 10.848-0.50583 13.78-1.4165 4.8228-11.543 25.01-13.814 27.54-0.84053 0.936-3.7933 2.5509-6.5617 3.5886-19.327 7.2446-61.401 24.188-62.612 25.214-1.2386 1.0495-2.769 0.269-9.5026-4.8479zm53.979-48.008c18.805-21.579 25.998-34.997 20.989-39.154-3.1288-2.5967-5.7646-0.33595-10.027 8.6-2.2596 4.7376-6.48 12.157-9.3785 16.488-14.633 21.863-26.456 38.634-28.744 40.772-1.404 1.3125-2.5528 2.8539-2.5528 3.4257 0 1.6135 17.615-16.25 29.713-30.132zm0.37079-46.81c-0.5224-0.52242-1.6072-0.34686-1.2943 0.20946 0.13534 0.2406-1.3036 2.123-3.1975 4.1831l-3.4436 3.7456 4.1637-3.8731c2.2901-2.1302 3.9873-4.0495 3.7717-4.2651zm4.3652-2.6886c1.2714-1.3534 2.0902-2.4606 1.8195-2.4606-0.27067 0-1.5324 1.1073-2.8038 2.4606-1.2714 1.3534-2.0902 2.4606-1.8195 2.4606 0.27067 0 1.5324-1.1073 2.8038-2.4606zm-95.175-2.1197c-0.79324-2.0672-2.1427-0.57245-1.5453 1.7117 0.37728 1.4428 0.76057 1.6878 1.2929 0.82648 0.41615-0.67336 0.52975-1.8155 0.25244-2.5382zm92.348 0.88936c1.2243-1.5611 1.1895-1.5959-0.37161-0.37162-1.6395 1.2858-2.1609 2.0941-1.3508 2.0941 0.20438 0 0.97948-0.77511 1.7224-1.7224zm9.717-6.6437c1.8364-1.8947 3.1175-3.4449 2.8468-3.4449-0.27067 0-1.9946 1.5502-3.831 3.4449s-3.1175 3.4449-2.8468 3.4449c0.27068 0 1.9947-1.5502 3.8311-3.4449zm5.0468-6.1516c1.2243-1.5611 1.1895-1.5959-0.37161-0.3716-0.94734 0.74294-1.7224 1.518-1.7224 1.7224 0 0.81008 0.80826 0.28869 2.0941-1.3508zm-4.0626-4.1831c0.57944-1.0827 0.83208-1.9685 0.5614-1.9685-0.27067 0-0.96622 0.88583-1.5456 1.9685-0.57942 1.0827-0.83205 1.9685-0.56139 1.9685 0.27067 0 0.96622-0.88584 1.5456-1.9685zm7.9996-0.73819c1.2243-1.5611 1.1895-1.5959-0.37161-0.37161-0.94735 0.74295-1.7224 1.5181-1.7224 1.7224 0 0.81008 0.80827 0.28869 2.0941-1.3508zm2.9528-3.937c1.2243-1.5611 1.1895-1.5959-0.37161-0.3716-0.94734 0.74294-1.7224 1.518-1.7224 1.7224 0 0.81007 0.80826 0.28868 2.0941-1.3508zm-7.0153-2.2146c0.57943-1.0827 0.83205-1.9685 0.5614-1.9685-0.27068 0-0.96622 0.88583-1.5456 1.9685-0.57942 1.0827-0.83206 1.9685-0.5614 1.9685 0.27068 0 0.96622-0.88582 1.5456-1.9685zm10.827-2.9528c0.57944-1.0827 0.83205-1.9685 0.56139-1.9685-0.27067 0-0.96622 0.88583-1.5456 1.9685-0.57944 1.0827-0.83206 1.9685-0.56138 1.9685 0.27066 0 0.96621-0.88583 1.5456-1.9685zm-6.8898-3.937c0.57943-1.0827 0.83205-1.9685 0.56138-1.9685-0.27066 0-0.96621 0.88583-1.5456 1.9685-0.57944 1.0827-0.83207 1.9685-0.56139 1.9685 0.27066 0 0.96622-0.88582 1.5456-1.9685zm10.602-53.045c2.3124-3.0352 5.4921-8.176 7.0658-11.424 2.7705-5.7179 4.7833-11.34 3.7-10.335-0.29164 0.27068-6.3446 9.3504-13.451 20.177-11.575 17.634-12.327 19.03-7.22 13.393 3.1354-3.4609 7.5926-8.7759 9.9051-11.811zm-35.496-8.5006c6.4927-2.8938 26.491-16.408 38.673-26.134 12.612-10.07 21.422-19.807 20.479-22.635-0.20628-0.61882-1.6479 0.71157-3.2035 2.9564-5.672 8.1846-20.512 20.506-42.679 35.434-14.499 9.7644-24.991 13.728-27.7 10.464-0.71695-0.86392-1.329-3.8874-1.36-6.719-0.0664-6.0569 2.9806-11.751 9.5201-17.789 3.3407-3.0849 3.5155-3.3969 0.94727-1.6907-8.2507 5.4816-12.938 14.71-11.691 23.02 1.0523 7.0171 6.1367 7.9416 17.014 3.0934zm50.484-48.113c2.9051-1.2526 3.0831-1.4914 1.1362-1.5238-3.0312-0.0506-7.1327 2.9475-11.082 8.1002l-3.1915 4.1644 4.846-4.6277c2.6653-2.5453 6.3962-5.2962 8.2909-6.1131zm-12.472 214.48c0.004-3.7894 0.18227-5.2192 0.39533-3.1769 0.21306 2.0422 0.20949 5.1426-0.007 6.8897-0.21742 1.7473-0.39175 0.077-0.38738-3.7128zm152.71-29.447c-2.4026-6.2909-1.3985-10.294 3.7795-15.067 9.1002-8.3883 22.72-12.306 35.742-10.282 8.7815 1.3653 12.365 3.0616 13.987 6.6204 0.667 1.4639 1.0854 2.7748 0.92981 2.9133-0.15561 0.13831-3.0959-0.20866-6.534-0.77126-14.026-2.2948-34.13 5.5003-42.762 16.58l-3.4523 4.4312-1.6899-4.425zm-4.3311-25.472c-1.1784-5.5229-3.9011-19.915-6.0505-31.983-3.2566-18.284-6.5075-33.899-8.4123-40.406-0.21313-0.72808-1.1752-1.5298-2.138-1.7815-0.9628-0.25177-2.7469-2.336-3.9648-4.6317-1.2178-2.2956-4.8645-7.1104-8.1037-10.699l-5.8895-6.5255 1.6764-3.5155c1.6252-3.4081 1.6106-3.6045-0.47547-6.4262-2.7532-3.724-2.7215-4.0449 0.72865-7.3503l2.8806-2.7598 3.1507 6.2666c4.1939 8.3414 11.475 19.554 12.698 19.554 1.2725 0 0.3223-2.4471-5.2865-13.615-2.467-4.912-4.2581-9.5234-3.9802-10.248 0.27784-0.72408 1.9189-1.8502 3.6468-2.5024 4.2138-1.5906 4.8436-0.75464 7.6269 10.125 2.4961 9.7564 3.8424 13.287 5.0661 13.287 1.1338 0 0.005-7.7155-2.7316-18.678-3.0328-12.147-3.0723-11.825 1.3621-11.14 4.5771 0.70629 4.3673 0.50221 5.0909 4.9538 0.48407 2.9781 1.2577 4.0102 3.9635 5.2879l3.3621 1.5875 0.33821 9.1316c0.18603 5.0224 0.741 10.924 1.2333 13.115 0.52513 2.3372 0.53283 4.6602 0.0186 5.6209-0.61182 1.1432-0.14501 2.9449 1.5463 5.9684 1.3324 2.3819 3.8093 6.9883 5.5041 10.236 1.6948 3.248 7.8147 13.435 13.6 22.638 5.785 9.2028 12.427 20.054 14.759 24.114 2.3324 4.06 5.0357 8.7107 6.0072 10.335l1.7664 2.9528h-6.5719c-4.7719 0-7.7851 0.5929-11.001 2.1648-2.436 1.1907-7.9041 3.2609-12.151 4.6006-5.3187 1.6776-9.1856 3.6698-12.424 6.4004l-4.7018 3.9646-2.1425-10.042zm-91.82-154.79c-2.3226-2.6627-3.1315-4.5424-9.4321-21.919-3.2348-8.9214-8.2898-20.754-11.233-26.295l-5.3519-10.074-3.3079 4.4149c-1.8194 2.4282-3.5064 4.4149-3.749 4.4149-0.24258 0-2.0681-0.48745-4.0566-1.0833-3.2274-0.96695-4.0058-0.81846-7.2499 1.3831-3.177 2.156-4.3674 2.3998-9.4604 1.938-4.8968-0.44404-6.3958-0.17618-9.398 1.6793-3.4877 2.1555-3.6195 2.1645-5.5899 0.38138-1.1099-1.0044-3.702-4.7078-5.7602-8.2297s-5.493-8.3966-7.6328-10.833c-2.1398-2.436-4.581-5.7714-5.4248-7.412-1.8743-3.6437-6.4972-19.214-7.2672-24.477-0.47567-3.251-0.31929-3.7448 1.0229-3.2297 1.9955 0.76577 2.063-0.66049 0.10805-2.283-1.1411-0.94705-1.7954-0.96049-2.8814-0.0593-1.1548 0.95836-2.2773-0.11595-6.3016-6.0311-2.6931-3.9584-8.9643-11.597-13.936-16.975-16.787-18.158-51.745-61.862-63.923-79.917-11.78-17.464-19.258-32.905-23.765-49.073-2.8607-10.262-3.5812-32.501-1.3422-41.429 2.6582-10.599 1.5547-30.847-2.8121-51.595-3.467-16.473-5.2218-29.735-4.1614-31.451 1.4763-2.3888 3.7044 1.27 10.467 17.188 4.0028 9.4222 7.4176 16.731 7.5885 16.242 0.37961-1.0871-7.8554-25.281-12.064-35.443-2.0797-5.0216-3.7835-7.6966-5.3288-8.3662-2.1476-0.93051-2.235-1.3336-1.6007-7.3819 1.3951-13.303 10.935-39.257 18.512-50.363 1.3549-1.986 2.2451-3.8292 1.9782-4.0961-0.26685-0.26684 0.19613-1.7423 1.0288-3.2789l1.514-2.7937 0.0393 5.1674c0.0216 2.842 0.3575 5.1673 0.74627 5.1673 0.38876 0 1.6902-1.1444 2.892-2.5431l2.1852-2.543 2.5501 4.7576c2.6966 5.0308 2.6797 4.39-0.13373-5.0849-3.5344-11.903-1.4742-35.138 4.4947-50.689 3.387-8.8247 3.3412-8.8016 8.0778-4.0651 2.3014 2.3014 5.4455 4.4367 6.9868 4.7449 2.4077 0.48155 3.5896 2.1017 8.3933 11.505 9.9742 19.525 25.277 40.651 32.241 44.509 1.8783 1.0406 1.8906 1.2172 0.30878 4.4292-0.90613 1.8399-1.871 4.0885-2.1443 4.9968-0.50461 1.6776-15.16 11.76-25.465 17.519-3.1127 1.7396-5.9579 3.6458-6.3227 4.236-1.0647 1.7227 14.127-6.8925 24.039-13.633 5.0074-3.4049 9.1044-5.8333 9.1044-5.3963 0 0.43697-0.68854 1.3659-1.5301 2.0644-0.84156 0.69844-2.0044 2.1922-2.5841 3.3194-0.76677 1.491-0.1487 1.2115 2.2683-1.0257 2.245-2.078 4.2915-3.062 6.3114-3.0348l2.9891 0.0404 0.40946 8.9403c0.22521 4.9172 0.40775 17.799 0.40567 28.625-0.003 16.456-0.36953 21.542-2.2336 31.004-5.5525 28.186-15.236 52.659-24.858 62.825l-4.0337 4.2616-2.8462-3.2774c-1.5654-1.8026-3.605-4.4954-4.5326-5.9841-2.8699-4.6063-3.9857-3.414-3.0701 3.2806 1.8069 13.212 4.8356 22.772 8.3186 26.254 6.3489 6.349 18.792 25.284 25.724 39.146 9.7944 19.586 12.271 25.993 14.218 36.778 4.7274 26.19 13.426 49.467 25.234 67.524 2.4779 3.7894 4.5252 7.3223 4.5494 7.851 0.0754 1.6434 9.6492 3.1957 24.253 3.9325 7.7066 0.38883 14.714 1.081 15.571 1.5381 0.85755 0.45714 2.688 1.0654 4.0676 1.3517 2.5135 0.52164 9.6915 5.4167 9.7589 6.6551 0.0198 0.36249-2.1787 1.3947-4.8854 2.2937-2.7067 0.89902-4.9703 2.1526-5.0302 2.7858-0.5088 5.3764 2.1847 11.357 7.701 17.098 4.0631 4.2288 9.725 16.227 13.52 28.65 1.2716 4.1629 3.7402 11.334 5.4858 15.935 1.7456 4.6014 5.2815 13.903 7.8577 20.669 2.5762 6.7668 5.0022 13.41 5.391 14.764 0.66799 2.3245 0.54133 2.2837-2.2896-0.73818-3.3946-3.6236-7.0447-4.2912-7.0447-1.2884 0 1.0507 0.43784 2.181 0.97298 2.5118 0.55795 0.34482 0.72295-0.0503 0.38682-0.92617-1.0432-2.7185 2.0158-1.6634 5.3134 1.8326 3.5297 3.7421 3.9117 5.5995 1.6227 7.8885-1.9738 1.9738-2.722 1.945-4.572-0.17576zm-137.61-217.33c-4.0465-4.0923-13.251-11.892-20.456-17.332-7.204-5.4401-12.863-10.126-12.575-10.414 0.2876-0.2876 3.0814 1.3419 6.2085 3.621l5.6856 4.144-4.9213-4.1852c-8.4195-7.1602-17.161-16.576-19.322-20.812-2.9265-5.7364-2.2105-15.951 1.9459-27.761 1.7075-4.8516 3.1046-9.358 3.1046-10.014 0-0.67337-2.112 0.16802-4.8479 1.9313-4.3772 2.8212-4.9593 3.6354-5.9948 8.3859-1.6929 7.766-0.8889 23.344 1.4556 28.203 2.7282 5.6548 13.89 16.423 28.088 27.098 6.7668 5.0878 15.847 12.686 20.177 16.884 4.3307 4.1985 8.0844 7.6465 8.3415 7.6622 0.25714 0.0157-2.8433-3.3196-6.8898-7.412zm-37.076-30.544-2.7616-2.5509 3.1988 2.1258c2.9302 1.9473 3.8848 2.976 2.7616 2.976-0.24049 0-1.68-1.1479-3.1988-2.5509zm17.518-149.34c1.2093-8.2447 0.62224-10.199-2.7432-9.1304-1.02 0.32375-2.6618 1.9551-3.6484 3.6253-1.6468 2.7877-1.7318 4.6231-1.0369 22.393l0.75686 19.356 2.7711-14.272c1.5241-7.8494 3.2794-17.737 3.9006-21.973zm261.74 393.1c-0.56038-1.0471-1.0189-2.3736-1.0189-2.9477 0-1.5013 7.7582-4.7082 11.811-4.8822 1.8947-0.0814 4.7154-1.077 6.2681-2.2125 2.3002-1.6821 2.9812-1.8152 3.6759-0.71861 0.46897 0.74027 0.85945 1.8275 0.86774 2.4162 0.0171 1.2099-17.775 10.249-20.174 10.249-0.22615 0-0.86968-0.85672-1.4301-1.9038zm-3.4142-9.1691c-0.20076-0.67668-0.93259-3.4449-1.6262-6.1516-0.69364-2.7067-3.4181-9.558-6.0544-15.225-3.0546-6.5662-4.5991-11.077-4.258-12.436 0.43318-1.7259 0.0208-2.2323-2.1619-2.6552-1.6381-0.31739-3.3256 0.0414-4.2978 0.91368-0.88035 0.78995-5.1793 2.5353-9.5532 3.8785s-8.2196 2.8744-8.5461 3.4026c-1.0214 1.6526-3.7039 1.125-3.0426-0.59837 0.8483-2.2106-24.331-75.498-32.506-94.609-4.2697-9.9827-4.1687-13.234 0.44004-14.169 1.7947-0.36412 4.2308-1.5348 5.4134-2.6016 1.1826-1.0667 3.9063-3.1046 6.0525-4.5286l3.9022-2.5891 3.1763 3.0786 3.1763 3.0786 8.4633-1.7761 8.4633-1.7761 1.5582 2.2246c1.2626 1.8026 2.1418 2.1058 4.6354 1.5985 1.6925-0.34437 3.9631-0.57775 5.0458-0.51861 10.452 0.57082 17.129-1.7872 20.111-7.1015 1.5484-2.76 1.6311-2.3107-2.6224-14.246-0.2887-0.81007 0.54506-0.92949 2.8633-0.41016 1.7988 0.40296 4.9315 0.5366 6.9615 0.29696 3.5079-0.41408 3.6905-0.29608 3.6811 2.3787-0.005 1.5479 0.8772 6.5792 1.9614 11.181 1.0842 4.6014 4.1481 19.661 6.8087 33.465 5.3843 27.936 5.2665 23.363 1.445 56.103-0.85303 7.3081-1.7848 22.688-2.0706 34.178l-0.51963 20.89-4.5457 2.2211c-2.5002 1.2216-4.8779 2.1188-5.2839 1.9936-0.40602-0.12513-0.7382 0.2154-0.7382 0.75674 0 1.4363-5.9012 1.207-6.3324-0.24606zm-76.569-27.067c-2.4516-5.2781-5.4186-12.918-6.5932-16.978s-7.5038-22.884-14.065-41.831c-10.337-29.851-12.354-34.849-15.111-37.445-4.1009-3.861-6.8521-10.152-5.4426-12.446 0.80897-1.3163 0.50114-2.0408-1.4805-3.4843-4.913-3.5789-0.48544-9.6086 11.52-15.688 6.1498-3.1144 14.917-4.0825 21.33-2.3555 3.8383 1.0336 4.4536 1.677 7.6247 7.974 3.2052 6.3648 3.4056 8.9082 0.41812 5.3085-2.9093-3.5054-12.741-6.1137-12.741-3.38 0 0.54135 0.90782 0.98426 2.0174 0.98426 3.2095 0 7.34 2.5815 8.6178 5.3859 0.64672 1.4194 1.1759 4.5161 1.1759 6.8816s0.42868 4.4485 0.95261 4.6289c0.52395 0.18046 2.2791 4.7572 3.9004 10.171 3.1837 10.63 12.445 38.235 23.59 70.316 3.8444 11.066 6.9898 20.256 6.9898 20.423 0 0.16715-1.0972 0.30392-2.4382 0.30392-3.3776 0-14.648 4.3644-20.383 7.8935-2.622 1.6133-4.9153 2.9334-5.0962 2.9334-0.18088 0-2.3347-4.3184-4.7864-9.5965zm-51.572 0.65336c-1.6913-0.49036-3.6844-1.6406-4.4292-2.5562-1.2073-1.4841-1.1407-1.5751 0.61442-0.83883 1.0827 0.45417 3.0758 0.90775 4.4292 1.0079 1.4109 0.10444 2.5964 0.8805 2.7789 1.8192 0.17504 0.90036 0.17504 1.5971 0 1.5482-0.17502-0.0487-1.702-0.48995-3.3933-0.98032zm-74.701-6.012c-1.6668-1.3111-3.2872-4.7931-5.3671-11.533-3.4618-11.218-3.5757-12.429-1.257-13.37 6.4785-2.6272 12.057-4.1786 12.057-3.353 0 0.5359 2.2054 3.6244 4.9009 6.8633 4.7006 5.6484 7.4348 9.7488 6.7439 10.113-0.17919 0.0946-2.2127 1.6313-4.5189 3.415s-5.8495 3.9462-7.874 4.8057c-2.0581 0.87374-3.1056 1.7648-2.376 2.0211 0.71777 0.2521 4.8555-1.3944 9.195-3.659s8.0156-3.9736 8.1692-3.7979c0.15357 0.1757 0.55098 1.2071 0.88311 2.292 0.53643 1.7521-0.44483 2.3138-8.7823 5.0265-9.3145 3.0306-9.4045 3.0396-11.774 1.1759zm12.292-16.892c-0.029-1.963-0.122-1.9898-1.3388-0.38683-1.8688 2.4619-2.8529 2.1293-1.4561-0.49213 1.07-2.0081 1.0274-2.0886-0.4575-0.86373-1.9367 1.5976-2.1368 3.7244-0.4072 4.3277 2.1065 0.73477 3.6923-0.38535 3.6596-2.585zm61.557 17.068c0.34004-0.55018 1.0305-0.74551 1.5345-0.43404 1.3652 0.84373 1.1106 1.4344-0.61823 1.4344-0.84396 0-1.2562-0.45015-0.91625-1.0003zm23.144-5.3338c-0.54599-1.4361-1.2799-3.8095-1.6308-5.2743-0.35096-1.4648-1.2517-3.8813-2.0016-5.37-0.74995-1.4887-1.1532-2.7067-0.89622-2.7067 0.93229 0 5.4637 6.5893 6.9071 10.044 1.2936 3.0961 1.2995 3.6896 0.0469 4.7292-1.175 0.97519-1.6109 0.71958-2.4252-1.4222zm-24.631-71.014c-1.3534-0.75001-3.2727-1.3702-4.2652-1.3781-0.99249-0.007-5.2002-0.86496-9.3504-1.9044s-10.745-2.3703-14.654-2.9574c-10.686-1.6049-12.452-2.9843-22.072-17.236-8.6183-12.769-14.922-24.527-19.173-35.764-2.8114-7.4314-2.8776-8.4023-0.52187-7.6546 1.0286 0.32647 2.8395-0.20432 4.1831-1.2261 1.3031-0.99101 4.5838-2.6047 7.2905-3.5859 2.7067-0.98124 10.364-3.9983 17.017-6.7046 9.6498-3.9256 12.379-5.4686 13.497-7.631 1.6718-3.233 3.4912-4.0713 7.2182-3.3259 2.6148 0.52297 3.0595 1.4422 7.9616 16.46 2.8557 8.7481 5.3968 16.431 5.647 17.073 0.79411 2.0381-4.2778 4.3911-11.39 5.2842-3.7845 0.47521-10.79 2.3738-15.568 4.2191-10.068 3.8882-23.329 10.395-22.624 11.101 0.72915 0.72915 11.586-2.2691 22.238-6.1412 5.2076-1.8931 11.947-3.8158 14.976-4.2728 3.0294-0.45699 7.4247-1.7569 9.7673-2.8888 2.3426-1.1318 4.3464-1.9502 4.4529-1.8186 0.1064 0.13161 1.5993 4.8006 3.3175 10.375 2.1092 6.8437 3.6694 10.304 4.803 10.652 4.6341 1.423 5.6772 2.7715 6.5988 8.5301 0.40819 2.5507 1.9252 5.114 4.8055 8.1201 2.765 2.8857 3.6759 4.394 2.6553 4.3964-2.7042 0.005-7.9514 3.8158-7.9514 5.7726 0 1.0275-0.77509 2.0911-1.7224 2.3635-0.94734 0.27238-2.3868 0.72274-3.1988 1.0008-0.81201 0.27804-2.5836-0.10805-3.937-0.85808zm-49.874-46.098c11.861-6.3208 23.072-10.882 29.205-11.882 5.391-0.8788 6.8898-1.9839 6.8898-5.08 0-2.8468-2.5786-4.1173-4.2304-2.0844-0.65068 0.80079-6.7195 4.3493-13.486 7.8856-23.828 12.452-30.98 16.496-29.178 16.496 0.43349 0 5.2934-2.4009 10.8-5.3354zm-5.5376-12.019c-0.43411-1.6548-0.55355-1.6172-1.1936 0.37579-0.3912 1.218-1.1181 2.2146-1.6154 2.2146-0.50971 0-0.45962-0.83047 0.11482-1.9038 1.4389-2.6886 1.2648-3.4625-0.45751-2.0332-1.7925 1.4876-1.9387 4.5858-0.24606 5.2134 1.8196 0.67461 3.9524-1.7525 3.3977-3.8667zm113.48 19.92c0-4.6542-2.49-9.6225-5.9982-11.968-2.0099-1.3439-3.6361-3.9734-5.4461-8.8059-1.4193-3.7894-3.4112-8.8285-4.4264-11.198s-1.8486-5.4699-1.8519-6.8898c-0.003-1.4199-0.66536-3.8457-1.4712-5.3907-0.80581-1.545-1.2448-3.1656-0.97557-3.6012 0.26925-0.43566-0.84983-1.9191-2.4868-3.2966-2.843-2.3922-2.8895-2.551-1.0371-3.5424 1.0667-0.57086 4.6474-1.2485 7.9573-1.5058 5.4998-0.42762 6.2195-0.25043 8.3589 2.0581 3.3214 3.5838 10.797 18.403 16.832 33.366l5.1604 12.795-3.5702 3.691c-1.9636 2.03-4.0849 3.691-4.7141 3.691-0.62914 0-2.3109 0.91796-3.7373 2.04l-2.5934 2.04v-3.483zm58.634 1.7934c-0.85069-0.85067-1.5467-1.7049-1.5467-1.8982 0-1.3594 3.5825-3.4449 5.9178-3.4449 4.0501 0 4.6978 1.8973 1.567 4.5904-3.1563 2.7149-3.8837 2.8071-5.9381 0.75275zm-117.5-15.62c-3.3936-9.9478-4.9994-16.07-4.5698-17.424 0.42294-1.3325 0.29303-1.8586-0.35935-1.4554-1.9306 1.1932-2.2428-1.3514-0.59251-4.829 5.1283-10.807 23.668-18.538 32.948-13.739 3.4514 1.7848 3.9942 3.9484 0.68932 2.7478-1.218-0.44248-4.8721-0.77421-8.1201-0.73716-7.2104 0.0823-13.823 3.1925-19.931 9.3748-5.4655 5.5318-5.393 7.0461 0.10565 2.2066 5.4525-4.7989 14.792-8.2152 24.351-8.9074l7.4784-0.54145 2.4506 3.3292c2.272 3.0866 13.049 30.288 12.298 31.039-0.18461 0.18462-2.432-0.37862-4.9941-1.2516-6.493-2.2124-14.588-1.4661-21.667 1.9974-5.4928 2.6874-11.877 8.0855-13.871 11.729-0.79168 1.4465-2.0079-1.2022-6.2163-13.538zm81.682 12.93c-0.58023-0.69914-2.1154-3.5599-3.4114-6.3574-1.296-2.7974-2.823-5.658-3.3932-6.3568-0.57023-0.69883-4.2248-8.3573-8.1212-17.019-14.576-32.402-12.417-28.752-17.565-29.693-3.6417-0.66532-4.7244-1.3399-5.4466-3.3934-2.0744-5.8986 3.4871-13.598 13.4-18.552 4.8701-2.4336 7.0934-2.9628 11.975-2.8499l5.9944 0.13857-4.9213 0.60777c-4.8089 0.59391-10.846 3.5555-13.317 6.5326-1.9853 2.3922-0.6909 2.5096 4.774 0.43311 5.5583-2.112 12.967-2.544 15.979-0.93173 2.2469 1.2025 4.8668 5.9363 4.8668 8.7936 0 1.1169 0.42939 2.7998 0.9542 3.7398 1.4531 2.6027 4.1004 12.95 4.6493 18.172 0.3687 3.5081 0.0857 5.0554-1.1512 6.2922-1.4048 1.4048-1.4427 1.8376-0.26391 3.0163 1.0548 1.0548 2.0058 1.1369 4.0714 0.35154 4.7962-1.8235 7.256-1.1217 14.025 4.0018 8.0816 6.117 10.658 9.2823 15.117 18.575 3.3384 6.9566 3.3852 7.2126 1.5145 8.2751-1.0617 0.60302-3.1253 2.24-4.5857 3.6379l-2.6553 2.5415-5.0872-9.765c-2.798-5.3707-4.9421-9.8573-4.7648-9.9702 0.17736-0.11286 1.5655-0.73968 3.0847-1.3929 1.5192-0.65327 2.4896-1.6288 2.1565-2.1678-0.95925-1.5521-4.0054-1.1445-6.4914 0.86853-1.7267 1.3982-2.685 1.5975-3.9331 0.81805-1.9828-1.2383-6.7439 0.4608-9.3449 3.3349-2.5098 2.7734-1.0747 3.3318 4.8871 1.9016 5.7737-1.3851 7.503-0.92987 7.503 1.9751 0 1.0384 1.0945 4.7958 2.4323 8.3499 2.099 5.5766 2.2263 6.541 0.92917 7.0387-0.85672 0.32877-2.3424-0.32409-3.4549-1.5182-2.3519-2.5245-1.3786-2.5122-9.9878-0.12645-8.3732 2.3203-9.0341 2.3646-10.418 0.69733zm41.731-24.781c-0.82866-4.4172-7.9213-12.259-9.584-10.596-0.7708 0.77077-1.7645 0.24505-3.5518-1.879-1.465-1.741-2.7432-2.5259-3.1202-1.9159-0.39038 0.63167-2.0578-0.13655-4.29-1.9765-3.0028-2.4751-4.1922-2.891-6.6959-2.3411-2.7678 0.60794-2.9848 0.48073-2.3878-1.4002 0.4187-1.3192-0.0216-3.0495-1.2153-4.7749-4.7857-6.918-6.5576-16.71-3.7058-20.481 2.3486-3.1052 1.744-5.8394-2.4004-10.855-2.1494-2.6011-3.7764-4.861-3.6154-5.022 0.39758-0.39757 17.143 3.29 25.669 5.6527 10.589 2.9344 14.28 2.425 12.926-1.784-0.59766-1.858-22.401-17.275-34.748-24.57-7.1566-4.2284-15.473-10.98-14.599-11.853 0.93311-0.93311 22.196 10.777 29.36 16.17 5.8746 4.4221 6.6327 4.8181 6.6327 3.4648 0-0.91282-12.745-9.9185-17.224-12.171-1.624-0.81666-6.4064-3.3249-10.628-5.5739-4.2211-2.249-8.2919-4.0891-9.0463-4.0891-5.1722 0 1.3711 7.3826 14.302 16.136 11.836 8.0123 27.413 19.713 27.467 20.633 0.0279 0.46392-0.72468 0.5368-1.672 0.16196-9.1132-3.6058-24.025-5.4895-27.735-3.5036-1.2819 0.68609-2.8227 0.39377-5.5948-1.0615-5.3564-2.8119-15.744-2.0953-23.012 1.5876-7.1296 3.6128-14.326 10.583-16.322 15.81-1.5427 4.0396-1.5308 5.7514 0.0757 10.885 0.52701 1.6839 0.17624 2.1754-1.8254 2.558-4.5052 0.86122-5.3812-0.85905-3.9979-7.8503 0.3491-1.7643 0.21129-3.7574-0.30626-4.4292-0.51755-0.67172-0.64532-2.3286-0.2839-3.682 0.87785-3.2874-0.24601-7.0054-3.6454-12.06-1.5464-2.2993-4.6413-9.331-6.8775-15.626l-4.0659-11.446 7.0556-0.65224c17.614-1.6283 19.494-1.8888 18.236-2.5271-0.73567-0.37315-5.1024-0.34225-9.7038 0.0686-13.512 1.2066-16.732 1.1024-16.732-0.54112 0-0.96429 2.864-2.2993 8.6122-4.0144 28.565-8.5232 73.396-24.382 81.604-28.868 0.99622-0.54438 3.6858-1.7621 5.9768-2.7061 2.291-0.94396 3.9899-1.8919 3.7753-2.1065-0.2146-0.21458-8.0684 2.7028-17.453 6.4831-29.371 11.831-82.194 29.48-83.645 27.946-0.36583-0.38668-3.1546-8.6755-6.1974-18.42-3.0427-9.7441-6.8915-21.178-8.5527-25.409-1.6613-4.2309-2.865-7.8263-2.675-7.9897 0.19002-0.1634 9.191-0.82282 20.002-1.4654 10.811-0.64253 19.889-1.4006 20.173-1.6846 0.50159-0.5016-17.838 0.13187-34.056 1.1764l-8.0064 0.51562-7.4073-8.8286c-8.2559-9.8399-14.287-19.857-15.147-25.155-0.61343-3.7801 1.0583-4.9729 2.1498-1.5339 0.34363 1.0827 1.0117 1.9685 1.4846 1.9685 1.604 0 2.0558-1.9194 0.94179-4.001-0.61023-1.1402-0.87315-2.3095-0.58424-2.5984 0.28891-0.28889 3.5359 0.19335 7.2156 1.0716 10.748 2.5655 33.292 6.2381 46.061 7.5037 6.4961 0.64389 14.697 1.4776 18.224 1.8526 3.5274 0.37506 7.5136 0.37559 8.8583 0.00098 1.8192-0.50652 1.2063-0.70583-2.3953-0.77884-4.8993-0.0993-16.759-1.5834-40.928-5.1215-18.39-2.6922-39.308-7.4104-41.451-9.3497-0.98299-0.88959-2.4866-4.1097-3.3413-7.1557-0.85471-3.046-3.3201-10.589-5.4786-16.761l-3.9246-11.223 12.58 0.58601c8.3428 0.38864 18.381 1.743 29.804 4.0212 9.4735 1.8894 21.536 3.9615 26.805 4.6048 5.2694 0.6433 9.3402 1.5588 9.0463 2.0343-0.29393 0.4756-1.1574 0.86472-1.9188 0.86472-0.76141 0-2.7251 1.3106-4.3638 2.9125-5.4515 5.3291-10.658 6.2488-36.761 6.4942-12.888 0.12115-23.666 0.45436-23.953 0.74048-2.4682 2.4682 22.747 5.1434 40.865 4.3355 18.682-0.83305 25.403-3.5909 29.761-12.211 1.4792-2.9259 4.5181-4.513 3.4847-1.8198-0.64041 1.6689 0.84541 2.1042 1.8169 0.53238 0.33456-0.54134 3.1289-0.99773 6.2097-1.0142 11.581-0.0619 0.11033-2.9453-21.466-5.3961-17.613-2.0007-32.698-4.4764-34.135-5.6022-0.6391-0.50074-9.5014-1.4022-19.694-2.0033l-18.532-1.0928-5.0881-14.345-5.0882-14.345 2.5647-2.6964c3.0764-3.2344 2.5738-3.9697-2.7136-3.9697-7.5296 0-8.1546-5.0717-2.5373-20.59 7.5366-20.82 10.598-37.632 10.352-56.849-0.11451-8.9465-2.5112-23.925-4.7823-29.887-0.58052-1.5237-1.0555-3.1037-1.0555-3.511 0-0.77387 11.167-4.587 11.523-3.9345 0.11202 0.20566 0.81952-0.46828 1.5722-1.4976 2.1974-3.0051 2.7174-0.47512 1.6264 7.9127-0.55357 4.2561-1.0234 13.828-1.0439 21.272-0.0306 11.058-0.29476 13.534-1.444 13.534-1.8112 0-1.8252 1.5972-0.0202 2.2899 1.0014 0.38427 1.4044 2.4548 1.4513 7.4554 0.0795 8.4953 3.3382 24.954 6.4634 32.645 10.012 24.639 37.291 45.562 63.288 48.542 5.5487 0.636 10.089 0.81043 10.089 0.38763 0-0.42282 1.1541-0.76876 2.5646-0.76876 4.1823 0 14.347-2.9272 18.874-5.4356l4.2144-2.3349 3.0184 4.1313c1.6601 2.2722 6.9171 11.882 11.682 21.356 4.7651 9.4735 9.815 18.905 11.222 20.959 4.1724 6.0911 3.6597 6.8605-4.0855 6.1303-19.559-1.8442-29.178-3.9558-36.795-8.0776-4.9832-2.6964-7.44-2.7139-9.1082-0.065-4.0722 6.4664 16.221 13.207 36.967 12.279 9.1319-0.40842 10.428-0.27371 9.9268 1.0319-0.57334 1.4941 0.80435 1.4205 6.8265-0.36441 1.1131-0.32988 2.1432 0.41766 3.1049 2.2531 1.4357 2.7402 1.4293 2.75-2.65 4.0755-2.4708 0.80289-11.003 1.5362-21.56 1.8528-17.641 0.52915-23.496 1.9179-10.335 2.4513 9.3108 0.37733 34.242-0.72255 36.291-1.601 1.2184-0.52226 2.3552 0.66916 4.8016 5.0322 6.0205 10.737 23.795 37.205 27.68 41.219l3.878 4.006-3.099 6.8208c-1.7045 3.7514-4.3832 9.6541-5.9527 13.117-7.9527 17.547-10.75 45.42-6.199 61.777 0.77744 2.7944 1.1586 5.6734 0.84711 6.3977-0.57017 1.3256-6.3661 6.2872-15.925 13.632-4.9271 3.7861-6.3998 5.8934-4.1186 5.8934 0.57679 0 4.6738-2.1392 9.1044-4.7538l8.0556-4.7538 2.266 3.4231c2.2806 3.4451 8.4956 24.446 9.9415 33.593 0.77256 4.8873 0.75791 4.9253-2.2701 5.8805-1.6762 0.52877-4.652 1.2437-6.6129 1.5888-3.479 0.61222-3.5816 0.54061-4.2381-2.959zm-97.882-156.61c12.247-2.9318 23.189-5.3305 24.316-5.3305 3.066 0 28.862-5.1002 28.355-5.6064-0.24073-0.24071-4.1344 0.23876-8.6526 1.0655-4.5182 0.82673-12.423 2.2112-17.565 3.0767-5.1428 0.86543-15.551 3.0619-23.13 4.881-7.5788 1.8191-18.098 4.2669-23.376 5.4396-5.2781 1.1726-9.5965 2.3372-9.5965 2.588 0 0.76907 6.4701-0.5651 29.65-6.1138zm56.698-11.831c-0.32705-0.32706-1.176-0.36202-1.8865-0.0776-0.78518 0.31419-0.55195 0.54743 0.59465 0.59464 1.0376 0.0429 1.6189-0.18989 1.2918-0.51695zm5.6422-1.7167c1.8535-1.3553 1.357-3.6567-0.75854-3.5165-0.84521 0.056-0.82902 0.2162 0.0582 0.57415 2.0076 0.8101 1.4123 2.0704-1.4764 3.1254-1.4887 0.54371-2.0162 1.0236-1.1724 1.0663 0.84389 0.0428 2.351-0.51947 3.3492-1.2494zm-2.6894-4.1889c-0.32706-0.32705-1.176-0.36202-1.8865-0.0776-0.78517 0.31419-0.55195 0.54741 0.59465 0.59464 1.0376 0.0428 1.6189-0.18989 1.2918-0.51695zm-4.1626-1.3738c-0.33458-0.54135-1.2204-0.98427-1.9685-0.98427-0.74811 0-1.6339 0.44292-1.9685 0.98427-0.34636 0.56042 0.50127 0.98424 1.9685 0.98424s2.3149-0.42382 1.9685-0.98424zm-6.8898-0.98427c-0.33458-0.54134-1.8848-0.98425-3.4449-0.98425s-3.1103 0.44291-3.4449 0.98425c-0.36792 0.59532 0.99341 0.98427 3.4449 0.98427s3.8128-0.38895 3.4449-0.98427zm-26.575-50.197c-0.33457-0.54135-2.686-0.94011-5.2254-0.88614-3.7803 0.0803-4.1711 0.24091-2.1565 0.88614 3.6093 1.1559 8.0963 1.1559 7.3819 0zm9.7934 0.092c-1.4361-1.3703-13.667-4.8953-23.035-6.6387-10.99-2.0454-21.749-2.8103-19.731-1.4029 0.812 0.56626 3.6061 1.0364 6.2091 1.0446 7.7007 0.0246 17.713 1.9199 25.945 4.9118 7.8474 2.852 12.341 3.735 10.612 2.0852zm-38.583-0.81772c-2.842-0.19883-7.4926-0.19883-10.335 0-2.842 0.19882-0.51674 0.36149 5.1673 0.36149 5.6841 0 8.0094-0.16267 5.1673-0.36149zm-94.735 211.11c-1.671-5.5488-3.6486-12.082-4.3948-14.518-0.74613-2.436-3.1496-10.447-5.3411-17.802-7.5476-25.331-12.944-37.01-21.508-46.547-3.1816-3.5434-3.3966-4.1898-2.9965-9.0137 0.23702-2.8581 1.1744-6.2339 2.083-7.5018 0.90863-1.2679 3.4154-4.7413 5.5705-7.7187 5.2538-7.2583 12.62-22.64 17.323-36.171 2.1166-6.0901 4.1766-11.073 4.5778-11.073 1.2002 0 9.1512 16.58 12.508 26.083 6.1918 17.527 7.8384 31.617 6.0709 51.948-1.24 14.263-0.52031 19.611 3.4517 25.651 2.2768 3.4622 2.3554 3.923 0.93645 5.4909-0.85189 0.94131-1.5489 2.5165-1.5489 3.5004 0 0.98391-1.9931 3.9197-4.4292 6.524-2.436 2.6043-4.4292 5.3396-4.4292 6.0783 0 0.73879 0.70968 3.426 1.577 5.9716 1.2457 3.656 1.3264 4.9304 0.38416 6.0658-0.6561 0.79057-1.4322 5.3197-1.7247 10.065-0.49522 8.0336-2.1281 13.056-4.2444 13.056-0.45584 0-2.196-4.5399-3.8669-10.089zm5.9064-3.1929c0-3.9929 0.43739-8.4102 0.97198-9.8162 0.66274-1.7432 0.6138-3.8957-0.15388-6.7659-1.4868-5.5588-0.67753-8.271 4.0808-13.677 2.1777-2.474 3.9594-5.1168 3.9594-5.8728 0-0.75601 0.4664-1.841 1.0364-2.411 0.72574-0.72574 0.43222-2.0605-0.97913-4.4525-3.8549-6.5336-5.0413-12.459-3.9065-19.511 1.6794-10.437 1.4412-30.862-0.47515-40.743-1.783-9.1932-7.2837-24.923-11.901-34.032l-2.7294-5.3848-4.1951 11.418c-5.0368 13.71-12.165 27.799-17.442 34.474-6.905 8.7356-7.8328 14.338-3.23 19.503 10.061 11.291 14.206 21.805 30.955 78.529 1.1644 3.9435 2.5426 6.907 3.0627 6.5856 0.52004-0.3214 0.94554-3.8513 0.94554-7.8441zm8.6227 3.2278c0.56793-6.334 1.1296-7.0385 4.5685-5.731 1.4768 0.56145 5.5351 1.0208 9.0186 1.0208s6.3274 0.33219 6.3198 0.73819c-0.007 0.40601-4.3028 2.5098-9.545 4.6752s-9.8231 4.0635-10.18 4.2181c-0.35673 0.15456-0.43866-2.06-0.18213-4.9213zm51.406-0.31447c-1.1422-3.4608-1.0681-3.8258 1.1163-5.5056 1.9312-1.4851 2.0389-1.8029 0.61714-1.821-4.8874-0.0621 1.1187-6.2304 9.6111-9.8707 2.4938-1.069 7.4226-2.405 10.953-2.969 5.2925-0.8455 6.9505-0.76003 9.4504 0.48708 3.7431 1.8673 4.5056 1.3288 1.8619-1.3149-6.3141-6.3141-23.534-4.0918-33.341 4.3031-4.3738 3.7438-5.7111 4.2752-4.8029 1.9086 0.39177-1.021-0.3911-2.083-2.3579-3.1988-1.6194-0.91871-3.2028-2.4715-3.5187-3.4507-2.1562-6.6842 15.165-22.331 24.694-22.307 5.3164 0.0134 16.626 2.8739 18.352 4.6414 1.7105 1.7524 2.8461 10.388 1.5381 11.696-0.93299 0.93299 1.1861 3.3214 2.9469 3.3214 1.0804 0 1.2746 0.72603 0.78741 2.9442-0.39135 1.7818-0.11305 4.0164 0.70483 5.6595l1.3515 2.7152-8.9032 0.0327c-7.6014 0.0281-9.7605 0.42945-14.767 2.7459-7.6327 3.5315-11.674 6.679-13.551 10.554l-1.5189 3.1362-1.2233-3.7065zm-24.046-8.7012c0.51178-2.0391 0.1692-2.4125-2.688-2.9299-1.801-0.32614-7.7643-0.65428-13.252-0.7292l-9.9774-0.13618 0.12267-2.5934c0.0674-1.4264 0.51432-2.8743 0.99302-3.2177 0.50106-0.35942 0.47487-1.811-0.0617-3.4207-0.8222-2.4666-0.4592-3.3998 3.0789-7.915 2.206-2.8153 4.39-5.1515 4.8533-5.1916 0.46327-0.0401 4.0482 2.9168 7.9664 6.5709 3.9182 3.654 10.109 8.3848 13.758 10.513l6.634 3.869-3.0334 1.5687c-1.6684 0.86275-3.7238 2.5543-4.5676 3.759-2.1123 3.0157-4.5961 2.9206-3.8263-0.14659zm-5.3286-24.976c-6.7692-6.6959-10.512-11.285-12.383-15.182-2.5957-5.4073-2.6918-6.2088-3.0088-25.099-0.36467-21.733-1.5706-29.794-6.7568-45.165-3.5155-10.419-9.9001-23.869-14.539-30.628-2.8529-4.1566-3.4323-6.2681-2.0885-7.6118 1.0937-1.0937 3.1122-15.891 3.16-23.166 0.0249-3.7796 0.39834-5.9701 0.92302-5.4134 0.48473 0.51428 2.2293 4.8851 3.8768 9.7129 2.678 7.8472 2.8454 8.9922 1.5794 10.8-3.0087 4.2956-0.33638 11.373 5.0705 13.429 4.0859 1.5535 6.2644 7.7487 7.8772 22.401 1.353 12.292 2.3596 16.246 11.329 44.495 6.7239 21.178 11.492 34.356 15.045 41.58l5.2009 10.576-2.0536 4.433c-1.1295 2.4382-2.3856 4.4334-2.7915 4.4338-0.40584 0.00041-5.1036-4.3176-10.439-9.5957zm17.51-5.7534c-0.61366-1.5723-3.685-10.167-6.8252-19.099-3.1402-8.9321-6.2129-17.53-6.8281-19.107-0.91279-2.339-0.80252-3.5162 0.59925-6.3977 1.4615-3.0042 1.7045-6.3222 1.628-22.232-0.13353-27.792-3.4995-49.567-9.5586-61.837-1.8846-3.8163-2.0763-4.853-0.97543-5.2755 1.9362-0.74298 8.1287 0.55306 10.704 2.2402 1.8717 1.2264 2.1074 2.0798 1.7117 6.1975-0.36165 3.7638 0.11672 6.0578 2.2582 10.83 1.4944 3.33 2.4822 6.2894 2.1951 6.5765-0.28712 0.28712 0.37617 2.8247 1.474 5.639 1.5346 3.9341 2.0994 8.1886 2.4432 18.404 0.40077 11.908 0.17233 14.463-2.1998 24.606-2.362 10.1-4.6032 31.815-3.1465 30.486 0.31241-0.28507 1.0563-5.1571 1.653-10.827 0.59674-5.6697 1.9046-13.63 2.9063-17.69l1.8213-7.3819 0.10227 9.9908c0.17772 17.353 4.9278 39.391 10.075 46.743 1.8148 2.5922 1.8123 2.6044-0.87747 4.3105-1.4836 0.94102-3.9004 2.8293-5.3707 4.1962l-2.6732 2.4853-1.1158-2.8588zm12.086-8.511c-1.925-2.3195-5.8643-13.693-7.5216-21.716-1.2374-5.9909-1.5091-12.825-1.3083-32.911 0.13939-13.943-0.11154-28.008-0.55763-31.256l-0.81108-5.9055 3.6142 3.5578 3.6143 3.5578-1.0808 6.9654c-1.4416 9.2911-1.3638 14.012 0.40217 24.422 2.1403 12.616 7.8501 29.626 13.917 41.459 2.8982 5.6525 5.2694 10.398 5.2694 10.546 0 0.14774-1.8824 0.53284-4.1831 0.8558-2.3007 0.32295-5.5366 0.86424-7.191 1.2029-2.0208 0.41365-3.3872 0.15864-4.1638-0.77705zm22.92-0.66484-5.9055-0.57273-4.6852-9.3504c-2.5769-5.1427-6.5088-14.887-8.7378-21.654-3.8863-11.798-4.0725-12.937-4.54-27.749-0.26812-8.495-0.17815-16.678 0.19998-18.185l0.68747-2.7392 1.8722 2.4365c1.4245 1.8539 1.8774 4.0891 1.8941 9.3476 0.0309 9.7686 2.8096 18.637 9.1897 29.328 6.0184 10.085 11.556 21.47 14.927 30.691 1.1877 3.248 2.5004 6.6806 2.917 7.628 0.5222 1.1872 0.3426 1.671-0.57802 1.557-0.73459-0.0909-3.9931-0.42318-7.2412-0.73819zm-7.1155-38.502c-5.033-6.7846-7.8598-13.092-9.6875-21.618-1.6832-7.8513-1.8226-11.637-0.37526-10.19 2.2681 2.2681 15.206 35.067 14.5 36.76-0.15114 0.36265-2.148-1.8657-4.4375-4.952zm-45.057-1.9528c-1.4144-4.2583-1.4775-5.8579-0.4565-11.571 0.77532-4.3384 1.0171-12.75 0.69956-24.34-0.4068-14.848-0.90611-19.366-3.0897-27.953-1.4324-5.6336-3.4702-12.2-4.5284-14.592-2.6701-6.0362-0.17918-5.0004 2.7931 1.1615 3.4743 7.2027 6.9013 24.085 8.0096 39.457 1.6077 22.299 1.1218 42.78-1.015 42.78-0.42425 0-1.51-2.2236-2.4126-4.9414zm-7.1141-17.473c-2.3223-6.0272-4.4945-18.22-6.0986-34.233-0.83546-8.3398-2.8675-16.254-4.6542-18.127-0.24321-0.25498-0.8426 0.18424-1.332 0.97604-0.65197 1.0549-1.1817 1.1477-1.9823 0.34709-1.6806-1.6805 1.1825-7.5217 5.1822-10.572 1.8679-1.4247 3.6673-2.5904 3.9986-2.5904 1.1842 0 5.7539 16.398 7.6333 27.391 2.168 12.682 2.4509 29.499 0.62728 37.301l-1.2025 5.1446-2.1718-5.6367zm220.3-1.4536c-1.828-3.3834-4.1078-7.0374-5.0661-8.1201-0.95832-1.0827-4.4735-7.062-7.8116-13.287-7.1441-13.324-17.773-30.785-18.374-30.184-0.23152 0.2315 1.418 4.3462 3.6655 9.1438 3.9107 8.3478 9.2933 21.392 14.266 34.574 1.2765 3.3834 1.8689 6.1516 1.3164 6.1516-2.1138 0-16.827-16.124-27.393-30.02-6.6568-8.7546-23.024-36.154-23.024-38.543 0-0.67894-0.5831-1.4582-1.2958-1.7316-0.71267-0.27348-1.0532-1.1294-0.75665-1.9021 0.63293-1.6494-8.0796-19.41-13.35-27.213-2.0108-2.9774-4.2387-6.5207-4.9509-7.874-1.2234-2.3248-1.1957-2.3791 0.50211-0.98427 2.6984 2.2169 22.4 24.707 27.118 30.954 2.2686 3.0047 4.2864 5.4631 4.484 5.4631 0.42086 0-12.897-20.982-21.867-34.449-11.578-17.384-15.157-22.124-22.859-30.266-6.9358-7.3331-8.0343-8.1201-11.334-8.1201-3.9719 0-4.1305-0.22036-5.0344-6.997-0.57228-4.2904-1.1762-5.0375-11.138-13.78-5.7932-5.0838-14.69-13.136-19.77-17.895-14.063-13.171-13.011-9.8122 2.7088 8.6516 4.609 5.4134 9.0183 10.61 9.7984 11.549 1.1762 1.4148 1.2348 2.927 0.34313 8.8583-0.59137 3.9337-1.3661 12.135-1.7216 18.225l-0.64643 11.073h-4.2768c-10.578 0-28.745-9.8614-41.702-22.638-14.636-14.431-20.346-26.027-23.067-46.843l-1.4033-10.736 7.0349-7.3819c8.0619-8.4596 6.4884-8.179 23.463-4.1843l11.507 2.708 2.0269 6.1723c1.1148 3.3947 2.0269 7.883 2.0269 9.9738 0 2.9436 0.4339 3.915 1.9228 4.3044 2.2787 0.59589 5.542-1.4995 4.6309-2.9735-0.35027-0.56674 0.0251-1.2844 0.83388-1.5948 1.4778-0.56707 2.0419-4.6482 0.81241-5.8777-0.36208-0.36207-1.4964 0.10022-2.5207 1.0271-2.34 2.1177-2.7661 1.4822-5.1382-7.6634l-1.8094-6.9763 2.563-2.563c2.8495-2.8496 2.5179-3.2405 5.0824 5.9915 0.98639 3.5509 2.0401 5.568 2.7741 5.3102 1.436-0.5044 1.1356-4.1621-0.98727-12.02-0.87745-3.248-1.7814-7.9215-2.0087-10.385-0.36988-4.0092-0.15643-4.597 2.0315-5.5939 2.041-0.92996 2.5411-0.84028 3.0278 0.54293 1.0474 2.9768 6.023 10.355 7.2613 10.768 2.0747 0.69156 1.3766-5.003-1.2472-10.175-1.3511-2.6631-2.4584-5.5336-2.4606-6.3789-0.004-1.7101 3.4894-5.8451 4.9389-5.8451 0.51113 0 2.0095 2.1317 3.3298 4.737 2.4366 4.8083 5.1115 7.7974 6.0965 6.8124 1.5245-1.5245-1.2468-10.208-5.6265-17.629-5.0607-8.575-5.4208-10.237-2.6023-12.012 1.4432-0.90884 2.9338 0.13758 9.5129 6.6781 4.2908 4.2657 9.0572 9.454 10.592 11.53 1.5347 2.0756 3.271 3.7844 3.8584 3.7972 0.58746 0.0128 3.0123 3.8402 5.3885 8.5052 4.5844 9.0002 6.0773 10.41 8.4796 8.0077 1.6581-1.6581 0.77789-4.2948-2.7206-8.1492-1.6724-1.8425-1.7348-2.9244-0.81969-14.224 1.1636-14.368 2.6216-18.282 9.2738-24.892 2.5973-2.5809 4.8426-4.5722 4.9896-4.4252 0.14705 0.14703-0.0438 2.7016-0.42396 5.6767-0.77444 6.0599 0.25176 9.9773 3.0756 11.741 1.5495 0.96768 2.241 0.87397 3.7716-0.51122 1.0308-0.93289 1.8742-2.5298 1.8742-3.5488 0-1.5808 0.83041-1.2857 5.6595 2.0114 8.2367 5.6237 10.342 8.2265 10.65 13.164 0.14415 2.3135 0.81429 8.4578 1.4892 13.654 0.67491 5.1961 0.96768 10.124 0.65061 10.95-0.39616 1.0324-2.6641 1.7259-7.2499 2.217-3.6704 0.39308-7.6346 1.0801-8.8094 1.5268-2.0333 0.77307-2.1598 0.49647-2.6329-5.759-0.45715-6.045-4.016-19.031-7.2135-26.323-0.72827-1.6607-1.8856-5.9791-2.5718-9.5965-0.68619-3.6174-1.5342-6.577-1.8844-6.577-1.0373 0-1.8671 5.6846-1.8671 12.791 0 4.4553 0.97252 10.001 2.9561 16.855 1.6258 5.6186 3.3978 14.056 3.9377 18.749 0.53993 4.6934 1.2236 9.164 1.5192 9.9345 0.29568 0.77051 0.0928 9.242-0.45075 18.826-0.71754 12.651-0.68689 18.086 0.11185 19.839 1.208 2.6512 1.8521 2.9214 3.3629 1.4106 0.68243-0.68243 2.1861 0.71244 4.6951 4.3554 5.3645 7.789 19.3 20.797 30.62 28.582 5.4134 3.723 11.171 8.004 12.795 9.5135s4.7098 3.4774 6.8573 4.3732c2.1475 0.89579 9.8174 5.6238 17.044 10.507 15.197 10.268 20.825 16.304 26.676 28.606 6.0591 12.74 8.3368 21.573 7.6032 29.487-0.41354 4.4617-0.26848 6.6437 0.44167 6.6437 0.60954 0 0.79281 0.8338 0.43268 1.9685-0.47924 1.5099-0.17687 1.9685 1.2979 1.9685 3.0212 0 5.4766-6.2322 5.4291-13.78-0.0557-8.8488-2.88-15.531-11.942-28.255-9.0706-12.736-19.374-23.752-30.71-32.837-10.618-8.5086-12.146-10.341-11.994-14.386 0.182-4.8409 4.0019-12.887 7.1988-15.163 3.0672-2.184 3.3622-2.0987 9.2667 2.6791 4.3413 3.5129 18.886 10.798 19.778 9.9065 0.96054-0.96054-0.45863-2.351-6.2855-6.1584-3.1137-2.0346-8.7238-6.1743-12.467-9.1994-3.7431-3.0251-7.5794-5.3691-8.525-5.2089-0.94565 0.16021-1.9519-0.0852-2.2362-0.54491-0.5578-0.90255-2.1489-16.063-3.1607-30.116-0.35087-4.8732-1.0009-8.3388-1.4751-7.8646-1.2973 1.2972-4.0782 31.718-3.3707 36.872 0.34328 2.5006 1.2815 5.8136 2.0849 7.3622 1.135 2.1877 1.1857 2.9074 0.22733 3.2268-1.4863 0.49541-4.8513 3.9418-6.4207 6.5759-1.0532 1.7676-1.2558 1.6367-2.7067-1.7487-0.86258-2.0126-1.5683-4.9362-1.5683-6.4968s-0.43782-4.1216-0.97292-5.6911c-1.7399-5.1032-5.9599-36.983-6.5809-49.716-0.68542-14.054 0.37042-18.591 4.3265-18.591 1.2373 0 2.8781-1.0385 3.7548-2.3764 2.3066-3.5204 9.4276-4.8904 22.008-4.234 14.995 0.78232 34.684 5.1534 38.792 8.6121 0.64493 0.54296 3.1657 2.2729 5.6017 3.8443 12.429 8.0178 23.635 29.755 23.614 45.808-0.0103 7.8581-4.9982 27.667-8.6769 34.459-2.9854 5.512-2.7448 7.3256 0.72552 5.4683 1.0583-0.56638 2.1142-1.0298 2.3465-1.0298 0.23228 0 0.96134 2.7682 1.6201 6.1516s1.6401 8.3662 2.1808 11.073c0.54065 2.7067 1.2304 11.122 1.5327 18.701 0.66629 16.703-1.0271 27.726-6.4933 42.268-3.9553 10.522-5.8156 12.83-5.2083 6.4618 0.20696-2.1703 0.0797-3.946-0.28279-3.946-0.36251 0-2.3911 3.6541-4.5079 8.1201-2.1168 4.4661-5.5838 10.062-7.7044 12.435l-3.8555 4.3144-9.5502-8.0758c-5.2526-4.4417-9.784-7.8419-10.07-7.5562-0.57699 0.57698 9.8009 16.221 13.209 19.912 1.1932 1.2922 3.2948 2.3473 4.6752 2.3473 1.3792 0 2.5076 0.2551 2.5076 0.5669 0 0.31178-1.9239 3.08-4.2754 6.1516-2.3514 3.0716-4.5716 6.7912-4.9336 8.2658-0.84398 3.4376-15.3 15.528-18.566 15.528-0.17258 0-1.8095-2.7682-3.6375-6.1516zm-142.55-206.4c0.33608-1.2852 0.0808-1.7357-0.79336-1.4003-1.8262 0.70076-2.6394 3.2951-1.0329 3.2951 0.7319 0 1.5537-0.8527 1.8262-1.8949zm3.0697-6.7522c0.77972-1.5078 2.5628-3.3543 3.9623-4.1034 3.3338-1.7842 3.2303-2.9977-0.25561-2.9977-3.421 0-5.6727 2.3898-6.2599 6.6437-0.54151 3.923 0.6506 4.1365 2.5532 0.45733zm6.9782-16.793c0.64503-3.843 0.95799-4.2324 3.0762-3.8274 1.8048 0.34499 2.358 0.0209 2.358-1.3813 0-2.146-4.0674-2.5758-5.6941-0.6017-0.80135 0.97247-3.1642 11.01-3.1642 13.441 0 2.1342 2.8518-4.2212 3.4241-7.6308zm11.318-17.129c0.0426-1.4364 2.891-0.71381 3.8801 0.98426 0.93478 1.6049 1.0053 1.6073 1.0332 0.0346 0.0164-0.92831-0.93821-2.206-2.1215-2.8392-1.863-0.99706-2.4567-0.79647-4.4292 1.4966-1.2528 1.4564-2.2679 3.3984-2.2558 4.3156 0.0172 1.3048 0.44056 1.1323 1.9466-0.79308 1.0586-1.3534 1.9346-2.7928 1.9466-3.1988zm-118.75 174.67c-1.7951-5.4905-2.7257-9.7871-2.1913-10.117 0.51086-0.31572 0.0988-1.3252-0.91568-2.2433-1.0145-0.91807-2.8522-4.8717-4.0839-8.7858-1.2316-3.9141-3.9554-11.679-6.0528-17.254-3.574-9.5012-4.8058-15.945-3.0482-15.945 1.9321 0 5.6715 3.7082 9.1205 9.0446 4.7487 7.3472 7.9573 17.015 11.828 35.639l3.0478 14.664-2.2923 2.2709-2.2923 2.2709-3.1201-9.5433zm1.7922-7.2657c-1.9795-7.2001-8.9487-24.828-9.57-24.207-0.18019 0.1802 1.2417 4.2802 3.1598 9.1112s3.5882 9.6872 3.7114 10.792c0.12319 1.1043 0.69503 2.8937 1.2708 3.9764 0.57571 1.0827 1.3628 3.4396 1.749 5.2377 0.38624 1.7981 0.91853 3.0529 1.1829 2.7886 0.26434-0.26433-0.41231-3.7286-1.5037-7.6984zm5.3352-2.781c-4.5092-23.812-9.278-35.367-17.861-43.278-4.4083-4.0635-4.4642-4.1901-2.7056-6.1346 2.6643-2.946 8.6543-5.7131 12.368-5.7131h3.2684l0.20583 9.1044c0.43533 19.256 4.2841 38.028 10.147 49.492 2.1466 4.1974 3.782 7.6997 3.6344 7.7829-0.78426 0.44175-5.8238 2.5184-6.1115 2.5184-0.18534 0-1.5106-6.1974-2.945-13.772zm12.817 9.9842c-0.29476-0.4769-0.75393-3.4738-1.0204-6.6598-0.26653-3.186-0.2249-4.9134 0.0925-3.8387 0.31738 1.0747 1.1457 3.8435 1.8407 6.1528 1.1204 3.7228 0.50703 6.643-0.9128 4.3457zm4.2616-0.88749c-0.0415-0.406-0.23023-1.4026-0.41958-2.2146-1.6437-7.0489-2.4501-12.944-2.4083-17.605l0.0496-5.5251 4.2831 11.995c2.3557 6.5973 4.5741 12.466 4.9298 13.041 0.41042 0.66406-0.63309 1.0463-2.8563 1.0463-1.9266 0-3.5369-0.33219-3.5783-0.7382zm-11.44-12.189c-4.7707-12.296-7.1859-26.292-7.1859-41.641 0-5.7157 0.19262-10.392 0.42805-10.392 0.23544 0 1.5939 0.44325 3.0189 0.98502 1.8727 0.71199 2.435 1.476 2.0286 2.7563-0.3092 0.97422 0.80121 5.7352 2.4676 10.58s2.9768 10.58 2.9121 12.746c-0.0646 2.1654-0.43269 9.9164-0.81772 17.224l-0.70004 13.287-2.1515-5.5453zm98.49-44.898c0.29335-2.03 0.82086-8.9266 1.1722-15.326 0.70977-12.926 1.6045-14.47 6.0204-10.389 2.4456 2.2597 14.101 19.188 14.101 20.48 0 1.2-10.74 7.1451-14.474 8.012-6.8576 1.592-7.4173 1.364-6.8189-2.7771zm-129.79-8.6455c3.0101-2.5674 15.821-8.339 18.39-8.285 1.2535 0.0263-1.1723 1.3306-5.3907 2.8983-4.2184 1.5678-9.3119 3.7989-11.319 4.9581-2.3123 1.3355-2.928 1.4925-1.6806 0.42861zm-8.6451-4.6786c-6.625-8.2197-13.21-17.52-18.739-26.465-7.5764-12.257-16.415-29.549-16.415-32.114 0-1.4974-0.8914-1.8512-5.1554-2.0457-3.0461-0.13898-5.865-0.87743-6.8898-1.8048-8.6842-7.8591 15.338-31.348 39.085-38.217 7.3365-2.1222 23.527-1.4013 29.013 1.2919 4.64 2.278 9.3549 9.4431 9.3549 14.216 0 3.7516-2.2316 7.3578-3.0974 5.0052-1.3085-3.5557-5.2326-7.9129-8.682-9.6401-3.0942-1.5494-5.9014-1.9657-13.274-1.9685-8.2876-0.003-10.33 0.37621-17.967 3.3378-8.9989 3.4896-19.441 11.062-19.113 13.861 0.0936 0.79987-0.36118 1.4642-1.0108 1.4764-1.2329 0.0231-4.1582 2.4827-2.9528 2.4827 0.37893 0-0.19685 0.88583-1.2795 1.9685-2.1191 2.1191-2.5736 3.937-0.98425 3.937 0.54134 0 0.98425-0.63003 0.98425-1.4001 0-2.1562 9.5492-10.013 16.802-13.824 16.553-8.6982 30.524-8.5079 38.634 0.52637 3.4369 3.8286 6.4635 5.0236 6.6877 2.6408 0.18649-1.982 1.6904 7.6247 3.3514 21.408 0.84807 7.0374 1.8099 20.587 2.1373 30.11l0.59539 17.315-6.1692 0.6448c-6.6383 0.69386-16.596 4.6365-19.324 7.6515-2.1606 2.3874-3.4217 2.2986-5.5918-0.39386zm223.7-4.3117c-4.6014-3.4897-11.743-9.3998-15.871-13.134-8.244-7.4572-9.0977-9.711-5.7748-15.245 5.2074-8.6718 9.0622-30.667 9.3768-53.502 0.30522-22.16 0.65334-22.906 8.092-17.352l4.9008 3.6588-1.4576 4.5624c-2.3342 7.306-2.8029 34.592-0.83083 48.362 2.4719 17.26 4.3981 26.099 8.1266 37.29 1.8732 5.6226 3.0456 10.556 2.6051 10.964-0.44046 0.40754-4.5656-2.1142-9.167-5.6039zm125.4-2.344c-7.2499-0.94632-12.664-3.0919-15.856-6.2836-1.9724-1.9724-2.2632-2.972-1.7147-5.8955 0.36323-1.9362 0.87824-3.5203 1.1444-3.5203 0.26624 0 2.7406 2.0288 5.4985 4.5084 2.758 2.4796 6.5878 5.304 8.5108 6.2764 4.0016 2.0235 12.232 3.9333 17.57 4.0771 3.2683 0.088 3.3897 0.17907 1.1819 0.88615-3.0685 0.9827-8.5596 0.96634-16.336-0.0487zm-311.69-22.197c-1.2388-1.2388-0.78748-11.849 0.7561-17.775 0.81201-3.1175 1.4764-8.577 1.4764-12.132 0-7.707-1.6948-10.839-5.8651-10.839-2.2171 0-3.0118-0.60568-3.814-2.9069-0.84611-2.4272-0.65249-3.4424 1.1732-6.1516 1.9813-2.9401 2.6449-3.2447 7.0687-3.2447h4.8821l0.28821 13.287c0.19069 8.7921-0.22848 16.284-1.239 22.146-2.0212 11.723-3.8402 18.503-4.7266 17.617zm157.1-1.1645c-1.4822-0.22639-2.7748-1.8517-4.3093-5.4187-1.8919-4.3978-2.1431-6.4448-1.835-14.954 0.19628-5.4224 0.34542-14.009 0.3314-19.082l-0.0255-9.2231 8.3648 0.67872c4.6006 0.3733 8.716 0.89577 9.1452 1.161 2.0524 1.2685-0.28038 17.62-4.7563 33.339-3.4681 12.18-4.3453 13.892-6.9153 13.499zm-158.98-20.38c-0.37118-1.624-0.95914-5.1673-1.3066-7.874-0.58228-4.5365-0.50627-4.7991 0.97206-3.3586 1.2257 1.1943 1.5336 3.0504 1.3065 7.874-0.23185 4.9238-0.44557 5.6622-0.97204 3.3586zm33.307-20.55c2.6366-2.3705 5.8956-6.4675 7.2423-9.1044 2.2639-4.4328 2.4436-5.7964 2.3824-18.082-0.0599-12.035-0.40104-14.54-3.6194-26.575-4.314-16.132-4.8331-23.001-2.0912-27.676 1.0736-1.8304 2.3385-4.2138 2.8109-5.2965 0.63645-1.4588 1.042-0.057 1.5662 5.4134 0.38901 4.0601 2.1713 12.475 3.9605 18.701 2.7725 9.6465 3.26 12.919 3.299 22.146 0.0252 5.9548-0.27904 13.041-0.67595 15.748l-0.72169 4.9213 1.5224-4.4292c0.9068-2.6381 1.8305-10.399 2.2842-19.193 0.41897-8.1201 1.2766-16.011 1.9059-17.535 0.62931-1.5239 1.1442-6.7167 1.1442-11.54v-8.7688l16.34 16.215c8.9868 8.9181 16.917 16.215 17.623 16.215 1.3276 0 6.3918 7.8256 6.3918 9.8771 0 0.65776-0.67998 0.89942-1.5698 0.55796-2.2686-0.87056-8.2727 5.4143-8.2727 8.6595 0 2.1562-0.44078 2.5591-2.8002 2.5591-3.4828 0-6.0581 2.7196-6.0581 6.3977 0 1.5388 0.73301 3.6077 1.6289 4.5977 1.3326 1.4726 1.3705 1.8 0.20812 1.8-0.78145 0-3.1583 0.88583-5.2819 1.9685-4.0767 2.0784-8.8502 2.59-9.8017 1.0504-0.3121-0.50496-4.1252-1.2285-8.4736-1.6078l-7.9062-0.68967 0.55778-3.0674c0.35138-1.9324-0.21455-1.1221-1.5294 2.19-2.0114 5.0664-13.63 18.857-15.888 18.857-0.53432 0 1.1857-1.9395 3.8223-4.31zm-4.5809-5.3398c0-3.4616 2.2626-5.2137 4.2134-3.2629 0.84834 0.84835 0.46549 1.7913-1.5425 3.7993l-2.6709 2.6709v-3.2074zm-93.996-0.19279c0.97982-1.0827 2.0029-1.9685 2.2736-1.9685 0.27066 0-0.30954 0.88581-1.2894 1.9685-0.97981 1.0827-2.0029 1.9685-2.2736 1.9685-0.27066 0 0.30954-0.88582 1.2894-1.9685zm63.091-14.369c-1.7158-5.4433-1.712-5.5276 0.31239-6.9456 2.4552-1.7197 2.5536-2.6474 0.49846-4.7025-1.4116-1.4116-1.3454-1.6283 0.73819-2.4135 1.8454-0.69548 2.5108-0.45201 3.4332 1.256 0.91904 1.7019 4.2693 15.656 4.2693 17.782 0 0.2935-1.6908 0.53362-3.7573 0.53362-3.6993 0-3.7841-0.0852-5.4942-5.5102zm31.807 5.1028c-0.22555-0.22406-0.16499-7.1324 0.1346-15.352 0.52448-14.39 0.63407-15.013 2.9528-16.795 1.3244-1.0179 2.6853-1.8606 3.0242-1.8726 1.4275-0.0506 4.065 17.967 3.4673 23.686-1.0648 10.188-1.3484 10.741-5.5024 10.741-2.0165 0-3.8508-0.18333-4.0764-0.40739zm213.63-7.8508c-8.5704-3.7249-17.507-6.0773-26.678-7.0225l-6.5359-0.67367 0.98926-3.5828c2.4458-8.8581-2.0347-21.268-10.888-30.156-2.5237-2.5337-7.8475-6.6733-11.831-9.199-3.9832-2.5257-9.2112-6.0468-11.618-7.8247-8.2613-6.1034-2.7372 0.38381 6.5961 7.7461 4.8504 3.8261 8.819 7.1691 8.819 7.4289 0 0.25977-1.8579-0.63559-4.1287-1.9897-14.698-8.765-16.427-11.602-17.752-29.136-0.87521-11.579-0.80474-12.594 1.181-17.012 1.3753-3.0599 2.5212-4.4528 3.2857-3.9941 0.7743 0.46452 0.73886 0.16719-0.10411-0.87338-0.70296-0.86773-0.89983-1.8115-0.4375-2.0972 1.3546-0.8372 13.422 11.309 15.392 15.492 0.99143 2.1056 3.224 5.6906 4.9614 7.9666 2.0765 2.7204 4.7644 8.9965 7.845 18.317 4.5009 13.618 12.997 33.099 13.998 32.098 0.26474-0.26474-0.22591-2.174-1.0903-4.2428-1.6174-3.8709-7.5042-26.205-7.0316-26.677 0.14544-0.14545 2.5938 1.7239 5.4408 4.154 2.847 2.4302 5.3616 4.4185 5.5881 4.4185 1.4217 0-0.39002-2.5948-6.1712-8.8391-4.1317-4.4626-7.191-8.8136-8.2159-11.685-0.8981-2.516-2.007-5.4478-2.4642-6.5149-0.53329-1.2447 1.0209-0.37854 4.335 2.416 8.3992 7.0823 14.071 15.749 20.299 31.021 7.2998 17.898 7.217 17.567 2.8945 11.573-2.0463-2.8375-3.8952-4.9844-4.1087-4.7709-0.84795 0.84794 6.001 15.507 9.5807 20.506 2.0936 2.9236 6.385 7.253 9.5364 9.6208 7.6895 5.7774 7.494 5.5916 6.5183 6.1946-0.47274 0.29217-4.1654-0.90558-8.2059-2.6616zm-53.929-60.308c-1.065-2.0876-3.4936-8.4987-5.3969-14.247-1.9033-5.7482-4.4107-12.166-5.572-14.262-1.1613-2.0962-1.8221-2.9254-1.4683-1.8427 7.4683 22.857 9.5848 28.748 11.36 31.619 2.78 4.4981 3.5543 3.5874 1.0776-1.2674zm4.9974 59.461c0.22531-0.67667 1.2447-1.3921 2.2653-1.5899 1.6054-0.31111 1.6777-0.14523 0.53611 1.2303-1.5612 1.8812-3.386 2.1154-2.8014 0.35959zm-71.369-8.8583c-1.8381-2.3007-4.5259-6.2563-5.973-8.7902l-2.631-4.6071 2.7083-1.9044c1.4896-1.0474 4.1478-2.6396 5.9071-3.5383l3.1988-1.6339v9.1361c0 5.0249 0.412 10.573 0.91554 12.328 1.2447 4.34-0.13075 4.0097-4.1257-0.99075zm74.949-2.5195c-3.0387-1.9976-6.895-4.3756-8.5697-5.2843-1.7867-0.96955-3.688-3.1915-4.6013-5.3774-2.034-4.868-3.5371-6.4652-11.976-12.725-3.8772-2.8763-8.5278-7.3591-10.335-9.9618-3.0586-4.4056-3.2759-5.2413-3.1494-12.114 0.13889-7.5492 1.4856-12.795 3.2847-12.795 0.55474 0 1.0086 2.0956 1.0086 4.6568 0 4.4385 0.29208 4.9346 6.2299 10.581 3.5998 3.4229 10.321 8.2094 15.919 11.337 12.177 6.8036 15.363 9.8289 18.139 17.224 2.255 6.0084 2.5085 15.189 0.47498 17.2-0.53939 0.5336-3.1156-0.56555-6.4252-2.7413zm45.609-0.4529-2.0531-2.1949 7.2602-0.0168c7.1531-0.0165 7.2211 0.006 4.6067 1.6011-4.6953 2.8629-7.5414 3.04-9.8138 0.61056zm1.2342-5.6587c-4.8338-1.0153-8.2274-3.827-9.306-7.7103-1.268-4.5649-1.2763-7.0347-0.0238-7.0347 0.54135 0 0.98426-0.46904 0.98426-1.0423 0-0.57328-0.51818-0.72208-1.1515-0.33066-0.78508 0.48521-0.94168 0.16489-0.49211-1.0067 0.36267-0.94509 0.66618-2.0143 0.67446-2.376 0.007-0.36172 0.44442 0.006 0.96919 0.81869 0.74654 1.1552 0.95738 0.90151 0.96917-1.1662 0.007-1.4534 0.44736-3.7796 0.97569-5.1692 0.52835-1.3896 1.082-4.2968 1.2303-6.4603 0.14833-2.1635 0.53542-3.9343 0.86021-3.9351 1.2899-0.003 8.456 5.7808 11.59 9.3546 4.3096 4.9145 5.9848 9.0684 6.6861 16.579 0.43982 4.7099 0.23738 6.3787-0.88698 7.3118-2.023 1.679-9.5031 2.9188-13.079 2.1677zm9.9102-2.9518c2.5612-0.97377 2.616-1.1616 1.9332-6.6266-0.84195-6.7388-4.0534-13.378-8.5361-17.647-4.8448-4.614-5.7559-4.4686-7.2806 1.1616-0.73295 2.7067-1.3549 5.8071-1.3822 6.8898s-0.62256 3.0758-1.323 4.4291c-1.1027 2.1306-0.81428 8.2771 0.43331 9.2346 4.8191 3.6987 10.705 4.6308 16.155 2.5585zm-84.201-4.1628c-4.06-1.6152-8.9898-4.1925-10.955-5.7273-1.9652-1.5349-4.648-3.0604-5.9617-3.3901-1.9786-0.49662-2.6099-1.5973-3.6784-6.4135-0.7094-3.1977-0.9995-7.3616-0.64465-9.2531 0.60796-3.2406 5.5517-9.4212 7.5359-9.4212 0.4997 0 0.90854 1.7893 0.90854 3.9762 0 5.1142 2.7683 10.462 9.1591 17.693 5.3948 6.1041 11.849 14.771 11.327 15.212-0.16992 0.14358-3.6308-1.0604-7.6909-2.6756zm-153.54-6.5393c0-6.0754 0.25957-7.0662 2.1105-8.0569 1.1608-0.62122 4.0714-2.937 6.4681-5.1461 3.5191-3.2438 4.5305-3.7433 5.2563-2.5961 1.7054 2.6955 0.91411 4.8464-3.4644 9.4161-2.4164 2.5218-4.9998 6.4051-5.741 8.6295-0.74965 2.2497-2.0758 4.1856-2.9885 4.3626-1.4064 0.27276-1.6409-0.67174-1.6409-6.6091zm5.9055 4.1757c0-1.1305 5.8244-9.8095 7.7565-11.558 1.7457-1.5799 1.8745-1.4733 2.8468 2.3576 0.91992 3.6242 0.81337 4.1464-1.1015 5.3988-3.0695 2.0076-9.5018 4.5811-9.5018 3.8015zm81.977-5.2913c-5.1923-4.901-7.9238-5.0083-12.906-0.50686l-3.7696 3.4056-4.448-4.6359c-2.4464-2.5497-6.489-7.2934-8.9834-10.541-2.4944-3.248-7.2416-9.2274-10.549-13.287-9.4134-11.555-11.535-16.577-11.944-28.275l-0.34112-9.7555 3.2439 4.2515c1.7842 2.3383 3.4403 4.2515 3.6803 4.2515 0.23999 0-0.7207-2.5468-2.1349-5.6595s-3.1667-6.9882-3.8945-8.6122c-0.954-2.1287-1.4008-9.2703-1.6012-25.591l-0.27789-22.638 3.937-7.8024c4.8452-9.6022 8.97-13.164 17.462-15.077 3.3882-0.76341 6.8427-1.3881 7.6766-1.3881 0.83387-0.00006 2.1116-1.3452 2.8393-2.9893l1.3231-2.9892 2.3644 3.0211c2.3865 3.0494 5.2446 3.3101 5.2446 0.47842 0-0.9895 0.6134-1.2427 1.9685-0.81263 1.0999 0.34909 1.9685 0.17687 1.9685-0.39032 0-0.98509 6.6872-6.0073 7.9989-6.0073 0.35867 0 0.2776 1.6605-0.18014 3.6901-0.49941 2.2144-0.45795 4.0644 0.10369 4.626 0.5917 0.5917 0.93591-0.0653 0.93591-1.7863 0-5.1971 3.1182-8.1877 10.335-9.9117l2.9528-0.70542-2.8708 3.0069c-2.9666 3.1074-3.869 8.0218-1.8447 10.046 0.71192 0.71192 0.88992 0.31386 0.58139-1.3002-0.55816-2.9198 3.4011-7.1086 8.2234-8.7001 3.907-1.2894 5.4613-0.6529 2.4028 0.98397-1.1235 0.60124-2.7116 2.3868-3.5292 3.9679-1.9053 3.6845-1.918 5.0106-0.0221 2.3038 2.0132-2.8742 9.5909-5.2639 16.181-5.1028 3.0163 0.07373 4.3768 0.31986 3.0235 0.54698-1.3534 0.22713-4.0109 0.93518-5.9056 1.5734-3.3689 1.1349-3.2813 1.1725 3.9693 1.7028 9.0763 0.66393 13.188 2.5733 23.302 10.821 0.65387 0.53317 1.609 0.96942 2.1225 0.96942 0.51352 0 0.70811 0.86247 0.43247 1.9166-0.27569 1.0541 0.31943 4.0438 1.3224 6.6437 2.2927 5.943 2.6711 28.502 0.52154 31.092-0.71618 0.86293-1.2188 2.3705-1.117 3.3501 0.10186 0.97964 0.13414 7.1408 0.0719 13.691l-0.11336 11.91-4.9037 6.2984c-2.697 3.4641-6.0756 7.7378-7.508 9.4972-3.4619 4.2521-2.3215 4.0478 2.7476-0.49213 2.9268-2.6212 3.9059-3.1204 3.3784-1.7224-0.40851 1.0827-2.0255 7.2835-3.5932 13.78l-2.8505 11.811-6.1846 5.7815c-10.153 9.4914-24.634 21.337-28.537 23.345-5.2866 2.7187-7.6384 2.3205-12.304-2.0837zm3.6528-20.645c-3.5421-1.1344-5.9055-1.1344-5.9055 0 0 0.54135 1.8824 0.9401 4.1831 0.88615 3.5536-0.0833 3.8128-0.21671 1.7224-0.88615zm11.633-6.1508c-0.50048-3.5226-6.3342-4.923-18.523-4.4466-6.3896 0.24973-11.274 0.9352-12.795 1.7956-2.2574 1.2767-1.4124 1.4545 10.227 2.1517 6.9782 0.418 14.065 1.1595 15.748 1.6478 4.914 1.4254 5.6856 1.2596 5.3435-1.1484zm-15.49-18.76c-0.58849-0.5885-1.07-1.883-1.07-2.8766 0-1.2038-1.478-2.4402-4.4292-3.7052-4.7265-2.026-5.6668-3.7976-2.4606-4.6361 1.0827-0.28312 1.9685-1.1203 1.9685-1.8604 0-1.0814-0.67636-1.0231-3.4449 0.29709-3.9179 1.8683-3.9636 2.0008-2.0124 5.8409 1.5086 2.969 10.286 9.3535 11.695 8.5062 0.45318-0.27265 0.34244-0.97722-0.24607-1.5657zm10.348-0.59493c1.5695-0.49659 4.0716-1.1694 5.5603-1.4951 2.2876-0.50056 2.7067-1.0961 2.7067-3.8468 0-2.2702-0.79225-3.9763-2.6194-5.6407-1.4406-1.3124-2.3014-1.8342-1.9127-1.1595 1.2902 2.2396 1.4826 5.171 0.33931 5.171-1.288 0-7.6183 5.8854-7.6183 7.0829 0 0.98874 0.0734 0.98641 3.5441-0.1117zm-2.5598-5.7408c0-0.406-1.1073-0.73819-2.4606-0.73819-1.3534 0-2.4606 0.33219-2.4606 0.73819 0 0.40602 1.1073 0.73819 2.4606 0.73819 1.3534 0 2.4606-0.33217 2.4606-0.73819zm1.5364-18.865c-0.41534-3.227-0.14731-4.8031 1.0399-6.115 1.7435-1.9265 1.1274-5.2067-0.85438-4.5491-1.6715 0.55456-2.2931 6.3769-1.8128 16.98l0.4012 8.8583 0.89284-5.4134c0.49105-2.9774 0.64102-7.3698 0.33327-9.761zm-7.54-4.7568c0.0542-2.8542-0.34248-5.1674-0.88614-5.1674-0.57994 0-0.94395 3.1334-0.88615 7.628 0.1104 8.5823 1.602 6.5114 1.7723-2.4606zm47.096-6.8076c6.588-3.1128 6.8223-5.8146 0.71816-8.2788l-2.9327-1.184 2.4606-0.71504c2.3951-0.69598 2.3583-0.75986-1.3809-2.3986-2.1129-0.92599-6.4715-1.9816-9.6858-2.3457l-5.8442-0.66207 2.9983-2.2117c4.7188-3.4809 12.537-6.151 18.132-6.193l5.1309-0.0385-3.3118-1.4378c-1.8215-0.79082-5.3648-1.4351-7.874-1.4318-5.2203 0.006-23.429 4.9957-27.162 7.4416-3.186 2.0875-3.2351 5.6096-0.11245 8.0658l2.386 1.8768-2.3841 4.1972c-1.3112 2.3085-2.1374 4.5965-1.8358 5.0844 0.30154 0.48795 2.1831 0.90672 4.1812 0.93059 1.9981 0.0239 5.8475 0.62898 8.5542 1.3446 6.22 1.6446 11.405 1.0546 17.963-2.044zm-10.865-1.5586c1.1148-1.218 2.3273-3.2054 2.6945-4.4164 0.6516-2.1493 0.75399-2.1642 4.2962-0.62541 1.9958 0.86702 4.1823 1.5994 4.859 1.6276 4.9747 0.20722-5.078 5.5723-10.506 5.6071l-3.3704 0.0216 2.027-2.2146zm-14.479-1.2884c0-0.84394 0.44292-1.2607 0.98425-0.92616 0.54135 0.33458 0.98427 1.0251 0.98427 1.5345 0 0.50937-0.44292 0.92616-0.98427 0.92616-0.54133 0-0.98425-0.6905-0.98425-1.5345zm5.6595-0.51287c-3.7839-2.2039-0.63603-6.3876 4.5112-5.9954 4.34 0.33071 4.9637 1.4008 2.5815 4.4293-2.1794 2.7706-4.2425 3.2262-7.0926 1.5662zm-38.627 0.89419c0.34299-0.34301 0.2094-1.4419-0.29688-2.4419-0.50629-1.0001-1.393-3.2808-1.9706-5.0684-0.96292-2.9805-0.84943-3.3415 1.3681-4.3518 3.519-1.6034 4.112-5.2451 1.3354-8.2007-1.2433-1.3234-2.7369-2.4082-3.3192-2.4106-0.58233-0.002-5.2665-1.9936-10.409-4.4247-7.6859-3.6334-10.314-4.4088-14.764-4.3555-6.4192 0.0768-11.609 1.7126-5.7917 1.8257 4.2189 0.0821 16.208 5.8399 19.536 9.3822 2.9275 3.1162 2.4645 3.6009-2.3929 2.5054-3.5692-0.805-5.9772-0.68204-12.335 0.6298-2.3799 0.49108-2.3977 0.55267-0.55008 1.9037 1.862 1.3616 1.8559 1.3962-0.24726 1.3962-1.1861 0-3.0785 0.92186-4.2052 2.0486-1.9479 1.9479-1.965 2.141-0.34751 3.9282 3.0562 3.3771 10.013 6.798 15.362 7.5539 6.3351 0.89533 18.162 0.94503 19.027 0.08zm-10.663-4.2602c0.34794-1.0827 0.63682-2.5222 0.64196-3.1988 0.0144-1.8894 1.3732-1.4657 3.0703 0.9572 2.2683 3.2384 1.8792 4.4321-1.4064 4.3149-2.4749-0.0881-2.8387-0.41541-2.3059-2.0733zm-18.743-2.2025-3.7872-2.6946 3.3-0.67493c1.815-0.37122 3.312-0.59812 3.3265-0.50423 0.0146 0.0939 0.53273 1.6102 1.1515 3.3696 1.3697 3.8946 0.86391 3.9585-3.9909 0.50423zm8.437 1.4716c-1.6466-0.79287-2.183-1.7804-1.9685-3.6244 0.24307-2.0895 0.88042-2.5905 3.6299-2.8531 7.2845-0.69587 10.343 2.3074 6.184 6.0716-2.0495 1.8548-4.5658 1.985-7.8453 0.40589zm46.063-5.6178c0-0.51444-0.75418-1.3574-1.676-1.8732-1.2471-0.69792-1.4058-1.2771-0.62038-2.2635 1.3852-1.7395 3.6149-8.7012 2.9878-9.3284-0.53454-0.53456-5.6127 9.7235-5.6127 11.338 0 0.98272 2.7473 2.9745 4.1831 3.0327 0.40601 0.0164 0.73819-0.39098 0.73819-0.90542zm-16.791-2.9448c1.218-0.77064 1.1486-1.7403-0.49194-6.8747-1.0505-3.2876-2.2422-5.9775-2.6483-5.9775-1.1034 0-0.81907 2.9764 0.6881 7.2025 1.1422 3.2027 1.1359 3.8359-0.0433 4.2884-0.76082 0.29195-1.3833 0.92635-1.3833 1.4098 0 1.1301 2.0567 1.1044 3.8787-0.0485zm156.55 94.35c-0.00043-0.76691-1.2702-4.0776-2.8216-7.357-3.0423-6.4308-8.8133-12.142-15.049-14.893-3.4205-1.5091-5.8789-4.2427-3.8155-4.2427 4.8423 0 13.477 6.3236 17.842 13.067 3.4268 5.2936 5.7895 12.876 4.4344 14.231-0.32442 0.32442-0.5902-0.0376-0.59062-0.8045zm-27.97-3.0766c-0.36442-1.2402-1.304-4.5917-2.088-7.448-0.78403-2.8562-2.1257-6.2618-2.9815-7.5679-0.85581-1.3062-2.1542-5.2338-2.8853-8.7282-1.6601-7.9346-4.551-13.79-9.3131-18.865-4.5125-4.8087-16.312-20.376-18.175-23.978-3.1213-6.0359-4.7176-13.999-3.9453-19.68l0.75505-5.5546 1.0744 4.9213c0.59092 2.7067 2.0663 6.4715 3.2786 8.3662s2.2059 3.7107 2.2079 4.0355c0.003 0.50282 8.2304 15.384 20.758 37.548 1.759 3.112 3.351 5.5054 3.5377 5.3186 0.69804-0.69805-4.8119-11.862-11.611-23.525-13.7-23.502-17.233-32.957-23.505-62.915-2.069-9.883-4.4734-15.258-3.227-7.2145 0.73291 4.7301 0.79996 19.541 0.18271 40.354-0.4266 14.384 1.5453 18.928 13.262 30.559l8.971 8.905-6.3594-3.8747c-3.4977-2.1311-7.9268-4.5283-9.8426-5.3272-5.4587-2.2765-14.085-8.7451-16.585-12.437-2.3178-3.4224-4.2761-13.4-3.6434-18.563 0.1854-1.5126-0.23606-3.0321-0.95552-3.4449-1.0086-0.57875-1.0783-2.0165-0.32185-6.6441 0.53095-3.248 0.73842-8.5613 0.46104-11.807-0.80115-9.3754 0.95828-4.3164 4.196 12.065 1.608 8.1355 3.6447 17.575 4.5262 20.976 2.8845 11.131 7.8575 18.679 12.257 18.602 0.89483-0.0155 0.40008-0.71018-1.2221-1.7158-4.12-2.554-6.3674-9.9276-8.0876-26.535-1.8522-17.882-3.9336-29.414-6.4706-35.85-3.96-10.035-11.09-20.963-18.59-28.467-8.06-8.067-15.26-12.667-25.5-16.283-7.1042-2.5077-6.256-3.2073 1.1765-0.9704 2.5221 0.75902 4.5856 1.1803 4.5856 0.93612 0-1.4374-9.1784-4.2622-14.272-4.3924l-5.9055-0.15091 5.3658-1.0264c10.638-2.0349 28.294 2.5044 38.317 9.8512l4.5454 3.3316-4.332-4.0002c-5.2278-4.8274-15.987-10.246-24.704-12.442-4.7272-1.1906-8.8392-1.4688-15.748-1.0654-15.259 0.89095-25.128 5.4517-33.64 15.547-4.5974 5.4523-5.449 5.1874-3.739-1.1631 1.619-6.0125 10.19-14.678 17.973-18.17 7.2688-3.262 17.631-4.2574 25.262-2.4267 7.4092 1.7774 7.1298 0.56331-0.45088-1.9594-10.228-3.4038-18.706-2.615-29.129 2.7102-4.471 2.2843-8.3513 3.9312-8.6228 3.6597-0.27148-0.27148 1.9168-2.8283 4.8629-5.6818 7.5909-7.3524 13.239-9.0567 29.945-9.0349 12.242 0.01585 13.119 0.15548 20.265 3.2249 4.1085 1.7646 8.4186 3.391 9.5779 3.6142 4.3492 0.83757 14.381 9.0263 20.452 16.694l3.8389 4.8487-4.3308-3.1262c-2.3819-1.7194-5.124-3.1262-6.0935-3.1262-0.96952 0-2.0426-0.45283-2.3847-1.0063-1.2557-2.0317-27.505-13.634-28.529-12.61-0.2283 0.22831 3.353 1.8902 7.9585 3.6932 17.116 6.7007 33.951 19.501 41.927 31.88 4.3922 6.8165 9.4151 24.35 11.165 38.975 2.1322 17.817 3.1245 23.636 4.8768 28.595 2.253 6.3766 9.0805 18.846 16.174 29.54 6.546 9.868 13.849 23.53 16.316 30.522 1.5041 4.2632 1.8372 14.289 0.61948 18.646-0.89391 3.1988-2.6684 3.6323-3.4855 0.85141zm-59.64-150.76c0-0.20439-0.7751-0.97949-1.7224-1.7225-1.5611-1.2243-1.5959-1.1895-0.37162 0.37161 1.2858 1.6395 2.094 2.1609 2.094 1.3508zm-35.93-28.171c-0.33457-0.54135-1.1358-0.97748-1.7805-0.96919-0.70435 0.0093-0.58294 0.39589 0.30416 0.96919 1.8909 1.222 2.2316 1.222 1.4764 0zm-6.6642-5.5159c-0.32706-0.32707-1.176-0.36203-1.8865-0.07773-0.78516 0.31419-0.55194 0.54742 0.59466 0.59465 1.0376 0.04272 1.6189-0.18989 1.2918-0.51695zm-111.88 180.22c0.49683-2.1654 1.5427-5.9302 2.3242-8.3662l1.4208-4.4291 0.16659 4.9213c0.34751 10.266 1.8192-1.4941 2.8947-23.13 1.2844-25.84 1.3489-26.22 6.065-35.657 3.892-7.7887 5.368-13.281 1.6592-6.1734-1.13 2.1654-3.9062 7.0374-6.1693 10.827-5.7775 9.6738-14.984 29.484-16.696 35.925-0.82195 3.093-1.4614 4.3586-1.4917 2.9528-0.15854-7.3475 7.487-27.34 16.185-42.323 3.9283-6.7668 8.2505-14.961 9.6048-18.209 3.3064-7.9296 5.8208-19.747 5.4447-25.589-0.37873-5.884-2.431-7.0224-3.2215-1.7869-1.8704 12.388-7.0368 29.844-9.5592 32.298-1.4224 1.3836-0.18013-13.041 2.2887-26.575 3.2957-18.066 7.9311-28.25 16.449-36.135 7.7069-7.1352 16.043-10.035 23.264-8.0916 1.5955 0.42931 6.3977 6.1884 6.3977 7.6724 0 0.2104-2.7682 0.38312-6.1516 0.38384-3.4699 0.000729-7.7163 0.68537-9.7408 1.5705-4.0822 1.7847-9.9138 8.1177-12.828 13.931l-1.9736 3.937 4.6379-5.2147c5.1762-5.8198 13.355-11.002 17.386-11.016 3.0561-0.01088 4.6068 1.6919 2.335 2.5637-0.84633 0.32477-1.5388 1.1067-1.5388 1.7377 0 0.63099-1.517 1.9642-3.3712 2.9628-4.5896 2.4717-9.3499 7.5991-7.6297 8.2181 0.97983 0.35258 0.81296 0.99072-0.6739 2.5772-4.5682 4.8742-8.9789 27.613-9.0002 46.4-0.0153 13.504-1.6834 31.281-3.6017 38.386-3.1673 11.73-8.8954 21.754-17.651 30.89l-8.1277 8.4801 0.90338-3.937zm-10.55-12.795c0.004-4.3307 0.1766-5.98 0.38453-3.665 0.20791 2.315 0.20499 5.8583-0.006 7.874-0.21148 2.0157-0.38161 0.12162-0.37804-4.2091zm207.77-12.32c-2.7388-2.7484-5.9904-5.2191-20.71-15.737-5.8833-4.2038-17.073-15.662-21.072-21.576-1.7713-2.62-2.9157-5.5576-2.8757-7.3819 0.0587-2.6735 0.20845-2.5035 1.2733 1.4445 1.4719 5.4575 5.5424 10.98 10.294 13.965 1.952 1.2264 9.5449 5.3465 16.873 9.1557l13.324 6.9258 3.2982 6.4664c4.1396 8.116 3.9592 11.117-0.405 6.7378zm-169.97-1.7185c-1.9222-0.42757-2.0969-1.0764-0.82891-3.0785 0.68655-1.0841 1.103-0.91561 2.0332 0.82248 1.3387 2.5014 1.186 2.7876-1.2043 2.256zm115.4-8.605c0-0.81202 0.71859-1.4764 1.5969-1.4764 1.3079 0 1.3751 0.26723 0.37162 1.4764-0.6739 0.81202-1.3925 1.4764-1.5969 1.4764-0.20439 0-0.37161-0.66437-0.37161-1.4764zm0.98425-4.9302c0-0.35496 1.2942-3.5986 2.8761-7.208s3.1811-7.7848 3.5539-9.2786c0.94506-3.7866 1.9437-4.0757 3.8786-1.1226 1.6306 2.4887 1.5735 2.7007-2.7152 10.08-2.4095 4.1459-5.1037 7.6812-5.9872 7.8562-0.88345 0.17502-1.6063 0.0279-1.6063-0.32714zm57.057-29.554c-2.4526-0.75605-6.2878-2.9398-8.5226-4.8527-2.2348-1.913-4.5258-3.4781-5.0909-3.4781-1.1729 0-3.3485-6.9855-2.4351-7.8187 0.33011-0.30111 0.81884 0.0689 1.0861 0.82223 1.159 3.2675 7.8003 9.1772 13.425 11.946 3.4941 1.7202 8.8035 3.3508 12.443 3.8218l6.3487 0.82139-6.3977 0.0563c-3.5187 0.0309-8.4043-0.56234-10.857-1.3184zm-63.22-64.858c-2.042-1.2125-4.921-3.3148-6.3977-4.6718-7.6141-6.9968-21.386-11.822-34.181-11.975-9.3708-0.11224-14.69 1.143-19.672 4.6423l-2.9395 2.0647 2.095-2.9395c3.142-4.4083 5.2261-6.0212 11.685-9.0426 5.3576-2.5063 6.7764-2.7344 16.001-2.5728 9.5701 0.16772 10.455 0.36403 16.24 3.601 4.0761 2.2809 8.0896 5.7257 12.024 10.32 4.9671 5.8006 10.234 13.201 9.16 12.871-0.16596-0.05104-1.9724-1.0848-4.0144-2.2973zm-114.89-9.8853c0-1.5238 3.5593-7.3189 7.1276-11.605 3.9818-4.7824 14.177-10.576 21.166-12.028 3.1539-0.65523 10.473 1.0391 9.897 2.2909-4.6974 10.201-5.2248 10.953-7.1771 10.233-1.088-0.40122-4.4814-0.67015-7.5408-0.59763-6.2039 0.1471-12.759 3.1537-19.551 8.9679-2.1569 1.8463-3.9217 3.0789-3.9217 2.7391zm36.91-28.855c-2.1654-0.72668-5.2658-1.3665-6.8898-1.4218l-2.9528-0.10053 3.937-1.7777c5.2982-2.3923 11.344-2.4497 11.25-0.10684-0.16875 4.2016-1.137 4.8189-5.3442 3.4069zm-64.47 173.03c0-1.0762 1.3648-6.2174 3.0329-11.425 1.8902-5.9009 2.8013-10.391 2.4183-11.917-0.33805-1.3469-0.12943-3.0336 0.46358-3.7481 0.59638-0.71858 0.94522-3.8655 0.7806-7.0417l-0.29767-5.7425-1.8186 3.937c-4.7008 10.176-5.807 14.801-6.2978 26.329-0.34878 8.1921-0.16995 11.565 0.61319 11.565 0.60806 0 1.1056-0.88052 1.1056-1.9567zm269.84 252.94c0-1.3533 0.2234-1.907 0.49645-1.2303 0.27304 0.67667 0.27304 1.784 0 2.4606-0.27305 0.67668-0.49645 0.12304-0.49645-1.2303z"/>
</svg>
