<?xml version="1.0" encoding="UTF-8" standalone="no"?>
<!-- Created with Inkscape (http://www.inkscape.org/) -->
<svg id="svg3448" xmlns:rdf="http://www.w3.org/1999/02/22-rdf-syntax-ns#" xmlns="http://www.w3.org/2000/svg" height="375" viewBox="0 0 1250 375" width="1250" version="1.1" xmlns:cc="http://creativecommons.org/ns#" xmlns:dc="http://purl.org/dc/elements/1.1/">
 <metadata id="metadata3454">
  <rdf:RDF>
   <cc:Work rdf:about="">
    <dc:format>image/svg+xml</dc:format>
    <dc:type rdf:resource="http://purl.org/dc/dcmitype/StillImage"/>
    <dc:title/>
   </cc:Work>
  </rdf:RDF>
 </metadata>
 <path id="path3458" fill="#fff" d="m652.99 294.08c-12.304-0.5924-12.292-0.5551-9.1816-28.71 1.3511-12.232 2.8001-24.084 3.2199-26.338l0.76334-4.0978 16.377 0.34778 16.377 0.34776-0.33479 26.875-0.33479 26.875-3.133 2.8125c-3.291 2.9543-2.6554 2.9038-23.754 1.888zm-137.9-28.62c-2.47-3.15-2.59-4.8-2.59-36.88v-33.581h19.375 19.375v17.929c0 9.8608 0.36032 24.63 0.80071 32.82l0.80072 14.892-3.4118 4.0547-3.4118 4.0547h-14.173c-13.823 0-14.237-0.0815-16.764-3.2936zm164.17-34.384c-0.62885-1.0175-5.1277-1.1873-15.672-0.59136l-14.79 0.83584-3.8737-3.4711c-2.1305-1.9091-5.6583-3.7524-7.8394-4.0962-2.9241-0.46084-3.9658-1.2817-3.9658-3.125 0-1.8892 0.96065-2.5933 3.9316-2.8819 2.1624-0.21006 4.8705-1.4194 6.0181-2.6874 1.9734-2.1805 1.8467-2.4884-2.3355-5.6783-2.9584-2.2564-4.686-4.7802-5.2197-7.625-0.7254-3.8667-1.1912-4.2523-5.1378-4.2523-5.32 0-5.0626-2.8088 0.34641-3.7794 3.939-0.70683 3.868-0.3131 2.2846-12.668-0.55093-4.299-1.3697-5.9853-3.1295-6.4455-1.4808-0.38725-2.3906-1.7326-2.4024-3.5528-0.0394-6.0276-1.734-6.8883-8.3597-4.2461-3.2979 1.3152-9.3712 2.6223-13.496 2.9048-4.125 0.28245-8.3438 1.2499-9.375 2.1499-1.9658 1.7156-9.553 1.8333-12.213 0.18942-1.6676-1.0306-25.18-0.0766-26.325 1.0681-0.37824 0.37822-0.55054 3.3464-0.38291 6.596 0.51957 10.072 0.30054 10.162-25.356 10.395-25.457 0.2311-26.162-0.0315-25.466-9.4864l0.368-5 24.062-0.33949c20.25-0.29 24.07-0.64 24.07-2.19 0-1.5706-3.8469-1.848-25.625-1.848-16.25 0-25.625 0.45731-25.625 1.25 0 0.6875-1.0918 1.25-2.4262 1.25s-2.7739 0.5625-3.1988 1.25c-0.98019 1.586-5.997 1.6278-7.5625 0.0631-0.70799-0.70766-27.435-1.3582-66.188-1.6112l-65-0.42424-18.633-4.0138c-20.519-4.4203-32.437-5.1301-35.753-2.1294-2.18 1.98-9.99 1.36-9.99-0.79 0-0.6-22.53-1.09-50.62-1.09-32.917 0-50.625 0.43724-50.625 1.25 0 0.6875-2.5312 1.25-5.625 1.25-3.299 0-5.625-0.57556-5.625-1.3919 0-0.93402-1.7871-1.1239-5.4324-0.5773-8.3293 1.2491-8.6622 0.32915-8.1364-22.486 0.39696-17.226 0.71931-19.698 2.7634-21.193 1.6853-1.2323 3.1866-1.3603 5.5253-0.47118 4.5302 1.7224 6.3005 0.64261 6.758-4.122 0.3333-3.4706 0.89865-4.1342 3.522-4.1342 2.4587 0 3.2074 0.71338 3.5117 3.346 0.21269 1.8403 1.1218 3.9561 2.0203 4.7018 1.1293 0.93723 17.218 1.2549 52.113 1.029l50.47-0.32 0.63-4.38c0.52231-3.6562 1.1898-4.44 4.0625-4.7705 2.9338-0.33757 3.4375 0.0596 3.4375 2.7103 0 6.6155 0.75792 7.0603 12.031 7.0603 5.7822 0 15.706-1.0836 22.054-2.4081 25.083-5.2339 27.157-5.3464 90.319-4.9l61.278 0.43309 3.04-2.8314c3.5446-3.3013 5.4928-3.0626 6.0526 0.74176 0.21968 1.493 1.2827 2.7146 2.3622 2.7146s2.6825 0.98438 3.5621 2.1875c1.475 2.0174 5.7461 2.2064 54.917 2.4299 43.231 0.19657 54.423 0.59416 59.163 2.1016 4.7516 1.5111 18.951 2.0035 75.846 2.6303 38.5 0.42414 71.251 1.0826 72.78 1.4633 2.6989 0.67193 2.7257 0.58279 0.91448-3.0479-1.3282-2.6625-1.7691-6.9309-1.5302-14.815l0.34-11.075 25.137-0.33782 25.137-0.33782 0.80042-7.658c1.29-12.379 1.12-13.481-2.33-14.791-1.91-0.727-3.12-2.17-3.12-3.719 0-2.1551 0.81108-2.5309 5.4626-2.5309 5.4121 0 5.4772 0.05226 7.0465 5.6572 0.87116 3.1115 2.0693 5.9572 2.6624 6.3238 0.5932 0.36661 1.0785 4.533 1.0785 9.2586 0 7.2449 0.36057 8.7064 2.2999 9.3219 4.0639 1.2898 5.8251 6.6552 5.8251 17.745 0 10.139 0.0849 10.438 2.9536 10.441l2.9536 0.002-0.59138 17.534c-0.32525 9.6435-0.90531 17.848-1.289 18.231-0.38373 0.38371-25.604 0.92145-56.046 1.195-42.54 0.38223-55.692 0.86387-56.831 2.0812-2.1163 2.2616-4.2742 19-4.2796 33.197-0.007 18.65-2.2625 21.1-26.573 28.864-13.199 4.2156-16.543 4.6768-17.907 2.47zm31.22-12.936c3.8645-1.8282 7.6831-4.5475 8.4858-6.0428 0.80269-1.4954 1.7137-8.4005 2.0244-15.345 0.53844-12.033 0.44103-12.658-2.0758-13.317-1.6472-0.43076-3.9278 0.32193-6.0621 2.0007-2.2678 1.7838-5.3284 2.7343-9.0774 2.8188-5.1039 0.11513-5.6937 0.44179-6.0427 3.3464-0.21269 1.7703-1.1971 3.8913-2.1875 4.7133-3.1746 2.6347-2.1853 10.173 2.0998 16 4.6612 6.3382 3.9622 8.0178-1.4437 3.469-4.8994-4.1226-7.4569-4.211-7.4569-0.25778 0 6.4414 1.1122 7.3412 8.173 6.6125 3.5952-0.37105 9.6985-2.1704 13.563-3.9986zm82.533-104.61c2.537-3.6221 0.38863-6.2834-4.661-5.774-4.6778 0.4719-7.0176 3.7224-4.6945 6.5216 2.3457 2.8264 7.1194 2.4449 9.3555-0.74753zm20.08 0.70059c2.929-2.929 1.8575-6.029-2.2469-6.5011-4.0535-0.46621-7.1012 1.6054-7.1012 4.8267 0 3.8594 6.075 4.9475 9.3482 1.6744zm-770.4 69.11c-3.4356-9.1825-4.8342-27.599-3.8137-50.219 1.1965-26.522 5.3046-39.185 12.112-37.335 1.5744 0.42779 3.6589 2.3178 4.6322 4.2 1.872 3.6201 6.5925 4.8804 35.005 9.3457 5.5 0.86438 24.484 3.9978 42.188 6.9632l32.188 5.3916v21.655c0 11.91-0.33 21.65-0.73 21.65-0.40131 0-12.354 1.9158-26.562 4.2574-74.741 12.318-76.512 12.57-78.688 11.21-4.5652-2.8537-8.3451-29.758-7.5474-53.72 0.28378-8.524 0.09497-15.498-0.41957-15.498-3.6903 0-6.1109 34.272-3.6226 51.29 1.6464 11.26 4.3645 19.996 6.6689 21.436 2.5389 1.5858-0.74749 5.3511-5.0467 5.7822-3.5838 0.35931-3.9777-0.0377-6.3635-6.4145zm983.56-39.547v-33.797h11.25 11.25v32.5c0 17.875 0.1406 32.922 0.3125 33.438 0.1719 0.51562-4.8906 1.0992-11.25 1.2969l-11.562 0.3594v-33.797zm27.268 0.19694c0.216-17.639 0.4974-32.176 0.6253-32.304 0.1279-0.1279 9.5137 1.1125 20.857 2.7564 11.344 1.644 36.937 5.2471 56.875 8.0071 58.345 8.0767 81.179 11.567 82.306 12.583 1.2154 1.0944 1.813 13.13 0.7071 14.239-0.9173 0.92029-22.761 4.9676-44.264 8.2012-8.9375 1.3441-28.625 4.4453-43.75 6.8915-15.125 2.4463-36.5 5.8339-47.5 7.5281s-21.406 3.3251-23.125 3.6243l-3.125 0.54389 0.3927-32.071zm-87.893 25.296c-59.811-6.8561-71.266-6.9956-96.442-1.1749-2.1235 0.49094-2.9682-0.16861-3.9975-3.1212-1.2832-3.681-1.4528-3.7437-10.12-3.7437h-8.815v-13.75-13.75h8.2336c8.0619 0 8.2639-0.0809 9.6875-3.8759 1.437-3.8306 1.5342-3.8673 8.3289-3.1437 3.7812 0.40269 13.625 1.0661 21.875 1.4743 15.452 0.76444 17.14 0.58475 76.25-8.1142 9.625-1.4165 23.688-3.46 31.25-4.541 7.5625-1.0811 15.016-2.2705 16.562-2.6431l2.8125-0.67744v31.386 31.386l-4.0625-0.13268c-2.2344-0.073-25.438-2.5829-51.562-5.5776zm-436.86-59.21c0-4.0802 0.54858-8.8615 1.2191-10.625l1.2191-3.2064h-8.0127c-4.407 0-9.5234 0.57438-11.37 1.2764-2.4145 0.918-4.5925 0.83026-7.7567-0.3125-3.9467-1.4253-4.5424-1.3485-5.7867 0.74682-7.3626 12.397-8.3676 9.4749-7.9684-23.172 0.18216-14.897 0.80796-27.554 1.3906-28.125 0.58268-0.57148 2.5514 0.69704 4.375 2.8189l3.3156 3.858 16.216 0.23267c8.9186 0.12797 16.755 0.77168 17.413 1.4305 0.6588 0.65879 1.4502 9.1062 1.7587 18.772 0.38951 12.205 0.98881 17.432 1.9615 17.11 0.89976-0.29853 1.5266-5.6807 1.7528-15.05l0.35-14.585h4.9603c4.8956 0 4.9606-0.0612 4.9774-4.6875 0.0326-8.9455 0.86923-10.022 11.757-15.124 5.625-2.636 13.444-6.8505 17.376-9.3657 6.87-4.393 7.59-4.572 18.37-4.572 6.1742 0 11.226 0.48113 11.226 1.0692 0 0.58804 1.8281 1.5919 4.0625 2.2308l4.0625 1.1617 0.36374 10.312 0.36374 10.312-4.4706 1.8679c-4.73 1.978-6.88 5.673-6.88 11.854 0 4.4113-3.3946 5.6545-11.941 4.3729l-5.6589-0.8486 0.3624 10.905c0.32593 9.8084 0.61389 10.942 2.8624 11.266 1.375 0.19843 3.7656 1.8289 5.3125 3.6233 2.3726 2.7523 2.8125 4.7179 2.8125 12.568v9.3053h-35-35v-7.4186z"/>
</svg>
