<?xml version="1.0" encoding="UTF-8" standalone="no"?>
<!-- Created with Inkscape (http://www.inkscape.org/) -->
<svg id="svg3408" xmlns:rdf="http://www.w3.org/1999/02/22-rdf-syntax-ns#" xmlns="http://www.w3.org/2000/svg" height="375" viewBox="0 0 1250 375" width="1250" version="1.1" xmlns:cc="http://creativecommons.org/ns#" xmlns:dc="http://purl.org/dc/elements/1.1/">
 <metadata id="metadata3414">
  <rdf:RDF>
   <cc:Work rdf:about="">
    <dc:format>image/svg+xml</dc:format>
    <dc:type rdf:resource="http://purl.org/dc/dcmitype/StillImage"/>
    <dc:title/>
   </cc:Work>
  </rdf:RDF>
 </metadata>
 <path id="path3418" fill="#fff" d="m329.59 279.73c-9.5473-1.2107-19.328-7.286-23.27-14.454-6.2476-11.361-2.8958-19.92 21.634-55.242 16.287-23.452 16.983-25.649 12.915-40.765-0.50875-1.8906-0.60455-3.4375-0.21289-3.4375 0.39165 0 5.6558 1.2191 11.698 2.7091 9.1288 2.2512 14.79 2.7214 33.486 2.7816 13.662 0.044 23.727-0.4628 25.625-1.2903 2.5613-1.117 0.19355-1.5255-13.125-2.2647-9.1722-0.50903-26.528-2.7814-39.848-5.2171-29.333-5.364-35.218-7.8879-42.776-18.344-4.4062-6.0959-9.2512-16.821-9.2512-20.48 0-3.1784 8.3788-12.572 14.319-16.053 7.2208-4.2317 27.146-10.364 38.441-11.831 5.0932-0.66143 56.068-1.2007 115.53-1.2223 102.77-0.0373 106.44 0.0413 107.03 2.2896 0.54492 2.0838 2.3514 2.3912 17.206 2.9276 20.975 0.7574 20.384 0.17026 19.247 19.111-0.45397 7.567-1.261 14.234-1.7933 14.816-0.53236 0.58186-8.9763 1.6896-18.764 2.4615l-17.796 1.4036 0.62642 16.416 0.62642 16.416-15.772 0.80445c-8.6747 0.44245-28.346 0.80673-43.714 0.80952l-27.942 0.005-8.9328 4.6332c-6.2209 3.2266-11.779 7.5578-18.308 14.267-7.2498 7.4499-11.706 10.792-19.66 14.742-9.704 4.8197-10.91 5.1082-21.364 5.1082-12.231 0-20.446-1.956-26.59-6.3306l-4.0442-2.8797-5.3375 6.1525c-9.2763 10.693-13.054 18.119-14.375 28.263-1.5841 12.161-2.4089 13.792-9.1177 18.037-7.0153 4.4382-8.6384 8.1078-8.075 18.256l0.43735 7.8773-11.25 0.15796c-6.1875 0.0869-14.062-0.19869-17.5-0.6346zm116.09-82.898c9.4337-3.9791 14.534-7.7543 14.534-10.758 0-1.0021-1.1251-3.6425-2.5002-5.8674-3.0335-4.9083-12.828-8.1247-24.741-8.1247-6.642 0-7.9591 0.3929-9.5728 2.8556-2.4718 3.7725-0.89939 14.265 2.8526 19.035 1.491 1.8954 2.7108 3.9329 2.7108 4.5277 0 1.9329-3.6873 1.1451-8.1024-1.7311-4.68-3.05-10.65-14.35-10.65-20.16 0-4.1129-1.9023-4.1424-7.8198-0.12138-4.8741 3.312-6.6943 7.3758-5.4767 12.227 1.0401 4.1442 9.9182 10.81 16.119 12.102 8.9704 1.8692 22.747 0.18598 32.644-3.9885zm-46.225-38.813c2.0107-3.2076-0.54656-6.5625-5.0022-6.5625-2.8217 0-3.7033 0.63151-4.0222 2.8813-0.83841 5.9142 5.9012 8.6634 9.0244 3.6812zm151.27-0.47094c0.9922-2.5856-1.3557-5.4666-4.4551-5.4666-2.6684 0-4.1998 2.7737-3.1057 5.625 0.96466 2.5139 6.5805 2.3962 7.5608-0.15844zm7.5413-21.995c1.4646-2.091 1.9459-6.0612 1.9459-16.052v-13.274l-4.8325-1.4479c-3.167-0.94885-16.996-1.4479-40.124-1.4479-30.259 0-35.913 0.29519-39.654 2.0701l-4.3624 2.0701 0.42354 12.052c0.31245 8.891 1.0049 12.938 2.6398 15.43l2.2163 3.3776h39.9c39.815 0 39.904-0.006 41.846-2.7781zm-81.899-3.1594c-0.31557-3.1194 0.30944-18.78 0.81776-20.491 1.2863-4.3276 6.4635-4.8728 43.027-4.5304l35.625 0.33352 0.3613 9.4778c0.19872 5.2128-0.20923 10.978-0.90656 12.812l-1.2679 3.3347h-38.781c-21.33 0-38.824-0.42188-38.876-0.9375zm216.66 37.513c-2.3502-1.1739-4.0625-2.9873-4.0625-4.3024 0-2.1616-2.5846-2.2732-52.664-2.2732h-52.664l0.77479-4.6875c0.42613-2.5781 0.78098-7.9219 0.78855-11.875l0.02-7.18h51.104c50.138 0 51.117-0.0475 51.761-2.5125 0.36136-1.3819 2.5364-3.324 4.8333-4.3158 3.7824-1.6332 0.6394-1.8383-33.324-2.175l-37.5-0.37174-0.35549-11.999-0.35548-11.999 10.355-0.80609c5.6955-0.44335 70.019-0.80947 142.94-0.81359 114.32-0.007 133.46-0.2663 138.91-1.8864 3.4799-1.0334 7.0259-2.7209 7.8799-3.75 1.7346-2.0901 7.4967-2.5674 7.4967-0.62106 0 3.1797 5.148 6.25 10.479 6.25 4.6255 0 5.5966 0.43822 6.2329 2.8125 0.98802 3.6868 0.99151 13.357 0.006 18.281l-0.78 3.91h-26.719-26.719v3.125c0 2.8704-0.45834 3.125-5.625 3.125h-5.625v13.207c0 7.264-0.61061 14.348-1.3569 15.743-0.7463 1.3945-3.7226 3.5819-6.6141 4.8609-4.9587 2.1935-10.08 2.3246-90.206 2.3098-75.857-0.014-85.383-0.23283-89.011-2.0448zm185.92-39.39c0.01-0.51563-2.6527-0.9204-5.9184-0.89949-4.7684 0.0305-5.4918 0.29724-3.6741 1.3546 1.2449 0.72413 3.0943 0.99775 4.1098 0.60806 1.0348-0.39708 2.1768 0.15247 2.598 1.2502 0.6064 1.5803 0.95586 1.6366 1.8085 0.29144 0.5813-0.91702 1.0655-2.0892 1.076-2.6048zm8.959 33.149c-3.5983-0.44131-4.0827-0.89529-3.4546-3.2374 0.40184-1.4983 0.7383-6.7432 0.74769-11.655l0.017-8.9312 5.3125-0.82549c2.9219-0.45401 8.7509-1.1202 12.953-1.4804 9.0132-0.77249 9.1892-0.50271 9.2171 14.129 0.0249 13.092 0.14907 12.949-11.054 12.715-5.2546-0.11-11.437-0.43102-13.739-0.71335z"/>
</svg>
