<?xml version="1.0" encoding="UTF-8" standalone="no"?>
<!-- Created with Inkscape (http://www.inkscape.org/) -->
<svg id="svg3396" xmlns:rdf="http://www.w3.org/1999/02/22-rdf-syntax-ns#" xmlns="http://www.w3.org/2000/svg" height="1845" viewBox="0 0 1845 1845" width="1845" version="1.1" xmlns:cc="http://creativecommons.org/ns#" xmlns:dc="http://purl.org/dc/elements/1.1/">
 <metadata id="metadata3402">
  <rdf:RDF>
   <cc:Work rdf:about="">
    <dc:format>image/svg+xml</dc:format>
    <dc:type rdf:resource="http://purl.org/dc/dcmitype/StillImage"/>
    <dc:title/>
   </cc:Work>
  </rdf:RDF>
 </metadata>
 <path id="path3406" fill="#fff" d="m578.23 1802.5c-15.554-1.7918-32.453-13.396-37.661-25.861-6.6851-16-3.4199-48.009 9.0087-88.314 9.2606-30.031 10.215-33.797 10.988-43.37 2.0132-24.93 6.1366-42.25 11.607-48.75l3.2958-3.9167-0.86161-18.979c-1.6067-35.392-4.8583-67.096-12.843-125.23-2.4794-18.051-2.3524-67.166 0.23915-92.5 2.3551-23.023 6.8602-48.502 12.377-70 4.8415-18.865 6.8068-39.973 7.274-78.125 0.24493-20-0.31755-29.647-3.1342-53.75-1.888-16.156-3.9989-31.788-4.6908-34.736-1.3572-5.7833-5.4694-33.469-6.8688-46.245l-0.86051-7.8562-6.4347-3.2211c-3.5391-1.7716-8.2595-4.5906-10.49-6.2643-3.1506-2.3644-4.9718-2.8713-8.1643-2.2724-3.1176 0.5849-4.6263 0.1994-6.2525-1.5976-1.95-2.1547-2.0317-4.1653-0.90508-22.275 0.68111-10.949 1.5123-22.157 1.847-24.907 0.33478-2.75 0.90856-14.562 1.2751-26.25 1.9376-61.785 8.0883-95.696 28.237-155.68 6.4848-19.306 9.4325-26.042 17.702-40.449 5.0455-8.7907 7.0324-13.861 8.7609-22.359 3.6668-18.027 8.732-32.579 11.819-33.955 1.7155-0.76475 3.2428-3.24 4.2418-6.875 0.85863-3.124 3.3511-10.18 5.5388-15.68 6.5549-16.479 8.5072-29.44 7.7174-51.237-0.37394-10.32-1.2112-20.732-1.8606-23.138-0.64938-2.4062-1.8663-7.4688-2.7042-11.25-2.7967-12.62-6.5363-23.007-13.277-36.875-7.4752-15.38-14.772-35.632-17.513-48.605-0.99983-4.7325-1.8504-14.154-1.89-20.938-0.0397-6.7831-0.53207-12.333-1.0942-12.333-0.56211 0-3.1602-6.2464-5.7734-13.881-4.0977-11.971-6.7118-16.826-19.001-35.289-15.047-22.607-23.747-39.062-27.207-51.455-2.5753-9.2261-3.0714-9.7866-7.2548-8.1961-4.202 1.5976-16.63 3.7215-26.437 4.518-17.902 1.454-82.03 4.6098-104.38 5.1363l-24.375 0.5744-14.537 6.1493c-7.9951 3.3821-18.406 6.8127-23.134 7.6236-11.004 1.887-14.67 0.29205-28.017-12.19-9.508-8.79-15.539-12.88-19.141-12.88-1.0097 0-3.5258 0.96992-5.5913 2.1554-3.5866 2.0584-3.8723 2.0497-6.3513-0.19374-3.8059-3.4443-3.3381-9.8192 1.3271-18.085 4.8095-8.5219 12.925-19.678 17.376-23.885 1.8235-1.7237 4.4382-5.6612 5.8105-8.75 8.6113-19.383 36.776-34.312 74.14-39.299 41.308-5.5138 53.124-6.9141 68.75-8.1471 9.2812-0.73237 20.812-1.6562 25.625-2.053 12.501-1.0306 36.46-6.2302 49.141-10.664 13.148-4.5977 30.275-13.705 32.432-17.245 1.01-1.65 2.88-2.59 5.17-2.59 5.5229 0 6.8682-2.6057 5.9384-11.502-0.69711-6.6696-1.347-8.1538-4.8628-11.107-2.232-1.8746-7.3258-4.4037-11.32-5.6202-7.32-2.23-9.62-4.43-9.62-9.19 0-1.42-0.56-2.58-1.25-2.58-0.6875 0-1.2511-1.5469-1.2524-3.4375-0.001-1.8906-1.6877-13.562-3.7476-25.938-7.8694-47.276-2.9095-77.778 16.86-103.68 13.227-17.332 37.376-33.321 59.442-39.357 13.001-3.5563 39.928-4.0044 50.516-0.84056 28.559 8.5335 48.217 26.375 60.057 54.506 8.0568 19.142 9.2859 28.686 9.3556 72.651l0.019 12.027 8.2633 12.66c4.5448 6.9632 8.8923 12.66 9.661 12.66 3.5564 0 18.5 6.7393 19.631 8.8535 1.614 3.0157-1.7718 8.6465-5.1991 8.6465-1.2959 0-2.3562 0.32397-2.3562 0.71995 0 1.3652 10.964 14.913 14.853 18.352 2.1435 1.8959 3.9079 4.1459 3.9207 5 0.0277 1.8386 44.451 23.479 48.136 23.449 1.3939-0.0113 3.7904 0.85899 5.3256 1.9343 1.6002 1.1208 3.8525 1.6182 5.2781 1.1658 1.5896-0.50451 2.4869-0.21768 2.4869 0.79492 0 1.2322 0.33334 1.2509 1.5 0.0842 0.825-0.825 2.9344-1.5072 4.6875-1.516 1.7531-0.009 7.5074-1.3957 12.787-3.082 14.822-4.7341 41.177-8.1374 63.076-8.1452 21.801-0.008 33.048 2.2936 55.601 11.376l12.973 5.2246 43.125 0.99962c23.719 0.54978 54.428 1.388 68.243 1.8627 28.796 0.98941 29.246 0.90062 57.382-11.33 21.504-9.3477 24.535-10.414 34.005-11.963 4.9339-0.8071 32.076-1.605 64.745-1.9034 53.281-0.48662 64.798-0.93797 108.12-4.2374 21.177-1.6127 29.649-2.5597 67.365-7.5308 20.476-2.6987 28.61-4.25 30.298-5.7782 2.0711-1.8744 5.0394-1.9997 28.885-1.2196 35.706 1.1681 51.773 3.3273 65.933 8.8602 6.1683 2.4103 11.71 4.3823 12.316 4.3823 0.6055 0 3.6345 2.2302 6.7313 4.956 9.1556 8.0592 9.3251 19.605 0.272 18.548-2.6956-0.3147-4.4543 0.0936-4.8505 1.1261-0.3418 0.8909-2.186 1.626-4.0983 1.6336-1.9122 0.007-5.5861 0.36242-8.1642 0.78855-4.3458 0.71832-4.6875 1.0846-4.6875 5.0255 0 2.5322-0.7225 4.5279-1.787 4.9364-0.9829 0.37715-6.186-0.53606-11.562-2.0294-5.3765-1.4933-11.182-2.8634-12.9-3.0447-1.7188-0.18127-6.6164-1.34-10.884-2.5748l-7.7586-2.2452-3.4914 3.7243c-8.1124 8.6534-12.726 10.527-30.494 12.386-15.363 1.6072-17.361 2.1335-29.121 7.6707l-12.626 5.9452-21.922 0.0144-21.922 0.0144-5.311-4.2037c-4.834-3.8262-6.2563-4.2626-15.838-4.8604-14.132-0.88164-20.56 0.57804-51.296 11.647-40.5 14.585-85.252 29.613-109.34 36.716-12.031 3.5481-24.896 7.8294-28.589 9.514-3.6925 1.6846-7.9459 3.0629-9.4521 3.0629-3.878 0-22.425-4.9805-23.196-6.2292-0.3532-0.57138-10.204 1.7331-21.89 5.121-30.609 8.8736-49.837 12.057-81.873 13.553-14.781 0.69036-35.926 2.3998-46.988 3.7987s-31.594 2.988-45.625 3.5312c-22.288 0.86291-26.245 1.3305-31.312 3.7001-14.212 6.6463-21.425 23.214-30.984 71.166-2.77 13.896-6.2033 28.521-7.6295 32.5-1.7881 4.9886-2.9275 12.473-3.6707 24.109-0.61994 9.7074-1.9361 19.246-3.0988 22.456-2.0992 5.7967-3.7494 12.832-8.9536 38.169-5.6538 27.527-7.1128 41.252-7.2413 68.125-0.1055 22.049 0.2781 27.631 2.7484 40 4.2042 21.051 10.26 40 12.783 40 5.6366 0 8.6949 8.0894 14.177 37.5 0.833 4.4688 2.7666 10.094 4.2969 12.5 12.699 19.968 26.476 57.303 37.131 100.62 7.4704 30.372 10.414 51.942 11.856 86.875 0.66672 16.156 1.7588 37.25 2.4269 46.875 2.8827 41.533 2.8768 39.971 0.16146 42.429-1.6992 1.5377-3.4824 1.9904-5.6738 1.4404-2.3898-0.5998-5.2075 0.3874-11.172 3.9143-4.3869 2.5941-9.6602 5.6396-11.718 6.7678-3.2125 1.7609-3.8594 2.9996-4.5694 8.75-2.2324 18.08-4.7936 35.444-6.9803 47.324-1.3287 7.2187-3.8231 26.625-5.543 43.125-2.94 28.205-3.0514 31.758-1.8627 59.375 1.6891 39.241 2.6699 48.063 7.226 65 5.0919 18.928 9.6992 44.954 12.06 68.125 2.5939 25.457 2.7284 74.545 0.25334 92.5-7.9231 57.476-11.243 89.829-12.85 125.23l-0.86161 18.979 3.2958 3.9168c5.46 6.4889 9.7944 24.643 11.64 48.75 0.72926 9.5284 1.666 13.243 10.875 43.125 3.8139 12.375 7.5426 26.719 8.2861 31.875 0.7435 5.1562 1.9608 12.101 2.7052 15.433 2.2728 10.172 1.9152 30.486-0.66997 38.063-3.2019 9.3853-13.42 20.109-23.451 24.61-14.847 6.6629-42.134 6.8689-61.052 0.461-15.382-5.2103-27.127-22.275-28.543-41.47-0.70659-9.5798 1.746-24.552 5.6254-34.341l3.1187-7.8696-0.5683-46.67c-0.31257-25.668-0.98053-47.337-1.4844-48.152-1.9456-3.1481 2.0779-17.5 7.2897-26.003l5.1707-8.436-0.0847-20c-0.1324-31.229-2.8185-74.637-5.6807-91.801-1.9321-11.586-3.6681-17.735-6.7154-23.787-6.9658-13.834-15.476-40.714-19.007-60.037-2.8112-15.382-3.3276-21.814-3.4122-42.5-0.0591-14.457 0.59555-29.288 1.6089-36.45l1.7085-12.075-7.5062-19.175c-10.46-26.8-12.12-34.3-12.12-54.8 0-9.2812 0.19616-19.125 0.43591-21.875 0.25866-2.967-0.61049-7.8443-2.1376-11.995-3.5651-9.6907-7.065-29.482-12.744-72.067l-1.5419-11.562h-6.3812c-5.7384-0.001-6.8352-0.4732-10.887-4.6875-4.364-4.5388-4.5303-5.0604-5.2786-16.561-0.71912-11.052-4.1028-45.428-5.1677-52.5-0.25881-1.7187-1.7745-14.375-3.3682-28.125l-2.8976-25-1.5003 13.125c-0.82516 7.2187-2.9626 27.269-4.7498 44.555-1.7872 17.287-3.4975 32.718-3.8006 34.292-0.3031 1.5739-0.92664 7.9615-1.3856 14.195-0.79769 10.832-1.0336 11.54-5.3401 16.02-4.1547 4.3215-5.0511 4.6865-11.512 4.6875h-7.0062l-1.5419 11.562c-5.6789 42.585-9.1788 62.376-12.744 72.067-1.5272 4.1511-2.3963 9.0284-2.1376 11.995 0.23975 2.75 0.42342 12.875 0.40816 22.5-0.0331 20.862-1.3386 26.694-12.142 54.236l-7.5454 19.236 1.4918 10.139c3.9935 27.142 2.8379 60.288-3.1177 89.426-2.6089 12.764-12.151 40.898-17.42 51.36-3.3116 6.576-4.9435 12.264-6.8222 23.78-2.8197 17.283-5.4492 60.565-5.5787 91.823l-0.088 21.25 4.6636 6.6525c5.1134 7.2942 7.5266 14.4 7.505 22.098-0.007 2.75-0.40772 26.26-0.88886 52.245l-0.87479 47.245 3.0989 7.7554c3.8754 9.6986 6.3508 24.699 5.648 34.227-1.4219 19.278-13.215 36.35-28.661 41.49-13.214 4.3975-29.427 5.8078-45.491 3.9572zm36.25-8.8285c5.5-1.3729 12.25-4.0399 15-5.9266 5.4699-3.7528 10.257-11.998 11.501-19.807l0.77339-4.8565-5.512 5.9684c-6.9701 7.547-14.777 10.383-36.061 13.098-14.831 1.8922-16.233 1.8777-25.309-0.2623-8.6862-2.048-9.795-2.0793-11.55-0.3245-2.2394 2.2393-8.8035 3.9526-10.686 2.7891-0.70427-0.4353-1.2805-0.2725-1.2805 0.3616 0 1.5174 12.745 7.1955 21.332 9.5039 10.092 2.7128 29.772 2.4567 41.793-0.544zm284.22 0c9.7955-2.7145 18.17-6.5029 19.643-8.8855 0.57005-0.9224 0.35966-1.1253-0.57068-0.5503-2.0451 1.2639-8.5394-0.3297-10.879-2.6697-1.7547-1.7548-2.8634-1.7235-11.55 0.3245-9.0869 2.1425-10.457 2.156-25.234 0.2484-21.449-2.769-27.965-5.0783-35.496-12.579l-6.1212-6.0968 0.75755 4.6682c1.2414 7.6496 6.0718 15.904 11.485 19.627 11.669 8.0238 39.942 10.908 57.965 5.9137zm-340.68-15.788c0.45534-0.4554-1.9637-2.7079-5.3757-5.0057-3.412-2.2977-6.8043-5.3002-7.5385-6.6721-0.73423-1.3719-1.8777-2.4944-2.541-2.4944-1.6048 0-1.5408 5.7888 0.0977 8.8505 2.123 3.9669 12.958 7.7213 15.357 5.3217zm363.77-1.0452c4.946-2.0665 7.0727-5.0493 7.0727-9.9198 0-3.8265-1.8883-4.1858-3.747-0.7128-0.73423 1.3719-4.1266 4.3744-7.5385 6.6721-8.3257 5.6069-5.6801 8.0942 4.2128 3.9605zm-302.32-2.9675c7.5734-3.379 11.283-6.703 14.825-13.284 2.4506-4.5535 2.7096-7.065 2.9009-28.125 0.1155-12.719-0.35071-26.781-1.0361-31.25-1.613-10.517-1.4793-43.76 0.20103-50 1.3517-5.0198 0.0937-14.156-2.2752-16.525-3.3329-3.3329-15.225 5.862-15.225 11.772 0 2.6863 0.70317 3.9214 2.5 4.3914 3.2214 0.8424 3.2259 3.7133 0.007 4.7348-6.6939 2.1246-8.3625 9.2366-3.1324 13.351 4.1939 3.2989 3.9541 5.9234-0.625 6.8391-2.4937 0.4988-3.75 1.501-3.75 2.9915 0 1.2329-0.3136 3.0588-0.69689 4.0577-0.38329 0.9987 0.15144 2.6643 1.1883 3.7012 1.0368 1.0368 2.2286 3.2534 2.6483 4.9256 0.61077 2.4336 0.124 3.3318-2.4383 4.4993-2.7502 1.2531-3.2014 2.2576-3.2014 7.1281 0 4.773 0.61824 6.2218 3.91 9.163 3.0901 2.761 3.7196 4.0935 3.002 6.3545-0.69595 2.1928-1.6092 2.727-3.91 2.2871-2.2576-0.4315-3.002-0.024-3.002 1.6457 0 2.4233-9.648 8.9587-15.315 10.374-2.3695 0.5917-5.0106 0.058-8.4894-1.7173-4.9272-2.5187-14.946-11.523-14.946-13.438 0-0.5278 1.4062-3.0292 3.125-5.5586 3.6658-5.3946 3.8239-7.2559 1.1037-12.988-1.694-3.5698-1.7518-4.5843-0.35715-6.2648 2.2006-2.6516 2.1335-14.39-0.10625-18.575-1.4043-2.624-1.4597-3.8053-0.26786-5.7137 2.2902-3.6671 1.8009-7.1923-1.2228-8.8105-2.4998-1.3378-2.5515-1.5855-0.625-2.9943 1.1552-0.8446 2.1003-2.9366 2.1003-4.6488 0-3.614-2.3138-11.045-4.0048-12.861-2.0105-2.1599-4.4647 2.8226-5.4124 10.988-0.49119 4.232-3.0149 15.022-5.6082 23.978s-6.1068 21.065-7.8076 26.908c-4.4799 15.392-4.5647 15.8-5.8359 28.125-0.63817 6.1875-0.74781 15.046-0.24362 19.685 0.79219 7.2891 1.5021 9.0443 5.2271 12.924 6.1886 6.4456 14.703 10.344 28.495 13.047 15.722 3.0811 29.804 2.6688 38.299-1.1213zm268.45 1.148c14.871-2.7321 23.241-6.4262 29.623-13.074 3.7115-3.8657 4.4425-5.6614 5.2612-12.924 1.7099-15.168-0.275-28.359-8.3227-55.31-7.9533-26.635-10.372-36.048-11.309-44.012-0.90511-7.6902-3.3522-12.466-5.3098-10.363-1.691 1.8166-4.0048 9.2473-4.0048 12.861 0 1.7122 0.94512 3.8042 2.1003 4.6489 1.9265 1.4087 1.8748 1.6565-0.625 2.9942-3.0237 1.6182-3.5129 5.1434-1.2228 8.8105 1.1918 1.9084 1.1365 3.0897-0.26786 5.7137-2.2397 4.185-2.3068 15.923-0.10625 18.575 1.3946 1.6805 1.3368 2.695-0.35715 6.2648-2.4809 5.2281-2.5736 8.7422-0.28077 10.645 0.95728 0.7945 2.4184 3.081 3.2469 5.0812 1.4295 3.4512 1.2209 3.9142-4.0901 9.0759-3.0781 2.9915-7.9272 6.4901-10.776 7.7748l-5.1793 2.3355-8.4086-4.2756c-5.8271-2.9629-8.5238-5.079-8.7838-6.8925-0.2878-2.0077-1.0596-2.4862-3.3145-2.0552-2.2312 0.4265-3.1581-0.1273-3.8474-2.2991-0.71764-2.261-0.0881-3.5935 3.002-6.3545 3.2918-2.9412 3.91-4.39 3.91-9.163 0-4.8705-0.45116-5.875-3.2014-7.1281-2.5623-1.1675-3.0491-2.0656-2.4383-4.4993 0.41973-1.6722 1.6114-3.8888 2.6483-4.9256 1.0368-1.0369 1.5716-2.7025 1.1883-3.7012-0.38329-0.9989-0.69689-2.8248-0.69689-4.0577 0-1.4905-1.2563-2.4927-3.75-2.9915-4.5791-0.9157-4.8189-3.5402-0.625-6.8391 5.2301-4.1141 3.5615-11.226-3.1324-13.351-3.2185-1.0215-3.214-3.8924 0.007-4.7348 1.7968-0.47 2.5-1.7051 2.5-4.3914 0-5.9097-11.892-15.105-15.225-11.772-2.3757 2.3757-3.6266 11.507-2.2676 16.554 1.7048 6.331 1.8312 40.957 0.18473 50.597-0.7045 4.1249-1.1766 17.906-1.0491 30.625 0.19936 19.892 0.55804 23.737 2.5655 27.5 4.5059 8.4472 9.5651 12.399 20.166 15.752 7.2512 2.2933 17.081 2.0813 32.187-0.694zm-289.49-51.996c6.1636-4.7012 5.3806-5.9486-3.3381-5.318-9.3457 0.676-11.849 2.669-7.6554 6.0954 3.9042 3.1901 5.9847 3.043 10.994-0.7774zm284.35 0.7774c4.1933-3.4264 1.6902-5.4194-7.6554-6.0954-8.6687-0.627-9.4445 0.5576-3.4561 5.2771 4.8758 3.8428 7.2005 4.014 11.112 0.8183zm-288.39-12.549 7.5913-0.7895-5.9156-2.9885-5.9156-2.9885-3.1469 2.9563c-3.1674 2.9755-4.4617 7.2307-1.6757 5.5088 0.80916-0.5 4.8873-1.2645 9.0625-1.6986zm289.01-3.5602-3.2506-3.2505-5.9611 3.0105-5.9611 3.0107 7.8325 0.8116c4.3078 0.4462 8.2336 1.2126 8.724 1.703 0.49032 0.4904 1.111 0.2331 1.3792-0.5716 0.26824-0.8047-0.97506-2.9258-2.7629-4.7137zm-279.55-5.8c0-2.3767-1.7926-3.3918-4.2941-2.4319-1.5638 0.6001-1.6958 1.1653-0.58475 2.5041 1.8786 2.2636 4.8788 2.2193 4.8788-0.072zm267.38 0.073c1.1111-1.3388 0.97908-1.9041-0.58475-2.5042-2.5016-0.9599-4.2941 0.055-4.2941 2.4319 0 2.2915 3.0002 2.3359 4.8788 0.072zm-273.16-7.0795c6.4495-2.8529 7.4093-5.6354 2.5775-7.4726-4.4039-1.6742-4.2954-1.7002-11.185 2.6693-5.7643 3.6555-5.989 3.992-3.7558 5.625 3.2103 2.3474 5.5509 2.1917 12.364-0.8218zm286.32 0.9017c2.0876-1.5264 1.7948-1.9685-3.7254-5.625-6.4674-4.2838-8.1714-4.6669-11.895-2.6743-3.8603 2.066-2.8269 4.6734 2.8947 7.3034 6.4009 2.9423 9.7094 3.2013 12.725 0.9959zm-296.79-12.1c1.6667-1.0941 1.6667-1.3677 0-2.4618-2.8104-1.8448-3.75-1.5365-3.75 1.2309s0.9396 3.0758 3.75 1.2309zm298.75-1.2c0-2.7674-0.9396-3.0758-3.75-1.2309-1.6667 1.0941-1.6667 1.3677 0 2.4618 2.8104 1.8449 3.75 1.5365 3.75-1.2309zm-281.6-7.7254c2.9485-2.447 1.6512-4.5233-4.0373-6.4616-5.9623-2.0315-11.7-1.1329-15.519 2.4306-1.5172 1.4157-0.78938 2.1267 4.8545 4.7414 6.7424 3.1239 10.288 2.9525 14.702-0.7104zm278.85-0.6703c2.9606-1.2194 0.94483-4.4568-3.7962-6.0967-3.9524-1.3672-5.5513-1.3167-10.377 0.3276-6.8091 2.3202-7.0358 4.9942-0.69205 8.1638 3.8808 1.939 4.6425 1.9562 8.7463 0.199 2.4724-1.0588 5.226-2.226 6.1192-2.5938zm-281.64-18.241c5.3554-1.9597 7.5906-3.4492 7.8612-5.2383 0.96278-6.3674 1.8146-8.3614 5.2372-12.26 2.0187-2.2991 5.9481-5.2074 8.7319-6.4627 3.7599-1.6955 5.0616-3.0127 5.0616-5.1217 0-10.017-19.696-17.563-32.228-12.346-7.8666 3.2747-20.227 11.101-20.251 12.822-0.0125 0.897 1.1532 4.2105 2.5894 7.3632 1.4362 3.1526 3.294 9.4315 4.1286 13.953 1.2994 7.0406 1.9565 8.3436 4.5762 9.0747 4.7741 1.3324 6.2944 1.1425 14.292-1.7838zm283.3 0.9147c0.44051-0.2722 1.1748-3.4872 1.6317-7.1445 0.45695-3.6572 2.2102-9.6267 3.8961-13.266 1.6859-3.6389 3.0555-7.5446 3.0434-8.6795-0.0221-2.0944-11.519-9.6193-20.251-13.254-12.53-5.3-32.23 2.3-32.23 12.3 0 2.109 1.3016 3.4262 5.0616 5.1216 2.7839 1.2554 6.7132 4.1637 8.7319 6.4628 3.4226 3.8981 4.2744 5.8921 5.2372 12.26 0.74552 4.9304 19.392 9.5425 24.876 6.153zm-294.27-49.1c7.7563-3.9504 21.548-3.7643 29.777 0.4017 3.3484 1.6953 6.244 2.9263 6.4346 2.7355 0.19063-0.1906-0.15185-3.4092-0.76108-7.1525-0.60924-3.7432-0.78872-8.4898-0.39887-10.548l0.70881-3.7421-5.1104 4.6044c-8.0801 7.2797-20.666 9.3104-33.526 5.4091-3.3749-1.0237-6.5176-1.8675-6.9837-1.875-0.46616-0.013-1.2154 3.2209-1.6649 7.174-0.44954 3.9531-1.1305 8.2981-1.5132 9.6555-0.62432 2.2143-0.26025 2.1364 3.5399-0.7571 2.3297-1.7739 6.604-4.4314 9.4985-5.9055zm300.12-0.7938c-0.65646-4.806-1.3777-8.9223-1.6028-9.1475-0.22506-0.225-3.3793 0.4729-7.0094 1.5509-13.406 3.9811-25.768 2.0466-33.934-5.3106l-5.1104-4.6044 0.70881 3.7421c0.38985 2.0582 0.21036 6.8048-0.39887 10.548-0.60923 3.7433-0.95172 6.9619-0.76108 7.1525 0.19065 0.1908 3.0862-1.0402 6.4346-2.7355 8.6301-4.3691 22.033-4.3697 30.393 0 3.2428 1.6944 7.2938 4.1872 9.0023 5.5395 1.7085 1.3525 3.1883 2.3569 3.2886 2.232 0.10025-0.125-0.35487-4.1592-1.0113-8.9653zm-317.28 2.1022c-0.0165-1.8217-0.18661-1.8547-1.2309-0.2388-1.582 2.448-1.582 4.1028 0 3.125 0.6875-0.4249 1.2414-1.7237 1.2309-2.8862zm323.92 0.1675c-1.0894-1.8735-1.3334-1.9275-1.3646-0.3022-0.0404 2.1052 1.274 4.0005 2.1599 3.1147 0.29219-0.2922-0.0657-1.5578-0.79532-2.8125zm-277.56-20.094 6.7866-3.4375 0.74619-45c0.71465-43.098 1.6852-56.222 5.4981-74.348 2.0872-9.9221 3.932-14.995 6.1097-16.8 1.6458-1.3644 8.9363-21.318 13.425-36.744 6.134-21.08 9.312-53.288 8.0227-81.307-1.3128-28.528-1.3257-28.339 2.9504-43.302 5.6698-19.84 8.8729-39.928 8.8729-55.647 0-16.871-0.24845-17.639-5.1122-15.803-4.4242 1.67-7.8071 0.076-8.4087-3.9633-0.27772-1.8644 1.6367-4.6425 6.4122-9.3048 8.6369-8.4324 12.359-15.858 15.806-31.532 1.5118-6.875 3.4943-14.469 4.4056-16.875 0.9113-2.4062 2.2429-8.875 2.959-14.375 0.71616-5.5 1.9791-15.232 2.8065-21.626 0.88614-6.8484 1.0426-12.031 0.38063-12.61-0.61807-0.5412-7.3112-2.2672-14.874-3.8357-28.216-5.8518-71.337-19.342-93.63-29.292-4.0588-1.8115-7.586-3.0872-7.8383-2.8349-1.3424 1.3424 4.2612 41.796 8.9446 64.574 1.6256 7.9063 3.9317 25.37 5.1246 38.807 2.9302 33.007 1.1912 78.5-3.8919 101.82-1.7984 8.25-4.6029 21.373-6.2322 29.163-1.6293 7.7895-3.5292 14.846-4.2221 15.681-0.69287 0.8348-2.524 11.899-4.0693 24.587-2.3312 19.142-2.8177 29.56-2.8578 61.194-0.0445 35.164 0.2163 39.921 3.3584 61.25 5.678 38.543 9.6813 83.812 9.6866 109.53 0.001 6.6331 0.5444 10.588 1.5646 11.395 3.3419 2.6419 9.4935 3.8775 19.776 3.9723 9.3229 0.086 11.594-0.3475 17.5-3.3389zm-5.3545-99.8c-1.459-27.033 1.6328-76.219 6.5541-104.26 1.442-8.2174 6.4712-45.222 9.3437-68.75 2.0687-16.945 3.3969-21.055 5.6512-17.49 2.7394 4.333 0.60881 45.168-3.6844 70.614-0.96459 5.7174-1.067 5.8606-1.2015 1.6802-0.0809-2.5133 0.73088-14.666 1.8039-27.006 2.3837-27.414 2.0618-42.159-0.45666-20.924-0.89692 7.5625-3.3268 25.281-5.3998 39.375-8.9182 60.633-9.9111 70.742-10.928 111.25-0.78852 31.424-0.81235 31.643-1.683 15.512zm17.16-197.4c7.5594-20.627 9.3382-30.316 9.3682-51.028 0.0113-7.7104 0.63903-13.953 1.5938-15.847 2.1042-4.1741 6.3501-4.6721 8.8921-1.043 2.548 3.6377 2.4667 5.5173-0.5043 11.668-1.3284 2.75-2.4343 6.756-2.4576 8.9022-0.0618 5.6811-5.5219 26.24-9.0892 34.223-3.1333 7.0116-9.4669 17.665-7.803 13.125zm-34.434-20.303c-4.4858-14.004-4.9155-18.409-2.0728-21.252 1.8713-1.8713 2.2142-1.8604 4.425 0.1404 2.0978 1.8984 2.3217 3.4463 1.7964 12.416-0.33007 5.6362-0.0445 12.638 0.6345 15.56 2.3051 9.9186-0.8637 5.3704-4.7831-6.8654zm7.0734-18.982c-8.2724-11.237-11.092-19.53-11.719-34.465-0.60304-14.372 1.2657-22.5 5.1731-22.5 3.7986 0 5.3246 3.6333 3.1981 7.6146-2.4534 4.5934-2.1716 21.324 0.53498 31.76 1.1589 4.4688 3.7854 11.725 5.8366 16.124 2.0512 4.3997 3.4776 8.2512 3.1697 8.559-0.30791 0.3079-3.095-2.884-6.1937-7.0931zm37.094-52.339c-4.0756-5.5126-9.298-16.474-8.4796-17.798 1.7218-2.7859 3.9929-0.4817 8.4458 8.5688 2.5986 5.2817 4.708 10.306 4.6875 11.166-0.061 2.5557-1.8978 1.7915-4.6537-1.9361zm242.74 389.7c3.4806-1.7361 3.7705-2.4085 4.0352-9.3596 1.6858-44.26 4.4018-74.889 10.03-113.11 3.1398-21.324 3.4012-26.094 3.3566-61.25-0.0401-31.635-0.52657-42.052-2.8578-61.194-1.5452-12.688-3.4102-23.793-4.1443-24.678-0.73417-0.8846-2.6333-7.9409-4.2202-15.681-1.587-7.7398-4.3577-20.822-6.1571-29.072-2.6538-12.167-3.5356-20.899-4.6691-46.237-1.2208-27.289-1.1204-34.398 0.794-56.25 1.2052-13.757 2.6785-26.982 3.2738-29.388 4.1732-16.867 12.064-70.786 10.577-72.274-0.2225-0.2225-8.1926 2.6976-17.711 6.4891-9.5188 3.7915-24.057 8.9361-32.307 11.432-18.565 5.6176-57.619 15.595-61.142 15.621-5.7844 0.043-6.2826 1.4209-4.6995 13.001 0.80678 5.9013 2.0795 15.652 2.8284 21.667 0.74883 6.0156 2.111 12.906 3.0272 15.312 0.91613 2.4063 2.9026 10 4.4143 16.875 3.4466 15.674 7.1688 23.1 15.806 31.532 4.7755 4.6623 6.6899 7.4404 6.4122 9.3048-0.60201 4.0416-3.9846 5.6332-8.4167 3.9603-2.0402-0.7701-4.0232-1.0863-4.4068-0.7027-1.4567 1.4567-0.60542 30.161 1.2302 41.48 2.2918 14.132 8.8253 40.539 10.82 43.733 1.0637 1.7033 1.0537 4.9094-0.0398 12.734-3.4872 24.956-0.46943 71.176 6.2326 95.458 4.1369 14.988 12.598 38.686 14.319 40.102 2.1874 1.8005 4.0297 6.8567 6.1213 16.8 3.8129 18.126 4.7835 31.25 5.4981 74.348l0.74619 45 6.875 3.5165c6.3559 3.2509 7.7717 3.4858 18.75 3.1095 7.2691-0.2491 13.33-1.1324 15.625-2.2774zm-30.438-105.62c-0.34319-39.103-2.463-62.01-11.276-121.85-2.0756-14.094-4.5077-31.812-5.4046-39.375-2.5185-21.235-2.8403-6.4894-0.45666 20.924 1.073 12.34 1.8847 24.493 1.8039 27.006-0.13449 4.1804-0.23689 4.0372-1.2015-1.6802-4.2932-25.447-6.4238-66.282-3.6844-70.614 2.2543-3.5657 3.5825 0.5446 5.6512 17.49 2.8725 23.528 7.9017 60.533 9.3437 68.75 4.9548 28.235 8.1229 80.348 6.4212 105.62l-1.0099 15-0.1867-21.271zm-18.21-194.7c-5.7502-8.7977-14.409-35.745-14.512-45.16-0.0233-2.1462-1.1292-6.1522-2.4576-8.9022s-2.4343-5.8592-2.4576-6.9094c-0.0662-2.9852 3.6098-7.4656 6.1254-7.4656 4.7015 0 5.6339 3.3868 6.4984 23.603 0.86304 20.183 2.8125 31.477 7.1993 41.709 2.734 6.3769 2.5708 7.6644-0.39615 3.125zm32.031-11.25c0.67905-2.9219 0.96457-9.9239 0.6345-15.56-0.52533-8.9701-0.30138-10.518 1.7964-12.416 2.2108-2.0008 2.5537-2.0117 4.425-0.1404 2.8427 2.8427 2.4131 7.2478-2.0728 21.252-3.9194 12.236-7.0883 16.784-4.7831 6.8654zm-8.9534-18.61c-0.0257-0.4385 1.6216-4.376 3.6609-8.75 2.0393-4.3741 4.656-11.609 5.8149-16.078 2.7066-10.437 2.9884-27.167 0.53498-31.76-2.1276-3.9834-0.60002-7.6146 3.2035-7.6146 3.4314 0 5.3376 6.835 5.4034 19.375 0.0635 12.099-1.906 20.813-6.6814 29.562-3.1859 5.837-11.84 16.905-11.936 15.266zm-35.053-57.64c-0.01-2.8181 9.3447-20.765 10.869-20.852 3.0016-0.1718 2.8995 2.4718-0.34238 8.8694-5.4668 10.788-10.51 16.529-10.527 11.983zm-111.23-115.62c0.009-4.6406 1.1383-13.781 2.5096-20.312 2.271-10.817 5.583-36.428 10.725-82.935 1.1896-10.759 1.7644-25.054 1.5189-37.771-0.52338-27.109-0.24417-26.795-16.904-18.975-13.098 6.1486-21.565 8.8434-17.604 5.6028 1.1756-0.96185 8.054-4.5158 15.285-7.8977 7.2314-3.3818 13.16-6.4892 13.175-6.9052 0.0149-0.41601-3.8463-2.1865-8.5805-3.9343-8.8498-3.2674-11.667-5.2932-43.543-31.313-17.42-14.25-19.1-15.9-16.18-15.9 5.5013 0 25.981 10.599 42.08 21.779 5.1562 3.5806 14.318 8.9556 20.36 11.944 9.9669 4.9306 11.878 5.4442 20.625 5.543 12.315 0.1391 20.198-2.1858 29.616-8.7345 4.1386-2.8778 11.744-7.3465 16.9-9.9305 13.025-6.5276 27.5-13.065 27.5-12.421 0 0.7319-8.8941 6.2941-15.352 9.6011-6.1751 3.162-22.123 14.548-28.398 20.275-2.4062 2.1961-7.0142 5.3417-10.24 6.9902-4.0799 2.085-5.5051 3.4308-4.6827 4.4217 0.79757 0.96101 0.15555 2.1943-1.9733 3.7906-1.7355 1.3014-3.7033 4.3349-4.3728 6.7412-1.799 6.4655-1.4662 36.946 0.61404 56.25 4.1 38.046 8.4106 71.324 10.712 82.696 1.3435 6.6392 2.4428 16.144 2.4428 21.121v9.0495l9.0625-0.7915c21.022-1.8361 75.105-16.375 110.81-29.79 36.052-13.544 45.859-17.868 45.268-19.961-0.26425-0.9345-0.66593-19.418-0.8926-41.074-0.50185-47.945-1.2806-65.21-3.749-83.125-2.1599-15.676-8.0358-43.71-12.445-59.375-4.7369-16.83-14.015-46.373-14.814-47.173-0.40064-0.40064-1.7162 0.13943-2.9236 1.2002-1.2073 1.0607-11.244 7.0112-22.303 13.223-11.059 6.2121-26.809 15.75-35 21.195-16.694 11.099-20.455 13.282-21.346 12.391-0.82706-0.82706 10.076-8.6488 24.579-17.634 21.681-13.431 55-35.853 55-37.012 0-2.6791-10.314-26.944-12.007-28.247-1.0214-0.78621-2.1862-3.4581-2.5886-5.9375-0.40236-2.4794-0.87124-4.508-1.042-4.508-0.17071 0-3.5605 1.488-7.5329 3.3066-6.9342 3.1746-7.2896 3.2149-8.901 1.0111-0.93-1.28-1.69-2.7-1.69-3.16 0-0.4622 3.4461-2.3869 7.6581-4.2771 4.2119-1.8902 7.1059-3.7952 6.4311-4.2332-0.67481-0.43805-1.9137-3.0465-2.753-5.7965-0.83935-2.75-1.7487-5.7077-2.0208-6.5727-0.34436-1.0947-2.3168-0.45153-6.4895 2.1159-3.2971 2.0287-8.2349 4.2181-10.973 4.8652-2.738 0.64711-9.7594 2.5867-15.603 4.3103-10.92 3.2207-17.552 4.3766-45.625 7.9512-29.574 3.7658-107.07 0.76661-137.5-5.3216-16.236-3.2483-30.833-7.8867-37.257-11.839-3.3037-2.0328-6.495-3.3941-7.0919-3.0252-1.7808 1.1006-5.3906 13.291-4.2266 14.274 0.59139 0.49928 3.6065 1.9606 6.7002 3.2473 3.0938 1.2867 6.4688 3.0246 7.5 3.8619 2.6522 2.1535 21.185 7.5377 33.75 9.8053 18.669 3.3692 35.922 4.5662 76.25 5.2907 43.105 0.77431 59.031-0.35382 92.86-6.5778 9.4794-1.7441 18.479-2.9502 20-2.6804 7.1795 1.2742-16.46 7.9804-40.36 11.45-26.681 3.8728-52.807 4.8825-88.364 3.4149-50.856-2.099-73.979-5.7864-98.511-15.709-6.1875-2.5027-11.765-4.6762-12.395-4.8301-0.62953-0.15383-1.5577 1.6212-2.0627 3.9444-0.50494 2.3232-1.4612 4.5732-2.125 5-3.558 2.2874-13.865 30.321-25.102 68.276-14.591 49.282-18.907 76.438-19.666 123.75-0.29799 18.562-0.73049 43.403-0.96109 55.2l-0.41927 21.45 5.1155 2.0797c24.116 9.8041 65.648 24.951 78.323 28.564 33.761 9.6238 65.529 16.79 75.23 16.971l5.9375 0.1105 0.0164-8.4375zm119.98-109.83c-7.9062-1.6759-17.648-3.8821-21.649-4.9026-10.412-2.6557-33.872-14.197-43.13-21.218-7.7372-5.8675-17.246-16.922-17.759-20.645-0.45713-3.3185 0.005-5 1.3752-5 1.6758 0 10.663 6.2474 15.225 10.584 5.6904 5.4086 3.8729 6.1986-2.8712 1.248-3.4698-2.5471-6.5601-4.3797-6.8673-4.0725-1.1568 1.1568 8.6913 11.23 16.1 16.468 8.497 6.0073 22.633 13 34.045 16.842 8.3144 2.7988 42.728 10.181 47.461 10.181 1.896 0 3.0705 0.71721 3.0705 1.875 0 2.7146-7.7741 2.2918-25-1.3596zm-202.5-5.9535c0-1.7306 10.89-5.9761 37-14.425 29.225-9.4568 41.612-12.58 50.035-12.615 9.5094-0.04 10.229 5.5263 1.6618 12.859-5.9298 5.0757-17.3 11.432-18.43 10.302-0.44804-0.44805 3.1056-4.4153 7.8969-8.8161 4.7914-4.4008 8.149-8.0192 7.4615-8.0408-2.7873-0.0878-18.38 4.0919-43.749 11.727-24.086 7.2491-41.876 11.076-41.876 9.0084zm188.96-25.851c-8.9983-2.357-29.659-11.529-34.583-15.352-1.9393-1.5058-2.1659-2.2801-1.0104-3.4524 1.1619-1.1788 2.8117-0.66545 7.5 2.3338 11.259 7.2026 27.112 13.987 37.18 15.91 5.4555 1.0424 10.19 2.1661 10.521 2.4971 1.4988 1.4988-11.328 0.23152-19.607-1.9373zm10.726-11.348c-4.6429-4.1738-8.1253-8.1006-7.7387-8.7261 0.95769-1.5496 16.465-1.4493 17.43 0.11263 0.47614 0.77041-1.6537 1.25-5.5512 1.25-3.4781 0-6.3238 0.42762-6.3238 0.95027s1.5002 2.632 3.3338 4.6875 4.4629 5.0028 5.8429 6.5497c4.2706 4.787 1.8093 3.0892-6.9933-4.8241zm-111.2-53.09c-26.791-4.846-63.089-14.976-71.925-20.073-7.1863-4.1454-6.6869-4.7366 1.25-1.4798 9.1108 3.7386 51.127 14.416 68.249 17.344 14.259 2.4384 31.438 3.2454 31.438 1.4768 0-0.52213-1.125-1.6519-2.5-2.5106-3.8662-2.4144-3.0378-4.0975 1.2764-2.5936 4.687 1.6339 7.0276 5.4536 4.9073 8.0084-1.9398 2.3373-19.328 2.2456-32.696-0.17243zm27.76-19.62c0-0.87287 13.359-9.2458 29.688-18.607 32.71-18.75 35.31-20.17 35.31-19.28 0 0.71915-21.747 15.016-30.312 19.928-3.2656 1.8727-5.9375 3.6231-5.9375 3.8897s3.5156-0.94598 7.8125-2.6946c15.596-6.347 27.188-10.31 27.188-9.2954 0 1.233-16.913 9.1989-34.375 16.19-6.875 2.7526-15.75 6.4571-19.723 8.2322-8.16 3.65-9.65 3.9-9.65 1.64zm-70-12.681c-21.189-6.4368-51.197-19.816-55.294-24.653-1.6418-1.9382-1.8591-3.1408-0.89352-4.9449 1.9992-3.7356 13.509-3.0836 35.1 1.9885 10.237 2.4048 28.029 6.0508 39.538 8.1022 42.924 7.651 45.751 8.2525 46.283 9.8474 1.2564 3.7693-54.68-3.4227-85.357-10.975-8.25-2.031-17.25-4.0436-20-4.4725-4.5998-0.71744-4.8132-0.62902-2.6666 1.1046 1.2833 1.0364 13.94 7.0136 28.125 13.283 31.817 14.061 36.078 17.072 15.167 10.72zm91.956-15.601c-0.38027-0.61527 3.9459-2.6466 9.6137-4.5141s17.618-7.0403 26.555-11.495c8.9375-4.4548 18.5-8.8868 21.25-9.8488l5-1.7491-3.125 2.6314c-4.8978 4.1243-26.378 14.489-42.614 20.563-16.436 6.1483-15.724 5.9599-16.68 4.4132zm22.799-72.657c15.281-3.6354 34.084-9.2124 37.524-11.13 0.90989-0.50714 2.3161-2.2276 3.125-3.8233 2.3524-4.6406 5.6612-6.0918 7.6842-3.3703 1.5481 2.0827 1.9938 2.1171 5.2393 0.40485 4.0982-2.1622 12.922-10.535 12.922-12.261 0-0.64322-0.88964-2.8899-1.977-4.9926l-1.977-3.823-6.2991 7.0674c-6.4125 7.1947-10.19 8.9368-4.3639 2.0124 1.7568-2.0878 3.5522-4.9241 3.9898-6.3028 0.43759-1.3787 1.1796-2.5099 1.6489-2.5138 1.9761-0.0164 1.076-11.997-2.4413-32.493-5.7089-33.267-5.1473-58.814 2.2394-101.87 1.7688-10.31 5.0635-25.498 7.3215-33.75 4.0614-14.843 6.1723-26.704 7.3418-41.254 0.33157-4.125 1.9898-12.844 3.6849-19.375 1.6951-6.5312 3.7242-16.375 4.5091-21.875 2.5179-17.644 8.9468-47.146 12.11-55.573 6.3356-16.878 16.02-29.883 24.438-32.818 1.8611-0.64878 5.4219-3.6669 7.913-6.7069 4.8139-5.8747 6.8562-6.6715 9.3618-3.6523 1.1258 1.3564 4.193 1.8903 11.091 1.9302 5.244 0.0304 19.941 0.7911 32.659 1.6904 14.337 1.0138 27.875 1.274 35.625 0.68481 63.053-4.7939 71.313-5.969 101.59-14.452 8.4386-2.364 20.749-5.4106 27.357-6.7702 11.195-2.3035 12.783-2.3482 23.299-0.65561 6.5558 1.0553 12.115 1.3733 13.268 0.75891 3.8974-2.0779 29.907-10.08 55.109-16.955 32.59-8.8903 42.047-11.921 75-24.039 26.795-9.8536 60.04-20.942 66.562-22.202 2.2147-0.4277 3.4375-1.4557 3.4375-2.89 0-2.241 2.228-5.2262 3.9007-5.2262 0.4954 0 1.2539 1.6084 1.6857 3.5743s2.4452 5.1649 4.4743 7.1089 3.6893 4.5144 3.6893 5.712c0 2.5188 5.3217 3.7605 26.475 6.1772 15.971 1.8247 18.63 1.3852 31.4-5.1894 14.717-7.5772 19.058-8.8231 30.876-8.8614 6.8439-0.0221 9.4869-0.37124 7.427-0.98088-8.2348-2.4371-11.161-7.0144-7.1145-11.13 0.8643-0.87915-1.3907-0.43228-5.0463 1-5.6975 2.2324-9.3169 2.587-26.25 2.5723-10.803-0.01-20.907-0.35625-22.454-0.7708-3.2583-0.8732-3.8694-6.0388-1.1537-9.7528 2.1949-3.0018 11.364-3.3587 13.616-0.5301 3.2995 4.1446 5.8113 4.4498 17.619 2.1412 6.3147-1.2347 14.382-2.2619 17.927-2.2826 5.6081-0.0329 6.3682-0.33329 5.8506-2.3126-0.9188-3.5132 2.1741-5.1452 12.223-6.4497 14.128-1.834 23.17-1.517 38.082 1.3348 17.54 3.3544 27.194 4.2286 29.91 2.7083 1.9181-1.0735 1.6846-1.5766-2.0482-4.4129-6.4377-4.8916-21.965-10.49-29.838-10.758-3.7812-0.12874-15.594-1.0565-26.25-2.0617-23.111-2.18-37.032-2.354-38.192-0.47734-0.5448 0.88154-1.2675 0.93133-2.0571 0.14171-0.7896-0.78961-3.4845-0.61208-7.6714 0.50535-6.5732 1.7543-57.103 12.054-66.767 13.609-2.9219 0.47022-5.3125 1.368-5.3125 1.9951 0 0.62707-3.0213 1.1401-6.714 1.1401s-14.802 0.91109-24.688 2.0246c-15.151 1.7067-24.157 1.8556-57.348 0.94827-61.704-1.6868-81.294-1.4467-95 1.1644-19.998 3.8097-22.325 4.4411-48.125 13.057l-25 8.3488-65.625 0.0409c-61.117 0.038-65.926-0.11575-70-2.2381-5.4441-2.8359-19.789-7.4364-33.75-10.824-25.859-6.2743-65.243-3.9688-98.75 5.7808-5.9209 1.7228-12.147 2.7967-14.062 2.4255-2.4974-0.48393-3.4375-0.16186-3.4375 1.1776 0 2.4346-6.2335 2.4402-9.4486 0.009-1.3345-1.0094-3.8327-1.8536-5.5514-1.876-4.8973-0.0639-17.474-6.5648-36.047-18.633-9.3929-6.1031-20.594-12.862-24.89-15.019-7.6778-3.8551-10.466-6.8465-5.064-5.4339 2.2621 0.59155 1.6732-0.64994-3.3276-7.0152l-6.0761-7.7339-3.8599 4.1595c-5.853 6.3072-24.064 16.681-31.047 17.686-3.2656 0.46994-5.9375 1.448-5.9375 2.1736 0 0.75221-1.4204 1.0476-3.3051 0.68732-1.8178-0.3475-5.0522-0.12162-7.1875 0.50199-2.1353 0.62359-9.1648 1.6901-15.621 2.37-16.321 1.7188-23.555 5.2857-33.74 16.637l-7.9791 8.8922 3.6041 1.4294c1.9823 0.78618 7.9891 1.8108 13.349 2.2768l9.7444 0.8474 15.146-14.432c13.04-12.46 18.46-16.49 18.46-13.77 0 2.8145-6.7333 12.613-13.444 19.565l-8.075 8.3645 4.1971 1.7755c5.1112 2.1622 8.0968 5.3714 9.2331 9.9246 0.71184 2.8523 0.108 4.1768-3.5895 7.8744-4.4034 4.4034-4.5371 4.4426-14.196 4.1576-10.875-0.3208-22.504 1.0511-23.573 2.781-0.38508 0.6231-1.8312 1.1329-3.2137 1.1329-1.3824 0-5.0111 1.7184-8.0637 3.8186s-8.6468 4.4681-12.432 5.262l-6.8814 1.4434-3.7346-4.5306c-3.5536-4.3112-4.2037-4.5691-13.419-5.3244-12.22-1-27.8-4.23-27.8-5.76 0-0.6406-0.98438-1.1646-2.1875-1.1645-2.5935 0.00029-36.311 15.755-51.868 24.236l-10.931 5.9588 7.1807 3.8168c8.7925 4.6735 29.427 18.393 35.09 23.33 4.9992 4.3588 5.3274 10.5 0.59696 11.173-2.7688 0.394-16.078-9.5046-34.131-25.385-13.864-12.195-10.365-12.077-35.805-1.2076-12.276 5.2453-25.977 10.91-30.445 12.589-17.9 6.7233-62.287 26.072-61.761 26.922 0.66988 1.0839-0.33354 1.0935 25.748-0.24672 11.474-0.58959 25.536-1.6585 31.25-2.3753 5.7138-0.71685 19.107-2.1754 29.764-3.2412 20.385-2.039 31.923-4.1898 41.25-7.6899 5.2745-1.9794 5.4303-2.1661 2.5-2.9962-1.7188-0.4869-8.3281-0.94135-14.688-1.0099-6.79-0.07-11.56-0.64-11.56-1.37 0-1.3928 34.561-1.7753 41.159-0.45564 4.9035 0.98069 10.174 7.5231 10.644 13.213 0.47765 5.7774 0.54745 5.9923 1.9464 5.9923 0.6875 0 1.25-1.9086 1.25-4.2413 0-4.3972 2.1469-6.2954 5.6149-4.9646 1.0257 0.39358 2.9633 4.1728 4.3059 8.3983 6.9798 21.968 19.503 56.288 23.513 64.437 7.5996 15.444 20.141 27.015 44.162 40.742l8.0295 4.5889-5-0.69911c-7.4368-1.0398-21.354-8.4376-31.25-16.611-4.8125-3.9748-8.098-6.3942-7.3012-5.3764 2.8072 3.5856 6.6763 17.474 6.6856 23.999 0.0195 13.618 5.925 37.552 15.663 63.477 12.417 33.06 15.968 52.216 16.102 86.875 0.0557 14.438-0.17995 33.054-0.5237 41.37-0.42035 10.169-0.16671 15.695 0.7746 16.875 0.76977 0.96536 2.117 4.0052 2.994 6.7552 0.8769 2.75 4.1846 8.1985 7.3504 12.108 3.1658 3.9093 7.1623 9.1461 8.881 11.637 1.7188 2.4911 3.7784 5.2495 4.5769 6.1298 2.0148 2.221 30.506 7.5836 56.673 10.667 27.415 3.2304 29.112 3.3492 51.631 3.615 16.697 0.19705 20.056-0.15056 34.375-3.557zm-69.414-52.775c-4.7733-1.5324-6.2481-5.0464-3.9332-9.3717 1.5676-2.929 2.1176-3.0772 8.8214-2.3765 7.0023 0.73188 19.77 6.9674 19.77 9.6554 0 0.62854-3.9043 1.1428-8.6762 1.1428s-9.0239 0.5625-9.4488 1.25c-0.89219 1.4436-1.1371 1.4323-6.533-0.29996zm-48.311-15.923c-2.0472-5.1163-2.9663-29.886-1.2727-34.299 1.8195-4.7415 2.3395-0.9251 1.9532 14.333-0.24402 9.6377 0.14195 17.906 0.94314 20.204 2.0247 5.808 0.71898 5.6162-1.6236-0.2384zm-1.1469-60.767c-3.62-4.84-5.89-12.8-5.89-20.67 0-10.003 1.9809-9.2865 3.0281 1.0947 0.46809 4.6406 1.9062 11.525 3.1957 15.299 1.2895 3.7739 2.2448 6.9532 2.1229 7.0651-0.12188 0.11187-1.2299-1.1445-2.4621-2.7919zm124.19-29.419c-0.0604-8.2095 0.37566-11.162 1.826-12.366 1.0479-0.86965 2.1365-1.3498 2.4192-1.0671 0.7985 0.7985-1.5298 17.607-2.9226 21.1-0.97574 2.4466-1.2604 0.7964-1.3226-7.6668zm-171.67-21.1c-6.4772-7.1576-13.643-19.506-15.225-26.236-0.83564-3.5552-1.2956-4.1169 7.343 8.9669 2.6964 4.0839 7.8995 10.164 11.562 13.512 3.9486 3.6088 6.6599 7.1421 6.6599 8.6789 0 4.441-3.28 2.8797-10.34-4.9224zm102.34-6.87c0.34515-4.125 0.92955-9.6094 1.2987-12.188l0.67113-4.6875h-5.6611c-3.1136 0-6.0678-0.65809-6.5649-1.4624-0.61621-0.99707-0.20938-1.1959 1.2785-0.625 1.2003 0.46058 4.402 0.83742 7.1149 0.83742h4.9326l-0.80531 8.4375c-0.44292 4.6406-1.2748 10.406-1.8486 12.812-0.78499 3.2918-0.88792 2.518-0.41574-3.125zm-88.25-25.11c-4.4528-1.9287-11.25-7.6562-11.25-9.4794 0-0.55251 2.9015 0.78074 6.4478 2.9628s8.422 4.2883 10.835 4.6805c5.4566 0.88693 6.9333 3.8499 1.884 3.7801-1.9479-0.0269-5.5104-0.90169-7.9167-1.944zm192.76-7.5281c10.664-11.994 15.473-18.202 18.28-23.604 1.4292-2.75 2.6234-4.1258 2.6537-3.0572 0.0985 3.4638-6.7614 12.821-17.364 23.684-5.8022 5.945-7.3745 7.2563-3.57 2.9777zm-25.26-6.44c0-0.52852 5.7005-6.5754 12.668-13.438 6.9672-6.8621 12.212-11.633 11.656-10.602-2.5263 4.683-12.222 16.057-17.315 20.312-5.69 4.76-7.01 5.46-7.01 3.73zm-117.15-42.95c9.5605-8.4275 11.148-11.658 10.101-20.564-0.75955-6.4626-0.6334-6.9992 1.5476-6.5833 1.9672 0.37506 2.4363 1.7375 2.734 7.9402 0.30423 6.3375-0.14763 8.2679-2.9421 12.569-3.3864 5.2123-13.516 13.057-16.818 13.026-1.017-0.01 1.4028-2.8843 5.3776-6.388zm33.917-2.9291c-7.87-4.71-14.27-15.18-14.27-23.35 0-5.1601 2.9068-3.9916 3.8265 1.5382 1.0451 6.2836 3.1672 9.7113 10.964 17.71 7.5903 7.7867 7.451 8.8822-0.52195 4.1027zm-114.89-4.22c-4.5549-2.7886-13.127-12.106-13.12-14.261 0.002-0.8574 1.061 0.17345 2.3522 2.2908 3.0582 5.0151 11.024 11.556 15.768 12.949 2.5662 0.75325 2.9608 1.1348 1.25 1.2088-1.375 0.0595-4.1875-0.92508-6.25-2.1878zm-3.7272-10.976c-2.8592-2.8592-1.9485-7.2484 1.6085-7.7526 3.0376-0.43061 6.4937 1.6645 6.4937 3.9365 0 0.87756-0.52273 0.82422-1.5-0.15305-2.1608-2.1608-6-1.8459-6 0.49202 0 1.0956 1.125 2.2862 2.5 2.6458 1.375 0.35958 2.5 1.1507 2.5 1.758 0 1.8168-3.4254 1.2503-5.6022-0.9266zm189.04-4.31c-1.21-0.7-2.19-1.92-2.19-2.71 0-1.0493 0.40532-1.0326 1.5 0.0621 0.825 0.825 3.9188 1.5 6.875 1.5s5.375 0.5625 5.375 1.25c0 1.6254-8.7298 1.5498-11.562-0.10012zm45.307-5.8589c0.75162-1.5587 7.1704-11.684 14.264-22.5s16.624-26.416 21.178-34.666c8.4511-15.309 17.065-29.343 35.668-58.114l10.479-16.206 13.494-8.7986c13.348-8.7034 36.964-19.977 41.799-19.953 1.4 0.007-1.3501 2.0662-6.25 4.68-32.904 17.552-66.232 53.91-93.629 102.14-10.37 18.256-27.66 44.448-33.831 51.25-2.6997 2.9757-3.983 3.8526-3.1698 2.1659zm-31.64-0.3c3.0184-1.2158 7.4199-7.1201 6.2099-8.3301-1.0845-1.0845-4.5745 2.059-4.5745 4.1202 0 0.94708-0.5625 1.722-1.25 1.722-2.1703 0-1.3543-4.8957 1.25-7.5 2.9586-2.9586 6.9387-3.2658 7.9562-0.61415 1.7523 4.5664-4.389 11.954-9.7968 11.785-2.4065-0.0752-2.3961-0.13491 0.20527-1.1828zm-15.837-2.0748c-0.0156-1.5426 2.7212-5.7192 6.348-9.6875 4.8781-5.3374 7.1533-6.9358 9.6875-6.8055l3.3121 0.17022-3.125 0.55851c-4.2294 0.75589-11.044 7.3747-13.875 13.476-1.6991 3.662-2.3272 4.2743-2.3474 2.2882zm-194.48-0.96928c1.3345-1.0692 2.9752-1.944 3.6458-1.944 1.5882 0 0.87904 0.57738-2.9472 2.3996-2.9466 1.4033-2.9865 1.3773-0.69859-0.45568zm7.9007-2.828c1.5549-0.29898 3.8049-0.28763 5 0.0252 1.1951 0.31287-0.0771 0.5575-2.8271 0.54363-2.75-0.0139-3.7278-0.26986-2.1729-0.56885zm92.897-88.595c0.06-1.4562 0.35617-1.7524 0.7552-0.75522 0.36108 0.90234 0.31668 1.9805-0.0986 2.3958-0.41536 0.41536-0.7108-0.32292-0.65652-1.6406zm8.3388-0.20742c-1.4747-0.33487-2.1875-1.6943-2.1875-4.172 0-2.0214-0.69034-4.7807-1.5341-6.1318-1.1733-1.8787-1.1988-3.3447-0.10862-6.233 1.1332-3.0021 1.0907-3.7766-0.20714-3.7766-2.6667 0-2.9695-2.6629-1.8601-16.358 0.58-7.1595 2.0384-26.217 3.2409-42.351 1.5811-21.213 2.482-28.307 3.2546-25.625 1.3263 4.6045 1.3489 56.141 0.031 70.661l-0.97137 10.702 5.2691-4.022c9.6493-7.3655 32.706-15.291 57.886-19.897 6.5312-1.1947 19.469-4.0927 28.75-6.44 22.989-5.814 23.937-5.9714 17.5-2.9068-3.0938 1.473-21.656 8.0291-41.25 14.569-19.594 6.5401-40.834 14.339-47.201 17.331-10.883 5.1143-11.724 5.7872-14.062 11.242-1.3678 3.191-2.4869 7.4094-2.4869 9.3743 0 3.9589-0.81738 4.7705-4.0625 4.0336zm-22.18-12.75c-6.9372-4.5533-15.084-6.7212-37.893-10.083-29.9-4.4073-61.725-13.914-69.359-20.719l-3.3724-3.0061 7.0698 3.0542c10.124 4.3737 29.286 7.7221 57.305 10.014 28.043 2.2935 30.885 2.6796 39.375 5.3493 12.588 3.9583 20.435 11.38 17.298 16.361-2.0414 3.2418-4.3308 3.0287-10.423-0.97024zm327.19-4.6422c0.8594-0.34676 2.2656-0.34676 3.125 0s0.1563 0.63049-1.5625 0.63049c-1.7187 0-2.4219-0.28373-1.5625-0.63049zm13.828-0.026c0.9024-0.36109 1.9805-0.31669 2.3958 0.0986 0.4154 0.41537-0.3229 0.7108-1.6406 0.65653-1.4562-0.06-1.7524-0.35618-0.7552-0.7552zm-451.71-1.5325c1.6124-2.6088 17.747-12.581 20.91-12.924 4.3852-0.47475 3.6431 3.1761-0.83994 4.1322-2.0625 0.43984-7.6455 2.9593-12.407 5.5989-4.7611 2.6396-8.2098 4.0762-7.6636 3.1925zm352.57-3.86c-0.90073-1.4574 0.26377-3.75 1.9048-3.75 0.62273 0 1.7343 1.125 2.4702 2.5 1.1282 2.108 0.95061 2.5-1.1322 2.5-1.3586 0-2.8178-0.5625-3.2428-1.25zm203.67-24.133c-1.6413-4.2772 0.6031-4.9929 12.939-4.1258 20.157 1.4169 19.832 4.1639-0.6404 5.4169-9.8352 0.60195-11.645 0.41199-12.298-1.2912zm-306.17-23.37c-0.4249-0.6875 0.41885-1.25 1.875-1.25s2.2999 0.5625 1.875 1.25-1.2686 1.25-1.875 1.25c-0.60635 0-1.4501-0.5625-1.875-1.25zm-96.016-20.917c-1.1298-1.9187 2.1162-25.383 3.4455-24.906 0.72644 0.26065 1.2358 1.5369 1.132 2.8361-1.2425 15.546-2.0723 21.828-2.9557 22.374-0.58176 0.35955-1.3116 0.22268-1.6218-0.30416zm-91.026 466.08c-6.5895-7.58-13.559-17.755-14.368-20.975-1.1818-4.7089-3.9294-3.4158-7.4329 3.4982-2.8952 5.7134-3.0734 6.7804-1.5945 9.5438 2.1339 3.9872 5.5442 6.1807 15.171 9.7578 11.771 4.3739 13.315 4.0315 8.224-1.8245zm-79.67-316.74c-1.2345-1.2253-1.3781-1.0818-0.69975 0.69975 0.46941 1.2328 1.1684 1.9265 1.5532 1.5417 0.38486-0.38487 0.0008-1.3935-0.85348-2.2414zm-6.4396-15.418c-2.793-6.8057-4.7542-10.686-4.3582-8.624 0.83437 4.3456 8.278 22.156 8.9704 21.464 0.25634-0.25632-1.8191-6.0344-4.6122-12.84zm-191.22-13.63c28.84-12.108 36.026-14.984 65.019-26.025 31.146-11.86 64.315-26.101 67.495-28.98 1.1318-1.0243 2.4539-1.8623 2.938-1.8623 2.3214 0 29.871-14.652 37.048-19.705 13.33-9.3825 23.598-18.282 23.676-20.521 0.092-2.621 4.2156-3.3036 10.376-1.7175 7.6653 1.9734 18.678-0.76818 37.197-9.2604 9.2812-4.256 18.281-9.0188 20-10.584 1.7188-1.5653 4.0186-3.1572 5.1108-3.5376 1.8703-0.65137 24.066-14.652 26.764-16.883 1.4865-1.2288 19.654-4.9162 29.375-5.9622 15.42-1.6592 31.928-5.6041 29.964-7.1606-0.92062-0.72965-60.879 2.4765-62.259 3.3291-1.7361 1.073-5.2048-0.466-5.2048-2.3093 0-2.3079 8.1142-4.3002 20.679-5.0774 6.1575-0.38086 18.931-1.9223 28.385-3.4254 13.56-2.1558 17.968-2.439 20.877-1.341 2.5133 0.94866 3.8252 0.97859 4.1201 0.094 0.28636-0.85905 1.3985-0.78095 3.2894 0.231 2.386 1.277 3.2515 1.1716 5.2528-0.63949 1.3178-1.1926 2.396-2.7241 2.396-3.4033 0-1.6782-21.225-0.14017-39.748 2.8803-18.082 2.9484-44.413 6.2421-49.902 6.2421-3.5 0-4.0998-0.44115-4.0998-3.0151 0-2.5351-0.7829-3.1474-4.9178-3.846-5.631-0.95135-14.947 2.9658-36.957 15.54-6.875 3.9275-18.62 10.129-26.101 13.782-8.6085 4.2035-13.824 7.4942-14.208 8.9652-0.69793 2.6688-0.94803 2.7429-3.9102 1.1575-1.5547-0.83205-5.614 0.0296-14.157 3.005-6.5876 2.2943-15.273 4.8619-19.301 5.7056-4.0277 0.84374-13.511 3.3985-21.073 5.6772-17.099 5.1522-36.121 8.8172-54.575 10.515-32.554 2.9952-73.337 10.246-88.738 15.777-9.6697 3.4725-20.49 8.6942-26.551 12.813-6.329 4.3008-16.056 14.427-17.316 18.028-0.92258 2.6357-1.7901 3.2967-3.581 2.7283-1.975-0.63-2.359-0.1-2.359 3.22 0 3.6194-0.27819 3.8999-3.1524 3.1785-2.3456-0.58871-3.3647-0.22349-3.9818 1.427-0.45613 1.22-3.2288 6.2963-6.1615 11.281-2.9327 4.9844-5.1229 9.0625-4.8672 9.0625 0.25571 0 4.8863-2.7422 10.29-6.0938 11.569-7.1756 25.39-14.305 26.187-13.509 0.30869 0.30869-3.9078 3.139-9.3699 6.2895-5.4621 3.1506-10.705 6.5022-11.651 7.4482-0.94594 0.94595-3.1145 2.4658-4.8191 3.3776-5.2879 2.8283-14.877 10.383-14.321 11.283 0.29068 0.47033 3.0854 1.2056 6.2104 1.6339 3.2658 0.44763 13.247 4.5358 23.472 9.6142 21.838 10.846 22.67 10.856 47.165 0.57254zm-1.6336-63.165c1.5089-1.4076 29.229-10.135 55.384-17.438 34.067-9.5119 54.861-15.805 68.325-20.679 6.5853-2.3838 13.453-4.3255 15.262-4.3148 6.0309 0.0355-32.372 12.474-86.47 28.008-29.43 8.4505-53.055 14.941-52.5 14.424zm269.44-13.17c2.5781-0.44378 4.6875-1.3068 4.6875-1.9178 0-1.2506-12.848-1.4859-17.217-0.31542-2.6675 0.71468-2.7058 0.86546-0.625 2.4603 1.2192 0.93441 3.6229 1.4471 5.3416 1.1394 1.7188-0.30778 5.2344-0.92268 7.8125-1.3664zm46.549-12.618c5.243-1.1284 7.0568-4.07 4.4479-7.2136-1.9208-2.3144-7.864-3.2274-27.559-4.2337-18.04-0.92171-24.272-2.9108-26.796-8.553-1.1184-2.5001-1.5679-2.3194-10 4.0204-4.8559 3.651-12.113 8.613-16.127 11.027l-7.298 4.3885 4.173 0.77535c14.184 2.6354 66.584 2.4961 79.16-0.21044zm869.34-21.52c0-0.61133-0.9844-2.2912-2.1875-3.7331-1.7364-2.0809-4.5075-2.8807-13.438-3.8782-6.1875-0.69117-13.219-1.2075-15.625-1.1474l-4.375 0.10926 5.625 1.723c12.368 3.7884 26.961 7.8686 28.438 7.9509 0.8594 0.0479 1.5625-0.4131 1.5625-1.0244zm-48.706-2.0665c2.3531-2.8354-0.3319-4.9299-6.1253-4.778-4.6722 0.1225-11.419 3.431-11.419 5.5998 0 2.0339 15.788 1.2944 17.544-0.82173zm66.768-5.4296c-1.3327-1.243-15.562-3.2026-15.562-2.1432 0 1.0723 7.6961 3.014 12.438 3.138 2.5608 0.067 3.8301-0.33714 3.125-0.9948zm10.7-7.7c0-3.0438-1.11-4.3858-6.5625-7.934-3.6094-2.3488-7.955-4.6828-9.657-5.1865-2.9949-0.88643-2.9646-0.76798 0.9375 3.6763 4.5546 5.1875 5.0175 7.7968 1.8445 10.398-2.0122 1.6494-1.9422 1.7398 0.8725 1.1276 1.6829-0.366 3.6516-0.18703 4.375 0.39771 1.621 1.3106 5.9841 2.3114 7.2525 1.6635 0.5156-0.26337 0.9375-2.1274 0.9375-4.1423zm-71.25 1.311c1.4268-0.92201 0.9214-1.2163-2.1137-1.2309-2.1938-0.01-4.3364 0.54336-4.7613 1.2309-0.9901 1.6021 4.3959 1.6021 6.875 0zm18.438-0.86166c-1.2031-0.3144-3.1719-0.3144-4.375 0-1.2031 0.31441-0.2187 0.57166 2.1875 0.57166 2.4063 0 3.3906-0.25725 2.1875-0.57166zm-933.45-25.54c9.2812-3.3904 19.39-7.0871 22.465-8.2149 3.0744-1.1278 8.3451-4.6278 11.713-7.7778l6.123-5.7273 12.037-0.87658c6.6205-0.48211 22.162-1.4839 34.537-2.2262 12.375-0.74226 24.328-1.9387 26.562-2.6588 3.6448-1.1746 4.0625-1.7996 4.0625-6.0785 0-3.1858-0.65321-5.02-1.9674-5.5243-3.5773-1.3727-1.4662-4.9407 3.2188-5.4399 2.4055-0.25631 5.0522-1.3515 5.8816-2.4337 4.5199-5.8976 5.226-30.951 1.0974-38.935-2.9445-5.6941-7.2805-8.1601-12.595-7.1632-6.5687 1.2323-10.473 5.3446-11.753 12.381-0.60521 3.3256-1.6742 6.6203-2.3756 7.3217-1.9346 1.9346-4.2352-3.3321-4.4488-10.185-0.35979-11.543 10.782-20.005 24.241-18.411 4.2859 0.5076 6.0208 0.32168 5.4603-0.58513-0.45179-0.73101-0.10487-3.5002 0.77083-6.1537 1.3764-4.1705 1.2218-6.7186-1.1405-18.795-4.969-25.402-9.1612-34.258-21.444-45.301-13.283-11.943-27.019-18.308-46.407-21.504-9.485-1.5639-12.17-1.5542-21.527 0.07749-26.768 4.668-54.102 19.738-69.674 38.414-7.3882 8.861-16.258 26.536-19.326 38.51-2.5576 9.9831-2.0344 16.388 3.9258 48.065 2.4578 13.062 4.8556 28.531 5.3283 34.375 0.81856 10.118 1.0085 10.645 3.9845 11.035 5.1881 0.68078 17.216 9.1887 18.681 13.214 0.72544 1.9932 1.319 6.9753 1.319 11.071 0 6.5938 0.25069 7.3466 2.1875 6.5691 1.2031-0.48298 9.7812-3.6521 19.062-7.0425zm-6.25-17.087v-7.24l10.938-3.9868c14.725-5.3673 24.19-6.8589 34.374-5.4167 6.7888 0.96141 13.439 3.0642 13.439 4.2494 0 0.15277-4.4029 0.0779-9.7842-0.16654-9.4734-0.43021-10.013-0.29804-16.985 4.1621-9.7567 6.2413-27.866 15.639-30.136 15.639-1.4136 0-1.8444-1.6912-1.8444-7.24zm120.96-32.217c-0.433-0.433-0.51296-1.5021-0.1777-2.3758 0.33548-0.87424-0.54635-1.8908-1.9611-2.2608-3.4191-0.89411-3.2414-3.9172 0.61725-10.501 4.6441-7.9246 2.4661-10.397-4.21-4.7798-5.5568 4.6758-6.478 4.0599-6.478-4.3315 0-6.5619 0.46662-7.988 3.8893-11.886 4.4823-5.105 7.934-6.328 12.722-4.5076 3.2652 1.2414 4.9858 6.3503 2.1387 6.3503-0.6875 0-1.25-0.5625-1.25-1.25 0-1.8864-5.3383-1.499-8.3428 0.60546-1.457 1.0205-3.2601 3.6083-4.0069 5.7506-1.1718 3.3615-1.088 3.7916 0.61203 3.1392 5.0374-1.933 8.1629-2.1559 9.9091-0.70671 2.2452 1.8633 3.6871 0.85037 2.6472-1.8596-0.4071-1.0609-2.1973-1.9289-3.9782-1.9289-1.8404 0-2.9046-0.53955-2.4655-1.25 1.0741-1.7379 7.3079-1.5671 9.125 0.25 3.1657 3.1657 0.81445 14.902-4.173 20.829-3.7804 4.4927-4.1981 7.8229-0.5693 4.5389 4.1155-3.7245 4.553-0.85176 0.48914 3.2121-2.0625 2.0625-4.1043 3.3957-4.5373 2.9627zm-6.58 30.04c18.32-2.5346 46.958-2.4723 48.904 0.10638 1.9238 2.5494 5.3174 0.99015 6.2914-2.8906 1.3049-5.199-2.0256-6.5427-16.217-6.5427-12.409 0-33.297 3.7489-36.867 6.6168-0.90154 0.7241-5.6828 1.992-10.625 2.8175-13.06 2.1814-7.5247 2.1116 8.5142-0.10737zm26.46-13.205c4.3532-0.75809 7.9149-1.6242 7.9149-1.9248 0-0.30057-1.078-2.6596-2.3956-5.2423s-2.796-6.9197-3.2853-9.6377c-1.4161-7.8664-2.6244-8.928-3.419-3.0042-0.79882 5.9557-4.0754 11.178-8.1857 13.046-2.7996 1.2726-3.2672 2.7462-1.9557 6.1638 0.90261 2.3522 1.1755 2.3666 11.326 0.59893z"/>
</svg>
