<?xml version="1.0" encoding="UTF-8" standalone="no"?>
<!-- Created with Inkscape (http://www.inkscape.org/) -->
<svg id="svg3376" xmlns:rdf="http://www.w3.org/1999/02/22-rdf-syntax-ns#" xmlns="http://www.w3.org/2000/svg" height="1845" viewBox="0 0 1845 1845" width="1845" version="1.1" xmlns:cc="http://creativecommons.org/ns#" xmlns:dc="http://purl.org/dc/elements/1.1/">
 <metadata id="metadata3382">
  <rdf:RDF>
   <cc:Work rdf:about="">
    <dc:format>image/svg+xml</dc:format>
    <dc:type rdf:resource="http://purl.org/dc/dcmitype/StillImage"/>
    <dc:title/>
   </cc:Work>
  </rdf:RDF>
 </metadata>
 <path id="path3386" fill="#fff" d="m692.06 1787.3c-15.564-2.1009-34.155-15.758-40.759-29.942-2.7455-5.8962-3.1798-8.8872-3.1912-21.976-0.008-9.9788 0.88697-19.389 2.6234-27.566 2.7448-12.924 3.4055-25.845 1.9888-38.89-1.0664-9.8199 2.0543-20.932 7.6771-27.336 3.6486-4.1557 4.2077-5.8586 4.5263-13.789 0.19993-4.9764 1.0111-16.914 1.8025-26.529 0.79148-9.6145 1.4615-23.029 1.4891-29.809 0.063-15.547 0.46553-16.583 6.4434-16.583h4.7611l-0.88732-12.623c-1.2312-17.515-7.5969-55.262-16.694-98.986l-7.693-36.979 0.1547-42.358c0.1628-44.576 0.89238-54.583 7.3039-100.18 4.5345-32.247 5.2654-60.802 2.0481-80.009-1.053-6.2864-2.2476-15.665-2.6546-20.843-0.40711-5.1771-2.242-16.408-4.0775-24.959-1.8354-8.5503-5.1899-29.124-7.4541-45.72s-4.9953-35.015-6.0689-40.931c-3.1972-17.621-8.5182-57.885-10.21-77.261-2.3914-27.388-0.86067-97.736 2.6345-121.09 5.0738-33.888 10.68-53.987 20.015-71.752 3.716-7.0716 5.0122-11.25 5.2404-16.895 0.43542-10.763 7.968-28.485 20.037-47.143 14.183-21.925 19.903-39.055 19.069-57.112l-0.52252-11.313-11.52-15.218c-12.215-16.136-21.519-31.58-23.986-39.813-1.2591-4.2025-2.6979-5.5742-9.1146-8.6892-4.1907-2.0344-8.235-3.6979-8.9873-3.6968-2.4771 0.004-15.086-11.948-19.272-18.266-7.424-11.208-10.076-21.932-10.115-40.898-0.0187-9.2448 0.15733-19.394 0.39118-22.553 0.53536-7.2335-3.2907-13.372-16.583-26.603-11.846-11.792-30.664-22.158-40.001-22.035-6.1211 0.0811-17.883 1.9222-62.314 9.753-39.425 6.9487-61.566 8.4996-104.21 7.2998-9.9937-0.28114-12.866-0.97054-22.86-5.4871-6.2865-2.8411-14.964-6.4256-19.284-7.9655-8.9821-3.2022-10.988-6.325-9.7953-15.255 1.7591-13.18 9.6844-27.854 24.611-45.571 12.403-14.722 26.973-22.937 53.155-29.969 27.895-7.4926 46.981-11.348 94.945-19.18 22.44-3.7329 41.04-6.7235 41.363-6.7235 0.32284 0 0.58699-4.8013 0.58699-10.67 0-9.3623-2.3465-25.066-4.6352-31.022-0.42751-1.1122-5.4593-4.5276-11.181-7.5898-7.9731-4.2663-11.412-5.41-14.713-4.8938-3.9477 0.61724-4.648 0.13885-8.3564-5.7087-8.5967-13.556-14.397-38.383-13.155-56.315 0.87957-12.711 8.6877-41.017 14.092-51.089 4.6143-8.5987 21.328-26.268 31.898-33.722 11.374-8.0207 29.28-17.327 40.341-20.968 11.432-3.7626 28.544-4.0583 40.118-0.69335 27.827 8.0894 46.821 24.504 57.839 49.983 6.7792 15.677 15.519 46.453 18.975 66.818 0.92202 5.4331 14.182 26.127 26.802 41.83 4.088 5.086 7.6087 9.7547 7.824 10.375 0.56996 1.6421 24.265-2.4574 32.136-5.5598 7.7745-3.0644 11.125-2.0986 12.56 3.6207 1.2369 4.9282-2.0462 9.0792-13.135 16.606-4.9026 3.3282-8.9294 6.4168-8.9484 6.8637-0.0458 1.0809 17.452 6.1037 27.324 7.8436 5.5222 0.97318 8.6637 0.95582 10.559-0.0584 1.4838-0.79408 3.911-1.1265 5.3938-0.73874 2.3173 0.60598 11.25-0.69638 27.284-3.9778 2.2187-0.45408 6.152-2.4786 8.7405-4.4989 9.2764-7.2402 19.834-11.421 41.342-16.371 11.759-2.7065 16.945-3.0372 50.097-3.1936 35.72-0.16861 37.429-0.29789 50.184-3.7992 7.2628-1.9936 20.878-6.5755 30.256-10.182 9.3776-3.6066 26.429-9.6954 37.893-13.531 12.339-4.1283 26.055-9.8445 33.617-14.011 7.0259-3.8706 19.128-9.8432 26.894-13.273 14.424-6.3698 16.75-7.0141 64.545-17.871 15.162-3.4442 35.433-8.3927 45.047-10.996 9.6145-2.6039 26.732-6.7492 38.039-9.2119 36.739-8.0021 65.211-16.848 70.881-22.022 4.0261-3.674 14.693-8.693 29.654-13.955 7.3567-2.587 17.501-6.2782 22.545-8.2028 5.0424-1.9246 9.7159-3.1607 10.386-2.7468 1.2924 0.79877 27.892-4.4907 43.646-8.6794 19.411-5.1608 39.361-9.5085 43.63-9.5085 2.4294 0 7.3954-1.0578 11.035-2.3506 7.3292-2.6031 9.1434-1.6536 9.186 4.8073 0.024 3.5126-6.7257 10.99-9.919 10.99-1.2874 0-1.7861 0.7614-1.3106 2.0007 0.497 1.2951-0.7005 2.8363-3.3954 4.3702-2.2897 1.3033-4.1669 3.4626-4.1717 4.7984-0.014 3.8354-9.7446 7.2607-29.234 10.29-9.7125 1.5097-17.955 2.7449-18.318 2.7449-0.3625 0 0.2108 1.7436 1.2738 3.8746 2.5775 5.1667 1.6346 7.0295-6.7215 13.279-5.0424 3.771-10.33 6.1588-18.392 8.3064-11.442 3.0478-15.536 4.9825-20.008 9.4548-1.3542 1.3542-7.5161 4.7708-13.693 7.5926-10.025 4.5798-12.386 5.1307-21.988 5.1324-6.2455 0.001-12.061-0.72187-13.866-1.7236-2.731-1.5154-4.9403-1.0409-18.153 3.8993-29.424 11.001-44.102 17.563-66.407 29.689-12.427 6.7555-26.83 14.584-32.008 17.398-5.1771 2.8132-19.699 9.6278-32.273 15.143-12.573 5.5157-28.911 12.863-36.307 16.328-16.941 7.9366-27.396 12.428-37.651 16.177-10.62 3.8815-58.642 23.48-87.405 35.672-30.677 13.003-44.701 17.967-66.43 23.519-10.057 2.5693-20.1 5.5155-22.32 6.5469-2.2187 1.0314-7.4299 3.4589-11.58 5.3944-9.7639 4.5532-23.86 17.512-27.944 25.69-1.7627 3.5295-3.5042 9.0718-3.8699 12.316-0.36568 3.2444-1.1898 6.2231-1.8313 6.6196-2.0506 1.2674-1.2665 5.0524 2.8491 13.752 5.6233 11.887 11.673 30.493 12.77 39.274 1.3435 10.756-1.3058 27.064-5.9917 36.882-2.1887 4.5859-7.0043 11.594-10.701 15.574-7.9395 8.5458-9.0063 12.114-6.0339 20.182 1.6802 4.5607 2.4861 13.933 3.349 38.951 1.3681 39.66 3.5244 56.927 8.62 69.028 1.1939 2.8354 7.2678 13.651 13.497 24.034 18.919 31.536 28.048 51.978 29.777 66.683 0.49098 4.1776 2.6048 10.486 4.979 14.859 4.8689 8.9691 14.799 32.479 18.545 43.907 3.4529 10.533 7.0031 28.06 10.078 49.754 3.5707 25.192 3.6099 109.89 0.063 136.49-3.6666 27.491-7.5228 53.678-9.01 61.184-0.7327 3.6979-3.1747 20.302-5.4267 36.897-2.252 16.596-5.5964 37.169-7.4318 45.72-1.8355 8.5503-3.6704 19.782-4.0776 24.959-0.40711 5.177-1.6017 14.556-2.6546 20.843-3.2173 19.209-2.4864 47.761 2.0481 80.009 6.4116 45.597 7.1412 55.604 7.3039 100.18l0.1547 42.358-6.405 30.256c-10.245 48.395-13.87 70.615-18.039 110.6l-0.8063 7.732h4.7493c5.9646 0 6.3687 1.0417 6.4317 16.583 0.0274 6.7806 0.69753 20.195 1.4891 29.809 0.79146 9.6146 1.6026 21.553 1.8025 26.529 0.31862 7.9306 0.87761 9.6335 4.5263 13.789 5.7767 6.5793 8.8054 17.675 7.6728 28.107-1.434 13.21-0.8259 24.834 1.9942 38.118 1.7352 8.1735 2.6311 17.591 2.6225 27.566-0.012 13.202-0.4331 16.054-3.277 22.162-5.4864 11.784-19.102 23.308-33.33 28.211-6.615 2.2789-24.471 2.5029-29.976 0.376-2.2003-0.8501-5.1227-1.7721-6.4941-2.0487-4.1911-0.845-14.915-8.3486-18.112-12.674-4.5824-6.1979-6.0548-17.095-5.001-37.011 1.2128-22.919 1.0211-27.964-1.1238-29.586-2.2815-1.725-7.5587-26.229-7.5587-35.098 0-7.3515 3.1048-19.565 6.208-24.42 1.4984-2.3444 2.0838-10.059 2.551-33.617 0.63535-32.031 1.9746-46.255 4.4324-47.074 0.80584-0.2686 3.0958-1.7711 5.0887-3.3387l3.6236-2.8502-0.79341-30.342c-1.1264-43.076-6.489-76.088-22.404-137.91-3.2198-12.509-5.812-29.362-8.2198-53.442-1.4962-14.963-1.4315-19.14 0.50949-32.945 1.2226-8.6952 3.3285-20.155 4.6797-25.467 2.3558-9.2607 2.3585-9.7857 0.0663-12.775-4.0843-5.3256-9.0834-19.4-11.199-31.526-2.1436-12.293-2.5777-44.68-0.79081-58.995 1.0993-8.8068-1.3528-39.71-4.6413-58.494-2.2156-12.655-4.2079-20.398-13.166-51.174-3.3488-11.504-7.3672-27.54-8.9297-35.634-5.3011-27.461-8.4394-83.674-5.1946-93.045 1.0097-2.916 0.75789-3.0256-6.954-3.0256-7.7137 0-7.9637 0.10892-6.9479 3.0256 1.9197 5.5122 1.7754 29.583-0.32431 54.128-2.8301 33.083-6.332 51.021-16.274 83.367-5.6179 18.277-9.3707 33.411-11.338 45.72-2.9296 18.33-5.0129 47.033-4.0016 55.132 1.7873 14.313 1.3533 46.703-0.79045 58.995-2.1147 12.126-7.1138 26.201-11.199 31.526-2.2906 2.9868-2.2907 3.5097-0.001 12.526 1.3141 5.1748 3.4166 16.668 4.672 25.541 2.0038 14.161 2.0743 18.216 0.57692 33.193-2.3999 24.006-4.9948 40.87-8.2121 53.369-15.915 61.828-21.277 94.841-22.404 137.91l-0.7934 30.342 3.6236 2.8502c1.9929 1.5676 4.2829 3.0701 5.0887 3.3387 2.4664 0.8221 3.791 15.097 4.3583 46.968 0.42826 24.061 0.96579 31.131 2.5561 33.617 3.1646 4.9472 6.2771 17.109 6.2771 24.525 0 8.8553-5.2756 33.37-7.5531 35.098-2.1408 1.6236-2.2834 5.3554-1.1048 28.914 1.0127 20.242-0.41338 31.446-4.748 37.305-2.8784 3.8901-14.514 12.411-17.688 12.952-1.0184 0.1737-3.9695 0.9854-6.558 1.8041-6.9756 2.2062-14.51 2.6964-23.271 1.5137zm27.81-8.9248c6.123-2.8653 9.3478-5.2956 10.83-8.1621 3.3795-6.535 2.5223-7.1313-4.2766-2.9751-10.546 6.4471-19.084 8.5846-31.653 7.9248-12.633-0.6631-22.329-4.9135-29.286-12.838-4.6024-5.242-4.8967-4.8065-1.383 2.0452 3.148 6.1385 7.1477 9.8716 14.566 13.594 13.418 6.7344 27.392 6.8736 41.204 0.4102zm215.79 0.3578c9.0133-4.1265 13.016-7.6153 16.475-14.362 3.5138-6.8518 3.2194-7.2871-1.383-2.0453-6.9574 7.9241-16.654 12.174-29.286 12.838-12.57 0.6598-21.107-1.4776-31.653-7.9247-6.767-4.1368-7.6529-3.5542-4.3394 2.8536 2.1728 4.2018 11.725 9.806 20.471 12.01 8.0203 2.0211 21.211 0.5261 29.717-3.3681zm-212.93-14.508c15.126-6.0209 14.784-4.9982 14.867-44.48 0.0616-29.571-0.12168-32.182-2.2993-32.751-1.4739-0.3855-3.1425-3.2271-4.425-7.5356-2.1772-7.3147-4.2154-11.29-5.2499-10.24-0.9181 0.9324-2.7342 35.452-2.4271 46.132 0.28212 9.8073 2.3604 15.355 8.016 21.401 2.4329 2.6004 2.8696 3.6979 1.4712 3.6979-2.2842 0-12.208-9.9008-14.601-14.567-1.5958-3.1116-1.741-3.1291-17.91-2.1641-21.566 1.2872-22.304 1.5405-26.423 9.075-1.8999 3.4756-4.8159 7.2594-6.48 8.4086-3.6809 2.5421-3.848 1.5081-0.52282-3.2342 1.3765-1.9631 3.272-5.9392 4.2122-8.8358 1.4912-4.5939 1.4291-5.4716-0.48569-6.8718-2.9436-2.1522-2.7706-5.0088 0.42419-7.0039 3.6443-2.276 3.4605-12.389-0.20786-11.43-3.4034 0.8898-3.1378-3.3054 0.27782-4.3896 1.7544-0.5568 2.6894-2.0344 2.6894-4.2505 0-2.266-0.89532-3.6312-2.6894-4.1004-3.3355-0.8721-3.5451-3.0789-0.29243-3.0789 1.9496 0 2.4532-1.29 2.6977-6.9119 0.1654-3.8014-0.4035-7.7603-1.2642-8.7975-1.1854-1.4281-1.1874-2.2632-0.008-3.4423 0.85615-0.8562 1.5566-2.7395 1.5566-4.1854 0-2.485-0.13793-2.504-2.5206-0.3478-1.886 1.707-2.7551 5.0598-3.4522 13.319-0.51237 6.0708-2.4093 17.649-4.2154 25.73-4.5848 20.511-5.496 31.742-2.9092 35.854 1.122 1.7832 2.7151 5.3764 3.54 7.9847 2.0705 6.5471 8.7724 14.3 15.192 17.576 12.409 6.3306 26.589 6.1484 43.438-0.5583zm212.19 1.4399c7.8574-3.3382 14.909-11.259 17.817-20.011 1.1908-3.5852 2.7239-6.8638 3.4069-7.286 2.2073-1.3642 1.3188-11.612-2.6965-31.1-2.16-10.483-4.3514-23.923-4.8697-29.864-0.6991-8.0144-1.593-11.392-3.463-13.084-2.3827-2.1563-2.5206-2.1372-2.5206 0.3477 0 1.446 0.70049 3.3293 1.5566 4.1855 1.179 1.179 1.1771 2.0141-0.008 3.4423-0.86072 1.0371-1.4297 4.996-1.2642 8.7975 0.2446 5.6219 0.74809 6.9118 2.6977 6.9118 3.2526 0 3.0431 2.2068-0.29243 3.0789-1.794 0.4693-2.6894 1.8344-2.6894 4.1005 0 2.2159 0.93498 3.6937 2.6894 4.2505 3.4156 1.0841 3.6811 5.2794 0.27783 4.3895-3.6769-0.9616-3.8646 9.1548-0.20622 11.112 3.1912 1.708 3.39 5.1517 0.42255 7.3215-1.9148 1.4002-1.9769 2.2779-0.48569 6.8718 0.94023 2.8966 2.877 6.9305 4.3039 8.9644 1.4269 2.0338 2.0636 3.6979 1.415 3.6979-2.4153 0-5.7436-3.5378-8.7816-9.3339-3.7565-7.1672-4.7889-7.5132-26.266-8.8036l-16.184-0.9724-2.0218 3.9098c-2.3608 4.5653-14.159 15.82-15.343 14.636-0.44455-0.4446 0.74259-2.466 2.6381-4.4921 5.5062-5.8857 7.6769-11.51 7.9799-20.675 0.33384-10.098-1.5063-45.928-2.4057-46.844-1.0329-1.0513-3.072 2.9269-5.2486 10.24-1.2955 4.3525-2.9466 7.149-4.4536 7.543-2.2166 0.5797-2.3857 3.0161-2.2734 32.751 0.0838 22.177 0.63194 33.292 1.7702 35.895 1.1436 2.6143 4.0196 4.8469 9.387 7.2868 16.363 7.4389 31.827 8.3749 45.112 2.7308zm-219.58-46.472c0-1.639-11.957-6.6212-18.292-7.6221-3.7547-0.5932-7.0498-0.048-11.627 1.9221-3.513 1.5122-6.3873 2.9221-6.3873 3.1334 0 0.2112 6.505 0.3963 14.456 0.4114 8.7973 0.016 15.508 0.6587 17.145 1.64 3.2354 1.9399 4.7064 2.1009 4.7064 0.5152zm207.29-2.0771c7.8799-0.058 14.076-0.5118 13.77-1.0081-1.385-2.241-12.934-5.4514-17.151-4.7673-5.7484 0.9329-18.342 6.3014-18.342 7.8192 0 0.6303 1.6641 0.4518 3.6979-0.3963 2.0338-0.848 10.145-1.5895 18.025-1.6475zm-207.8-9.0842c-1.1003-5.5011-0.95003-5.4151-6.3233-3.6184-5.8033 1.9405-8.0039 3.841-4.5211 3.9042 1.4422 0.027 4.135 0.9125 5.9839 1.9694 4.9813 2.8475 5.8047 2.4656 4.8605-2.2552zm193.48 1.6965c6.4445-2.4669 6.584-2.6267 3.3617-3.8535-7.6913-2.9281-9.4126-3.1825-9.4312-1.3934-0.0108 0.9744-0.38324 3.133-0.82919 4.7971-0.97658 3.6441-1.3782 3.6178 6.8987 0.4498zm-205.06-8.0702 7.3958-2.4133-4.0341-1.7049c-10.209-4.3147-24.821-1.8721-25.979 4.3428-0.37831 2.0293 0.63942 2.3419 7.3918 2.271 4.3068-0.046 11.159-1.1681 15.226-2.4956zm232.39 0.2246c-1.1587-6.2149-15.771-8.6575-25.979-4.3428l-4.0341 1.7049 7.3958 2.4133c4.0676 1.3275 10.92 2.4504 15.226 2.4956 6.7525 0.071 7.7702-0.2417 7.3918-2.271zm-221.26-11.264c-0.91579-0.9158-3.0171-1.1342-5.3115-0.5522l-3.7963 0.9631 4.0341 1.7225c4.365 1.864 7.6781 0.4709 5.0738-2.1334zm194.24-0.088c-2.3146-1.4706-6.0371-1.3328-7.0214 0.2598-1.6405 2.6545 0.68715 3.7949 4.674 2.29 2.6814-1.0121 3.4513-1.8484 2.3474-2.5498zm-201.45-3.2703c3.2439-0.6658 3.243-0.6695-0.89763-3.1874-7.826-4.7592-14.008-5.8871-19.559-3.5677-3.3838 1.4137-4.9779 2.9395-4.9779 4.7642 0 2.2453 1.0447 2.7549 6.3873 3.1161 6.5722 0.4443 13.352 0.044 19.047-1.1252zm227.35-2.1516c0-1.7661-1.6397-3.3185-4.9779-4.7134-5.5452-2.3168-11.733-1.1918-19.532 3.5515l-4.1185 2.5046 5.238 0.8594c8.302 1.3623 8.567 1.3769 16.169 0.8922 6.1186-0.3902 7.2229-0.8632 7.2229-3.0943zm-219.18-7.3523v-4.8561l-5.0426 0.9266c-5.2215 0.9596-9.2028 3.3822-5.6477 3.4366 1.0724 0.016 3.4626 1.2133 5.3115 2.6596 4.6809 3.6614 5.3788 3.3804 5.3788-2.1667zm190.95 2.1667c1.849-1.4463 4.2391-2.643 5.3115-2.6595 3.555-0.055-0.42623-2.4771-5.6477-3.4367l-5.0426-0.9266v4.8561c0 5.5471 0.69784 5.8281 5.3788 2.1667zm-159.05-11.767c-0.30809-2.0338-0.56017-0.3697-0.56017 3.6979 0 4.0677 0.25208 5.7317 0.56017 3.6979 0.30812-2.0338 0.30812-5.362 0-7.3958zm122.38-0.6483c-0.29927-2.4167-0.55031-0.7636-0.55785 3.6738-0.009 4.4375 0.23731 6.4151 0.54414 4.3944 0.30682-2.0206 0.31299-5.6513 0.0137-8.0682zm-168.59 3.7161c4.3262-1.0335 8.145-2.1579 8.4861-2.499 1.4453-1.4452-11.896-5.249-16.003-4.5627-7.8255 1.3074-11.778 3.4265-11.778 6.3138 0 2.3142 0.8574 2.7156 5.7149 2.6748 3.1432-0.027 9.2546-0.8934 13.581-1.9269zm233.5-0.8606c0-5.2181-13.884-8.2291-22.106-4.7938-2.8605 1.1952-4.8567 2.5174-4.436 2.938 1.5932 1.5933 14.024 4.343 20.154 4.4584 5.5565 0.1043 6.3873-0.234 6.3873-2.6026zm-216.33-6.8488c2.3068-2.3068 2.4984-3.0768 1.0085-4.0515-1.0118-0.662-3.0498-0.9013-4.5289-0.5321-1.4792 0.3694-3.7484 0.6797-5.0426 0.6898-3.4166 0.027-2.8844 1.712 1.3471 4.2658 2.0325 1.2266 3.8468 2.2856 4.0317 2.3532 0.18489 0.067 1.6178-1.1588 3.1842-2.7252zm187.08 0.2359c4.1939-2.1022 4.8452-4.1022 1.3447-4.1297-1.2942-0.014-3.5634-0.3204-5.0426-0.6898-1.4792-0.3692-3.5172-0.1304-4.5289 0.5321-1.5086 0.9868-1.3877 1.6941 0.67235 3.9315 1.3816 1.5003 2.8145 2.6114 3.1842 2.4687 0.36979-0.1425 2.3364-1.0934 4.3702-2.1128zm-238.27-3.5228c5.1043-5.4333 10.637-8.2846 20.511-10.57 18.645-4.3158 31.583-2.2216 40.793 6.6028l5.672 5.4347 0.84139-4.485c0.46276-2.4667 1.1362-5.2533 1.4966-6.1924 0.99927-2.6041-10.888-15.012-17.404-18.166-10.372-5.0207-31.086-3.3265-44.75 3.66-5.1972 2.6572-5.7536 3.5266-9.0767 14.185-1.947 6.2447-3.5401 11.719-3.5401 12.166 0 1.7845 2.3905 0.6308 5.4576-2.634zm287.69 2.6894c0-0.4465-1.593-5.9211-3.5401-12.166-3.3231-10.658-3.8794-11.528-9.0767-14.185-13.208-6.7535-34.268-8.6152-44.561-3.9393-6.8061 3.0917-18.59 15.876-17.399 18.877 0.46665 1.1764 1.1526 3.9545 1.5241 6.1732l0.67567 4.0341 5.8738-5.6354c3.2306-3.0993 8.1698-6.2728 10.976-7.0521 7.3175-2.0321 18.98-1.7603 29.56 0.6885 9.8739 2.2858 15.407 5.1371 20.511 10.57 3.0671 3.2648 5.4576 4.4185 5.4576 2.634zm-267.59-2.6939c0-0.2907-0.90767-0.5286-2.017-0.5286-1.1094 0-2.017 0.5862-2.017 1.3026s0.90767 0.9542 2.017 0.5284c1.1094-0.4258 2.017-1.0118 2.017-1.3024zm246.08 0.8606c0-0.7396-1.059-1.3355-2.3532-1.3242-2.011 0.017-2.06 0.2102-0.33617 1.3242 2.5377 1.6399 2.6894 1.6399 2.6894 0zm-231.61-4.9581c-1.2856-0.3365-3.7061-0.3487-5.3788-0.027s-0.62079 0.5971 2.3375 0.612c2.9583 0.015 4.3269-0.2483 3.0413-0.5848zm219.18 0c-1.2856-0.3365-3.7061-0.3487-5.3788-0.027s-0.6208 0.5971 2.3375 0.612c2.9583 0.015 4.3269-0.2483 3.0413-0.5848zm-183.37-57.23c-1.3103-11.648-2.8566-21.179-3.4364-21.179-1.6605 0-4.9552 13.18-5.9377 23.754-0.8744 9.4102-0.82106 9.6446 2.2928 10.085 4.2901 0.6068 4.421 5.6547 0.16244 6.2595-1.6641 0.2362-3.0256 1.0284-3.0256 1.7602s-0.55051 0.9903-1.2234 0.5745c-0.67283-0.416-2.2566-0.3596-3.5195 0.125-2.001 0.7679-1.887 1.108 0.88717 2.6461 2.1213 1.1761 2.479 1.781 1.0723 1.8127-1.4232 0.032-0.30449 1.9874 3.4342 6.0022 3.0499 3.2751 6.7228 8.1468 8.1622 10.826l2.6169 4.8717 0.44841-13.18c0.24663-7.2488-0.62359-22.71-1.9338-34.358zm153.09 29.583c3.6297-3.1392 3.8771-3.7052 1.6373-3.7455-2.3585-0.043-2.3007-0.235 0.54474-1.8126 2.7742-1.5381 2.8882-1.8783 0.88718-2.6462-1.2629-0.4846-2.8467-0.541-3.5195-0.125-0.67284 0.4158-1.2234 0.1573-1.2234-0.5744 0-0.7319-1.3615-1.524-3.0256-1.7603-4.2586-0.6048-4.1277-5.6526 0.16243-6.2595 3.1139-0.4406 3.1671-0.675 2.2928-10.085-0.98297-10.579-4.2774-23.754-5.9397-23.754-1.6315 0-5.6586 39.337-5.6235 54.931l0.0313 13.918 4.75-7.1948c2.6126-3.9572 6.6742-8.8589 9.0259-10.893zm-212.59-8.5299c-0.26064-2.8893-0.59563-14.028-0.74442-24.751-0.36809-26.528-0.58943-29.583-2.1434-29.583-0.81473 0-1.3823 6.227-1.4403 15.801-0.0526 8.6901-0.56973 20.642-1.1491 26.558-0.82379 8.4123-0.65635 11.082 0.76802 12.251 1.0018 0.8211 1.8215 2.5356 1.8215 3.81 0 1.2743 0.75639 2.0587 1.6809 1.7432 1.0766-0.3675 1.5106-2.462 1.207-5.827zm263.37 3.9803c0-1.2127 0.81967-2.8768 1.8215-3.6979 1.4244-1.1675 1.5918-3.8382 0.76802-12.251-0.5794-5.9166-1.0965-17.867-1.1491-26.558-0.0526-8.69-0.6165-15.801-1.253-15.801-1.933 0-2.8655 13.211-1.9679 27.882 0.57845 9.4545 0.29506 16.18-0.88986 21.12-1.7505 7.2969-1.2808 11.508 1.2835 11.508 0.76279 0 1.3869-0.9923 1.3869-2.205zm-247.65-2.7276c4.189-0.4925 7.0118-1.0822 6.2729-1.3108-0.73894-0.2286-5.1254-1.2841-9.7478-2.3456l-8.4043-1.93v4.0586c0 3.1522 0.4761 3.876 2.1315 3.2407 1.1724-0.4497 5.5588-1.2206 9.7478-1.7129zm240.93-1.6696v-3.9128l-7.732 1.8479c-4.2526 1.0163-8.3371 1.9278-9.0767 2.0254-1.2812 0.1692 11.604 3.3774 15.127 3.7666 1.0021 0.1103 1.6809-1.3943 1.6809-3.7271zm-215.25-3.6021 5.339-2.1364-0.26918-17.698-0.26916-17.698-13.717 0.4566c-9.2253 0.3071-15.88-0.1774-20.323-1.4797l-6.6057-1.9363-0.84807 10.893c-0.46645 5.9909-0.85172 13.947-0.85615 17.68l-0.008 6.7875 13.783 3.4935c16.839 4.2679 17.148 4.2893 23.774 1.6381zm200.12-1.478 15.127-3.6634-0.009-6.7826c-0.004-3.7304-0.3947-11.749-0.86726-17.819-0.83608-10.74-0.93537-10.993-3.6898-9.4218-1.8006 1.0271-9.1922 1.6181-20.311 1.6238l-17.481 0.014-0.26922 17.7-0.26923 17.7 4.9757 2.0649c6.5483 2.7174 5.4708 2.7841 22.793-1.4108zm-197.66-40.226c4.8313-0.9664 7.9469-6.1805 5.1032-8.5404-1.3078-1.0855-3.5544-1.0839-8.3289 0-3.5959 0.8208-12.882 1.2923-20.636 1.048-12.113-0.3818-14.157-0.1395-14.517 1.72-0.40287 2.0788 3.3558 4.2566 9.7902 5.6724 4.2118 0.9268 24.099 0.9921 28.589 0.095zm207.79-1.9266c2.1912-1.0384 3.58-2.6559 3.3406-3.8908-0.34803-1.7955-2.5303-2.0466-14.508-1.6691-7.754 0.2443-17.04-0.2272-20.636-1.048-4.7746-1.0898-7.0211-1.0914-8.3289 0-2.698 2.2389 0.29038 7.7164 4.6289 8.4842 6.8682 1.2156 31.758-0.096 35.503-1.8704zm-205.86-13.232c0.51516-0.4605 1.5532-13.847 2.3067-29.749 2.5875-54.601 6.458-80.64 18.888-127.07 8.3075-31.032 9.4687-37.326 9.463-51.291-0.008-18.963-7.569-63.224-11.586-67.82-2.153-2.4634-2.4755-8.765-0.51071-9.9793 0.73958-0.4571 1.3447-1.9842 1.3447-3.3937s1.2638-3.2391 2.8084-4.0658c1.5446-0.8266 5.024-6.1425 7.732-11.813l4.9236-10.31 0.0657-37.678c0.0361-20.723 0.47061-38.333 0.96545-39.134 0.49484-0.8006 1.8093-12.669 2.921-26.375 2.2183-27.349 4.9751-41.979 12.872-68.314 12.774-42.596 16.846-67.031 15.678-94.076-0.89812-20.807-2.0154-26.031-5.7058-26.672-1.426-0.24775-11.366-2.8335-22.091-5.7462-39.91-10.876-87.868-18.718-114.26-18.718h-9.4511v18.192c0 21.753 2.328 45.031 9.3934 93.925 2.8987 20.06 6.1693 44.944 7.2682 55.298 1.2778 12.04 4.9612 31.67 10.219 54.46 4.5217 19.599 9.3504 41.988 10.73 49.754 1.3801 7.7657 3.4398 16.54 4.5773 19.498 2.8338 7.3697 2.679 13.634-0.6538 26.492-2.7345 10.549-2.8353 18.008-0.3334 24.667 1.7229 4.5859-3.3628-0.4732-6.3377-6.3046-3.5818-7.0209-3.3144-18 0.85512-35.105 0.68227-2.7991 0.40795-3.6979-1.1286-3.6979-2.5429 0-3.1161 1.6561-3.4907 10.085-0.16434 3.6979-2.0435 19.43-4.1759 34.962-8.6988 63.358-8.8299 83.596-0.88463 136.49 9.7475 64.887 11.52 77.728 12.989 94.076 0.82777 9.2159 1.763 17.173 2.0782 17.683 0.81399 1.3172 4.4938 33.601 4.1919 36.776-0.20994 2.2079 1.2798 3.0011 9.1622 4.8782 8.9914 2.1411 26.801 2.1693 29.176 0.046zm-10.138-104.04c-1.5746-27.326-0.91332-60.266 1.721-85.725 3.814-36.86 9.0438-64.62 12.586-66.809 0.88283-0.5456 1.0076 0.3031 0.35132 2.3897-2.158 6.8611-6.2884 31.046-8.8201 51.645-3.81 31-5.1424 56.789-4.4985 87.069 0.31065 14.607 0.33241 26.558 0.0484 26.558-0.28404 0-0.9087-6.8074-1.3882-15.127zm-7.6163-162.87c0-0.9554 2.6879-4.3749 5.973-7.5991 3.2851-3.224 7.3556-8.9473 9.0455-12.719 2.7546-6.1469 3.0396-8.6365 2.7551-24.059-0.27574-14.948 0.0534-18.065 2.5112-23.778 2.4048-5.5902 3.2336-6.4254 5.5329-5.5746 3.0434 1.1256 4.2903 7.4238 4.1589 21.006-0.13853 14.311-7.672 36.088-15.583 45.047-6.8117 7.7137-14.394 11.757-14.394 7.6758zm219.18 266.03c5.1417-1.3416 5.9982-2.0421 5.699-4.6603-0.19364-1.6948 0.19361-3.7572 0.86055-4.5831 1.308-1.6199 3.3291-18.976 5.5769-47.894 1.3638-17.546 2.7069-27.468 12.923-95.473 7.9453-52.89 7.8142-73.13-0.88463-136.49-2.1324-15.532-4.0115-31.264-4.1759-34.962-0.37462-8.429-0.94787-10.085-3.4907-10.085-1.5365 0-1.8108 0.8987-1.1286 3.6979 4.1695 17.106 4.437 28.085 0.85513 35.105-2.9961 5.8728-8.0696 10.896-6.3056 6.2438 2.5329-6.681 2.4102-15.121-0.3635-25.006-3.3247-11.848-3.5031-18.66-0.68308-26.092 1.1224-2.9583 3.181-11.732 4.5746-19.498 1.3936-7.7656 6.234-30.154 10.756-49.754 5.1035-22.118 8.9552-42.52 10.154-53.788 1.0624-9.9842 4.3868-35.388 7.3875-56.453 7.3546-51.629 9.3119-71.215 9.3289-93.352l0.014-18.698-17.972 0.86189c-35.107 1.6838-76.895 9.58-129.43 24.457-2.2405 0.63448-3.1217 6.1748-4.0594 25.523-1.2814 26.442 2.5883 50.762 14.417 90.606 9.2423 31.132 11.6 43.254 14.022 72.091 1.1713 13.945 2.5188 25.984 2.9944 26.754 0.47562 0.7695 0.90033 18.364 0.94384 39.099l0.0791 37.7 4.9236 10.31c2.708 5.6707 6.1874 10.987 7.732 11.813 1.5446 0.8268 2.8084 2.6563 2.8084 4.0658s0.60511 2.9366 1.3447 3.3937c1.9648 1.2143 1.6422 7.5159-0.51071 9.9794-4.0294 4.6104-11.578 48.868-11.586 67.927-0.005 13.826 0.83678 18.438 8.9787 49.167 13.062 49.294 17.471 80.366 20.081 141.47l0.78698 18.429 8.2698 0.452c9.559 0.5224 16.554-0.136 25.078-2.3602zm-23.484-115c0.40377-31.185-0.92759-55.448-4.7594-86.733-2.5204-20.578-6.6464-44.763-8.8108-51.645-0.65627-2.0865-0.5315-2.9353 0.35133-2.3897 3.634 2.246 9.7209 35.686 13.125 72.104 2.153 23.035 2.5165 63.318 0.75912 84.127-0.74327 8.8009-0.9247 4.5824-0.66516-15.464zm0.57599-152.66c-9.4892-7.0008-16.969-21.73-20.922-41.2-1.8943-9.3289-2.0121-12.483-0.70326-18.84 0.86458-4.1988 1.4061-8.3415 1.2032-9.2059-0.2028-0.8643 0.93572-2.0779 2.5301-2.6968 2.5605-0.9937 3.2309-0.353 5.7448 5.4908 2.4808 5.7668 2.8033 8.8185 2.5127 23.778-0.29906 15.396-0.0189 17.854 2.7221 23.886 1.6805 3.6979 5.8218 9.5397 9.2028 12.982 3.3811 3.4423 5.7375 6.9216 5.2368 7.7319-1.321 2.1376-2.389 1.8643-7.5266-1.9262zm-110.78-352.2c1.9848-3.0291 1.9997-3.6611 0.15143-6.3873-3.6719-5.4159-31.048-32.844-36.982-37.052-7.7548-5.499-11.842-10.746-9.8897-12.698 1.0798-1.0798 1.0822-1.972 0.009-3.2658-0.81224-0.97904-1.1105-1.78-0.66255-1.78 0.44798 0 8.8424 8.0727 18.655 17.939 14.732 14.814 19.447 18.704 27.069 22.329 7.572 3.6014 10.832 4.386 18.153 4.369 15.9-0.0369 28.342-7.7708 50.195-31.199 6.8845-7.3811 13.046-13.424 13.69-13.429 0.64525-0.005 0.50838 0.79213-0.30417 1.7711-1.0738 1.2939-1.0715 2.1859 0.008 3.2658 1.9518 1.9518-2.1349 7.1993-9.8897 12.698-5.9338 4.2077-33.311 31.636-36.982 37.052-1.8482 2.7262-1.8333 3.3582 0.15143 6.3873 3.0546 4.6619 8.8106 4.4223 30.708-1.2782 36.53-9.5099 65.007-13.937 98.506-15.317l21.515-0.88588 0.423-13.447c0.9987-31.748-4.9232-72.583-14.885-102.64-6.6804-20.17-12.457-31.154-16.373-31.154-1.0515 0-9.6705 1.7696-19.154 3.9325-75.121 17.135-148.58 22.046-195.41 13.068-9.9843-1.9142-27.543-5.8701-39.019-8.7911-11.476-2.9209-21.711-5.5092-22.744-5.7515-6.8002-1.5954-21.112 46.269-25.801 86.292-0.90991 7.7656-1.7003 24.103-1.7564 36.307l-0.10209 22.187 21.515 0.88588c11.833 0.48724 26.961 1.5697 33.617 2.4054 15.835 1.9883 54.772 9.8802 69.252 14.036 6.2865 1.8045 14.29 3.3336 17.787 3.3979 5.365 0.099 6.6998-0.40718 8.559-3.2446zm63.749-157.17c15.901-1.9753 35.264-4.7657 43.03-6.2011 7.7656-1.4353 18.052-2.9891 22.86-3.4528 4.8073-0.46373 10.081-1.6936 11.719-2.7328 1.638-1.0394 3.8701-1.8898 4.9602-1.8898 1.31 0 2.2814-1.9968 2.8653-5.8901 0.76633-5.1104-0.13381-8.5368-6.8005-25.885-9.6904-25.217-11.082-27.958-22.115-43.527-15.771-22.255-19.815-30.901-22.357-47.784-1.9496-12.95-2.0179-17.526-0.56133-37.604 0.91209-12.573 1.4405-25.28 1.1743-28.239l-0.484-5.3788-11.43 0.0343c-12.369 0.0371-39.935 5.2138-58.494 10.985-28.154 8.7546-41.608 13.393-56.477 19.473-17.128 7.0028-63.766 29.495-63.833 30.785-0.0219 0.42113 2.3527 3.9722 5.2767 7.8914 6.1215 8.2047 8.8353 18.414 7.7332 29.093-1.059 10.261-12.771 32.28-27.141 51.027-6.5794 8.5834-12.298 20.65-14.256 30.079-1.5376 7.4067-1.5323 7.4292 2.6669 11.181 2.3142 2.0677 5.4285 3.7596 6.9205 3.7596 1.4921 0 5.7045 1.516 9.361 3.3688 5.8608 2.9699 36.095 10.496 48.566 12.089 2.4947 0.31876 8.469 1.1568 13.276 1.8622 4.8073 0.70549 23.565 1.1172 41.685 0.91486 25.876-0.28893 39.149-1.1385 61.856-3.9592zm-55.238-45.401c-2.0687-3.8654-0.79113-14.064 2.1717-17.339 2.8836-3.1863 5.1119-3.3326 7.9241-0.52035 2.515 2.515 2.1166 15.482-0.57534 18.726-2.4716 2.9782-7.7185 2.5007-9.5205-0.86644zm-55.793-99.305c5.029-5.544 12.726-14.923 17.103-20.843 10.889-14.723 11.797-15.728 13.646-15.112 3.5154 1.1704 2.0942 4.9198-4.498 11.868-3.7959 4.0005-9.038 9.8453-11.649 12.989-2.6112 3.1432-5.4136 5.7149-6.2275 5.7149-0.81393 0-5.0885 3.4794-9.499 7.732l-8.0192 7.732 9.1437-10.08zm-36.888-1.2801c-1.5226-1.0444-0.53367-1.3959 4.0341-1.4338 6.0591-0.0501 16.346-3.7904 18.062-6.5672 0.50223-0.81261 2.1355-2.1316 3.6294-2.9312 5.024-2.6887 0.28168 3.7872-5.646 7.7099-5.7968 3.8361-16.647 5.5772-20.08 3.2223zm132.37-24.832c-1.4852-1.0403-7.671-4.4318-13.746-7.5367-7.9599-4.0682-11.046-6.3572-11.046-8.1937 0-4.153 4.802-3.0573 14.556 3.3212 9.983 6.5406 18.083 14.308 14.899 14.308-1.0832 0-3.1847-0.85115-4.6698-1.8915zm-110.18-6.1412c14.792-5.9946 34.76-13.245 44.375-16.11 9.6146-2.8662 24.44-7.419 32.945-10.117 20.865-6.6198 61.443-16.583 71.907-17.654l8.4946-0.87032-2.0108-4.8712c-3.1299-7.5826-5.462-9.6309-9.303-8.1706-4.5647 1.7355-28.063 3.6543-36.142 2.9512-10.588-0.92142-9.8567-2.5437 1.6044-3.557 25.048-2.2144 40.495-8.1445 50.298-19.31 14.951-17.028 19.02-52.339 8.4443-73.28-1.957-3.8753-7.6149-13.4-12.573-21.165-38.005-59.525-50.517-87.708-47.865-107.81 0.45859-3.4747 0.26259-6.638-0.43814-7.0712-1.1677-0.7217-12.485 1.7731-17.929 3.9521-2.1148 0.84661-2.0386 1.3062 0.85811 5.1679 4.9662 6.6208 9.6248 16.824 12.373 27.098 3.524 13.175 3.602 50.597 0.13643 65.354-4.3721 18.617-15.788 37.495-29.393 48.609-10.915 8.9156-33.658 20.537-44.016 22.492-17.634 3.3272-49.436-0.17976-71.805-7.9182-25.536-8.8341-42.531-24.989-49.535-47.086-2.1527-6.7914-2.7858-12.228-2.7349-23.482 0.0365-8.0545 0.44635-16.375 0.91083-18.49l0.84451-3.8451h-9.3551c-6.846 0-9.8232 0.56415-11.101 2.1035-1.1517 1.3876-2.8741 1.8203-5.0615 1.2713-3.1314-0.78595-3.0833-0.63664 0.86535 2.6859 5.4037 4.5469 11.799 17.652 14.432 29.574 1.2676 5.7384 2.3859 19.911 2.8648 36.307 0.64706 22.149 0.39731 28.602-1.4155 36.572-1.2107 5.3228-2.2012 13.301-2.2012 17.728 0 20.047 9.0813 43.803 21.339 55.82 5.9383 5.822 7.7689 6.7849 15.882 8.355 13.546 2.6212 29.22 2.3077 41.564-0.83147 6.0117-1.5288 19.699-7.1253 31.479-12.871 12.751-6.2196 22.931-10.333 26.221-10.596 2.9583-0.23598 9.0094-0.79655 13.447-1.2457 7.3003-0.7389 6.7243-0.45859-6.0511 2.9452-19.12 5.0943-26.892 9.0029-40.341 20.29-7.0518 5.918-14.251 10.653-18.793 12.361-10.995 4.1344-26.44 6.0499-35.517 4.4048-4.15-0.75222-7.5456-1.1053-7.5456-0.78479 0 2.0678 10.433 19.837 14.299 24.353l4.6817 5.4696 6.9824-3.9133c3.8189-2.1515 19.073-8.8104 33.854-14.813zm-107.32-129.01c-1.072-9.0516-6.113-18.403-13.905-25.797-3.5904-3.4066-9.5537-9.0326-13.251-12.502l-6.7235-6.3084 9.4128 4.8657c5.1771 2.6762 12.892 7.5859 17.145 10.91 4.2526 3.3246 7.732 5.3932 7.732 4.5967 0-2.7737-5.3514-25.45-7.4984-31.773-2.7761-8.1769-7.2805-15.13-10.476-16.173-2.1145-0.68955-2.4127-1.8395-1.8894-7.2854l0.62135-6.4666-11.558-2.6856c-21.189-4.9238-19.574-4.9225-30.466-0.0256-5.4995 2.4726-9.9998 4.8524-10.001 5.2884-0.00081 0.43597 1.5113 1.482 3.3602 2.3244 1.849 0.84243 3.3617 2.2514 3.3617 3.1311 0 0.87966 3.4896 4.9772 7.7547 9.1055 9.2357 8.9396 17.789 18.373 15.465 17.056-0.91134-0.51638-8.1727-6.7056-16.136-13.754-15.98-14.144-20.751-17.215-25.046-16.13-1.5844 0.40063-9.537 5.079-17.672 10.396-31.521 20.602-62.912 37.702-89.89 48.965-8.3498 3.4862-8.914 3.9583-6.0511 5.0627 5.2881 2.0401 30.491 1.5828 46.86-0.85027 8.5051-1.2642 28.172-4.1124 43.702-6.3293 15.532-2.2169 31.414-4.7179 35.297-5.5578 17.928-3.8791 49.962 11.584 64.211 30.994 2.2187 3.0225 4.5722 5.5098 5.2299 5.5273s0.84308-2.9466 0.41194-6.5868zm125.47 5.1421c0-7.0984-15.236-22.74-28.706-29.471-6.1604-3.0784-7.2368-4.0128-4.6227-4.0128 1.8741 0 5.98 0.90767 9.1243 2.017 7.1396 2.519 7.4626 2.5108 5.2684-0.13299-1.608-1.9376-1.2591-1.9308 3.5332 0.0689 9.8646 4.1165 21.849 14.06 25.921 21.51l2.244 4.1038 0.70008-11.544c0.59305-9.7789 1.4581-13.078 5.6584-21.576 4.451-9.0061 17.71-25.298 19.297-23.712 0.34339 0.34339-1.5253 4.1942-4.1527 8.5574-5.973 9.9192-8.7158 18.994-8.7158 28.837 0 7.2248 2.0445 21.258 3.2765 22.49 0.31244 0.31245 4.3927-1.4381 9.0672-3.89 8.3029-4.3552 25.308-19.781 25.308-22.957 0-0.87134 2.7262-7.4162 6.0581-14.544 13.275-28.399 15.223-60.651 5.055-83.693-1.8766-4.2526-3.9157-7.732-4.5313-7.732-0.61552 0-5.2225 2.6412-10.238 5.8692-11.417 7.3485-14.992 9.172-29.254 14.922-17.306 6.9768-23.943 13.002-25.274 22.94-0.28065 2.0958-1.7036 4.6027-3.1621 5.5711-2.2209 1.4746-3.1332 1.4234-5.615-0.31478-7.3306-5.1346-0.94938-22.54 10.716-29.228 3.2006-1.835 14.896-6.4958 25.99-10.357 11.093-3.8615 23.388-8.6451 27.32-10.63l7.1496-3.6094-7.4857-8.3894c-4.1171-4.6141-7.4857-8.8981-7.4857-9.5198s-4.0845-2.1498-9.0767-3.3957c-4.9921-1.2459-13.51-4.3904-18.93-6.9876-11.326-5.4278-17.326-5.3594-26.076 0.29736l-5.0012 3.2331-0.37763 16.481-0.37763 16.481-2.6406-15.162c-2.1708-12.464-3.0082-15.019-4.7064-14.361-1.1361 0.44004-3.7423 1.1384-5.7916 1.5519-2.0492 0.41352-3.9949 1.1872-4.3239 1.7194-0.99405 1.6085 6.1018 23.452 8.1341 25.04 3.2363 2.5283 5.8058 10.2 4.5354 13.542-0.68502 1.8018-0.59264 4.6416 0.22754 6.9943 1.96 5.6226 1.0416 14.174-1.5754 14.669-3.0948 0.58538-9.8606-5.0828-8.1312-6.8122 0.94834-0.94835 2.0361-0.84212 3.4577 0.33769 1.817 1.508 2.0741 0.96653 2.0741-4.3686 0-5.1183-0.37542-5.9999-2.3532-5.5257-6.0576 1.4523-31.47 4.1516-34.222 3.635-1.7012-0.31937-10.858 0.96896-20.347 2.863-9.4989 1.9041-20.622 3.4532-24.71 3.4532-6.2439 0-8.7798 0.81493-15.692 5.0426l-8.244 5.0426 16.136 0.88996c21.711 1.1974 42.674 0.32074 56.861-2.3778 26.851-5.1074 33.906-2.8449 33.906 10.874 0 3.3568-0.69958 4.7746-2.6634 5.3979-2.9848 0.94735-9.0504-2.8215-9.7255-6.0428-0.36267-1.7308-5.4158-2.017-35.601-2.017h-35.179l-0.77323 3.866c-1.2213 6.1064-0.83981 23.799 0.65285 30.274 6.5924 28.596 32.124 46.122 77.464 53.174 14.985 2.3451 20.611 2.5173 20.611 0.64545zm-335.51-30.18c28.497-10.009 67.512-29.015 89.534-43.619 10.807-7.166 15.461-9.5 40.229-20.175 12.203-5.2595 29.449-13.273 38.324-17.808 17.893-9.1428 25.247-10.471 32.32-5.8361 2.9661 1.9434 5.5372 2.312 12.602 1.8064 11.164-0.79879 20.687-5.317 32.405-15.376 21.716-18.64 38.831-28.726 50.203-29.585 3.5801-0.27064 7.5134-0.98919 8.7405-1.5967 1.2271-0.60758 5.6533-1.8926 9.8359-2.8556 4.1826-0.96301 9.3261-3.1822 11.43-4.9315l3.8251-3.1806-3.7855 1.3478c-5.0336 1.7922-7.0977 1.6996-9.2292-0.4144-1.4654-1.4532-5.0294-1.4245-20.326 0.16393-10.202 1.0594-18.936 1.5397-19.409 1.0675-2.0586-2.0586 2.7421-3.6793 14.536-4.9073 6.9655-0.72525 20.458-2.3076 29.981-3.5163 16.089-2.0419 17.406-2.0402 18.561 0.0243 1.5449 2.7605 6.1547 1.8797 14.212-2.7156 4.1642-2.3749 5.6727-4.0648 5.559-6.2282-0.13285-2.5296-0.25194-2.5949-0.80461-0.4409-0.57219 2.2302-1.6021 2.4415-8.7421 1.7942-4.8986-0.4442-14.533 0.25415-24.409 1.7691-8.9732 1.3766-23.258 3.1354-31.743 3.9083-12.955 1.1801-15.737 1.0961-17.357-0.52372-1.6756-1.6756-2.4753-1.6322-6.0866 0.33027l-4.1576 2.2593 3.6337 0.43772c4.6262 0.55729 6.3196 5.0596 3.0668 8.1535-1.7912 1.7037-2.4628 1.807-2.9619 0.45573-0.51432-1.3926-1.2734-1.3361-3.7374 0.27837-1.7006 1.1143-9.1392 3.5588-16.53 5.4323-7.3911 1.8735-14.562 3.7336-15.935 4.1335-1.3735 0.39984-0.98444 0.002 0.86451-0.88257 19.058-9.125 27.736-14.216 26.439-15.512-0.6687-0.66872-19.299 8.4804-35.581 17.472-14.507 8.0122-23.601 11.359-34.936 12.856-6.1874 0.81723-11.945 2.5572-15.652 4.7294-5.4989 3.2226-16.72 5.3863-36.17 6.974-13.354 1.0902-72.197 11.116-93.701 15.965-16.834 3.7961-42.664 11.969-51.098 16.169-3.3282 1.6572-9.0767 4.0193-12.775 5.2494-8.5822 2.8546-18.49 10.117-22.906 16.79-1.8964 2.8658-5.3907 9.6739-7.765 15.129-2.3743 5.4554-5.6457 12.065-7.2697 14.687-1.6241 2.6227-3.3357 7.1624-3.8035 10.088l-0.85064 5.3196 5.8335 1.5151c3.2084 0.83328 11.582 3.6057 18.608 6.161 8.32 3.0259 14.182 4.4119 16.809 3.9747 2.2188-0.36919 11.295-3.2216 20.17-6.3387zm485.19-38.717c1.2444-3.9478 2.2686-8.0323 2.2758-9.0767 0.0279-4.019 6.604-15.786 11.456-20.497 4.8429-4.7034 4.929-4.9343 1.8478-4.954-2.5947-0.0166-2.8342-0.2822-1.2147-1.3477 3.1544-2.0756 24.805-8.8227 43.15-13.447 21.02-5.299 42.971-12.937 77.2-26.863 39.539-16.086 53.246-21.115 71.868-26.367 9.2044-2.596 21.004-6.7451 26.221-9.2201 16.497-7.8261 45.069-20.935 66.496-30.508 11.387-5.0874 28.753-13.794 38.593-19.348 28.708-16.204 50.743-25.862 78.248-34.295 14.219-4.3596 15.242-4.9072 16.221-8.685 0.6412-2.4741 2.0513-4.1895 3.6494-4.4395 1.4324-0.22415 3.902-1.0495 5.4879-1.834 2.0834-1.0307 4.2757-0.96708 7.901 0.22935 2.7596 0.91076 10.236 1.7352 16.615 1.832 11.259 0.17099 11.799 0.0351 18.505-4.6583 3.9378-2.7559 12.032-6.4211 18.826-8.5248 6.5547-2.0297 15.442-5.282 19.751-7.227l7.8329-3.5366-4.39-1.4781c-4.9841-1.6782-6.2245-3.8465-3.8423-6.7168 2.2215-2.6768 0.852-2.4803-5.5787 0.80039-10.94 5.5812-32.977 9.6323-39.267 7.2185-1.7312-0.66436-1.7483-1.2482-0.1275-4.3702 1.8679-3.5978 1.8951-3.6034 17.689-3.6034 13.286 0 16.51-0.41832 20.137-2.613 3.2728-1.9799 3.9704-3.0334 2.8794-4.348-1.0954-1.32-0.5205-2.0921 2.4042-3.2282 10.199-3.9618 26.828-10.064 40.823-14.981 19.919-6.9982 25.549-9.8646 25.549-13.007 0-2.2214-0.6514-2.3668-6.0704-1.3544-3.3387 0.62374-7.1206 1.6722-8.4043 2.3298-10.642 5.4517-64.469 18.058-74.82 17.521-4.5957-0.23789-8.0312 0.96797-17.707 6.2151-25.687 13.93-40.288 22.534-41.319 24.348-1.5704 2.7638-3.6311 2.3116-3.6311-0.79687 0-1.4792-0.2106-2.6894-0.4679-2.6894-0.2575 0-7.6701 2.3619-16.472 5.2487-8.8024 2.8868-25.081 7.4429-36.175 10.125-27.192 6.5735-31.365 7.7508-47.694 13.456-7.742 2.705-32.014 9.4099-53.937 14.9-46.862 11.735-52.249 13.567-78.957 26.863-11.824 5.8853-21.969 10.089-24.349 10.089-2.2438 0-13.326 3.3588-24.627 7.4641-11.302 4.1053-35.657 11.753-54.123 16.994l-33.575 9.5297-13.218-0.80526c-15.842-0.96511-45.611 0.97956-59.905 3.9134-22.259 4.5684-39.336 11.858-40.372 17.235-0.33615 1.7455 0.0537 2.1648 1.3354 1.4363 1.4586-0.82905 1.4837-0.67716 0.12922 0.78204-2.3502 2.5321-2.1077 16.162 0.47563 26.737 3.1259 12.794 12.366 31.585 23.501 47.797 5.3438 7.7795 10.09 14.145 10.547 14.145 0.45713 0 1.5132-3.4794 2.3466-7.732 3.7598-19.182 19.595-47.467 36.064-64.42l8.939-9.2019-8.1667 12.397c-14.073 21.362-25.459 46.739-28.527 63.578-0.74107 4.0676-2.2712 8.8315-3.4004 10.586-1.707 2.6528-1.7647 3.729-0.34197 6.3873 0.94101 1.7583 2.1033 3.1969 2.5828 3.1969 0.47954 0 1.8901-3.23 3.1345-7.1778zm193.83-136.76c-1.3502-2.1846 1.8918-5.1684 6.5588-6.0363 2.3293-0.43316 8.1684-0.60045 12.976-0.37175l8.7405 0.41579-10.762 3.6979c-11.479 3.9445-16.117 4.552-17.513 2.2944zm-463.87 102.62c3.4265-0.6837 2.6163-1.0726-5.3788-2.5824-5.1771-0.97758-10.018-1.6896-10.758-1.5823-0.73958 0.10726-3.0396-0.50381-5.1112-1.358-3.1796-1.3111-5.4846-0.97804-14.792 2.1375l-11.025 3.6907 15.464 0.75313c15.425 0.75122 23.962 0.46517 31.6-1.0588zm41.685-9.8765c2.9583-0.75757 15.968-2.1578 28.911-3.1117 22.67-1.6708 32.273-3.8899 32.273-7.4583 0-0.65175-3.3594-2.2417-7.4652-3.5331-6.6617-2.0954-8.6629-2.1617-18.594-0.61683-8.7944 1.368-12.165 1.3893-16.067 0.10134-5.5201-1.8218-7.4967-6.0514-5.0043-10.708 0.82849-1.548 1.1493-2.8146 0.7129-2.8146-0.94493 0-14.473 9.0998-24.883 16.738-4.0857 2.9976-10.113 6.6586-13.394 8.1355l-5.9658 2.6853 3.9815 0.8535c6.3707 1.3657 19.659 1.2251 25.496-0.26985zm49.418-21.906c4.2526-0.01 7.732-0.35475 7.732-0.76832 0-0.77457-6.8986-22.029-7.3317-22.59-0.51399-0.66449-9.3282 2.3414-10.055 3.429-0.42179 0.63131-4.2463 2.7268-8.4989 4.6566s-7.732 4.2112-7.732 5.0699c0 0.85862-1.5127 3.3589-3.3617 5.5564-5.4696 6.5001-4.6916 6.9947 9.0767 5.7693 6.8412-0.60885 15.918-1.1144 20.17-1.1234zm-138.49-13.09c1.6534-0.84868 4.9282-3.3612 7.2772-5.5834 3.8507-3.6427 4.8534-3.953 10.19-3.1527 5.0522 0.75762 9.4439-0.30624 29.997-7.2666 13.244-4.4848 30.512-10.645 38.374-13.689l14.296-5.5344 0.85325-10.094c1.1388-13.472 1.0768-20.743-0.17008-19.972-1.8098 1.1186-6.0672-2.9564-5.2671-5.0414 0.42368-1.1042 2.9896-2.4238 5.702-2.9326 4.2243-0.7925 5.3374-1.8158 7.7594-7.1339 3.7908-8.3233 4.0668-28.771 0.51259-37.981-2.1608-5.5986-8.8666-14.216-7.1328-9.166 1.4087 4.1031 1.8562 10.666 0.67771 9.938-0.67573-0.41761-1.2286-1.7992-1.2286-3.0701 0-2.7575-3.6533-8.288-5.4747-8.288-1.2364 0-6.612 7.807-6.6224 9.6174-0.008 1.4086 8.4648 4.3429 11.66 4.0382 4.1094-0.38727 7.1645 4.615 7.1645 11.736 0 6.6482-8.1004 23.021-11.381 23.021-6.3903 0-7.8521-4.71-3.7421-12.056l2.3532-4.2062-4.1525-3.7574c-6.0258-5.4526-7.5626-12.785-4.4309-21.141 2.4248-6.4696 2.4236-6.5223-0.0813-3.2576-2.7308 3.559-4.5727 10.309-3.3522 12.284 0.41013 0.66361-0.50023 1.2066-2.0231 1.2066-6.4503 0-1.0175-16.654 7.0346-21.562 5.2634-3.2093 11.397-3.385 15.592-0.44646 4.0832 2.86 8.1133 11.859 8.3514 18.647 0.1806 5.1501 0.22976 5.2072 1.1561 1.3447l0.96743-4.0341 1.2003 4.0341c0.6602 2.2187 1.1833 10.993 1.1625 19.498-0.044 17.884-2.3487 24.927-8.9767 27.428-2.9764 1.1234-3.6743 2.0689-3.0693 4.1575 0.43072 1.4868 1.7608 6.8834 2.9558 11.992 2.0859 8.9178 2.0709 9.3685-0.37439 11.275-2.4752 1.9295-2.4711 1.9587 0.1423 1.0371 1.4792-0.52165 11.733-2.436 22.787-4.2542 11.053-1.8181 20.224-3.4394 20.379-3.6027 0.1551-0.16335-3.0322-4.8144-7.083-10.336-4.0508-5.5213-9.565-13.993-12.254-18.826-2.6888-4.8328-5.6315-9.5469-6.5392-10.476-1.9362-1.9813-2.4629-3.6584-4.5373-14.447-7.3745-38.355-17.186-65.194-29.509-80.716-2.9208-3.6791-7.3042-9.2432-9.7412-12.365-5.9441-7.6142-11.071-10.721-22.461-13.614-5.2572-1.3351-9.1954-2.7905-8.7517-3.2342 1.2685-1.2685-11.271-2.9499-21.627-2.9-10.2 0.0493-20.871 2.2219-29.965 6.1012-8.2736 3.5291-31.683 20.46-40.552 29.327-9.4617 9.4617-18.033 25.809-21.812 41.6-5.0629 21.158-2.003 48.268 7.6066 67.393 9.0177 17.946 8.3954 17.123 13.681 18.114 7.1533 1.342 15.235 5.768 15.235 8.3434 0 1.2055 1.5485 5.3569 3.4412 9.2254 4.1156 8.4121 7.2714 19.7 7.3188 26.18 0.0697 9.5477 0.84561 10.503 7.5189 9.2564 3.2802-0.61282 7.317-1.8086 8.9704-2.6573zm-23.602-53.153c-2.349-2.349-0.41951-7.0788 6.6572-16.318 4.1884-5.4684 9.7749-11.411 12.414-13.204 5.4968-3.7351 14.255-4.3725 18.373-1.3371 2.377 1.7521 2.1131 1.8583-2.9534 1.188-4.9463-0.6544-6.11-0.23378-10.488 3.791-2.7083 2.4898-7.4946 9.3679-10.636 15.284-4.5487 8.5669-6.3937 10.838-9.0604 11.156-1.8417 0.21884-3.7798-0.0332-4.3068-0.5603zm186.32 25.502c-0.91039-0.36834-2.7257-0.39074-4.0341-0.0499-1.3083 0.34092-0.56347 0.6423 1.6553 0.66971 2.2187 0.0274 3.2892-0.25155 2.3788-0.61989zm37.275-17.254c0.91288-1.1 1.3351-2.8461 0.93819-3.8802-0.91754-2.3911-10.311-1.4773-20.959 2.0388-5.0528 1.6686-6.0058 2.261-2.8959 1.8002 16.08-2.383 18.897-2.407 18.897-0.16087 0 2.7438 1.8339 2.8361 4.0199 0.20225zm-98.292-43.342c4.0159-8.266 5.1276-18.924 2.3531-22.561-1.8967-2.4861-1.9971-2.1302-1.3282 4.7064 0.62935 6.4331 0.26876 8.06-2.7701 12.498-3.3167 4.8438-4.7335 11.706-2.4169 11.706 0.59221 0 2.4652-2.8578 4.1622-6.3507zm-4.533-24.217c-4.6988-4.0417-8.2893-3.945-9.0902 0.24491-0.61285 3.2058 2.3316 6.1234 3.2871 3.257 0.64998-1.9499 7.7438 3.9515 8.0019 6.6569 0.11834 1.2406 0.46973 0.14849 0.78084-2.4269 0.45779-3.7897-0.11027-5.264-2.9796-7.732zm758.4-48.753c0-2.6977-4.058-3.3027-8.8469-1.3191-5.8909 2.44-4.7366 4.1893 2.4596 3.7275 4.5711-0.29333 6.3873-0.97813 6.3873-2.4085zm-5.3788-9.4312c1.7733-0.76201 2.0023-1.1809 0.6723-1.2296-1.1093-0.0407-2.9246 0.51265-4.034 1.2296-2.4581 1.5884-0.335 1.5884 3.3617 0zm24.877-2.7217c16.312-2.8664 22.86-4.8526 22.86-6.9337 0-0.69351-0.4538-0.98158-1.0085-0.64017-0.5546 0.34141-8.666 2.1974-18.025 4.1246-9.3594 1.9271-19.041 4.4396-21.515 5.5835-3.2528 1.5039-3.5675 1.8726-1.1365 1.3315 1.849-0.4115 10.321-1.9711 18.826-3.4656zm12.756-8.1158c11.786-3.087 20.279-6.3293 19.257-7.3512-0.3698-0.36979-2.9757 0.29005-5.7909 1.4663s-8.2318 2.6454-12.037 3.2647c-7.2668 1.1827-17.707 5.0915-14.102 5.2798 1.1549 0.0603 6.8577-1.1365 12.672-2.6596zm29.798-17.781c2.5381-4.908 1.7991-5.6436-3.8102-3.7924-3.3235 1.0968-4.8266 2.6261-5.8756 5.9777l-1.4097 4.5039 4.5385-1.3929c2.8156-0.86412 5.3049-2.8747 6.557-5.2964zm-839.19 1029.7c-0.46116-1.2017-0.80012-2.892-0.75323-3.7559 0.0469-0.864 0.66499-0.1216 1.3735 1.6499 0.70859 1.7714 1.0475 3.4615 0.75323 3.7559-0.29431 0.2943-0.91243-0.4482-1.3735-1.6499zm297.8 1.3966c0.14002-2.5471 2.3811-6.8362 2.4592-4.7064 0.0406 1.1094-0.51265 2.9248-1.2296 4.0341-0.71693 1.1094-1.2702 1.4119-1.2296 0.6723z"/>
</svg>
