<?xml version="1.0" encoding="UTF-8" standalone="no"?>
<!-- Created with Inkscape (http://www.inkscape.org/) -->
<svg id="svg3376" xmlns:rdf="http://www.w3.org/1999/02/22-rdf-syntax-ns#" xmlns="http://www.w3.org/2000/svg" height="375" viewBox="0 0 1250 375" width="1250" version="1.1" xmlns:cc="http://creativecommons.org/ns#" xmlns:dc="http://purl.org/dc/elements/1.1/">
 <metadata id="metadata3382">
  <rdf:RDF>
   <cc:Work rdf:about="">
    <dc:format>image/svg+xml</dc:format>
    <dc:type rdf:resource="http://purl.org/dc/dcmitype/StillImage"/>
    <dc:title/>
   </cc:Work>
  </rdf:RDF>
 </metadata>
 <path id="path3386" fill="#fff" d="m507.53 255.31c0.017-0.51563-0.1336-30.047-0.33467-65.625l-0.37-64.68h16.718c14.731 0 16.628 0.23499 15.96 1.9772-0.41731 1.0875-0.75874 30.619-0.75874 65.625v63.648h-15.625c-8.5938 0-15.611-0.42188-15.594-0.9375zm78.713-52.5c-0.004-29.391-0.36965-58.922-0.81354-65.625l-0.81-12.18h16.365c9.5615 0 16.686 0.51966 17.137 1.25 0.94464 1.5284 23.706 1.6762 26.645 0.17291 1.1579-0.59239 3.5388-1.4184 5.2908-1.8355 2.94-0.70004 2.7956-0.35114-1.875 4.5288-5.5221 5.7696-9.1462 15.081-10.329 26.537l-0.68677 6.6542-8.4729 0.4086-8.4729 0.40861-0.42463-16.46c-0.40143-15.561-1.1247-19.507-3.1961-17.435-0.49308 0.49307-1.1236 29.274-1.401 63.958l-0.50451 63.062h-14.224-14.224l-0.006-53.438zm123.76 29.31v-24.13l4.4816-4.3077c9.0445-8.6934 10.518-16.357 4.1724-21.697-2.1152-1.7799-4.6465-3.2361-5.625-3.2361s-1.7791-0.25146-1.7791-0.5588c0-0.30735 2.7751-4.2252 6.1669-8.7064 4.4084-5.8243 6.4098-9.7672 7.0186-13.828 1.1758-7.8408-0.65636-9.8483-8.3164-9.1122l-5.8529 0.56239-0.5018-7.8807c-0.481-7.5539-1.4491-10.459-2.9767-8.9311-0.39172 0.39174-1.0312 4.9303-1.4211 10.086-0.63175 8.3532-1.0368 9.5228-3.7216 10.746-5.1241 2.3347-5.4545 1.8248-4.6221-7.1314 0.65438-7.0408 0.42543-8.869-1.3306-10.625-3.3298-3.3298-8.5631-2.5572-15.243 2.2503-3.3407 2.4042-7.3572 5.2929-8.9255 6.4193s-3.0365 1.8313-3.2626 1.5663c-0.22606-0.265-0.76239-3.9974-1.1918-8.2943l-0.78079-7.8125h19.106c11.434 0 19.623-0.51669 20.392-1.2867 0.79308-0.79308 7.8764-1.1527 18.464-0.9375l17.178 0.34916-0.13172 64.25c-0.0725 35.338-0.42712 64.728-0.78816 65.312-0.36102 0.58416-7.3732 1.0621-15.583 1.0621h-14.926v-24.13zm-240.8 19.916c-9.5169-5.3612-10.453-8.4018-10.406-33.791 0.0294-15.787 0.4736-21.942 1.7003-23.558 1.4571-1.9195 4.0585-2.1875 21.232-2.1875h19.572l-0.33473 30.312-0.33472 30.312-14.375 0.21046c-9.2898 0.13602-15.323-0.32345-17.054-1.2988zm75.438 0.93031c-0.486-0.486-0.88364-14.571-0.88364-31.3v-30.417h3.7183 3.7182l0.34425 19.688 0.34424 19.688h14.064 14.064l-0.001 11.439-0.001 11.439-17.241 0.17371c-9.4827 0.0955-17.639-0.22393-18.125-0.70993zm76.227-0.0225c-0.47361-0.4736-0.86016-5.408-0.85901-10.965l0.003-10.104 36.373-0.12918c29.671-0.10537 36.577-0.45087 37.479-1.875 0.60799-0.9602 1.114-5.6928 1.1246-10.517l0.0191-8.7712 5-0.13111 5-0.1311v21.653 21.653l-41.639 0.0894c-22.901 0.0491-42.026-0.29812-42.5-0.77172zm126.22-0.0277c-0.47-0.46-0.84-14.19-0.84-30.51v-29.669l17.188-0.45178c14.224-0.37386 17.45-0.12557 18.71 1.4399 1.0709 1.3303 1.5332 8.7538 1.5578 25.017 0.0399 26.27-0.88685 29.516-9.4449 33.092-4.6257 1.9328-25.494 2.7578-27.177 1.0744zm-179.55-27.59c-5.4457-0.26118-9.7366-1.0741-10.293-1.9501-0.52517-0.82619-0.96347-13.737-0.97399-28.69l-0.02-27.19h9.4572c5.2015 0 10.492-0.55365 11.756-1.2303 2.1404-1.1455 2.3559-0.34823 3.1254 11.562 0.45458 7.036 0.64873 20.661 0.43145 30.277-0.32724 14.483-0.71693 17.5-2.2701 17.575-1.0312 0.0499-6.0773-0.111-11.214-0.35732zm8.0885-29.702v-23.75h-6.875-6.875l-0.33971 24.126-0.33972 24.126 7.2147-0.3757 7.2147-0.37569v-23.75zm77.812 29.667-33.438-0.33293v-10.019c0-7.5621 0.44091-10.188 1.7981-10.709 0.98896-0.3795 15.473-0.78373 32.188-0.89828l30.389-0.20826 0.35197-13.906c0.34318-13.559 0.28064-13.926-2.5-14.67-1.5686-0.42023-16.211-0.77174-32.539-0.78113-28.85-0.03-29.69-0.1-29.69-2.53 0-2.4399 0.83374-2.5 34.688-2.5012l34.688-0.001-0.39371 27.814c-0.21654 15.298-0.77904 28.095-1.25 28.439-0.47095 0.34375-15.903 0.47519-34.294 0.29209zm8.8249-8.6718c0.6816-7.0462-1.4063-9.1203-9.1814-9.1203h-6.831v6.9346 6.9346l7.8125-0.37214c7.7875-0.37096 7.8137-0.38498 8.1999-4.3769zm21.747-1.5794c-0.43434-6.6316-1.5063-7.4965-9.3218-7.5217l-5.94-0.03v6.9346 6.9346l7.8125-0.37214 7.8125-0.37215-0.36574-5.5841zm10.713-24.728c-0.1527-7.3906-0.30273-16.136-0.3334-19.434-0.0361-3.8903-0.7069-6.4077-1.9099-7.1684-1.0198-0.6448-12.192-1.181-24.828-1.1915l-22.974-0.0191 0.84719-6.3864c1.2393-9.3424 4.2741-17.515 7.9563-21.426 1.78-1.8906 3.621-3.4375 4.091-3.4375 0.47007 0 1.2401 3.4065 1.7111 7.57 1.6045 14.182 8.0409 16.097 20.804 6.1912 4.4209-3.4314 8.4878-6.2438 9.0375-6.25 0.54976-0.006 0.6189 3.3535 0.15363 7.4658-0.67871 5.999-0.41768 8.1305 1.3206 10.783 1.9886 3.035 2.6686 3.247 8.2838 2.5819l6.12-0.73v7.3673c0 4.052-0.5625 7.715-1.25 8.1399s-1.25 2.3936-1.25 4.375 0.5625 3.9501 1.25 4.375 1.25 4.8979 1.25 9.94c0 9.786-0.58699 10.685-6.9772 10.685-2.9923 0-3.0256-0.13524-3.3004-13.438zm15.28 0.93c0-3.6566 0.5143-5 1.9142-5 2.6897 0 3.6673 3.3545 2.0269 6.9547-2.09 4.59-3.94 3.67-3.94-1.95zm-249.75-5.25c-1.0513-1.0513-1.5-7.9833-1.5-23.175 0-32.971 1.898-35.325 28.473-35.325h15.589l-0.78125 3.9062c-0.42969 2.1484-0.78125 15.648-0.78125 30v26.094h-19.75c-13.694 0-20.21-0.45991-21.25-1.5zm83.5-28.437v-29.937l18.752-0.37514 18.752-0.37514-0.001 6.3705c-0.001 3.5038-0.3567 11.379-0.79036 17.5l-0.7885 11.13h-13.899-13.899l-0.13553 3.125c-0.0745 1.7188-0.21518 7.4844-0.3125 12.812l-0.18 9.71h-3.75-3.75v-29.937zm213.44 29.007-10.938-0.41663v-29.326-29.326h13.75 13.75l5 5 5 5v24.241c0 27.263 0.50206 25.955-9.7897 25.502-3.2094-0.14136-10.757-0.44451-16.773-0.67366zm-47.19-25.27c0-4.2299 0.53435-5.344 3.1303-6.5268 4.4303-2.0186 4.9252-0.75945 1.9748 5.0239-3.64 7.11-5.11 7.55-5.11 1.5z"/>
</svg>
