<?xml version="1.0" encoding="UTF-8" standalone="no"?>
<!-- Created with Inkscape (http://www.inkscape.org/) -->
<svg id="svg3347" xmlns:rdf="http://www.w3.org/1999/02/22-rdf-syntax-ns#" xmlns="http://www.w3.org/2000/svg" height="748.75" viewBox="0 0 892.5 748.75" width="892.5" version="1.1" xmlns:cc="http://creativecommons.org/ns#" xmlns:dc="http://purl.org/dc/elements/1.1/">
 <metadata id="metadata3353">
  <rdf:RDF>
   <cc:Work rdf:about="">
    <dc:format>image/svg+xml</dc:format>
    <dc:type rdf:resource="http://purl.org/dc/dcmitype/StillImage"/>
    <dc:title/>
   </cc:Work>
  </rdf:RDF>
 </metadata>
 <defs id="defs3351">
  <filter id="filter5701" style="color-interpolation-filters:sRGB" height="1.064" width="1.0565" y="-.032003" x="-.028233">
   <feGaussianBlur id="feGaussianBlur5703" stdDeviation="9.9816931"/>
  </filter>
 </defs>
 <g id="layer1">
  <path id="path3357-5" d="m575.52 751.88c8.5554-9.1766 13.503-20.417 14.682-33.353 0.9842-10.797 1.6533-13.036 3.8966-13.036 0.8761 0 1.1514 3.9767 0.8122 11.732-0.4561 10.428-1.0198 12.755-5.0727 20.938-4.7889 9.6687-11.946 17.67-17.212 19.243-2.661 0.79478-2.2314-0.0251 2.8938-5.5225zm-280.77 3.1791c-1.5021-3.9144-0.95349-16.34 1.0139-22.965 2.4499-8.2496 10.502-20.235 16.428-24.451 8.0173-5.7044 7.2072-1.0923-1.4881 8.4727-7.6767 8.4444-11.633 17.328-13.511 30.34-0.98629 6.832-1.8943 10.031-2.4422 8.6029zm54.756-2.0584c-0.74901-2.3599-0.99017-2.3868-4.6111-0.51436-4.7138 2.4376-11.697 1.4046-13.519-1.9997-1.2414-2.3197-1.4283-2.2979-5.8146 0.67879-6.3 4.2753-12.126 4.0745-16.779-0.57838-3.9315-3.9315-4.4465-6.2794-2.2695-10.347 0.97307-1.8182 1.6607-2.1396 2.3145-1.0818 0.89061 1.441 5.3159-4.8068 10.117-14.283 2.1153-4.1755 7.425-6.4475 5.4292-2.3231-0.61594 1.2728-0.97265 6.9795-0.79269 12.681 0.17995 5.702-0.26171 11.468-0.98149 12.812-0.71976 1.3449-0.82444 2.4453-0.23258 2.4453 1.9735 0 6.1727-5.5775 7.0583-9.375 1.4838-6.3624 6.5601-13.769 11.119-16.225 4.1174-2.2174 4.5214-2.2289 7.5916-0.21733 2.0176 1.322 3.2427 3.2722 3.2427 5.1621 0 4.0887-2.6087 9.5806-4.2779 9.0059-1.5252-0.52517-1.6304-6.6112-0.17123-9.9134 1.945-4.4017-3.0113-2.2205-6.7818 2.9845-9.4139 12.996-6.4377 23.858 4.9268 17.981 4.9431-2.5562 15.062-17.229 14.187-20.573-0.81929-3.133 2.6711-8.8305 5.4097-8.8305 1.5977 0 1.8226 0.86743 1.1518 4.443l-0.8335 4.443 3.9322-2.0334c7.4401-3.8474 10.106 1.0576 4.3145 7.9398-6.1282 7.283-8.1966 16.458-3.7103 16.458 2.6312 0 7.9219-7.1876 9.4396-12.824 1.7238-6.4018 9.5733-14.676 13.923-14.676 3.7506 0 7.9521 4.3967 8.8128 9.2224 1.3178 7.3889-8.6599 20.757-15.504 20.773-1.131 0.003-3.3606-1.3504-4.9546-3.0067l-2.8983-3.0114-3.5788 3.0114c-4.4591 3.7521-7.6748 3.8257-10.191 0.23321-2.9403-4.1979-2.3821-7.5724 2.4371-14.734l4.383-6.5131-3.4385 0.86301c-4.9919 1.2529-5.75 2.151-11.67 13.826-2.9523 5.8225-5.5077 10.586-5.6786 10.586-0.17097 0-0.66651-1.1206-1.1012-2.4902zm-32.137-11.36 0.36603-9.275-3.8035 5.9809c-4.3923 6.9066-4.5581 7.9885-1.7073 11.139 3.4883 3.8546 4.7596 1.9162 5.1448-7.8445zm72.009 6.9812c1.8509-1.7154 4.1209-4.9159 5.0444-7.1124 1.5137-3.6 1.4241-4.3385-0.9094-7.4948-2.4851-3.3613-2.6863-3.4142-5.0344-1.3251-5.6797 5.0533-8.1228 19.051-3.325 19.051 0.47253 0 2.3735-1.4035 4.2244-3.1188zm8.2498-17.506c0-1.7188-0.5625-3.125-1.25-3.125-1.3965 0-1.7134 4.12-0.41666 5.4167 1.3779 1.3779 1.6667 0.98091 1.6667-2.2917zm7.3829 20.508c-2.0863-2.0863-2.4578-3.5442-1.8315-7.1875 1.4339-8.3416 5.7154-18.217 11.68-26.939 6.7929-9.9334 9.7234-12.349 11.535-9.5066 3.2948 5.1686-1.9381 17.049-11.192 25.409-5.5756 5.0372-7.5742 8.9087-7.5742 14.672 0 2.7864 0.5781 3.6686 2.4039 3.6686 4.0915 0 9.5236-6.8508 13.044-16.45 3.4428-9.3884 13.414-25.316 17.4-27.793 2.6782-1.6645 4.6095 0.63136 4.621 5.4934 0.01 4.4699-6.3566 14.954-12.395 20.409-5.5756 5.0372-7.5742 8.9087-7.5742 14.672 0 6.492 6.6951 3.8218 12.747-5.0838 1.95-2.8696 2.1272-2.9172 2.1875-0.58819 0.089 3.4565-3.0967 7.7225-7.4483 9.9728-4.8169 2.491-6.9989 2.3552-9.9748-0.62071-2.4835-2.4836-2.4967-2.4836-6.5625-0.005-5.1975 3.169-7.8023 3.1398-11.066-0.12388zm16.967-30.058c1.869-3.4339 3.1179-6.5236 2.7754-6.8661-0.8103-0.8103-5.8586 6.0124-10.297 13.916l-3.5097 6.25 3.8167-3.5285c2.0992-1.9406 5.3459-6.338 7.2148-9.7719zm17.5 0c1.869-3.4339 3.1179-6.5236 2.7754-6.8661-0.8103-0.8103-5.8586 6.0124-10.297 13.916l-3.5097 6.25 3.8167-3.5285c2.0992-1.9406 5.3459-6.338 7.2148-9.7719zm15.9 31.175c-0.825-0.825-1.5-3.8086-1.5-6.6303 0-12.084 16.845-28.097 22.213-21.117 1.0032 1.3045 2.0498 1.782 2.3258 1.0611 0.276-0.72089 3.1646-5.7834 6.4191-11.25 5.788-9.7222 5.9259-9.8489 6.3145-5.8022 0.308 3.208-1.5549 7.6996-8.2952 20-10.356 18.898-11.203 21.192-8.243 22.328 2.9929 1.1485 8.7581-5.5618 10.575-12.308 1.7522-6.5072 9.5619-14.782 13.951-14.782 3.7506 0 7.9521 4.3967 8.8128 9.2224 1.3178 7.3889-8.66 20.757-15.504 20.773-1.1309 0.003-3.3605-1.3504-4.9546-3.0067l-2.8983-3.0114-3.5788 3.0114c-4.3071 3.6242-7.5773 3.821-10.751 0.64722-2.3165-2.3165-2.4361-2.3167-5.9375-0.009-4.1356 2.7266-6.8314 2.9894-8.9484 0.87236zm40.25-4.1188c1.8509-1.7154 4.1209-4.9159 5.0445-7.1124 1.5137-3.6 1.4241-4.3386-0.9094-7.4948-2.4851-3.3613-2.6864-3.4142-5.0345-1.3251-5.6797 5.0533-8.1227 19.051-3.325 19.051 0.4725 0 2.3735-1.4035 4.2244-3.1188zm-27.437-5.5328c9.3401-14.796 8.8361-22.965-0.7966-12.911-6.9044 7.2066-10.617 16.545-7.727 19.435 1.4279 1.4279 5.4443-1.6465 8.5236-6.5244zm35.687-11.973c0-1.7188-0.5625-3.125-1.25-3.125-1.3964 0-1.7134 4.12-0.4166 5.4167 1.3779 1.3779 1.6666 0.98091 1.6666-2.2917zm4.8201 20.104c-1.0631-2.3334-0.9181-4.3653 0.6376-8.9309 2.1575-6.3321 9.1613-18.049 10.789-18.049 2.8094 0 1.8985 4.6793-2.543 13.062-5.2798 9.9654-6.4107 15.264-2.9763 13.947 1.0874-0.41731 2.1747-0.75874 2.4161-0.75874 0.2413 0 3.3652-4.9219 6.942-10.938 10.901-18.333 10.061-17.239 11.396-14.855 1.4884 2.6596 0.5309 5.608-4.7437 14.608-6.8204 11.637-4.9851 16.569 3.0725 8.2557 2.538-2.6186 4.9288-7.08 6.4027-11.948 2.5354-8.3739 4.3839-11.373 7.0098-11.373 2.5206 0-0.8093 8.4642-7.0856 18.01-7.2167 10.977-14.33 14.848-17.616 9.5874-1.4799-2.3696-1.5417-2.3696-4.5542 0-4.1305 3.2491-7.488 3.0221-9.1467-0.61836zm51.01 1.1716c-3.1189-3.1189-2.5486-7.0594 2.3614-16.315 2.4426-4.6041 4.2559-8.5563 4.0297-8.7825-0.2262-0.22622-2.3059 0.78823-4.6214 2.2543-4.3137 2.7312-13.361 15.436-14.65 20.573-0.8263 3.2924-2.6854 3.7596-3.7649 0.94627-0.9669-2.5196 2.1707-10.574 7.8769-20.219 4.5113-7.6259 6.6891-8.9118 6.6891-3.9495 0 2.4837 0.038 2.4851 3.4375 0.12964 4.8907-3.3885 7.302-4.0491 8.9102-2.4408 2.3029 2.3029 1.6368 5.3898-2.9727 13.776-4.8004 8.7333-5.381 11.819-2.4364 12.949 2.1762 0.83508 7.6097-3.6798 8.7492-7.2701 0.4019-1.2663 1.2553-2.3023 1.8965-2.3023 2.264 0 1.1235 3.7569-2.2718 7.4834-4.2479 4.6623-10.292 6.109-13.233 3.1676zm-291.75-92.74c-4.2742-4.532-4.3264-4.7212-3.878-14.062 0.54156-11.283 3.59-18.348 11.91-27.602 6.7514-7.5092 14.07-12.053 21.263-13.204 4.7392-0.75768 5.6329-0.46538 9.0625 2.9643 4.424 4.424 4.7972 8.1379 1.6891 16.81-3.98 11.104-8.6738 4.5731-4.9907-6.9443 2.2561-7.055 1.927-8.3682-2.0976-8.3682-7.78 0-23.95 15.551-28.331 27.248-2.9869 7.9736-3.6114 19.239-1.2258 22.114 3.4421 4.1475 12.71 1.0789 17.887-5.9226 5.0662-6.8508 5.0626-6.864-1.7028-6.2139-4.8548 0.46649-6.7971 0.0979-8.7374-1.658-3.3092-2.9948-1.742-3.8522 9.3428-5.1118 9.9881-1.135 14.35-0.86192 16.644 1.042 2.6168 2.1717 1.7911 3.503-2.1726 3.503-3.3236 0-3.75 0.4215-3.75 3.7065 0 4.5394-6.3555 12.193-12.128 14.605-2.223 0.92884-6.3842 1.6888-9.2469 1.6888-4.3766 0-5.8946-0.73117-9.5376-4.5938zm152.28 3.0129c-5.8874-3.0257-8.2457-7.8846-8.2431-16.984 0-6.9344 0.7073-9.8045 4.1068-16.71 6.7473-13.706 19.575-24.726 28.781-24.726 4.3648 0 11.458 4.5447 13.716 8.7875 2.8122 5.285 1.2254 18.716-3.2965 27.901-4.7156 9.5786-12.346 18.522-18.154 21.278-5.0712 2.4064-12.711 2.6107-16.911 0.4521zm10.944-3.9481c5.6492-2.9213 13.89-12.843 18.062-21.746 4.3811-9.3503 6.1017-22.563 3.3672-25.858-1.9466-2.3455-6.5994-2.393-11.01-0.11237-5.6524 2.923-16.414 15.297-19.943 22.93-3.7972 8.2141-4.6777 20.901-1.7 24.495 2.1054 2.5414 6.6453 2.6594 11.224 0.29179zm24.769 4.6957c-2.3022-2.3022-0.4353-10.159 4.8042-20.218 8.6917-16.687 12.175-20.156 12.175-12.126 0 1.7474 0.1336 3.1771 0.2969 3.1771s2.4538-1.7142 5.0902-3.8092c3.1176-2.4776 5.9089-3.6793 7.9844-3.4375 5.2994 0.61737 4.9218 6.5997-1.1104 17.591-5.6134 10.228-6.7115 17.156-2.719 17.156 2.865 0 10.316-7.9939 12.243-13.134 5.2812-14.092 7.4467-18.957 11.249-25.271 9.0823-15.083 16.306-21.313 18.395-15.868 2.8085 7.3189-2.7282 19.154-14.428 30.84-5.9329 5.9261-8.687 9.6958-9.241 12.649-1.1202 5.9712-0.2877 10.069 2.1395 10.531 3.8593 0.73519 10.231-6.8292 17.22-20.445 3.8185-7.4382 7.5742-13.722 8.3461-13.964 0.7718-0.24208 1.7516 0.8485 2.1773 2.4235 0.5343 1.9768-0.9648 6.4788-4.8409 14.538-6.0031 12.481-6.7664 16.088-3.6574 17.281 3.0919 1.1864 9.3435-5.8712 15.927-17.98 9.3257-17.153 12.428-20.218 12.428-12.277 0 1.7474 0.1336 3.1771 0.2969 3.1771s2.4538-1.7142 5.0902-3.8092c3.1176-2.4776 5.9089-3.6793 7.9844-3.4375 5.2994 0.61737 4.9218 6.5997-1.1104 17.591-5.5472 10.107-6.7053 17.156-2.8188 17.156 3.7171 0 9.7787-7.5783 11.391-14.241 1.6809-6.946 7.1949-15.634 11.864-18.693 6.6104-4.3313 16.99-0.733 16.99 5.89 0 3.1164-3.0036 8.4446-6.7148 11.911-2.7925 2.6086-4.0077 2.8961-9.4938 2.2464l-6.2914-0.74512v4.3983c0 12.216 9.6373 12.481 20.406 0.56125 3.5041-3.8787 4.5935-4.5307 4.5935-2.7495 0 5.7845-11.076 13.832-19.125 13.895-3.9324 0.0309-10.403-2.9293-11.122-5.0885-0.2946-0.88406-2.2868-0.18752-5.2873 1.8487-2.648 1.797-6.1793 3.2672-7.8473 3.2672-9.5747 0-10.604-8.0413-2.8508-22.265 2.7403-5.0272 4.9824-9.6996 4.9824-10.383 0-2.0093-7.3801 2.885-11.964 7.9343-2.3272 2.5634-6.5111 9.1952-9.2975 14.737-4.5539 9.0572-7.4885 11.721-7.4885 6.7966 0-1.4014-0.8691-1.2529-4.0625 0.6941-5.1408 3.1344-9.0223 3.1515-12.12 0.0534-2.4105-2.4105-2.4784-2.408-7.3873 0.28092-5.7146 3.1302-11.039 2.1664-13.321-2.4111l-1.3195-2.6466-3.4539 2.9709c-4.3188 3.7149-8.9739 4.9344-13.198 3.4576-2.7292-0.95402-3.3253-2.0144-3.6494-6.492-0.3127-4.32 0.5909-7.1654 4.6875-14.76 2.7912-5.1747 5.0749-9.9597 5.0749-10.633 0-1.994-7.3991 2.9242-11.964 7.9524-2.3272 2.5634-6.4998 9.1728-9.2726 14.688-5.2532 10.448-5.3256 10.548-6.68 9.1934zm131.62-19.941c3.7813-3.1817 7.551-9.0048 7.551-11.664 0-3.1922-5.2155-0.82589-9.8937 4.4889-4.9737 5.6504-5.9781 7.9106-4.2729 9.6157 1.3982 1.3982 2.5651 0.9677 6.6156-2.4406zm-69.365-19.372c1.8383-3.3776 3.1319-7.1171 2.8747-8.3101-0.4721-2.1889-9.2962 10.181-14.057 19.706l-2.1868 4.375 5.0134-4.8149c2.7574-2.6482 6.5175-7.5784 8.3558-10.956zm87.534 38.885c-1.1526-1.8649 0.4405-5.8979 2.6673-6.7524 2.5514-0.97906 4.2146 0.14067 4.2146 2.8374 0 4.032-5.0382 6.8982-6.8819 3.915zm-293.12-4.818c0-3.3815 2.2727-9.4471 7.5815-20.234 4.1698-8.4726 8.6698-16.933 10-18.801 3.402-4.7777 3.0455-5.7067-1.9656-5.1217-4.3912 0.51265-10.616-2.2976-10.616-4.7926 0-0.67165 2.3269-1.2212 5.1708-1.2212 2.844 0 10.11-0.65761 16.147-1.4614 10.127-1.3484 11.25-1.2771 14.517 0.92136l3.5407 2.3827-8.5559 1.2661c-8.3275 1.2323-8.5975 1.3872-10.113 5.8021-0.85647 2.4948-4.9924 10.651-9.191 18.125s-9.0625 16.823-10.809 20.777c-1.7462 3.9531-3.7444 7.1875-4.4406 7.1875-0.69617 0-1.2658-2.1731-1.2658-4.8292zm33.75 1.664c0-1.7408 0.78799-5.0511 1.7511-7.3561 1.5468-3.7021 1.5156-4.4264-0.26785-6.2098-1.8586-1.8586-1.7686-2.0189 1.1325-2.0189 2.5949 0 4.5293-2.0835 10.953-11.798 4.291-6.4887 11.425-15.629 15.852-20.312l8.0502-8.5149 2.6108 3.0701c1.5098 1.7755 2.3663 4.1475 2.031 5.625-0.31888 1.4052-2.1497 8.5877-4.0684 15.961-3.2769 12.592-3.3613 13.547-1.3917 15.723 2.7303 3.0169 2.6468 3.9952-0.34098 3.9952-2.0521 0-2.5722 1.187-3.2865 7.5-0.46669 4.125-1.3523 7.5-1.968 7.5-1.6636 0-3.5576-5.7927-3.5576-10.88v-4.4677l-6.5625 0.78825c-3.6094 0.43353-7.6875 0.7951-9.0625 0.80347-1.7402 0.01-3.6264 2.1034-6.2062 6.8859-4.0548 7.517-5.6688 8.572-5.6688 3.7055zm24.86-17.619c2.9328-0.58655 4.0935-1.6116 4.6002-4.0625 0.37273-1.8029 1.739-7.7638 3.0361-13.247 1.2971-5.4827 2.1684-10.159 1.9362-10.391-0.5454-0.54539-20.682 26.252-20.682 27.523 0 1.1622 5.7277 1.2535 11.11 0.17701zm160.19-17.28c-2.1692-2.6137-1.0874-6.2472 1.9913-6.6886 2.9745-0.42646 4.6777 2.5569 3.5279 6.1797-0.8824 2.7802-3.4386 3.016-5.5192 0.50895zm-297.89-53.95c-1.66-1.66-0.85815-8.566 1.6317-14.053 1.3599-2.997 2.4726-5.6943 2.4726-5.9942 0-0.29983-1.9712-0.17533-4.3805 0.27666-6.0165 1.1287-10.619-1.9215-10.619-7.0371 0-3.9187 3.0932-10.844 8.4785-18.981 3.9717-6.0017 2.838-7.2409-2.7353-2.9899-6.1368 4.6807-12.316 12.656-16.908 21.821-4.4229 8.8284-7.011 9.519-6.8647 1.8318 0.069-3.6259 1.7587-7.8553 6.0894-15.242 3.2966-5.6232 5.6924-10.525 5.324-10.894-2.6126-2.6126-15.423 11.539-21.041 23.245-4.2669 8.8897-5.6082 10.255-6.8634 6.9837-0.59644-1.5543-1.2648-1.531-4.8289 0.16862-8.5907 4.0966-14.576-1.0617-12.001-10.342 1.6888-6.0839 11.509-24.534 13.393-25.162 0.7638-0.2546 1.737 0.82573 2.1627 2.4007 0.53429 1.9768-0.96479 6.4788-4.8409 14.538-5.9994 12.473-6.7661 16.088-3.6652 17.278 3.1882 1.2234 8.9643-5.5232 15.036-17.563 3.0986-6.144 6.8149-12.83 8.2585-14.857 2.3063-3.239 2.7675-3.4306 3.8028-1.5807 0.64799 1.1579 0.83406 3.4763 0.41349 5.152-0.73494 2.9282-0.54109 2.876 4.983-1.3406 7.1259-5.4393 10.254-5.6284 11.963-0.72332l1.2772 3.6639 5.7774-3.6639c7.0249-4.4551 8.7636-4.5673 9.752-0.62916 1.0141 4.0405-0.118 7.2909-5.8813 16.886-2.658 4.4254-4.8328 8.7387-4.8328 9.5853 0 3.122 1.5757 5.4936 3.6499 5.4936 3.671 0 8.7926-6.6546 19.962-25.938 5.106-8.8147 7.6378-11.153 7.6378-7.0538 0 1.4459 0.61297 1.7394 2.1875 1.0477 1.2031-0.52858 4.248-1.2057 6.7663-1.5047 3.7743-0.44812 4.8424-0.0511 6.079 2.2596 3.2904 6.1482-1.0582 21.535-8.2922 29.34l-3.1624 3.4123 3.3741-0.84685c4.0144-1.0076 8.9079-4.3941 9.9078-6.8567 0.39402-0.97045 3.25-5.5756 6.3467-10.234 4.1356-6.2208 5.4356-9.2451 4.8968-11.392-0.4853-1.9336 0.25505-4.3896 2.1879-7.2577 5.2055-7.7245 9.2959-5.6304 5.9894 3.0663-1.5354 4.0386 0.19728 4.201 6.1438 0.57581 4.1068-2.5036 4.3732-2.5207 5.9375-0.38141 2.4979 3.4161 2.0506 5.0723-3.2752 12.128-2.7022 3.5799-5.5459 8.1744-6.3193 10.21-1.8265 4.8072-0.66222 9.4238 2.3767 9.4238 3.0221 0 9.8713-7.7868 10.74-12.21 1.2485-6.3555 7.6318-17.134 11.831-19.977 2.2847-1.5469 5.7084-2.8125 7.6081-2.8125 4.4362 0 9.9263 6.2753 9.9263 11.346 0 2.0687 0.6779 3.6713 1.5625 3.6938 1.022 0.026 0.86876 0.56814-0.4431 1.5673-1.1031 0.84015-2.4489 2.9242-2.9907 4.6314-1.6631 5.2398-7.1357 12.58-10.787 14.468-5.4158 2.8006-9.1573 2.19-13.444-2.1941-2.1441-2.193-3.8983-3.3097-3.8983-2.4816 0 2.0472-7.4639 6.4585-10.938 6.4642-1.5469 0.003-4.0028-1.1856-5.4576-2.6404-3.8352-3.8352-2.5396-10.967 3.6114-19.881l4.8964-7.0957-4.9522 1.4622c-5.5708 1.6448-8.0253 4.9092-16.004 21.285-3.8914 7.9864-5.0216 9.47-5.613 7.3677-0.70974-2.523-0.95707-2.5571-5.9543-0.82243-7.9665 2.7654-15.751 1.4625-19.587-3.2783l-3.1227-3.8596-6.9191 13.796c-3.8055 7.5879-7.3222 13.393-7.8148 12.9zm25.594-25.399c6.5562-5.1571 13.874-23.329 11.097-27.556-1.0484-1.5959-1.6992-1.4972-4.714 0.71496-8.1406 5.9732-15.648 21.575-12.875 26.756 1.6682 3.1171 2.6219 3.1296 6.4926 0.0849zm67.514-1.0172c1.7717-1.8906 4.3856-5.7614 5.8086-8.6017 2.5561-5.1019 2.5581-5.1906 0.16944-7.3524-1.3298-1.2035-2.7666-3.287-3.1929-4.6302-0.74791-2.3565-0.88622-2.3397-3.9468 0.47735-5.7718 5.3126-10.166 19.553-7.0086 22.711 1.7567 1.7567 5.0748 0.69909 8.1703-2.6042zm9.7464-21.562c0-3.6891-1.6029-4.9629-3.1319-2.4888-1.0061 1.6278 0.44707 6.2388 1.9662 6.2388 0.64116 0 1.1658-1.6875 1.1658-3.75zm339.59 30.427c-0.4639-0.46393-0.8435-1.8748-0.8435-3.1352 0-2.7606 0.1502-2.7491-5.4322-0.41666-17.629 7.366-26.547-8.8385-14.5-26.348 4.4621-6.4855 8.6881-9.2767 14.045-9.2767 4.5847 0 9.6369 4.1706 9.6369 7.9551 0 3.1164-3.0036 8.4446-6.7148 11.911-2.7925 2.6086-4.0077 2.8961-9.4938 2.2464l-6.2914-0.74512v4.3983c0 6.303 1.9391 9.2339 6.1091 9.2339 5.4044 0 11.23-4.7166 18.53-15.004 5.1559-7.2651 6.4956-10.087 5.9612-12.558-0.4626-2.139 0.2645-4.6022 2.2115-7.4913 5.1877-7.6981 9.2681-5.581 5.9688 3.0969-1.5355 4.0385 0.1972 4.201 6.1437 0.57581 4.1069-2.5036 4.3732-2.5207 5.9375-0.38142 2.4979 3.4161 2.0507 5.0723-3.2752 12.128-5.8415 7.7389-7.9863 12.873-7.0075 16.773 1.4029 5.5894 7.8844 1.9487 14.034-7.8833 1.4498-2.3177 1.4908-2.3145 1.5578 0.11963 0.1902 6.9049-8.9116 14.277-15.565 12.607-7.3251-1.8385-7.1097-11.388 0.502-22.254l4.8102-6.8669-4.9803 1.4705c-5.5982 1.653-8.1402 5.0235-15.831 20.991-2.569 5.3337-5.0504 9.3181-5.5144 8.8542zm-9.6445-22.451c3.7813-3.1817 7.551-9.0048 7.551-11.664 0-3.1922-5.2155-0.82589-9.8937 4.4889-4.9737 5.6504-5.9781 7.9106-4.2729 9.6157 1.3982 1.3982 2.5651 0.9677 6.6156-2.4406zm-321.17 18.93c-1.1093-1.3366-1.4052-4.2073-0.93963-9.1161 0.8131-8.574 4.2533-23.919 5.9499-26.54 1.0789-1.6667 1.3505-1.6667 2.4446 0 1.8884 2.8766 1.5152 8.7664-1.3087 20.657-1.4178 5.9698-2.3766 11.055-2.1306 11.301 0.24602 0.24601 4.072-4.6883 8.5022-10.965 9.9133-14.046 18.587-23.711 18.657-20.79 0.0273 1.1427-2.5111 5.3615-5.641 9.375-3.1298 4.0135-9.0954 11.797-13.257 17.297-4.1614 5.5-8.2617 10.165-9.1118 10.366-0.85014 0.20137-2.2743-0.51181-3.1648-1.5848zm32.217-0.092c-7.105-3.8567-6.9682-15.688 0.30371-26.258 4.4821-6.5145 8.7022-9.3067 14.066-9.3067 4.5846 0 9.6369 4.1706 9.6369 7.9551 0 3.1164-3.0036 8.4446-6.7148 11.911-2.7925 2.6086-4.0077 2.8961-9.4938 2.2464l-6.2914-0.74512v4.3983c0 6.0706 1.9633 9.2339 5.731 9.2339 7.5657 0 13.981-6.0903 21.066-20 2.6265-5.1562 5.911-10.985 7.2988-12.952 2.2226-3.1508 2.6638-3.3263 3.7015-1.472 0.648 1.1579 0.8341 3.4763 0.4135 5.152-0.7349 2.9282-0.5411 2.876 4.983-1.3406 7.1258-5.4393 10.254-5.6284 11.963-0.72332l1.2773 3.6639 5.7774-3.6639c7.025-4.4551 8.7637-4.5673 9.7521-0.62916 1.0141 4.0405-0.118 7.2909-5.8813 16.886-4.949 8.2396-5.3925 9.6658-4.074 13.102 2.2263 5.8017 11.603-2.4381 14.112-12.401 1.7281-6.8631 7.2892-15.542 11.89-18.557 6.6104-4.3313 16.99-0.733 16.99 5.89 0 3.1164-3.0036 8.4446-6.7148 11.911-2.7925 2.6086-4.0077 2.8961-9.4938 2.2464l-6.2914-0.74512v4.3983c0 8.7479 4.5132 11.503 12.25 7.4777 5.0249-2.6145 8.1081-6.5354 13.854-17.619 8.2105-15.837 11.709-19.214 11.709-11.302 0 1.7474 0.1336 3.1771 0.2969 3.1771s2.4538-1.7142 5.0902-3.8092c3.1176-2.4776 5.9089-3.6793 7.9844-3.4375 5.2994 0.61737 4.9218 6.5997-1.1104 17.591-8.0231 14.618-5.9602 22.867 3.2745 13.094 4.329-4.5816 17.319-30.09 15.613-30.659-0.6086-0.20287-2.1707-1.1744-3.4713-2.159-2.219-1.6798-2.1291-1.7926 1.4588-1.8299 4.6145-0.048 6.5279-1.5289 10.953-8.4772 1.8609-2.9219 3.7283-5.3125 4.1498-5.3125s0.4987 2.7846 0.1717 6.1879c-0.5272 5.4871-0.3086 6.2303 1.9306 6.5625 4.6266 0.68637 3.7551 3.3184-1.2357 3.732-4.5295 0.37541-4.9972 0.85722-10.696 11.018-7.1345 12.721-9.1306 18.935-7.2256 22.495 0.7374 1.3779 2.3407 2.5052 3.5629 2.5052 3.2221 0 8.9399-6.4867 8.9399-10.142 0-4.2043 3.2937-8.6015 4.7699-6.3681 1.2518 1.8937 5.7832-4.1141 11.194-14.841 2.4939-4.9441 4.2232-6.8878 6.4023-7.1961 2.5213-0.3568 2.8125-0.0652 1.8726 1.875-0.6121 1.2636-1.1225 8.8317-1.1343 16.818-0.016 10.967-0.4752 15.07-1.8756 16.767-1.7187 2.0826-1.6586 2.1424 0.8236 0.82014 2.8535-1.5202 8.5791-7.8269 9.5316-10.499 0.3154-0.88478 1.0589-1.1534 1.6522-0.59692 1.5123 1.4184-3.1825 9.5355-7.2471 12.53-2.0105 1.4811-6.0958 2.7189-10.058 3.0474-5.7422 0.47619-7.1867 0.12025-10.365-2.5538l-3.6926-3.1071-4.3394 2.9734c-5.5386 3.7951-9.3576 3.7645-13.228-0.10612l-3.0796-3.0796-4.538 3.0796c-2.4959 1.6937-5.9028 3.0796-7.5708 3.0796-9.5747 0-10.604-8.0413-2.8508-22.265 2.7403-5.0272 4.9824-9.6996 4.9824-10.383 0-2.0093-7.3801 2.885-11.964 7.9343-2.3272 2.5634-6.5111 9.1952-9.2975 14.737-4.5391 9.0278-7.4885 11.721-7.4885 6.8394 0-1.3815-1.0948-1.2432-5.3125 0.67131-2.9219 1.3263-6.8873 2.4238-8.8121 2.4389-4.0296 0.0316-10.408-2.947-11.164-5.2129-0.3577-1.0731-1.5726-0.71047-3.9898 1.1908-7.9302 6.2379-18.222 4.2447-18.222-3.5291 0-3.9187 3.0932-10.844 8.4785-18.981 3.9717-6.0017 2.838-7.2409-2.7353-2.9899-6.1368 4.6807-12.316 12.656-16.908 21.821-4.4228 8.8284-7.011 9.519-6.8647 1.8318 0.069-3.6259 1.7587-7.8553 6.0894-15.242 3.2967-5.6232 5.6925-10.525 5.3241-10.894-2.6127-2.6126-15.423 11.539-21.041 23.245-4.3629 9.0896-5.882 10.488-6.9509 6.4008-0.61302-2.3442-0.71708-2.3447-5.8205-0.0275-6.2061 2.8179-11.479 2.9749-16.078 0.47858zm177.17-5.9975c0.4043-2.168 0.5602-7.2752 0.3465-11.349l-0.3885-7.4075-4.6875 7.0758c-5.4105 8.1672-5.5976 9.37-2.1415 13.764 3.1506 4.0053 5.8907 3.1747 6.871-2.0827zm-165.72-12.84c3.7813-3.1817 7.551-9.0048 7.551-11.664 0-3.1922-5.2155-0.82589-9.8938 4.4889-4.9737 5.6504-5.978 7.9106-4.2729 9.6157 1.3982 1.3982 2.5652 0.9677 6.6156-2.4406zm82.5 0c3.7813-3.1817 7.551-9.0048 7.551-11.664 0-3.1922-5.2155-0.82589-9.8937 4.4889-4.9737 5.6504-5.9781 7.9106-4.2729 9.6157 1.3982 1.3982 2.5651 0.9677 6.6156-2.4406zm123.42 17.553c-1.7716-1.7716-3.4077-4.4435-3.6358-5.9375-1.8196-11.919 9.3053-28.323 19.217-28.337 4.3058-0.006 9.7986 6.3515 9.7986 11.341 0 2.0687 0.6779 3.6713 1.5625 3.6938 1.0221 0.026 0.8688 0.56814-0.4431 1.5673-1.1031 0.84015-2.4489 2.9242-2.9907 4.6314-1.6631 5.2398-7.1357 12.58-10.787 14.468-5.1118 2.6434-9.0982 2.196-12.722-1.4279zm10.634-3.9664c1.7718-1.8906 4.3857-5.7614 5.8087-8.6017 2.556-5.1019 2.5581-5.1906 0.1694-7.3524-1.3298-1.2035-2.7666-3.287-3.1929-4.6302-0.7479-2.3565-0.8863-2.3397-3.9468 0.47735-5.7719 5.3126-10.166 19.553-7.0086 22.711 1.7566 1.7567 5.0747 0.69909 8.1702-2.6042zm9.7464-21.562c0-3.6891-1.6028-4.9629-3.1319-2.4888-1.0061 1.6278 0.4471 6.2388 1.9662 6.2388 0.6411 0 1.1657-1.6875 1.1657-3.75zm8.776 26.906c-1.1093-1.3366-1.4052-4.2073-0.9397-9.1161 0.8131-8.574 4.2533-23.919 5.95-26.54 1.0789-1.6667 1.3505-1.6667 2.4446 0 1.8884 2.8766 1.5152 8.7664-1.3087 20.657-1.4179 5.9698-2.3766 11.055-2.1306 11.301 0.246 0.24601 4.072-4.6883 8.5022-10.965 9.9133-14.046 18.587-23.711 18.657-20.79 0.027 1.1427-2.5112 5.3615-5.641 9.375s-9.0954 11.797-13.257 17.297c-4.1614 5.5-8.2618 10.165-9.1119 10.366-0.8501 0.20137-2.2743-0.51181-3.1648-1.5848zm-436.23-37.47c-2.1691-2.6137-1.0874-6.2472 1.9913-6.6886 2.9746-0.42646 4.6778 2.5569 3.5279 6.1797-0.88241 2.7802-3.4386 3.016-5.5193 0.50895zm318.79-48.98c-3.4657-4.4059-3.3105-10.549 0.5773-22.856 5.1538-16.315 29.527-61.351 33.202-61.351 0.6213 0 1.1296 1.857 1.1296 4.1267 0 2.7701-2.2993 8.0092-6.9946 15.938-11.202 18.915-11.986 20.689-9.9046 22.416 0.9772 0.81101 2.1649 4.0632 2.6394 7.2272l0.8626 5.7526 3.4369-3.8466c1.8903-2.1156 4.0188-4.8862 4.7299-6.1569s1.7172-1.8861 2.2357-1.3676c1.6737 1.6737-3.054 9.5065-7.4951 12.418-2.446 1.6034-4.5898 4.2044-4.9501 6.0058-1.2934 6.4672-6.0988 17.639-9.1433 21.257-3.8718 4.6013-6.948 4.7315-10.326 0.43692zm9.7511-9.5189c5.6255-11.816 5.9087-13.908 2.2107-16.331l-3.1182-2.0432-3.2171 9.6602c-1.7695 5.3131-3.2172 11.205-3.2172 13.093 0 5.9185 3.4065 3.8866 7.3418-4.3793zm6.4082-24.062c0-3.0938-0.4922-5.625-1.0937-5.625-1.423 0-2.8005 6.9197-1.8636 9.3613 1.4278 3.7206 2.9573 1.7881 2.9573-3.7363zm40.526 8.8663c-4.7475-2.0857-7.3648-7.8808-6.3589-14.08 1.3055-8.045 20.337-44.162 23.271-44.162 1.9867 0 2.3578 5.2643 0.7019 9.9574-0.923 2.6163-3.1956 7.1604-5.05 10.098-7.5515 11.962-13.192 25.41-12.823 30.57 0.3143 4.3901 0.7681 5.0474 3.7198 5.3882 5.038 0.58178 11.617-6.8505 20.291-22.922 12.406-22.986 18.386-33.092 19.581-33.092 0.6273 0 1.1406 2.196 1.1406 4.88 0 8.4762-21.721 46.676-29.083 51.146-5.6653 3.4402-10.891 4.1924-15.391 2.2155zm54.474-0.23993c0-3.4622 3.5247-9.5821 10.728-18.626 9.5065-11.937 37.994-43.125 39.391-43.125 1.9319 0 1.2353 5.4417-1.2002 9.375-1.277 2.0625-7.0405 8.8497-12.808 15.083-14.681 15.867-26.312 29.1-30.414 34.605-3.728 5.0024-5.6966 5.9316-5.6966 2.6889zm41.776 0.23993c-4.7475-2.0857-7.3648-7.8808-6.3589-14.08 1.3055-8.045 20.337-44.162 23.271-44.162 1.9867 0 2.3578 5.2643 0.7019 9.9574-0.923 2.6163-3.1956 7.1604-5.05 10.098-7.5515 11.962-13.192 25.41-12.823 30.57 0.3143 4.3901 0.7681 5.0474 3.7198 5.3882 5.038 0.58178 11.617-6.8505 20.291-22.922 12.406-22.986 18.386-33.092 19.581-33.092 0.6273 0 1.1406 2.196 1.1406 4.88 0 8.4762-21.721 46.676-29.083 51.146-5.6653 3.4402-10.891 4.1924-15.391 2.2155zm-461.73-1.0161c-1.693-0.8951-3.8932-3.7686-4.8892-6.3856-1.6214-4.26-1.5822-5.4841 0.37414-11.69 2.9211-9.2667 11.285-17.899 17.342-17.899 4.3722 0 9.6258 4.1302 9.6258 7.5674 0 3.0564-4.3151 12.442-5.5357 12.041-3.147-1.0351-3.7457-4.6292-1.6934-10.167 1.148-3.0973 1.5887-5.9396 0.97948-6.3161-1.714-1.0594-9.3418 7.2249-12.323 13.384-2.9371 6.0672-3.5307 14.637-1.177 16.991 4.2597 4.2597 18.008-2.8581 20.147-10.431 3.6823-13.036 12.24-23.069 19.676-23.069 4.4362 0 9.9263 6.2753 9.9263 11.346 0 2.0687 0.6779 3.6713 1.5625 3.6938 1.022 0.026 0.86876 0.56814-0.4431 1.5673-1.1031 0.84015-2.4489 2.9242-2.9907 4.6314-1.6631 5.2398-7.1357 12.58-10.787 14.468-5.3138 2.7479-9.1624 2.1848-13.185-1.9292l-3.6394-3.7225-4.328 3.0794c-5.2604 3.7428-14.324 5.124-18.643 2.8407zm37.707-5.6628c1.7717-1.8906 4.3856-5.7614 5.8086-8.6017 2.5561-5.1019 2.5581-5.1906 0.16943-7.3524-1.3298-1.2035-2.7666-3.287-3.1929-4.6302-0.74791-2.3565-0.88623-2.3397-3.9468 0.47735-5.7718 5.3126-10.166 19.553-7.0086 22.711 1.7567 1.7567 5.0748 0.69909 8.1703-2.6042zm9.7464-21.562c0-3.6891-1.6029-4.9629-3.1319-2.4888-1.0061 1.6278 0.44707 6.2388 1.9662 6.2388 0.64116 0 1.1658-1.6875 1.1658-3.75zm10.868 27.361c-6.16-3.5835-4.9814-14.142 3.5426-31.736 9.0851-18.753 19.839-30.141 22.33-23.648 2.8085 7.3189-2.7282 19.154-14.428 30.84-8.5155 8.5056-10.604 12.814-9.6093 19.819 0.6412 4.5146 4.0907 4.2446 9.6226-0.75311 3.7773-3.4125 5.6587-6.5639 7.6941-12.887 7.1789-22.303 24.712-45.508 27.97-37.018 2.8085 7.3189-2.7282 19.154-14.428 30.84-5.933 5.9261-8.687 9.6958-9.241 12.649-1.1545 6.154-0.28066 10.07 2.3594 10.574 3.2333 0.61658 13.948-10.752 14.976-15.889 0.99397-4.9699 7.1294-14.068 11.353-16.836 6.6104-4.3313 16.99-0.733 16.99 5.89 0 3.1164-3.0036 8.4446-6.7148 11.911-2.7925 2.6086-4.0077 2.8961-9.4938 2.2464l-6.2914-0.74512v4.3983c0 6.0706 1.9633 9.2339 5.731 9.2339 7.5638 0 15.377-7.281 18.657-17.387 2.954-9.0999 11.285-17.613 17.236-17.613 4.3722 0 9.6258 4.1302 9.6258 7.5674 0 3.0564-4.3151 12.442-5.5357 12.041-3.147-1.0351-3.7457-4.6292-1.6934-10.167 1.148-3.0973 1.5887-5.9396 0.97947-6.3161-1.714-1.0594-9.3418 7.2249-12.323 13.384-2.9371 6.0672-3.5307 14.637-1.177 16.991 4.5622 4.5622 17.343-2.4616 20.789-11.425 1.0995-2.8598 3.9066-8.8361 6.2379-13.28 2.3313-4.4444 3.6963-8.2616 3.0333-8.4826-0.66303-0.221-2.2696-1.2074-3.5703-2.192-2.219-1.6798-2.1291-1.7926 1.4588-1.8299 4.6145-0.048 6.5279-1.5289 10.953-8.4772 1.8609-2.9219 3.7284-5.3125 4.1498-5.3125 0.42147 0 0.49874 2.7846 0.17173 6.1879-0.52724 5.4871-0.3086 6.2303 1.9306 6.5625 4.6266 0.68637 3.7551 3.3184-1.2357 3.732-4.5295 0.37541-4.9972 0.85722-10.696 11.018-3.2774 5.8438-6.5456 12.732-7.2626 15.307-2.3878 8.5758 2.9252 12.81 8.5546 6.8181 1.4853-1.581 5.9427-9.2881 9.9054-17.127 3.9626-7.8386 7.8363-14.443 8.6082-14.676 0.77184-0.23343 1.7516 0.86421 2.1773 2.4392 0.5343 1.9768-0.96478 6.4788-4.8408 14.538-6.0536 12.586-6.771 16.086-3.551 17.322 2.8938 1.1105 11.165-8.0428 12.819-14.186 3.0244-11.232 11.724-20.434 19.319-20.434 4.0519 0 9.5482 6.5311 9.5482 11.346 0 2.0687 0.6779 3.6713 1.5625 3.6938 1.0221 0.026 0.8688 0.56814-0.4431 1.5673-1.1031 0.84015-2.4489 2.9242-2.9907 4.6314-1.6631 5.2398-7.1357 12.58-10.787 14.468-5.3511 2.7672-9.2481 2.1978-13.133-1.9187-3.4289-3.6329-3.5575-3.6628-6.0435-1.4062-6.0913 5.5294-11.75 6.533-15.529 2.754-2.3165-2.3165-2.4361-2.3167-5.9375-0.009-4.8601 3.2042-8.7134 2.971-12.437-0.75263-3.6243-3.6243-4.6346-3.8126-6.7539-1.259-2.2012 2.6523-10.902 4.729-15.891 3.7929-2.8613-0.53679-4.9687-2.0002-6.4952-4.5102-2.0724-3.4078-2.404-3.5411-4.0029-1.6091-2.4644 2.9778-11.054 6.6585-15.493 6.6386-4.7884-0.0215-9.2707-2.509-11.381-6.3158-0.91069-1.6431-1.6757-2.308-1.7001-1.4776-0.0595 2.0283-10.188 7.8652-13.648 7.8652-1.5177 0-4.0773-1.3178-5.688-2.9285l-2.9285-2.9285-4.8272 2.9221c-5.2348 3.1688-8.5626 3.5945-12.084 1.546zm151.89-5.7986c1.7718-1.8906 4.3857-5.7614 5.8087-8.6017 2.556-5.1019 2.5581-5.1906 0.1694-7.3524-1.3298-1.2035-2.7666-3.287-3.1929-4.6302-0.7479-2.3565-0.8863-2.3397-3.9468 0.47735-5.7718 5.3126-10.166 19.553-7.0086 22.711 1.7567 1.7567 5.0747 0.69909 8.1702-2.6042zm-95.305-13.586c3.7813-3.1817 7.551-9.0048 7.551-11.664 0-3.1922-5.2155-0.82589-9.8938 4.4889-4.9737 5.6504-5.978 7.9106-4.2729 9.6157 1.3982 1.3982 2.5652 0.9677 6.6156-2.4406zm-36.865-19.372c1.8383-3.3776 3.1319-7.1171 2.8747-8.3101-0.47204-2.1889-9.2962 10.181-14.057 19.706l-2.1868 4.375 5.0134-4.8149c2.7574-2.6482 6.5174-7.5784 8.3558-10.956zm21.25 0c1.8383-3.3776 3.1319-7.1171 2.8747-8.3101-0.47204-2.1889-9.2962 10.181-14.057 19.706l-2.1868 4.375 5.0134-4.8149c2.7574-2.6482 6.5174-7.5784 8.3558-10.956zm120.67 11.396c0-3.6891-1.6028-4.9629-3.1319-2.4888-1.0061 1.6278 0.4471 6.2388 1.9662 6.2388 0.6411 0 1.1657-1.6875 1.1657-3.75zm4.5834 27.917c-2.3022-2.3022-0.4353-10.159 4.8042-20.218 8.6917-16.687 12.175-20.156 12.175-12.126 0 1.7474 0.1336 3.1771 0.2969 3.1771s2.4538-1.7142 5.0902-3.8092c3.1176-2.4776 5.9089-3.6793 7.9844-3.4375 5.2994 0.61738 4.9218 6.5997-1.1104 17.591-5.6134 10.228-6.7115 17.156-2.719 17.156 2.1995 0 8.8804-6.5254 12.259-11.974 1.3687-2.2069 1.4949-2.1131 1.5625 1.1615 0.05 2.4349-1.2483 4.8844-4.1028 7.7388-4.7887 4.7887-9.7429 6.4333-14.437 4.7925-2.7292-0.95401-3.3253-2.0144-3.6494-6.492-0.3127-4.32 0.5909-7.1654 4.6875-14.76 2.7912-5.1747 5.0749-9.9597 5.0749-10.633 0-1.994-7.3991 2.9242-11.964 7.9524-2.3272 2.5634-6.4998 9.1728-9.2726 14.688-5.2532 10.448-5.3256 10.548-6.68 9.1934zm63.786-2.3878c-1.7716-1.7716-3.4077-4.4435-3.6358-5.9375-1.8196-11.919 9.3053-28.323 19.217-28.337 4.3058-0.006 9.7986 6.3515 9.7986 11.341 0 2.0687 0.6779 3.6713 1.5625 3.6938 1.0221 0.026 0.8688 0.56814-0.4431 1.5673-1.1031 0.84015-2.4489 2.9242-2.9907 4.6314-1.6631 5.2398-7.1357 12.58-10.787 14.468-5.1118 2.6434-9.0982 2.196-12.722-1.4279zm10.634-3.9664c1.7718-1.8906 4.3857-5.7614 5.8087-8.6017 2.556-5.1019 2.5581-5.1906 0.1694-7.3524-1.3298-1.2035-2.7666-3.287-3.1929-4.6302-0.7479-2.3565-0.8863-2.3397-3.9468 0.47735-5.7719 5.3126-10.166 19.553-7.0086 22.711 1.7566 1.7567 5.0747 0.69909 8.1702-2.6042zm9.7464-21.562c0-3.6891-1.6028-4.9629-3.1319-2.4888-1.0061 1.6278 0.4471 6.2388 1.9662 6.2388 0.6411 0 1.1657-1.6875 1.1657-3.75zm91.817 25.839c-0.4426-1.7634-0.1186-5.3454 0.7199-7.96 3.409-10.63 24.165-49.129 26.487-49.129 1.0537 0 1.3957 2.54 1.0101 7.5-0.1337 1.7188-2.7151 7.4373-5.7366 12.708-3.0215 5.2705-8.9061 16.218-13.077 24.327-4.1709 8.1096-7.8119 14.973-8.091 15.252-0.2791 0.27912-0.8696-0.93524-1.3122-2.6986zm96.933-0.46537c0-4.3192 5.1633-11.987 14.735-21.883l5.6916-5.8843-2.1682-13.307c-1.1924-7.3186-1.9314-13.543-1.642-13.833 2.3452-2.3452 8.3839 7.1665 8.3839 13.206 0 6.9507 1.4028 6.5248 11.992-3.641 10.542-10.121 13.008-11.652 13.008-8.0749 0 3.6174-2.7239 7.3639-12.803 17.609l-10.026 10.191 1.5785 8.5586c0.8682 4.7072 2.5756 11.231 3.7943 14.496 2.3962 6.4208 1.4729 7.4858-3.4813 4.0158-2.7501-1.9263-6.5627-12.197-6.5627-17.68 0-1.594-0.5046-2.8981-1.1213-2.8981-0.6166 0-4.658 4.0781-8.9807 9.0625-13.376 15.424-12.398 14.63-12.398 10.061zm-565.02-1.04c0-1.7408 0.78799-5.0511 1.7511-7.3561 1.5468-3.7021 1.5156-4.4264-0.26785-6.2098-1.8586-1.8586-1.7686-2.0189 1.1325-2.0189 2.5949 0 4.5293-2.0835 10.953-11.798 4.291-6.4887 11.425-15.629 15.852-20.312l8.0502-8.5149 2.6108 3.0701c1.5098 1.7755 2.3663 4.1475 2.031 5.625-0.31888 1.4052-2.1497 8.5877-4.0684 15.961-3.2769 12.592-3.3613 13.547-1.3917 15.723 2.7303 3.0169 2.6468 3.9952-0.34098 3.9952-2.0521 0-2.5722 1.187-3.2865 7.5-0.46669 4.125-1.3523 7.5-1.968 7.5-1.6636 0-3.5576-5.7927-3.5576-10.88v-4.4677l-6.5625 0.78825c-3.6094 0.43353-7.6875 0.7951-9.0625 0.80347-1.7402 0.01-3.6264 2.1034-6.2062 6.8859-4.0548 7.517-5.6688 8.572-5.6688 3.7055zm24.86-17.619c2.9328-0.58655 4.0935-1.6116 4.6002-4.0625 0.37273-1.8029 1.739-7.7638 3.0361-13.247 1.2971-5.4827 2.1684-10.159 1.9362-10.391-0.5454-0.54538-20.682 26.252-20.682 27.523 0 1.1622 5.7277 1.2535 11.11 0.17701zm235.19-17.28c-2.1691-2.6137-1.0874-6.2472 1.9913-6.6886 2.9746-0.42646 4.6778 2.5569 3.5279 6.1797-0.88241 2.7802-3.4386 3.016-5.5193 0.50895zm282.2-55.613c-1.6975-1.3353-4.9277-6.168-7.1781-10.739-3.6531-7.4204-4.0406-9.2175-3.6143-16.761 0.5836-10.33 6.8811-24.064 15.355-33.489 7.0919-7.8879 21.579-17.906 34.969-24.18 8.0968-3.7943 10.76-5.689 11.725-8.3432 0.6872-1.8888 2.1877-5.6206 3.3345-8.293l2.0849-4.8588-6.443 4.7296c-3.5436 2.6013-8.5052 5.4662-11.026 6.3664-10.3 3.6789-20.618 1.0488-25.243-6.4345l-2.574-4.165-7.0243 4.9205c-14.486 10.148-28.835 10.111-38.776-0.0983-2.2189-2.2788-4.6167-5.9078-5.3285-8.0645l-1.2941-3.9212-6.3627 6.1329c-15.819 15.248-38.822 17.86-47.684 5.4156-4.1242-5.792-4.5502-19.188-0.9666-30.401 5.2159-16.321 28.975-61.082 36.358-68.496 3.2607-3.2746 6.2346-1.4809 8.4632 5.1046 3.4229 10.114 1.5371 15.799-16.366 49.333-9.6452 18.067-13.41 28.075-13.41 35.651 0 5.5897 2.3596 9.2686 5.9446 9.2686 4.5374 0 13.198-5.6713 19.978-13.082 7.5509-8.2537 12.104-16.345 19.722-35.044 2.5207-6.1875 9.6102-20.953 15.754-32.812 10.818-20.881 11.072-21.562 8.0369-21.562-7.1304 0-15.685-5.3118-15.685-9.7391 0-0.63442 5.7324-1.5483 12.739-2.0308 7.0062-0.48254 13.148-1.1305 13.649-1.4398 0.5006-0.30935 2.8764-4.0731 5.2797-8.3638 2.4033-4.2908 7.2188-12.161 10.701-17.489 7.1132-10.883 10.222-12.313 12.51-5.751 2.3867 6.8462 1.3697 15.932-2.9384 26.252-0.6891 1.6507 0.1222 2.2293 4.0588 2.8944 5.7525 0.97187 13.543 8.0537 12.332 11.21-0.611 1.5922-3.0357 1.9574-12.996 1.9574h-12.245l-10.842 19.062c-15.825 27.823-26.914 50.44-29.233 59.623-3.489 13.815-0.4018 24.269 7.611 25.772 5.9436 1.115 11.841-2.1384 20.294-11.196 6.281-6.7298 7.4998-8.8796 9.4986-16.754 5.0963-20.077 36.14-75.258 42.339-75.258 2.5552 0 5.9836 8.3947 5.988 14.662 0.01 8.119-2.2404 13.82-11.707 29.713-23.445 39.361-28.013 62.996-10.849 56.128 10.592-4.2381 23.02-21.361 45.73-63.003 16.334-29.952 21.112-37.5 23.736-37.5 3.595 0 6.1084 6.215 6.1084 15.104 0 8.113-0.4254 9.3369-9.174 26.389-12.19 23.761-30.293 62.471-29.558 63.206 0.7137 0.71366 8.3016-3.7871 15.092-8.952 10.678-8.1216 18.036-14.993 24.977-23.325 8.3001-9.9643 10.654-10.846 10.637-3.9849-0.016 6.2194-5.7544 16.053-14.244 24.409-6.5617 6.4577-23.729 16.905-36.405 22.154-6.2317 2.5807-6.3334 2.7138-11.735 15.364-21.363 50.03-41.297 77.136-56.728 77.136-2.3588 0-5.6775-1.0925-7.3751-2.4278zm12.919-21.684c11.822-14.95 33.568-54.638 29.938-54.638-0.6107 0-4.6184 2.637-8.906 5.8601-14.711 11.058-30.628 35.076-32.141 48.498-1.2965 11.502 2.1668 11.589 11.109 0.28054zm60.141-22.451c0.7285-2.1924 25.67-2.5918 85.939-1.3764 62.729 1.2651 48.194 2.6027-30.417 2.799-44.326 0.11062-55.933-0.18673-55.522-1.4226zm-659.06-2.186-64.375-0.63396 54.375-0.63942c29.906-0.35167 169.27-0.77585 309.69-0.94258 227.46-0.2701 255.31-0.0964 255.31 1.5922 0 1.6885-26.779 1.8606-245.31 1.5765-134.92-0.17535-274.28-0.6041-309.69-0.95277zm-11.584-50.752c-9.4282-9.4282-11.003-18.074-7.8448-43.075 5.5844-44.209 23.062-120.16 28.734-124.87 2.4445-2.0287 3.9635-0.90175 7.1176 5.2807 4.1466 8.1279 2.7351 22.405-6.207 62.786-4.1106 18.562-8.9514 41.906-10.758 51.875-1.8061 9.9688-3.5876 19.506-3.9589 21.193-0.37135 1.6874 6.2756-7.3126 14.771-20 36.423-54.395 91.109-123.85 96.194-122.17 2.5597 0.84489 2.8256 14.2 0.40866 20.529-3.0642 8.0234-9.4365 17.215-33.325 48.07-25.964 33.537-47.375 62.636-64.059 87.064-7.9079 11.578-12.937 17.812-14.369 17.812-1.2118 0-4.2285-2.0252-6.7037-4.5004zm96.856 1.1716c-6.7989-3.351-9.5654-8.5024-10.084-18.778-0.56467-11.182 2.099-20.079 12.281-41.019 7.9437-16.337 22.402-41.024 26.343-44.983 3.2608-3.2746 6.2346-1.4809 8.4632 5.1046 3.4228 10.114 1.5371 15.799-16.366 49.333-12.784 23.945-16.502 37.9-11.446 42.956 2.6088 2.6088 4.9353 2.4779 11.376-0.63977 11.982-5.8005 26.285-26.32 29.037-41.659 2.5696-14.322 12.816-31.955 26.314-45.282 10.175-10.047 18.156-14.349 28.014-15.099 7.2198-0.54925 8.0325-0.32327 13.834 3.847 3.3902 2.4368 7.8035 6.8474 9.8075 9.8014 5.1496 7.5909 4.3466 15.014-3.4935 32.296-3.2624 7.1912-6.3556 13.545-6.8737 14.119-1.6744 1.8554-8.3333-2.6847-10.436-7.1152-3.0831-6.4971-2.5244-11.194 2.9564-24.855 5.5044-13.72 5.8763-15.691 3.1567-16.735-4.7758-1.8326-21.421 14.121-31.196 29.9-11.633 18.778-16.401 40.83-11.411 52.774 6.4073 15.335 28.772 11.043 50.141-9.6219l10.745-10.391 1.8854-9.9921c3.4262-18.158 13.902-36.74 28.312-50.22 14.691-13.742 29.921-17.952 40.58-11.217 7.1356 4.5086 13.975 12.181 15.324 17.191 2.5912 9.6213-2.7913 24.315-13.112 35.794-11.958 13.3-27.422 16.799-41.219 9.3269l-6.9337-3.7554-1.886 6.3507c-2.5895 8.7199-2.3583 19.111 0.56882 25.559 9.1652 20.19 40.54 9.1066 63.621-22.474 6.3402-8.6752 8.9241-9.2941 8.9241-2.1377 0 9.9716-9.7314 22.811-24.69 32.576-12.833 8.3772-19.712 10.497-34.06 10.494-9.788-0.001-12.754-0.47664-16.875-2.7017-6.3113-3.4075-12.086-9.5066-15.551-16.426l-2.6957-5.3822-6.9011 6.3072c-26.926 24.609-61.96 25.001-74.032 0.82897l-2.9094-5.8255-3.4825 4.8075c-10.767 14.863-33.37 23.182-46.03 16.942zm175.48-53.693c8.6227-4.0917 21.324-20.664 25.665-33.486 2.4994-7.3832 1.9304-9.4922-2.5609-9.4922-9.1156 0-28.195 18.923-37.435 37.128-2.5068 4.939-2.5357 5.3292-0.48356 6.5245 3.2747 1.9075 10.021 1.6006 14.815-0.67401zm144.34 52.616c-12.582-3.5313-20.2-10.29-26.419-23.441-17.485-36.971 5.2962-97.801 49.198-131.37 17.477-13.364 39.178-20.683 50.906-17.169 10.235 3.0664 22.401 17.878 24.24 29.511 0.4708 2.9777 0.072 7.5278-0.9851 11.25-2.0704 7.2875-13.052 34.489-14.573 36.096-1.9758 2.088-7.276-0.48683-9.9679-4.8425-4.3298-7.0058-3.6538-16.327 2.3243-32.047 6.7596-17.776 7.3525-21.402 4.0407-24.714-3.2811-3.2811-5.7478-3.2815-14.512-0.002-22.972 8.5951-52.704 38.646-65.494 66.196-9.8558 21.23-13.781 47.365-9.4936 63.206 2.6832 9.9123 8.664 16.934 16.386 19.238 14.904 4.4469 37.457-12.453 53.802-40.317 3.1252-5.3278 6.2768-10.054 7.0034-10.503 2.5352-1.5668 4.6919 3.7246 4.6919 11.511 0 16.316-14.061 34.826-33.451 44.034-7.7875 3.6983-10.743 4.4068-20.03 4.8018-7.2526 0.30843-13.158-0.17214-17.667-1.4377zm-277.9-106.96c-8.2634-4.813-7.5445-24.758 0.96937-26.895 9.9264-2.4914 18.695 16.125 11.752 24.951-2.766 3.5164-8.5137 4.3944-12.722 1.9434zm412.5 0c-8.2634-4.813-7.5445-24.758 0.9694-26.895 9.9264-2.4914 18.695 16.125 11.752 24.951-2.766 3.5164-8.5137 4.3944-12.722 1.9434zm-364.04-108.34c-1.2716-5.3281-3.019-12.674-3.883-16.324l-1.5709-6.6363 3.2868 0.3863c2.9938 0.35186 3.5098 1.2779 5.7876 10.386l2.5008 10 3.1374-10.312c2.6967-8.8641 3.5258-10.312 5.9031-10.312 2.2986 0 3.1082 1.214 4.7931 7.1875 1.115 3.9531 2.4848 8.5938 3.044 10.312 1.1142 3.4248 0.82971 4.1087 5.07-12.188 1.167-4.4851 1.8747-5.3125 4.5434-5.3125 2.4196 0 3.0118 0.51308 2.5247 2.1875-0.35002 1.2031-2.1321 8.5475-3.9602 16.321-3.2459 13.802-3.4006 14.124-6.596 13.75-2.9205-0.34217-3.5932-1.4492-6.2588-10.3-3.3008-10.959-3.5775-10.879-7.2039 2.1037-2.1305 7.627-2.6666 8.4375-5.5814 8.4375-2.9898 0-3.3929-0.70526-5.5366-9.6875zm40.605-6.5625v-16.25h9.375c8.5417 0 9.375 0.22222 9.375 2.5 0 2.1667-0.83334 2.5-6.25 2.5-6.1111 0-6.25 0.08333-6.25 3.75s0.13889 3.75 6.25 3.75c5.4167 0 6.25 0.33333 6.25 2.5s-0.83334 2.5-6.25 2.5h-6.25v5 5h6.25c5.4167 0 6.25 0.33333 6.25 2.5 0 2.2778-0.83334 2.5-9.375 2.5h-9.375v-16.25zm25 0v-16.25h3.125 3.125v13.75 13.75h5c4.1667 0 5 0.41667 5 2.5 0 2.2436-0.83334 2.5-8.125 2.5h-8.125v-16.25zm29.15 13.821c-8.6946-3.9475-11.739-13.927-6.7466-22.114 4.7661-7.8162 19.272-10.08 27.981-4.3669 3.0945 2.0299 3.2538 2.4509 1.4833 3.9203-1.6535 1.3723-2.7084 1.3004-6.3408-0.43175-6.6024-3.1485-11.376-2.6668-15.619 1.576-10.195 10.195 3.2865 24.073 16.191 16.667 2.955-1.696 4.13-1.8463 5.2983-0.67798 2.1548 2.1547-0.5341 5.0007-6.2156 6.5788-6.5037 1.8065-10.084 1.5494-16.032-1.1509zm37.689-0.06792c-12.639-6.2566-12.413-21.474 0.41178-27.682 9.1312-4.4204 18.795-1.6929 24.129 6.81 4.8183 7.6804 0.8981 17.642-8.5226 21.656-5.5558 2.3673-10.103 2.145-16.018-0.78325zm16.026-5.0181c4.2196-3.3192 5.3474-8.74 2.8309-13.606-2.3558-4.5556-5.4151-6.3783-10.705-6.3783-5.3631 0-11.236 5.8803-11.236 11.25 0 9.053 11.831 14.461 19.11 8.7348zm15.266 4.7902c0.395-1.595 1.6997-8.8062 2.8994-16.025 2.1799-13.117 2.1835-13.125 5.7743-13.125 3.3021 0 3.8195 0.65798 6.3894 8.125 5.3592 15.572 4.6408 15.364 9.1865 2.6565 3.7862-10.585 4.3255-11.406 7.4847-11.406 3.3617 0 3.4315 0.16891 5.552 13.438 1.1811 7.3906 2.4807 14.703 2.8881 16.25 0.6253 2.3748 0.2447 2.8125-2.446 2.8125-1.9578 0-3.4331-0.84348-3.8261-2.1875-0.5496-1.8801-3.1538-15.683-3.345-17.73-0.036-0.38936-1.7761 3.9327-3.8661 9.6046-3.2492 8.8178-4.2158 10.312-6.6691 10.312-2.4664 0-3.3648-1.4237-6.3994-10.141-1.9416-5.5776-3.7133-9.5917-3.9372-8.9202-0.2238 0.67148-1.1187 5.0943-1.9886 9.8286-1.4675 7.9857-1.8286 8.6366-4.9984 9.0077-3.017 0.35317-3.3326 0.0608-2.6985-2.5zm45.623-13.525v-16.25h9.375c8.5417 0 9.375 0.22222 9.375 2.5 0 2.1667-0.8333 2.5-6.25 2.5-6.1111 0-6.25 0.08333-6.25 3.75s0.1389 3.75 6.25 3.75c5.4167 0 6.25 0.33333 6.25 2.5s-0.8333 2.5-6.25 2.5h-6.25v5 5h6.25c5.4167 0 6.25 0.33333 6.25 2.5 0 2.2778-0.8333 2.5-9.375 2.5h-9.375v-16.25zm56.25 2.5v-13.75h-3.75c-2.9166 0-3.75-0.55556-3.75-2.5 0-2.2917 0.8334-2.5 10-2.5 9.1667 0 10 0.20833 10 2.5 0 1.8333-0.8333 2.5-3.125 2.5h-3.125v13.75 13.75h-3.125-3.125v-13.75zm24.334 11.253c-12.64-6.2566-12.413-21.474 0.4118-27.682 9.1312-4.4204 18.795-1.6929 24.129 6.81 4.8183 7.6804 0.8981 17.642-8.5226 21.656-5.5558 2.3673-10.103 2.145-16.018-0.78325zm16.026-5.0181c4.2196-3.3192 5.3474-8.74 2.8309-13.606-2.3558-4.5556-5.4151-6.3783-10.705-6.3783-5.363 0-11.236 5.8803-11.236 11.25 0 9.053 11.831 14.461 19.11 8.7348z" transform="matrix(.9215 0 0 .9215 35.031 21.091)" filter="url(#filter5701)"/>
 </g>
 <g id="layer2">
  <path id="path3357" fill="#fff" d="m565.37 709.95c7.8838-8.4563 12.443-18.814 13.53-30.735 0.90689-9.9498 1.5235-12.013 3.5907-12.013 0.80731 0 1.061 3.6645 0.74848 10.811-0.42028 9.6093-0.93972 11.753-4.6745 19.294-4.4129 8.9098-11.008 16.282-15.861 17.732-2.4521 0.73239-2.0562-0.0232 2.6666-5.089zm-258.73 2.9295c-1.3842-3.6071-0.87864-15.058 0.93431-21.163 2.2576-7.602 9.6778-18.646 15.138-22.531 7.388-5.2566 6.6415-1.0066-1.3713 7.8076-7.074 7.7815-10.719 15.967-12.45 27.959-0.90886 6.2957-1.7456 9.2432-2.2504 7.9276zm50.458-1.8968c-0.69021-2.1746-0.91245-2.1994-4.2491-0.47398-4.3438 2.2463-10.779 1.2944-12.458-1.8428-1.144-2.1376-1.3161-2.1175-5.3582 0.62551-5.8055 3.9397-11.174 3.7546-15.462-0.53298-3.6229-3.6229-4.0974-5.7865-2.0913-9.5349 0.89668-1.6755 1.5303-1.9716 2.1328-0.99684 0.8207 1.3279 4.8986-4.4295 9.3226-13.162 1.9493-3.8477 6.8422-5.9414 5.003-2.1408-0.56759 1.1729-0.8963 6.4316-0.73046 11.686 0.16583 5.2544-0.24116 10.567-0.90444 11.807-0.66326 1.2394-0.75973 2.2533-0.21432 2.2533 1.8186 0 5.6881-5.1396 6.5042-8.6391 1.3673-5.8629 6.0451-12.689 10.246-14.951 3.7942-2.0433 4.1665-2.054 6.9956-0.20027 1.8593 1.2182 2.9881 3.0153 2.9881 4.7568 0 3.7677-2.4039 8.8285-3.9421 8.2989-1.4055-0.48395-1.5024-6.0923-0.15779-9.1352 1.7923-4.0561-2.7749-2.0462-6.2494 2.7502-8.6749 11.975-5.9323 21.985 4.54 16.569 4.5551-2.3555 13.879-15.876 13.074-18.958-0.75498-2.887 2.4614-8.1373 4.985-8.1373 1.4723 0 1.6795 0.79934 1.0614 4.0942l-0.76807 4.0942 3.6236-1.8738c6.8561-3.5454 9.3122 0.97454 3.9758 7.3165-5.6472 6.7113-7.5532 15.166-3.419 15.166 2.4246 0 7.3-6.6234 8.6986-11.817 1.5885-5.8993 8.8218-13.524 12.83-13.524 3.4562 0 7.3279 4.0516 8.121 8.4984 1.2144 6.8089-7.9801 19.128-14.287 19.142-1.0422 0.003-3.0968-1.2444-4.5657-2.7706l-2.6708-2.775-3.2978 2.775c-4.1091 3.4576-7.0723 3.5254-9.3911 0.21491-2.7095-3.8683-2.1951-6.978 2.2458-13.577l4.039-6.0018-3.1686 0.79526c-4.6 1.1545-5.2986 1.9822-10.753 12.74-2.7205 5.3654-5.0753 9.7553-5.2329 9.7553-0.15755 0-0.61418-1.0326-1.0148-2.2947zm-29.614-10.468 0.33729-8.5469-3.505 5.5114c-4.0475 6.3645-4.2003 7.3614-1.5733 10.264 3.2145 3.552 4.386 1.7658 4.7409-7.2287zm66.356 6.4331c1.7056-1.5807 3.7974-4.53 4.6485-6.5541 1.3949-3.3174 1.3123-3.998-0.83802-6.9064-2.29-3.0974-2.4755-3.1462-4.6392-1.2211-5.2339 4.6566-7.4851 17.556-3.064 17.556 0.43543 0 2.1872-1.2933 3.8928-2.874zm7.6022-16.132c0-1.5838-0.51834-2.8797-1.1519-2.8797-1.2868 0-1.5789 3.7965-0.38395 4.9914 1.2698 1.2698 1.5358 0.90392 1.5358-2.1118zm6.8033 18.898c-1.9225-1.9225-2.2648-3.266-1.6877-6.6233 1.3213-7.6868 5.2668-16.787 10.763-24.824 6.2596-9.1536 8.9601-11.379 10.63-8.7604 3.0362 4.7629-1.7859 15.71-10.314 23.415-5.1379 4.6418-6.9796 8.2093-6.9796 13.52 0 2.5676 0.53271 3.3806 2.2151 3.3806 3.7703 0 8.776-6.313 12.02-15.159 3.1725-8.6514 12.361-23.329 16.034-25.611 2.468-1.5338 4.2476 0.58179 4.2583 5.0621 0.01 4.119-5.8576 13.78-11.422 18.807-5.1379 4.6418-6.9796 8.2093-6.9796 13.52 0 5.9824 6.1695 3.5218 11.746-4.6847 1.797-2.6443 1.9603-2.6882 2.0158-0.54203 0.0824 3.1852-2.8536 7.1163-6.8636 9.1899-4.4388 2.2954-6.4495 2.1703-9.1918-0.57198-2.2886-2.2886-2.3008-2.2886-6.0473-0.005-4.7895 2.9202-7.1899 2.8933-10.197-0.11415zm15.635-27.699c1.7222-3.1643 2.8731-6.0115 2.5575-6.3271-0.74669-0.74669-5.3987 5.5404-9.4889 12.824l-3.2342 5.7594 3.5171-3.2515c1.9344-1.7883 4.9262-5.8405 6.6485-9.0048zm16.126 0c1.7222-3.1643 2.8731-6.0115 2.5575-6.3271-0.74669-0.74669-5.3987 5.5404-9.4889 12.824l-3.2342 5.7594 3.5171-3.2515c1.9344-1.7883 4.9262-5.8405 6.6485-9.0048zm14.652 28.728c-0.76023-0.76023-1.3822-3.5096-1.3822-6.1098 0-11.135 15.522-25.892 20.469-19.459 0.92443 1.2021 1.8889 1.6421 2.1432 0.97784 0.25432-0.66431 2.9162-5.3294 5.9152-10.367 5.3336-8.959 5.4607-9.0758 5.8188-5.3467 0.28387 2.9562-1.4328 7.0952-7.644 18.43-9.5428 17.415-10.323 19.528-7.5959 20.575 2.7579 1.0583 8.0706-5.1252 9.7445-11.342 1.6146-5.9964 8.8113-13.621 12.856-13.621 3.4562 0 7.3279 4.0516 8.121 8.4984 1.2144 6.8089-7.9801 19.128-14.287 19.142-1.0422 0.003-3.0967-1.2444-4.5657-2.7706l-2.6708-2.775-3.2978 2.775c-3.969 3.3397-6.9825 3.5211-9.9071 0.59642-2.1347-2.1347-2.2448-2.1348-5.4714-0.009-3.811 2.5125-6.2951 2.7547-8.2459 0.80388zm37.091-3.7955c1.7056-1.5807 3.7974-4.53 4.6484-6.5541 1.3949-3.3174 1.3123-3.998-0.83801-6.9064-2.29-3.0974-2.4755-3.1462-4.6392-1.2211-5.2339 4.6566-7.4852 17.556-3.064 17.556 0.43543 0 2.1872-1.2933 3.8928-2.874zm-25.283-5.0985c8.6069-13.634 8.1425-21.162-0.734-11.897-6.3625 6.6409-9.7838 15.246-7.1205 17.91 1.3158 1.3158 5.0169-1.5172 7.8545-6.0122zm32.886-11.033c0-1.5838-0.51834-2.8797-1.1519-2.8797-1.2868 0-1.5789 3.7965-0.38395 4.9914 1.2698 1.2698 1.5358 0.90392 1.5358-2.1118zm4.4418 18.526c-0.97971-2.1502-0.84605-4.0226 0.58749-8.2298 1.9882-5.835 8.4422-16.632 9.942-16.632 2.5889 0 1.7494 4.312-2.3433 12.037-4.8654 9.1831-5.9075 14.066-2.7427 12.852 1.0021-0.38455 2.004-0.69918 2.2264-0.69918 0.22242 0 3.1011-4.5355 6.3971-10.079 10.045-16.894 9.2716-15.886 10.501-13.689 1.3716 2.4508 0.48927 5.1677-4.3712 13.461-6.2851 10.724-4.5938 15.268 2.8312 7.6076 2.3388-2.413 4.5419-6.5242 5.9001-11.01 2.3364-7.7166 4.0398-10.48 6.4596-10.48 2.3227 0-0.74584 7.7998-6.5294 16.597-6.6502 10.115-13.206 13.683-16.233 8.8348-1.3637-2.1836-1.4206-2.1836-4.1967 0-3.8063 2.994-6.9002 2.7848-8.4286-0.56982zm47.005 1.0797c-2.8741-2.8741-2.3485-6.5052 2.176-15.034 2.2508-4.2427 3.9218-7.8846 3.7133-8.0931-0.20846-0.20845-2.1248 0.72636-4.2586 2.0774-3.9751 2.5168-12.312 14.225-13.5 18.958-0.76145 3.0339-2.4746 3.4645-3.4694 0.87198-0.89098-2.3219 2.0004-9.7437 7.2586-18.632 4.1572-7.0273 6.164-8.2122 6.164-3.6394 0 2.2887 0.035 2.29 3.1677 0.11946 4.5067-3.1226 6.7287-3.7312 8.2107-2.2492 2.1221 2.1221 1.5083 4.9667-2.7393 12.694-4.4236 8.0477-4.9586 10.891-2.2451 11.933 2.0054 0.76953 7.0123-3.3909 8.0623-6.6994 0.37035-1.1669 1.1568-2.1216 1.7476-2.1216 2.0863 0 1.0354 3.462-2.0934 6.896-3.9145 4.2963-9.4836 5.6295-12.194 2.919zm-268.84-85.46c-3.9387-4.1762-3.9868-4.3506-3.5736-12.959 0.49904-10.397 3.3082-16.908 10.975-25.435 6.2214-6.9197 12.965-11.107 19.594-12.167 4.3672-0.6982 5.1907-0.42885 8.3511 2.7316 4.0768 4.0768 4.4206 7.499 1.5565 15.49-3.6676 10.233-7.9929 4.2141-4.5989-6.3992 2.079-6.5012 1.7757-7.7113-1.933-7.7113-7.1693 0-22.07 14.331-26.107 25.109-2.7525 7.3477-3.3279 17.729-1.1296 20.378 3.1719 3.8219 11.712 0.99424 16.483-5.4577 4.6685-6.313 4.6652-6.3252-1.5691-5.7261-4.4737 0.42987-6.2635 0.0903-8.0515-1.5278-3.0494-2.7597-1.6052-3.5498 8.6094-4.7106 9.204-1.0459 13.224-0.79426 15.337 0.96016 2.4114 2.0012 1.6505 3.228-2.0021 3.228-3.0626 0-3.4556 0.38842-3.4556 3.4156 0 4.1831-5.8566 11.236-11.176 13.458-2.0485 0.85592-5.883 1.5562-8.521 1.5562-4.033 0-5.4319-0.67377-8.7889-4.2332zm140.33 2.7764c-5.4252-2.7882-7.5984-7.2656-7.596-15.651 0.002-6.3901 0.65178-9.0348 3.7844-15.398 6.2177-12.63 18.038-22.785 26.522-22.785 4.0222 0 10.559 4.1879 12.639 8.0977 2.5915 4.8701 1.1292 17.247-3.0377 25.711-4.3454 8.8267-11.377 17.068-16.728 19.608-4.6731 2.2175-11.713 2.4057-15.583 0.41661zm10.085-3.6382c5.2058-2.692 12.8-11.835 16.644-20.039 4.0372-8.6163 5.6227-20.792 3.1029-23.828-1.7938-2.1614-6.0814-2.2052-10.145-0.10354-5.2087 2.6935-15.126 14.096-18.377 21.13-3.4991 7.5693-4.3105 19.26-1.5666 22.572 1.9401 2.3419 6.1237 2.4507 10.343 0.26889zm22.825 4.3271c-2.1215-2.1214-0.40112-9.3613 4.4271-18.631 8.0094-15.377 11.219-18.574 11.219-11.174 0 1.6102 0.1231 2.9277 0.27356 2.9277s2.2612-1.5796 4.6906-3.5102c2.8729-2.2831 5.445-3.3905 7.3576-3.1676 4.8834 0.56891 4.5355 6.0816-1.0232 16.21-5.1728 9.4251-6.1846 15.809-2.5056 15.809 2.6401 0 9.5065-7.3664 11.282-12.103 4.8666-12.986 6.8622-17.469 10.366-23.287 8.3693-13.899 15.025-19.64 16.951-14.622 2.5881 6.7444-2.514 17.65-13.295 28.419-5.4672 5.4609-8.0051 8.9346-8.5156 11.656-1.0323 5.5025-0.26518 9.2784 1.9715 9.7045 3.5563 0.67749 9.4275-6.2931 15.869-18.84 3.5187-6.8543 6.9796-12.645 7.6909-12.868 0.71124-0.22307 1.6141 0.78189 2.0064 2.2332 0.49235 1.8216-0.88906 5.9702-4.4608 13.396-5.5319 11.501-6.2353 14.825-3.3703 15.924 2.8491 1.0933 8.6101-5.4103 14.676-16.569 8.5936-15.807 11.453-18.631 11.453-11.313 0 1.6102 0.1231 2.9277 0.27356 2.9277s2.2612-1.5796 4.6906-3.5102c2.8729-2.2831 5.445-3.3905 7.3576-3.1676 4.8834 0.56891 4.5355 6.0816-1.0232 16.21-5.1117 9.3138-6.1789 15.809-2.5975 15.809 3.4253 0 9.0111-6.9834 10.497-13.123 1.549-6.4008 6.6301-14.407 10.933-17.226 6.0915-3.9913 15.656-0.67546 15.656 5.4277 0 2.8718-2.7679 7.7816-6.1877 10.976-2.5733 2.4038-3.6931 2.6688-8.7485 2.0701l-5.7975-0.68664v4.053c0 11.257 8.8808 11.502 18.805 0.51719 3.229-3.5742 4.233-4.1751 4.233-2.5337 0 5.3304-10.207 12.746-17.623 12.804-3.6238 0.0285-9.586-2.6993-10.249-4.689-0.27155-0.81467-2.1073-0.1728-4.8723 1.7036-2.4401 1.6559-5.6942 3.0108-7.2312 3.0108-8.8231 0-9.7719-7.4101-2.627-20.518 2.5252-4.6325 4.5913-8.9382 4.5913-9.5681 0-1.8516-6.8008 2.6586-11.025 7.3115-2.1445 2.3622-6 8.4734-8.5677 13.58-4.1964 8.3462-6.9006 10.801-6.9006 6.2631 0-1.2914-0.80092-1.1546-3.7436 0.63961-4.7372 2.8884-8.3141 2.9041-11.169 0.0492-2.2213-2.2213-2.2839-2.2189-6.8074 0.25886-5.266 2.8844-10.172 1.9964-12.275-2.2219l-1.2159-2.4388-3.1828 2.7377c-3.9798 3.4232-8.2694 4.547-12.162 3.1862-2.5149-0.87913-3.0642-1.8563-3.3629-5.9824-0.28818-3.9809 0.54451-6.6029 4.3195-13.602 2.5721-4.7685 4.6765-9.1778 4.6765-9.7986 0-1.8375-6.8183 2.6946-11.025 7.3282-2.1445 2.3622-5.9896 8.4528-8.5447 13.535-4.8409 9.628-4.9076 9.7198-6.1557 8.4717zm121.28-18.375c3.4844-2.932 6.9583-8.298 6.9583-10.748 0-2.9416-4.8061-0.76105-9.1171 4.1365-4.5833 5.2068-5.5088 7.2896-3.9375 8.8608 1.2884 1.2885 2.3638 0.89174 6.0963-2.249zm-63.92-17.851c1.694-3.1125 2.8861-6.5584 2.649-7.6577-0.43498-2.0171-8.5665 9.3821-12.954 18.159l-2.0151 4.0316 4.6198-4.4369c2.5409-2.4403 6.0058-6.9835 7.6998-10.096zm80.663 35.832c-1.0621-1.7185 0.40592-5.4349 2.4579-6.2223 2.3511-0.9022 3.8838 0.12963 3.8838 2.6146 0 3.7155-4.6427 6.3567-6.3417 3.6077zm-270.11-4.4398c0-3.1161 2.0943-8.7055 6.9864-18.646 3.8425-7.8075 7.9893-15.604 9.215-17.325 3.135-4.4026 2.8064-5.2587-1.8113-4.7196-4.0465 0.4724-9.7826-2.1172-9.7826-4.4164 0-0.61893 2.1442-1.1253 4.7649-1.1253s9.3164-0.60599 14.879-1.3466c9.3322-1.2425 10.367-1.1768 13.377 0.84904l3.2627 2.1957-7.8843 1.1668c-7.6738 1.1356-7.9226 1.2783-9.3192 5.3466-0.78924 2.2989-4.6005 9.8149-8.4695 16.702-3.869 6.8873-8.3511 15.503-9.9602 19.146-1.6091 3.6428-3.4505 6.6233-4.092 6.6233-0.64153 0-1.1664-2.0026-1.1664-4.4501zm31.101 1.5334c0-1.6042 0.72614-4.6546 1.6136-6.7786 1.4254-3.4115 1.3966-4.0789-0.24683-5.7224-1.7127-1.7127-1.6298-1.8605 1.0436-1.8605 2.3912 0 4.1737-1.92 10.094-10.872 3.9542-5.9793 10.528-14.402 14.608-18.718l7.4183-7.8464 2.4058 2.8291c1.3913 1.6361 2.1805 3.8219 1.8715 5.1834-0.29385 1.2949-1.9809 7.9136-3.749 14.708-3.0196 11.604-3.0975 12.484-1.2824 14.489 2.516 2.7801 2.439 3.6816-0.31421 3.6816-1.891 0-2.3703 1.0938-3.0285 6.9112-0.43005 3.8012-1.2461 6.9112-1.8135 6.9112-1.533 0-3.2783-5.338-3.2783-10.026v-4.117l-6.0473 0.72637c-3.326 0.3995-7.084 0.73268-8.3511 0.7404-1.6036 0.01-3.3417 1.9383-5.719 6.3453-3.7365 6.927-5.2238 7.8991-5.2238 3.4146zm22.908-16.236c2.7025-0.54051 3.7721-1.4851 4.2391-3.7436 0.34346-1.6614 1.6025-7.1544 2.7978-12.207 1.1953-5.0523 1.9982-9.3611 1.7842-9.5751-0.50259-0.50257-19.059 24.191-19.059 25.362 0 1.071 5.278 1.1551 10.238 0.16312zm147.61-15.924c-1.9989-2.4085-1.002-5.7568 1.835-6.1636 2.741-0.39298 4.3105 2.3562 3.251 5.6946-0.81314 2.562-3.1687 2.7792-5.086 0.469zm-274.51-49.73c-1.5297-1.5297-0.79079-7.8935 1.5036-12.95 1.2531-2.7617 2.2784-5.2473 2.2784-5.5236s-1.8165-0.16156-4.0366 0.25494c-5.5442 1.0401-9.7859-1.7707-9.7859-6.4847 0-3.6111 2.8504-9.9924 7.8129-17.491 3.6599-5.5306 2.6152-6.6725-2.5206-2.7552-5.655 4.3133-11.349 11.662-15.581 20.108-4.0757 8.1354-6.4606 8.7718-6.3258 1.688 0.0635-3.3412 1.6206-7.2386 5.6114-14.046 3.0379-5.1817 5.2456-9.6991 4.9061-10.039-2.4075-2.4075-14.212 10.633-19.39 21.42-3.9319 8.1918-5.168 9.4495-6.3246 6.4354-0.54962-1.4323-1.1655-1.4108-4.4498 0.15539-7.9164 3.775-13.432-0.97839-11.058-9.53 1.5562-5.6063 10.606-22.608 12.342-23.187 0.70385-0.23461 1.6007 0.76091 1.993 2.2123 0.49235 1.8216-0.88906 5.9702-4.4608 13.396-5.5284 11.494-6.235 14.825-3.3775 15.921 2.938 1.1274 8.2606-5.0897 13.856-16.184 2.8554-5.6617 6.28-11.822 7.6102-13.691 2.1253-2.9847 2.5503-3.1613 3.5043-1.4566 0.59713 1.067 0.76859 3.2034 0.38103 4.7476-0.67725 2.6983-0.49861 2.6503 4.5918-1.2353 6.5665-5.0123 9.4486-5.1866 11.024-0.66654l1.177 3.3763 5.3239-3.3763c6.4735-4.1054 8.0757-4.2087 8.9865-0.57977 0.93451 3.7234-0.10874 6.7186-5.4196 15.561-2.4494 4.078-4.4534 8.0527-4.4534 8.8328 0 2.8769 1.452 5.0624 3.3634 5.0624 3.3828 0 8.1024-6.1322 18.395-23.901 4.7051-8.1228 7.0383-10.277 7.0383-6.5 0 1.3324 0.56485 1.6029 2.0158 0.96546 1.1087-0.48709 3.9145-1.111 6.2352-1.3866 3.478-0.41294 4.4623-0.0471 5.6018 2.0822 3.0321 5.6656-0.9751 19.844-7.6412 27.037l-2.9142 3.1444 3.1093-0.78037c3.6993-0.92846 8.2086-4.0492 9.13-6.3185 0.36309-0.89428 2.9949-5.1379 5.8485-9.4303 3.8109-5.7324 5.0089-8.5194 4.5124-10.498-0.4472-1.7818 0.23503-4.045 2.0161-6.6879 4.7969-7.1181 8.5662-5.1884 5.5192 2.8256-1.4149 3.7215 0.18179 3.8712 5.6615 0.5306 3.7844-2.3071 4.0299-2.3229 5.4714-0.35147 2.3018 3.1479 1.8897 4.6741-3.0181 11.176-2.49 3.2988-5.1105 7.5327-5.8233 9.4086-1.6831 4.4298-0.61024 8.684 2.1901 8.684 2.7848 0 9.0964-7.1755 9.8972-11.252 1.1505-5.8566 7.0327-15.789 10.902-18.409 2.1054-1.4254 5.2602-2.5917 7.0108-2.5917 4.0879 0 9.147 5.7827 9.147 10.455 0 1.9063 0.62468 3.3831 1.4398 3.4039 0.9418 0.0239 0.80056 0.52355-0.40832 1.4443-1.0165 0.7742-2.2567 2.6947-2.7559 4.2678-1.5325 4.8285-6.5756 11.593-9.9401 13.333-4.9907 2.5808-8.4384 2.0181-12.388-2.0218-1.9758-2.0209-3.5923-3.0499-3.5923-2.2868 0 1.8865-6.878 5.9515-10.079 5.9568-1.4254 0.003-3.6886-1.0926-5.0292-2.4332-3.5341-3.5341-2.3403-10.106 3.3279-18.32l4.5121-6.5387-4.5634 1.3474c-5.1334 1.5157-7.3953 4.5239-14.748 19.614-3.586 7.3595-4.6274 8.7266-5.1724 6.7893-0.65403-2.3249-0.88194-2.3564-5.4869-0.75787-7.3411 2.5483-14.515 1.3477-18.049-3.0209l-2.8775-3.5566-6.3759 12.713c-3.5068 6.9923-6.7474 12.342-7.2014 11.888zm23.585-23.406c6.0415-4.7522 12.785-21.498 10.226-25.393-0.96613-1.4706-1.5658-1.3796-4.344 0.65883-7.5015 5.5043-14.42 19.881-11.865 24.656 1.5373 2.8724 2.4161 2.8839 5.983 0.0783zm62.214-0.9373c1.6327-1.7422 4.0414-5.3091 5.3526-7.9265 2.3554-4.7014 2.3573-4.7832 0.15615-6.7752-1.2254-1.109-2.5495-3.029-2.9423-4.2667-0.6892-2.1715-0.81665-2.156-3.637 0.43988-5.3187 4.8956-9.3684 18.018-6.4584 20.928 1.6188 1.6188 4.6764 0.64422 7.5289-2.3997zm8.9813-19.87c0-3.3995-1.477-4.5733-2.886-2.2934-0.92709 1.5 0.41198 5.7491 1.8118 5.7491 0.59084 0 1.0742-1.555 1.0742-3.4556zm312.94 28.038c-0.42751-0.42751-0.77729-1.7276-0.77729-2.8891 0-2.5439 0.13836-2.5333-5.0058-0.38395-16.246 6.7878-24.463-8.1447-13.362-24.28 4.1118-5.9764 8.0062-8.5485 12.943-8.5485 4.2248 0 8.8804 3.8432 8.8804 7.3307 0 2.8718-2.7678 7.7816-6.1877 10.976-2.5733 2.4038-3.6931 2.6688-8.7485 2.0701l-5.7975-0.68664v4.053c0 5.8082 1.7869 8.5091 5.6296 8.5091 4.9801 0 10.348-4.3464 17.076-13.826 4.7512-6.6948 5.9857-9.2954 5.4933-11.572-0.4263-1.9711 0.24376-4.241 2.0379-6.9033 4.7805-7.0938 8.5405-5.1429 5.5002 2.8538-1.4149 3.7215 0.1818 3.8712 5.6615 0.5306 3.7844-2.3071 4.0299-2.3229 5.4714-0.35148 2.3018 3.1479 1.8896 4.6741-3.0181 11.176-5.3829 7.1314-7.3594 11.862-6.4574 15.456 1.2927 5.1507 7.2655 1.7957 12.933-7.2645 1.336-2.1358 1.3738-2.1328 1.4355 0.11023 0.1752 6.3629-8.2121 13.156-14.343 11.617-6.7501-1.6942-6.5516-10.494 0.46262-20.507l4.4326-6.3278-4.5893 1.3551c-5.1588 1.5232-7.5012 4.6291-14.588 19.343-2.3673 4.915-4.654 8.5866-5.0815 8.1591zm-8.8874-20.688c3.4844-2.932 6.9582-8.298 6.9582-10.748 0-2.9416-4.8061-0.76105-9.1171 4.1365-4.5833 5.2068-5.5088 7.2896-3.9375 8.8608 1.2884 1.2885 2.3638 0.89174 6.0963-2.249zm-295.96 17.444c-1.0222-1.2317-1.2948-3.877-0.86587-8.4005 0.74928-7.901 3.9194-22.042 5.4828-24.457 0.99421-1.5358 1.2445-1.5358 2.2527 0 1.7402 2.6508 1.3963 8.0782-1.206 19.035-1.3065 5.5012-2.19 10.188-1.9633 10.414 0.22671 0.2267 3.7524-4.3203 7.8348-10.104 9.1351-12.943 17.128-21.85 17.192-19.158 0.0252 1.053-2.314 4.9406-5.1982 8.6391s-8.3814 10.871-12.216 15.939c-3.8347 5.0682-7.6132 9.3668-8.3966 9.5524-0.7834 0.18556-2.0958-0.47163-2.9164-1.4604zm29.688-0.0847c-6.5473-3.554-6.4212-14.457 0.27987-24.196 4.1303-6.0032 8.019-8.5761 12.962-8.5761 4.2248 0 8.8804 3.8432 8.8804 7.3307 0 2.8718-2.7678 7.7816-6.1877 10.976-2.5733 2.4038-3.6931 2.6688-8.7485 2.0701l-5.7975-0.68663v4.053c0 5.5941 1.8092 8.5091 5.2812 8.5091 6.9718 0 12.883-5.6122 19.412-18.43 2.4203-4.7515 5.447-10.122 6.7259-11.935 2.0481-2.9035 2.4547-3.0652 3.411-1.3564 0.59712 1.067 0.76859 3.2034 0.38102 4.7476-0.67724 2.6983-0.4986 2.6503 4.5918-1.2353 6.5665-5.0123 9.4486-5.1866 11.024-0.66654l1.177 3.3763 5.3239-3.3763c6.4735-4.1054 8.0757-4.2087 8.9865-0.57978 0.9345 3.7234-0.10874 6.7186-5.4196 15.561-4.5605 7.5928-4.9692 8.9071-3.7542 12.073 2.0516 5.3463 10.692-2.2467 13.004-11.427 1.5925-6.3243 6.717-14.322 10.957-17.1 6.0915-3.9913 15.656-0.67546 15.656 5.4277 0 2.8718-2.7678 7.7816-6.1877 10.976-2.5733 2.4038-3.6931 2.6688-8.7485 2.0701l-5.7975-0.68663v4.053c0 8.0612 4.1589 10.6 11.288 6.8907 4.6305-2.4092 7.4716-6.0224 12.767-16.236 7.566-14.594 10.79-17.705 10.79-10.415 0 1.6102 0.1231 2.9277 0.27356 2.9277s2.2612-1.5796 4.6906-3.5102c2.8729-2.2831 5.445-3.3905 7.3576-3.1676 4.8835 0.56891 4.5355 6.0816-1.0232 16.21-7.3933 13.471-5.4924 21.072 3.0174 12.066 3.9892-4.222 15.96-27.728 14.387-28.252-0.56081-0.18694-2.0003-1.0822-3.1988-1.9895-2.0448-1.548-1.962-1.6519 1.3443-1.6863 4.2523-0.0443 6.0155-1.4088 10.094-7.8118 1.7148-2.6925 3.4357-4.8955 3.8241-4.8955 0.38837 0 0.45957 2.566 0.15824 5.7022-0.48586 5.0563-0.28438 5.7412 1.779 6.0473 4.2634 0.63249 3.4604 3.0579-1.1387 3.4391-4.1739 0.34595-4.6049 0.78993-9.8559 10.153-6.5745 11.723-8.4138 17.449-6.6584 20.729 0.67954 1.2697 2.157 2.3086 3.2832 2.3086 2.9691 0 8.2381-5.9775 8.2381-9.3458 0-3.8742 3.0351-7.9263 4.3955-5.8682 1.1535 1.7451 5.3292-3.7911 10.315-13.676 2.2981-4.556 3.8916-6.347 5.8997-6.6312 2.3234-0.32879 2.5917-0.06 1.7256 1.7278-0.56405 1.1644-1.0344 8.1384-1.0453 15.498-0.0148 10.106-0.4379 13.887-1.7283 15.451-1.5838 1.9191-1.5284 1.9743 0.7589 0.75576 2.6295-1.4008 7.9056-7.2125 8.7834-9.675 0.29064-0.81532 0.97575-1.0628 1.5225-0.55006 1.3936 1.3071-2.9327 8.787-6.6782 11.546-1.8527 1.3648-5.6172 2.5054-9.2682 2.8082-5.2914 0.43882-6.6226 0.11082-9.551-2.3533l-3.4027-2.8632-3.9988 2.74c-5.1038 3.4972-8.623 3.469-12.19-0.0978l-2.8378-2.8378-4.1818 2.8378c-2.3 1.5608-5.4394 2.8378-6.9765 2.8378-8.8231 0-9.7719-7.4101-2.627-20.517 2.5252-4.6326 4.5913-8.9382 4.5913-9.5681 0-1.8516-6.8008 2.6586-11.025 7.3115-2.1445 2.3622-6 8.4734-8.5677 13.58-4.1828 8.3191-6.9006 10.801-6.9006 6.3025 0-1.2731-1.0088-1.1456-4.8955 0.61861-2.6925 1.2222-6.3467 2.2335-8.1203 2.2474-3.7133 0.0292-9.5915-2.7157-10.288-4.8037-0.32962-0.98885-1.4492-0.6547-3.6766 1.0974-7.3077 5.7482-16.791 3.9115-16.791-3.2521 0-3.6111 2.8504-9.9924 7.813-17.491 3.6599-5.5306 2.6152-6.6725-2.5206-2.7552-5.655 4.3133-11.349 11.662-15.581 20.108-4.0757 8.1354-6.4606 8.7718-6.3258 1.688 0.0636-3.3413 1.6206-7.2386 5.6114-14.046 3.0378-5.1818 5.2456-9.6991 4.9061-10.039-2.4075-2.4075-14.212 10.633-19.39 21.42-4.0203 8.376-5.4202 9.6651-6.4052 5.8983-0.5649-2.1602-0.66079-2.1606-5.3636-0.0254-5.7189 2.5967-10.578 2.7414-14.816 0.44102zm163.27-5.5267c0.37253-1.9978 0.5162-6.7041 0.3193-10.458l-0.35803-6.826-4.3195 6.5203c-4.9858 7.5261-5.1582 8.6345-1.9734 12.683 2.9032 3.6909 5.4283 2.9255 6.3317-1.9192zm-152.71-11.82c3.4844-2.932 6.9582-8.298 6.9582-10.748 0-2.9416-4.8061-0.76105-9.1171 4.1365-4.5833 5.2068-5.5088 7.2896-3.9375 8.8608 1.2884 1.2885 2.3638 0.89174 6.0963-2.249zm76.024 0c3.4844-2.932 6.9582-8.298 6.9582-10.748 0-2.9416-4.8061-0.76105-9.1171 4.1365-4.5833 5.2068-5.5088 7.2896-3.9375 8.8608 1.2884 1.2885 2.3638 0.89174 6.0963-2.249zm113.73 16.175c-1.6326-1.6325-3.1402-4.0947-3.3504-5.4714-1.6767-10.983 8.5748-26.099 17.709-26.112 3.9678-0.006 9.0294 5.8529 9.0294 10.451 0 1.9063 0.62468 3.3831 1.4398 3.4039 0.9418 0.0239 0.80055 0.52355-0.40832 1.4443-1.0165 0.7742-2.2567 2.6947-2.7559 4.2678-1.5325 4.8285-6.5756 11.593-9.9401 13.333-4.7105 2.4359-8.384 2.0236-11.723-1.3158zm9.799-3.655c1.6327-1.7422 4.0414-5.3091 5.3526-7.9265 2.3554-4.7014 2.3573-4.7832 0.15613-6.7752-1.2254-1.109-2.5494-3.029-2.9423-4.2667-0.68921-2.1715-0.81667-2.156-3.637 0.43988-5.3187 4.8956-9.3684 18.018-6.4584 20.928 1.6188 1.6188 4.6764 0.64422 7.5289-2.3997zm8.9813-19.87c0-3.3995-1.477-4.5733-2.886-2.2934-0.92709 1.5 0.41197 5.7491 1.8118 5.7491 0.59083 0 1.0742-1.555 1.0742-3.4556zm8.087 24.794c-1.0222-1.2317-1.2948-3.877-0.86587-8.4005 0.74928-7.901 3.9194-22.042 5.4828-24.457 0.99421-1.5358 1.2445-1.5358 2.2527 0 1.7402 2.6508 1.3963 8.0782-1.206 19.035-1.3065 5.5012-2.19 10.188-1.9633 10.414 0.2267 0.2267 3.7524-4.3203 7.8348-10.104 9.1351-12.943 17.128-21.85 17.192-19.158 0.0251 1.053-2.314 4.9406-5.1982 8.6391s-8.3814 10.871-12.216 15.939c-3.8347 5.0682-7.6132 9.3668-8.3966 9.5524-0.78341 0.18556-2.0958-0.47163-2.9164-1.4604zm-401.98-34.53c-1.9989-2.4085-1.002-5.7568 1.835-6.1636 2.741-0.39298 4.3106 2.3562 3.251 5.6946-0.81315 2.562-3.1687 2.7792-5.086 0.469zm293.77-45.13c-3.1937-4.0601-3.0507-9.7206 0.53191-21.062 4.7492-15.034 27.209-56.535 30.596-56.535 0.57253 0 1.041 1.7112 1.041 3.8028 0 2.5527-2.1188 7.3805-6.4456 14.686-10.323 17.43-11.045 19.065-9.1271 20.656 0.90048 0.74734 1.995 3.7443 2.4322 6.6598l0.79493 5.301 3.1671-3.5446c1.7419-1.9495 3.7033-4.5027 4.3586-5.6736s1.5824-1.738 2.0602-1.2602c1.5423 1.5423-2.8143 8.7602-6.9067 11.443-2.254 1.4775-4.2295 3.8744-4.5615 5.5344-1.1919 5.9595-5.62 16.254-8.4256 19.589-3.5678 4.2401-6.4025 4.3601-9.5155 0.40262zm8.9856-8.7717c5.1839-10.889 5.4449-12.816 2.0372-15.049l-2.8735-1.8828-2.9646 8.9019c-1.6305 4.896-2.9646 10.326-2.9646 12.066 0 5.4539 3.1391 3.5815 6.7654-4.0355zm5.9052-22.174c0-2.8509-0.45355-5.1834-1.0079-5.1834-1.3113 0-2.5806 6.3765-1.7172 8.6265 1.3156 3.4285 2.7251 1.6477 2.7251-3.443zm37.345 8.1703c-4.3749-1.922-6.7867-7.2621-5.8598-12.974 1.203-7.4135 18.74-40.695 21.444-40.695 1.8307 0 2.1726 4.8511 0.64682 9.1758-0.85063 2.411-2.9448 6.5984-4.6536 9.3054-6.9587 11.023-12.157 23.416-11.816 28.17 0.28971 4.0455 0.70784 4.6511 3.4278 4.9653 4.6425 0.5361 10.705-6.3128 18.698-21.122 11.432-21.181 16.942-30.494 18.044-30.494 0.57807 0 1.0511 2.0236 1.0511 4.4969 0 7.8108-20.016 43.012-26.8 47.131-5.2206 3.1701-10.036 3.8633-14.182 2.0416zm50.197-0.22109c0-3.1904 3.248-8.8299 9.8854-17.164 8.7602-11 35.012-39.74 36.299-39.74 1.7802 0 1.1383 5.0145-1.106 8.6391-1.1768 1.9006-6.4879 8.155-11.802 13.899-13.529 14.621-24.247 26.816-28.027 31.888-3.4353 4.6097-5.2494 5.466-5.2494 2.4778zm38.497 0.22109c-4.3749-1.922-6.7867-7.2621-5.8598-12.974 1.203-7.4135 18.74-40.695 21.444-40.695 1.8307 0 2.1726 4.8511 0.64681 9.1758-0.85062 2.411-2.9448 6.5984-4.6536 9.3054-6.9587 11.023-12.157 23.416-11.816 28.17 0.2897 4.0455 0.70783 4.6511 3.4278 4.9653 4.6425 0.5361 10.705-6.3128 18.698-21.122 11.432-21.181 16.942-30.494 18.044-30.494 0.57808 0 1.0511 2.0236 1.0511 4.4969 0 7.8108-20.016 43.012-26.8 47.131-5.2206 3.1701-10.036 3.8633-14.182 2.0416zm-425.5-0.94c-1.5601-0.82484-3.5876-3.4728-4.5054-5.8844-1.4941-3.9256-1.458-5.0536 0.34477-10.773 2.6918-8.5393 10.399-16.494 15.981-16.494 4.029 0 8.8702 3.806 8.8702 6.9734 0 2.8164-3.9764 11.465-5.1012 11.095-2.9-0.95384-3.4516-4.2658-1.5604-9.3685 1.0578-2.8542 1.464-5.4733 0.90259-5.8203-1.5795-0.97619-8.6084 6.6577-11.356 12.333-2.7065 5.5909-3.2536 13.488-1.0846 15.657 3.9253 3.9253 16.595-2.6338 18.566-9.6117 3.3932-12.013 11.279-21.259 18.132-21.259 4.0879 0 9.147 5.7827 9.147 10.455 0 1.9063 0.62468 3.3831 1.4398 3.4039 0.9418 0.0239 0.80055 0.52355-0.40832 1.4443-1.0165 0.7742-2.2567 2.6947-2.7559 4.2678-1.5325 4.8285-6.5756 11.593-9.9401 13.333-4.8967 2.5322-8.4432 2.0133-12.15-1.7778l-3.3537-3.4302-3.9883 2.8377c-4.8475 3.449-13.2 4.7218-17.18 2.6177zm34.747-5.2182c1.6327-1.7422 4.0414-5.3091 5.3526-7.9265 2.3554-4.7014 2.3573-4.7832 0.15613-6.7752-1.2254-1.109-2.5494-3.029-2.9423-4.2667-0.68921-2.1715-0.81667-2.156-3.637 0.43988-5.3187 4.8956-9.3684 18.018-6.4584 20.928 1.6188 1.6188 4.6764 0.64422 7.5289-2.3997zm8.9813-19.87c0-3.3995-1.477-4.5733-2.886-2.2934-0.9271 1.5 0.41197 5.7491 1.8118 5.7491 0.59083 0 1.0742-1.555 1.0742-3.4556zm10.015 25.213c-5.6764-3.3022-4.5903-13.031 3.2645-29.245 8.3719-17.281 18.281-27.775 20.577-21.791 2.5881 6.7444-2.514 17.65-13.295 28.419-7.8471 7.838-9.7718 11.808-8.855 18.263 0.59086 4.1602 3.7695 3.9114 8.8672-0.69398 3.4808-3.1447 5.2145-6.0486 7.0902-11.876 6.6153-20.552 22.773-41.936 25.775-34.112 2.5881 6.7444-2.514 17.65-13.295 28.419-5.4672 5.4609-8.0051 8.9346-8.5156 11.656-1.0639 5.671-0.25863 9.2796 2.1742 9.7435 2.9795 0.56818 12.853-9.9076 13.8-14.641 0.91594-4.5797 6.5697-12.964 10.462-15.514 6.0915-3.9913 15.656-0.67546 15.656 5.4277 0 2.8718-2.7679 7.7816-6.1877 10.976-2.5733 2.4038-3.6931 2.6688-8.7485 2.0701l-5.7975-0.68664v4.053c0 5.5941 1.8092 8.5091 5.2812 8.5091 6.97 0 14.17-6.7094 17.193-16.022 2.7222-8.3855 10.399-16.23 15.883-16.23 4.029 0 8.8702 3.806 8.8702 6.9734 0 2.8164-3.9764 11.465-5.1012 11.095-2.9-0.95384-3.4516-4.2658-1.5604-9.3685 1.0578-2.8542 1.464-5.4733 0.90259-5.8203-1.5795-0.97619-8.6084 6.6577-11.356 12.333-2.7065 5.5909-3.2536 13.488-1.0846 15.657 4.2041 4.2041 15.981-2.2684 19.157-10.528 1.0132-2.6353 3.5999-8.1424 5.7482-12.238 2.1483-4.0955 3.4061-7.613 2.7952-7.8167-0.61099-0.20366-2.0915-1.1126-3.29-2.0199-2.0448-1.548-1.962-1.6519 1.3443-1.6863 4.2523-0.0443 6.0155-1.4088 10.094-7.8118 1.7149-2.6925 3.4357-4.8955 3.8241-4.8955 0.38838 0 0.45958 2.566 0.15825 5.7022-0.48586 5.0563-0.28438 5.7412 1.779 6.0473 4.2634 0.63249 3.4604 3.0579-1.1387 3.4391-4.1739 0.34595-4.6049 0.78993-9.8559 10.153-3.0201 5.385-6.0318 11.733-6.6925 14.106-2.2004 7.9026 2.6956 11.805 7.8831 6.2828 1.3687-1.4569 5.4762-8.5589 9.1278-15.782 3.6516-7.2233 7.2212-13.309 7.9324-13.524 0.71125-0.21511 1.6141 0.79636 2.0064 2.2477 0.49236 1.8216-0.88905 5.9702-4.4608 13.396-5.5784 11.598-6.2395 14.823-3.2722 15.962 2.6666 1.0233 10.289-7.4115 11.813-13.073 2.787-10.35 10.804-18.83 17.802-18.83 3.7338 0 8.7987 6.0184 8.7987 10.455 0 1.9063 0.62468 3.3831 1.4398 3.4039 0.9418 0.0239 0.80055 0.52355-0.40832 1.4443-1.0165 0.7742-2.2567 2.6947-2.7559 4.2678-1.5325 4.8285-6.5756 11.593-9.9401 13.333-4.931 2.5499-8.5221 2.0253-12.102-1.7681-3.1597-3.3477-3.2782-3.3753-5.5691-1.2958-5.6132 5.0954-10.828 6.0201-14.31 2.5378-2.1347-2.1347-2.2448-2.1348-5.4714-0.009-4.4786 2.9527-8.0294 2.7378-11.461-0.69354-3.3398-3.3398-4.2708-3.5133-6.2237-1.1602-2.0284 2.4441-10.046 4.3577-14.644 3.4952-2.6367-0.49466-4.5787-1.8432-5.9853-4.1562-1.9097-3.1403-2.2153-3.2631-3.6887-1.4828-2.2709 2.7441-10.187 6.1358-14.277 6.1174-4.4125-0.0199-8.5429-2.3121-10.487-5.82-0.8392-1.5141-1.5442-2.1268-1.5666-1.3616-0.0548 1.8691-9.3884 7.2478-12.577 7.2478-1.3986 0-3.7572-1.2144-5.2415-2.6986l-2.6986-2.6986-4.4483 2.6927c-4.8238 2.92-7.8904 3.3124-11.135 1.4246zm139.96-5.3434c1.6327-1.7422 4.0414-5.3091 5.3526-7.9265 2.3554-4.7014 2.3573-4.7832 0.15614-6.7752-1.2254-1.109-2.5495-3.029-2.9423-4.2667-0.68921-2.1715-0.81666-2.156-3.637 0.43988-5.3187 4.8956-9.3684 18.018-6.4584 20.928 1.6188 1.6188 4.6764 0.64422 7.5289-2.3997zm-87.823-12.52c3.4844-2.932 6.9583-8.298 6.9583-10.748 0-2.9416-4.8061-0.76105-9.1171 4.1365-4.5833 5.2068-5.5088 7.2896-3.9375 8.8608 1.2884 1.2885 2.3638 0.89174 6.0963-2.249zm-33.971-17.851c1.694-3.1125 2.8861-6.5584 2.649-7.6578-0.43498-2.0171-8.5665 9.3821-12.954 18.159l-2.0151 4.0316 4.6198-4.4369c2.5409-2.4403 6.0058-6.9835 7.6998-10.096zm19.582 0c1.694-3.1125 2.8861-6.5584 2.649-7.6578-0.43499-2.0171-8.5665 9.3821-12.954 18.159l-2.0151 4.0316 4.6198-4.4369c2.5409-2.4403 6.0058-6.9835 7.6999-10.096zm111.19 10.501c0-3.3995-1.477-4.5733-2.886-2.2934-0.92709 1.5 0.41197 5.7491 1.8118 5.7491 0.59083 0 1.0742-1.555 1.0742-3.4556zm4.2236 25.725c-2.1215-2.1214-0.40112-9.3613 4.4271-18.631 8.0094-15.377 11.219-18.574 11.219-11.174 0 1.6102 0.1231 2.9277 0.27356 2.9277s2.2612-1.5796 4.6906-3.5102c2.8729-2.2831 5.445-3.3905 7.3576-3.1676 4.8835 0.56892 4.5355 6.0816-1.0232 16.21-5.1728 9.4251-6.1846 15.809-2.5056 15.809 2.0269 0 8.1833-6.0131 11.297-11.034 1.2612-2.0337 1.3776-1.9472 1.4398 1.0703 0.0464 2.2438-1.1504 4.5009-3.7807 7.1313-4.4128 4.4128-8.9781 5.9283-13.303 4.4163-2.5149-0.87912-3.0642-1.8563-3.3629-5.9824-0.28819-3.9809 0.54451-6.603 4.3195-13.602 2.5721-4.7685 4.6766-9.1778 4.6766-9.7986 0-1.8375-6.8183 2.6946-11.025 7.3282-2.1445 2.3622-5.9896 8.4528-8.5447 13.535-4.8409 9.628-4.9076 9.7198-6.1557 8.4717zm58.779-2.2003c-1.6325-1.6325-3.1402-4.0947-3.3504-5.4714-1.6767-10.983 8.5748-26.099 17.709-26.112 3.9678-0.006 9.0294 5.8529 9.0294 10.451 0 1.9063 0.62468 3.3831 1.4398 3.4039 0.9418 0.0239 0.80056 0.52355-0.40832 1.4443-1.0165 0.7742-2.2567 2.6947-2.7559 4.2678-1.5325 4.8285-6.5756 11.593-9.9401 13.333-4.7105 2.4359-8.384 2.0236-11.723-1.3158zm9.799-3.655c1.6327-1.7422 4.0414-5.3091 5.3526-7.9265 2.3554-4.7014 2.3573-4.7832 0.15615-6.7752-1.2254-1.109-2.5495-3.029-2.9423-4.2667-0.6892-2.1715-0.81665-2.156-3.637 0.43988-5.3187 4.8956-9.3684 18.018-6.4584 20.928 1.6188 1.6188 4.6764 0.64422 7.5289-2.3997zm8.9813-19.87c0-3.3995-1.477-4.5733-2.886-2.2934-0.92709 1.5 0.41198 5.7491 1.8118 5.7491 0.59084 0 1.0742-1.555 1.0742-3.4556zm84.609 23.811c-0.40784-1.6249-0.10932-4.9258 0.66339-7.3351 3.1414-9.7952 22.268-45.272 24.408-45.272 0.97093 0 1.2862 2.3406 0.93076 6.9112-0.12316 1.5838-2.502 6.8534-5.2862 11.71-2.7843 4.8568-8.207 14.945-12.05 22.418-3.8435 7.473-7.1986 13.798-7.4558 14.055-0.25721 0.25721-0.80136-0.86182-1.2092-2.4868zm89.324-0.42884c0-3.9802 4.7579-11.046 13.578-20.165l5.2448-5.4224-1.9979-12.262c-1.0989-6.7441-1.7798-12.48-1.5131-12.747 2.1611-2.1611 7.7258 6.6039 7.7258 12.169 0 6.4051 1.2927 6.0126 11.05-3.3552 9.7143-9.3261 11.987-10.737 11.987-7.441 0 3.3334-2.5101 6.7858-11.798 16.227l-9.2389 9.3914 1.4546 7.8868c0.8 4.3377 2.3734 10.349 3.4964 13.358 2.2081 5.9167 1.3572 6.8982-3.208 3.7006-2.5343-1.7751-6.0475-11.24-6.0475-16.292 0-1.4688-0.46496-2.6706-1.0332-2.6706-0.56828 0-4.2924 3.758-8.2758 8.3511-12.326 14.213-11.425 13.481-11.425 9.2712zm-520.65-0.95713c0-1.6042 0.72613-4.6546 1.6136-6.7786 1.4254-3.4115 1.3966-4.0789-0.24683-5.7224-1.7127-1.7127-1.6298-1.8605 1.0436-1.8605 2.3912 0 4.1737-1.92 10.094-10.872 3.9542-5.9793 10.528-14.402 14.608-18.718l7.4183-7.8464 2.4058 2.8291c1.3913 1.6361 2.1805 3.8219 1.8716 5.1834-0.29386 1.2949-1.9809 7.9136-3.749 14.708-3.0196 11.604-3.0975 12.484-1.2825 14.489 2.516 2.7801 2.439 3.6816-0.31421 3.6816-1.891 0-2.3703 1.0938-3.0285 6.9112-0.43006 3.8012-1.2462 6.9112-1.8135 6.9112-1.533 0-3.2783-5.338-3.2783-10.026v-4.117l-6.0473 0.72637c-3.326 0.3995-7.084 0.73268-8.3511 0.7404-1.6036 0.01-3.3417 1.9383-5.719 6.3453-3.7365 6.9269-5.2238 7.8991-5.2238 3.4146zm22.908-16.236c2.7025-0.54051 3.7721-1.4851 4.239-3.7436 0.34346-1.6614 1.6025-7.1544 2.7978-12.207 1.1953-5.0523 1.9982-9.3611 1.7842-9.5751-0.50259-0.50257-19.059 24.191-19.059 25.362 0 1.071 5.278 1.1551 10.238 0.16312zm216.73-15.924c-1.9989-2.4085-1.002-5.7568 1.835-6.1636 2.741-0.39298 4.3106 2.3562 3.251 5.6946-0.81315 2.562-3.1687 2.7792-5.086 0.469zm260.05-51.247c-1.5643-1.2305-4.5409-5.6838-6.6147-9.8963-3.3663-6.8379-3.7234-8.4939-3.3306-15.445 0.53786-9.5187 6.341-22.175 14.15-30.861 6.5352-7.2687 19.885-16.5 32.224-22.282 7.4612-3.4964 9.9148-5.2424 10.805-7.6883 0.63327-1.7405 2.016-5.1794 3.0727-7.642l1.9213-4.4774-5.9372 4.3583c-3.2655 2.3971-7.8376 5.0371-10.16 5.8667-9.4915 3.3901-18.999 0.96652-23.261-5.9294l-2.372-3.838-6.4728 4.5342c-13.349 9.3509-26.572 9.3174-35.732-0.0905-2.0447-2.0999-4.2543-5.444-4.9102-7.4314l-1.1925-3.6134-5.8633 5.6515c-14.578 14.051-35.775 16.458-43.94 4.9904-3.8005-5.3373-4.193-17.682-0.89075-28.014 4.8065-15.04 26.701-56.287 33.503-63.119 3.0048-3.0175 5.7452-1.3646 7.7989 4.7039 3.1542 9.3204 1.4165 14.558-15.081 45.46-8.8882 16.648-12.357 25.871-12.357 32.853 0 5.1509 2.1743 8.541 5.478 8.541 4.1812 0 12.162-5.2261 18.409-12.055 6.9581-7.6058 11.154-15.062 18.174-32.293 2.3228-5.7018 8.8558-19.308 14.518-30.237 9.9692-19.242 10.203-19.87 7.4059-19.87-6.5706 0-14.454-4.8948-14.454-8.9746 0-0.58462 5.2824-1.4268 11.739-1.8714 6.4562-0.44466 12.116-1.0417 12.577-1.3268 0.46126-0.28507 2.6506-3.7534 4.8652-7.7073s6.6521-11.206 9.8611-16.116c6.5548-10.029 9.4198-11.346 11.528-5.2995 2.1993 6.3088 1.2621 14.681-2.7078 24.191-0.63499 1.5211 0.11266 2.0543 3.7403 2.6671 5.3009 0.89558 12.48 7.4215 11.363 10.33-0.56302 1.4672-2.7974 1.8037-11.976 1.8037h-11.284l-9.9909 17.566c-14.582 25.639-24.801 46.48-26.938 54.943-3.2151 12.73-0.37023 22.363 7.0135 23.749 5.477 1.0275 10.912-1.9706 18.701-10.317 5.788-6.2015 6.9111-8.1826 8.753-15.439 4.6962-18.501 33.303-69.35 39.016-69.35 2.3546 0 5.5138 7.7357 5.518 13.511 0.006 7.4816-2.0646 12.735-10.788 27.38-21.604 36.271-25.814 58.051-9.9971 51.722 9.7606-3.9054 21.213-19.684 42.14-58.057 15.052-27.601 19.455-34.556 21.873-34.556 3.3128 0 5.629 5.7271 5.629 13.919 0 7.4762-0.39207 8.604-8.4538 24.318-11.234 21.896-27.915 57.567-27.238 58.244 0.65765 0.65764 7.6499-3.4898 13.908-8.2493 9.84-7.484 16.62-13.816 23.016-21.494 7.6486-9.1821 9.8176-9.9946 9.8018-3.672-0.0143 5.7312-5.3027 14.793-13.126 22.492-6.0466 5.9508-21.866 15.578-33.547 20.415-5.7425 2.3781-5.8362 2.5008-10.814 14.158-19.686 46.103-38.056 71.081-52.275 71.081-2.1736 0-5.2318-1.0067-6.7961-2.2372zm11.905-19.982c10.894-13.777 30.933-50.349 27.588-50.349-0.56277 0-4.2559 2.43-8.2069 5.4-13.556 10.19-28.224 32.323-29.618 44.691-1.1947 10.599 1.9968 10.68 10.237 0.25852zm55.42-20.688c0.67134-2.0203 23.655-2.3884 79.193-1.2683 57.805 1.1658 44.41 2.3984-28.029 2.5792-40.847 0.10193-51.542-0.17208-51.164-1.3109zm-607.32-2.0144-59.322-0.5842 50.107-0.58922c27.559-0.32407 155.98-0.71495 285.38-0.86859 209.61-0.2489 235.27-0.0888 235.27 1.4672 0 1.5559-24.676 1.7145-226.06 1.4528-124.33-0.16159-252.75-0.55668-285.38-0.87798zm-10.674-46.768c-8.6881-8.6881-10.139-16.655-7.229-39.693 5.1461-40.739 21.251-110.73 26.478-115.07 2.2526-1.8695 3.6524-0.83096 6.5588 4.8662 3.821 7.4899 2.5204 20.646-5.7198 57.858-3.7879 17.105-8.2487 38.617-9.913 47.803-1.6643 9.1862-3.306 17.974-3.6482 19.529-0.3422 1.5549 5.783-6.7386 13.612-18.43 33.563-50.125 83.957-114.13 88.643-112.58 2.3588 0.77856 2.6038 13.085 0.37658 18.917-2.8236 7.3936-8.6957 15.864-30.709 44.297-23.926 30.904-43.656 57.719-59.031 80.229-7.2872 10.669-11.922 16.414-13.241 16.414-1.1167 0-3.8965-1.8662-6.1775-4.1471zm89.253 1.0796c-6.2652-3.088-8.8145-7.835-9.2926-17.304-0.52034-10.304 1.9342-18.503 11.317-37.799 7.3201-15.054 20.643-37.804 24.275-41.452 3.0048-3.0175 5.7452-1.3646 7.7989 4.7039 3.1542 9.3204 1.4165 14.558-15.081 45.46-11.78 22.065-15.206 34.924-10.547 39.584 2.404 2.404 4.5479 2.2834 10.483-0.58955 11.042-5.3452 24.221-24.254 26.757-38.389 2.3678-13.198 11.81-29.446 24.248-41.728 9.3764-9.2583 16.731-13.222 25.815-13.913 6.6531-0.50613 7.4019-0.29789 12.748 3.545 3.124 2.2455 7.191 6.3099 9.0376 9.032 4.7454 6.995 4.0054 13.836-3.2192 29.761-3.0064 6.6267-5.8567 12.481-6.3341 13.011-1.5429 1.7098-7.6791-2.474-9.6165-6.5567-2.841-5.9871-2.3262-10.315 2.7244-22.904 5.0724-12.643 5.415-14.459 2.9089-15.421-4.4009-1.6888-19.74 13.013-28.747 27.553-10.72 17.304-15.114 37.624-10.515 48.631 5.9043 14.131 26.514 10.176 46.205-8.8666l9.9012-9.5752 1.7374-9.2077c3.1573-16.733 12.81-33.856 26.089-46.277 13.537-12.664 27.572-16.543 37.395-10.337 6.5754 4.1547 12.878 11.225 14.121 15.841 2.3878 8.8661-2.5722 22.406-12.083 32.984-11.019 12.256-25.27 15.481-37.983 8.5947l-6.3894-3.4606-1.7379 5.8522c-2.3862 8.0354-2.1732 17.61 0.52418 23.552 8.4457 18.605 37.358 8.3918 58.627-20.71 5.8425-7.9942 8.2236-8.5646 8.2236-1.9699 0 9.1888-8.9674 21.021-22.752 30.019-11.825 7.7196-18.164 9.6727-31.386 9.6702-9.0196-0.00092-11.753-0.43923-15.55-2.4896-5.8159-3.14-11.137-8.7604-14.33-15.136l-2.4841-4.9597-6.3594 5.8121c-24.812 22.677-57.096 23.039-68.221 0.76389l-2.681-5.3682-3.2092 4.4301c-9.9214 13.696-30.75 21.363-42.417 15.612zm161.71-49.478c7.9458-3.7705 19.65-19.042 23.65-30.858 2.3032-6.8036 1.7789-8.7471-2.3599-8.7471-8.4 0-25.982 17.438-34.496 34.214-2.31 4.5513-2.3366 4.9108-0.44559 6.0123 3.0176 1.7578 9.2346 1.4749 13.652-0.6211zm133.01 48.485c-11.594-3.2541-18.614-9.4827-24.345-21.601-16.112-34.069 4.8804-90.124 45.336-121.06 16.105-12.315 36.103-19.059 46.91-15.821 9.4314 2.8257 20.642 16.474 22.337 27.195 0.43386 2.744 0.0667 6.9369-0.90773 10.367-1.9079 6.7155-12.028 31.782-13.429 33.262-1.8207 1.9241-6.7048-0.44862-9.1854-4.4623-3.9899-6.4558-3.367-15.045 2.1419-29.532 6.2289-16.38 6.7753-19.722 3.7235-22.774-3.0235-3.0235-5.2966-3.0239-13.373-0.002-21.169 7.9204-48.567 35.612-60.353 61-9.0821 19.564-12.7 43.647-8.7483 58.244 2.4725 9.1342 7.9838 15.605 15.1 17.728 13.735 4.0978 34.517-11.476 49.579-37.152 2.8799-4.9096 5.7841-9.2651 6.4537-9.679 2.3362-1.4438 4.3236 3.4322 4.3236 10.608 0 15.036-12.957 32.092-30.825 40.578-7.1762 3.408-9.8996 4.0609-18.457 4.4248-6.6833 0.28422-12.125-0.15863-16.28-1.3249zm-256.09-98.54c-7.6147-4.4352-6.9523-22.814 0.89327-24.783 9.1472-2.2958 17.228 14.859 10.83 22.992-2.5489 3.2404-7.8453 4.0495-11.723 1.7909zm380.12 0c-7.6147-4.4352-6.9523-22.814 0.89327-24.783 9.1472-2.2958 17.228 14.859 10.83 22.992-2.5489 3.2404-7.8453 4.0495-11.723 1.7909zm-335.47-99.83c-1.1718-4.9099-2.782-11.679-3.5782-15.042l-1.4476-6.1154 3.0288 0.35598c2.7587 0.32424 3.2342 1.1776 5.3333 9.571l2.3045 9.215 2.8911-9.503c2.485-8.1683 3.249-9.503 5.4397-9.503 2.1181 0 2.8642 1.1187 4.4168 6.6233 1.0275 3.6428 2.2898 7.9191 2.8051 9.503 1.0268 3.156 0.76458 3.7862 4.672-11.231 1.0754-4.133 1.7275-4.8955 4.1867-4.8955 2.2297 0 2.7754 0.4728 2.3265 2.0158-0.32254 1.1087-1.9648 7.8765-3.6494 15.04-2.9911 12.718-3.1336 13.016-6.0782 12.671-2.6912-0.31531-3.3111-1.3354-5.7675-9.4911-3.0417-10.099-3.2967-10.025-6.6384 1.9386-1.9632 7.0283-2.4573 7.7752-5.1433 7.7752-2.7551 0-3.1265-0.6499-5.102-8.927zm37.417-6.0473v-14.974h8.6391c7.8711 0 8.6391 0.20478 8.6391 2.3038 0 1.9966-0.76792 2.3038-5.7594 2.3038-5.6314 0-5.7594 0.07679-5.7594 3.4556s0.12799 3.4556 5.7594 3.4556c4.9914 0 5.7594 0.30717 5.7594 2.3038s-0.76792 2.3038-5.7594 2.3038h-5.7594v4.6075 4.6075h5.7594c4.9914 0 5.7594 0.30717 5.7594 2.3038 0 2.099-0.76792 2.3038-8.6391 2.3038h-8.6391v-14.974zm23.038 0v-14.974h2.8797 2.8797v12.671 12.671h4.6075c3.8396 0 4.6075 0.38396 4.6075 2.3038 0 2.0675-0.76792 2.3038-7.4872 2.3038h-7.4872v-14.974zm26.85 12.735c-8.0121-3.6376-10.818-12.834-6.217-20.378 4.392-7.2026 17.759-9.2888 25.785-4.0241 2.8516 1.8706 2.9983 2.2585 1.3668 3.6125-1.5237 1.2645-2.4958 1.1983-5.8431-0.39786-6.0841-2.9013-10.483-2.4575-14.393 1.4522-9.3946 9.3946 3.0285 22.183 14.92 15.359 2.7231-1.5628 3.8058-1.7014 4.8824-0.62476 1.9856 1.9856-0.49218 4.6082-5.7277 6.0624-5.9931 1.6647-9.2926 1.4278-14.773-1.0605zm34.73-0.06259c-11.647-5.7654-11.439-19.788 0.37945-25.509 8.4144-4.0734 17.32-1.56 22.235 6.2755 4.44 7.0775 0.82753 16.257-7.8536 19.956-5.1197 2.1815-9.3098 1.9766-14.761-0.72176zm14.768-4.6242c3.8884-3.0586 4.9277-8.0539 2.6087-12.538-2.1708-4.198-4.99-5.8776-9.865-5.8776-4.9421 0-10.354 5.4187-10.354 10.367 0 8.3423 10.902 13.325 17.61 8.0491zm14.068 4.4141c0.36397-1.4698 1.5663-8.1149 2.6718-14.767 2.0087-12.087 2.0121-12.095 5.321-12.095 3.0429 0 3.5197 0.60632 5.8878 7.4872 4.9386 14.349 4.2765 14.158 8.4653 2.4479 3.489-9.7537 3.986-10.511 6.8972-10.511 3.0978 0 3.1622 0.15565 5.1162 12.383 1.0884 6.8105 2.286 13.549 2.6614 14.974 0.57628 2.1884 0.22555 2.5917-2.2539 2.5917-1.8042 0-3.1637-0.77727-3.5258-2.0158-0.50652-1.7325-2.9062-14.452-3.0825-16.338-0.0335-0.3588-1.6367 3.624-3.5626 8.8506-2.9941 8.1256-3.8849 9.503-6.1456 9.503-2.2727 0-3.1006-1.312-5.897-9.345-1.7892-5.1398-3.4219-8.8388-3.6281-8.22-0.20625 0.61876-1.0309 4.6944-1.8326 9.0571-1.3522 7.3589-1.6851 7.9587-4.606 8.3006-2.7802 0.32545-3.071 0.05603-2.4867-2.3038zm42.042-12.463v-14.974h8.6391c7.8711 0 8.6391 0.20478 8.6391 2.3038 0 1.9966-0.76793 2.3038-5.7594 2.3038-5.6314 0-5.7594 0.07679-5.7594 3.4556s0.12798 3.4556 5.7594 3.4556c4.9914 0 5.7594 0.30717 5.7594 2.3038s-0.76793 2.3038-5.7594 2.3038h-5.7594v4.6075 4.6075h5.7594c4.9914 0 5.7594 0.30717 5.7594 2.3038 0 2.099-0.76793 2.3038-8.6391 2.3038h-8.6391v-14.974zm51.834 2.3038v-12.671h-3.4556c-2.6877 0-3.4556-0.51194-3.4556-2.3038 0-2.1118 0.76792-2.3038 9.215-2.3038s9.215 0.19198 9.215 2.3038c0 1.6894-0.76793 2.3038-2.8797 2.3038h-2.8797v12.671 12.671h-2.8797-2.8797v-12.671zm22.424 10.37c-11.647-5.7654-11.439-19.788 0.37944-25.509 8.4144-4.0734 17.32-1.56 22.235 6.2755 4.44 7.0775 0.82753 16.257-7.8536 19.956-5.1197 2.1815-9.3098 1.9766-14.761-0.72176zm14.768-4.6242c3.8884-3.0586 4.9277-8.0539 2.6087-12.538-2.1708-4.1979-4.99-5.8776-9.865-5.8776-4.9421 0-10.354 5.4187-10.354 10.367 0 8.3423 10.902 13.325 17.61 8.0491z"/>
 </g>
</svg>
