<?xml version="1.0" encoding="UTF-8" standalone="no"?>
<!-- Created with Inkscape (http://www.inkscape.org/) -->
<svg id="svg3356" xmlns:rdf="http://www.w3.org/1999/02/22-rdf-syntax-ns#" xmlns="http://www.w3.org/2000/svg" height="375" viewBox="0 0 1250 375" width="1250" version="1.1" xmlns:cc="http://creativecommons.org/ns#" xmlns:dc="http://purl.org/dc/elements/1.1/">
 <metadata id="metadata3362">
  <rdf:RDF>
   <cc:Work rdf:about="">
    <dc:format>image/svg+xml</dc:format>
    <dc:type rdf:resource="http://purl.org/dc/dcmitype/StillImage"/>
    <dc:title/>
   </cc:Work>
  </rdf:RDF>
 </metadata>
 <path id="path3366" fill="#fff" d="m706.51 289.88c-18.059-6.0252-23.136-8.5816-28.75-14.476-2.75-2.8877-7.5312-7.0151-10.625-9.172-4.8349-3.3707-6.5539-3.8742-12.238-3.5844-3.6373 0.18539-7.9094 0.82987-9.4936 1.4322-1.5842 0.60231-9.2957 1.7926-17.137 2.6451-12.392 1.3473-15.546 1.2852-24.119-0.47552-18.24-3.746-39.085-16.476-44.564-27.216-2.2469-4.4044-2.8252-4.7767-6.5196-4.1972-21.436 3.3624-51.202 11.94-62.979 18.149-18.312 9.6537-20.348 8.5122-2.6-1.4579 6.3386-3.5608 15.345-8.9343 20.013-11.941 4.6686-3.0067 11.7-7.0823 15.625-9.0568 9.1811-4.6184 28.962-11.395 33.262-11.395 3.9465 0 5.3551-2.7537 3.4959-6.8343-1.0945-2.4022-2.52-3.027-7.9768-3.4962-3.6543-0.31421-10.019-1.2076-14.144-1.9852-4.125-0.77765-11.341-1.7493-16.036-2.1591-4.6947-0.40989-8.245-1.0361-7.8895-1.3916 0.35547-0.35546 7.2903-1.4149 15.411-2.3543 8.1205-0.93938 17.186-2.4185 20.146-3.287 4.554-1.3362 5.2572-1.9664 4.573-4.0982-1.4893-4.6402-2.1461-24.051-0.88983-26.296 0.9436-1.6861 1.4327-0.18765 2.0932 6.413 1.3898 13.888 6.668 27.985 14.376 38.395 6.6847 9.0278 21.323 15.35 62.591 27.033 24.546 6.9486 30.103 8.9802 34.179 12.494 2.1701 1.8709 5.7828 4.4654 8.0282 5.7656s5.4856 4.4839 7.2002 7.075c2.2514 3.402 5.9796 6.1872 13.417 10.024 13.336 6.8785 13.752 6.9754 12.179 2.8387-2.1314-5.606-1.4457-9.3869 2.3996-13.232 2.5083-2.5083 4.9016-3.6538 7.6337-3.6538 3.3056 0 3.8249-0.37062 3.065-2.1875-0.50318-1.2031-1.9717-5.4785-3.2632-9.5009-3.1456-9.7962-6.0986-13.632-15.252-19.811-4.2415-2.8632-9.6806-6.7113-12.087-8.5514-2.4062-1.8401-8.5938-6.4904-13.75-10.334s-10.918-8.3448-12.804-10.003c-7.3618-6.4711-13.12-27.152-11.512-41.348 0.90398-7.984 5.5008-23.264 6.9987-23.264 0.63807 0 0.75995 5.1006 0.28376 11.875-0.45911 6.5312-0.41999 11.875 0.0869 11.875 0.5069 0 1.8777-1.1808 3.0463-2.6239 3.2188-3.975 12.006-4.552 19.226-1.2626 3.1831 1.4501 6.2402 2.6488 6.7936 2.6639 1.9765 0.0538 15.084 13.272 17.18 17.325 3.5344 6.8347 3.8075 3.2398 0.34294-4.5139-7.1519-16.006-7.1864-25.922-0.10963-31.489 3.6638-2.8819 10.639-4.5315 13.888-3.2846 1.8215 0.69899 1.1606 1.7322-3.9374 6.1548-7.3565 6.3819-7.5373 8.219-2.2304 22.655 3.155 8.5823 4.1863 10.148 7.2744 11.047 10.88 3.1648 30.473 15.312 30.473 18.893 0 1.1997-4.2 0.0246-14.279-3.9953l-14.279-5.695-4.5887 2.1775c-4.3827 2.0797-4.5478 2.3828-3.6759 6.7505 2.4594 12.321 2.6714 13.948 1.8173 13.948-0.5057 0-3.0629-4.1658-5.6827-9.2572-6.5967-12.82-17.69-27.835-23.823-32.242-6.2173-4.4685-15.042-6.1204-16.225-3.0372-0.42982 1.1201-1.7857 2.0365-3.013 2.0365-2.1348 0-2.1332 0.1929 0.0384 4.4523 1.2485 2.4488 2.9658 6.2457 3.8162 8.4375 1.3584 3.5008 1.6064 3.6589 2.0405 1.3005 0.27182-1.4766-0.38849-4.7973-1.4674-7.3794s-1.6866-4.9698-1.3504-5.306c1.5303-1.5303 4.6286 3.2404 6.9176 10.651 2.8453 9.2119 3.1202 12.977 1.0955 15.002-2.9002 2.9002 0.74473 7.5955 17.01 21.912 15.995 14.079 16.844 14.639 20.235 13.344 1.9466-0.74295 13.664-3.5506 26.039-6.2392 31.224-6.7839 31.754-6.9288 34.537-9.4472 2.9205-2.643 2.575-4.7652-2.7561-16.93-2.007-4.5796-7.2643-18.923-11.683-31.875-7.0348-20.62-20.314-58.373-23.318-66.29-0.93051-2.4531-1.474-2.6087-5.1604-1.4781-4.4762 1.3729-14.802 2.9608-55.995 8.6112-14.781 2.0275-35.875 5.1009-46.875 6.8298-22.895 3.5984-63.212 8.1185-72.602 8.1396-3.4936 0.007-9.9624 1.1372-14.375 2.5095-4.4127 1.3724-12.523 3.0113-18.023 3.642-13.912 1.5955-61.867 1.1067-64.86-0.66112-2.0583-1.2156-1.5786-1.5732 3.75-2.796 3.3606-0.77117 13.423-1.9937 22.36-2.7166 19.679-1.5919 32.09-3.4464 33.688-5.0335 0.65314-0.64898 3.2039-1.18 5.6683-1.18s7.6816-1.125 11.594-2.5c3.9121-1.375 9.4004-2.5 12.196-2.5 2.7958 0 12.232-0.81221 20.969-1.8049 8.737-0.99271 24.886-2.7398 35.886-3.8825 11-1.1426 20.465-2.3591 21.033-2.7032 0.56841-0.34409 4.7872-1.1692 9.375-1.8335 4.5878-0.66433 9.7478-1.4162 11.467-1.6708 1.7188-0.25463 12.125-1.6093 23.125-3.0104s22.812-3.1143 26.25-3.8071c3.4375-0.69279 11.594-2.1665 18.125-3.2748 20.864-3.5407 23.719-4.096 24.942-4.8517 0.65909-0.40734 3.1303 0.06659 5.4915 1.0532 4.3916 1.8349 6.5876 6.1098 6.8758 13.384 0.0702 1.773 4.0064 15.273 8.7469 30 4.7406 14.727 10.313 32.12 12.384 38.651 2.0707 6.5312 6.4131 18.625 9.6498 26.875s6.1909 16.021 6.5648 17.27c0.98641 3.2929-1.8491 8.1966-8.4453 14.605l-5.7896 5.625 0.55284 8.3138c0.30559 4.5956-0.0987 10.288-0.90421 12.729-1.539 4.6632-9.4714 14.582-11.662 14.582-0.71064 0-3.1806 2.2063-5.4887 4.9028-3.1782 3.713-6.221 5.5765-12.539 7.6788-5.5881 1.8596-9.3923 4.0243-11.524 6.5573-2.8672 3.4074-13.313 10.923-15.038 10.819-0.38102-0.0229-6.3178-1.9184-13.193-4.2121zm15.669-4.0959c1.955-1.1549 4.573-4.108 5.8179-6.5625 1.2448-2.4545 2.6852-4.6503 3.2008-4.8794 4.0902-1.8178-3.5025-9.2083-9.4602-9.2083-9.9639 0-11.976 2.768-9.5459 13.135 2.3552 10.05 3.8249 11.156 9.9874 7.5152zm27.769-18.08c3.6243-1.4479 4.5281-4.8587 1.8718-7.0633-2.1967-1.8231-13.644 0.45186-15.612 3.1026-1.265 1.704-1.1737 2.5096 0.4935 4.3518 2.1721 2.4002 6.5856 2.2698 13.246-0.39114zm-108.44-13.4c4.1443-1.2299 3.553-1.6475-5.625-3.9725-29.228-7.404-61.473-21.123-67.142-28.567-1.3609-1.7868-1.5327-1.7259-1.5681 0.55579-0.0219 1.4094-0.54785 3.0969-1.1689 3.75-0.62518 0.65751-0.71063 3.8572-0.19145 7.1693 0.93165 5.9434 5.2059 11.988 10.509 14.862 2.7445 1.4874 21.083 6.8427 26.436 7.7201 5.5238 0.90531 34.395-0.22583 38.75-1.5182zm105.65-1.8773c12.391-3.2685 18.979-6.7131 18.169-9.5001-0.30649-1.0552-0.93816-4.0657-1.4037-6.6898l-0.84646-4.7712-5.1577 0.77486c-14.279 2.1451-32.988 6.6539-33.929 8.1768-0.28644 0.46347 0.8373 2.6835 2.4972 4.9334s3.3846 5.7598 3.8327 7.7999c0.67761 3.0852 1.2669 3.5726 3.503 2.8969 1.4786-0.44675 7.4791-2.076 13.335-3.6206z"/>
</svg>
