<?xml version="1.0" encoding="UTF-8" standalone="no"?>
<!-- Created with Inkscape (http://www.inkscape.org/) -->
<svg id="svg4156" xmlns:rdf="http://www.w3.org/1999/02/22-rdf-syntax-ns#" xmlns="http://www.w3.org/2000/svg" height="800" viewBox="0 0 600 800" width="600" version="1.1" xmlns:cc="http://creativecommons.org/ns#" xmlns:dc="http://purl.org/dc/elements/1.1/">
 <metadata id="metadata4162">
  <rdf:RDF>
   <cc:Work rdf:about="">
    <dc:format>image/svg+xml</dc:format>
    <dc:type rdf:resource="http://purl.org/dc/dcmitype/StillImage"/>
    <dc:title/>
   </cc:Work>
  </rdf:RDF>
 </metadata>
 <path id="path4166" fill="#fff" d="m103.88 775.87c-13.558-4.6881-27.447-17.072-34.716-30.953-4.7954-9.1577-9.0455-21.439-10.209-29.498-0.45427-3.148-1.1707-4.75-2.1242-4.75-2.3827 0-8.9799-7.3546-12.925-14.408-7.1967-12.869-14.514-38.637-14.514-51.111 0-2.4301-1.0701-7.6966-2.378-11.703-4.1732-12.784-5.0803-18.72-5.0087-32.777 0.07898-15.511 2.1905-25.116 7.8749-35.821l3.3578-6.3235-4.0006-3.6143c-15.224-13.754-13.898-47.241 2.7095-68.407 2.4449-3.116 4.4452-6.3927 4.4452-7.2814 0-0.88871 0.63832-1.8608 1.4185-2.1602 1.1386-0.43691 0.96026-1.2196-0.9036-3.9661-3.0131-4.44-4.4047-21.185-2.5529-30.717 3.7663-19.387 19.127-40.768 38.436-53.501 4.344-2.8647 8.4864-5.2085 9.2052-5.2085 0.95571 0 0.63292-1.7907-1.2012-6.6635-3.4049-9.0459-3.4332-16.905-0.08154-22.61 1.3655-2.3243 5.6081-7.2394 9.4281-10.922l6.9455-6.6963-3.9074-3.8037c-13.53-13.171-21.547-40.82-17.809-61.417 1.5613-8.6029 10.102-24.053 23.155-41.886 13.367-18.263 14.248-19.867 15.648-28.5 1.518-9.3647 8.0088-38.99 10.845-49.5 6.4947-24.064 21.876-57.316 33.85-73.179 20.458-27.102 54.904-47.062 93.094-53.943 13.663-2.4619 38.443-2.8934 56.33-0.98104 11.993 1.2822 31.827 5.5279 36.716 7.8594 2.8236 1.3465 4.1425 1.412 8.4417 0.41964 7.131-1.646 26.2-1.4648 38.814 0.36882 39.163 5.6928 63.285 17.694 92.128 45.834 4.675 4.5611 10.3 9.5763 12.5 11.145 5.5526 3.959 12.5 10.659 12.5 12.054 0 0.639 3.9375 3.6691 8.75 6.7335s12.595 8.8978 17.295 12.963c4.6998 4.0652 12.16 9.7101 16.578 12.544 8.8848 5.6994 18.59 15.22 22.7 22.267 4.1449 7.1073 6.6766 18.621 6.6766 30.364 0 11.848-1.4217 18.042-6.969 30.362-2.217 4.9238-4.031 9.9891-4.031 11.256 0 8.6947-12.013 35.889-21.248 48.102-7.1892 9.5069-22.045 25.998-24.21 26.876-1.6634 0.67405-1.3933 0.83787 1.4585 0.88449 1.925 0.0315 4.7889-0.615 6.3643-1.4366 3.5684-1.8611 5.2689-1.8921 5.9533-0.10865 1.1687 3.0455-7.0895 8.47-16.13 10.595-4.2561 1.0006-5.1873 1.5743-4.6814 2.8842 0.34735 0.89934 1.2617 4.3352 2.032 7.6352 0.77023 3.3 2.5694 9.375 3.9981 13.5 5.0162 14.483 5.1984 43.449 0.39164 62.281-1.0923 4.2798-3.9979 12.987-6.4567 19.349-2.4589 6.3621-4.4707 11.911-4.4707 12.331 0 0.41998 3.3298 4.3797 7.3996 8.7995 20.42 22.176 28.595 38.392 30.264 60.029 1.2975 16.825-3.9958 40.007-12.804 56.076-2.2207 4.0512-4.8778 9.9012-5.9046 13l-1.867 5.6342 2.5764 8c2.0011 6.2134 2.6894 10.805 3.0823 20.561 0.56172 13.949-0.70671 20.627-5.4964 28.939-3.4479 5.9834-15.094 18-17.445 18-3.3224 0-3.097-2.8525 0.67471-8.5347 2.0274-3.0543 5.0837-8.571 6.7919-12.259 2.7099-5.8511 3.1563-8.0444 3.5015-17.206 0.43041-11.423-1.5493-23.991-4.2492-26.974-0.83793-0.9259-1.5235-2.9005-1.5235-4.388 0-5.6369-9.5878-21.173-19.435-31.494-5.7928-6.071-20.774-18.144-22.515-18.144-0.45509 0-2.4402 3.2625-4.4114 7.25-8.9984 18.203-11.214 21.024-20.464 26.059-2.5851 1.407-9.1577 3.489-14.606 4.6267-5.4481 1.1377-10.01 2.1802-10.137 2.3166-0.12729 0.13643-1.0345 7.7785-2.016 16.982-1.9532 18.316-1.3424 29.976 2.1503 41.057 3.3651 10.675-1.1989 11.917-6.2396 1.6979-4.9492-10.034-11.108-27.744-12.33-35.46-0.60761-3.8342-1.2357-7.1021-1.3957-7.2621-0.16001-0.16002-2.273 0.56376-4.6955 1.6084s-6.767 2.4852-9.6545 3.2012c-4.8064 1.1918-5.25 1.5436-5.25 4.1624 0 1.9454 1.1642 4.0443 3.6392 6.561 7.7837 7.9147 9.3608 10.93 9.3608 17.9 0 7.9484-1.6116 11.192-7.4976 15.091-6.0507 4.0078-13.131 5.6144-21.61 4.9035-8.5708-0.71855-14.444-3.2811-18.744-8.178-3.242-3.6924-3.3398-4.0528-2.9885-11.01 0.44759-8.8636 3.0758-12.823 12.498-18.83 3.9777-2.5359 6.342-4.7204 6.342-5.8596 0-1.6056-0.95747-1.8204-8.25-1.8513-16.803-0.0711-32.472-4.3867-52.151-14.364-11.771-5.9677-26.992-15.548-35.099-22.093l-4-3.229-0.0768 23.61c-0.0705 21.669-0.30046 24.679-2.7968 36.61-4.597 21.971-13.359 36.292-23.287 38.059-2.1119 0.3758-4.9648 1.7079-6.3398 2.9602-3.8403 3.4977-9.2522 6.473-11.781 6.4771-4.4584 0.007-3.5699-2.7815 2.9367-9.2177 9.9144-9.807 16.845-25.612 16.845-38.416 0-11.531-4.8664-34.886-11.015-52.862l-2.0522-6 0.49915 9c0.88378 15.935-1.8817 27.907-9.3504 40.479-4.5168 7.6028-9.6232 13.021-12.272 13.021-2.5989 0-2.2358-2.5188 1.0553-7.3198 6.5454-9.5484 12.158-24.871 12.12-33.09-0.0125-2.7425-0.47325-2.2465-4.0967 4.41-6.0231 11.065-12.328 19.47-21.36 28.476-9.1269 9.1009-18.839 15.961-42.529 30.042-9.075 5.3938-20.705 12.947-25.844 16.786-19.136 14.291-31.5 34.527-35.655 58.356-3.1698 18.177-1.3836 26.744 8.6369 41.424 3.9706 5.817 6.3538 7.3333 13.363 8.5026 6.8752 1.1469 9.538 5.2596 5.6713 8.759-2.43 2.1991-11.113 2.1285-17.684-0.14378zm16.333-2.9557c0.35424-2.4947 0.36364-2.4902-8.7568-4.1967-9.5798-1.7925-15.603-5.3258-24.586-14.424-14.229-14.409-21.2-31.775-22.132-55.125-0.46817-11.737-0.2672-13.971 2.0691-23 2.7845-10.761 9.9578-27.006 11.503-26.051 0.51953 0.32109 1.2702 0.0569 1.6682-0.58703 0.47801-0.77343 0.28773-0.90143-0.56063-0.37711-0.85608 0.52908-1.1299 0.33054-0.82118-0.59549 0.25469-0.76406 0.97053-1.3892 1.5908-1.3892 0.62023 0 2.5847-2.025 4.3655-4.5 6.7297-9.353 13.688-16.647 24.34-25.515 16.502-13.738 28.435-20.561 61.474-35.15 7.9605-3.5153 17.319-8.2455 20.797-10.511 7.7627-5.0576 16.483-14.417 21.626-23.212 2.1267-3.6364 4.0905-6.6117 4.364-6.6117 0.27355 0 0.18063 2.7995-0.20648 6.2212-1.7089 15.104-10.353 33.642-22.554 48.369-7.4435 8.9839-23.042 21.322-43.5 34.408-21.605 13.82-32.246 22.433-40.832 33.052-8.1106 10.031-15.645 24.875-18.756 36.95-2.7681 10.744-3.7805 33.528-1.7418 39.197 1.2224 3.3991 1.3363 2.5521 1.4122-10.5 0.07208-12.387 0.42361-15.318 2.7567-22.986 4.7783-15.704 11.389-27.146 22.469-38.891 8.0766-8.5616 17.843-15.618 39.192-28.316 9.075-5.3978 19.828-12.052 23.896-14.788 9.1231-6.1357 21.615-17.955 28.182-26.665 5.1269-6.7998 13.783-22.777 15.875-29.301 2.2674-7.0721 3.388-4.3939 2.7197 6.5-0.89773 14.633-4.4207 26.012-11.688 37.75l-2.1669 3.5 3.0442-3.4062c4.1692-4.665 10.802-18.224 12.76-26.083 1.3633-5.4735 1.5033-9.7774 0.89441-27.5-0.39703-11.556-0.41617-20.714-0.0425-20.351 0.37364 0.36293 1.5025 3.7379 2.5087 7.5 1.0061 3.7621 4.2962 15.401 7.3114 25.864 6.3757 22.125 7.7062 29.627 7.7062 43.449 0 7.5283-0.52494 11.669-2.0676 16.308-3.0324 9.1202-9.0991 18.756-15.48 24.588-3.0873 2.8216-5.0022 5.1302-4.2552 5.1302 1.66 0 5.0819-2.2719 10.056-6.6767 2.2247-1.9701 4.8234-3.3233 6.382-3.3233 9.0608 0 17.894-13.752 22.51-35.044 2.0415-9.4165 2.2713-13.212 2.311-38.16 0.0408-25.652 0.16737-27.615 1.7083-26.5 0.9153 0.66218 5.0541 3.7989 9.1973 6.9704 9.6889 7.4167 21.676 14.837 33.639 20.825 18.247 9.1328 30.919 12.68 48.513 13.579l12.013 0.6139-0.37122 3.8927c-0.32167 3.3729-0.89682 4.1608-4.3079 5.901-4.9806 2.5409-11.545 8.4372-13.411 12.047-2.1888 4.2327-1.8187 11.01 0.81474 14.918 3.6962 5.4845 10.157 8.1506 19.936 8.2262 9.5209 0.0737 16.604-2.3533 21.362-7.3195 4.14-4.3212 4.6307-12.262 1.1273-18.24-1.4107-2.4072-4.3346-5.9755-6.4976-7.9297-2.6833-2.4242-4.0797-4.6214-4.3953-6.9164-0.25444-1.8499-0.64713-3.9613-0.87265-4.6921-0.28309-0.91736 1.8666-1.9177 6.9441-3.2313 4.0448-1.0464 9.7588-3.205 12.698-4.7969l5.3438-2.8943 0.48982 2.6256c0.2694 1.4441 0.78878 5.3214 1.1542 8.6163 0.36539 3.2949 2.3586 10.72 4.4293 16.5 3.9058 10.902 10.456 25.39 9.4993 21.009-0.3004-1.375-1.1959-5.425-1.9899-9-1.8851-8.4872-1.8576-23.556 0.0731-40.123 0.85336-7.3224 1.6409-13.379 1.75-13.458 0.10913-0.0797 5.1113-1.386 11.116-2.9027 6.0046-1.5168 12.31-3.3395 14.011-4.0504 4.1733-1.7437 12.298-9.0106 13.138-11.751 0.37345-1.2179 2.164-4.6894 3.9791-7.7144 1.815-3.025 4.1153-7.8625 5.1118-10.75 0.99646-2.8875 2.0539-5.25 2.3498-5.25 0.29595 0 3.0028 1.6199 6.0153 3.5997 21.264 13.975 35.287 31.777 42.544 54.008 2.908 8.9083 4.8439 24.736 3.8893 31.798-0.94379 6.9822-4.3952 15.825-9.3118 23.858-2.2676 3.7047-3.7262 6.7359-3.2413 6.7359 2.0352 0 12.643-12.942 15.351-18.73 5.7022-12.185 5.9619-29.647 0.69452-46.701-2.0575-6.6615-2.0716-7.0708-0.4425-12.877 0.92542-3.2982 3.8552-10.091 6.5107-15.095 8.5021-16.021 11.983-29.737 11.983-47.216 0-6.8912-0.64237-14.367-1.6055-18.685-3.332-14.937-12.649-30.293-28.72-47.337-4.2212-4.4768-7.6749-8.4538-7.6749-8.8379 0-0.38407 2.0776-5.9463 4.6169-12.36 8.6138-21.758 9.7296-27.637 9.8055-51.662l0.0664-21-3.1777-9c-3.2535-9.2148-7.6029-24.559-7.0946-25.028 0.15591-0.14403 3.9777-1.2535 8.4929-2.4654 4.5152-1.212 8.7047-2.8004 9.3101-3.5298 0.9042-1.0895 0.48872-1.1384-2.3275-0.27411-4.8242 1.4806-12.143-0.93393-12.307-4.0599-0.063-1.2055 0.27445-2.4323 0.75-2.7262 0.47556-0.29391 0.86497-0.17033 0.86536 0.27463 0.00038 0.44496 1.136 0.87458 2.5237 0.95471 1.9822 0.11446 4.2837-1.7742 10.737-8.8112 4.5176-4.9263 10.793-12.401 13.946-16.612 7.8108-10.43 17.513-30.478 19.949-41.223 2.2756-10.036 3.4216-13.508 8.4154-25.5 3.2093-7.7066 3.8104-10.365 4.1822-18.5 0.75935-16.614-3.8224-31.006-13.294-41.76-2.548-2.8931-8.9814-8.1388-14.296-11.657-5.315-3.5184-12.814-9.1622-16.664-12.542-14.649-12.86-33.596-23.5-51-28.641-7.4674-2.2058-11.622-2.743-24.4-3.1548-10.102-0.32551-17.243-0.0838-20.757 0.70259-5.1926 1.162-5.6713 1.0761-15.6-2.7991-5.6339-2.1988-11.481-4.3056-12.993-4.6816-1.5125-0.37605-2.75-1.0675-2.75-1.5366 0-2.864 26.342-6.5387 40.012-5.5818 16.12 1.1284 35.31 7.5253 50.365 16.788 6.7253 4.1381 3.8724 0.78601-3.718-4.3685-7.8688-5.3436-20.358-11.117-30.177-13.951-6.8525-1.9773-10.175-2.2955-23.482-2.2494-16.609 0.05761-23.634 1.2895-33.75 5.9184-3.8512 1.7623-5.25 2.95-5.25 4.4577 0 2.216 1.578 2.8213 2.2329 0.8565 0.26235-0.78705 2.266-0.05526 5.8333 2.1305 6.0366 3.6988 13.203 9.1328 12.703 9.6326-0.17778 0.17778-2.1899-0.0962-4.4715-0.60882-6.253-1.405-13.528 0.36202-24.798 6.0228-26.452 13.287-44.076 32.415-93.54 101.52-24.581 34.342-52.065 62.585-77.107 79.237-3.7818 2.5148-6.6788 4.7696-6.4376 5.0108 0.8051 0.8051 13.999-6.6969 21.085-11.989 3.85-2.8752 13.47-11.535 21.379-19.243 16.202-15.793 33.549-36.953 56.621-69.07 20.297-28.254 36.185-47.913 49.746-61.556 17.799-17.907 35.084-28.138 47.821-28.304 9.1397-0.11903 15.325 2.8546 19.683 9.463 1.7875 2.7106 3.25 5.1585 3.25 5.4399 0 1.2445 4.6181 4.9709 5.8187 4.6952 1.88-0.43172 4.1813 1.722 4.1813 3.9132 0 2.297 3.7583 4.2832 11.25 5.9456 3.1625 0.70174 5.7444 1.7668 5.7376 2.3668-0.007 0.59998-1.5206 2.0674-3.3639 3.2608l-3.3515 2.17-2.5864-3.17c-2.5349-3.1068-2.7795-3.177-12.282-3.5214-20.655-0.74883-38.279 6.155-54.173 21.222-10.242 9.7086-15.613 16.644-33.103 42.748-37.683 56.239-67.339 87.897-95.715 102.18-6.672 3.3574-15.114 6.0506-21.913 6.9909l-3 0.41489 3.0201 0.14983c4.7949 0.23788 17.259-3.633 25.453-7.905 12.266-6.3951 24.484-16.281 42.527-34.408 20.783-20.881 31.682-33.81 57.126-67.77 20.965-27.982 32.655-40.789 42.874-46.972 12.922-7.8185 23.037-10.195 36.5-8.5751 4.675 0.56244 9.9458 1.0866 11.713 1.1648 1.7671 0.0782 3.7696 0.6988 4.45 1.3792 0.68038 0.68038 1.957 1.237 2.837 1.237s2.14 0.54 2.8 1.2 1.2 0.87585 1.2 0.47968c0-0.39618 1.8334 0.21499 4.0742 1.3582 5.8746 2.997 3.9354 4.8845-4.903 4.7724-7.843-0.0995-12.65 1.5941-22.671 7.9869-13.686 8.7309-26.117 21.466-42.289 43.324-3.9152 5.2917-20.925 30.492-37.799 56-44.147 66.736-52.453 78.033-69.809 94.953-29.454 28.713-61.582 41.961-88.525 36.501-4.5669-0.92538-8.4962-1.4898-8.7317-1.2543-0.7849 0.7849 7.4153 3.5848 14.114 4.819 5.1082 0.94122 8.8545 0.95573 16.457 0.0637 21.849-2.5634 44.684-14.814 67.337-36.124 16.758-15.764 21.308-22.09 76.225-105.97 10.438-15.943 19.11-28.854 19.271-28.693 0.38616 0.38615-8.3196 15.965-11.782 21.085-3.8802 5.7366-11.966 22.134-11.966 24.266 0 2.9452-12.24 33.719-19.194 48.256-20.167 42.161-40.744 69.872-62.693 84.426-17.588 11.663-43.139 21.53-96.113 37.116-25.922 7.6268-34.987 10.397-52 15.888-9.625 3.1067-21.884 7.0544-27.242 8.7725-5.3582 1.7182-9.5604 3.3056-9.3383 3.5278 1.2232 1.2232 87.846-19.455 114.58-27.352 74.808-22.097 96.814-38.241 128.4-94.197 3.7973-6.7261 7.0835-12.05 7.3028-11.831 0.2193 0.2193-1.1665 5.2874-3.0795 11.263-1.913 5.9751-5.7495 18.064-8.5255 26.864-3.6861 11.685-6.4087 18.276-10.096 24.439-14.111 23.588-29.358 38.452-48.217 47.003-9.0715 4.1132-29.804 9.3476-55.789 14.086-32.152 5.8621-80.599 18.1-74.47 18.811 1.6002 0.18568 4.4982-0.15305 6.4399-0.75273 6.9114-2.1345 44.759-10.976 53.57-12.515 4.9282-0.86057 15.907-2.907 24.397-4.5475 8.49-1.6406 15.584-2.8349 15.765-2.654 0.58139 0.5814-15.923 8.223-24.86 11.51-16.101 5.9224-35.346 9.3249-59.341 10.492-3.85 0.1872 0.875 0.22056 10.5 0.0741 26.222-0.39891 44.272-5.0782 69.821-18.1 6.7764-3.4538 15.776-7.2381 20-8.4094 22.559-6.2565 40.456-19.173 55.258-39.88 3.2568-4.5561 5.9214-7.7853 5.9214-7.176 0 2.2589-9.2498 21.589-14.491 30.283-9.4781 15.722-16.689 25.016-29.009 37.391-10.45 10.496-12.904 12.434-19 15-3.85 1.6209-9.7 4.3955-13 6.1657-23.061 12.371-29.938 14.478-47.5 14.556-13.533 0.0596-19.319-1.1336-35.902-7.4046-17.899-6.7685-28.82-8.6876-40.819-7.1729-19.588 2.4724-42.638 15.749-49.529 28.527-1.9044 3.5316-2.3526 8.7765-0.75 8.7765 0.55 0 1-0.41374 1-0.91941 0-1.8436 10.504-12.348 16.247-16.248 10.981-7.4567 24.72-12.794 33.003-12.82 5.0393-0.0159 4.8498 1.7062-0.80102 7.2771-5.6814 5.6012-11.888 8.9195-31.2 16.681-32.278 12.972-50.337 27.033-59.862 46.607-5.313 10.919-7.3867 20.717-7.3867 34.904 0 9.9281 2.1958 24.409 4.1726 27.519 0.70517 1.1092 0.82185 0.84871 0.44787-1-4.4845-22.168-1.8894-46.626 6.5785-62 4.9511-8.989 10.682-15.764 18.891-22.332 11.619-9.2963 21.22-13.966 36.3-17.657 27.429-6.7131 41.439-13.826 48.657-24.702l1.4539-2.1909 11 4.494c6.05 2.4717 12.238 4.9641 13.75 5.5388 1.5125 0.57464 2.75 1.3984 2.75 1.8306 0 1.249-7.6337 7.8093-13.307 11.436-9.5767 6.1217-27.074 14.227-41.193 19.08-17.486 6.0114-36.845 14.285-45.436 19.417-21.248 12.694-32.883 29.332-36.501 52.195-2.0215 12.774-2.0582 18.362-0.21279 32.39 2.8719 21.831 8.6254 39.963 16.591 52.288 3.8574 5.9681 8.283 10.212 10.648 10.212 0.74742 0 1.5907 1.6264 1.9444 3.75 3.5465 21.292 11.494 37.612 23.79 48.854 9.7367 8.9018 22.248 14.561 31.176 14.102 3.3136-0.17043 4.0549-0.59262 4.3201-2.4602zm-68.987-76.49c-15.174-25.841-20.975-67.947-12.914-93.75 5.4088-17.315 19.641-32.31 40.583-42.76 8.2455-4.1144 34.22-14.432 38.5-15.292 23.186-4.6625 50.313-15.815 60.203-24.75 3.8069-3.4393 3.835-3.4464 8.4725-2.148 4.9793 1.3941 10.917 1.6713 21.324 0.99563 6.2659-0.40683 6.5124-0.33422 6.8458 2.0165 0.1902 1.3412 0.74712 2.928 1.2376 3.5261 1.1681 1.4245-1.3519 11.053-4.4961 17.179-3.1499 6.1371-6.4236 10.489-12.862 17.097-7.5418 7.741-11.985 10.492-29.544 18.293-39.383 17.497-50.977 25.327-73.264 49.482-12.624 13.682-26.093 31.313-29.324 38.388-3.9105 8.5621-5.6922 16.564-6.3153 28.364-0.53086 10.053-0.6816 10.688-1.9588 8.25-0.76101-1.4524-1.6101-2.6408-1.8869-2.6408-0.27679 0-0.03741 0.87042 0.53194 1.9343 1.2843 2.3998 1.3015 3.0657 0.07929 3.0657-0.52574 0-2.8717-3.2625-5.2133-7.25zm189.21-46.1c-0.0225-0.4671 1.5079-3.3921 3.401-6.5 6.8144-11.187 8.0729-16.682 7.9364-34.651-0.13517-17.786-0.68857-20.557-11.281-56.5-6.4278-21.81-8.0969-28.931-8.0969-34.542 0-4.1397 0.24913-4.5447 3.9602-6.438 2.1781-1.1112 4.3695-2.0203 4.8699-2.0203 0.50035 0 1.447 2.8125 2.1037 6.25 0.65669 3.4375 3.4483 16.15 6.2036 28.25s5.6428 26.725 6.4166 32.5c1.8014 13.444 1.8098 33.642 0.0173 42-2.4864 11.594-7.4179 23.577-11.611 28.213-2.1328 2.358-3.8963 3.905-3.9189 3.4379zm130.33-12.708c-3.4301-1.0283-9.9009-7.5835-11.414-11.563-2.4078-6.3331 2.5566-16.024 9.7479-19.029 4.327-1.8079 11.338-1.7114 14.058 0.19346 3.0477 2.1347 8.1607 9.7788 8.8013 13.158 0.71413 3.7673-4.2648 13.227-8.137 15.46-3.8479 2.2189-9.1717 2.9448-13.056 1.7803zm3.6318-37.311c0-2.4556 2.2793-5.6315 4.0417-5.6315 1.6913 0 2.0307 0.52583 1.7748 2.75-0.24853 2.16-0.90645 2.8179-3.0664 3.0664-1.5125 0.17403-2.75 0.0908-2.75-0.1849zm-14-21.262c-17.367-2.4871-27.518-5.8059-43.5-14.221-15.456-8.139-26.025-15.69-48.374-34.562l-7.0034-5.9139-1.1505-7.0861c-0.63278-3.8974-1.5605-8.1198-2.0615-9.3832-0.50107-1.2634-0.91103-4.6609-0.91103-7.55s-0.51846-5.7714-1.1521-6.4051c-0.8695-0.8695-0.48397-1.4566 1.5716-2.3931 1.7824-0.8121 2.9582-0.89432 3.4021-0.23789 3.2496 4.8051 7.4183 9.2189 12.108 12.819 6.6197 5.0824 52.491 31.85 66.051 38.543 17.873 8.822 44.542 19.084 59.818 23.017l4.2986 1.1068-4.8326 4.7319c-7.4701 7.3146-10.071 8.1878-23.916 8.0286-6.5169-0.0749-12.974-0.29729-14.349-0.4942zm161.77-16.67c-7.3002-14.181-24.712-32.735-39.857-42.472-3.3957-2.1832-5.8225-4.4677-5.8551-5.5117-0.0571-1.8312 8.6343-25.632 9.8421-26.952 1.0949-1.1966 10.862 5.9554 18.589 13.612 7.6194 7.5501 15.835 18.989 19.319 26.897 3.2954 7.4804 4.4937 15.695 4.0083 27.477-0.61837 15.008-1.422 15.932-6.0458 6.9502zm-119.27-5.3558c-16.685-1.8717-49.211-14.935-83.5-33.536-10.175-5.5197-21.875-11.843-26-14.053-8.1679-4.3744-31-18.949-30.951-19.757 0.0169-0.275 3.9432-2.3 8.725-4.5 30.283-13.933 56.158-35.057 71.995-58.778 18.018-26.986 30.083-58.421 43.073-112.22 2.7886-11.55 6.408-25.5 8.043-31s4.8311-16.525 7.1024-24.5c2.5316-8.8887 6.4288-19.354 10.071-27.043 3.2677-6.8986 5.9414-13.199 5.9418-14 0.001-3.8858 18.157-28.913 29.943-41.276 7.5971-7.9692 19.548-17.654 21.806-17.671 0.6875-0.005 1.25 0.83529 1.25 1.868 0 2.3828 2.5207 4.5203 4.4552 3.778 0.81439-0.31251 1.7056-0.20434 1.9804 0.24038 0.27485 0.44472 3.5518 1.073 7.282 1.3963 11.861 1.0277 17.332 2.7406 19.349 6.058 4.2322 6.9593 8.4014 36.872 7.383 52.971-0.431 6.8131-0.0606 12.263 1.437 21.144 1.1097 6.5805 1.8527 12.129 1.6511 12.331-0.20159 0.2016-1.2755-0.11992-2.3864-0.71448-5.122-2.7412-15.393-0.38963-38.848 8.894l-16.197 6.4108-1.1822 5.0571c-1.7802 7.6156-3.1109 9.0377-2.6265 2.8071 0.22449-2.8875 0.0965-5.25-0.28453-5.25-2.4495 0-4.2759 14.102-2.0079 15.504 2.5553 1.5793 23.69-7.4061 34.994-14.878 13.074-8.6415 20.334-12.626 23.004-12.626 3.2588 0 8.9044 3.7856 9.5638 6.413 0.355 1.4144-1.1356 6.4816-4.0205 13.667-6.2611 15.595-5.8766 15.162-9.531 10.743-1.6722-2.0221-4.6571-4.21-6.633-4.8621-5.3047-1.7507-21.912-0.78182-26.633 1.5538-2.0625 1.0204-3.75 2.1514-3.75 2.5133 0 0.36194 3.0375 0.0701 6.75-0.64845 3.7125-0.71859 9-1.2822 11.75-1.2524l5 0.0541-5 1.3064c-2.75 0.71854-6.6666 1.5941-8.7036 1.9457-2.037 0.35162-6.1852 2.3103-9.2184 4.3527-6.283 4.2307-15.401 14.49-16.188 18.213-0.61858 2.9276-1.887 5.8199-3.5972 8.202-1.7612 2.4532-0.77627 2.8488 3.7354 1.5002 2.5944-0.77549 10.029-1.0864 21.437-0.89657 21.293 0.35441 25.269-0.43721 32.288-6.4287 4.2452-3.6236 5.3054-4.131 6.0083-2.875 1.1398 2.0367 4.355 18.827 5.734 29.943 2.0685 16.674-1.8523 40.561-10.414 63.448-2.55 6.8164-4.8109 14.241-5.0242 16.5-0.41776 4.4242-1.2063 6.7635-7.4519 22.107-15.803 38.822-24.145 60.954-27.182 72.113-3.0705 11.283-6.5884 17.924-13.312 25.129-3.2394 3.4712-6.1111 6.09-6.3815 5.8196-0.27043-0.27043-1.4123 0.00099-2.5374 0.60315-5.9201 3.1683-29.97 5.5511-42.191 4.1801zm30.662-46.832c5.3142-0.007 9.9891-0.33812 10.389-0.73523 0.96619-0.96011-3.8734-2.7463-7.8659-2.9031-1.7517-0.0688 1.0901-0.73398 6.3151-1.4782 12.439-1.7716 17.717-4.2522 21.75-10.222 3.7375-5.5317 5.2594-9.3166 5.2232-12.99-0.0246-2.4974-0.47725-2.2104-6.48 4.1078-3.5495 3.736-8.1501 7.5087-10.224 8.3838-3.2894 1.3883-19.27 2.4714-36.382 2.4659-3.2685-0.001-12.821-3.9459-23.888-9.8647-9.4709-5.0652-9.4446-4.9117 0.5 2.9243 13.618 10.731 25.823 17.655 28.982 16.443 0.83488-0.32038 1.518-0.35563 1.518-0.0784 0 0.27729-2.025 1.3722-4.5 2.4331-5.8336 2.5006-5.7297 3.4978 0.25 2.3991 2.6125-0.48 9.0979-0.87866 14.412-0.88593zm46.336-29.363c0.79362-3.162-0.91772-5.0039-3.2759-3.5258-1.8392 1.1528-2.7384 4.5887-1.8243 6.9708 0.80388 2.0949 4.303-0.26864 5.1002-3.445zm-39.498-5.244c0-1.434 6.169-3.586 14.092-4.916 4.0743-0.68391 8.3632-1.6037 9.5309-2.0439 1.1677-0.44026 2.5177-0.43592 3 0.01 0.48233 0.44557 3.0178 1.1158 5.6344 1.4894 6.9623 0.99405 7.0588-0.90842 0.4635-9.141-6.7224-8.3913-8.0285-9.5453-13.896-12.277-4.6389-2.16-4.6902-2.1618-6.6297-0.22234-1.075 1.075-4.2445 2.7152-7.0432 3.6448-4.6937 1.559-5.7286 1.5695-13.335 0.13492l-8.246-1.5553-7.5357 4.929c-8.4463 5.5245-12.851 7.5528-24.74 11.392-9.2956 3.002-10.544 3.136-13.281 1.4264-1.7005-1.062-2.4234-0.77261-5.4864 2.1962-1.9403 1.8806-3.5278 4.006-3.5278 4.7232 0 1.5993 2.4187 1.6853 5.2207 0.18571 3.0391-1.6265 53.294-1.1977 58.993 0.50337 4.3411 1.2956 6.7861 1.1231 6.7861-0.47882zm-52-5.3355c0-0.23597 2.5552-1.1719 5.6783-2.0798s11.382-4.0938 18.353-7.0798l12.675-5.429 4.397 1.943c5.6806 2.5101 14.381 3.7184 15.361 2.1332 0.57922-0.93719 10.83-6.0586 12.127-6.0586 0.18821 0 2.6222 2.025 5.409 4.5 2.7867 2.475 5.5017 4.5 6.0334 4.5 2.0524 0 0.82701 1.8152-2.0221 2.9953-1.9234 0.79669-4.8905 1.0003-8.3242 0.57132-3.4285-0.42836-7.9639-0.11859-12.689 0.8667-4.0446 0.84334-8.9612 1.2799-10.926 0.97014-1.9645-0.30976-9.6469 0.1472-17.072 1.0154-12.602 1.4737-29 2.1251-29 1.152zm60.352-43.606c11.174-4.3161 21.36-10.288 24.016-14.08 0.89734-1.2811 1.6315-3.8042 1.6315-5.6068 0-2.5642-0.41744-3.2775-1.9182-3.2775-3.2003 0-5.1906 1.156-6.0976 3.5416-0.47443 1.2478-6.1774 5.9753-12.673 10.505-15.924 11.105-16.244 11.345-16.28 12.203-0.0462 1.1026-0.0185 1.0946 11.321-3.2852zm-16.352-4.9686c0-0.55209 1.4625-0.88959 3.25-0.75 3.0788 0.24044 3.2662 0.0592 3.5571-3.441 0.269-3.2366-0.0659-3.8876-2.7003-5.25-3.8747-2.0037-8.1226-1.9676-14.762 0.12534-5.1728 1.6306-5.3983 1.6206-7.5879-0.33816-1.2411-1.1103-3.6678-2.5748-5.3925-3.2546-4.1104-1.62-9.3641-6.8138-9.3641-9.2574 0-2.1119 3.9364-4.1664 10.25-5.35 4.7225-0.88525 4.7607-1.9917 0.12177-3.5227-7.791-2.5713-15.381 2.5803-15.362 10.427 0.0118 4.9503 3.8869 13.688 7.5944 17.124 3.9379 3.6496 9.9102 3.4992 12.093-0.30446l1.6044-2.7955 7.0991 3.7692c7.318 3.8854 9.5991 4.5551 9.5991 2.818zm32.192-35.157c-1.6036-4.0364-5.438-13.464-8.521-20.95-9.7518-23.68-13.774-43.952-10.344-52.139 0.96672-2.3074 2.2447-3.75 3.3221-3.75 1.3184 0 1.4672-0.28378 0.60238-1.1486-1.7878-1.7878-5.8602 1.4336-7.2903 5.7668-3.0626 9.2798 1.3598 32.49 10.106 53.039 4.5802 10.761 14.275 28.819 14.733 27.443 0.16913-0.50739-1.0045-4.225-2.6082-8.2614zm-36.162-38.769c-0.65259-4.1632-2.0762-11.117-3.1636-15.454-1.0874-4.3363-1.7539-8.4659-1.481-9.1769 0.27285-0.71103-0.19085-1.8629-1.0304-2.5597-0.83959-0.6968-2.4207-3.1692-3.5136-5.4941-1.0929-2.325-2.6462-4.4802-3.4519-4.7894-2.3914-0.91765-2.8142 2.338-0.67876 5.2264 1.0889 1.4728 2.6909 4.0531 3.5601 5.734 1.8771 3.6299 9.6789 31.65 9.8455 35.36 0.0894 1.992 0.22866 2.1415 0.60808 0.65301 0.27065-1.0618-0.0419-5.3368-0.69443-9.5zm104.65 198.93c0.63701-11.105-1.5168-28.56-4.7084-38.156-4.5364-13.64-16.113-27.959-29.747-36.793-2.875-1.8629-5.2272-3.6909-5.2272-4.0622 0-3.5267 8.9546-23.988 10.498-23.988 1.7841 0 15.484 14.615 22.237 23.723 10.911 14.716 14.214 25.631 14.304 47.277 0.0493 11.844-0.30878 14.91-2.9197 25-4.4292 17.116-5.0744 18.134-4.4357 7zm-8.683-30.719c-5.7267-9.5653-19.148-23.882-28.529-30.432l-7.2717-5.0771 1.4944-4.3859c0.82195-2.4123 1.8068-4.386 2.1884-4.386 1.4158 0 17.105 13.179 21.122 17.742 2.2877 2.599 5.6464 7.4328 7.4636 10.742 3.1039 5.6519 9.1593 22.245 8.3858 22.978-0.19428 0.18427-2.3782-3.0473-4.8532-7.1814zm-235.82-50.52c19.238-22.159 33.636-48.044 43.817-78.774 1.7267-5.2119 6.7538-17.943 11.171-28.292 4.4175-10.349 7.8261-19.021 7.5748-19.273-0.25136-0.25136-1.9341 2.8157-3.7394 6.8156-1.8053 4-3.4581 6.7837-3.6729 6.1861-0.58015-1.6144 13.939-45.509 21.152-63.947 7.4758-19.11 10.028-24.271 23.966-48.466 12.043-20.906 15.491-25.517 9.7224-13-7.0248 15.242-13.045 35.833-17.688 60.5-8.6381 45.895-21.008 86.167-34.585 112.6-10.569 20.575-29.805 46.504-43.432 58.542-6.4981 5.7405-17.233 13.35-18.841 13.356-0.47967 0.002 1.5696-2.8093 4.554-6.2468zm165.82-142.5c0-1.2336 3.8986-6.2515 4.857-6.2515 0.3915 0 1.5093 1.35 2.484 3 1.7592 2.9781 1.7553 3.0001-0.53439 3.0136-1.2686 0.008-3.319 0.285-4.5565 0.61664-1.2375 0.33163-2.25 0.16118-2.25-0.3788zm17-0.44989c-4.8392-1.0584-8.5-3.7814-9.325-6.9364-0.38504-1.4724 0.65378-2.8258 4.1558-5.4142 5.8509-4.3245 8.8484-5.2004 10.872-3.1766 1.9045 1.9044 0.96385 3.5418-2.9896 5.2041-2.914 1.2253-2.9502 1.3116-0.83099 1.9842 1.4151 0.44915 3.1417 0.0964 4.779-0.9764 2.255-1.4775 2.4883-2.1493 1.9392-5.5829-0.60723-3.7974-0.54405-3.9033 2.3286-3.9033 3.6067 0 4.2352 0.91768 4.3166 6.3026 0.0858 5.6789-2.5911 10.526-6.7801 12.276-1.8708 0.78167-3.5284 1.373-3.6836 1.3141-0.15517-0.0589-2.3071-0.54999-4.7821-1.0913zm15.224-1.5516c3.6374-4.1486 4.9519-8.3326 4.2412-13.5l-0.69344-5.0419 4.3639 0.68797c4.573 0.72092 8.1983 3.5549 9.3026 7.2722 1.3422 4.518-8.4758 12.332-15.495 12.332-3.0168 0-3.1421-0.12751-1.7195-1.75zm34.333-27.75c0.82188-2.75 2.1925-8.15 3.0457-12 0.85328-3.85 1.9897-8.446 2.5254-10.213 0.75762-2.4995 0.50805-4.721-1.1234-10-1.1536-3.7326-2.2726-10.387-2.4867-14.787-0.90058-18.508-2.7398-39.47-4.036-46-0.88033-4.4346-3.4231-11-6.9385-17.914-3.0519-6.0029-5.4342-11.029-5.294-11.169 0.62392-0.62392 14.419 6.4738 15.901 8.1814 5.4913 6.3262 13.585 25.92 15.837 38.338 1.8101 9.9823 1.607 25.479-0.47585 36.3-1.6892 8.7759-1.6509 12.236 0.11592 10.469 1.3234-1.3234 4.4125-16.58 5.0022-24.705 1.1792-16.248-4.034-39.065-11.836-51.803-3.3882-5.5318-1.362-4.6247 4.8294 2.1621 5.9894 6.5654 6.8032 7.8715 12.548 20.14l3.2779 7 0.32904-5.3075c0.89492-14.435-10.975-34.49-26.52-44.808-7.2996-4.8452-18.452-9.1527-29.76-11.494-4.95-1.0251-9.0704-1.8697-9.1564-1.8769-0.086-0.007 0.0669-0.86714 0.3399-1.9109 0.72421-2.7694-1.2527-5.8001-4.947-7.5841-1.7801-0.85961-4.3408-2.4115-5.6904-3.4487l-2.454-1.8857 4.8855-0.73262c8.1846-1.2274 37.062 0.24586 47.022 2.399 11.259 2.4336 16.37 4.6598 24.116 10.504 8.7164 6.576 15.338 15.595 18.935 25.792 2.2057 6.2518 3.5733 19.728 2.5729 25.354-0.83447 4.6922-0.9013 4.4153-1.0858-4.5-0.10811-5.225-0.42354-8.9375-0.70095-8.25-0.95689 2.3714-1.9636 1.2346-3.2086-3.6233-1.5978-6.2344-8.8505-18.644-13.797-23.608-4.11-4.1241-11.954-9.4113-16.832-11.346-6.6082-2.6208-24.027-5.3668-22.153-3.4924 0.37441 0.3744 3.893 1.4965 7.819 2.4935 3.9261 0.99704 9.2755 3.1842 11.888 4.8604 10.041 6.4432 19.002 18.842 23.103 31.965 2.0423 6.5359 2.3398 9.4924 2.3149 23-0.0328 17.737-1.1898 24.354-6.0717 34.722-1.8703 3.9723-4.5348 9.7874-5.9213 12.923-5.1477 11.64-14.666 27.005-20.971 33.855l-6.4438 7 1.4943-5zm-126.55-85.02c0-2.205 18.6-25.147 28.47-35.117 11.584-11.701 20.115-17.938 29.171-21.326 5.7171-2.139 13.358-2.7299 13.358-1.0329 0 0.55-0.38492 1-0.85538 1-0.47045 0-3.8191 2.7157-7.4414 6.0349s-10.325 8.0909-14.895 10.604c-18.661 10.262-31.271 20.547-43.355 35.361-4.6162 5.6594-4.4536 5.4959-4.4536 4.4764zm26.643-15.71c3.1265-4.0333 15.459-14.998 16.122-14.335 0.53366 0.53366-6.765 7.5456-14.753 14.174l-3.488 2.8941 2.1189-2.7334zm46.107-55.081c-2.0625-0.57084-3.75-1.3779-3.75-1.7934 0-0.41555 1.35-1.7168 3-2.8917 3.9237-2.7939 3.7866-4.6033-0.54212-7.1574-7.3892-4.3598-2.4502-5.9286 19.042-6.0484 14.195-0.0791 17.095 0.20181 25.708 2.49 8.3999 2.2317 26.792 10.048 26.792 11.386 0 0.25343-0.42301 1.2512-0.94003 2.2172-0.86411 1.6146-1.5303 1.6529-8.25 0.47395-10.451-1.8336-39.637-1.7221-47.81 0.1826-3.575 0.83321-7.175 1.6642-8 1.8467s-3.1875-0.13524-5.25-0.70607zm57.75-16.1c-16.367-7.3678-42.541-9.2291-56.699-4.0319-2.3658 0.86847-5.0084 1.8056-5.8725 2.0826-1.001 0.32085-3.541-1.5587-7-5.1799-2.9859-3.1259-8.0164-8.3484-11.179-11.606-3.1625-3.2572-5.75-6.089-5.75-6.293s4.3572-0.69758 9.6826-1.0968c17.657-1.3238 39.527 2.7924 56.1 10.559 8.568 4.0151 23.82 13.591 26.184 16.441 1.678 2.0218 0.57569 1.8455-5.4667-0.87448zm-490.39 431.88c-5.7876-6.5917-7.1104-10.444-7.1027-20.682 0.01794-23.793 9.8978-43.93 25.015-50.986 12.206-5.697 43.284-9.2454 72.978-8.3326 10.007 0.30764 13.106 0.17168 10-0.43882-6.3715-1.2524-34.624-1.2313-47.576 0.0356-9.5414 0.93324-19.332 2.6581-25.924 4.567-1.8742 0.54279-1.8952 0.46991-0.33338-1.159 0.91664-0.95602 5.8666-3.2489 11-5.0953 9.4225-3.3892 7.5546-3.7282-4.311-0.78237-7.51 1.8645-9.1428 1.7724-10.624-0.59872-0.68696-1.1-1.8232-2-2.5249-2-1.5819 0-4.0001-4.0482-6.0369-10.106-2.4302-7.2277-0.87077-24.568 2.9023-32.274 1.5572-3.1803 4.036-6.7959 5.5083-8.0348 4.0961-3.4466 20.104-8.2878 31.887-9.643 11.959-1.3755 19.406-0.95169 44.176 2.5143 46.738 6.5399 70.786 5.5884 102.64-4.061 11.474-3.476 26.653-9.295 25.986-9.962-0.18508-0.18508-6.6192 1.6894-14.298 4.1656-32.176 10.376-41.549 11.838-71.354 11.129-17.452-0.41492-26.838-1.1704-41.114-3.3093-14.668-2.1975-21.918-2.7626-35-2.728-16.642 0.0439-16.783 0.0646-33 4.8308l-2.5 0.73475 2-2.0612c2.7508-2.8349 18.363-10.517 27.748-13.654 9.8937-3.3068 21.818-5.0719 43.752-6.4762 25.535-1.635 51.202-4.0465 53.5-5.0267 1.1-0.46914 4.25-1.4106 7-2.0922 17.843-4.4223 53.315-20.579 62.5-28.468 3.025-2.598 5.6336-5.0692 5.7969-5.4917 0.16329-0.42249-4.5617 1.6018-10.5 4.4983-11.775 5.7433-33.323 14.056-48.297 18.632-14.721 4.4984-30.959 6.76-56.449 7.862-28.906 1.2496-38.045 1.9098-47.806 3.4533-4.2648 0.67439-7.999 0.98129-8.2983 0.68201-0.73357-0.73358-4.3093-8.7112-6.0263-13.445-1.2219-3.3687-1.1935-4.2126 0.23535-7 2.3198-4.5254 5.7283-8.4055 12.725-14.486 12.724-11.058 25.416-17.797 46.118-24.489 19.203-6.2073 32.661-9.0414 65.078-13.705 24.622-3.5425 32.472-4.9887 27.076-4.9887-3.4928 0-38.707 4.1664-51.654 6.1115-17.337 2.6046-48.844 9.4786-54.5 11.89-1.1 0.46909-6.4239 2.2848-11.831 4.0349l-9.8309 3.182-3.6691-2.9562c-8.5397-6.8805-14.114-20.44-14.907-36.263-0.58358-11.637 1.0613-18.701 7.2019-30.927 8.4841-16.893 13.652-22.876 66.999-77.573 30.939-31.722 42.919-44.872 49.421-54.25 2.9149-4.2043 1.7743-4.2043-1.6901 0-8.9789 10.896-56.34 56.808-56.892 55.151-0.61394-1.8418 5.5718-18.384 11.181-29.901 9.6198-19.752 23.123-38.079 42.019-57.029 27.529-27.609 53.219-42.878 83.5-49.63 8.9942-2.0055 13.081-2.3294 28.5-2.2585 20.076 0.0923 31.914 2.0597 41.441 6.8871 6.9945 3.5444 13.333 9.3776 12.723 11.709-0.39027 1.4924 0.093 1.7997 2.6803 1.7046 1.736-0.0638 2.4134-0.31323 1.5052-0.55429-0.90814-0.24106-2.1982-1.759-2.8668-3.3732-3.0626-7.3939-14.229-13.934-28.934-16.947-29.02-5.9455-59.281-2.1698-86.337 10.772-15.198 7.2702-23.302 12.437-35.711 22.768-34.878 29.038-62.103 68.412-70.46 101.9l-1.7347 6.9515-18.796 19.549c-10.338 10.752-20.307 21.438-22.153 23.747-1.8461 2.3091-3.6518 4.2216-4.0127 4.25-0.36087 0.0284 1.7297-4.644 4.6458-10.383 7.661-15.078 13.77-34.797 17.988-58.065 5.124-28.267 17.609-60.714 30.012-78 21.725-30.277 64.605-54.289 103.62-58.024 3.5168-0.33669 7.0691-0.83611 7.8941-1.1098 3.5362-1.1732 35.877-0.30599 44 1.1799 13.807 2.5257 15.529 2.769 14.931 2.1102-1.1806-1.3014-20.193-4.6049-33.039-5.7408-17.516-1.5487-40.424-0.6564-53.262 2.0748-37.662 8.0123-68.978 26.82-88.744 53.297-3.1973 4.2829-9.9339 15.953-14.97 25.933-10.944 21.687-17.169 39.691-22.396 64.78-2.0056 9.625-4.3221 20.152-5.1479 23.394-0.82579 3.2416-1.5269 7.7399-1.5581 9.9961-0.063 4.5617 0.11397 4.2694-17.547 28.984-18.984 26.566-23.783 39.306-21.304 56.557 2.5704 17.891 9.1402 32.429 18.99 42.023l4.7985 4.6739-6.1906 5.0941c-3.4049 2.8017-7.9614 7.6685-10.126 10.815-3.6038 5.2394-3.9224 6.2363-3.784 11.842 0.09818 3.978 1.0609 8.3754 2.75 12.561 2.9879 7.4033 3.0896 8.0604 1.2479 8.0604-2.2799 0-10.526 4.7953-18.275 10.627-11.785 8.87-24.834 27.699-28.863 41.65-1.2723 4.4053-1.5905 8.8185-1.3397 18.582 0.3177 12.367 0.4283 12.935 3.2406 16.618 2.648 3.468 2.7612 3.9234 1.25 5.0284-0.91391 0.66826-1.6617 1.7901-1.6617 2.493 0 0.70286-1.8359 3.2696-4.0798 5.704-4.634 5.0273-10.104 15.936-12.435 24.798-2.1358 8.12-2.1563 23.661-0.03893 29.5 2.299 6.3403 6.0912 11.747 9.844 14.035 4.7363 2.8878 5.3014 2.4024 1.8197-1.5631zm115.35-242.31c1.9133-2.5907 1.8731-2.5824-1.6778 0.3457-2.0009 1.65-3.6706 3.3413-3.7103 3.7585-0.12454 1.3084 3.3394-1.3302 5.3881-4.1042zm17.623 0.8748c19.992-7.2963 45.339-24.265 61.496-41.169 11.199-11.717 18.812-23.247 37.998-57.548 33.636-60.136 42.18-73.546 56.498-88.675 9.8819-10.442 16.975-16.403 30.487-25.623 9.7013-6.62 10.219-8.0577 0.87942-2.4413-8.2636 4.9693-19.12 13.26-26.929 20.565-14.386 13.457-25.179 29.171-49.018 71.363-29.958 53.023-37.396 64.28-53.428 80.86-18.571 19.206-48.581 38.255-68.067 43.206-8.1081 2.0599-8.5228 2.4344-2.6955 2.4344 2.6497 0 8.1275-1.2736 12.778-2.9709zm-13.955-5.7791c1.2439-1.5861 1.2085-1.6214-0.37756-0.37756-1.6658 1.3064-2.1955 2.1276-1.3724 2.1276 0.20765 0 0.99515-0.7875 1.75-1.75zm94.602-1.8542c-0.3323-0.33229-1.1948-0.36781-1.9167-0.0789-0.79773 0.31922-0.56078 0.55618 0.60417 0.60416 1.0542 0.0434 1.6448-0.19293 1.3125-0.52522zm-18.465-1.0998c-1.2299-0.23736-3.4799-0.24351-5-0.0136-1.5201 0.22985-0.51375 0.42406 2.2362 0.43157 2.75 0.007 3.9937-0.18056 2.7638-0.41792zm-68.134-6.9982c5.0592-6.6012 7.1851-10.19 3.4342-5.7979-3.4376 4.0256-8.7974 11.5-8.2463 11.5 0.24309 0 2.4086-2.566 4.8121-5.7021zm49.968 2.8404c27.261-9.3793 51.606-32.441 109.4-103.64 34.682-42.723 53.257-60.233 75.999-71.642 10.862-5.449 9.5764-5.6012-2.7521-0.32589-21.246 9.0912-40.076 26.651-75.565 70.468-42.714 52.737-67.624 79.263-85.683 91.24-10.812 7.171-20.836 12.232-28.294 14.286-4.1513 1.143-4.3414 1.3063-1.6126 1.3852 1.7014 0.0492 5.5284-0.74833 8.5045-1.7722zm-34.103-25.083c-0.008-0.94369-4.9208 5.3848-4.9591 6.3886-0.0198 0.51935 1.089-0.58057 2.464-2.4443s2.4978-3.6386 2.495-3.9443zm11.308-18.451c8.9118-15.417 30.108-56.526 29.473-57.161-0.24162-0.24163-3.1908 5.0723-6.5538 11.809-10.094 20.219-20.298 39.004-33 60.748l-1.4603 2.5 1.9829-2.3958c1.0906-1.3177 5.3916-8.2927 9.5577-15.5zm33.613-66.104c0-0.55-0.86228 0.575-1.9162 2.5s-1.9162 3.95-1.9162 4.5 0.86228-0.575 1.9162-2.5 1.9162-3.95 1.9162-4.5zm4-9c0-0.55-0.86228 0.575-1.9162 2.5s-1.9162 3.95-1.9162 4.5 0.86228-0.575 1.9162-2.5 1.9162-3.95 1.9162-4.5zm8.7892-17.732c4.0744-8.3974 6.9588-14.818 6.4097-14.268-1.1495 1.1515-15.115 28.943-15.115 30.079 0 1.722 1.669-1.3095 8.7054-15.811zm16.201-29.125c13.549-20.404 29.544-37.34 44.992-47.637 4.4557-2.97 8.1012-5.5454 8.1012-5.7232 0-1.0752-8.8781 4.5491-16.538 10.477-8.9671 6.9394-20.062 18.465-28.628 29.74-5.7594 7.5806-15.852 23.034-15.774 24.153 0.0323 0.46567 0.59484 0.0109 1.25-1.0107 0.65515-1.0215 3.6242-5.5215 6.598-10zm225.7-58.912c-10.19-9.069-24.31-19.217-33.41-24.019-16.59-8.746-39.01-14.755-62.99-16.882-20.582-1.8253-32.251 0.49778-29.386 5.8501 1.4013 2.6184 5.0373 3.3151 17.3 3.3151 33.472 0 82.669 15.136 106.87 32.878 7.7367 5.6725 8.594 5.0669 1.6176-1.1426zm-80.618-5.2007c0-0.25565-1.0125-0.95547-2.25-1.5552-2.1606-1.047-2.1729-1.0286-0.30887 0.46482 2.0403 1.6346 2.5589 1.8556 2.5589 1.0904zm-8.2708-4.1394c-0.33229-0.33229-1.1948-0.36782-1.9167-0.07895-0.79773 0.31923-0.56078 0.55618 0.60417 0.60417 1.0542 0.04342 1.6448-0.19293 1.3125-0.52522z"/>
</svg>
