<?xml version="1.0" encoding="UTF-8" standalone="no"?>
<!-- Created with Inkscape (http://www.inkscape.org/) -->
<svg id="svg3396" xmlns:rdf="http://www.w3.org/1999/02/22-rdf-syntax-ns#" xmlns="http://www.w3.org/2000/svg" height="1062.5" viewBox="0 0 1062.5 1062.5" width="1062.5" version="1.1" xmlns:cc="http://creativecommons.org/ns#" xmlns:dc="http://purl.org/dc/elements/1.1/">
 <metadata id="metadata3402">
  <rdf:RDF>
   <cc:Work rdf:about="">
    <dc:format>image/svg+xml</dc:format>
    <dc:type rdf:resource="http://purl.org/dc/dcmitype/StillImage"/>
    <dc:title/>
   </cc:Work>
  </rdf:RDF>
 </metadata>
 <path id="path3406" fill="#fff" d="m728.07 1024.9c-4.2756-4.9951-8.4774-15.285-10.163-24.889-0.4224-2.4062-1.6067-8.0312-2.6319-12.5-1.0251-4.4688-2.2694-12.625-2.7651-18.125l-0.90128-10-3.133 5.625c-3.534 6.3448-8.4139 8.0508-12.487 4.365-2.1445-1.9408-2.3785-1.907-3.6834 0.53131-1.7259 3.2249-6.2069 3.3728-10.199 0.33677-6.5363-4.9704-15.747-9.8874-20.024-10.69-2.4829-0.4658-7.2331-2.2233-10.556-3.9055-5.3498-2.7084-6.2738-2.8485-8.0698-1.2232-3.519 3.1846-6.7836 2.0552-17.578-6.0814-10.421-7.8552-16.019-11.742-27.304-18.958-3.2253-2.0625-9.7647-6.6199-14.532-10.128-4.7672-3.5076-14.574-9.6643-21.793-13.681-17.78-9.91-34.39-20.32-49.38-30.97-29.78-21.14-120.34-89.57-121.08-91.48-0.44-1.15-0.8-3-0.8-4.1 0-1.1026-1.1277-3.2051-2.506-4.6722-2.7296-2.9055-4.887-15.424-4.9554-28.755-0.0304-5.9189-0.52735-7.817-2.3434-8.9512-1.8939-1.1828-2.4548-3.7288-3.1463-14.28-0.46284-7.0625-0.97255-12.949-1.1327-13.081-0.16015-0.13215-3.3849-0.48436-7.1662-0.7827l-6.875-0.54245-0.34482 40.7c-0.46997 55.471-3.2023 78.7-14.839 126.15-5.924 24.157-7.1138 27.672-9.3689 27.672-0.80451 0-0.96025-0.87393-0.38982-2.1875 0.52247-1.2031 3.6495-12.875 6.9489-25.938 6.4647-25.594 11.652-53.76 13.582-73.75 1.5315-15.861 2.247-91.578 0.90034-95.28-1.0031-2.7571-0.97398-2.764 3.5995-0.85305 2.5548 1.0675 7.186 1.7662 10.386 1.5671l5.7755-0.35935 0.81387 6.8374c0.44764 3.7606 0.86952 10.353 0.9375 14.65 0.10976 6.938 0.40348 7.8125 2.6236 7.8125 2.2493 0 2.5039 0.8462 2.5386 8.4375 0.0213 4.6406 0.5751 12.656 1.2308 17.812 0.95428 7.5038 1.8033 9.9102 4.2537 12.056 1.9522 1.7099 2.835 3.5474 2.4363 5.0717-0.3438 1.3147 0.39655 3.5768 1.6452 5.0269 2.5041 2.9081 103.99 78.712 122.9 91.795 20.559 14.228 41.307 26.578 65.069 38.732 5.1975 2.6585 13.067 8.1942 17.5 12.31 4.4306 4.1139 8.3564 7.4859 8.724 7.4933 0.36759 0.007 6.8168 4.5136 14.332 10.014 7.5148 5.5 14.353 10 15.195 10 2.4131 0 3.1683-2.2184 1.6934-4.9742-0.74347-1.3892-1.1131-2.5258-0.82141-2.5258 0.2917 0 4.3787 2.2488 9.0823 4.9974 4.7035 2.7486 10.532 5.347 12.951 5.7742 4.404 0.77765 15.527 6.4083 21.13 10.697 5.4209 4.1487 8.7767 1.6736 6.3576-4.6891-1.1576-3.0448-0.95407-2.9841 4.2263 1.2608 2.9934 2.4529 6.3575 4.4597 7.4759 4.4597 1.1183 0 3.1276-2.1094 4.465-4.6875s4.096-6.6518 6.1302-9.0526l3.6985-4.3651-0.61294 8.7401c-0.58793 8.3839 0.26813 14.788 5.3425 39.966 2.2839 11.332 6.6139 21.354 11.011 25.485l2.9944 2.8132-0.62782-11.012c-0.42994-7.541 0.23042-17.316 2.0951-31.012 3.2956-24.206 3.2255-23.95 6.7981-24.847 1.5787-0.39624 5.345-3.8217 8.3696-7.6121 5.1395-6.4408 5.5661-6.7108 6.5221-4.1266 2.3773 6.4264 7.3088 6.2078 13.578-0.60191 9.28-10.08 13.346-17.495 19.02-34.688 6.4341-19.494 22.482-77.44 29.772-107.5 3.4131-14.074 7.9253-27.97 14.207-43.75 16.49-41.4 21.82-62.03 21.82-84.47 0-10.71-0.33-12.99-1.88-12.99-1.2879 0-1.875-1.2917-1.875-4.125 0-2.2688-0.55247-4.6775-1.2277-5.3527-0.80364-0.80364-0.39546-3.5886 1.1817-8.0625 1.3252-3.7591 5.0654-16.34 8.3116-27.957 5.2693-18.858 5.7581-21.662 4.5584-26.157-1.0281-3.8518-0.96653-5.6438 0.26213-7.6275 1.2091-1.9522 1.3437-5.1375 0.54485-12.89-1.1009-10.684-7.8506-33.754-10.524-35.971-0.84083-0.69733-1.9009-2.9621-2.3557-5.0328-0.65639-2.9885 0.85656-7.6708 7.336-22.703 4.8267-11.198 8.1629-20.705 8.1629-23.262 0-2.3778 0.80107-5.8674 1.7802-7.7546 3.3572-6.4709 3.6189-14.499 0.75048-23.014-6.134-18.208-17.919-74.529-16.248-77.651 0.63285-1.1825 2.572-7.6205 4.3092-14.307 2.682-10.323 3.1581-14.918 3.1551-30.457-0.004-21.06-1.6944-37.015-5.2479-49.531-1.6936-5.9653-2.4223-11.995-2.2786-18.856 0.37246-17.781-4.9029-28.128-24.249-47.562-12.941-13-30.257-24.962-52.771-36.457-8.1541-4.1631-18.358-10.41-22.675-13.883-39.899-32.092-90.063-53.499-142.7-60.897-11.322-1.5912-19.992-1.8706-40.073-1.2915-29.361 0.84682-36.647 1.6555-69.375 7.7003-13.062 2.4126-28.414 5.2408-34.113 6.2849-28.095 5.1463-58.875 19.555-87.693 41.052-29.181 21.768-48.574 45.185-65.533 79.134-3.1581 6.322-6.2562 13.635-6.8845 16.25-0.62838 2.6155-2.6021 10.111-4.3859 16.658-9.205 33.779-12.713 72.334-10.772 118.39 2.5946 61.549 5.8405 87.971 13.112 106.73 0.61713 1.592-0.31004 2.1914-4.4011 2.8456-11.044 1.766-19.937 9.264-19.949 16.82-0.002 1.6129-0.97813 6.1129-2.1679 10-1.6356 5.3436-2.168 11.641-2.1828 25.817-0.0179 17.072 0.3447 20.19 4.0517 34.838 4.0836 16.137 10.494 36.129 13.502 42.11 1.4966 2.9752 1.3695 3.2884-1.825 4.4942-4.5962 1.7349-13.461 15.376-19.968 30.726-6.6693 15.733-9.4758 31.305-8.3953 46.581 0.43767 6.1875 1.0859 18.281 1.4406 26.875 0.35462 8.5938 0.93091 17.469 1.2806 19.722 1.2037 7.7566 3.0095 2.6101 3.0095-8.5772 0-13.422 2.3893-21.188 9.9403-32.307 5.4245-7.988 20.712-24.638 19.592-21.338-7.9284 23.354-11.687 41.351-14.488 69.375-4.9634 49.654-18.178 87.076-35.947 101.8-6.7657 5.6057-16.702 8.3082-23.344 6.349-7.0408-2.0768-17.738-10.375-21.963-17.036-2.6589-4.1926-3.6923-5.0433-4.2766-3.5204-0.99242 2.5862 13.766 17.564 19.159 19.444 5.1351 1.7901 4.9597 4.0148-0.23464 2.9761-13.641-2.7277-23.655-8.8457-27.893-17.043-2.1094-4.079-2.3606-11.277-0.46005-13.178 0.94537-0.94536 0.75502-1.5562-0.65335-2.0966-3.7408-1.4355-6.9307 3.5403-6.9307 10.811 0 12.149 9.8392 23.413 24.718 28.298 11.694 3.839 36.777 4.8447 52.436 2.1025 15.028-2.6319 33.468-8.5823 45.971-14.834 11.002-5.5016 25.432-14.779 28.834-18.539 1.1983-1.3241 2.7126-2.4075 3.365-2.4075 2.0968 0-1.1353 51.228-3.3732 53.466-1.6707 1.6707-1.9023-1.1813-0.79871-9.8348 0.64928-5.091 1.5428-15.909 1.9856-24.039l0.80505-14.783-9.7837 6.8251c-25.43 17.71-58.2 28.35-87.38 28.35-30.267 0-46.171-6.0345-55.762-21.158-2.93-4.62-3.54-6.95-3.54-13.52 0-6.7604 0.45488-8.392 3.0682-11.005 5.6265-5.6265 10.037-2.9171 8.7143 5.3536-1.2336 7.7144 4.2852 15.864 14.093 20.811 6.1215 3.0875 6.3164 2.4387 0.70947-2.3606-5.5065-4.7134-11.028-14.513-9.873-17.522 1.2658-3.2986 4.4297-1.9624 6.9222 2.9234 5.0279 9.8555 18.664 19.458 27.632 19.458 24.44 0 44.809-42.646 51.278-107.36 1.7681-17.688 5.535-40.203 8.522-50.938 1.2914-4.6406 2.2252-8.4375 2.0752-8.4375-1.2307 0-12.95 16.715-16.037 22.871-3.4225 6.8276-3.9669 9.3803-4.5583 21.373-0.54497 11.051-1.0776 13.875-2.8247 14.972-4.2126 2.646-5.2835-0.85345-6.184-20.207-0.47045-10.111-1.2433-24.29-1.7175-31.509-0.64301-9.7888-0.34346-16.093 1.1784-24.802 3.0888-17.676 14.208-41.907 23.989-52.278l4.447-4.7152-5.0525-15.04c-9.9818-29.713-13.278-48.025-12.328-68.491 0.35877-7.7267 1.5536-17.705 2.6551-22.174 1.1015-4.4688 2.3256-9.7613 2.7201-11.761 1.0565-5.3554 7.7171-11.273 15.57-13.834 3.7812-1.233 7.0216-2.3595 7.2008-2.5033 0.17921-0.14382-0.47031-2.518-1.4434-5.276-5.1358-14.556-8.4937-46.147-10.736-101-2.1823-53.393 1.5858-87.734 14.744-134.38 2.572-9.1164 14.633-33.026 22.772-45.144 31.204-46.457 88.941-85.274 140.29-94.316 6.3526-1.1188 18.582-3.3906 27.175-5.0485 30.595-5.9026 49.132-8.1087 74.375-8.8519 27.906-0.8216 42.898 0.41573 65.625 5.4163 42.454 9.341 88.417 30.867 118.75 55.616 4.4688 3.646 15.438 10.489 24.375 15.207 25.72 13.577 39.631 23.36 54.382 38.245 9.6834 9.7712 14.443 15.713 18.123 22.626 4.746 8.9155 5.0069 9.9877 5.322 21.875 0.19223 7.2525 1.3191 16.182 2.6842 21.27 3.5097 13.082 5.1069 28.952 5.1108 50.781 0.002 16.897-0.42696 21.208-3.1677 31.756-1.7442 6.713-3.6112 12.992-4.1488 13.952-0.53765 0.96074 0.0781 6.9205 1.3686 13.244 5.3821 26.375 11.394 51.905 14.313 60.776 3.3671 10.235 3.3173 19.064-0.15127 26.853-0.9473 2.1272-2.0356 6.3989-2.4185 9.4926-0.38288 3.0938-4.0826 13.404-8.2216 22.912l-7.5255 17.287 3.5929 7.713c7.764 16.667 9.2476 23.612 9.6325 45.09l0.35624 19.877-5.6595 20.123c-3.1127 11.068-6.4506 22.221-7.4176 24.785-2.0492 5.4338-1.1443 15.467 1.4861 16.477 2.4268 0.93123 2.2898 26.18-0.21355 39.377-2.7305 14.394-9.2709 34.534-20.028 61.671-6.35 16.02-10.846 29.898-14.207 43.856-7.0394 29.234-26.901 100.06-32.041 114.26-4.2669 11.787-9.2722 19.814-18.372 29.463-4.801 5.0905-9.6223 6.0035-14.322 2.712-2.5582-1.7918-2.923-1.6214-6.7662 3.1609-2.2342 2.7802-5.2648 5.3567-6.7347 5.7256-2.4554 0.61627-2.9048 2.4352-5.5326 22.398-1.79 13.598-2.6887 25.834-2.4019 32.703 0.55623 13.324-1.1286 14.686-8.0966 6.5459zm-38.111-75.398c-10.952-9.6578-18.291-13.687-21.654-11.887-3.1588 1.6905-2.8978 3.496 1.1325 7.8331 1.8906 2.0346 2.5938 3.2353 1.5625 2.6682-3.6358-1.9993-11.919-7.8831-15.625-11.099-2.0625-1.7896-4.1259-3.2546-4.5853-3.2554-2.2747-0.004-4.7897 1.7062-4.7897 3.2572 0 0.95769-0.50339 1.7413-1.1186 1.7413-1.0157 0-14.565-9.3774-24.513-16.965-4.8509-3.7-9.3681-4.0318-9.3681-0.68801 0 1.2908 0.85734 3.0585 1.9052 3.9281 1.0479 0.86965 1.6356 1.8508 1.3061 2.1803-0.79425 0.79427-15.038-10.653-21.28-17.103-3.3883-3.5008-5.6453-4.8854-7.173-4.4005-1.589 0.50431-9.5021-5.1712-27.556-19.764-33.9-27.41-72.59-56.24-133.81-99.7l-14.967-10.625-3.6699-10c-2.4326-6.6286-4.0284-14.021-4.7332-21.926-1.4039-15.746-4.8972-36.044-6.8755-39.949-3.233-6.3819-6.2704-29.688-11.241-86.25-1.7218-19.594-3.4575-37.535-3.8572-39.87-0.39971-2.3348-0.16157-4.5944 0.52919-5.0213 1.4559-0.89979 2.162-29.635 0.80898-32.921-0.49534-1.2031-1.3492-2.1875-1.8976-2.1875-0.54832 0-2.7399-3.0884-4.8702-6.8631-4.4609-7.9043-18.353-19.689-29.333-24.883-6.9719-3.2982-19.058-6.536-27.031-7.2415-5.1044-0.45164-4.4832 2.4705-8.3204-39.137-1.8354-19.902-2.2556-34.687-2.0604-72.5 0.25976-50.32 1.2125-64.433 6.0154-89.105 5.5118-28.314 12.649-49.058 18.833-54.734 21.12-19.388 93.112-28.38 143.99-17.984 17.049 3.4834 33.714 8.8331 54.34 17.444 9.7468 4.0692 17.894 7.2257 18.105 7.0145 0.77798-0.77798-29.458-15.744-42.781-21.175-17.972-7.3266-37.662-13.78-50.743-16.632-8.4634-1.845-15.611-2.2658-36.757-2.164-29.769 0.14337-47.233 2.555-65.62 9.0616-5.8177 2.0587-10.809 3.5116-11.092 3.2285-0.28304-0.28303 2.7295-4.8886 6.6946-10.235 9.2489-12.47 32.78-35.579 49.683-48.793 11.325-8.8526 38.269-26.552 40.421-26.552 0.38876 0 0.3486 1.1287-0.0892 2.5082-1.2465 3.9274 3.8694 5.26 9.4172 2.4531 11.62-5.8795 39.399-13.502 70.585-19.369 27.439-5.162 67.868-6.8511 91.512-3.8233 35.094 4.4943 76.052 17.326 110.81 34.715 18.688 9.35 22.26 12.52 6.28 5.5739-15.181-6.5991-17.212-6.5799-5.1588 0.049 18.667 10.266 33.307 21.528 51.697 39.768 15.397 15.271 18.263 18.766 22.503 27.439l4.8587 9.9393-0.0579 15.686c-0.0485 13.148-0.50236 16.798-2.8049 22.561-2.8227 7.0643-11.041 17.741-15.488 20.121-2.362 1.2641-2.3472 1.1266 0.25718-2.396 3.2616-4.4116 2.4306-7.2114-1.5139-5.1004-1.4194 0.75965-5.1133 3.3144-8.2087 5.6771-3.0954 2.3628-5.8276 4.0964-6.0715 3.8525-0.24392-0.2439 1.5394-4.1777 3.963-8.7418 2.4235-4.5641 5.2164-12.121 6.2064-16.793 2.3578-11.127 2.328-29.234-0.0633-38.414-6.5734-25.237-28.148-48.342-60.032-64.29-17.341-8.6737-22.645-9.5192-9.3117-1.4846 12.825 7.7284 30.917 23.089 38.973 33.088 7.4189 9.2089 14.143 21.924 16.617 31.421 3.7764 14.499 1.8476 37.069-4.1878 49.005l-3.4994 6.9206-0.79621-12.995c-2.4472-39.943-23.284-74.004-61.179-100.01-15.869-10.89-28.197-16.226-77.802-33.675-16.079-5.6563-40.802-10.879-55-11.62-5.5-0.2868-8.3125-0.27417-6.25 0.0281 14.397 2.1097 36.068 7.2351 43.75 10.347 1.375 0.55704 6.7188 2.5595 11.875 4.45 14.301 5.2431 39.263 18.471 52.5 27.821 16.458 11.625 41.64 36.813 50.541 50.553 12.429 19.187 16.931 32.592 16.911 50.36-0.0113 9.5582-1.3601 18.7-3.0023 20.342-0.7411 0.74109-5.2888-1.4095-21.324-10.084-6.3504-3.4353-9.1396-6.216-18.196-18.141-49.555-65.246-118.52-96.853-220.44-101.03-30.407-1.2463-57.634 3.0972-76.824 12.256-8.1588 3.8937-21.418 15.368-21.418 18.535 0 1.0528 1.6001 0.2275 4.0625-2.0953 16.051-15.141 53.681-23.082 96.579-20.38 61.629 3.8818 119.67 22.892 161.43 52.871 7.6783 5.5127 10.38 8.5849 19.077 21.694 5.5727 8.3995 14.729 20.128 20.348 26.064l10.216 10.792-4.9181-0.84831c-27.13-4.6795-69.811-20.267-91.235-33.32-6.151-3.7476-12.871-7.8378-14.934-9.0894-10.617-6.4427 8.346 8.192 26.208 20.226l19.958 13.446-6.7909 1.081c-4.3762 0.69657-9.8878 0.5695-15.5-0.35739-12.567-2.0754-41.038-11.643-61.999-20.834-9.9688-4.3713-16.854-6.9694-15.3-5.7736 3.6709 2.825 40.073 22.259 43.737 23.35 4.5806 1.364 3.2033 3.0694-1.875 2.3217-4.5068-0.66353-17.883-3.0842-54.062-9.7835-23.018-4.2622-32.123-5.3797-34.02-4.1757-1.0758 0.68263-0.57474 1.0269 1.5203 1.0447 1.7188 0.0146 14.656 2.8568 28.75 6.3162 14.094 3.4593 30.364 7.1165 36.155 8.1271 5.7916 1.0106 10.807 2.1144 11.146 2.453 0.33856 0.33857-9.1813 0.61688-21.155 0.61845-11.974 0.001-34.99 0.39504-51.146 0.87435-42.329 1.2558-29.986 2.8831 28.125 3.7081 36.242 0.5145 49.278 0.29172 55-0.93993 10.785-2.3213 22.712-1.5853 41.25 2.5456 16.377 3.6492 29.835 5.5434 49.375 6.9491 5.8438 0.42041 16.057 1.8546 22.696 3.1872 6.6392 1.3325 15.747 2.4228 20.24 2.4228 7.703 0 9.3434 0.5805 28.795 10.19 20.047 9.904 20.714 10.133 23.728 8.1583 1.7057-1.1176 3.4188-3.0324 3.8068-4.255 0.73337-2.3107 5.927-4.5608 15.999-6.9314 5.1274-1.2068 6.2091-1.0972 8.3576 0.84723 2.382 2.1556 2.6945 2.1102 8.9644-1.3022 3.573-1.9447 9.856-6.5335 13.962-10.197 4.1062-3.6639 7.7262-6.4014 8.0444-6.0832 0.31819 0.31817-1.4289 3.3727-3.8824 6.7877-2.4535 3.4151-4.4609 6.812-4.4609 7.5487 0 3.1316 2.6616 2.4318 8.5979-2.2606 3.4807-2.7514 6.6723-5.0025 7.0923-5.0025 0.42005 0-0.40715 1.8945-1.8382 4.21-5.32 8.608-1.8821 10.902 6.773 4.5199 8.2587-6.09 10.245-6.8514 12.655-4.8512 2.9144 2.4184 9.0418 16.461 11.154 25.561 1.1939 5.1447 1.9756 19.542 2.4432 45 1.0493 57.132 4.4176 85.508 12.393 104.41 0.62166 1.4733-0.52823 2.5614-4.5313 4.2879-12.67 5.4644-59.194 31.531-63.933 35.821l-5.1814 4.6897 3.9808 0.0512c5.2697 0.0679 19.772-3.0095 32.747-6.9487 12.692-3.8534 31.538-8.061 32.75-7.3118 0.84054 0.51947-3.3691 21.745-4.5461 22.922-0.31134 0.31134-1.8295-0.57809-3.3736-1.9765-1.5442-1.3984-3.9326-3.1648-5.3076-3.9252-2.2264-1.2314-2.0213-1.3973 1.875-1.5158l4.375-0.13311-4.375-1.6848c-2.4982-0.96206-9.4691-1.7163-16.25-1.7582-19.237-0.11888-37.906 5.0065-47.003 12.904-5.7923 5.0285-4.9755 7.3656 0.98528 2.8191 4.7936-3.6562 15.802-8.6207 17.707-7.9856 0.71434 0.23811-1.9231 2.2763-5.861 4.5294-9.3896 5.3722-14.017 9.3598-16.396 14.128-2.6343 5.2806-1.4239 5.9171 3.0682 1.6134 2.0482-1.9623 3.8704-3.3275 4.0495-3.0339 0.17905 0.29363 1.6892 2.0807 3.3559 3.9714l3.0304 3.4375-8.0304-0.006-8.0304-0.006-1.875-5.9309c-1.9923-6.3021-5.695-8.36-9.4438-5.2488-3.6605 3.038-1.4494 32.458 4.5991 61.193 3.0716 14.593 17.593 66.418 18.388 65.624 1.2907-1.2907-2.9191-29.477-9.148-61.249-7.069-36.057-8.8636-48.094-6.8738-46.104 0.66263 0.66262 1.5672 3.9946 2.0101 7.4043 0.44292 3.4097 1.7025 7.2303 2.7991 8.4902 2.9176 3.3521 9.8422 5.9574 17.67 6.6479 3.7812 0.33361 9.125 1.117 11.875 1.7409 6.4055 1.4532 6.875 1.4495 6.875-0.0545 0-0.6875-0.5414-1.25-1.2031-1.25-3.6559 0-15.199-5.5865-19.295-9.3382-4.6199-4.2316-11.741-6.7435-14.421-5.087-0.8566 0.52875-1.3311-0.95752-1.3311-4.17v-4.992l29.688-0.39428c28.332-0.37627 29.909-0.525 34.533-3.2576 2.6648-1.5748 4.9796-2.6998 5.144-2.5 0.16441 0.19981 1.248 3.269 2.408 6.8205 1.16 3.5514 4.51 11.163 7.4444 16.913 2.9345 5.751 6.3384 13.251 7.5642 16.668l2.2288 6.2115-3.8066 11.875c-2.0936 6.5312-5.0527 16.516-6.5758 22.188-1.5231 5.6719-3.127 10.312-3.5642 10.312-0.84746 0-4.1498-9.6114-6.3632-18.52-0.73727-2.9674-4.6356-12.249-8.6629-20.625-4.0273-8.3763-7.7071-17.198-8.1772-19.605-1.716-8.7829-6.824-12.686-10.618-8.1141-1.2315 1.4838-1.2641 4.2337-0.15306 12.897 0.77668 6.0562 1.4121 13.113 1.4121 15.683 0 3.3538 1.3575 6.6794 4.8129 11.79 11.826 17.493 17.383 27.607 18.215 33.156 1.447 9.6493 1.0741 79.793-0.44537 83.766-0.7474 1.9546-3.342 11.517-5.7657 21.25-2.4237 9.7329-5.2268 19.665-6.2289 22.071-1.7773 4.2674-1.8039 4.1598-1.0818-4.375 1.5998-18.908-7.5112-38.772-20.965-45.707-8.6041-4.4355-29-6.1079-36.524-2.995-1.488 0.61557-2.1798 0.49096-1.875-0.33772 0.51-1.43 20.87-15.36 22.41-15.36 0.50871 0 1.2487-0.84375 1.6444-1.875 1.0472-2.729 4.4009-2.2956 7.2551 0.9375l2.4828 2.8125-0.89341-3.125c-0.49137-1.7188-0.97077-5.7036-1.0653-8.8552-0.27-9-5.24-14.88-9.23-10.89-1.1667 1.1667-1.5 0.90529-1.5-1.1762 0-3.9436-2.327-4.6916-3.6631-1.1774-1.2006 3.1578-6.8294 5.8536-12.222 5.8536-1.6899 0-2.6731 0.54875-2.2397 1.25 1.0808 1.7488 12.309 1.5664 14.104-0.22916 2.4008-2.4008 2.7734-0.64125 0.98533 4.652-1.279 3.7861-2.811 5.4885-6.5062 7.2301-15.38 7.2487-29.198 17.966-29.221 22.663-0.007 1.6283-1.6805 3.5161-4.6 5.1913l-4.5878 2.6325-5.333-4.0708c-2.9332-2.2389-9.0279-5.3004-13.544-6.8032-4.516-1.5028-9.0817-3.6032-10.146-4.6675-3.1187-3.1187-28.054-1.5138-42.362 2.7264-32.563 9.6502-70.143 36.679-78.274 56.298l-2.8505 6.8774h-12.688c-12.632 0-12.718-0.0206-19.457-4.6975-3.72-2.58-16.33-10.83-28.01-18.33-39.02-25.04-66.26-47.58-78.93-65.29-17.39-24.32-28.57-68.95-30.19-120.43-0.441-14.094-1.016-24.219-1.2779-22.5-0.26183 1.7188-0.99668 3.7596-1.633 4.5352-2.3246 2.8336-3.9094 23.72-3.1653 41.715 1.622 39.225 10.114 75.095 22.88 96.65 6.5617 11.079 26.235 31.975 39.89 42.371 18.266 13.906 60.077 37.545 79.951 45.203 6.2068 2.3916 14.778 6.3226 19.047 8.7357 4.2692 2.4131 8.7534 4.3468 9.965 4.2971 1.2116-0.0498 3.1453 0.3101 4.2973 0.79957 1.4655 0.62268 2.7171-0.0604 4.1678-2.2744 1.9391-2.9594 1.9308-3.4057-0.12803-6.8911-1.9219-3.2535-1.9756-4.0149-0.42348-5.9962 20.501-26.169 39.753-37.721 81.164-48.702 10.347-2.7439 24.83-4.2076 42.837-4.3292 2.2267-0.015 13.587 6.6174 19.985 11.668l3.4469 2.7208 5.3031-5.1476c3.9427-3.827 7.824-5.9855 15.13-8.4138 5.9096-1.9644 10.394-2.8345 11.25-2.183 0.78298 0.59577 6.2025 1.788 12.043 2.6494 23.561 3.4746 28.063 8.4757 35.69 39.645 1.8268 7.4653 3.7608 14.371 4.2977 15.345 0.56506 1.0256-0.29554 5.5003-2.0435 10.625-5.0127 14.696-15.97 53.077-25.546 89.478-10.031 38.132-12.32 43.264-18.671 41.869-4.8466-1.0645-10.188 1.9304-19.654 11.02-6.0408 5.8006-7.8181 6.9508-7.8181 5.0592 0-5.4834-4.9088-6.9306-10-2.9481-4.135 3.2345-7.867 3.1424-9.3911-0.23164-0.67865-1.5024-1.9694-2.9663-2.8683-3.2531-1.6721-0.53353-13.049 10.358-19.673 18.834l-3.6924 4.7247-9.1659-8.0827zm18.54-70.75c0-3.1267 0.49944-3.75 3.005-3.75 2.7817 0 3.0109-0.48772 3.0844-6.5625 0.0691-5.7181-2.7133-18.885-5.6132-26.562-0.83913-2.2216-0.70942-2.3089 1.1647-0.78445 1.16 0.94356 2.109 2.4904 2.109 3.4375 0 2.5815 2.1166 2.0732 2.8369-0.68135 0.34566-1.3218-0.46944-4.2087-1.8113-6.4152-2.2819-3.7522-2.2929-3.9464-0.17019-3 3.8532 1.7181 14.145 2.2088 14.145 0.67448 0-0.88895 1.8021-1.1589 5.0294-0.75341 2.8392 0.35672 6.0611-0.0125 7.3985-0.84761 1.8524-1.1569 2.8001-1.1218 4.3456 0.16084 2.7009 2.2415 2.5388 3.6912-1.7808 15.93-2.0665 5.855-4.3663 14.57-5.1105 19.367-1.2136 7.8221-1.1191 8.9802 0.91671 11.23 2.8908 3.1943 4.8073 2.8375 23.382-4.3531 18.644-7.2175 26.936-11.859 30.493-17.069 3.3315-4.8799 5.8113-12.972 4.1471-13.533-0.63378-0.21365 0.19971-3.9805 1.8522-8.3707 3.48-9.23 8.08-34.17 8.08-43.75 0-3.6079-0.90179-10.553-2.004-15.434-2.6454-11.714-8.4628-18.52-20.921-24.475-14.69-7.0222-32.762-8.624-45.002-3.989-4.3837 1.66-21.296 1.6435-25.198-0.0245-1.375-0.5879-10.938-1.0422-21.25-1.0095-20.816 0.066-31.751 2.2871-45.374 9.2161-18.98 9.6537-32.554 29.692-39.442 58.224-2.3879 9.8916-3.2762 19.248-1.9077 20.094 0.60427 0.37346 1.1158-0.0572 1.1367-0.95725 0.0234-1.0051 0.5316-0.78869 1.3176 0.56112 0.7038 1.2086 0.95005 2.7307 0.54723 3.3825-1.3454 2.1768 2.6428 9.3477 9.1716 16.491 7.3798 8.0741 21.605 16.04 38.616 21.625 11.872 3.8978 21.921 5.2834 39.997 5.5152l12.8 0.16v-3.75zm-53.125-13.019c-22.243-5.1825-33.373-12.463-39.791-26.029-4.5954-9.7139-4.7116-23.565-0.27764-33.089 7.5137-16.138 19.688-29.517 32.623-35.851 11.557-5.6589 21.417-7.2258 42.693-6.7844 15.194 0.31524 19.13 0.0581 19.129-1.2498-0.001-1.0604 0.8606-1.373 2.4201-0.87807 1.332 0.42276 3.4594 0.12062 4.7276-0.67135 1.7888-1.1172 3.3266-1.0135 6.859 0.46245 3.938 1.6454 4.6465 1.6592 5.244 0.10225 0.55925-1.4574 1.1526-1.5118 3.1161-0.28555 1.9782 1.2354 3.4163 1.0678 7.8004-0.9092 8.026-3.6192 24.223-3.3661 34.514 0.53925 9.0977 3.4527 17.82 10.634 20.964 17.26 1.8939 3.9911 2.1023 6.8464 1.4456 19.804-0.65454 12.915-1.42 17.015-5.2066 27.894-5.8957 16.938-9.7328 25.348-12.811 28.08-1.3948 1.2378-8.3667 3.9377-15.493 5.9998s-13.936 4.0667-15.133 4.4547c-1.6956 0.54978-0.95776-1.8777 3.3437-11 6.9905-14.825 8.0525-19.985 4.7854-23.252-1.6859-1.6859-3.7788-2.298-6.9922-2.0449-6.3747 0.50202-6.1682-2.7108 0.24009-3.7355 7.57-1.2 21.41-5.77 21.41-7.06 0-0.64076 2.8049-2.3717 6.2331-3.8464 7.4667-3.2121 7.1946-5.5676-0.32805-2.8394-3.9774 1.4425-14.069 2.1609-40.905 2.9122-38.039 1.0649-47.519 0.35513-67.387-5.0451-6.7678-1.8395-9.6288-2.1445-10.625-1.1324-3.5548 3.6113 11.638 8.7872 36.514 12.439 9.4174 1.3826 17.766 2.5169 18.551 2.5206 2.2348 0.01 3.2155 4.0232 1.4217 5.817-1.3218 1.3218-2.8253 1.0378-8.2508-1.5587-5.2575-2.5161-7.007-2.8659-8.4296-1.6852-2.5108 2.0838-2.3492 3.3092 2.5798 19.569 2.4062 7.9375 4.375 15.102 4.375 15.92 0 4.8962-34.882 8.553-49.375 5.1762zm51.25-73.099c35.421-1.4113 42.76-1.971 60.625-4.6234 22.006-3.2672 20.559-2.8192 18.053-5.5883-1.9067-2.1069-3.9065-2.4177-15.434-2.3988-16.235 0.0265-36.193 2.0263-38.386 3.8461-0.92797 0.77016-2.3165 0.8997-3.2409 0.30236-0.88949-0.57481-7.8048-1.3303-15.367-1.6789-13.599-0.62687-13.688-0.65086-8.125-2.1904 3.0938-0.85611 8.5108-2.4065 12.038-3.4454 5.7694-1.6993 7.2746-1.6883 15 0.10937 7.9678 1.854 9.2487 1.8428 17.76-0.15534 9.0313-2.1202 13.468-2.0869 32.077 0.24133 3.5304 0.44169 5.8037 0.30856 5.2243-0.30594-1.5113-1.6029-17.099-6.4612-17.099-5.3293 0 0.53169-2.7636 0.63939-6.1414 0.23934-3.8798-0.45951-9.2885 0.0432-14.688 1.3652-7.8132 1.9131-9.2577 1.9274-16.843 0.16646-7.4763-1.7355-8.7543-1.7351-12.915 0.004-2.5398 1.0612-12.306 3.6054-21.703 5.6538-33.531 7.3095-45.383 10.15-44.798 10.735 0.32649 0.32649 3.8377-0.006 7.8026-0.73904 3.965-0.73296 7.4347-1.107 7.7105-0.8312 0.44067 0.44066-7.3598 2.3705-20.779 5.1406-7.9914 1.6497-1.6295 2.4752 12.541 1.6273 7.8033-0.46692 28.813-1.4316 46.688-2.1439zm12.951 37.409-2.951-2.4584 7.8125-0.0416c4.2969-0.0229 8.0938-0.0416 8.4375-0.0416 0.34375 0 0.64249 0.42188 0.66386 0.9375 0.0214 0.51563-1.5255 1.1214-3.4375 1.3462-1.912 0.22478-4.0107 0.9279-4.6639 1.5625-1.6976 1.6495-2.5408 1.4618-5.8615-1.3046zm18.92-2.54c0-0.6875 0.5625-1.25 1.25-1.25s1.25 0.5625 1.25 1.25-0.5625 1.25-1.25 1.25-1.25-0.5625-1.25-1.25zm-123.42-98.44c12.088-12.203 25.402-25.547 29.585-29.653 7.2225-7.0891 8.4271-9.3363 5.5236-10.304-1.85-0.61-59.19 59.1-59.19 61.64 0 2.1002 4.842-2.2592 24.081-21.681zm116.41-19.256c2.3052-3.2911 0.83263-6.7556-3.7612-8.8486-3.3257-1.5153-18.823 0.10175-31.176 3.253l-6.1558 1.5704 8.1115 1.636c4.4613 0.89981 11.205 2.3492 14.987 3.2208 10.918 2.5168 15.808 2.2909 17.995-0.83154zm-48.71-10.74c-0.4813-3.2656-1.4316-6.2965-2.1117-6.7352-1.8323-1.182 0.1145-3.5772 2.9074-3.5772 1.9899 0 2.4262-0.8831 2.4262-4.9102 0-4.7825 0.17067-4.9732 6.5625-7.3324 10.954-4.0433 22.129-5.7604 27.59-4.2396 3.8341 1.0677 4.5172 1.0167 3.459-0.2583-2.9242-3.5234-13.904-8.2429-22.468-9.6572-15.032-2.4824-22.988 1.1408-31.844 14.5-3.3159 5.0025-4.4043 12.317-2.0494 13.772 0.6875 0.4249 1.25 1.86 1.25 3.1891 0 2.4341 5.9267 8.5839 9.792 10.161 4.7785 1.9491 5.3974 1.2714 4.4861-4.9121zm60.093-28.798c-0.30105-1.864-1.1772-7.4672-1.947-12.452-0.76979-4.9844-1.8581-9.0625-2.4185-9.0625-1.2464 0-0.0697 19.499 1.4189 23.513 1.4181 3.823 3.6431 2.3138 2.9465-1.9987zm-8.6673-81.59c-1.7357-9.7452-2.5362-17.347-1.9066-18.105 1.1448-1.3794-1.044-10.869-6.8578-29.733-1.8713-6.0716-3.2137-11.148-2.9832-11.28 0.23053-0.13268 2.9504-1.0798 6.0442-2.1046l5.625-1.8634-0.38045-9.9812c-0.3754-9.8487-4.114-28.892-6.4616-32.914-1.7235-2.9523-1.6314-1.3697 1.1853 20.371 1.8456 14.245 2.0775 19.103 0.97555 20.43-1.0813 1.3029-4.0604 1.6335-11.82 1.3115-7.4962-0.31103-10.374-0.0127-10.374 1.0754 0.00009 0.82822 1.9689 1.8752 4.3752 2.3266 2.4062 0.45141 4.375 1.5653 4.375 2.4753 0 0.91003 2.2546 9.988 5.0103 20.173s7.006 26.113 9.4451 35.394c5.2131 19.837 5.4298 20.532 6.1717 19.79 0.31252-0.31251-0.7781-8.1272-2.4236-17.366zm-110.08-3.57c18.939-4.2101 29.354-7.8707 32.601-11.458 2.1238-2.3468 2.1577-2.8375 0.40763-5.9113-2.7947-4.9087-10.157-4.508-18.914 1.0294-3.6272 2.2938-10.814 6.6891-15.97 9.7675-15.503 9.2557-16.927 10.184-15.625 10.184 0.6875 0.00026 8.5625-1.6251 17.5-3.6118zm-112.63-15.504c0.88442-0.6642 0.70605-0.85025-0.49993-0.52142-1.0312 0.28118-2.0057 1.5896-2.1655 2.9077-0.20408 1.6838-0.0554 1.8388 0.49993 0.52141 0.43472-1.0312 1.4092-2.3397 2.1655-2.9077zm15.646-4.1432c1.2619-1.0882-1.6542-1.8007-16.852-4.1169-8.893-1.3554-17.435-2.8377-18.982-3.2941-1.6809-0.4959-2.8125-0.29178-2.8125 0.50728 0 1.7034 6.5502 3.5076 19.312 5.3192 5.5348 0.78568 10.584 1.9111 11.22 2.5008 1.017 0.94304 6.7029 0.30097 8.1145-0.9163zm99.479-7.4917c25.232-0.83931 26.875-1.3901 26.875-9.0065 0-9.3978-6.8274-18.24-19.375-25.093l-5-2.7308 6.6487 0.63775c8.0756 0.77463 13.743 4.0846 18.332 10.708 4.1766 6.0268 6.2217 5.4904 3.574-0.93744-4.3021-10.444-12.018-14.843-28.062-15.999-15.404-1.1094-41.031 3.0484-61.33 9.95-12.782 4.3459-38.538 18.814-38.538 21.648 0 1.1252 2.0874 1.6158 6.875 1.6158 3.7812 0 6.875 0.48336 6.875 1.0741 0 1.4902 14.242 6.0205 23.881 7.5965 12.382 2.0244 17.245 2.3432 27.369 1.7939 5.1562-0.27976 19.5-0.84545 31.875-1.2571zm-9.69-6.353-8.44-0.46878 2.0144-3.8955c1.108-2.1425 2.3122-7.1793 2.6762-11.193 0.4275-4.7146 1.223-7.2973 2.2477-7.2973 4.1456 0 14.975 7.2948 20.784 14.001 3.4971 4.0368 6.1444 7.5311 5.8829 7.7653-0.95305 0.85331-16.944 1.5447-25.166 1.088zm-42.371-3.7919c-0.75553-1.8906-1.6479-6.0156-1.9831-9.1666-0.58969-5.544-0.46752-5.7964 3.781-7.8125 2.4147-1.1459 4.9389-2.0834 5.6092-2.0834 0.67034 0 1.4673 2.9531 1.7709 6.5625 0.6391 7.5962 3.2969 13.867 6.1066 14.408 2.7007 0.52011 5.0902-5.0841 6.0102-14.096l0.76564-7.5 4.6875-0.38796 4.6875-0.38795v7.533c0 4.4832-0.85286 9.3215-2.1065 11.95l-2.1065 4.4174h-12.924-12.924l-1.3737-3.4375zm-14.437-0.2415c-8.5585-2.6661-9.0972-3.439-3.9076-5.6074 2.3947-1.0006 5.0812-2.6954 5.97-3.7664 2.4812-2.9896 3.8099-2.3322 3.8099 1.885 0 2.1077 0.56403 4.8861 1.2534 6.1741 1.7861 3.3374 0.26707 3.6176-7.1257 1.3147zm-37.87 3.75c0-0.63876-3.2344-1.7964-7.1875-2.5726-15.599-3.0628-27.459-6.4502-35.096-10.024-8.89-4.16-8.97-4.18-8.97-2.66 0 1.8955 19.056 9.8218 28.75 11.959 5.1562 1.1365 11.344 2.5351 13.75 3.108 6.2043 1.4771 8.75 1.5341 8.75 0.19611zm-109.64-21.34c1.0587-5.1562 2.7971-13.031 3.8631-17.5 3.2982-13.825 2.0542-12.571-2.4791 2.5-2.3782 7.9062-4.6006 17.75-4.9386 21.875-0.76783 9.3694 0.86953 6.2025 3.5546-6.875zm1.7509 7.8125c-0.31-1.2-0.57-0.22-0.57 2.19 0 2.4062 0.25725 3.3906 0.57166 2.1875 0.3144-1.2031 0.3144-3.1719 0-4.375zm1.64-6.63c0-1.4156-0.53794-2.2413-1.1954-1.835-0.65748 0.40634-0.87854 1.5645-0.49126 2.5738 0.99153 2.5839 1.6867 2.2794 1.6867-0.73881zm1.25-6.25c0-1.4156-0.5625-2.2261-1.25-1.8012s-1.25 1.5831-1.25 2.5738c0 0.99068 0.5625 1.8012 1.25 1.8012s1.25-1.1582 1.25-2.5738zm342.27 0.38627c-0.23953-1.2567-1.7412-2.3364-3.5292-2.5374-8.8608-0.99632-8.3417-0.0193-8.9931-16.928-1-25.959-4.5093-24.593-4.6563 1.812-0.10437 18.752 0.26206 19.315 12.816 19.696 3.9181 0.11888 4.704-0.24911 4.3622-2.0425zm-64.211-6.9134c-3.476-1.5258-12.476-5.9372-20-9.8033-23.186-11.914-42.869-18.329-76.18-24.829-7.7809-1.5183-15.22-3.7323-17.137-5.1-1.8628-1.3293-4.8622-2.417-6.6655-2.417-4.757 0-19.194 6.6592-33.725 15.556-6.9565 4.2591-15.27 8.4778-18.474 9.3749-3.2042 0.89713-6.4679 2.4048-7.2526 3.3503-1.1869 1.4301 0.0177 1.725 7.1638 1.7538 23.81 0.0959 46.288 1.2152 59.216 2.9487 7.9062 1.0602 21.688 2.2335 30.625 2.6074 8.9375 0.37395 19.625 1.2982 23.75 2.0538 4.125 0.75564 8.1868 1.4847 9.0263 1.6202 0.83948 0.13547 1.9074 0.62734 2.3731 1.093 0.46572 0.46572 2.0289 0.55224 3.4737 0.19228 2.9714-0.74031 40.596 2.6278 41.702 3.7331 0.39428 0.3943 2.4513 0.69962 4.5711 0.6785 3.5885-0.0358 3.4185-0.22963-2.4658-2.8125zm-284.5-15.6c3.423-6.0156 6.9032-10.774 7.7339-10.574 0.94899 0.22849 1.2093-0.4207 0.70038-1.7468-0.47553-1.2392 1.3244-7.0658 4.36-14.114 8.08-18.76 11.8-36.38 7.68-36.38-0.57626 0-4.2469 4.9219-8.1569 10.938-3.91 6.0156-7.1124 10.278-7.1165 9.4727-0.004-0.80564 3.6381-8.1181 8.0936-16.25 9.7368-17.771 15.704-33.522 16.322-43.083 0.3347-5.1793 1.4658-8.6411 4.2664-13.057 2.096-3.3051 3.811-6.4794 3.811-7.0538 0-2.9263-4.342-1.9944-9.9756 2.141-3.4509 2.5332-6.2744 4.1184-6.2744 3.5228 0-0.5957 3.375-4.4229 7.5-8.5048 4.125-4.082 7.5-8.1623 7.5-9.0674 0-2.5305 3.8744-7.9057 9.126-12.661 3.5581-3.2219 4.6566-5.1143 4.375-7.5368-0.35801-3.0802-0.77892-3.2524-8.8135-3.6043-4.6406-0.20329-8.4323-0.76579-8.4259-1.25 0.006-0.48422 5.0481-3.6345 11.204-7.0007 13.674-7.4775 17.47-11.069 15.328-14.5-0.9689-1.5514-1.053-2.6604-0.23989-3.163 0.68867-0.42562 3.5215-3.8458 6.2952-7.6004 3.5098-4.751 4.806-7.5734 4.2633-9.2831-0.91015-2.8676 3.2357-4.9586 9.8319-4.9586 3.3437 0 18.333-3.2398 19.036-4.1144 0.11525-0.14333 0.56991-1.4361 1.0104-2.8728 1.2722-4.1491-3.112-5.3434-12.227-3.3308-10.668 2.3554-60.65 2.708-73.888 0.52117-14.561-2.4053-25.334-5.1926-33.005-8.5388-8.3625-3.6482-9.6464-2.9571-2.398 1.2908 15.562 9.1201 41.07 17.007 55.09 17.034 3.2656 0.006 5.9375 0.49372 5.9375 1.0833 0 1.8435-23.665 7.4843-40 9.5343-35.252 4.4242-45.576 5.9798-50.476 7.6061-4.4804 1.487 1.0177 1.6354 42.351 1.1428 26.125-0.31135 49.75-0.87872 52.5-1.2608 3.8967-0.54144 2.3195 0.45071-7.148 4.4963-7.2332 3.0909-12.427 6.07-12.838 7.3637-0.77969 2.4566-9.346 4.1513-48.03 9.5021-23.264 3.2178-40.133 7.6009-53.626 13.933-8.2502 3.8719-7.8185 5.1333 0.52788 1.5425 12.226-5.2598 28.86-8.7094 57.364-11.896 15.812-1.7679 35.482-4.552 43.709-6.1868 8.2275-1.6349 15.121-2.8107 15.319-2.613 0.19771 0.19771-3.4116 2.6117-8.0206 5.3644-15.12 9.0302-14.117 12.056 3.8949 11.751 6.5851-0.11125 11.973 0.31386 11.973 0.94484 0 2.5358-4.4972 4.5935-11.738 5.371-12.432 1.3349-48.61 6.9978-54.597 8.5462-23.74 6.1394-47.871 21.67-58.575 37.7-5.6448 8.4532-6.1777 12.718-1.6691 13.359 1.5563 0.22114 10.975-3.4754 21.25-8.34 10.15-4.8054 24.842-11.31 32.649-14.454 16.447-6.6238 49.011-17.315 49.933-16.394 0.34559 0.34558-4.9098 6.2652-11.679 13.155-9.6361 9.808-11.978 12.855-10.793 14.041 1.8386 1.8386 7.0307-0.68719 18.1-8.8047 4.0495-2.9696 7.6447-5.1173 7.9894-4.7726 1.9662 1.9662-34.863 43.031-48.214 53.759-6.3178 5.0766-3.6981 5.4706 4.3145 0.64887 7.3531-4.4248 23.008-20.029 35.063-34.95 3.8822-4.8049 7.2315-8.5632 7.443-8.3517 0.21145 0.21145-0.52245 4.0251-1.6309 8.4748-1.173 4.7087-7.4137 18.653-14.93 33.36-7.1033 13.898-12.915 26.133-12.915 27.188 0 1.0566 1.0756 1.918 2.395 1.918 2.6046 0 7.053-5.1828 14.484-16.875 2.6216-4.125 4.9702-6.9034 5.2191-6.1743 1.2328 3.612-11.1 34.068-21.987 54.299-5.3449 9.932-5.8067 11.25-3.9415 11.25 0.64321 0 3.9701-4.9219 7.3931-10.938zm-76.147-96.875c10.489-14.584 36.451-31.022 57.584-36.46 7.5533-1.9435 47.706-8.2592 48.466-7.6233 0.18732 0.15673-4.6284 3.435-10.701 7.285-6.7986 4.3099-15.576 8.5097-22.841 10.928-16.39 5.4571-41.63 15.885-58.546 24.189-7.8361 3.8465-15.043 6.9937-16.015 6.9937-1.2016 0-0.54397-1.7015 2.0532-5.3125zm100.09-34.49c0-0.57715 1.4062-1.6901 3.125-2.4732 3.6723-1.6732 4.3003 0.30561 0.70717 2.2286-2.9305 1.5683-3.8322 1.6259-3.8322 0.24462zm-15.384 123.89c-0.31693-1.2162-0.59708-0.52379-0.62255 1.5387-0.0255 2.0625 0.23382 3.0576 0.57623 2.2113 0.3424-0.84629 0.36324-2.5338 0.0464-3.75zm414.13-19.31c0-2.1856-0.51352-5.7012-1.1412-7.8125-2.7141-9.13-4.2745-16.721-4.5147-21.964-0.14175-3.0938-0.9481-7.3125-1.7919-9.375-1.5142-3.7011-3.6852-10.775-16.113-52.5-3.481-11.688-9.22-33.062-12.753-47.5-3.5332-14.438-7.0056-26.812-7.7166-27.5-0.88639-0.85719-1.0091-0.0716-0.3905 2.5 4.4222 18.383 11.022 64.847 12.606 88.75 0.50124 7.5625 1.0557 15.819 1.2322 18.347 0.48475 6.9446 3.8198 16.053 13.192 36.028 6.2739 13.372 9.3412 18.553 11.697 19.756 1.7563 0.89689 3.1932 2.4438 3.1932 3.4375 0 0.99373 0.5625 1.8068 1.25 1.8068s1.25-1.7882 1.25-3.9738zm-294.63-44.29c18.015-5.2278 34.259-9.9576 36.098-10.511 1.8389-0.55312 3.6553-0.69377 4.0365-0.31256 0.38121 0.38121 4.1713-0.86779 8.4224-2.7756s9.1847-3.5892 10.963-3.7364c1.7788-0.14724 6.1873-1.7716 9.7967-3.6097 5.1523-2.6239 6.5625-3.9836 6.5625-6.3279 0-2.4686 2.0499-4.1392 11.834-9.6446 6.9105-3.8882 11.372-7.1214 10.722-7.7707-0.64933-0.64933-5.9633 0.74472-12.772 3.3505-6.413 2.4544-17.004 5.9214-23.535 7.7044-7.5765 2.0684-15.745 5.4658-22.567 9.3857-10.722 6.1613-32.778 15.331-46.808 19.461-4.125 1.2143-8.625 3.4642-10 4.9998-1.3967 1.5598-5.9628 3.7514-10.346 4.966-7.5959 2.1046-11.277 4.3255-7.1696 4.3255 1.1036 0 16.746-4.2773 34.761-9.5051zm3.0818-305.1c-1.1951-0.31286-3.4451-0.32421-5-0.0252-1.5549 0.29899-0.57708 0.55498 2.1729 0.56885 2.75 0.0139 4.0222-0.23076 2.8271-0.54362zm-290.39 746.84c5.0891-3.364 14.9-13.076 18.515-18.328 5.8441-8.4907 15.219-28.216 20.164-42.424 4.93-14.167 10.98-41.723 13.224-60.23 4.309-35.538 10.434-56.073 20.764-69.616l3.296-4.3212-2.5828-2.4063c-4.6195-4.3037-8.145-3.0587-19.733 6.9687-12.311 10.653-21.729 20.868-28.093 30.473-6.7846 10.239-7.4142 9.397-3.7332-4.9954 4.1595-16.264 13.801-40.109 20.871-51.618 4.7261-7.6935 6.4427-11.542 5.5474-12.438-1.6356-1.6356-1.6718-3.2965-0.0719-3.2965 0.67352 0 2.438 2.3906 3.921 5.3125 1.4831 2.9219 4.3852 7.7776 6.4493 10.79 3.5642 5.2026 3.6341 5.5412 1.3914 6.7351-3.5592 1.8947-14.158 13.374-16.356 17.715-1.3788 2.7225 0.61341 1.2148 6.9238-5.2402 8.6848-8.8838 11.758-10.627 13.217-7.5 0.58173 1.2466 0.87734 1.2443 1.4621-0.0113 0.50033-1.0743 2.5396 0.0166 6.426 3.4375 3.1312 2.7562 6.2298 5.0112 6.8859 5.0112 0.65604 0-0.20358-2.3906-1.9103-5.3125-7.8069-13.366-16.125-30.111-20.646-41.562-4.66-11.78-15.24-43.18-15.24-45.19 0-2.1541 2.3152 1.8238 3.7521 6.4468 3.2092 10.325 11.809 25.027 18.703 31.973 6.3464 6.3948 17.1 12.68 31.608 18.475 1.8906 0.75515 3.4375 2.2288 3.4375 3.2748 0 2.5518 1.6625 2.3991 4.1813-0.38413 4.6888-5.181 2.2937-7.7193-12.502-13.25-11.579-4.3278-18.947-9.2868-26.788-18.028-7.2828-8.1192-16.307-25.737-19.305-37.687-3.9002-15.549-4.2919-16.332-3.9059-7.8125 0.8045 17.759-3.6582 1.7875-5.0563-18.096-0.83792-11.917-0.52464-12.391 12.751-19.319 6.1626-3.2161 8.8785-3.896 15.231-3.8128 13.967 0.18282 26.302 8.15 31.567 20.389 3.1778 7.387 6.3269 21.963 6.3269 29.285 0 3.0082 0.5625 5.8172 1.25 6.242 1.795 1.1094 1.5408 4.7816-0.6173 8.9196-2.5641 4.9165-2.3512 10.856 0.60869 16.983 1.3702 2.8361 2.344 5.304 2.1638 5.4842-0.18017 0.18017-5.9155-2.5893-12.745-6.1544-15.317-7.9957-19.586-13.1-20.403-24.4-0.63048-8.7162 1.1546-12.814 9.4408-21.673 3.1242-3.34 5.3564-6.3967 4.9605-6.7926-1.3608-1.3608-6.1923 1.0215-11.144 5.4947-7.3107 6.6048-11.301 15.282-11.174 24.301 0.20782 14.763 7.1628 23.518 26.306 33.112 11.387 5.7066 19.742 12.327 24.107 19.102 1.6751 2.5999 2.4006 2.8886 4.3174 1.7184 1.9182-1.1712 2.2452-2.7406 1.953-9.375-0.28907-6.5642-1.3354-9.9-5.9375-18.93-6.687-13.121-7.0243-17.113-1.8366-21.735 3.2977-2.9383 3.75-4.1615 3.75-10.142 0-14.962-8.2933-34.836-19.061-45.676-8.1969-8.2523-17.699-12.408-29.997-13.12-9.0052-0.5213-10.339-0.26485-17.85 3.4327-5.2963 2.6074-9.2427 5.5958-11.356 8.5993l-3.2384 4.6031 0.60562-7.5c0.33929-4.2018 1.8083-9.8055 3.3404-12.742 2.4637-4.7228 3.3839-5.3772 9.2819-6.6017 7.928-1.6458 26.833 0.17185 34.843 3.3502 16.467 6.5334 28.976 17.353 36.1 31.222l4.5447 8.8482-0.35588 31.087c-0.19573 17.098 0.35527 41.493 1.2245 54.212 0.86917 12.719 1.9913 30.093 2.4937 38.61l0.91334 15.485-12.307-0.65074c-13.56-0.71-16.49-1.49-17.73-4.68-0.9-2.33-22.71-25.86-22.71-24.52 0 3.079 9.7071 18.949 15.466 25.284 6.8482 7.5343 6.9184 7.6886 4.4956 9.8812-1.4403 1.3035-2.4613 3.8352-2.4613 6.1036 0 3.1732-0.73671 4.2002-4.0625 5.6629-6.3952 2.8127-17.454 14.872-22.42 24.448-6.3704 12.284-9.0802 22.394-14.105 52.624-6.6604 40.069-11.222 53.521-23.844 70.312-7.1997 9.5778-16.952 16.424-24.521 17.214-4.7478 0.49559-5.1196 0.36603-2.9899-1.0418zm19.44-1.8c0-0.44967 2.2234-2.7207 4.9409-5.0468 6.6545-5.696 16.506-20.689 20.491-31.186 4.3567-11.475 7.751-26.531 10.247-45.449 5.5617-42.162 17.512-69.103 33.98-76.607 4.1858-1.9072 4.7037-0.37124 1.3887 4.1179-2.8572 3.8691-2.9134 4.48-2.5128 27.305 0.36621 20.865 0.1484 24.01-2.0482 29.578-7.4632 18.918-20.438 41.746-32.499 57.182-3.0948 3.9605-5.3298 7.498-4.9667 7.8612 1.1172 1.1172 12.275-12.02 19.163-22.562 7.248-11.093 13.968-23.439 17.215-31.627 1.1728-2.9572 2.6878-5.0333 3.3668-4.6137 1.3575 0.83896 1.7284 49.336 0.4371 57.147-0.68444 4.1403-1.7576 5.2686-9.6738 10.17-14.156 8.7647-23.944 13.245-41.705 19.09-17.83 5.87-17.82 5.87-17.82 4.64zm515.19-329.96-2.8551-5.8766 3.5182-2.8053c1.935-1.5429 3.86-2.594 4.2777-2.3359 0.41775 0.25818 1.4835 3.8808 2.3683 8.0501 0.89735 4.2286 2.1987 7.384 2.943 7.1359 0.73385-0.24461 2.7358-4.7645 4.4489-10.044l3.1146-9.5994h4.746c4.3623 0 4.746 0.28236 4.746 3.4928 0 1.921-1.8314 6.5617-4.0697 10.312l-4.0697 6.8197-8.1565 0.36338-8.1565 0.36336-2.8551-5.8766zm26.505 0.80637c4.8408-5.3581 6.4285-9.5298 5.4918-14.43-0.53261-2.7862-0.18084-3.1019 3.456-3.1019 3.6059 0 13.104 3.0706 13.104 4.2362 0 0.24897-1.3388 3.4799-2.975 7.1798-2.8236 6.3847-3.3352 6.838-10.05 8.9055-3.8909 1.1981-8.5239 2.1784-10.295 2.1784h-3.2209l4.4887-4.9685zm37.97-178.78c-1.7289-4.5099-2.3688-10.767-3.3235-32.5-0.82444-18.768-1.5071-24.392-3.6229-29.848l-2.6071-6.7233 3.3063-4.3348c3.0092-3.9452 3.3876-4.115 4.2113-1.8884 2.8362 7.6671 5.6849 60.286 3.8394 70.92-0.59654 3.4375-1.4081 5.4062-1.8034 4.375zm-118.85-67.83c-2.0017-1.4637-2.0187-1.9877-0.22869-7.0611 1.0634-3.014 2.5518-10.723 3.3074-17.13 2.2509-19.086-2.327-34.07-17.271-56.534-6.7205-10.102-24.442-29.195-37.248-40.129-8.0284-6.8555-1.8136-3.3154 10.581 6.027 28.538 21.51 46.64 47.987 52.014 76.077 1.952 10.202 2.4475 40.331 0.66337 40.331-0.61395 0-1.44-0.84375-1.8358-1.875-0.39572-1.0312-1.5207-1.875-2.5-1.875-0.97926 0-2.1043 0.84375-2.5 1.875-0.87857 2.2895-2.1506 2.3646-4.9823 0.29398zm72.29-4.67c0.55604-1.0312 2.4252-3.7848 4.1536-6.119 2.8775-3.886 2.967-4.3725 1.0607-5.7664-1.9396-1.4183-1.9406-1.8974-0.0147-7.006 1.5038-3.9889 2.1014-9.9129 2.1924-21.734 0.11888-15.434-0.0574-16.645-3.5075-24.117-5.1858-11.231-9.9127-17.403-25.172-32.871-7.4085-7.5096-13.195-13.929-12.859-14.265 0.7317-0.7317 16.192 9.793 26.664 18.152 8.1042 6.4687 24.857 23.407 32.12 32.476 2.4777 3.0938 6.3668 9.2812 8.6425 13.75 3.586 7.0419 4.1295 9.3321 4.0767 17.18-0.0503 7.4733-0.69659 10.29-3.7 16.127-4.1207 8.0072-7.4228 10.881-9.2102 8.0143-0.9729-1.5602-1.6015-1.5656-4.6519-0.0401-1.9398 0.9701-4.0035 1.9876-4.5859 2.261-0.58238 0.27349-0.44175-0.65586 0.3125-2.0652 3.2562-6.0843-0.29834-7.1663-5.7528-1.7511-5.7891 5.7475-10.845 9.7712-9.768 7.7743zm-177.49-10.62c-0.6875-0.23318-3.4929-0.80181-6.2342-1.2636-4.5488-0.76631-4.7833-0.98657-2.6846-2.5212 1.947-1.4237 2.9508-1.371 6.5467 0.34382 2.3359 1.1139 4.2471 2.4836 4.2471 3.0438 0 0.56018-0.14063 0.97408-0.3125 0.9198-0.17188-0.0543-0.875-0.28946-1.5625-0.52262z"/>
</svg>
