<?xml version="1.0" encoding="UTF-8" standalone="no"?>
<!-- Created with Inkscape (http://www.inkscape.org/) -->
<svg id="svg3348" xmlns:rdf="http://www.w3.org/1999/02/22-rdf-syntax-ns#" xmlns="http://www.w3.org/2000/svg" height="537.5" viewBox="0 0 782.5 537.5" width="782.5" version="1.1" xmlns:cc="http://creativecommons.org/ns#" xmlns:dc="http://purl.org/dc/elements/1.1/">
 <metadata id="metadata3354">
  <rdf:RDF>
   <cc:Work rdf:about="">
    <dc:format>image/svg+xml</dc:format>
    <dc:type rdf:resource="http://purl.org/dc/dcmitype/StillImage"/>
    <dc:title/>
   </cc:Work>
  </rdf:RDF>
 </metadata>
 <path id="path3358" fill="#f2f2f2" d="m376.96 522.25c-6.0341-5.6385-14.627-13.707-19.096-17.93-4.4688-4.2229-10.094-9.4964-12.5-11.719-2.4062-2.2225-7.7758-7.2322-11.932-11.133-4.1565-3.9005-16.25-15.244-26.875-25.208-10.625-9.9641-22.974-21.641-27.443-25.948l-8.125-7.8313 3.125-2.5038c12.14-9.727 34.332-22.547 51.25-29.605 28.02-11.691 65.392-14.909 97.15-8.3656 28.741 5.922 55.494 17.565 76.497 33.292l11.772 8.815-5.574 5.1314c-9.7199 8.9482-16.408 14.957-27.97 25.128-6.1875 5.4433-17.473 15.546-25.078 22.45-15.285 13.875-30.682 27.653-39.29 35.156-3.0899 2.6935-8.1524 7.2419-11.25 10.108-6.5568 6.0662-11.977 10.414-12.983 10.414-0.38871 0-5.6437-4.6133-11.678-10.252zm-163.47-126.63c-0.6875-0.22246-2.7688-0.73861-4.6252-1.147-2.2393-0.49263-15.706-13.045-40.013-37.297-20.151-20.105-38.244-38.661-40.206-41.236-2.7914-3.6626-3.5683-6.0033-3.5683-10.75 0-3.3374 0.57963-7.1511 1.2881-8.4749 1.8888-3.5294 21.743-22.303 34-32.15 17.119-13.753 41.652-29.416 63.125-40.304 11-5.5774 21.688-10.757 23.75-11.509 2.0625-0.75255 9.0938-3.3709 15.625-5.8186 26.483-9.9249 61.065-17.92 89.375-20.662 16.549-1.6029 57.84-1.5966 74.798 0.0112 59.541 5.6462 117.03 26.374 168.33 60.687 14.774 9.8835 25.44 18.347 43.37 34.413 15.48 13.871 17.475 17.249 16.036 27.144-0.82417 5.6644-2.0269 7.0261-39.19 44.371-21.087 21.19-40.028 39.428-42.09 40.529-7.0673 3.772-18.275 1.8226-23.75-4.1308-0.6875-0.74756-5.1875-4.7385-10-8.8687-35.036-30.069-72.245-47.182-118.12-54.329-13.271-2.0673-51.171-2.057-63.75 0.0174-48.777 8.0436-87.75 26.681-122.81 58.728-5.3269 4.8692-11.233 9.1975-13.125 9.6186-6.6685 1.4842-7.2011 1.5571-8.4397 1.1563zm-123.62-126.85c-4.284-0.82-9.753-5.84-45.805-42.04-37.958-38.11-41.003-41.49-41.803-46.39-1.3662-8.37 0.8621-12.59 12.796-24.22 29.222-28.5 72.491-61.13 106.55-80.345 15.42-8.699 50.68-25.627 67.66-32.485 82.17-33.192 174.42-45.623 264.84-35.694 53.332 5.8566 114.13 22.38 161.88 43.995 38.365 17.368 70.581 36.622 108.75 64.996 8.5638 6.3661 25.862 21.206 40.839 35.034 18.123 16.733 20.203 20.32 17.364 29.941-1.3324 4.5152-7.6 11.349-41.76 45.53-35.085 35.107-40.868 40.395-45.505 41.611-8.9284 2.3408-13.44 0.25046-27.357-12.676-71.997-66.873-155.23-102.41-254.34-108.61-48.261-3.0156-104.99 4.8258-151.71 20.968-56.011 19.356-100.06 46.015-146.74 88.8-6.9378 6.3594-13.705 11.562-15.037 11.562-1.3327 0-3.1723 0.215-4.0879 0.47777-0.9156 0.26279-3.8539 0.0571-6.5295-0.45703z"/>
</svg>
