<?xml version="1.0" encoding="UTF-8" standalone="no"?>
<!-- Created with Inkscape (http://www.inkscape.org/) -->

<svg
   xmlns:dc="http://purl.org/dc/elements/1.1/"
   xmlns:cc="http://creativecommons.org/ns#"
   xmlns:rdf="http://www.w3.org/1999/02/22-rdf-syntax-ns#"
   xmlns:svg="http://www.w3.org/2000/svg"
   xmlns="http://www.w3.org/2000/svg"
   xmlns:sodipodi="http://sodipodi.sourceforge.net/DTD/sodipodi-0.dtd"
   xmlns:inkscape="http://www.inkscape.org/namespaces/inkscape"
   id="svg4190"
   height="499"
   viewBox="0 0 499 499"
   width="499"
   version="1.1"
   inkscape:version="0.91 r13725"
   sodipodi:docname="www.svg">
  <sodipodi:namedview
     pagecolor="#ffffff"
     bordercolor="#666666"
     borderopacity="1"
     objecttolerance="10"
     gridtolerance="10"
     guidetolerance="10"
     inkscape:pageopacity="0"
     inkscape:pageshadow="2"
     inkscape:window-width="1920"
     inkscape:window-height="1017"
     id="namedview3356"
     showgrid="false"
     inkscape:zoom="0.47294589"
     inkscape:cx="51.802966"
     inkscape:cy="249.5"
     inkscape:window-x="-8"
     inkscape:window-y="-8"
     inkscape:window-maximized="1"
     inkscape:current-layer="svg4190" />
  <metadata
     id="metadata4196">
    <rdf:RDF>
      <cc:Work
         rdf:about="">
        <dc:format>image/svg+xml</dc:format>
        <dc:type
           rdf:resource="http://purl.org/dc/dcmitype/StillImage" />
        <dc:title />
      </cc:Work>
    </rdf:RDF>
  </metadata>
  <defs
     id="defs4194">
    <linearGradient
       id="linearGradient4715"
       y2="8.371"
       gradientUnits="userSpaceOnUse"
       x2="258.79"
       y1="487.79"
       x1="257.9"
       gradientTransform="matrix(0.8168928,0,0,0.8168928,45.744965,2.3753764)">
      <stop
         id="stop4711"
         stop-color="#023bab"
         offset="0" />
      <stop
         id="stop4713"
         stop-color="#36b7ef"
         offset="1" />
    </linearGradient>
  </defs>
  <path
     id="path4200"
     d="M 85.141254,403.33087 C 70.035272,399.64669 57.102225,386.29866 53.98823,371.17797 53.362245,368.13913 53.097,319.13373 53.097,206.5414 53.097,65.292455 53.245674,45.654355 54.346846,41.365665 58.559562,24.956745 72.239249,12.422345 88.631837,9.9463384 92.541486,9.3562964 144.9811,9.1548514 254.46108,9.3098974 l 160.11098,0.226753 5.45579,2.1239206 c 13.24428,5.155904 21.0742,13.086624 26.1953,26.532674 l 1.84185,4.83609 0.22675,160.110995 c 0.15504,109.47997 -0.0463,161.91632 -0.63683,165.82924 -2.24768,14.88379 -12.83012,27.72452 -27.43045,33.28511 l -4.836,1.83801 -162.97012,0.13887 c -130.2944,0.11437 -163.836017,-0.0735 -167.275136,-0.90675 z"
     style="fill:url(#linearGradient4715)"
     inkscape:connector-curvature="0" />
  <path
     id="path4162"
     d="m 316.17586,331.43364 -9.27273,-22.53202 -19.62444,19.61356 -19.62442,19.61356 0,-87.77125 0,-87.77125 60.20242,60.19854 c 33.11133,33.109 60.20242,60.46188 60.20242,60.78348 0,0.32146 -11.88513,0.58447 -26.41139,0.58447 -14.52626,0 -26.41139,0.11175 -26.41139,0.24831 0,0.13656 4.19476,10.30821 9.32168,22.60271 5.12691,12.29527 9.32166,22.49396 9.32166,22.6633 0,0.28195 -27.63408,14.29942 -28.19027,14.29942 -0.13274,0 -4.41396,-10.13963 -9.51354,-22.53201 z m 24.38237,-2.8992 c -1.73523,-4.17066 -6.29702,-15.09876 -10.13731,-24.28449 -3.8403,-9.18572 -7.16184,-17.13788 -7.38121,-17.67233 -0.31385,-0.76402 4.54439,-0.971 22.79148,-0.971 l 23.19075,0 -46.21526,-46.21992 c -25.41864,-25.42097 -46.4786,-46.21993 -46.8002,-46.21993 -0.32178,0 -0.58505,30.23716 -0.58505,67.19367 0,36.95652 0.25918,67.19368 0.57597,67.19368 0.31679,0 7.99411,-7.41213 17.06097,-16.47139 9.06688,-9.05926 16.61277,-16.31291 16.76891,-16.11871 0.15619,0.19397 4.24905,9.96564 9.09484,21.71481 4.84617,11.74919 9.28049,22.4994 9.85455,23.8891 l 1.04356,2.52672 6.9462,-3.48855 6.94619,-3.48856 -3.15499,-7.58302 z m -105.91742,-2.2838 c -31.59268,-3.92287 -63.03777,-20.46106 -83.45222,-43.87398 -17.10991,-19.63764 -27.39326,-41.54355 -32.02302,-68.23459 -1.31218,-7.56499 -1.31218,-31.27496 0,-38.84027 9.88018,-56.96314 49.57106,-98.460097 105.66885,-110.485037 7.16323,-1.534819 10.49386,-1.767077 25.33705,-1.767077 14.97914,0 18.13842,0.224462 25.58409,1.817644 44.83411,9.593545 80.43045,39.10128 97.13176,80.52365 3.06807,7.60819 6.6994,20.69799 8.29706,29.90702 1.31218,7.56499 1.31218,31.27495 0,38.84026 -2.45316,14.1433 -7.41446,29.46035 -13.35329,41.22507 l -2.44359,4.84074 -5.48115,-5.48114 -5.48114,-5.48113 1.23978,-2.98667 c 0.68191,-1.64271 2.31101,-5.56915 3.62023,-8.72586 1.30923,-3.15631 3.09185,-8.57437 3.9614,-12.04048 0.86956,-3.46595 1.76909,-6.93524 1.99895,-7.70949 0.28722,-0.96751 -1.72909,0.0349 -6.44678,3.20502 -3.77559,2.53706 -10.04565,6.20622 -13.93279,8.15414 l -7.06823,3.54099 -4.10867,-4.16034 -4.10868,-4.16034 8.06945,-4.0418 c 9.71939,-4.86816 17.13089,-9.57489 24.08097,-15.29218 6.07151,-4.99486 6.34859,-5.88679 5.4308,-17.48279 -0.69303,-8.75538 -0.72216,-8.80276 -9.54538,-15.38463 -12.16477,-9.07464 -28.7154,-17.16352 -44.48765,-21.74201 -4.25348,-1.23482 -7.84651,-2.1321 -7.98478,-1.99391 -0.13821,0.13821 0.25803,3.18328 0.8805,6.76675 2.39668,13.79685 4.39252,46.7 2.8891,47.62983 -0.35937,0.22211 -2.91853,-1.94644 -5.68699,-4.81899 l -5.03355,-5.22285 -0.49408,-10.87527 c -0.41902,-9.22302 -1.58064,-18.60915 -4.10418,-33.16105 -0.27335,-1.5763 -1.03462,-3.07227 -1.69164,-3.32442 -0.65708,-0.25214 -5.77081,-1.01839 -11.36389,-1.70276 -18.80413,-2.30089 -48.90612,-1.61265 -67.60149,1.54562 -6.32942,1.06926 -5.77827,-0.005 -8.23725,16.05734 -3.00491,19.63143 -3.30259,46.24867 -0.72791,65.08931 l 0.9686,7.08772 3.97242,0.81207 c 10.49387,2.14524 20.78421,3.24309 34.4622,3.67678 l 14.95351,0.4741 0,5.31972 0,5.31971 -10.50863,0 c -9.91825,0 -28.48623,-1.53551 -36.36381,-3.00725 -1.96377,-0.36686 -3.72626,-0.51126 -3.91666,-0.32088 -0.43068,0.43067 1.7524,8.37318 4.97155,18.08713 5.09461,15.37376 16.04337,34.98033 24.65659,44.15441 l 3.76238,4.00737 8.69944,0 8.69945,0 0,7.37966 0,7.37965 -10.68107,-0.11639 c -5.8746,-0.064 -11.72977,-0.24676 -13.0115,-0.4061 z m -15.50504,-23.50613 c -8.91073,-13.40457 -16.62208,-31.27342 -21.21067,-49.15237 l -2.74981,-10.71448 -5.51378,-1.58103 c -16.93047,-4.85465 -35.90317,-13.22357 -48.30409,-21.307 -3.59536,-2.34362 -6.53006,-4.00676 -6.52152,-3.69588 0.008,0.31084 0.83352,3.75049 1.83327,7.64368 5.13694,20.00508 14.58763,36.74756 29.33683,51.97294 11.65441,12.03039 24.41889,20.9054 38.71133,26.91554 5.97262,2.51157 17.26838,6.09816 17.77486,5.64404 0.15496,-0.13881 -1.35568,-2.71541 -3.35696,-5.72576 z m -26.36555,-75.47442 c -2.80303,-17.5294 -1.45621,-61.3855 2.35092,-76.55496 l 0.43891,-1.74874 -5.70633,1.5985 c -14.78416,4.14155 -32.59321,12.45375 -44.93508,20.97298 -11.77405,8.12771 -11.05783,7.12874 -11.7119,16.32612 -0.31385,4.41163 -0.37882,9.01404 -0.14434,10.22741 1.15348,5.96867 28.33709,22.13275 49.14305,29.2211 4.91329,1.67401 9.41487,3.06543 10.00369,3.09215 0.82139,0.0373 0.9519,-0.69177 0.56124,-3.13488 z m -47.78131,-69.12015 c 13.00839,-7.8605 26.80523,-13.77043 43.35585,-18.57265 l 9.63472,-2.79533 2.88644,-8.89909 c 5.22651,-16.1125 11.86415,-30.594477 19.00688,-41.47053 1.93301,-2.943089 3.39806,-5.467622 3.2556,-5.610089 -0.47092,-0.470917 -12.46774,3.318979 -18.41107,5.816335 -24.62007,10.344715 -46.70544,30.894324 -58.95488,54.855664 -4.69664,9.18728 -8.89442,20.62264 -7.5705,20.62264 0.14541,0 3.20408,-1.77632 6.79704,-3.94742 z m 217.03944,1.42279 c -7.6927,-26.78503 -29.73999,-53.48538 -56.12341,-67.969695 -8.3926,-4.607468 -27.64495,-11.83541 -28.70374,-10.776629 -0.14617,0.146171 0.97148,2.104215 2.4836,4.351275 7.04803,10.473668 13.39834,23.955129 18.98824,40.311549 l 3.55016,10.38821 9.32166,2.56004 c 16.55993,4.54789 34.17089,12.15623 44.66631,19.29663 5.87871,3.99946 6.49355,4.19381 5.81718,1.83862 z M 221.30228,132.80401 c 12.18575,-1.70819 47.55292,-1.90504 59.40076,-0.33062 4.39982,0.58464 8.16268,0.9004 8.36076,0.70174 0.19868,-0.19869 -0.56188,-3.10971 -1.6901,-6.46893 -5.72373,-17.04155 -14.89525,-34.193419 -24.17263,-45.205412 l -3.43574,-4.07823 -9.58966,0 -9.58966,0 -3.43573,4.07823 c -9.2704,11.003451 -18.44914,28.164632 -24.16176,45.175112 -2.10848,6.27769 -2.35947,7.45376 -1.59052,7.45376 0.24778,0 4.70474,-0.59634 9.90428,-1.32523 z"
     inkscape:connector-curvature="0"
     style="fill:#ffffff" />
  <text
     xml:space="preserve"
     style="font-style:normal;font-variant:normal;font-weight:bold;font-stretch:normal;font-size:95.54141235px;line-height:125%;font-family:Calibri;-inkscape-font-specification:'Calibri Bold';text-align:center;letter-spacing:0px;word-spacing:0px;text-anchor:middle;fill:#ececec;fill-opacity:1;stroke:none;stroke-width:1px;stroke-linecap:butt;stroke-linejoin:miter;stroke-opacity:1"
     x="251.81616"
     y="490.94284"
     id="text4174"
     sodipodi:linespacing="125%"><tspan
       sodipodi:role="line"
       x="251.81616"
       y="490.94284"
       id="tspan4178">Internet</tspan></text>
</svg>
