<?xml version="1.0" encoding="UTF-8" standalone="no"?>
<!-- Generator: Adobe Illustrator 16.0.0, SVG Export Plug-In . SVG Version: 6.00 Build 0)  -->

<svg
   xmlns:dc="http://purl.org/dc/elements/1.1/"
   xmlns:cc="http://creativecommons.org/ns#"
   xmlns:rdf="http://www.w3.org/1999/02/22-rdf-syntax-ns#"
   xmlns:svg="http://www.w3.org/2000/svg"
   xmlns="http://www.w3.org/2000/svg"
   xmlns:sodipodi="http://sodipodi.sourceforge.net/DTD/sodipodi-0.dtd"
   xmlns:inkscape="http://www.inkscape.org/namespaces/inkscape"
   version="1.1"
   id="Capa_1"
   x="0px"
   y="0px"
   width="612.006px"
   height="612.006px"
   viewBox="0 0 612.006 612.006"
   style="enable-background:new 0 0 612.006 612.006;"
   xml:space="preserve"
   inkscape:version="0.91 r13725"
   sodipodi:docname="x-button.svg"><metadata
     id="metadata51"><rdf:RDF><cc:Work
         rdf:about=""><dc:format>image/svg+xml</dc:format><dc:type
           rdf:resource="http://purl.org/dc/dcmitype/StillImage" /></cc:Work></rdf:RDF></metadata><defs
     id="defs49" /><sodipodi:namedview
     pagecolor="#ffffff"
     bordercolor="#666666"
     borderopacity="1"
     objecttolerance="10"
     gridtolerance="10"
     guidetolerance="10"
     inkscape:pageopacity="0"
     inkscape:pageshadow="2"
     inkscape:window-width="640"
     inkscape:window-height="480"
     id="namedview47"
     showgrid="false"
     inkscape:zoom="0.94933713"
     inkscape:cx="150.63142"
     inkscape:cy="306.00299"
     inkscape:current-layer="Capa_1" /><g
     id="g3"
     transform="matrix(1.8381981,0,0,1.8381981,-256.49271,-256.48957)"
     style="fill:#ffffff"><g
       id="g5"
       style="fill:#ffffff"><g
         id="g7"
         style="fill:#ffffff"><g
           id="g9"
           style="fill:#ffffff"><path
             d="m 423.23,437.955 c -3.769,0 -7.53,-1.438 -10.41,-4.311 L 178.371,199.177 c -5.748,-5.747 -5.748,-15.068 0,-20.815 5.753,-5.753 15.068,-5.753 20.815,0 l 234.45,234.46 c 5.753,5.753 5.753,15.075 0,20.815 -2.874,2.881 -6.637,4.318 -10.406,4.318 z"
             id="path11"
             inkscape:connector-curvature="0"
             style="fill:#ffffff" /><path
             d="m 188.781,437.955 c -3.769,0 -7.531,-1.438 -10.411,-4.311 -5.748,-5.747 -5.748,-15.069 0,-20.816 L 412.819,178.362 c 5.753,-5.753 15.068,-5.753 20.815,0 5.753,5.747 5.753,15.068 0,20.815 l -234.45,234.467 c -2.871,2.874 -6.64,4.311 -10.403,4.311 z"
             id="path13"
             inkscape:connector-curvature="0"
             style="fill:#ffffff" /></g></g></g></g><g
     id="g17" /><g
     id="g19" /><g
     id="g21" /><g
     id="g23" /><g
     id="g25" /><g
     id="g27" /><g
     id="g29" /><g
     id="g31" /><g
     id="g33" /><g
     id="g35" /><g
     id="g37" /><g
     id="g39" /><g
     id="g41" /><g
     id="g43" /><g
     id="g45" /></svg>