<?xml version="1.0" encoding="UTF-8" standalone="no"?>
<!-- Created with Inkscape (http://www.inkscape.org/) -->
<svg id="svg3356" xmlns:rdf="http://www.w3.org/1999/02/22-rdf-syntax-ns#" xmlns="http://www.w3.org/2000/svg" height="375" viewBox="0 0 1250 375" width="1250" version="1.1" xmlns:cc="http://creativecommons.org/ns#" xmlns:dc="http://purl.org/dc/elements/1.1/">
 <metadata id="metadata3362">
  <rdf:RDF>
   <cc:Work rdf:about="">
    <dc:format>image/svg+xml</dc:format>
    <dc:type rdf:resource="http://purl.org/dc/dcmitype/StillImage"/>
    <dc:title/>
   </cc:Work>
  </rdf:RDF>
 </metadata>
 <path id="path3366" fill="#fff" d="m563.53 354.76c-1.3345-1.0094-3.4634-1.8531-4.7309-1.875s-2.584-1.1084-2.9255-2.4145c-0.64735-2.4755-8.146-4.5484-8.9366-2.4705-0.22918 0.60235-1.1856 1.0952-2.1254 1.0952s-2.1978 0.87387-2.7955 1.9419c-0.94611 1.6906-4.7963 1.8788-29.75 1.4538-30.274-0.51552-37.899-1.5324-58.038-7.7401-5.8438-1.8013-15.688-4.6873-21.875-6.4133-6.4078-1.7875-12.134-4.1714-13.304-5.5386-1.3526-1.5809-4.4654-2.6838-9.1178-3.2306-12.53-1.47-24.45-12.05-24.45-21.71 0-2.4231-0.4981-6.1423-1.1069-8.265-0.89115-3.1072-0.18395-6.5356 3.6285-17.59 5.443-15.782 12.876-27.947 28.334-46.369 4.98-5.9349 6.6816-9.0619 7.3474-13.502 0.83248-5.5514 0.20849-14.455-1.4085-20.097-0.75477-2.6337-0.64466-2.6226 5.9055 0.59522 5.5696 2.7361 8.6405 3.328 18.55 3.5755l11.875 0.29657-6.875-2.2501c-8.8852-2.908-15.429-6.3007-29.91-15.507l-11.785-7.4924-11.34 0.73186c-13.616 0.87875-40.725 5.5242-66.34 11.368-36.633 8.3575-95.729 21.718-122.5 27.695-30.136 6.7284-56.701 12.712-68.125 15.345-5.8438 1.3469-13.731 2.8356-17.526 3.3081l-6.9014 0.85919-2.3245-9.1708c-1.9582-7.7257-2.4734-16.656-3.2692-56.671-1.0188-51.226-0.1186-69.937 3.6682-76.25 1.3173-2.1961 2.9702-3.491 3.9888-3.125 2.6875 0.9657 118.45 0.21628 200.49-1.2979 69.301-1.2791 73.999-1.5072 77.884-3.7817 2.28-1.351 5.8-2.44 7.82-2.44 3.8413 0 3.8019 0.08425 4.2289-9.0398 0.0879-1.8782 1.0686-4.1282 2.1793-5 1.6737-1.3137 6.5658-15.335 9.3717-26.86 0.37152-1.526 2.7663-8.5572 5.3218-15.625l4.65-12.85h7.4028 7.4028l0.3311 37.188 0.3311 37.188h29.356c18.738 0 29.356-0.45215 29.356-1.25 0-0.6875 1.3661-1.25 3.0357-1.25 3.6252 0 5.7026-1.9317 11.242-10.454 5.8587-9.0131 14.987-17.596 17.634-16.58 1.44 0.55258 1.8011 1.4871 1.1522 2.9818-4.4627 10.279 1.6432 21.533 11.84 21.823 2.8015 0.07965 3.846 0.70886 3.846 2.3168 0 2.0577 2.8625 2.2372 42.188 2.646 32.967 0.34273 42.491 0.09189 43.575-1.1477 0.7633-0.87245 2.8555-1.5863 4.6494-1.5863 2.6558 0 4.4072-1.6977 9.4288-9.1393 3.3919-5.0266 8.2449-10.964 10.784-13.193 4.5878-4.0282 9.2376-4.7884 8.2154-1.3431-0.29387 0.99042-0.77309 4.2002-1.0649 7.1329-0.48393 4.863-0.0924 5.7703 4.4498 10.312 3.754 3.754 5.9759 4.9804 9.0232 4.9804 3.235 0 3.9285 0.43713 3.4707 2.1875-0.542 2.0722 4.9028 2.1713 103.29 1.8793 57.125-0.16949 107.94-0.31012 112.93-0.3125 7.5921-0.0036 9.0625-0.33948 9.0625-2.0699 0-2.1845 6.6773-30.94 8.6635-37.309 0.64319-2.0625 1.7821-6.1067 2.5309-8.9871 0.89984-3.4615 2.2355-5.5145 3.9395-6.0554 2.0159-0.63982 2.4079-1.496 1.7979-3.9265-0.63539-2.5316-0.36513-3.0231 1.4566-2.6493 1.307 0.26817 2.0831 1.3533 1.8673 2.6104-0.22685 1.3211 0.78055 2.5887 2.6101 3.2843l2.9796 1.1328 0.77565 37.371c0.4266 20.554 1.1404 38.321 1.5861 39.483 0.5061 1.3189 2.1882 2.1121 4.479 2.1121 5.336 0 8.9121 3.8774 8.8794 9.6274-0.14004 24.643-0.0295 23.924-3.7436 24.352-2.2875 0.26392-3.974 1.5394-5.0682 3.833-0.90197 1.8906-2.3844 3.4375-3.2943 3.4375-0.90988 0-2.4523 1.2018-3.4276 2.6707-1.6114 2.4269-3.3653 2.7593-19.215 3.642-9.5929 0.53422-22.469 1.1606-28.614 1.3918l-11.173 0.42053 0.32676-13.209 0.32676-13.209-5.0162-6.346c-8.9106-11.273-4.9647-10.852-91.667-9.7841-66.334 0.81671-75.59 1.1663-78.325 2.9588-1.813 1.1879-5.4761 6.9794-8.8146 13.936-5.3639 11.177-5.7391 12.639-6.1489 23.946l-0.4364 12.042-18.325 0.80494c-10.079 0.44272-22.452 1.1414-27.497 1.5526l-9.1718 0.74765 0.38799-4.5034c0.2134-2.4769-0.17625-5.0677-0.86589-5.7573-0.82033-0.82033-15.22-0.97588-41.643-0.44988-32.257 0.64212-40.744 1.1585-42.15 2.5645-1.2968 1.2968-1.7605 5.3186-1.7605 15.269 0 12.476-0.20741 13.646-2.7134 15.31-3.4262 2.2749-2.0527 4.7533 2.6341 4.7533 5.7872 0 6.687-2.4064 6.81-18.213l0.112-14.388 36.228 0.36295 36.228 0.36294 2.7026 4.8202c2.4602 4.3877 3.527 10.357 4.9466 27.68 0.22538 2.75 1.0208 11.469 1.7676 19.375 1.6374 17.334 3.2722 108.8 2.0601 115.27-0.62189 3.3149-1.9718 5.2656-4.8798 7.0515-3.5768 2.1966-7.2974 2.5688-33.742 3.3762-16.347 0.4991-30.021 1.391-30.386 1.9819-1.0459 1.6923-6.0493 1.2556-8.7151-0.76076zm-18.438-8.4772c0.5562-0.85938 1.0113-5.0978 1.0113-9.4188 0-4.3621 0.61426-8.2538 1.3811-8.75 0.98872-0.63977 1.1017-8.7065 0.39772-28.394-0.54085-15.125-1.0217-31.297-1.0686-35.938l-0.08-8.43h-12.714c-9.97 0-13.197 0.43741-14.953 2.0266-3.5482 3.2111-6.0825 1.3064-6.0825-4.5716 0-4.7826-0.1871-5.0555-2.8125-4.1017-5.927 2.1532-12.919 1.1006-18.309-2.7564-9.8277-7.0317-10.447-7.209-13.253-3.7957-1.84 2.2378-3.985 3.1439-8.125 3.4322-5.2441 0.3652-5.9213 0.83668-10 6.9622-11.172 16.778-19.465 37.35-22.728 56.378-1.359 7.9253-1.2781 9.1816 0.84526 13.124 1.892 3.5133 2.0484 4.7215 0.80483 6.2198-1.0376 1.2502-1.1167 2.1233-0.24133 2.6643 0.7161 0.44258 14.103 2.7358 29.748 5.0961s37.727 5.9219 49.071 7.9148c24.266 4.2631 25.787 4.3946 27.114 2.3445zm0.75836-102.81c-0.13912-2.75-0.61861-12.734-1.0656-22.188l-0.81264-17.188h-17.168-17.168l-3.2699 6.5625c-1.7984 3.6094-3.6188 8.0295-4.0454 9.8225-0.83664 3.517 1.9195 11.426 5.2728 15.132 2.7784 3.0701 0.20862 2.8137-3.8577-0.38491-3.749-2.9489-7.5121-9.7122-8.849-15.904-0.49245-2.2807-1.6826-5.6557-2.6448-7.5-0.96221-1.8443-1.753-4.0564-1.7572-4.9158-0.0125-2.502-5.3482-1.7191-8.8261 1.295-1.7564 1.5222-4.2214 5.1336-5.4778 8.0256l-2.2844 5.258 3.9153 6.1014c2.1534 3.3558 3.9153 7.0366 3.9153 8.1795s0.48657 2.0781 1.0813 2.0781c0.59471 0 4.3916 2.2487 8.4375 4.997 8.8447 6.0081 11.98 6.2282 26.303 1.8468 1.8714-0.57243 3.4019-0.0472 5 1.7158 2.0094 2.2169 3.6576 2.5105 12.928 2.3031l10.625-0.23772-0.25291-5zm84.735-89.201c2.0359-2.5104 2.3932-5.0178 2.3932-16.794 0-12.493-0.26514-14.126-2.7179-16.737l-2.73-2.89h-55.782c-41.719 0-56.16 0.37815-57.282 1.5-2.3512 2.3512-2.0751 35.558 0.30665 36.875 0.99366 0.54978 26.917 0.99961 57.607 0.99961h55.8l2.3932-2.951zm-110.11-15.8v-13.125h52.5 52.5v13.125 13.125h-52.5-52.5v-13.125zm391.04-22.038c-0.37023-2.6168-1.1649-2.9998-6.912-3.3321l-6.4937-0.37544-0.3813-5.2388c-0.28159-3.8689-0.96963-5.3504-2.6311-5.6657-2.0051-0.3805-2.2091 0.43426-1.875 7.4892l0.37484 7.9162 6.4607 0.3743c3.806 0.2205 7.0971 1.1411 8.0095 2.2405 2.0177 2.4312 3.9974 0.47448 3.4481-3.4081zm-251.69-27.548c2.4613-1.1215 3.5624-1.1215 4.6838 0 1.7254 1.7254 5.8667 1.8865 8.3341 0.3241 1.4432-0.91386 1.282-1.8497-0.9375-5.4409-1.47-2.385-2.68-5.772-2.68-7.525 0-9.3644-3.9609-8.2682-11.332 3.1359-3.7801 5.8485-4.589 7.9875-3.5118 9.2855 1.6919 2.0386 1.4726 2.0297 5.4436 0.22038zm-217.69-2.451c0.38354-1.4667 0.36168-12.435-0.0486-24.375l-0.75-21.708h-5.4574c-6.2715 0-5.4402-1.3327-12.049 19.318-3.8257 11.954-4.1433 13.868-2.5002 15.07 1.6745 1.2244 1.6692 1.8859-0.0473 5.9941-1.0612 2.5398-2.8019 4.6178-3.8682 4.6178s-1.9388 0.84375-1.9388 1.875c0 1.5463 2.2755 1.875 12.979 1.875 12.198 0 13.021-0.16043 13.677-2.6667zm96.471 1.4138c0.38189-0.61791-0.44667-3.2523-1.8412-5.8543-1.4-2.602-2.54-6.567-2.54-8.812 0-7.2461-3.7441-5.0249-12.437 7.3781-2.2488 3.2088-3.7986 6.3025-3.444 6.875 0.88611 1.4305 19.395 1.8078 20.257 0.41299zm397.54-30.639c0.05-7.645-0.44-9.358-2.68-9.358-1.31 0-1.74 2.027-1.74 8.217 0 7.1526 0.28327 8.1621 2.1875 7.7952 1.7271-0.33279 2.1966-1.7332 2.2307-6.6542zm-238.54 141.1c-1.4656-1.4656-0.98393-9.9257 0.99845-17.537 1.0312-3.9592 1.875-11.509 1.875-16.778 0-8.5032 0.5804-10.896 5.1656-21.3 2.8411-6.4462 5.4142-11.997 5.718-12.334 0.30383-0.33761 35.245-0.43652 77.647-0.21981l77.094 0.39402 5.0201 5.2198 5.0201 5.2198-0.64514 23.75c-0.63626 23.424-0.68359 23.755-3.4455 24.148-2.0752 0.29482-3.1928-0.5145-4.3156-3.125-0.83335-1.9376-1.5736-3.6482-1.6449-3.8015-0.0714-0.15323-2.0668 0.22368-4.4344 0.83758-2.3676 0.61391-20.898 2.0096-41.18 3.1016-20.281 1.092-43.906 2.5614-52.5 3.2654-30.452 2.4945-52.588 3.5709-58.656 2.8522-6.0383-0.71515-6.1542-0.66456-6.5582 2.8612-0.39219 3.4233-3.2641 5.341-5.1596 3.4455zm370.92-44.795c-2.0414-1.5441-10.706-1.8416-54.614-1.875l-52.2-0.03v-10.625-10.625h53.051c34.019 0 53.328-0.44844 53.824-1.25 0.4834-0.7821 13.087-1.25 33.671-1.25 27.718 0 33.143 0.29525 34.454 1.875 1.2059 1.453 1.2215 2.2782 0.069 3.6664-1.1652 1.404-1.052 2.4548 0.5234 4.8592 1.8107 2.7634 1.819 3.259 0.084 4.9944-2.3265 2.3265-2.4721 4.2149-0.3788 4.9127 1.2227 0.40755 1.2283 1.2172 0.027 3.8542l-1.521 3.3382h-32.288c-26.454 0-32.726-0.33157-34.714-1.8352zm-94.4-36.406c-1.3226-1.5936-3.6207-1.9066-11.403-1.5532-5.3607 0.24344-9.7466 0.0166-9.7466-0.50415 0-0.52072-1.125-0.94677-2.5-0.94677-2.3039 0-2.5-0.83333-2.5-10.625v-10.625h12.426c6.9358 0 12.768-0.5523 13.199-1.25 0.42699-0.69089 6.065-1.25 12.605-1.25 11.551 0 11.861 0.07622 13.051 3.2064 1.9653 5.1687 1.5052 19.579-0.72682 22.765-1.7457 2.4924-3.0158 2.7781-12.347 2.7781-8.0004 0-10.783-0.46067-12.057-1.9959z"/>
</svg>
